  0
SECTION
  2
HEADER
  9
$ANGBASE
  50
0.0
  9
$ANGDIR
  70
1
  9
$MEASUREMENT
  70
0
  0
ENDSEC
  0
SECTION
  2
TABLES
  0
TABLE
  2
LTYPE
  70
4
  0
LTYPE
  5
40F
  2
CONTINUOUS
  70
0
  3
Solid line
  72
65
  73
0
  40
0.0
  0
LTYPE
  5
410
  2
DASHDOT
 70
0
  3
Dash Dot ____ _ ____ _
 72
65
 73
4
 40
2.0
 49
1.25
 49
-0.25
 49
0.25
 49
-0.25
  0
LTYPE
  5
411
  2
DASHED
 70
0
  3
Dashed __ __ __ __ __
 72
65
 73
2
 40
0.75
 49
0.5
 49
-0.25
  0
LTYPE
  5
43B
  2
DOTTED
 70
0
  3
Dotted .  .  .  .
 72
65
 73
2
 40
0.2
 49
0.0
 49
-0.2
  0
ENDTAB
  0
TABLE
  2
STYLE
  70
4
  0
STYLE
  2
KICAD
  70
0
  40
0
  41
1
  42
1
  50
0
  71
0
  3
isocp.shx
  0
STYLE
  2
KICADB
  70
0
  40
0
  41
1
  42
1
  50
0
  71
0
  3
isocp.shx
  0
STYLE
  2
KICADI
  70
0
  40
0
  41
1
  42
1
  50
15
  71
0
  3
isocp.shx
  0
STYLE
  2
KICADBI
  70
0
  40
0
  41
1
  42
1
  50
15
  71
0
  3
isocp.shx
  0
ENDTAB
  0
TABLE
  2
LAYER
  70
1
  0
LAYER
  2
BLACK
  70
0
  62
7
  6
CONTINUOUS
  0
ENDTAB
  0
ENDSEC
  0
SECTION
  2
ENTITIES
0
LINE
8
BLACK
6
CONTINUOUS
10
1.42
20
0.41
11
1.36
21
0.41
0
LINE
8
BLACK
6
CONTINUOUS
10
1.36
20
0.41
11
1.36
21
0.47
0
LINE
8
BLACK
6
CONTINUOUS
10
1.36
20
0.47
11
1.42
21
0.47
0
LINE
8
BLACK
6
CONTINUOUS
10
1.42
20
0.47
11
1.42
21
0.41
0
LINE
8
BLACK
6
CONTINUOUS
10
1.52
20
0.41
11
1.46
21
0.41
0
LINE
8
BLACK
6
CONTINUOUS
10
1.46
20
0.41
11
1.46
21
0.47
0
LINE
8
BLACK
6
CONTINUOUS
10
1.46
20
0.47
11
1.52
21
0.47
0
LINE
8
BLACK
6
CONTINUOUS
10
1.52
20
0.47
11
1.52
21
0.41
0
LINE
8
BLACK
6
CONTINUOUS
10
0.77
20
0.82
11
0.71
21
0.82
0
LINE
8
BLACK
6
CONTINUOUS
10
0.71
20
0.82
11
0.71
21
0.88
0
LINE
8
BLACK
6
CONTINUOUS
10
0.71
20
0.88
11
0.77
21
0.88
0
LINE
8
BLACK
6
CONTINUOUS
10
0.77
20
0.88
11
0.77
21
0.82
0
LINE
8
BLACK
6
CONTINUOUS
10
0.77
20
0.92
11
0.71
21
0.92
0
LINE
8
BLACK
6
CONTINUOUS
10
0.71
20
0.92
11
0.71
21
0.98
0
LINE
8
BLACK
6
CONTINUOUS
10
0.71
20
0.98
11
0.77
21
0.98
0
LINE
8
BLACK
6
CONTINUOUS
10
0.77
20
0.98
11
0.77
21
0.92
0
LINE
8
BLACK
6
CONTINUOUS
10
1.42
20
1.13
11
1.36
21
1.13
0
LINE
8
BLACK
6
CONTINUOUS
10
1.36
20
1.13
11
1.36
21
1.19
0
LINE
8
BLACK
6
CONTINUOUS
10
1.36
20
1.19
11
1.42
21
1.19
0
LINE
8
BLACK
6
CONTINUOUS
10
1.42
20
1.19
11
1.42
21
1.13
0
LINE
8
BLACK
6
CONTINUOUS
10
1.52
20
1.13
11
1.46
21
1.13
0
LINE
8
BLACK
6
CONTINUOUS
10
1.46
20
1.13
11
1.46
21
1.19
0
LINE
8
BLACK
6
CONTINUOUS
10
1.46
20
1.19
11
1.52
21
1.19
0
LINE
8
BLACK
6
CONTINUOUS
10
1.52
20
1.19
11
1.52
21
1.13
0
LINE
8
BLACK
6
CONTINUOUS
10
0.63
20
1.2
11
0.57
21
1.2
0
LINE
8
BLACK
6
CONTINUOUS
10
0.57
20
1.2
11
0.57
21
1.26
0
LINE
8
BLACK
6
CONTINUOUS
10
0.57
20
1.26
11
0.63
21
1.26
0
LINE
8
BLACK
6
CONTINUOUS
10
0.63
20
1.26
11
0.63
21
1.2
0
LINE
8
BLACK
6
CONTINUOUS
10
0.63
20
1.3
11
0.57
21
1.3
0
LINE
8
BLACK
6
CONTINUOUS
10
0.57
20
1.3
11
0.57
21
1.36
0
LINE
8
BLACK
6
CONTINUOUS
10
0.57
20
1.36
11
0.63
21
1.36
0
LINE
8
BLACK
6
CONTINUOUS
10
0.63
20
1.36
11
0.63
21
1.3
0
LINE
8
BLACK
6
CONTINUOUS
10
1.98731
20
1.5888
11
1.98914
21
1.58669
0
LINE
8
BLACK
6
CONTINUOUS
10
1.98914
20
1.58669
11
1.98959
21
1.58463
0
LINE
8
BLACK
6
CONTINUOUS
10
1.98959
20
1.58463
11
1.98959
21
0.015374
0
LINE
8
BLACK
6
CONTINUOUS
10
1.98959
20
0.015374
11
1.9888
21
0.0126921
0
LINE
8
BLACK
6
CONTINUOUS
10
1.9888
20
0.0126921
11
1.98669
21
0.0108617
0
LINE
8
BLACK
6
CONTINUOUS
10
1.98669
20
0.0108617
11
1.98463
21
0.0104134
0
LINE
8
BLACK
6
CONTINUOUS
10
1.98463
20
0.0104134
11
0.015374
21
0.0104134
0
LINE
8
BLACK
6
CONTINUOUS
10
0.015374
20
0.0104134
11
0.0126921
21
0.0112009
0
LINE
8
BLACK
6
CONTINUOUS
10
0.0126921
20
0.0112009
11
0.0108617
21
0.0133133
0
LINE
8
BLACK
6
CONTINUOUS
10
0.0108617
20
0.0133133
11
0.0104134
21
0.015374
0
LINE
8
BLACK
6
CONTINUOUS
10
0.0104134
20
0.015374
11
0.0104134
21
0.408186
0
LINE
8
BLACK
6
CONTINUOUS
10
0.0104134
20
0.408186
11
0.0104134
21
0.818186
0
LINE
8
BLACK
6
CONTINUOUS
10
0.0104134
20
0.818186
11
0.0104134
21
0.918186
0
LINE
8
BLACK
6
CONTINUOUS
10
0.0104134
20
0.918186
11
0.0104134
21
1.12819
0
LINE
8
BLACK
6
CONTINUOUS
10
0.0104134
20
1.12819
11
0.0104134
21
1.19819
0
LINE
8
BLACK
6
CONTINUOUS
10
0.0104134
20
1.19819
11
0.0104134
21
1.29819
0
LINE
8
BLACK
6
CONTINUOUS
10
0.0104134
20
1.29819
11
0.0104134
21
1.58463
0
LINE
8
BLACK
6
CONTINUOUS
10
0.0104134
20
1.58463
11
0.0112009
21
1.58731
0
LINE
8
BLACK
6
CONTINUOUS
10
0.0112009
20
1.58731
11
0.0133133
21
1.58914
0
LINE
8
BLACK
6
CONTINUOUS
10
0.0133133
20
1.58914
11
0.015374
21
1.58959
0
LINE
8
BLACK
6
CONTINUOUS
10
0.015374
20
1.58959
11
1.98463
21
1.58959
0
LINE
8
BLACK
6
CONTINUOUS
10
1.98463
20
1.58959
11
1.98731
21
1.5888
0
LINE
8
BLACK
6
CONTINUOUS
10
1.35819
20
0.482146
11
1.35717
21
0.482028
0
LINE
8
BLACK
6
CONTINUOUS
10
1.35717
20
0.482028
11
1.35302
21
0.480194
0
LINE
8
BLACK
6
CONTINUOUS
10
1.35302
20
0.480194
11
1.35302
21
0.480194
0
LINE
8
BLACK
6
CONTINUOUS
10
1.35302
20
0.480194
11
1.35302
21
0.480194
0
LINE
8
BLACK
6
CONTINUOUS
10
1.35302
20
0.480194
11
1.34981
21
0.476983
0
LINE
8
BLACK
6
CONTINUOUS
10
1.34981
20
0.476983
11
1.34981
21
0.476983
0
LINE
8
BLACK
6
CONTINUOUS
10
1.34981
20
0.476983
11
1.34797
21
0.472829
0
LINE
8
BLACK
6
CONTINUOUS
10
1.34797
20
0.472829
11
1.34797
21
0.472829
0
LINE
8
BLACK
6
CONTINUOUS
10
1.34797
20
0.472829
11
1.34785
21
0.471814
0
LINE
8
BLACK
6
CONTINUOUS
10
1.34785
20
0.471814
11
1.34785
21
0.408186
0
LINE
8
BLACK
6
CONTINUOUS
10
1.34785
20
0.408186
11
1.34797
21
0.407171
0
LINE
8
BLACK
6
CONTINUOUS
10
1.34797
20
0.407171
11
1.34797
21
0.407171
0
LINE
8
BLACK
6
CONTINUOUS
10
1.34797
20
0.407171
11
1.34981
21
0.403017
0
LINE
8
BLACK
6
CONTINUOUS
10
1.34981
20
0.403017
11
1.34981
21
0.403017
0
LINE
8
BLACK
6
CONTINUOUS
10
1.34981
20
0.403017
11
1.35302
21
0.399806
0
LINE
8
BLACK
6
CONTINUOUS
10
1.35302
20
0.399806
11
1.35302
21
0.399806
0
LINE
8
BLACK
6
CONTINUOUS
10
1.35302
20
0.399806
11
1.35717
21
0.397972
0
LINE
8
BLACK
6
CONTINUOUS
10
1.35717
20
0.397972
11
1.35717
21
0.397972
0
LINE
8
BLACK
6
CONTINUOUS
10
1.35717
20
0.397972
11
1.35819
21
0.397854
0
LINE
8
BLACK
6
CONTINUOUS
10
1.35819
20
0.397854
11
1.35819
21
0.397854
0
LINE
8
BLACK
6
CONTINUOUS
10
1.35819
20
0.397854
11
1.42181
21
0.397854
0
LINE
8
BLACK
6
CONTINUOUS
10
1.42181
20
0.397854
11
1.42283
21
0.397972
0
LINE
8
BLACK
6
CONTINUOUS
10
1.42283
20
0.397972
11
1.42283
21
0.397972
0
LINE
8
BLACK
6
CONTINUOUS
10
1.42283
20
0.397972
11
1.42698
21
0.399806
0
LINE
8
BLACK
6
CONTINUOUS
10
1.42698
20
0.399806
11
1.42698
21
0.399806
0
LINE
8
BLACK
6
CONTINUOUS
10
1.42698
20
0.399806
11
1.43019
21
0.403017
0
LINE
8
BLACK
6
CONTINUOUS
10
1.43019
20
0.403017
11
1.43019
21
0.403017
0
LINE
8
BLACK
6
CONTINUOUS
10
1.43019
20
0.403017
11
1.43019
21
0.403017
0
LINE
8
BLACK
6
CONTINUOUS
10
1.43019
20
0.403017
11
1.43203
21
0.407171
0
LINE
8
BLACK
6
CONTINUOUS
10
1.43203
20
0.407171
11
1.43215
21
0.408186
0
LINE
8
BLACK
6
CONTINUOUS
10
1.43215
20
0.408186
11
1.43215
21
0.408186
0
LINE
8
BLACK
6
CONTINUOUS
10
1.43215
20
0.408186
11
1.43215
21
0.471814
0
LINE
8
BLACK
6
CONTINUOUS
10
1.43215
20
0.471814
11
1.43203
21
0.472829
0
LINE
8
BLACK
6
CONTINUOUS
10
1.43203
20
0.472829
11
1.43019
21
0.476983
0
LINE
8
BLACK
6
CONTINUOUS
10
1.43019
20
0.476983
11
1.42698
21
0.480194
0
LINE
8
BLACK
6
CONTINUOUS
10
1.42698
20
0.480194
11
1.42283
21
0.482028
0
LINE
8
BLACK
6
CONTINUOUS
10
1.42283
20
0.482028
11
1.42181
21
0.482146
0
LINE
8
BLACK
6
CONTINUOUS
10
1.42181
20
0.482146
11
1.42181
21
0.482146
0
LINE
8
BLACK
6
CONTINUOUS
10
1.42181
20
0.482146
11
1.42181
21
0.482146
0
LINE
8
BLACK
6
CONTINUOUS
10
1.42181
20
0.482146
11
1.35819
21
0.482146
0
LINE
8
BLACK
6
CONTINUOUS
10
1.35819
20
0.482146
11
1.35819
21
0.482146
0
LINE
8
BLACK
6
CONTINUOUS
10
1.35819
20
0.482146
11
1.35819
21
0.482146
0
LINE
8
BLACK
6
CONTINUOUS
10
1.44797
20
0.407171
11
1.44797
21
0.407171
0
LINE
8
BLACK
6
CONTINUOUS
10
1.44797
20
0.407171
11
1.44981
21
0.403017
0
LINE
8
BLACK
6
CONTINUOUS
10
1.44981
20
0.403017
11
1.44981
21
0.403017
0
LINE
8
BLACK
6
CONTINUOUS
10
1.44981
20
0.403017
11
1.45302
21
0.399806
0
LINE
8
BLACK
6
CONTINUOUS
10
1.45302
20
0.399806
11
1.45302
21
0.399806
0
LINE
8
BLACK
6
CONTINUOUS
10
1.45302
20
0.399806
11
1.45717
21
0.397972
0
LINE
8
BLACK
6
CONTINUOUS
10
1.45717
20
0.397972
11
1.45717
21
0.397972
0
LINE
8
BLACK
6
CONTINUOUS
10
1.45717
20
0.397972
11
1.45819
21
0.397854
0
LINE
8
BLACK
6
CONTINUOUS
10
1.45819
20
0.397854
11
1.45819
21
0.397854
0
LINE
8
BLACK
6
CONTINUOUS
10
1.45819
20
0.397854
11
1.52181
21
0.397854
0
LINE
8
BLACK
6
CONTINUOUS
10
1.52181
20
0.397854
11
1.52283
21
0.397972
0
LINE
8
BLACK
6
CONTINUOUS
10
1.52283
20
0.397972
11
1.52283
21
0.397972
0
LINE
8
BLACK
6
CONTINUOUS
10
1.52283
20
0.397972
11
1.52698
21
0.399806
0
LINE
8
BLACK
6
CONTINUOUS
10
1.52698
20
0.399806
11
1.52698
21
0.399806
0
LINE
8
BLACK
6
CONTINUOUS
10
1.52698
20
0.399806
11
1.53019
21
0.403017
0
LINE
8
BLACK
6
CONTINUOUS
10
1.53019
20
0.403017
11
1.53019
21
0.403017
0
LINE
8
BLACK
6
CONTINUOUS
10
1.53019
20
0.403017
11
1.53019
21
0.403017
0
LINE
8
BLACK
6
CONTINUOUS
10
1.53019
20
0.403017
11
1.53203
21
0.407171
0
LINE
8
BLACK
6
CONTINUOUS
10
1.53203
20
0.407171
11
1.53215
21
0.408186
0
LINE
8
BLACK
6
CONTINUOUS
10
1.53215
20
0.408186
11
1.53215
21
0.471814
0
LINE
8
BLACK
6
CONTINUOUS
10
1.53215
20
0.471814
11
1.53203
21
0.472829
0
LINE
8
BLACK
6
CONTINUOUS
10
1.53203
20
0.472829
11
1.53019
21
0.476983
0
LINE
8
BLACK
6
CONTINUOUS
10
1.53019
20
0.476983
11
1.52698
21
0.480194
0
LINE
8
BLACK
6
CONTINUOUS
10
1.52698
20
0.480194
11
1.52283
21
0.482028
0
LINE
8
BLACK
6
CONTINUOUS
10
1.52283
20
0.482028
11
1.52181
21
0.482146
0
LINE
8
BLACK
6
CONTINUOUS
10
1.52181
20
0.482146
11
1.52181
21
0.482146
0
LINE
8
BLACK
6
CONTINUOUS
10
1.52181
20
0.482146
11
1.52181
21
0.482146
0
LINE
8
BLACK
6
CONTINUOUS
10
1.52181
20
0.482146
11
1.45819
21
0.482146
0
LINE
8
BLACK
6
CONTINUOUS
10
1.45819
20
0.482146
11
1.45819
21
0.482146
0
LINE
8
BLACK
6
CONTINUOUS
10
1.45819
20
0.482146
11
1.45819
21
0.482146
0
LINE
8
BLACK
6
CONTINUOUS
10
1.45819
20
0.482146
11
1.45717
21
0.482028
0
LINE
8
BLACK
6
CONTINUOUS
10
1.45717
20
0.482028
11
1.45302
21
0.480194
0
LINE
8
BLACK
6
CONTINUOUS
10
1.45302
20
0.480194
11
1.45302
21
0.480194
0
LINE
8
BLACK
6
CONTINUOUS
10
1.45302
20
0.480194
11
1.45302
21
0.480194
0
LINE
8
BLACK
6
CONTINUOUS
10
1.45302
20
0.480194
11
1.44981
21
0.476983
0
LINE
8
BLACK
6
CONTINUOUS
10
1.44981
20
0.476983
11
1.44981
21
0.476983
0
LINE
8
BLACK
6
CONTINUOUS
10
1.44981
20
0.476983
11
1.44797
21
0.472829
0
LINE
8
BLACK
6
CONTINUOUS
10
1.44797
20
0.472829
11
1.44797
21
0.472829
0
LINE
8
BLACK
6
CONTINUOUS
10
1.44797
20
0.472829
11
1.44785
21
0.471814
0
LINE
8
BLACK
6
CONTINUOUS
10
1.44785
20
0.471814
11
1.44785
21
0.408186
0
LINE
8
BLACK
6
CONTINUOUS
10
1.44785
20
0.408186
11
1.44797
21
0.407171
0
LINE
8
BLACK
6
CONTINUOUS
10
0.708186
20
0.892146
11
0.707171
21
0.892028
0
LINE
8
BLACK
6
CONTINUOUS
10
0.707171
20
0.892028
11
0.703017
21
0.890194
0
LINE
8
BLACK
6
CONTINUOUS
10
0.703017
20
0.890194
11
0.703017
21
0.890194
0
LINE
8
BLACK
6
CONTINUOUS
10
0.703017
20
0.890194
11
0.703017
21
0.890194
0
LINE
8
BLACK
6
CONTINUOUS
10
0.703017
20
0.890194
11
0.703017
21
0.890194
0
LINE
8
BLACK
6
CONTINUOUS
10
0.703017
20
0.890194
11
0.699806
21
0.886983
0
LINE
8
BLACK
6
CONTINUOUS
10
0.699806
20
0.886983
11
0.699806
21
0.886983
0
LINE
8
BLACK
6
CONTINUOUS
10
0.699806
20
0.886983
11
0.697972
21
0.882829
0
LINE
8
BLACK
6
CONTINUOUS
10
0.697972
20
0.882829
11
0.697972
21
0.882829
0
LINE
8
BLACK
6
CONTINUOUS
10
0.697972
20
0.882829
11
0.697854
21
0.881814
0
LINE
8
BLACK
6
CONTINUOUS
10
0.697854
20
0.881814
11
0.697854
21
0.818186
0
LINE
8
BLACK
6
CONTINUOUS
10
0.697854
20
0.818186
11
0.697972
21
0.817171
0
LINE
8
BLACK
6
CONTINUOUS
10
0.697972
20
0.817171
11
0.697972
21
0.817171
0
LINE
8
BLACK
6
CONTINUOUS
10
0.697972
20
0.817171
11
0.699806
21
0.813017
0
LINE
8
BLACK
6
CONTINUOUS
10
0.699806
20
0.813017
11
0.699806
21
0.813017
0
LINE
8
BLACK
6
CONTINUOUS
10
0.699806
20
0.813017
11
0.703017
21
0.809806
0
LINE
8
BLACK
6
CONTINUOUS
10
0.703017
20
0.809806
11
0.703017
21
0.809806
0
LINE
8
BLACK
6
CONTINUOUS
10
0.703017
20
0.809806
11
0.707171
21
0.807972
0
LINE
8
BLACK
6
CONTINUOUS
10
0.707171
20
0.807972
11
0.707171
21
0.807972
0
LINE
8
BLACK
6
CONTINUOUS
10
0.707171
20
0.807972
11
0.708186
21
0.807854
0
LINE
8
BLACK
6
CONTINUOUS
10
0.708186
20
0.807854
11
0.708186
21
0.807854
0
LINE
8
BLACK
6
CONTINUOUS
10
0.708186
20
0.807854
11
0.771814
21
0.807854
0
LINE
8
BLACK
6
CONTINUOUS
10
0.771814
20
0.807854
11
0.772829
21
0.807972
0
LINE
8
BLACK
6
CONTINUOUS
10
0.772829
20
0.807972
11
0.772829
21
0.807972
0
LINE
8
BLACK
6
CONTINUOUS
10
0.772829
20
0.807972
11
0.776983
21
0.809806
0
LINE
8
BLACK
6
CONTINUOUS
10
0.776983
20
0.809806
11
0.776983
21
0.809806
0
LINE
8
BLACK
6
CONTINUOUS
10
0.776983
20
0.809806
11
0.780194
21
0.813017
0
LINE
8
BLACK
6
CONTINUOUS
10
0.780194
20
0.813017
11
0.780194
21
0.813017
0
LINE
8
BLACK
6
CONTINUOUS
10
0.780194
20
0.813017
11
0.780194
21
0.813017
0
LINE
8
BLACK
6
CONTINUOUS
10
0.780194
20
0.813017
11
0.782028
21
0.817171
0
LINE
8
BLACK
6
CONTINUOUS
10
0.782028
20
0.817171
11
0.782146
21
0.818186
0
LINE
8
BLACK
6
CONTINUOUS
10
0.782146
20
0.818186
11
0.782146
21
0.881814
0
LINE
8
BLACK
6
CONTINUOUS
10
0.782146
20
0.881814
11
0.782028
21
0.882829
0
LINE
8
BLACK
6
CONTINUOUS
10
0.782028
20
0.882829
11
0.780194
21
0.886983
0
LINE
8
BLACK
6
CONTINUOUS
10
0.780194
20
0.886983
11
0.776983
21
0.890194
0
LINE
8
BLACK
6
CONTINUOUS
10
0.776983
20
0.890194
11
0.772829
21
0.892028
0
LINE
8
BLACK
6
CONTINUOUS
10
0.772829
20
0.892028
11
0.771814
21
0.892146
0
LINE
8
BLACK
6
CONTINUOUS
10
0.771814
20
0.892146
11
0.771814
21
0.892146
0
LINE
8
BLACK
6
CONTINUOUS
10
0.771814
20
0.892146
11
0.771814
21
0.892146
0
LINE
8
BLACK
6
CONTINUOUS
10
0.771814
20
0.892146
11
0.708186
21
0.892146
0
LINE
8
BLACK
6
CONTINUOUS
10
0.708186
20
0.892146
11
0.708186
21
0.892146
0
LINE
8
BLACK
6
CONTINUOUS
10
0.708186
20
0.892146
11
0.708186
21
0.892146
0
LINE
8
BLACK
6
CONTINUOUS
10
0.708186
20
0.992146
11
0.707171
21
0.992028
0
LINE
8
BLACK
6
CONTINUOUS
10
0.707171
20
0.992028
11
0.703017
21
0.990194
0
LINE
8
BLACK
6
CONTINUOUS
10
0.703017
20
0.990194
11
0.703017
21
0.990194
0
LINE
8
BLACK
6
CONTINUOUS
10
0.703017
20
0.990194
11
0.703017
21
0.990194
0
LINE
8
BLACK
6
CONTINUOUS
10
0.703017
20
0.990194
11
0.703017
21
0.990194
0
LINE
8
BLACK
6
CONTINUOUS
10
0.703017
20
0.990194
11
0.699806
21
0.986983
0
LINE
8
BLACK
6
CONTINUOUS
10
0.699806
20
0.986983
11
0.699806
21
0.986983
0
LINE
8
BLACK
6
CONTINUOUS
10
0.699806
20
0.986983
11
0.697972
21
0.982829
0
LINE
8
BLACK
6
CONTINUOUS
10
0.697972
20
0.982829
11
0.697972
21
0.982829
0
LINE
8
BLACK
6
CONTINUOUS
10
0.697972
20
0.982829
11
0.697854
21
0.981814
0
LINE
8
BLACK
6
CONTINUOUS
10
0.697854
20
0.981814
11
0.697854
21
0.918186
0
LINE
8
BLACK
6
CONTINUOUS
10
0.697854
20
0.918186
11
0.697972
21
0.917171
0
LINE
8
BLACK
6
CONTINUOUS
10
0.697972
20
0.917171
11
0.697972
21
0.917171
0
LINE
8
BLACK
6
CONTINUOUS
10
0.697972
20
0.917171
11
0.699806
21
0.913017
0
LINE
8
BLACK
6
CONTINUOUS
10
0.699806
20
0.913017
11
0.699806
21
0.913017
0
LINE
8
BLACK
6
CONTINUOUS
10
0.699806
20
0.913017
11
0.703017
21
0.909806
0
LINE
8
BLACK
6
CONTINUOUS
10
0.703017
20
0.909806
11
0.703017
21
0.909806
0
LINE
8
BLACK
6
CONTINUOUS
10
0.703017
20
0.909806
11
0.707171
21
0.907972
0
LINE
8
BLACK
6
CONTINUOUS
10
0.707171
20
0.907972
11
0.707171
21
0.907972
0
LINE
8
BLACK
6
CONTINUOUS
10
0.707171
20
0.907972
11
0.708186
21
0.907854
0
LINE
8
BLACK
6
CONTINUOUS
10
0.708186
20
0.907854
11
0.708186
21
0.907854
0
LINE
8
BLACK
6
CONTINUOUS
10
0.708186
20
0.907854
11
0.771814
21
0.907854
0
LINE
8
BLACK
6
CONTINUOUS
10
0.771814
20
0.907854
11
0.772829
21
0.907972
0
LINE
8
BLACK
6
CONTINUOUS
10
0.772829
20
0.907972
11
0.772829
21
0.907972
0
LINE
8
BLACK
6
CONTINUOUS
10
0.772829
20
0.907972
11
0.776983
21
0.909806
0
LINE
8
BLACK
6
CONTINUOUS
10
0.776983
20
0.909806
11
0.776983
21
0.909806
0
LINE
8
BLACK
6
CONTINUOUS
10
0.776983
20
0.909806
11
0.780194
21
0.913017
0
LINE
8
BLACK
6
CONTINUOUS
10
0.780194
20
0.913017
11
0.780194
21
0.913017
0
LINE
8
BLACK
6
CONTINUOUS
10
0.780194
20
0.913017
11
0.780194
21
0.913017
0
LINE
8
BLACK
6
CONTINUOUS
10
0.780194
20
0.913017
11
0.782028
21
0.917171
0
LINE
8
BLACK
6
CONTINUOUS
10
0.782028
20
0.917171
11
0.782146
21
0.918186
0
LINE
8
BLACK
6
CONTINUOUS
10
0.782146
20
0.918186
11
0.782146
21
0.981814
0
LINE
8
BLACK
6
CONTINUOUS
10
0.782146
20
0.981814
11
0.782028
21
0.982829
0
LINE
8
BLACK
6
CONTINUOUS
10
0.782028
20
0.982829
11
0.780194
21
0.986983
0
LINE
8
BLACK
6
CONTINUOUS
10
0.780194
20
0.986983
11
0.776983
21
0.990194
0
LINE
8
BLACK
6
CONTINUOUS
10
0.776983
20
0.990194
11
0.772829
21
0.992028
0
LINE
8
BLACK
6
CONTINUOUS
10
0.772829
20
0.992028
11
0.771814
21
0.992146
0
LINE
8
BLACK
6
CONTINUOUS
10
0.771814
20
0.992146
11
0.771814
21
0.992146
0
LINE
8
BLACK
6
CONTINUOUS
10
0.771814
20
0.992146
11
0.771814
21
0.992146
0
LINE
8
BLACK
6
CONTINUOUS
10
0.771814
20
0.992146
11
0.708186
21
0.992146
0
LINE
8
BLACK
6
CONTINUOUS
10
0.708186
20
0.992146
11
0.708186
21
0.992146
0
LINE
8
BLACK
6
CONTINUOUS
10
0.708186
20
0.992146
11
0.708186
21
0.992146
0
LINE
8
BLACK
6
CONTINUOUS
10
1.35819
20
1.20215
11
1.35717
21
1.20203
0
LINE
8
BLACK
6
CONTINUOUS
10
1.35717
20
1.20203
11
1.35302
21
1.20019
0
LINE
8
BLACK
6
CONTINUOUS
10
1.35302
20
1.20019
11
1.35302
21
1.20019
0
LINE
8
BLACK
6
CONTINUOUS
10
1.35302
20
1.20019
11
1.35302
21
1.20019
0
LINE
8
BLACK
6
CONTINUOUS
10
1.35302
20
1.20019
11
1.34981
21
1.19698
0
LINE
8
BLACK
6
CONTINUOUS
10
1.34981
20
1.19698
11
1.34981
21
1.19698
0
LINE
8
BLACK
6
CONTINUOUS
10
1.34981
20
1.19698
11
1.34797
21
1.19283
0
LINE
8
BLACK
6
CONTINUOUS
10
1.34797
20
1.19283
11
1.34797
21
1.19283
0
LINE
8
BLACK
6
CONTINUOUS
10
1.34797
20
1.19283
11
1.34785
21
1.19181
0
LINE
8
BLACK
6
CONTINUOUS
10
1.34785
20
1.19181
11
1.34785
21
1.12819
0
LINE
8
BLACK
6
CONTINUOUS
10
1.34785
20
1.12819
11
1.34797
21
1.12717
0
LINE
8
BLACK
6
CONTINUOUS
10
1.34797
20
1.12717
11
1.34797
21
1.12717
0
LINE
8
BLACK
6
CONTINUOUS
10
1.34797
20
1.12717
11
1.34981
21
1.12302
0
LINE
8
BLACK
6
CONTINUOUS
10
1.34981
20
1.12302
11
1.34981
21
1.12302
0
LINE
8
BLACK
6
CONTINUOUS
10
1.34981
20
1.12302
11
1.35302
21
1.11981
0
LINE
8
BLACK
6
CONTINUOUS
10
1.35302
20
1.11981
11
1.35302
21
1.11981
0
LINE
8
BLACK
6
CONTINUOUS
10
1.35302
20
1.11981
11
1.35717
21
1.11797
0
LINE
8
BLACK
6
CONTINUOUS
10
1.35717
20
1.11797
11
1.35717
21
1.11797
0
LINE
8
BLACK
6
CONTINUOUS
10
1.35717
20
1.11797
11
1.35819
21
1.11785
0
LINE
8
BLACK
6
CONTINUOUS
10
1.35819
20
1.11785
11
1.35819
21
1.11785
0
LINE
8
BLACK
6
CONTINUOUS
10
1.35819
20
1.11785
11
1.42181
21
1.11785
0
LINE
8
BLACK
6
CONTINUOUS
10
1.42181
20
1.11785
11
1.42283
21
1.11797
0
LINE
8
BLACK
6
CONTINUOUS
10
1.42283
20
1.11797
11
1.42283
21
1.11797
0
LINE
8
BLACK
6
CONTINUOUS
10
1.42283
20
1.11797
11
1.42698
21
1.11981
0
LINE
8
BLACK
6
CONTINUOUS
10
1.42698
20
1.11981
11
1.42698
21
1.11981
0
LINE
8
BLACK
6
CONTINUOUS
10
1.42698
20
1.11981
11
1.43019
21
1.12302
0
LINE
8
BLACK
6
CONTINUOUS
10
1.43019
20
1.12302
11
1.43019
21
1.12302
0
LINE
8
BLACK
6
CONTINUOUS
10
1.43019
20
1.12302
11
1.43019
21
1.12302
0
LINE
8
BLACK
6
CONTINUOUS
10
1.43019
20
1.12302
11
1.43203
21
1.12717
0
LINE
8
BLACK
6
CONTINUOUS
10
1.43203
20
1.12717
11
1.43215
21
1.12819
0
LINE
8
BLACK
6
CONTINUOUS
10
1.43215
20
1.12819
11
1.43215
21
1.12819
0
LINE
8
BLACK
6
CONTINUOUS
10
1.43215
20
1.12819
11
1.43215
21
1.19181
0
LINE
8
BLACK
6
CONTINUOUS
10
1.43215
20
1.19181
11
1.43203
21
1.19283
0
LINE
8
BLACK
6
CONTINUOUS
10
1.43203
20
1.19283
11
1.43019
21
1.19698
0
LINE
8
BLACK
6
CONTINUOUS
10
1.43019
20
1.19698
11
1.42698
21
1.20019
0
LINE
8
BLACK
6
CONTINUOUS
10
1.42698
20
1.20019
11
1.42283
21
1.20203
0
LINE
8
BLACK
6
CONTINUOUS
10
1.42283
20
1.20203
11
1.42181
21
1.20215
0
LINE
8
BLACK
6
CONTINUOUS
10
1.42181
20
1.20215
11
1.42181
21
1.20215
0
LINE
8
BLACK
6
CONTINUOUS
10
1.42181
20
1.20215
11
1.42181
21
1.20215
0
LINE
8
BLACK
6
CONTINUOUS
10
1.42181
20
1.20215
11
1.35819
21
1.20215
0
LINE
8
BLACK
6
CONTINUOUS
10
1.35819
20
1.20215
11
1.35819
21
1.20215
0
LINE
8
BLACK
6
CONTINUOUS
10
1.35819
20
1.20215
11
1.35819
21
1.20215
0
LINE
8
BLACK
6
CONTINUOUS
10
1.44797
20
1.12717
11
1.44797
21
1.12717
0
LINE
8
BLACK
6
CONTINUOUS
10
1.44797
20
1.12717
11
1.44981
21
1.12302
0
LINE
8
BLACK
6
CONTINUOUS
10
1.44981
20
1.12302
11
1.44981
21
1.12302
0
LINE
8
BLACK
6
CONTINUOUS
10
1.44981
20
1.12302
11
1.45302
21
1.11981
0
LINE
8
BLACK
6
CONTINUOUS
10
1.45302
20
1.11981
11
1.45302
21
1.11981
0
LINE
8
BLACK
6
CONTINUOUS
10
1.45302
20
1.11981
11
1.45717
21
1.11797
0
LINE
8
BLACK
6
CONTINUOUS
10
1.45717
20
1.11797
11
1.45717
21
1.11797
0
LINE
8
BLACK
6
CONTINUOUS
10
1.45717
20
1.11797
11
1.45819
21
1.11785
0
LINE
8
BLACK
6
CONTINUOUS
10
1.45819
20
1.11785
11
1.45819
21
1.11785
0
LINE
8
BLACK
6
CONTINUOUS
10
1.45819
20
1.11785
11
1.52181
21
1.11785
0
LINE
8
BLACK
6
CONTINUOUS
10
1.52181
20
1.11785
11
1.52283
21
1.11797
0
LINE
8
BLACK
6
CONTINUOUS
10
1.52283
20
1.11797
11
1.52283
21
1.11797
0
LINE
8
BLACK
6
CONTINUOUS
10
1.52283
20
1.11797
11
1.52698
21
1.11981
0
LINE
8
BLACK
6
CONTINUOUS
10
1.52698
20
1.11981
11
1.52698
21
1.11981
0
LINE
8
BLACK
6
CONTINUOUS
10
1.52698
20
1.11981
11
1.53019
21
1.12302
0
LINE
8
BLACK
6
CONTINUOUS
10
1.53019
20
1.12302
11
1.53019
21
1.12302
0
LINE
8
BLACK
6
CONTINUOUS
10
1.53019
20
1.12302
11
1.53019
21
1.12302
0
LINE
8
BLACK
6
CONTINUOUS
10
1.53019
20
1.12302
11
1.53203
21
1.12717
0
LINE
8
BLACK
6
CONTINUOUS
10
1.53203
20
1.12717
11
1.53215
21
1.12819
0
LINE
8
BLACK
6
CONTINUOUS
10
1.53215
20
1.12819
11
1.53215
21
1.19181
0
LINE
8
BLACK
6
CONTINUOUS
10
1.53215
20
1.19181
11
1.53203
21
1.19283
0
LINE
8
BLACK
6
CONTINUOUS
10
1.53203
20
1.19283
11
1.53019
21
1.19698
0
LINE
8
BLACK
6
CONTINUOUS
10
1.53019
20
1.19698
11
1.52698
21
1.20019
0
LINE
8
BLACK
6
CONTINUOUS
10
1.52698
20
1.20019
11
1.52283
21
1.20203
0
LINE
8
BLACK
6
CONTINUOUS
10
1.52283
20
1.20203
11
1.52181
21
1.20215
0
LINE
8
BLACK
6
CONTINUOUS
10
1.52181
20
1.20215
11
1.52181
21
1.20215
0
LINE
8
BLACK
6
CONTINUOUS
10
1.52181
20
1.20215
11
1.52181
21
1.20215
0
LINE
8
BLACK
6
CONTINUOUS
10
1.52181
20
1.20215
11
1.45819
21
1.20215
0
LINE
8
BLACK
6
CONTINUOUS
10
1.45819
20
1.20215
11
1.45819
21
1.20215
0
LINE
8
BLACK
6
CONTINUOUS
10
1.45819
20
1.20215
11
1.45819
21
1.20215
0
LINE
8
BLACK
6
CONTINUOUS
10
1.45819
20
1.20215
11
1.45717
21
1.20203
0
LINE
8
BLACK
6
CONTINUOUS
10
1.45717
20
1.20203
11
1.45302
21
1.20019
0
LINE
8
BLACK
6
CONTINUOUS
10
1.45302
20
1.20019
11
1.45302
21
1.20019
0
LINE
8
BLACK
6
CONTINUOUS
10
1.45302
20
1.20019
11
1.45302
21
1.20019
0
LINE
8
BLACK
6
CONTINUOUS
10
1.45302
20
1.20019
11
1.44981
21
1.19698
0
LINE
8
BLACK
6
CONTINUOUS
10
1.44981
20
1.19698
11
1.44981
21
1.19698
0
LINE
8
BLACK
6
CONTINUOUS
10
1.44981
20
1.19698
11
1.44797
21
1.19283
0
LINE
8
BLACK
6
CONTINUOUS
10
1.44797
20
1.19283
11
1.44797
21
1.19283
0
LINE
8
BLACK
6
CONTINUOUS
10
1.44797
20
1.19283
11
1.44785
21
1.19181
0
LINE
8
BLACK
6
CONTINUOUS
10
1.44785
20
1.19181
11
1.44785
21
1.12819
0
LINE
8
BLACK
6
CONTINUOUS
10
1.44785
20
1.12819
11
1.44797
21
1.12717
0
LINE
8
BLACK
6
CONTINUOUS
10
0.557972
20
1.19717
11
0.557972
21
1.19717
0
LINE
8
BLACK
6
CONTINUOUS
10
0.557972
20
1.19717
11
0.559806
21
1.19302
0
LINE
8
BLACK
6
CONTINUOUS
10
0.559806
20
1.19302
11
0.559806
21
1.19302
0
LINE
8
BLACK
6
CONTINUOUS
10
0.559806
20
1.19302
11
0.563017
21
1.18981
0
LINE
8
BLACK
6
CONTINUOUS
10
0.563017
20
1.18981
11
0.563017
21
1.18981
0
LINE
8
BLACK
6
CONTINUOUS
10
0.563017
20
1.18981
11
0.567171
21
1.18797
0
LINE
8
BLACK
6
CONTINUOUS
10
0.567171
20
1.18797
11
0.567171
21
1.18797
0
LINE
8
BLACK
6
CONTINUOUS
10
0.567171
20
1.18797
11
0.568186
21
1.18785
0
LINE
8
BLACK
6
CONTINUOUS
10
0.568186
20
1.18785
11
0.568186
21
1.18785
0
LINE
8
BLACK
6
CONTINUOUS
10
0.568186
20
1.18785
11
0.631814
21
1.18785
0
LINE
8
BLACK
6
CONTINUOUS
10
0.631814
20
1.18785
11
0.632829
21
1.18797
0
LINE
8
BLACK
6
CONTINUOUS
10
0.632829
20
1.18797
11
0.632829
21
1.18797
0
LINE
8
BLACK
6
CONTINUOUS
10
0.632829
20
1.18797
11
0.636983
21
1.18981
0
LINE
8
BLACK
6
CONTINUOUS
10
0.636983
20
1.18981
11
0.636983
21
1.18981
0
LINE
8
BLACK
6
CONTINUOUS
10
0.636983
20
1.18981
11
0.640194
21
1.19302
0
LINE
8
BLACK
6
CONTINUOUS
10
0.640194
20
1.19302
11
0.640194
21
1.19302
0
LINE
8
BLACK
6
CONTINUOUS
10
0.640194
20
1.19302
11
0.640194
21
1.19302
0
LINE
8
BLACK
6
CONTINUOUS
10
0.640194
20
1.19302
11
0.642028
21
1.19717
0
LINE
8
BLACK
6
CONTINUOUS
10
0.642028
20
1.19717
11
0.642146
21
1.19819
0
LINE
8
BLACK
6
CONTINUOUS
10
0.642146
20
1.19819
11
0.642146
21
1.26181
0
LINE
8
BLACK
6
CONTINUOUS
10
0.642146
20
1.26181
11
0.642028
21
1.26283
0
LINE
8
BLACK
6
CONTINUOUS
10
0.642028
20
1.26283
11
0.640194
21
1.26698
0
LINE
8
BLACK
6
CONTINUOUS
10
0.640194
20
1.26698
11
0.636983
21
1.27019
0
LINE
8
BLACK
6
CONTINUOUS
10
0.636983
20
1.27019
11
0.632829
21
1.27203
0
LINE
8
BLACK
6
CONTINUOUS
10
0.632829
20
1.27203
11
0.631814
21
1.27215
0
LINE
8
BLACK
6
CONTINUOUS
10
0.631814
20
1.27215
11
0.631814
21
1.27215
0
LINE
8
BLACK
6
CONTINUOUS
10
0.631814
20
1.27215
11
0.631814
21
1.27215
0
LINE
8
BLACK
6
CONTINUOUS
10
0.631814
20
1.27215
11
0.568186
21
1.27215
0
LINE
8
BLACK
6
CONTINUOUS
10
0.568186
20
1.27215
11
0.568186
21
1.27215
0
LINE
8
BLACK
6
CONTINUOUS
10
0.568186
20
1.27215
11
0.568186
21
1.27215
0
LINE
8
BLACK
6
CONTINUOUS
10
0.568186
20
1.27215
11
0.567171
21
1.27203
0
LINE
8
BLACK
6
CONTINUOUS
10
0.567171
20
1.27203
11
0.563017
21
1.27019
0
LINE
8
BLACK
6
CONTINUOUS
10
0.563017
20
1.27019
11
0.563017
21
1.27019
0
LINE
8
BLACK
6
CONTINUOUS
10
0.563017
20
1.27019
11
0.563017
21
1.27019
0
LINE
8
BLACK
6
CONTINUOUS
10
0.563017
20
1.27019
11
0.563017
21
1.27019
0
LINE
8
BLACK
6
CONTINUOUS
10
0.563017
20
1.27019
11
0.559806
21
1.26698
0
LINE
8
BLACK
6
CONTINUOUS
10
0.559806
20
1.26698
11
0.559806
21
1.26698
0
LINE
8
BLACK
6
CONTINUOUS
10
0.559806
20
1.26698
11
0.557972
21
1.26283
0
LINE
8
BLACK
6
CONTINUOUS
10
0.557972
20
1.26283
11
0.557972
21
1.26283
0
LINE
8
BLACK
6
CONTINUOUS
10
0.557972
20
1.26283
11
0.557854
21
1.26181
0
LINE
8
BLACK
6
CONTINUOUS
10
0.557854
20
1.26181
11
0.557854
21
1.19819
0
LINE
8
BLACK
6
CONTINUOUS
10
0.557854
20
1.19819
11
0.557972
21
1.19717
0
LINE
8
BLACK
6
CONTINUOUS
10
0.568186
20
1.37215
11
0.567171
21
1.37203
0
LINE
8
BLACK
6
CONTINUOUS
10
0.567171
20
1.37203
11
0.563017
21
1.37019
0
LINE
8
BLACK
6
CONTINUOUS
10
0.563017
20
1.37019
11
0.563017
21
1.37019
0
LINE
8
BLACK
6
CONTINUOUS
10
0.563017
20
1.37019
11
0.563017
21
1.37019
0
LINE
8
BLACK
6
CONTINUOUS
10
0.563017
20
1.37019
11
0.563017
21
1.37019
0
LINE
8
BLACK
6
CONTINUOUS
10
0.563017
20
1.37019
11
0.559806
21
1.36698
0
LINE
8
BLACK
6
CONTINUOUS
10
0.559806
20
1.36698
11
0.559806
21
1.36698
0
LINE
8
BLACK
6
CONTINUOUS
10
0.559806
20
1.36698
11
0.557972
21
1.36283
0
LINE
8
BLACK
6
CONTINUOUS
10
0.557972
20
1.36283
11
0.557972
21
1.36283
0
LINE
8
BLACK
6
CONTINUOUS
10
0.557972
20
1.36283
11
0.557854
21
1.36181
0
LINE
8
BLACK
6
CONTINUOUS
10
0.557854
20
1.36181
11
0.557854
21
1.29819
0
LINE
8
BLACK
6
CONTINUOUS
10
0.557854
20
1.29819
11
0.557972
21
1.29717
0
LINE
8
BLACK
6
CONTINUOUS
10
0.557972
20
1.29717
11
0.557972
21
1.29717
0
LINE
8
BLACK
6
CONTINUOUS
10
0.557972
20
1.29717
11
0.559806
21
1.29302
0
LINE
8
BLACK
6
CONTINUOUS
10
0.559806
20
1.29302
11
0.559806
21
1.29302
0
LINE
8
BLACK
6
CONTINUOUS
10
0.559806
20
1.29302
11
0.563017
21
1.28981
0
LINE
8
BLACK
6
CONTINUOUS
10
0.563017
20
1.28981
11
0.563017
21
1.28981
0
LINE
8
BLACK
6
CONTINUOUS
10
0.563017
20
1.28981
11
0.567171
21
1.28797
0
LINE
8
BLACK
6
CONTINUOUS
10
0.567171
20
1.28797
11
0.567171
21
1.28797
0
LINE
8
BLACK
6
CONTINUOUS
10
0.567171
20
1.28797
11
0.568186
21
1.28785
0
LINE
8
BLACK
6
CONTINUOUS
10
0.568186
20
1.28785
11
0.568186
21
1.28785
0
LINE
8
BLACK
6
CONTINUOUS
10
0.568186
20
1.28785
11
0.631814
21
1.28785
0
LINE
8
BLACK
6
CONTINUOUS
10
0.631814
20
1.28785
11
0.632829
21
1.28797
0
LINE
8
BLACK
6
CONTINUOUS
10
0.632829
20
1.28797
11
0.632829
21
1.28797
0
LINE
8
BLACK
6
CONTINUOUS
10
0.632829
20
1.28797
11
0.636983
21
1.28981
0
LINE
8
BLACK
6
CONTINUOUS
10
0.636983
20
1.28981
11
0.636983
21
1.28981
0
LINE
8
BLACK
6
CONTINUOUS
10
0.636983
20
1.28981
11
0.640194
21
1.29302
0
LINE
8
BLACK
6
CONTINUOUS
10
0.640194
20
1.29302
11
0.640194
21
1.29302
0
LINE
8
BLACK
6
CONTINUOUS
10
0.640194
20
1.29302
11
0.640194
21
1.29302
0
LINE
8
BLACK
6
CONTINUOUS
10
0.640194
20
1.29302
11
0.642028
21
1.29717
0
LINE
8
BLACK
6
CONTINUOUS
10
0.642028
20
1.29717
11
0.642146
21
1.29819
0
LINE
8
BLACK
6
CONTINUOUS
10
0.642146
20
1.29819
11
0.642146
21
1.36181
0
LINE
8
BLACK
6
CONTINUOUS
10
0.642146
20
1.36181
11
0.642028
21
1.36283
0
LINE
8
BLACK
6
CONTINUOUS
10
0.642028
20
1.36283
11
0.640194
21
1.36698
0
LINE
8
BLACK
6
CONTINUOUS
10
0.640194
20
1.36698
11
0.636983
21
1.37019
0
LINE
8
BLACK
6
CONTINUOUS
10
0.636983
20
1.37019
11
0.632829
21
1.37203
0
LINE
8
BLACK
6
CONTINUOUS
10
0.632829
20
1.37203
11
0.631814
21
1.37215
0
LINE
8
BLACK
6
CONTINUOUS
10
0.631814
20
1.37215
11
0.631814
21
1.37215
0
LINE
8
BLACK
6
CONTINUOUS
10
0.631814
20
1.37215
11
0.631814
21
1.37215
0
LINE
8
BLACK
6
CONTINUOUS
10
0.631814
20
1.37215
11
0.568186
21
1.37215
0
LINE
8
BLACK
6
CONTINUOUS
10
0.568186
20
1.37215
11
0.568186
21
1.37215
0
LINE
8
BLACK
6
CONTINUOUS
10
0.568186
20
1.37215
11
0.568186
21
1.37215
0
CIRCLE
8
BLACK
10
0.2
20
1.4
40
0.00688976
0
CIRCLE
8
BLACK
10
1.8
20
0.2
40
0.00688976
0
CIRCLE
8
BLACK
10
1.8
20
1.4
40
0.00688976
0
CIRCLE
8
BLACK
10
0.2
20
0.2
40
0.00688976
0
CIRCLE
8
BLACK
10
0.5
20
1.23
40
0.00688976
0
CIRCLE
8
BLACK
10
0.5
20
1.33
40
0.00688976
0
CIRCLE
8
BLACK
10
0.6
20
1.23
40
0.00688976
0
CIRCLE
8
BLACK
10
0.6
20
1.33
40
0.00688976
0
CIRCLE
8
BLACK
10
0.7
20
1.23
40
0.00688976
0
CIRCLE
8
BLACK
10
0.7
20
1.33
40
0.00688976
0
CIRCLE
8
BLACK
10
1.49
20
0.34
40
0.00688976
0
CIRCLE
8
BLACK
10
1.39
20
0.34
40
0.00688976
0
CIRCLE
8
BLACK
10
1.49
20
0.44
40
0.00688976
0
CIRCLE
8
BLACK
10
1.39
20
0.44
40
0.00688976
0
CIRCLE
8
BLACK
10
1.49
20
0.54
40
0.00688976
0
CIRCLE
8
BLACK
10
1.39
20
0.54
40
0.00688976
0
CIRCLE
8
BLACK
10
1.39
20
1.26
40
0.00688976
0
CIRCLE
8
BLACK
10
1.49
20
1.26
40
0.00688976
0
CIRCLE
8
BLACK
10
0.74
20
0.85
40
0.00688976
0
CIRCLE
8
BLACK
10
0.74
20
0.95
40
0.00688976
0
CIRCLE
8
BLACK
10
1.39
20
1.06
40
0.00688976
0
CIRCLE
8
BLACK
10
1.49
20
1.06
40
0.00688976
0
CIRCLE
8
BLACK
10
1.39
20
1.16
40
0.00688976
0
CIRCLE
8
BLACK
10
1.49
20
1.16
40
0.00688976
0
CIRCLE
8
BLACK
10
0.84
20
0.85
40
0.00688976
0
CIRCLE
8
BLACK
10
0.84
20
0.95
40
0.00688976
0
CIRCLE
8
BLACK
10
0.82
20
0.76
40
0.00787402
0
CIRCLE
8
BLACK
10
0.86
20
0.76
40
0.00787402
0
CIRCLE
8
BLACK
10
0.9
20
0.76
40
0.00787402
0
CIRCLE
8
BLACK
10
0.64
20
1.02
40
0.00787402
0
CIRCLE
8
BLACK
10
1.1
20
1.02
40
0.00787402
0
CIRCLE
8
BLACK
10
1.22
20
1.34
40
0.00787402
0
CIRCLE
8
BLACK
10
1.24
20
0.98
40
0.00787402
0
CIRCLE
8
BLACK
10
1.44
20
0.66
40
0.00787402
0
CIRCLE
8
BLACK
10
1.22
20
1.3
40
0.00787402
0
CIRCLE
8
BLACK
10
0.48
20
0.56
40
0.00787402
0
CIRCLE
8
BLACK
10
1.4
20
0.66
40
0.00787402
0
CIRCLE
8
BLACK
10
0.52
20
0.82
40
0.00787402
0
CIRCLE
8
BLACK
10
0.78
20
0.76
40
0.00787402
0
CIRCLE
8
BLACK
10
1.04
20
0.66
40
0.00787402
0
CIRCLE
8
BLACK
10
1.12
20
0.34
40
0.00787402
0
CIRCLE
8
BLACK
10
0.92
20
1.12
40
0.00787402
0
CIRCLE
8
BLACK
10
0.84
20
0.58
40
0.00787402
0
CIRCLE
8
BLACK
10
0.6
20
0.42
40
0.00787402
0
CIRCLE
8
BLACK
10
0.52
20
0.92
40
0.00787402
0
CIRCLE
8
BLACK
10
1.12
20
0.6
40
0.00787402
0
CIRCLE
8
BLACK
10
0.76
20
0.58
40
0.00787402
0
CIRCLE
8
BLACK
10
0.44
20
1.06
40
0.00787402
0
CIRCLE
8
BLACK
10
0.52
20
1.14
40
0.00787402
0
CIRCLE
8
BLACK
10
1.12
20
0.4
40
0.00787402
0
CIRCLE
8
BLACK
10
1.24
20
0.86
40
0.00787402
0
CIRCLE
8
BLACK
10
0.88
20
1.34
40
0.00787402
0
CIRCLE
8
BLACK
10
0.44
20
0.62
40
0.00787402
0
CIRCLE
8
BLACK
10
1.08
20
0.6
40
0.00787402
0
CIRCLE
8
BLACK
10
0.82
20
0.64
40
0.00787402
0
CIRCLE
8
BLACK
10
0.52
20
0.96
40
0.00787402
0
CIRCLE
8
BLACK
10
0.94
20
0.64
40
0.00787402
0
CIRCLE
8
BLACK
10
1.12
20
0.28
40
0.00787402
0
CIRCLE
8
BLACK
10
1.1
20
0.66
40
0.00787402
0
CIRCLE
8
BLACK
10
0.54
20
0.6
40
0.00787402
0
CIRCLE
8
BLACK
10
0.48
20
0.6
40
0.00787402
0
CIRCLE
8
BLACK
10
0.54
20
0.42
40
0.00787402
0
CIRCLE
8
BLACK
10
1.08
20
1.14
40
0.00787402
0
CIRCLE
8
BLACK
10
0.54
20
0.52
40
0.00787402
0
CIRCLE
8
BLACK
10
1.12
20
0.98
40
0.00787402
0
CIRCLE
8
BLACK
10
0.52
20
0.86
40
0.00787402
0
CIRCLE
8
BLACK
10
1.24
20
0.82
40
0.00787402
0
CIRCLE
8
BLACK
10
1.5
20
0.66
40
0.00787402
0
CIRCLE
8
BLACK
10
1.04
20
0.96
40
0.00787402
0
CIRCLE
8
BLACK
10
0.98
20
0.64
40
0.00787402
0
CIRCLE
8
BLACK
10
1.04
20
0.86
40
0.00787402
0
CIRCLE
8
BLACK
10
1.26
20
0.68
40
0.00787402
0
CIRCLE
8
BLACK
10
1.24
20
0.78
40
0.00787402
0
CIRCLE
8
BLACK
10
1.24
20
0.74
40
0.00787402
0
CIRCLE
8
BLACK
10
0.9
20
0.58
40
0.00787402
0
CIRCLE
8
BLACK
10
0.82
20
1.22
40
0.00787402
0
CIRCLE
8
BLACK
10
0.76
20
0.64
40
0.00787402
0
CIRCLE
8
BLACK
10
1.12
20
0.86
40
0.00787402
0
CIRCLE
8
BLACK
10
0.62
20
1.1
40
0.00787402
0
CIRCLE
8
BLACK
10
0.92
20
1.08
40
0.00787402
0
CIRCLE
8
BLACK
10
0.54
20
0.48
40
0.00787402
0
CIRCLE
8
BLACK
10
0.68
20
1.1
40
0.00787402
0
CIRCLE
8
BLACK
10
0.82
20
1.34
40
0.00787402
0
CIRCLE
8
BLACK
10
1.12
20
0.8
40
0.00787402
0
CIRCLE
8
BLACK
10
1.12
20
0.92
40
0.00787402
0
CIRCLE
8
BLACK
10
1.36
20
0.66
40
0.00787402
0
CIRCLE
8
BLACK
10
0.88
20
0.64
40
0.00787402
0
CIRCLE
8
BLACK
10
0.48
20
1.1
40
0.00787402
0
CIRCLE
8
BLACK
10
0.54
20
1.02
40
0.00787402
0
CIRCLE
8
BLACK
10
1.04
20
0.9
40
0.00787402
0
CIRCLE
8
BLACK
10
0.82
20
1.28
40
0.00787402
0
CIRCLE
8
BLACK
10
0.74
20
0.76
40
0.00787402
0
CIRCLE
8
BLACK
10
0.58
20
1.06
40
0.00787402
0
CIRCLE
8
BLACK
10
0.92
20
1.18
40
0.00787402
0
CIRCLE
8
BLACK
10
0.9
20
1.22
40
0.00787402
0
CIRCLE
8
BLACK
10
1.24
20
0.9
40
0.00787402
0
CIRCLE
8
BLACK
10
1.24
20
0.94
40
0.00787402
0
CIRCLE
8
BLACK
10
0.54
20
0.56
40
0.00787402
  0
ENDSEC
  0
EOF
