  0
SECTION
  2
HEADER
  9
$ANGBASE
  50
0.0
  9
$ANGDIR
  70
1
  9
$MEASUREMENT
  70
0
  0
ENDSEC
  0
SECTION
  2
TABLES
  0
TABLE
  2
LTYPE
  70
4
  0
LTYPE
  5
40F
  2
CONTINUOUS
  70
0
  3
Solid line
  72
65
  73
0
  40
0.0
  0
LTYPE
  5
410
  2
DASHDOT
 70
0
  3
Dash Dot ____ _ ____ _
 72
65
 73
4
 40
2.0
 49
1.25
 49
-0.25
 49
0.25
 49
-0.25
  0
LTYPE
  5
411
  2
DASHED
 70
0
  3
Dashed __ __ __ __ __
 72
65
 73
2
 40
0.75
 49
0.5
 49
-0.25
  0
LTYPE
  5
43B
  2
DOTTED
 70
0
  3
Dotted .  .  .  .
 72
65
 73
2
 40
0.2
 49
0.0
 49
-0.2
  0
ENDTAB
  0
TABLE
  2
STYLE
  70
4
  0
STYLE
  2
KICAD
  70
0
  40
0
  41
1
  42
1
  50
0
  71
0
  3
isocp.shx
  0
STYLE
  2
KICADB
  70
0
  40
0
  41
1
  42
1
  50
0
  71
0
  3
isocp.shx
  0
STYLE
  2
KICADI
  70
0
  40
0
  41
1
  42
1
  50
15
  71
0
  3
isocp.shx
  0
STYLE
  2
KICADBI
  70
0
  40
0
  41
1
  42
1
  50
15
  71
0
  3
isocp.shx
  0
ENDTAB
  0
TABLE
  2
LAYER
  70
1
  0
LAYER
  2
BLACK
  70
0
  62
7
  6
CONTINUOUS
  0
ENDTAB
  0
ENDSEC
  0
SECTION
  2
ENTITIES
0
LINE
8
BLACK
6
CONTINUOUS
10
1.29
20
-0.34
11
1.23
21
-0.34
0
LINE
8
BLACK
6
CONTINUOUS
10
1.23
20
-0.34
11
1.23
21
-0.28
0
LINE
8
BLACK
6
CONTINUOUS
10
1.23
20
-0.28
11
1.29
21
-0.28
0
LINE
8
BLACK
6
CONTINUOUS
10
1.29
20
-0.28
11
1.29
21
-0.34
0
LINE
8
BLACK
6
CONTINUOUS
10
1.39
20
-0.34
11
1.33
21
-0.34
0
LINE
8
BLACK
6
CONTINUOUS
10
1.33
20
-0.34
11
1.33
21
-0.28
0
LINE
8
BLACK
6
CONTINUOUS
10
1.33
20
-0.28
11
1.39
21
-0.28
0
LINE
8
BLACK
6
CONTINUOUS
10
1.39
20
-0.28
11
1.39
21
-0.34
0
LINE
8
BLACK
6
CONTINUOUS
10
1.29
20
-0.24
11
1.23
21
-0.24
0
LINE
8
BLACK
6
CONTINUOUS
10
1.23
20
-0.24
11
1.23
21
-0.18
0
LINE
8
BLACK
6
CONTINUOUS
10
1.23
20
-0.18
11
1.29
21
-0.18
0
LINE
8
BLACK
6
CONTINUOUS
10
1.29
20
-0.18
11
1.29
21
-0.24
0
LINE
8
BLACK
6
CONTINUOUS
10
1.39
20
-0.24
11
1.33
21
-0.24
0
LINE
8
BLACK
6
CONTINUOUS
10
1.33
20
-0.24
11
1.33
21
-0.18
0
LINE
8
BLACK
6
CONTINUOUS
10
1.33
20
-0.18
11
1.39
21
-0.18
0
LINE
8
BLACK
6
CONTINUOUS
10
1.39
20
-0.18
11
1.39
21
-0.24
0
LINE
8
BLACK
6
CONTINUOUS
10
0.22051
20
0.316316
11
0.233874
21
0.313148
0
LINE
8
BLACK
6
CONTINUOUS
10
0.233874
20
0.313148
11
0.246781
21
0.308451
0
LINE
8
BLACK
6
CONTINUOUS
10
0.246781
20
0.308451
11
0.259055
21
0.302286
0
LINE
8
BLACK
6
CONTINUOUS
10
0.259055
20
0.302286
11
0.270531
21
0.294739
0
LINE
8
BLACK
6
CONTINUOUS
10
0.270531
20
0.294739
11
0.281052
21
0.28591
0
LINE
8
BLACK
6
CONTINUOUS
10
0.281052
20
0.28591
11
0.290478
21
0.27592
0
LINE
8
BLACK
6
CONTINUOUS
10
0.290478
20
0.27592
11
0.29868
21
0.264903
0
LINE
8
BLACK
6
CONTINUOUS
10
0.29868
20
0.264903
11
0.305547
21
0.253008
0
LINE
8
BLACK
6
CONTINUOUS
10
0.305547
20
0.253008
11
0.310987
21
0.240396
0
LINE
8
BLACK
6
CONTINUOUS
10
0.310987
20
0.240396
11
0.314927
21
0.227238
0
LINE
8
BLACK
6
CONTINUOUS
10
0.314927
20
0.227238
11
0.317312
21
0.213712
0
LINE
8
BLACK
6
CONTINUOUS
10
0.317312
20
0.213712
11
0.31811
21
0.2
0
LINE
8
BLACK
6
CONTINUOUS
10
0.31811
20
0.2
11
0.317312
21
0.186288
0
LINE
8
BLACK
6
CONTINUOUS
10
0.317312
20
0.186288
11
0.314927
21
0.172762
0
LINE
8
BLACK
6
CONTINUOUS
10
0.314927
20
0.172762
11
0.310987
21
0.159604
0
LINE
8
BLACK
6
CONTINUOUS
10
0.310987
20
0.159604
11
0.305547
21
0.146992
0
LINE
8
BLACK
6
CONTINUOUS
10
0.305547
20
0.146992
11
0.29868
21
0.135097
0
LINE
8
BLACK
6
CONTINUOUS
10
0.29868
20
0.135097
11
0.290478
21
0.12408
0
LINE
8
BLACK
6
CONTINUOUS
10
0.290478
20
0.12408
11
0.281052
21
0.11409
0
LINE
8
BLACK
6
CONTINUOUS
10
0.281052
20
0.11409
11
0.270531
21
0.105261
0
LINE
8
BLACK
6
CONTINUOUS
10
0.270531
20
0.105261
11
0.259055
21
0.0977135
0
LINE
8
BLACK
6
CONTINUOUS
10
0.259055
20
0.0977135
11
0.246781
21
0.0915493
0
LINE
8
BLACK
6
CONTINUOUS
10
0.246781
20
0.0915493
11
0.233874
21
0.0868516
0
LINE
8
BLACK
6
CONTINUOUS
10
0.233874
20
0.0868516
11
0.22051
21
0.0836841
0
LINE
8
BLACK
6
CONTINUOUS
10
0.22051
20
0.0836841
11
0.206867
21
0.0820896
0
LINE
8
BLACK
6
CONTINUOUS
10
0.206867
20
0.0820896
11
0.193133
21
0.0820896
0
LINE
8
BLACK
6
CONTINUOUS
10
0.193133
20
0.0820896
11
0.17949
21
0.0836841
0
LINE
8
BLACK
6
CONTINUOUS
10
0.17949
20
0.0836841
11
0.166126
21
0.0868516
0
LINE
8
BLACK
6
CONTINUOUS
10
0.166126
20
0.0868516
11
0.153219
21
0.0915493
0
LINE
8
BLACK
6
CONTINUOUS
10
0.153219
20
0.0915493
11
0.140945
21
0.0977135
0
LINE
8
BLACK
6
CONTINUOUS
10
0.140945
20
0.0977135
11
0.129469
21
0.105261
0
LINE
8
BLACK
6
CONTINUOUS
10
0.129469
20
0.105261
11
0.118948
21
0.11409
0
LINE
8
BLACK
6
CONTINUOUS
10
0.118948
20
0.11409
11
0.109522
21
0.12408
0
LINE
8
BLACK
6
CONTINUOUS
10
0.109522
20
0.12408
11
0.10132
21
0.135097
0
LINE
8
BLACK
6
CONTINUOUS
10
0.10132
20
0.135097
11
0.0944528
21
0.146992
0
LINE
8
BLACK
6
CONTINUOUS
10
0.0944528
20
0.146992
11
0.0890127
21
0.159604
0
LINE
8
BLACK
6
CONTINUOUS
10
0.0890127
20
0.159604
11
0.0850734
21
0.172762
0
LINE
8
BLACK
6
CONTINUOUS
10
0.0850734
20
0.172762
11
0.0826884
21
0.186288
0
LINE
8
BLACK
6
CONTINUOUS
10
0.0826884
20
0.186288
11
0.0818898
21
0.2
0
LINE
8
BLACK
6
CONTINUOUS
10
0.0818898
20
0.2
11
0.0826884
21
0.213712
0
LINE
8
BLACK
6
CONTINUOUS
10
0.0826884
20
0.213712
11
0.0850734
21
0.227238
0
LINE
8
BLACK
6
CONTINUOUS
10
0.0850734
20
0.227238
11
0.0890127
21
0.240396
0
LINE
8
BLACK
6
CONTINUOUS
10
0.0890127
20
0.240396
11
0.0944528
21
0.253008
0
LINE
8
BLACK
6
CONTINUOUS
10
0.0944528
20
0.253008
11
0.10132
21
0.264903
0
LINE
8
BLACK
6
CONTINUOUS
10
0.10132
20
0.264903
11
0.109522
21
0.27592
0
LINE
8
BLACK
6
CONTINUOUS
10
0.109522
20
0.27592
11
0.118948
21
0.28591
0
LINE
8
BLACK
6
CONTINUOUS
10
0.118948
20
0.28591
11
0.129469
21
0.294739
0
LINE
8
BLACK
6
CONTINUOUS
10
0.129469
20
0.294739
11
0.140945
21
0.302286
0
LINE
8
BLACK
6
CONTINUOUS
10
0.140945
20
0.302286
11
0.153219
21
0.308451
0
LINE
8
BLACK
6
CONTINUOUS
10
0.153219
20
0.308451
11
0.166126
21
0.313148
0
LINE
8
BLACK
6
CONTINUOUS
10
0.166126
20
0.313148
11
0.17949
21
0.316316
0
LINE
8
BLACK
6
CONTINUOUS
10
0.17949
20
0.316316
11
0.193133
21
0.31791
0
LINE
8
BLACK
6
CONTINUOUS
10
0.193133
20
0.31791
11
0.206867
21
0.31791
0
LINE
8
BLACK
6
CONTINUOUS
10
0.206867
20
0.31791
11
0.22051
21
0.316316
0
LINE
8
BLACK
6
CONTINUOUS
10
1.82051
20
0.316316
11
1.83387
21
0.313148
0
LINE
8
BLACK
6
CONTINUOUS
10
1.83387
20
0.313148
11
1.84678
21
0.308451
0
LINE
8
BLACK
6
CONTINUOUS
10
1.84678
20
0.308451
11
1.85906
21
0.302286
0
LINE
8
BLACK
6
CONTINUOUS
10
1.85906
20
0.302286
11
1.87053
21
0.294739
0
LINE
8
BLACK
6
CONTINUOUS
10
1.87053
20
0.294739
11
1.88105
21
0.28591
0
LINE
8
BLACK
6
CONTINUOUS
10
1.88105
20
0.28591
11
1.89048
21
0.27592
0
LINE
8
BLACK
6
CONTINUOUS
10
1.89048
20
0.27592
11
1.89868
21
0.264903
0
LINE
8
BLACK
6
CONTINUOUS
10
1.89868
20
0.264903
11
1.90555
21
0.253008
0
LINE
8
BLACK
6
CONTINUOUS
10
1.90555
20
0.253008
11
1.91099
21
0.240396
0
LINE
8
BLACK
6
CONTINUOUS
10
1.91099
20
0.240396
11
1.91493
21
0.227238
0
LINE
8
BLACK
6
CONTINUOUS
10
1.91493
20
0.227238
11
1.91731
21
0.213712
0
LINE
8
BLACK
6
CONTINUOUS
10
1.91731
20
0.213712
11
1.91811
21
0.2
0
LINE
8
BLACK
6
CONTINUOUS
10
1.91811
20
0.2
11
1.91731
21
0.186288
0
LINE
8
BLACK
6
CONTINUOUS
10
1.91731
20
0.186288
11
1.91493
21
0.172762
0
LINE
8
BLACK
6
CONTINUOUS
10
1.91493
20
0.172762
11
1.91099
21
0.159604
0
LINE
8
BLACK
6
CONTINUOUS
10
1.91099
20
0.159604
11
1.90555
21
0.146992
0
LINE
8
BLACK
6
CONTINUOUS
10
1.90555
20
0.146992
11
1.89868
21
0.135097
0
LINE
8
BLACK
6
CONTINUOUS
10
1.89868
20
0.135097
11
1.89048
21
0.12408
0
LINE
8
BLACK
6
CONTINUOUS
10
1.89048
20
0.12408
11
1.88105
21
0.11409
0
LINE
8
BLACK
6
CONTINUOUS
10
1.88105
20
0.11409
11
1.87053
21
0.105261
0
LINE
8
BLACK
6
CONTINUOUS
10
1.87053
20
0.105261
11
1.85906
21
0.0977135
0
LINE
8
BLACK
6
CONTINUOUS
10
1.85906
20
0.0977135
11
1.84678
21
0.0915493
0
LINE
8
BLACK
6
CONTINUOUS
10
1.84678
20
0.0915493
11
1.83387
21
0.0868516
0
LINE
8
BLACK
6
CONTINUOUS
10
1.83387
20
0.0868516
11
1.82051
21
0.0836841
0
LINE
8
BLACK
6
CONTINUOUS
10
1.82051
20
0.0836841
11
1.80687
21
0.0820896
0
LINE
8
BLACK
6
CONTINUOUS
10
1.80687
20
0.0820896
11
1.79313
21
0.0820896
0
LINE
8
BLACK
6
CONTINUOUS
10
1.79313
20
0.0820896
11
1.77949
21
0.0836841
0
LINE
8
BLACK
6
CONTINUOUS
10
1.77949
20
0.0836841
11
1.76613
21
0.0868516
0
LINE
8
BLACK
6
CONTINUOUS
10
1.76613
20
0.0868516
11
1.75322
21
0.0915493
0
LINE
8
BLACK
6
CONTINUOUS
10
1.75322
20
0.0915493
11
1.74094
21
0.0977135
0
LINE
8
BLACK
6
CONTINUOUS
10
1.74094
20
0.0977135
11
1.72947
21
0.105261
0
LINE
8
BLACK
6
CONTINUOUS
10
1.72947
20
0.105261
11
1.71895
21
0.11409
0
LINE
8
BLACK
6
CONTINUOUS
10
1.71895
20
0.11409
11
1.70952
21
0.12408
0
LINE
8
BLACK
6
CONTINUOUS
10
1.70952
20
0.12408
11
1.70132
21
0.135097
0
LINE
8
BLACK
6
CONTINUOUS
10
1.70132
20
0.135097
11
1.69445
21
0.146992
0
LINE
8
BLACK
6
CONTINUOUS
10
1.69445
20
0.146992
11
1.68901
21
0.159604
0
LINE
8
BLACK
6
CONTINUOUS
10
1.68901
20
0.159604
11
1.68507
21
0.172762
0
LINE
8
BLACK
6
CONTINUOUS
10
1.68507
20
0.172762
11
1.68269
21
0.186288
0
LINE
8
BLACK
6
CONTINUOUS
10
1.68269
20
0.186288
11
1.68189
21
0.2
0
LINE
8
BLACK
6
CONTINUOUS
10
1.68189
20
0.2
11
1.68269
21
0.213712
0
LINE
8
BLACK
6
CONTINUOUS
10
1.68269
20
0.213712
11
1.68507
21
0.227238
0
LINE
8
BLACK
6
CONTINUOUS
10
1.68507
20
0.227238
11
1.68901
21
0.240396
0
LINE
8
BLACK
6
CONTINUOUS
10
1.68901
20
0.240396
11
1.69445
21
0.253008
0
LINE
8
BLACK
6
CONTINUOUS
10
1.69445
20
0.253008
11
1.70132
21
0.264903
0
LINE
8
BLACK
6
CONTINUOUS
10
1.70132
20
0.264903
11
1.70952
21
0.27592
0
LINE
8
BLACK
6
CONTINUOUS
10
1.70952
20
0.27592
11
1.71895
21
0.28591
0
LINE
8
BLACK
6
CONTINUOUS
10
1.71895
20
0.28591
11
1.72947
21
0.294739
0
LINE
8
BLACK
6
CONTINUOUS
10
1.72947
20
0.294739
11
1.74094
21
0.302286
0
LINE
8
BLACK
6
CONTINUOUS
10
1.74094
20
0.302286
11
1.75322
21
0.308451
0
LINE
8
BLACK
6
CONTINUOUS
10
1.75322
20
0.308451
11
1.76613
21
0.313148
0
LINE
8
BLACK
6
CONTINUOUS
10
1.76613
20
0.313148
11
1.77949
21
0.316316
0
LINE
8
BLACK
6
CONTINUOUS
10
1.77949
20
0.316316
11
1.79313
21
0.31791
0
LINE
8
BLACK
6
CONTINUOUS
10
1.79313
20
0.31791
11
1.80687
21
0.31791
0
LINE
8
BLACK
6
CONTINUOUS
10
1.80687
20
0.31791
11
1.82051
21
0.316316
0
LINE
8
BLACK
6
CONTINUOUS
10
0.12
20
0.39
11
0.06
21
0.39
0
LINE
8
BLACK
6
CONTINUOUS
10
0.06
20
0.39
11
0.06
21
0.45
0
LINE
8
BLACK
6
CONTINUOUS
10
0.06
20
0.45
11
0.12
21
0.45
0
LINE
8
BLACK
6
CONTINUOUS
10
0.12
20
0.45
11
0.12
21
0.39
0
LINE
8
BLACK
6
CONTINUOUS
10
0.22
20
0.39
11
0.16
21
0.39
0
LINE
8
BLACK
6
CONTINUOUS
10
0.16
20
0.39
11
0.16
21
0.45
0
LINE
8
BLACK
6
CONTINUOUS
10
0.16
20
0.45
11
0.22
21
0.45
0
LINE
8
BLACK
6
CONTINUOUS
10
0.22
20
0.45
11
0.22
21
0.39
0
LINE
8
BLACK
6
CONTINUOUS
10
1.85
20
0.43
11
1.79
21
0.43
0
LINE
8
BLACK
6
CONTINUOUS
10
1.79
20
0.43
11
1.79
21
0.49
0
LINE
8
BLACK
6
CONTINUOUS
10
1.79
20
0.49
11
1.85
21
0.49
0
LINE
8
BLACK
6
CONTINUOUS
10
1.85
20
0.49
11
1.85
21
0.43
0
LINE
8
BLACK
6
CONTINUOUS
10
1.95
20
0.43
11
1.89
21
0.43
0
LINE
8
BLACK
6
CONTINUOUS
10
1.89
20
0.43
11
1.89
21
0.49
0
LINE
8
BLACK
6
CONTINUOUS
10
1.89
20
0.49
11
1.95
21
0.49
0
LINE
8
BLACK
6
CONTINUOUS
10
1.95
20
0.49
11
1.95
21
0.43
0
LINE
8
BLACK
6
CONTINUOUS
10
0.12
20
0.49
11
0.06
21
0.49
0
LINE
8
BLACK
6
CONTINUOUS
10
0.06
20
0.49
11
0.06
21
0.55
0
LINE
8
BLACK
6
CONTINUOUS
10
0.06
20
0.55
11
0.12
21
0.55
0
LINE
8
BLACK
6
CONTINUOUS
10
0.12
20
0.55
11
0.12
21
0.49
0
LINE
8
BLACK
6
CONTINUOUS
10
0.22
20
0.49
11
0.16
21
0.49
0
LINE
8
BLACK
6
CONTINUOUS
10
0.16
20
0.49
11
0.16
21
0.55
0
LINE
8
BLACK
6
CONTINUOUS
10
0.16
20
0.55
11
0.22
21
0.55
0
LINE
8
BLACK
6
CONTINUOUS
10
0.22
20
0.55
11
0.22
21
0.49
0
LINE
8
BLACK
6
CONTINUOUS
10
1.85
20
0.53
11
1.79
21
0.53
0
LINE
8
BLACK
6
CONTINUOUS
10
1.79
20
0.53
11
1.79
21
0.59
0
LINE
8
BLACK
6
CONTINUOUS
10
1.79
20
0.59
11
1.85
21
0.59
0
LINE
8
BLACK
6
CONTINUOUS
10
1.85
20
0.59
11
1.85
21
0.53
0
LINE
8
BLACK
6
CONTINUOUS
10
1.95
20
0.53
11
1.89
21
0.53
0
LINE
8
BLACK
6
CONTINUOUS
10
1.89
20
0.53
11
1.89
21
0.59
0
LINE
8
BLACK
6
CONTINUOUS
10
1.89
20
0.59
11
1.95
21
0.59
0
LINE
8
BLACK
6
CONTINUOUS
10
1.95
20
0.59
11
1.95
21
0.53
0
LINE
8
BLACK
6
CONTINUOUS
10
0.12
20
0.59
11
0.06
21
0.59
0
LINE
8
BLACK
6
CONTINUOUS
10
0.06
20
0.59
11
0.06
21
0.65
0
LINE
8
BLACK
6
CONTINUOUS
10
0.06
20
0.65
11
0.12
21
0.65
0
LINE
8
BLACK
6
CONTINUOUS
10
0.12
20
0.65
11
0.12
21
0.59
0
LINE
8
BLACK
6
CONTINUOUS
10
0.22
20
0.59
11
0.16
21
0.59
0
LINE
8
BLACK
6
CONTINUOUS
10
0.16
20
0.59
11
0.16
21
0.65
0
LINE
8
BLACK
6
CONTINUOUS
10
0.16
20
0.65
11
0.22
21
0.65
0
LINE
8
BLACK
6
CONTINUOUS
10
0.22
20
0.65
11
0.22
21
0.59
0
LINE
8
BLACK
6
CONTINUOUS
10
1.85
20
0.63
11
1.79
21
0.63
0
LINE
8
BLACK
6
CONTINUOUS
10
1.79
20
0.63
11
1.79
21
0.69
0
LINE
8
BLACK
6
CONTINUOUS
10
1.79
20
0.69
11
1.85
21
0.69
0
LINE
8
BLACK
6
CONTINUOUS
10
1.85
20
0.69
11
1.85
21
0.63
0
LINE
8
BLACK
6
CONTINUOUS
10
1.95
20
0.63
11
1.89
21
0.63
0
LINE
8
BLACK
6
CONTINUOUS
10
1.89
20
0.63
11
1.89
21
0.69
0
LINE
8
BLACK
6
CONTINUOUS
10
1.89
20
0.69
11
1.95
21
0.69
0
LINE
8
BLACK
6
CONTINUOUS
10
1.95
20
0.69
11
1.95
21
0.63
0
LINE
8
BLACK
6
CONTINUOUS
10
1.46
20
0.67
11
1.4
21
0.67
0
LINE
8
BLACK
6
CONTINUOUS
10
1.4
20
0.67
11
1.4
21
0.73
0
LINE
8
BLACK
6
CONTINUOUS
10
1.4
20
0.73
11
1.46
21
0.73
0
LINE
8
BLACK
6
CONTINUOUS
10
1.46
20
0.73
11
1.46
21
0.67
0
LINE
8
BLACK
6
CONTINUOUS
10
1.56
20
0.67
11
1.5
21
0.67
0
LINE
8
BLACK
6
CONTINUOUS
10
1.5
20
0.67
11
1.5
21
0.73
0
LINE
8
BLACK
6
CONTINUOUS
10
1.5
20
0.73
11
1.56
21
0.73
0
LINE
8
BLACK
6
CONTINUOUS
10
1.56
20
0.73
11
1.56
21
0.67
0
LINE
8
BLACK
6
CONTINUOUS
10
0.12
20
0.69
11
0.06
21
0.69
0
LINE
8
BLACK
6
CONTINUOUS
10
0.06
20
0.69
11
0.06
21
0.75
0
LINE
8
BLACK
6
CONTINUOUS
10
0.06
20
0.75
11
0.12
21
0.75
0
LINE
8
BLACK
6
CONTINUOUS
10
0.12
20
0.75
11
0.12
21
0.69
0
LINE
8
BLACK
6
CONTINUOUS
10
0.22
20
0.69
11
0.16
21
0.69
0
LINE
8
BLACK
6
CONTINUOUS
10
0.16
20
0.69
11
0.16
21
0.75
0
LINE
8
BLACK
6
CONTINUOUS
10
0.16
20
0.75
11
0.22
21
0.75
0
LINE
8
BLACK
6
CONTINUOUS
10
0.22
20
0.75
11
0.22
21
0.69
0
LINE
8
BLACK
6
CONTINUOUS
10
1.8
20
0.79
11
1.74
21
0.79
0
LINE
8
BLACK
6
CONTINUOUS
10
1.74
20
0.79
11
1.74
21
0.85
0
LINE
8
BLACK
6
CONTINUOUS
10
1.74
20
0.85
11
1.8
21
0.85
0
LINE
8
BLACK
6
CONTINUOUS
10
1.8
20
0.85
11
1.8
21
0.79
0
LINE
8
BLACK
6
CONTINUOUS
10
1.9
20
0.79
11
1.84
21
0.79
0
LINE
8
BLACK
6
CONTINUOUS
10
1.84
20
0.79
11
1.84
21
0.85
0
LINE
8
BLACK
6
CONTINUOUS
10
1.84
20
0.85
11
1.9
21
0.85
0
LINE
8
BLACK
6
CONTINUOUS
10
1.9
20
0.85
11
1.9
21
0.79
0
LINE
8
BLACK
6
CONTINUOUS
10
1.8
20
0.89
11
1.74
21
0.89
0
LINE
8
BLACK
6
CONTINUOUS
10
1.74
20
0.89
11
1.74
21
0.95
0
LINE
8
BLACK
6
CONTINUOUS
10
1.74
20
0.95
11
1.8
21
0.95
0
LINE
8
BLACK
6
CONTINUOUS
10
1.8
20
0.95
11
1.8
21
0.89
0
LINE
8
BLACK
6
CONTINUOUS
10
1.9
20
0.89
11
1.84
21
0.89
0
LINE
8
BLACK
6
CONTINUOUS
10
1.84
20
0.89
11
1.84
21
0.95
0
LINE
8
BLACK
6
CONTINUOUS
10
1.84
20
0.95
11
1.9
21
0.95
0
LINE
8
BLACK
6
CONTINUOUS
10
1.9
20
0.95
11
1.9
21
0.89
0
LINE
8
BLACK
6
CONTINUOUS
10
0.0821209
20
0.997601
11
0.0897424
21
0.994648
0
LINE
8
BLACK
6
CONTINUOUS
10
0.0897424
20
0.994648
11
0.0966915
21
0.990345
0
LINE
8
BLACK
6
CONTINUOUS
10
0.0966915
20
0.990345
11
0.102732
21
0.984839
0
LINE
8
BLACK
6
CONTINUOUS
10
0.102732
20
0.984839
11
0.107657
21
0.978316
0
LINE
8
BLACK
6
CONTINUOUS
10
0.107657
20
0.978316
11
0.1113
21
0.971
0
LINE
8
BLACK
6
CONTINUOUS
10
0.1113
20
0.971
11
0.113537
21
0.963139
0
LINE
8
BLACK
6
CONTINUOUS
10
0.113537
20
0.963139
11
0.114291
21
0.955
0
LINE
8
BLACK
6
CONTINUOUS
10
0.114291
20
0.955
11
0.113537
21
0.946861
0
LINE
8
BLACK
6
CONTINUOUS
10
0.113537
20
0.946861
11
0.1113
21
0.939
0
LINE
8
BLACK
6
CONTINUOUS
10
0.1113
20
0.939
11
0.107657
21
0.931684
0
LINE
8
BLACK
6
CONTINUOUS
10
0.107657
20
0.931684
11
0.102732
21
0.925161
0
LINE
8
BLACK
6
CONTINUOUS
10
0.102732
20
0.925161
11
0.0966915
21
0.919655
0
LINE
8
BLACK
6
CONTINUOUS
10
0.0966915
20
0.919655
11
0.0897424
21
0.915352
0
LINE
8
BLACK
6
CONTINUOUS
10
0.0897424
20
0.915352
11
0.0821209
21
0.912399
0
LINE
8
BLACK
6
CONTINUOUS
10
0.0821209
20
0.912399
11
0.0740867
21
0.910898
0
LINE
8
BLACK
6
CONTINUOUS
10
0.0740867
20
0.910898
11
0.0659133
21
0.910898
0
LINE
8
BLACK
6
CONTINUOUS
10
0.0659133
20
0.910898
11
0.0578791
21
0.912399
0
LINE
8
BLACK
6
CONTINUOUS
10
0.0578791
20
0.912399
11
0.0502576
21
0.915352
0
LINE
8
BLACK
6
CONTINUOUS
10
0.0502576
20
0.915352
11
0.0433085
21
0.919655
0
LINE
8
BLACK
6
CONTINUOUS
10
0.0433085
20
0.919655
11
0.0372683
21
0.925161
0
LINE
8
BLACK
6
CONTINUOUS
10
0.0372683
20
0.925161
11
0.0323428
21
0.931684
0
LINE
8
BLACK
6
CONTINUOUS
10
0.0323428
20
0.931684
11
0.0286996
21
0.939
0
LINE
8
BLACK
6
CONTINUOUS
10
0.0286996
20
0.939
11
0.0264628
21
0.946861
0
LINE
8
BLACK
6
CONTINUOUS
10
0.0264628
20
0.946861
11
0.0257087
21
0.955
0
LINE
8
BLACK
6
CONTINUOUS
10
0.0257087
20
0.955
11
0.0264628
21
0.963139
0
LINE
8
BLACK
6
CONTINUOUS
10
0.0264628
20
0.963139
11
0.0286996
21
0.971
0
LINE
8
BLACK
6
CONTINUOUS
10
0.0286996
20
0.971
11
0.0323428
21
0.978316
0
LINE
8
BLACK
6
CONTINUOUS
10
0.0323428
20
0.978316
11
0.0372683
21
0.984839
0
LINE
8
BLACK
6
CONTINUOUS
10
0.0372683
20
0.984839
11
0.0433085
21
0.990345
0
LINE
8
BLACK
6
CONTINUOUS
10
0.0433085
20
0.990345
11
0.0502576
21
0.994648
0
LINE
8
BLACK
6
CONTINUOUS
10
0.0502576
20
0.994648
11
0.0578791
21
0.997601
0
LINE
8
BLACK
6
CONTINUOUS
10
0.0578791
20
0.997601
11
0.0659133
21
0.999102
0
LINE
8
BLACK
6
CONTINUOUS
10
0.0659133
20
0.999102
11
0.0740867
21
0.999102
0
LINE
8
BLACK
6
CONTINUOUS
10
0.0740867
20
0.999102
11
0.0821209
21
0.997601
0
LINE
8
BLACK
6
CONTINUOUS
10
0.282121
20
0.997601
11
0.289742
21
0.994648
0
LINE
8
BLACK
6
CONTINUOUS
10
0.289742
20
0.994648
11
0.296691
21
0.990345
0
LINE
8
BLACK
6
CONTINUOUS
10
0.296691
20
0.990345
11
0.302732
21
0.984839
0
LINE
8
BLACK
6
CONTINUOUS
10
0.302732
20
0.984839
11
0.307657
21
0.978316
0
LINE
8
BLACK
6
CONTINUOUS
10
0.307657
20
0.978316
11
0.3113
21
0.971
0
LINE
8
BLACK
6
CONTINUOUS
10
0.3113
20
0.971
11
0.313537
21
0.963139
0
LINE
8
BLACK
6
CONTINUOUS
10
0.313537
20
0.963139
11
0.314291
21
0.955
0
LINE
8
BLACK
6
CONTINUOUS
10
0.314291
20
0.955
11
0.313537
21
0.946861
0
LINE
8
BLACK
6
CONTINUOUS
10
0.313537
20
0.946861
11
0.3113
21
0.939
0
LINE
8
BLACK
6
CONTINUOUS
10
0.3113
20
0.939
11
0.307657
21
0.931684
0
LINE
8
BLACK
6
CONTINUOUS
10
0.307657
20
0.931684
11
0.302732
21
0.925161
0
LINE
8
BLACK
6
CONTINUOUS
10
0.302732
20
0.925161
11
0.296691
21
0.919655
0
LINE
8
BLACK
6
CONTINUOUS
10
0.296691
20
0.919655
11
0.289742
21
0.915352
0
LINE
8
BLACK
6
CONTINUOUS
10
0.289742
20
0.915352
11
0.282121
21
0.912399
0
LINE
8
BLACK
6
CONTINUOUS
10
0.282121
20
0.912399
11
0.274087
21
0.910898
0
LINE
8
BLACK
6
CONTINUOUS
10
0.274087
20
0.910898
11
0.265913
21
0.910898
0
LINE
8
BLACK
6
CONTINUOUS
10
0.265913
20
0.910898
11
0.257879
21
0.912399
0
LINE
8
BLACK
6
CONTINUOUS
10
0.257879
20
0.912399
11
0.250258
21
0.915352
0
LINE
8
BLACK
6
CONTINUOUS
10
0.250258
20
0.915352
11
0.243309
21
0.919655
0
LINE
8
BLACK
6
CONTINUOUS
10
0.243309
20
0.919655
11
0.237268
21
0.925161
0
LINE
8
BLACK
6
CONTINUOUS
10
0.237268
20
0.925161
11
0.232343
21
0.931684
0
LINE
8
BLACK
6
CONTINUOUS
10
0.232343
20
0.931684
11
0.2287
21
0.939
0
LINE
8
BLACK
6
CONTINUOUS
10
0.2287
20
0.939
11
0.226463
21
0.946861
0
LINE
8
BLACK
6
CONTINUOUS
10
0.226463
20
0.946861
11
0.225709
21
0.955
0
LINE
8
BLACK
6
CONTINUOUS
10
0.225709
20
0.955
11
0.226463
21
0.963139
0
LINE
8
BLACK
6
CONTINUOUS
10
0.226463
20
0.963139
11
0.2287
21
0.971
0
LINE
8
BLACK
6
CONTINUOUS
10
0.2287
20
0.971
11
0.232343
21
0.978316
0
LINE
8
BLACK
6
CONTINUOUS
10
0.232343
20
0.978316
11
0.237268
21
0.984839
0
LINE
8
BLACK
6
CONTINUOUS
10
0.237268
20
0.984839
11
0.243309
21
0.990345
0
LINE
8
BLACK
6
CONTINUOUS
10
0.243309
20
0.990345
11
0.250258
21
0.994648
0
LINE
8
BLACK
6
CONTINUOUS
10
0.250258
20
0.994648
11
0.257879
21
0.997601
0
LINE
8
BLACK
6
CONTINUOUS
10
0.257879
20
0.997601
11
0.265913
21
0.999102
0
LINE
8
BLACK
6
CONTINUOUS
10
0.265913
20
0.999102
11
0.274087
21
0.999102
0
LINE
8
BLACK
6
CONTINUOUS
10
0.274087
20
0.999102
11
0.282121
21
0.997601
0
LINE
8
BLACK
6
CONTINUOUS
10
1.8
20
0.99
11
1.74
21
0.99
0
LINE
8
BLACK
6
CONTINUOUS
10
1.74
20
0.99
11
1.74
21
1.05
0
LINE
8
BLACK
6
CONTINUOUS
10
1.74
20
1.05
11
1.8
21
1.05
0
LINE
8
BLACK
6
CONTINUOUS
10
1.8
20
1.05
11
1.8
21
0.99
0
LINE
8
BLACK
6
CONTINUOUS
10
1.9
20
0.99
11
1.84
21
0.99
0
LINE
8
BLACK
6
CONTINUOUS
10
1.84
20
0.99
11
1.84
21
1.05
0
LINE
8
BLACK
6
CONTINUOUS
10
1.84
20
1.05
11
1.9
21
1.05
0
LINE
8
BLACK
6
CONTINUOUS
10
1.9
20
1.05
11
1.9
21
0.99
0
LINE
8
BLACK
6
CONTINUOUS
10
0.177873
20
1.09458
11
0.185443
21
1.09228
0
LINE
8
BLACK
6
CONTINUOUS
10
0.185443
20
1.09228
11
0.19242
21
1.08855
0
LINE
8
BLACK
6
CONTINUOUS
10
0.19242
20
1.08855
11
0.198535
21
1.08353
0
LINE
8
BLACK
6
CONTINUOUS
10
0.198535
20
1.08353
11
0.203553
21
1.07742
0
LINE
8
BLACK
6
CONTINUOUS
10
0.203553
20
1.07742
11
0.207283
21
1.07044
0
LINE
8
BLACK
6
CONTINUOUS
10
0.207283
20
1.07044
11
0.209579
21
1.06287
0
LINE
8
BLACK
6
CONTINUOUS
10
0.209579
20
1.06287
11
0.210354
21
1.055
0
LINE
8
BLACK
6
CONTINUOUS
10
0.210354
20
1.055
11
0.209579
21
1.04713
0
LINE
8
BLACK
6
CONTINUOUS
10
0.209579
20
1.04713
11
0.207283
21
1.03956
0
LINE
8
BLACK
6
CONTINUOUS
10
0.207283
20
1.03956
11
0.203553
21
1.03258
0
LINE
8
BLACK
6
CONTINUOUS
10
0.203553
20
1.03258
11
0.198535
21
1.02647
0
LINE
8
BLACK
6
CONTINUOUS
10
0.198535
20
1.02647
11
0.19242
21
1.02145
0
LINE
8
BLACK
6
CONTINUOUS
10
0.19242
20
1.02145
11
0.185443
21
1.01772
0
LINE
8
BLACK
6
CONTINUOUS
10
0.185443
20
1.01772
11
0.177873
21
1.01542
0
LINE
8
BLACK
6
CONTINUOUS
10
0.177873
20
1.01542
11
0.17
21
1.01465
0
LINE
8
BLACK
6
CONTINUOUS
10
0.17
20
1.01465
11
0.162127
21
1.01542
0
LINE
8
BLACK
6
CONTINUOUS
10
0.162127
20
1.01542
11
0.154557
21
1.01772
0
LINE
8
BLACK
6
CONTINUOUS
10
0.154557
20
1.01772
11
0.14758
21
1.02145
0
LINE
8
BLACK
6
CONTINUOUS
10
0.14758
20
1.02145
11
0.141465
21
1.02647
0
LINE
8
BLACK
6
CONTINUOUS
10
0.141465
20
1.02647
11
0.136447
21
1.03258
0
LINE
8
BLACK
6
CONTINUOUS
10
0.136447
20
1.03258
11
0.132717
21
1.03956
0
LINE
8
BLACK
6
CONTINUOUS
10
0.132717
20
1.03956
11
0.130421
21
1.04713
0
LINE
8
BLACK
6
CONTINUOUS
10
0.130421
20
1.04713
11
0.129646
21
1.055
0
LINE
8
BLACK
6
CONTINUOUS
10
0.129646
20
1.055
11
0.130421
21
1.06287
0
LINE
8
BLACK
6
CONTINUOUS
10
0.130421
20
1.06287
11
0.132717
21
1.07044
0
LINE
8
BLACK
6
CONTINUOUS
10
0.132717
20
1.07044
11
0.136447
21
1.07742
0
LINE
8
BLACK
6
CONTINUOUS
10
0.136447
20
1.07742
11
0.141465
21
1.08353
0
LINE
8
BLACK
6
CONTINUOUS
10
0.141465
20
1.08353
11
0.14758
21
1.08855
0
LINE
8
BLACK
6
CONTINUOUS
10
0.14758
20
1.08855
11
0.154557
21
1.09228
0
LINE
8
BLACK
6
CONTINUOUS
10
0.154557
20
1.09228
11
0.162127
21
1.09458
0
LINE
8
BLACK
6
CONTINUOUS
10
0.162127
20
1.09458
11
0.17
21
1.09535
0
LINE
8
BLACK
6
CONTINUOUS
10
0.17
20
1.09535
11
0.177873
21
1.09458
0
LINE
8
BLACK
6
CONTINUOUS
10
1.8
20
1.09
11
1.74
21
1.09
0
LINE
8
BLACK
6
CONTINUOUS
10
1.74
20
1.09
11
1.74
21
1.15
0
LINE
8
BLACK
6
CONTINUOUS
10
1.74
20
1.15
11
1.8
21
1.15
0
LINE
8
BLACK
6
CONTINUOUS
10
1.8
20
1.15
11
1.8
21
1.09
0
LINE
8
BLACK
6
CONTINUOUS
10
1.9
20
1.09
11
1.84
21
1.09
0
LINE
8
BLACK
6
CONTINUOUS
10
1.84
20
1.09
11
1.84
21
1.15
0
LINE
8
BLACK
6
CONTINUOUS
10
1.84
20
1.15
11
1.9
21
1.15
0
LINE
8
BLACK
6
CONTINUOUS
10
1.9
20
1.15
11
1.9
21
1.09
0
LINE
8
BLACK
6
CONTINUOUS
10
0.0821209
20
1.1976
11
0.0897424
21
1.19465
0
LINE
8
BLACK
6
CONTINUOUS
10
0.0897424
20
1.19465
11
0.0966915
21
1.19035
0
LINE
8
BLACK
6
CONTINUOUS
10
0.0966915
20
1.19035
11
0.102732
21
1.18484
0
LINE
8
BLACK
6
CONTINUOUS
10
0.102732
20
1.18484
11
0.107657
21
1.17832
0
LINE
8
BLACK
6
CONTINUOUS
10
0.107657
20
1.17832
11
0.1113
21
1.171
0
LINE
8
BLACK
6
CONTINUOUS
10
0.1113
20
1.171
11
0.113537
21
1.16314
0
LINE
8
BLACK
6
CONTINUOUS
10
0.113537
20
1.16314
11
0.114291
21
1.155
0
LINE
8
BLACK
6
CONTINUOUS
10
0.114291
20
1.155
11
0.113537
21
1.14686
0
LINE
8
BLACK
6
CONTINUOUS
10
0.113537
20
1.14686
11
0.1113
21
1.139
0
LINE
8
BLACK
6
CONTINUOUS
10
0.1113
20
1.139
11
0.107657
21
1.13168
0
LINE
8
BLACK
6
CONTINUOUS
10
0.107657
20
1.13168
11
0.102732
21
1.12516
0
LINE
8
BLACK
6
CONTINUOUS
10
0.102732
20
1.12516
11
0.0966915
21
1.11965
0
LINE
8
BLACK
6
CONTINUOUS
10
0.0966915
20
1.11965
11
0.0897424
21
1.11535
0
LINE
8
BLACK
6
CONTINUOUS
10
0.0897424
20
1.11535
11
0.0821209
21
1.1124
0
LINE
8
BLACK
6
CONTINUOUS
10
0.0821209
20
1.1124
11
0.0740867
21
1.1109
0
LINE
8
BLACK
6
CONTINUOUS
10
0.0740867
20
1.1109
11
0.0659133
21
1.1109
0
LINE
8
BLACK
6
CONTINUOUS
10
0.0659133
20
1.1109
11
0.0578791
21
1.1124
0
LINE
8
BLACK
6
CONTINUOUS
10
0.0578791
20
1.1124
11
0.0502576
21
1.11535
0
LINE
8
BLACK
6
CONTINUOUS
10
0.0502576
20
1.11535
11
0.0433085
21
1.11965
0
LINE
8
BLACK
6
CONTINUOUS
10
0.0433085
20
1.11965
11
0.0372683
21
1.12516
0
LINE
8
BLACK
6
CONTINUOUS
10
0.0372683
20
1.12516
11
0.0323428
21
1.13168
0
LINE
8
BLACK
6
CONTINUOUS
10
0.0323428
20
1.13168
11
0.0286996
21
1.139
0
LINE
8
BLACK
6
CONTINUOUS
10
0.0286996
20
1.139
11
0.0264628
21
1.14686
0
LINE
8
BLACK
6
CONTINUOUS
10
0.0264628
20
1.14686
11
0.0257087
21
1.155
0
LINE
8
BLACK
6
CONTINUOUS
10
0.0257087
20
1.155
11
0.0264628
21
1.16314
0
LINE
8
BLACK
6
CONTINUOUS
10
0.0264628
20
1.16314
11
0.0286996
21
1.171
0
LINE
8
BLACK
6
CONTINUOUS
10
0.0286996
20
1.171
11
0.0323428
21
1.17832
0
LINE
8
BLACK
6
CONTINUOUS
10
0.0323428
20
1.17832
11
0.0372683
21
1.18484
0
LINE
8
BLACK
6
CONTINUOUS
10
0.0372683
20
1.18484
11
0.0433085
21
1.19035
0
LINE
8
BLACK
6
CONTINUOUS
10
0.0433085
20
1.19035
11
0.0502576
21
1.19465
0
LINE
8
BLACK
6
CONTINUOUS
10
0.0502576
20
1.19465
11
0.0578791
21
1.1976
0
LINE
8
BLACK
6
CONTINUOUS
10
0.0578791
20
1.1976
11
0.0659133
21
1.1991
0
LINE
8
BLACK
6
CONTINUOUS
10
0.0659133
20
1.1991
11
0.0740867
21
1.1991
0
LINE
8
BLACK
6
CONTINUOUS
10
0.0740867
20
1.1991
11
0.0821209
21
1.1976
0
LINE
8
BLACK
6
CONTINUOUS
10
0.282121
20
1.1976
11
0.289742
21
1.19465
0
LINE
8
BLACK
6
CONTINUOUS
10
0.289742
20
1.19465
11
0.296691
21
1.19035
0
LINE
8
BLACK
6
CONTINUOUS
10
0.296691
20
1.19035
11
0.302732
21
1.18484
0
LINE
8
BLACK
6
CONTINUOUS
10
0.302732
20
1.18484
11
0.307657
21
1.17832
0
LINE
8
BLACK
6
CONTINUOUS
10
0.307657
20
1.17832
11
0.3113
21
1.171
0
LINE
8
BLACK
6
CONTINUOUS
10
0.3113
20
1.171
11
0.313537
21
1.16314
0
LINE
8
BLACK
6
CONTINUOUS
10
0.313537
20
1.16314
11
0.314291
21
1.155
0
LINE
8
BLACK
6
CONTINUOUS
10
0.314291
20
1.155
11
0.313537
21
1.14686
0
LINE
8
BLACK
6
CONTINUOUS
10
0.313537
20
1.14686
11
0.3113
21
1.139
0
LINE
8
BLACK
6
CONTINUOUS
10
0.3113
20
1.139
11
0.307657
21
1.13168
0
LINE
8
BLACK
6
CONTINUOUS
10
0.307657
20
1.13168
11
0.302732
21
1.12516
0
LINE
8
BLACK
6
CONTINUOUS
10
0.302732
20
1.12516
11
0.296691
21
1.11965
0
LINE
8
BLACK
6
CONTINUOUS
10
0.296691
20
1.11965
11
0.289742
21
1.11535
0
LINE
8
BLACK
6
CONTINUOUS
10
0.289742
20
1.11535
11
0.282121
21
1.1124
0
LINE
8
BLACK
6
CONTINUOUS
10
0.282121
20
1.1124
11
0.274087
21
1.1109
0
LINE
8
BLACK
6
CONTINUOUS
10
0.274087
20
1.1109
11
0.265913
21
1.1109
0
LINE
8
BLACK
6
CONTINUOUS
10
0.265913
20
1.1109
11
0.257879
21
1.1124
0
LINE
8
BLACK
6
CONTINUOUS
10
0.257879
20
1.1124
11
0.250258
21
1.11535
0
LINE
8
BLACK
6
CONTINUOUS
10
0.250258
20
1.11535
11
0.243309
21
1.11965
0
LINE
8
BLACK
6
CONTINUOUS
10
0.243309
20
1.11965
11
0.237268
21
1.12516
0
LINE
8
BLACK
6
CONTINUOUS
10
0.237268
20
1.12516
11
0.232343
21
1.13168
0
LINE
8
BLACK
6
CONTINUOUS
10
0.232343
20
1.13168
11
0.2287
21
1.139
0
LINE
8
BLACK
6
CONTINUOUS
10
0.2287
20
1.139
11
0.226463
21
1.14686
0
LINE
8
BLACK
6
CONTINUOUS
10
0.226463
20
1.14686
11
0.225709
21
1.155
0
LINE
8
BLACK
6
CONTINUOUS
10
0.225709
20
1.155
11
0.226463
21
1.16314
0
LINE
8
BLACK
6
CONTINUOUS
10
0.226463
20
1.16314
11
0.2287
21
1.171
0
LINE
8
BLACK
6
CONTINUOUS
10
0.2287
20
1.171
11
0.232343
21
1.17832
0
LINE
8
BLACK
6
CONTINUOUS
10
0.232343
20
1.17832
11
0.237268
21
1.18484
0
LINE
8
BLACK
6
CONTINUOUS
10
0.237268
20
1.18484
11
0.243309
21
1.19035
0
LINE
8
BLACK
6
CONTINUOUS
10
0.243309
20
1.19035
11
0.250258
21
1.19465
0
LINE
8
BLACK
6
CONTINUOUS
10
0.250258
20
1.19465
11
0.257879
21
1.1976
0
LINE
8
BLACK
6
CONTINUOUS
10
0.257879
20
1.1976
11
0.265913
21
1.1991
0
LINE
8
BLACK
6
CONTINUOUS
10
0.265913
20
1.1991
11
0.274087
21
1.1991
0
LINE
8
BLACK
6
CONTINUOUS
10
0.274087
20
1.1991
11
0.282121
21
1.1976
0
LINE
8
BLACK
6
CONTINUOUS
10
1.42
20
1.2
11
1.36
21
1.2
0
LINE
8
BLACK
6
CONTINUOUS
10
1.36
20
1.2
11
1.36
21
1.26
0
LINE
8
BLACK
6
CONTINUOUS
10
1.36
20
1.26
11
1.42
21
1.26
0
LINE
8
BLACK
6
CONTINUOUS
10
1.42
20
1.26
11
1.42
21
1.2
0
LINE
8
BLACK
6
CONTINUOUS
10
1.52
20
1.2
11
1.46
21
1.2
0
LINE
8
BLACK
6
CONTINUOUS
10
1.46
20
1.2
11
1.46
21
1.26
0
LINE
8
BLACK
6
CONTINUOUS
10
1.46
20
1.26
11
1.52
21
1.26
0
LINE
8
BLACK
6
CONTINUOUS
10
1.52
20
1.26
11
1.52
21
1.2
0
LINE
8
BLACK
6
CONTINUOUS
10
0.22051
20
1.51632
11
0.233874
21
1.51315
0
LINE
8
BLACK
6
CONTINUOUS
10
0.233874
20
1.51315
11
0.246781
21
1.50845
0
LINE
8
BLACK
6
CONTINUOUS
10
0.246781
20
1.50845
11
0.259055
21
1.50229
0
LINE
8
BLACK
6
CONTINUOUS
10
0.259055
20
1.50229
11
0.270531
21
1.49474
0
LINE
8
BLACK
6
CONTINUOUS
10
0.270531
20
1.49474
11
0.281052
21
1.48591
0
LINE
8
BLACK
6
CONTINUOUS
10
0.281052
20
1.48591
11
0.290478
21
1.47592
0
LINE
8
BLACK
6
CONTINUOUS
10
0.290478
20
1.47592
11
0.29868
21
1.4649
0
LINE
8
BLACK
6
CONTINUOUS
10
0.29868
20
1.4649
11
0.305547
21
1.45301
0
LINE
8
BLACK
6
CONTINUOUS
10
0.305547
20
1.45301
11
0.310987
21
1.4404
0
LINE
8
BLACK
6
CONTINUOUS
10
0.310987
20
1.4404
11
0.314927
21
1.42724
0
LINE
8
BLACK
6
CONTINUOUS
10
0.314927
20
1.42724
11
0.317312
21
1.41371
0
LINE
8
BLACK
6
CONTINUOUS
10
0.317312
20
1.41371
11
0.31811
21
1.4
0
LINE
8
BLACK
6
CONTINUOUS
10
0.31811
20
1.4
11
0.317312
21
1.38629
0
LINE
8
BLACK
6
CONTINUOUS
10
0.317312
20
1.38629
11
0.314927
21
1.37276
0
LINE
8
BLACK
6
CONTINUOUS
10
0.314927
20
1.37276
11
0.310987
21
1.3596
0
LINE
8
BLACK
6
CONTINUOUS
10
0.310987
20
1.3596
11
0.305547
21
1.34699
0
LINE
8
BLACK
6
CONTINUOUS
10
0.305547
20
1.34699
11
0.29868
21
1.3351
0
LINE
8
BLACK
6
CONTINUOUS
10
0.29868
20
1.3351
11
0.290478
21
1.32408
0
LINE
8
BLACK
6
CONTINUOUS
10
0.290478
20
1.32408
11
0.281052
21
1.31409
0
LINE
8
BLACK
6
CONTINUOUS
10
0.281052
20
1.31409
11
0.270531
21
1.30526
0
LINE
8
BLACK
6
CONTINUOUS
10
0.270531
20
1.30526
11
0.259055
21
1.29771
0
LINE
8
BLACK
6
CONTINUOUS
10
0.259055
20
1.29771
11
0.246781
21
1.29155
0
LINE
8
BLACK
6
CONTINUOUS
10
0.246781
20
1.29155
11
0.233874
21
1.28685
0
LINE
8
BLACK
6
CONTINUOUS
10
0.233874
20
1.28685
11
0.22051
21
1.28368
0
LINE
8
BLACK
6
CONTINUOUS
10
0.22051
20
1.28368
11
0.206867
21
1.28209
0
LINE
8
BLACK
6
CONTINUOUS
10
0.206867
20
1.28209
11
0.193133
21
1.28209
0
LINE
8
BLACK
6
CONTINUOUS
10
0.193133
20
1.28209
11
0.17949
21
1.28368
0
LINE
8
BLACK
6
CONTINUOUS
10
0.17949
20
1.28368
11
0.166126
21
1.28685
0
LINE
8
BLACK
6
CONTINUOUS
10
0.166126
20
1.28685
11
0.153219
21
1.29155
0
LINE
8
BLACK
6
CONTINUOUS
10
0.153219
20
1.29155
11
0.140945
21
1.29771
0
LINE
8
BLACK
6
CONTINUOUS
10
0.140945
20
1.29771
11
0.129469
21
1.30526
0
LINE
8
BLACK
6
CONTINUOUS
10
0.129469
20
1.30526
11
0.118948
21
1.31409
0
LINE
8
BLACK
6
CONTINUOUS
10
0.118948
20
1.31409
11
0.109522
21
1.32408
0
LINE
8
BLACK
6
CONTINUOUS
10
0.109522
20
1.32408
11
0.10132
21
1.3351
0
LINE
8
BLACK
6
CONTINUOUS
10
0.10132
20
1.3351
11
0.0944528
21
1.34699
0
LINE
8
BLACK
6
CONTINUOUS
10
0.0944528
20
1.34699
11
0.0890127
21
1.3596
0
LINE
8
BLACK
6
CONTINUOUS
10
0.0890127
20
1.3596
11
0.0850734
21
1.37276
0
LINE
8
BLACK
6
CONTINUOUS
10
0.0850734
20
1.37276
11
0.0826884
21
1.38629
0
LINE
8
BLACK
6
CONTINUOUS
10
0.0826884
20
1.38629
11
0.0818898
21
1.4
0
LINE
8
BLACK
6
CONTINUOUS
10
0.0818898
20
1.4
11
0.0826884
21
1.41371
0
LINE
8
BLACK
6
CONTINUOUS
10
0.0826884
20
1.41371
11
0.0850734
21
1.42724
0
LINE
8
BLACK
6
CONTINUOUS
10
0.0850734
20
1.42724
11
0.0890127
21
1.4404
0
LINE
8
BLACK
6
CONTINUOUS
10
0.0890127
20
1.4404
11
0.0944528
21
1.45301
0
LINE
8
BLACK
6
CONTINUOUS
10
0.0944528
20
1.45301
11
0.10132
21
1.4649
0
LINE
8
BLACK
6
CONTINUOUS
10
0.10132
20
1.4649
11
0.109522
21
1.47592
0
LINE
8
BLACK
6
CONTINUOUS
10
0.109522
20
1.47592
11
0.118948
21
1.48591
0
LINE
8
BLACK
6
CONTINUOUS
10
0.118948
20
1.48591
11
0.129469
21
1.49474
0
LINE
8
BLACK
6
CONTINUOUS
10
0.129469
20
1.49474
11
0.140945
21
1.50229
0
LINE
8
BLACK
6
CONTINUOUS
10
0.140945
20
1.50229
11
0.153219
21
1.50845
0
LINE
8
BLACK
6
CONTINUOUS
10
0.153219
20
1.50845
11
0.166126
21
1.51315
0
LINE
8
BLACK
6
CONTINUOUS
10
0.166126
20
1.51315
11
0.17949
21
1.51632
0
LINE
8
BLACK
6
CONTINUOUS
10
0.17949
20
1.51632
11
0.193133
21
1.51791
0
LINE
8
BLACK
6
CONTINUOUS
10
0.193133
20
1.51791
11
0.206867
21
1.51791
0
LINE
8
BLACK
6
CONTINUOUS
10
0.206867
20
1.51791
11
0.22051
21
1.51632
0
LINE
8
BLACK
6
CONTINUOUS
10
1.82051
20
1.51632
11
1.83387
21
1.51315
0
LINE
8
BLACK
6
CONTINUOUS
10
1.83387
20
1.51315
11
1.84678
21
1.50845
0
LINE
8
BLACK
6
CONTINUOUS
10
1.84678
20
1.50845
11
1.85906
21
1.50229
0
LINE
8
BLACK
6
CONTINUOUS
10
1.85906
20
1.50229
11
1.87053
21
1.49474
0
LINE
8
BLACK
6
CONTINUOUS
10
1.87053
20
1.49474
11
1.88105
21
1.48591
0
LINE
8
BLACK
6
CONTINUOUS
10
1.88105
20
1.48591
11
1.89048
21
1.47592
0
LINE
8
BLACK
6
CONTINUOUS
10
1.89048
20
1.47592
11
1.89868
21
1.4649
0
LINE
8
BLACK
6
CONTINUOUS
10
1.89868
20
1.4649
11
1.90555
21
1.45301
0
LINE
8
BLACK
6
CONTINUOUS
10
1.90555
20
1.45301
11
1.91099
21
1.4404
0
LINE
8
BLACK
6
CONTINUOUS
10
1.91099
20
1.4404
11
1.91493
21
1.42724
0
LINE
8
BLACK
6
CONTINUOUS
10
1.91493
20
1.42724
11
1.91731
21
1.41371
0
LINE
8
BLACK
6
CONTINUOUS
10
1.91731
20
1.41371
11
1.91811
21
1.4
0
LINE
8
BLACK
6
CONTINUOUS
10
1.91811
20
1.4
11
1.91731
21
1.38629
0
LINE
8
BLACK
6
CONTINUOUS
10
1.91731
20
1.38629
11
1.91493
21
1.37276
0
LINE
8
BLACK
6
CONTINUOUS
10
1.91493
20
1.37276
11
1.91099
21
1.3596
0
LINE
8
BLACK
6
CONTINUOUS
10
1.91099
20
1.3596
11
1.90555
21
1.34699
0
LINE
8
BLACK
6
CONTINUOUS
10
1.90555
20
1.34699
11
1.89868
21
1.3351
0
LINE
8
BLACK
6
CONTINUOUS
10
1.89868
20
1.3351
11
1.89048
21
1.32408
0
LINE
8
BLACK
6
CONTINUOUS
10
1.89048
20
1.32408
11
1.88105
21
1.31409
0
LINE
8
BLACK
6
CONTINUOUS
10
1.88105
20
1.31409
11
1.87053
21
1.30526
0
LINE
8
BLACK
6
CONTINUOUS
10
1.87053
20
1.30526
11
1.85906
21
1.29771
0
LINE
8
BLACK
6
CONTINUOUS
10
1.85906
20
1.29771
11
1.84678
21
1.29155
0
LINE
8
BLACK
6
CONTINUOUS
10
1.84678
20
1.29155
11
1.83387
21
1.28685
0
LINE
8
BLACK
6
CONTINUOUS
10
1.83387
20
1.28685
11
1.82051
21
1.28368
0
LINE
8
BLACK
6
CONTINUOUS
10
1.82051
20
1.28368
11
1.80687
21
1.28209
0
LINE
8
BLACK
6
CONTINUOUS
10
1.80687
20
1.28209
11
1.79313
21
1.28209
0
LINE
8
BLACK
6
CONTINUOUS
10
1.79313
20
1.28209
11
1.77949
21
1.28368
0
LINE
8
BLACK
6
CONTINUOUS
10
1.77949
20
1.28368
11
1.76613
21
1.28685
0
LINE
8
BLACK
6
CONTINUOUS
10
1.76613
20
1.28685
11
1.75322
21
1.29155
0
LINE
8
BLACK
6
CONTINUOUS
10
1.75322
20
1.29155
11
1.74094
21
1.29771
0
LINE
8
BLACK
6
CONTINUOUS
10
1.74094
20
1.29771
11
1.72947
21
1.30526
0
LINE
8
BLACK
6
CONTINUOUS
10
1.72947
20
1.30526
11
1.71895
21
1.31409
0
LINE
8
BLACK
6
CONTINUOUS
10
1.71895
20
1.31409
11
1.70952
21
1.32408
0
LINE
8
BLACK
6
CONTINUOUS
10
1.70952
20
1.32408
11
1.70132
21
1.3351
0
LINE
8
BLACK
6
CONTINUOUS
10
1.70132
20
1.3351
11
1.69445
21
1.34699
0
LINE
8
BLACK
6
CONTINUOUS
10
1.69445
20
1.34699
11
1.68901
21
1.3596
0
LINE
8
BLACK
6
CONTINUOUS
10
1.68901
20
1.3596
11
1.68507
21
1.37276
0
LINE
8
BLACK
6
CONTINUOUS
10
1.68507
20
1.37276
11
1.68269
21
1.38629
0
LINE
8
BLACK
6
CONTINUOUS
10
1.68269
20
1.38629
11
1.68189
21
1.4
0
LINE
8
BLACK
6
CONTINUOUS
10
1.68189
20
1.4
11
1.68269
21
1.41371
0
LINE
8
BLACK
6
CONTINUOUS
10
1.68269
20
1.41371
11
1.68507
21
1.42724
0
LINE
8
BLACK
6
CONTINUOUS
10
1.68507
20
1.42724
11
1.68901
21
1.4404
0
LINE
8
BLACK
6
CONTINUOUS
10
1.68901
20
1.4404
11
1.69445
21
1.45301
0
LINE
8
BLACK
6
CONTINUOUS
10
1.69445
20
1.45301
11
1.70132
21
1.4649
0
LINE
8
BLACK
6
CONTINUOUS
10
1.70132
20
1.4649
11
1.70952
21
1.47592
0
LINE
8
BLACK
6
CONTINUOUS
10
1.70952
20
1.47592
11
1.71895
21
1.48591
0
LINE
8
BLACK
6
CONTINUOUS
10
1.71895
20
1.48591
11
1.72947
21
1.49474
0
LINE
8
BLACK
6
CONTINUOUS
10
1.72947
20
1.49474
11
1.74094
21
1.50229
0
LINE
8
BLACK
6
CONTINUOUS
10
1.74094
20
1.50229
11
1.75322
21
1.50845
0
LINE
8
BLACK
6
CONTINUOUS
10
1.75322
20
1.50845
11
1.76613
21
1.51315
0
LINE
8
BLACK
6
CONTINUOUS
10
1.76613
20
1.51315
11
1.77949
21
1.51632
0
LINE
8
BLACK
6
CONTINUOUS
10
1.77949
20
1.51632
11
1.79313
21
1.51791
0
LINE
8
BLACK
6
CONTINUOUS
10
1.79313
20
1.51791
11
1.80687
21
1.51791
0
LINE
8
BLACK
6
CONTINUOUS
10
1.80687
20
1.51791
11
1.82051
21
1.51632
0
LINE
8
BLACK
6
CONTINUOUS
10
1.42
20
1.3
11
1.36
21
1.3
0
LINE
8
BLACK
6
CONTINUOUS
10
1.36
20
1.3
11
1.36
21
1.36
0
LINE
8
BLACK
6
CONTINUOUS
10
1.36
20
1.36
11
1.42
21
1.36
0
LINE
8
BLACK
6
CONTINUOUS
10
1.42
20
1.36
11
1.42
21
1.3
0
LINE
8
BLACK
6
CONTINUOUS
10
1.52
20
1.3
11
1.46
21
1.3
0
LINE
8
BLACK
6
CONTINUOUS
10
1.46
20
1.3
11
1.46
21
1.36
0
LINE
8
BLACK
6
CONTINUOUS
10
1.46
20
1.36
11
1.52
21
1.36
0
LINE
8
BLACK
6
CONTINUOUS
10
1.52
20
1.36
11
1.52
21
1.3
  0
ENDSEC
  0
EOF
