  0
SECTION
  2
HEADER
  9
$ANGBASE
  50
0.0
  9
$ANGDIR
  70
1
  9
$MEASUREMENT
  70
0
  0
ENDSEC
  0
SECTION
  2
TABLES
  0
TABLE
  2
LTYPE
  70
4
  0
LTYPE
  5
40F
  2
CONTINUOUS
  70
0
  3
Solid line
  72
65
  73
0
  40
0.0
  0
LTYPE
  5
410
  2
DASHDOT
 70
0
  3
Dash Dot ____ _ ____ _
 72
65
 73
4
 40
2.0
 49
1.25
 49
-0.25
 49
0.25
 49
-0.25
  0
LTYPE
  5
411
  2
DASHED
 70
0
  3
Dashed __ __ __ __ __
 72
65
 73
2
 40
0.75
 49
0.5
 49
-0.25
  0
LTYPE
  5
43B
  2
DOTTED
 70
0
  3
Dotted .  .  .  .
 72
65
 73
2
 40
0.2
 49
0.0
 49
-0.2
  0
ENDTAB
  0
TABLE
  2
STYLE
  70
4
  0
STYLE
  2
KICAD
  70
0
  40
0
  41
1
  42
1
  50
0
  71
0
  3
isocp.shx
  0
STYLE
  2
KICADB
  70
0
  40
0
  41
1
  42
1
  50
0
  71
0
  3
isocp.shx
  0
STYLE
  2
KICADI
  70
0
  40
0
  41
1
  42
1
  50
15
  71
0
  3
isocp.shx
  0
STYLE
  2
KICADBI
  70
0
  40
0
  41
1
  42
1
  50
15
  71
0
  3
isocp.shx
  0
ENDTAB
  0
TABLE
  2
LAYER
  70
1
  0
LAYER
  2
BLACK
  70
0
  62
7
  6
CONTINUOUS
  0
ENDTAB
  0
ENDSEC
  0
SECTION
  2
ENTITIES
0
LINE
8
BLACK
6
CONTINUOUS
10
0.414106
20
0.525192
11
0.428034
21
0.522826
0
LINE
8
BLACK
6
CONTINUOUS
10
0.428034
20
0.522826
11
0.44161
21
0.518914
0
LINE
8
BLACK
6
CONTINUOUS
10
0.44161
20
0.518914
11
0.454663
21
0.513508
0
LINE
8
BLACK
6
CONTINUOUS
10
0.454663
20
0.513508
11
0.467028
21
0.506674
0
LINE
8
BLACK
6
CONTINUOUS
10
0.467028
20
0.506674
11
0.47855
21
0.498498
0
LINE
8
BLACK
6
CONTINUOUS
10
0.47855
20
0.498498
11
0.489084
21
0.489084
0
LINE
8
BLACK
6
CONTINUOUS
10
0.489084
20
0.489084
11
0.498498
21
0.47855
0
LINE
8
BLACK
6
CONTINUOUS
10
0.498498
20
0.47855
11
0.506674
21
0.467028
0
LINE
8
BLACK
6
CONTINUOUS
10
0.506674
20
0.467028
11
0.513508
21
0.454663
0
LINE
8
BLACK
6
CONTINUOUS
10
0.513508
20
0.454663
11
0.518914
21
0.44161
0
LINE
8
BLACK
6
CONTINUOUS
10
0.518914
20
0.44161
11
0.522826
21
0.428034
0
LINE
8
BLACK
6
CONTINUOUS
10
0.522826
20
0.428034
11
0.525192
21
0.414106
0
LINE
8
BLACK
6
CONTINUOUS
10
0.525192
20
0.414106
11
0.525984
21
0.4
0
LINE
8
BLACK
6
CONTINUOUS
10
0.525984
20
0.4
11
0.525192
21
0.385894
0
LINE
8
BLACK
6
CONTINUOUS
10
0.525192
20
0.385894
11
0.522826
21
0.371966
0
LINE
8
BLACK
6
CONTINUOUS
10
0.522826
20
0.371966
11
0.518914
21
0.35839
0
LINE
8
BLACK
6
CONTINUOUS
10
0.518914
20
0.35839
11
0.513508
21
0.345337
0
LINE
8
BLACK
6
CONTINUOUS
10
0.513508
20
0.345337
11
0.506674
21
0.332972
0
LINE
8
BLACK
6
CONTINUOUS
10
0.506674
20
0.332972
11
0.498498
21
0.32145
0
LINE
8
BLACK
6
CONTINUOUS
10
0.498498
20
0.32145
11
0.489084
21
0.310916
0
LINE
8
BLACK
6
CONTINUOUS
10
0.489084
20
0.310916
11
0.47855
21
0.301502
0
LINE
8
BLACK
6
CONTINUOUS
10
0.47855
20
0.301502
11
0.467028
21
0.293326
0
LINE
8
BLACK
6
CONTINUOUS
10
0.467028
20
0.293326
11
0.454663
21
0.286492
0
LINE
8
BLACK
6
CONTINUOUS
10
0.454663
20
0.286492
11
0.44161
21
0.281086
0
LINE
8
BLACK
6
CONTINUOUS
10
0.44161
20
0.281086
11
0.428034
21
0.277174
0
LINE
8
BLACK
6
CONTINUOUS
10
0.428034
20
0.277174
11
0.414106
21
0.274808
0
LINE
8
BLACK
6
CONTINUOUS
10
0.414106
20
0.274808
11
0.4
21
0.274016
0
LINE
8
BLACK
6
CONTINUOUS
10
0.4
20
0.274016
11
0.385894
21
0.274808
0
LINE
8
BLACK
6
CONTINUOUS
10
0.385894
20
0.274808
11
0.371966
21
0.277174
0
LINE
8
BLACK
6
CONTINUOUS
10
0.371966
20
0.277174
11
0.35839
21
0.281086
0
LINE
8
BLACK
6
CONTINUOUS
10
0.35839
20
0.281086
11
0.345337
21
0.286492
0
LINE
8
BLACK
6
CONTINUOUS
10
0.345337
20
0.286492
11
0.332972
21
0.293326
0
LINE
8
BLACK
6
CONTINUOUS
10
0.332972
20
0.293326
11
0.32145
21
0.301502
0
LINE
8
BLACK
6
CONTINUOUS
10
0.32145
20
0.301502
11
0.310916
21
0.310916
0
LINE
8
BLACK
6
CONTINUOUS
10
0.310916
20
0.310916
11
0.301502
21
0.32145
0
LINE
8
BLACK
6
CONTINUOUS
10
0.301502
20
0.32145
11
0.293326
21
0.332972
0
LINE
8
BLACK
6
CONTINUOUS
10
0.293326
20
0.332972
11
0.286492
21
0.345337
0
LINE
8
BLACK
6
CONTINUOUS
10
0.286492
20
0.345337
11
0.281086
21
0.35839
0
LINE
8
BLACK
6
CONTINUOUS
10
0.281086
20
0.35839
11
0.277174
21
0.371966
0
LINE
8
BLACK
6
CONTINUOUS
10
0.277174
20
0.371966
11
0.274808
21
0.385894
0
LINE
8
BLACK
6
CONTINUOUS
10
0.274808
20
0.385894
11
0.274016
21
0.4
0
LINE
8
BLACK
6
CONTINUOUS
10
0.274016
20
0.4
11
0.274808
21
0.414106
0
LINE
8
BLACK
6
CONTINUOUS
10
0.274808
20
0.414106
11
0.277174
21
0.428034
0
LINE
8
BLACK
6
CONTINUOUS
10
0.277174
20
0.428034
11
0.281086
21
0.44161
0
LINE
8
BLACK
6
CONTINUOUS
10
0.281086
20
0.44161
11
0.286492
21
0.454663
0
LINE
8
BLACK
6
CONTINUOUS
10
0.286492
20
0.454663
11
0.293326
21
0.467028
0
LINE
8
BLACK
6
CONTINUOUS
10
0.293326
20
0.467028
11
0.301502
21
0.47855
0
LINE
8
BLACK
6
CONTINUOUS
10
0.301502
20
0.47855
11
0.310916
21
0.489084
0
LINE
8
BLACK
6
CONTINUOUS
10
0.310916
20
0.489084
11
0.32145
21
0.498498
0
LINE
8
BLACK
6
CONTINUOUS
10
0.32145
20
0.498498
11
0.332972
21
0.506674
0
LINE
8
BLACK
6
CONTINUOUS
10
0.332972
20
0.506674
11
0.345337
21
0.513508
0
LINE
8
BLACK
6
CONTINUOUS
10
0.345337
20
0.513508
11
0.35839
21
0.518914
0
LINE
8
BLACK
6
CONTINUOUS
10
0.35839
20
0.518914
11
0.371966
21
0.522826
0
LINE
8
BLACK
6
CONTINUOUS
10
0.371966
20
0.522826
11
0.385894
21
0.525192
0
LINE
8
BLACK
6
CONTINUOUS
10
0.385894
20
0.525192
11
0.4
21
0.525984
0
LINE
8
BLACK
6
CONTINUOUS
10
0.4
20
0.525984
11
0.414106
21
0.525192
0
LINE
8
BLACK
6
CONTINUOUS
10
2.41411
20
0.525192
11
2.42803
21
0.522826
0
LINE
8
BLACK
6
CONTINUOUS
10
2.42803
20
0.522826
11
2.44161
21
0.518914
0
LINE
8
BLACK
6
CONTINUOUS
10
2.44161
20
0.518914
11
2.45466
21
0.513508
0
LINE
8
BLACK
6
CONTINUOUS
10
2.45466
20
0.513508
11
2.46703
21
0.506674
0
LINE
8
BLACK
6
CONTINUOUS
10
2.46703
20
0.506674
11
2.47855
21
0.498498
0
LINE
8
BLACK
6
CONTINUOUS
10
2.47855
20
0.498498
11
2.48908
21
0.489084
0
LINE
8
BLACK
6
CONTINUOUS
10
2.48908
20
0.489084
11
2.4985
21
0.47855
0
LINE
8
BLACK
6
CONTINUOUS
10
2.4985
20
0.47855
11
2.50667
21
0.467028
0
LINE
8
BLACK
6
CONTINUOUS
10
2.50667
20
0.467028
11
2.51351
21
0.454663
0
LINE
8
BLACK
6
CONTINUOUS
10
2.51351
20
0.454663
11
2.51891
21
0.44161
0
LINE
8
BLACK
6
CONTINUOUS
10
2.51891
20
0.44161
11
2.52283
21
0.428034
0
LINE
8
BLACK
6
CONTINUOUS
10
2.52283
20
0.428034
11
2.52519
21
0.414106
0
LINE
8
BLACK
6
CONTINUOUS
10
2.52519
20
0.414106
11
2.52598
21
0.4
0
LINE
8
BLACK
6
CONTINUOUS
10
2.52598
20
0.4
11
2.52519
21
0.385894
0
LINE
8
BLACK
6
CONTINUOUS
10
2.52519
20
0.385894
11
2.52283
21
0.371966
0
LINE
8
BLACK
6
CONTINUOUS
10
2.52283
20
0.371966
11
2.51891
21
0.35839
0
LINE
8
BLACK
6
CONTINUOUS
10
2.51891
20
0.35839
11
2.51351
21
0.345337
0
LINE
8
BLACK
6
CONTINUOUS
10
2.51351
20
0.345337
11
2.50667
21
0.332972
0
LINE
8
BLACK
6
CONTINUOUS
10
2.50667
20
0.332972
11
2.4985
21
0.32145
0
LINE
8
BLACK
6
CONTINUOUS
10
2.4985
20
0.32145
11
2.48908
21
0.310916
0
LINE
8
BLACK
6
CONTINUOUS
10
2.48908
20
0.310916
11
2.47855
21
0.301502
0
LINE
8
BLACK
6
CONTINUOUS
10
2.47855
20
0.301502
11
2.46703
21
0.293326
0
LINE
8
BLACK
6
CONTINUOUS
10
2.46703
20
0.293326
11
2.45466
21
0.286492
0
LINE
8
BLACK
6
CONTINUOUS
10
2.45466
20
0.286492
11
2.44161
21
0.281086
0
LINE
8
BLACK
6
CONTINUOUS
10
2.44161
20
0.281086
11
2.42803
21
0.277174
0
LINE
8
BLACK
6
CONTINUOUS
10
2.42803
20
0.277174
11
2.41411
21
0.274808
0
LINE
8
BLACK
6
CONTINUOUS
10
2.41411
20
0.274808
11
2.4
21
0.274016
0
LINE
8
BLACK
6
CONTINUOUS
10
2.4
20
0.274016
11
2.38589
21
0.274808
0
LINE
8
BLACK
6
CONTINUOUS
10
2.38589
20
0.274808
11
2.37197
21
0.277174
0
LINE
8
BLACK
6
CONTINUOUS
10
2.37197
20
0.277174
11
2.35839
21
0.281086
0
LINE
8
BLACK
6
CONTINUOUS
10
2.35839
20
0.281086
11
2.34534
21
0.286492
0
LINE
8
BLACK
6
CONTINUOUS
10
2.34534
20
0.286492
11
2.33297
21
0.293326
0
LINE
8
BLACK
6
CONTINUOUS
10
2.33297
20
0.293326
11
2.32145
21
0.301502
0
LINE
8
BLACK
6
CONTINUOUS
10
2.32145
20
0.301502
11
2.31092
21
0.310916
0
LINE
8
BLACK
6
CONTINUOUS
10
2.31092
20
0.310916
11
2.3015
21
0.32145
0
LINE
8
BLACK
6
CONTINUOUS
10
2.3015
20
0.32145
11
2.29333
21
0.332972
0
LINE
8
BLACK
6
CONTINUOUS
10
2.29333
20
0.332972
11
2.28649
21
0.345337
0
LINE
8
BLACK
6
CONTINUOUS
10
2.28649
20
0.345337
11
2.28109
21
0.35839
0
LINE
8
BLACK
6
CONTINUOUS
10
2.28109
20
0.35839
11
2.27717
21
0.371966
0
LINE
8
BLACK
6
CONTINUOUS
10
2.27717
20
0.371966
11
2.27481
21
0.385894
0
LINE
8
BLACK
6
CONTINUOUS
10
2.27481
20
0.385894
11
2.27402
21
0.4
0
LINE
8
BLACK
6
CONTINUOUS
10
2.27402
20
0.4
11
2.27481
21
0.414106
0
LINE
8
BLACK
6
CONTINUOUS
10
2.27481
20
0.414106
11
2.27717
21
0.428034
0
LINE
8
BLACK
6
CONTINUOUS
10
2.27717
20
0.428034
11
2.28109
21
0.44161
0
LINE
8
BLACK
6
CONTINUOUS
10
2.28109
20
0.44161
11
2.28649
21
0.454663
0
LINE
8
BLACK
6
CONTINUOUS
10
2.28649
20
0.454663
11
2.29333
21
0.467028
0
LINE
8
BLACK
6
CONTINUOUS
10
2.29333
20
0.467028
11
2.3015
21
0.47855
0
LINE
8
BLACK
6
CONTINUOUS
10
2.3015
20
0.47855
11
2.31092
21
0.489084
0
LINE
8
BLACK
6
CONTINUOUS
10
2.31092
20
0.489084
11
2.32145
21
0.498498
0
LINE
8
BLACK
6
CONTINUOUS
10
2.32145
20
0.498498
11
2.33297
21
0.506674
0
LINE
8
BLACK
6
CONTINUOUS
10
2.33297
20
0.506674
11
2.34534
21
0.513508
0
LINE
8
BLACK
6
CONTINUOUS
10
2.34534
20
0.513508
11
2.35839
21
0.518914
0
LINE
8
BLACK
6
CONTINUOUS
10
2.35839
20
0.518914
11
2.37197
21
0.522826
0
LINE
8
BLACK
6
CONTINUOUS
10
2.37197
20
0.522826
11
2.38589
21
0.525192
0
LINE
8
BLACK
6
CONTINUOUS
10
2.38589
20
0.525192
11
2.4
21
0.525984
0
LINE
8
BLACK
6
CONTINUOUS
10
2.4
20
0.525984
11
2.41411
21
0.525192
0
LINE
8
BLACK
6
CONTINUOUS
10
0.923013
20
0.567275
11
0.925568
21
0.565568
0
LINE
8
BLACK
6
CONTINUOUS
10
0.925568
20
0.565568
11
0.927275
21
0.563013
0
LINE
8
BLACK
6
CONTINUOUS
10
0.927275
20
0.563013
11
0.927874
21
0.56
0
LINE
8
BLACK
6
CONTINUOUS
10
0.927874
20
0.56
11
0.927874
21
0.5
0
LINE
8
BLACK
6
CONTINUOUS
10
0.927874
20
0.5
11
0.927275
21
0.496987
0
LINE
8
BLACK
6
CONTINUOUS
10
0.927275
20
0.496987
11
0.925568
21
0.494432
0
LINE
8
BLACK
6
CONTINUOUS
10
0.925568
20
0.494432
11
0.923013
21
0.492725
0
LINE
8
BLACK
6
CONTINUOUS
10
0.923013
20
0.492725
11
0.92
21
0.492126
0
LINE
8
BLACK
6
CONTINUOUS
10
0.92
20
0.492126
11
0.86
21
0.492126
0
LINE
8
BLACK
6
CONTINUOUS
10
0.86
20
0.492126
11
0.856987
21
0.492725
0
LINE
8
BLACK
6
CONTINUOUS
10
0.856987
20
0.492725
11
0.854432
21
0.494432
0
LINE
8
BLACK
6
CONTINUOUS
10
0.854432
20
0.494432
11
0.852725
21
0.496987
0
LINE
8
BLACK
6
CONTINUOUS
10
0.852725
20
0.496987
11
0.852126
21
0.5
0
LINE
8
BLACK
6
CONTINUOUS
10
0.852126
20
0.5
11
0.852126
21
0.56
0
LINE
8
BLACK
6
CONTINUOUS
10
0.852126
20
0.56
11
0.852725
21
0.563013
0
LINE
8
BLACK
6
CONTINUOUS
10
0.852725
20
0.563013
11
0.854432
21
0.565568
0
LINE
8
BLACK
6
CONTINUOUS
10
0.854432
20
0.565568
11
0.856987
21
0.567275
0
LINE
8
BLACK
6
CONTINUOUS
10
0.856987
20
0.567275
11
0.86
21
0.567874
0
LINE
8
BLACK
6
CONTINUOUS
10
0.86
20
0.567874
11
0.92
21
0.567874
0
LINE
8
BLACK
6
CONTINUOUS
10
0.92
20
0.567874
11
0.923013
21
0.567275
0
LINE
8
BLACK
6
CONTINUOUS
10
1.02301
20
0.567275
11
1.02557
21
0.565568
0
LINE
8
BLACK
6
CONTINUOUS
10
1.02557
20
0.565568
11
1.02727
21
0.563013
0
LINE
8
BLACK
6
CONTINUOUS
10
1.02727
20
0.563013
11
1.02787
21
0.56
0
LINE
8
BLACK
6
CONTINUOUS
10
1.02787
20
0.56
11
1.02787
21
0.5
0
LINE
8
BLACK
6
CONTINUOUS
10
1.02787
20
0.5
11
1.02727
21
0.496987
0
LINE
8
BLACK
6
CONTINUOUS
10
1.02727
20
0.496987
11
1.02557
21
0.494432
0
LINE
8
BLACK
6
CONTINUOUS
10
1.02557
20
0.494432
11
1.02301
21
0.492725
0
LINE
8
BLACK
6
CONTINUOUS
10
1.02301
20
0.492725
11
1.02
21
0.492126
0
LINE
8
BLACK
6
CONTINUOUS
10
1.02
20
0.492126
11
0.96
21
0.492126
0
LINE
8
BLACK
6
CONTINUOUS
10
0.96
20
0.492126
11
0.956987
21
0.492725
0
LINE
8
BLACK
6
CONTINUOUS
10
0.956987
20
0.492725
11
0.954432
21
0.494432
0
LINE
8
BLACK
6
CONTINUOUS
10
0.954432
20
0.494432
11
0.952725
21
0.496987
0
LINE
8
BLACK
6
CONTINUOUS
10
0.952725
20
0.496987
11
0.952126
21
0.5
0
LINE
8
BLACK
6
CONTINUOUS
10
0.952126
20
0.5
11
0.952126
21
0.56
0
LINE
8
BLACK
6
CONTINUOUS
10
0.952126
20
0.56
11
0.952725
21
0.563013
0
LINE
8
BLACK
6
CONTINUOUS
10
0.952725
20
0.563013
11
0.954432
21
0.565568
0
LINE
8
BLACK
6
CONTINUOUS
10
0.954432
20
0.565568
11
0.956987
21
0.567275
0
LINE
8
BLACK
6
CONTINUOUS
10
0.956987
20
0.567275
11
0.96
21
0.567874
0
LINE
8
BLACK
6
CONTINUOUS
10
0.96
20
0.567874
11
1.02
21
0.567874
0
LINE
8
BLACK
6
CONTINUOUS
10
1.02
20
0.567874
11
1.02301
21
0.567275
0
LINE
8
BLACK
6
CONTINUOUS
10
0.393013
20
0.657275
11
0.395568
21
0.655568
0
LINE
8
BLACK
6
CONTINUOUS
10
0.395568
20
0.655568
11
0.397275
21
0.653013
0
LINE
8
BLACK
6
CONTINUOUS
10
0.397275
20
0.653013
11
0.397874
21
0.65
0
LINE
8
BLACK
6
CONTINUOUS
10
0.397874
20
0.65
11
0.397874
21
0.59
0
LINE
8
BLACK
6
CONTINUOUS
10
0.397874
20
0.59
11
0.397275
21
0.586987
0
LINE
8
BLACK
6
CONTINUOUS
10
0.397275
20
0.586987
11
0.395568
21
0.584432
0
LINE
8
BLACK
6
CONTINUOUS
10
0.395568
20
0.584432
11
0.393013
21
0.582725
0
LINE
8
BLACK
6
CONTINUOUS
10
0.393013
20
0.582725
11
0.39
21
0.582126
0
LINE
8
BLACK
6
CONTINUOUS
10
0.39
20
0.582126
11
0.33
21
0.582126
0
LINE
8
BLACK
6
CONTINUOUS
10
0.33
20
0.582126
11
0.326987
21
0.582725
0
LINE
8
BLACK
6
CONTINUOUS
10
0.326987
20
0.582725
11
0.324432
21
0.584432
0
LINE
8
BLACK
6
CONTINUOUS
10
0.324432
20
0.584432
11
0.322725
21
0.586987
0
LINE
8
BLACK
6
CONTINUOUS
10
0.322725
20
0.586987
11
0.322126
21
0.59
0
LINE
8
BLACK
6
CONTINUOUS
10
0.322126
20
0.59
11
0.322126
21
0.65
0
LINE
8
BLACK
6
CONTINUOUS
10
0.322126
20
0.65
11
0.322725
21
0.653013
0
LINE
8
BLACK
6
CONTINUOUS
10
0.322725
20
0.653013
11
0.324432
21
0.655568
0
LINE
8
BLACK
6
CONTINUOUS
10
0.324432
20
0.655568
11
0.326987
21
0.657275
0
LINE
8
BLACK
6
CONTINUOUS
10
0.326987
20
0.657275
11
0.33
21
0.657874
0
LINE
8
BLACK
6
CONTINUOUS
10
0.33
20
0.657874
11
0.39
21
0.657874
0
LINE
8
BLACK
6
CONTINUOUS
10
0.39
20
0.657874
11
0.393013
21
0.657275
0
LINE
8
BLACK
6
CONTINUOUS
10
0.493013
20
0.657275
11
0.495568
21
0.655568
0
LINE
8
BLACK
6
CONTINUOUS
10
0.495568
20
0.655568
11
0.497275
21
0.653013
0
LINE
8
BLACK
6
CONTINUOUS
10
0.497275
20
0.653013
11
0.497874
21
0.65
0
LINE
8
BLACK
6
CONTINUOUS
10
0.497874
20
0.65
11
0.497874
21
0.59
0
LINE
8
BLACK
6
CONTINUOUS
10
0.497874
20
0.59
11
0.497275
21
0.586987
0
LINE
8
BLACK
6
CONTINUOUS
10
0.497275
20
0.586987
11
0.495568
21
0.584432
0
LINE
8
BLACK
6
CONTINUOUS
10
0.495568
20
0.584432
11
0.493013
21
0.582725
0
LINE
8
BLACK
6
CONTINUOUS
10
0.493013
20
0.582725
11
0.49
21
0.582126
0
LINE
8
BLACK
6
CONTINUOUS
10
0.49
20
0.582126
11
0.43
21
0.582126
0
LINE
8
BLACK
6
CONTINUOUS
10
0.43
20
0.582126
11
0.426987
21
0.582725
0
LINE
8
BLACK
6
CONTINUOUS
10
0.426987
20
0.582725
11
0.424432
21
0.584432
0
LINE
8
BLACK
6
CONTINUOUS
10
0.424432
20
0.584432
11
0.422725
21
0.586987
0
LINE
8
BLACK
6
CONTINUOUS
10
0.422725
20
0.586987
11
0.422126
21
0.59
0
LINE
8
BLACK
6
CONTINUOUS
10
0.422126
20
0.59
11
0.422126
21
0.65
0
LINE
8
BLACK
6
CONTINUOUS
10
0.422126
20
0.65
11
0.422725
21
0.653013
0
LINE
8
BLACK
6
CONTINUOUS
10
0.422725
20
0.653013
11
0.424432
21
0.655568
0
LINE
8
BLACK
6
CONTINUOUS
10
0.424432
20
0.655568
11
0.426987
21
0.657275
0
LINE
8
BLACK
6
CONTINUOUS
10
0.426987
20
0.657275
11
0.43
21
0.657874
0
LINE
8
BLACK
6
CONTINUOUS
10
0.43
20
0.657874
11
0.49
21
0.657874
0
LINE
8
BLACK
6
CONTINUOUS
10
0.49
20
0.657874
11
0.493013
21
0.657275
0
LINE
8
BLACK
6
CONTINUOUS
10
0.923013
20
0.667275
11
0.925568
21
0.665568
0
LINE
8
BLACK
6
CONTINUOUS
10
0.925568
20
0.665568
11
0.927275
21
0.663013
0
LINE
8
BLACK
6
CONTINUOUS
10
0.927275
20
0.663013
11
0.927874
21
0.66
0
LINE
8
BLACK
6
CONTINUOUS
10
0.927874
20
0.66
11
0.927874
21
0.6
0
LINE
8
BLACK
6
CONTINUOUS
10
0.927874
20
0.6
11
0.927275
21
0.596987
0
LINE
8
BLACK
6
CONTINUOUS
10
0.927275
20
0.596987
11
0.925568
21
0.594432
0
LINE
8
BLACK
6
CONTINUOUS
10
0.925568
20
0.594432
11
0.923013
21
0.592725
0
LINE
8
BLACK
6
CONTINUOUS
10
0.923013
20
0.592725
11
0.92
21
0.592126
0
LINE
8
BLACK
6
CONTINUOUS
10
0.92
20
0.592126
11
0.86
21
0.592126
0
LINE
8
BLACK
6
CONTINUOUS
10
0.86
20
0.592126
11
0.856987
21
0.592725
0
LINE
8
BLACK
6
CONTINUOUS
10
0.856987
20
0.592725
11
0.854432
21
0.594432
0
LINE
8
BLACK
6
CONTINUOUS
10
0.854432
20
0.594432
11
0.852725
21
0.596987
0
LINE
8
BLACK
6
CONTINUOUS
10
0.852725
20
0.596987
11
0.852126
21
0.6
0
LINE
8
BLACK
6
CONTINUOUS
10
0.852126
20
0.6
11
0.852126
21
0.66
0
LINE
8
BLACK
6
CONTINUOUS
10
0.852126
20
0.66
11
0.852725
21
0.663013
0
LINE
8
BLACK
6
CONTINUOUS
10
0.852725
20
0.663013
11
0.854432
21
0.665568
0
LINE
8
BLACK
6
CONTINUOUS
10
0.854432
20
0.665568
11
0.856987
21
0.667275
0
LINE
8
BLACK
6
CONTINUOUS
10
0.856987
20
0.667275
11
0.86
21
0.667874
0
LINE
8
BLACK
6
CONTINUOUS
10
0.86
20
0.667874
11
0.92
21
0.667874
0
LINE
8
BLACK
6
CONTINUOUS
10
0.92
20
0.667874
11
0.923013
21
0.667275
0
LINE
8
BLACK
6
CONTINUOUS
10
1.02301
20
0.667275
11
1.02557
21
0.665568
0
LINE
8
BLACK
6
CONTINUOUS
10
1.02557
20
0.665568
11
1.02727
21
0.663013
0
LINE
8
BLACK
6
CONTINUOUS
10
1.02727
20
0.663013
11
1.02787
21
0.66
0
LINE
8
BLACK
6
CONTINUOUS
10
1.02787
20
0.66
11
1.02787
21
0.6
0
LINE
8
BLACK
6
CONTINUOUS
10
1.02787
20
0.6
11
1.02727
21
0.596987
0
LINE
8
BLACK
6
CONTINUOUS
10
1.02727
20
0.596987
11
1.02557
21
0.594432
0
LINE
8
BLACK
6
CONTINUOUS
10
1.02557
20
0.594432
11
1.02301
21
0.592725
0
LINE
8
BLACK
6
CONTINUOUS
10
1.02301
20
0.592725
11
1.02
21
0.592126
0
LINE
8
BLACK
6
CONTINUOUS
10
1.02
20
0.592126
11
0.96
21
0.592126
0
LINE
8
BLACK
6
CONTINUOUS
10
0.96
20
0.592126
11
0.956987
21
0.592725
0
LINE
8
BLACK
6
CONTINUOUS
10
0.956987
20
0.592725
11
0.954432
21
0.594432
0
LINE
8
BLACK
6
CONTINUOUS
10
0.954432
20
0.594432
11
0.952725
21
0.596987
0
LINE
8
BLACK
6
CONTINUOUS
10
0.952725
20
0.596987
11
0.952126
21
0.6
0
LINE
8
BLACK
6
CONTINUOUS
10
0.952126
20
0.6
11
0.952126
21
0.66
0
LINE
8
BLACK
6
CONTINUOUS
10
0.952126
20
0.66
11
0.952725
21
0.663013
0
LINE
8
BLACK
6
CONTINUOUS
10
0.952725
20
0.663013
11
0.954432
21
0.665568
0
LINE
8
BLACK
6
CONTINUOUS
10
0.954432
20
0.665568
11
0.956987
21
0.667275
0
LINE
8
BLACK
6
CONTINUOUS
10
0.956987
20
0.667275
11
0.96
21
0.667874
0
LINE
8
BLACK
6
CONTINUOUS
10
0.96
20
0.667874
11
1.02
21
0.667874
0
LINE
8
BLACK
6
CONTINUOUS
10
1.02
20
0.667874
11
1.02301
21
0.667275
0
LINE
8
BLACK
6
CONTINUOUS
10
2.40801
20
0.717275
11
2.41057
21
0.715568
0
LINE
8
BLACK
6
CONTINUOUS
10
2.41057
20
0.715568
11
2.41227
21
0.713013
0
LINE
8
BLACK
6
CONTINUOUS
10
2.41227
20
0.713013
11
2.41287
21
0.71
0
LINE
8
BLACK
6
CONTINUOUS
10
2.41287
20
0.71
11
2.41287
21
0.65
0
LINE
8
BLACK
6
CONTINUOUS
10
2.41287
20
0.65
11
2.41227
21
0.646987
0
LINE
8
BLACK
6
CONTINUOUS
10
2.41227
20
0.646987
11
2.41057
21
0.644432
0
LINE
8
BLACK
6
CONTINUOUS
10
2.41057
20
0.644432
11
2.40801
21
0.642725
0
LINE
8
BLACK
6
CONTINUOUS
10
2.40801
20
0.642725
11
2.405
21
0.642126
0
LINE
8
BLACK
6
CONTINUOUS
10
2.405
20
0.642126
11
2.345
21
0.642126
0
LINE
8
BLACK
6
CONTINUOUS
10
2.345
20
0.642126
11
2.34199
21
0.642725
0
LINE
8
BLACK
6
CONTINUOUS
10
2.34199
20
0.642725
11
2.33943
21
0.644432
0
LINE
8
BLACK
6
CONTINUOUS
10
2.33943
20
0.644432
11
2.33773
21
0.646987
0
LINE
8
BLACK
6
CONTINUOUS
10
2.33773
20
0.646987
11
2.33713
21
0.65
0
LINE
8
BLACK
6
CONTINUOUS
10
2.33713
20
0.65
11
2.33713
21
0.71
0
LINE
8
BLACK
6
CONTINUOUS
10
2.33713
20
0.71
11
2.33773
21
0.713013
0
LINE
8
BLACK
6
CONTINUOUS
10
2.33773
20
0.713013
11
2.33943
21
0.715568
0
LINE
8
BLACK
6
CONTINUOUS
10
2.33943
20
0.715568
11
2.34199
21
0.717275
0
LINE
8
BLACK
6
CONTINUOUS
10
2.34199
20
0.717275
11
2.345
21
0.717874
0
LINE
8
BLACK
6
CONTINUOUS
10
2.345
20
0.717874
11
2.405
21
0.717874
0
LINE
8
BLACK
6
CONTINUOUS
10
2.405
20
0.717874
11
2.40801
21
0.717275
0
LINE
8
BLACK
6
CONTINUOUS
10
2.50801
20
0.717275
11
2.51057
21
0.715568
0
LINE
8
BLACK
6
CONTINUOUS
10
2.51057
20
0.715568
11
2.51227
21
0.713013
0
LINE
8
BLACK
6
CONTINUOUS
10
2.51227
20
0.713013
11
2.51287
21
0.71
0
LINE
8
BLACK
6
CONTINUOUS
10
2.51287
20
0.71
11
2.51287
21
0.65
0
LINE
8
BLACK
6
CONTINUOUS
10
2.51287
20
0.65
11
2.51227
21
0.646987
0
LINE
8
BLACK
6
CONTINUOUS
10
2.51227
20
0.646987
11
2.51057
21
0.644432
0
LINE
8
BLACK
6
CONTINUOUS
10
2.51057
20
0.644432
11
2.50801
21
0.642725
0
LINE
8
BLACK
6
CONTINUOUS
10
2.50801
20
0.642725
11
2.505
21
0.642126
0
LINE
8
BLACK
6
CONTINUOUS
10
2.505
20
0.642126
11
2.445
21
0.642126
0
LINE
8
BLACK
6
CONTINUOUS
10
2.445
20
0.642126
11
2.44199
21
0.642725
0
LINE
8
BLACK
6
CONTINUOUS
10
2.44199
20
0.642725
11
2.43943
21
0.644432
0
LINE
8
BLACK
6
CONTINUOUS
10
2.43943
20
0.644432
11
2.43773
21
0.646987
0
LINE
8
BLACK
6
CONTINUOUS
10
2.43773
20
0.646987
11
2.43713
21
0.65
0
LINE
8
BLACK
6
CONTINUOUS
10
2.43713
20
0.65
11
2.43713
21
0.71
0
LINE
8
BLACK
6
CONTINUOUS
10
2.43713
20
0.71
11
2.43773
21
0.713013
0
LINE
8
BLACK
6
CONTINUOUS
10
2.43773
20
0.713013
11
2.43943
21
0.715568
0
LINE
8
BLACK
6
CONTINUOUS
10
2.43943
20
0.715568
11
2.44199
21
0.717275
0
LINE
8
BLACK
6
CONTINUOUS
10
2.44199
20
0.717275
11
2.445
21
0.717874
0
LINE
8
BLACK
6
CONTINUOUS
10
2.445
20
0.717874
11
2.505
21
0.717874
0
LINE
8
BLACK
6
CONTINUOUS
10
2.505
20
0.717874
11
2.50801
21
0.717275
0
LINE
8
BLACK
6
CONTINUOUS
10
0.393013
20
0.757275
11
0.395568
21
0.755568
0
LINE
8
BLACK
6
CONTINUOUS
10
0.395568
20
0.755568
11
0.397275
21
0.753013
0
LINE
8
BLACK
6
CONTINUOUS
10
0.397275
20
0.753013
11
0.397874
21
0.75
0
LINE
8
BLACK
6
CONTINUOUS
10
0.397874
20
0.75
11
0.397874
21
0.69
0
LINE
8
BLACK
6
CONTINUOUS
10
0.397874
20
0.69
11
0.397275
21
0.686987
0
LINE
8
BLACK
6
CONTINUOUS
10
0.397275
20
0.686987
11
0.395568
21
0.684432
0
LINE
8
BLACK
6
CONTINUOUS
10
0.395568
20
0.684432
11
0.393013
21
0.682725
0
LINE
8
BLACK
6
CONTINUOUS
10
0.393013
20
0.682725
11
0.39
21
0.682126
0
LINE
8
BLACK
6
CONTINUOUS
10
0.39
20
0.682126
11
0.33
21
0.682126
0
LINE
8
BLACK
6
CONTINUOUS
10
0.33
20
0.682126
11
0.326987
21
0.682725
0
LINE
8
BLACK
6
CONTINUOUS
10
0.326987
20
0.682725
11
0.324432
21
0.684432
0
LINE
8
BLACK
6
CONTINUOUS
10
0.324432
20
0.684432
11
0.322725
21
0.686987
0
LINE
8
BLACK
6
CONTINUOUS
10
0.322725
20
0.686987
11
0.322126
21
0.69
0
LINE
8
BLACK
6
CONTINUOUS
10
0.322126
20
0.69
11
0.322126
21
0.75
0
LINE
8
BLACK
6
CONTINUOUS
10
0.322126
20
0.75
11
0.322725
21
0.753013
0
LINE
8
BLACK
6
CONTINUOUS
10
0.322725
20
0.753013
11
0.324432
21
0.755568
0
LINE
8
BLACK
6
CONTINUOUS
10
0.324432
20
0.755568
11
0.326987
21
0.757275
0
LINE
8
BLACK
6
CONTINUOUS
10
0.326987
20
0.757275
11
0.33
21
0.757874
0
LINE
8
BLACK
6
CONTINUOUS
10
0.33
20
0.757874
11
0.39
21
0.757874
0
LINE
8
BLACK
6
CONTINUOUS
10
0.39
20
0.757874
11
0.393013
21
0.757275
0
LINE
8
BLACK
6
CONTINUOUS
10
0.493013
20
0.757275
11
0.495568
21
0.755568
0
LINE
8
BLACK
6
CONTINUOUS
10
0.495568
20
0.755568
11
0.497275
21
0.753013
0
LINE
8
BLACK
6
CONTINUOUS
10
0.497275
20
0.753013
11
0.497874
21
0.75
0
LINE
8
BLACK
6
CONTINUOUS
10
0.497874
20
0.75
11
0.497874
21
0.69
0
LINE
8
BLACK
6
CONTINUOUS
10
0.497874
20
0.69
11
0.497275
21
0.686987
0
LINE
8
BLACK
6
CONTINUOUS
10
0.497275
20
0.686987
11
0.495568
21
0.684432
0
LINE
8
BLACK
6
CONTINUOUS
10
0.495568
20
0.684432
11
0.493013
21
0.682725
0
LINE
8
BLACK
6
CONTINUOUS
10
0.493013
20
0.682725
11
0.49
21
0.682126
0
LINE
8
BLACK
6
CONTINUOUS
10
0.49
20
0.682126
11
0.43
21
0.682126
0
LINE
8
BLACK
6
CONTINUOUS
10
0.43
20
0.682126
11
0.426987
21
0.682725
0
LINE
8
BLACK
6
CONTINUOUS
10
0.426987
20
0.682725
11
0.424432
21
0.684432
0
LINE
8
BLACK
6
CONTINUOUS
10
0.424432
20
0.684432
11
0.422725
21
0.686987
0
LINE
8
BLACK
6
CONTINUOUS
10
0.422725
20
0.686987
11
0.422126
21
0.69
0
LINE
8
BLACK
6
CONTINUOUS
10
0.422126
20
0.69
11
0.422126
21
0.75
0
LINE
8
BLACK
6
CONTINUOUS
10
0.422126
20
0.75
11
0.422725
21
0.753013
0
LINE
8
BLACK
6
CONTINUOUS
10
0.422725
20
0.753013
11
0.424432
21
0.755568
0
LINE
8
BLACK
6
CONTINUOUS
10
0.424432
20
0.755568
11
0.426987
21
0.757275
0
LINE
8
BLACK
6
CONTINUOUS
10
0.426987
20
0.757275
11
0.43
21
0.757874
0
LINE
8
BLACK
6
CONTINUOUS
10
0.43
20
0.757874
11
0.49
21
0.757874
0
LINE
8
BLACK
6
CONTINUOUS
10
0.49
20
0.757874
11
0.493013
21
0.757275
0
LINE
8
BLACK
6
CONTINUOUS
10
2.40801
20
0.817275
11
2.41057
21
0.815568
0
LINE
8
BLACK
6
CONTINUOUS
10
2.41057
20
0.815568
11
2.41227
21
0.813013
0
LINE
8
BLACK
6
CONTINUOUS
10
2.41227
20
0.813013
11
2.41287
21
0.81
0
LINE
8
BLACK
6
CONTINUOUS
10
2.41287
20
0.81
11
2.41287
21
0.75
0
LINE
8
BLACK
6
CONTINUOUS
10
2.41287
20
0.75
11
2.41227
21
0.746987
0
LINE
8
BLACK
6
CONTINUOUS
10
2.41227
20
0.746987
11
2.41057
21
0.744432
0
LINE
8
BLACK
6
CONTINUOUS
10
2.41057
20
0.744432
11
2.40801
21
0.742725
0
LINE
8
BLACK
6
CONTINUOUS
10
2.40801
20
0.742725
11
2.405
21
0.742126
0
LINE
8
BLACK
6
CONTINUOUS
10
2.405
20
0.742126
11
2.345
21
0.742126
0
LINE
8
BLACK
6
CONTINUOUS
10
2.345
20
0.742126
11
2.34199
21
0.742725
0
LINE
8
BLACK
6
CONTINUOUS
10
2.34199
20
0.742725
11
2.33943
21
0.744432
0
LINE
8
BLACK
6
CONTINUOUS
10
2.33943
20
0.744432
11
2.33773
21
0.746987
0
LINE
8
BLACK
6
CONTINUOUS
10
2.33773
20
0.746987
11
2.33713
21
0.75
0
LINE
8
BLACK
6
CONTINUOUS
10
2.33713
20
0.75
11
2.33713
21
0.81
0
LINE
8
BLACK
6
CONTINUOUS
10
2.33713
20
0.81
11
2.33773
21
0.813013
0
LINE
8
BLACK
6
CONTINUOUS
10
2.33773
20
0.813013
11
2.33943
21
0.815568
0
LINE
8
BLACK
6
CONTINUOUS
10
2.33943
20
0.815568
11
2.34199
21
0.817275
0
LINE
8
BLACK
6
CONTINUOUS
10
2.34199
20
0.817275
11
2.345
21
0.817874
0
LINE
8
BLACK
6
CONTINUOUS
10
2.345
20
0.817874
11
2.405
21
0.817874
0
LINE
8
BLACK
6
CONTINUOUS
10
2.405
20
0.817874
11
2.40801
21
0.817275
0
LINE
8
BLACK
6
CONTINUOUS
10
2.50801
20
0.817275
11
2.51057
21
0.815568
0
LINE
8
BLACK
6
CONTINUOUS
10
2.51057
20
0.815568
11
2.51227
21
0.813013
0
LINE
8
BLACK
6
CONTINUOUS
10
2.51227
20
0.813013
11
2.51287
21
0.81
0
LINE
8
BLACK
6
CONTINUOUS
10
2.51287
20
0.81
11
2.51287
21
0.75
0
LINE
8
BLACK
6
CONTINUOUS
10
2.51287
20
0.75
11
2.51227
21
0.746987
0
LINE
8
BLACK
6
CONTINUOUS
10
2.51227
20
0.746987
11
2.51057
21
0.744432
0
LINE
8
BLACK
6
CONTINUOUS
10
2.51057
20
0.744432
11
2.50801
21
0.742725
0
LINE
8
BLACK
6
CONTINUOUS
10
2.50801
20
0.742725
11
2.505
21
0.742126
0
LINE
8
BLACK
6
CONTINUOUS
10
2.505
20
0.742126
11
2.445
21
0.742126
0
LINE
8
BLACK
6
CONTINUOUS
10
2.445
20
0.742126
11
2.44199
21
0.742725
0
LINE
8
BLACK
6
CONTINUOUS
10
2.44199
20
0.742725
11
2.43943
21
0.744432
0
LINE
8
BLACK
6
CONTINUOUS
10
2.43943
20
0.744432
11
2.43773
21
0.746987
0
LINE
8
BLACK
6
CONTINUOUS
10
2.43773
20
0.746987
11
2.43713
21
0.75
0
LINE
8
BLACK
6
CONTINUOUS
10
2.43713
20
0.75
11
2.43713
21
0.81
0
LINE
8
BLACK
6
CONTINUOUS
10
2.43713
20
0.81
11
2.43773
21
0.813013
0
LINE
8
BLACK
6
CONTINUOUS
10
2.43773
20
0.813013
11
2.43943
21
0.815568
0
LINE
8
BLACK
6
CONTINUOUS
10
2.43943
20
0.815568
11
2.44199
21
0.817275
0
LINE
8
BLACK
6
CONTINUOUS
10
2.44199
20
0.817275
11
2.445
21
0.817874
0
LINE
8
BLACK
6
CONTINUOUS
10
2.445
20
0.817874
11
2.505
21
0.817874
0
LINE
8
BLACK
6
CONTINUOUS
10
2.505
20
0.817874
11
2.50801
21
0.817275
0
LINE
8
BLACK
6
CONTINUOUS
10
0.393013
20
0.857275
11
0.395568
21
0.855568
0
LINE
8
BLACK
6
CONTINUOUS
10
0.395568
20
0.855568
11
0.397275
21
0.853013
0
LINE
8
BLACK
6
CONTINUOUS
10
0.397275
20
0.853013
11
0.397874
21
0.85
0
LINE
8
BLACK
6
CONTINUOUS
10
0.397874
20
0.85
11
0.397874
21
0.79
0
LINE
8
BLACK
6
CONTINUOUS
10
0.397874
20
0.79
11
0.397275
21
0.786987
0
LINE
8
BLACK
6
CONTINUOUS
10
0.397275
20
0.786987
11
0.395568
21
0.784432
0
LINE
8
BLACK
6
CONTINUOUS
10
0.395568
20
0.784432
11
0.393013
21
0.782725
0
LINE
8
BLACK
6
CONTINUOUS
10
0.393013
20
0.782725
11
0.39
21
0.782126
0
LINE
8
BLACK
6
CONTINUOUS
10
0.39
20
0.782126
11
0.33
21
0.782126
0
LINE
8
BLACK
6
CONTINUOUS
10
0.33
20
0.782126
11
0.326987
21
0.782725
0
LINE
8
BLACK
6
CONTINUOUS
10
0.326987
20
0.782725
11
0.324432
21
0.784432
0
LINE
8
BLACK
6
CONTINUOUS
10
0.324432
20
0.784432
11
0.322725
21
0.786987
0
LINE
8
BLACK
6
CONTINUOUS
10
0.322725
20
0.786987
11
0.322126
21
0.79
0
LINE
8
BLACK
6
CONTINUOUS
10
0.322126
20
0.79
11
0.322126
21
0.85
0
LINE
8
BLACK
6
CONTINUOUS
10
0.322126
20
0.85
11
0.322725
21
0.853013
0
LINE
8
BLACK
6
CONTINUOUS
10
0.322725
20
0.853013
11
0.324432
21
0.855568
0
LINE
8
BLACK
6
CONTINUOUS
10
0.324432
20
0.855568
11
0.326987
21
0.857275
0
LINE
8
BLACK
6
CONTINUOUS
10
0.326987
20
0.857275
11
0.33
21
0.857874
0
LINE
8
BLACK
6
CONTINUOUS
10
0.33
20
0.857874
11
0.39
21
0.857874
0
LINE
8
BLACK
6
CONTINUOUS
10
0.39
20
0.857874
11
0.393013
21
0.857275
0
LINE
8
BLACK
6
CONTINUOUS
10
0.493013
20
0.857275
11
0.495568
21
0.855568
0
LINE
8
BLACK
6
CONTINUOUS
10
0.495568
20
0.855568
11
0.497275
21
0.853013
0
LINE
8
BLACK
6
CONTINUOUS
10
0.497275
20
0.853013
11
0.497874
21
0.85
0
LINE
8
BLACK
6
CONTINUOUS
10
0.497874
20
0.85
11
0.497874
21
0.79
0
LINE
8
BLACK
6
CONTINUOUS
10
0.497874
20
0.79
11
0.497275
21
0.786987
0
LINE
8
BLACK
6
CONTINUOUS
10
0.497275
20
0.786987
11
0.495568
21
0.784432
0
LINE
8
BLACK
6
CONTINUOUS
10
0.495568
20
0.784432
11
0.493013
21
0.782725
0
LINE
8
BLACK
6
CONTINUOUS
10
0.493013
20
0.782725
11
0.49
21
0.782126
0
LINE
8
BLACK
6
CONTINUOUS
10
0.49
20
0.782126
11
0.43
21
0.782126
0
LINE
8
BLACK
6
CONTINUOUS
10
0.43
20
0.782126
11
0.426987
21
0.782725
0
LINE
8
BLACK
6
CONTINUOUS
10
0.426987
20
0.782725
11
0.424432
21
0.784432
0
LINE
8
BLACK
6
CONTINUOUS
10
0.424432
20
0.784432
11
0.422725
21
0.786987
0
LINE
8
BLACK
6
CONTINUOUS
10
0.422725
20
0.786987
11
0.422126
21
0.79
0
LINE
8
BLACK
6
CONTINUOUS
10
0.422126
20
0.79
11
0.422126
21
0.85
0
LINE
8
BLACK
6
CONTINUOUS
10
0.422126
20
0.85
11
0.422725
21
0.853013
0
LINE
8
BLACK
6
CONTINUOUS
10
0.422725
20
0.853013
11
0.424432
21
0.855568
0
LINE
8
BLACK
6
CONTINUOUS
10
0.424432
20
0.855568
11
0.426987
21
0.857275
0
LINE
8
BLACK
6
CONTINUOUS
10
0.426987
20
0.857275
11
0.43
21
0.857874
0
LINE
8
BLACK
6
CONTINUOUS
10
0.43
20
0.857874
11
0.49
21
0.857874
0
LINE
8
BLACK
6
CONTINUOUS
10
0.49
20
0.857874
11
0.493013
21
0.857275
0
LINE
8
BLACK
6
CONTINUOUS
10
0.703013
20
0.897275
11
0.705568
21
0.895568
0
LINE
8
BLACK
6
CONTINUOUS
10
0.705568
20
0.895568
11
0.707275
21
0.893013
0
LINE
8
BLACK
6
CONTINUOUS
10
0.707275
20
0.893013
11
0.707874
21
0.89
0
LINE
8
BLACK
6
CONTINUOUS
10
0.707874
20
0.89
11
0.707874
21
0.83
0
LINE
8
BLACK
6
CONTINUOUS
10
0.707874
20
0.83
11
0.707275
21
0.826987
0
LINE
8
BLACK
6
CONTINUOUS
10
0.707275
20
0.826987
11
0.705568
21
0.824432
0
LINE
8
BLACK
6
CONTINUOUS
10
0.705568
20
0.824432
11
0.703013
21
0.822725
0
LINE
8
BLACK
6
CONTINUOUS
10
0.703013
20
0.822725
11
0.7
21
0.822126
0
LINE
8
BLACK
6
CONTINUOUS
10
0.7
20
0.822126
11
0.64
21
0.822126
0
LINE
8
BLACK
6
CONTINUOUS
10
0.64
20
0.822126
11
0.636987
21
0.822725
0
LINE
8
BLACK
6
CONTINUOUS
10
0.636987
20
0.822725
11
0.634432
21
0.824432
0
LINE
8
BLACK
6
CONTINUOUS
10
0.634432
20
0.824432
11
0.632725
21
0.826987
0
LINE
8
BLACK
6
CONTINUOUS
10
0.632725
20
0.826987
11
0.632126
21
0.83
0
LINE
8
BLACK
6
CONTINUOUS
10
0.632126
20
0.83
11
0.632126
21
0.89
0
LINE
8
BLACK
6
CONTINUOUS
10
0.632126
20
0.89
11
0.632725
21
0.893013
0
LINE
8
BLACK
6
CONTINUOUS
10
0.632725
20
0.893013
11
0.634432
21
0.895568
0
LINE
8
BLACK
6
CONTINUOUS
10
0.634432
20
0.895568
11
0.636987
21
0.897275
0
LINE
8
BLACK
6
CONTINUOUS
10
0.636987
20
0.897275
11
0.64
21
0.897874
0
LINE
8
BLACK
6
CONTINUOUS
10
0.64
20
0.897874
11
0.7
21
0.897874
0
LINE
8
BLACK
6
CONTINUOUS
10
0.7
20
0.897874
11
0.703013
21
0.897275
0
LINE
8
BLACK
6
CONTINUOUS
10
2.40801
20
0.917275
11
2.41057
21
0.915568
0
LINE
8
BLACK
6
CONTINUOUS
10
2.41057
20
0.915568
11
2.41227
21
0.913013
0
LINE
8
BLACK
6
CONTINUOUS
10
2.41227
20
0.913013
11
2.41287
21
0.91
0
LINE
8
BLACK
6
CONTINUOUS
10
2.41287
20
0.91
11
2.41287
21
0.85
0
LINE
8
BLACK
6
CONTINUOUS
10
2.41287
20
0.85
11
2.41227
21
0.846987
0
LINE
8
BLACK
6
CONTINUOUS
10
2.41227
20
0.846987
11
2.41057
21
0.844432
0
LINE
8
BLACK
6
CONTINUOUS
10
2.41057
20
0.844432
11
2.40801
21
0.842725
0
LINE
8
BLACK
6
CONTINUOUS
10
2.40801
20
0.842725
11
2.405
21
0.842126
0
LINE
8
BLACK
6
CONTINUOUS
10
2.405
20
0.842126
11
2.345
21
0.842126
0
LINE
8
BLACK
6
CONTINUOUS
10
2.345
20
0.842126
11
2.34199
21
0.842725
0
LINE
8
BLACK
6
CONTINUOUS
10
2.34199
20
0.842725
11
2.33943
21
0.844432
0
LINE
8
BLACK
6
CONTINUOUS
10
2.33943
20
0.844432
11
2.33773
21
0.846987
0
LINE
8
BLACK
6
CONTINUOUS
10
2.33773
20
0.846987
11
2.33713
21
0.85
0
LINE
8
BLACK
6
CONTINUOUS
10
2.33713
20
0.85
11
2.33713
21
0.91
0
LINE
8
BLACK
6
CONTINUOUS
10
2.33713
20
0.91
11
2.33773
21
0.913013
0
LINE
8
BLACK
6
CONTINUOUS
10
2.33773
20
0.913013
11
2.33943
21
0.915568
0
LINE
8
BLACK
6
CONTINUOUS
10
2.33943
20
0.915568
11
2.34199
21
0.917275
0
LINE
8
BLACK
6
CONTINUOUS
10
2.34199
20
0.917275
11
2.345
21
0.917874
0
LINE
8
BLACK
6
CONTINUOUS
10
2.345
20
0.917874
11
2.405
21
0.917874
0
LINE
8
BLACK
6
CONTINUOUS
10
2.405
20
0.917874
11
2.40801
21
0.917275
0
LINE
8
BLACK
6
CONTINUOUS
10
2.50801
20
0.917275
11
2.51057
21
0.915568
0
LINE
8
BLACK
6
CONTINUOUS
10
2.51057
20
0.915568
11
2.51227
21
0.913013
0
LINE
8
BLACK
6
CONTINUOUS
10
2.51227
20
0.913013
11
2.51287
21
0.91
0
LINE
8
BLACK
6
CONTINUOUS
10
2.51287
20
0.91
11
2.51287
21
0.85
0
LINE
8
BLACK
6
CONTINUOUS
10
2.51287
20
0.85
11
2.51227
21
0.846987
0
LINE
8
BLACK
6
CONTINUOUS
10
2.51227
20
0.846987
11
2.51057
21
0.844432
0
LINE
8
BLACK
6
CONTINUOUS
10
2.51057
20
0.844432
11
2.50801
21
0.842725
0
LINE
8
BLACK
6
CONTINUOUS
10
2.50801
20
0.842725
11
2.505
21
0.842126
0
LINE
8
BLACK
6
CONTINUOUS
10
2.505
20
0.842126
11
2.445
21
0.842126
0
LINE
8
BLACK
6
CONTINUOUS
10
2.445
20
0.842126
11
2.44199
21
0.842725
0
LINE
8
BLACK
6
CONTINUOUS
10
2.44199
20
0.842725
11
2.43943
21
0.844432
0
LINE
8
BLACK
6
CONTINUOUS
10
2.43943
20
0.844432
11
2.43773
21
0.846987
0
LINE
8
BLACK
6
CONTINUOUS
10
2.43773
20
0.846987
11
2.43713
21
0.85
0
LINE
8
BLACK
6
CONTINUOUS
10
2.43713
20
0.85
11
2.43713
21
0.91
0
LINE
8
BLACK
6
CONTINUOUS
10
2.43713
20
0.91
11
2.43773
21
0.913013
0
LINE
8
BLACK
6
CONTINUOUS
10
2.43773
20
0.913013
11
2.43943
21
0.915568
0
LINE
8
BLACK
6
CONTINUOUS
10
2.43943
20
0.915568
11
2.44199
21
0.917275
0
LINE
8
BLACK
6
CONTINUOUS
10
2.44199
20
0.917275
11
2.445
21
0.917874
0
LINE
8
BLACK
6
CONTINUOUS
10
2.445
20
0.917874
11
2.505
21
0.917874
0
LINE
8
BLACK
6
CONTINUOUS
10
2.505
20
0.917874
11
2.50801
21
0.917275
0
LINE
8
BLACK
6
CONTINUOUS
10
0.703013
20
0.997275
11
0.705568
21
0.995568
0
LINE
8
BLACK
6
CONTINUOUS
10
0.705568
20
0.995568
11
0.707275
21
0.993013
0
LINE
8
BLACK
6
CONTINUOUS
10
0.707275
20
0.993013
11
0.707874
21
0.99
0
LINE
8
BLACK
6
CONTINUOUS
10
0.707874
20
0.99
11
0.707874
21
0.93
0
LINE
8
BLACK
6
CONTINUOUS
10
0.707874
20
0.93
11
0.707275
21
0.926987
0
LINE
8
BLACK
6
CONTINUOUS
10
0.707275
20
0.926987
11
0.705568
21
0.924432
0
LINE
8
BLACK
6
CONTINUOUS
10
0.705568
20
0.924432
11
0.703013
21
0.922725
0
LINE
8
BLACK
6
CONTINUOUS
10
0.703013
20
0.922725
11
0.7
21
0.922126
0
LINE
8
BLACK
6
CONTINUOUS
10
0.7
20
0.922126
11
0.64
21
0.922126
0
LINE
8
BLACK
6
CONTINUOUS
10
0.64
20
0.922126
11
0.636987
21
0.922725
0
LINE
8
BLACK
6
CONTINUOUS
10
0.636987
20
0.922725
11
0.634432
21
0.924432
0
LINE
8
BLACK
6
CONTINUOUS
10
0.634432
20
0.924432
11
0.632725
21
0.926987
0
LINE
8
BLACK
6
CONTINUOUS
10
0.632725
20
0.926987
11
0.632126
21
0.93
0
LINE
8
BLACK
6
CONTINUOUS
10
0.632126
20
0.93
11
0.632126
21
0.99
0
LINE
8
BLACK
6
CONTINUOUS
10
0.632126
20
0.99
11
0.632725
21
0.993013
0
LINE
8
BLACK
6
CONTINUOUS
10
0.632725
20
0.993013
11
0.634432
21
0.995568
0
LINE
8
BLACK
6
CONTINUOUS
10
0.634432
20
0.995568
11
0.636987
21
0.997275
0
LINE
8
BLACK
6
CONTINUOUS
10
0.636987
20
0.997275
11
0.64
21
0.997874
0
LINE
8
BLACK
6
CONTINUOUS
10
0.64
20
0.997874
11
0.7
21
0.997874
0
LINE
8
BLACK
6
CONTINUOUS
10
0.7
20
0.997874
11
0.703013
21
0.997275
0
LINE
8
BLACK
6
CONTINUOUS
10
2.21301
20
1.09727
11
2.21557
21
1.09557
0
LINE
8
BLACK
6
CONTINUOUS
10
2.21557
20
1.09557
11
2.21727
21
1.09301
0
LINE
8
BLACK
6
CONTINUOUS
10
2.21727
20
1.09301
11
2.21787
21
1.09
0
LINE
8
BLACK
6
CONTINUOUS
10
2.21787
20
1.09
11
2.21787
21
1.03
0
LINE
8
BLACK
6
CONTINUOUS
10
2.21787
20
1.03
11
2.21727
21
1.02699
0
LINE
8
BLACK
6
CONTINUOUS
10
2.21727
20
1.02699
11
2.21557
21
1.02443
0
LINE
8
BLACK
6
CONTINUOUS
10
2.21557
20
1.02443
11
2.21301
21
1.02273
0
LINE
8
BLACK
6
CONTINUOUS
10
2.21301
20
1.02273
11
2.21
21
1.02213
0
LINE
8
BLACK
6
CONTINUOUS
10
2.21
20
1.02213
11
2.15
21
1.02213
0
LINE
8
BLACK
6
CONTINUOUS
10
2.15
20
1.02213
11
2.14699
21
1.02273
0
LINE
8
BLACK
6
CONTINUOUS
10
2.14699
20
1.02273
11
2.14443
21
1.02443
0
LINE
8
BLACK
6
CONTINUOUS
10
2.14443
20
1.02443
11
2.14273
21
1.02699
0
LINE
8
BLACK
6
CONTINUOUS
10
2.14273
20
1.02699
11
2.14213
21
1.03
0
LINE
8
BLACK
6
CONTINUOUS
10
2.14213
20
1.03
11
2.14213
21
1.09
0
LINE
8
BLACK
6
CONTINUOUS
10
2.14213
20
1.09
11
2.14273
21
1.09301
0
LINE
8
BLACK
6
CONTINUOUS
10
2.14273
20
1.09301
11
2.14443
21
1.09557
0
LINE
8
BLACK
6
CONTINUOUS
10
2.14443
20
1.09557
11
2.14699
21
1.09727
0
LINE
8
BLACK
6
CONTINUOUS
10
2.14699
20
1.09727
11
2.15
21
1.09787
0
LINE
8
BLACK
6
CONTINUOUS
10
2.15
20
1.09787
11
2.21
21
1.09787
0
LINE
8
BLACK
6
CONTINUOUS
10
2.21
20
1.09787
11
2.21301
21
1.09727
0
LINE
8
BLACK
6
CONTINUOUS
10
2.31301
20
1.09727
11
2.31557
21
1.09557
0
LINE
8
BLACK
6
CONTINUOUS
10
2.31557
20
1.09557
11
2.31727
21
1.09301
0
LINE
8
BLACK
6
CONTINUOUS
10
2.31727
20
1.09301
11
2.31787
21
1.09
0
LINE
8
BLACK
6
CONTINUOUS
10
2.31787
20
1.09
11
2.31787
21
1.03
0
LINE
8
BLACK
6
CONTINUOUS
10
2.31787
20
1.03
11
2.31727
21
1.02699
0
LINE
8
BLACK
6
CONTINUOUS
10
2.31727
20
1.02699
11
2.31557
21
1.02443
0
LINE
8
BLACK
6
CONTINUOUS
10
2.31557
20
1.02443
11
2.31301
21
1.02273
0
LINE
8
BLACK
6
CONTINUOUS
10
2.31301
20
1.02273
11
2.31
21
1.02213
0
LINE
8
BLACK
6
CONTINUOUS
10
2.31
20
1.02213
11
2.25
21
1.02213
0
LINE
8
BLACK
6
CONTINUOUS
10
2.25
20
1.02213
11
2.24699
21
1.02273
0
LINE
8
BLACK
6
CONTINUOUS
10
2.24699
20
1.02273
11
2.24443
21
1.02443
0
LINE
8
BLACK
6
CONTINUOUS
10
2.24443
20
1.02443
11
2.24273
21
1.02699
0
LINE
8
BLACK
6
CONTINUOUS
10
2.24273
20
1.02699
11
2.24213
21
1.03
0
LINE
8
BLACK
6
CONTINUOUS
10
2.24213
20
1.03
11
2.24213
21
1.09
0
LINE
8
BLACK
6
CONTINUOUS
10
2.24213
20
1.09
11
2.24273
21
1.09301
0
LINE
8
BLACK
6
CONTINUOUS
10
2.24273
20
1.09301
11
2.24443
21
1.09557
0
LINE
8
BLACK
6
CONTINUOUS
10
2.24443
20
1.09557
11
2.24699
21
1.09727
0
LINE
8
BLACK
6
CONTINUOUS
10
2.24699
20
1.09727
11
2.25
21
1.09787
0
LINE
8
BLACK
6
CONTINUOUS
10
2.25
20
1.09787
11
2.31
21
1.09787
0
LINE
8
BLACK
6
CONTINUOUS
10
2.31
20
1.09787
11
2.31301
21
1.09727
0
LINE
8
BLACK
6
CONTINUOUS
10
0.379058
20
1.18637
11
0.387842
21
1.18402
0
LINE
8
BLACK
6
CONTINUOUS
10
0.387842
20
1.18402
11
0.396083
21
1.18018
0
LINE
8
BLACK
6
CONTINUOUS
10
0.396083
20
1.18018
11
0.403531
21
1.17496
0
LINE
8
BLACK
6
CONTINUOUS
10
0.403531
20
1.17496
11
0.409961
21
1.16853
0
LINE
8
BLACK
6
CONTINUOUS
10
0.409961
20
1.16853
11
0.415177
21
1.16108
0
LINE
8
BLACK
6
CONTINUOUS
10
0.415177
20
1.16108
11
0.419019
21
1.15284
0
LINE
8
BLACK
6
CONTINUOUS
10
0.419019
20
1.15284
11
0.421373
21
1.14406
0
LINE
8
BLACK
6
CONTINUOUS
10
0.421373
20
1.14406
11
0.422165
21
1.135
0
LINE
8
BLACK
6
CONTINUOUS
10
0.422165
20
1.135
11
0.421373
21
1.12594
0
LINE
8
BLACK
6
CONTINUOUS
10
0.421373
20
1.12594
11
0.419019
21
1.11716
0
LINE
8
BLACK
6
CONTINUOUS
10
0.419019
20
1.11716
11
0.415177
21
1.10892
0
LINE
8
BLACK
6
CONTINUOUS
10
0.415177
20
1.10892
11
0.409961
21
1.10147
0
LINE
8
BLACK
6
CONTINUOUS
10
0.409961
20
1.10147
11
0.403531
21
1.09504
0
LINE
8
BLACK
6
CONTINUOUS
10
0.403531
20
1.09504
11
0.396083
21
1.08982
0
LINE
8
BLACK
6
CONTINUOUS
10
0.396083
20
1.08982
11
0.387842
21
1.08598
0
LINE
8
BLACK
6
CONTINUOUS
10
0.387842
20
1.08598
11
0.379058
21
1.08363
0
LINE
8
BLACK
6
CONTINUOUS
10
0.379058
20
1.08363
11
0.37
21
1.08283
0
LINE
8
BLACK
6
CONTINUOUS
10
0.37
20
1.08283
11
0.360942
21
1.08363
0
LINE
8
BLACK
6
CONTINUOUS
10
0.360942
20
1.08363
11
0.352158
21
1.08598
0
LINE
8
BLACK
6
CONTINUOUS
10
0.352158
20
1.08598
11
0.343917
21
1.08982
0
LINE
8
BLACK
6
CONTINUOUS
10
0.343917
20
1.08982
11
0.336469
21
1.09504
0
LINE
8
BLACK
6
CONTINUOUS
10
0.336469
20
1.09504
11
0.330039
21
1.10147
0
LINE
8
BLACK
6
CONTINUOUS
10
0.330039
20
1.10147
11
0.324823
21
1.10892
0
LINE
8
BLACK
6
CONTINUOUS
10
0.324823
20
1.10892
11
0.320981
21
1.11716
0
LINE
8
BLACK
6
CONTINUOUS
10
0.320981
20
1.11716
11
0.318627
21
1.12594
0
LINE
8
BLACK
6
CONTINUOUS
10
0.318627
20
1.12594
11
0.317835
21
1.135
0
LINE
8
BLACK
6
CONTINUOUS
10
0.317835
20
1.135
11
0.318627
21
1.14406
0
LINE
8
BLACK
6
CONTINUOUS
10
0.318627
20
1.14406
11
0.320981
21
1.15284
0
LINE
8
BLACK
6
CONTINUOUS
10
0.320981
20
1.15284
11
0.324823
21
1.16108
0
LINE
8
BLACK
6
CONTINUOUS
10
0.324823
20
1.16108
11
0.330039
21
1.16853
0
LINE
8
BLACK
6
CONTINUOUS
10
0.330039
20
1.16853
11
0.336469
21
1.17496
0
LINE
8
BLACK
6
CONTINUOUS
10
0.336469
20
1.17496
11
0.343917
21
1.18018
0
LINE
8
BLACK
6
CONTINUOUS
10
0.343917
20
1.18018
11
0.352158
21
1.18402
0
LINE
8
BLACK
6
CONTINUOUS
10
0.352158
20
1.18402
11
0.360942
21
1.18637
0
LINE
8
BLACK
6
CONTINUOUS
10
0.360942
20
1.18637
11
0.37
21
1.18717
0
LINE
8
BLACK
6
CONTINUOUS
10
0.37
20
1.18717
11
0.379058
21
1.18637
0
LINE
8
BLACK
6
CONTINUOUS
10
0.579058
20
1.18637
11
0.587842
21
1.18402
0
LINE
8
BLACK
6
CONTINUOUS
10
0.587842
20
1.18402
11
0.596083
21
1.18018
0
LINE
8
BLACK
6
CONTINUOUS
10
0.596083
20
1.18018
11
0.603531
21
1.17496
0
LINE
8
BLACK
6
CONTINUOUS
10
0.603531
20
1.17496
11
0.609961
21
1.16853
0
LINE
8
BLACK
6
CONTINUOUS
10
0.609961
20
1.16853
11
0.615177
21
1.16108
0
LINE
8
BLACK
6
CONTINUOUS
10
0.615177
20
1.16108
11
0.619019
21
1.15284
0
LINE
8
BLACK
6
CONTINUOUS
10
0.619019
20
1.15284
11
0.621373
21
1.14406
0
LINE
8
BLACK
6
CONTINUOUS
10
0.621373
20
1.14406
11
0.622165
21
1.135
0
LINE
8
BLACK
6
CONTINUOUS
10
0.622165
20
1.135
11
0.621373
21
1.12594
0
LINE
8
BLACK
6
CONTINUOUS
10
0.621373
20
1.12594
11
0.619019
21
1.11716
0
LINE
8
BLACK
6
CONTINUOUS
10
0.619019
20
1.11716
11
0.615177
21
1.10892
0
LINE
8
BLACK
6
CONTINUOUS
10
0.615177
20
1.10892
11
0.609961
21
1.10147
0
LINE
8
BLACK
6
CONTINUOUS
10
0.609961
20
1.10147
11
0.603531
21
1.09504
0
LINE
8
BLACK
6
CONTINUOUS
10
0.603531
20
1.09504
11
0.596083
21
1.08982
0
LINE
8
BLACK
6
CONTINUOUS
10
0.596083
20
1.08982
11
0.587842
21
1.08598
0
LINE
8
BLACK
6
CONTINUOUS
10
0.587842
20
1.08598
11
0.579058
21
1.08363
0
LINE
8
BLACK
6
CONTINUOUS
10
0.579058
20
1.08363
11
0.57
21
1.08283
0
LINE
8
BLACK
6
CONTINUOUS
10
0.57
20
1.08283
11
0.560942
21
1.08363
0
LINE
8
BLACK
6
CONTINUOUS
10
0.560942
20
1.08363
11
0.552158
21
1.08598
0
LINE
8
BLACK
6
CONTINUOUS
10
0.552158
20
1.08598
11
0.543917
21
1.08982
0
LINE
8
BLACK
6
CONTINUOUS
10
0.543917
20
1.08982
11
0.536469
21
1.09504
0
LINE
8
BLACK
6
CONTINUOUS
10
0.536469
20
1.09504
11
0.530039
21
1.10147
0
LINE
8
BLACK
6
CONTINUOUS
10
0.530039
20
1.10147
11
0.524823
21
1.10892
0
LINE
8
BLACK
6
CONTINUOUS
10
0.524823
20
1.10892
11
0.520981
21
1.11716
0
LINE
8
BLACK
6
CONTINUOUS
10
0.520981
20
1.11716
11
0.518627
21
1.12594
0
LINE
8
BLACK
6
CONTINUOUS
10
0.518627
20
1.12594
11
0.517835
21
1.135
0
LINE
8
BLACK
6
CONTINUOUS
10
0.517835
20
1.135
11
0.518627
21
1.14406
0
LINE
8
BLACK
6
CONTINUOUS
10
0.518627
20
1.14406
11
0.520981
21
1.15284
0
LINE
8
BLACK
6
CONTINUOUS
10
0.520981
20
1.15284
11
0.524823
21
1.16108
0
LINE
8
BLACK
6
CONTINUOUS
10
0.524823
20
1.16108
11
0.530039
21
1.16853
0
LINE
8
BLACK
6
CONTINUOUS
10
0.530039
20
1.16853
11
0.536469
21
1.17496
0
LINE
8
BLACK
6
CONTINUOUS
10
0.536469
20
1.17496
11
0.543917
21
1.18018
0
LINE
8
BLACK
6
CONTINUOUS
10
0.543917
20
1.18018
11
0.552158
21
1.18402
0
LINE
8
BLACK
6
CONTINUOUS
10
0.552158
20
1.18402
11
0.560942
21
1.18637
0
LINE
8
BLACK
6
CONTINUOUS
10
0.560942
20
1.18637
11
0.57
21
1.18717
0
LINE
8
BLACK
6
CONTINUOUS
10
0.57
20
1.18717
11
0.579058
21
1.18637
0
LINE
8
BLACK
6
CONTINUOUS
10
1.74801
20
1.17227
11
1.75057
21
1.17057
0
LINE
8
BLACK
6
CONTINUOUS
10
1.75057
20
1.17057
11
1.75227
21
1.16801
0
LINE
8
BLACK
6
CONTINUOUS
10
1.75227
20
1.16801
11
1.75287
21
1.165
0
LINE
8
BLACK
6
CONTINUOUS
10
1.75287
20
1.165
11
1.75287
21
1.105
0
LINE
8
BLACK
6
CONTINUOUS
10
1.75287
20
1.105
11
1.75227
21
1.10199
0
LINE
8
BLACK
6
CONTINUOUS
10
1.75227
20
1.10199
11
1.75057
21
1.09943
0
LINE
8
BLACK
6
CONTINUOUS
10
1.75057
20
1.09943
11
1.74801
21
1.09773
0
LINE
8
BLACK
6
CONTINUOUS
10
1.74801
20
1.09773
11
1.745
21
1.09713
0
LINE
8
BLACK
6
CONTINUOUS
10
1.745
20
1.09713
11
1.685
21
1.09713
0
LINE
8
BLACK
6
CONTINUOUS
10
1.685
20
1.09713
11
1.68199
21
1.09773
0
LINE
8
BLACK
6
CONTINUOUS
10
1.68199
20
1.09773
11
1.67943
21
1.09943
0
LINE
8
BLACK
6
CONTINUOUS
10
1.67943
20
1.09943
11
1.67773
21
1.10199
0
LINE
8
BLACK
6
CONTINUOUS
10
1.67773
20
1.10199
11
1.67713
21
1.105
0
LINE
8
BLACK
6
CONTINUOUS
10
1.67713
20
1.105
11
1.67713
21
1.165
0
LINE
8
BLACK
6
CONTINUOUS
10
1.67713
20
1.165
11
1.67773
21
1.16801
0
LINE
8
BLACK
6
CONTINUOUS
10
1.67773
20
1.16801
11
1.67943
21
1.17057
0
LINE
8
BLACK
6
CONTINUOUS
10
1.67943
20
1.17057
11
1.68199
21
1.17227
0
LINE
8
BLACK
6
CONTINUOUS
10
1.68199
20
1.17227
11
1.685
21
1.17287
0
LINE
8
BLACK
6
CONTINUOUS
10
1.685
20
1.17287
11
1.745
21
1.17287
0
LINE
8
BLACK
6
CONTINUOUS
10
1.745
20
1.17287
11
1.74801
21
1.17227
0
LINE
8
BLACK
6
CONTINUOUS
10
1.84801
20
1.17227
11
1.85057
21
1.17057
0
LINE
8
BLACK
6
CONTINUOUS
10
1.85057
20
1.17057
11
1.85227
21
1.16801
0
LINE
8
BLACK
6
CONTINUOUS
10
1.85227
20
1.16801
11
1.85287
21
1.165
0
LINE
8
BLACK
6
CONTINUOUS
10
1.85287
20
1.165
11
1.85287
21
1.105
0
LINE
8
BLACK
6
CONTINUOUS
10
1.85287
20
1.105
11
1.85227
21
1.10199
0
LINE
8
BLACK
6
CONTINUOUS
10
1.85227
20
1.10199
11
1.85057
21
1.09943
0
LINE
8
BLACK
6
CONTINUOUS
10
1.85057
20
1.09943
11
1.84801
21
1.09773
0
LINE
8
BLACK
6
CONTINUOUS
10
1.84801
20
1.09773
11
1.845
21
1.09713
0
LINE
8
BLACK
6
CONTINUOUS
10
1.845
20
1.09713
11
1.785
21
1.09713
0
LINE
8
BLACK
6
CONTINUOUS
10
1.785
20
1.09713
11
1.78199
21
1.09773
0
LINE
8
BLACK
6
CONTINUOUS
10
1.78199
20
1.09773
11
1.77943
21
1.09943
0
LINE
8
BLACK
6
CONTINUOUS
10
1.77943
20
1.09943
11
1.77773
21
1.10199
0
LINE
8
BLACK
6
CONTINUOUS
10
1.77773
20
1.10199
11
1.77713
21
1.105
0
LINE
8
BLACK
6
CONTINUOUS
10
1.77713
20
1.105
11
1.77713
21
1.165
0
LINE
8
BLACK
6
CONTINUOUS
10
1.77713
20
1.165
11
1.77773
21
1.16801
0
LINE
8
BLACK
6
CONTINUOUS
10
1.77773
20
1.16801
11
1.77943
21
1.17057
0
LINE
8
BLACK
6
CONTINUOUS
10
1.77943
20
1.17057
11
1.78199
21
1.17227
0
LINE
8
BLACK
6
CONTINUOUS
10
1.78199
20
1.17227
11
1.785
21
1.17287
0
LINE
8
BLACK
6
CONTINUOUS
10
1.785
20
1.17287
11
1.845
21
1.17287
0
LINE
8
BLACK
6
CONTINUOUS
10
1.845
20
1.17287
11
1.84801
21
1.17227
0
LINE
8
BLACK
6
CONTINUOUS
10
2.21301
20
1.19727
11
2.21557
21
1.19557
0
LINE
8
BLACK
6
CONTINUOUS
10
2.21557
20
1.19557
11
2.21727
21
1.19301
0
LINE
8
BLACK
6
CONTINUOUS
10
2.21727
20
1.19301
11
2.21787
21
1.19
0
LINE
8
BLACK
6
CONTINUOUS
10
2.21787
20
1.19
11
2.21787
21
1.13
0
LINE
8
BLACK
6
CONTINUOUS
10
2.21787
20
1.13
11
2.21727
21
1.12699
0
LINE
8
BLACK
6
CONTINUOUS
10
2.21727
20
1.12699
11
2.21557
21
1.12443
0
LINE
8
BLACK
6
CONTINUOUS
10
2.21557
20
1.12443
11
2.21301
21
1.12273
0
LINE
8
BLACK
6
CONTINUOUS
10
2.21301
20
1.12273
11
2.21
21
1.12213
0
LINE
8
BLACK
6
CONTINUOUS
10
2.21
20
1.12213
11
2.15
21
1.12213
0
LINE
8
BLACK
6
CONTINUOUS
10
2.15
20
1.12213
11
2.14699
21
1.12273
0
LINE
8
BLACK
6
CONTINUOUS
10
2.14699
20
1.12273
11
2.14443
21
1.12443
0
LINE
8
BLACK
6
CONTINUOUS
10
2.14443
20
1.12443
11
2.14273
21
1.12699
0
LINE
8
BLACK
6
CONTINUOUS
10
2.14273
20
1.12699
11
2.14213
21
1.13
0
LINE
8
BLACK
6
CONTINUOUS
10
2.14213
20
1.13
11
2.14213
21
1.19
0
LINE
8
BLACK
6
CONTINUOUS
10
2.14213
20
1.19
11
2.14273
21
1.19301
0
LINE
8
BLACK
6
CONTINUOUS
10
2.14273
20
1.19301
11
2.14443
21
1.19557
0
LINE
8
BLACK
6
CONTINUOUS
10
2.14443
20
1.19557
11
2.14699
21
1.19727
0
LINE
8
BLACK
6
CONTINUOUS
10
2.14699
20
1.19727
11
2.15
21
1.19787
0
LINE
8
BLACK
6
CONTINUOUS
10
2.15
20
1.19787
11
2.21
21
1.19787
0
LINE
8
BLACK
6
CONTINUOUS
10
2.21
20
1.19787
11
2.21301
21
1.19727
0
LINE
8
BLACK
6
CONTINUOUS
10
2.31301
20
1.19727
11
2.31557
21
1.19557
0
LINE
8
BLACK
6
CONTINUOUS
10
2.31557
20
1.19557
11
2.31727
21
1.19301
0
LINE
8
BLACK
6
CONTINUOUS
10
2.31727
20
1.19301
11
2.31787
21
1.19
0
LINE
8
BLACK
6
CONTINUOUS
10
2.31787
20
1.19
11
2.31787
21
1.13
0
LINE
8
BLACK
6
CONTINUOUS
10
2.31787
20
1.13
11
2.31727
21
1.12699
0
LINE
8
BLACK
6
CONTINUOUS
10
2.31727
20
1.12699
11
2.31557
21
1.12443
0
LINE
8
BLACK
6
CONTINUOUS
10
2.31557
20
1.12443
11
2.31301
21
1.12273
0
LINE
8
BLACK
6
CONTINUOUS
10
2.31301
20
1.12273
11
2.31
21
1.12213
0
LINE
8
BLACK
6
CONTINUOUS
10
2.31
20
1.12213
11
2.25
21
1.12213
0
LINE
8
BLACK
6
CONTINUOUS
10
2.25
20
1.12213
11
2.24699
21
1.12273
0
LINE
8
BLACK
6
CONTINUOUS
10
2.24699
20
1.12273
11
2.24443
21
1.12443
0
LINE
8
BLACK
6
CONTINUOUS
10
2.24443
20
1.12443
11
2.24273
21
1.12699
0
LINE
8
BLACK
6
CONTINUOUS
10
2.24273
20
1.12699
11
2.24213
21
1.13
0
LINE
8
BLACK
6
CONTINUOUS
10
2.24213
20
1.13
11
2.24213
21
1.19
0
LINE
8
BLACK
6
CONTINUOUS
10
2.24213
20
1.19
11
2.24273
21
1.19301
0
LINE
8
BLACK
6
CONTINUOUS
10
2.24273
20
1.19301
11
2.24443
21
1.19557
0
LINE
8
BLACK
6
CONTINUOUS
10
2.24443
20
1.19557
11
2.24699
21
1.19727
0
LINE
8
BLACK
6
CONTINUOUS
10
2.24699
20
1.19727
11
2.25
21
1.19787
0
LINE
8
BLACK
6
CONTINUOUS
10
2.25
20
1.19787
11
2.31
21
1.19787
0
LINE
8
BLACK
6
CONTINUOUS
10
2.31
20
1.19787
11
2.31301
21
1.19727
0
LINE
8
BLACK
6
CONTINUOUS
10
1.48301
20
1.20727
11
1.48557
21
1.20557
0
LINE
8
BLACK
6
CONTINUOUS
10
1.48557
20
1.20557
11
1.48727
21
1.20301
0
LINE
8
BLACK
6
CONTINUOUS
10
1.48727
20
1.20301
11
1.48787
21
1.2
0
LINE
8
BLACK
6
CONTINUOUS
10
1.48787
20
1.2
11
1.48787
21
1.14
0
LINE
8
BLACK
6
CONTINUOUS
10
1.48787
20
1.14
11
1.48727
21
1.13699
0
LINE
8
BLACK
6
CONTINUOUS
10
1.48727
20
1.13699
11
1.48557
21
1.13443
0
LINE
8
BLACK
6
CONTINUOUS
10
1.48557
20
1.13443
11
1.48301
21
1.13273
0
LINE
8
BLACK
6
CONTINUOUS
10
1.48301
20
1.13273
11
1.48
21
1.13213
0
LINE
8
BLACK
6
CONTINUOUS
10
1.48
20
1.13213
11
1.42
21
1.13213
0
LINE
8
BLACK
6
CONTINUOUS
10
1.42
20
1.13213
11
1.41699
21
1.13273
0
LINE
8
BLACK
6
CONTINUOUS
10
1.41699
20
1.13273
11
1.41443
21
1.13443
0
LINE
8
BLACK
6
CONTINUOUS
10
1.41443
20
1.13443
11
1.41273
21
1.13699
0
LINE
8
BLACK
6
CONTINUOUS
10
1.41273
20
1.13699
11
1.41213
21
1.14
0
LINE
8
BLACK
6
CONTINUOUS
10
1.41213
20
1.14
11
1.41213
21
1.2
0
LINE
8
BLACK
6
CONTINUOUS
10
1.41213
20
1.2
11
1.41273
21
1.20301
0
LINE
8
BLACK
6
CONTINUOUS
10
1.41273
20
1.20301
11
1.41443
21
1.20557
0
LINE
8
BLACK
6
CONTINUOUS
10
1.41443
20
1.20557
11
1.41699
21
1.20727
0
LINE
8
BLACK
6
CONTINUOUS
10
1.41699
20
1.20727
11
1.42
21
1.20787
0
LINE
8
BLACK
6
CONTINUOUS
10
1.42
20
1.20787
11
1.48
21
1.20787
0
LINE
8
BLACK
6
CONTINUOUS
10
1.48
20
1.20787
11
1.48301
21
1.20727
0
LINE
8
BLACK
6
CONTINUOUS
10
1.58301
20
1.20727
11
1.58557
21
1.20557
0
LINE
8
BLACK
6
CONTINUOUS
10
1.58557
20
1.20557
11
1.58727
21
1.20301
0
LINE
8
BLACK
6
CONTINUOUS
10
1.58727
20
1.20301
11
1.58787
21
1.2
0
LINE
8
BLACK
6
CONTINUOUS
10
1.58787
20
1.2
11
1.58787
21
1.14
0
LINE
8
BLACK
6
CONTINUOUS
10
1.58787
20
1.14
11
1.58727
21
1.13699
0
LINE
8
BLACK
6
CONTINUOUS
10
1.58727
20
1.13699
11
1.58557
21
1.13443
0
LINE
8
BLACK
6
CONTINUOUS
10
1.58557
20
1.13443
11
1.58301
21
1.13273
0
LINE
8
BLACK
6
CONTINUOUS
10
1.58301
20
1.13273
11
1.58
21
1.13213
0
LINE
8
BLACK
6
CONTINUOUS
10
1.58
20
1.13213
11
1.52
21
1.13213
0
LINE
8
BLACK
6
CONTINUOUS
10
1.52
20
1.13213
11
1.51699
21
1.13273
0
LINE
8
BLACK
6
CONTINUOUS
10
1.51699
20
1.13273
11
1.51443
21
1.13443
0
LINE
8
BLACK
6
CONTINUOUS
10
1.51443
20
1.13443
11
1.51273
21
1.13699
0
LINE
8
BLACK
6
CONTINUOUS
10
1.51273
20
1.13699
11
1.51213
21
1.14
0
LINE
8
BLACK
6
CONTINUOUS
10
1.51213
20
1.14
11
1.51213
21
1.2
0
LINE
8
BLACK
6
CONTINUOUS
10
1.51213
20
1.2
11
1.51273
21
1.20301
0
LINE
8
BLACK
6
CONTINUOUS
10
1.51273
20
1.20301
11
1.51443
21
1.20557
0
LINE
8
BLACK
6
CONTINUOUS
10
1.51443
20
1.20557
11
1.51699
21
1.20727
0
LINE
8
BLACK
6
CONTINUOUS
10
1.51699
20
1.20727
11
1.52
21
1.20787
0
LINE
8
BLACK
6
CONTINUOUS
10
1.52
20
1.20787
11
1.58
21
1.20787
0
LINE
8
BLACK
6
CONTINUOUS
10
1.58
20
1.20787
11
1.58301
21
1.20727
0
LINE
8
BLACK
6
CONTINUOUS
10
0.478375
20
1.2825
11
0.486495
21
1.28032
0
LINE
8
BLACK
6
CONTINUOUS
10
0.486495
20
1.28032
11
0.494114
21
1.27677
0
LINE
8
BLACK
6
CONTINUOUS
10
0.494114
20
1.27677
11
0.501001
21
1.27195
0
LINE
8
BLACK
6
CONTINUOUS
10
0.501001
20
1.27195
11
0.506945
21
1.266
0
LINE
8
BLACK
6
CONTINUOUS
10
0.506945
20
1.266
11
0.511767
21
1.25911
0
LINE
8
BLACK
6
CONTINUOUS
10
0.511767
20
1.25911
11
0.51532
21
1.2515
0
LINE
8
BLACK
6
CONTINUOUS
10
0.51532
20
1.2515
11
0.517496
21
1.24337
0
LINE
8
BLACK
6
CONTINUOUS
10
0.517496
20
1.24337
11
0.518228
21
1.235
0
LINE
8
BLACK
6
CONTINUOUS
10
0.518228
20
1.235
11
0.517496
21
1.22663
0
LINE
8
BLACK
6
CONTINUOUS
10
0.517496
20
1.22663
11
0.51532
21
1.2185
0
LINE
8
BLACK
6
CONTINUOUS
10
0.51532
20
1.2185
11
0.511767
21
1.21089
0
LINE
8
BLACK
6
CONTINUOUS
10
0.511767
20
1.21089
11
0.506945
21
1.204
0
LINE
8
BLACK
6
CONTINUOUS
10
0.506945
20
1.204
11
0.501001
21
1.19805
0
LINE
8
BLACK
6
CONTINUOUS
10
0.501001
20
1.19805
11
0.494114
21
1.19323
0
LINE
8
BLACK
6
CONTINUOUS
10
0.494114
20
1.19323
11
0.486495
21
1.18968
0
LINE
8
BLACK
6
CONTINUOUS
10
0.486495
20
1.18968
11
0.478375
21
1.1875
0
LINE
8
BLACK
6
CONTINUOUS
10
0.478375
20
1.1875
11
0.47
21
1.18677
0
LINE
8
BLACK
6
CONTINUOUS
10
0.47
20
1.18677
11
0.461625
21
1.1875
0
LINE
8
BLACK
6
CONTINUOUS
10
0.461625
20
1.1875
11
0.453505
21
1.18968
0
LINE
8
BLACK
6
CONTINUOUS
10
0.453505
20
1.18968
11
0.445886
21
1.19323
0
LINE
8
BLACK
6
CONTINUOUS
10
0.445886
20
1.19323
11
0.438999
21
1.19805
0
LINE
8
BLACK
6
CONTINUOUS
10
0.438999
20
1.19805
11
0.433055
21
1.204
0
LINE
8
BLACK
6
CONTINUOUS
10
0.433055
20
1.204
11
0.428233
21
1.21089
0
LINE
8
BLACK
6
CONTINUOUS
10
0.428233
20
1.21089
11
0.42468
21
1.2185
0
LINE
8
BLACK
6
CONTINUOUS
10
0.42468
20
1.2185
11
0.422504
21
1.22663
0
LINE
8
BLACK
6
CONTINUOUS
10
0.422504
20
1.22663
11
0.421772
21
1.235
0
LINE
8
BLACK
6
CONTINUOUS
10
0.421772
20
1.235
11
0.422504
21
1.24337
0
LINE
8
BLACK
6
CONTINUOUS
10
0.422504
20
1.24337
11
0.42468
21
1.2515
0
LINE
8
BLACK
6
CONTINUOUS
10
0.42468
20
1.2515
11
0.428233
21
1.25911
0
LINE
8
BLACK
6
CONTINUOUS
10
0.428233
20
1.25911
11
0.433055
21
1.266
0
LINE
8
BLACK
6
CONTINUOUS
10
0.433055
20
1.266
11
0.438999
21
1.27195
0
LINE
8
BLACK
6
CONTINUOUS
10
0.438999
20
1.27195
11
0.445886
21
1.27677
0
LINE
8
BLACK
6
CONTINUOUS
10
0.445886
20
1.27677
11
0.453505
21
1.28032
0
LINE
8
BLACK
6
CONTINUOUS
10
0.453505
20
1.28032
11
0.461625
21
1.2825
0
LINE
8
BLACK
6
CONTINUOUS
10
0.461625
20
1.2825
11
0.47
21
1.28323
0
LINE
8
BLACK
6
CONTINUOUS
10
0.47
20
1.28323
11
0.478375
21
1.2825
0
LINE
8
BLACK
6
CONTINUOUS
10
2.21301
20
1.29727
11
2.21557
21
1.29557
0
LINE
8
BLACK
6
CONTINUOUS
10
2.21557
20
1.29557
11
2.21727
21
1.29301
0
LINE
8
BLACK
6
CONTINUOUS
10
2.21727
20
1.29301
11
2.21787
21
1.29
0
LINE
8
BLACK
6
CONTINUOUS
10
2.21787
20
1.29
11
2.21787
21
1.23
0
LINE
8
BLACK
6
CONTINUOUS
10
2.21787
20
1.23
11
2.21727
21
1.22699
0
LINE
8
BLACK
6
CONTINUOUS
10
2.21727
20
1.22699
11
2.21557
21
1.22443
0
LINE
8
BLACK
6
CONTINUOUS
10
2.21557
20
1.22443
11
2.21301
21
1.22273
0
LINE
8
BLACK
6
CONTINUOUS
10
2.21301
20
1.22273
11
2.21
21
1.22213
0
LINE
8
BLACK
6
CONTINUOUS
10
2.21
20
1.22213
11
2.15
21
1.22213
0
LINE
8
BLACK
6
CONTINUOUS
10
2.15
20
1.22213
11
2.14699
21
1.22273
0
LINE
8
BLACK
6
CONTINUOUS
10
2.14699
20
1.22273
11
2.14443
21
1.22443
0
LINE
8
BLACK
6
CONTINUOUS
10
2.14443
20
1.22443
11
2.14273
21
1.22699
0
LINE
8
BLACK
6
CONTINUOUS
10
2.14273
20
1.22699
11
2.14213
21
1.23
0
LINE
8
BLACK
6
CONTINUOUS
10
2.14213
20
1.23
11
2.14213
21
1.29
0
LINE
8
BLACK
6
CONTINUOUS
10
2.14213
20
1.29
11
2.14273
21
1.29301
0
LINE
8
BLACK
6
CONTINUOUS
10
2.14273
20
1.29301
11
2.14443
21
1.29557
0
LINE
8
BLACK
6
CONTINUOUS
10
2.14443
20
1.29557
11
2.14699
21
1.29727
0
LINE
8
BLACK
6
CONTINUOUS
10
2.14699
20
1.29727
11
2.15
21
1.29787
0
LINE
8
BLACK
6
CONTINUOUS
10
2.15
20
1.29787
11
2.21
21
1.29787
0
LINE
8
BLACK
6
CONTINUOUS
10
2.21
20
1.29787
11
2.21301
21
1.29727
0
LINE
8
BLACK
6
CONTINUOUS
10
2.31301
20
1.29727
11
2.31557
21
1.29557
0
LINE
8
BLACK
6
CONTINUOUS
10
2.31557
20
1.29557
11
2.31727
21
1.29301
0
LINE
8
BLACK
6
CONTINUOUS
10
2.31727
20
1.29301
11
2.31787
21
1.29
0
LINE
8
BLACK
6
CONTINUOUS
10
2.31787
20
1.29
11
2.31787
21
1.23
0
LINE
8
BLACK
6
CONTINUOUS
10
2.31787
20
1.23
11
2.31727
21
1.22699
0
LINE
8
BLACK
6
CONTINUOUS
10
2.31727
20
1.22699
11
2.31557
21
1.22443
0
LINE
8
BLACK
6
CONTINUOUS
10
2.31557
20
1.22443
11
2.31301
21
1.22273
0
LINE
8
BLACK
6
CONTINUOUS
10
2.31301
20
1.22273
11
2.31
21
1.22213
0
LINE
8
BLACK
6
CONTINUOUS
10
2.31
20
1.22213
11
2.25
21
1.22213
0
LINE
8
BLACK
6
CONTINUOUS
10
2.25
20
1.22213
11
2.24699
21
1.22273
0
LINE
8
BLACK
6
CONTINUOUS
10
2.24699
20
1.22273
11
2.24443
21
1.22443
0
LINE
8
BLACK
6
CONTINUOUS
10
2.24443
20
1.22443
11
2.24273
21
1.22699
0
LINE
8
BLACK
6
CONTINUOUS
10
2.24273
20
1.22699
11
2.24213
21
1.23
0
LINE
8
BLACK
6
CONTINUOUS
10
2.24213
20
1.23
11
2.24213
21
1.29
0
LINE
8
BLACK
6
CONTINUOUS
10
2.24213
20
1.29
11
2.24273
21
1.29301
0
LINE
8
BLACK
6
CONTINUOUS
10
2.24273
20
1.29301
11
2.24443
21
1.29557
0
LINE
8
BLACK
6
CONTINUOUS
10
2.24443
20
1.29557
11
2.24699
21
1.29727
0
LINE
8
BLACK
6
CONTINUOUS
10
2.24699
20
1.29727
11
2.25
21
1.29787
0
LINE
8
BLACK
6
CONTINUOUS
10
2.25
20
1.29787
11
2.31
21
1.29787
0
LINE
8
BLACK
6
CONTINUOUS
10
2.31
20
1.29787
11
2.31301
21
1.29727
0
LINE
8
BLACK
6
CONTINUOUS
10
1.48301
20
1.30727
11
1.48557
21
1.30557
0
LINE
8
BLACK
6
CONTINUOUS
10
1.48557
20
1.30557
11
1.48727
21
1.30301
0
LINE
8
BLACK
6
CONTINUOUS
10
1.48727
20
1.30301
11
1.48787
21
1.3
0
LINE
8
BLACK
6
CONTINUOUS
10
1.48787
20
1.3
11
1.48787
21
1.24
0
LINE
8
BLACK
6
CONTINUOUS
10
1.48787
20
1.24
11
1.48727
21
1.23699
0
LINE
8
BLACK
6
CONTINUOUS
10
1.48727
20
1.23699
11
1.48557
21
1.23443
0
LINE
8
BLACK
6
CONTINUOUS
10
1.48557
20
1.23443
11
1.48301
21
1.23273
0
LINE
8
BLACK
6
CONTINUOUS
10
1.48301
20
1.23273
11
1.48
21
1.23213
0
LINE
8
BLACK
6
CONTINUOUS
10
1.48
20
1.23213
11
1.42
21
1.23213
0
LINE
8
BLACK
6
CONTINUOUS
10
1.42
20
1.23213
11
1.41699
21
1.23273
0
LINE
8
BLACK
6
CONTINUOUS
10
1.41699
20
1.23273
11
1.41443
21
1.23443
0
LINE
8
BLACK
6
CONTINUOUS
10
1.41443
20
1.23443
11
1.41273
21
1.23699
0
LINE
8
BLACK
6
CONTINUOUS
10
1.41273
20
1.23699
11
1.41213
21
1.24
0
LINE
8
BLACK
6
CONTINUOUS
10
1.41213
20
1.24
11
1.41213
21
1.3
0
LINE
8
BLACK
6
CONTINUOUS
10
1.41213
20
1.3
11
1.41273
21
1.30301
0
LINE
8
BLACK
6
CONTINUOUS
10
1.41273
20
1.30301
11
1.41443
21
1.30557
0
LINE
8
BLACK
6
CONTINUOUS
10
1.41443
20
1.30557
11
1.41699
21
1.30727
0
LINE
8
BLACK
6
CONTINUOUS
10
1.41699
20
1.30727
11
1.42
21
1.30787
0
LINE
8
BLACK
6
CONTINUOUS
10
1.42
20
1.30787
11
1.48
21
1.30787
0
LINE
8
BLACK
6
CONTINUOUS
10
1.48
20
1.30787
11
1.48301
21
1.30727
0
LINE
8
BLACK
6
CONTINUOUS
10
1.58301
20
1.30727
11
1.58557
21
1.30557
0
LINE
8
BLACK
6
CONTINUOUS
10
1.58557
20
1.30557
11
1.58727
21
1.30301
0
LINE
8
BLACK
6
CONTINUOUS
10
1.58727
20
1.30301
11
1.58787
21
1.3
0
LINE
8
BLACK
6
CONTINUOUS
10
1.58787
20
1.3
11
1.58787
21
1.24
0
LINE
8
BLACK
6
CONTINUOUS
10
1.58787
20
1.24
11
1.58727
21
1.23699
0
LINE
8
BLACK
6
CONTINUOUS
10
1.58727
20
1.23699
11
1.58557
21
1.23443
0
LINE
8
BLACK
6
CONTINUOUS
10
1.58557
20
1.23443
11
1.58301
21
1.23273
0
LINE
8
BLACK
6
CONTINUOUS
10
1.58301
20
1.23273
11
1.58
21
1.23213
0
LINE
8
BLACK
6
CONTINUOUS
10
1.58
20
1.23213
11
1.52
21
1.23213
0
LINE
8
BLACK
6
CONTINUOUS
10
1.52
20
1.23213
11
1.51699
21
1.23273
0
LINE
8
BLACK
6
CONTINUOUS
10
1.51699
20
1.23273
11
1.51443
21
1.23443
0
LINE
8
BLACK
6
CONTINUOUS
10
1.51443
20
1.23443
11
1.51273
21
1.23699
0
LINE
8
BLACK
6
CONTINUOUS
10
1.51273
20
1.23699
11
1.51213
21
1.24
0
LINE
8
BLACK
6
CONTINUOUS
10
1.51213
20
1.24
11
1.51213
21
1.3
0
LINE
8
BLACK
6
CONTINUOUS
10
1.51213
20
1.3
11
1.51273
21
1.30301
0
LINE
8
BLACK
6
CONTINUOUS
10
1.51273
20
1.30301
11
1.51443
21
1.30557
0
LINE
8
BLACK
6
CONTINUOUS
10
1.51443
20
1.30557
11
1.51699
21
1.30727
0
LINE
8
BLACK
6
CONTINUOUS
10
1.51699
20
1.30727
11
1.52
21
1.30787
0
LINE
8
BLACK
6
CONTINUOUS
10
1.52
20
1.30787
11
1.58
21
1.30787
0
LINE
8
BLACK
6
CONTINUOUS
10
1.58
20
1.30787
11
1.58301
21
1.30727
0
LINE
8
BLACK
6
CONTINUOUS
10
0.379058
20
1.38637
11
0.387842
21
1.38402
0
LINE
8
BLACK
6
CONTINUOUS
10
0.387842
20
1.38402
11
0.396083
21
1.38018
0
LINE
8
BLACK
6
CONTINUOUS
10
0.396083
20
1.38018
11
0.403531
21
1.37496
0
LINE
8
BLACK
6
CONTINUOUS
10
0.403531
20
1.37496
11
0.409961
21
1.36853
0
LINE
8
BLACK
6
CONTINUOUS
10
0.409961
20
1.36853
11
0.415177
21
1.36108
0
LINE
8
BLACK
6
CONTINUOUS
10
0.415177
20
1.36108
11
0.419019
21
1.35284
0
LINE
8
BLACK
6
CONTINUOUS
10
0.419019
20
1.35284
11
0.421373
21
1.34406
0
LINE
8
BLACK
6
CONTINUOUS
10
0.421373
20
1.34406
11
0.422165
21
1.335
0
LINE
8
BLACK
6
CONTINUOUS
10
0.422165
20
1.335
11
0.421373
21
1.32594
0
LINE
8
BLACK
6
CONTINUOUS
10
0.421373
20
1.32594
11
0.419019
21
1.31716
0
LINE
8
BLACK
6
CONTINUOUS
10
0.419019
20
1.31716
11
0.415177
21
1.30892
0
LINE
8
BLACK
6
CONTINUOUS
10
0.415177
20
1.30892
11
0.409961
21
1.30147
0
LINE
8
BLACK
6
CONTINUOUS
10
0.409961
20
1.30147
11
0.403531
21
1.29504
0
LINE
8
BLACK
6
CONTINUOUS
10
0.403531
20
1.29504
11
0.396083
21
1.28982
0
LINE
8
BLACK
6
CONTINUOUS
10
0.396083
20
1.28982
11
0.387842
21
1.28598
0
LINE
8
BLACK
6
CONTINUOUS
10
0.387842
20
1.28598
11
0.379058
21
1.28363
0
LINE
8
BLACK
6
CONTINUOUS
10
0.379058
20
1.28363
11
0.37
21
1.28283
0
LINE
8
BLACK
6
CONTINUOUS
10
0.37
20
1.28283
11
0.360942
21
1.28363
0
LINE
8
BLACK
6
CONTINUOUS
10
0.360942
20
1.28363
11
0.352158
21
1.28598
0
LINE
8
BLACK
6
CONTINUOUS
10
0.352158
20
1.28598
11
0.343917
21
1.28982
0
LINE
8
BLACK
6
CONTINUOUS
10
0.343917
20
1.28982
11
0.336469
21
1.29504
0
LINE
8
BLACK
6
CONTINUOUS
10
0.336469
20
1.29504
11
0.330039
21
1.30147
0
LINE
8
BLACK
6
CONTINUOUS
10
0.330039
20
1.30147
11
0.324823
21
1.30892
0
LINE
8
BLACK
6
CONTINUOUS
10
0.324823
20
1.30892
11
0.320981
21
1.31716
0
LINE
8
BLACK
6
CONTINUOUS
10
0.320981
20
1.31716
11
0.318627
21
1.32594
0
LINE
8
BLACK
6
CONTINUOUS
10
0.318627
20
1.32594
11
0.317835
21
1.335
0
LINE
8
BLACK
6
CONTINUOUS
10
0.317835
20
1.335
11
0.318627
21
1.34406
0
LINE
8
BLACK
6
CONTINUOUS
10
0.318627
20
1.34406
11
0.320981
21
1.35284
0
LINE
8
BLACK
6
CONTINUOUS
10
0.320981
20
1.35284
11
0.324823
21
1.36108
0
LINE
8
BLACK
6
CONTINUOUS
10
0.324823
20
1.36108
11
0.330039
21
1.36853
0
LINE
8
BLACK
6
CONTINUOUS
10
0.330039
20
1.36853
11
0.336469
21
1.37496
0
LINE
8
BLACK
6
CONTINUOUS
10
0.336469
20
1.37496
11
0.343917
21
1.38018
0
LINE
8
BLACK
6
CONTINUOUS
10
0.343917
20
1.38018
11
0.352158
21
1.38402
0
LINE
8
BLACK
6
CONTINUOUS
10
0.352158
20
1.38402
11
0.360942
21
1.38637
0
LINE
8
BLACK
6
CONTINUOUS
10
0.360942
20
1.38637
11
0.37
21
1.38717
0
LINE
8
BLACK
6
CONTINUOUS
10
0.37
20
1.38717
11
0.379058
21
1.38637
0
LINE
8
BLACK
6
CONTINUOUS
10
0.579058
20
1.38637
11
0.587842
21
1.38402
0
LINE
8
BLACK
6
CONTINUOUS
10
0.587842
20
1.38402
11
0.596083
21
1.38018
0
LINE
8
BLACK
6
CONTINUOUS
10
0.596083
20
1.38018
11
0.603531
21
1.37496
0
LINE
8
BLACK
6
CONTINUOUS
10
0.603531
20
1.37496
11
0.609961
21
1.36853
0
LINE
8
BLACK
6
CONTINUOUS
10
0.609961
20
1.36853
11
0.615177
21
1.36108
0
LINE
8
BLACK
6
CONTINUOUS
10
0.615177
20
1.36108
11
0.619019
21
1.35284
0
LINE
8
BLACK
6
CONTINUOUS
10
0.619019
20
1.35284
11
0.621373
21
1.34406
0
LINE
8
BLACK
6
CONTINUOUS
10
0.621373
20
1.34406
11
0.622165
21
1.335
0
LINE
8
BLACK
6
CONTINUOUS
10
0.622165
20
1.335
11
0.621373
21
1.32594
0
LINE
8
BLACK
6
CONTINUOUS
10
0.621373
20
1.32594
11
0.619019
21
1.31716
0
LINE
8
BLACK
6
CONTINUOUS
10
0.619019
20
1.31716
11
0.615177
21
1.30892
0
LINE
8
BLACK
6
CONTINUOUS
10
0.615177
20
1.30892
11
0.609961
21
1.30147
0
LINE
8
BLACK
6
CONTINUOUS
10
0.609961
20
1.30147
11
0.603531
21
1.29504
0
LINE
8
BLACK
6
CONTINUOUS
10
0.603531
20
1.29504
11
0.596083
21
1.28982
0
LINE
8
BLACK
6
CONTINUOUS
10
0.596083
20
1.28982
11
0.587842
21
1.28598
0
LINE
8
BLACK
6
CONTINUOUS
10
0.587842
20
1.28598
11
0.579058
21
1.28363
0
LINE
8
BLACK
6
CONTINUOUS
10
0.579058
20
1.28363
11
0.57
21
1.28283
0
LINE
8
BLACK
6
CONTINUOUS
10
0.57
20
1.28283
11
0.560942
21
1.28363
0
LINE
8
BLACK
6
CONTINUOUS
10
0.560942
20
1.28363
11
0.552158
21
1.28598
0
LINE
8
BLACK
6
CONTINUOUS
10
0.552158
20
1.28598
11
0.543917
21
1.28982
0
LINE
8
BLACK
6
CONTINUOUS
10
0.543917
20
1.28982
11
0.536469
21
1.29504
0
LINE
8
BLACK
6
CONTINUOUS
10
0.536469
20
1.29504
11
0.530039
21
1.30147
0
LINE
8
BLACK
6
CONTINUOUS
10
0.530039
20
1.30147
11
0.524823
21
1.30892
0
LINE
8
BLACK
6
CONTINUOUS
10
0.524823
20
1.30892
11
0.520981
21
1.31716
0
LINE
8
BLACK
6
CONTINUOUS
10
0.520981
20
1.31716
11
0.518627
21
1.32594
0
LINE
8
BLACK
6
CONTINUOUS
10
0.518627
20
1.32594
11
0.517835
21
1.335
0
LINE
8
BLACK
6
CONTINUOUS
10
0.517835
20
1.335
11
0.518627
21
1.34406
0
LINE
8
BLACK
6
CONTINUOUS
10
0.518627
20
1.34406
11
0.520981
21
1.35284
0
LINE
8
BLACK
6
CONTINUOUS
10
0.520981
20
1.35284
11
0.524823
21
1.36108
0
LINE
8
BLACK
6
CONTINUOUS
10
0.524823
20
1.36108
11
0.530039
21
1.36853
0
LINE
8
BLACK
6
CONTINUOUS
10
0.530039
20
1.36853
11
0.536469
21
1.37496
0
LINE
8
BLACK
6
CONTINUOUS
10
0.536469
20
1.37496
11
0.543917
21
1.38018
0
LINE
8
BLACK
6
CONTINUOUS
10
0.543917
20
1.38018
11
0.552158
21
1.38402
0
LINE
8
BLACK
6
CONTINUOUS
10
0.552158
20
1.38402
11
0.560942
21
1.38637
0
LINE
8
BLACK
6
CONTINUOUS
10
0.560942
20
1.38637
11
0.57
21
1.38717
0
LINE
8
BLACK
6
CONTINUOUS
10
0.57
20
1.38717
11
0.579058
21
1.38637
0
LINE
8
BLACK
6
CONTINUOUS
10
2.21301
20
1.39727
11
2.21557
21
1.39557
0
LINE
8
BLACK
6
CONTINUOUS
10
2.21557
20
1.39557
11
2.21727
21
1.39301
0
LINE
8
BLACK
6
CONTINUOUS
10
2.21727
20
1.39301
11
2.21787
21
1.39
0
LINE
8
BLACK
6
CONTINUOUS
10
2.21787
20
1.39
11
2.21787
21
1.33
0
LINE
8
BLACK
6
CONTINUOUS
10
2.21787
20
1.33
11
2.21727
21
1.32699
0
LINE
8
BLACK
6
CONTINUOUS
10
2.21727
20
1.32699
11
2.21557
21
1.32443
0
LINE
8
BLACK
6
CONTINUOUS
10
2.21557
20
1.32443
11
2.21301
21
1.32273
0
LINE
8
BLACK
6
CONTINUOUS
10
2.21301
20
1.32273
11
2.21
21
1.32213
0
LINE
8
BLACK
6
CONTINUOUS
10
2.21
20
1.32213
11
2.15
21
1.32213
0
LINE
8
BLACK
6
CONTINUOUS
10
2.15
20
1.32213
11
2.14699
21
1.32273
0
LINE
8
BLACK
6
CONTINUOUS
10
2.14699
20
1.32273
11
2.14443
21
1.32443
0
LINE
8
BLACK
6
CONTINUOUS
10
2.14443
20
1.32443
11
2.14273
21
1.32699
0
LINE
8
BLACK
6
CONTINUOUS
10
2.14273
20
1.32699
11
2.14213
21
1.33
0
LINE
8
BLACK
6
CONTINUOUS
10
2.14213
20
1.33
11
2.14213
21
1.39
0
LINE
8
BLACK
6
CONTINUOUS
10
2.14213
20
1.39
11
2.14273
21
1.39301
0
LINE
8
BLACK
6
CONTINUOUS
10
2.14273
20
1.39301
11
2.14443
21
1.39557
0
LINE
8
BLACK
6
CONTINUOUS
10
2.14443
20
1.39557
11
2.14699
21
1.39727
0
LINE
8
BLACK
6
CONTINUOUS
10
2.14699
20
1.39727
11
2.15
21
1.39787
0
LINE
8
BLACK
6
CONTINUOUS
10
2.15
20
1.39787
11
2.21
21
1.39787
0
LINE
8
BLACK
6
CONTINUOUS
10
2.21
20
1.39787
11
2.21301
21
1.39727
0
LINE
8
BLACK
6
CONTINUOUS
10
2.31301
20
1.39727
11
2.31557
21
1.39557
0
LINE
8
BLACK
6
CONTINUOUS
10
2.31557
20
1.39557
11
2.31727
21
1.39301
0
LINE
8
BLACK
6
CONTINUOUS
10
2.31727
20
1.39301
11
2.31787
21
1.39
0
LINE
8
BLACK
6
CONTINUOUS
10
2.31787
20
1.39
11
2.31787
21
1.33
0
LINE
8
BLACK
6
CONTINUOUS
10
2.31787
20
1.33
11
2.31727
21
1.32699
0
LINE
8
BLACK
6
CONTINUOUS
10
2.31727
20
1.32699
11
2.31557
21
1.32443
0
LINE
8
BLACK
6
CONTINUOUS
10
2.31557
20
1.32443
11
2.31301
21
1.32273
0
LINE
8
BLACK
6
CONTINUOUS
10
2.31301
20
1.32273
11
2.31
21
1.32213
0
LINE
8
BLACK
6
CONTINUOUS
10
2.31
20
1.32213
11
2.25
21
1.32213
0
LINE
8
BLACK
6
CONTINUOUS
10
2.25
20
1.32213
11
2.24699
21
1.32273
0
LINE
8
BLACK
6
CONTINUOUS
10
2.24699
20
1.32273
11
2.24443
21
1.32443
0
LINE
8
BLACK
6
CONTINUOUS
10
2.24443
20
1.32443
11
2.24273
21
1.32699
0
LINE
8
BLACK
6
CONTINUOUS
10
2.24273
20
1.32699
11
2.24213
21
1.33
0
LINE
8
BLACK
6
CONTINUOUS
10
2.24213
20
1.33
11
2.24213
21
1.39
0
LINE
8
BLACK
6
CONTINUOUS
10
2.24213
20
1.39
11
2.24273
21
1.39301
0
LINE
8
BLACK
6
CONTINUOUS
10
2.24273
20
1.39301
11
2.24443
21
1.39557
0
LINE
8
BLACK
6
CONTINUOUS
10
2.24443
20
1.39557
11
2.24699
21
1.39727
0
LINE
8
BLACK
6
CONTINUOUS
10
2.24699
20
1.39727
11
2.25
21
1.39787
0
LINE
8
BLACK
6
CONTINUOUS
10
2.25
20
1.39787
11
2.31
21
1.39787
0
LINE
8
BLACK
6
CONTINUOUS
10
2.31
20
1.39787
11
2.31301
21
1.39727
0
LINE
8
BLACK
6
CONTINUOUS
10
0.414106
20
1.72519
11
0.428034
21
1.72283
0
LINE
8
BLACK
6
CONTINUOUS
10
0.428034
20
1.72283
11
0.44161
21
1.71891
0
LINE
8
BLACK
6
CONTINUOUS
10
0.44161
20
1.71891
11
0.454663
21
1.71351
0
LINE
8
BLACK
6
CONTINUOUS
10
0.454663
20
1.71351
11
0.467028
21
1.70667
0
LINE
8
BLACK
6
CONTINUOUS
10
0.467028
20
1.70667
11
0.47855
21
1.6985
0
LINE
8
BLACK
6
CONTINUOUS
10
0.47855
20
1.6985
11
0.489084
21
1.68908
0
LINE
8
BLACK
6
CONTINUOUS
10
0.489084
20
1.68908
11
0.498498
21
1.67855
0
LINE
8
BLACK
6
CONTINUOUS
10
0.498498
20
1.67855
11
0.506674
21
1.66703
0
LINE
8
BLACK
6
CONTINUOUS
10
0.506674
20
1.66703
11
0.513508
21
1.65466
0
LINE
8
BLACK
6
CONTINUOUS
10
0.513508
20
1.65466
11
0.518914
21
1.64161
0
LINE
8
BLACK
6
CONTINUOUS
10
0.518914
20
1.64161
11
0.522826
21
1.62803
0
LINE
8
BLACK
6
CONTINUOUS
10
0.522826
20
1.62803
11
0.525192
21
1.61411
0
LINE
8
BLACK
6
CONTINUOUS
10
0.525192
20
1.61411
11
0.525984
21
1.6
0
LINE
8
BLACK
6
CONTINUOUS
10
0.525984
20
1.6
11
0.525192
21
1.58589
0
LINE
8
BLACK
6
CONTINUOUS
10
0.525192
20
1.58589
11
0.522826
21
1.57197
0
LINE
8
BLACK
6
CONTINUOUS
10
0.522826
20
1.57197
11
0.518914
21
1.55839
0
LINE
8
BLACK
6
CONTINUOUS
10
0.518914
20
1.55839
11
0.513508
21
1.54534
0
LINE
8
BLACK
6
CONTINUOUS
10
0.513508
20
1.54534
11
0.506674
21
1.53297
0
LINE
8
BLACK
6
CONTINUOUS
10
0.506674
20
1.53297
11
0.498498
21
1.52145
0
LINE
8
BLACK
6
CONTINUOUS
10
0.498498
20
1.52145
11
0.489084
21
1.51092
0
LINE
8
BLACK
6
CONTINUOUS
10
0.489084
20
1.51092
11
0.47855
21
1.5015
0
LINE
8
BLACK
6
CONTINUOUS
10
0.47855
20
1.5015
11
0.467028
21
1.49333
0
LINE
8
BLACK
6
CONTINUOUS
10
0.467028
20
1.49333
11
0.454663
21
1.48649
0
LINE
8
BLACK
6
CONTINUOUS
10
0.454663
20
1.48649
11
0.44161
21
1.48109
0
LINE
8
BLACK
6
CONTINUOUS
10
0.44161
20
1.48109
11
0.428034
21
1.47717
0
LINE
8
BLACK
6
CONTINUOUS
10
0.428034
20
1.47717
11
0.414106
21
1.47481
0
LINE
8
BLACK
6
CONTINUOUS
10
0.414106
20
1.47481
11
0.4
21
1.47402
0
LINE
8
BLACK
6
CONTINUOUS
10
0.4
20
1.47402
11
0.385894
21
1.47481
0
LINE
8
BLACK
6
CONTINUOUS
10
0.385894
20
1.47481
11
0.371966
21
1.47717
0
LINE
8
BLACK
6
CONTINUOUS
10
0.371966
20
1.47717
11
0.35839
21
1.48109
0
LINE
8
BLACK
6
CONTINUOUS
10
0.35839
20
1.48109
11
0.345337
21
1.48649
0
LINE
8
BLACK
6
CONTINUOUS
10
0.345337
20
1.48649
11
0.332972
21
1.49333
0
LINE
8
BLACK
6
CONTINUOUS
10
0.332972
20
1.49333
11
0.32145
21
1.5015
0
LINE
8
BLACK
6
CONTINUOUS
10
0.32145
20
1.5015
11
0.310916
21
1.51092
0
LINE
8
BLACK
6
CONTINUOUS
10
0.310916
20
1.51092
11
0.301502
21
1.52145
0
LINE
8
BLACK
6
CONTINUOUS
10
0.301502
20
1.52145
11
0.293326
21
1.53297
0
LINE
8
BLACK
6
CONTINUOUS
10
0.293326
20
1.53297
11
0.286492
21
1.54534
0
LINE
8
BLACK
6
CONTINUOUS
10
0.286492
20
1.54534
11
0.281086
21
1.55839
0
LINE
8
BLACK
6
CONTINUOUS
10
0.281086
20
1.55839
11
0.277174
21
1.57197
0
LINE
8
BLACK
6
CONTINUOUS
10
0.277174
20
1.57197
11
0.274808
21
1.58589
0
LINE
8
BLACK
6
CONTINUOUS
10
0.274808
20
1.58589
11
0.274016
21
1.6
0
LINE
8
BLACK
6
CONTINUOUS
10
0.274016
20
1.6
11
0.274808
21
1.61411
0
LINE
8
BLACK
6
CONTINUOUS
10
0.274808
20
1.61411
11
0.277174
21
1.62803
0
LINE
8
BLACK
6
CONTINUOUS
10
0.277174
20
1.62803
11
0.281086
21
1.64161
0
LINE
8
BLACK
6
CONTINUOUS
10
0.281086
20
1.64161
11
0.286492
21
1.65466
0
LINE
8
BLACK
6
CONTINUOUS
10
0.286492
20
1.65466
11
0.293326
21
1.66703
0
LINE
8
BLACK
6
CONTINUOUS
10
0.293326
20
1.66703
11
0.301502
21
1.67855
0
LINE
8
BLACK
6
CONTINUOUS
10
0.301502
20
1.67855
11
0.310916
21
1.68908
0
LINE
8
BLACK
6
CONTINUOUS
10
0.310916
20
1.68908
11
0.32145
21
1.6985
0
LINE
8
BLACK
6
CONTINUOUS
10
0.32145
20
1.6985
11
0.332972
21
1.70667
0
LINE
8
BLACK
6
CONTINUOUS
10
0.332972
20
1.70667
11
0.345337
21
1.71351
0
LINE
8
BLACK
6
CONTINUOUS
10
0.345337
20
1.71351
11
0.35839
21
1.71891
0
LINE
8
BLACK
6
CONTINUOUS
10
0.35839
20
1.71891
11
0.371966
21
1.72283
0
LINE
8
BLACK
6
CONTINUOUS
10
0.371966
20
1.72283
11
0.385894
21
1.72519
0
LINE
8
BLACK
6
CONTINUOUS
10
0.385894
20
1.72519
11
0.4
21
1.72598
0
LINE
8
BLACK
6
CONTINUOUS
10
0.4
20
1.72598
11
0.414106
21
1.72519
0
LINE
8
BLACK
6
CONTINUOUS
10
2.41411
20
1.72519
11
2.42803
21
1.72283
0
LINE
8
BLACK
6
CONTINUOUS
10
2.42803
20
1.72283
11
2.44161
21
1.71891
0
LINE
8
BLACK
6
CONTINUOUS
10
2.44161
20
1.71891
11
2.45466
21
1.71351
0
LINE
8
BLACK
6
CONTINUOUS
10
2.45466
20
1.71351
11
2.46703
21
1.70667
0
LINE
8
BLACK
6
CONTINUOUS
10
2.46703
20
1.70667
11
2.47855
21
1.6985
0
LINE
8
BLACK
6
CONTINUOUS
10
2.47855
20
1.6985
11
2.48908
21
1.68908
0
LINE
8
BLACK
6
CONTINUOUS
10
2.48908
20
1.68908
11
2.4985
21
1.67855
0
LINE
8
BLACK
6
CONTINUOUS
10
2.4985
20
1.67855
11
2.50667
21
1.66703
0
LINE
8
BLACK
6
CONTINUOUS
10
2.50667
20
1.66703
11
2.51351
21
1.65466
0
LINE
8
BLACK
6
CONTINUOUS
10
2.51351
20
1.65466
11
2.51891
21
1.64161
0
LINE
8
BLACK
6
CONTINUOUS
10
2.51891
20
1.64161
11
2.52283
21
1.62803
0
LINE
8
BLACK
6
CONTINUOUS
10
2.52283
20
1.62803
11
2.52519
21
1.61411
0
LINE
8
BLACK
6
CONTINUOUS
10
2.52519
20
1.61411
11
2.52598
21
1.6
0
LINE
8
BLACK
6
CONTINUOUS
10
2.52598
20
1.6
11
2.52519
21
1.58589
0
LINE
8
BLACK
6
CONTINUOUS
10
2.52519
20
1.58589
11
2.52283
21
1.57197
0
LINE
8
BLACK
6
CONTINUOUS
10
2.52283
20
1.57197
11
2.51891
21
1.55839
0
LINE
8
BLACK
6
CONTINUOUS
10
2.51891
20
1.55839
11
2.51351
21
1.54534
0
LINE
8
BLACK
6
CONTINUOUS
10
2.51351
20
1.54534
11
2.50667
21
1.53297
0
LINE
8
BLACK
6
CONTINUOUS
10
2.50667
20
1.53297
11
2.4985
21
1.52145
0
LINE
8
BLACK
6
CONTINUOUS
10
2.4985
20
1.52145
11
2.48908
21
1.51092
0
LINE
8
BLACK
6
CONTINUOUS
10
2.48908
20
1.51092
11
2.47855
21
1.5015
0
LINE
8
BLACK
6
CONTINUOUS
10
2.47855
20
1.5015
11
2.46703
21
1.49333
0
LINE
8
BLACK
6
CONTINUOUS
10
2.46703
20
1.49333
11
2.45466
21
1.48649
0
LINE
8
BLACK
6
CONTINUOUS
10
2.45466
20
1.48649
11
2.44161
21
1.48109
0
LINE
8
BLACK
6
CONTINUOUS
10
2.44161
20
1.48109
11
2.42803
21
1.47717
0
LINE
8
BLACK
6
CONTINUOUS
10
2.42803
20
1.47717
11
2.41411
21
1.47481
0
LINE
8
BLACK
6
CONTINUOUS
10
2.41411
20
1.47481
11
2.4
21
1.47402
0
LINE
8
BLACK
6
CONTINUOUS
10
2.4
20
1.47402
11
2.38589
21
1.47481
0
LINE
8
BLACK
6
CONTINUOUS
10
2.38589
20
1.47481
11
2.37197
21
1.47717
0
LINE
8
BLACK
6
CONTINUOUS
10
2.37197
20
1.47717
11
2.35839
21
1.48109
0
LINE
8
BLACK
6
CONTINUOUS
10
2.35839
20
1.48109
11
2.34534
21
1.48649
0
LINE
8
BLACK
6
CONTINUOUS
10
2.34534
20
1.48649
11
2.33297
21
1.49333
0
LINE
8
BLACK
6
CONTINUOUS
10
2.33297
20
1.49333
11
2.32145
21
1.5015
0
LINE
8
BLACK
6
CONTINUOUS
10
2.32145
20
1.5015
11
2.31092
21
1.51092
0
LINE
8
BLACK
6
CONTINUOUS
10
2.31092
20
1.51092
11
2.3015
21
1.52145
0
LINE
8
BLACK
6
CONTINUOUS
10
2.3015
20
1.52145
11
2.29333
21
1.53297
0
LINE
8
BLACK
6
CONTINUOUS
10
2.29333
20
1.53297
11
2.28649
21
1.54534
0
LINE
8
BLACK
6
CONTINUOUS
10
2.28649
20
1.54534
11
2.28109
21
1.55839
0
LINE
8
BLACK
6
CONTINUOUS
10
2.28109
20
1.55839
11
2.27717
21
1.57197
0
LINE
8
BLACK
6
CONTINUOUS
10
2.27717
20
1.57197
11
2.27481
21
1.58589
0
LINE
8
BLACK
6
CONTINUOUS
10
2.27481
20
1.58589
11
2.27402
21
1.6
0
LINE
8
BLACK
6
CONTINUOUS
10
2.27402
20
1.6
11
2.27481
21
1.61411
0
LINE
8
BLACK
6
CONTINUOUS
10
2.27481
20
1.61411
11
2.27717
21
1.62803
0
LINE
8
BLACK
6
CONTINUOUS
10
2.27717
20
1.62803
11
2.28109
21
1.64161
0
LINE
8
BLACK
6
CONTINUOUS
10
2.28109
20
1.64161
11
2.28649
21
1.65466
0
LINE
8
BLACK
6
CONTINUOUS
10
2.28649
20
1.65466
11
2.29333
21
1.66703
0
LINE
8
BLACK
6
CONTINUOUS
10
2.29333
20
1.66703
11
2.3015
21
1.67855
0
LINE
8
BLACK
6
CONTINUOUS
10
2.3015
20
1.67855
11
2.31092
21
1.68908
0
LINE
8
BLACK
6
CONTINUOUS
10
2.31092
20
1.68908
11
2.32145
21
1.6985
0
LINE
8
BLACK
6
CONTINUOUS
10
2.32145
20
1.6985
11
2.33297
21
1.70667
0
LINE
8
BLACK
6
CONTINUOUS
10
2.33297
20
1.70667
11
2.34534
21
1.71351
0
LINE
8
BLACK
6
CONTINUOUS
10
2.34534
20
1.71351
11
2.35839
21
1.71891
0
LINE
8
BLACK
6
CONTINUOUS
10
2.35839
20
1.71891
11
2.37197
21
1.72283
0
LINE
8
BLACK
6
CONTINUOUS
10
2.37197
20
1.72283
11
2.38589
21
1.72519
0
LINE
8
BLACK
6
CONTINUOUS
10
2.38589
20
1.72519
11
2.4
21
1.72598
0
LINE
8
BLACK
6
CONTINUOUS
10
2.4
20
1.72598
11
2.41411
21
1.72519
  0
ENDSEC
  0
EOF
