  0
SECTION
  2
HEADER
  9
$ANGBASE
  50
0.0
  9
$ANGDIR
  70
1
  9
$MEASUREMENT
  70
0
  0
ENDSEC
  0
SECTION
  2
TABLES
  0
TABLE
  2
LTYPE
  70
4
  0
LTYPE
  5
40F
  2
CONTINUOUS
  70
0
  3
Solid line
  72
65
  73
0
  40
0.0
  0
LTYPE
  5
410
  2
DASHDOT
 70
0
  3
Dash Dot ____ _ ____ _
 72
65
 73
4
 40
2.0
 49
1.25
 49
-0.25
 49
0.25
 49
-0.25
  0
LTYPE
  5
411
  2
DASHED
 70
0
  3
Dashed __ __ __ __ __
 72
65
 73
2
 40
0.75
 49
0.5
 49
-0.25
  0
LTYPE
  5
43B
  2
DOTTED
 70
0
  3
Dotted .  .  .  .
 72
65
 73
2
 40
0.2
 49
0.0
 49
-0.2
  0
ENDTAB
  0
TABLE
  2
STYLE
  70
4
  0
STYLE
  2
KICAD
  70
0
  40
0
  41
1
  42
1
  50
0
  71
0
  3
isocp.shx
  0
STYLE
  2
KICADB
  70
0
  40
0
  41
1
  42
1
  50
0
  71
0
  3
isocp.shx
  0
STYLE
  2
KICADI
  70
0
  40
0
  41
1
  42
1
  50
15
  71
0
  3
isocp.shx
  0
STYLE
  2
KICADBI
  70
0
  40
0
  41
1
  42
1
  50
15
  71
0
  3
isocp.shx
  0
ENDTAB
  0
TABLE
  2
LAYER
  70
1
  0
LAYER
  2
BLACK
  70
0
  62
7
  6
CONTINUOUS
  0
ENDTAB
  0
ENDSEC
  0
SECTION
  2
ENTITIES
0
LINE
8
BLACK
6
CONTINUOUS
10
0.240384
20
0.772885
11
0.240513
21
0.772908
0
LINE
8
BLACK
6
CONTINUOUS
10
0.240513
20
0.772908
11
0.240626
21
0.772842
0
LINE
8
BLACK
6
CONTINUOUS
10
0.240626
20
0.772842
11
0.24101
21
0.772775
0
LINE
8
BLACK
6
CONTINUOUS
10
0.24101
20
0.772775
11
0.241598
21
0.772282
0
LINE
8
BLACK
6
CONTINUOUS
10
0.241598
20
0.772282
11
0.242262
21
0.771898
0
LINE
8
BLACK
6
CONTINUOUS
10
0.242262
20
0.771898
11
0.242353
21
0.771648
0
LINE
8
BLACK
6
CONTINUOUS
10
0.242353
20
0.771648
11
0.242557
21
0.771476
0
LINE
8
BLACK
6
CONTINUOUS
10
0.242557
20
0.771476
11
0.24269
21
0.770721
0
LINE
8
BLACK
6
CONTINUOUS
10
0.24269
20
0.770721
11
0.242953
21
0.77
0
LINE
8
BLACK
6
CONTINUOUS
10
0.242953
20
0.77
11
0.242953
21
0.67
0
LINE
8
BLACK
6
CONTINUOUS
10
0.242953
20
0.67
11
0.242953
21
0.37
0
LINE
8
BLACK
6
CONTINUOUS
10
0.242953
20
0.37
11
0.242885
21
0.369616
0
LINE
8
BLACK
6
CONTINUOUS
10
0.242885
20
0.369616
11
0.242908
21
0.369487
0
LINE
8
BLACK
6
CONTINUOUS
10
0.242908
20
0.369487
11
0.242842
21
0.369374
0
LINE
8
BLACK
6
CONTINUOUS
10
0.242842
20
0.369374
11
0.242775
21
0.36899
0
LINE
8
BLACK
6
CONTINUOUS
10
0.242775
20
0.36899
11
0.242282
21
0.368402
0
LINE
8
BLACK
6
CONTINUOUS
10
0.242282
20
0.368402
11
0.241898
21
0.367738
0
LINE
8
BLACK
6
CONTINUOUS
10
0.241898
20
0.367738
11
0.241648
21
0.367647
0
LINE
8
BLACK
6
CONTINUOUS
10
0.241648
20
0.367647
11
0.241476
21
0.367443
0
LINE
8
BLACK
6
CONTINUOUS
10
0.241476
20
0.367443
11
0.240721
21
0.36731
0
LINE
8
BLACK
6
CONTINUOUS
10
0.240721
20
0.36731
11
0.24
21
0.367047
0
LINE
8
BLACK
6
CONTINUOUS
10
0.24
20
0.367047
11
0.04
21
0.367047
0
LINE
8
BLACK
6
CONTINUOUS
10
0.04
20
0.367047
11
0.0396165
21
0.367115
0
LINE
8
BLACK
6
CONTINUOUS
10
0.0396165
20
0.367115
11
0.0394872
21
0.367092
0
LINE
8
BLACK
6
CONTINUOUS
10
0.0394872
20
0.367092
11
0.0393736
21
0.367158
0
LINE
8
BLACK
6
CONTINUOUS
10
0.0393736
20
0.367158
11
0.0389901
21
0.367225
0
LINE
8
BLACK
6
CONTINUOUS
10
0.0389901
20
0.367225
11
0.0384024
21
0.367718
0
LINE
8
BLACK
6
CONTINUOUS
10
0.0384024
20
0.367718
11
0.0377381
21
0.368102
0
LINE
8
BLACK
6
CONTINUOUS
10
0.0377381
20
0.368102
11
0.0376469
21
0.368352
0
LINE
8
BLACK
6
CONTINUOUS
10
0.0376469
20
0.368352
11
0.0374428
21
0.368524
0
LINE
8
BLACK
6
CONTINUOUS
10
0.0374428
20
0.368524
11
0.0373096
21
0.369279
0
LINE
8
BLACK
6
CONTINUOUS
10
0.0373096
20
0.369279
11
0.0370472
21
0.37
0
LINE
8
BLACK
6
CONTINUOUS
10
0.0370472
20
0.37
11
0.0370472
21
0.67
0
LINE
8
BLACK
6
CONTINUOUS
10
0.0370472
20
0.67
11
0.0370472
21
0.77
0
LINE
8
BLACK
6
CONTINUOUS
10
0.0370472
20
0.77
11
0.0371148
21
0.770384
0
LINE
8
BLACK
6
CONTINUOUS
10
0.0371148
20
0.770384
11
0.0370921
21
0.770513
0
LINE
8
BLACK
6
CONTINUOUS
10
0.0370921
20
0.770513
11
0.0371577
21
0.770626
0
LINE
8
BLACK
6
CONTINUOUS
10
0.0371577
20
0.770626
11
0.0372253
21
0.77101
0
LINE
8
BLACK
6
CONTINUOUS
10
0.0372253
20
0.77101
11
0.0377184
21
0.771598
0
LINE
8
BLACK
6
CONTINUOUS
10
0.0377184
20
0.771598
11
0.038102
21
0.772262
0
LINE
8
BLACK
6
CONTINUOUS
10
0.038102
20
0.772262
11
0.0383523
21
0.772353
0
LINE
8
BLACK
6
CONTINUOUS
10
0.0383523
20
0.772353
11
0.0385236
21
0.772557
0
LINE
8
BLACK
6
CONTINUOUS
10
0.0385236
20
0.772557
11
0.0392792
21
0.77269
0
LINE
8
BLACK
6
CONTINUOUS
10
0.0392792
20
0.77269
11
0.04
21
0.772953
0
LINE
8
BLACK
6
CONTINUOUS
10
0.04
20
0.772953
11
0.24
21
0.772953
0
LINE
8
BLACK
6
CONTINUOUS
10
0.24
20
0.772953
11
0.240384
21
0.772885
0
LINE
8
BLACK
6
CONTINUOUS
10
0.0429528
20
0.667047
11
0.0429528
21
0.372953
0
LINE
8
BLACK
6
CONTINUOUS
10
0.0429528
20
0.372953
11
0.237047
21
0.372953
0
LINE
8
BLACK
6
CONTINUOUS
10
0.237047
20
0.372953
11
0.237047
21
0.667047
0
LINE
8
BLACK
6
CONTINUOUS
10
0.237047
20
0.667047
11
0.0429528
21
0.667047
0
LINE
8
BLACK
6
CONTINUOUS
10
0.0429528
20
0.767047
11
0.0429528
21
0.672953
0
LINE
8
BLACK
6
CONTINUOUS
10
0.0429528
20
0.672953
11
0.237047
21
0.672953
0
LINE
8
BLACK
6
CONTINUOUS
10
0.237047
20
0.672953
11
0.237047
21
0.767047
0
LINE
8
BLACK
6
CONTINUOUS
10
0.237047
20
0.767047
11
0.0429528
21
0.767047
0
LINE
8
BLACK
6
CONTINUOUS
10
1.58038
20
0.752885
11
1.58051
21
0.752908
0
LINE
8
BLACK
6
CONTINUOUS
10
1.58051
20
0.752908
11
1.58063
21
0.752842
0
LINE
8
BLACK
6
CONTINUOUS
10
1.58063
20
0.752842
11
1.58101
21
0.752775
0
LINE
8
BLACK
6
CONTINUOUS
10
1.58101
20
0.752775
11
1.5816
21
0.752282
0
LINE
8
BLACK
6
CONTINUOUS
10
1.5816
20
0.752282
11
1.58226
21
0.751898
0
LINE
8
BLACK
6
CONTINUOUS
10
1.58226
20
0.751898
11
1.58235
21
0.751648
0
LINE
8
BLACK
6
CONTINUOUS
10
1.58235
20
0.751648
11
1.58256
21
0.751476
0
LINE
8
BLACK
6
CONTINUOUS
10
1.58256
20
0.751476
11
1.58269
21
0.750721
0
LINE
8
BLACK
6
CONTINUOUS
10
1.58269
20
0.750721
11
1.58295
21
0.75
0
LINE
8
BLACK
6
CONTINUOUS
10
1.58295
20
0.75
11
1.58295
21
0.65
0
LINE
8
BLACK
6
CONTINUOUS
10
1.58295
20
0.65
11
1.58289
21
0.649616
0
LINE
8
BLACK
6
CONTINUOUS
10
1.58289
20
0.649616
11
1.58291
21
0.649487
0
LINE
8
BLACK
6
CONTINUOUS
10
1.58291
20
0.649487
11
1.58284
21
0.649374
0
LINE
8
BLACK
6
CONTINUOUS
10
1.58284
20
0.649374
11
1.58277
21
0.64899
0
LINE
8
BLACK
6
CONTINUOUS
10
1.58277
20
0.64899
11
1.58228
21
0.648402
0
LINE
8
BLACK
6
CONTINUOUS
10
1.58228
20
0.648402
11
1.5819
21
0.647738
0
LINE
8
BLACK
6
CONTINUOUS
10
1.5819
20
0.647738
11
1.58165
21
0.647647
0
LINE
8
BLACK
6
CONTINUOUS
10
1.58165
20
0.647647
11
1.58148
21
0.647443
0
LINE
8
BLACK
6
CONTINUOUS
10
1.58148
20
0.647443
11
1.58072
21
0.64731
0
LINE
8
BLACK
6
CONTINUOUS
10
1.58072
20
0.64731
11
1.58
21
0.647047
0
LINE
8
BLACK
6
CONTINUOUS
10
1.58
20
0.647047
11
1.38
21
0.647047
0
LINE
8
BLACK
6
CONTINUOUS
10
1.38
20
0.647047
11
1.37962
21
0.647115
0
LINE
8
BLACK
6
CONTINUOUS
10
1.37962
20
0.647115
11
1.37949
21
0.647092
0
LINE
8
BLACK
6
CONTINUOUS
10
1.37949
20
0.647092
11
1.37937
21
0.647158
0
LINE
8
BLACK
6
CONTINUOUS
10
1.37937
20
0.647158
11
1.37899
21
0.647225
0
LINE
8
BLACK
6
CONTINUOUS
10
1.37899
20
0.647225
11
1.3784
21
0.647718
0
LINE
8
BLACK
6
CONTINUOUS
10
1.3784
20
0.647718
11
1.37774
21
0.648102
0
LINE
8
BLACK
6
CONTINUOUS
10
1.37774
20
0.648102
11
1.37765
21
0.648352
0
LINE
8
BLACK
6
CONTINUOUS
10
1.37765
20
0.648352
11
1.37744
21
0.648524
0
LINE
8
BLACK
6
CONTINUOUS
10
1.37744
20
0.648524
11
1.37731
21
0.649279
0
LINE
8
BLACK
6
CONTINUOUS
10
1.37731
20
0.649279
11
1.37705
21
0.65
0
LINE
8
BLACK
6
CONTINUOUS
10
1.37705
20
0.65
11
1.37705
21
0.75
0
LINE
8
BLACK
6
CONTINUOUS
10
1.37705
20
0.75
11
1.37711
21
0.750384
0
LINE
8
BLACK
6
CONTINUOUS
10
1.37711
20
0.750384
11
1.37709
21
0.750513
0
LINE
8
BLACK
6
CONTINUOUS
10
1.37709
20
0.750513
11
1.37716
21
0.750626
0
LINE
8
BLACK
6
CONTINUOUS
10
1.37716
20
0.750626
11
1.37723
21
0.75101
0
LINE
8
BLACK
6
CONTINUOUS
10
1.37723
20
0.75101
11
1.37772
21
0.751598
0
LINE
8
BLACK
6
CONTINUOUS
10
1.37772
20
0.751598
11
1.3781
21
0.752262
0
LINE
8
BLACK
6
CONTINUOUS
10
1.3781
20
0.752262
11
1.37835
21
0.752353
0
LINE
8
BLACK
6
CONTINUOUS
10
1.37835
20
0.752353
11
1.37852
21
0.752557
0
LINE
8
BLACK
6
CONTINUOUS
10
1.37852
20
0.752557
11
1.37928
21
0.75269
0
LINE
8
BLACK
6
CONTINUOUS
10
1.37928
20
0.75269
11
1.38
21
0.752953
0
LINE
8
BLACK
6
CONTINUOUS
10
1.38
20
0.752953
11
1.58
21
0.752953
0
LINE
8
BLACK
6
CONTINUOUS
10
1.58
20
0.752953
11
1.58038
21
0.752885
0
LINE
8
BLACK
6
CONTINUOUS
10
1.38295
20
0.747047
11
1.38295
21
0.652953
0
LINE
8
BLACK
6
CONTINUOUS
10
1.38295
20
0.652953
11
1.57705
21
0.652953
0
LINE
8
BLACK
6
CONTINUOUS
10
1.57705
20
0.652953
11
1.57705
21
0.747047
0
LINE
8
BLACK
6
CONTINUOUS
10
1.57705
20
0.747047
11
1.38295
21
0.747047
0
LINE
8
BLACK
6
CONTINUOUS
10
1.92038
20
0.972885
11
1.92051
21
0.972908
0
LINE
8
BLACK
6
CONTINUOUS
10
1.92051
20
0.972908
11
1.92063
21
0.972842
0
LINE
8
BLACK
6
CONTINUOUS
10
1.92063
20
0.972842
11
1.92101
21
0.972775
0
LINE
8
BLACK
6
CONTINUOUS
10
1.92101
20
0.972775
11
1.9216
21
0.972282
0
LINE
8
BLACK
6
CONTINUOUS
10
1.9216
20
0.972282
11
1.92226
21
0.971898
0
LINE
8
BLACK
6
CONTINUOUS
10
1.92226
20
0.971898
11
1.92235
21
0.971648
0
LINE
8
BLACK
6
CONTINUOUS
10
1.92235
20
0.971648
11
1.92256
21
0.971476
0
LINE
8
BLACK
6
CONTINUOUS
10
1.92256
20
0.971476
11
1.92269
21
0.970721
0
LINE
8
BLACK
6
CONTINUOUS
10
1.92269
20
0.970721
11
1.92295
21
0.97
0
LINE
8
BLACK
6
CONTINUOUS
10
1.92295
20
0.97
11
1.92295
21
0.87
0
LINE
8
BLACK
6
CONTINUOUS
10
1.92295
20
0.87
11
1.92295
21
0.77
0
LINE
8
BLACK
6
CONTINUOUS
10
1.92295
20
0.77
11
1.92289
21
0.769616
0
LINE
8
BLACK
6
CONTINUOUS
10
1.92289
20
0.769616
11
1.92291
21
0.769487
0
LINE
8
BLACK
6
CONTINUOUS
10
1.92291
20
0.769487
11
1.92284
21
0.769374
0
LINE
8
BLACK
6
CONTINUOUS
10
1.92284
20
0.769374
11
1.92277
21
0.76899
0
LINE
8
BLACK
6
CONTINUOUS
10
1.92277
20
0.76899
11
1.92228
21
0.768402
0
LINE
8
BLACK
6
CONTINUOUS
10
1.92228
20
0.768402
11
1.9219
21
0.767738
0
LINE
8
BLACK
6
CONTINUOUS
10
1.9219
20
0.767738
11
1.92165
21
0.767647
0
LINE
8
BLACK
6
CONTINUOUS
10
1.92165
20
0.767647
11
1.92148
21
0.767443
0
LINE
8
BLACK
6
CONTINUOUS
10
1.92148
20
0.767443
11
1.92072
21
0.76731
0
LINE
8
BLACK
6
CONTINUOUS
10
1.92072
20
0.76731
11
1.92
21
0.767047
0
LINE
8
BLACK
6
CONTINUOUS
10
1.92
20
0.767047
11
1.72
21
0.767047
0
LINE
8
BLACK
6
CONTINUOUS
10
1.72
20
0.767047
11
1.71962
21
0.767115
0
LINE
8
BLACK
6
CONTINUOUS
10
1.71962
20
0.767115
11
1.71949
21
0.767092
0
LINE
8
BLACK
6
CONTINUOUS
10
1.71949
20
0.767092
11
1.71937
21
0.767158
0
LINE
8
BLACK
6
CONTINUOUS
10
1.71937
20
0.767158
11
1.71899
21
0.767225
0
LINE
8
BLACK
6
CONTINUOUS
10
1.71899
20
0.767225
11
1.7184
21
0.767718
0
LINE
8
BLACK
6
CONTINUOUS
10
1.7184
20
0.767718
11
1.71774
21
0.768102
0
LINE
8
BLACK
6
CONTINUOUS
10
1.71774
20
0.768102
11
1.71765
21
0.768352
0
LINE
8
BLACK
6
CONTINUOUS
10
1.71765
20
0.768352
11
1.71744
21
0.768524
0
LINE
8
BLACK
6
CONTINUOUS
10
1.71744
20
0.768524
11
1.71731
21
0.769279
0
LINE
8
BLACK
6
CONTINUOUS
10
1.71731
20
0.769279
11
1.71705
21
0.77
0
LINE
8
BLACK
6
CONTINUOUS
10
1.71705
20
0.77
11
1.71705
21
0.87
0
LINE
8
BLACK
6
CONTINUOUS
10
1.71705
20
0.87
11
1.71705
21
0.97
0
LINE
8
BLACK
6
CONTINUOUS
10
1.71705
20
0.97
11
1.71711
21
0.970384
0
LINE
8
BLACK
6
CONTINUOUS
10
1.71711
20
0.970384
11
1.71709
21
0.970513
0
LINE
8
BLACK
6
CONTINUOUS
10
1.71709
20
0.970513
11
1.71716
21
0.970626
0
LINE
8
BLACK
6
CONTINUOUS
10
1.71716
20
0.970626
11
1.71723
21
0.97101
0
LINE
8
BLACK
6
CONTINUOUS
10
1.71723
20
0.97101
11
1.71772
21
0.971598
0
LINE
8
BLACK
6
CONTINUOUS
10
1.71772
20
0.971598
11
1.7181
21
0.972262
0
LINE
8
BLACK
6
CONTINUOUS
10
1.7181
20
0.972262
11
1.71835
21
0.972353
0
LINE
8
BLACK
6
CONTINUOUS
10
1.71835
20
0.972353
11
1.71852
21
0.972557
0
LINE
8
BLACK
6
CONTINUOUS
10
1.71852
20
0.972557
11
1.71928
21
0.97269
0
LINE
8
BLACK
6
CONTINUOUS
10
1.71928
20
0.97269
11
1.72
21
0.972953
0
LINE
8
BLACK
6
CONTINUOUS
10
1.72
20
0.972953
11
1.92
21
0.972953
0
LINE
8
BLACK
6
CONTINUOUS
10
1.92
20
0.972953
11
1.92038
21
0.972885
0
LINE
8
BLACK
6
CONTINUOUS
10
1.72295
20
0.867047
11
1.72295
21
0.772953
0
LINE
8
BLACK
6
CONTINUOUS
10
1.72295
20
0.772953
11
1.91705
21
0.772953
0
LINE
8
BLACK
6
CONTINUOUS
10
1.91705
20
0.772953
11
1.91705
21
0.867047
0
LINE
8
BLACK
6
CONTINUOUS
10
1.91705
20
0.867047
11
1.72295
21
0.867047
0
LINE
8
BLACK
6
CONTINUOUS
10
1.72295
20
0.967047
11
1.72295
21
0.872953
0
LINE
8
BLACK
6
CONTINUOUS
10
1.72295
20
0.872953
11
1.91705
21
0.872953
0
LINE
8
BLACK
6
CONTINUOUS
10
1.91705
20
0.872953
11
1.91705
21
0.967047
0
LINE
8
BLACK
6
CONTINUOUS
10
1.91705
20
0.967047
11
1.72295
21
0.967047
0
LINE
8
BLACK
6
CONTINUOUS
10
0.177527
20
1.04468
11
0.177591
21
1.04468
0
LINE
8
BLACK
6
CONTINUOUS
10
0.177591
20
1.04468
11
0.183216
21
1.0428
0
LINE
8
BLACK
6
CONTINUOUS
10
0.183216
20
1.0428
11
0.184117
21
1.04231
0
LINE
8
BLACK
6
CONTINUOUS
10
0.184117
20
1.04231
11
0.18421
21
1.04216
0
LINE
8
BLACK
6
CONTINUOUS
10
0.18421
20
1.04216
11
0.18437
21
1.04209
0
LINE
8
BLACK
6
CONTINUOUS
10
0.18437
20
1.04209
11
0.188119
21
1.03834
0
LINE
8
BLACK
6
CONTINUOUS
10
0.188119
20
1.03834
11
0.188708
21
1.0375
0
LINE
8
BLACK
6
CONTINUOUS
10
0.188708
20
1.0375
11
0.188723
21
1.03732
0
LINE
8
BLACK
6
CONTINUOUS
10
0.188723
20
1.03732
11
0.188833
21
1.03719
0
LINE
8
BLACK
6
CONTINUOUS
10
0.188833
20
1.03719
11
0.190707
21
1.03156
0
LINE
8
BLACK
6
CONTINUOUS
10
0.190707
20
1.03156
11
0.190837
21
1.03069
0
LINE
8
BLACK
6
CONTINUOUS
10
0.190837
20
1.03069
11
0.190859
21
1.03063
0
LINE
8
BLACK
6
CONTINUOUS
10
0.190859
20
1.03063
11
0.190859
21
1.02688
0
LINE
8
BLACK
6
CONTINUOUS
10
0.190859
20
1.02688
11
0.190681
21
1.02587
0
LINE
8
BLACK
6
CONTINUOUS
10
0.190681
20
1.02587
11
0.189383
21
1.02432
0
LINE
8
BLACK
6
CONTINUOUS
10
0.189383
20
1.02432
11
0.187394
21
1.02397
0
LINE
8
BLACK
6
CONTINUOUS
10
0.187394
20
1.02397
11
0.185644
21
1.02498
0
LINE
8
BLACK
6
CONTINUOUS
10
0.185644
20
1.02498
11
0.184954
21
1.02688
0
LINE
8
BLACK
6
CONTINUOUS
10
0.184954
20
1.02688
11
0.184954
21
1.03015
0
LINE
8
BLACK
6
CONTINUOUS
10
0.184954
20
1.03015
11
0.183451
21
1.03466
0
LINE
8
BLACK
6
CONTINUOUS
10
0.183451
20
1.03466
11
0.180687
21
1.03742
0
LINE
8
BLACK
6
CONTINUOUS
10
0.180687
20
1.03742
11
0.176179
21
1.03892
0
LINE
8
BLACK
6
CONTINUOUS
10
0.176179
20
1.03892
11
0.148536
21
1.03892
0
LINE
8
BLACK
6
CONTINUOUS
10
0.148536
20
1.03892
11
0.147526
21
1.0391
0
LINE
8
BLACK
6
CONTINUOUS
10
0.147526
20
1.0391
11
0.145979
21
1.0404
0
LINE
8
BLACK
6
CONTINUOUS
10
0.145979
20
1.0404
11
0.145628
21
1.04239
0
LINE
8
BLACK
6
CONTINUOUS
10
0.145628
20
1.04239
11
0.146638
21
1.04414
0
LINE
8
BLACK
6
CONTINUOUS
10
0.146638
20
1.04414
11
0.148536
21
1.04483
0
LINE
8
BLACK
6
CONTINUOUS
10
0.148536
20
1.04483
11
0.176658
21
1.04483
0
LINE
8
BLACK
6
CONTINUOUS
10
0.176658
20
1.04483
11
0.177527
21
1.04468
0
LINE
8
BLACK
6
CONTINUOUS
10
0.15892
20
1.08402
11
0.159055
21
1.08391
0
LINE
8
BLACK
6
CONTINUOUS
10
0.159055
20
1.08391
11
0.159231
21
1.08389
0
LINE
8
BLACK
6
CONTINUOUS
10
0.159231
20
1.08389
11
0.16298
21
1.08201
0
LINE
8
BLACK
6
CONTINUOUS
10
0.16298
20
1.08201
11
0.163689
21
1.08149
0
LINE
8
BLACK
6
CONTINUOUS
10
0.163689
20
1.08149
11
0.163747
21
1.08146
0
LINE
8
BLACK
6
CONTINUOUS
10
0.163747
20
1.08146
11
0.165409
21
1.0798
0
LINE
8
BLACK
6
CONTINUOUS
10
0.165409
20
1.0798
11
0.167071
21
1.08146
0
LINE
8
BLACK
6
CONTINUOUS
10
0.167071
20
1.08146
11
0.167794
21
1.08197
0
LINE
8
BLACK
6
CONTINUOUS
10
0.167794
20
1.08197
11
0.167838
21
1.08201
0
LINE
8
BLACK
6
CONTINUOUS
10
0.167838
20
1.08201
11
0.171588
21
1.08389
0
LINE
8
BLACK
6
CONTINUOUS
10
0.171588
20
1.08389
11
0.172571
21
1.08418
0
LINE
8
BLACK
6
CONTINUOUS
10
0.172571
20
1.08418
11
0.172742
21
1.08414
0
LINE
8
BLACK
6
CONTINUOUS
10
0.172742
20
1.08414
11
0.172908
21
1.0842
0
LINE
8
BLACK
6
CONTINUOUS
10
0.172908
20
1.0842
11
0.180407
21
1.0842
0
LINE
8
BLACK
6
CONTINUOUS
10
0.180407
20
1.0842
11
0.181417
21
1.08402
0
LINE
8
BLACK
6
CONTINUOUS
10
0.181417
20
1.08402
11
0.181552
21
1.08391
0
LINE
8
BLACK
6
CONTINUOUS
10
0.181552
20
1.08391
11
0.181728
21
1.08389
0
LINE
8
BLACK
6
CONTINUOUS
10
0.181728
20
1.08389
11
0.185477
21
1.08201
0
LINE
8
BLACK
6
CONTINUOUS
10
0.185477
20
1.08201
11
0.186186
21
1.08149
0
LINE
8
BLACK
6
CONTINUOUS
10
0.186186
20
1.08149
11
0.186245
21
1.08146
0
LINE
8
BLACK
6
CONTINUOUS
10
0.186245
20
1.08146
11
0.188119
21
1.07959
0
LINE
8
BLACK
6
CONTINUOUS
10
0.188119
20
1.07959
11
0.188626
21
1.07886
0
LINE
8
BLACK
6
CONTINUOUS
10
0.188626
20
1.07886
11
0.188673
21
1.07882
0
LINE
8
BLACK
6
CONTINUOUS
10
0.188673
20
1.07882
11
0.190547
21
1.07507
0
LINE
8
BLACK
6
CONTINUOUS
10
0.190547
20
1.07507
11
0.19084
21
1.07409
0
LINE
8
BLACK
6
CONTINUOUS
10
0.19084
20
1.07409
11
0.190799
21
1.07391
0
LINE
8
BLACK
6
CONTINUOUS
10
0.190799
20
1.07391
11
0.190859
21
1.07375
0
LINE
8
BLACK
6
CONTINUOUS
10
0.190859
20
1.07375
11
0.190859
21
1.06625
0
LINE
8
BLACK
6
CONTINUOUS
10
0.190859
20
1.06625
11
0.190681
21
1.06524
0
LINE
8
BLACK
6
CONTINUOUS
10
0.190681
20
1.06524
11
0.190567
21
1.0651
0
LINE
8
BLACK
6
CONTINUOUS
10
0.190567
20
1.0651
11
0.190547
21
1.06493
0
LINE
8
BLACK
6
CONTINUOUS
10
0.190547
20
1.06493
11
0.188673
21
1.06118
0
LINE
8
BLACK
6
CONTINUOUS
10
0.188673
20
1.06118
11
0.188147
21
1.06047
0
LINE
8
BLACK
6
CONTINUOUS
10
0.188147
20
1.06047
11
0.188119
21
1.06041
0
LINE
8
BLACK
6
CONTINUOUS
10
0.188119
20
1.06041
11
0.186245
21
1.05854
0
LINE
8
BLACK
6
CONTINUOUS
10
0.186245
20
1.05854
11
0.185521
21
1.05803
0
LINE
8
BLACK
6
CONTINUOUS
10
0.185521
20
1.05803
11
0.185477
21
1.05798
0
LINE
8
BLACK
6
CONTINUOUS
10
0.185477
20
1.05798
11
0.181728
21
1.05611
0
LINE
8
BLACK
6
CONTINUOUS
10
0.181728
20
1.05611
11
0.180745
21
1.05582
0
LINE
8
BLACK
6
CONTINUOUS
10
0.180745
20
1.05582
11
0.180573
21
1.05586
0
LINE
8
BLACK
6
CONTINUOUS
10
0.180573
20
1.05586
11
0.180407
21
1.0558
0
LINE
8
BLACK
6
CONTINUOUS
10
0.180407
20
1.0558
11
0.172908
21
1.0558
0
LINE
8
BLACK
6
CONTINUOUS
10
0.172908
20
1.0558
11
0.171898
21
1.05597
0
LINE
8
BLACK
6
CONTINUOUS
10
0.171898
20
1.05597
11
0.171763
21
1.05609
0
LINE
8
BLACK
6
CONTINUOUS
10
0.171763
20
1.05609
11
0.171588
21
1.05611
0
LINE
8
BLACK
6
CONTINUOUS
10
0.171588
20
1.05611
11
0.167838
21
1.05798
0
LINE
8
BLACK
6
CONTINUOUS
10
0.167838
20
1.05798
11
0.167129
21
1.05851
0
LINE
8
BLACK
6
CONTINUOUS
10
0.167129
20
1.05851
11
0.167071
21
1.05854
0
LINE
8
BLACK
6
CONTINUOUS
10
0.167071
20
1.05854
11
0.165409
21
1.0602
0
LINE
8
BLACK
6
CONTINUOUS
10
0.165409
20
1.0602
11
0.163747
21
1.05854
0
LINE
8
BLACK
6
CONTINUOUS
10
0.163747
20
1.05854
11
0.163024
21
1.05803
0
LINE
8
BLACK
6
CONTINUOUS
10
0.163024
20
1.05803
11
0.16298
21
1.05798
0
LINE
8
BLACK
6
CONTINUOUS
10
0.16298
20
1.05798
11
0.159231
21
1.05611
0
LINE
8
BLACK
6
CONTINUOUS
10
0.159231
20
1.05611
11
0.158248
21
1.05582
0
LINE
8
BLACK
6
CONTINUOUS
10
0.158248
20
1.05582
11
0.158076
21
1.05586
0
LINE
8
BLACK
6
CONTINUOUS
10
0.158076
20
1.05586
11
0.15791
21
1.0558
0
LINE
8
BLACK
6
CONTINUOUS
10
0.15791
20
1.0558
11
0.156035
21
1.0558
0
LINE
8
BLACK
6
CONTINUOUS
10
0.156035
20
1.0558
11
0.155025
21
1.05597
0
LINE
8
BLACK
6
CONTINUOUS
10
0.155025
20
1.05597
11
0.15489
21
1.05609
0
LINE
8
BLACK
6
CONTINUOUS
10
0.15489
20
1.05609
11
0.154715
21
1.05611
0
LINE
8
BLACK
6
CONTINUOUS
10
0.154715
20
1.05611
11
0.150965
21
1.05798
0
LINE
8
BLACK
6
CONTINUOUS
10
0.150965
20
1.05798
11
0.150256
21
1.05851
0
LINE
8
BLACK
6
CONTINUOUS
10
0.150256
20
1.05851
11
0.150198
21
1.05854
0
LINE
8
BLACK
6
CONTINUOUS
10
0.150198
20
1.05854
11
0.148323
21
1.06041
0
LINE
8
BLACK
6
CONTINUOUS
10
0.148323
20
1.06041
11
0.147817
21
1.06113
0
LINE
8
BLACK
6
CONTINUOUS
10
0.147817
20
1.06113
11
0.14777
21
1.06118
0
LINE
8
BLACK
6
CONTINUOUS
10
0.14777
20
1.06118
11
0.145895
21
1.06493
0
LINE
8
BLACK
6
CONTINUOUS
10
0.145895
20
1.06493
11
0.145603
21
1.06591
0
LINE
8
BLACK
6
CONTINUOUS
10
0.145603
20
1.06591
11
0.145644
21
1.06608
0
LINE
8
BLACK
6
CONTINUOUS
10
0.145644
20
1.06608
11
0.145583
21
1.06625
0
LINE
8
BLACK
6
CONTINUOUS
10
0.145583
20
1.06625
11
0.145583
21
1.07375
0
LINE
8
BLACK
6
CONTINUOUS
10
0.145583
20
1.07375
11
0.145761
21
1.07476
0
LINE
8
BLACK
6
CONTINUOUS
10
0.145761
20
1.07476
11
0.145875
21
1.07489
0
LINE
8
BLACK
6
CONTINUOUS
10
0.145875
20
1.07489
11
0.145895
21
1.07507
0
LINE
8
BLACK
6
CONTINUOUS
10
0.145895
20
1.07507
11
0.14777
21
1.07882
0
LINE
8
BLACK
6
CONTINUOUS
10
0.14777
20
1.07882
11
0.148296
21
1.07953
0
LINE
8
BLACK
6
CONTINUOUS
10
0.148296
20
1.07953
11
0.148323
21
1.07959
0
LINE
8
BLACK
6
CONTINUOUS
10
0.148323
20
1.07959
11
0.150198
21
1.08146
0
LINE
8
BLACK
6
CONTINUOUS
10
0.150198
20
1.08146
11
0.150921
21
1.08197
0
LINE
8
BLACK
6
CONTINUOUS
10
0.150921
20
1.08197
11
0.150965
21
1.08201
0
LINE
8
BLACK
6
CONTINUOUS
10
0.150965
20
1.08201
11
0.154715
21
1.08389
0
LINE
8
BLACK
6
CONTINUOUS
10
0.154715
20
1.08389
11
0.155698
21
1.08418
0
LINE
8
BLACK
6
CONTINUOUS
10
0.155698
20
1.08418
11
0.155869
21
1.08414
0
LINE
8
BLACK
6
CONTINUOUS
10
0.155869
20
1.08414
11
0.156035
21
1.0842
0
LINE
8
BLACK
6
CONTINUOUS
10
0.156035
20
1.0842
11
0.15791
21
1.0842
0
LINE
8
BLACK
6
CONTINUOUS
10
0.15791
20
1.0842
11
0.15892
21
1.08402
0
LINE
8
BLACK
6
CONTINUOUS
10
0.154035
20
1.07695
11
0.152838
21
1.07575
0
LINE
8
BLACK
6
CONTINUOUS
10
0.152838
20
1.07575
11
0.151489
21
1.07305
0
LINE
8
BLACK
6
CONTINUOUS
10
0.151489
20
1.07305
11
0.151489
21
1.06695
0
LINE
8
BLACK
6
CONTINUOUS
10
0.151489
20
1.06695
11
0.152838
21
1.06425
0
LINE
8
BLACK
6
CONTINUOUS
10
0.152838
20
1.06425
11
0.154035
21
1.06305
0
LINE
8
BLACK
6
CONTINUOUS
10
0.154035
20
1.06305
11
0.156732
21
1.0617
0
LINE
8
BLACK
6
CONTINUOUS
10
0.156732
20
1.0617
11
0.157213
21
1.0617
0
LINE
8
BLACK
6
CONTINUOUS
10
0.157213
20
1.0617
11
0.15991
21
1.06305
0
LINE
8
BLACK
6
CONTINUOUS
10
0.15991
20
1.06305
11
0.161108
21
1.06425
0
LINE
8
BLACK
6
CONTINUOUS
10
0.161108
20
1.06425
11
0.162456
21
1.06695
0
LINE
8
BLACK
6
CONTINUOUS
10
0.162456
20
1.06695
11
0.162456
21
1.07305
0
LINE
8
BLACK
6
CONTINUOUS
10
0.162456
20
1.07305
11
0.161108
21
1.07575
0
LINE
8
BLACK
6
CONTINUOUS
10
0.161108
20
1.07575
11
0.15991
21
1.07695
0
LINE
8
BLACK
6
CONTINUOUS
10
0.15991
20
1.07695
11
0.157213
21
1.07829
0
LINE
8
BLACK
6
CONTINUOUS
10
0.157213
20
1.07829
11
0.156732
21
1.07829
0
LINE
8
BLACK
6
CONTINUOUS
10
0.156732
20
1.07829
11
0.154035
21
1.07695
0
LINE
8
BLACK
6
CONTINUOUS
10
0.170908
20
1.07695
11
0.169711
21
1.07575
0
LINE
8
BLACK
6
CONTINUOUS
10
0.169711
20
1.07575
11
0.168362
21
1.07305
0
LINE
8
BLACK
6
CONTINUOUS
10
0.168362
20
1.07305
11
0.168362
21
1.06695
0
LINE
8
BLACK
6
CONTINUOUS
10
0.168362
20
1.06695
11
0.169711
21
1.06425
0
LINE
8
BLACK
6
CONTINUOUS
10
0.169711
20
1.06425
11
0.170908
21
1.06305
0
LINE
8
BLACK
6
CONTINUOUS
10
0.170908
20
1.06305
11
0.173605
21
1.0617
0
LINE
8
BLACK
6
CONTINUOUS
10
0.173605
20
1.0617
11
0.17971
21
1.0617
0
LINE
8
BLACK
6
CONTINUOUS
10
0.17971
20
1.0617
11
0.182408
21
1.06305
0
LINE
8
BLACK
6
CONTINUOUS
10
0.182408
20
1.06305
11
0.183605
21
1.06425
0
LINE
8
BLACK
6
CONTINUOUS
10
0.183605
20
1.06425
11
0.184954
21
1.06695
0
LINE
8
BLACK
6
CONTINUOUS
10
0.184954
20
1.06695
11
0.184954
21
1.07305
0
LINE
8
BLACK
6
CONTINUOUS
10
0.184954
20
1.07305
11
0.183605
21
1.07575
0
LINE
8
BLACK
6
CONTINUOUS
10
0.183605
20
1.07575
11
0.182408
21
1.07695
0
LINE
8
BLACK
6
CONTINUOUS
10
0.182408
20
1.07695
11
0.17971
21
1.07829
0
LINE
8
BLACK
6
CONTINUOUS
10
0.17971
20
1.07829
11
0.173605
21
1.07829
0
LINE
8
BLACK
6
CONTINUOUS
10
0.173605
20
1.07829
11
0.170908
21
1.07695
0
LINE
8
BLACK
6
CONTINUOUS
10
0.295
20
1.18197
11
0.296392
21
1.18139
0
LINE
8
BLACK
6
CONTINUOUS
10
0.296392
20
1.18139
11
0.296969
21
1.18
0
LINE
8
BLACK
6
CONTINUOUS
10
0.296969
20
1.18
11
0.296969
21
0.93
0
LINE
8
BLACK
6
CONTINUOUS
10
0.296969
20
0.93
11
0.296392
21
0.928608
0
LINE
8
BLACK
6
CONTINUOUS
10
0.296392
20
0.928608
11
0.295
21
0.928031
0
LINE
8
BLACK
6
CONTINUOUS
10
0.295
20
0.928031
11
0.17
21
0.928031
0
LINE
8
BLACK
6
CONTINUOUS
10
0.17
20
0.928031
11
0.045
21
0.928031
0
LINE
8
BLACK
6
CONTINUOUS
10
0.045
20
0.928031
11
0.0436081
21
0.928608
0
LINE
8
BLACK
6
CONTINUOUS
10
0.0436081
20
0.928608
11
0.0430315
21
0.93
0
LINE
8
BLACK
6
CONTINUOUS
10
0.0430315
20
0.93
11
0.0430315
21
1.18
0
LINE
8
BLACK
6
CONTINUOUS
10
0.0430315
20
1.18
11
0.0436081
21
1.18139
0
LINE
8
BLACK
6
CONTINUOUS
10
0.0436081
20
1.18139
11
0.045
21
1.18197
0
LINE
8
BLACK
6
CONTINUOUS
10
0.045
20
1.18197
11
0.295
21
1.18197
0
LINE
8
BLACK
6
CONTINUOUS
10
0.0469685
20
0.931969
11
0.139131
21
0.931969
0
LINE
8
BLACK
6
CONTINUOUS
10
0.139131
20
0.931969
11
0.128065
21
0.935157
0
LINE
8
BLACK
6
CONTINUOUS
10
0.128065
20
0.935157
11
0.11491
21
0.940605
0
LINE
8
BLACK
6
CONTINUOUS
10
0.11491
20
0.940605
11
0.102449
21
0.947493
0
LINE
8
BLACK
6
CONTINUOUS
10
0.102449
20
0.947493
11
0.0908364
21
0.955732
0
LINE
8
BLACK
6
CONTINUOUS
10
0.0908364
20
0.955732
11
0.0802197
21
0.96522
0
LINE
8
BLACK
6
CONTINUOUS
10
0.0802197
20
0.96522
11
0.070732
21
0.975836
0
LINE
8
BLACK
6
CONTINUOUS
10
0.070732
20
0.975836
11
0.0624927
21
0.987449
0
LINE
8
BLACK
6
CONTINUOUS
10
0.0624927
20
0.987449
11
0.0556053
21
0.99991
0
LINE
8
BLACK
6
CONTINUOUS
10
0.0556053
20
0.99991
11
0.0501565
21
1.01306
0
LINE
8
BLACK
6
CONTINUOUS
10
0.0501565
20
1.01306
11
0.0469685
21
1.02413
0
LINE
8
BLACK
6
CONTINUOUS
10
0.0469685
20
1.02413
11
0.0469685
21
0.931969
0
LINE
8
BLACK
6
CONTINUOUS
10
0.166548
20
1.17803
11
0.156203
21
1.17745
0
LINE
8
BLACK
6
CONTINUOUS
10
0.156203
20
1.17745
11
0.14258
21
1.17514
0
LINE
8
BLACK
6
CONTINUOUS
10
0.14258
20
1.17514
11
0.129301
21
1.17131
0
LINE
8
BLACK
6
CONTINUOUS
10
0.129301
20
1.17131
11
0.116535
21
1.16602
0
LINE
8
BLACK
6
CONTINUOUS
10
0.116535
20
1.16602
11
0.10444
21
1.15934
0
LINE
8
BLACK
6
CONTINUOUS
10
0.10444
20
1.15934
11
0.0931702
21
1.15134
0
LINE
8
BLACK
6
CONTINUOUS
10
0.0931702
20
1.15134
11
0.0828665
21
1.14213
0
LINE
8
BLACK
6
CONTINUOUS
10
0.0828665
20
1.14213
11
0.0736585
21
1.13183
0
LINE
8
BLACK
6
CONTINUOUS
10
0.0736585
20
1.13183
11
0.0656621
21
1.12056
0
LINE
8
BLACK
6
CONTINUOUS
10
0.0656621
20
1.12056
11
0.0589778
21
1.10847
0
LINE
8
BLACK
6
CONTINUOUS
10
0.0589778
20
1.10847
11
0.0536896
21
1.0957
0
LINE
8
BLACK
6
CONTINUOUS
10
0.0536896
20
1.0957
11
0.0498642
21
1.08242
0
LINE
8
BLACK
6
CONTINUOUS
10
0.0498642
20
1.08242
11
0.0475494
21
1.0688
0
LINE
8
BLACK
6
CONTINUOUS
10
0.0475494
20
1.0688
11
0.0469685
21
1.05845
0
LINE
8
BLACK
6
CONTINUOUS
10
0.0469685
20
1.05845
11
0.0469685
21
1.05155
0
LINE
8
BLACK
6
CONTINUOUS
10
0.0469685
20
1.05155
11
0.0475494
21
1.0412
0
LINE
8
BLACK
6
CONTINUOUS
10
0.0475494
20
1.0412
11
0.0498642
21
1.02758
0
LINE
8
BLACK
6
CONTINUOUS
10
0.0498642
20
1.02758
11
0.0536896
21
1.0143
0
LINE
8
BLACK
6
CONTINUOUS
10
0.0536896
20
1.0143
11
0.0589778
21
1.00153
0
LINE
8
BLACK
6
CONTINUOUS
10
0.0589778
20
1.00153
11
0.0656621
21
0.98944
0
LINE
8
BLACK
6
CONTINUOUS
10
0.0656621
20
0.98944
11
0.0736585
21
0.97817
0
LINE
8
BLACK
6
CONTINUOUS
10
0.0736585
20
0.97817
11
0.0828665
21
0.967867
0
LINE
8
BLACK
6
CONTINUOUS
10
0.0828665
20
0.967867
11
0.0931702
21
0.958659
0
LINE
8
BLACK
6
CONTINUOUS
10
0.0931702
20
0.958659
11
0.10444
21
0.950662
0
LINE
8
BLACK
6
CONTINUOUS
10
0.10444
20
0.950662
11
0.116535
21
0.943978
0
LINE
8
BLACK
6
CONTINUOUS
10
0.116535
20
0.943978
11
0.129301
21
0.93869
0
LINE
8
BLACK
6
CONTINUOUS
10
0.129301
20
0.93869
11
0.14258
21
0.934864
0
LINE
8
BLACK
6
CONTINUOUS
10
0.14258
20
0.934864
11
0.156203
21
0.932549
0
LINE
8
BLACK
6
CONTINUOUS
10
0.156203
20
0.932549
11
0.166548
21
0.931969
0
LINE
8
BLACK
6
CONTINUOUS
10
0.166548
20
0.931969
11
0.173452
21
0.931969
0
LINE
8
BLACK
6
CONTINUOUS
10
0.173452
20
0.931969
11
0.183797
21
0.932549
0
LINE
8
BLACK
6
CONTINUOUS
10
0.183797
20
0.932549
11
0.19742
21
0.934864
0
LINE
8
BLACK
6
CONTINUOUS
10
0.19742
20
0.934864
11
0.210699
21
0.93869
0
LINE
8
BLACK
6
CONTINUOUS
10
0.210699
20
0.93869
11
0.223465
21
0.943978
0
LINE
8
BLACK
6
CONTINUOUS
10
0.223465
20
0.943978
11
0.23556
21
0.950662
0
LINE
8
BLACK
6
CONTINUOUS
10
0.23556
20
0.950662
11
0.24683
21
0.958659
0
LINE
8
BLACK
6
CONTINUOUS
10
0.24683
20
0.958659
11
0.257133
21
0.967867
0
LINE
8
BLACK
6
CONTINUOUS
10
0.257133
20
0.967867
11
0.266341
21
0.97817
0
LINE
8
BLACK
6
CONTINUOUS
10
0.266341
20
0.97817
11
0.274338
21
0.98944
0
LINE
8
BLACK
6
CONTINUOUS
10
0.274338
20
0.98944
11
0.281022
21
1.00153
0
LINE
8
BLACK
6
CONTINUOUS
10
0.281022
20
1.00153
11
0.28631
21
1.0143
0
LINE
8
BLACK
6
CONTINUOUS
10
0.28631
20
1.0143
11
0.290136
21
1.02758
0
LINE
8
BLACK
6
CONTINUOUS
10
0.290136
20
1.02758
11
0.292451
21
1.0412
0
LINE
8
BLACK
6
CONTINUOUS
10
0.292451
20
1.0412
11
0.293031
21
1.05155
0
LINE
8
BLACK
6
CONTINUOUS
10
0.293031
20
1.05155
11
0.293031
21
1.05845
0
LINE
8
BLACK
6
CONTINUOUS
10
0.293031
20
1.05845
11
0.292451
21
1.0688
0
LINE
8
BLACK
6
CONTINUOUS
10
0.292451
20
1.0688
11
0.290136
21
1.08242
0
LINE
8
BLACK
6
CONTINUOUS
10
0.290136
20
1.08242
11
0.28631
21
1.0957
0
LINE
8
BLACK
6
CONTINUOUS
10
0.28631
20
1.0957
11
0.281022
21
1.10847
0
LINE
8
BLACK
6
CONTINUOUS
10
0.281022
20
1.10847
11
0.274338
21
1.12056
0
LINE
8
BLACK
6
CONTINUOUS
10
0.274338
20
1.12056
11
0.266341
21
1.13183
0
LINE
8
BLACK
6
CONTINUOUS
10
0.266341
20
1.13183
11
0.257133
21
1.14213
0
LINE
8
BLACK
6
CONTINUOUS
10
0.257133
20
1.14213
11
0.24683
21
1.15134
0
LINE
8
BLACK
6
CONTINUOUS
10
0.24683
20
1.15134
11
0.23556
21
1.15934
0
LINE
8
BLACK
6
CONTINUOUS
10
0.23556
20
1.15934
11
0.223465
21
1.16602
0
LINE
8
BLACK
6
CONTINUOUS
10
0.223465
20
1.16602
11
0.210699
21
1.17131
0
LINE
8
BLACK
6
CONTINUOUS
10
0.210699
20
1.17131
11
0.19742
21
1.17514
0
LINE
8
BLACK
6
CONTINUOUS
10
0.19742
20
1.17514
11
0.183797
21
1.17745
0
LINE
8
BLACK
6
CONTINUOUS
10
0.183797
20
1.17745
11
0.173452
21
1.17803
0
LINE
8
BLACK
6
CONTINUOUS
10
0.173452
20
1.17803
11
0.166548
21
1.17803
0
LINE
8
BLACK
6
CONTINUOUS
10
0.289843
20
1.01306
11
0.284395
21
0.99991
0
LINE
8
BLACK
6
CONTINUOUS
10
0.284395
20
0.99991
11
0.277507
21
0.987449
0
LINE
8
BLACK
6
CONTINUOUS
10
0.277507
20
0.987449
11
0.269268
21
0.975836
0
LINE
8
BLACK
6
CONTINUOUS
10
0.269268
20
0.975836
11
0.25978
21
0.96522
0
LINE
8
BLACK
6
CONTINUOUS
10
0.25978
20
0.96522
11
0.249164
21
0.955732
0
LINE
8
BLACK
6
CONTINUOUS
10
0.249164
20
0.955732
11
0.237551
21
0.947493
0
LINE
8
BLACK
6
CONTINUOUS
10
0.237551
20
0.947493
11
0.22509
21
0.940605
0
LINE
8
BLACK
6
CONTINUOUS
10
0.22509
20
0.940605
11
0.211935
21
0.935157
0
LINE
8
BLACK
6
CONTINUOUS
10
0.211935
20
0.935157
11
0.200869
21
0.931969
0
LINE
8
BLACK
6
CONTINUOUS
10
0.200869
20
0.931969
11
0.293031
21
0.931969
0
LINE
8
BLACK
6
CONTINUOUS
10
0.293031
20
0.931969
11
0.293031
21
1.02413
0
LINE
8
BLACK
6
CONTINUOUS
10
0.293031
20
1.02413
11
0.289843
21
1.01306
0
LINE
8
BLACK
6
CONTINUOUS
10
0.0469685
20
1.17803
11
0.0469685
21
1.08587
0
LINE
8
BLACK
6
CONTINUOUS
10
0.0469685
20
1.08587
11
0.0501565
21
1.09694
0
LINE
8
BLACK
6
CONTINUOUS
10
0.0501565
20
1.09694
11
0.0556053
21
1.11009
0
LINE
8
BLACK
6
CONTINUOUS
10
0.0556053
20
1.11009
11
0.0624927
21
1.12255
0
LINE
8
BLACK
6
CONTINUOUS
10
0.0624927
20
1.12255
11
0.070732
21
1.13416
0
LINE
8
BLACK
6
CONTINUOUS
10
0.070732
20
1.13416
11
0.0802197
21
1.14478
0
LINE
8
BLACK
6
CONTINUOUS
10
0.0802197
20
1.14478
11
0.0908364
21
1.15427
0
LINE
8
BLACK
6
CONTINUOUS
10
0.0908364
20
1.15427
11
0.102449
21
1.16251
0
LINE
8
BLACK
6
CONTINUOUS
10
0.102449
20
1.16251
11
0.11491
21
1.16939
0
LINE
8
BLACK
6
CONTINUOUS
10
0.11491
20
1.16939
11
0.128065
21
1.17484
0
LINE
8
BLACK
6
CONTINUOUS
10
0.128065
20
1.17484
11
0.139131
21
1.17803
0
LINE
8
BLACK
6
CONTINUOUS
10
0.139131
20
1.17803
11
0.0469685
21
1.17803
0
LINE
8
BLACK
6
CONTINUOUS
10
0.200869
20
1.17803
11
0.211935
21
1.17484
0
LINE
8
BLACK
6
CONTINUOUS
10
0.211935
20
1.17484
11
0.22509
21
1.16939
0
LINE
8
BLACK
6
CONTINUOUS
10
0.22509
20
1.16939
11
0.237551
21
1.16251
0
LINE
8
BLACK
6
CONTINUOUS
10
0.237551
20
1.16251
11
0.249164
21
1.15427
0
LINE
8
BLACK
6
CONTINUOUS
10
0.249164
20
1.15427
11
0.25978
21
1.14478
0
LINE
8
BLACK
6
CONTINUOUS
10
0.25978
20
1.14478
11
0.269268
21
1.13416
0
LINE
8
BLACK
6
CONTINUOUS
10
0.269268
20
1.13416
11
0.277507
21
1.12255
0
LINE
8
BLACK
6
CONTINUOUS
10
0.277507
20
1.12255
11
0.284395
21
1.11009
0
LINE
8
BLACK
6
CONTINUOUS
10
0.284395
20
1.11009
11
0.289843
21
1.09694
0
LINE
8
BLACK
6
CONTINUOUS
10
0.289843
20
1.09694
11
0.293031
21
1.08587
0
LINE
8
BLACK
6
CONTINUOUS
10
0.293031
20
1.08587
11
0.293031
21
1.17803
0
LINE
8
BLACK
6
CONTINUOUS
10
0.293031
20
1.17803
11
0.200869
21
1.17803
0
LINE
8
BLACK
6
CONTINUOUS
10
0.385767
20
1.03247
11
0.387314
21
1.03117
0
LINE
8
BLACK
6
CONTINUOUS
10
0.387314
20
1.03117
11
0.387665
21
1.02918
0
LINE
8
BLACK
6
CONTINUOUS
10
0.387665
20
1.02918
11
0.386655
21
1.02743
0
LINE
8
BLACK
6
CONTINUOUS
10
0.386655
20
1.02743
11
0.384757
21
1.02674
0
LINE
8
BLACK
6
CONTINUOUS
10
0.384757
20
1.02674
11
0.358696
21
1.02674
0
LINE
8
BLACK
6
CONTINUOUS
10
0.358696
20
1.02674
11
0.374757
21
1.01924
0
LINE
8
BLACK
6
CONTINUOUS
10
0.374757
20
1.01924
11
0.375074
21
1.01902
0
LINE
8
BLACK
6
CONTINUOUS
10
0.375074
20
1.01902
11
0.375201
21
1.01899
0
LINE
8
BLACK
6
CONTINUOUS
10
0.375201
20
1.01899
11
0.375276
21
1.01888
0
LINE
8
BLACK
6
CONTINUOUS
10
0.375276
20
1.01888
11
0.375597
21
1.01865
0
LINE
8
BLACK
6
CONTINUOUS
10
0.375597
20
1.01865
11
0.37592
21
1.01796
0
LINE
8
BLACK
6
CONTINUOUS
10
0.37592
20
1.01796
11
0.37636
21
1.01733
0
LINE
8
BLACK
6
CONTINUOUS
10
0.37636
20
1.01733
11
0.376337
21
1.01707
0
LINE
8
BLACK
6
CONTINUOUS
10
0.376337
20
1.01707
11
0.37645
21
1.01682
0
LINE
8
BLACK
6
CONTINUOUS
10
0.37645
20
1.01682
11
0.376251
21
1.01608
0
LINE
8
BLACK
6
CONTINUOUS
10
0.376251
20
1.01608
11
0.376184
21
1.01532
0
LINE
8
BLACK
6
CONTINUOUS
10
0.376184
20
1.01532
11
0.375996
21
1.01513
0
LINE
8
BLACK
6
CONTINUOUS
10
0.375996
20
1.01513
11
0.375926
21
1.01487
0
LINE
8
BLACK
6
CONTINUOUS
10
0.375926
20
1.01487
11
0.375298
21
1.01443
0
LINE
8
BLACK
6
CONTINUOUS
10
0.375298
20
1.01443
11
0.374757
21
1.01389
0
LINE
8
BLACK
6
CONTINUOUS
10
0.374757
20
1.01389
11
0.358696
21
1.0064
0
LINE
8
BLACK
6
CONTINUOUS
10
0.358696
20
1.0064
11
0.384757
21
1.0064
0
LINE
8
BLACK
6
CONTINUOUS
10
0.384757
20
1.0064
11
0.385767
21
1.00622
0
LINE
8
BLACK
6
CONTINUOUS
10
0.385767
20
1.00622
11
0.387314
21
1.00492
0
LINE
8
BLACK
6
CONTINUOUS
10
0.387314
20
1.00492
11
0.387665
21
1.00293
0
LINE
8
BLACK
6
CONTINUOUS
10
0.387665
20
1.00293
11
0.386655
21
1.00118
0
LINE
8
BLACK
6
CONTINUOUS
10
0.386655
20
1.00118
11
0.384757
21
1.00049
0
LINE
8
BLACK
6
CONTINUOUS
10
0.384757
20
1.00049
11
0.345387
21
1.00049
0
LINE
8
BLACK
6
CONTINUOUS
10
0.345387
20
1.00049
11
0.344377
21
1.00067
0
LINE
8
BLACK
6
CONTINUOUS
10
0.344377
20
1.00067
11
0.344075
21
1.00092
0
LINE
8
BLACK
6
CONTINUOUS
10
0.344075
20
1.00092
11
0.343694
21
1.00102
0
LINE
8
BLACK
6
CONTINUOUS
10
0.343694
20
1.00102
11
0.343324
21
1.00155
0
LINE
8
BLACK
6
CONTINUOUS
10
0.343324
20
1.00155
11
0.342829
21
1.00197
0
LINE
8
BLACK
6
CONTINUOUS
10
0.342829
20
1.00197
11
0.342761
21
1.00236
0
LINE
8
BLACK
6
CONTINUOUS
10
0.342761
20
1.00236
11
0.342535
21
1.00268
0
LINE
8
BLACK
6
CONTINUOUS
10
0.342535
20
1.00268
11
0.342591
21
1.00332
0
LINE
8
BLACK
6
CONTINUOUS
10
0.342591
20
1.00332
11
0.342479
21
1.00396
0
LINE
8
BLACK
6
CONTINUOUS
10
0.342479
20
1.00396
11
0.342676
21
1.0043
0
LINE
8
BLACK
6
CONTINUOUS
10
0.342676
20
1.0043
11
0.34271
21
1.00469
0
LINE
8
BLACK
6
CONTINUOUS
10
0.34271
20
1.00469
11
0.343166
21
1.00515
0
LINE
8
BLACK
6
CONTINUOUS
10
0.343166
20
1.00515
11
0.343489
21
1.00571
0
LINE
8
BLACK
6
CONTINUOUS
10
0.343489
20
1.00571
11
0.343859
21
1.00584
0
LINE
8
BLACK
6
CONTINUOUS
10
0.343859
20
1.00584
11
0.344138
21
1.00612
0
LINE
8
BLACK
6
CONTINUOUS
10
0.344138
20
1.00612
11
0.366526
21
1.01657
0
LINE
8
BLACK
6
CONTINUOUS
10
0.366526
20
1.01657
11
0.344138
21
1.02701
0
LINE
8
BLACK
6
CONTINUOUS
10
0.344138
20
1.02701
11
0.343298
21
1.0276
0
LINE
8
BLACK
6
CONTINUOUS
10
0.343298
20
1.0276
11
0.343131
21
1.02796
0
LINE
8
BLACK
6
CONTINUOUS
10
0.343131
20
1.02796
11
0.342829
21
1.02821
0
LINE
8
BLACK
6
CONTINUOUS
10
0.342829
20
1.02821
11
0.342717
21
1.02885
0
LINE
8
BLACK
6
CONTINUOUS
10
0.342717
20
1.02885
11
0.342445
21
1.02943
0
LINE
8
BLACK
6
CONTINUOUS
10
0.342445
20
1.02943
11
0.342547
21
1.02981
0
LINE
8
BLACK
6
CONTINUOUS
10
0.342547
20
1.02981
11
0.342479
21
1.0302
0
LINE
8
BLACK
6
CONTINUOUS
10
0.342479
20
1.0302
11
0.342801
21
1.03076
0
LINE
8
BLACK
6
CONTINUOUS
10
0.342801
20
1.03076
11
0.342968
21
1.03138
0
LINE
8
BLACK
6
CONTINUOUS
10
0.342968
20
1.03138
11
0.343291
21
1.03161
0
LINE
8
BLACK
6
CONTINUOUS
10
0.343291
20
1.03161
11
0.343489
21
1.03195
0
LINE
8
BLACK
6
CONTINUOUS
10
0.343489
20
1.03195
11
0.344095
21
1.03217
0
LINE
8
BLACK
6
CONTINUOUS
10
0.344095
20
1.03217
11
0.344623
21
1.03254
0
LINE
8
BLACK
6
CONTINUOUS
10
0.344623
20
1.03254
11
0.345016
21
1.03251
0
LINE
8
BLACK
6
CONTINUOUS
10
0.345016
20
1.03251
11
0.345387
21
1.03264
0
LINE
8
BLACK
6
CONTINUOUS
10
0.345387
20
1.03264
11
0.384757
21
1.03264
0
LINE
8
BLACK
6
CONTINUOUS
10
0.384757
20
1.03264
11
0.385767
21
1.03247
0
LINE
8
BLACK
6
CONTINUOUS
10
0.383095
20
1.07302
11
0.38497
21
1.07115
0
LINE
8
BLACK
6
CONTINUOUS
10
0.38497
20
1.07115
11
0.385558
21
1.07031
0
LINE
8
BLACK
6
CONTINUOUS
10
0.385558
20
1.07031
11
0.385573
21
1.07013
0
LINE
8
BLACK
6
CONTINUOUS
10
0.385573
20
1.07013
11
0.385683
21
1.06999
0
LINE
8
BLACK
6
CONTINUOUS
10
0.385683
20
1.06999
11
0.387558
21
1.06437
0
LINE
8
BLACK
6
CONTINUOUS
10
0.387558
20
1.06437
11
0.387687
21
1.0635
0
LINE
8
BLACK
6
CONTINUOUS
10
0.387687
20
1.0635
11
0.387709
21
1.06344
0
LINE
8
BLACK
6
CONTINUOUS
10
0.387709
20
1.06344
11
0.387709
21
1.05969
0
LINE
8
BLACK
6
CONTINUOUS
10
0.387709
20
1.05969
11
0.387556
21
1.05882
0
LINE
8
BLACK
6
CONTINUOUS
10
0.387556
20
1.05882
11
0.387558
21
1.05875
0
LINE
8
BLACK
6
CONTINUOUS
10
0.387558
20
1.05875
11
0.385683
21
1.05313
0
LINE
8
BLACK
6
CONTINUOUS
10
0.385683
20
1.05313
11
0.385195
21
1.05223
0
LINE
8
BLACK
6
CONTINUOUS
10
0.385195
20
1.05223
11
0.385044
21
1.05213
0
LINE
8
BLACK
6
CONTINUOUS
10
0.385044
20
1.05213
11
0.38497
21
1.05197
0
LINE
8
BLACK
6
CONTINUOUS
10
0.38497
20
1.05197
11
0.38122
21
1.04823
0
LINE
8
BLACK
6
CONTINUOUS
10
0.38122
20
1.04823
11
0.380497
21
1.04772
0
LINE
8
BLACK
6
CONTINUOUS
10
0.380497
20
1.04772
11
0.380453
21
1.04767
0
LINE
8
BLACK
6
CONTINUOUS
10
0.380453
20
1.04767
11
0.376703
21
1.0458
0
LINE
8
BLACK
6
CONTINUOUS
10
0.376703
20
1.0458
11
0.376215
21
1.04565
0
LINE
8
BLACK
6
CONTINUOUS
10
0.376215
20
1.04565
11
0.376099
21
1.04557
0
LINE
8
BLACK
6
CONTINUOUS
10
0.376099
20
1.04557
11
0.3686
21
1.0437
0
LINE
8
BLACK
6
CONTINUOUS
10
0.3686
20
1.0437
11
0.368012
21
1.04366
0
LINE
8
BLACK
6
CONTINUOUS
10
0.368012
20
1.04366
11
0.367884
21
1.04361
0
LINE
8
BLACK
6
CONTINUOUS
10
0.367884
20
1.04361
11
0.362259
21
1.04361
0
LINE
8
BLACK
6
CONTINUOUS
10
0.362259
20
1.04361
11
0.361679
21
1.04371
0
LINE
8
BLACK
6
CONTINUOUS
10
0.361679
20
1.04371
11
0.361543
21
1.0437
0
LINE
8
BLACK
6
CONTINUOUS
10
0.361543
20
1.0437
11
0.354044
21
1.04557
0
LINE
8
BLACK
6
CONTINUOUS
10
0.354044
20
1.04557
11
0.353579
21
1.04578
0
LINE
8
BLACK
6
CONTINUOUS
10
0.353579
20
1.04578
11
0.35344
21
1.0458
0
LINE
8
BLACK
6
CONTINUOUS
10
0.35344
20
1.0458
11
0.34969
21
1.04767
0
LINE
8
BLACK
6
CONTINUOUS
10
0.34969
20
1.04767
11
0.348981
21
1.0482
0
LINE
8
BLACK
6
CONTINUOUS
10
0.348981
20
1.0482
11
0.348923
21
1.04823
0
LINE
8
BLACK
6
CONTINUOUS
10
0.348923
20
1.04823
11
0.345173
21
1.05197
0
LINE
8
BLACK
6
CONTINUOUS
10
0.345173
20
1.05197
11
0.344585
21
1.05281
0
LINE
8
BLACK
6
CONTINUOUS
10
0.344585
20
1.05281
11
0.34457
21
1.05299
0
LINE
8
BLACK
6
CONTINUOUS
10
0.34457
20
1.05299
11
0.34446
21
1.05313
0
LINE
8
BLACK
6
CONTINUOUS
10
0.34446
20
1.05313
11
0.342585
21
1.05875
0
LINE
8
BLACK
6
CONTINUOUS
10
0.342585
20
1.05875
11
0.342456
21
1.05963
0
LINE
8
BLACK
6
CONTINUOUS
10
0.342456
20
1.05963
11
0.342434
21
1.05969
0
LINE
8
BLACK
6
CONTINUOUS
10
0.342434
20
1.05969
11
0.342434
21
1.06344
0
LINE
8
BLACK
6
CONTINUOUS
10
0.342434
20
1.06344
11
0.342587
21
1.06431
0
LINE
8
BLACK
6
CONTINUOUS
10
0.342587
20
1.06431
11
0.342585
21
1.06437
0
LINE
8
BLACK
6
CONTINUOUS
10
0.342585
20
1.06437
11
0.34446
21
1.06999
0
LINE
8
BLACK
6
CONTINUOUS
10
0.34446
20
1.06999
11
0.344948
21
1.0709
0
LINE
8
BLACK
6
CONTINUOUS
10
0.344948
20
1.0709
11
0.345099
21
1.07099
0
LINE
8
BLACK
6
CONTINUOUS
10
0.345099
20
1.07099
11
0.345173
21
1.07115
0
LINE
8
BLACK
6
CONTINUOUS
10
0.345173
20
1.07115
11
0.347048
21
1.07302
0
LINE
8
BLACK
6
CONTINUOUS
10
0.347048
20
1.07302
11
0.347888
21
1.07361
0
LINE
8
BLACK
6
CONTINUOUS
10
0.347888
20
1.07361
11
0.3499
21
1.07379
0
LINE
8
BLACK
6
CONTINUOUS
10
0.3499
20
1.07379
11
0.351555
21
1.07263
0
LINE
8
BLACK
6
CONTINUOUS
10
0.351555
20
1.07263
11
0.352078
21
1.07068
0
LINE
8
BLACK
6
CONTINUOUS
10
0.352078
20
1.07068
11
0.351224
21
1.06885
0
LINE
8
BLACK
6
CONTINUOUS
10
0.351224
20
1.06885
11
0.349842
21
1.06747
0
LINE
8
BLACK
6
CONTINUOUS
10
0.349842
20
1.06747
11
0.348339
21
1.06296
0
LINE
8
BLACK
6
CONTINUOUS
10
0.348339
20
1.06296
11
0.348339
21
1.06017
0
LINE
8
BLACK
6
CONTINUOUS
10
0.348339
20
1.06017
11
0.349842
21
1.05566
0
LINE
8
BLACK
6
CONTINUOUS
10
0.349842
20
1.05566
11
0.35276
21
1.05274
0
LINE
8
BLACK
6
CONTINUOUS
10
0.35276
20
1.05274
11
0.355791
21
1.05122
0
LINE
8
BLACK
6
CONTINUOUS
10
0.355791
20
1.05122
11
0.362623
21
1.04952
0
LINE
8
BLACK
6
CONTINUOUS
10
0.362623
20
1.04952
11
0.36752
21
1.04952
0
LINE
8
BLACK
6
CONTINUOUS
10
0.36752
20
1.04952
11
0.374352
21
1.05122
0
LINE
8
BLACK
6
CONTINUOUS
10
0.374352
20
1.05122
11
0.377383
21
1.05274
0
LINE
8
BLACK
6
CONTINUOUS
10
0.377383
20
1.05274
11
0.380301
21
1.05566
0
LINE
8
BLACK
6
CONTINUOUS
10
0.380301
20
1.05566
11
0.381804
21
1.06017
0
LINE
8
BLACK
6
CONTINUOUS
10
0.381804
20
1.06017
11
0.381804
21
1.06296
0
LINE
8
BLACK
6
CONTINUOUS
10
0.381804
20
1.06296
11
0.380301
21
1.06747
0
LINE
8
BLACK
6
CONTINUOUS
10
0.380301
20
1.06747
11
0.378919
21
1.06885
0
LINE
8
BLACK
6
CONTINUOUS
10
0.378919
20
1.06885
11
0.378331
21
1.06969
0
LINE
8
BLACK
6
CONTINUOUS
10
0.378331
20
1.06969
11
0.378155
21
1.0717
0
LINE
8
BLACK
6
CONTINUOUS
10
0.378155
20
1.0717
11
0.379313
21
1.07335
0
LINE
8
BLACK
6
CONTINUOUS
10
0.379313
20
1.07335
11
0.381264
21
1.07388
0
LINE
8
BLACK
6
CONTINUOUS
10
0.381264
20
1.07388
11
0.383095
21
1.07302
0
LINE
8
BLACK
6
CONTINUOUS
10
1.92038
20
1.17289
11
1.92051
21
1.17291
0
LINE
8
BLACK
6
CONTINUOUS
10
1.92051
20
1.17291
11
1.92063
21
1.17284
0
LINE
8
BLACK
6
CONTINUOUS
10
1.92063
20
1.17284
11
1.92101
21
1.17277
0
LINE
8
BLACK
6
CONTINUOUS
10
1.92101
20
1.17277
11
1.9216
21
1.17228
0
LINE
8
BLACK
6
CONTINUOUS
10
1.9216
20
1.17228
11
1.92226
21
1.1719
0
LINE
8
BLACK
6
CONTINUOUS
10
1.92226
20
1.1719
11
1.92235
21
1.17165
0
LINE
8
BLACK
6
CONTINUOUS
10
1.92235
20
1.17165
11
1.92256
21
1.17148
0
LINE
8
BLACK
6
CONTINUOUS
10
1.92256
20
1.17148
11
1.92269
21
1.17072
0
LINE
8
BLACK
6
CONTINUOUS
10
1.92269
20
1.17072
11
1.92295
21
1.17
0
LINE
8
BLACK
6
CONTINUOUS
10
1.92295
20
1.17
11
1.92295
21
1.07
0
LINE
8
BLACK
6
CONTINUOUS
10
1.92295
20
1.07
11
1.92289
21
1.06962
0
LINE
8
BLACK
6
CONTINUOUS
10
1.92289
20
1.06962
11
1.92291
21
1.06949
0
LINE
8
BLACK
6
CONTINUOUS
10
1.92291
20
1.06949
11
1.92284
21
1.06937
0
LINE
8
BLACK
6
CONTINUOUS
10
1.92284
20
1.06937
11
1.92277
21
1.06899
0
LINE
8
BLACK
6
CONTINUOUS
10
1.92277
20
1.06899
11
1.92228
21
1.0684
0
LINE
8
BLACK
6
CONTINUOUS
10
1.92228
20
1.0684
11
1.9219
21
1.06774
0
LINE
8
BLACK
6
CONTINUOUS
10
1.9219
20
1.06774
11
1.92165
21
1.06765
0
LINE
8
BLACK
6
CONTINUOUS
10
1.92165
20
1.06765
11
1.92148
21
1.06744
0
LINE
8
BLACK
6
CONTINUOUS
10
1.92148
20
1.06744
11
1.92072
21
1.06731
0
LINE
8
BLACK
6
CONTINUOUS
10
1.92072
20
1.06731
11
1.92
21
1.06705
0
LINE
8
BLACK
6
CONTINUOUS
10
1.92
20
1.06705
11
1.72
21
1.06705
0
LINE
8
BLACK
6
CONTINUOUS
10
1.72
20
1.06705
11
1.71962
21
1.06711
0
LINE
8
BLACK
6
CONTINUOUS
10
1.71962
20
1.06711
11
1.71949
21
1.06709
0
LINE
8
BLACK
6
CONTINUOUS
10
1.71949
20
1.06709
11
1.71937
21
1.06716
0
LINE
8
BLACK
6
CONTINUOUS
10
1.71937
20
1.06716
11
1.71899
21
1.06723
0
LINE
8
BLACK
6
CONTINUOUS
10
1.71899
20
1.06723
11
1.7184
21
1.06772
0
LINE
8
BLACK
6
CONTINUOUS
10
1.7184
20
1.06772
11
1.71774
21
1.0681
0
LINE
8
BLACK
6
CONTINUOUS
10
1.71774
20
1.0681
11
1.71765
21
1.06835
0
LINE
8
BLACK
6
CONTINUOUS
10
1.71765
20
1.06835
11
1.71744
21
1.06852
0
LINE
8
BLACK
6
CONTINUOUS
10
1.71744
20
1.06852
11
1.71731
21
1.06928
0
LINE
8
BLACK
6
CONTINUOUS
10
1.71731
20
1.06928
11
1.71705
21
1.07
0
LINE
8
BLACK
6
CONTINUOUS
10
1.71705
20
1.07
11
1.71705
21
1.17
0
LINE
8
BLACK
6
CONTINUOUS
10
1.71705
20
1.17
11
1.71711
21
1.17038
0
LINE
8
BLACK
6
CONTINUOUS
10
1.71711
20
1.17038
11
1.71709
21
1.17051
0
LINE
8
BLACK
6
CONTINUOUS
10
1.71709
20
1.17051
11
1.71716
21
1.17063
0
LINE
8
BLACK
6
CONTINUOUS
10
1.71716
20
1.17063
11
1.71723
21
1.17101
0
LINE
8
BLACK
6
CONTINUOUS
10
1.71723
20
1.17101
11
1.71772
21
1.1716
0
LINE
8
BLACK
6
CONTINUOUS
10
1.71772
20
1.1716
11
1.7181
21
1.17226
0
LINE
8
BLACK
6
CONTINUOUS
10
1.7181
20
1.17226
11
1.71835
21
1.17235
0
LINE
8
BLACK
6
CONTINUOUS
10
1.71835
20
1.17235
11
1.71852
21
1.17256
0
LINE
8
BLACK
6
CONTINUOUS
10
1.71852
20
1.17256
11
1.71928
21
1.17269
0
LINE
8
BLACK
6
CONTINUOUS
10
1.71928
20
1.17269
11
1.72
21
1.17295
0
LINE
8
BLACK
6
CONTINUOUS
10
1.72
20
1.17295
11
1.92
21
1.17295
0
LINE
8
BLACK
6
CONTINUOUS
10
1.92
20
1.17295
11
1.92038
21
1.17289
0
LINE
8
BLACK
6
CONTINUOUS
10
1.72295
20
1.16705
11
1.72295
21
1.07295
0
LINE
8
BLACK
6
CONTINUOUS
10
1.72295
20
1.07295
11
1.91705
21
1.07295
0
LINE
8
BLACK
6
CONTINUOUS
10
1.91705
20
1.07295
11
1.91705
21
1.16705
0
LINE
8
BLACK
6
CONTINUOUS
10
1.91705
20
1.16705
11
1.72295
21
1.16705
0
LINE
8
BLACK
6
CONTINUOUS
10
0.347024
20
1.11276
11
0.365072
21
1.10073
0
LINE
8
BLACK
6
CONTINUOUS
10
0.365072
20
1.10073
11
0.383119
21
1.11276
0
LINE
8
BLACK
6
CONTINUOUS
10
0.383119
20
1.11276
11
0.384058
21
1.11317
0
LINE
8
BLACK
6
CONTINUOUS
10
0.384058
20
1.11317
11
0.386065
21
1.11295
0
LINE
8
BLACK
6
CONTINUOUS
10
0.386065
20
1.11295
11
0.387461
21
1.11149
0
LINE
8
BLACK
6
CONTINUOUS
10
0.387461
20
1.11149
11
0.387591
21
1.10948
0
LINE
8
BLACK
6
CONTINUOUS
10
0.387591
20
1.10948
11
0.386395
21
1.10785
0
LINE
8
BLACK
6
CONTINUOUS
10
0.386395
20
1.10785
11
0.370395
21
1.09718
0
LINE
8
BLACK
6
CONTINUOUS
10
0.370395
20
1.09718
11
0.386395
21
1.08652
0
LINE
8
BLACK
6
CONTINUOUS
10
0.386395
20
1.08652
11
0.387136
21
1.08581
0
LINE
8
BLACK
6
CONTINUOUS
10
0.387136
20
1.08581
11
0.387703
21
1.08387
0
LINE
8
BLACK
6
CONTINUOUS
10
0.387703
20
1.08387
11
0.386892
21
1.08202
0
LINE
8
BLACK
6
CONTINUOUS
10
0.386892
20
1.08202
11
0.385081
21
1.08112
0
LINE
8
BLACK
6
CONTINUOUS
10
0.385081
20
1.08112
11
0.383119
21
1.0816
0
LINE
8
BLACK
6
CONTINUOUS
10
0.383119
20
1.0816
11
0.365072
21
1.09363
0
LINE
8
BLACK
6
CONTINUOUS
10
0.365072
20
1.09363
11
0.347024
21
1.0816
0
LINE
8
BLACK
6
CONTINUOUS
10
0.347024
20
1.0816
11
0.346085
21
1.08119
0
LINE
8
BLACK
6
CONTINUOUS
10
0.346085
20
1.08119
11
0.344078
21
1.08141
0
LINE
8
BLACK
6
CONTINUOUS
10
0.344078
20
1.08141
11
0.342683
21
1.08287
0
LINE
8
BLACK
6
CONTINUOUS
10
0.342683
20
1.08287
11
0.342553
21
1.08489
0
LINE
8
BLACK
6
CONTINUOUS
10
0.342553
20
1.08489
11
0.343749
21
1.08652
0
LINE
8
BLACK
6
CONTINUOUS
10
0.343749
20
1.08652
11
0.359748
21
1.09718
0
LINE
8
BLACK
6
CONTINUOUS
10
0.359748
20
1.09718
11
0.343749
21
1.10785
0
LINE
8
BLACK
6
CONTINUOUS
10
0.343749
20
1.10785
11
0.343007
21
1.10856
0
LINE
8
BLACK
6
CONTINUOUS
10
0.343007
20
1.10856
11
0.34244
21
1.1105
0
LINE
8
BLACK
6
CONTINUOUS
10
0.34244
20
1.1105
11
0.343251
21
1.11235
0
LINE
8
BLACK
6
CONTINUOUS
10
0.343251
20
1.11235
11
0.345062
21
1.11324
0
LINE
8
BLACK
6
CONTINUOUS
10
0.345062
20
1.11324
11
0.347024
21
1.11276
  0
ENDSEC
  0
EOF
