  0
SECTION
  2
HEADER
  9
$ANGBASE
  50
0.0
  9
$ANGDIR
  70
1
  9
$MEASUREMENT
  70
0
  0
ENDSEC
  0
SECTION
  2
TABLES
  0
TABLE
  2
LTYPE
  70
4
  0
LTYPE
  5
40F
  2
CONTINUOUS
  70
0
  3
Solid line
  72
65
  73
0
  40
0.0
  0
LTYPE
  5
410
  2
DASHDOT
 70
0
  3
Dash Dot ____ _ ____ _
 72
65
 73
4
 40
2.0
 49
1.25
 49
-0.25
 49
0.25
 49
-0.25
  0
LTYPE
  5
411
  2
DASHED
 70
0
  3
Dashed __ __ __ __ __
 72
65
 73
2
 40
0.75
 49
0.5
 49
-0.25
  0
LTYPE
  5
43B
  2
DOTTED
 70
0
  3
Dotted .  .  .  .
 72
65
 73
2
 40
0.2
 49
0.0
 49
-0.2
  0
ENDTAB
  0
TABLE
  2
STYLE
  70
4
  0
STYLE
  2
KICAD
  70
0
  40
0
  41
1
  42
1
  50
0
  71
0
  3
isocp.shx
  0
STYLE
  2
KICADB
  70
0
  40
0
  41
1
  42
1
  50
0
  71
0
  3
isocp.shx
  0
STYLE
  2
KICADI
  70
0
  40
0
  41
1
  42
1
  50
15
  71
0
  3
isocp.shx
  0
STYLE
  2
KICADBI
  70
0
  40
0
  41
1
  42
1
  50
15
  71
0
  3
isocp.shx
  0
ENDTAB
  0
TABLE
  2
LAYER
  70
1
  0
LAYER
  2
BLACK
  70
0
  62
7
  6
CONTINUOUS
  0
ENDTAB
  0
ENDSEC
  0
SECTION
  2
ENTITIES
0
LINE
8
BLACK
6
CONTINUOUS
10
0.632681
20
0.328614
11
0.640066
21
0.326373
0
LINE
8
BLACK
6
CONTINUOUS
10
0.640066
20
0.326373
11
0.646873
21
0.322735
0
LINE
8
BLACK
6
CONTINUOUS
10
0.646873
20
0.322735
11
0.652839
21
0.317839
0
LINE
8
BLACK
6
CONTINUOUS
10
0.652839
20
0.317839
11
0.657735
21
0.311873
0
LINE
8
BLACK
6
CONTINUOUS
10
0.657735
20
0.311873
11
0.661373
21
0.305066
0
LINE
8
BLACK
6
CONTINUOUS
10
0.661373
20
0.305066
11
0.663614
21
0.297681
0
LINE
8
BLACK
6
CONTINUOUS
10
0.663614
20
0.297681
11
0.66437
21
0.29
0
LINE
8
BLACK
6
CONTINUOUS
10
0.66437
20
0.29
11
0.663614
21
0.282319
0
LINE
8
BLACK
6
CONTINUOUS
10
0.663614
20
0.282319
11
0.661373
21
0.274934
0
LINE
8
BLACK
6
CONTINUOUS
10
0.661373
20
0.274934
11
0.657735
21
0.268127
0
LINE
8
BLACK
6
CONTINUOUS
10
0.657735
20
0.268127
11
0.652839
21
0.262161
0
LINE
8
BLACK
6
CONTINUOUS
10
0.652839
20
0.262161
11
0.646873
21
0.257265
0
LINE
8
BLACK
6
CONTINUOUS
10
0.646873
20
0.257265
11
0.640066
21
0.253627
0
LINE
8
BLACK
6
CONTINUOUS
10
0.640066
20
0.253627
11
0.632681
21
0.251386
0
LINE
8
BLACK
6
CONTINUOUS
10
0.632681
20
0.251386
11
0.625
21
0.25063
0
LINE
8
BLACK
6
CONTINUOUS
10
0.625
20
0.25063
11
0.617319
21
0.251386
0
LINE
8
BLACK
6
CONTINUOUS
10
0.617319
20
0.251386
11
0.609934
21
0.253627
0
LINE
8
BLACK
6
CONTINUOUS
10
0.609934
20
0.253627
11
0.603127
21
0.257265
0
LINE
8
BLACK
6
CONTINUOUS
10
0.603127
20
0.257265
11
0.597161
21
0.262161
0
LINE
8
BLACK
6
CONTINUOUS
10
0.597161
20
0.262161
11
0.592265
21
0.268127
0
LINE
8
BLACK
6
CONTINUOUS
10
0.592265
20
0.268127
11
0.588627
21
0.274934
0
LINE
8
BLACK
6
CONTINUOUS
10
0.588627
20
0.274934
11
0.586386
21
0.282319
0
LINE
8
BLACK
6
CONTINUOUS
10
0.586386
20
0.282319
11
0.58563
21
0.29
0
LINE
8
BLACK
6
CONTINUOUS
10
0.58563
20
0.29
11
0.586386
21
0.297681
0
LINE
8
BLACK
6
CONTINUOUS
10
0.586386
20
0.297681
11
0.588627
21
0.305066
0
LINE
8
BLACK
6
CONTINUOUS
10
0.588627
20
0.305066
11
0.592265
21
0.311873
0
LINE
8
BLACK
6
CONTINUOUS
10
0.592265
20
0.311873
11
0.597161
21
0.317839
0
LINE
8
BLACK
6
CONTINUOUS
10
0.597161
20
0.317839
11
0.603127
21
0.322735
0
LINE
8
BLACK
6
CONTINUOUS
10
0.603127
20
0.322735
11
0.609934
21
0.326373
0
LINE
8
BLACK
6
CONTINUOUS
10
0.609934
20
0.326373
11
0.617319
21
0.328614
0
LINE
8
BLACK
6
CONTINUOUS
10
0.617319
20
0.328614
11
0.625
21
0.32937
0
LINE
8
BLACK
6
CONTINUOUS
10
0.625
20
0.32937
11
0.632681
21
0.328614
0
LINE
8
BLACK
6
CONTINUOUS
10
0.42051
20
0.516316
11
0.433874
21
0.513148
0
LINE
8
BLACK
6
CONTINUOUS
10
0.433874
20
0.513148
11
0.446781
21
0.508451
0
LINE
8
BLACK
6
CONTINUOUS
10
0.446781
20
0.508451
11
0.459055
21
0.502286
0
LINE
8
BLACK
6
CONTINUOUS
10
0.459055
20
0.502286
11
0.470531
21
0.494739
0
LINE
8
BLACK
6
CONTINUOUS
10
0.470531
20
0.494739
11
0.481052
21
0.48591
0
LINE
8
BLACK
6
CONTINUOUS
10
0.481052
20
0.48591
11
0.490478
21
0.47592
0
LINE
8
BLACK
6
CONTINUOUS
10
0.490478
20
0.47592
11
0.49868
21
0.464903
0
LINE
8
BLACK
6
CONTINUOUS
10
0.49868
20
0.464903
11
0.505547
21
0.453008
0
LINE
8
BLACK
6
CONTINUOUS
10
0.505547
20
0.453008
11
0.510987
21
0.440396
0
LINE
8
BLACK
6
CONTINUOUS
10
0.510987
20
0.440396
11
0.514927
21
0.427238
0
LINE
8
BLACK
6
CONTINUOUS
10
0.514927
20
0.427238
11
0.517312
21
0.413712
0
LINE
8
BLACK
6
CONTINUOUS
10
0.517312
20
0.413712
11
0.51811
21
0.4
0
LINE
8
BLACK
6
CONTINUOUS
10
0.51811
20
0.4
11
0.517312
21
0.386288
0
LINE
8
BLACK
6
CONTINUOUS
10
0.517312
20
0.386288
11
0.514927
21
0.372762
0
LINE
8
BLACK
6
CONTINUOUS
10
0.514927
20
0.372762
11
0.510987
21
0.359604
0
LINE
8
BLACK
6
CONTINUOUS
10
0.510987
20
0.359604
11
0.505547
21
0.346992
0
LINE
8
BLACK
6
CONTINUOUS
10
0.505547
20
0.346992
11
0.49868
21
0.335097
0
LINE
8
BLACK
6
CONTINUOUS
10
0.49868
20
0.335097
11
0.490478
21
0.32408
0
LINE
8
BLACK
6
CONTINUOUS
10
0.490478
20
0.32408
11
0.481052
21
0.31409
0
LINE
8
BLACK
6
CONTINUOUS
10
0.481052
20
0.31409
11
0.470531
21
0.305261
0
LINE
8
BLACK
6
CONTINUOUS
10
0.470531
20
0.305261
11
0.459055
21
0.297714
0
LINE
8
BLACK
6
CONTINUOUS
10
0.459055
20
0.297714
11
0.446781
21
0.291549
0
LINE
8
BLACK
6
CONTINUOUS
10
0.446781
20
0.291549
11
0.433874
21
0.286852
0
LINE
8
BLACK
6
CONTINUOUS
10
0.433874
20
0.286852
11
0.42051
21
0.283684
0
LINE
8
BLACK
6
CONTINUOUS
10
0.42051
20
0.283684
11
0.406867
21
0.28209
0
LINE
8
BLACK
6
CONTINUOUS
10
0.406867
20
0.28209
11
0.393133
21
0.28209
0
LINE
8
BLACK
6
CONTINUOUS
10
0.393133
20
0.28209
11
0.37949
21
0.283684
0
LINE
8
BLACK
6
CONTINUOUS
10
0.37949
20
0.283684
11
0.366126
21
0.286852
0
LINE
8
BLACK
6
CONTINUOUS
10
0.366126
20
0.286852
11
0.353219
21
0.291549
0
LINE
8
BLACK
6
CONTINUOUS
10
0.353219
20
0.291549
11
0.340945
21
0.297714
0
LINE
8
BLACK
6
CONTINUOUS
10
0.340945
20
0.297714
11
0.329469
21
0.305261
0
LINE
8
BLACK
6
CONTINUOUS
10
0.329469
20
0.305261
11
0.318948
21
0.31409
0
LINE
8
BLACK
6
CONTINUOUS
10
0.318948
20
0.31409
11
0.309522
21
0.32408
0
LINE
8
BLACK
6
CONTINUOUS
10
0.309522
20
0.32408
11
0.30132
21
0.335097
0
LINE
8
BLACK
6
CONTINUOUS
10
0.30132
20
0.335097
11
0.294453
21
0.346992
0
LINE
8
BLACK
6
CONTINUOUS
10
0.294453
20
0.346992
11
0.289013
21
0.359604
0
LINE
8
BLACK
6
CONTINUOUS
10
0.289013
20
0.359604
11
0.285073
21
0.372762
0
LINE
8
BLACK
6
CONTINUOUS
10
0.285073
20
0.372762
11
0.282688
21
0.386288
0
LINE
8
BLACK
6
CONTINUOUS
10
0.282688
20
0.386288
11
0.28189
21
0.4
0
LINE
8
BLACK
6
CONTINUOUS
10
0.28189
20
0.4
11
0.282688
21
0.413712
0
LINE
8
BLACK
6
CONTINUOUS
10
0.282688
20
0.413712
11
0.285073
21
0.427238
0
LINE
8
BLACK
6
CONTINUOUS
10
0.285073
20
0.427238
11
0.289013
21
0.440396
0
LINE
8
BLACK
6
CONTINUOUS
10
0.289013
20
0.440396
11
0.294453
21
0.453008
0
LINE
8
BLACK
6
CONTINUOUS
10
0.294453
20
0.453008
11
0.30132
21
0.464903
0
LINE
8
BLACK
6
CONTINUOUS
10
0.30132
20
0.464903
11
0.309522
21
0.47592
0
LINE
8
BLACK
6
CONTINUOUS
10
0.309522
20
0.47592
11
0.318948
21
0.48591
0
LINE
8
BLACK
6
CONTINUOUS
10
0.318948
20
0.48591
11
0.329469
21
0.494739
0
LINE
8
BLACK
6
CONTINUOUS
10
0.329469
20
0.494739
11
0.340945
21
0.502286
0
LINE
8
BLACK
6
CONTINUOUS
10
0.340945
20
0.502286
11
0.353219
21
0.508451
0
LINE
8
BLACK
6
CONTINUOUS
10
0.353219
20
0.508451
11
0.366126
21
0.513148
0
LINE
8
BLACK
6
CONTINUOUS
10
0.366126
20
0.513148
11
0.37949
21
0.516316
0
LINE
8
BLACK
6
CONTINUOUS
10
0.37949
20
0.516316
11
0.393133
21
0.51791
0
LINE
8
BLACK
6
CONTINUOUS
10
0.393133
20
0.51791
11
0.406867
21
0.51791
0
LINE
8
BLACK
6
CONTINUOUS
10
0.406867
20
0.51791
11
0.42051
21
0.516316
0
LINE
8
BLACK
6
CONTINUOUS
10
2.42051
20
0.516316
11
2.43387
21
0.513148
0
LINE
8
BLACK
6
CONTINUOUS
10
2.43387
20
0.513148
11
2.44678
21
0.508451
0
LINE
8
BLACK
6
CONTINUOUS
10
2.44678
20
0.508451
11
2.45906
21
0.502286
0
LINE
8
BLACK
6
CONTINUOUS
10
2.45906
20
0.502286
11
2.47053
21
0.494739
0
LINE
8
BLACK
6
CONTINUOUS
10
2.47053
20
0.494739
11
2.48105
21
0.48591
0
LINE
8
BLACK
6
CONTINUOUS
10
2.48105
20
0.48591
11
2.49048
21
0.47592
0
LINE
8
BLACK
6
CONTINUOUS
10
2.49048
20
0.47592
11
2.49868
21
0.464903
0
LINE
8
BLACK
6
CONTINUOUS
10
2.49868
20
0.464903
11
2.50555
21
0.453008
0
LINE
8
BLACK
6
CONTINUOUS
10
2.50555
20
0.453008
11
2.51099
21
0.440396
0
LINE
8
BLACK
6
CONTINUOUS
10
2.51099
20
0.440396
11
2.51493
21
0.427238
0
LINE
8
BLACK
6
CONTINUOUS
10
2.51493
20
0.427238
11
2.51731
21
0.413712
0
LINE
8
BLACK
6
CONTINUOUS
10
2.51731
20
0.413712
11
2.51811
21
0.4
0
LINE
8
BLACK
6
CONTINUOUS
10
2.51811
20
0.4
11
2.51731
21
0.386288
0
LINE
8
BLACK
6
CONTINUOUS
10
2.51731
20
0.386288
11
2.51493
21
0.372762
0
LINE
8
BLACK
6
CONTINUOUS
10
2.51493
20
0.372762
11
2.51099
21
0.359604
0
LINE
8
BLACK
6
CONTINUOUS
10
2.51099
20
0.359604
11
2.50555
21
0.346992
0
LINE
8
BLACK
6
CONTINUOUS
10
2.50555
20
0.346992
11
2.49868
21
0.335097
0
LINE
8
BLACK
6
CONTINUOUS
10
2.49868
20
0.335097
11
2.49048
21
0.32408
0
LINE
8
BLACK
6
CONTINUOUS
10
2.49048
20
0.32408
11
2.48105
21
0.31409
0
LINE
8
BLACK
6
CONTINUOUS
10
2.48105
20
0.31409
11
2.47053
21
0.305261
0
LINE
8
BLACK
6
CONTINUOUS
10
2.47053
20
0.305261
11
2.45906
21
0.297714
0
LINE
8
BLACK
6
CONTINUOUS
10
2.45906
20
0.297714
11
2.44678
21
0.291549
0
LINE
8
BLACK
6
CONTINUOUS
10
2.44678
20
0.291549
11
2.43387
21
0.286852
0
LINE
8
BLACK
6
CONTINUOUS
10
2.43387
20
0.286852
11
2.42051
21
0.283684
0
LINE
8
BLACK
6
CONTINUOUS
10
2.42051
20
0.283684
11
2.40687
21
0.28209
0
LINE
8
BLACK
6
CONTINUOUS
10
2.40687
20
0.28209
11
2.39313
21
0.28209
0
LINE
8
BLACK
6
CONTINUOUS
10
2.39313
20
0.28209
11
2.37949
21
0.283684
0
LINE
8
BLACK
6
CONTINUOUS
10
2.37949
20
0.283684
11
2.36613
21
0.286852
0
LINE
8
BLACK
6
CONTINUOUS
10
2.36613
20
0.286852
11
2.35322
21
0.291549
0
LINE
8
BLACK
6
CONTINUOUS
10
2.35322
20
0.291549
11
2.34094
21
0.297714
0
LINE
8
BLACK
6
CONTINUOUS
10
2.34094
20
0.297714
11
2.32947
21
0.305261
0
LINE
8
BLACK
6
CONTINUOUS
10
2.32947
20
0.305261
11
2.31895
21
0.31409
0
LINE
8
BLACK
6
CONTINUOUS
10
2.31895
20
0.31409
11
2.30952
21
0.32408
0
LINE
8
BLACK
6
CONTINUOUS
10
2.30952
20
0.32408
11
2.30132
21
0.335097
0
LINE
8
BLACK
6
CONTINUOUS
10
2.30132
20
0.335097
11
2.29445
21
0.346992
0
LINE
8
BLACK
6
CONTINUOUS
10
2.29445
20
0.346992
11
2.28901
21
0.359604
0
LINE
8
BLACK
6
CONTINUOUS
10
2.28901
20
0.359604
11
2.28507
21
0.372762
0
LINE
8
BLACK
6
CONTINUOUS
10
2.28507
20
0.372762
11
2.28269
21
0.386288
0
LINE
8
BLACK
6
CONTINUOUS
10
2.28269
20
0.386288
11
2.28189
21
0.4
0
LINE
8
BLACK
6
CONTINUOUS
10
2.28189
20
0.4
11
2.28269
21
0.413712
0
LINE
8
BLACK
6
CONTINUOUS
10
2.28269
20
0.413712
11
2.28507
21
0.427238
0
LINE
8
BLACK
6
CONTINUOUS
10
2.28507
20
0.427238
11
2.28901
21
0.440396
0
LINE
8
BLACK
6
CONTINUOUS
10
2.28901
20
0.440396
11
2.29445
21
0.453008
0
LINE
8
BLACK
6
CONTINUOUS
10
2.29445
20
0.453008
11
2.30132
21
0.464903
0
LINE
8
BLACK
6
CONTINUOUS
10
2.30132
20
0.464903
11
2.30952
21
0.47592
0
LINE
8
BLACK
6
CONTINUOUS
10
2.30952
20
0.47592
11
2.31895
21
0.48591
0
LINE
8
BLACK
6
CONTINUOUS
10
2.31895
20
0.48591
11
2.32947
21
0.494739
0
LINE
8
BLACK
6
CONTINUOUS
10
2.32947
20
0.494739
11
2.34094
21
0.502286
0
LINE
8
BLACK
6
CONTINUOUS
10
2.34094
20
0.502286
11
2.35322
21
0.508451
0
LINE
8
BLACK
6
CONTINUOUS
10
2.35322
20
0.508451
11
2.36613
21
0.513148
0
LINE
8
BLACK
6
CONTINUOUS
10
2.36613
20
0.513148
11
2.37949
21
0.516316
0
LINE
8
BLACK
6
CONTINUOUS
10
2.37949
20
0.516316
11
2.39313
21
0.51791
0
LINE
8
BLACK
6
CONTINUOUS
10
2.39313
20
0.51791
11
2.40687
21
0.51791
0
LINE
8
BLACK
6
CONTINUOUS
10
2.40687
20
0.51791
11
2.42051
21
0.516316
0
LINE
8
BLACK
6
CONTINUOUS
10
0.884252
20
0.393701
11
0.884252
21
0.354331
0
LINE
8
BLACK
6
CONTINUOUS
10
0.884252
20
0.354331
11
0.793701
21
0.354331
0
LINE
8
BLACK
6
CONTINUOUS
10
0.793701
20
0.354331
11
0.754331
21
0.354331
0
LINE
8
BLACK
6
CONTINUOUS
10
0.754331
20
0.354331
11
0.754331
21
0.393701
0
LINE
8
BLACK
6
CONTINUOUS
10
0.754331
20
0.393701
11
0.754331
21
0.484252
0
LINE
8
BLACK
6
CONTINUOUS
10
0.754331
20
0.484252
11
0.793701
21
0.484252
0
LINE
8
BLACK
6
CONTINUOUS
10
0.793701
20
0.484252
11
0.793701
21
0.393701
0
LINE
8
BLACK
6
CONTINUOUS
10
0.793701
20
0.393701
11
0.884252
21
0.393701
0
LINE
8
BLACK
6
CONTINUOUS
10
1.12047
20
0.354331
11
0.970866
21
0.354331
0
LINE
8
BLACK
6
CONTINUOUS
10
0.970866
20
0.354331
11
0.970866
21
0.393701
0
LINE
8
BLACK
6
CONTINUOUS
10
0.970866
20
0.393701
11
1.12047
21
0.393701
0
LINE
8
BLACK
6
CONTINUOUS
10
1.12047
20
0.393701
11
1.12047
21
0.354331
0
LINE
8
BLACK
6
CONTINUOUS
10
1.35669
20
0.354331
11
1.20709
21
0.354331
0
LINE
8
BLACK
6
CONTINUOUS
10
1.20709
20
0.354331
11
1.20709
21
0.393701
0
LINE
8
BLACK
6
CONTINUOUS
10
1.20709
20
0.393701
11
1.35669
21
0.393701
0
LINE
8
BLACK
6
CONTINUOUS
10
1.35669
20
0.393701
11
1.35669
21
0.354331
0
LINE
8
BLACK
6
CONTINUOUS
10
1.59291
20
0.354331
11
1.44331
21
0.354331
0
LINE
8
BLACK
6
CONTINUOUS
10
1.44331
20
0.354331
11
1.44331
21
0.393701
0
LINE
8
BLACK
6
CONTINUOUS
10
1.44331
20
0.393701
11
1.59291
21
0.393701
0
LINE
8
BLACK
6
CONTINUOUS
10
1.59291
20
0.393701
11
1.59291
21
0.354331
0
LINE
8
BLACK
6
CONTINUOUS
10
1.82913
20
0.354331
11
1.67953
21
0.354331
0
LINE
8
BLACK
6
CONTINUOUS
10
1.67953
20
0.354331
11
1.67953
21
0.393701
0
LINE
8
BLACK
6
CONTINUOUS
10
1.67953
20
0.393701
11
1.82913
21
0.393701
0
LINE
8
BLACK
6
CONTINUOUS
10
1.82913
20
0.393701
11
1.82913
21
0.354331
0
LINE
8
BLACK
6
CONTINUOUS
10
2.0063
20
0.393701
11
2.0063
21
0.484252
0
LINE
8
BLACK
6
CONTINUOUS
10
2.0063
20
0.484252
11
2.04567
21
0.484252
0
LINE
8
BLACK
6
CONTINUOUS
10
2.04567
20
0.484252
11
2.04567
21
0.393701
0
LINE
8
BLACK
6
CONTINUOUS
10
2.04567
20
0.393701
11
2.04567
21
0.354331
0
LINE
8
BLACK
6
CONTINUOUS
10
2.04567
20
0.354331
11
2.0063
21
0.354331
0
LINE
8
BLACK
6
CONTINUOUS
10
2.0063
20
0.354331
11
1.91575
21
0.354331
0
LINE
8
BLACK
6
CONTINUOUS
10
1.91575
20
0.354331
11
1.91575
21
0.393701
0
LINE
8
BLACK
6
CONTINUOUS
10
1.91575
20
0.393701
11
2.0063
21
0.393701
0
LINE
8
BLACK
6
CONTINUOUS
10
2.18239
20
0.475944
11
2.18558
21
0.47381
0
LINE
8
BLACK
6
CONTINUOUS
10
2.18558
20
0.47381
11
2.18772
21
0.470617
0
LINE
8
BLACK
6
CONTINUOUS
10
2.18772
20
0.470617
11
2.18846
21
0.46685
0
LINE
8
BLACK
6
CONTINUOUS
10
2.18846
20
0.46685
11
2.18846
21
0.435354
0
LINE
8
BLACK
6
CONTINUOUS
10
2.18846
20
0.435354
11
2.18772
21
0.431588
0
LINE
8
BLACK
6
CONTINUOUS
10
2.18772
20
0.431588
11
2.18558
21
0.428395
0
LINE
8
BLACK
6
CONTINUOUS
10
2.18558
20
0.428395
11
2.18239
21
0.426261
0
LINE
8
BLACK
6
CONTINUOUS
10
2.18239
20
0.426261
11
2.17862
21
0.425512
0
LINE
8
BLACK
6
CONTINUOUS
10
2.17862
20
0.425512
11
2.13138
21
0.425512
0
LINE
8
BLACK
6
CONTINUOUS
10
2.13138
20
0.425512
11
2.12761
21
0.426261
0
LINE
8
BLACK
6
CONTINUOUS
10
2.12761
20
0.426261
11
2.12442
21
0.428395
0
LINE
8
BLACK
6
CONTINUOUS
10
2.12442
20
0.428395
11
2.12228
21
0.431588
0
LINE
8
BLACK
6
CONTINUOUS
10
2.12228
20
0.431588
11
2.12154
21
0.435354
0
LINE
8
BLACK
6
CONTINUOUS
10
2.12154
20
0.435354
11
2.12154
21
0.46685
0
LINE
8
BLACK
6
CONTINUOUS
10
2.12154
20
0.46685
11
2.12228
21
0.470617
0
LINE
8
BLACK
6
CONTINUOUS
10
2.12228
20
0.470617
11
2.12442
21
0.47381
0
LINE
8
BLACK
6
CONTINUOUS
10
2.12442
20
0.47381
11
2.12761
21
0.475944
0
LINE
8
BLACK
6
CONTINUOUS
10
2.12761
20
0.475944
11
2.13138
21
0.476693
0
LINE
8
BLACK
6
CONTINUOUS
10
2.13138
20
0.476693
11
2.17862
21
0.476693
0
LINE
8
BLACK
6
CONTINUOUS
10
2.17862
20
0.476693
11
2.18239
21
0.475944
0
LINE
8
BLACK
6
CONTINUOUS
10
1.08818
20
0.49681
11
1.09137
21
0.494676
0
LINE
8
BLACK
6
CONTINUOUS
10
1.09137
20
0.494676
11
1.0935
21
0.491483
0
LINE
8
BLACK
6
CONTINUOUS
10
1.0935
20
0.491483
11
1.09425
21
0.487717
0
LINE
8
BLACK
6
CONTINUOUS
10
1.09425
20
0.487717
11
1.09425
21
0.452283
0
LINE
8
BLACK
6
CONTINUOUS
10
1.09425
20
0.452283
11
1.0935
21
0.448517
0
LINE
8
BLACK
6
CONTINUOUS
10
1.0935
20
0.448517
11
1.09137
21
0.445324
0
LINE
8
BLACK
6
CONTINUOUS
10
1.09137
20
0.445324
11
1.08818
21
0.44319
0
LINE
8
BLACK
6
CONTINUOUS
10
1.08818
20
0.44319
11
1.08441
21
0.442441
0
LINE
8
BLACK
6
CONTINUOUS
10
1.08441
20
0.442441
11
1.06374
21
0.442441
0
LINE
8
BLACK
6
CONTINUOUS
10
1.06374
20
0.442441
11
1.05997
21
0.44319
0
LINE
8
BLACK
6
CONTINUOUS
10
1.05997
20
0.44319
11
1.05678
21
0.445324
0
LINE
8
BLACK
6
CONTINUOUS
10
1.05678
20
0.445324
11
1.05465
21
0.448517
0
LINE
8
BLACK
6
CONTINUOUS
10
1.05465
20
0.448517
11
1.0539
21
0.452283
0
LINE
8
BLACK
6
CONTINUOUS
10
1.0539
20
0.452283
11
1.0539
21
0.487717
0
LINE
8
BLACK
6
CONTINUOUS
10
1.0539
20
0.487717
11
1.05465
21
0.491483
0
LINE
8
BLACK
6
CONTINUOUS
10
1.05465
20
0.491483
11
1.05678
21
0.494676
0
LINE
8
BLACK
6
CONTINUOUS
10
1.05678
20
0.494676
11
1.05997
21
0.49681
0
LINE
8
BLACK
6
CONTINUOUS
10
1.05997
20
0.49681
11
1.06374
21
0.497559
0
LINE
8
BLACK
6
CONTINUOUS
10
1.06374
20
0.497559
11
1.08441
21
0.497559
0
LINE
8
BLACK
6
CONTINUOUS
10
1.08441
20
0.497559
11
1.08818
21
0.49681
0
LINE
8
BLACK
6
CONTINUOUS
10
1.16003
20
0.49681
11
1.16322
21
0.494676
0
LINE
8
BLACK
6
CONTINUOUS
10
1.16322
20
0.494676
11
1.16535
21
0.491483
0
LINE
8
BLACK
6
CONTINUOUS
10
1.16535
20
0.491483
11
1.1661
21
0.487717
0
LINE
8
BLACK
6
CONTINUOUS
10
1.1661
20
0.487717
11
1.1661
21
0.452283
0
LINE
8
BLACK
6
CONTINUOUS
10
1.1661
20
0.452283
11
1.16535
21
0.448517
0
LINE
8
BLACK
6
CONTINUOUS
10
1.16535
20
0.448517
11
1.16322
21
0.445324
0
LINE
8
BLACK
6
CONTINUOUS
10
1.16322
20
0.445324
11
1.16003
21
0.44319
0
LINE
8
BLACK
6
CONTINUOUS
10
1.16003
20
0.44319
11
1.15626
21
0.442441
0
LINE
8
BLACK
6
CONTINUOUS
10
1.15626
20
0.442441
11
1.13559
21
0.442441
0
LINE
8
BLACK
6
CONTINUOUS
10
1.13559
20
0.442441
11
1.13182
21
0.44319
0
LINE
8
BLACK
6
CONTINUOUS
10
1.13182
20
0.44319
11
1.12863
21
0.445324
0
LINE
8
BLACK
6
CONTINUOUS
10
1.12863
20
0.445324
11
1.1265
21
0.448517
0
LINE
8
BLACK
6
CONTINUOUS
10
1.1265
20
0.448517
11
1.12575
21
0.452283
0
LINE
8
BLACK
6
CONTINUOUS
10
1.12575
20
0.452283
11
1.12575
21
0.487717
0
LINE
8
BLACK
6
CONTINUOUS
10
1.12575
20
0.487717
11
1.1265
21
0.491483
0
LINE
8
BLACK
6
CONTINUOUS
10
1.1265
20
0.491483
11
1.12863
21
0.494676
0
LINE
8
BLACK
6
CONTINUOUS
10
1.12863
20
0.494676
11
1.13182
21
0.49681
0
LINE
8
BLACK
6
CONTINUOUS
10
1.13182
20
0.49681
11
1.13559
21
0.497559
0
LINE
8
BLACK
6
CONTINUOUS
10
1.13559
20
0.497559
11
1.15626
21
0.497559
0
LINE
8
BLACK
6
CONTINUOUS
10
1.15626
20
0.497559
11
1.16003
21
0.49681
0
LINE
8
BLACK
6
CONTINUOUS
10
1.58818
20
0.52681
11
1.59137
21
0.524676
0
LINE
8
BLACK
6
CONTINUOUS
10
1.59137
20
0.524676
11
1.5935
21
0.521483
0
LINE
8
BLACK
6
CONTINUOUS
10
1.5935
20
0.521483
11
1.59425
21
0.517717
0
LINE
8
BLACK
6
CONTINUOUS
10
1.59425
20
0.517717
11
1.59425
21
0.482283
0
LINE
8
BLACK
6
CONTINUOUS
10
1.59425
20
0.482283
11
1.5935
21
0.478517
0
LINE
8
BLACK
6
CONTINUOUS
10
1.5935
20
0.478517
11
1.59137
21
0.475324
0
LINE
8
BLACK
6
CONTINUOUS
10
1.59137
20
0.475324
11
1.58818
21
0.47319
0
LINE
8
BLACK
6
CONTINUOUS
10
1.58818
20
0.47319
11
1.58441
21
0.472441
0
LINE
8
BLACK
6
CONTINUOUS
10
1.58441
20
0.472441
11
1.56374
21
0.472441
0
LINE
8
BLACK
6
CONTINUOUS
10
1.56374
20
0.472441
11
1.55997
21
0.47319
0
LINE
8
BLACK
6
CONTINUOUS
10
1.55997
20
0.47319
11
1.55678
21
0.475324
0
LINE
8
BLACK
6
CONTINUOUS
10
1.55678
20
0.475324
11
1.55465
21
0.478517
0
LINE
8
BLACK
6
CONTINUOUS
10
1.55465
20
0.478517
11
1.5539
21
0.482283
0
LINE
8
BLACK
6
CONTINUOUS
10
1.5539
20
0.482283
11
1.5539
21
0.517717
0
LINE
8
BLACK
6
CONTINUOUS
10
1.5539
20
0.517717
11
1.55465
21
0.521483
0
LINE
8
BLACK
6
CONTINUOUS
10
1.55465
20
0.521483
11
1.55678
21
0.524676
0
LINE
8
BLACK
6
CONTINUOUS
10
1.55678
20
0.524676
11
1.55997
21
0.52681
0
LINE
8
BLACK
6
CONTINUOUS
10
1.55997
20
0.52681
11
1.56374
21
0.527559
0
LINE
8
BLACK
6
CONTINUOUS
10
1.56374
20
0.527559
11
1.58441
21
0.527559
0
LINE
8
BLACK
6
CONTINUOUS
10
1.58441
20
0.527559
11
1.58818
21
0.52681
0
LINE
8
BLACK
6
CONTINUOUS
10
1.66003
20
0.52681
11
1.66322
21
0.524676
0
LINE
8
BLACK
6
CONTINUOUS
10
1.66322
20
0.524676
11
1.66535
21
0.521483
0
LINE
8
BLACK
6
CONTINUOUS
10
1.66535
20
0.521483
11
1.6661
21
0.517717
0
LINE
8
BLACK
6
CONTINUOUS
10
1.6661
20
0.517717
11
1.6661
21
0.482283
0
LINE
8
BLACK
6
CONTINUOUS
10
1.6661
20
0.482283
11
1.66535
21
0.478517
0
LINE
8
BLACK
6
CONTINUOUS
10
1.66535
20
0.478517
11
1.66322
21
0.475324
0
LINE
8
BLACK
6
CONTINUOUS
10
1.66322
20
0.475324
11
1.66003
21
0.47319
0
LINE
8
BLACK
6
CONTINUOUS
10
1.66003
20
0.47319
11
1.65626
21
0.472441
0
LINE
8
BLACK
6
CONTINUOUS
10
1.65626
20
0.472441
11
1.63559
21
0.472441
0
LINE
8
BLACK
6
CONTINUOUS
10
1.63559
20
0.472441
11
1.63182
21
0.47319
0
LINE
8
BLACK
6
CONTINUOUS
10
1.63182
20
0.47319
11
1.62863
21
0.475324
0
LINE
8
BLACK
6
CONTINUOUS
10
1.62863
20
0.475324
11
1.6265
21
0.478517
0
LINE
8
BLACK
6
CONTINUOUS
10
1.6265
20
0.478517
11
1.62575
21
0.482283
0
LINE
8
BLACK
6
CONTINUOUS
10
1.62575
20
0.482283
11
1.62575
21
0.517717
0
LINE
8
BLACK
6
CONTINUOUS
10
1.62575
20
0.517717
11
1.6265
21
0.521483
0
LINE
8
BLACK
6
CONTINUOUS
10
1.6265
20
0.521483
11
1.62863
21
0.524676
0
LINE
8
BLACK
6
CONTINUOUS
10
1.62863
20
0.524676
11
1.63182
21
0.52681
0
LINE
8
BLACK
6
CONTINUOUS
10
1.63182
20
0.52681
11
1.63559
21
0.527559
0
LINE
8
BLACK
6
CONTINUOUS
10
1.63559
20
0.527559
11
1.65626
21
0.527559
0
LINE
8
BLACK
6
CONTINUOUS
10
1.65626
20
0.527559
11
1.66003
21
0.52681
0
LINE
8
BLACK
6
CONTINUOUS
10
1.5005
20
0.53366
11
1.50369
21
0.531527
0
LINE
8
BLACK
6
CONTINUOUS
10
1.50369
20
0.531527
11
1.50583
21
0.528334
0
LINE
8
BLACK
6
CONTINUOUS
10
1.50583
20
0.528334
11
1.50657
21
0.524567
0
LINE
8
BLACK
6
CONTINUOUS
10
1.50657
20
0.524567
11
1.50657
21
0.489134
0
LINE
8
BLACK
6
CONTINUOUS
10
1.50657
20
0.489134
11
1.50583
21
0.485367
0
LINE
8
BLACK
6
CONTINUOUS
10
1.50583
20
0.485367
11
1.50369
21
0.482174
0
LINE
8
BLACK
6
CONTINUOUS
10
1.50369
20
0.482174
11
1.5005
21
0.480041
0
LINE
8
BLACK
6
CONTINUOUS
10
1.5005
20
0.480041
11
1.49673
21
0.479291
0
LINE
8
BLACK
6
CONTINUOUS
10
1.49673
20
0.479291
11
1.46327
21
0.479291
0
LINE
8
BLACK
6
CONTINUOUS
10
1.46327
20
0.479291
11
1.4595
21
0.480041
0
LINE
8
BLACK
6
CONTINUOUS
10
1.4595
20
0.480041
11
1.45631
21
0.482174
0
LINE
8
BLACK
6
CONTINUOUS
10
1.45631
20
0.482174
11
1.45417
21
0.485367
0
LINE
8
BLACK
6
CONTINUOUS
10
1.45417
20
0.485367
11
1.45343
21
0.489134
0
LINE
8
BLACK
6
CONTINUOUS
10
1.45343
20
0.489134
11
1.45343
21
0.524567
0
LINE
8
BLACK
6
CONTINUOUS
10
1.45343
20
0.524567
11
1.45417
21
0.528334
0
LINE
8
BLACK
6
CONTINUOUS
10
1.45417
20
0.528334
11
1.45631
21
0.531527
0
LINE
8
BLACK
6
CONTINUOUS
10
1.45631
20
0.531527
11
1.4595
21
0.53366
0
LINE
8
BLACK
6
CONTINUOUS
10
1.4595
20
0.53366
11
1.46327
21
0.534409
0
LINE
8
BLACK
6
CONTINUOUS
10
1.46327
20
0.534409
11
1.49673
21
0.534409
0
LINE
8
BLACK
6
CONTINUOUS
10
1.49673
20
0.534409
11
1.5005
21
0.53366
0
LINE
8
BLACK
6
CONTINUOUS
10
1.23539
20
0.486142
11
1.2098
21
0.486142
0
LINE
8
BLACK
6
CONTINUOUS
10
1.2098
20
0.486142
11
1.2098
21
0.547559
0
LINE
8
BLACK
6
CONTINUOUS
10
1.2098
20
0.547559
11
1.23539
21
0.547559
0
LINE
8
BLACK
6
CONTINUOUS
10
1.23539
20
0.547559
11
1.23539
21
0.486142
0
LINE
8
BLACK
6
CONTINUOUS
10
1.2728
20
0.486142
11
1.2472
21
0.486142
0
LINE
8
BLACK
6
CONTINUOUS
10
1.2472
20
0.486142
11
1.2472
21
0.547559
0
LINE
8
BLACK
6
CONTINUOUS
10
1.2472
20
0.547559
11
1.2728
21
0.547559
0
LINE
8
BLACK
6
CONTINUOUS
10
1.2728
20
0.547559
11
1.2728
21
0.486142
0
LINE
8
BLACK
6
CONTINUOUS
10
1.3102
20
0.486142
11
1.28461
21
0.486142
0
LINE
8
BLACK
6
CONTINUOUS
10
1.28461
20
0.486142
11
1.28461
21
0.547559
0
LINE
8
BLACK
6
CONTINUOUS
10
1.28461
20
0.547559
11
1.3102
21
0.547559
0
LINE
8
BLACK
6
CONTINUOUS
10
1.3102
20
0.547559
11
1.3102
21
0.486142
0
LINE
8
BLACK
6
CONTINUOUS
10
0.92
20
0.5
11
0.86
21
0.5
0
LINE
8
BLACK
6
CONTINUOUS
10
0.86
20
0.5
11
0.86
21
0.56
0
LINE
8
BLACK
6
CONTINUOUS
10
0.86
20
0.56
11
0.92
21
0.56
0
LINE
8
BLACK
6
CONTINUOUS
10
0.92
20
0.56
11
0.92
21
0.5
0
LINE
8
BLACK
6
CONTINUOUS
10
1.02
20
0.5
11
0.96
21
0.5
0
LINE
8
BLACK
6
CONTINUOUS
10
0.96
20
0.5
11
0.96
21
0.56
0
LINE
8
BLACK
6
CONTINUOUS
10
0.96
20
0.56
11
1.02
21
0.56
0
LINE
8
BLACK
6
CONTINUOUS
10
1.02
20
0.56
11
1.02
21
0.5
0
LINE
8
BLACK
6
CONTINUOUS
10
1.40247
20
0.581534
11
1.40566
21
0.579401
0
LINE
8
BLACK
6
CONTINUOUS
10
1.40566
20
0.579401
11
1.40779
21
0.576208
0
LINE
8
BLACK
6
CONTINUOUS
10
1.40779
20
0.576208
11
1.40854
21
0.572441
0
LINE
8
BLACK
6
CONTINUOUS
10
1.40854
20
0.572441
11
1.40854
21
0.552756
0
LINE
8
BLACK
6
CONTINUOUS
10
1.40854
20
0.552756
11
1.40779
21
0.548989
0
LINE
8
BLACK
6
CONTINUOUS
10
1.40779
20
0.548989
11
1.40566
21
0.545796
0
LINE
8
BLACK
6
CONTINUOUS
10
1.40566
20
0.545796
11
1.40247
21
0.543663
0
LINE
8
BLACK
6
CONTINUOUS
10
1.40247
20
0.543663
11
1.3987
21
0.542913
0
LINE
8
BLACK
6
CONTINUOUS
10
1.3987
20
0.542913
11
1.3613
21
0.542913
0
LINE
8
BLACK
6
CONTINUOUS
10
1.3613
20
0.542913
11
1.35753
21
0.543663
0
LINE
8
BLACK
6
CONTINUOUS
10
1.35753
20
0.543663
11
1.35434
21
0.545796
0
LINE
8
BLACK
6
CONTINUOUS
10
1.35434
20
0.545796
11
1.35221
21
0.548989
0
LINE
8
BLACK
6
CONTINUOUS
10
1.35221
20
0.548989
11
1.35146
21
0.552756
0
LINE
8
BLACK
6
CONTINUOUS
10
1.35146
20
0.552756
11
1.35146
21
0.572441
0
LINE
8
BLACK
6
CONTINUOUS
10
1.35146
20
0.572441
11
1.35221
21
0.576208
0
LINE
8
BLACK
6
CONTINUOUS
10
1.35221
20
0.576208
11
1.35434
21
0.579401
0
LINE
8
BLACK
6
CONTINUOUS
10
1.35434
20
0.579401
11
1.35753
21
0.581534
0
LINE
8
BLACK
6
CONTINUOUS
10
1.35753
20
0.581534
11
1.3613
21
0.582283
0
LINE
8
BLACK
6
CONTINUOUS
10
1.3613
20
0.582283
11
1.3987
21
0.582283
0
LINE
8
BLACK
6
CONTINUOUS
10
1.3987
20
0.582283
11
1.40247
21
0.581534
0
LINE
8
BLACK
6
CONTINUOUS
10
2.18239
20
0.613739
11
2.18558
21
0.611605
0
LINE
8
BLACK
6
CONTINUOUS
10
2.18558
20
0.611605
11
2.18772
21
0.608412
0
LINE
8
BLACK
6
CONTINUOUS
10
2.18772
20
0.608412
11
2.18846
21
0.604646
0
LINE
8
BLACK
6
CONTINUOUS
10
2.18846
20
0.604646
11
2.18846
21
0.57315
0
LINE
8
BLACK
6
CONTINUOUS
10
2.18846
20
0.57315
11
2.18772
21
0.569383
0
LINE
8
BLACK
6
CONTINUOUS
10
2.18772
20
0.569383
11
2.18558
21
0.56619
0
LINE
8
BLACK
6
CONTINUOUS
10
2.18558
20
0.56619
11
2.18239
21
0.564056
0
LINE
8
BLACK
6
CONTINUOUS
10
2.18239
20
0.564056
11
2.17862
21
0.563307
0
LINE
8
BLACK
6
CONTINUOUS
10
2.17862
20
0.563307
11
2.13138
21
0.563307
0
LINE
8
BLACK
6
CONTINUOUS
10
2.13138
20
0.563307
11
2.12761
21
0.564056
0
LINE
8
BLACK
6
CONTINUOUS
10
2.12761
20
0.564056
11
2.12442
21
0.56619
0
LINE
8
BLACK
6
CONTINUOUS
10
2.12442
20
0.56619
11
2.12228
21
0.569383
0
LINE
8
BLACK
6
CONTINUOUS
10
2.12228
20
0.569383
11
2.12154
21
0.57315
0
LINE
8
BLACK
6
CONTINUOUS
10
2.12154
20
0.57315
11
2.12154
21
0.604646
0
LINE
8
BLACK
6
CONTINUOUS
10
2.12154
20
0.604646
11
2.12228
21
0.608412
0
LINE
8
BLACK
6
CONTINUOUS
10
2.12228
20
0.608412
11
2.12442
21
0.611605
0
LINE
8
BLACK
6
CONTINUOUS
10
2.12442
20
0.611605
11
2.12761
21
0.613739
0
LINE
8
BLACK
6
CONTINUOUS
10
2.12761
20
0.613739
11
2.13138
21
0.614488
0
LINE
8
BLACK
6
CONTINUOUS
10
2.13138
20
0.614488
11
2.17862
21
0.614488
0
LINE
8
BLACK
6
CONTINUOUS
10
2.17862
20
0.614488
11
2.18239
21
0.613739
0
LINE
8
BLACK
6
CONTINUOUS
10
0.590499
20
0.62366
11
0.593692
21
0.621527
0
LINE
8
BLACK
6
CONTINUOUS
10
0.593692
20
0.621527
11
0.595826
21
0.618334
0
LINE
8
BLACK
6
CONTINUOUS
10
0.595826
20
0.618334
11
0.596575
21
0.614567
0
LINE
8
BLACK
6
CONTINUOUS
10
0.596575
20
0.614567
11
0.596575
21
0.579134
0
LINE
8
BLACK
6
CONTINUOUS
10
0.596575
20
0.579134
11
0.595826
21
0.575367
0
LINE
8
BLACK
6
CONTINUOUS
10
0.595826
20
0.575367
11
0.593692
21
0.572174
0
LINE
8
BLACK
6
CONTINUOUS
10
0.593692
20
0.572174
11
0.590499
21
0.570041
0
LINE
8
BLACK
6
CONTINUOUS
10
0.590499
20
0.570041
11
0.586732
21
0.569291
0
LINE
8
BLACK
6
CONTINUOUS
10
0.586732
20
0.569291
11
0.553268
21
0.569291
0
LINE
8
BLACK
6
CONTINUOUS
10
0.553268
20
0.569291
11
0.549501
21
0.570041
0
LINE
8
BLACK
6
CONTINUOUS
10
0.549501
20
0.570041
11
0.546308
21
0.572174
0
LINE
8
BLACK
6
CONTINUOUS
10
0.546308
20
0.572174
11
0.544174
21
0.575367
0
LINE
8
BLACK
6
CONTINUOUS
10
0.544174
20
0.575367
11
0.543425
21
0.579134
0
LINE
8
BLACK
6
CONTINUOUS
10
0.543425
20
0.579134
11
0.543425
21
0.614567
0
LINE
8
BLACK
6
CONTINUOUS
10
0.543425
20
0.614567
11
0.544174
21
0.618334
0
LINE
8
BLACK
6
CONTINUOUS
10
0.544174
20
0.618334
11
0.546308
21
0.621527
0
LINE
8
BLACK
6
CONTINUOUS
10
0.546308
20
0.621527
11
0.549501
21
0.62366
0
LINE
8
BLACK
6
CONTINUOUS
10
0.549501
20
0.62366
11
0.553268
21
0.624409
0
LINE
8
BLACK
6
CONTINUOUS
10
0.553268
20
0.624409
11
0.586732
21
0.624409
0
LINE
8
BLACK
6
CONTINUOUS
10
0.586732
20
0.624409
11
0.590499
21
0.62366
0
LINE
8
BLACK
6
CONTINUOUS
10
0.793701
20
0.570866
11
0.754331
21
0.570866
0
LINE
8
BLACK
6
CONTINUOUS
10
0.754331
20
0.570866
11
0.754331
21
0.720472
0
LINE
8
BLACK
6
CONTINUOUS
10
0.754331
20
0.720472
11
0.793701
21
0.720472
0
LINE
8
BLACK
6
CONTINUOUS
10
0.793701
20
0.720472
11
0.793701
21
0.570866
0
LINE
8
BLACK
6
CONTINUOUS
10
2.04567
20
0.570866
11
2.0063
21
0.570866
0
LINE
8
BLACK
6
CONTINUOUS
10
2.0063
20
0.570866
11
2.0063
21
0.720472
0
LINE
8
BLACK
6
CONTINUOUS
10
2.0063
20
0.720472
11
2.04567
21
0.720472
0
LINE
8
BLACK
6
CONTINUOUS
10
2.04567
20
0.720472
11
2.04567
21
0.570866
0
LINE
8
BLACK
6
CONTINUOUS
10
1.60621
20
0.637794
11
1.6094
21
0.635661
0
LINE
8
BLACK
6
CONTINUOUS
10
1.6094
20
0.635661
11
1.61153
21
0.632467
0
LINE
8
BLACK
6
CONTINUOUS
10
1.61153
20
0.632467
11
1.61228
21
0.628701
0
LINE
8
BLACK
6
CONTINUOUS
10
1.61228
20
0.628701
11
1.61228
21
0.591299
0
LINE
8
BLACK
6
CONTINUOUS
10
1.61228
20
0.591299
11
1.61153
21
0.587533
0
LINE
8
BLACK
6
CONTINUOUS
10
1.61153
20
0.587533
11
1.6094
21
0.584339
0
LINE
8
BLACK
6
CONTINUOUS
10
1.6094
20
0.584339
11
1.60621
21
0.582206
0
LINE
8
BLACK
6
CONTINUOUS
10
1.60621
20
0.582206
11
1.60244
21
0.581457
0
LINE
8
BLACK
6
CONTINUOUS
10
1.60244
20
0.581457
11
1.58276
21
0.581457
0
LINE
8
BLACK
6
CONTINUOUS
10
1.58276
20
0.581457
11
1.57899
21
0.582206
0
LINE
8
BLACK
6
CONTINUOUS
10
1.57899
20
0.582206
11
1.5758
21
0.584339
0
LINE
8
BLACK
6
CONTINUOUS
10
1.5758
20
0.584339
11
1.57366
21
0.587533
0
LINE
8
BLACK
6
CONTINUOUS
10
1.57366
20
0.587533
11
1.57291
21
0.591299
0
LINE
8
BLACK
6
CONTINUOUS
10
1.57291
20
0.591299
11
1.57291
21
0.628701
0
LINE
8
BLACK
6
CONTINUOUS
10
1.57291
20
0.628701
11
1.57366
21
0.632467
0
LINE
8
BLACK
6
CONTINUOUS
10
1.57366
20
0.632467
11
1.5758
21
0.635661
0
LINE
8
BLACK
6
CONTINUOUS
10
1.5758
20
0.635661
11
1.57899
21
0.637794
0
LINE
8
BLACK
6
CONTINUOUS
10
1.57899
20
0.637794
11
1.58276
21
0.638543
0
LINE
8
BLACK
6
CONTINUOUS
10
1.58276
20
0.638543
11
1.60244
21
0.638543
0
LINE
8
BLACK
6
CONTINUOUS
10
1.60244
20
0.638543
11
1.60621
21
0.637794
0
LINE
8
BLACK
6
CONTINUOUS
10
1.68101
20
0.637794
11
1.6842
21
0.635661
0
LINE
8
BLACK
6
CONTINUOUS
10
1.6842
20
0.635661
11
1.68634
21
0.632467
0
LINE
8
BLACK
6
CONTINUOUS
10
1.68634
20
0.632467
11
1.68709
21
0.628701
0
LINE
8
BLACK
6
CONTINUOUS
10
1.68709
20
0.628701
11
1.68709
21
0.591299
0
LINE
8
BLACK
6
CONTINUOUS
10
1.68709
20
0.591299
11
1.68634
21
0.587533
0
LINE
8
BLACK
6
CONTINUOUS
10
1.68634
20
0.587533
11
1.6842
21
0.584339
0
LINE
8
BLACK
6
CONTINUOUS
10
1.6842
20
0.584339
11
1.68101
21
0.582206
0
LINE
8
BLACK
6
CONTINUOUS
10
1.68101
20
0.582206
11
1.67724
21
0.581457
0
LINE
8
BLACK
6
CONTINUOUS
10
1.67724
20
0.581457
11
1.65756
21
0.581457
0
LINE
8
BLACK
6
CONTINUOUS
10
1.65756
20
0.581457
11
1.65379
21
0.582206
0
LINE
8
BLACK
6
CONTINUOUS
10
1.65379
20
0.582206
11
1.6506
21
0.584339
0
LINE
8
BLACK
6
CONTINUOUS
10
1.6506
20
0.584339
11
1.64847
21
0.587533
0
LINE
8
BLACK
6
CONTINUOUS
10
1.64847
20
0.587533
11
1.64772
21
0.591299
0
LINE
8
BLACK
6
CONTINUOUS
10
1.64772
20
0.591299
11
1.64772
21
0.628701
0
LINE
8
BLACK
6
CONTINUOUS
10
1.64772
20
0.628701
11
1.64847
21
0.632467
0
LINE
8
BLACK
6
CONTINUOUS
10
1.64847
20
0.632467
11
1.6506
21
0.635661
0
LINE
8
BLACK
6
CONTINUOUS
10
1.6506
20
0.635661
11
1.65379
21
0.637794
0
LINE
8
BLACK
6
CONTINUOUS
10
1.65379
20
0.637794
11
1.65756
21
0.638543
0
LINE
8
BLACK
6
CONTINUOUS
10
1.65756
20
0.638543
11
1.67724
21
0.638543
0
LINE
8
BLACK
6
CONTINUOUS
10
1.67724
20
0.638543
11
1.68101
21
0.637794
0
LINE
8
BLACK
6
CONTINUOUS
10
1.5005
20
0.639959
11
1.50369
21
0.637826
0
LINE
8
BLACK
6
CONTINUOUS
10
1.50369
20
0.637826
11
1.50583
21
0.634633
0
LINE
8
BLACK
6
CONTINUOUS
10
1.50583
20
0.634633
11
1.50657
21
0.630866
0
LINE
8
BLACK
6
CONTINUOUS
10
1.50657
20
0.630866
11
1.50657
21
0.595433
0
LINE
8
BLACK
6
CONTINUOUS
10
1.50657
20
0.595433
11
1.50583
21
0.591666
0
LINE
8
BLACK
6
CONTINUOUS
10
1.50583
20
0.591666
11
1.50369
21
0.588473
0
LINE
8
BLACK
6
CONTINUOUS
10
1.50369
20
0.588473
11
1.5005
21
0.58634
0
LINE
8
BLACK
6
CONTINUOUS
10
1.5005
20
0.58634
11
1.49673
21
0.585591
0
LINE
8
BLACK
6
CONTINUOUS
10
1.49673
20
0.585591
11
1.46327
21
0.585591
0
LINE
8
BLACK
6
CONTINUOUS
10
1.46327
20
0.585591
11
1.4595
21
0.58634
0
LINE
8
BLACK
6
CONTINUOUS
10
1.4595
20
0.58634
11
1.45631
21
0.588473
0
LINE
8
BLACK
6
CONTINUOUS
10
1.45631
20
0.588473
11
1.45417
21
0.591666
0
LINE
8
BLACK
6
CONTINUOUS
10
1.45417
20
0.591666
11
1.45343
21
0.595433
0
LINE
8
BLACK
6
CONTINUOUS
10
1.45343
20
0.595433
11
1.45343
21
0.630866
0
LINE
8
BLACK
6
CONTINUOUS
10
1.45343
20
0.630866
11
1.45417
21
0.634633
0
LINE
8
BLACK
6
CONTINUOUS
10
1.45417
20
0.634633
11
1.45631
21
0.637826
0
LINE
8
BLACK
6
CONTINUOUS
10
1.45631
20
0.637826
11
1.4595
21
0.639959
0
LINE
8
BLACK
6
CONTINUOUS
10
1.4595
20
0.639959
11
1.46327
21
0.640709
0
LINE
8
BLACK
6
CONTINUOUS
10
1.46327
20
0.640709
11
1.49673
21
0.640709
0
LINE
8
BLACK
6
CONTINUOUS
10
1.49673
20
0.640709
11
1.5005
21
0.639959
0
LINE
8
BLACK
6
CONTINUOUS
10
0.39
20
0.59
11
0.33
21
0.59
0
LINE
8
BLACK
6
CONTINUOUS
10
0.33
20
0.59
11
0.33
21
0.65
0
LINE
8
BLACK
6
CONTINUOUS
10
0.33
20
0.65
11
0.39
21
0.65
0
LINE
8
BLACK
6
CONTINUOUS
10
0.39
20
0.65
11
0.39
21
0.59
0
LINE
8
BLACK
6
CONTINUOUS
10
0.49
20
0.59
11
0.43
21
0.59
0
LINE
8
BLACK
6
CONTINUOUS
10
0.43
20
0.59
11
0.43
21
0.65
0
LINE
8
BLACK
6
CONTINUOUS
10
0.43
20
0.65
11
0.49
21
0.65
0
LINE
8
BLACK
6
CONTINUOUS
10
0.49
20
0.65
11
0.49
21
0.59
0
LINE
8
BLACK
6
CONTINUOUS
10
1.23539
20
0.592441
11
1.2098
21
0.592441
0
LINE
8
BLACK
6
CONTINUOUS
10
1.2098
20
0.592441
11
1.2098
21
0.653858
0
LINE
8
BLACK
6
CONTINUOUS
10
1.2098
20
0.653858
11
1.23539
21
0.653858
0
LINE
8
BLACK
6
CONTINUOUS
10
1.23539
20
0.653858
11
1.23539
21
0.592441
0
LINE
8
BLACK
6
CONTINUOUS
10
1.3102
20
0.592441
11
1.28461
21
0.592441
0
LINE
8
BLACK
6
CONTINUOUS
10
1.28461
20
0.592441
11
1.28461
21
0.653858
0
LINE
8
BLACK
6
CONTINUOUS
10
1.28461
20
0.653858
11
1.3102
21
0.653858
0
LINE
8
BLACK
6
CONTINUOUS
10
1.3102
20
0.653858
11
1.3102
21
0.592441
0
LINE
8
BLACK
6
CONTINUOUS
10
0.92
20
0.6
11
0.86
21
0.6
0
LINE
8
BLACK
6
CONTINUOUS
10
0.86
20
0.6
11
0.86
21
0.66
0
LINE
8
BLACK
6
CONTINUOUS
10
0.86
20
0.66
11
0.92
21
0.66
0
LINE
8
BLACK
6
CONTINUOUS
10
0.92
20
0.66
11
0.92
21
0.6
0
LINE
8
BLACK
6
CONTINUOUS
10
1.02
20
0.6
11
0.96
21
0.6
0
LINE
8
BLACK
6
CONTINUOUS
10
0.96
20
0.6
11
0.96
21
0.66
0
LINE
8
BLACK
6
CONTINUOUS
10
0.96
20
0.66
11
1.02
21
0.66
0
LINE
8
BLACK
6
CONTINUOUS
10
1.02
20
0.66
11
1.02
21
0.6
0
LINE
8
BLACK
6
CONTINUOUS
10
0.686483
20
0.643503
11
0.689676
21
0.641369
0
LINE
8
BLACK
6
CONTINUOUS
10
0.689676
20
0.641369
11
0.69181
21
0.638176
0
LINE
8
BLACK
6
CONTINUOUS
10
0.69181
20
0.638176
11
0.692559
21
0.634409
0
LINE
8
BLACK
6
CONTINUOUS
10
0.692559
20
0.634409
11
0.692559
21
0.61374
0
LINE
8
BLACK
6
CONTINUOUS
10
0.692559
20
0.61374
11
0.69181
21
0.609974
0
LINE
8
BLACK
6
CONTINUOUS
10
0.69181
20
0.609974
11
0.689676
21
0.60678
0
LINE
8
BLACK
6
CONTINUOUS
10
0.689676
20
0.60678
11
0.686483
21
0.604647
0
LINE
8
BLACK
6
CONTINUOUS
10
0.686483
20
0.604647
11
0.682717
21
0.603898
0
LINE
8
BLACK
6
CONTINUOUS
10
0.682717
20
0.603898
11
0.647283
21
0.603898
0
LINE
8
BLACK
6
CONTINUOUS
10
0.647283
20
0.603898
11
0.643517
21
0.604647
0
LINE
8
BLACK
6
CONTINUOUS
10
0.643517
20
0.604647
11
0.640324
21
0.60678
0
LINE
8
BLACK
6
CONTINUOUS
10
0.640324
20
0.60678
11
0.63819
21
0.609974
0
LINE
8
BLACK
6
CONTINUOUS
10
0.63819
20
0.609974
11
0.637441
21
0.61374
0
LINE
8
BLACK
6
CONTINUOUS
10
0.637441
20
0.61374
11
0.637441
21
0.634409
0
LINE
8
BLACK
6
CONTINUOUS
10
0.637441
20
0.634409
11
0.63819
21
0.638176
0
LINE
8
BLACK
6
CONTINUOUS
10
0.63819
20
0.638176
11
0.640324
21
0.641369
0
LINE
8
BLACK
6
CONTINUOUS
10
0.640324
20
0.641369
11
0.643517
21
0.643503
0
LINE
8
BLACK
6
CONTINUOUS
10
0.643517
20
0.643503
11
0.647283
21
0.644252
0
LINE
8
BLACK
6
CONTINUOUS
10
0.647283
20
0.644252
11
0.682717
21
0.644252
0
LINE
8
BLACK
6
CONTINUOUS
10
0.682717
20
0.644252
11
0.686483
21
0.643503
0
LINE
8
BLACK
6
CONTINUOUS
10
1.40247
20
0.656337
11
1.40566
21
0.654204
0
LINE
8
BLACK
6
CONTINUOUS
10
1.40566
20
0.654204
11
1.40779
21
0.651011
0
LINE
8
BLACK
6
CONTINUOUS
10
1.40779
20
0.651011
11
1.40854
21
0.647244
0
LINE
8
BLACK
6
CONTINUOUS
10
1.40854
20
0.647244
11
1.40854
21
0.627559
0
LINE
8
BLACK
6
CONTINUOUS
10
1.40854
20
0.627559
11
1.40779
21
0.623792
0
LINE
8
BLACK
6
CONTINUOUS
10
1.40779
20
0.623792
11
1.40566
21
0.620599
0
LINE
8
BLACK
6
CONTINUOUS
10
1.40566
20
0.620599
11
1.40247
21
0.618466
0
LINE
8
BLACK
6
CONTINUOUS
10
1.40247
20
0.618466
11
1.3987
21
0.617717
0
LINE
8
BLACK
6
CONTINUOUS
10
1.3987
20
0.617717
11
1.3613
21
0.617717
0
LINE
8
BLACK
6
CONTINUOUS
10
1.3613
20
0.617717
11
1.35753
21
0.618466
0
LINE
8
BLACK
6
CONTINUOUS
10
1.35753
20
0.618466
11
1.35434
21
0.620599
0
LINE
8
BLACK
6
CONTINUOUS
10
1.35434
20
0.620599
11
1.35221
21
0.623792
0
LINE
8
BLACK
6
CONTINUOUS
10
1.35221
20
0.623792
11
1.35146
21
0.627559
0
LINE
8
BLACK
6
CONTINUOUS
10
1.35146
20
0.627559
11
1.35146
21
0.647244
0
LINE
8
BLACK
6
CONTINUOUS
10
1.35146
20
0.647244
11
1.35221
21
0.651011
0
LINE
8
BLACK
6
CONTINUOUS
10
1.35221
20
0.651011
11
1.35434
21
0.654204
0
LINE
8
BLACK
6
CONTINUOUS
10
1.35434
20
0.654204
11
1.35753
21
0.656337
0
LINE
8
BLACK
6
CONTINUOUS
10
1.35753
20
0.656337
11
1.3613
21
0.657087
0
LINE
8
BLACK
6
CONTINUOUS
10
1.3613
20
0.657087
11
1.3987
21
0.657087
0
LINE
8
BLACK
6
CONTINUOUS
10
1.3987
20
0.657087
11
1.40247
21
0.656337
0
LINE
8
BLACK
6
CONTINUOUS
10
2.405
20
0.65
11
2.345
21
0.65
0
LINE
8
BLACK
6
CONTINUOUS
10
2.345
20
0.65
11
2.345
21
0.71
0
LINE
8
BLACK
6
CONTINUOUS
10
2.345
20
0.71
11
2.405
21
0.71
0
LINE
8
BLACK
6
CONTINUOUS
10
2.405
20
0.71
11
2.405
21
0.65
0
LINE
8
BLACK
6
CONTINUOUS
10
2.505
20
0.65
11
2.445
21
0.65
0
LINE
8
BLACK
6
CONTINUOUS
10
2.445
20
0.65
11
2.445
21
0.71
0
LINE
8
BLACK
6
CONTINUOUS
10
2.445
20
0.71
11
2.505
21
0.71
0
LINE
8
BLACK
6
CONTINUOUS
10
2.505
20
0.71
11
2.505
21
0.65
0
LINE
8
BLACK
6
CONTINUOUS
10
1.08818
20
0.70681
11
1.09137
21
0.704676
0
LINE
8
BLACK
6
CONTINUOUS
10
1.09137
20
0.704676
11
1.0935
21
0.701483
0
LINE
8
BLACK
6
CONTINUOUS
10
1.0935
20
0.701483
11
1.09425
21
0.697717
0
LINE
8
BLACK
6
CONTINUOUS
10
1.09425
20
0.697717
11
1.09425
21
0.662283
0
LINE
8
BLACK
6
CONTINUOUS
10
1.09425
20
0.662283
11
1.0935
21
0.658517
0
LINE
8
BLACK
6
CONTINUOUS
10
1.0935
20
0.658517
11
1.09137
21
0.655324
0
LINE
8
BLACK
6
CONTINUOUS
10
1.09137
20
0.655324
11
1.08818
21
0.65319
0
LINE
8
BLACK
6
CONTINUOUS
10
1.08818
20
0.65319
11
1.08441
21
0.652441
0
LINE
8
BLACK
6
CONTINUOUS
10
1.08441
20
0.652441
11
1.06374
21
0.652441
0
LINE
8
BLACK
6
CONTINUOUS
10
1.06374
20
0.652441
11
1.05997
21
0.65319
0
LINE
8
BLACK
6
CONTINUOUS
10
1.05997
20
0.65319
11
1.05678
21
0.655324
0
LINE
8
BLACK
6
CONTINUOUS
10
1.05678
20
0.655324
11
1.05465
21
0.658517
0
LINE
8
BLACK
6
CONTINUOUS
10
1.05465
20
0.658517
11
1.0539
21
0.662283
0
LINE
8
BLACK
6
CONTINUOUS
10
1.0539
20
0.662283
11
1.0539
21
0.697717
0
LINE
8
BLACK
6
CONTINUOUS
10
1.0539
20
0.697717
11
1.05465
21
0.701483
0
LINE
8
BLACK
6
CONTINUOUS
10
1.05465
20
0.701483
11
1.05678
21
0.704676
0
LINE
8
BLACK
6
CONTINUOUS
10
1.05678
20
0.704676
11
1.05997
21
0.70681
0
LINE
8
BLACK
6
CONTINUOUS
10
1.05997
20
0.70681
11
1.06374
21
0.707559
0
LINE
8
BLACK
6
CONTINUOUS
10
1.06374
20
0.707559
11
1.08441
21
0.707559
0
LINE
8
BLACK
6
CONTINUOUS
10
1.08441
20
0.707559
11
1.08818
21
0.70681
0
LINE
8
BLACK
6
CONTINUOUS
10
1.16003
20
0.70681
11
1.16322
21
0.704676
0
LINE
8
BLACK
6
CONTINUOUS
10
1.16322
20
0.704676
11
1.16535
21
0.701483
0
LINE
8
BLACK
6
CONTINUOUS
10
1.16535
20
0.701483
11
1.1661
21
0.697717
0
LINE
8
BLACK
6
CONTINUOUS
10
1.1661
20
0.697717
11
1.1661
21
0.662283
0
LINE
8
BLACK
6
CONTINUOUS
10
1.1661
20
0.662283
11
1.16535
21
0.658517
0
LINE
8
BLACK
6
CONTINUOUS
10
1.16535
20
0.658517
11
1.16322
21
0.655324
0
LINE
8
BLACK
6
CONTINUOUS
10
1.16322
20
0.655324
11
1.16003
21
0.65319
0
LINE
8
BLACK
6
CONTINUOUS
10
1.16003
20
0.65319
11
1.15626
21
0.652441
0
LINE
8
BLACK
6
CONTINUOUS
10
1.15626
20
0.652441
11
1.13559
21
0.652441
0
LINE
8
BLACK
6
CONTINUOUS
10
1.13559
20
0.652441
11
1.13182
21
0.65319
0
LINE
8
BLACK
6
CONTINUOUS
10
1.13182
20
0.65319
11
1.12863
21
0.655324
0
LINE
8
BLACK
6
CONTINUOUS
10
1.12863
20
0.655324
11
1.1265
21
0.658517
0
LINE
8
BLACK
6
CONTINUOUS
10
1.1265
20
0.658517
11
1.12575
21
0.662283
0
LINE
8
BLACK
6
CONTINUOUS
10
1.12575
20
0.662283
11
1.12575
21
0.697717
0
LINE
8
BLACK
6
CONTINUOUS
10
1.12575
20
0.697717
11
1.1265
21
0.701483
0
LINE
8
BLACK
6
CONTINUOUS
10
1.1265
20
0.701483
11
1.12863
21
0.704676
0
LINE
8
BLACK
6
CONTINUOUS
10
1.12863
20
0.704676
11
1.13182
21
0.70681
0
LINE
8
BLACK
6
CONTINUOUS
10
1.13182
20
0.70681
11
1.13559
21
0.707559
0
LINE
8
BLACK
6
CONTINUOUS
10
1.13559
20
0.707559
11
1.15626
21
0.707559
0
LINE
8
BLACK
6
CONTINUOUS
10
1.15626
20
0.707559
11
1.16003
21
0.70681
0
LINE
8
BLACK
6
CONTINUOUS
10
2.17621
20
0.717794
11
2.1794
21
0.715661
0
LINE
8
BLACK
6
CONTINUOUS
10
2.1794
20
0.715661
11
2.18153
21
0.712467
0
LINE
8
BLACK
6
CONTINUOUS
10
2.18153
20
0.712467
11
2.18228
21
0.708701
0
LINE
8
BLACK
6
CONTINUOUS
10
2.18228
20
0.708701
11
2.18228
21
0.671299
0
LINE
8
BLACK
6
CONTINUOUS
10
2.18228
20
0.671299
11
2.18153
21
0.667533
0
LINE
8
BLACK
6
CONTINUOUS
10
2.18153
20
0.667533
11
2.1794
21
0.664339
0
LINE
8
BLACK
6
CONTINUOUS
10
2.1794
20
0.664339
11
2.17621
21
0.662206
0
LINE
8
BLACK
6
CONTINUOUS
10
2.17621
20
0.662206
11
2.17244
21
0.661457
0
LINE
8
BLACK
6
CONTINUOUS
10
2.17244
20
0.661457
11
2.15276
21
0.661457
0
LINE
8
BLACK
6
CONTINUOUS
10
2.15276
20
0.661457
11
2.14899
21
0.662206
0
LINE
8
BLACK
6
CONTINUOUS
10
2.14899
20
0.662206
11
2.1458
21
0.664339
0
LINE
8
BLACK
6
CONTINUOUS
10
2.1458
20
0.664339
11
2.14366
21
0.667533
0
LINE
8
BLACK
6
CONTINUOUS
10
2.14366
20
0.667533
11
2.14291
21
0.671299
0
LINE
8
BLACK
6
CONTINUOUS
10
2.14291
20
0.671299
11
2.14291
21
0.708701
0
LINE
8
BLACK
6
CONTINUOUS
10
2.14291
20
0.708701
11
2.14366
21
0.712467
0
LINE
8
BLACK
6
CONTINUOUS
10
2.14366
20
0.712467
11
2.1458
21
0.715661
0
LINE
8
BLACK
6
CONTINUOUS
10
2.1458
20
0.715661
11
2.14899
21
0.717794
0
LINE
8
BLACK
6
CONTINUOUS
10
2.14899
20
0.717794
11
2.15276
21
0.718543
0
LINE
8
BLACK
6
CONTINUOUS
10
2.15276
20
0.718543
11
2.17244
21
0.718543
0
LINE
8
BLACK
6
CONTINUOUS
10
2.17244
20
0.718543
11
2.17621
21
0.717794
0
LINE
8
BLACK
6
CONTINUOUS
10
2.25101
20
0.717794
11
2.2542
21
0.715661
0
LINE
8
BLACK
6
CONTINUOUS
10
2.2542
20
0.715661
11
2.25634
21
0.712467
0
LINE
8
BLACK
6
CONTINUOUS
10
2.25634
20
0.712467
11
2.25709
21
0.708701
0
LINE
8
BLACK
6
CONTINUOUS
10
2.25709
20
0.708701
11
2.25709
21
0.671299
0
LINE
8
BLACK
6
CONTINUOUS
10
2.25709
20
0.671299
11
2.25634
21
0.667533
0
LINE
8
BLACK
6
CONTINUOUS
10
2.25634
20
0.667533
11
2.2542
21
0.664339
0
LINE
8
BLACK
6
CONTINUOUS
10
2.2542
20
0.664339
11
2.25101
21
0.662206
0
LINE
8
BLACK
6
CONTINUOUS
10
2.25101
20
0.662206
11
2.24724
21
0.661457
0
LINE
8
BLACK
6
CONTINUOUS
10
2.24724
20
0.661457
11
2.22756
21
0.661457
0
LINE
8
BLACK
6
CONTINUOUS
10
2.22756
20
0.661457
11
2.22379
21
0.662206
0
LINE
8
BLACK
6
CONTINUOUS
10
2.22379
20
0.662206
11
2.2206
21
0.664339
0
LINE
8
BLACK
6
CONTINUOUS
10
2.2206
20
0.664339
11
2.21847
21
0.667533
0
LINE
8
BLACK
6
CONTINUOUS
10
2.21847
20
0.667533
11
2.21772
21
0.671299
0
LINE
8
BLACK
6
CONTINUOUS
10
2.21772
20
0.671299
11
2.21772
21
0.708701
0
LINE
8
BLACK
6
CONTINUOUS
10
2.21772
20
0.708701
11
2.21847
21
0.712467
0
LINE
8
BLACK
6
CONTINUOUS
10
2.21847
20
0.712467
11
2.2206
21
0.715661
0
LINE
8
BLACK
6
CONTINUOUS
10
2.2206
20
0.715661
11
2.22379
21
0.717794
0
LINE
8
BLACK
6
CONTINUOUS
10
2.22379
20
0.717794
11
2.22756
21
0.718543
0
LINE
8
BLACK
6
CONTINUOUS
10
2.22756
20
0.718543
11
2.24724
21
0.718543
0
LINE
8
BLACK
6
CONTINUOUS
10
2.24724
20
0.718543
11
2.25101
21
0.717794
0
LINE
8
BLACK
6
CONTINUOUS
10
0.590499
20
0.729959
11
0.593692
21
0.727826
0
LINE
8
BLACK
6
CONTINUOUS
10
0.593692
20
0.727826
11
0.595826
21
0.724633
0
LINE
8
BLACK
6
CONTINUOUS
10
0.595826
20
0.724633
11
0.596575
21
0.720866
0
LINE
8
BLACK
6
CONTINUOUS
10
0.596575
20
0.720866
11
0.596575
21
0.685433
0
LINE
8
BLACK
6
CONTINUOUS
10
0.596575
20
0.685433
11
0.595826
21
0.681666
0
LINE
8
BLACK
6
CONTINUOUS
10
0.595826
20
0.681666
11
0.593692
21
0.678473
0
LINE
8
BLACK
6
CONTINUOUS
10
0.593692
20
0.678473
11
0.590499
21
0.67634
0
LINE
8
BLACK
6
CONTINUOUS
10
0.590499
20
0.67634
11
0.586732
21
0.675591
0
LINE
8
BLACK
6
CONTINUOUS
10
0.586732
20
0.675591
11
0.553268
21
0.675591
0
LINE
8
BLACK
6
CONTINUOUS
10
0.553268
20
0.675591
11
0.549501
21
0.67634
0
LINE
8
BLACK
6
CONTINUOUS
10
0.549501
20
0.67634
11
0.546308
21
0.678473
0
LINE
8
BLACK
6
CONTINUOUS
10
0.546308
20
0.678473
11
0.544174
21
0.681666
0
LINE
8
BLACK
6
CONTINUOUS
10
0.544174
20
0.681666
11
0.543425
21
0.685433
0
LINE
8
BLACK
6
CONTINUOUS
10
0.543425
20
0.685433
11
0.543425
21
0.720866
0
LINE
8
BLACK
6
CONTINUOUS
10
0.543425
20
0.720866
11
0.544174
21
0.724633
0
LINE
8
BLACK
6
CONTINUOUS
10
0.544174
20
0.724633
11
0.546308
21
0.727826
0
LINE
8
BLACK
6
CONTINUOUS
10
0.546308
20
0.727826
11
0.549501
21
0.729959
0
LINE
8
BLACK
6
CONTINUOUS
10
0.549501
20
0.729959
11
0.553268
21
0.730709
0
LINE
8
BLACK
6
CONTINUOUS
10
0.553268
20
0.730709
11
0.586732
21
0.730709
0
LINE
8
BLACK
6
CONTINUOUS
10
0.586732
20
0.730709
11
0.590499
21
0.729959
0
LINE
8
BLACK
6
CONTINUOUS
10
0.686483
20
0.715353
11
0.689676
21
0.71322
0
LINE
8
BLACK
6
CONTINUOUS
10
0.689676
20
0.71322
11
0.69181
21
0.710026
0
LINE
8
BLACK
6
CONTINUOUS
10
0.69181
20
0.710026
11
0.692559
21
0.70626
0
LINE
8
BLACK
6
CONTINUOUS
10
0.692559
20
0.70626
11
0.692559
21
0.685591
0
LINE
8
BLACK
6
CONTINUOUS
10
0.692559
20
0.685591
11
0.69181
21
0.681824
0
LINE
8
BLACK
6
CONTINUOUS
10
0.69181
20
0.681824
11
0.689676
21
0.678631
0
LINE
8
BLACK
6
CONTINUOUS
10
0.689676
20
0.678631
11
0.686483
21
0.676497
0
LINE
8
BLACK
6
CONTINUOUS
10
0.686483
20
0.676497
11
0.682717
21
0.675748
0
LINE
8
BLACK
6
CONTINUOUS
10
0.682717
20
0.675748
11
0.647283
21
0.675748
0
LINE
8
BLACK
6
CONTINUOUS
10
0.647283
20
0.675748
11
0.643517
21
0.676497
0
LINE
8
BLACK
6
CONTINUOUS
10
0.643517
20
0.676497
11
0.640324
21
0.678631
0
LINE
8
BLACK
6
CONTINUOUS
10
0.640324
20
0.678631
11
0.63819
21
0.681824
0
LINE
8
BLACK
6
CONTINUOUS
10
0.63819
20
0.681824
11
0.637441
21
0.685591
0
LINE
8
BLACK
6
CONTINUOUS
10
0.637441
20
0.685591
11
0.637441
21
0.70626
0
LINE
8
BLACK
6
CONTINUOUS
10
0.637441
20
0.70626
11
0.63819
21
0.710026
0
LINE
8
BLACK
6
CONTINUOUS
10
0.63819
20
0.710026
11
0.640324
21
0.71322
0
LINE
8
BLACK
6
CONTINUOUS
10
0.640324
20
0.71322
11
0.643517
21
0.715353
0
LINE
8
BLACK
6
CONTINUOUS
10
0.643517
20
0.715353
11
0.647283
21
0.716102
0
LINE
8
BLACK
6
CONTINUOUS
10
0.647283
20
0.716102
11
0.682717
21
0.716102
0
LINE
8
BLACK
6
CONTINUOUS
10
0.682717
20
0.716102
11
0.686483
21
0.715353
0
LINE
8
BLACK
6
CONTINUOUS
10
1.60539
20
0.678307
11
1.5798
21
0.678307
0
LINE
8
BLACK
6
CONTINUOUS
10
1.5798
20
0.678307
11
1.5798
21
0.757047
0
LINE
8
BLACK
6
CONTINUOUS
10
1.5798
20
0.757047
11
1.60539
21
0.757047
0
LINE
8
BLACK
6
CONTINUOUS
10
1.60539
20
0.757047
11
1.60539
21
0.678307
0
LINE
8
BLACK
6
CONTINUOUS
10
1.6428
20
0.678307
11
1.6172
21
0.678307
0
LINE
8
BLACK
6
CONTINUOUS
10
1.6172
20
0.678307
11
1.6172
21
0.757047
0
LINE
8
BLACK
6
CONTINUOUS
10
1.6172
20
0.757047
11
1.6428
21
0.757047
0
LINE
8
BLACK
6
CONTINUOUS
10
1.6428
20
0.757047
11
1.6428
21
0.678307
0
LINE
8
BLACK
6
CONTINUOUS
10
1.6802
20
0.678307
11
1.65461
21
0.678307
0
LINE
8
BLACK
6
CONTINUOUS
10
1.65461
20
0.678307
11
1.65461
21
0.757047
0
LINE
8
BLACK
6
CONTINUOUS
10
1.65461
20
0.757047
11
1.6802
21
0.757047
0
LINE
8
BLACK
6
CONTINUOUS
10
1.6802
20
0.757047
11
1.6802
21
0.678307
0
LINE
8
BLACK
6
CONTINUOUS
10
0.39
20
0.69
11
0.33
21
0.69
0
LINE
8
BLACK
6
CONTINUOUS
10
0.33
20
0.69
11
0.33
21
0.75
0
LINE
8
BLACK
6
CONTINUOUS
10
0.33
20
0.75
11
0.39
21
0.75
0
LINE
8
BLACK
6
CONTINUOUS
10
0.39
20
0.75
11
0.39
21
0.69
0
LINE
8
BLACK
6
CONTINUOUS
10
0.49
20
0.69
11
0.43
21
0.69
0
LINE
8
BLACK
6
CONTINUOUS
10
0.43
20
0.69
11
0.43
21
0.75
0
LINE
8
BLACK
6
CONTINUOUS
10
0.43
20
0.75
11
0.49
21
0.75
0
LINE
8
BLACK
6
CONTINUOUS
10
0.49
20
0.75
11
0.49
21
0.69
0
LINE
8
BLACK
6
CONTINUOUS
10
1.38818
20
0.74681
11
1.39137
21
0.744676
0
LINE
8
BLACK
6
CONTINUOUS
10
1.39137
20
0.744676
11
1.3935
21
0.741483
0
LINE
8
BLACK
6
CONTINUOUS
10
1.3935
20
0.741483
11
1.39425
21
0.737717
0
LINE
8
BLACK
6
CONTINUOUS
10
1.39425
20
0.737717
11
1.39425
21
0.702283
0
LINE
8
BLACK
6
CONTINUOUS
10
1.39425
20
0.702283
11
1.3935
21
0.698517
0
LINE
8
BLACK
6
CONTINUOUS
10
1.3935
20
0.698517
11
1.39137
21
0.695324
0
LINE
8
BLACK
6
CONTINUOUS
10
1.39137
20
0.695324
11
1.38818
21
0.69319
0
LINE
8
BLACK
6
CONTINUOUS
10
1.38818
20
0.69319
11
1.38441
21
0.692441
0
LINE
8
BLACK
6
CONTINUOUS
10
1.38441
20
0.692441
11
1.36374
21
0.692441
0
LINE
8
BLACK
6
CONTINUOUS
10
1.36374
20
0.692441
11
1.35997
21
0.69319
0
LINE
8
BLACK
6
CONTINUOUS
10
1.35997
20
0.69319
11
1.35678
21
0.695324
0
LINE
8
BLACK
6
CONTINUOUS
10
1.35678
20
0.695324
11
1.35465
21
0.698517
0
LINE
8
BLACK
6
CONTINUOUS
10
1.35465
20
0.698517
11
1.3539
21
0.702283
0
LINE
8
BLACK
6
CONTINUOUS
10
1.3539
20
0.702283
11
1.3539
21
0.737717
0
LINE
8
BLACK
6
CONTINUOUS
10
1.3539
20
0.737717
11
1.35465
21
0.741483
0
LINE
8
BLACK
6
CONTINUOUS
10
1.35465
20
0.741483
11
1.35678
21
0.744676
0
LINE
8
BLACK
6
CONTINUOUS
10
1.35678
20
0.744676
11
1.35997
21
0.74681
0
LINE
8
BLACK
6
CONTINUOUS
10
1.35997
20
0.74681
11
1.36374
21
0.747559
0
LINE
8
BLACK
6
CONTINUOUS
10
1.36374
20
0.747559
11
1.38441
21
0.747559
0
LINE
8
BLACK
6
CONTINUOUS
10
1.38441
20
0.747559
11
1.38818
21
0.74681
0
LINE
8
BLACK
6
CONTINUOUS
10
1.46003
20
0.74681
11
1.46322
21
0.744676
0
LINE
8
BLACK
6
CONTINUOUS
10
1.46322
20
0.744676
11
1.46535
21
0.741483
0
LINE
8
BLACK
6
CONTINUOUS
10
1.46535
20
0.741483
11
1.4661
21
0.737717
0
LINE
8
BLACK
6
CONTINUOUS
10
1.4661
20
0.737717
11
1.4661
21
0.702283
0
LINE
8
BLACK
6
CONTINUOUS
10
1.4661
20
0.702283
11
1.46535
21
0.698517
0
LINE
8
BLACK
6
CONTINUOUS
10
1.46535
20
0.698517
11
1.46322
21
0.695324
0
LINE
8
BLACK
6
CONTINUOUS
10
1.46322
20
0.695324
11
1.46003
21
0.69319
0
LINE
8
BLACK
6
CONTINUOUS
10
1.46003
20
0.69319
11
1.45626
21
0.692441
0
LINE
8
BLACK
6
CONTINUOUS
10
1.45626
20
0.692441
11
1.43559
21
0.692441
0
LINE
8
BLACK
6
CONTINUOUS
10
1.43559
20
0.692441
11
1.43182
21
0.69319
0
LINE
8
BLACK
6
CONTINUOUS
10
1.43182
20
0.69319
11
1.42863
21
0.695324
0
LINE
8
BLACK
6
CONTINUOUS
10
1.42863
20
0.695324
11
1.4265
21
0.698517
0
LINE
8
BLACK
6
CONTINUOUS
10
1.4265
20
0.698517
11
1.42575
21
0.702283
0
LINE
8
BLACK
6
CONTINUOUS
10
1.42575
20
0.702283
11
1.42575
21
0.737717
0
LINE
8
BLACK
6
CONTINUOUS
10
1.42575
20
0.737717
11
1.4265
21
0.741483
0
LINE
8
BLACK
6
CONTINUOUS
10
1.4265
20
0.741483
11
1.42863
21
0.744676
0
LINE
8
BLACK
6
CONTINUOUS
10
1.42863
20
0.744676
11
1.43182
21
0.74681
0
LINE
8
BLACK
6
CONTINUOUS
10
1.43182
20
0.74681
11
1.43559
21
0.747559
0
LINE
8
BLACK
6
CONTINUOUS
10
1.43559
20
0.747559
11
1.45626
21
0.747559
0
LINE
8
BLACK
6
CONTINUOUS
10
1.45626
20
0.747559
11
1.46003
21
0.74681
0
LINE
8
BLACK
6
CONTINUOUS
10
1.85365
20
0.78366
11
1.85684
21
0.781527
0
LINE
8
BLACK
6
CONTINUOUS
10
1.85684
20
0.781527
11
1.85898
21
0.778334
0
LINE
8
BLACK
6
CONTINUOUS
10
1.85898
20
0.778334
11
1.85972
21
0.774567
0
LINE
8
BLACK
6
CONTINUOUS
10
1.85972
20
0.774567
11
1.85972
21
0.739134
0
LINE
8
BLACK
6
CONTINUOUS
10
1.85972
20
0.739134
11
1.85898
21
0.735367
0
LINE
8
BLACK
6
CONTINUOUS
10
1.85898
20
0.735367
11
1.85684
21
0.732174
0
LINE
8
BLACK
6
CONTINUOUS
10
1.85684
20
0.732174
11
1.85365
21
0.730041
0
LINE
8
BLACK
6
CONTINUOUS
10
1.85365
20
0.730041
11
1.84988
21
0.729291
0
LINE
8
BLACK
6
CONTINUOUS
10
1.84988
20
0.729291
11
1.81642
21
0.729291
0
LINE
8
BLACK
6
CONTINUOUS
10
1.81642
20
0.729291
11
1.81265
21
0.730041
0
LINE
8
BLACK
6
CONTINUOUS
10
1.81265
20
0.730041
11
1.80946
21
0.732174
0
LINE
8
BLACK
6
CONTINUOUS
10
1.80946
20
0.732174
11
1.80732
21
0.735367
0
LINE
8
BLACK
6
CONTINUOUS
10
1.80732
20
0.735367
11
1.80657
21
0.739134
0
LINE
8
BLACK
6
CONTINUOUS
10
1.80657
20
0.739134
11
1.80657
21
0.774567
0
LINE
8
BLACK
6
CONTINUOUS
10
1.80657
20
0.774567
11
1.80732
21
0.778334
0
LINE
8
BLACK
6
CONTINUOUS
10
1.80732
20
0.778334
11
1.80946
21
0.781527
0
LINE
8
BLACK
6
CONTINUOUS
10
1.80946
20
0.781527
11
1.81265
21
0.78366
0
LINE
8
BLACK
6
CONTINUOUS
10
1.81265
20
0.78366
11
1.81642
21
0.784409
0
LINE
8
BLACK
6
CONTINUOUS
10
1.81642
20
0.784409
11
1.84988
21
0.784409
0
LINE
8
BLACK
6
CONTINUOUS
10
1.84988
20
0.784409
11
1.85365
21
0.78366
0
LINE
8
BLACK
6
CONTINUOUS
10
2.18953
20
0.74126
11
2.13047
21
0.74126
0
LINE
8
BLACK
6
CONTINUOUS
10
2.13047
20
0.74126
11
2.13047
21
0.792441
0
LINE
8
BLACK
6
CONTINUOUS
10
2.13047
20
0.792441
11
2.18953
21
0.792441
0
LINE
8
BLACK
6
CONTINUOUS
10
2.18953
20
0.792441
11
2.18953
21
0.74126
0
LINE
8
BLACK
6
CONTINUOUS
10
2.405
20
0.75
11
2.345
21
0.75
0
LINE
8
BLACK
6
CONTINUOUS
10
2.345
20
0.75
11
2.345
21
0.81
0
LINE
8
BLACK
6
CONTINUOUS
10
2.345
20
0.81
11
2.405
21
0.81
0
LINE
8
BLACK
6
CONTINUOUS
10
2.405
20
0.81
11
2.405
21
0.75
0
LINE
8
BLACK
6
CONTINUOUS
10
2.505
20
0.75
11
2.445
21
0.75
0
LINE
8
BLACK
6
CONTINUOUS
10
2.445
20
0.75
11
2.445
21
0.81
0
LINE
8
BLACK
6
CONTINUOUS
10
2.445
20
0.81
11
2.505
21
0.81
0
LINE
8
BLACK
6
CONTINUOUS
10
2.505
20
0.81
11
2.505
21
0.75
0
LINE
8
BLACK
6
CONTINUOUS
10
1.09833
20
0.803227
11
1.10153
21
0.801094
0
LINE
8
BLACK
6
CONTINUOUS
10
1.10153
20
0.801094
11
1.10366
21
0.7979
0
LINE
8
BLACK
6
CONTINUOUS
10
1.10366
20
0.7979
11
1.10441
21
0.794134
0
LINE
8
BLACK
6
CONTINUOUS
10
1.10441
20
0.794134
11
1.10441
21
0.760669
0
LINE
8
BLACK
6
CONTINUOUS
10
1.10441
20
0.760669
11
1.10366
21
0.756903
0
LINE
8
BLACK
6
CONTINUOUS
10
1.10366
20
0.756903
11
1.10153
21
0.75371
0
LINE
8
BLACK
6
CONTINUOUS
10
1.10153
20
0.75371
11
1.09833
21
0.751576
0
LINE
8
BLACK
6
CONTINUOUS
10
1.09833
20
0.751576
11
1.09457
21
0.750827
0
LINE
8
BLACK
6
CONTINUOUS
10
1.09457
20
0.750827
11
1.05913
21
0.750827
0
LINE
8
BLACK
6
CONTINUOUS
10
1.05913
20
0.750827
11
1.05537
21
0.751576
0
LINE
8
BLACK
6
CONTINUOUS
10
1.05537
20
0.751576
11
1.05217
21
0.75371
0
LINE
8
BLACK
6
CONTINUOUS
10
1.05217
20
0.75371
11
1.05004
21
0.756903
0
LINE
8
BLACK
6
CONTINUOUS
10
1.05004
20
0.756903
11
1.04929
21
0.760669
0
LINE
8
BLACK
6
CONTINUOUS
10
1.04929
20
0.760669
11
1.04929
21
0.794134
0
LINE
8
BLACK
6
CONTINUOUS
10
1.04929
20
0.794134
11
1.05004
21
0.7979
0
LINE
8
BLACK
6
CONTINUOUS
10
1.05004
20
0.7979
11
1.05217
21
0.801094
0
LINE
8
BLACK
6
CONTINUOUS
10
1.05217
20
0.801094
11
1.05537
21
0.803227
0
LINE
8
BLACK
6
CONTINUOUS
10
1.05537
20
0.803227
11
1.05913
21
0.803976
0
LINE
8
BLACK
6
CONTINUOUS
10
1.05913
20
0.803976
11
1.09457
21
0.803976
0
LINE
8
BLACK
6
CONTINUOUS
10
1.09457
20
0.803976
11
1.09833
21
0.803227
0
LINE
8
BLACK
6
CONTINUOUS
10
1.20463
20
0.803227
11
1.20783
21
0.801094
0
LINE
8
BLACK
6
CONTINUOUS
10
1.20783
20
0.801094
11
1.20996
21
0.7979
0
LINE
8
BLACK
6
CONTINUOUS
10
1.20996
20
0.7979
11
1.21071
21
0.794134
0
LINE
8
BLACK
6
CONTINUOUS
10
1.21071
20
0.794134
11
1.21071
21
0.760669
0
LINE
8
BLACK
6
CONTINUOUS
10
1.21071
20
0.760669
11
1.20996
21
0.756903
0
LINE
8
BLACK
6
CONTINUOUS
10
1.20996
20
0.756903
11
1.20783
21
0.75371
0
LINE
8
BLACK
6
CONTINUOUS
10
1.20783
20
0.75371
11
1.20463
21
0.751576
0
LINE
8
BLACK
6
CONTINUOUS
10
1.20463
20
0.751576
11
1.20087
21
0.750827
0
LINE
8
BLACK
6
CONTINUOUS
10
1.20087
20
0.750827
11
1.16543
21
0.750827
0
LINE
8
BLACK
6
CONTINUOUS
10
1.16543
20
0.750827
11
1.16167
21
0.751576
0
LINE
8
BLACK
6
CONTINUOUS
10
1.16167
20
0.751576
11
1.15847
21
0.75371
0
LINE
8
BLACK
6
CONTINUOUS
10
1.15847
20
0.75371
11
1.15634
21
0.756903
0
LINE
8
BLACK
6
CONTINUOUS
10
1.15634
20
0.756903
11
1.15559
21
0.760669
0
LINE
8
BLACK
6
CONTINUOUS
10
1.15559
20
0.760669
11
1.15559
21
0.794134
0
LINE
8
BLACK
6
CONTINUOUS
10
1.15559
20
0.794134
11
1.15634
21
0.7979
0
LINE
8
BLACK
6
CONTINUOUS
10
1.15634
20
0.7979
11
1.15847
21
0.801094
0
LINE
8
BLACK
6
CONTINUOUS
10
1.15847
20
0.801094
11
1.16167
21
0.803227
0
LINE
8
BLACK
6
CONTINUOUS
10
1.16167
20
0.803227
11
1.16543
21
0.803976
0
LINE
8
BLACK
6
CONTINUOUS
10
1.16543
20
0.803976
11
1.20087
21
0.803976
0
LINE
8
BLACK
6
CONTINUOUS
10
1.20087
20
0.803976
11
1.20463
21
0.803227
0
LINE
8
BLACK
6
CONTINUOUS
10
0.922467
20
0.801534
11
0.925661
21
0.799401
0
LINE
8
BLACK
6
CONTINUOUS
10
0.925661
20
0.799401
11
0.927794
21
0.796208
0
LINE
8
BLACK
6
CONTINUOUS
10
0.927794
20
0.796208
11
0.928543
21
0.792441
0
LINE
8
BLACK
6
CONTINUOUS
10
0.928543
20
0.792441
11
0.928543
21
0.772756
0
LINE
8
BLACK
6
CONTINUOUS
10
0.928543
20
0.772756
11
0.927794
21
0.768989
0
LINE
8
BLACK
6
CONTINUOUS
10
0.927794
20
0.768989
11
0.925661
21
0.765796
0
LINE
8
BLACK
6
CONTINUOUS
10
0.925661
20
0.765796
11
0.922467
21
0.763663
0
LINE
8
BLACK
6
CONTINUOUS
10
0.922467
20
0.763663
11
0.918701
21
0.762913
0
LINE
8
BLACK
6
CONTINUOUS
10
0.918701
20
0.762913
11
0.881299
21
0.762913
0
LINE
8
BLACK
6
CONTINUOUS
10
0.881299
20
0.762913
11
0.877533
21
0.763663
0
LINE
8
BLACK
6
CONTINUOUS
10
0.877533
20
0.763663
11
0.874339
21
0.765796
0
LINE
8
BLACK
6
CONTINUOUS
10
0.874339
20
0.765796
11
0.872206
21
0.768989
0
LINE
8
BLACK
6
CONTINUOUS
10
0.872206
20
0.768989
11
0.871457
21
0.772756
0
LINE
8
BLACK
6
CONTINUOUS
10
0.871457
20
0.772756
11
0.871457
21
0.792441
0
LINE
8
BLACK
6
CONTINUOUS
10
0.871457
20
0.792441
11
0.872206
21
0.796208
0
LINE
8
BLACK
6
CONTINUOUS
10
0.872206
20
0.796208
11
0.874339
21
0.799401
0
LINE
8
BLACK
6
CONTINUOUS
10
0.874339
20
0.799401
11
0.877533
21
0.801534
0
LINE
8
BLACK
6
CONTINUOUS
10
0.877533
20
0.801534
11
0.881299
21
0.802283
0
LINE
8
BLACK
6
CONTINUOUS
10
0.881299
20
0.802283
11
0.918701
21
0.802283
0
LINE
8
BLACK
6
CONTINUOUS
10
0.918701
20
0.802283
11
0.922467
21
0.801534
0
LINE
8
BLACK
6
CONTINUOUS
10
2.30247
20
0.801534
11
2.30566
21
0.799401
0
LINE
8
BLACK
6
CONTINUOUS
10
2.30566
20
0.799401
11
2.30779
21
0.796208
0
LINE
8
BLACK
6
CONTINUOUS
10
2.30779
20
0.796208
11
2.30854
21
0.792441
0
LINE
8
BLACK
6
CONTINUOUS
10
2.30854
20
0.792441
11
2.30854
21
0.772756
0
LINE
8
BLACK
6
CONTINUOUS
10
2.30854
20
0.772756
11
2.30779
21
0.768989
0
LINE
8
BLACK
6
CONTINUOUS
10
2.30779
20
0.768989
11
2.30566
21
0.765796
0
LINE
8
BLACK
6
CONTINUOUS
10
2.30566
20
0.765796
11
2.30247
21
0.763663
0
LINE
8
BLACK
6
CONTINUOUS
10
2.30247
20
0.763663
11
2.2987
21
0.762913
0
LINE
8
BLACK
6
CONTINUOUS
10
2.2987
20
0.762913
11
2.2613
21
0.762913
0
LINE
8
BLACK
6
CONTINUOUS
10
2.2613
20
0.762913
11
2.25753
21
0.763663
0
LINE
8
BLACK
6
CONTINUOUS
10
2.25753
20
0.763663
11
2.25434
21
0.765796
0
LINE
8
BLACK
6
CONTINUOUS
10
2.25434
20
0.765796
11
2.25221
21
0.768989
0
LINE
8
BLACK
6
CONTINUOUS
10
2.25221
20
0.768989
11
2.25146
21
0.772756
0
LINE
8
BLACK
6
CONTINUOUS
10
2.25146
20
0.772756
11
2.25146
21
0.792441
0
LINE
8
BLACK
6
CONTINUOUS
10
2.25146
20
0.792441
11
2.25221
21
0.796208
0
LINE
8
BLACK
6
CONTINUOUS
10
2.25221
20
0.796208
11
2.25434
21
0.799401
0
LINE
8
BLACK
6
CONTINUOUS
10
2.25434
20
0.799401
11
2.25753
21
0.801534
0
LINE
8
BLACK
6
CONTINUOUS
10
2.25753
20
0.801534
11
2.2613
21
0.802283
0
LINE
8
BLACK
6
CONTINUOUS
10
2.2613
20
0.802283
11
2.2987
21
0.802283
0
LINE
8
BLACK
6
CONTINUOUS
10
2.2987
20
0.802283
11
2.30247
21
0.801534
0
LINE
8
BLACK
6
CONTINUOUS
10
1.01148
20
0.803503
11
1.01468
21
0.801369
0
LINE
8
BLACK
6
CONTINUOUS
10
1.01468
20
0.801369
11
1.01681
21
0.798176
0
LINE
8
BLACK
6
CONTINUOUS
10
1.01681
20
0.798176
11
1.01756
21
0.794409
0
LINE
8
BLACK
6
CONTINUOUS
10
1.01756
20
0.794409
11
1.01756
21
0.77374
0
LINE
8
BLACK
6
CONTINUOUS
10
1.01756
20
0.77374
11
1.01681
21
0.769974
0
LINE
8
BLACK
6
CONTINUOUS
10
1.01681
20
0.769974
11
1.01468
21
0.76678
0
LINE
8
BLACK
6
CONTINUOUS
10
1.01468
20
0.76678
11
1.01148
21
0.764647
0
LINE
8
BLACK
6
CONTINUOUS
10
1.01148
20
0.764647
11
1.00772
21
0.763898
0
LINE
8
BLACK
6
CONTINUOUS
10
1.00772
20
0.763898
11
0.972283
21
0.763898
0
LINE
8
BLACK
6
CONTINUOUS
10
0.972283
20
0.763898
11
0.968517
21
0.764647
0
LINE
8
BLACK
6
CONTINUOUS
10
0.968517
20
0.764647
11
0.965324
21
0.76678
0
LINE
8
BLACK
6
CONTINUOUS
10
0.965324
20
0.76678
11
0.96319
21
0.769974
0
LINE
8
BLACK
6
CONTINUOUS
10
0.96319
20
0.769974
11
0.962441
21
0.77374
0
LINE
8
BLACK
6
CONTINUOUS
10
0.962441
20
0.77374
11
0.962441
21
0.794409
0
LINE
8
BLACK
6
CONTINUOUS
10
0.962441
20
0.794409
11
0.96319
21
0.798176
0
LINE
8
BLACK
6
CONTINUOUS
10
0.96319
20
0.798176
11
0.965324
21
0.801369
0
LINE
8
BLACK
6
CONTINUOUS
10
0.965324
20
0.801369
11
0.968517
21
0.803503
0
LINE
8
BLACK
6
CONTINUOUS
10
0.968517
20
0.803503
11
0.972283
21
0.804252
0
LINE
8
BLACK
6
CONTINUOUS
10
0.972283
20
0.804252
11
1.00772
21
0.804252
0
LINE
8
BLACK
6
CONTINUOUS
10
1.00772
20
0.804252
11
1.01148
21
0.803503
0
LINE
8
BLACK
6
CONTINUOUS
10
1.30148
20
0.803503
11
1.30468
21
0.801369
0
LINE
8
BLACK
6
CONTINUOUS
10
1.30468
20
0.801369
11
1.30681
21
0.798176
0
LINE
8
BLACK
6
CONTINUOUS
10
1.30681
20
0.798176
11
1.30756
21
0.794409
0
LINE
8
BLACK
6
CONTINUOUS
10
1.30756
20
0.794409
11
1.30756
21
0.77374
0
LINE
8
BLACK
6
CONTINUOUS
10
1.30756
20
0.77374
11
1.30681
21
0.769974
0
LINE
8
BLACK
6
CONTINUOUS
10
1.30681
20
0.769974
11
1.30468
21
0.76678
0
LINE
8
BLACK
6
CONTINUOUS
10
1.30468
20
0.76678
11
1.30148
21
0.764647
0
LINE
8
BLACK
6
CONTINUOUS
10
1.30148
20
0.764647
11
1.29772
21
0.763898
0
LINE
8
BLACK
6
CONTINUOUS
10
1.29772
20
0.763898
11
1.26228
21
0.763898
0
LINE
8
BLACK
6
CONTINUOUS
10
1.26228
20
0.763898
11
1.25852
21
0.764647
0
LINE
8
BLACK
6
CONTINUOUS
10
1.25852
20
0.764647
11
1.25532
21
0.76678
0
LINE
8
BLACK
6
CONTINUOUS
10
1.25532
20
0.76678
11
1.25319
21
0.769974
0
LINE
8
BLACK
6
CONTINUOUS
10
1.25319
20
0.769974
11
1.25244
21
0.77374
0
LINE
8
BLACK
6
CONTINUOUS
10
1.25244
20
0.77374
11
1.25244
21
0.794409
0
LINE
8
BLACK
6
CONTINUOUS
10
1.25244
20
0.794409
11
1.25319
21
0.798176
0
LINE
8
BLACK
6
CONTINUOUS
10
1.25319
20
0.798176
11
1.25532
21
0.801369
0
LINE
8
BLACK
6
CONTINUOUS
10
1.25532
20
0.801369
11
1.25852
21
0.803503
0
LINE
8
BLACK
6
CONTINUOUS
10
1.25852
20
0.803503
11
1.26228
21
0.804252
0
LINE
8
BLACK
6
CONTINUOUS
10
1.26228
20
0.804252
11
1.29772
21
0.804252
0
LINE
8
BLACK
6
CONTINUOUS
10
1.29772
20
0.804252
11
1.30148
21
0.803503
0
LINE
8
BLACK
6
CONTINUOUS
10
0.592467
20
0.806534
11
0.595661
21
0.804401
0
LINE
8
BLACK
6
CONTINUOUS
10
0.595661
20
0.804401
11
0.597794
21
0.801208
0
LINE
8
BLACK
6
CONTINUOUS
10
0.597794
20
0.801208
11
0.598543
21
0.797441
0
LINE
8
BLACK
6
CONTINUOUS
10
0.598543
20
0.797441
11
0.598543
21
0.777756
0
LINE
8
BLACK
6
CONTINUOUS
10
0.598543
20
0.777756
11
0.597794
21
0.773989
0
LINE
8
BLACK
6
CONTINUOUS
10
0.597794
20
0.773989
11
0.595661
21
0.770796
0
LINE
8
BLACK
6
CONTINUOUS
10
0.595661
20
0.770796
11
0.592467
21
0.768663
0
LINE
8
BLACK
6
CONTINUOUS
10
0.592467
20
0.768663
11
0.588701
21
0.767913
0
LINE
8
BLACK
6
CONTINUOUS
10
0.588701
20
0.767913
11
0.551299
21
0.767913
0
LINE
8
BLACK
6
CONTINUOUS
10
0.551299
20
0.767913
11
0.547533
21
0.768663
0
LINE
8
BLACK
6
CONTINUOUS
10
0.547533
20
0.768663
11
0.544339
21
0.770796
0
LINE
8
BLACK
6
CONTINUOUS
10
0.544339
20
0.770796
11
0.542206
21
0.773989
0
LINE
8
BLACK
6
CONTINUOUS
10
0.542206
20
0.773989
11
0.541457
21
0.777756
0
LINE
8
BLACK
6
CONTINUOUS
10
0.541457
20
0.777756
11
0.541457
21
0.797441
0
LINE
8
BLACK
6
CONTINUOUS
10
0.541457
20
0.797441
11
0.542206
21
0.801208
0
LINE
8
BLACK
6
CONTINUOUS
10
0.542206
20
0.801208
11
0.544339
21
0.804401
0
LINE
8
BLACK
6
CONTINUOUS
10
0.544339
20
0.804401
11
0.547533
21
0.806534
0
LINE
8
BLACK
6
CONTINUOUS
10
0.547533
20
0.806534
11
0.551299
21
0.807283
0
LINE
8
BLACK
6
CONTINUOUS
10
0.551299
20
0.807283
11
0.588701
21
0.807283
0
LINE
8
BLACK
6
CONTINUOUS
10
0.588701
20
0.807283
11
0.592467
21
0.806534
0
LINE
8
BLACK
6
CONTINUOUS
10
1.76747
20
0.816534
11
1.77066
21
0.814401
0
LINE
8
BLACK
6
CONTINUOUS
10
1.77066
20
0.814401
11
1.77279
21
0.811208
0
LINE
8
BLACK
6
CONTINUOUS
10
1.77279
20
0.811208
11
1.77354
21
0.807441
0
LINE
8
BLACK
6
CONTINUOUS
10
1.77354
20
0.807441
11
1.77354
21
0.787756
0
LINE
8
BLACK
6
CONTINUOUS
10
1.77354
20
0.787756
11
1.77279
21
0.783989
0
LINE
8
BLACK
6
CONTINUOUS
10
1.77279
20
0.783989
11
1.77066
21
0.780796
0
LINE
8
BLACK
6
CONTINUOUS
10
1.77066
20
0.780796
11
1.76747
21
0.778663
0
LINE
8
BLACK
6
CONTINUOUS
10
1.76747
20
0.778663
11
1.7637
21
0.777913
0
LINE
8
BLACK
6
CONTINUOUS
10
1.7637
20
0.777913
11
1.7263
21
0.777913
0
LINE
8
BLACK
6
CONTINUOUS
10
1.7263
20
0.777913
11
1.72253
21
0.778663
0
LINE
8
BLACK
6
CONTINUOUS
10
1.72253
20
0.778663
11
1.71934
21
0.780796
0
LINE
8
BLACK
6
CONTINUOUS
10
1.71934
20
0.780796
11
1.71721
21
0.783989
0
LINE
8
BLACK
6
CONTINUOUS
10
1.71721
20
0.783989
11
1.71646
21
0.787756
0
LINE
8
BLACK
6
CONTINUOUS
10
1.71646
20
0.787756
11
1.71646
21
0.807441
0
LINE
8
BLACK
6
CONTINUOUS
10
1.71646
20
0.807441
11
1.71721
21
0.811208
0
LINE
8
BLACK
6
CONTINUOUS
10
1.71721
20
0.811208
11
1.71934
21
0.814401
0
LINE
8
BLACK
6
CONTINUOUS
10
1.71934
20
0.814401
11
1.72253
21
0.816534
0
LINE
8
BLACK
6
CONTINUOUS
10
1.72253
20
0.816534
11
1.7263
21
0.817283
0
LINE
8
BLACK
6
CONTINUOUS
10
1.7263
20
0.817283
11
1.7637
21
0.817283
0
LINE
8
BLACK
6
CONTINUOUS
10
1.7637
20
0.817283
11
1.76747
21
0.816534
0
LINE
8
BLACK
6
CONTINUOUS
10
0.39
20
0.79
11
0.33
21
0.79
0
LINE
8
BLACK
6
CONTINUOUS
10
0.33
20
0.79
11
0.33
21
0.85
0
LINE
8
BLACK
6
CONTINUOUS
10
0.33
20
0.85
11
0.39
21
0.85
0
LINE
8
BLACK
6
CONTINUOUS
10
0.39
20
0.85
11
0.39
21
0.79
0
LINE
8
BLACK
6
CONTINUOUS
10
0.49
20
0.79
11
0.43
21
0.79
0
LINE
8
BLACK
6
CONTINUOUS
10
0.43
20
0.79
11
0.43
21
0.85
0
LINE
8
BLACK
6
CONTINUOUS
10
0.43
20
0.85
11
0.49
21
0.85
0
LINE
8
BLACK
6
CONTINUOUS
10
0.49
20
0.85
11
0.49
21
0.79
0
LINE
8
BLACK
6
CONTINUOUS
10
2.21906
20
0.80622
11
2.10094
21
0.80622
0
LINE
8
BLACK
6
CONTINUOUS
10
2.10094
20
0.80622
11
2.10094
21
0.83378
0
LINE
8
BLACK
6
CONTINUOUS
10
2.10094
20
0.83378
11
2.21906
21
0.83378
0
LINE
8
BLACK
6
CONTINUOUS
10
2.21906
20
0.83378
11
2.21906
21
0.80622
0
LINE
8
BLACK
6
CONTINUOUS
10
0.793701
20
0.807087
11
0.754331
21
0.807087
0
LINE
8
BLACK
6
CONTINUOUS
10
0.754331
20
0.807087
11
0.754331
21
0.956693
0
LINE
8
BLACK
6
CONTINUOUS
10
0.754331
20
0.956693
11
0.793701
21
0.956693
0
LINE
8
BLACK
6
CONTINUOUS
10
0.793701
20
0.956693
11
0.793701
21
0.807087
0
LINE
8
BLACK
6
CONTINUOUS
10
2.04567
20
0.807087
11
2.0063
21
0.807087
0
LINE
8
BLACK
6
CONTINUOUS
10
2.0063
20
0.807087
11
2.0063
21
0.956693
0
LINE
8
BLACK
6
CONTINUOUS
10
2.0063
20
0.956693
11
2.04567
21
0.956693
0
LINE
8
BLACK
6
CONTINUOUS
10
2.04567
20
0.956693
11
2.04567
21
0.807087
0
LINE
8
BLACK
6
CONTINUOUS
10
1.60539
20
0.812953
11
1.5798
21
0.812953
0
LINE
8
BLACK
6
CONTINUOUS
10
1.5798
20
0.812953
11
1.5798
21
0.891693
0
LINE
8
BLACK
6
CONTINUOUS
10
1.5798
20
0.891693
11
1.60539
21
0.891693
0
LINE
8
BLACK
6
CONTINUOUS
10
1.60539
20
0.891693
11
1.60539
21
0.812953
0
LINE
8
BLACK
6
CONTINUOUS
10
1.6802
20
0.812953
11
1.65461
21
0.812953
0
LINE
8
BLACK
6
CONTINUOUS
10
1.65461
20
0.812953
11
1.65461
21
0.891693
0
LINE
8
BLACK
6
CONTINUOUS
10
1.65461
20
0.891693
11
1.6802
21
0.891693
0
LINE
8
BLACK
6
CONTINUOUS
10
1.6802
20
0.891693
11
1.6802
21
0.812953
0
LINE
8
BLACK
6
CONTINUOUS
10
0.7
20
0.83
11
0.64
21
0.83
0
LINE
8
BLACK
6
CONTINUOUS
10
0.64
20
0.83
11
0.64
21
0.89
0
LINE
8
BLACK
6
CONTINUOUS
10
0.64
20
0.89
11
0.7
21
0.89
0
LINE
8
BLACK
6
CONTINUOUS
10
0.7
20
0.89
11
0.7
21
0.83
0
LINE
8
BLACK
6
CONTINUOUS
10
1.85365
20
0.889959
11
1.85684
21
0.887826
0
LINE
8
BLACK
6
CONTINUOUS
10
1.85684
20
0.887826
11
1.85898
21
0.884633
0
LINE
8
BLACK
6
CONTINUOUS
10
1.85898
20
0.884633
11
1.85972
21
0.880866
0
LINE
8
BLACK
6
CONTINUOUS
10
1.85972
20
0.880866
11
1.85972
21
0.845433
0
LINE
8
BLACK
6
CONTINUOUS
10
1.85972
20
0.845433
11
1.85898
21
0.841666
0
LINE
8
BLACK
6
CONTINUOUS
10
1.85898
20
0.841666
11
1.85684
21
0.838473
0
LINE
8
BLACK
6
CONTINUOUS
10
1.85684
20
0.838473
11
1.85365
21
0.83634
0
LINE
8
BLACK
6
CONTINUOUS
10
1.85365
20
0.83634
11
1.84988
21
0.835591
0
LINE
8
BLACK
6
CONTINUOUS
10
1.84988
20
0.835591
11
1.81642
21
0.835591
0
LINE
8
BLACK
6
CONTINUOUS
10
1.81642
20
0.835591
11
1.81265
21
0.83634
0
LINE
8
BLACK
6
CONTINUOUS
10
1.81265
20
0.83634
11
1.80946
21
0.838473
0
LINE
8
BLACK
6
CONTINUOUS
10
1.80946
20
0.838473
11
1.80732
21
0.841666
0
LINE
8
BLACK
6
CONTINUOUS
10
1.80732
20
0.841666
11
1.80657
21
0.845433
0
LINE
8
BLACK
6
CONTINUOUS
10
1.80657
20
0.845433
11
1.80657
21
0.880866
0
LINE
8
BLACK
6
CONTINUOUS
10
1.80657
20
0.880866
11
1.80732
21
0.884633
0
LINE
8
BLACK
6
CONTINUOUS
10
1.80732
20
0.884633
11
1.80946
21
0.887826
0
LINE
8
BLACK
6
CONTINUOUS
10
1.80946
20
0.887826
11
1.81265
21
0.889959
0
LINE
8
BLACK
6
CONTINUOUS
10
1.81265
20
0.889959
11
1.81642
21
0.890709
0
LINE
8
BLACK
6
CONTINUOUS
10
1.81642
20
0.890709
11
1.84988
21
0.890709
0
LINE
8
BLACK
6
CONTINUOUS
10
1.84988
20
0.890709
11
1.85365
21
0.889959
0
LINE
8
BLACK
6
CONTINUOUS
10
1.01148
20
0.875353
11
1.01468
21
0.87322
0
LINE
8
BLACK
6
CONTINUOUS
10
1.01468
20
0.87322
11
1.01681
21
0.870026
0
LINE
8
BLACK
6
CONTINUOUS
10
1.01681
20
0.870026
11
1.01756
21
0.86626
0
LINE
8
BLACK
6
CONTINUOUS
10
1.01756
20
0.86626
11
1.01756
21
0.845591
0
LINE
8
BLACK
6
CONTINUOUS
10
1.01756
20
0.845591
11
1.01681
21
0.841824
0
LINE
8
BLACK
6
CONTINUOUS
10
1.01681
20
0.841824
11
1.01468
21
0.838631
0
LINE
8
BLACK
6
CONTINUOUS
10
1.01468
20
0.838631
11
1.01148
21
0.836497
0
LINE
8
BLACK
6
CONTINUOUS
10
1.01148
20
0.836497
11
1.00772
21
0.835748
0
LINE
8
BLACK
6
CONTINUOUS
10
1.00772
20
0.835748
11
0.972283
21
0.835748
0
LINE
8
BLACK
6
CONTINUOUS
10
0.972283
20
0.835748
11
0.968517
21
0.836497
0
LINE
8
BLACK
6
CONTINUOUS
10
0.968517
20
0.836497
11
0.965324
21
0.838631
0
LINE
8
BLACK
6
CONTINUOUS
10
0.965324
20
0.838631
11
0.96319
21
0.841824
0
LINE
8
BLACK
6
CONTINUOUS
10
0.96319
20
0.841824
11
0.962441
21
0.845591
0
LINE
8
BLACK
6
CONTINUOUS
10
0.962441
20
0.845591
11
0.962441
21
0.86626
0
LINE
8
BLACK
6
CONTINUOUS
10
0.962441
20
0.86626
11
0.96319
21
0.870026
0
LINE
8
BLACK
6
CONTINUOUS
10
0.96319
20
0.870026
11
0.965324
21
0.87322
0
LINE
8
BLACK
6
CONTINUOUS
10
0.965324
20
0.87322
11
0.968517
21
0.875353
0
LINE
8
BLACK
6
CONTINUOUS
10
0.968517
20
0.875353
11
0.972283
21
0.876102
0
LINE
8
BLACK
6
CONTINUOUS
10
0.972283
20
0.876102
11
1.00772
21
0.876102
0
LINE
8
BLACK
6
CONTINUOUS
10
1.00772
20
0.876102
11
1.01148
21
0.875353
0
LINE
8
BLACK
6
CONTINUOUS
10
1.30148
20
0.875353
11
1.30468
21
0.87322
0
LINE
8
BLACK
6
CONTINUOUS
10
1.30468
20
0.87322
11
1.30681
21
0.870026
0
LINE
8
BLACK
6
CONTINUOUS
10
1.30681
20
0.870026
11
1.30756
21
0.86626
0
LINE
8
BLACK
6
CONTINUOUS
10
1.30756
20
0.86626
11
1.30756
21
0.845591
0
LINE
8
BLACK
6
CONTINUOUS
10
1.30756
20
0.845591
11
1.30681
21
0.841824
0
LINE
8
BLACK
6
CONTINUOUS
10
1.30681
20
0.841824
11
1.30468
21
0.838631
0
LINE
8
BLACK
6
CONTINUOUS
10
1.30468
20
0.838631
11
1.30148
21
0.836497
0
LINE
8
BLACK
6
CONTINUOUS
10
1.30148
20
0.836497
11
1.29772
21
0.835748
0
LINE
8
BLACK
6
CONTINUOUS
10
1.29772
20
0.835748
11
1.26228
21
0.835748
0
LINE
8
BLACK
6
CONTINUOUS
10
1.26228
20
0.835748
11
1.25852
21
0.836497
0
LINE
8
BLACK
6
CONTINUOUS
10
1.25852
20
0.836497
11
1.25532
21
0.838631
0
LINE
8
BLACK
6
CONTINUOUS
10
1.25532
20
0.838631
11
1.25319
21
0.841824
0
LINE
8
BLACK
6
CONTINUOUS
10
1.25319
20
0.841824
11
1.25244
21
0.845591
0
LINE
8
BLACK
6
CONTINUOUS
10
1.25244
20
0.845591
11
1.25244
21
0.86626
0
LINE
8
BLACK
6
CONTINUOUS
10
1.25244
20
0.86626
11
1.25319
21
0.870026
0
LINE
8
BLACK
6
CONTINUOUS
10
1.25319
20
0.870026
11
1.25532
21
0.87322
0
LINE
8
BLACK
6
CONTINUOUS
10
1.25532
20
0.87322
11
1.25852
21
0.875353
0
LINE
8
BLACK
6
CONTINUOUS
10
1.25852
20
0.875353
11
1.26228
21
0.876102
0
LINE
8
BLACK
6
CONTINUOUS
10
1.26228
20
0.876102
11
1.29772
21
0.876102
0
LINE
8
BLACK
6
CONTINUOUS
10
1.29772
20
0.876102
11
1.30148
21
0.875353
0
LINE
8
BLACK
6
CONTINUOUS
10
0.922467
20
0.876337
11
0.925661
21
0.874204
0
LINE
8
BLACK
6
CONTINUOUS
10
0.925661
20
0.874204
11
0.927794
21
0.871011
0
LINE
8
BLACK
6
CONTINUOUS
10
0.927794
20
0.871011
11
0.928543
21
0.867244
0
LINE
8
BLACK
6
CONTINUOUS
10
0.928543
20
0.867244
11
0.928543
21
0.847559
0
LINE
8
BLACK
6
CONTINUOUS
10
0.928543
20
0.847559
11
0.927794
21
0.843792
0
LINE
8
BLACK
6
CONTINUOUS
10
0.927794
20
0.843792
11
0.925661
21
0.840599
0
LINE
8
BLACK
6
CONTINUOUS
10
0.925661
20
0.840599
11
0.922467
21
0.838466
0
LINE
8
BLACK
6
CONTINUOUS
10
0.922467
20
0.838466
11
0.918701
21
0.837717
0
LINE
8
BLACK
6
CONTINUOUS
10
0.918701
20
0.837717
11
0.881299
21
0.837717
0
LINE
8
BLACK
6
CONTINUOUS
10
0.881299
20
0.837717
11
0.877533
21
0.838466
0
LINE
8
BLACK
6
CONTINUOUS
10
0.877533
20
0.838466
11
0.874339
21
0.840599
0
LINE
8
BLACK
6
CONTINUOUS
10
0.874339
20
0.840599
11
0.872206
21
0.843792
0
LINE
8
BLACK
6
CONTINUOUS
10
0.872206
20
0.843792
11
0.871457
21
0.847559
0
LINE
8
BLACK
6
CONTINUOUS
10
0.871457
20
0.847559
11
0.871457
21
0.867244
0
LINE
8
BLACK
6
CONTINUOUS
10
0.871457
20
0.867244
11
0.872206
21
0.871011
0
LINE
8
BLACK
6
CONTINUOUS
10
0.872206
20
0.871011
11
0.874339
21
0.874204
0
LINE
8
BLACK
6
CONTINUOUS
10
0.874339
20
0.874204
11
0.877533
21
0.876337
0
LINE
8
BLACK
6
CONTINUOUS
10
0.877533
20
0.876337
11
0.881299
21
0.877087
0
LINE
8
BLACK
6
CONTINUOUS
10
0.881299
20
0.877087
11
0.918701
21
0.877087
0
LINE
8
BLACK
6
CONTINUOUS
10
0.918701
20
0.877087
11
0.922467
21
0.876337
0
LINE
8
BLACK
6
CONTINUOUS
10
2.30247
20
0.876337
11
2.30566
21
0.874204
0
LINE
8
BLACK
6
CONTINUOUS
10
2.30566
20
0.874204
11
2.30779
21
0.871011
0
LINE
8
BLACK
6
CONTINUOUS
10
2.30779
20
0.871011
11
2.30854
21
0.867244
0
LINE
8
BLACK
6
CONTINUOUS
10
2.30854
20
0.867244
11
2.30854
21
0.847559
0
LINE
8
BLACK
6
CONTINUOUS
10
2.30854
20
0.847559
11
2.30779
21
0.843792
0
LINE
8
BLACK
6
CONTINUOUS
10
2.30779
20
0.843792
11
2.30566
21
0.840599
0
LINE
8
BLACK
6
CONTINUOUS
10
2.30566
20
0.840599
11
2.30247
21
0.838466
0
LINE
8
BLACK
6
CONTINUOUS
10
2.30247
20
0.838466
11
2.2987
21
0.837717
0
LINE
8
BLACK
6
CONTINUOUS
10
2.2987
20
0.837717
11
2.2613
21
0.837717
0
LINE
8
BLACK
6
CONTINUOUS
10
2.2613
20
0.837717
11
2.25753
21
0.838466
0
LINE
8
BLACK
6
CONTINUOUS
10
2.25753
20
0.838466
11
2.25434
21
0.840599
0
LINE
8
BLACK
6
CONTINUOUS
10
2.25434
20
0.840599
11
2.25221
21
0.843792
0
LINE
8
BLACK
6
CONTINUOUS
10
2.25221
20
0.843792
11
2.25146
21
0.847559
0
LINE
8
BLACK
6
CONTINUOUS
10
2.25146
20
0.847559
11
2.25146
21
0.867244
0
LINE
8
BLACK
6
CONTINUOUS
10
2.25146
20
0.867244
11
2.25221
21
0.871011
0
LINE
8
BLACK
6
CONTINUOUS
10
2.25221
20
0.871011
11
2.25434
21
0.874204
0
LINE
8
BLACK
6
CONTINUOUS
10
2.25434
20
0.874204
11
2.25753
21
0.876337
0
LINE
8
BLACK
6
CONTINUOUS
10
2.25753
20
0.876337
11
2.2613
21
0.877087
0
LINE
8
BLACK
6
CONTINUOUS
10
2.2613
20
0.877087
11
2.2987
21
0.877087
0
LINE
8
BLACK
6
CONTINUOUS
10
2.2987
20
0.877087
11
2.30247
21
0.876337
0
LINE
8
BLACK
6
CONTINUOUS
10
0.592467
20
0.881337
11
0.595661
21
0.879204
0
LINE
8
BLACK
6
CONTINUOUS
10
0.595661
20
0.879204
11
0.597794
21
0.876011
0
LINE
8
BLACK
6
CONTINUOUS
10
0.597794
20
0.876011
11
0.598543
21
0.872244
0
LINE
8
BLACK
6
CONTINUOUS
10
0.598543
20
0.872244
11
0.598543
21
0.852559
0
LINE
8
BLACK
6
CONTINUOUS
10
0.598543
20
0.852559
11
0.597794
21
0.848792
0
LINE
8
BLACK
6
CONTINUOUS
10
0.597794
20
0.848792
11
0.595661
21
0.845599
0
LINE
8
BLACK
6
CONTINUOUS
10
0.595661
20
0.845599
11
0.592467
21
0.843466
0
LINE
8
BLACK
6
CONTINUOUS
10
0.592467
20
0.843466
11
0.588701
21
0.842717
0
LINE
8
BLACK
6
CONTINUOUS
10
0.588701
20
0.842717
11
0.551299
21
0.842717
0
LINE
8
BLACK
6
CONTINUOUS
10
0.551299
20
0.842717
11
0.547533
21
0.843466
0
LINE
8
BLACK
6
CONTINUOUS
10
0.547533
20
0.843466
11
0.544339
21
0.845599
0
LINE
8
BLACK
6
CONTINUOUS
10
0.544339
20
0.845599
11
0.542206
21
0.848792
0
LINE
8
BLACK
6
CONTINUOUS
10
0.542206
20
0.848792
11
0.541457
21
0.852559
0
LINE
8
BLACK
6
CONTINUOUS
10
0.541457
20
0.852559
11
0.541457
21
0.872244
0
LINE
8
BLACK
6
CONTINUOUS
10
0.541457
20
0.872244
11
0.542206
21
0.876011
0
LINE
8
BLACK
6
CONTINUOUS
10
0.542206
20
0.876011
11
0.544339
21
0.879204
0
LINE
8
BLACK
6
CONTINUOUS
10
0.544339
20
0.879204
11
0.547533
21
0.881337
0
LINE
8
BLACK
6
CONTINUOUS
10
0.547533
20
0.881337
11
0.551299
21
0.882087
0
LINE
8
BLACK
6
CONTINUOUS
10
0.551299
20
0.882087
11
0.588701
21
0.882087
0
LINE
8
BLACK
6
CONTINUOUS
10
0.588701
20
0.882087
11
0.592467
21
0.881337
0
LINE
8
BLACK
6
CONTINUOUS
10
2.18953
20
0.847559
11
2.13047
21
0.847559
0
LINE
8
BLACK
6
CONTINUOUS
10
2.13047
20
0.847559
11
2.13047
21
0.89874
0
LINE
8
BLACK
6
CONTINUOUS
10
2.13047
20
0.89874
11
2.18953
21
0.89874
0
LINE
8
BLACK
6
CONTINUOUS
10
2.18953
20
0.89874
11
2.18953
21
0.847559
0
LINE
8
BLACK
6
CONTINUOUS
10
1.10436
20
0.905196
11
1.10755
21
0.903062
0
LINE
8
BLACK
6
CONTINUOUS
10
1.10755
20
0.903062
11
1.10968
21
0.899869
0
LINE
8
BLACK
6
CONTINUOUS
10
1.10968
20
0.899869
11
1.11043
21
0.896102
0
LINE
8
BLACK
6
CONTINUOUS
10
1.11043
20
0.896102
11
1.11043
21
0.858701
0
LINE
8
BLACK
6
CONTINUOUS
10
1.11043
20
0.858701
11
1.10968
21
0.854934
0
LINE
8
BLACK
6
CONTINUOUS
10
1.10968
20
0.854934
11
1.10755
21
0.851741
0
LINE
8
BLACK
6
CONTINUOUS
10
1.10755
20
0.851741
11
1.10436
21
0.849607
0
LINE
8
BLACK
6
CONTINUOUS
10
1.10436
20
0.849607
11
1.10059
21
0.848858
0
LINE
8
BLACK
6
CONTINUOUS
10
1.10059
20
0.848858
11
1.08091
21
0.848858
0
LINE
8
BLACK
6
CONTINUOUS
10
1.08091
20
0.848858
11
1.07714
21
0.849607
0
LINE
8
BLACK
6
CONTINUOUS
10
1.07714
20
0.849607
11
1.07395
21
0.851741
0
LINE
8
BLACK
6
CONTINUOUS
10
1.07395
20
0.851741
11
1.07181
21
0.854934
0
LINE
8
BLACK
6
CONTINUOUS
10
1.07181
20
0.854934
11
1.07106
21
0.858701
0
LINE
8
BLACK
6
CONTINUOUS
10
1.07106
20
0.858701
11
1.07106
21
0.896102
0
LINE
8
BLACK
6
CONTINUOUS
10
1.07106
20
0.896102
11
1.07181
21
0.899869
0
LINE
8
BLACK
6
CONTINUOUS
10
1.07181
20
0.899869
11
1.07395
21
0.903062
0
LINE
8
BLACK
6
CONTINUOUS
10
1.07395
20
0.903062
11
1.07714
21
0.905196
0
LINE
8
BLACK
6
CONTINUOUS
10
1.07714
20
0.905196
11
1.08091
21
0.905945
0
LINE
8
BLACK
6
CONTINUOUS
10
1.08091
20
0.905945
11
1.10059
21
0.905945
0
LINE
8
BLACK
6
CONTINUOUS
10
1.10059
20
0.905945
11
1.10436
21
0.905196
0
LINE
8
BLACK
6
CONTINUOUS
10
1.17916
20
0.905196
11
1.18235
21
0.903062
0
LINE
8
BLACK
6
CONTINUOUS
10
1.18235
20
0.903062
11
1.18449
21
0.899869
0
LINE
8
BLACK
6
CONTINUOUS
10
1.18449
20
0.899869
11
1.18524
21
0.896102
0
LINE
8
BLACK
6
CONTINUOUS
10
1.18524
20
0.896102
11
1.18524
21
0.858701
0
LINE
8
BLACK
6
CONTINUOUS
10
1.18524
20
0.858701
11
1.18449
21
0.854934
0
LINE
8
BLACK
6
CONTINUOUS
10
1.18449
20
0.854934
11
1.18235
21
0.851741
0
LINE
8
BLACK
6
CONTINUOUS
10
1.18235
20
0.851741
11
1.17916
21
0.849607
0
LINE
8
BLACK
6
CONTINUOUS
10
1.17916
20
0.849607
11
1.17539
21
0.848858
0
LINE
8
BLACK
6
CONTINUOUS
10
1.17539
20
0.848858
11
1.15571
21
0.848858
0
LINE
8
BLACK
6
CONTINUOUS
10
1.15571
20
0.848858
11
1.15194
21
0.849607
0
LINE
8
BLACK
6
CONTINUOUS
10
1.15194
20
0.849607
11
1.14875
21
0.851741
0
LINE
8
BLACK
6
CONTINUOUS
10
1.14875
20
0.851741
11
1.14662
21
0.854934
0
LINE
8
BLACK
6
CONTINUOUS
10
1.14662
20
0.854934
11
1.14587
21
0.858701
0
LINE
8
BLACK
6
CONTINUOUS
10
1.14587
20
0.858701
11
1.14587
21
0.896102
0
LINE
8
BLACK
6
CONTINUOUS
10
1.14587
20
0.896102
11
1.14662
21
0.899869
0
LINE
8
BLACK
6
CONTINUOUS
10
1.14662
20
0.899869
11
1.14875
21
0.903062
0
LINE
8
BLACK
6
CONTINUOUS
10
1.14875
20
0.903062
11
1.15194
21
0.905196
0
LINE
8
BLACK
6
CONTINUOUS
10
1.15194
20
0.905196
11
1.15571
21
0.905945
0
LINE
8
BLACK
6
CONTINUOUS
10
1.15571
20
0.905945
11
1.17539
21
0.905945
0
LINE
8
BLACK
6
CONTINUOUS
10
1.17539
20
0.905945
11
1.17916
21
0.905196
0
LINE
8
BLACK
6
CONTINUOUS
10
2.405
20
0.85
11
2.345
21
0.85
0
LINE
8
BLACK
6
CONTINUOUS
10
2.345
20
0.85
11
2.345
21
0.91
0
LINE
8
BLACK
6
CONTINUOUS
10
2.345
20
0.91
11
2.405
21
0.91
0
LINE
8
BLACK
6
CONTINUOUS
10
2.405
20
0.91
11
2.405
21
0.85
0
LINE
8
BLACK
6
CONTINUOUS
10
2.505
20
0.85
11
2.445
21
0.85
0
LINE
8
BLACK
6
CONTINUOUS
10
2.445
20
0.85
11
2.445
21
0.91
0
LINE
8
BLACK
6
CONTINUOUS
10
2.445
20
0.91
11
2.505
21
0.91
0
LINE
8
BLACK
6
CONTINUOUS
10
2.505
20
0.91
11
2.505
21
0.85
0
LINE
8
BLACK
6
CONTINUOUS
10
1.76747
20
0.891337
11
1.77066
21
0.889204
0
LINE
8
BLACK
6
CONTINUOUS
10
1.77066
20
0.889204
11
1.77279
21
0.886011
0
LINE
8
BLACK
6
CONTINUOUS
10
1.77279
20
0.886011
11
1.77354
21
0.882244
0
LINE
8
BLACK
6
CONTINUOUS
10
1.77354
20
0.882244
11
1.77354
21
0.862559
0
LINE
8
BLACK
6
CONTINUOUS
10
1.77354
20
0.862559
11
1.77279
21
0.858792
0
LINE
8
BLACK
6
CONTINUOUS
10
1.77279
20
0.858792
11
1.77066
21
0.855599
0
LINE
8
BLACK
6
CONTINUOUS
10
1.77066
20
0.855599
11
1.76747
21
0.853466
0
LINE
8
BLACK
6
CONTINUOUS
10
1.76747
20
0.853466
11
1.7637
21
0.852717
0
LINE
8
BLACK
6
CONTINUOUS
10
1.7637
20
0.852717
11
1.7263
21
0.852717
0
LINE
8
BLACK
6
CONTINUOUS
10
1.7263
20
0.852717
11
1.72253
21
0.853466
0
LINE
8
BLACK
6
CONTINUOUS
10
1.72253
20
0.853466
11
1.71934
21
0.855599
0
LINE
8
BLACK
6
CONTINUOUS
10
1.71934
20
0.855599
11
1.71721
21
0.858792
0
LINE
8
BLACK
6
CONTINUOUS
10
1.71721
20
0.858792
11
1.71646
21
0.862559
0
LINE
8
BLACK
6
CONTINUOUS
10
1.71646
20
0.862559
11
1.71646
21
0.882244
0
LINE
8
BLACK
6
CONTINUOUS
10
1.71646
20
0.882244
11
1.71721
21
0.886011
0
LINE
8
BLACK
6
CONTINUOUS
10
1.71721
20
0.886011
11
1.71934
21
0.889204
0
LINE
8
BLACK
6
CONTINUOUS
10
1.71934
20
0.889204
11
1.72253
21
0.891337
0
LINE
8
BLACK
6
CONTINUOUS
10
1.72253
20
0.891337
11
1.7263
21
0.892087
0
LINE
8
BLACK
6
CONTINUOUS
10
1.7263
20
0.892087
11
1.7637
21
0.892087
0
LINE
8
BLACK
6
CONTINUOUS
10
1.7637
20
0.892087
11
1.76747
21
0.891337
0
LINE
8
BLACK
6
CONTINUOUS
10
0.7
20
0.93
11
0.64
21
0.93
0
LINE
8
BLACK
6
CONTINUOUS
10
0.64
20
0.93
11
0.64
21
0.99
0
LINE
8
BLACK
6
CONTINUOUS
10
0.64
20
0.99
11
0.7
21
0.99
0
LINE
8
BLACK
6
CONTINUOUS
10
0.7
20
0.99
11
0.7
21
0.93
0
LINE
8
BLACK
6
CONTINUOUS
10
1.85148
20
0.973503
11
1.85468
21
0.971369
0
LINE
8
BLACK
6
CONTINUOUS
10
1.85468
20
0.971369
11
1.85681
21
0.968176
0
LINE
8
BLACK
6
CONTINUOUS
10
1.85681
20
0.968176
11
1.85756
21
0.964409
0
LINE
8
BLACK
6
CONTINUOUS
10
1.85756
20
0.964409
11
1.85756
21
0.94374
0
LINE
8
BLACK
6
CONTINUOUS
10
1.85756
20
0.94374
11
1.85681
21
0.939974
0
LINE
8
BLACK
6
CONTINUOUS
10
1.85681
20
0.939974
11
1.85468
21
0.93678
0
LINE
8
BLACK
6
CONTINUOUS
10
1.85468
20
0.93678
11
1.85148
21
0.934647
0
LINE
8
BLACK
6
CONTINUOUS
10
1.85148
20
0.934647
11
1.84772
21
0.933898
0
LINE
8
BLACK
6
CONTINUOUS
10
1.84772
20
0.933898
11
1.81228
21
0.933898
0
LINE
8
BLACK
6
CONTINUOUS
10
1.81228
20
0.933898
11
1.80852
21
0.934647
0
LINE
8
BLACK
6
CONTINUOUS
10
1.80852
20
0.934647
11
1.80532
21
0.93678
0
LINE
8
BLACK
6
CONTINUOUS
10
1.80532
20
0.93678
11
1.80319
21
0.939974
0
LINE
8
BLACK
6
CONTINUOUS
10
1.80319
20
0.939974
11
1.80244
21
0.94374
0
LINE
8
BLACK
6
CONTINUOUS
10
1.80244
20
0.94374
11
1.80244
21
0.964409
0
LINE
8
BLACK
6
CONTINUOUS
10
1.80244
20
0.964409
11
1.80319
21
0.968176
0
LINE
8
BLACK
6
CONTINUOUS
10
1.80319
20
0.968176
11
1.80532
21
0.971369
0
LINE
8
BLACK
6
CONTINUOUS
10
1.80532
20
0.971369
11
1.80852
21
0.973503
0
LINE
8
BLACK
6
CONTINUOUS
10
1.80852
20
0.973503
11
1.81228
21
0.974252
0
LINE
8
BLACK
6
CONTINUOUS
10
1.81228
20
0.974252
11
1.84772
21
0.974252
0
LINE
8
BLACK
6
CONTINUOUS
10
1.84772
20
0.974252
11
1.85148
21
0.973503
0
LINE
8
BLACK
6
CONTINUOUS
10
0.483176
20
0.99181
11
0.486369
21
0.989676
0
LINE
8
BLACK
6
CONTINUOUS
10
0.486369
20
0.989676
11
0.488503
21
0.986483
0
LINE
8
BLACK
6
CONTINUOUS
10
0.488503
20
0.986483
11
0.489252
21
0.982717
0
LINE
8
BLACK
6
CONTINUOUS
10
0.489252
20
0.982717
11
0.489252
21
0.947283
0
LINE
8
BLACK
6
CONTINUOUS
10
0.489252
20
0.947283
11
0.488503
21
0.943517
0
LINE
8
BLACK
6
CONTINUOUS
10
0.488503
20
0.943517
11
0.486369
21
0.940324
0
LINE
8
BLACK
6
CONTINUOUS
10
0.486369
20
0.940324
11
0.483176
21
0.93819
0
LINE
8
BLACK
6
CONTINUOUS
10
0.483176
20
0.93819
11
0.479409
21
0.937441
0
LINE
8
BLACK
6
CONTINUOUS
10
0.479409
20
0.937441
11
0.45874
21
0.937441
0
LINE
8
BLACK
6
CONTINUOUS
10
0.45874
20
0.937441
11
0.454974
21
0.93819
0
LINE
8
BLACK
6
CONTINUOUS
10
0.454974
20
0.93819
11
0.45178
21
0.940324
0
LINE
8
BLACK
6
CONTINUOUS
10
0.45178
20
0.940324
11
0.449647
21
0.943517
0
LINE
8
BLACK
6
CONTINUOUS
10
0.449647
20
0.943517
11
0.448898
21
0.947283
0
LINE
8
BLACK
6
CONTINUOUS
10
0.448898
20
0.947283
11
0.448898
21
0.982717
0
LINE
8
BLACK
6
CONTINUOUS
10
0.448898
20
0.982717
11
0.449647
21
0.986483
0
LINE
8
BLACK
6
CONTINUOUS
10
0.449647
20
0.986483
11
0.45178
21
0.989676
0
LINE
8
BLACK
6
CONTINUOUS
10
0.45178
20
0.989676
11
0.454974
21
0.99181
0
LINE
8
BLACK
6
CONTINUOUS
10
0.454974
20
0.99181
11
0.45874
21
0.992559
0
LINE
8
BLACK
6
CONTINUOUS
10
0.45874
20
0.992559
11
0.479409
21
0.992559
0
LINE
8
BLACK
6
CONTINUOUS
10
0.479409
20
0.992559
11
0.483176
21
0.99181
0
LINE
8
BLACK
6
CONTINUOUS
10
0.555026
20
0.99181
11
0.55822
21
0.989676
0
LINE
8
BLACK
6
CONTINUOUS
10
0.55822
20
0.989676
11
0.560353
21
0.986483
0
LINE
8
BLACK
6
CONTINUOUS
10
0.560353
20
0.986483
11
0.561102
21
0.982717
0
LINE
8
BLACK
6
CONTINUOUS
10
0.561102
20
0.982717
11
0.561102
21
0.947283
0
LINE
8
BLACK
6
CONTINUOUS
10
0.561102
20
0.947283
11
0.560353
21
0.943517
0
LINE
8
BLACK
6
CONTINUOUS
10
0.560353
20
0.943517
11
0.55822
21
0.940324
0
LINE
8
BLACK
6
CONTINUOUS
10
0.55822
20
0.940324
11
0.555026
21
0.93819
0
LINE
8
BLACK
6
CONTINUOUS
10
0.555026
20
0.93819
11
0.55126
21
0.937441
0
LINE
8
BLACK
6
CONTINUOUS
10
0.55126
20
0.937441
11
0.530591
21
0.937441
0
LINE
8
BLACK
6
CONTINUOUS
10
0.530591
20
0.937441
11
0.526824
21
0.93819
0
LINE
8
BLACK
6
CONTINUOUS
10
0.526824
20
0.93819
11
0.523631
21
0.940324
0
LINE
8
BLACK
6
CONTINUOUS
10
0.523631
20
0.940324
11
0.521497
21
0.943517
0
LINE
8
BLACK
6
CONTINUOUS
10
0.521497
20
0.943517
11
0.520748
21
0.947283
0
LINE
8
BLACK
6
CONTINUOUS
10
0.520748
20
0.947283
11
0.520748
21
0.982717
0
LINE
8
BLACK
6
CONTINUOUS
10
0.520748
20
0.982717
11
0.521497
21
0.986483
0
LINE
8
BLACK
6
CONTINUOUS
10
0.521497
20
0.986483
11
0.523631
21
0.989676
0
LINE
8
BLACK
6
CONTINUOUS
10
0.523631
20
0.989676
11
0.526824
21
0.99181
0
LINE
8
BLACK
6
CONTINUOUS
10
0.526824
20
0.99181
11
0.530591
21
0.992559
0
LINE
8
BLACK
6
CONTINUOUS
10
0.530591
20
0.992559
11
0.55126
21
0.992559
0
LINE
8
BLACK
6
CONTINUOUS
10
0.55126
20
0.992559
11
0.555026
21
0.99181
0
LINE
8
BLACK
6
CONTINUOUS
10
1.04756
20
0.954803
11
0.986142
21
0.954803
0
LINE
8
BLACK
6
CONTINUOUS
10
0.986142
20
0.954803
11
0.986142
21
0.980394
0
LINE
8
BLACK
6
CONTINUOUS
10
0.986142
20
0.980394
11
1.04756
21
0.980394
0
LINE
8
BLACK
6
CONTINUOUS
10
1.04756
20
0.980394
11
1.04756
21
0.954803
0
LINE
8
BLACK
6
CONTINUOUS
10
1.15386
20
0.954803
11
1.09244
21
0.954803
0
LINE
8
BLACK
6
CONTINUOUS
10
1.09244
20
0.954803
11
1.09244
21
0.980394
0
LINE
8
BLACK
6
CONTINUOUS
10
1.09244
20
0.980394
11
1.15386
21
0.980394
0
LINE
8
BLACK
6
CONTINUOUS
10
1.15386
20
0.980394
11
1.15386
21
0.954803
0
LINE
8
BLACK
6
CONTINUOUS
10
1.61148
20
1.0135
11
1.61468
21
1.01137
0
LINE
8
BLACK
6
CONTINUOUS
10
1.61468
20
1.01137
11
1.61681
21
1.00818
0
LINE
8
BLACK
6
CONTINUOUS
10
1.61681
20
1.00818
11
1.61756
21
1.00441
0
LINE
8
BLACK
6
CONTINUOUS
10
1.61756
20
1.00441
11
1.61756
21
0.98374
0
LINE
8
BLACK
6
CONTINUOUS
10
1.61756
20
0.98374
11
1.61681
21
0.979974
0
LINE
8
BLACK
6
CONTINUOUS
10
1.61681
20
0.979974
11
1.61468
21
0.97678
0
LINE
8
BLACK
6
CONTINUOUS
10
1.61468
20
0.97678
11
1.61148
21
0.974647
0
LINE
8
BLACK
6
CONTINUOUS
10
1.61148
20
0.974647
11
1.60772
21
0.973898
0
LINE
8
BLACK
6
CONTINUOUS
10
1.60772
20
0.973898
11
1.57228
21
0.973898
0
LINE
8
BLACK
6
CONTINUOUS
10
1.57228
20
0.973898
11
1.56852
21
0.974647
0
LINE
8
BLACK
6
CONTINUOUS
10
1.56852
20
0.974647
11
1.56532
21
0.97678
0
LINE
8
BLACK
6
CONTINUOUS
10
1.56532
20
0.97678
11
1.56319
21
0.979974
0
LINE
8
BLACK
6
CONTINUOUS
10
1.56319
20
0.979974
11
1.56244
21
0.98374
0
LINE
8
BLACK
6
CONTINUOUS
10
1.56244
20
0.98374
11
1.56244
21
1.00441
0
LINE
8
BLACK
6
CONTINUOUS
10
1.56244
20
1.00441
11
1.56319
21
1.00818
0
LINE
8
BLACK
6
CONTINUOUS
10
1.56319
20
1.00818
11
1.56532
21
1.01137
0
LINE
8
BLACK
6
CONTINUOUS
10
1.56532
20
1.01137
11
1.56852
21
1.0135
0
LINE
8
BLACK
6
CONTINUOUS
10
1.56852
20
1.0135
11
1.57228
21
1.01425
0
LINE
8
BLACK
6
CONTINUOUS
10
1.57228
20
1.01425
11
1.60772
21
1.01425
0
LINE
8
BLACK
6
CONTINUOUS
10
1.60772
20
1.01425
11
1.61148
21
1.0135
0
LINE
8
BLACK
6
CONTINUOUS
10
1.04756
20
0.992205
11
0.986142
21
0.992205
0
LINE
8
BLACK
6
CONTINUOUS
10
0.986142
20
0.992205
11
0.986142
21
1.0178
0
LINE
8
BLACK
6
CONTINUOUS
10
0.986142
20
1.0178
11
1.04756
21
1.0178
0
LINE
8
BLACK
6
CONTINUOUS
10
1.04756
20
1.0178
11
1.04756
21
0.992205
0
LINE
8
BLACK
6
CONTINUOUS
10
1.43818
20
1.04681
11
1.44137
21
1.04468
0
LINE
8
BLACK
6
CONTINUOUS
10
1.44137
20
1.04468
11
1.4435
21
1.04148
0
LINE
8
BLACK
6
CONTINUOUS
10
1.4435
20
1.04148
11
1.44425
21
1.03772
0
LINE
8
BLACK
6
CONTINUOUS
10
1.44425
20
1.03772
11
1.44425
21
1.00228
0
LINE
8
BLACK
6
CONTINUOUS
10
1.44425
20
1.00228
11
1.4435
21
0.998517
0
LINE
8
BLACK
6
CONTINUOUS
10
1.4435
20
0.998517
11
1.44137
21
0.995324
0
LINE
8
BLACK
6
CONTINUOUS
10
1.44137
20
0.995324
11
1.43818
21
0.99319
0
LINE
8
BLACK
6
CONTINUOUS
10
1.43818
20
0.99319
11
1.43441
21
0.992441
0
LINE
8
BLACK
6
CONTINUOUS
10
1.43441
20
0.992441
11
1.41374
21
0.992441
0
LINE
8
BLACK
6
CONTINUOUS
10
1.41374
20
0.992441
11
1.40997
21
0.99319
0
LINE
8
BLACK
6
CONTINUOUS
10
1.40997
20
0.99319
11
1.40678
21
0.995324
0
LINE
8
BLACK
6
CONTINUOUS
10
1.40678
20
0.995324
11
1.40465
21
0.998517
0
LINE
8
BLACK
6
CONTINUOUS
10
1.40465
20
0.998517
11
1.4039
21
1.00228
0
LINE
8
BLACK
6
CONTINUOUS
10
1.4039
20
1.00228
11
1.4039
21
1.03772
0
LINE
8
BLACK
6
CONTINUOUS
10
1.4039
20
1.03772
11
1.40465
21
1.04148
0
LINE
8
BLACK
6
CONTINUOUS
10
1.40465
20
1.04148
11
1.40678
21
1.04468
0
LINE
8
BLACK
6
CONTINUOUS
10
1.40678
20
1.04468
11
1.40997
21
1.04681
0
LINE
8
BLACK
6
CONTINUOUS
10
1.40997
20
1.04681
11
1.41374
21
1.04756
0
LINE
8
BLACK
6
CONTINUOUS
10
1.41374
20
1.04756
11
1.43441
21
1.04756
0
LINE
8
BLACK
6
CONTINUOUS
10
1.43441
20
1.04756
11
1.43818
21
1.04681
0
LINE
8
BLACK
6
CONTINUOUS
10
1.51003
20
1.04681
11
1.51322
21
1.04468
0
LINE
8
BLACK
6
CONTINUOUS
10
1.51322
20
1.04468
11
1.51535
21
1.04148
0
LINE
8
BLACK
6
CONTINUOUS
10
1.51535
20
1.04148
11
1.5161
21
1.03772
0
LINE
8
BLACK
6
CONTINUOUS
10
1.5161
20
1.03772
11
1.5161
21
1.00228
0
LINE
8
BLACK
6
CONTINUOUS
10
1.5161
20
1.00228
11
1.51535
21
0.998517
0
LINE
8
BLACK
6
CONTINUOUS
10
1.51535
20
0.998517
11
1.51322
21
0.995324
0
LINE
8
BLACK
6
CONTINUOUS
10
1.51322
20
0.995324
11
1.51003
21
0.99319
0
LINE
8
BLACK
6
CONTINUOUS
10
1.51003
20
0.99319
11
1.50626
21
0.992441
0
LINE
8
BLACK
6
CONTINUOUS
10
1.50626
20
0.992441
11
1.48559
21
0.992441
0
LINE
8
BLACK
6
CONTINUOUS
10
1.48559
20
0.992441
11
1.48182
21
0.99319
0
LINE
8
BLACK
6
CONTINUOUS
10
1.48182
20
0.99319
11
1.47863
21
0.995324
0
LINE
8
BLACK
6
CONTINUOUS
10
1.47863
20
0.995324
11
1.4765
21
0.998517
0
LINE
8
BLACK
6
CONTINUOUS
10
1.4765
20
0.998517
11
1.47575
21
1.00228
0
LINE
8
BLACK
6
CONTINUOUS
10
1.47575
20
1.00228
11
1.47575
21
1.03772
0
LINE
8
BLACK
6
CONTINUOUS
10
1.47575
20
1.03772
11
1.4765
21
1.04148
0
LINE
8
BLACK
6
CONTINUOUS
10
1.4765
20
1.04148
11
1.47863
21
1.04468
0
LINE
8
BLACK
6
CONTINUOUS
10
1.47863
20
1.04468
11
1.48182
21
1.04681
0
LINE
8
BLACK
6
CONTINUOUS
10
1.48182
20
1.04681
11
1.48559
21
1.04756
0
LINE
8
BLACK
6
CONTINUOUS
10
1.48559
20
1.04756
11
1.50626
21
1.04756
0
LINE
8
BLACK
6
CONTINUOUS
10
1.50626
20
1.04756
11
1.51003
21
1.04681
0
LINE
8
BLACK
6
CONTINUOUS
10
1.85148
20
1.04535
11
1.85468
21
1.04322
0
LINE
8
BLACK
6
CONTINUOUS
10
1.85468
20
1.04322
11
1.85681
21
1.04003
0
LINE
8
BLACK
6
CONTINUOUS
10
1.85681
20
1.04003
11
1.85756
21
1.03626
0
LINE
8
BLACK
6
CONTINUOUS
10
1.85756
20
1.03626
11
1.85756
21
1.01559
0
LINE
8
BLACK
6
CONTINUOUS
10
1.85756
20
1.01559
11
1.85681
21
1.01182
0
LINE
8
BLACK
6
CONTINUOUS
10
1.85681
20
1.01182
11
1.85468
21
1.00863
0
LINE
8
BLACK
6
CONTINUOUS
10
1.85468
20
1.00863
11
1.85148
21
1.0065
0
LINE
8
BLACK
6
CONTINUOUS
10
1.85148
20
1.0065
11
1.84772
21
1.00575
0
LINE
8
BLACK
6
CONTINUOUS
10
1.84772
20
1.00575
11
1.81228
21
1.00575
0
LINE
8
BLACK
6
CONTINUOUS
10
1.81228
20
1.00575
11
1.80852
21
1.0065
0
LINE
8
BLACK
6
CONTINUOUS
10
1.80852
20
1.0065
11
1.80532
21
1.00863
0
LINE
8
BLACK
6
CONTINUOUS
10
1.80532
20
1.00863
11
1.80319
21
1.01182
0
LINE
8
BLACK
6
CONTINUOUS
10
1.80319
20
1.01182
11
1.80244
21
1.01559
0
LINE
8
BLACK
6
CONTINUOUS
10
1.80244
20
1.01559
11
1.80244
21
1.03626
0
LINE
8
BLACK
6
CONTINUOUS
10
1.80244
20
1.03626
11
1.80319
21
1.04003
0
LINE
8
BLACK
6
CONTINUOUS
10
1.80319
20
1.04003
11
1.80532
21
1.04322
0
LINE
8
BLACK
6
CONTINUOUS
10
1.80532
20
1.04322
11
1.80852
21
1.04535
0
LINE
8
BLACK
6
CONTINUOUS
10
1.80852
20
1.04535
11
1.81228
21
1.0461
0
LINE
8
BLACK
6
CONTINUOUS
10
1.81228
20
1.0461
11
1.84772
21
1.0461
0
LINE
8
BLACK
6
CONTINUOUS
10
1.84772
20
1.0461
11
1.85148
21
1.04535
0
LINE
8
BLACK
6
CONTINUOUS
10
1.04756
20
1.02961
11
0.986142
21
1.02961
0
LINE
8
BLACK
6
CONTINUOUS
10
0.986142
20
1.02961
11
0.986142
21
1.0552
0
LINE
8
BLACK
6
CONTINUOUS
10
0.986142
20
1.0552
11
1.04756
21
1.0552
0
LINE
8
BLACK
6
CONTINUOUS
10
1.04756
20
1.0552
11
1.04756
21
1.02961
0
LINE
8
BLACK
6
CONTINUOUS
10
1.15386
20
1.02961
11
1.09244
21
1.02961
0
LINE
8
BLACK
6
CONTINUOUS
10
1.09244
20
1.02961
11
1.09244
21
1.0552
0
LINE
8
BLACK
6
CONTINUOUS
10
1.09244
20
1.0552
11
1.15386
21
1.0552
0
LINE
8
BLACK
6
CONTINUOUS
10
1.15386
20
1.0552
11
1.15386
21
1.02961
0
LINE
8
BLACK
6
CONTINUOUS
10
2.21
20
1.03
11
2.15
21
1.03
0
LINE
8
BLACK
6
CONTINUOUS
10
2.15
20
1.03
11
2.15
21
1.09
0
LINE
8
BLACK
6
CONTINUOUS
10
2.15
20
1.09
11
2.21
21
1.09
0
LINE
8
BLACK
6
CONTINUOUS
10
2.21
20
1.09
11
2.21
21
1.03
0
LINE
8
BLACK
6
CONTINUOUS
10
2.31
20
1.03
11
2.25
21
1.03
0
LINE
8
BLACK
6
CONTINUOUS
10
2.25
20
1.03
11
2.25
21
1.09
0
LINE
8
BLACK
6
CONTINUOUS
10
2.25
20
1.09
11
2.31
21
1.09
0
LINE
8
BLACK
6
CONTINUOUS
10
2.31
20
1.09
11
2.31
21
1.03
0
LINE
8
BLACK
6
CONTINUOUS
10
0.488306
20
1.06974
11
0.4911
21
1.06787
0
LINE
8
BLACK
6
CONTINUOUS
10
0.4911
20
1.06787
11
0.492966
21
1.06508
0
LINE
8
BLACK
6
CONTINUOUS
10
0.492966
20
1.06508
11
0.493622
21
1.06178
0
LINE
8
BLACK
6
CONTINUOUS
10
0.493622
20
1.06178
11
0.493622
21
1.04456
0
LINE
8
BLACK
6
CONTINUOUS
10
0.493622
20
1.04456
11
0.492966
21
1.04126
0
LINE
8
BLACK
6
CONTINUOUS
10
0.492966
20
1.04126
11
0.4911
21
1.03847
0
LINE
8
BLACK
6
CONTINUOUS
10
0.4911
20
1.03847
11
0.488306
21
1.0366
0
LINE
8
BLACK
6
CONTINUOUS
10
0.488306
20
1.0366
11
0.48501
21
1.03594
0
LINE
8
BLACK
6
CONTINUOUS
10
0.48501
20
1.03594
11
0.45499
21
1.03594
0
LINE
8
BLACK
6
CONTINUOUS
10
0.45499
20
1.03594
11
0.451694
21
1.0366
0
LINE
8
BLACK
6
CONTINUOUS
10
0.451694
20
1.0366
11
0.4489
21
1.03847
0
LINE
8
BLACK
6
CONTINUOUS
10
0.4489
20
1.03847
11
0.447034
21
1.04126
0
LINE
8
BLACK
6
CONTINUOUS
10
0.447034
20
1.04126
11
0.446378
21
1.04456
0
LINE
8
BLACK
6
CONTINUOUS
10
0.446378
20
1.04456
11
0.446378
21
1.06178
0
LINE
8
BLACK
6
CONTINUOUS
10
0.446378
20
1.06178
11
0.447034
21
1.06508
0
LINE
8
BLACK
6
CONTINUOUS
10
0.447034
20
1.06508
11
0.4489
21
1.06787
0
LINE
8
BLACK
6
CONTINUOUS
10
0.4489
20
1.06787
11
0.451694
21
1.06974
0
LINE
8
BLACK
6
CONTINUOUS
10
0.451694
20
1.06974
11
0.45499
21
1.07039
0
LINE
8
BLACK
6
CONTINUOUS
10
0.45499
20
1.07039
11
0.48501
21
1.07039
0
LINE
8
BLACK
6
CONTINUOUS
10
0.48501
20
1.07039
11
0.488306
21
1.06974
0
LINE
8
BLACK
6
CONTINUOUS
10
0.793701
20
1.04331
11
0.754331
21
1.04331
0
LINE
8
BLACK
6
CONTINUOUS
10
0.754331
20
1.04331
11
0.754331
21
1.19291
0
LINE
8
BLACK
6
CONTINUOUS
10
0.754331
20
1.19291
11
0.793701
21
1.19291
0
LINE
8
BLACK
6
CONTINUOUS
10
0.793701
20
1.19291
11
0.793701
21
1.04331
0
LINE
8
BLACK
6
CONTINUOUS
10
2.04567
20
1.04331
11
2.0063
21
1.04331
0
LINE
8
BLACK
6
CONTINUOUS
10
2.0063
20
1.04331
11
2.0063
21
1.19291
0
LINE
8
BLACK
6
CONTINUOUS
10
2.0063
20
1.19291
11
2.04567
21
1.19291
0
LINE
8
BLACK
6
CONTINUOUS
10
2.04567
20
1.19291
11
2.04567
21
1.04331
0
LINE
8
BLACK
6
CONTINUOUS
10
1.61148
20
1.08535
11
1.61468
21
1.08322
0
LINE
8
BLACK
6
CONTINUOUS
10
1.61468
20
1.08322
11
1.61681
21
1.08003
0
LINE
8
BLACK
6
CONTINUOUS
10
1.61681
20
1.08003
11
1.61756
21
1.07626
0
LINE
8
BLACK
6
CONTINUOUS
10
1.61756
20
1.07626
11
1.61756
21
1.05559
0
LINE
8
BLACK
6
CONTINUOUS
10
1.61756
20
1.05559
11
1.61681
21
1.05182
0
LINE
8
BLACK
6
CONTINUOUS
10
1.61681
20
1.05182
11
1.61468
21
1.04863
0
LINE
8
BLACK
6
CONTINUOUS
10
1.61468
20
1.04863
11
1.61148
21
1.0465
0
LINE
8
BLACK
6
CONTINUOUS
10
1.61148
20
1.0465
11
1.60772
21
1.04575
0
LINE
8
BLACK
6
CONTINUOUS
10
1.60772
20
1.04575
11
1.57228
21
1.04575
0
LINE
8
BLACK
6
CONTINUOUS
10
1.57228
20
1.04575
11
1.56852
21
1.0465
0
LINE
8
BLACK
6
CONTINUOUS
10
1.56852
20
1.0465
11
1.56532
21
1.04863
0
LINE
8
BLACK
6
CONTINUOUS
10
1.56532
20
1.04863
11
1.56319
21
1.05182
0
LINE
8
BLACK
6
CONTINUOUS
10
1.56319
20
1.05182
11
1.56244
21
1.05559
0
LINE
8
BLACK
6
CONTINUOUS
10
1.56244
20
1.05559
11
1.56244
21
1.07626
0
LINE
8
BLACK
6
CONTINUOUS
10
1.56244
20
1.07626
11
1.56319
21
1.08003
0
LINE
8
BLACK
6
CONTINUOUS
10
1.56319
20
1.08003
11
1.56532
21
1.08322
0
LINE
8
BLACK
6
CONTINUOUS
10
1.56532
20
1.08322
11
1.56852
21
1.08535
0
LINE
8
BLACK
6
CONTINUOUS
10
1.56852
20
1.08535
11
1.57228
21
1.0861
0
LINE
8
BLACK
6
CONTINUOUS
10
1.57228
20
1.0861
11
1.60772
21
1.0861
0
LINE
8
BLACK
6
CONTINUOUS
10
1.60772
20
1.0861
11
1.61148
21
1.08535
0
LINE
8
BLACK
6
CONTINUOUS
10
1.26333
20
1.10083
11
1.26653
21
1.09869
0
LINE
8
BLACK
6
CONTINUOUS
10
1.26653
20
1.09869
11
1.26866
21
1.0955
0
LINE
8
BLACK
6
CONTINUOUS
10
1.26866
20
1.0955
11
1.26941
21
1.09173
0
LINE
8
BLACK
6
CONTINUOUS
10
1.26941
20
1.09173
11
1.26941
21
1.05827
0
LINE
8
BLACK
6
CONTINUOUS
10
1.26941
20
1.05827
11
1.26866
21
1.0545
0
LINE
8
BLACK
6
CONTINUOUS
10
1.26866
20
1.0545
11
1.26653
21
1.05131
0
LINE
8
BLACK
6
CONTINUOUS
10
1.26653
20
1.05131
11
1.26333
21
1.04917
0
LINE
8
BLACK
6
CONTINUOUS
10
1.26333
20
1.04917
11
1.25957
21
1.04843
0
LINE
8
BLACK
6
CONTINUOUS
10
1.25957
20
1.04843
11
1.22413
21
1.04843
0
LINE
8
BLACK
6
CONTINUOUS
10
1.22413
20
1.04843
11
1.22037
21
1.04917
0
LINE
8
BLACK
6
CONTINUOUS
10
1.22037
20
1.04917
11
1.21717
21
1.05131
0
LINE
8
BLACK
6
CONTINUOUS
10
1.21717
20
1.05131
11
1.21504
21
1.0545
0
LINE
8
BLACK
6
CONTINUOUS
10
1.21504
20
1.0545
11
1.21429
21
1.05827
0
LINE
8
BLACK
6
CONTINUOUS
10
1.21429
20
1.05827
11
1.21429
21
1.09173
0
LINE
8
BLACK
6
CONTINUOUS
10
1.21429
20
1.09173
11
1.21504
21
1.0955
0
LINE
8
BLACK
6
CONTINUOUS
10
1.21504
20
1.0955
11
1.21717
21
1.09869
0
LINE
8
BLACK
6
CONTINUOUS
10
1.21717
20
1.09869
11
1.22037
21
1.10083
0
LINE
8
BLACK
6
CONTINUOUS
10
1.22037
20
1.10083
11
1.22413
21
1.10157
0
LINE
8
BLACK
6
CONTINUOUS
10
1.22413
20
1.10157
11
1.25957
21
1.10157
0
LINE
8
BLACK
6
CONTINUOUS
10
1.25957
20
1.10157
11
1.26333
21
1.10083
0
LINE
8
BLACK
6
CONTINUOUS
10
1.36963
20
1.10083
11
1.37283
21
1.09869
0
LINE
8
BLACK
6
CONTINUOUS
10
1.37283
20
1.09869
11
1.37496
21
1.0955
0
LINE
8
BLACK
6
CONTINUOUS
10
1.37496
20
1.0955
11
1.37571
21
1.09173
0
LINE
8
BLACK
6
CONTINUOUS
10
1.37571
20
1.09173
11
1.37571
21
1.05827
0
LINE
8
BLACK
6
CONTINUOUS
10
1.37571
20
1.05827
11
1.37496
21
1.0545
0
LINE
8
BLACK
6
CONTINUOUS
10
1.37496
20
1.0545
11
1.37283
21
1.05131
0
LINE
8
BLACK
6
CONTINUOUS
10
1.37283
20
1.05131
11
1.36963
21
1.04917
0
LINE
8
BLACK
6
CONTINUOUS
10
1.36963
20
1.04917
11
1.36587
21
1.04843
0
LINE
8
BLACK
6
CONTINUOUS
10
1.36587
20
1.04843
11
1.33043
21
1.04843
0
LINE
8
BLACK
6
CONTINUOUS
10
1.33043
20
1.04843
11
1.32667
21
1.04917
0
LINE
8
BLACK
6
CONTINUOUS
10
1.32667
20
1.04917
11
1.32347
21
1.05131
0
LINE
8
BLACK
6
CONTINUOUS
10
1.32347
20
1.05131
11
1.32134
21
1.0545
0
LINE
8
BLACK
6
CONTINUOUS
10
1.32134
20
1.0545
11
1.32059
21
1.05827
0
LINE
8
BLACK
6
CONTINUOUS
10
1.32059
20
1.05827
11
1.32059
21
1.09173
0
LINE
8
BLACK
6
CONTINUOUS
10
1.32059
20
1.09173
11
1.32134
21
1.0955
0
LINE
8
BLACK
6
CONTINUOUS
10
1.32134
20
1.0955
11
1.32347
21
1.09869
0
LINE
8
BLACK
6
CONTINUOUS
10
1.32347
20
1.09869
11
1.32667
21
1.10083
0
LINE
8
BLACK
6
CONTINUOUS
10
1.32667
20
1.10083
11
1.33043
21
1.10157
0
LINE
8
BLACK
6
CONTINUOUS
10
1.33043
20
1.10157
11
1.36587
21
1.10157
0
LINE
8
BLACK
6
CONTINUOUS
10
1.36587
20
1.10157
11
1.36963
21
1.10083
0
LINE
8
BLACK
6
CONTINUOUS
10
0.382121
20
1.1776
11
0.389742
21
1.17465
0
LINE
8
BLACK
6
CONTINUOUS
10
0.389742
20
1.17465
11
0.396691
21
1.17035
0
LINE
8
BLACK
6
CONTINUOUS
10
0.396691
20
1.17035
11
0.402732
21
1.16484
0
LINE
8
BLACK
6
CONTINUOUS
10
0.402732
20
1.16484
11
0.407657
21
1.15832
0
LINE
8
BLACK
6
CONTINUOUS
10
0.407657
20
1.15832
11
0.4113
21
1.151
0
LINE
8
BLACK
6
CONTINUOUS
10
0.4113
20
1.151
11
0.413537
21
1.14314
0
LINE
8
BLACK
6
CONTINUOUS
10
0.413537
20
1.14314
11
0.414291
21
1.135
0
LINE
8
BLACK
6
CONTINUOUS
10
0.414291
20
1.135
11
0.413537
21
1.12686
0
LINE
8
BLACK
6
CONTINUOUS
10
0.413537
20
1.12686
11
0.4113
21
1.119
0
LINE
8
BLACK
6
CONTINUOUS
10
0.4113
20
1.119
11
0.407657
21
1.11168
0
LINE
8
BLACK
6
CONTINUOUS
10
0.407657
20
1.11168
11
0.402732
21
1.10516
0
LINE
8
BLACK
6
CONTINUOUS
10
0.402732
20
1.10516
11
0.396691
21
1.09965
0
LINE
8
BLACK
6
CONTINUOUS
10
0.396691
20
1.09965
11
0.389742
21
1.09535
0
LINE
8
BLACK
6
CONTINUOUS
10
0.389742
20
1.09535
11
0.382121
21
1.0924
0
LINE
8
BLACK
6
CONTINUOUS
10
0.382121
20
1.0924
11
0.374087
21
1.0909
0
LINE
8
BLACK
6
CONTINUOUS
10
0.374087
20
1.0909
11
0.365913
21
1.0909
0
LINE
8
BLACK
6
CONTINUOUS
10
0.365913
20
1.0909
11
0.357879
21
1.0924
0
LINE
8
BLACK
6
CONTINUOUS
10
0.357879
20
1.0924
11
0.350258
21
1.09535
0
LINE
8
BLACK
6
CONTINUOUS
10
0.350258
20
1.09535
11
0.343309
21
1.09965
0
LINE
8
BLACK
6
CONTINUOUS
10
0.343309
20
1.09965
11
0.337268
21
1.10516
0
LINE
8
BLACK
6
CONTINUOUS
10
0.337268
20
1.10516
11
0.332343
21
1.11168
0
LINE
8
BLACK
6
CONTINUOUS
10
0.332343
20
1.11168
11
0.3287
21
1.119
0
LINE
8
BLACK
6
CONTINUOUS
10
0.3287
20
1.119
11
0.326463
21
1.12686
0
LINE
8
BLACK
6
CONTINUOUS
10
0.326463
20
1.12686
11
0.325709
21
1.135
0
LINE
8
BLACK
6
CONTINUOUS
10
0.325709
20
1.135
11
0.326463
21
1.14314
0
LINE
8
BLACK
6
CONTINUOUS
10
0.326463
20
1.14314
11
0.3287
21
1.151
0
LINE
8
BLACK
6
CONTINUOUS
10
0.3287
20
1.151
11
0.332343
21
1.15832
0
LINE
8
BLACK
6
CONTINUOUS
10
0.332343
20
1.15832
11
0.337268
21
1.16484
0
LINE
8
BLACK
6
CONTINUOUS
10
0.337268
20
1.16484
11
0.343309
21
1.17035
0
LINE
8
BLACK
6
CONTINUOUS
10
0.343309
20
1.17035
11
0.350258
21
1.17465
0
LINE
8
BLACK
6
CONTINUOUS
10
0.350258
20
1.17465
11
0.357879
21
1.1776
0
LINE
8
BLACK
6
CONTINUOUS
10
0.357879
20
1.1776
11
0.365913
21
1.1791
0
LINE
8
BLACK
6
CONTINUOUS
10
0.365913
20
1.1791
11
0.374087
21
1.1791
0
LINE
8
BLACK
6
CONTINUOUS
10
0.374087
20
1.1791
11
0.382121
21
1.1776
0
LINE
8
BLACK
6
CONTINUOUS
10
0.582121
20
1.1776
11
0.589742
21
1.17465
0
LINE
8
BLACK
6
CONTINUOUS
10
0.589742
20
1.17465
11
0.596691
21
1.17035
0
LINE
8
BLACK
6
CONTINUOUS
10
0.596691
20
1.17035
11
0.602732
21
1.16484
0
LINE
8
BLACK
6
CONTINUOUS
10
0.602732
20
1.16484
11
0.607657
21
1.15832
0
LINE
8
BLACK
6
CONTINUOUS
10
0.607657
20
1.15832
11
0.6113
21
1.151
0
LINE
8
BLACK
6
CONTINUOUS
10
0.6113
20
1.151
11
0.613537
21
1.14314
0
LINE
8
BLACK
6
CONTINUOUS
10
0.613537
20
1.14314
11
0.614291
21
1.135
0
LINE
8
BLACK
6
CONTINUOUS
10
0.614291
20
1.135
11
0.613537
21
1.12686
0
LINE
8
BLACK
6
CONTINUOUS
10
0.613537
20
1.12686
11
0.6113
21
1.119
0
LINE
8
BLACK
6
CONTINUOUS
10
0.6113
20
1.119
11
0.607657
21
1.11168
0
LINE
8
BLACK
6
CONTINUOUS
10
0.607657
20
1.11168
11
0.602732
21
1.10516
0
LINE
8
BLACK
6
CONTINUOUS
10
0.602732
20
1.10516
11
0.596691
21
1.09965
0
LINE
8
BLACK
6
CONTINUOUS
10
0.596691
20
1.09965
11
0.589742
21
1.09535
0
LINE
8
BLACK
6
CONTINUOUS
10
0.589742
20
1.09535
11
0.582121
21
1.0924
0
LINE
8
BLACK
6
CONTINUOUS
10
0.582121
20
1.0924
11
0.574087
21
1.0909
0
LINE
8
BLACK
6
CONTINUOUS
10
0.574087
20
1.0909
11
0.565913
21
1.0909
0
LINE
8
BLACK
6
CONTINUOUS
10
0.565913
20
1.0909
11
0.557879
21
1.0924
0
LINE
8
BLACK
6
CONTINUOUS
10
0.557879
20
1.0924
11
0.550258
21
1.09535
0
LINE
8
BLACK
6
CONTINUOUS
10
0.550258
20
1.09535
11
0.543309
21
1.09965
0
LINE
8
BLACK
6
CONTINUOUS
10
0.543309
20
1.09965
11
0.537268
21
1.10516
0
LINE
8
BLACK
6
CONTINUOUS
10
0.537268
20
1.10516
11
0.532343
21
1.11168
0
LINE
8
BLACK
6
CONTINUOUS
10
0.532343
20
1.11168
11
0.5287
21
1.119
0
LINE
8
BLACK
6
CONTINUOUS
10
0.5287
20
1.119
11
0.526463
21
1.12686
0
LINE
8
BLACK
6
CONTINUOUS
10
0.526463
20
1.12686
11
0.525709
21
1.135
0
LINE
8
BLACK
6
CONTINUOUS
10
0.525709
20
1.135
11
0.526463
21
1.14314
0
LINE
8
BLACK
6
CONTINUOUS
10
0.526463
20
1.14314
11
0.5287
21
1.151
0
LINE
8
BLACK
6
CONTINUOUS
10
0.5287
20
1.151
11
0.532343
21
1.15832
0
LINE
8
BLACK
6
CONTINUOUS
10
0.532343
20
1.15832
11
0.537268
21
1.16484
0
LINE
8
BLACK
6
CONTINUOUS
10
0.537268
20
1.16484
11
0.543309
21
1.17035
0
LINE
8
BLACK
6
CONTINUOUS
10
0.543309
20
1.17035
11
0.550258
21
1.17465
0
LINE
8
BLACK
6
CONTINUOUS
10
0.550258
20
1.17465
11
0.557879
21
1.1776
0
LINE
8
BLACK
6
CONTINUOUS
10
0.557879
20
1.1776
11
0.565913
21
1.1791
0
LINE
8
BLACK
6
CONTINUOUS
10
0.565913
20
1.1791
11
0.574087
21
1.1791
0
LINE
8
BLACK
6
CONTINUOUS
10
0.574087
20
1.1791
11
0.582121
21
1.1776
0
LINE
8
BLACK
6
CONTINUOUS
10
1.745
20
1.105
11
1.685
21
1.105
0
LINE
8
BLACK
6
CONTINUOUS
10
1.685
20
1.105
11
1.685
21
1.165
0
LINE
8
BLACK
6
CONTINUOUS
10
1.685
20
1.165
11
1.745
21
1.165
0
LINE
8
BLACK
6
CONTINUOUS
10
1.745
20
1.165
11
1.745
21
1.105
0
LINE
8
BLACK
6
CONTINUOUS
10
1.845
20
1.105
11
1.785
21
1.105
0
LINE
8
BLACK
6
CONTINUOUS
10
1.785
20
1.105
11
1.785
21
1.165
0
LINE
8
BLACK
6
CONTINUOUS
10
1.785
20
1.165
11
1.845
21
1.165
0
LINE
8
BLACK
6
CONTINUOUS
10
1.845
20
1.165
11
1.845
21
1.105
0
LINE
8
BLACK
6
CONTINUOUS
10
0.488306
20
1.1534
11
0.4911
21
1.15153
0
LINE
8
BLACK
6
CONTINUOUS
10
0.4911
20
1.15153
11
0.492966
21
1.14874
0
LINE
8
BLACK
6
CONTINUOUS
10
0.492966
20
1.14874
11
0.493622
21
1.14544
0
LINE
8
BLACK
6
CONTINUOUS
10
0.493622
20
1.14544
11
0.493622
21
1.12822
0
LINE
8
BLACK
6
CONTINUOUS
10
0.493622
20
1.12822
11
0.492966
21
1.12492
0
LINE
8
BLACK
6
CONTINUOUS
10
0.492966
20
1.12492
11
0.4911
21
1.12213
0
LINE
8
BLACK
6
CONTINUOUS
10
0.4911
20
1.12213
11
0.488306
21
1.12026
0
LINE
8
BLACK
6
CONTINUOUS
10
0.488306
20
1.12026
11
0.48501
21
1.11961
0
LINE
8
BLACK
6
CONTINUOUS
10
0.48501
20
1.11961
11
0.45499
21
1.11961
0
LINE
8
BLACK
6
CONTINUOUS
10
0.45499
20
1.11961
11
0.451694
21
1.12026
0
LINE
8
BLACK
6
CONTINUOUS
10
0.451694
20
1.12026
11
0.4489
21
1.12213
0
LINE
8
BLACK
6
CONTINUOUS
10
0.4489
20
1.12213
11
0.447034
21
1.12492
0
LINE
8
BLACK
6
CONTINUOUS
10
0.447034
20
1.12492
11
0.446378
21
1.12822
0
LINE
8
BLACK
6
CONTINUOUS
10
0.446378
20
1.12822
11
0.446378
21
1.14544
0
LINE
8
BLACK
6
CONTINUOUS
10
0.446378
20
1.14544
11
0.447034
21
1.14874
0
LINE
8
BLACK
6
CONTINUOUS
10
0.447034
20
1.14874
11
0.4489
21
1.15153
0
LINE
8
BLACK
6
CONTINUOUS
10
0.4489
20
1.15153
11
0.451694
21
1.1534
0
LINE
8
BLACK
6
CONTINUOUS
10
0.451694
20
1.1534
11
0.45499
21
1.15406
0
LINE
8
BLACK
6
CONTINUOUS
10
0.45499
20
1.15406
11
0.48501
21
1.15406
0
LINE
8
BLACK
6
CONTINUOUS
10
0.48501
20
1.15406
11
0.488306
21
1.1534
0
LINE
8
BLACK
6
CONTINUOUS
10
2.21
20
1.13
11
2.15
21
1.13
0
LINE
8
BLACK
6
CONTINUOUS
10
2.15
20
1.13
11
2.15
21
1.19
0
LINE
8
BLACK
6
CONTINUOUS
10
2.15
20
1.19
11
2.21
21
1.19
0
LINE
8
BLACK
6
CONTINUOUS
10
2.21
20
1.19
11
2.21
21
1.13
0
LINE
8
BLACK
6
CONTINUOUS
10
2.31
20
1.13
11
2.25
21
1.13
0
LINE
8
BLACK
6
CONTINUOUS
10
2.25
20
1.13
11
2.25
21
1.19
0
LINE
8
BLACK
6
CONTINUOUS
10
2.25
20
1.19
11
2.31
21
1.19
0
LINE
8
BLACK
6
CONTINUOUS
10
2.31
20
1.19
11
2.31
21
1.13
0
LINE
8
BLACK
6
CONTINUOUS
10
1.28621
20
1.19279
11
1.2894
21
1.19066
0
LINE
8
BLACK
6
CONTINUOUS
10
1.2894
20
1.19066
11
1.29153
21
1.18747
0
LINE
8
BLACK
6
CONTINUOUS
10
1.29153
20
1.18747
11
1.29228
21
1.1837
0
LINE
8
BLACK
6
CONTINUOUS
10
1.29228
20
1.1837
11
1.29228
21
1.1463
0
LINE
8
BLACK
6
CONTINUOUS
10
1.29228
20
1.1463
11
1.29153
21
1.14253
0
LINE
8
BLACK
6
CONTINUOUS
10
1.29153
20
1.14253
11
1.2894
21
1.13934
0
LINE
8
BLACK
6
CONTINUOUS
10
1.2894
20
1.13934
11
1.28621
21
1.13721
0
LINE
8
BLACK
6
CONTINUOUS
10
1.28621
20
1.13721
11
1.28244
21
1.13646
0
LINE
8
BLACK
6
CONTINUOUS
10
1.28244
20
1.13646
11
1.26276
21
1.13646
0
LINE
8
BLACK
6
CONTINUOUS
10
1.26276
20
1.13646
11
1.25899
21
1.13721
0
LINE
8
BLACK
6
CONTINUOUS
10
1.25899
20
1.13721
11
1.2558
21
1.13934
0
LINE
8
BLACK
6
CONTINUOUS
10
1.2558
20
1.13934
11
1.25366
21
1.14253
0
LINE
8
BLACK
6
CONTINUOUS
10
1.25366
20
1.14253
11
1.25291
21
1.1463
0
LINE
8
BLACK
6
CONTINUOUS
10
1.25291
20
1.1463
11
1.25291
21
1.1837
0
LINE
8
BLACK
6
CONTINUOUS
10
1.25291
20
1.1837
11
1.25366
21
1.18747
0
LINE
8
BLACK
6
CONTINUOUS
10
1.25366
20
1.18747
11
1.2558
21
1.19066
0
LINE
8
BLACK
6
CONTINUOUS
10
1.2558
20
1.19066
11
1.25899
21
1.19279
0
LINE
8
BLACK
6
CONTINUOUS
10
1.25899
20
1.19279
11
1.26276
21
1.19354
0
LINE
8
BLACK
6
CONTINUOUS
10
1.26276
20
1.19354
11
1.28244
21
1.19354
0
LINE
8
BLACK
6
CONTINUOUS
10
1.28244
20
1.19354
11
1.28621
21
1.19279
0
LINE
8
BLACK
6
CONTINUOUS
10
1.36101
20
1.19279
11
1.3642
21
1.19066
0
LINE
8
BLACK
6
CONTINUOUS
10
1.3642
20
1.19066
11
1.36634
21
1.18747
0
LINE
8
BLACK
6
CONTINUOUS
10
1.36634
20
1.18747
11
1.36709
21
1.1837
0
LINE
8
BLACK
6
CONTINUOUS
10
1.36709
20
1.1837
11
1.36709
21
1.1463
0
LINE
8
BLACK
6
CONTINUOUS
10
1.36709
20
1.1463
11
1.36634
21
1.14253
0
LINE
8
BLACK
6
CONTINUOUS
10
1.36634
20
1.14253
11
1.3642
21
1.13934
0
LINE
8
BLACK
6
CONTINUOUS
10
1.3642
20
1.13934
11
1.36101
21
1.13721
0
LINE
8
BLACK
6
CONTINUOUS
10
1.36101
20
1.13721
11
1.35724
21
1.13646
0
LINE
8
BLACK
6
CONTINUOUS
10
1.35724
20
1.13646
11
1.33756
21
1.13646
0
LINE
8
BLACK
6
CONTINUOUS
10
1.33756
20
1.13646
11
1.33379
21
1.13721
0
LINE
8
BLACK
6
CONTINUOUS
10
1.33379
20
1.13721
11
1.3306
21
1.13934
0
LINE
8
BLACK
6
CONTINUOUS
10
1.3306
20
1.13934
11
1.32847
21
1.14253
0
LINE
8
BLACK
6
CONTINUOUS
10
1.32847
20
1.14253
11
1.32772
21
1.1463
0
LINE
8
BLACK
6
CONTINUOUS
10
1.32772
20
1.1463
11
1.32772
21
1.1837
0
LINE
8
BLACK
6
CONTINUOUS
10
1.32772
20
1.1837
11
1.32847
21
1.18747
0
LINE
8
BLACK
6
CONTINUOUS
10
1.32847
20
1.18747
11
1.3306
21
1.19066
0
LINE
8
BLACK
6
CONTINUOUS
10
1.3306
20
1.19066
11
1.33379
21
1.19279
0
LINE
8
BLACK
6
CONTINUOUS
10
1.33379
20
1.19279
11
1.33756
21
1.19354
0
LINE
8
BLACK
6
CONTINUOUS
10
1.33756
20
1.19354
11
1.35724
21
1.19354
0
LINE
8
BLACK
6
CONTINUOUS
10
1.35724
20
1.19354
11
1.36101
21
1.19279
0
LINE
8
BLACK
6
CONTINUOUS
10
1.48
20
1.14
11
1.42
21
1.14
0
LINE
8
BLACK
6
CONTINUOUS
10
1.42
20
1.14
11
1.42
21
1.2
0
LINE
8
BLACK
6
CONTINUOUS
10
1.42
20
1.2
11
1.48
21
1.2
0
LINE
8
BLACK
6
CONTINUOUS
10
1.48
20
1.2
11
1.48
21
1.14
0
LINE
8
BLACK
6
CONTINUOUS
10
1.58
20
1.14
11
1.52
21
1.14
0
LINE
8
BLACK
6
CONTINUOUS
10
1.52
20
1.14
11
1.52
21
1.2
0
LINE
8
BLACK
6
CONTINUOUS
10
1.52
20
1.2
11
1.58
21
1.2
0
LINE
8
BLACK
6
CONTINUOUS
10
1.58
20
1.2
11
1.58
21
1.14
0
LINE
8
BLACK
6
CONTINUOUS
10
1.03247
20
1.23153
11
1.03566
21
1.2294
0
LINE
8
BLACK
6
CONTINUOUS
10
1.03566
20
1.2294
11
1.03779
21
1.22621
0
LINE
8
BLACK
6
CONTINUOUS
10
1.03779
20
1.22621
11
1.03854
21
1.22244
0
LINE
8
BLACK
6
CONTINUOUS
10
1.03854
20
1.22244
11
1.03854
21
1.20276
0
LINE
8
BLACK
6
CONTINUOUS
10
1.03854
20
1.20276
11
1.03779
21
1.19899
0
LINE
8
BLACK
6
CONTINUOUS
10
1.03779
20
1.19899
11
1.03566
21
1.1958
0
LINE
8
BLACK
6
CONTINUOUS
10
1.03566
20
1.1958
11
1.03247
21
1.19366
0
LINE
8
BLACK
6
CONTINUOUS
10
1.03247
20
1.19366
11
1.0287
21
1.19291
0
LINE
8
BLACK
6
CONTINUOUS
10
1.0287
20
1.19291
11
0.991299
21
1.19291
0
LINE
8
BLACK
6
CONTINUOUS
10
0.991299
20
1.19291
11
0.987533
21
1.19366
0
LINE
8
BLACK
6
CONTINUOUS
10
0.987533
20
1.19366
11
0.984339
21
1.1958
0
LINE
8
BLACK
6
CONTINUOUS
10
0.984339
20
1.1958
11
0.982206
21
1.19899
0
LINE
8
BLACK
6
CONTINUOUS
10
0.982206
20
1.19899
11
0.981457
21
1.20276
0
LINE
8
BLACK
6
CONTINUOUS
10
0.981457
20
1.20276
11
0.981457
21
1.22244
0
LINE
8
BLACK
6
CONTINUOUS
10
0.981457
20
1.22244
11
0.982206
21
1.22621
0
LINE
8
BLACK
6
CONTINUOUS
10
0.982206
20
1.22621
11
0.984339
21
1.2294
0
LINE
8
BLACK
6
CONTINUOUS
10
0.984339
20
1.2294
11
0.987533
21
1.23153
0
LINE
8
BLACK
6
CONTINUOUS
10
0.987533
20
1.23153
11
0.991299
21
1.23228
0
LINE
8
BLACK
6
CONTINUOUS
10
0.991299
20
1.23228
11
1.0287
21
1.23228
0
LINE
8
BLACK
6
CONTINUOUS
10
1.0287
20
1.23228
11
1.03247
21
1.23153
0
LINE
8
BLACK
6
CONTINUOUS
10
0.477873
20
1.27458
11
0.485443
21
1.27228
0
LINE
8
BLACK
6
CONTINUOUS
10
0.485443
20
1.27228
11
0.49242
21
1.26855
0
LINE
8
BLACK
6
CONTINUOUS
10
0.49242
20
1.26855
11
0.498535
21
1.26353
0
LINE
8
BLACK
6
CONTINUOUS
10
0.498535
20
1.26353
11
0.503553
21
1.25742
0
LINE
8
BLACK
6
CONTINUOUS
10
0.503553
20
1.25742
11
0.507283
21
1.25044
0
LINE
8
BLACK
6
CONTINUOUS
10
0.507283
20
1.25044
11
0.509579
21
1.24287
0
LINE
8
BLACK
6
CONTINUOUS
10
0.509579
20
1.24287
11
0.510354
21
1.235
0
LINE
8
BLACK
6
CONTINUOUS
10
0.510354
20
1.235
11
0.509579
21
1.22713
0
LINE
8
BLACK
6
CONTINUOUS
10
0.509579
20
1.22713
11
0.507283
21
1.21956
0
LINE
8
BLACK
6
CONTINUOUS
10
0.507283
20
1.21956
11
0.503553
21
1.21258
0
LINE
8
BLACK
6
CONTINUOUS
10
0.503553
20
1.21258
11
0.498535
21
1.20647
0
LINE
8
BLACK
6
CONTINUOUS
10
0.498535
20
1.20647
11
0.49242
21
1.20145
0
LINE
8
BLACK
6
CONTINUOUS
10
0.49242
20
1.20145
11
0.485443
21
1.19772
0
LINE
8
BLACK
6
CONTINUOUS
10
0.485443
20
1.19772
11
0.477873
21
1.19542
0
LINE
8
BLACK
6
CONTINUOUS
10
0.477873
20
1.19542
11
0.47
21
1.19465
0
LINE
8
BLACK
6
CONTINUOUS
10
0.47
20
1.19465
11
0.462127
21
1.19542
0
LINE
8
BLACK
6
CONTINUOUS
10
0.462127
20
1.19542
11
0.454557
21
1.19772
0
LINE
8
BLACK
6
CONTINUOUS
10
0.454557
20
1.19772
11
0.44758
21
1.20145
0
LINE
8
BLACK
6
CONTINUOUS
10
0.44758
20
1.20145
11
0.441465
21
1.20647
0
LINE
8
BLACK
6
CONTINUOUS
10
0.441465
20
1.20647
11
0.436447
21
1.21258
0
LINE
8
BLACK
6
CONTINUOUS
10
0.436447
20
1.21258
11
0.432717
21
1.21956
0
LINE
8
BLACK
6
CONTINUOUS
10
0.432717
20
1.21956
11
0.430421
21
1.22713
0
LINE
8
BLACK
6
CONTINUOUS
10
0.430421
20
1.22713
11
0.429646
21
1.235
0
LINE
8
BLACK
6
CONTINUOUS
10
0.429646
20
1.235
11
0.430421
21
1.24287
0
LINE
8
BLACK
6
CONTINUOUS
10
0.430421
20
1.24287
11
0.432717
21
1.25044
0
LINE
8
BLACK
6
CONTINUOUS
10
0.432717
20
1.25044
11
0.436447
21
1.25742
0
LINE
8
BLACK
6
CONTINUOUS
10
0.436447
20
1.25742
11
0.441465
21
1.26353
0
LINE
8
BLACK
6
CONTINUOUS
10
0.441465
20
1.26353
11
0.44758
21
1.26855
0
LINE
8
BLACK
6
CONTINUOUS
10
0.44758
20
1.26855
11
0.454557
21
1.27228
0
LINE
8
BLACK
6
CONTINUOUS
10
0.454557
20
1.27228
11
0.462127
21
1.27458
0
LINE
8
BLACK
6
CONTINUOUS
10
0.462127
20
1.27458
11
0.47
21
1.27535
0
LINE
8
BLACK
6
CONTINUOUS
10
0.47
20
1.27535
11
0.477873
21
1.27458
0
LINE
8
BLACK
6
CONTINUOUS
10
0.626208
20
1.26279
11
0.629401
21
1.26066
0
LINE
8
BLACK
6
CONTINUOUS
10
0.629401
20
1.26066
11
0.631534
21
1.25747
0
LINE
8
BLACK
6
CONTINUOUS
10
0.631534
20
1.25747
11
0.632283
21
1.2537
0
LINE
8
BLACK
6
CONTINUOUS
10
0.632283
20
1.2537
11
0.632283
21
1.2163
0
LINE
8
BLACK
6
CONTINUOUS
10
0.632283
20
1.2163
11
0.631534
21
1.21253
0
LINE
8
BLACK
6
CONTINUOUS
10
0.631534
20
1.21253
11
0.629401
21
1.20934
0
LINE
8
BLACK
6
CONTINUOUS
10
0.629401
20
1.20934
11
0.626208
21
1.20721
0
LINE
8
BLACK
6
CONTINUOUS
10
0.626208
20
1.20721
11
0.622441
21
1.20646
0
LINE
8
BLACK
6
CONTINUOUS
10
0.622441
20
1.20646
11
0.602756
21
1.20646
0
LINE
8
BLACK
6
CONTINUOUS
10
0.602756
20
1.20646
11
0.598989
21
1.20721
0
LINE
8
BLACK
6
CONTINUOUS
10
0.598989
20
1.20721
11
0.595796
21
1.20934
0
LINE
8
BLACK
6
CONTINUOUS
10
0.595796
20
1.20934
11
0.593663
21
1.21253
0
LINE
8
BLACK
6
CONTINUOUS
10
0.593663
20
1.21253
11
0.592913
21
1.2163
0
LINE
8
BLACK
6
CONTINUOUS
10
0.592913
20
1.2163
11
0.592913
21
1.2537
0
LINE
8
BLACK
6
CONTINUOUS
10
0.592913
20
1.2537
11
0.593663
21
1.25747
0
LINE
8
BLACK
6
CONTINUOUS
10
0.593663
20
1.25747
11
0.595796
21
1.26066
0
LINE
8
BLACK
6
CONTINUOUS
10
0.595796
20
1.26066
11
0.598989
21
1.26279
0
LINE
8
BLACK
6
CONTINUOUS
10
0.598989
20
1.26279
11
0.602756
21
1.26354
0
LINE
8
BLACK
6
CONTINUOUS
10
0.602756
20
1.26354
11
0.622441
21
1.26354
0
LINE
8
BLACK
6
CONTINUOUS
10
0.622441
20
1.26354
11
0.626208
21
1.26279
0
LINE
8
BLACK
6
CONTINUOUS
10
0.701011
20
1.26279
11
0.704204
21
1.26066
0
LINE
8
BLACK
6
CONTINUOUS
10
0.704204
20
1.26066
11
0.706337
21
1.25747
0
LINE
8
BLACK
6
CONTINUOUS
10
0.706337
20
1.25747
11
0.707087
21
1.2537
0
LINE
8
BLACK
6
CONTINUOUS
10
0.707087
20
1.2537
11
0.707087
21
1.2163
0
LINE
8
BLACK
6
CONTINUOUS
10
0.707087
20
1.2163
11
0.706337
21
1.21253
0
LINE
8
BLACK
6
CONTINUOUS
10
0.706337
20
1.21253
11
0.704204
21
1.20934
0
LINE
8
BLACK
6
CONTINUOUS
10
0.704204
20
1.20934
11
0.701011
21
1.20721
0
LINE
8
BLACK
6
CONTINUOUS
10
0.701011
20
1.20721
11
0.697244
21
1.20646
0
LINE
8
BLACK
6
CONTINUOUS
10
0.697244
20
1.20646
11
0.677559
21
1.20646
0
LINE
8
BLACK
6
CONTINUOUS
10
0.677559
20
1.20646
11
0.673792
21
1.20721
0
LINE
8
BLACK
6
CONTINUOUS
10
0.673792
20
1.20721
11
0.670599
21
1.20934
0
LINE
8
BLACK
6
CONTINUOUS
10
0.670599
20
1.20934
11
0.668466
21
1.21253
0
LINE
8
BLACK
6
CONTINUOUS
10
0.668466
20
1.21253
11
0.667717
21
1.2163
0
LINE
8
BLACK
6
CONTINUOUS
10
0.667717
20
1.2163
11
0.667717
21
1.2537
0
LINE
8
BLACK
6
CONTINUOUS
10
0.667717
20
1.2537
11
0.668466
21
1.25747
0
LINE
8
BLACK
6
CONTINUOUS
10
0.668466
20
1.25747
11
0.670599
21
1.26066
0
LINE
8
BLACK
6
CONTINUOUS
10
0.670599
20
1.26066
11
0.673792
21
1.26279
0
LINE
8
BLACK
6
CONTINUOUS
10
0.673792
20
1.26279
11
0.677559
21
1.26354
0
LINE
8
BLACK
6
CONTINUOUS
10
0.677559
20
1.26354
11
0.697244
21
1.26354
0
LINE
8
BLACK
6
CONTINUOUS
10
0.697244
20
1.26354
11
0.701011
21
1.26279
0
LINE
8
BLACK
6
CONTINUOUS
10
0.868176
20
1.26181
11
0.871369
21
1.25968
0
LINE
8
BLACK
6
CONTINUOUS
10
0.871369
20
1.25968
11
0.873503
21
1.25648
0
LINE
8
BLACK
6
CONTINUOUS
10
0.873503
20
1.25648
11
0.874252
21
1.25272
0
LINE
8
BLACK
6
CONTINUOUS
10
0.874252
20
1.25272
11
0.874252
21
1.21728
0
LINE
8
BLACK
6
CONTINUOUS
10
0.874252
20
1.21728
11
0.873503
21
1.21352
0
LINE
8
BLACK
6
CONTINUOUS
10
0.873503
20
1.21352
11
0.871369
21
1.21032
0
LINE
8
BLACK
6
CONTINUOUS
10
0.871369
20
1.21032
11
0.868176
21
1.20819
0
LINE
8
BLACK
6
CONTINUOUS
10
0.868176
20
1.20819
11
0.864409
21
1.20744
0
LINE
8
BLACK
6
CONTINUOUS
10
0.864409
20
1.20744
11
0.84374
21
1.20744
0
LINE
8
BLACK
6
CONTINUOUS
10
0.84374
20
1.20744
11
0.839974
21
1.20819
0
LINE
8
BLACK
6
CONTINUOUS
10
0.839974
20
1.20819
11
0.83678
21
1.21032
0
LINE
8
BLACK
6
CONTINUOUS
10
0.83678
20
1.21032
11
0.834647
21
1.21352
0
LINE
8
BLACK
6
CONTINUOUS
10
0.834647
20
1.21352
11
0.833898
21
1.21728
0
LINE
8
BLACK
6
CONTINUOUS
10
0.833898
20
1.21728
11
0.833898
21
1.25272
0
LINE
8
BLACK
6
CONTINUOUS
10
0.833898
20
1.25272
11
0.834647
21
1.25648
0
LINE
8
BLACK
6
CONTINUOUS
10
0.834647
20
1.25648
11
0.83678
21
1.25968
0
LINE
8
BLACK
6
CONTINUOUS
10
0.83678
20
1.25968
11
0.839974
21
1.26181
0
LINE
8
BLACK
6
CONTINUOUS
10
0.839974
20
1.26181
11
0.84374
21
1.26256
0
LINE
8
BLACK
6
CONTINUOUS
10
0.84374
20
1.26256
11
0.864409
21
1.26256
0
LINE
8
BLACK
6
CONTINUOUS
10
0.864409
20
1.26256
11
0.868176
21
1.26181
0
LINE
8
BLACK
6
CONTINUOUS
10
0.940026
20
1.26181
11
0.94322
21
1.25968
0
LINE
8
BLACK
6
CONTINUOUS
10
0.94322
20
1.25968
11
0.945353
21
1.25648
0
LINE
8
BLACK
6
CONTINUOUS
10
0.945353
20
1.25648
11
0.946102
21
1.25272
0
LINE
8
BLACK
6
CONTINUOUS
10
0.946102
20
1.25272
11
0.946102
21
1.21728
0
LINE
8
BLACK
6
CONTINUOUS
10
0.946102
20
1.21728
11
0.945353
21
1.21352
0
LINE
8
BLACK
6
CONTINUOUS
10
0.945353
20
1.21352
11
0.94322
21
1.21032
0
LINE
8
BLACK
6
CONTINUOUS
10
0.94322
20
1.21032
11
0.940026
21
1.20819
0
LINE
8
BLACK
6
CONTINUOUS
10
0.940026
20
1.20819
11
0.93626
21
1.20744
0
LINE
8
BLACK
6
CONTINUOUS
10
0.93626
20
1.20744
11
0.915591
21
1.20744
0
LINE
8
BLACK
6
CONTINUOUS
10
0.915591
20
1.20744
11
0.911824
21
1.20819
0
LINE
8
BLACK
6
CONTINUOUS
10
0.911824
20
1.20819
11
0.908631
21
1.21032
0
LINE
8
BLACK
6
CONTINUOUS
10
0.908631
20
1.21032
11
0.906497
21
1.21352
0
LINE
8
BLACK
6
CONTINUOUS
10
0.906497
20
1.21352
11
0.905748
21
1.21728
0
LINE
8
BLACK
6
CONTINUOUS
10
0.905748
20
1.21728
11
0.905748
21
1.25272
0
LINE
8
BLACK
6
CONTINUOUS
10
0.905748
20
1.25272
11
0.906497
21
1.25648
0
LINE
8
BLACK
6
CONTINUOUS
10
0.906497
20
1.25648
11
0.908631
21
1.25968
0
LINE
8
BLACK
6
CONTINUOUS
10
0.908631
20
1.25968
11
0.911824
21
1.26181
0
LINE
8
BLACK
6
CONTINUOUS
10
0.911824
20
1.26181
11
0.915591
21
1.26256
0
LINE
8
BLACK
6
CONTINUOUS
10
0.915591
20
1.26256
11
0.93626
21
1.26256
0
LINE
8
BLACK
6
CONTINUOUS
10
0.93626
20
1.26256
11
0.940026
21
1.26181
0
LINE
8
BLACK
6
CONTINUOUS
10
1.9555
20
1.26366
11
1.95869
21
1.26153
0
LINE
8
BLACK
6
CONTINUOUS
10
1.95869
20
1.26153
11
1.96083
21
1.25833
0
LINE
8
BLACK
6
CONTINUOUS
10
1.96083
20
1.25833
11
1.96157
21
1.25457
0
LINE
8
BLACK
6
CONTINUOUS
10
1.96157
20
1.25457
11
1.96157
21
1.21913
0
LINE
8
BLACK
6
CONTINUOUS
10
1.96157
20
1.21913
11
1.96083
21
1.21537
0
LINE
8
BLACK
6
CONTINUOUS
10
1.96083
20
1.21537
11
1.95869
21
1.21217
0
LINE
8
BLACK
6
CONTINUOUS
10
1.95869
20
1.21217
11
1.9555
21
1.21004
0
LINE
8
BLACK
6
CONTINUOUS
10
1.9555
20
1.21004
11
1.95173
21
1.20929
0
LINE
8
BLACK
6
CONTINUOUS
10
1.95173
20
1.20929
11
1.91827
21
1.20929
0
LINE
8
BLACK
6
CONTINUOUS
10
1.91827
20
1.20929
11
1.9145
21
1.21004
0
LINE
8
BLACK
6
CONTINUOUS
10
1.9145
20
1.21004
11
1.91131
21
1.21217
0
LINE
8
BLACK
6
CONTINUOUS
10
1.91131
20
1.21217
11
1.90917
21
1.21537
0
LINE
8
BLACK
6
CONTINUOUS
10
1.90917
20
1.21537
11
1.90843
21
1.21913
0
LINE
8
BLACK
6
CONTINUOUS
10
1.90843
20
1.21913
11
1.90843
21
1.25457
0
LINE
8
BLACK
6
CONTINUOUS
10
1.90843
20
1.25457
11
1.90917
21
1.25833
0
LINE
8
BLACK
6
CONTINUOUS
10
1.90917
20
1.25833
11
1.91131
21
1.26153
0
LINE
8
BLACK
6
CONTINUOUS
10
1.91131
20
1.26153
11
1.9145
21
1.26366
0
LINE
8
BLACK
6
CONTINUOUS
10
1.9145
20
1.26366
11
1.91827
21
1.26441
0
LINE
8
BLACK
6
CONTINUOUS
10
1.91827
20
1.26441
11
1.95173
21
1.26441
0
LINE
8
BLACK
6
CONTINUOUS
10
1.95173
20
1.26441
11
1.9555
21
1.26366
0
LINE
8
BLACK
6
CONTINUOUS
10
1.12148
20
1.2685
11
1.12468
21
1.26637
0
LINE
8
BLACK
6
CONTINUOUS
10
1.12468
20
1.26637
11
1.12681
21
1.26318
0
LINE
8
BLACK
6
CONTINUOUS
10
1.12681
20
1.26318
11
1.12756
21
1.25941
0
LINE
8
BLACK
6
CONTINUOUS
10
1.12756
20
1.25941
11
1.12756
21
1.23874
0
LINE
8
BLACK
6
CONTINUOUS
10
1.12756
20
1.23874
11
1.12681
21
1.23497
0
LINE
8
BLACK
6
CONTINUOUS
10
1.12681
20
1.23497
11
1.12468
21
1.23178
0
LINE
8
BLACK
6
CONTINUOUS
10
1.12468
20
1.23178
11
1.12148
21
1.22965
0
LINE
8
BLACK
6
CONTINUOUS
10
1.12148
20
1.22965
11
1.11772
21
1.2289
0
LINE
8
BLACK
6
CONTINUOUS
10
1.11772
20
1.2289
11
1.08228
21
1.2289
0
LINE
8
BLACK
6
CONTINUOUS
10
1.08228
20
1.2289
11
1.07852
21
1.22965
0
LINE
8
BLACK
6
CONTINUOUS
10
1.07852
20
1.22965
11
1.07532
21
1.23178
0
LINE
8
BLACK
6
CONTINUOUS
10
1.07532
20
1.23178
11
1.07319
21
1.23497
0
LINE
8
BLACK
6
CONTINUOUS
10
1.07319
20
1.23497
11
1.07244
21
1.23874
0
LINE
8
BLACK
6
CONTINUOUS
10
1.07244
20
1.23874
11
1.07244
21
1.25941
0
LINE
8
BLACK
6
CONTINUOUS
10
1.07244
20
1.25941
11
1.07319
21
1.26318
0
LINE
8
BLACK
6
CONTINUOUS
10
1.07319
20
1.26318
11
1.07532
21
1.26637
0
LINE
8
BLACK
6
CONTINUOUS
10
1.07532
20
1.26637
11
1.07852
21
1.2685
0
LINE
8
BLACK
6
CONTINUOUS
10
1.07852
20
1.2685
11
1.08228
21
1.26925
0
LINE
8
BLACK
6
CONTINUOUS
10
1.08228
20
1.26925
11
1.11772
21
1.26925
0
LINE
8
BLACK
6
CONTINUOUS
10
1.11772
20
1.26925
11
1.12148
21
1.2685
0
LINE
8
BLACK
6
CONTINUOUS
10
2.21
20
1.23
11
2.15
21
1.23
0
LINE
8
BLACK
6
CONTINUOUS
10
2.15
20
1.23
11
2.15
21
1.29
0
LINE
8
BLACK
6
CONTINUOUS
10
2.15
20
1.29
11
2.21
21
1.29
0
LINE
8
BLACK
6
CONTINUOUS
10
2.21
20
1.29
11
2.21
21
1.23
0
LINE
8
BLACK
6
CONTINUOUS
10
2.31
20
1.23
11
2.25
21
1.23
0
LINE
8
BLACK
6
CONTINUOUS
10
2.25
20
1.23
11
2.25
21
1.29
0
LINE
8
BLACK
6
CONTINUOUS
10
2.25
20
1.29
11
2.31
21
1.29
0
LINE
8
BLACK
6
CONTINUOUS
10
2.31
20
1.29
11
2.31
21
1.23
0
LINE
8
BLACK
6
CONTINUOUS
10
1.23705
20
1.2348
11
1.15831
21
1.2348
0
LINE
8
BLACK
6
CONTINUOUS
10
1.15831
20
1.2348
11
1.15831
21
1.26039
0
LINE
8
BLACK
6
CONTINUOUS
10
1.15831
20
1.26039
11
1.23705
21
1.26039
0
LINE
8
BLACK
6
CONTINUOUS
10
1.23705
20
1.26039
11
1.23705
21
1.2348
0
LINE
8
BLACK
6
CONTINUOUS
10
1.37169
20
1.2348
11
1.29295
21
1.2348
0
LINE
8
BLACK
6
CONTINUOUS
10
1.29295
20
1.2348
11
1.29295
21
1.26039
0
LINE
8
BLACK
6
CONTINUOUS
10
1.29295
20
1.26039
11
1.37169
21
1.26039
0
LINE
8
BLACK
6
CONTINUOUS
10
1.37169
20
1.26039
11
1.37169
21
1.2348
0
LINE
8
BLACK
6
CONTINUOUS
10
1.48
20
1.24
11
1.42
21
1.24
0
LINE
8
BLACK
6
CONTINUOUS
10
1.42
20
1.24
11
1.42
21
1.3
0
LINE
8
BLACK
6
CONTINUOUS
10
1.42
20
1.3
11
1.48
21
1.3
0
LINE
8
BLACK
6
CONTINUOUS
10
1.48
20
1.3
11
1.48
21
1.24
0
LINE
8
BLACK
6
CONTINUOUS
10
1.58
20
1.24
11
1.52
21
1.24
0
LINE
8
BLACK
6
CONTINUOUS
10
1.52
20
1.24
11
1.52
21
1.3
0
LINE
8
BLACK
6
CONTINUOUS
10
1.52
20
1.3
11
1.58
21
1.3
0
LINE
8
BLACK
6
CONTINUOUS
10
1.58
20
1.3
11
1.58
21
1.24
0
LINE
8
BLACK
6
CONTINUOUS
10
1.65621
20
1.30779
11
1.6594
21
1.30566
0
LINE
8
BLACK
6
CONTINUOUS
10
1.6594
20
1.30566
11
1.66153
21
1.30247
0
LINE
8
BLACK
6
CONTINUOUS
10
1.66153
20
1.30247
11
1.66228
21
1.2987
0
LINE
8
BLACK
6
CONTINUOUS
10
1.66228
20
1.2987
11
1.66228
21
1.2613
0
LINE
8
BLACK
6
CONTINUOUS
10
1.66228
20
1.2613
11
1.66153
21
1.25753
0
LINE
8
BLACK
6
CONTINUOUS
10
1.66153
20
1.25753
11
1.6594
21
1.25434
0
LINE
8
BLACK
6
CONTINUOUS
10
1.6594
20
1.25434
11
1.65621
21
1.25221
0
LINE
8
BLACK
6
CONTINUOUS
10
1.65621
20
1.25221
11
1.65244
21
1.25146
0
LINE
8
BLACK
6
CONTINUOUS
10
1.65244
20
1.25146
11
1.63276
21
1.25146
0
LINE
8
BLACK
6
CONTINUOUS
10
1.63276
20
1.25146
11
1.62899
21
1.25221
0
LINE
8
BLACK
6
CONTINUOUS
10
1.62899
20
1.25221
11
1.6258
21
1.25434
0
LINE
8
BLACK
6
CONTINUOUS
10
1.6258
20
1.25434
11
1.62366
21
1.25753
0
LINE
8
BLACK
6
CONTINUOUS
10
1.62366
20
1.25753
11
1.62291
21
1.2613
0
LINE
8
BLACK
6
CONTINUOUS
10
1.62291
20
1.2613
11
1.62291
21
1.2987
0
LINE
8
BLACK
6
CONTINUOUS
10
1.62291
20
1.2987
11
1.62366
21
1.30247
0
LINE
8
BLACK
6
CONTINUOUS
10
1.62366
20
1.30247
11
1.6258
21
1.30566
0
LINE
8
BLACK
6
CONTINUOUS
10
1.6258
20
1.30566
11
1.62899
21
1.30779
0
LINE
8
BLACK
6
CONTINUOUS
10
1.62899
20
1.30779
11
1.63276
21
1.30854
0
LINE
8
BLACK
6
CONTINUOUS
10
1.63276
20
1.30854
11
1.65244
21
1.30854
0
LINE
8
BLACK
6
CONTINUOUS
10
1.65244
20
1.30854
11
1.65621
21
1.30779
0
LINE
8
BLACK
6
CONTINUOUS
10
1.73101
20
1.30779
11
1.7342
21
1.30566
0
LINE
8
BLACK
6
CONTINUOUS
10
1.7342
20
1.30566
11
1.73634
21
1.30247
0
LINE
8
BLACK
6
CONTINUOUS
10
1.73634
20
1.30247
11
1.73709
21
1.2987
0
LINE
8
BLACK
6
CONTINUOUS
10
1.73709
20
1.2987
11
1.73709
21
1.2613
0
LINE
8
BLACK
6
CONTINUOUS
10
1.73709
20
1.2613
11
1.73634
21
1.25753
0
LINE
8
BLACK
6
CONTINUOUS
10
1.73634
20
1.25753
11
1.7342
21
1.25434
0
LINE
8
BLACK
6
CONTINUOUS
10
1.7342
20
1.25434
11
1.73101
21
1.25221
0
LINE
8
BLACK
6
CONTINUOUS
10
1.73101
20
1.25221
11
1.72724
21
1.25146
0
LINE
8
BLACK
6
CONTINUOUS
10
1.72724
20
1.25146
11
1.70756
21
1.25146
0
LINE
8
BLACK
6
CONTINUOUS
10
1.70756
20
1.25146
11
1.70379
21
1.25221
0
LINE
8
BLACK
6
CONTINUOUS
10
1.70379
20
1.25221
11
1.7006
21
1.25434
0
LINE
8
BLACK
6
CONTINUOUS
10
1.7006
20
1.25434
11
1.69847
21
1.25753
0
LINE
8
BLACK
6
CONTINUOUS
10
1.69847
20
1.25753
11
1.69772
21
1.2613
0
LINE
8
BLACK
6
CONTINUOUS
10
1.69772
20
1.2613
11
1.69772
21
1.2987
0
LINE
8
BLACK
6
CONTINUOUS
10
1.69772
20
1.2987
11
1.69847
21
1.30247
0
LINE
8
BLACK
6
CONTINUOUS
10
1.69847
20
1.30247
11
1.7006
21
1.30566
0
LINE
8
BLACK
6
CONTINUOUS
10
1.7006
20
1.30566
11
1.70379
21
1.30779
0
LINE
8
BLACK
6
CONTINUOUS
10
1.70379
20
1.30779
11
1.70756
21
1.30854
0
LINE
8
BLACK
6
CONTINUOUS
10
1.70756
20
1.30854
11
1.72724
21
1.30854
0
LINE
8
BLACK
6
CONTINUOUS
10
1.72724
20
1.30854
11
1.73101
21
1.30779
0
LINE
8
BLACK
6
CONTINUOUS
10
1.86247
20
1.29653
11
1.86566
21
1.2944
0
LINE
8
BLACK
6
CONTINUOUS
10
1.86566
20
1.2944
11
1.86779
21
1.29121
0
LINE
8
BLACK
6
CONTINUOUS
10
1.86779
20
1.29121
11
1.86854
21
1.28744
0
LINE
8
BLACK
6
CONTINUOUS
10
1.86854
20
1.28744
11
1.86854
21
1.26776
0
LINE
8
BLACK
6
CONTINUOUS
10
1.86854
20
1.26776
11
1.86779
21
1.26399
0
LINE
8
BLACK
6
CONTINUOUS
10
1.86779
20
1.26399
11
1.86566
21
1.2608
0
LINE
8
BLACK
6
CONTINUOUS
10
1.86566
20
1.2608
11
1.86247
21
1.25866
0
LINE
8
BLACK
6
CONTINUOUS
10
1.86247
20
1.25866
11
1.8587
21
1.25791
0
LINE
8
BLACK
6
CONTINUOUS
10
1.8587
20
1.25791
11
1.8213
21
1.25791
0
LINE
8
BLACK
6
CONTINUOUS
10
1.8213
20
1.25791
11
1.81753
21
1.25866
0
LINE
8
BLACK
6
CONTINUOUS
10
1.81753
20
1.25866
11
1.81434
21
1.2608
0
LINE
8
BLACK
6
CONTINUOUS
10
1.81434
20
1.2608
11
1.81221
21
1.26399
0
LINE
8
BLACK
6
CONTINUOUS
10
1.81221
20
1.26399
11
1.81146
21
1.26776
0
LINE
8
BLACK
6
CONTINUOUS
10
1.81146
20
1.26776
11
1.81146
21
1.28744
0
LINE
8
BLACK
6
CONTINUOUS
10
1.81146
20
1.28744
11
1.81221
21
1.29121
0
LINE
8
BLACK
6
CONTINUOUS
10
1.81221
20
1.29121
11
1.81434
21
1.2944
0
LINE
8
BLACK
6
CONTINUOUS
10
1.81434
20
1.2944
11
1.81753
21
1.29653
0
LINE
8
BLACK
6
CONTINUOUS
10
1.81753
20
1.29653
11
1.8213
21
1.29728
0
LINE
8
BLACK
6
CONTINUOUS
10
1.8213
20
1.29728
11
1.8587
21
1.29728
0
LINE
8
BLACK
6
CONTINUOUS
10
1.8587
20
1.29728
11
1.86247
21
1.29653
0
LINE
8
BLACK
6
CONTINUOUS
10
1.03247
20
1.30634
11
1.03566
21
1.3042
0
LINE
8
BLACK
6
CONTINUOUS
10
1.03566
20
1.3042
11
1.03779
21
1.30101
0
LINE
8
BLACK
6
CONTINUOUS
10
1.03779
20
1.30101
11
1.03854
21
1.29724
0
LINE
8
BLACK
6
CONTINUOUS
10
1.03854
20
1.29724
11
1.03854
21
1.27756
0
LINE
8
BLACK
6
CONTINUOUS
10
1.03854
20
1.27756
11
1.03779
21
1.27379
0
LINE
8
BLACK
6
CONTINUOUS
10
1.03779
20
1.27379
11
1.03566
21
1.2706
0
LINE
8
BLACK
6
CONTINUOUS
10
1.03566
20
1.2706
11
1.03247
21
1.26847
0
LINE
8
BLACK
6
CONTINUOUS
10
1.03247
20
1.26847
11
1.0287
21
1.26772
0
LINE
8
BLACK
6
CONTINUOUS
10
1.0287
20
1.26772
11
0.991299
21
1.26772
0
LINE
8
BLACK
6
CONTINUOUS
10
0.991299
20
1.26772
11
0.987533
21
1.26847
0
LINE
8
BLACK
6
CONTINUOUS
10
0.987533
20
1.26847
11
0.984339
21
1.2706
0
LINE
8
BLACK
6
CONTINUOUS
10
0.984339
20
1.2706
11
0.982206
21
1.27379
0
LINE
8
BLACK
6
CONTINUOUS
10
0.982206
20
1.27379
11
0.981457
21
1.27756
0
LINE
8
BLACK
6
CONTINUOUS
10
0.981457
20
1.27756
11
0.981457
21
1.29724
0
LINE
8
BLACK
6
CONTINUOUS
10
0.981457
20
1.29724
11
0.982206
21
1.30101
0
LINE
8
BLACK
6
CONTINUOUS
10
0.982206
20
1.30101
11
0.984339
21
1.3042
0
LINE
8
BLACK
6
CONTINUOUS
10
0.984339
20
1.3042
11
0.987533
21
1.30634
0
LINE
8
BLACK
6
CONTINUOUS
10
0.987533
20
1.30634
11
0.991299
21
1.30709
0
LINE
8
BLACK
6
CONTINUOUS
10
0.991299
20
1.30709
11
1.0287
21
1.30709
0
LINE
8
BLACK
6
CONTINUOUS
10
1.0287
20
1.30709
11
1.03247
21
1.30634
0
LINE
8
BLACK
6
CONTINUOUS
10
1.23705
20
1.2722
11
1.15831
21
1.2722
0
LINE
8
BLACK
6
CONTINUOUS
10
1.15831
20
1.2722
11
1.15831
21
1.2978
0
LINE
8
BLACK
6
CONTINUOUS
10
1.15831
20
1.2978
11
1.23705
21
1.2978
0
LINE
8
BLACK
6
CONTINUOUS
10
1.23705
20
1.2978
11
1.23705
21
1.2722
0
LINE
8
BLACK
6
CONTINUOUS
10
0.793701
20
1.27953
11
0.754331
21
1.27953
0
LINE
8
BLACK
6
CONTINUOUS
10
0.754331
20
1.27953
11
0.754331
21
1.42913
0
LINE
8
BLACK
6
CONTINUOUS
10
0.754331
20
1.42913
11
0.793701
21
1.42913
0
LINE
8
BLACK
6
CONTINUOUS
10
0.793701
20
1.42913
11
0.793701
21
1.27953
0
LINE
8
BLACK
6
CONTINUOUS
10
2.04567
20
1.27953
11
2.0063
21
1.27953
0
LINE
8
BLACK
6
CONTINUOUS
10
2.0063
20
1.27953
11
2.0063
21
1.42913
0
LINE
8
BLACK
6
CONTINUOUS
10
2.0063
20
1.42913
11
2.04567
21
1.42913
0
LINE
8
BLACK
6
CONTINUOUS
10
2.04567
20
1.42913
11
2.04567
21
1.27953
0
LINE
8
BLACK
6
CONTINUOUS
10
0.382121
20
1.3776
11
0.389742
21
1.37465
0
LINE
8
BLACK
6
CONTINUOUS
10
0.389742
20
1.37465
11
0.396691
21
1.37035
0
LINE
8
BLACK
6
CONTINUOUS
10
0.396691
20
1.37035
11
0.402732
21
1.36484
0
LINE
8
BLACK
6
CONTINUOUS
10
0.402732
20
1.36484
11
0.407657
21
1.35832
0
LINE
8
BLACK
6
CONTINUOUS
10
0.407657
20
1.35832
11
0.4113
21
1.351
0
LINE
8
BLACK
6
CONTINUOUS
10
0.4113
20
1.351
11
0.413537
21
1.34314
0
LINE
8
BLACK
6
CONTINUOUS
10
0.413537
20
1.34314
11
0.414291
21
1.335
0
LINE
8
BLACK
6
CONTINUOUS
10
0.414291
20
1.335
11
0.413537
21
1.32686
0
LINE
8
BLACK
6
CONTINUOUS
10
0.413537
20
1.32686
11
0.4113
21
1.319
0
LINE
8
BLACK
6
CONTINUOUS
10
0.4113
20
1.319
11
0.407657
21
1.31168
0
LINE
8
BLACK
6
CONTINUOUS
10
0.407657
20
1.31168
11
0.402732
21
1.30516
0
LINE
8
BLACK
6
CONTINUOUS
10
0.402732
20
1.30516
11
0.396691
21
1.29965
0
LINE
8
BLACK
6
CONTINUOUS
10
0.396691
20
1.29965
11
0.389742
21
1.29535
0
LINE
8
BLACK
6
CONTINUOUS
10
0.389742
20
1.29535
11
0.382121
21
1.2924
0
LINE
8
BLACK
6
CONTINUOUS
10
0.382121
20
1.2924
11
0.374087
21
1.2909
0
LINE
8
BLACK
6
CONTINUOUS
10
0.374087
20
1.2909
11
0.365913
21
1.2909
0
LINE
8
BLACK
6
CONTINUOUS
10
0.365913
20
1.2909
11
0.357879
21
1.2924
0
LINE
8
BLACK
6
CONTINUOUS
10
0.357879
20
1.2924
11
0.350258
21
1.29535
0
LINE
8
BLACK
6
CONTINUOUS
10
0.350258
20
1.29535
11
0.343309
21
1.29965
0
LINE
8
BLACK
6
CONTINUOUS
10
0.343309
20
1.29965
11
0.337268
21
1.30516
0
LINE
8
BLACK
6
CONTINUOUS
10
0.337268
20
1.30516
11
0.332343
21
1.31168
0
LINE
8
BLACK
6
CONTINUOUS
10
0.332343
20
1.31168
11
0.3287
21
1.319
0
LINE
8
BLACK
6
CONTINUOUS
10
0.3287
20
1.319
11
0.326463
21
1.32686
0
LINE
8
BLACK
6
CONTINUOUS
10
0.326463
20
1.32686
11
0.325709
21
1.335
0
LINE
8
BLACK
6
CONTINUOUS
10
0.325709
20
1.335
11
0.326463
21
1.34314
0
LINE
8
BLACK
6
CONTINUOUS
10
0.326463
20
1.34314
11
0.3287
21
1.351
0
LINE
8
BLACK
6
CONTINUOUS
10
0.3287
20
1.351
11
0.332343
21
1.35832
0
LINE
8
BLACK
6
CONTINUOUS
10
0.332343
20
1.35832
11
0.337268
21
1.36484
0
LINE
8
BLACK
6
CONTINUOUS
10
0.337268
20
1.36484
11
0.343309
21
1.37035
0
LINE
8
BLACK
6
CONTINUOUS
10
0.343309
20
1.37035
11
0.350258
21
1.37465
0
LINE
8
BLACK
6
CONTINUOUS
10
0.350258
20
1.37465
11
0.357879
21
1.3776
0
LINE
8
BLACK
6
CONTINUOUS
10
0.357879
20
1.3776
11
0.365913
21
1.3791
0
LINE
8
BLACK
6
CONTINUOUS
10
0.365913
20
1.3791
11
0.374087
21
1.3791
0
LINE
8
BLACK
6
CONTINUOUS
10
0.374087
20
1.3791
11
0.382121
21
1.3776
0
LINE
8
BLACK
6
CONTINUOUS
10
0.582121
20
1.3776
11
0.589742
21
1.37465
0
LINE
8
BLACK
6
CONTINUOUS
10
0.589742
20
1.37465
11
0.596691
21
1.37035
0
LINE
8
BLACK
6
CONTINUOUS
10
0.596691
20
1.37035
11
0.602732
21
1.36484
0
LINE
8
BLACK
6
CONTINUOUS
10
0.602732
20
1.36484
11
0.607657
21
1.35832
0
LINE
8
BLACK
6
CONTINUOUS
10
0.607657
20
1.35832
11
0.6113
21
1.351
0
LINE
8
BLACK
6
CONTINUOUS
10
0.6113
20
1.351
11
0.613537
21
1.34314
0
LINE
8
BLACK
6
CONTINUOUS
10
0.613537
20
1.34314
11
0.614291
21
1.335
0
LINE
8
BLACK
6
CONTINUOUS
10
0.614291
20
1.335
11
0.613537
21
1.32686
0
LINE
8
BLACK
6
CONTINUOUS
10
0.613537
20
1.32686
11
0.6113
21
1.319
0
LINE
8
BLACK
6
CONTINUOUS
10
0.6113
20
1.319
11
0.607657
21
1.31168
0
LINE
8
BLACK
6
CONTINUOUS
10
0.607657
20
1.31168
11
0.602732
21
1.30516
0
LINE
8
BLACK
6
CONTINUOUS
10
0.602732
20
1.30516
11
0.596691
21
1.29965
0
LINE
8
BLACK
6
CONTINUOUS
10
0.596691
20
1.29965
11
0.589742
21
1.29535
0
LINE
8
BLACK
6
CONTINUOUS
10
0.589742
20
1.29535
11
0.582121
21
1.2924
0
LINE
8
BLACK
6
CONTINUOUS
10
0.582121
20
1.2924
11
0.574087
21
1.2909
0
LINE
8
BLACK
6
CONTINUOUS
10
0.574087
20
1.2909
11
0.565913
21
1.2909
0
LINE
8
BLACK
6
CONTINUOUS
10
0.565913
20
1.2909
11
0.557879
21
1.2924
0
LINE
8
BLACK
6
CONTINUOUS
10
0.557879
20
1.2924
11
0.550258
21
1.29535
0
LINE
8
BLACK
6
CONTINUOUS
10
0.550258
20
1.29535
11
0.543309
21
1.29965
0
LINE
8
BLACK
6
CONTINUOUS
10
0.543309
20
1.29965
11
0.537268
21
1.30516
0
LINE
8
BLACK
6
CONTINUOUS
10
0.537268
20
1.30516
11
0.532343
21
1.31168
0
LINE
8
BLACK
6
CONTINUOUS
10
0.532343
20
1.31168
11
0.5287
21
1.319
0
LINE
8
BLACK
6
CONTINUOUS
10
0.5287
20
1.319
11
0.526463
21
1.32686
0
LINE
8
BLACK
6
CONTINUOUS
10
0.526463
20
1.32686
11
0.525709
21
1.335
0
LINE
8
BLACK
6
CONTINUOUS
10
0.525709
20
1.335
11
0.526463
21
1.34314
0
LINE
8
BLACK
6
CONTINUOUS
10
0.526463
20
1.34314
11
0.5287
21
1.351
0
LINE
8
BLACK
6
CONTINUOUS
10
0.5287
20
1.351
11
0.532343
21
1.35832
0
LINE
8
BLACK
6
CONTINUOUS
10
0.532343
20
1.35832
11
0.537268
21
1.36484
0
LINE
8
BLACK
6
CONTINUOUS
10
0.537268
20
1.36484
11
0.543309
21
1.37035
0
LINE
8
BLACK
6
CONTINUOUS
10
0.543309
20
1.37035
11
0.550258
21
1.37465
0
LINE
8
BLACK
6
CONTINUOUS
10
0.550258
20
1.37465
11
0.557879
21
1.3776
0
LINE
8
BLACK
6
CONTINUOUS
10
0.557879
20
1.3776
11
0.565913
21
1.3791
0
LINE
8
BLACK
6
CONTINUOUS
10
0.565913
20
1.3791
11
0.574087
21
1.3791
0
LINE
8
BLACK
6
CONTINUOUS
10
0.574087
20
1.3791
11
0.582121
21
1.3776
0
LINE
8
BLACK
6
CONTINUOUS
10
1.12148
20
1.34035
11
1.12468
21
1.33822
0
LINE
8
BLACK
6
CONTINUOUS
10
1.12468
20
1.33822
11
1.12681
21
1.33503
0
LINE
8
BLACK
6
CONTINUOUS
10
1.12681
20
1.33503
11
1.12756
21
1.33126
0
LINE
8
BLACK
6
CONTINUOUS
10
1.12756
20
1.33126
11
1.12756
21
1.31059
0
LINE
8
BLACK
6
CONTINUOUS
10
1.12756
20
1.31059
11
1.12681
21
1.30682
0
LINE
8
BLACK
6
CONTINUOUS
10
1.12681
20
1.30682
11
1.12468
21
1.30363
0
LINE
8
BLACK
6
CONTINUOUS
10
1.12468
20
1.30363
11
1.12148
21
1.3015
0
LINE
8
BLACK
6
CONTINUOUS
10
1.12148
20
1.3015
11
1.11772
21
1.30075
0
LINE
8
BLACK
6
CONTINUOUS
10
1.11772
20
1.30075
11
1.08228
21
1.30075
0
LINE
8
BLACK
6
CONTINUOUS
10
1.08228
20
1.30075
11
1.07852
21
1.3015
0
LINE
8
BLACK
6
CONTINUOUS
10
1.07852
20
1.3015
11
1.07532
21
1.30363
0
LINE
8
BLACK
6
CONTINUOUS
10
1.07532
20
1.30363
11
1.07319
21
1.30682
0
LINE
8
BLACK
6
CONTINUOUS
10
1.07319
20
1.30682
11
1.07244
21
1.31059
0
LINE
8
BLACK
6
CONTINUOUS
10
1.07244
20
1.31059
11
1.07244
21
1.33126
0
LINE
8
BLACK
6
CONTINUOUS
10
1.07244
20
1.33126
11
1.07319
21
1.33503
0
LINE
8
BLACK
6
CONTINUOUS
10
1.07319
20
1.33503
11
1.07532
21
1.33822
0
LINE
8
BLACK
6
CONTINUOUS
10
1.07532
20
1.33822
11
1.07852
21
1.34035
0
LINE
8
BLACK
6
CONTINUOUS
10
1.07852
20
1.34035
11
1.08228
21
1.3411
0
LINE
8
BLACK
6
CONTINUOUS
10
1.08228
20
1.3411
11
1.11772
21
1.3411
0
LINE
8
BLACK
6
CONTINUOUS
10
1.11772
20
1.3411
11
1.12148
21
1.34035
0
LINE
8
BLACK
6
CONTINUOUS
10
1.23705
20
1.30961
11
1.15831
21
1.30961
0
LINE
8
BLACK
6
CONTINUOUS
10
1.15831
20
1.30961
11
1.15831
21
1.3352
0
LINE
8
BLACK
6
CONTINUOUS
10
1.15831
20
1.3352
11
1.23705
21
1.3352
0
LINE
8
BLACK
6
CONTINUOUS
10
1.23705
20
1.3352
11
1.23705
21
1.30961
0
LINE
8
BLACK
6
CONTINUOUS
10
1.37169
20
1.30961
11
1.29295
21
1.30961
0
LINE
8
BLACK
6
CONTINUOUS
10
1.29295
20
1.30961
11
1.29295
21
1.3352
0
LINE
8
BLACK
6
CONTINUOUS
10
1.29295
20
1.3352
11
1.37169
21
1.3352
0
LINE
8
BLACK
6
CONTINUOUS
10
1.37169
20
1.3352
11
1.37169
21
1.30961
0
LINE
8
BLACK
6
CONTINUOUS
10
1.9555
20
1.36996
11
1.95869
21
1.36783
0
LINE
8
BLACK
6
CONTINUOUS
10
1.95869
20
1.36783
11
1.96083
21
1.36463
0
LINE
8
BLACK
6
CONTINUOUS
10
1.96083
20
1.36463
11
1.96157
21
1.36087
0
LINE
8
BLACK
6
CONTINUOUS
10
1.96157
20
1.36087
11
1.96157
21
1.32543
0
LINE
8
BLACK
6
CONTINUOUS
10
1.96157
20
1.32543
11
1.96083
21
1.32167
0
LINE
8
BLACK
6
CONTINUOUS
10
1.96083
20
1.32167
11
1.95869
21
1.31847
0
LINE
8
BLACK
6
CONTINUOUS
10
1.95869
20
1.31847
11
1.9555
21
1.31634
0
LINE
8
BLACK
6
CONTINUOUS
10
1.9555
20
1.31634
11
1.95173
21
1.31559
0
LINE
8
BLACK
6
CONTINUOUS
10
1.95173
20
1.31559
11
1.91827
21
1.31559
0
LINE
8
BLACK
6
CONTINUOUS
10
1.91827
20
1.31559
11
1.9145
21
1.31634
0
LINE
8
BLACK
6
CONTINUOUS
10
1.9145
20
1.31634
11
1.91131
21
1.31847
0
LINE
8
BLACK
6
CONTINUOUS
10
1.91131
20
1.31847
11
1.90917
21
1.32167
0
LINE
8
BLACK
6
CONTINUOUS
10
1.90917
20
1.32167
11
1.90843
21
1.32543
0
LINE
8
BLACK
6
CONTINUOUS
10
1.90843
20
1.32543
11
1.90843
21
1.36087
0
LINE
8
BLACK
6
CONTINUOUS
10
1.90843
20
1.36087
11
1.90917
21
1.36463
0
LINE
8
BLACK
6
CONTINUOUS
10
1.90917
20
1.36463
11
1.91131
21
1.36783
0
LINE
8
BLACK
6
CONTINUOUS
10
1.91131
20
1.36783
11
1.9145
21
1.36996
0
LINE
8
BLACK
6
CONTINUOUS
10
1.9145
20
1.36996
11
1.91827
21
1.37071
0
LINE
8
BLACK
6
CONTINUOUS
10
1.91827
20
1.37071
11
1.95173
21
1.37071
0
LINE
8
BLACK
6
CONTINUOUS
10
1.95173
20
1.37071
11
1.9555
21
1.36996
0
LINE
8
BLACK
6
CONTINUOUS
10
2.21
20
1.33
11
2.15
21
1.33
0
LINE
8
BLACK
6
CONTINUOUS
10
2.15
20
1.33
11
2.15
21
1.39
0
LINE
8
BLACK
6
CONTINUOUS
10
2.15
20
1.39
11
2.21
21
1.39
0
LINE
8
BLACK
6
CONTINUOUS
10
2.21
20
1.39
11
2.21
21
1.33
0
LINE
8
BLACK
6
CONTINUOUS
10
2.31
20
1.33
11
2.25
21
1.33
0
LINE
8
BLACK
6
CONTINUOUS
10
2.25
20
1.33
11
2.25
21
1.39
0
LINE
8
BLACK
6
CONTINUOUS
10
2.25
20
1.39
11
2.31
21
1.39
0
LINE
8
BLACK
6
CONTINUOUS
10
2.31
20
1.39
11
2.31
21
1.33
0
LINE
8
BLACK
6
CONTINUOUS
10
1.86247
20
1.37134
11
1.86566
21
1.3692
0
LINE
8
BLACK
6
CONTINUOUS
10
1.86566
20
1.3692
11
1.86779
21
1.36601
0
LINE
8
BLACK
6
CONTINUOUS
10
1.86779
20
1.36601
11
1.86854
21
1.36224
0
LINE
8
BLACK
6
CONTINUOUS
10
1.86854
20
1.36224
11
1.86854
21
1.34256
0
LINE
8
BLACK
6
CONTINUOUS
10
1.86854
20
1.34256
11
1.86779
21
1.33879
0
LINE
8
BLACK
6
CONTINUOUS
10
1.86779
20
1.33879
11
1.86566
21
1.3356
0
LINE
8
BLACK
6
CONTINUOUS
10
1.86566
20
1.3356
11
1.86247
21
1.33347
0
LINE
8
BLACK
6
CONTINUOUS
10
1.86247
20
1.33347
11
1.8587
21
1.33272
0
LINE
8
BLACK
6
CONTINUOUS
10
1.8587
20
1.33272
11
1.8213
21
1.33272
0
LINE
8
BLACK
6
CONTINUOUS
10
1.8213
20
1.33272
11
1.81753
21
1.33347
0
LINE
8
BLACK
6
CONTINUOUS
10
1.81753
20
1.33347
11
1.81434
21
1.3356
0
LINE
8
BLACK
6
CONTINUOUS
10
1.81434
20
1.3356
11
1.81221
21
1.33879
0
LINE
8
BLACK
6
CONTINUOUS
10
1.81221
20
1.33879
11
1.81146
21
1.34256
0
LINE
8
BLACK
6
CONTINUOUS
10
1.81146
20
1.34256
11
1.81146
21
1.36224
0
LINE
8
BLACK
6
CONTINUOUS
10
1.81146
20
1.36224
11
1.81221
21
1.36601
0
LINE
8
BLACK
6
CONTINUOUS
10
1.81221
20
1.36601
11
1.81434
21
1.3692
0
LINE
8
BLACK
6
CONTINUOUS
10
1.81434
20
1.3692
11
1.81753
21
1.37134
0
LINE
8
BLACK
6
CONTINUOUS
10
1.81753
20
1.37134
11
1.8213
21
1.37209
0
LINE
8
BLACK
6
CONTINUOUS
10
1.8213
20
1.37209
11
1.8587
21
1.37209
0
LINE
8
BLACK
6
CONTINUOUS
10
1.8587
20
1.37209
11
1.86247
21
1.37134
0
LINE
8
BLACK
6
CONTINUOUS
10
1.59094
20
1.36472
11
1.53583
21
1.36472
0
LINE
8
BLACK
6
CONTINUOUS
10
1.53583
20
1.36472
11
1.53583
21
1.37654
0
LINE
8
BLACK
6
CONTINUOUS
10
1.53583
20
1.37654
11
1.59094
21
1.37654
0
LINE
8
BLACK
6
CONTINUOUS
10
1.59094
20
1.37654
11
1.59094
21
1.36472
0
LINE
8
BLACK
6
CONTINUOUS
10
1.76417
20
1.36472
11
1.70906
21
1.36472
0
LINE
8
BLACK
6
CONTINUOUS
10
1.70906
20
1.36472
11
1.70906
21
1.37654
0
LINE
8
BLACK
6
CONTINUOUS
10
1.70906
20
1.37654
11
1.76417
21
1.37654
0
LINE
8
BLACK
6
CONTINUOUS
10
1.76417
20
1.37654
11
1.76417
21
1.36472
0
LINE
8
BLACK
6
CONTINUOUS
10
1.59094
20
1.38441
11
1.53583
21
1.38441
0
LINE
8
BLACK
6
CONTINUOUS
10
1.53583
20
1.38441
11
1.53583
21
1.39622
0
LINE
8
BLACK
6
CONTINUOUS
10
1.53583
20
1.39622
11
1.59094
21
1.39622
0
LINE
8
BLACK
6
CONTINUOUS
10
1.59094
20
1.39622
11
1.59094
21
1.38441
0
LINE
8
BLACK
6
CONTINUOUS
10
1.76417
20
1.38441
11
1.70906
21
1.38441
0
LINE
8
BLACK
6
CONTINUOUS
10
1.70906
20
1.38441
11
1.70906
21
1.39622
0
LINE
8
BLACK
6
CONTINUOUS
10
1.70906
20
1.39622
11
1.76417
21
1.39622
0
LINE
8
BLACK
6
CONTINUOUS
10
1.76417
20
1.39622
11
1.76417
21
1.38441
0
LINE
8
BLACK
6
CONTINUOUS
10
1.28621
20
1.44279
11
1.2894
21
1.44066
0
LINE
8
BLACK
6
CONTINUOUS
10
1.2894
20
1.44066
11
1.29153
21
1.43747
0
LINE
8
BLACK
6
CONTINUOUS
10
1.29153
20
1.43747
11
1.29228
21
1.4337
0
LINE
8
BLACK
6
CONTINUOUS
10
1.29228
20
1.4337
11
1.29228
21
1.3963
0
LINE
8
BLACK
6
CONTINUOUS
10
1.29228
20
1.3963
11
1.29153
21
1.39253
0
LINE
8
BLACK
6
CONTINUOUS
10
1.29153
20
1.39253
11
1.2894
21
1.38934
0
LINE
8
BLACK
6
CONTINUOUS
10
1.2894
20
1.38934
11
1.28621
21
1.38721
0
LINE
8
BLACK
6
CONTINUOUS
10
1.28621
20
1.38721
11
1.28244
21
1.38646
0
LINE
8
BLACK
6
CONTINUOUS
10
1.28244
20
1.38646
11
1.26276
21
1.38646
0
LINE
8
BLACK
6
CONTINUOUS
10
1.26276
20
1.38646
11
1.25899
21
1.38721
0
LINE
8
BLACK
6
CONTINUOUS
10
1.25899
20
1.38721
11
1.2558
21
1.38934
0
LINE
8
BLACK
6
CONTINUOUS
10
1.2558
20
1.38934
11
1.25366
21
1.39253
0
LINE
8
BLACK
6
CONTINUOUS
10
1.25366
20
1.39253
11
1.25291
21
1.3963
0
LINE
8
BLACK
6
CONTINUOUS
10
1.25291
20
1.3963
11
1.25291
21
1.4337
0
LINE
8
BLACK
6
CONTINUOUS
10
1.25291
20
1.4337
11
1.25366
21
1.43747
0
LINE
8
BLACK
6
CONTINUOUS
10
1.25366
20
1.43747
11
1.2558
21
1.44066
0
LINE
8
BLACK
6
CONTINUOUS
10
1.2558
20
1.44066
11
1.25899
21
1.44279
0
LINE
8
BLACK
6
CONTINUOUS
10
1.25899
20
1.44279
11
1.26276
21
1.44354
0
LINE
8
BLACK
6
CONTINUOUS
10
1.26276
20
1.44354
11
1.28244
21
1.44354
0
LINE
8
BLACK
6
CONTINUOUS
10
1.28244
20
1.44354
11
1.28621
21
1.44279
0
LINE
8
BLACK
6
CONTINUOUS
10
1.36101
20
1.44279
11
1.3642
21
1.44066
0
LINE
8
BLACK
6
CONTINUOUS
10
1.3642
20
1.44066
11
1.36634
21
1.43747
0
LINE
8
BLACK
6
CONTINUOUS
10
1.36634
20
1.43747
11
1.36709
21
1.4337
0
LINE
8
BLACK
6
CONTINUOUS
10
1.36709
20
1.4337
11
1.36709
21
1.3963
0
LINE
8
BLACK
6
CONTINUOUS
10
1.36709
20
1.3963
11
1.36634
21
1.39253
0
LINE
8
BLACK
6
CONTINUOUS
10
1.36634
20
1.39253
11
1.3642
21
1.38934
0
LINE
8
BLACK
6
CONTINUOUS
10
1.3642
20
1.38934
11
1.36101
21
1.38721
0
LINE
8
BLACK
6
CONTINUOUS
10
1.36101
20
1.38721
11
1.35724
21
1.38646
0
LINE
8
BLACK
6
CONTINUOUS
10
1.35724
20
1.38646
11
1.33756
21
1.38646
0
LINE
8
BLACK
6
CONTINUOUS
10
1.33756
20
1.38646
11
1.33379
21
1.38721
0
LINE
8
BLACK
6
CONTINUOUS
10
1.33379
20
1.38721
11
1.3306
21
1.38934
0
LINE
8
BLACK
6
CONTINUOUS
10
1.3306
20
1.38934
11
1.32847
21
1.39253
0
LINE
8
BLACK
6
CONTINUOUS
10
1.32847
20
1.39253
11
1.32772
21
1.3963
0
LINE
8
BLACK
6
CONTINUOUS
10
1.32772
20
1.3963
11
1.32772
21
1.4337
0
LINE
8
BLACK
6
CONTINUOUS
10
1.32772
20
1.4337
11
1.32847
21
1.43747
0
LINE
8
BLACK
6
CONTINUOUS
10
1.32847
20
1.43747
11
1.3306
21
1.44066
0
LINE
8
BLACK
6
CONTINUOUS
10
1.3306
20
1.44066
11
1.33379
21
1.44279
0
LINE
8
BLACK
6
CONTINUOUS
10
1.33379
20
1.44279
11
1.33756
21
1.44354
0
LINE
8
BLACK
6
CONTINUOUS
10
1.33756
20
1.44354
11
1.35724
21
1.44354
0
LINE
8
BLACK
6
CONTINUOUS
10
1.35724
20
1.44354
11
1.36101
21
1.44279
0
LINE
8
BLACK
6
CONTINUOUS
10
1.08317
20
1.45668
11
1.08508
21
1.4554
0
LINE
8
BLACK
6
CONTINUOUS
10
1.08508
20
1.4554
11
1.08636
21
1.45348
0
LINE
8
BLACK
6
CONTINUOUS
10
1.08636
20
1.45348
11
1.08681
21
1.45122
0
LINE
8
BLACK
6
CONTINUOUS
10
1.08681
20
1.45122
11
1.08681
21
1.40496
0
LINE
8
BLACK
6
CONTINUOUS
10
1.08681
20
1.40496
11
1.08636
21
1.4027
0
LINE
8
BLACK
6
CONTINUOUS
10
1.08636
20
1.4027
11
1.08508
21
1.40078
0
LINE
8
BLACK
6
CONTINUOUS
10
1.08508
20
1.40078
11
1.08317
21
1.3995
0
LINE
8
BLACK
6
CONTINUOUS
10
1.08317
20
1.3995
11
1.08091
21
1.39906
0
LINE
8
BLACK
6
CONTINUOUS
10
1.08091
20
1.39906
11
1.06909
21
1.39906
0
LINE
8
BLACK
6
CONTINUOUS
10
1.06909
20
1.39906
11
1.06683
21
1.3995
0
LINE
8
BLACK
6
CONTINUOUS
10
1.06683
20
1.3995
11
1.06492
21
1.40078
0
LINE
8
BLACK
6
CONTINUOUS
10
1.06492
20
1.40078
11
1.06364
21
1.4027
0
LINE
8
BLACK
6
CONTINUOUS
10
1.06364
20
1.4027
11
1.06319
21
1.40496
0
LINE
8
BLACK
6
CONTINUOUS
10
1.06319
20
1.40496
11
1.06319
21
1.45122
0
LINE
8
BLACK
6
CONTINUOUS
10
1.06319
20
1.45122
11
1.06364
21
1.45348
0
LINE
8
BLACK
6
CONTINUOUS
10
1.06364
20
1.45348
11
1.06492
21
1.4554
0
LINE
8
BLACK
6
CONTINUOUS
10
1.06492
20
1.4554
11
1.06683
21
1.45668
0
LINE
8
BLACK
6
CONTINUOUS
10
1.06683
20
1.45668
11
1.06909
21
1.45713
0
LINE
8
BLACK
6
CONTINUOUS
10
1.06909
20
1.45713
11
1.08091
21
1.45713
0
LINE
8
BLACK
6
CONTINUOUS
10
1.08091
20
1.45713
11
1.08317
21
1.45668
0
LINE
8
BLACK
6
CONTINUOUS
10
1.59094
20
1.40409
11
1.53583
21
1.40409
0
LINE
8
BLACK
6
CONTINUOUS
10
1.53583
20
1.40409
11
1.53583
21
1.41591
0
LINE
8
BLACK
6
CONTINUOUS
10
1.53583
20
1.41591
11
1.59094
21
1.41591
0
LINE
8
BLACK
6
CONTINUOUS
10
1.59094
20
1.41591
11
1.59094
21
1.40409
0
LINE
8
BLACK
6
CONTINUOUS
10
1.76417
20
1.40409
11
1.70906
21
1.40409
0
LINE
8
BLACK
6
CONTINUOUS
10
1.70906
20
1.40409
11
1.70906
21
1.41591
0
LINE
8
BLACK
6
CONTINUOUS
10
1.70906
20
1.41591
11
1.76417
21
1.41591
0
LINE
8
BLACK
6
CONTINUOUS
10
1.76417
20
1.41591
11
1.76417
21
1.40409
0
LINE
8
BLACK
6
CONTINUOUS
10
0.977467
20
1.44653
11
0.980661
21
1.4444
0
LINE
8
BLACK
6
CONTINUOUS
10
0.980661
20
1.4444
11
0.982794
21
1.44121
0
LINE
8
BLACK
6
CONTINUOUS
10
0.982794
20
1.44121
11
0.983543
21
1.43744
0
LINE
8
BLACK
6
CONTINUOUS
10
0.983543
20
1.43744
11
0.983543
21
1.41776
0
LINE
8
BLACK
6
CONTINUOUS
10
0.983543
20
1.41776
11
0.982794
21
1.41399
0
LINE
8
BLACK
6
CONTINUOUS
10
0.982794
20
1.41399
11
0.980661
21
1.4108
0
LINE
8
BLACK
6
CONTINUOUS
10
0.980661
20
1.4108
11
0.977467
21
1.40866
0
LINE
8
BLACK
6
CONTINUOUS
10
0.977467
20
1.40866
11
0.973701
21
1.40791
0
LINE
8
BLACK
6
CONTINUOUS
10
0.973701
20
1.40791
11
0.936299
21
1.40791
0
LINE
8
BLACK
6
CONTINUOUS
10
0.936299
20
1.40791
11
0.932533
21
1.40866
0
LINE
8
BLACK
6
CONTINUOUS
10
0.932533
20
1.40866
11
0.929339
21
1.4108
0
LINE
8
BLACK
6
CONTINUOUS
10
0.929339
20
1.4108
11
0.927206
21
1.41399
0
LINE
8
BLACK
6
CONTINUOUS
10
0.927206
20
1.41399
11
0.926457
21
1.41776
0
LINE
8
BLACK
6
CONTINUOUS
10
0.926457
20
1.41776
11
0.926457
21
1.43744
0
LINE
8
BLACK
6
CONTINUOUS
10
0.926457
20
1.43744
11
0.927206
21
1.44121
0
LINE
8
BLACK
6
CONTINUOUS
10
0.927206
20
1.44121
11
0.929339
21
1.4444
0
LINE
8
BLACK
6
CONTINUOUS
10
0.929339
20
1.4444
11
0.932533
21
1.44653
0
LINE
8
BLACK
6
CONTINUOUS
10
0.932533
20
1.44653
11
0.936299
21
1.44728
0
LINE
8
BLACK
6
CONTINUOUS
10
0.936299
20
1.44728
11
0.973701
21
1.44728
0
LINE
8
BLACK
6
CONTINUOUS
10
0.973701
20
1.44728
11
0.977467
21
1.44653
0
LINE
8
BLACK
6
CONTINUOUS
10
1.59094
20
1.42378
11
1.53583
21
1.42378
0
LINE
8
BLACK
6
CONTINUOUS
10
1.53583
20
1.42378
11
1.53583
21
1.43559
0
LINE
8
BLACK
6
CONTINUOUS
10
1.53583
20
1.43559
11
1.59094
21
1.43559
0
LINE
8
BLACK
6
CONTINUOUS
10
1.59094
20
1.43559
11
1.59094
21
1.42378
0
LINE
8
BLACK
6
CONTINUOUS
10
1.76417
20
1.42378
11
1.70906
21
1.42378
0
LINE
8
BLACK
6
CONTINUOUS
10
1.70906
20
1.42378
11
1.70906
21
1.43559
0
LINE
8
BLACK
6
CONTINUOUS
10
1.70906
20
1.43559
11
1.76417
21
1.43559
0
LINE
8
BLACK
6
CONTINUOUS
10
1.76417
20
1.43559
11
1.76417
21
1.42378
0
LINE
8
BLACK
6
CONTINUOUS
10
1.59094
20
1.44346
11
1.53583
21
1.44346
0
LINE
8
BLACK
6
CONTINUOUS
10
1.53583
20
1.44346
11
1.53583
21
1.45528
0
LINE
8
BLACK
6
CONTINUOUS
10
1.53583
20
1.45528
11
1.59094
21
1.45528
0
LINE
8
BLACK
6
CONTINUOUS
10
1.59094
20
1.45528
11
1.59094
21
1.44346
0
LINE
8
BLACK
6
CONTINUOUS
10
1.76417
20
1.44346
11
1.70906
21
1.44346
0
LINE
8
BLACK
6
CONTINUOUS
10
1.70906
20
1.44346
11
1.70906
21
1.45528
0
LINE
8
BLACK
6
CONTINUOUS
10
1.70906
20
1.45528
11
1.76417
21
1.45528
0
LINE
8
BLACK
6
CONTINUOUS
10
1.76417
20
1.45528
11
1.76417
21
1.44346
0
LINE
8
BLACK
6
CONTINUOUS
10
1.04576
20
1.5305
11
1.04768
21
1.52922
0
LINE
8
BLACK
6
CONTINUOUS
10
1.04768
20
1.52922
11
1.04896
21
1.5273
0
LINE
8
BLACK
6
CONTINUOUS
10
1.04896
20
1.5273
11
1.04941
21
1.52504
0
LINE
8
BLACK
6
CONTINUOUS
10
1.04941
20
1.52504
11
1.04941
21
1.47878
0
LINE
8
BLACK
6
CONTINUOUS
10
1.04941
20
1.47878
11
1.04896
21
1.47652
0
LINE
8
BLACK
6
CONTINUOUS
10
1.04896
20
1.47652
11
1.04768
21
1.4746
0
LINE
8
BLACK
6
CONTINUOUS
10
1.04768
20
1.4746
11
1.04576
21
1.47332
0
LINE
8
BLACK
6
CONTINUOUS
10
1.04576
20
1.47332
11
1.0435
21
1.47287
0
LINE
8
BLACK
6
CONTINUOUS
10
1.0435
20
1.47287
11
1.03169
21
1.47287
0
LINE
8
BLACK
6
CONTINUOUS
10
1.03169
20
1.47287
11
1.02943
21
1.47332
0
LINE
8
BLACK
6
CONTINUOUS
10
1.02943
20
1.47332
11
1.02752
21
1.4746
0
LINE
8
BLACK
6
CONTINUOUS
10
1.02752
20
1.4746
11
1.02624
21
1.47652
0
LINE
8
BLACK
6
CONTINUOUS
10
1.02624
20
1.47652
11
1.02579
21
1.47878
0
LINE
8
BLACK
6
CONTINUOUS
10
1.02579
20
1.47878
11
1.02579
21
1.52504
0
LINE
8
BLACK
6
CONTINUOUS
10
1.02579
20
1.52504
11
1.02624
21
1.5273
0
LINE
8
BLACK
6
CONTINUOUS
10
1.02624
20
1.5273
11
1.02752
21
1.52922
0
LINE
8
BLACK
6
CONTINUOUS
10
1.02752
20
1.52922
11
1.02943
21
1.5305
0
LINE
8
BLACK
6
CONTINUOUS
10
1.02943
20
1.5305
11
1.03169
21
1.53094
0
LINE
8
BLACK
6
CONTINUOUS
10
1.03169
20
1.53094
11
1.0435
21
1.53094
0
LINE
8
BLACK
6
CONTINUOUS
10
1.0435
20
1.53094
11
1.04576
21
1.5305
0
LINE
8
BLACK
6
CONTINUOUS
10
1.12057
20
1.5305
11
1.12248
21
1.52922
0
LINE
8
BLACK
6
CONTINUOUS
10
1.12248
20
1.52922
11
1.12376
21
1.5273
0
LINE
8
BLACK
6
CONTINUOUS
10
1.12376
20
1.5273
11
1.12421
21
1.52504
0
LINE
8
BLACK
6
CONTINUOUS
10
1.12421
20
1.52504
11
1.12421
21
1.47878
0
LINE
8
BLACK
6
CONTINUOUS
10
1.12421
20
1.47878
11
1.12376
21
1.47652
0
LINE
8
BLACK
6
CONTINUOUS
10
1.12376
20
1.47652
11
1.12248
21
1.4746
0
LINE
8
BLACK
6
CONTINUOUS
10
1.12248
20
1.4746
11
1.12057
21
1.47332
0
LINE
8
BLACK
6
CONTINUOUS
10
1.12057
20
1.47332
11
1.11831
21
1.47287
0
LINE
8
BLACK
6
CONTINUOUS
10
1.11831
20
1.47287
11
1.1065
21
1.47287
0
LINE
8
BLACK
6
CONTINUOUS
10
1.1065
20
1.47287
11
1.10424
21
1.47332
0
LINE
8
BLACK
6
CONTINUOUS
10
1.10424
20
1.47332
11
1.10232
21
1.4746
0
LINE
8
BLACK
6
CONTINUOUS
10
1.10232
20
1.4746
11
1.10104
21
1.47652
0
LINE
8
BLACK
6
CONTINUOUS
10
1.10104
20
1.47652
11
1.10059
21
1.47878
0
LINE
8
BLACK
6
CONTINUOUS
10
1.10059
20
1.47878
11
1.10059
21
1.52504
0
LINE
8
BLACK
6
CONTINUOUS
10
1.10059
20
1.52504
11
1.10104
21
1.5273
0
LINE
8
BLACK
6
CONTINUOUS
10
1.10104
20
1.5273
11
1.10232
21
1.52922
0
LINE
8
BLACK
6
CONTINUOUS
10
1.10232
20
1.52922
11
1.10424
21
1.5305
0
LINE
8
BLACK
6
CONTINUOUS
10
1.10424
20
1.5305
11
1.1065
21
1.53094
0
LINE
8
BLACK
6
CONTINUOUS
10
1.1065
20
1.53094
11
1.11831
21
1.53094
0
LINE
8
BLACK
6
CONTINUOUS
10
1.11831
20
1.53094
11
1.12057
21
1.5305
0
LINE
8
BLACK
6
CONTINUOUS
10
0.42051
20
1.71632
11
0.433874
21
1.71315
0
LINE
8
BLACK
6
CONTINUOUS
10
0.433874
20
1.71315
11
0.446781
21
1.70845
0
LINE
8
BLACK
6
CONTINUOUS
10
0.446781
20
1.70845
11
0.459055
21
1.70229
0
LINE
8
BLACK
6
CONTINUOUS
10
0.459055
20
1.70229
11
0.470531
21
1.69474
0
LINE
8
BLACK
6
CONTINUOUS
10
0.470531
20
1.69474
11
0.481052
21
1.68591
0
LINE
8
BLACK
6
CONTINUOUS
10
0.481052
20
1.68591
11
0.490478
21
1.67592
0
LINE
8
BLACK
6
CONTINUOUS
10
0.490478
20
1.67592
11
0.49868
21
1.6649
0
LINE
8
BLACK
6
CONTINUOUS
10
0.49868
20
1.6649
11
0.505547
21
1.65301
0
LINE
8
BLACK
6
CONTINUOUS
10
0.505547
20
1.65301
11
0.510987
21
1.6404
0
LINE
8
BLACK
6
CONTINUOUS
10
0.510987
20
1.6404
11
0.514927
21
1.62724
0
LINE
8
BLACK
6
CONTINUOUS
10
0.514927
20
1.62724
11
0.517312
21
1.61371
0
LINE
8
BLACK
6
CONTINUOUS
10
0.517312
20
1.61371
11
0.51811
21
1.6
0
LINE
8
BLACK
6
CONTINUOUS
10
0.51811
20
1.6
11
0.517312
21
1.58629
0
LINE
8
BLACK
6
CONTINUOUS
10
0.517312
20
1.58629
11
0.514927
21
1.57276
0
LINE
8
BLACK
6
CONTINUOUS
10
0.514927
20
1.57276
11
0.510987
21
1.5596
0
LINE
8
BLACK
6
CONTINUOUS
10
0.510987
20
1.5596
11
0.505547
21
1.54699
0
LINE
8
BLACK
6
CONTINUOUS
10
0.505547
20
1.54699
11
0.49868
21
1.5351
0
LINE
8
BLACK
6
CONTINUOUS
10
0.49868
20
1.5351
11
0.490478
21
1.52408
0
LINE
8
BLACK
6
CONTINUOUS
10
0.490478
20
1.52408
11
0.481052
21
1.51409
0
LINE
8
BLACK
6
CONTINUOUS
10
0.481052
20
1.51409
11
0.470531
21
1.50526
0
LINE
8
BLACK
6
CONTINUOUS
10
0.470531
20
1.50526
11
0.459055
21
1.49771
0
LINE
8
BLACK
6
CONTINUOUS
10
0.459055
20
1.49771
11
0.446781
21
1.49155
0
LINE
8
BLACK
6
CONTINUOUS
10
0.446781
20
1.49155
11
0.433874
21
1.48685
0
LINE
8
BLACK
6
CONTINUOUS
10
0.433874
20
1.48685
11
0.42051
21
1.48368
0
LINE
8
BLACK
6
CONTINUOUS
10
0.42051
20
1.48368
11
0.406867
21
1.48209
0
LINE
8
BLACK
6
CONTINUOUS
10
0.406867
20
1.48209
11
0.393133
21
1.48209
0
LINE
8
BLACK
6
CONTINUOUS
10
0.393133
20
1.48209
11
0.37949
21
1.48368
0
LINE
8
BLACK
6
CONTINUOUS
10
0.37949
20
1.48368
11
0.366126
21
1.48685
0
LINE
8
BLACK
6
CONTINUOUS
10
0.366126
20
1.48685
11
0.353219
21
1.49155
0
LINE
8
BLACK
6
CONTINUOUS
10
0.353219
20
1.49155
11
0.340945
21
1.49771
0
LINE
8
BLACK
6
CONTINUOUS
10
0.340945
20
1.49771
11
0.329469
21
1.50526
0
LINE
8
BLACK
6
CONTINUOUS
10
0.329469
20
1.50526
11
0.318948
21
1.51409
0
LINE
8
BLACK
6
CONTINUOUS
10
0.318948
20
1.51409
11
0.309522
21
1.52408
0
LINE
8
BLACK
6
CONTINUOUS
10
0.309522
20
1.52408
11
0.30132
21
1.5351
0
LINE
8
BLACK
6
CONTINUOUS
10
0.30132
20
1.5351
11
0.294453
21
1.54699
0
LINE
8
BLACK
6
CONTINUOUS
10
0.294453
20
1.54699
11
0.289013
21
1.5596
0
LINE
8
BLACK
6
CONTINUOUS
10
0.289013
20
1.5596
11
0.285073
21
1.57276
0
LINE
8
BLACK
6
CONTINUOUS
10
0.285073
20
1.57276
11
0.282688
21
1.58629
0
LINE
8
BLACK
6
CONTINUOUS
10
0.282688
20
1.58629
11
0.28189
21
1.6
0
LINE
8
BLACK
6
CONTINUOUS
10
0.28189
20
1.6
11
0.282688
21
1.61371
0
LINE
8
BLACK
6
CONTINUOUS
10
0.282688
20
1.61371
11
0.285073
21
1.62724
0
LINE
8
BLACK
6
CONTINUOUS
10
0.285073
20
1.62724
11
0.289013
21
1.6404
0
LINE
8
BLACK
6
CONTINUOUS
10
0.289013
20
1.6404
11
0.294453
21
1.65301
0
LINE
8
BLACK
6
CONTINUOUS
10
0.294453
20
1.65301
11
0.30132
21
1.6649
0
LINE
8
BLACK
6
CONTINUOUS
10
0.30132
20
1.6649
11
0.309522
21
1.67592
0
LINE
8
BLACK
6
CONTINUOUS
10
0.309522
20
1.67592
11
0.318948
21
1.68591
0
LINE
8
BLACK
6
CONTINUOUS
10
0.318948
20
1.68591
11
0.329469
21
1.69474
0
LINE
8
BLACK
6
CONTINUOUS
10
0.329469
20
1.69474
11
0.340945
21
1.70229
0
LINE
8
BLACK
6
CONTINUOUS
10
0.340945
20
1.70229
11
0.353219
21
1.70845
0
LINE
8
BLACK
6
CONTINUOUS
10
0.353219
20
1.70845
11
0.366126
21
1.71315
0
LINE
8
BLACK
6
CONTINUOUS
10
0.366126
20
1.71315
11
0.37949
21
1.71632
0
LINE
8
BLACK
6
CONTINUOUS
10
0.37949
20
1.71632
11
0.393133
21
1.71791
0
LINE
8
BLACK
6
CONTINUOUS
10
0.393133
20
1.71791
11
0.406867
21
1.71791
0
LINE
8
BLACK
6
CONTINUOUS
10
0.406867
20
1.71791
11
0.42051
21
1.71632
0
LINE
8
BLACK
6
CONTINUOUS
10
2.42051
20
1.71632
11
2.43387
21
1.71315
0
LINE
8
BLACK
6
CONTINUOUS
10
2.43387
20
1.71315
11
2.44678
21
1.70845
0
LINE
8
BLACK
6
CONTINUOUS
10
2.44678
20
1.70845
11
2.45906
21
1.70229
0
LINE
8
BLACK
6
CONTINUOUS
10
2.45906
20
1.70229
11
2.47053
21
1.69474
0
LINE
8
BLACK
6
CONTINUOUS
10
2.47053
20
1.69474
11
2.48105
21
1.68591
0
LINE
8
BLACK
6
CONTINUOUS
10
2.48105
20
1.68591
11
2.49048
21
1.67592
0
LINE
8
BLACK
6
CONTINUOUS
10
2.49048
20
1.67592
11
2.49868
21
1.6649
0
LINE
8
BLACK
6
CONTINUOUS
10
2.49868
20
1.6649
11
2.50555
21
1.65301
0
LINE
8
BLACK
6
CONTINUOUS
10
2.50555
20
1.65301
11
2.51099
21
1.6404
0
LINE
8
BLACK
6
CONTINUOUS
10
2.51099
20
1.6404
11
2.51493
21
1.62724
0
LINE
8
BLACK
6
CONTINUOUS
10
2.51493
20
1.62724
11
2.51731
21
1.61371
0
LINE
8
BLACK
6
CONTINUOUS
10
2.51731
20
1.61371
11
2.51811
21
1.6
0
LINE
8
BLACK
6
CONTINUOUS
10
2.51811
20
1.6
11
2.51731
21
1.58629
0
LINE
8
BLACK
6
CONTINUOUS
10
2.51731
20
1.58629
11
2.51493
21
1.57276
0
LINE
8
BLACK
6
CONTINUOUS
10
2.51493
20
1.57276
11
2.51099
21
1.5596
0
LINE
8
BLACK
6
CONTINUOUS
10
2.51099
20
1.5596
11
2.50555
21
1.54699
0
LINE
8
BLACK
6
CONTINUOUS
10
2.50555
20
1.54699
11
2.49868
21
1.5351
0
LINE
8
BLACK
6
CONTINUOUS
10
2.49868
20
1.5351
11
2.49048
21
1.52408
0
LINE
8
BLACK
6
CONTINUOUS
10
2.49048
20
1.52408
11
2.48105
21
1.51409
0
LINE
8
BLACK
6
CONTINUOUS
10
2.48105
20
1.51409
11
2.47053
21
1.50526
0
LINE
8
BLACK
6
CONTINUOUS
10
2.47053
20
1.50526
11
2.45906
21
1.49771
0
LINE
8
BLACK
6
CONTINUOUS
10
2.45906
20
1.49771
11
2.44678
21
1.49155
0
LINE
8
BLACK
6
CONTINUOUS
10
2.44678
20
1.49155
11
2.43387
21
1.48685
0
LINE
8
BLACK
6
CONTINUOUS
10
2.43387
20
1.48685
11
2.42051
21
1.48368
0
LINE
8
BLACK
6
CONTINUOUS
10
2.42051
20
1.48368
11
2.40687
21
1.48209
0
LINE
8
BLACK
6
CONTINUOUS
10
2.40687
20
1.48209
11
2.39313
21
1.48209
0
LINE
8
BLACK
6
CONTINUOUS
10
2.39313
20
1.48209
11
2.37949
21
1.48368
0
LINE
8
BLACK
6
CONTINUOUS
10
2.37949
20
1.48368
11
2.36613
21
1.48685
0
LINE
8
BLACK
6
CONTINUOUS
10
2.36613
20
1.48685
11
2.35322
21
1.49155
0
LINE
8
BLACK
6
CONTINUOUS
10
2.35322
20
1.49155
11
2.34094
21
1.49771
0
LINE
8
BLACK
6
CONTINUOUS
10
2.34094
20
1.49771
11
2.32947
21
1.50526
0
LINE
8
BLACK
6
CONTINUOUS
10
2.32947
20
1.50526
11
2.31895
21
1.51409
0
LINE
8
BLACK
6
CONTINUOUS
10
2.31895
20
1.51409
11
2.30952
21
1.52408
0
LINE
8
BLACK
6
CONTINUOUS
10
2.30952
20
1.52408
11
2.30132
21
1.5351
0
LINE
8
BLACK
6
CONTINUOUS
10
2.30132
20
1.5351
11
2.29445
21
1.54699
0
LINE
8
BLACK
6
CONTINUOUS
10
2.29445
20
1.54699
11
2.28901
21
1.5596
0
LINE
8
BLACK
6
CONTINUOUS
10
2.28901
20
1.5596
11
2.28507
21
1.57276
0
LINE
8
BLACK
6
CONTINUOUS
10
2.28507
20
1.57276
11
2.28269
21
1.58629
0
LINE
8
BLACK
6
CONTINUOUS
10
2.28269
20
1.58629
11
2.28189
21
1.6
0
LINE
8
BLACK
6
CONTINUOUS
10
2.28189
20
1.6
11
2.28269
21
1.61371
0
LINE
8
BLACK
6
CONTINUOUS
10
2.28269
20
1.61371
11
2.28507
21
1.62724
0
LINE
8
BLACK
6
CONTINUOUS
10
2.28507
20
1.62724
11
2.28901
21
1.6404
0
LINE
8
BLACK
6
CONTINUOUS
10
2.28901
20
1.6404
11
2.29445
21
1.65301
0
LINE
8
BLACK
6
CONTINUOUS
10
2.29445
20
1.65301
11
2.30132
21
1.6649
0
LINE
8
BLACK
6
CONTINUOUS
10
2.30132
20
1.6649
11
2.30952
21
1.67592
0
LINE
8
BLACK
6
CONTINUOUS
10
2.30952
20
1.67592
11
2.31895
21
1.68591
0
LINE
8
BLACK
6
CONTINUOUS
10
2.31895
20
1.68591
11
2.32947
21
1.69474
0
LINE
8
BLACK
6
CONTINUOUS
10
2.32947
20
1.69474
11
2.34094
21
1.70229
0
LINE
8
BLACK
6
CONTINUOUS
10
2.34094
20
1.70229
11
2.35322
21
1.70845
0
LINE
8
BLACK
6
CONTINUOUS
10
2.35322
20
1.70845
11
2.36613
21
1.71315
0
LINE
8
BLACK
6
CONTINUOUS
10
2.36613
20
1.71315
11
2.37949
21
1.71632
0
LINE
8
BLACK
6
CONTINUOUS
10
2.37949
20
1.71632
11
2.39313
21
1.71791
0
LINE
8
BLACK
6
CONTINUOUS
10
2.39313
20
1.71791
11
2.40687
21
1.71791
0
LINE
8
BLACK
6
CONTINUOUS
10
2.40687
20
1.71791
11
2.42051
21
1.71632
0
LINE
8
BLACK
6
CONTINUOUS
10
0.977467
20
1.52134
11
0.980661
21
1.5192
0
LINE
8
BLACK
6
CONTINUOUS
10
0.980661
20
1.5192
11
0.982794
21
1.51601
0
LINE
8
BLACK
6
CONTINUOUS
10
0.982794
20
1.51601
11
0.983543
21
1.51224
0
LINE
8
BLACK
6
CONTINUOUS
10
0.983543
20
1.51224
11
0.983543
21
1.49256
0
LINE
8
BLACK
6
CONTINUOUS
10
0.983543
20
1.49256
11
0.982794
21
1.48879
0
LINE
8
BLACK
6
CONTINUOUS
10
0.982794
20
1.48879
11
0.980661
21
1.4856
0
LINE
8
BLACK
6
CONTINUOUS
10
0.980661
20
1.4856
11
0.977467
21
1.48347
0
LINE
8
BLACK
6
CONTINUOUS
10
0.977467
20
1.48347
11
0.973701
21
1.48272
0
LINE
8
BLACK
6
CONTINUOUS
10
0.973701
20
1.48272
11
0.936299
21
1.48272
0
LINE
8
BLACK
6
CONTINUOUS
10
0.936299
20
1.48272
11
0.932533
21
1.48347
0
LINE
8
BLACK
6
CONTINUOUS
10
0.932533
20
1.48347
11
0.929339
21
1.4856
0
LINE
8
BLACK
6
CONTINUOUS
10
0.929339
20
1.4856
11
0.927206
21
1.48879
0
LINE
8
BLACK
6
CONTINUOUS
10
0.927206
20
1.48879
11
0.926457
21
1.49256
0
LINE
8
BLACK
6
CONTINUOUS
10
0.926457
20
1.49256
11
0.926457
21
1.51224
0
LINE
8
BLACK
6
CONTINUOUS
10
0.926457
20
1.51224
11
0.927206
21
1.51601
0
LINE
8
BLACK
6
CONTINUOUS
10
0.927206
20
1.51601
11
0.929339
21
1.5192
0
LINE
8
BLACK
6
CONTINUOUS
10
0.929339
20
1.5192
11
0.932533
21
1.52134
0
LINE
8
BLACK
6
CONTINUOUS
10
0.932533
20
1.52134
11
0.936299
21
1.52209
0
LINE
8
BLACK
6
CONTINUOUS
10
0.936299
20
1.52209
11
0.973701
21
1.52209
0
LINE
8
BLACK
6
CONTINUOUS
10
0.973701
20
1.52209
11
0.977467
21
1.52134
0
LINE
8
BLACK
6
CONTINUOUS
10
0.793701
20
1.51575
11
0.754331
21
1.51575
0
LINE
8
BLACK
6
CONTINUOUS
10
0.754331
20
1.51575
11
0.754331
21
1.6063
0
LINE
8
BLACK
6
CONTINUOUS
10
0.754331
20
1.6063
11
0.754331
21
1.64567
0
LINE
8
BLACK
6
CONTINUOUS
10
0.754331
20
1.64567
11
0.793701
21
1.64567
0
LINE
8
BLACK
6
CONTINUOUS
10
0.793701
20
1.64567
11
0.884252
21
1.64567
0
LINE
8
BLACK
6
CONTINUOUS
10
0.884252
20
1.64567
11
0.884252
21
1.6063
0
LINE
8
BLACK
6
CONTINUOUS
10
0.884252
20
1.6063
11
0.793701
21
1.6063
0
LINE
8
BLACK
6
CONTINUOUS
10
0.793701
20
1.6063
11
0.793701
21
1.51575
0
LINE
8
BLACK
6
CONTINUOUS
10
2.04567
20
1.51575
11
2.0063
21
1.51575
0
LINE
8
BLACK
6
CONTINUOUS
10
2.0063
20
1.51575
11
2.0063
21
1.6063
0
LINE
8
BLACK
6
CONTINUOUS
10
2.0063
20
1.6063
11
1.91575
21
1.6063
0
LINE
8
BLACK
6
CONTINUOUS
10
1.91575
20
1.6063
11
1.91575
21
1.64567
0
LINE
8
BLACK
6
CONTINUOUS
10
1.91575
20
1.64567
11
2.0063
21
1.64567
0
LINE
8
BLACK
6
CONTINUOUS
10
2.0063
20
1.64567
11
2.04567
21
1.64567
0
LINE
8
BLACK
6
CONTINUOUS
10
2.04567
20
1.64567
11
2.04567
21
1.6063
0
LINE
8
BLACK
6
CONTINUOUS
10
2.04567
20
1.6063
11
2.04567
21
1.51575
0
LINE
8
BLACK
6
CONTINUOUS
10
1.12047
20
1.6063
11
0.970866
21
1.6063
0
LINE
8
BLACK
6
CONTINUOUS
10
0.970866
20
1.6063
11
0.970866
21
1.64567
0
LINE
8
BLACK
6
CONTINUOUS
10
0.970866
20
1.64567
11
1.12047
21
1.64567
0
LINE
8
BLACK
6
CONTINUOUS
10
1.12047
20
1.64567
11
1.12047
21
1.6063
0
LINE
8
BLACK
6
CONTINUOUS
10
1.35669
20
1.6063
11
1.20709
21
1.6063
0
LINE
8
BLACK
6
CONTINUOUS
10
1.20709
20
1.6063
11
1.20709
21
1.64567
0
LINE
8
BLACK
6
CONTINUOUS
10
1.20709
20
1.64567
11
1.35669
21
1.64567
0
LINE
8
BLACK
6
CONTINUOUS
10
1.35669
20
1.64567
11
1.35669
21
1.6063
0
LINE
8
BLACK
6
CONTINUOUS
10
1.59291
20
1.6063
11
1.44331
21
1.6063
0
LINE
8
BLACK
6
CONTINUOUS
10
1.44331
20
1.6063
11
1.44331
21
1.64567
0
LINE
8
BLACK
6
CONTINUOUS
10
1.44331
20
1.64567
11
1.59291
21
1.64567
0
LINE
8
BLACK
6
CONTINUOUS
10
1.59291
20
1.64567
11
1.59291
21
1.6063
0
LINE
8
BLACK
6
CONTINUOUS
10
1.82913
20
1.6063
11
1.67953
21
1.6063
0
LINE
8
BLACK
6
CONTINUOUS
10
1.67953
20
1.6063
11
1.67953
21
1.64567
0
LINE
8
BLACK
6
CONTINUOUS
10
1.67953
20
1.64567
11
1.82913
21
1.64567
0
LINE
8
BLACK
6
CONTINUOUS
10
1.82913
20
1.64567
11
1.82913
21
1.6063
0
LINE
8
BLACK
6
CONTINUOUS
10
2.18768
20
1.75121
11
2.19507
21
1.74897
0
LINE
8
BLACK
6
CONTINUOUS
10
2.19507
20
1.74897
11
2.20187
21
1.74533
0
LINE
8
BLACK
6
CONTINUOUS
10
2.20187
20
1.74533
11
2.20784
21
1.74044
0
LINE
8
BLACK
6
CONTINUOUS
10
2.20784
20
1.74044
11
2.21274
21
1.73447
0
LINE
8
BLACK
6
CONTINUOUS
10
2.21274
20
1.73447
11
2.21637
21
1.72766
0
LINE
8
BLACK
6
CONTINUOUS
10
2.21637
20
1.72766
11
2.21861
21
1.72028
0
LINE
8
BLACK
6
CONTINUOUS
10
2.21861
20
1.72028
11
2.21937
21
1.7126
0
LINE
8
BLACK
6
CONTINUOUS
10
2.21937
20
1.7126
11
2.21861
21
1.70492
0
LINE
8
BLACK
6
CONTINUOUS
10
2.21861
20
1.70492
11
2.21637
21
1.69753
0
LINE
8
BLACK
6
CONTINUOUS
10
2.21637
20
1.69753
11
2.21274
21
1.69073
0
LINE
8
BLACK
6
CONTINUOUS
10
2.21274
20
1.69073
11
2.20784
21
1.68476
0
LINE
8
BLACK
6
CONTINUOUS
10
2.20784
20
1.68476
11
2.20187
21
1.67986
0
LINE
8
BLACK
6
CONTINUOUS
10
2.20187
20
1.67986
11
2.19507
21
1.67623
0
LINE
8
BLACK
6
CONTINUOUS
10
2.19507
20
1.67623
11
2.18768
21
1.67398
0
LINE
8
BLACK
6
CONTINUOUS
10
2.18768
20
1.67398
11
2.18
21
1.67323
0
LINE
8
BLACK
6
CONTINUOUS
10
2.18
20
1.67323
11
2.17232
21
1.67398
0
LINE
8
BLACK
6
CONTINUOUS
10
2.17232
20
1.67398
11
2.16493
21
1.67623
0
LINE
8
BLACK
6
CONTINUOUS
10
2.16493
20
1.67623
11
2.15813
21
1.67986
0
LINE
8
BLACK
6
CONTINUOUS
10
2.15813
20
1.67986
11
2.15216
21
1.68476
0
LINE
8
BLACK
6
CONTINUOUS
10
2.15216
20
1.68476
11
2.14726
21
1.69073
0
LINE
8
BLACK
6
CONTINUOUS
10
2.14726
20
1.69073
11
2.14363
21
1.69753
0
LINE
8
BLACK
6
CONTINUOUS
10
2.14363
20
1.69753
11
2.14139
21
1.70492
0
LINE
8
BLACK
6
CONTINUOUS
10
2.14139
20
1.70492
11
2.14063
21
1.7126
0
LINE
8
BLACK
6
CONTINUOUS
10
2.14063
20
1.7126
11
2.14139
21
1.72028
0
LINE
8
BLACK
6
CONTINUOUS
10
2.14139
20
1.72028
11
2.14363
21
1.72766
0
LINE
8
BLACK
6
CONTINUOUS
10
2.14363
20
1.72766
11
2.14726
21
1.73447
0
LINE
8
BLACK
6
CONTINUOUS
10
2.14726
20
1.73447
11
2.15216
21
1.74044
0
LINE
8
BLACK
6
CONTINUOUS
10
2.15216
20
1.74044
11
2.15813
21
1.74533
0
LINE
8
BLACK
6
CONTINUOUS
10
2.15813
20
1.74533
11
2.16493
21
1.74897
0
LINE
8
BLACK
6
CONTINUOUS
10
2.16493
20
1.74897
11
2.17232
21
1.75121
0
LINE
8
BLACK
6
CONTINUOUS
10
2.17232
20
1.75121
11
2.18
21
1.75197
0
LINE
8
BLACK
6
CONTINUOUS
10
2.18
20
1.75197
11
2.18768
21
1.75121
  0
ENDSEC
  0
EOF
