  0
SECTION
  2
HEADER
  9
$ANGBASE
  50
0.0
  9
$ANGDIR
  70
1
  9
$MEASUREMENT
  70
0
  0
ENDSEC
  0
SECTION
  2
TABLES
  0
TABLE
  2
LTYPE
  70
4
  0
LTYPE
  5
40F
  2
CONTINUOUS
  70
0
  3
Solid line
  72
65
  73
0
  40
0.0
  0
LTYPE
  5
410
  2
DASHDOT
 70
0
  3
Dash Dot ____ _ ____ _
 72
65
 73
4
 40
2.0
 49
1.25
 49
-0.25
 49
0.25
 49
-0.25
  0
LTYPE
  5
411
  2
DASHED
 70
0
  3
Dashed __ __ __ __ __
 72
65
 73
2
 40
0.75
 49
0.5
 49
-0.25
  0
LTYPE
  5
43B
  2
DOTTED
 70
0
  3
Dotted .  .  .  .
 72
65
 73
2
 40
0.2
 49
0.0
 49
-0.2
  0
ENDTAB
  0
TABLE
  2
STYLE
  70
4
  0
STYLE
  2
KICAD
  70
0
  40
0
  41
1
  42
1
  50
0
  71
0
  3
isocp.shx
  0
STYLE
  2
KICADB
  70
0
  40
0
  41
1
  42
1
  50
0
  71
0
  3
isocp.shx
  0
STYLE
  2
KICADI
  70
0
  40
0
  41
1
  42
1
  50
15
  71
0
  3
isocp.shx
  0
STYLE
  2
KICADBI
  70
0
  40
0
  41
1
  42
1
  50
15
  71
0
  3
isocp.shx
  0
ENDTAB
  0
TABLE
  2
LAYER
  70
1
  0
LAYER
  2
BLACK
  70
0
  62
7
  6
CONTINUOUS
  0
ENDTAB
  0
ENDSEC
  0
SECTION
  2
ENTITIES
0
LINE
8
BLACK
6
CONTINUOUS
10
1.02
20
0.538858
11
1.36
21
0.538858
0
LINE
8
BLACK
6
CONTINUOUS
10
1.36
20
0.538858
11
1.36184
21
0.538665
0
LINE
8
BLACK
6
CONTINUOUS
10
1.36184
20
0.538665
11
1.36248
21
0.53838
0
LINE
8
BLACK
6
CONTINUOUS
10
1.36248
20
0.53838
11
1.36317
21
0.53827
0
LINE
8
BLACK
6
CONTINUOUS
10
1.36317
20
0.53827
11
1.36415
21
0.537638
0
LINE
8
BLACK
6
CONTINUOUS
10
1.36415
20
0.537638
11
1.36521
21
0.537166
0
LINE
8
BLACK
6
CONTINUOUS
10
1.36521
20
0.537166
11
1.36568
21
0.536646
0
LINE
8
BLACK
6
CONTINUOUS
10
1.36568
20
0.536646
11
1.36626
21
0.536264
0
LINE
8
BLACK
6
CONTINUOUS
10
1.36626
20
0.536264
11
1.37722
21
0.525308
0
LINE
8
BLACK
6
CONTINUOUS
10
1.37722
20
0.525308
11
1.38
21
0.525748
0
LINE
8
BLACK
6
CONTINUOUS
10
1.38
20
0.525748
11
1.38487
21
0.524977
0
LINE
8
BLACK
6
CONTINUOUS
10
1.38487
20
0.524977
11
1.38926
21
0.52274
0
LINE
8
BLACK
6
CONTINUOUS
10
1.38926
20
0.52274
11
1.39274
21
0.519256
0
LINE
8
BLACK
6
CONTINUOUS
10
1.39274
20
0.519256
11
1.39498
21
0.514866
0
LINE
8
BLACK
6
CONTINUOUS
10
1.39498
20
0.514866
11
1.39575
21
0.51
0
LINE
8
BLACK
6
CONTINUOUS
10
1.39575
20
0.51
11
1.39498
21
0.505134
0
LINE
8
BLACK
6
CONTINUOUS
10
1.39498
20
0.505134
11
1.39274
21
0.500744
0
LINE
8
BLACK
6
CONTINUOUS
10
1.39274
20
0.500744
11
1.38926
21
0.49726
0
LINE
8
BLACK
6
CONTINUOUS
10
1.38926
20
0.49726
11
1.38487
21
0.495023
0
LINE
8
BLACK
6
CONTINUOUS
10
1.38487
20
0.495023
11
1.38
21
0.494252
0
LINE
8
BLACK
6
CONTINUOUS
10
1.38
20
0.494252
11
1.37513
21
0.495023
0
LINE
8
BLACK
6
CONTINUOUS
10
1.37513
20
0.495023
11
1.37074
21
0.49726
0
LINE
8
BLACK
6
CONTINUOUS
10
1.37074
20
0.49726
11
1.36726
21
0.500744
0
LINE
8
BLACK
6
CONTINUOUS
10
1.36726
20
0.500744
11
1.36502
21
0.505134
0
LINE
8
BLACK
6
CONTINUOUS
10
1.36502
20
0.505134
11
1.36425
21
0.51
0
LINE
8
BLACK
6
CONTINUOUS
10
1.36425
20
0.51
11
1.36469
21
0.51278
0
LINE
8
BLACK
6
CONTINUOUS
10
1.36469
20
0.51278
11
1.35633
21
0.521142
0
LINE
8
BLACK
6
CONTINUOUS
10
1.35633
20
0.521142
11
1.02
21
0.521142
0
LINE
8
BLACK
6
CONTINUOUS
10
1.02
20
0.521142
11
1.02
21
0.5
0
LINE
8
BLACK
6
CONTINUOUS
10
1.02
20
0.5
11
0.96
21
0.5
0
LINE
8
BLACK
6
CONTINUOUS
10
0.96
20
0.5
11
0.96
21
0.56
0
LINE
8
BLACK
6
CONTINUOUS
10
0.96
20
0.56
11
1.02
21
0.56
0
LINE
8
BLACK
6
CONTINUOUS
10
1.02
20
0.56
11
1.02
21
0.538858
0
LINE
8
BLACK
6
CONTINUOUS
10
0.92
20
0.5
11
0.86
21
0.5
0
LINE
8
BLACK
6
CONTINUOUS
10
0.86
20
0.5
11
0.86
21
0.56
0
LINE
8
BLACK
6
CONTINUOUS
10
0.86
20
0.56
11
0.92
21
0.56
0
LINE
8
BLACK
6
CONTINUOUS
10
0.92
20
0.56
11
0.92
21
0.5
0
LINE
8
BLACK
6
CONTINUOUS
10
0.92
20
0.6
11
0.86
21
0.6
0
LINE
8
BLACK
6
CONTINUOUS
10
0.86
20
0.6
11
0.86
21
0.66
0
LINE
8
BLACK
6
CONTINUOUS
10
0.86
20
0.66
11
0.92
21
0.66
0
LINE
8
BLACK
6
CONTINUOUS
10
0.92
20
0.66
11
0.92
21
0.6
0
LINE
8
BLACK
6
CONTINUOUS
10
1.02
20
0.6
11
0.96
21
0.6
0
LINE
8
BLACK
6
CONTINUOUS
10
0.96
20
0.6
11
0.96
21
0.66
0
LINE
8
BLACK
6
CONTINUOUS
10
0.96
20
0.66
11
1.02
21
0.66
0
LINE
8
BLACK
6
CONTINUOUS
10
1.02
20
0.66
11
1.02
21
0.6
0
LINE
8
BLACK
6
CONTINUOUS
10
0.894866
20
1.51498
11
0.899256
21
1.51274
0
LINE
8
BLACK
6
CONTINUOUS
10
0.899256
20
1.51274
11
0.90274
21
1.50926
0
LINE
8
BLACK
6
CONTINUOUS
10
0.90274
20
1.50926
11
0.904977
21
1.50487
0
LINE
8
BLACK
6
CONTINUOUS
10
0.904977
20
1.50487
11
0.905044
21
1.50444
0
LINE
8
BLACK
6
CONTINUOUS
10
0.905044
20
1.50444
11
1.32071
21
1.08878
0
LINE
8
BLACK
6
CONTINUOUS
10
1.32071
20
1.08878
11
1.46778
21
1.08878
0
LINE
8
BLACK
6
CONTINUOUS
10
1.46778
20
1.08878
11
1.47013
21
1.08998
0
LINE
8
BLACK
6
CONTINUOUS
10
1.47013
20
1.08998
11
1.475
21
1.09075
0
LINE
8
BLACK
6
CONTINUOUS
10
1.475
20
1.09075
11
1.47987
21
1.08998
0
LINE
8
BLACK
6
CONTINUOUS
10
1.47987
20
1.08998
11
1.48426
21
1.08774
0
LINE
8
BLACK
6
CONTINUOUS
10
1.48426
20
1.08774
11
1.48774
21
1.08426
0
LINE
8
BLACK
6
CONTINUOUS
10
1.48774
20
1.08426
11
1.48998
21
1.07987
0
LINE
8
BLACK
6
CONTINUOUS
10
1.48998
20
1.07987
11
1.49004
21
1.07944
0
LINE
8
BLACK
6
CONTINUOUS
10
1.49004
20
1.07944
11
1.53571
21
1.03378
0
LINE
8
BLACK
6
CONTINUOUS
10
1.53571
20
1.03378
11
1.76778
21
1.03378
0
LINE
8
BLACK
6
CONTINUOUS
10
1.76778
20
1.03378
11
1.77013
21
1.03498
0
LINE
8
BLACK
6
CONTINUOUS
10
1.77013
20
1.03498
11
1.775
21
1.03575
0
LINE
8
BLACK
6
CONTINUOUS
10
1.775
20
1.03575
11
1.77987
21
1.03498
0
LINE
8
BLACK
6
CONTINUOUS
10
1.77987
20
1.03498
11
1.78222
21
1.03378
0
LINE
8
BLACK
6
CONTINUOUS
10
1.78222
20
1.03378
11
1.92234
21
1.03378
0
LINE
8
BLACK
6
CONTINUOUS
10
1.92234
20
1.03378
11
1.92234
21
1.29478
0
LINE
8
BLACK
6
CONTINUOUS
10
1.92234
20
1.29478
11
1.92114
21
1.29713
0
LINE
8
BLACK
6
CONTINUOUS
10
1.92114
20
1.29713
11
1.92037
21
1.302
0
LINE
8
BLACK
6
CONTINUOUS
10
1.92037
20
1.302
11
1.92114
21
1.30687
0
LINE
8
BLACK
6
CONTINUOUS
10
1.92114
20
1.30687
11
1.92338
21
1.31126
0
LINE
8
BLACK
6
CONTINUOUS
10
1.92338
20
1.31126
11
1.92686
21
1.31474
0
LINE
8
BLACK
6
CONTINUOUS
10
1.92686
20
1.31474
11
1.93125
21
1.31698
0
LINE
8
BLACK
6
CONTINUOUS
10
1.93125
20
1.31698
11
1.93612
21
1.31775
0
LINE
8
BLACK
6
CONTINUOUS
10
1.93612
20
1.31775
11
1.94099
21
1.31698
0
LINE
8
BLACK
6
CONTINUOUS
10
1.94099
20
1.31698
11
1.94538
21
1.31474
0
LINE
8
BLACK
6
CONTINUOUS
10
1.94538
20
1.31474
11
1.94886
21
1.31126
0
LINE
8
BLACK
6
CONTINUOUS
10
1.94886
20
1.31126
11
1.9511
21
1.30687
0
LINE
8
BLACK
6
CONTINUOUS
10
1.9511
20
1.30687
11
1.95187
21
1.302
0
LINE
8
BLACK
6
CONTINUOUS
10
1.95187
20
1.302
11
1.9511
21
1.29713
0
LINE
8
BLACK
6
CONTINUOUS
10
1.9511
20
1.29713
11
1.9499
21
1.29478
0
LINE
8
BLACK
6
CONTINUOUS
10
1.9499
20
1.29478
11
1.9499
21
1.03378
0
LINE
8
BLACK
6
CONTINUOUS
10
1.9499
20
1.03378
11
2.08
21
1.03378
0
LINE
8
BLACK
6
CONTINUOUS
10
2.08
20
1.03378
11
2.08142
21
1.03366
0
LINE
8
BLACK
6
CONTINUOUS
10
2.08142
20
1.03366
11
2.0817
21
1.03367
0
LINE
8
BLACK
6
CONTINUOUS
10
2.0817
20
1.03367
11
2.08187
21
1.03362
0
LINE
8
BLACK
6
CONTINUOUS
10
2.08187
20
1.03362
11
2.08227
21
1.03359
0
LINE
8
BLACK
6
CONTINUOUS
10
2.08227
20
1.03359
11
2.08415
21
1.03295
0
LINE
8
BLACK
6
CONTINUOUS
10
2.08415
20
1.03295
11
2.08605
21
1.03238
0
LINE
8
BLACK
6
CONTINUOUS
10
2.08605
20
1.03238
11
2.08629
21
1.03221
0
LINE
8
BLACK
6
CONTINUOUS
10
2.08629
20
1.03221
11
2.08656
21
1.03212
0
LINE
8
BLACK
6
CONTINUOUS
10
2.08656
20
1.03212
11
2.08813
21
1.0309
0
LINE
8
BLACK
6
CONTINUOUS
10
2.08813
20
1.0309
11
2.08974
21
1.02974
0
LINE
8
BLACK
6
CONTINUOUS
10
2.08974
20
1.02974
11
2.16444
21
0.955044
0
LINE
8
BLACK
6
CONTINUOUS
10
2.16444
20
0.955044
11
2.16487
21
0.954977
0
LINE
8
BLACK
6
CONTINUOUS
10
2.16487
20
0.954977
11
2.16926
21
0.95274
0
LINE
8
BLACK
6
CONTINUOUS
10
2.16926
20
0.95274
11
2.17274
21
0.949256
0
LINE
8
BLACK
6
CONTINUOUS
10
2.17274
20
0.949256
11
2.17498
21
0.944866
0
LINE
8
BLACK
6
CONTINUOUS
10
2.17498
20
0.944866
11
2.17575
21
0.94
0
LINE
8
BLACK
6
CONTINUOUS
10
2.17575
20
0.94
11
2.17498
21
0.935134
0
LINE
8
BLACK
6
CONTINUOUS
10
2.17498
20
0.935134
11
2.17274
21
0.930744
0
LINE
8
BLACK
6
CONTINUOUS
10
2.17274
20
0.930744
11
2.16926
21
0.92726
0
LINE
8
BLACK
6
CONTINUOUS
10
2.16926
20
0.92726
11
2.16487
21
0.925023
0
LINE
8
BLACK
6
CONTINUOUS
10
2.16487
20
0.925023
11
2.16
21
0.924252
0
LINE
8
BLACK
6
CONTINUOUS
10
2.16
20
0.924252
11
2.15513
21
0.925023
0
LINE
8
BLACK
6
CONTINUOUS
10
2.15513
20
0.925023
11
2.15074
21
0.92726
0
LINE
8
BLACK
6
CONTINUOUS
10
2.15074
20
0.92726
11
2.14726
21
0.930744
0
LINE
8
BLACK
6
CONTINUOUS
10
2.14726
20
0.930744
11
2.14502
21
0.935134
0
LINE
8
BLACK
6
CONTINUOUS
10
2.14502
20
0.935134
11
2.14496
21
0.935557
0
LINE
8
BLACK
6
CONTINUOUS
10
2.14496
20
0.935557
11
2.07429
21
1.00622
0
LINE
8
BLACK
6
CONTINUOUS
10
2.07429
20
1.00622
11
1.78222
21
1.00622
0
LINE
8
BLACK
6
CONTINUOUS
10
1.78222
20
1.00622
11
1.77987
21
1.00502
0
LINE
8
BLACK
6
CONTINUOUS
10
1.77987
20
1.00502
11
1.775
21
1.00425
0
LINE
8
BLACK
6
CONTINUOUS
10
1.775
20
1.00425
11
1.77013
21
1.00502
0
LINE
8
BLACK
6
CONTINUOUS
10
1.77013
20
1.00502
11
1.76778
21
1.00622
0
LINE
8
BLACK
6
CONTINUOUS
10
1.76778
20
1.00622
11
1.54378
21
1.00622
0
LINE
8
BLACK
6
CONTINUOUS
10
1.54378
20
1.00622
11
1.54378
21
0.955
0
LINE
8
BLACK
6
CONTINUOUS
10
1.54378
20
0.955
11
1.54366
21
0.953581
0
LINE
8
BLACK
6
CONTINUOUS
10
1.54366
20
0.953581
11
1.54367
21
0.953296
0
LINE
8
BLACK
6
CONTINUOUS
10
1.54367
20
0.953296
11
1.54362
21
0.953131
0
LINE
8
BLACK
6
CONTINUOUS
10
1.54362
20
0.953131
11
1.54359
21
0.952732
0
LINE
8
BLACK
6
CONTINUOUS
10
1.54359
20
0.952732
11
1.54295
21
0.950853
0
LINE
8
BLACK
6
CONTINUOUS
10
1.54295
20
0.950853
11
1.54238
21
0.948948
0
LINE
8
BLACK
6
CONTINUOUS
10
1.54238
20
0.948948
11
1.54221
21
0.948714
0
LINE
8
BLACK
6
CONTINUOUS
10
1.54221
20
0.948714
11
1.54212
21
0.948442
0
LINE
8
BLACK
6
CONTINUOUS
10
1.54212
20
0.948442
11
1.5409
21
0.946874
0
LINE
8
BLACK
6
CONTINUOUS
10
1.5409
20
0.946874
11
1.53974
21
0.945257
0
LINE
8
BLACK
6
CONTINUOUS
10
1.53974
20
0.945257
11
1.40699
21
0.8125
0
LINE
8
BLACK
6
CONTINUOUS
10
1.40699
20
0.8125
11
1.70444
21
0.515044
0
LINE
8
BLACK
6
CONTINUOUS
10
1.70444
20
0.515044
11
1.70487
21
0.514977
0
LINE
8
BLACK
6
CONTINUOUS
10
1.70487
20
0.514977
11
1.70926
21
0.51274
0
LINE
8
BLACK
6
CONTINUOUS
10
1.70926
20
0.51274
11
1.71274
21
0.509256
0
LINE
8
BLACK
6
CONTINUOUS
10
1.71274
20
0.509256
11
1.71498
21
0.504866
0
LINE
8
BLACK
6
CONTINUOUS
10
1.71498
20
0.504866
11
1.71575
21
0.5
0
LINE
8
BLACK
6
CONTINUOUS
10
1.71575
20
0.5
11
1.71498
21
0.495134
0
LINE
8
BLACK
6
CONTINUOUS
10
1.71498
20
0.495134
11
1.71274
21
0.490744
0
LINE
8
BLACK
6
CONTINUOUS
10
1.71274
20
0.490744
11
1.70926
21
0.48726
0
LINE
8
BLACK
6
CONTINUOUS
10
1.70926
20
0.48726
11
1.70487
21
0.485023
0
LINE
8
BLACK
6
CONTINUOUS
10
1.70487
20
0.485023
11
1.7
21
0.484252
0
LINE
8
BLACK
6
CONTINUOUS
10
1.7
20
0.484252
11
1.69513
21
0.485023
0
LINE
8
BLACK
6
CONTINUOUS
10
1.69513
20
0.485023
11
1.69074
21
0.48726
0
LINE
8
BLACK
6
CONTINUOUS
10
1.69074
20
0.48726
11
1.68726
21
0.490744
0
LINE
8
BLACK
6
CONTINUOUS
10
1.68726
20
0.490744
11
1.68502
21
0.495134
0
LINE
8
BLACK
6
CONTINUOUS
10
1.68502
20
0.495134
11
1.68496
21
0.495557
0
LINE
8
BLACK
6
CONTINUOUS
10
1.68496
20
0.495557
11
1.37725
21
0.803258
0
LINE
8
BLACK
6
CONTINUOUS
10
1.37725
20
0.803258
11
1.35425
21
0.803258
0
LINE
8
BLACK
6
CONTINUOUS
10
1.35425
20
0.803258
11
1.3519
21
0.80206
0
LINE
8
BLACK
6
CONTINUOUS
10
1.3519
20
0.80206
11
1.34704
21
0.801289
0
LINE
8
BLACK
6
CONTINUOUS
10
1.34704
20
0.801289
11
1.34217
21
0.80206
0
LINE
8
BLACK
6
CONTINUOUS
10
1.34217
20
0.80206
11
1.33982
21
0.803258
0
LINE
8
BLACK
6
CONTINUOUS
10
1.33982
20
0.803258
11
0.912745
21
0.803258
0
LINE
8
BLACK
6
CONTINUOUS
10
0.912745
20
0.803258
11
0.680044
21
0.570557
0
LINE
8
BLACK
6
CONTINUOUS
10
0.680044
20
0.570557
11
0.679977
21
0.570134
0
LINE
8
BLACK
6
CONTINUOUS
10
0.679977
20
0.570134
11
0.67774
21
0.565744
0
LINE
8
BLACK
6
CONTINUOUS
10
0.67774
20
0.565744
11
0.674256
21
0.56226
0
LINE
8
BLACK
6
CONTINUOUS
10
0.674256
20
0.56226
11
0.669866
21
0.560023
0
LINE
8
BLACK
6
CONTINUOUS
10
0.669866
20
0.560023
11
0.665
21
0.559252
0
LINE
8
BLACK
6
CONTINUOUS
10
0.665
20
0.559252
11
0.660133
21
0.560023
0
LINE
8
BLACK
6
CONTINUOUS
10
0.660133
20
0.560023
11
0.655743
21
0.56226
0
LINE
8
BLACK
6
CONTINUOUS
10
0.655743
20
0.56226
11
0.652259
21
0.565744
0
LINE
8
BLACK
6
CONTINUOUS
10
0.652259
20
0.565744
11
0.650022
21
0.570134
0
LINE
8
BLACK
6
CONTINUOUS
10
0.650022
20
0.570134
11
0.649252
21
0.575
0
LINE
8
BLACK
6
CONTINUOUS
10
0.649252
20
0.575
11
0.650022
21
0.579866
0
LINE
8
BLACK
6
CONTINUOUS
10
0.650022
20
0.579866
11
0.652259
21
0.584256
0
LINE
8
BLACK
6
CONTINUOUS
10
0.652259
20
0.584256
11
0.655743
21
0.58774
0
LINE
8
BLACK
6
CONTINUOUS
10
0.655743
20
0.58774
11
0.660133
21
0.589977
0
LINE
8
BLACK
6
CONTINUOUS
10
0.660133
20
0.589977
11
0.660557
21
0.590044
0
LINE
8
BLACK
6
CONTINUOUS
10
0.660557
20
0.590044
11
0.897294
21
0.826781
0
LINE
8
BLACK
6
CONTINUOUS
10
0.897294
20
0.826781
11
0.898381
21
0.827701
0
LINE
8
BLACK
6
CONTINUOUS
10
0.898381
20
0.827701
11
0.898574
21
0.827911
0
LINE
8
BLACK
6
CONTINUOUS
10
0.898574
20
0.827911
11
0.898725
21
0.827993
0
LINE
8
BLACK
6
CONTINUOUS
10
0.898725
20
0.827993
11
0.89903
21
0.828252
0
LINE
8
BLACK
6
CONTINUOUS
10
0.89903
20
0.828252
11
0.900815
21
0.829125
0
LINE
8
BLACK
6
CONTINUOUS
10
0.900815
20
0.829125
11
0.902563
21
0.83007
0
LINE
8
BLACK
6
CONTINUOUS
10
0.902563
20
0.83007
11
0.902847
21
0.830118
0
LINE
8
BLACK
6
CONTINUOUS
10
0.902847
20
0.830118
11
0.903106
21
0.830244
0
LINE
8
BLACK
6
CONTINUOUS
10
0.903106
20
0.830244
11
0.905078
21
0.83049
0
LINE
8
BLACK
6
CONTINUOUS
10
0.905078
20
0.83049
11
0.907037
21
0.830817
0
LINE
8
BLACK
6
CONTINUOUS
10
0.907037
20
0.830817
11
1.33982
21
0.830817
0
LINE
8
BLACK
6
CONTINUOUS
10
1.33982
20
0.830817
11
1.34217
21
0.832015
0
LINE
8
BLACK
6
CONTINUOUS
10
1.34217
20
0.832015
11
1.34704
21
0.832785
0
LINE
8
BLACK
6
CONTINUOUS
10
1.34704
20
0.832785
11
1.3519
21
0.832015
0
LINE
8
BLACK
6
CONTINUOUS
10
1.3519
20
0.832015
11
1.35425
21
0.830817
0
LINE
8
BLACK
6
CONTINUOUS
10
1.35425
20
0.830817
11
1.38633
21
0.830817
0
LINE
8
BLACK
6
CONTINUOUS
10
1.38633
20
0.830817
11
1.51622
21
0.960708
0
LINE
8
BLACK
6
CONTINUOUS
10
1.51622
20
0.960708
11
1.51622
21
1.01429
0
LINE
8
BLACK
6
CONTINUOUS
10
1.51622
20
1.01429
11
1.47056
21
1.05996
0
LINE
8
BLACK
6
CONTINUOUS
10
1.47056
20
1.05996
11
1.47013
21
1.06002
0
LINE
8
BLACK
6
CONTINUOUS
10
1.47013
20
1.06002
11
1.46778
21
1.06122
0
LINE
8
BLACK
6
CONTINUOUS
10
1.46778
20
1.06122
11
1.315
21
1.06122
0
LINE
8
BLACK
6
CONTINUOUS
10
1.315
20
1.06122
11
1.31358
21
1.06134
0
LINE
8
BLACK
6
CONTINUOUS
10
1.31358
20
1.06134
11
1.3133
21
1.06133
0
LINE
8
BLACK
6
CONTINUOUS
10
1.3133
20
1.06133
11
1.31313
21
1.06138
0
LINE
8
BLACK
6
CONTINUOUS
10
1.31313
20
1.06138
11
1.31273
21
1.06141
0
LINE
8
BLACK
6
CONTINUOUS
10
1.31273
20
1.06141
11
1.31085
21
1.06205
0
LINE
8
BLACK
6
CONTINUOUS
10
1.31085
20
1.06205
11
1.30895
21
1.06262
0
LINE
8
BLACK
6
CONTINUOUS
10
1.30895
20
1.06262
11
1.30871
21
1.06279
0
LINE
8
BLACK
6
CONTINUOUS
10
1.30871
20
1.06279
11
1.30844
21
1.06288
0
LINE
8
BLACK
6
CONTINUOUS
10
1.30844
20
1.06288
11
1.30687
21
1.0641
0
LINE
8
BLACK
6
CONTINUOUS
10
1.30687
20
1.0641
11
1.30526
21
1.06526
0
LINE
8
BLACK
6
CONTINUOUS
10
1.30526
20
1.06526
11
0.885557
21
1.48496
0
LINE
8
BLACK
6
CONTINUOUS
10
0.885557
20
1.48496
11
0.885134
21
1.48502
0
LINE
8
BLACK
6
CONTINUOUS
10
0.885134
20
1.48502
11
0.880744
21
1.48726
0
LINE
8
BLACK
6
CONTINUOUS
10
0.880744
20
1.48726
11
0.87726
21
1.49074
0
LINE
8
BLACK
6
CONTINUOUS
10
0.87726
20
1.49074
11
0.875023
21
1.49513
0
LINE
8
BLACK
6
CONTINUOUS
10
0.875023
20
1.49513
11
0.874252
21
1.5
0
LINE
8
BLACK
6
CONTINUOUS
10
0.874252
20
1.5
11
0.875023
21
1.50487
0
LINE
8
BLACK
6
CONTINUOUS
10
0.875023
20
1.50487
11
0.87726
21
1.50926
0
LINE
8
BLACK
6
CONTINUOUS
10
0.87726
20
1.50926
11
0.880744
21
1.51274
0
LINE
8
BLACK
6
CONTINUOUS
10
0.880744
20
1.51274
11
0.885134
21
1.51498
0
LINE
8
BLACK
6
CONTINUOUS
10
0.885134
20
1.51498
11
0.89
21
1.51575
0
LINE
8
BLACK
6
CONTINUOUS
10
0.89
20
1.51575
11
0.894866
21
1.51498
0
LINE
8
BLACK
6
CONTINUOUS
10
0.39
20
0.69
11
0.33
21
0.69
0
LINE
8
BLACK
6
CONTINUOUS
10
0.33
20
0.69
11
0.33
21
0.75
0
LINE
8
BLACK
6
CONTINUOUS
10
0.33
20
0.75
11
0.39
21
0.75
0
LINE
8
BLACK
6
CONTINUOUS
10
0.39
20
0.75
11
0.39
21
0.69
0
LINE
8
BLACK
6
CONTINUOUS
10
0.49
20
0.69
11
0.43
21
0.69
0
LINE
8
BLACK
6
CONTINUOUS
10
0.43
20
0.69
11
0.43
21
0.75
0
LINE
8
BLACK
6
CONTINUOUS
10
0.43
20
0.75
11
0.49
21
0.75
0
LINE
8
BLACK
6
CONTINUOUS
10
0.49
20
0.75
11
0.49
21
0.69
0
LINE
8
BLACK
6
CONTINUOUS
10
2.405
20
0.75
11
2.345
21
0.75
0
LINE
8
BLACK
6
CONTINUOUS
10
2.345
20
0.75
11
2.345
21
0.81
0
LINE
8
BLACK
6
CONTINUOUS
10
2.345
20
0.81
11
2.405
21
0.81
0
LINE
8
BLACK
6
CONTINUOUS
10
2.405
20
0.81
11
2.405
21
0.75
0
LINE
8
BLACK
6
CONTINUOUS
10
2.505
20
0.75
11
2.445
21
0.75
0
LINE
8
BLACK
6
CONTINUOUS
10
2.445
20
0.75
11
2.445
21
0.81
0
LINE
8
BLACK
6
CONTINUOUS
10
2.445
20
0.81
11
2.505
21
0.81
0
LINE
8
BLACK
6
CONTINUOUS
10
2.505
20
0.81
11
2.505
21
0.75
0
LINE
8
BLACK
6
CONTINUOUS
10
0.7
20
0.83
11
0.64
21
0.83
0
LINE
8
BLACK
6
CONTINUOUS
10
0.64
20
0.83
11
0.64
21
0.89
0
LINE
8
BLACK
6
CONTINUOUS
10
0.64
20
0.89
11
0.7
21
0.89
0
LINE
8
BLACK
6
CONTINUOUS
10
0.7
20
0.89
11
0.7
21
0.83
0
LINE
8
BLACK
6
CONTINUOUS
10
0.7
20
0.93
11
0.64
21
0.93
0
LINE
8
BLACK
6
CONTINUOUS
10
0.64
20
0.93
11
0.64
21
0.99
0
LINE
8
BLACK
6
CONTINUOUS
10
0.64
20
0.99
11
0.7
21
0.99
0
LINE
8
BLACK
6
CONTINUOUS
10
0.7
20
0.99
11
0.7
21
0.93
0
LINE
8
BLACK
6
CONTINUOUS
10
1.09487
20
1.15498
11
1.09926
21
1.15274
0
LINE
8
BLACK
6
CONTINUOUS
10
1.09926
20
1.15274
11
1.10274
21
1.14926
0
LINE
8
BLACK
6
CONTINUOUS
10
1.10274
20
1.14926
11
1.10498
21
1.14487
0
LINE
8
BLACK
6
CONTINUOUS
10
1.10498
20
1.14487
11
1.10575
21
1.14
0
LINE
8
BLACK
6
CONTINUOUS
10
1.10575
20
1.14
11
1.10498
21
1.13513
0
LINE
8
BLACK
6
CONTINUOUS
10
1.10498
20
1.13513
11
1.10274
21
1.13074
0
LINE
8
BLACK
6
CONTINUOUS
10
1.10274
20
1.13074
11
1.09926
21
1.12726
0
LINE
8
BLACK
6
CONTINUOUS
10
1.09926
20
1.12726
11
1.09487
21
1.12502
0
LINE
8
BLACK
6
CONTINUOUS
10
1.09487
20
1.12502
11
1.09
21
1.12425
0
LINE
8
BLACK
6
CONTINUOUS
10
1.09
20
1.12425
11
1.08513
21
1.12502
0
LINE
8
BLACK
6
CONTINUOUS
10
1.08513
20
1.12502
11
1.08074
21
1.12726
0
LINE
8
BLACK
6
CONTINUOUS
10
1.08074
20
1.12726
11
1.07726
21
1.13074
0
LINE
8
BLACK
6
CONTINUOUS
10
1.07726
20
1.13074
11
1.07706
21
1.13114
0
LINE
8
BLACK
6
CONTINUOUS
10
1.07706
20
1.13114
11
0.912943
21
1.13114
0
LINE
8
BLACK
6
CONTINUOUS
10
0.912943
20
1.13114
11
0.91274
21
1.13074
0
LINE
8
BLACK
6
CONTINUOUS
10
0.91274
20
1.13074
11
0.909256
21
1.12726
0
LINE
8
BLACK
6
CONTINUOUS
10
0.909256
20
1.12726
11
0.908858
21
1.12706
0
LINE
8
BLACK
6
CONTINUOUS
10
0.908858
20
1.12706
11
0.908858
21
1.105
0
LINE
8
BLACK
6
CONTINUOUS
10
0.908858
20
1.105
11
0.908858
21
1.05152
0
LINE
8
BLACK
6
CONTINUOUS
10
0.908858
20
1.05152
11
0.953817
21
1.00656
0
LINE
8
BLACK
6
CONTINUOUS
10
0.953817
20
1.00656
11
0.956597
21
1.007
0
LINE
8
BLACK
6
CONTINUOUS
10
0.956597
20
1.007
11
0.961463
21
1.00623
0
LINE
8
BLACK
6
CONTINUOUS
10
0.961463
20
1.00623
11
0.965853
21
1.00399
0
LINE
8
BLACK
6
CONTINUOUS
10
0.965853
20
1.00399
11
0.969337
21
1.00051
0
LINE
8
BLACK
6
CONTINUOUS
10
0.969337
20
1.00051
11
0.971574
21
0.996117
0
LINE
8
BLACK
6
CONTINUOUS
10
0.971574
20
0.996117
11
0.972345
21
0.991251
0
LINE
8
BLACK
6
CONTINUOUS
10
0.972345
20
0.991251
11
0.971574
21
0.986384
0
LINE
8
BLACK
6
CONTINUOUS
10
0.971574
20
0.986384
11
0.969337
21
0.981994
0
LINE
8
BLACK
6
CONTINUOUS
10
0.969337
20
0.981994
11
0.965853
21
0.97851
0
LINE
8
BLACK
6
CONTINUOUS
10
0.965853
20
0.97851
11
0.961463
21
0.976273
0
LINE
8
BLACK
6
CONTINUOUS
10
0.961463
20
0.976273
11
0.956597
21
0.975502
0
LINE
8
BLACK
6
CONTINUOUS
10
0.956597
20
0.975502
11
0.951731
21
0.976273
0
LINE
8
BLACK
6
CONTINUOUS
10
0.951731
20
0.976273
11
0.94734
21
0.97851
0
LINE
8
BLACK
6
CONTINUOUS
10
0.94734
20
0.97851
11
0.943856
21
0.981994
0
LINE
8
BLACK
6
CONTINUOUS
10
0.943856
20
0.981994
11
0.94162
21
0.986384
0
LINE
8
BLACK
6
CONTINUOUS
10
0.94162
20
0.986384
11
0.940849
21
0.991251
0
LINE
8
BLACK
6
CONTINUOUS
10
0.940849
20
0.991251
11
0.941289
21
0.994031
0
LINE
8
BLACK
6
CONTINUOUS
10
0.941289
20
0.994031
11
0.893736
21
1.04158
0
LINE
8
BLACK
6
CONTINUOUS
10
0.893736
20
1.04158
11
0.892571
21
1.04302
0
LINE
8
BLACK
6
CONTINUOUS
10
0.892571
20
1.04302
11
0.89232
21
1.04368
0
LINE
8
BLACK
6
CONTINUOUS
10
0.89232
20
1.04368
11
0.891908
21
1.04424
0
LINE
8
BLACK
6
CONTINUOUS
10
0.891908
20
1.04424
11
0.891666
21
1.04538
0
LINE
8
BLACK
6
CONTINUOUS
10
0.891666
20
1.04538
11
0.891251
21
1.04646
0
LINE
8
BLACK
6
CONTINUOUS
10
0.891251
20
1.04646
11
0.891287
21
1.04716
0
LINE
8
BLACK
6
CONTINUOUS
10
0.891287
20
1.04716
11
0.891142
21
1.04785
0
LINE
8
BLACK
6
CONTINUOUS
10
0.891142
20
1.04785
11
0.891142
21
1.105
0
LINE
8
BLACK
6
CONTINUOUS
10
0.891142
20
1.105
11
0.891142
21
1.105
0
LINE
8
BLACK
6
CONTINUOUS
10
0.891142
20
1.105
11
0.891142
21
1.12706
0
LINE
8
BLACK
6
CONTINUOUS
10
0.891142
20
1.12706
11
0.890744
21
1.12726
0
LINE
8
BLACK
6
CONTINUOUS
10
0.890744
20
1.12726
11
0.88726
21
1.13074
0
LINE
8
BLACK
6
CONTINUOUS
10
0.88726
20
1.13074
11
0.885023
21
1.13513
0
LINE
8
BLACK
6
CONTINUOUS
10
0.885023
20
1.13513
11
0.884252
21
1.14
0
LINE
8
BLACK
6
CONTINUOUS
10
0.884252
20
1.14
11
0.885023
21
1.14487
0
LINE
8
BLACK
6
CONTINUOUS
10
0.885023
20
1.14487
11
0.88726
21
1.14926
0
LINE
8
BLACK
6
CONTINUOUS
10
0.88726
20
1.14926
11
0.890744
21
1.15274
0
LINE
8
BLACK
6
CONTINUOUS
10
0.890744
20
1.15274
11
0.895134
21
1.15498
0
LINE
8
BLACK
6
CONTINUOUS
10
0.895134
20
1.15498
11
0.9
21
1.15575
0
LINE
8
BLACK
6
CONTINUOUS
10
0.9
20
1.15575
11
0.904866
21
1.15498
0
LINE
8
BLACK
6
CONTINUOUS
10
0.904866
20
1.15498
11
0.909256
21
1.15274
0
LINE
8
BLACK
6
CONTINUOUS
10
0.909256
20
1.15274
11
0.91274
21
1.14926
0
LINE
8
BLACK
6
CONTINUOUS
10
0.91274
20
1.14926
11
0.912943
21
1.14886
0
LINE
8
BLACK
6
CONTINUOUS
10
0.912943
20
1.14886
11
1.07706
21
1.14886
0
LINE
8
BLACK
6
CONTINUOUS
10
1.07706
20
1.14886
11
1.07726
21
1.14926
0
LINE
8
BLACK
6
CONTINUOUS
10
1.07726
20
1.14926
11
1.08074
21
1.15274
0
LINE
8
BLACK
6
CONTINUOUS
10
1.08074
20
1.15274
11
1.08513
21
1.15498
0
LINE
8
BLACK
6
CONTINUOUS
10
1.08513
20
1.15498
11
1.09
21
1.15575
0
LINE
8
BLACK
6
CONTINUOUS
10
1.09
20
1.15575
11
1.09487
21
1.15498
0
LINE
8
BLACK
6
CONTINUOUS
10
1.64487
20
1.40498
11
1.64926
21
1.40274
0
LINE
8
BLACK
6
CONTINUOUS
10
1.64926
20
1.40274
11
1.65274
21
1.39926
0
LINE
8
BLACK
6
CONTINUOUS
10
1.65274
20
1.39926
11
1.65294
21
1.39886
0
LINE
8
BLACK
6
CONTINUOUS
10
1.65294
20
1.39886
11
2.035
21
1.39886
0
LINE
8
BLACK
6
CONTINUOUS
10
2.035
20
1.39886
11
2.03684
21
1.39866
0
LINE
8
BLACK
6
CONTINUOUS
10
2.03684
20
1.39866
11
2.03748
21
1.39838
0
LINE
8
BLACK
6
CONTINUOUS
10
2.03748
20
1.39838
11
2.03817
21
1.39827
0
LINE
8
BLACK
6
CONTINUOUS
10
2.03817
20
1.39827
11
2.03915
21
1.39764
0
LINE
8
BLACK
6
CONTINUOUS
10
2.03915
20
1.39764
11
2.04021
21
1.39717
0
LINE
8
BLACK
6
CONTINUOUS
10
2.04021
20
1.39717
11
2.04068
21
1.39665
0
LINE
8
BLACK
6
CONTINUOUS
10
2.04068
20
1.39665
11
2.04126
21
1.39626
0
LINE
8
BLACK
6
CONTINUOUS
10
2.04126
20
1.39626
11
2.09126
21
1.34626
0
LINE
8
BLACK
6
CONTINUOUS
10
2.09126
20
1.34626
11
2.09243
21
1.34482
0
LINE
8
BLACK
6
CONTINUOUS
10
2.09243
20
1.34482
11
2.09268
21
1.34417
0
LINE
8
BLACK
6
CONTINUOUS
10
2.09268
20
1.34417
11
2.09309
21
1.3436
0
LINE
8
BLACK
6
CONTINUOUS
10
2.09309
20
1.3436
11
2.09333
21
1.34247
0
LINE
8
BLACK
6
CONTINUOUS
10
2.09333
20
1.34247
11
2.09375
21
1.34139
0
LINE
8
BLACK
6
CONTINUOUS
10
2.09375
20
1.34139
11
2.09371
21
1.34069
0
LINE
8
BLACK
6
CONTINUOUS
10
2.09371
20
1.34069
11
2.09386
21
1.34
0
LINE
8
BLACK
6
CONTINUOUS
10
2.09386
20
1.34
11
2.09386
21
1.15867
0
LINE
8
BLACK
6
CONTINUOUS
10
2.09386
20
1.15867
11
2.16253
21
1.09
0
LINE
8
BLACK
6
CONTINUOUS
10
2.16253
20
1.09
11
2.21
21
1.09
0
LINE
8
BLACK
6
CONTINUOUS
10
2.21
20
1.09
11
2.21
21
1.03
0
LINE
8
BLACK
6
CONTINUOUS
10
2.21
20
1.03
11
2.15
21
1.03
0
LINE
8
BLACK
6
CONTINUOUS
10
2.15
20
1.03
11
2.15
21
1.07747
0
LINE
8
BLACK
6
CONTINUOUS
10
2.15
20
1.07747
11
2.07874
21
1.14874
0
LINE
8
BLACK
6
CONTINUOUS
10
2.07874
20
1.14874
11
2.07757
21
1.15018
0
LINE
8
BLACK
6
CONTINUOUS
10
2.07757
20
1.15018
11
2.07732
21
1.15083
0
LINE
8
BLACK
6
CONTINUOUS
10
2.07732
20
1.15083
11
2.07691
21
1.1514
0
LINE
8
BLACK
6
CONTINUOUS
10
2.07691
20
1.1514
11
2.07667
21
1.15253
0
LINE
8
BLACK
6
CONTINUOUS
10
2.07667
20
1.15253
11
2.07625
21
1.15361
0
LINE
8
BLACK
6
CONTINUOUS
10
2.07625
20
1.15361
11
2.07629
21
1.15431
0
LINE
8
BLACK
6
CONTINUOUS
10
2.07629
20
1.15431
11
2.07614
21
1.155
0
LINE
8
BLACK
6
CONTINUOUS
10
2.07614
20
1.155
11
2.07614
21
1.33633
0
LINE
8
BLACK
6
CONTINUOUS
10
2.07614
20
1.33633
11
2.03133
21
1.38114
0
LINE
8
BLACK
6
CONTINUOUS
10
2.03133
20
1.38114
11
1.65294
21
1.38114
0
LINE
8
BLACK
6
CONTINUOUS
10
1.65294
20
1.38114
11
1.65274
21
1.38074
0
LINE
8
BLACK
6
CONTINUOUS
10
1.65274
20
1.38074
11
1.64926
21
1.37726
0
LINE
8
BLACK
6
CONTINUOUS
10
1.64926
20
1.37726
11
1.64487
21
1.37502
0
LINE
8
BLACK
6
CONTINUOUS
10
1.64487
20
1.37502
11
1.64
21
1.37425
0
LINE
8
BLACK
6
CONTINUOUS
10
1.64
20
1.37425
11
1.63513
21
1.37502
0
LINE
8
BLACK
6
CONTINUOUS
10
1.63513
20
1.37502
11
1.63074
21
1.37726
0
LINE
8
BLACK
6
CONTINUOUS
10
1.63074
20
1.37726
11
1.62726
21
1.38074
0
LINE
8
BLACK
6
CONTINUOUS
10
1.62726
20
1.38074
11
1.62502
21
1.38513
0
LINE
8
BLACK
6
CONTINUOUS
10
1.62502
20
1.38513
11
1.62425
21
1.39
0
LINE
8
BLACK
6
CONTINUOUS
10
1.62425
20
1.39
11
1.62502
21
1.39487
0
LINE
8
BLACK
6
CONTINUOUS
10
1.62502
20
1.39487
11
1.62726
21
1.39926
0
LINE
8
BLACK
6
CONTINUOUS
10
1.62726
20
1.39926
11
1.63074
21
1.40274
0
LINE
8
BLACK
6
CONTINUOUS
10
1.63074
20
1.40274
11
1.63513
21
1.40498
0
LINE
8
BLACK
6
CONTINUOUS
10
1.63513
20
1.40498
11
1.64
21
1.40575
0
LINE
8
BLACK
6
CONTINUOUS
10
1.64
20
1.40575
11
1.64487
21
1.40498
0
LINE
8
BLACK
6
CONTINUOUS
10
2.31
20
1.03
11
2.25
21
1.03
0
LINE
8
BLACK
6
CONTINUOUS
10
2.25
20
1.03
11
2.25
21
1.09
0
LINE
8
BLACK
6
CONTINUOUS
10
2.25
20
1.09
11
2.31
21
1.09
0
LINE
8
BLACK
6
CONTINUOUS
10
2.31
20
1.09
11
2.31
21
1.03
0
LINE
8
BLACK
6
CONTINUOUS
10
2.21
20
1.13
11
2.15
21
1.13
0
LINE
8
BLACK
6
CONTINUOUS
10
2.15
20
1.13
11
2.15
21
1.19
0
LINE
8
BLACK
6
CONTINUOUS
10
2.15
20
1.19
11
2.21
21
1.19
0
LINE
8
BLACK
6
CONTINUOUS
10
2.21
20
1.19
11
2.21
21
1.13
0
LINE
8
BLACK
6
CONTINUOUS
10
2.31
20
1.13
11
2.25
21
1.13
0
LINE
8
BLACK
6
CONTINUOUS
10
2.25
20
1.13
11
2.25
21
1.19
0
LINE
8
BLACK
6
CONTINUOUS
10
2.25
20
1.19
11
2.31
21
1.19
0
LINE
8
BLACK
6
CONTINUOUS
10
2.31
20
1.19
11
2.31
21
1.13
0
LINE
8
BLACK
6
CONTINUOUS
10
2.21
20
1.23
11
2.15
21
1.23
0
LINE
8
BLACK
6
CONTINUOUS
10
2.15
20
1.23
11
2.15
21
1.29
0
LINE
8
BLACK
6
CONTINUOUS
10
2.15
20
1.29
11
2.21
21
1.29
0
LINE
8
BLACK
6
CONTINUOUS
10
2.21
20
1.29
11
2.21
21
1.23
0
LINE
8
BLACK
6
CONTINUOUS
10
2.31
20
1.23
11
2.25
21
1.23
0
LINE
8
BLACK
6
CONTINUOUS
10
2.25
20
1.23
11
2.25
21
1.29
0
LINE
8
BLACK
6
CONTINUOUS
10
2.25
20
1.29
11
2.31
21
1.29
0
LINE
8
BLACK
6
CONTINUOUS
10
2.31
20
1.29
11
2.31
21
1.23
0
LINE
8
BLACK
6
CONTINUOUS
10
2.21
20
1.33
11
2.15
21
1.33
0
LINE
8
BLACK
6
CONTINUOUS
10
2.15
20
1.33
11
2.15
21
1.39
0
LINE
8
BLACK
6
CONTINUOUS
10
2.15
20
1.39
11
2.21
21
1.39
0
LINE
8
BLACK
6
CONTINUOUS
10
2.21
20
1.39
11
2.21
21
1.33
0
LINE
8
BLACK
6
CONTINUOUS
10
2.31
20
1.33
11
2.25
21
1.33
0
LINE
8
BLACK
6
CONTINUOUS
10
2.25
20
1.33
11
2.25
21
1.39
0
LINE
8
BLACK
6
CONTINUOUS
10
2.25
20
1.39
11
2.31
21
1.39
0
LINE
8
BLACK
6
CONTINUOUS
10
2.31
20
1.39
11
2.31
21
1.33
0
LINE
8
BLACK
6
CONTINUOUS
10
1.745
20
1.105
11
1.685
21
1.105
0
LINE
8
BLACK
6
CONTINUOUS
10
1.685
20
1.105
11
1.685
21
1.165
0
LINE
8
BLACK
6
CONTINUOUS
10
1.685
20
1.165
11
1.745
21
1.165
0
LINE
8
BLACK
6
CONTINUOUS
10
1.745
20
1.165
11
1.745
21
1.105
0
LINE
8
BLACK
6
CONTINUOUS
10
1.845
20
1.105
11
1.785
21
1.105
0
LINE
8
BLACK
6
CONTINUOUS
10
1.785
20
1.105
11
1.785
21
1.165
0
LINE
8
BLACK
6
CONTINUOUS
10
1.785
20
1.165
11
1.845
21
1.165
0
LINE
8
BLACK
6
CONTINUOUS
10
1.845
20
1.165
11
1.845
21
1.105
0
LINE
8
BLACK
6
CONTINUOUS
10
1.48
20
1.14
11
1.42
21
1.14
0
LINE
8
BLACK
6
CONTINUOUS
10
1.42
20
1.14
11
1.42
21
1.2
0
LINE
8
BLACK
6
CONTINUOUS
10
1.42
20
1.2
11
1.48
21
1.2
0
LINE
8
BLACK
6
CONTINUOUS
10
1.48
20
1.2
11
1.48
21
1.14
0
LINE
8
BLACK
6
CONTINUOUS
10
1.58
20
1.14
11
1.52
21
1.14
0
LINE
8
BLACK
6
CONTINUOUS
10
1.52
20
1.14
11
1.52
21
1.2
0
LINE
8
BLACK
6
CONTINUOUS
10
1.52
20
1.2
11
1.58
21
1.2
0
LINE
8
BLACK
6
CONTINUOUS
10
1.58
20
1.2
11
1.58
21
1.14
0
LINE
8
BLACK
6
CONTINUOUS
10
1.48
20
1.24
11
1.42
21
1.24
0
LINE
8
BLACK
6
CONTINUOUS
10
1.42
20
1.24
11
1.42
21
1.3
0
LINE
8
BLACK
6
CONTINUOUS
10
1.42
20
1.3
11
1.48
21
1.3
0
LINE
8
BLACK
6
CONTINUOUS
10
1.48
20
1.3
11
1.48
21
1.24
0
LINE
8
BLACK
6
CONTINUOUS
10
1.58
20
1.24
11
1.52
21
1.24
0
LINE
8
BLACK
6
CONTINUOUS
10
1.52
20
1.24
11
1.52
21
1.3
0
LINE
8
BLACK
6
CONTINUOUS
10
1.52
20
1.3
11
1.58
21
1.3
0
LINE
8
BLACK
6
CONTINUOUS
10
1.58
20
1.3
11
1.58
21
1.24
0
LINE
8
BLACK
6
CONTINUOUS
10
0.477873
20
1.27458
11
0.485443
21
1.27228
0
LINE
8
BLACK
6
CONTINUOUS
10
0.485443
20
1.27228
11
0.49242
21
1.26855
0
LINE
8
BLACK
6
CONTINUOUS
10
0.49242
20
1.26855
11
0.498535
21
1.26353
0
LINE
8
BLACK
6
CONTINUOUS
10
0.498535
20
1.26353
11
0.503553
21
1.25742
0
LINE
8
BLACK
6
CONTINUOUS
10
0.503553
20
1.25742
11
0.507283
21
1.25044
0
LINE
8
BLACK
6
CONTINUOUS
10
0.507283
20
1.25044
11
0.509579
21
1.24287
0
LINE
8
BLACK
6
CONTINUOUS
10
0.509579
20
1.24287
11
0.510354
21
1.235
0
LINE
8
BLACK
6
CONTINUOUS
10
0.510354
20
1.235
11
0.509579
21
1.22713
0
LINE
8
BLACK
6
CONTINUOUS
10
0.509579
20
1.22713
11
0.507283
21
1.21956
0
LINE
8
BLACK
6
CONTINUOUS
10
0.507283
20
1.21956
11
0.503553
21
1.21258
0
LINE
8
BLACK
6
CONTINUOUS
10
0.503553
20
1.21258
11
0.498535
21
1.20647
0
LINE
8
BLACK
6
CONTINUOUS
10
0.498535
20
1.20647
11
0.49242
21
1.20145
0
LINE
8
BLACK
6
CONTINUOUS
10
0.49242
20
1.20145
11
0.485443
21
1.19772
0
LINE
8
BLACK
6
CONTINUOUS
10
0.485443
20
1.19772
11
0.477873
21
1.19542
0
LINE
8
BLACK
6
CONTINUOUS
10
0.477873
20
1.19542
11
0.47
21
1.19465
0
LINE
8
BLACK
6
CONTINUOUS
10
0.47
20
1.19465
11
0.462127
21
1.19542
0
LINE
8
BLACK
6
CONTINUOUS
10
0.462127
20
1.19542
11
0.454557
21
1.19772
0
LINE
8
BLACK
6
CONTINUOUS
10
0.454557
20
1.19772
11
0.44758
21
1.20145
0
LINE
8
BLACK
6
CONTINUOUS
10
0.44758
20
1.20145
11
0.441465
21
1.20647
0
LINE
8
BLACK
6
CONTINUOUS
10
0.441465
20
1.20647
11
0.436447
21
1.21258
0
LINE
8
BLACK
6
CONTINUOUS
10
0.436447
20
1.21258
11
0.432717
21
1.21956
0
LINE
8
BLACK
6
CONTINUOUS
10
0.432717
20
1.21956
11
0.430421
21
1.22713
0
LINE
8
BLACK
6
CONTINUOUS
10
0.430421
20
1.22713
11
0.429646
21
1.235
0
LINE
8
BLACK
6
CONTINUOUS
10
0.429646
20
1.235
11
0.430421
21
1.24287
0
LINE
8
BLACK
6
CONTINUOUS
10
0.430421
20
1.24287
11
0.432717
21
1.25044
0
LINE
8
BLACK
6
CONTINUOUS
10
0.432717
20
1.25044
11
0.436447
21
1.25742
0
LINE
8
BLACK
6
CONTINUOUS
10
0.436447
20
1.25742
11
0.441465
21
1.26353
0
LINE
8
BLACK
6
CONTINUOUS
10
0.441465
20
1.26353
11
0.44758
21
1.26855
0
LINE
8
BLACK
6
CONTINUOUS
10
0.44758
20
1.26855
11
0.454557
21
1.27228
0
LINE
8
BLACK
6
CONTINUOUS
10
0.454557
20
1.27228
11
0.462127
21
1.27458
0
LINE
8
BLACK
6
CONTINUOUS
10
0.462127
20
1.27458
11
0.47
21
1.27535
0
LINE
8
BLACK
6
CONTINUOUS
10
0.47
20
1.27535
11
0.477873
21
1.27458
0
LINE
8
BLACK
6
CONTINUOUS
10
2.58731
20
1.7888
11
2.58914
21
1.78669
0
LINE
8
BLACK
6
CONTINUOUS
10
2.58914
20
1.78669
11
2.58959
21
1.78463
0
LINE
8
BLACK
6
CONTINUOUS
10
2.58959
20
1.78463
11
2.58959
21
0.215374
0
LINE
8
BLACK
6
CONTINUOUS
10
2.58959
20
0.215374
11
2.5888
21
0.212692
0
LINE
8
BLACK
6
CONTINUOUS
10
2.5888
20
0.212692
11
2.58669
21
0.210862
0
LINE
8
BLACK
6
CONTINUOUS
10
2.58669
20
0.210862
11
2.58463
21
0.210413
0
LINE
8
BLACK
6
CONTINUOUS
10
2.58463
20
0.210413
11
0.215374
21
0.210413
0
LINE
8
BLACK
6
CONTINUOUS
10
0.215374
20
0.210413
11
0.212692
21
0.211201
0
LINE
8
BLACK
6
CONTINUOUS
10
0.212692
20
0.211201
11
0.210862
21
0.213313
0
LINE
8
BLACK
6
CONTINUOUS
10
0.210862
20
0.213313
11
0.210413
21
0.215374
0
LINE
8
BLACK
6
CONTINUOUS
10
0.210413
20
0.215374
11
0.210413
21
0.498759
0
LINE
8
BLACK
6
CONTINUOUS
10
0.210413
20
0.498759
11
0.210413
21
0.575
0
LINE
8
BLACK
6
CONTINUOUS
10
0.210413
20
0.575
11
0.210413
21
0.688759
0
LINE
8
BLACK
6
CONTINUOUS
10
0.210413
20
0.688759
11
0.210413
21
0.828759
0
LINE
8
BLACK
6
CONTINUOUS
10
0.210413
20
0.828759
11
0.210413
21
1.14
0
LINE
8
BLACK
6
CONTINUOUS
10
0.210413
20
1.14
11
0.210413
21
1.235
0
LINE
8
BLACK
6
CONTINUOUS
10
0.210413
20
1.235
11
0.210413
21
1.78463
0
LINE
8
BLACK
6
CONTINUOUS
10
0.210413
20
1.78463
11
0.211201
21
1.78731
0
LINE
8
BLACK
6
CONTINUOUS
10
0.211201
20
1.78731
11
0.213313
21
1.78914
0
LINE
8
BLACK
6
CONTINUOUS
10
0.213313
20
1.78914
11
0.215374
21
1.78959
0
LINE
8
BLACK
6
CONTINUOUS
10
0.215374
20
1.78959
11
2.58463
21
1.78959
0
LINE
8
BLACK
6
CONTINUOUS
10
2.58463
20
1.78959
11
2.58731
21
1.7888
0
LINE
8
BLACK
6
CONTINUOUS
10
0.855067
20
0.675183
11
0.850616
21
0.672915
0
LINE
8
BLACK
6
CONTINUOUS
10
0.850616
20
0.672915
11
0.847085
21
0.669384
0
LINE
8
BLACK
6
CONTINUOUS
10
0.847085
20
0.669384
11
0.844817
21
0.664933
0
LINE
8
BLACK
6
CONTINUOUS
10
0.844817
20
0.664933
11
0.844817
21
0.664933
0
LINE
8
BLACK
6
CONTINUOUS
10
0.844817
20
0.664933
11
0.844232
21
0.661241
0
LINE
8
BLACK
6
CONTINUOUS
10
0.844232
20
0.661241
11
0.844232
21
0.661241
0
LINE
8
BLACK
6
CONTINUOUS
10
0.844232
20
0.661241
11
0.844232
21
0.598759
0
LINE
8
BLACK
6
CONTINUOUS
10
0.844232
20
0.598759
11
0.844817
21
0.595067
0
LINE
8
BLACK
6
CONTINUOUS
10
0.844817
20
0.595067
11
0.847085
21
0.590616
0
LINE
8
BLACK
6
CONTINUOUS
10
0.847085
20
0.590616
11
0.850616
21
0.587085
0
LINE
8
BLACK
6
CONTINUOUS
10
0.850616
20
0.587085
11
0.852884
21
0.585929
0
LINE
8
BLACK
6
CONTINUOUS
10
0.852884
20
0.585929
11
0.855067
21
0.584817
0
LINE
8
BLACK
6
CONTINUOUS
10
0.855067
20
0.584817
11
0.855067
21
0.584817
0
LINE
8
BLACK
6
CONTINUOUS
10
0.855067
20
0.584817
11
0.855372
21
0.584718
0
LINE
8
BLACK
6
CONTINUOUS
10
0.855372
20
0.584718
11
0.857679
21
0.58314
0
LINE
8
BLACK
6
CONTINUOUS
10
0.857679
20
0.58314
11
0.858768
21
0.580566
0
LINE
8
BLACK
6
CONTINUOUS
10
0.858768
20
0.580566
11
0.858291
21
0.577812
0
LINE
8
BLACK
6
CONTINUOUS
10
0.858291
20
0.577812
11
0.856401
21
0.575752
0
LINE
8
BLACK
6
CONTINUOUS
10
0.856401
20
0.575752
11
0.855372
21
0.575282
0
LINE
8
BLACK
6
CONTINUOUS
10
0.855372
20
0.575282
11
0.855067
21
0.575183
0
LINE
8
BLACK
6
CONTINUOUS
10
0.855067
20
0.575183
11
0.850616
21
0.572915
0
LINE
8
BLACK
6
CONTINUOUS
10
0.850616
20
0.572915
11
0.847085
21
0.569384
0
LINE
8
BLACK
6
CONTINUOUS
10
0.847085
20
0.569384
11
0.844817
21
0.564933
0
LINE
8
BLACK
6
CONTINUOUS
10
0.844817
20
0.564933
11
0.844817
21
0.564933
0
LINE
8
BLACK
6
CONTINUOUS
10
0.844817
20
0.564933
11
0.844232
21
0.561241
0
LINE
8
BLACK
6
CONTINUOUS
10
0.844232
20
0.561241
11
0.844232
21
0.561241
0
LINE
8
BLACK
6
CONTINUOUS
10
0.844232
20
0.561241
11
0.844232
21
0.498759
0
LINE
8
BLACK
6
CONTINUOUS
10
0.844232
20
0.498759
11
0.844817
21
0.495067
0
LINE
8
BLACK
6
CONTINUOUS
10
0.844817
20
0.495067
11
0.847085
21
0.490616
0
LINE
8
BLACK
6
CONTINUOUS
10
0.847085
20
0.490616
11
0.850616
21
0.487085
0
LINE
8
BLACK
6
CONTINUOUS
10
0.850616
20
0.487085
11
0.851783
21
0.48649
0
LINE
8
BLACK
6
CONTINUOUS
10
0.851783
20
0.48649
11
0.855067
21
0.484817
0
LINE
8
BLACK
6
CONTINUOUS
10
0.855067
20
0.484817
11
0.858759
21
0.484232
0
LINE
8
BLACK
6
CONTINUOUS
10
0.858759
20
0.484232
11
0.921241
21
0.484232
0
LINE
8
BLACK
6
CONTINUOUS
10
0.921241
20
0.484232
11
0.924933
21
0.484817
0
LINE
8
BLACK
6
CONTINUOUS
10
0.924933
20
0.484817
11
0.929384
21
0.487085
0
LINE
8
BLACK
6
CONTINUOUS
10
0.929384
20
0.487085
11
0.932915
21
0.490616
0
LINE
8
BLACK
6
CONTINUOUS
10
0.932915
20
0.490616
11
0.935183
21
0.495067
0
LINE
8
BLACK
6
CONTINUOUS
10
0.935183
20
0.495067
11
0.935183
21
0.495067
0
LINE
8
BLACK
6
CONTINUOUS
10
0.935183
20
0.495067
11
0.935282
21
0.495372
0
LINE
8
BLACK
6
CONTINUOUS
10
0.935282
20
0.495372
11
0.93686
21
0.497679
0
LINE
8
BLACK
6
CONTINUOUS
10
0.93686
20
0.497679
11
0.939434
21
0.498768
0
LINE
8
BLACK
6
CONTINUOUS
10
0.939434
20
0.498768
11
0.942188
21
0.498291
0
LINE
8
BLACK
6
CONTINUOUS
10
0.942188
20
0.498291
11
0.944248
21
0.496401
0
LINE
8
BLACK
6
CONTINUOUS
10
0.944248
20
0.496401
11
0.944718
21
0.495372
0
LINE
8
BLACK
6
CONTINUOUS
10
0.944718
20
0.495372
11
0.944817
21
0.495067
0
LINE
8
BLACK
6
CONTINUOUS
10
0.944817
20
0.495067
11
0.947085
21
0.490616
0
LINE
8
BLACK
6
CONTINUOUS
10
0.947085
20
0.490616
11
0.950616
21
0.487085
0
LINE
8
BLACK
6
CONTINUOUS
10
0.950616
20
0.487085
11
0.951783
21
0.48649
0
LINE
8
BLACK
6
CONTINUOUS
10
0.951783
20
0.48649
11
0.955067
21
0.484817
0
LINE
8
BLACK
6
CONTINUOUS
10
0.955067
20
0.484817
11
0.958759
21
0.484232
0
LINE
8
BLACK
6
CONTINUOUS
10
0.958759
20
0.484232
11
1.02124
21
0.484232
0
LINE
8
BLACK
6
CONTINUOUS
10
1.02124
20
0.484232
11
1.02493
21
0.484817
0
LINE
8
BLACK
6
CONTINUOUS
10
1.02493
20
0.484817
11
1.02938
21
0.487085
0
LINE
8
BLACK
6
CONTINUOUS
10
1.02938
20
0.487085
11
1.03292
21
0.490616
0
LINE
8
BLACK
6
CONTINUOUS
10
1.03292
20
0.490616
11
1.03518
21
0.495067
0
LINE
8
BLACK
6
CONTINUOUS
10
1.03518
20
0.495067
11
1.03577
21
0.498759
0
LINE
8
BLACK
6
CONTINUOUS
10
1.03577
20
0.498759
11
1.03577
21
0.500413
0
LINE
8
BLACK
6
CONTINUOUS
10
1.03577
20
0.500413
11
1.03656
21
0.503095
0
LINE
8
BLACK
6
CONTINUOUS
10
1.03656
20
0.503095
11
1.03867
21
0.504926
0
LINE
8
BLACK
6
CONTINUOUS
10
1.03867
20
0.504926
11
1.04073
21
0.505374
0
LINE
8
BLACK
6
CONTINUOUS
10
1.04073
20
0.505374
11
1.34471
21
0.505374
0
LINE
8
BLACK
6
CONTINUOUS
10
1.34471
20
0.505374
11
1.34739
21
0.504587
0
LINE
8
BLACK
6
CONTINUOUS
10
1.34739
20
0.504587
11
1.34922
21
0.502474
0
LINE
8
BLACK
6
CONTINUOUS
10
1.34922
20
0.502474
11
1.34939
21
0.502052
0
LINE
8
BLACK
6
CONTINUOUS
10
1.34939
20
0.502052
11
1.35092
21
0.497679
0
LINE
8
BLACK
6
CONTINUOUS
10
1.35092
20
0.497679
11
1.35143
21
0.496239
0
LINE
8
BLACK
6
CONTINUOUS
10
1.35143
20
0.496239
11
1.35143
21
0.496239
0
LINE
8
BLACK
6
CONTINUOUS
10
1.35143
20
0.496239
11
1.3552
21
0.490226
0
LINE
8
BLACK
6
CONTINUOUS
10
1.3552
20
0.490226
11
1.3552
21
0.490226
0
LINE
8
BLACK
6
CONTINUOUS
10
1.3552
20
0.490226
11
1.36023
21
0.485204
0
LINE
8
BLACK
6
CONTINUOUS
10
1.36023
20
0.485204
11
1.36023
21
0.485204
0
LINE
8
BLACK
6
CONTINUOUS
10
1.36023
20
0.485204
11
1.36624
21
0.481426
0
LINE
8
BLACK
6
CONTINUOUS
10
1.36624
20
0.481426
11
1.36624
21
0.481426
0
LINE
8
BLACK
6
CONTINUOUS
10
1.36624
20
0.481426
11
1.36624
21
0.481426
0
LINE
8
BLACK
6
CONTINUOUS
10
1.36624
20
0.481426
11
1.37294
21
0.47908
0
LINE
8
BLACK
6
CONTINUOUS
10
1.37294
20
0.47908
11
1.38
21
0.478285
0
LINE
8
BLACK
6
CONTINUOUS
10
1.38
20
0.478285
11
1.38706
21
0.47908
0
LINE
8
BLACK
6
CONTINUOUS
10
1.38706
20
0.47908
11
1.39376
21
0.481426
0
LINE
8
BLACK
6
CONTINUOUS
10
1.39376
20
0.481426
11
1.39977
21
0.485204
0
LINE
8
BLACK
6
CONTINUOUS
10
1.39977
20
0.485204
11
1.4048
21
0.490226
0
LINE
8
BLACK
6
CONTINUOUS
10
1.4048
20
0.490226
11
1.40857
21
0.496239
0
LINE
8
BLACK
6
CONTINUOUS
10
1.40857
20
0.496239
11
1.41092
21
0.502943
0
LINE
8
BLACK
6
CONTINUOUS
10
1.41092
20
0.502943
11
1.41172
21
0.51
0
LINE
8
BLACK
6
CONTINUOUS
10
1.41172
20
0.51
11
1.41092
21
0.517057
0
LINE
8
BLACK
6
CONTINUOUS
10
1.41092
20
0.517057
11
1.40857
21
0.523761
0
LINE
8
BLACK
6
CONTINUOUS
10
1.40857
20
0.523761
11
1.40857
21
0.523761
0
LINE
8
BLACK
6
CONTINUOUS
10
1.40857
20
0.523761
11
1.40857
21
0.523761
0
LINE
8
BLACK
6
CONTINUOUS
10
1.40857
20
0.523761
11
1.4048
21
0.529774
0
LINE
8
BLACK
6
CONTINUOUS
10
1.4048
20
0.529774
11
1.4048
21
0.529774
0
LINE
8
BLACK
6
CONTINUOUS
10
1.4048
20
0.529774
11
1.39977
21
0.534796
0
LINE
8
BLACK
6
CONTINUOUS
10
1.39977
20
0.534796
11
1.39977
21
0.534796
0
LINE
8
BLACK
6
CONTINUOUS
10
1.39977
20
0.534796
11
1.39376
21
0.538574
0
LINE
8
BLACK
6
CONTINUOUS
10
1.39376
20
0.538574
11
1.39376
21
0.538574
0
LINE
8
BLACK
6
CONTINUOUS
10
1.39376
20
0.538574
11
1.38706
21
0.54092
0
LINE
8
BLACK
6
CONTINUOUS
10
1.38706
20
0.54092
11
1.38706
21
0.54092
0
LINE
8
BLACK
6
CONTINUOUS
10
1.38706
20
0.54092
11
1.38523
21
0.541126
0
LINE
8
BLACK
6
CONTINUOUS
10
1.38523
20
0.541126
11
1.38265
21
0.542209
0
LINE
8
BLACK
6
CONTINUOUS
10
1.38265
20
0.542209
11
1.38228
21
0.542548
0
LINE
8
BLACK
6
CONTINUOUS
10
1.38228
20
0.542548
11
1.37972
21
0.545104
0
LINE
8
BLACK
6
CONTINUOUS
10
1.37972
20
0.545104
11
1.37933
21
0.545589
0
LINE
8
BLACK
6
CONTINUOUS
10
1.37933
20
0.545589
11
1.37932
21
0.545582
0
LINE
8
BLACK
6
CONTINUOUS
10
1.37932
20
0.545582
11
1.37913
21
0.545822
0
LINE
8
BLACK
6
CONTINUOUS
10
1.37913
20
0.545822
11
1.37714
21
0.547686
0
LINE
8
BLACK
6
CONTINUOUS
10
1.37714
20
0.547686
11
1.37632
21
0.548508
0
LINE
8
BLACK
6
CONTINUOUS
10
1.37632
20
0.548508
11
1.37632
21
0.548509
0
LINE
8
BLACK
6
CONTINUOUS
10
1.37632
20
0.548509
11
1.3761
21
0.548675
0
LINE
8
BLACK
6
CONTINUOUS
10
1.3761
20
0.548675
11
1.37593
21
0.548827
0
LINE
8
BLACK
6
CONTINUOUS
10
1.37593
20
0.548827
11
1.37459
21
0.550081
0
LINE
8
BLACK
6
CONTINUOUS
10
1.37459
20
0.550081
11
1.37459
21
0.550081
0
LINE
8
BLACK
6
CONTINUOUS
10
1.37459
20
0.550081
11
1.3739
21
0.550458
0
LINE
8
BLACK
6
CONTINUOUS
10
1.3739
20
0.550458
11
1.37325
21
0.550886
0
LINE
8
BLACK
6
CONTINUOUS
10
1.37325
20
0.550886
11
1.37264
21
0.551365
0
LINE
8
BLACK
6
CONTINUOUS
10
1.37264
20
0.551365
11
1.37264
21
0.551365
0
LINE
8
BLACK
6
CONTINUOUS
10
1.37264
20
0.551365
11
1.37176
21
0.551746
0
LINE
8
BLACK
6
CONTINUOUS
10
1.37176
20
0.551746
11
1.37095
21
0.552093
0
LINE
8
BLACK
6
CONTINUOUS
10
1.37095
20
0.552093
11
1.37074
21
0.552196
0
LINE
8
BLACK
6
CONTINUOUS
10
1.37074
20
0.552196
11
1.36914
21
0.553079
0
LINE
8
BLACK
6
CONTINUOUS
10
1.36914
20
0.553079
11
1.36914
21
0.553079
0
LINE
8
BLACK
6
CONTINUOUS
10
1.36914
20
0.553079
11
1.36838
21
0.553273
0
LINE
8
BLACK
6
CONTINUOUS
10
1.36838
20
0.553273
11
1.36764
21
0.553525
0
LINE
8
BLACK
6
CONTINUOUS
10
1.36764
20
0.553525
11
1.36693
21
0.553836
0
LINE
8
BLACK
6
CONTINUOUS
10
1.36693
20
0.553836
11
1.36692
21
0.553836
0
LINE
8
BLACK
6
CONTINUOUS
10
1.36692
20
0.553836
11
1.36512
21
0.554123
0
LINE
8
BLACK
6
CONTINUOUS
10
1.36512
20
0.554123
11
1.36489
21
0.55417
0
LINE
8
BLACK
6
CONTINUOUS
10
1.36489
20
0.55417
11
1.36311
21
0.554626
0
LINE
8
BLACK
6
CONTINUOUS
10
1.36311
20
0.554626
11
1.36311
21
0.554626
0
LINE
8
BLACK
6
CONTINUOUS
10
1.36311
20
0.554626
11
1.36233
21
0.554626
0
LINE
8
BLACK
6
CONTINUOUS
10
1.36233
20
0.554626
11
1.36155
21
0.554687
0
LINE
8
BLACK
6
CONTINUOUS
10
1.36155
20
0.554687
11
1.36078
21
0.554809
0
LINE
8
BLACK
6
CONTINUOUS
10
1.36078
20
0.554809
11
1.36078
21
0.554809
0
LINE
8
BLACK
6
CONTINUOUS
10
1.36078
20
0.554809
11
1.35896
21
0.554637
0
LINE
8
BLACK
6
CONTINUOUS
10
1.35896
20
0.554637
11
1.35872
21
0.554626
0
LINE
8
BLACK
6
CONTINUOUS
10
1.35872
20
0.554626
11
1.04073
21
0.554626
0
LINE
8
BLACK
6
CONTINUOUS
10
1.04073
20
0.554626
11
1.03805
21
0.555413
0
LINE
8
BLACK
6
CONTINUOUS
10
1.03805
20
0.555413
11
1.03622
21
0.557526
0
LINE
8
BLACK
6
CONTINUOUS
10
1.03622
20
0.557526
11
1.03577
21
0.559587
0
LINE
8
BLACK
6
CONTINUOUS
10
1.03577
20
0.559587
11
1.03577
21
0.561241
0
LINE
8
BLACK
6
CONTINUOUS
10
1.03577
20
0.561241
11
1.03573
21
0.561491
0
LINE
8
BLACK
6
CONTINUOUS
10
1.03573
20
0.561491
11
1.03518
21
0.564933
0
LINE
8
BLACK
6
CONTINUOUS
10
1.03518
20
0.564933
11
1.03365
21
0.567943
0
LINE
8
BLACK
6
CONTINUOUS
10
1.03365
20
0.567943
11
1.03292
21
0.569384
0
LINE
8
BLACK
6
CONTINUOUS
10
1.03292
20
0.569384
11
1.02938
21
0.572915
0
LINE
8
BLACK
6
CONTINUOUS
10
1.02938
20
0.572915
11
1.02493
21
0.575183
0
LINE
8
BLACK
6
CONTINUOUS
10
1.02493
20
0.575183
11
1.02463
21
0.575282
0
LINE
8
BLACK
6
CONTINUOUS
10
1.02463
20
0.575282
11
1.02232
21
0.57686
0
LINE
8
BLACK
6
CONTINUOUS
10
1.02232
20
0.57686
11
1.02123
21
0.579434
0
LINE
8
BLACK
6
CONTINUOUS
10
1.02123
20
0.579434
11
1.02171
21
0.582189
0
LINE
8
BLACK
6
CONTINUOUS
10
1.02171
20
0.582189
11
1.0236
21
0.584248
0
LINE
8
BLACK
6
CONTINUOUS
10
1.0236
20
0.584248
11
1.02463
21
0.584718
0
LINE
8
BLACK
6
CONTINUOUS
10
1.02463
20
0.584718
11
1.02493
21
0.584817
0
LINE
8
BLACK
6
CONTINUOUS
10
1.02493
20
0.584817
11
1.02493
21
0.584817
0
LINE
8
BLACK
6
CONTINUOUS
10
1.02493
20
0.584817
11
1.02938
21
0.587085
0
LINE
8
BLACK
6
CONTINUOUS
10
1.02938
20
0.587085
11
1.03292
21
0.590616
0
LINE
8
BLACK
6
CONTINUOUS
10
1.03292
20
0.590616
11
1.03518
21
0.595067
0
LINE
8
BLACK
6
CONTINUOUS
10
1.03518
20
0.595067
11
1.03577
21
0.598759
0
LINE
8
BLACK
6
CONTINUOUS
10
1.03577
20
0.598759
11
1.03577
21
0.661241
0
LINE
8
BLACK
6
CONTINUOUS
10
1.03577
20
0.661241
11
1.03518
21
0.664933
0
LINE
8
BLACK
6
CONTINUOUS
10
1.03518
20
0.664933
11
1.03405
21
0.667158
0
LINE
8
BLACK
6
CONTINUOUS
10
1.03405
20
0.667158
11
1.03292
21
0.669384
0
LINE
8
BLACK
6
CONTINUOUS
10
1.03292
20
0.669384
11
1.02938
21
0.672915
0
LINE
8
BLACK
6
CONTINUOUS
10
1.02938
20
0.672915
11
1.02565
21
0.674817
0
LINE
8
BLACK
6
CONTINUOUS
10
1.02565
20
0.674817
11
1.02493
21
0.675183
0
LINE
8
BLACK
6
CONTINUOUS
10
1.02493
20
0.675183
11
1.02124
21
0.675768
0
LINE
8
BLACK
6
CONTINUOUS
10
1.02124
20
0.675768
11
1.02124
21
0.675768
0
LINE
8
BLACK
6
CONTINUOUS
10
1.02124
20
0.675768
11
0.958759
21
0.675768
0
LINE
8
BLACK
6
CONTINUOUS
10
0.958759
20
0.675768
11
0.955067
21
0.675183
0
LINE
8
BLACK
6
CONTINUOUS
10
0.955067
20
0.675183
11
0.950616
21
0.672915
0
LINE
8
BLACK
6
CONTINUOUS
10
0.950616
20
0.672915
11
0.947085
21
0.669384
0
LINE
8
BLACK
6
CONTINUOUS
10
0.947085
20
0.669384
11
0.944817
21
0.664933
0
LINE
8
BLACK
6
CONTINUOUS
10
0.944817
20
0.664933
11
0.944718
21
0.664628
0
LINE
8
BLACK
6
CONTINUOUS
10
0.944718
20
0.664628
11
0.94314
21
0.66232
0
LINE
8
BLACK
6
CONTINUOUS
10
0.94314
20
0.66232
11
0.940565
21
0.661232
0
LINE
8
BLACK
6
CONTINUOUS
10
0.940565
20
0.661232
11
0.937811
21
0.661709
0
LINE
8
BLACK
6
CONTINUOUS
10
0.937811
20
0.661709
11
0.935752
21
0.663599
0
LINE
8
BLACK
6
CONTINUOUS
10
0.935752
20
0.663599
11
0.935282
21
0.664628
0
LINE
8
BLACK
6
CONTINUOUS
10
0.935282
20
0.664628
11
0.935183
21
0.664933
0
LINE
8
BLACK
6
CONTINUOUS
10
0.935183
20
0.664933
11
0.932915
21
0.669384
0
LINE
8
BLACK
6
CONTINUOUS
10
0.932915
20
0.669384
11
0.929384
21
0.672915
0
LINE
8
BLACK
6
CONTINUOUS
10
0.929384
20
0.672915
11
0.925651
21
0.674817
0
LINE
8
BLACK
6
CONTINUOUS
10
0.925651
20
0.674817
11
0.924933
21
0.675183
0
LINE
8
BLACK
6
CONTINUOUS
10
0.924933
20
0.675183
11
0.921241
21
0.675768
0
LINE
8
BLACK
6
CONTINUOUS
10
0.921241
20
0.675768
11
0.921241
21
0.675768
0
LINE
8
BLACK
6
CONTINUOUS
10
0.921241
20
0.675768
11
0.858759
21
0.675768
0
LINE
8
BLACK
6
CONTINUOUS
10
0.858759
20
0.675768
11
0.855067
21
0.675183
0
LINE
8
BLACK
6
CONTINUOUS
10
0.63408
20
0.567943
11
0.63408
21
0.567943
0
LINE
8
BLACK
6
CONTINUOUS
10
0.63408
20
0.567943
11
0.636425
21
0.561239
0
LINE
8
BLACK
6
CONTINUOUS
10
0.636425
20
0.561239
11
0.636425
21
0.561239
0
LINE
8
BLACK
6
CONTINUOUS
10
0.636425
20
0.561239
11
0.640204
21
0.555226
0
LINE
8
BLACK
6
CONTINUOUS
10
0.640204
20
0.555226
11
0.640204
21
0.555226
0
LINE
8
BLACK
6
CONTINUOUS
10
0.640204
20
0.555226
11
0.645226
21
0.550204
0
LINE
8
BLACK
6
CONTINUOUS
10
0.645226
20
0.550204
11
0.645226
21
0.550204
0
LINE
8
BLACK
6
CONTINUOUS
10
0.645226
20
0.550204
11
0.651239
21
0.546426
0
LINE
8
BLACK
6
CONTINUOUS
10
0.651239
20
0.546426
11
0.651239
21
0.546426
0
LINE
8
BLACK
6
CONTINUOUS
10
0.651239
20
0.546426
11
0.651239
21
0.546426
0
LINE
8
BLACK
6
CONTINUOUS
10
0.651239
20
0.546426
11
0.657942
21
0.54408
0
LINE
8
BLACK
6
CONTINUOUS
10
0.657942
20
0.54408
11
0.665
21
0.543285
0
LINE
8
BLACK
6
CONTINUOUS
10
0.665
20
0.543285
11
0.672057
21
0.54408
0
LINE
8
BLACK
6
CONTINUOUS
10
0.672057
20
0.54408
11
0.67876
21
0.546426
0
LINE
8
BLACK
6
CONTINUOUS
10
0.67876
20
0.546426
11
0.684774
21
0.550204
0
LINE
8
BLACK
6
CONTINUOUS
10
0.684774
20
0.550204
11
0.689796
21
0.555226
0
LINE
8
BLACK
6
CONTINUOUS
10
0.689796
20
0.555226
11
0.693574
21
0.561239
0
LINE
8
BLACK
6
CONTINUOUS
10
0.693574
20
0.561239
11
0.693574
21
0.56124
0
LINE
8
BLACK
6
CONTINUOUS
10
0.693574
20
0.56124
11
0.693574
21
0.56124
0
LINE
8
BLACK
6
CONTINUOUS
10
0.693574
20
0.56124
11
0.693695
21
0.561491
0
LINE
8
BLACK
6
CONTINUOUS
10
0.693695
20
0.561491
11
0.693772
21
0.561454
0
LINE
8
BLACK
6
CONTINUOUS
10
0.693772
20
0.561454
11
0.69467
21
0.562884
0
LINE
8
BLACK
6
CONTINUOUS
10
0.69467
20
0.562884
11
0.917823
21
0.786037
0
LINE
8
BLACK
6
CONTINUOUS
10
0.917823
20
0.786037
11
0.920277
21
0.787377
0
LINE
8
BLACK
6
CONTINUOUS
10
0.920277
20
0.787377
11
0.921331
21
0.78749
0
LINE
8
BLACK
6
CONTINUOUS
10
0.921331
20
0.78749
11
1.33521
21
0.78749
0
LINE
8
BLACK
6
CONTINUOUS
10
1.33521
20
0.78749
11
1.33685
21
0.787212
0
LINE
8
BLACK
6
CONTINUOUS
10
1.33685
20
0.787212
11
1.33998
21
0.786117
0
LINE
8
BLACK
6
CONTINUOUS
10
1.33998
20
0.786117
11
1.34704
21
0.785322
0
LINE
8
BLACK
6
CONTINUOUS
10
1.34704
20
0.785322
11
1.35409
21
0.786117
0
LINE
8
BLACK
6
CONTINUOUS
10
1.35409
20
0.786117
11
1.35722
21
0.787212
0
LINE
8
BLACK
6
CONTINUOUS
10
1.35722
20
0.787212
11
1.35886
21
0.78749
0
LINE
8
BLACK
6
CONTINUOUS
10
1.35886
20
0.78749
11
1.36867
21
0.78749
0
LINE
8
BLACK
6
CONTINUOUS
10
1.36867
20
0.78749
11
1.37135
21
0.786703
0
LINE
8
BLACK
6
CONTINUOUS
10
1.37135
20
0.786703
11
1.37218
21
0.786037
0
LINE
8
BLACK
6
CONTINUOUS
10
1.37218
20
0.786037
11
1.67033
21
0.487884
0
LINE
8
BLACK
6
CONTINUOUS
10
1.67033
20
0.487884
11
1.67123
21
0.486454
0
LINE
8
BLACK
6
CONTINUOUS
10
1.67123
20
0.486454
11
1.6713
21
0.48649
0
LINE
8
BLACK
6
CONTINUOUS
10
1.6713
20
0.48649
11
1.67143
21
0.486239
0
LINE
8
BLACK
6
CONTINUOUS
10
1.67143
20
0.486239
11
1.6752
21
0.480226
0
LINE
8
BLACK
6
CONTINUOUS
10
1.6752
20
0.480226
11
1.6752
21
0.480226
0
LINE
8
BLACK
6
CONTINUOUS
10
1.6752
20
0.480226
11
1.68023
21
0.475204
0
LINE
8
BLACK
6
CONTINUOUS
10
1.68023
20
0.475204
11
1.68023
21
0.475204
0
LINE
8
BLACK
6
CONTINUOUS
10
1.68023
20
0.475204
11
1.68624
21
0.471426
0
LINE
8
BLACK
6
CONTINUOUS
10
1.68624
20
0.471426
11
1.68624
21
0.471426
0
LINE
8
BLACK
6
CONTINUOUS
10
1.68624
20
0.471426
11
1.68624
21
0.471426
0
LINE
8
BLACK
6
CONTINUOUS
10
1.68624
20
0.471426
11
1.69294
21
0.46908
0
LINE
8
BLACK
6
CONTINUOUS
10
1.69294
20
0.46908
11
1.7
21
0.468285
0
LINE
8
BLACK
6
CONTINUOUS
10
1.7
20
0.468285
11
1.70706
21
0.46908
0
LINE
8
BLACK
6
CONTINUOUS
10
1.70706
20
0.46908
11
1.71376
21
0.471426
0
LINE
8
BLACK
6
CONTINUOUS
10
1.71376
20
0.471426
11
1.71977
21
0.475204
0
LINE
8
BLACK
6
CONTINUOUS
10
1.71977
20
0.475204
11
1.7248
21
0.480226
0
LINE
8
BLACK
6
CONTINUOUS
10
1.7248
20
0.480226
11
1.72857
21
0.486239
0
LINE
8
BLACK
6
CONTINUOUS
10
1.72857
20
0.486239
11
1.73092
21
0.492943
0
LINE
8
BLACK
6
CONTINUOUS
10
1.73092
20
0.492943
11
1.73172
21
0.5
0
LINE
8
BLACK
6
CONTINUOUS
10
1.73172
20
0.5
11
1.73092
21
0.507057
0
LINE
8
BLACK
6
CONTINUOUS
10
1.73092
20
0.507057
11
1.72857
21
0.513761
0
LINE
8
BLACK
6
CONTINUOUS
10
1.72857
20
0.513761
11
1.72857
21
0.513761
0
LINE
8
BLACK
6
CONTINUOUS
10
1.72857
20
0.513761
11
1.72857
21
0.513761
0
LINE
8
BLACK
6
CONTINUOUS
10
1.72857
20
0.513761
11
1.7248
21
0.519774
0
LINE
8
BLACK
6
CONTINUOUS
10
1.7248
20
0.519774
11
1.7248
21
0.519774
0
LINE
8
BLACK
6
CONTINUOUS
10
1.7248
20
0.519774
11
1.71977
21
0.524796
0
LINE
8
BLACK
6
CONTINUOUS
10
1.71977
20
0.524796
11
1.71977
21
0.524796
0
LINE
8
BLACK
6
CONTINUOUS
10
1.71977
20
0.524796
11
1.71376
21
0.528574
0
LINE
8
BLACK
6
CONTINUOUS
10
1.71376
20
0.528574
11
1.71351
21
0.528695
0
LINE
8
BLACK
6
CONTINUOUS
10
1.71351
20
0.528695
11
1.71355
21
0.528771
0
LINE
8
BLACK
6
CONTINUOUS
10
1.71355
20
0.528771
11
1.71212
21
0.52967
0
LINE
8
BLACK
6
CONTINUOUS
10
1.71212
20
0.52967
11
1.49303
21
0.748759
0
LINE
8
BLACK
6
CONTINUOUS
10
1.49303
20
0.748759
11
1.43279
21
0.808992
0
LINE
8
BLACK
6
CONTINUOUS
10
1.43279
20
0.808992
11
1.43145
21
0.811446
0
LINE
8
BLACK
6
CONTINUOUS
10
1.43145
20
0.811446
11
1.43165
21
0.814234
0
LINE
8
BLACK
6
CONTINUOUS
10
1.43165
20
0.814234
11
1.43279
21
0.816008
0
LINE
8
BLACK
6
CONTINUOUS
10
1.43279
20
0.816008
11
1.54912
21
0.93233
0
LINE
8
BLACK
6
CONTINUOUS
10
1.54912
20
0.93233
11
1.54966
21
0.932801
0
LINE
8
BLACK
6
CONTINUOUS
10
1.54966
20
0.932801
11
1.55041
21
0.933362
0
LINE
8
BLACK
6
CONTINUOUS
10
1.55041
20
0.933362
11
1.55174
21
0.934937
0
LINE
8
BLACK
6
CONTINUOUS
10
1.55174
20
0.934937
11
1.55188
21
0.935096
0
LINE
8
BLACK
6
CONTINUOUS
10
1.55188
20
0.935096
11
1.55211
21
0.935324
0
LINE
8
BLACK
6
CONTINUOUS
10
1.55211
20
0.935324
11
1.55291
21
0.936337
0
LINE
8
BLACK
6
CONTINUOUS
10
1.55291
20
0.936337
11
1.55485
21
0.938653
0
LINE
8
BLACK
6
CONTINUOUS
10
1.55485
20
0.938653
11
1.55501
21
0.938895
0
LINE
8
BLACK
6
CONTINUOUS
10
1.55501
20
0.938895
11
1.55502
21
0.938893
0
LINE
8
BLACK
6
CONTINUOUS
10
1.55502
20
0.938893
11
1.55517
21
0.939135
0
LINE
8
BLACK
6
CONTINUOUS
10
1.55517
20
0.939135
11
1.55517
21
0.939137
0
LINE
8
BLACK
6
CONTINUOUS
10
1.55517
20
0.939137
11
1.55532
21
0.939383
0
LINE
8
BLACK
6
CONTINUOUS
10
1.55532
20
0.939383
11
1.55532
21
0.939383
0
LINE
8
BLACK
6
CONTINUOUS
10
1.55532
20
0.939383
11
1.55532
21
0.939383
0
LINE
8
BLACK
6
CONTINUOUS
10
1.55532
20
0.939383
11
1.5566
21
0.942124
0
LINE
8
BLACK
6
CONTINUOUS
10
1.5566
20
0.942124
11
1.55795
21
0.944826
0
LINE
8
BLACK
6
CONTINUOUS
10
1.55795
20
0.944826
11
1.55795
21
0.944826
0
LINE
8
BLACK
6
CONTINUOUS
10
1.55795
20
0.944826
11
1.55805
21
0.945097
0
LINE
8
BLACK
6
CONTINUOUS
10
1.55805
20
0.945097
11
1.55806
21
0.945096
0
LINE
8
BLACK
6
CONTINUOUS
10
1.55806
20
0.945096
11
1.55815
21
0.945368
0
LINE
8
BLACK
6
CONTINUOUS
10
1.55815
20
0.945368
11
1.55815
21
0.945369
0
LINE
8
BLACK
6
CONTINUOUS
10
1.55815
20
0.945369
11
1.55824
21
0.945643
0
LINE
8
BLACK
6
CONTINUOUS
10
1.55824
20
0.945643
11
1.55885
21
0.948604
0
LINE
8
BLACK
6
CONTINUOUS
10
1.55885
20
0.948604
11
1.55955
21
0.951547
0
LINE
8
BLACK
6
CONTINUOUS
10
1.55955
20
0.951547
11
1.55958
21
0.951834
0
LINE
8
BLACK
6
CONTINUOUS
10
1.55958
20
0.951834
11
1.55958
21
0.951833
0
LINE
8
BLACK
6
CONTINUOUS
10
1.55958
20
0.951833
11
1.55961
21
0.952119
0
LINE
8
BLACK
6
CONTINUOUS
10
1.55961
20
0.952119
11
1.55961
21
0.95212
0
LINE
8
BLACK
6
CONTINUOUS
10
1.55961
20
0.95212
11
1.55964
21
0.952407
0
LINE
8
BLACK
6
CONTINUOUS
10
1.55964
20
0.952407
11
1.55964
21
0.952407
0
LINE
8
BLACK
6
CONTINUOUS
10
1.55964
20
0.952407
11
1.55955
21
0.955429
0
LINE
8
BLACK
6
CONTINUOUS
10
1.55955
20
0.955429
11
1.55955
21
0.985492
0
LINE
8
BLACK
6
CONTINUOUS
10
1.55955
20
0.985492
11
1.56033
21
0.988174
0
LINE
8
BLACK
6
CONTINUOUS
10
1.56033
20
0.988174
11
1.56245
21
0.990004
0
LINE
8
BLACK
6
CONTINUOUS
10
1.56245
20
0.990004
11
1.56451
21
0.990453
0
LINE
8
BLACK
6
CONTINUOUS
10
1.56451
20
0.990453
11
1.76318
21
0.990453
0
LINE
8
BLACK
6
CONTINUOUS
10
1.76318
20
0.990453
11
1.76482
21
0.990174
0
LINE
8
BLACK
6
CONTINUOUS
10
1.76482
20
0.990174
11
1.76794
21
0.98908
0
LINE
8
BLACK
6
CONTINUOUS
10
1.76794
20
0.98908
11
1.775
21
0.988285
0
LINE
8
BLACK
6
CONTINUOUS
10
1.775
20
0.988285
11
1.78206
21
0.98908
0
LINE
8
BLACK
6
CONTINUOUS
10
1.78206
20
0.98908
11
1.78518
21
0.990174
0
LINE
8
BLACK
6
CONTINUOUS
10
1.78518
20
0.990174
11
1.78682
21
0.990453
0
LINE
8
BLACK
6
CONTINUOUS
10
1.78682
20
0.990453
11
1.93249
21
0.990453
0
LINE
8
BLACK
6
CONTINUOUS
10
1.93249
20
0.990453
11
1.93321
21
0.9904
0
LINE
8
BLACK
6
CONTINUOUS
10
1.93321
20
0.9904
11
1.93342
21
0.990369
0
LINE
8
BLACK
6
CONTINUOUS
10
1.93342
20
0.990369
11
1.93413
21
0.990264
0
LINE
8
BLACK
6
CONTINUOUS
10
1.93413
20
0.990264
11
1.93549
21
0.990383
0
LINE
8
BLACK
6
CONTINUOUS
10
1.93549
20
0.990383
11
1.93618
21
0.990443
0
LINE
8
BLACK
6
CONTINUOUS
10
1.93618
20
0.990443
11
1.9364
21
0.990453
0
LINE
8
BLACK
6
CONTINUOUS
10
1.9364
20
0.990453
11
2.06571
21
0.990453
0
LINE
8
BLACK
6
CONTINUOUS
10
2.06571
20
0.990453
11
2.06839
21
0.989665
0
LINE
8
BLACK
6
CONTINUOUS
10
2.06839
20
0.989665
11
2.06921
21
0.989
0
LINE
8
BLACK
6
CONTINUOUS
10
2.06921
20
0.989
11
2.13033
21
0.927884
0
LINE
8
BLACK
6
CONTINUOUS
10
2.13033
20
0.927884
11
2.13123
21
0.926453
0
LINE
8
BLACK
6
CONTINUOUS
10
2.13123
20
0.926453
11
2.1313
21
0.92649
0
LINE
8
BLACK
6
CONTINUOUS
10
2.1313
20
0.92649
11
2.13143
21
0.926239
0
LINE
8
BLACK
6
CONTINUOUS
10
2.13143
20
0.926239
11
2.1352
21
0.920226
0
LINE
8
BLACK
6
CONTINUOUS
10
2.1352
20
0.920226
11
2.1352
21
0.920226
0
LINE
8
BLACK
6
CONTINUOUS
10
2.1352
20
0.920226
11
2.14023
21
0.915204
0
LINE
8
BLACK
6
CONTINUOUS
10
2.14023
20
0.915204
11
2.14023
21
0.915204
0
LINE
8
BLACK
6
CONTINUOUS
10
2.14023
20
0.915204
11
2.14624
21
0.911426
0
LINE
8
BLACK
6
CONTINUOUS
10
2.14624
20
0.911426
11
2.14624
21
0.911426
0
LINE
8
BLACK
6
CONTINUOUS
10
2.14624
20
0.911426
11
2.14624
21
0.911426
0
LINE
8
BLACK
6
CONTINUOUS
10
2.14624
20
0.911426
11
2.15294
21
0.90908
0
LINE
8
BLACK
6
CONTINUOUS
10
2.15294
20
0.90908
11
2.16
21
0.908285
0
LINE
8
BLACK
6
CONTINUOUS
10
2.16
20
0.908285
11
2.16706
21
0.90908
0
LINE
8
BLACK
6
CONTINUOUS
10
2.16706
20
0.90908
11
2.17376
21
0.911426
0
LINE
8
BLACK
6
CONTINUOUS
10
2.17376
20
0.911426
11
2.17977
21
0.915204
0
LINE
8
BLACK
6
CONTINUOUS
10
2.17977
20
0.915204
11
2.1848
21
0.920226
0
LINE
8
BLACK
6
CONTINUOUS
10
2.1848
20
0.920226
11
2.18857
21
0.926239
0
LINE
8
BLACK
6
CONTINUOUS
10
2.18857
20
0.926239
11
2.19092
21
0.932943
0
LINE
8
BLACK
6
CONTINUOUS
10
2.19092
20
0.932943
11
2.19172
21
0.94
0
LINE
8
BLACK
6
CONTINUOUS
10
2.19172
20
0.94
11
2.19092
21
0.947057
0
LINE
8
BLACK
6
CONTINUOUS
10
2.19092
20
0.947057
11
2.18857
21
0.953761
0
LINE
8
BLACK
6
CONTINUOUS
10
2.18857
20
0.953761
11
2.18857
21
0.953761
0
LINE
8
BLACK
6
CONTINUOUS
10
2.18857
20
0.953761
11
2.18857
21
0.953761
0
LINE
8
BLACK
6
CONTINUOUS
10
2.18857
20
0.953761
11
2.1848
21
0.959774
0
LINE
8
BLACK
6
CONTINUOUS
10
2.1848
20
0.959774
11
2.1848
21
0.959774
0
LINE
8
BLACK
6
CONTINUOUS
10
2.1848
20
0.959774
11
2.17977
21
0.964796
0
LINE
8
BLACK
6
CONTINUOUS
10
2.17977
20
0.964796
11
2.17977
21
0.964796
0
LINE
8
BLACK
6
CONTINUOUS
10
2.17977
20
0.964796
11
2.17376
21
0.968574
0
LINE
8
BLACK
6
CONTINUOUS
10
2.17376
20
0.968574
11
2.17351
21
0.968695
0
LINE
8
BLACK
6
CONTINUOUS
10
2.17351
20
0.968695
11
2.17355
21
0.968771
0
LINE
8
BLACK
6
CONTINUOUS
10
2.17355
20
0.968771
11
2.17212
21
0.969671
0
LINE
8
BLACK
6
CONTINUOUS
10
2.17212
20
0.969671
11
2.10267
21
1.03912
0
LINE
8
BLACK
6
CONTINUOUS
10
2.10267
20
1.03912
11
2.1022
21
1.03966
0
LINE
8
BLACK
6
CONTINUOUS
10
2.1022
20
1.03966
11
2.10164
21
1.04041
0
LINE
8
BLACK
6
CONTINUOUS
10
2.10164
20
1.04041
11
2.10006
21
1.04174
0
LINE
8
BLACK
6
CONTINUOUS
10
2.10006
20
1.04174
11
2.09991
21
1.04188
0
LINE
8
BLACK
6
CONTINUOUS
10
2.09991
20
1.04188
11
2.09968
21
1.04211
0
LINE
8
BLACK
6
CONTINUOUS
10
2.09968
20
1.04211
11
2.09866
21
1.04291
0
LINE
8
BLACK
6
CONTINUOUS
10
2.09866
20
1.04291
11
2.09866
21
1.04291
0
LINE
8
BLACK
6
CONTINUOUS
10
2.09866
20
1.04291
11
2.09635
21
1.04485
0
LINE
8
BLACK
6
CONTINUOUS
10
2.09635
20
1.04485
11
2.09611
21
1.04501
0
LINE
8
BLACK
6
CONTINUOUS
10
2.09611
20
1.04501
11
2.09611
21
1.04502
0
LINE
8
BLACK
6
CONTINUOUS
10
2.09611
20
1.04502
11
2.09586
21
1.04517
0
LINE
8
BLACK
6
CONTINUOUS
10
2.09586
20
1.04517
11
2.09586
21
1.04517
0
LINE
8
BLACK
6
CONTINUOUS
10
2.09586
20
1.04517
11
2.09562
21
1.04532
0
LINE
8
BLACK
6
CONTINUOUS
10
2.09562
20
1.04532
11
2.09288
21
1.0466
0
LINE
8
BLACK
6
CONTINUOUS
10
2.09288
20
1.0466
11
2.09017
21
1.04795
0
LINE
8
BLACK
6
CONTINUOUS
10
2.09017
20
1.04795
11
2.09017
21
1.04795
0
LINE
8
BLACK
6
CONTINUOUS
10
2.09017
20
1.04795
11
2.09017
21
1.04795
0
LINE
8
BLACK
6
CONTINUOUS
10
2.09017
20
1.04795
11
2.09017
21
1.04795
0
LINE
8
BLACK
6
CONTINUOUS
10
2.09017
20
1.04795
11
2.0899
21
1.04805
0
LINE
8
BLACK
6
CONTINUOUS
10
2.0899
20
1.04805
11
2.0899
21
1.04806
0
LINE
8
BLACK
6
CONTINUOUS
10
2.0899
20
1.04806
11
2.08963
21
1.04815
0
LINE
8
BLACK
6
CONTINUOUS
10
2.08963
20
1.04815
11
2.08963
21
1.04815
0
LINE
8
BLACK
6
CONTINUOUS
10
2.08963
20
1.04815
11
2.08936
21
1.04824
0
LINE
8
BLACK
6
CONTINUOUS
10
2.08936
20
1.04824
11
2.08936
21
1.04824
0
LINE
8
BLACK
6
CONTINUOUS
10
2.08936
20
1.04824
11
2.08936
21
1.04824
0
LINE
8
BLACK
6
CONTINUOUS
10
2.08936
20
1.04824
11
2.08936
21
1.04824
0
LINE
8
BLACK
6
CONTINUOUS
10
2.08936
20
1.04824
11
2.0864
21
1.04885
0
LINE
8
BLACK
6
CONTINUOUS
10
2.0864
20
1.04885
11
2.08345
21
1.04955
0
LINE
8
BLACK
6
CONTINUOUS
10
2.08345
20
1.04955
11
2.08317
21
1.04958
0
LINE
8
BLACK
6
CONTINUOUS
10
2.08317
20
1.04958
11
2.08317
21
1.04958
0
LINE
8
BLACK
6
CONTINUOUS
10
2.08317
20
1.04958
11
2.08288
21
1.04961
0
LINE
8
BLACK
6
CONTINUOUS
10
2.08288
20
1.04961
11
2.08288
21
1.04961
0
LINE
8
BLACK
6
CONTINUOUS
10
2.08288
20
1.04961
11
2.08259
21
1.04964
0
LINE
8
BLACK
6
CONTINUOUS
10
2.08259
20
1.04964
11
2.08259
21
1.04964
0
LINE
8
BLACK
6
CONTINUOUS
10
2.08259
20
1.04964
11
2.07957
21
1.04955
0
LINE
8
BLACK
6
CONTINUOUS
10
2.07957
20
1.04955
11
1.97063
21
1.04955
0
LINE
8
BLACK
6
CONTINUOUS
10
1.97063
20
1.04955
11
1.96795
21
1.05033
0
LINE
8
BLACK
6
CONTINUOUS
10
1.96795
20
1.05033
11
1.96611
21
1.05245
0
LINE
8
BLACK
6
CONTINUOUS
10
1.96611
20
1.05245
11
1.96567
21
1.05451
0
LINE
8
BLACK
6
CONTINUOUS
10
1.96567
20
1.05451
11
1.96567
21
1.29018
0
LINE
8
BLACK
6
CONTINUOUS
10
1.96567
20
1.29018
11
1.96594
21
1.29181
0
LINE
8
BLACK
6
CONTINUOUS
10
1.96594
20
1.29181
11
1.96704
21
1.29494
0
LINE
8
BLACK
6
CONTINUOUS
10
1.96704
20
1.29494
11
1.96783
21
1.302
0
LINE
8
BLACK
6
CONTINUOUS
10
1.96783
20
1.302
11
1.96704
21
1.30906
0
LINE
8
BLACK
6
CONTINUOUS
10
1.96704
20
1.30906
11
1.96469
21
1.31576
0
LINE
8
BLACK
6
CONTINUOUS
10
1.96469
20
1.31576
11
1.96469
21
1.31576
0
LINE
8
BLACK
6
CONTINUOUS
10
1.96469
20
1.31576
11
1.96469
21
1.31576
0
LINE
8
BLACK
6
CONTINUOUS
10
1.96469
20
1.31576
11
1.96092
21
1.32177
0
LINE
8
BLACK
6
CONTINUOUS
10
1.96092
20
1.32177
11
1.96092
21
1.32177
0
LINE
8
BLACK
6
CONTINUOUS
10
1.96092
20
1.32177
11
1.95589
21
1.32679
0
LINE
8
BLACK
6
CONTINUOUS
10
1.95589
20
1.32679
11
1.95589
21
1.32679
0
LINE
8
BLACK
6
CONTINUOUS
10
1.95589
20
1.32679
11
1.94988
21
1.33057
0
LINE
8
BLACK
6
CONTINUOUS
10
1.94988
20
1.33057
11
1.94988
21
1.33057
0
LINE
8
BLACK
6
CONTINUOUS
10
1.94988
20
1.33057
11
1.94794
21
1.33125
0
LINE
8
BLACK
6
CONTINUOUS
10
1.94794
20
1.33125
11
1.94318
21
1.33292
0
LINE
8
BLACK
6
CONTINUOUS
10
1.94318
20
1.33292
11
1.93612
21
1.33371
0
LINE
8
BLACK
6
CONTINUOUS
10
1.93612
20
1.33371
11
1.93612
21
1.33371
0
LINE
8
BLACK
6
CONTINUOUS
10
1.93612
20
1.33371
11
1.93509
21
1.3336
0
LINE
8
BLACK
6
CONTINUOUS
10
1.93509
20
1.3336
11
1.92906
21
1.33292
0
LINE
8
BLACK
6
CONTINUOUS
10
1.92906
20
1.33292
11
1.92906
21
1.33292
0
LINE
8
BLACK
6
CONTINUOUS
10
1.92906
20
1.33292
11
1.92906
21
1.33292
0
LINE
8
BLACK
6
CONTINUOUS
10
1.92906
20
1.33292
11
1.92236
21
1.33057
0
LINE
8
BLACK
6
CONTINUOUS
10
1.92236
20
1.33057
11
1.92236
21
1.33057
0
LINE
8
BLACK
6
CONTINUOUS
10
1.92236
20
1.33057
11
1.91635
21
1.32679
0
LINE
8
BLACK
6
CONTINUOUS
10
1.91635
20
1.32679
11
1.91634
21
1.32679
0
LINE
8
BLACK
6
CONTINUOUS
10
1.91634
20
1.32679
11
1.91132
21
1.32177
0
LINE
8
BLACK
6
CONTINUOUS
10
1.91132
20
1.32177
11
1.91132
21
1.32177
0
LINE
8
BLACK
6
CONTINUOUS
10
1.91132
20
1.32177
11
1.90754
21
1.31576
0
LINE
8
BLACK
6
CONTINUOUS
10
1.90754
20
1.31576
11
1.90754
21
1.31576
0
LINE
8
BLACK
6
CONTINUOUS
10
1.90754
20
1.31576
11
1.9052
21
1.30906
0
LINE
8
BLACK
6
CONTINUOUS
10
1.9052
20
1.30906
11
1.9052
21
1.30906
0
LINE
8
BLACK
6
CONTINUOUS
10
1.9052
20
1.30906
11
1.9044
21
1.302
0
LINE
8
BLACK
6
CONTINUOUS
10
1.9044
20
1.302
11
1.9052
21
1.29494
0
LINE
8
BLACK
6
CONTINUOUS
10
1.9052
20
1.29494
11
1.90612
21
1.29232
0
LINE
8
BLACK
6
CONTINUOUS
10
1.90612
20
1.29232
11
1.90629
21
1.29181
0
LINE
8
BLACK
6
CONTINUOUS
10
1.90629
20
1.29181
11
1.90657
21
1.29018
0
LINE
8
BLACK
6
CONTINUOUS
10
1.90657
20
1.29018
11
1.90657
21
1.05451
0
LINE
8
BLACK
6
CONTINUOUS
10
1.90657
20
1.05451
11
1.90578
21
1.05183
0
LINE
8
BLACK
6
CONTINUOUS
10
1.90578
20
1.05183
11
1.90367
21
1.05
0
LINE
8
BLACK
6
CONTINUOUS
10
1.90367
20
1.05
11
1.90161
21
1.04955
0
LINE
8
BLACK
6
CONTINUOUS
10
1.90161
20
1.04955
11
1.78682
21
1.04955
0
LINE
8
BLACK
6
CONTINUOUS
10
1.78682
20
1.04955
11
1.78518
21
1.04983
0
LINE
8
BLACK
6
CONTINUOUS
10
1.78518
20
1.04983
11
1.78517
21
1.04983
0
LINE
8
BLACK
6
CONTINUOUS
10
1.78517
20
1.04983
11
1.78206
21
1.05092
0
LINE
8
BLACK
6
CONTINUOUS
10
1.78206
20
1.05092
11
1.775
21
1.05172
0
LINE
8
BLACK
6
CONTINUOUS
10
1.775
20
1.05172
11
1.76794
21
1.05092
0
LINE
8
BLACK
6
CONTINUOUS
10
1.76794
20
1.05092
11
1.76483
21
1.04983
0
LINE
8
BLACK
6
CONTINUOUS
10
1.76483
20
1.04983
11
1.76482
21
1.04983
0
LINE
8
BLACK
6
CONTINUOUS
10
1.76482
20
1.04983
11
1.76318
21
1.04955
0
LINE
8
BLACK
6
CONTINUOUS
10
1.76318
20
1.04955
11
1.54429
21
1.04955
0
LINE
8
BLACK
6
CONTINUOUS
10
1.54429
20
1.04955
11
1.54161
21
1.05033
0
LINE
8
BLACK
6
CONTINUOUS
10
1.54161
20
1.05033
11
1.54079
21
1.051
0
LINE
8
BLACK
6
CONTINUOUS
10
1.54079
20
1.051
11
1.5229
21
1.06889
0
LINE
8
BLACK
6
CONTINUOUS
10
1.5229
20
1.06889
11
1.50467
21
1.08712
0
LINE
8
BLACK
6
CONTINUOUS
10
1.50467
20
1.08712
11
1.50377
21
1.08855
0
LINE
8
BLACK
6
CONTINUOUS
10
1.50377
20
1.08855
11
1.5037
21
1.08851
0
LINE
8
BLACK
6
CONTINUOUS
10
1.5037
20
1.08851
11
1.50357
21
1.08876
0
LINE
8
BLACK
6
CONTINUOUS
10
1.50357
20
1.08876
11
1.4998
21
1.09477
0
LINE
8
BLACK
6
CONTINUOUS
10
1.4998
20
1.09477
11
1.4998
21
1.09477
0
LINE
8
BLACK
6
CONTINUOUS
10
1.4998
20
1.09477
11
1.49477
21
1.0998
0
LINE
8
BLACK
6
CONTINUOUS
10
1.49477
20
1.0998
11
1.49477
21
1.0998
0
LINE
8
BLACK
6
CONTINUOUS
10
1.49477
20
1.0998
11
1.48876
21
1.10357
0
LINE
8
BLACK
6
CONTINUOUS
10
1.48876
20
1.10357
11
1.48876
21
1.10357
0
LINE
8
BLACK
6
CONTINUOUS
10
1.48876
20
1.10357
11
1.48823
21
1.10376
0
LINE
8
BLACK
6
CONTINUOUS
10
1.48823
20
1.10376
11
1.48519
21
1.10483
0
LINE
8
BLACK
6
CONTINUOUS
10
1.48519
20
1.10483
11
1.48206
21
1.10592
0
LINE
8
BLACK
6
CONTINUOUS
10
1.48206
20
1.10592
11
1.475
21
1.10672
0
LINE
8
BLACK
6
CONTINUOUS
10
1.475
20
1.10672
11
1.46794
21
1.10592
0
LINE
8
BLACK
6
CONTINUOUS
10
1.46794
20
1.10592
11
1.46794
21
1.10592
0
LINE
8
BLACK
6
CONTINUOUS
10
1.46794
20
1.10592
11
1.46794
21
1.10592
0
LINE
8
BLACK
6
CONTINUOUS
10
1.46794
20
1.10592
11
1.46481
21
1.10483
0
LINE
8
BLACK
6
CONTINUOUS
10
1.46481
20
1.10483
11
1.46318
21
1.10455
0
LINE
8
BLACK
6
CONTINUOUS
10
1.46318
20
1.10455
11
1.32929
21
1.10455
0
LINE
8
BLACK
6
CONTINUOUS
10
1.32929
20
1.10455
11
1.32661
21
1.10533
0
LINE
8
BLACK
6
CONTINUOUS
10
1.32661
20
1.10533
11
1.32579
21
1.106
0
LINE
8
BLACK
6
CONTINUOUS
10
1.32579
20
1.106
11
1.29303
21
1.13876
0
LINE
8
BLACK
6
CONTINUOUS
10
1.29303
20
1.13876
11
1.04179
21
1.39
0
LINE
8
BLACK
6
CONTINUOUS
10
1.04179
20
1.39
11
0.919671
21
1.51212
0
LINE
8
BLACK
6
CONTINUOUS
10
0.919671
20
1.51212
11
0.918772
21
1.51355
0
LINE
8
BLACK
6
CONTINUOUS
10
0.918772
20
1.51355
11
0.918695
21
1.51351
0
LINE
8
BLACK
6
CONTINUOUS
10
0.918695
20
1.51351
11
0.918574
21
1.51376
0
LINE
8
BLACK
6
CONTINUOUS
10
0.918574
20
1.51376
11
0.914796
21
1.51977
0
LINE
8
BLACK
6
CONTINUOUS
10
0.914796
20
1.51977
11
0.914796
21
1.51977
0
LINE
8
BLACK
6
CONTINUOUS
10
0.914796
20
1.51977
11
0.909774
21
1.5248
0
LINE
8
BLACK
6
CONTINUOUS
10
0.909774
20
1.5248
11
0.909774
21
1.5248
0
LINE
8
BLACK
6
CONTINUOUS
10
0.909774
20
1.5248
11
0.903761
21
1.52857
0
LINE
8
BLACK
6
CONTINUOUS
10
0.903761
20
1.52857
11
0.903761
21
1.52857
0
LINE
8
BLACK
6
CONTINUOUS
10
0.903761
20
1.52857
11
0.897057
21
1.53092
0
LINE
8
BLACK
6
CONTINUOUS
10
0.897057
20
1.53092
11
0.89
21
1.53172
0
LINE
8
BLACK
6
CONTINUOUS
10
0.89
20
1.53172
11
0.89
21
1.53172
0
LINE
8
BLACK
6
CONTINUOUS
10
0.89
20
1.53172
11
0.888973
21
1.5316
0
LINE
8
BLACK
6
CONTINUOUS
10
0.888973
20
1.5316
11
0.882943
21
1.53092
0
LINE
8
BLACK
6
CONTINUOUS
10
0.882943
20
1.53092
11
0.882943
21
1.53092
0
LINE
8
BLACK
6
CONTINUOUS
10
0.882943
20
1.53092
11
0.882943
21
1.53092
0
LINE
8
BLACK
6
CONTINUOUS
10
0.882943
20
1.53092
11
0.876239
21
1.52857
0
LINE
8
BLACK
6
CONTINUOUS
10
0.876239
20
1.52857
11
0.876239
21
1.52857
0
LINE
8
BLACK
6
CONTINUOUS
10
0.876239
20
1.52857
11
0.870226
21
1.5248
0
LINE
8
BLACK
6
CONTINUOUS
10
0.870226
20
1.5248
11
0.870226
21
1.5248
0
LINE
8
BLACK
6
CONTINUOUS
10
0.870226
20
1.5248
11
0.865204
21
1.51977
0
LINE
8
BLACK
6
CONTINUOUS
10
0.865204
20
1.51977
11
0.865204
21
1.51977
0
LINE
8
BLACK
6
CONTINUOUS
10
0.865204
20
1.51977
11
0.861426
21
1.51376
0
LINE
8
BLACK
6
CONTINUOUS
10
0.861426
20
1.51376
11
0.861426
21
1.51376
0
LINE
8
BLACK
6
CONTINUOUS
10
0.861426
20
1.51376
11
0.861338
21
1.51351
0
LINE
8
BLACK
6
CONTINUOUS
10
0.861338
20
1.51351
11
0.85908
21
1.50706
0
LINE
8
BLACK
6
CONTINUOUS
10
0.85908
20
1.50706
11
0.858285
21
1.5
0
LINE
8
BLACK
6
CONTINUOUS
10
0.858285
20
1.5
11
0.85908
21
1.49294
0
LINE
8
BLACK
6
CONTINUOUS
10
0.85908
20
1.49294
11
0.85908
21
1.49294
0
LINE
8
BLACK
6
CONTINUOUS
10
0.85908
20
1.49294
11
0.861426
21
1.48624
0
LINE
8
BLACK
6
CONTINUOUS
10
0.861426
20
1.48624
11
0.861426
21
1.48624
0
LINE
8
BLACK
6
CONTINUOUS
10
0.861426
20
1.48624
11
0.865204
21
1.48023
0
LINE
8
BLACK
6
CONTINUOUS
10
0.865204
20
1.48023
11
0.865204
21
1.48023
0
LINE
8
BLACK
6
CONTINUOUS
10
0.865204
20
1.48023
11
0.870226
21
1.4752
0
LINE
8
BLACK
6
CONTINUOUS
10
0.870226
20
1.4752
11
0.870226
21
1.4752
0
LINE
8
BLACK
6
CONTINUOUS
10
0.870226
20
1.4752
11
0.876239
21
1.47143
0
LINE
8
BLACK
6
CONTINUOUS
10
0.876239
20
1.47143
11
0.87649
21
1.4713
0
LINE
8
BLACK
6
CONTINUOUS
10
0.87649
20
1.4713
11
0.876453
21
1.47123
0
LINE
8
BLACK
6
CONTINUOUS
10
0.876453
20
1.47123
11
0.877884
21
1.47033
0
LINE
8
BLACK
6
CONTINUOUS
10
0.877884
20
1.47033
11
1.29233
21
1.05588
0
LINE
8
BLACK
6
CONTINUOUS
10
1.29233
20
1.05588
11
1.2928
21
1.05534
0
LINE
8
BLACK
6
CONTINUOUS
10
1.2928
20
1.05534
11
1.29336
21
1.05459
0
LINE
8
BLACK
6
CONTINUOUS
10
1.29336
20
1.05459
11
1.29494
21
1.05326
0
LINE
8
BLACK
6
CONTINUOUS
10
1.29494
20
1.05326
11
1.29509
21
1.05312
0
LINE
8
BLACK
6
CONTINUOUS
10
1.29509
20
1.05312
11
1.29532
21
1.05289
0
LINE
8
BLACK
6
CONTINUOUS
10
1.29532
20
1.05289
11
1.29532
21
1.05289
0
LINE
8
BLACK
6
CONTINUOUS
10
1.29532
20
1.05289
11
1.29532
21
1.05289
0
LINE
8
BLACK
6
CONTINUOUS
10
1.29532
20
1.05289
11
1.29634
21
1.05209
0
LINE
8
BLACK
6
CONTINUOUS
10
1.29634
20
1.05209
11
1.29865
21
1.05015
0
LINE
8
BLACK
6
CONTINUOUS
10
1.29865
20
1.05015
11
1.29889
21
1.04999
0
LINE
8
BLACK
6
CONTINUOUS
10
1.29889
20
1.04999
11
1.29889
21
1.04998
0
LINE
8
BLACK
6
CONTINUOUS
10
1.29889
20
1.04998
11
1.29914
21
1.04983
0
LINE
8
BLACK
6
CONTINUOUS
10
1.29914
20
1.04983
11
1.29914
21
1.04983
0
LINE
8
BLACK
6
CONTINUOUS
10
1.29914
20
1.04983
11
1.29938
21
1.04968
0
LINE
8
BLACK
6
CONTINUOUS
10
1.29938
20
1.04968
11
1.30212
21
1.0484
0
LINE
8
BLACK
6
CONTINUOUS
10
1.30212
20
1.0484
11
1.30483
21
1.04705
0
LINE
8
BLACK
6
CONTINUOUS
10
1.30483
20
1.04705
11
1.3051
21
1.04695
0
LINE
8
BLACK
6
CONTINUOUS
10
1.3051
20
1.04695
11
1.3051
21
1.04694
0
LINE
8
BLACK
6
CONTINUOUS
10
1.3051
20
1.04694
11
1.30537
21
1.04685
0
LINE
8
BLACK
6
CONTINUOUS
10
1.30537
20
1.04685
11
1.30537
21
1.04685
0
LINE
8
BLACK
6
CONTINUOUS
10
1.30537
20
1.04685
11
1.30564
21
1.04676
0
LINE
8
BLACK
6
CONTINUOUS
10
1.30564
20
1.04676
11
1.30564
21
1.04676
0
LINE
8
BLACK
6
CONTINUOUS
10
1.30564
20
1.04676
11
1.3086
21
1.04615
0
LINE
8
BLACK
6
CONTINUOUS
10
1.3086
20
1.04615
11
1.31155
21
1.04545
0
LINE
8
BLACK
6
CONTINUOUS
10
1.31155
20
1.04545
11
1.31155
21
1.04545
0
LINE
8
BLACK
6
CONTINUOUS
10
1.31155
20
1.04545
11
1.31183
21
1.04542
0
LINE
8
BLACK
6
CONTINUOUS
10
1.31183
20
1.04542
11
1.31183
21
1.04542
0
LINE
8
BLACK
6
CONTINUOUS
10
1.31183
20
1.04542
11
1.31212
21
1.04539
0
LINE
8
BLACK
6
CONTINUOUS
10
1.31212
20
1.04539
11
1.31212
21
1.04539
0
LINE
8
BLACK
6
CONTINUOUS
10
1.31212
20
1.04539
11
1.31241
21
1.04536
0
LINE
8
BLACK
6
CONTINUOUS
10
1.31241
20
1.04536
11
1.31241
21
1.04536
0
LINE
8
BLACK
6
CONTINUOUS
10
1.31241
20
1.04536
11
1.31543
21
1.04545
0
LINE
8
BLACK
6
CONTINUOUS
10
1.31543
20
1.04545
11
1.46071
21
1.04545
0
LINE
8
BLACK
6
CONTINUOUS
10
1.46071
20
1.04545
11
1.46339
21
1.04467
0
LINE
8
BLACK
6
CONTINUOUS
10
1.46339
20
1.04467
11
1.46421
21
1.044
0
LINE
8
BLACK
6
CONTINUOUS
10
1.46421
20
1.044
11
1.499
21
1.00921
0
LINE
8
BLACK
6
CONTINUOUS
10
1.499
20
1.00921
11
1.50034
21
1.00676
0
LINE
8
BLACK
6
CONTINUOUS
10
1.50034
20
1.00676
11
1.50045
21
1.00571
0
LINE
8
BLACK
6
CONTINUOUS
10
1.50045
20
1.00571
11
1.50045
21
0.969294
0
LINE
8
BLACK
6
CONTINUOUS
10
1.50045
20
0.969294
11
1.49967
21
0.966612
0
LINE
8
BLACK
6
CONTINUOUS
10
1.49967
20
0.966612
11
1.499
21
0.965786
0
LINE
8
BLACK
6
CONTINUOUS
10
1.499
20
0.965786
11
1.38125
21
0.848038
0
LINE
8
BLACK
6
CONTINUOUS
10
1.38125
20
0.848038
11
1.3788
21
0.846698
0
LINE
8
BLACK
6
CONTINUOUS
10
1.3788
20
0.846698
11
1.37774
21
0.846585
0
LINE
8
BLACK
6
CONTINUOUS
10
1.37774
20
0.846585
11
1.35886
21
0.846585
0
LINE
8
BLACK
6
CONTINUOUS
10
1.35886
20
0.846585
11
1.35722
21
0.846863
0
LINE
8
BLACK
6
CONTINUOUS
10
1.35722
20
0.846863
11
1.35409
21
0.847957
0
LINE
8
BLACK
6
CONTINUOUS
10
1.35409
20
0.847957
11
1.34704
21
0.848753
0
LINE
8
BLACK
6
CONTINUOUS
10
1.34704
20
0.848753
11
1.34704
21
0.848753
0
LINE
8
BLACK
6
CONTINUOUS
10
1.34704
20
0.848753
11
1.34601
21
0.848637
0
LINE
8
BLACK
6
CONTINUOUS
10
1.34601
20
0.848637
11
1.33998
21
0.847957
0
LINE
8
BLACK
6
CONTINUOUS
10
1.33998
20
0.847957
11
1.33998
21
0.847957
0
LINE
8
BLACK
6
CONTINUOUS
10
1.33998
20
0.847957
11
1.33998
21
0.847957
0
LINE
8
BLACK
6
CONTINUOUS
10
1.33998
20
0.847957
11
1.33685
21
0.846863
0
LINE
8
BLACK
6
CONTINUOUS
10
1.33685
20
0.846863
11
1.33521
21
0.846585
0
LINE
8
BLACK
6
CONTINUOUS
10
1.33521
20
0.846585
11
0.909551
21
0.846585
0
LINE
8
BLACK
6
CONTINUOUS
10
0.909551
20
0.846585
11
0.908832
21
0.846637
0
LINE
8
BLACK
6
CONTINUOUS
10
0.908832
20
0.846637
11
0.907903
21
0.846773
0
LINE
8
BLACK
6
CONTINUOUS
10
0.907903
20
0.846773
11
0.907903
21
0.846773
0
LINE
8
BLACK
6
CONTINUOUS
10
0.907903
20
0.846773
11
0.907653
21
0.846751
0
LINE
8
BLACK
6
CONTINUOUS
10
0.907653
20
0.846751
11
0.905855
21
0.846594
0
LINE
8
BLACK
6
CONTINUOUS
10
0.905855
20
0.846594
11
0.905639
21
0.846585
0
LINE
8
BLACK
6
CONTINUOUS
10
0.905639
20
0.846585
11
0.905316
21
0.846585
0
LINE
8
BLACK
6
CONTINUOUS
10
0.905316
20
0.846585
11
0.904034
21
0.846435
0
LINE
8
BLACK
6
CONTINUOUS
10
0.904034
20
0.846435
11
0.901022
21
0.846171
0
LINE
8
BLACK
6
CONTINUOUS
10
0.901022
20
0.846171
11
0.900739
21
0.846113
0
LINE
8
BLACK
6
CONTINUOUS
10
0.900739
20
0.846113
11
0.900738
21
0.846116
0
LINE
8
BLACK
6
CONTINUOUS
10
0.900738
20
0.846116
11
0.900457
21
0.846054
0
LINE
8
BLACK
6
CONTINUOUS
10
0.900457
20
0.846054
11
0.900458
21
0.846051
0
LINE
8
BLACK
6
CONTINUOUS
10
0.900458
20
0.846051
11
0.900177
21
0.845984
0
LINE
8
BLACK
6
CONTINUOUS
10
0.900177
20
0.845984
11
0.897336
21
0.84495
0
LINE
8
BLACK
6
CONTINUOUS
10
0.897336
20
0.84495
11
0.894465
21
0.843999
0
LINE
8
BLACK
6
CONTINUOUS
10
0.894465
20
0.843999
11
0.894204
21
0.843877
0
LINE
8
BLACK
6
CONTINUOUS
10
0.894204
20
0.843877
11
0.894202
21
0.843879
0
LINE
8
BLACK
6
CONTINUOUS
10
0.894202
20
0.843879
11
0.893943
21
0.843754
0
LINE
8
BLACK
6
CONTINUOUS
10
0.893943
20
0.843754
11
0.893944
21
0.843751
0
LINE
8
BLACK
6
CONTINUOUS
10
0.893944
20
0.843751
11
0.893686
21
0.843621
0
LINE
8
BLACK
6
CONTINUOUS
10
0.893686
20
0.843621
11
0.89116
21
0.84196
0
LINE
8
BLACK
6
CONTINUOUS
10
0.89116
20
0.84196
11
0.888586
21
0.840372
0
LINE
8
BLACK
6
CONTINUOUS
10
0.888586
20
0.840372
11
0.888586
21
0.840372
0
LINE
8
BLACK
6
CONTINUOUS
10
0.888586
20
0.840372
11
0.888586
21
0.840372
0
LINE
8
BLACK
6
CONTINUOUS
10
0.888586
20
0.840372
11
0.88836
21
0.840193
0
LINE
8
BLACK
6
CONTINUOUS
10
0.88836
20
0.840193
11
0.888358
21
0.840196
0
LINE
8
BLACK
6
CONTINUOUS
10
0.888358
20
0.840196
11
0.888135
21
0.840014
0
LINE
8
BLACK
6
CONTINUOUS
10
0.888135
20
0.840014
11
0.888137
21
0.840012
0
LINE
8
BLACK
6
CONTINUOUS
10
0.888137
20
0.840012
11
0.887916
21
0.839826
0
LINE
8
BLACK
6
CONTINUOUS
10
0.887916
20
0.839826
11
0.88584
21
0.837627
0
LINE
8
BLACK
6
CONTINUOUS
10
0.88584
20
0.837627
11
0.652884
21
0.604671
0
LINE
8
BLACK
6
CONTINUOUS
10
0.652884
20
0.604671
11
0.651454
21
0.603771
0
LINE
8
BLACK
6
CONTINUOUS
10
0.651454
20
0.603771
11
0.65149
21
0.603695
0
LINE
8
BLACK
6
CONTINUOUS
10
0.65149
20
0.603695
11
0.651239
21
0.603574
0
LINE
8
BLACK
6
CONTINUOUS
10
0.651239
20
0.603574
11
0.645226
21
0.599796
0
LINE
8
BLACK
6
CONTINUOUS
10
0.645226
20
0.599796
11
0.645226
21
0.599796
0
LINE
8
BLACK
6
CONTINUOUS
10
0.645226
20
0.599796
11
0.640204
21
0.594774
0
LINE
8
BLACK
6
CONTINUOUS
10
0.640204
20
0.594774
11
0.640204
21
0.594774
0
LINE
8
BLACK
6
CONTINUOUS
10
0.640204
20
0.594774
11
0.636425
21
0.588761
0
LINE
8
BLACK
6
CONTINUOUS
10
0.636425
20
0.588761
11
0.636425
21
0.588761
0
LINE
8
BLACK
6
CONTINUOUS
10
0.636425
20
0.588761
11
0.634126
21
0.582189
0
LINE
8
BLACK
6
CONTINUOUS
10
0.634126
20
0.582189
11
0.63408
21
0.582057
0
LINE
8
BLACK
6
CONTINUOUS
10
0.63408
20
0.582057
11
0.633285
21
0.575
0
LINE
8
BLACK
6
CONTINUOUS
10
0.633285
20
0.575
11
0.63408
21
0.567943
0
LINE
8
BLACK
6
CONTINUOUS
10
0.314817
20
0.685067
11
0.317085
21
0.680616
0
LINE
8
BLACK
6
CONTINUOUS
10
0.317085
20
0.680616
11
0.320616
21
0.677085
0
LINE
8
BLACK
6
CONTINUOUS
10
0.320616
20
0.677085
11
0.322138
21
0.67631
0
LINE
8
BLACK
6
CONTINUOUS
10
0.322138
20
0.67631
11
0.325067
21
0.674817
0
LINE
8
BLACK
6
CONTINUOUS
10
0.325067
20
0.674817
11
0.328759
21
0.674232
0
LINE
8
BLACK
6
CONTINUOUS
10
0.328759
20
0.674232
11
0.391241
21
0.674232
0
LINE
8
BLACK
6
CONTINUOUS
10
0.391241
20
0.674232
11
0.394933
21
0.674817
0
LINE
8
BLACK
6
CONTINUOUS
10
0.394933
20
0.674817
11
0.399384
21
0.677085
0
LINE
8
BLACK
6
CONTINUOUS
10
0.399384
20
0.677085
11
0.402915
21
0.680616
0
LINE
8
BLACK
6
CONTINUOUS
10
0.402915
20
0.680616
11
0.405183
21
0.685067
0
LINE
8
BLACK
6
CONTINUOUS
10
0.405183
20
0.685067
11
0.405183
21
0.685067
0
LINE
8
BLACK
6
CONTINUOUS
10
0.405183
20
0.685067
11
0.405282
21
0.685372
0
LINE
8
BLACK
6
CONTINUOUS
10
0.405282
20
0.685372
11
0.40686
21
0.687679
0
LINE
8
BLACK
6
CONTINUOUS
10
0.40686
20
0.687679
11
0.409434
21
0.688768
0
LINE
8
BLACK
6
CONTINUOUS
10
0.409434
20
0.688768
11
0.412188
21
0.688291
0
LINE
8
BLACK
6
CONTINUOUS
10
0.412188
20
0.688291
11
0.414248
21
0.686401
0
LINE
8
BLACK
6
CONTINUOUS
10
0.414248
20
0.686401
11
0.414718
21
0.685372
0
LINE
8
BLACK
6
CONTINUOUS
10
0.414718
20
0.685372
11
0.414817
21
0.685067
0
LINE
8
BLACK
6
CONTINUOUS
10
0.414817
20
0.685067
11
0.417085
21
0.680616
0
LINE
8
BLACK
6
CONTINUOUS
10
0.417085
20
0.680616
11
0.420616
21
0.677085
0
LINE
8
BLACK
6
CONTINUOUS
10
0.420616
20
0.677085
11
0.422138
21
0.67631
0
LINE
8
BLACK
6
CONTINUOUS
10
0.422138
20
0.67631
11
0.425067
21
0.674817
0
LINE
8
BLACK
6
CONTINUOUS
10
0.425067
20
0.674817
11
0.428759
21
0.674232
0
LINE
8
BLACK
6
CONTINUOUS
10
0.428759
20
0.674232
11
0.491241
21
0.674232
0
LINE
8
BLACK
6
CONTINUOUS
10
0.491241
20
0.674232
11
0.494933
21
0.674817
0
LINE
8
BLACK
6
CONTINUOUS
10
0.494933
20
0.674817
11
0.499384
21
0.677085
0
LINE
8
BLACK
6
CONTINUOUS
10
0.499384
20
0.677085
11
0.502915
21
0.680616
0
LINE
8
BLACK
6
CONTINUOUS
10
0.502915
20
0.680616
11
0.505183
21
0.685067
0
LINE
8
BLACK
6
CONTINUOUS
10
0.505183
20
0.685067
11
0.505768
21
0.688759
0
LINE
8
BLACK
6
CONTINUOUS
10
0.505768
20
0.688759
11
0.505768
21
0.751241
0
LINE
8
BLACK
6
CONTINUOUS
10
0.505768
20
0.751241
11
0.505183
21
0.754933
0
LINE
8
BLACK
6
CONTINUOUS
10
0.505183
20
0.754933
11
0.504049
21
0.757158
0
LINE
8
BLACK
6
CONTINUOUS
10
0.504049
20
0.757158
11
0.502915
21
0.759384
0
LINE
8
BLACK
6
CONTINUOUS
10
0.502915
20
0.759384
11
0.499384
21
0.762915
0
LINE
8
BLACK
6
CONTINUOUS
10
0.499384
20
0.762915
11
0.496398
21
0.764437
0
LINE
8
BLACK
6
CONTINUOUS
10
0.496398
20
0.764437
11
0.494933
21
0.765183
0
LINE
8
BLACK
6
CONTINUOUS
10
0.494933
20
0.765183
11
0.491241
21
0.765768
0
LINE
8
BLACK
6
CONTINUOUS
10
0.491241
20
0.765768
11
0.491241
21
0.765768
0
LINE
8
BLACK
6
CONTINUOUS
10
0.491241
20
0.765768
11
0.428759
21
0.765768
0
LINE
8
BLACK
6
CONTINUOUS
10
0.428759
20
0.765768
11
0.425067
21
0.765183
0
LINE
8
BLACK
6
CONTINUOUS
10
0.425067
20
0.765183
11
0.420616
21
0.762915
0
LINE
8
BLACK
6
CONTINUOUS
10
0.420616
20
0.762915
11
0.417085
21
0.759384
0
LINE
8
BLACK
6
CONTINUOUS
10
0.417085
20
0.759384
11
0.414817
21
0.754933
0
LINE
8
BLACK
6
CONTINUOUS
10
0.414817
20
0.754933
11
0.414718
21
0.754628
0
LINE
8
BLACK
6
CONTINUOUS
10
0.414718
20
0.754628
11
0.41314
21
0.75232
0
LINE
8
BLACK
6
CONTINUOUS
10
0.41314
20
0.75232
11
0.410565
21
0.751232
0
LINE
8
BLACK
6
CONTINUOUS
10
0.410565
20
0.751232
11
0.407811
21
0.751709
0
LINE
8
BLACK
6
CONTINUOUS
10
0.407811
20
0.751709
11
0.405752
21
0.753599
0
LINE
8
BLACK
6
CONTINUOUS
10
0.405752
20
0.753599
11
0.405282
21
0.754628
0
LINE
8
BLACK
6
CONTINUOUS
10
0.405282
20
0.754628
11
0.405183
21
0.754933
0
LINE
8
BLACK
6
CONTINUOUS
10
0.405183
20
0.754933
11
0.402915
21
0.759384
0
LINE
8
BLACK
6
CONTINUOUS
10
0.402915
20
0.759384
11
0.399384
21
0.762915
0
LINE
8
BLACK
6
CONTINUOUS
10
0.399384
20
0.762915
11
0.396398
21
0.764437
0
LINE
8
BLACK
6
CONTINUOUS
10
0.396398
20
0.764437
11
0.394933
21
0.765183
0
LINE
8
BLACK
6
CONTINUOUS
10
0.394933
20
0.765183
11
0.391241
21
0.765768
0
LINE
8
BLACK
6
CONTINUOUS
10
0.391241
20
0.765768
11
0.391241
21
0.765768
0
LINE
8
BLACK
6
CONTINUOUS
10
0.391241
20
0.765768
11
0.328759
21
0.765768
0
LINE
8
BLACK
6
CONTINUOUS
10
0.328759
20
0.765768
11
0.325067
21
0.765183
0
LINE
8
BLACK
6
CONTINUOUS
10
0.325067
20
0.765183
11
0.320616
21
0.762915
0
LINE
8
BLACK
6
CONTINUOUS
10
0.320616
20
0.762915
11
0.317085
21
0.759384
0
LINE
8
BLACK
6
CONTINUOUS
10
0.317085
20
0.759384
11
0.314817
21
0.754933
0
LINE
8
BLACK
6
CONTINUOUS
10
0.314817
20
0.754933
11
0.314817
21
0.754933
0
LINE
8
BLACK
6
CONTINUOUS
10
0.314817
20
0.754933
11
0.314232
21
0.751241
0
LINE
8
BLACK
6
CONTINUOUS
10
0.314232
20
0.751241
11
0.314232
21
0.751241
0
LINE
8
BLACK
6
CONTINUOUS
10
0.314232
20
0.751241
11
0.314232
21
0.688759
0
LINE
8
BLACK
6
CONTINUOUS
10
0.314232
20
0.688759
11
0.314817
21
0.685067
0
LINE
8
BLACK
6
CONTINUOUS
10
2.32982
20
0.745067
11
2.33208
21
0.740616
0
LINE
8
BLACK
6
CONTINUOUS
10
2.33208
20
0.740616
11
2.33562
21
0.737085
0
LINE
8
BLACK
6
CONTINUOUS
10
2.33562
20
0.737085
11
2.33714
21
0.73631
0
LINE
8
BLACK
6
CONTINUOUS
10
2.33714
20
0.73631
11
2.34007
21
0.734817
0
LINE
8
BLACK
6
CONTINUOUS
10
2.34007
20
0.734817
11
2.34376
21
0.734232
0
LINE
8
BLACK
6
CONTINUOUS
10
2.34376
20
0.734232
11
2.40624
21
0.734232
0
LINE
8
BLACK
6
CONTINUOUS
10
2.40624
20
0.734232
11
2.40993
21
0.734817
0
LINE
8
BLACK
6
CONTINUOUS
10
2.40993
20
0.734817
11
2.41438
21
0.737085
0
LINE
8
BLACK
6
CONTINUOUS
10
2.41438
20
0.737085
11
2.41792
21
0.740616
0
LINE
8
BLACK
6
CONTINUOUS
10
2.41792
20
0.740616
11
2.42018
21
0.745067
0
LINE
8
BLACK
6
CONTINUOUS
10
2.42018
20
0.745067
11
2.42018
21
0.745067
0
LINE
8
BLACK
6
CONTINUOUS
10
2.42018
20
0.745067
11
2.42028
21
0.745372
0
LINE
8
BLACK
6
CONTINUOUS
10
2.42028
20
0.745372
11
2.42186
21
0.747679
0
LINE
8
BLACK
6
CONTINUOUS
10
2.42186
20
0.747679
11
2.42443
21
0.748768
0
LINE
8
BLACK
6
CONTINUOUS
10
2.42443
20
0.748768
11
2.42719
21
0.748291
0
LINE
8
BLACK
6
CONTINUOUS
10
2.42719
20
0.748291
11
2.42925
21
0.746401
0
LINE
8
BLACK
6
CONTINUOUS
10
2.42925
20
0.746401
11
2.42972
21
0.745372
0
LINE
8
BLACK
6
CONTINUOUS
10
2.42972
20
0.745372
11
2.42982
21
0.745067
0
LINE
8
BLACK
6
CONTINUOUS
10
2.42982
20
0.745067
11
2.43208
21
0.740616
0
LINE
8
BLACK
6
CONTINUOUS
10
2.43208
20
0.740616
11
2.43562
21
0.737085
0
LINE
8
BLACK
6
CONTINUOUS
10
2.43562
20
0.737085
11
2.43714
21
0.73631
0
LINE
8
BLACK
6
CONTINUOUS
10
2.43714
20
0.73631
11
2.44007
21
0.734817
0
LINE
8
BLACK
6
CONTINUOUS
10
2.44007
20
0.734817
11
2.44376
21
0.734232
0
LINE
8
BLACK
6
CONTINUOUS
10
2.44376
20
0.734232
11
2.50624
21
0.734232
0
LINE
8
BLACK
6
CONTINUOUS
10
2.50624
20
0.734232
11
2.50993
21
0.734817
0
LINE
8
BLACK
6
CONTINUOUS
10
2.50993
20
0.734817
11
2.51438
21
0.737085
0
LINE
8
BLACK
6
CONTINUOUS
10
2.51438
20
0.737085
11
2.51792
21
0.740616
0
LINE
8
BLACK
6
CONTINUOUS
10
2.51792
20
0.740616
11
2.52018
21
0.745067
0
LINE
8
BLACK
6
CONTINUOUS
10
2.52018
20
0.745067
11
2.52077
21
0.748759
0
LINE
8
BLACK
6
CONTINUOUS
10
2.52077
20
0.748759
11
2.52077
21
0.811241
0
LINE
8
BLACK
6
CONTINUOUS
10
2.52077
20
0.811241
11
2.52018
21
0.814933
0
LINE
8
BLACK
6
CONTINUOUS
10
2.52018
20
0.814933
11
2.51905
21
0.817158
0
LINE
8
BLACK
6
CONTINUOUS
10
2.51905
20
0.817158
11
2.51792
21
0.819384
0
LINE
8
BLACK
6
CONTINUOUS
10
2.51792
20
0.819384
11
2.51438
21
0.822915
0
LINE
8
BLACK
6
CONTINUOUS
10
2.51438
20
0.822915
11
2.5114
21
0.824437
0
LINE
8
BLACK
6
CONTINUOUS
10
2.5114
20
0.824437
11
2.50993
21
0.825183
0
LINE
8
BLACK
6
CONTINUOUS
10
2.50993
20
0.825183
11
2.50624
21
0.825768
0
LINE
8
BLACK
6
CONTINUOUS
10
2.50624
20
0.825768
11
2.50624
21
0.825768
0
LINE
8
BLACK
6
CONTINUOUS
10
2.50624
20
0.825768
11
2.44376
21
0.825768
0
LINE
8
BLACK
6
CONTINUOUS
10
2.44376
20
0.825768
11
2.44007
21
0.825183
0
LINE
8
BLACK
6
CONTINUOUS
10
2.44007
20
0.825183
11
2.43562
21
0.822915
0
LINE
8
BLACK
6
CONTINUOUS
10
2.43562
20
0.822915
11
2.43208
21
0.819384
0
LINE
8
BLACK
6
CONTINUOUS
10
2.43208
20
0.819384
11
2.42982
21
0.814933
0
LINE
8
BLACK
6
CONTINUOUS
10
2.42982
20
0.814933
11
2.42972
21
0.814628
0
LINE
8
BLACK
6
CONTINUOUS
10
2.42972
20
0.814628
11
2.42814
21
0.81232
0
LINE
8
BLACK
6
CONTINUOUS
10
2.42814
20
0.81232
11
2.42557
21
0.811232
0
LINE
8
BLACK
6
CONTINUOUS
10
2.42557
20
0.811232
11
2.42281
21
0.811709
0
LINE
8
BLACK
6
CONTINUOUS
10
2.42281
20
0.811709
11
2.42075
21
0.813599
0
LINE
8
BLACK
6
CONTINUOUS
10
2.42075
20
0.813599
11
2.42028
21
0.814628
0
LINE
8
BLACK
6
CONTINUOUS
10
2.42028
20
0.814628
11
2.42018
21
0.814933
0
LINE
8
BLACK
6
CONTINUOUS
10
2.42018
20
0.814933
11
2.41792
21
0.819384
0
LINE
8
BLACK
6
CONTINUOUS
10
2.41792
20
0.819384
11
2.41438
21
0.822915
0
LINE
8
BLACK
6
CONTINUOUS
10
2.41438
20
0.822915
11
2.4114
21
0.824437
0
LINE
8
BLACK
6
CONTINUOUS
10
2.4114
20
0.824437
11
2.40993
21
0.825183
0
LINE
8
BLACK
6
CONTINUOUS
10
2.40993
20
0.825183
11
2.40624
21
0.825768
0
LINE
8
BLACK
6
CONTINUOUS
10
2.40624
20
0.825768
11
2.40624
21
0.825768
0
LINE
8
BLACK
6
CONTINUOUS
10
2.40624
20
0.825768
11
2.34376
21
0.825768
0
LINE
8
BLACK
6
CONTINUOUS
10
2.34376
20
0.825768
11
2.34007
21
0.825183
0
LINE
8
BLACK
6
CONTINUOUS
10
2.34007
20
0.825183
11
2.33562
21
0.822915
0
LINE
8
BLACK
6
CONTINUOUS
10
2.33562
20
0.822915
11
2.33208
21
0.819384
0
LINE
8
BLACK
6
CONTINUOUS
10
2.33208
20
0.819384
11
2.32982
21
0.814933
0
LINE
8
BLACK
6
CONTINUOUS
10
2.32982
20
0.814933
11
2.32982
21
0.814933
0
LINE
8
BLACK
6
CONTINUOUS
10
2.32982
20
0.814933
11
2.32926
21
0.811446
0
LINE
8
BLACK
6
CONTINUOUS
10
2.32926
20
0.811446
11
2.32923
21
0.811241
0
LINE
8
BLACK
6
CONTINUOUS
10
2.32923
20
0.811241
11
2.32923
21
0.748759
0
LINE
8
BLACK
6
CONTINUOUS
10
2.32923
20
0.748759
11
2.32982
21
0.745067
0
LINE
8
BLACK
6
CONTINUOUS
10
0.635067
20
1.00518
11
0.630616
21
1.00292
0
LINE
8
BLACK
6
CONTINUOUS
10
0.630616
20
1.00292
11
0.627085
21
0.999384
0
LINE
8
BLACK
6
CONTINUOUS
10
0.627085
20
0.999384
11
0.624817
21
0.994933
0
LINE
8
BLACK
6
CONTINUOUS
10
0.624817
20
0.994933
11
0.624817
21
0.994933
0
LINE
8
BLACK
6
CONTINUOUS
10
0.624817
20
0.994933
11
0.624234
21
0.991251
0
LINE
8
BLACK
6
CONTINUOUS
10
0.624234
20
0.991251
11
0.624232
21
0.991241
0
LINE
8
BLACK
6
CONTINUOUS
10
0.624232
20
0.991241
11
0.624232
21
0.928759
0
LINE
8
BLACK
6
CONTINUOUS
10
0.624232
20
0.928759
11
0.624817
21
0.925067
0
LINE
8
BLACK
6
CONTINUOUS
10
0.624817
20
0.925067
11
0.627085
21
0.920616
0
LINE
8
BLACK
6
CONTINUOUS
10
0.627085
20
0.920616
11
0.630616
21
0.917085
0
LINE
8
BLACK
6
CONTINUOUS
10
0.630616
20
0.917085
11
0.632884
21
0.915929
0
LINE
8
BLACK
6
CONTINUOUS
10
0.632884
20
0.915929
11
0.635067
21
0.914817
0
LINE
8
BLACK
6
CONTINUOUS
10
0.635067
20
0.914817
11
0.635067
21
0.914817
0
LINE
8
BLACK
6
CONTINUOUS
10
0.635067
20
0.914817
11
0.635372
21
0.914718
0
LINE
8
BLACK
6
CONTINUOUS
10
0.635372
20
0.914718
11
0.637679
21
0.91314
0
LINE
8
BLACK
6
CONTINUOUS
10
0.637679
20
0.91314
11
0.638768
21
0.910566
0
LINE
8
BLACK
6
CONTINUOUS
10
0.638768
20
0.910566
11
0.638291
21
0.907812
0
LINE
8
BLACK
6
CONTINUOUS
10
0.638291
20
0.907812
11
0.636401
21
0.905752
0
LINE
8
BLACK
6
CONTINUOUS
10
0.636401
20
0.905752
11
0.635372
21
0.905282
0
LINE
8
BLACK
6
CONTINUOUS
10
0.635372
20
0.905282
11
0.635067
21
0.905183
0
LINE
8
BLACK
6
CONTINUOUS
10
0.635067
20
0.905183
11
0.630616
21
0.902915
0
LINE
8
BLACK
6
CONTINUOUS
10
0.630616
20
0.902915
11
0.627085
21
0.899384
0
LINE
8
BLACK
6
CONTINUOUS
10
0.627085
20
0.899384
11
0.624817
21
0.894933
0
LINE
8
BLACK
6
CONTINUOUS
10
0.624817
20
0.894933
11
0.624817
21
0.894933
0
LINE
8
BLACK
6
CONTINUOUS
10
0.624817
20
0.894933
11
0.624232
21
0.891241
0
LINE
8
BLACK
6
CONTINUOUS
10
0.624232
20
0.891241
11
0.624232
21
0.891241
0
LINE
8
BLACK
6
CONTINUOUS
10
0.624232
20
0.891241
11
0.624232
21
0.828759
0
LINE
8
BLACK
6
CONTINUOUS
10
0.624232
20
0.828759
11
0.624817
21
0.825067
0
LINE
8
BLACK
6
CONTINUOUS
10
0.624817
20
0.825067
11
0.627085
21
0.820616
0
LINE
8
BLACK
6
CONTINUOUS
10
0.627085
20
0.820616
11
0.630616
21
0.817085
0
LINE
8
BLACK
6
CONTINUOUS
10
0.630616
20
0.817085
11
0.632138
21
0.81631
0
LINE
8
BLACK
6
CONTINUOUS
10
0.632138
20
0.81631
11
0.635067
21
0.814817
0
LINE
8
BLACK
6
CONTINUOUS
10
0.635067
20
0.814817
11
0.638759
21
0.814232
0
LINE
8
BLACK
6
CONTINUOUS
10
0.638759
20
0.814232
11
0.701241
21
0.814232
0
LINE
8
BLACK
6
CONTINUOUS
10
0.701241
20
0.814232
11
0.704933
21
0.814817
0
LINE
8
BLACK
6
CONTINUOUS
10
0.704933
20
0.814817
11
0.709384
21
0.817085
0
LINE
8
BLACK
6
CONTINUOUS
10
0.709384
20
0.817085
11
0.712915
21
0.820616
0
LINE
8
BLACK
6
CONTINUOUS
10
0.712915
20
0.820616
11
0.715183
21
0.825067
0
LINE
8
BLACK
6
CONTINUOUS
10
0.715183
20
0.825067
11
0.715768
21
0.828759
0
LINE
8
BLACK
6
CONTINUOUS
10
0.715768
20
0.828759
11
0.715768
21
0.891241
0
LINE
8
BLACK
6
CONTINUOUS
10
0.715768
20
0.891241
11
0.715183
21
0.894933
0
LINE
8
BLACK
6
CONTINUOUS
10
0.715183
20
0.894933
11
0.714049
21
0.897158
0
LINE
8
BLACK
6
CONTINUOUS
10
0.714049
20
0.897158
11
0.712915
21
0.899384
0
LINE
8
BLACK
6
CONTINUOUS
10
0.712915
20
0.899384
11
0.709384
21
0.902915
0
LINE
8
BLACK
6
CONTINUOUS
10
0.709384
20
0.902915
11
0.704933
21
0.905183
0
LINE
8
BLACK
6
CONTINUOUS
10
0.704933
20
0.905183
11
0.704628
21
0.905282
0
LINE
8
BLACK
6
CONTINUOUS
10
0.704628
20
0.905282
11
0.702321
21
0.90686
0
LINE
8
BLACK
6
CONTINUOUS
10
0.702321
20
0.90686
11
0.701232
21
0.909434
0
LINE
8
BLACK
6
CONTINUOUS
10
0.701232
20
0.909434
11
0.701709
21
0.912189
0
LINE
8
BLACK
6
CONTINUOUS
10
0.701709
20
0.912189
11
0.703599
21
0.914248
0
LINE
8
BLACK
6
CONTINUOUS
10
0.703599
20
0.914248
11
0.704628
21
0.914718
0
LINE
8
BLACK
6
CONTINUOUS
10
0.704628
20
0.914718
11
0.704933
21
0.914817
0
LINE
8
BLACK
6
CONTINUOUS
10
0.704933
20
0.914817
11
0.704933
21
0.914817
0
LINE
8
BLACK
6
CONTINUOUS
10
0.704933
20
0.914817
11
0.709384
21
0.917085
0
LINE
8
BLACK
6
CONTINUOUS
10
0.709384
20
0.917085
11
0.712915
21
0.920616
0
LINE
8
BLACK
6
CONTINUOUS
10
0.712915
20
0.920616
11
0.715183
21
0.925067
0
LINE
8
BLACK
6
CONTINUOUS
10
0.715183
20
0.925067
11
0.715768
21
0.928759
0
LINE
8
BLACK
6
CONTINUOUS
10
0.715768
20
0.928759
11
0.715768
21
0.991241
0
LINE
8
BLACK
6
CONTINUOUS
10
0.715768
20
0.991241
11
0.715183
21
0.994933
0
LINE
8
BLACK
6
CONTINUOUS
10
0.715183
20
0.994933
11
0.714049
21
0.997158
0
LINE
8
BLACK
6
CONTINUOUS
10
0.714049
20
0.997158
11
0.712915
21
0.999384
0
LINE
8
BLACK
6
CONTINUOUS
10
0.712915
20
0.999384
11
0.709384
21
1.00292
0
LINE
8
BLACK
6
CONTINUOUS
10
0.709384
20
1.00292
11
0.706398
21
1.00444
0
LINE
8
BLACK
6
CONTINUOUS
10
0.706398
20
1.00444
11
0.704933
21
1.00518
0
LINE
8
BLACK
6
CONTINUOUS
10
0.704933
20
1.00518
11
0.701241
21
1.00577
0
LINE
8
BLACK
6
CONTINUOUS
10
0.701241
20
1.00577
11
0.701241
21
1.00577
0
LINE
8
BLACK
6
CONTINUOUS
10
0.701241
20
1.00577
11
0.638759
21
1.00577
0
LINE
8
BLACK
6
CONTINUOUS
10
0.638759
20
1.00577
11
0.635067
21
1.00518
0
LINE
8
BLACK
6
CONTINUOUS
10
1.08294
20
1.17092
11
1.08294
21
1.17092
0
LINE
8
BLACK
6
CONTINUOUS
10
1.08294
20
1.17092
11
1.08294
21
1.17092
0
LINE
8
BLACK
6
CONTINUOUS
10
1.08294
20
1.17092
11
1.07624
21
1.16857
0
LINE
8
BLACK
6
CONTINUOUS
10
1.07624
20
1.16857
11
1.07624
21
1.16857
0
LINE
8
BLACK
6
CONTINUOUS
10
1.07624
20
1.16857
11
1.07117
21
1.16539
0
LINE
8
BLACK
6
CONTINUOUS
10
1.07117
20
1.16539
11
1.06853
21
1.16463
0
LINE
8
BLACK
6
CONTINUOUS
10
1.06853
20
1.16463
11
0.921474
21
1.16463
0
LINE
8
BLACK
6
CONTINUOUS
10
0.921474
20
1.16463
11
0.918834
21
1.16539
0
LINE
8
BLACK
6
CONTINUOUS
10
0.918834
20
1.16539
11
0.913761
21
1.16857
0
LINE
8
BLACK
6
CONTINUOUS
10
0.913761
20
1.16857
11
0.913761
21
1.16857
0
LINE
8
BLACK
6
CONTINUOUS
10
0.913761
20
1.16857
11
0.91075
21
1.16963
0
LINE
8
BLACK
6
CONTINUOUS
10
0.91075
20
1.16963
11
0.907057
21
1.17092
0
LINE
8
BLACK
6
CONTINUOUS
10
0.907057
20
1.17092
11
0.9
21
1.17172
0
LINE
8
BLACK
6
CONTINUOUS
10
0.9
20
1.17172
11
0.892943
21
1.17092
0
LINE
8
BLACK
6
CONTINUOUS
10
0.892943
20
1.17092
11
0.892943
21
1.17092
0
LINE
8
BLACK
6
CONTINUOUS
10
0.892943
20
1.17092
11
0.892943
21
1.17092
0
LINE
8
BLACK
6
CONTINUOUS
10
0.892943
20
1.17092
11
0.886239
21
1.16857
0
LINE
8
BLACK
6
CONTINUOUS
10
0.886239
20
1.16857
11
0.886239
21
1.16857
0
LINE
8
BLACK
6
CONTINUOUS
10
0.886239
20
1.16857
11
0.880226
21
1.1648
0
LINE
8
BLACK
6
CONTINUOUS
10
0.880226
20
1.1648
11
0.880226
21
1.1648
0
LINE
8
BLACK
6
CONTINUOUS
10
0.880226
20
1.1648
11
0.875204
21
1.15977
0
LINE
8
BLACK
6
CONTINUOUS
10
0.875204
20
1.15977
11
0.875204
21
1.15977
0
LINE
8
BLACK
6
CONTINUOUS
10
0.875204
20
1.15977
11
0.871426
21
1.15376
0
LINE
8
BLACK
6
CONTINUOUS
10
0.871426
20
1.15376
11
0.871426
21
1.15376
0
LINE
8
BLACK
6
CONTINUOUS
10
0.871426
20
1.15376
11
0.869103
21
1.14712
0
LINE
8
BLACK
6
CONTINUOUS
10
0.869103
20
1.14712
11
0.86908
21
1.14706
0
LINE
8
BLACK
6
CONTINUOUS
10
0.86908
20
1.14706
11
0.868285
21
1.14
0
LINE
8
BLACK
6
CONTINUOUS
10
0.868285
20
1.14
11
0.86908
21
1.13294
0
LINE
8
BLACK
6
CONTINUOUS
10
0.86908
20
1.13294
11
0.870922
21
1.12768
0
LINE
8
BLACK
6
CONTINUOUS
10
0.870922
20
1.12768
11
0.871426
21
1.12624
0
LINE
8
BLACK
6
CONTINUOUS
10
0.871426
20
1.12624
11
0.871426
21
1.12624
0
LINE
8
BLACK
6
CONTINUOUS
10
0.871426
20
1.12624
11
0.874614
21
1.12117
0
LINE
8
BLACK
6
CONTINUOUS
10
0.874614
20
1.12117
11
0.875374
21
1.11853
0
LINE
8
BLACK
6
CONTINUOUS
10
0.875374
20
1.11853
11
0.875374
21
1.05111
0
LINE
8
BLACK
6
CONTINUOUS
10
0.875374
20
1.05111
11
0.875306
21
1.0505
0
LINE
8
BLACK
6
CONTINUOUS
10
0.875306
20
1.0505
11
0.875318
21
1.05049
0
LINE
8
BLACK
6
CONTINUOUS
10
0.875318
20
1.05049
11
0.875288
21
1.05018
0
LINE
8
BLACK
6
CONTINUOUS
10
0.875288
20
1.05018
11
0.875374
21
1.04746
0
LINE
8
BLACK
6
CONTINUOUS
10
0.875374
20
1.04746
11
0.875374
21
1.0463
0
LINE
8
BLACK
6
CONTINUOUS
10
0.875374
20
1.0463
11
0.875408
21
1.04603
0
LINE
8
BLACK
6
CONTINUOUS
10
0.875408
20
1.04603
11
0.875426
21
1.0458
0
LINE
8
BLACK
6
CONTINUOUS
10
0.875426
20
1.0458
11
0.875484
21
1.04396
0
LINE
8
BLACK
6
CONTINUOUS
10
0.875484
20
1.04396
11
0.875484
21
1.04396
0
LINE
8
BLACK
6
CONTINUOUS
10
0.875484
20
1.04396
11
0.875702
21
1.04321
0
LINE
8
BLACK
6
CONTINUOUS
10
0.875702
20
1.04321
11
0.87586
21
1.04245
0
LINE
8
BLACK
6
CONTINUOUS
10
0.87586
20
1.04245
11
0.875958
21
1.04167
0
LINE
8
BLACK
6
CONTINUOUS
10
0.875958
20
1.04167
11
0.875958
21
1.04167
0
LINE
8
BLACK
6
CONTINUOUS
10
0.875958
20
1.04167
11
0.876633
21
1.03997
0
LINE
8
BLACK
6
CONTINUOUS
10
0.876633
20
1.03997
11
0.876708
21
1.03975
0
LINE
8
BLACK
6
CONTINUOUS
10
0.876708
20
1.03975
11
0.87722
21
1.03799
0
LINE
8
BLACK
6
CONTINUOUS
10
0.87722
20
1.03799
11
0.87722
21
1.03799
0
LINE
8
BLACK
6
CONTINUOUS
10
0.87722
20
1.03799
11
0.877618
21
1.03732
0
LINE
8
BLACK
6
CONTINUOUS
10
0.877618
20
1.03732
11
0.87796
21
1.03662
0
LINE
8
BLACK
6
CONTINUOUS
10
0.87796
20
1.03662
11
0.878248
21
1.03589
0
LINE
8
BLACK
6
CONTINUOUS
10
0.878248
20
1.03589
11
0.878249
21
1.03589
0
LINE
8
BLACK
6
CONTINUOUS
10
0.878249
20
1.03589
11
0.879326
21
1.03441
0
LINE
8
BLACK
6
CONTINUOUS
10
0.879326
20
1.03441
11
0.879454
21
1.03421
0
LINE
8
BLACK
6
CONTINUOUS
10
0.879454
20
1.03421
11
0.880387
21
1.03263
0
LINE
8
BLACK
6
CONTINUOUS
10
0.880387
20
1.03263
11
0.88094
21
1.03208
0
LINE
8
BLACK
6
CONTINUOUS
10
0.88094
20
1.03208
11
0.881446
21
1.03149
0
LINE
8
BLACK
6
CONTINUOUS
10
0.881446
20
1.03149
11
0.881906
21
1.03086
0
LINE
8
BLACK
6
CONTINUOUS
10
0.881906
20
1.03086
11
0.883318
21
1.02969
0
LINE
8
BLACK
6
CONTINUOUS
10
0.883318
20
1.02969
11
0.88349
21
1.02953
0
LINE
8
BLACK
6
CONTINUOUS
10
0.88349
20
1.02953
11
0.903807
21
1.00921
0
LINE
8
BLACK
6
CONTINUOUS
10
0.903807
20
1.00921
11
0.924049
21
0.988972
0
LINE
8
BLACK
6
CONTINUOUS
10
0.924049
20
0.988972
11
0.925389
21
0.986518
0
LINE
8
BLACK
6
CONTINUOUS
10
0.925389
20
0.986518
11
0.925471
21
0.98602
0
LINE
8
BLACK
6
CONTINUOUS
10
0.925471
20
0.98602
11
0.925677
21
0.984193
0
LINE
8
BLACK
6
CONTINUOUS
10
0.925677
20
0.984193
11
0.925677
21
0.984193
0
LINE
8
BLACK
6
CONTINUOUS
10
0.925677
20
0.984193
11
0.928023
21
0.97749
0
LINE
8
BLACK
6
CONTINUOUS
10
0.928023
20
0.97749
11
0.928023
21
0.97749
0
LINE
8
BLACK
6
CONTINUOUS
10
0.928023
20
0.97749
11
0.931801
21
0.971476
0
LINE
8
BLACK
6
CONTINUOUS
10
0.931801
20
0.971476
11
0.931801
21
0.971476
0
LINE
8
BLACK
6
CONTINUOUS
10
0.931801
20
0.971476
11
0.936823
21
0.966455
0
LINE
8
BLACK
6
CONTINUOUS
10
0.936823
20
0.966455
11
0.936823
21
0.966455
0
LINE
8
BLACK
6
CONTINUOUS
10
0.936823
20
0.966455
11
0.942836
21
0.962676
0
LINE
8
BLACK
6
CONTINUOUS
10
0.942836
20
0.962676
11
0.942836
21
0.962676
0
LINE
8
BLACK
6
CONTINUOUS
10
0.942836
20
0.962676
11
0.942836
21
0.962676
0
LINE
8
BLACK
6
CONTINUOUS
10
0.942836
20
0.962676
11
0.94954
21
0.960331
0
LINE
8
BLACK
6
CONTINUOUS
10
0.94954
20
0.960331
11
0.956597
21
0.959535
0
LINE
8
BLACK
6
CONTINUOUS
10
0.956597
20
0.959535
11
0.963654
21
0.960331
0
LINE
8
BLACK
6
CONTINUOUS
10
0.963654
20
0.960331
11
0.970358
21
0.962676
0
LINE
8
BLACK
6
CONTINUOUS
10
0.970358
20
0.962676
11
0.976371
21
0.966455
0
LINE
8
BLACK
6
CONTINUOUS
10
0.976371
20
0.966455
11
0.981393
21
0.971476
0
LINE
8
BLACK
6
CONTINUOUS
10
0.981393
20
0.971476
11
0.985171
21
0.97749
0
LINE
8
BLACK
6
CONTINUOUS
10
0.985171
20
0.97749
11
0.987517
21
0.984193
0
LINE
8
BLACK
6
CONTINUOUS
10
0.987517
20
0.984193
11
0.988312
21
0.991251
0
LINE
8
BLACK
6
CONTINUOUS
10
0.988312
20
0.991251
11
0.987517
21
0.998308
0
LINE
8
BLACK
6
CONTINUOUS
10
0.987517
20
0.998308
11
0.985171
21
1.00501
0
LINE
8
BLACK
6
CONTINUOUS
10
0.985171
20
1.00501
11
0.985171
21
1.00501
0
LINE
8
BLACK
6
CONTINUOUS
10
0.985171
20
1.00501
11
0.985171
21
1.00501
0
LINE
8
BLACK
6
CONTINUOUS
10
0.985171
20
1.00501
11
0.981393
21
1.01102
0
LINE
8
BLACK
6
CONTINUOUS
10
0.981393
20
1.01102
11
0.981393
21
1.01102
0
LINE
8
BLACK
6
CONTINUOUS
10
0.981393
20
1.01102
11
0.976371
21
1.01605
0
LINE
8
BLACK
6
CONTINUOUS
10
0.976371
20
1.01605
11
0.976371
21
1.01605
0
LINE
8
BLACK
6
CONTINUOUS
10
0.976371
20
1.01605
11
0.970358
21
1.01982
0
LINE
8
BLACK
6
CONTINUOUS
10
0.970358
20
1.01982
11
0.970358
21
1.01982
0
LINE
8
BLACK
6
CONTINUOUS
10
0.970358
20
1.01982
11
0.963654
21
1.02217
0
LINE
8
BLACK
6
CONTINUOUS
10
0.963654
20
1.02217
11
0.963654
21
1.02217
0
LINE
8
BLACK
6
CONTINUOUS
10
0.963654
20
1.02217
11
0.961828
21
1.02238
0
LINE
8
BLACK
6
CONTINUOUS
10
0.961828
20
1.02238
11
0.959251
21
1.02346
0
LINE
8
BLACK
6
CONTINUOUS
10
0.959251
20
1.02346
11
0.958876
21
1.0238
0
LINE
8
BLACK
6
CONTINUOUS
10
0.958876
20
1.0238
11
0.926079
21
1.05659
0
LINE
8
BLACK
6
CONTINUOUS
10
0.926079
20
1.05659
11
0.924739
21
1.05905
0
LINE
8
BLACK
6
CONTINUOUS
10
0.924739
20
1.05905
11
0.924626
21
1.0601
0
LINE
8
BLACK
6
CONTINUOUS
10
0.924626
20
1.0601
11
0.924626
21
1.11041
0
LINE
8
BLACK
6
CONTINUOUS
10
0.924626
20
1.11041
11
0.925413
21
1.1131
0
LINE
8
BLACK
6
CONTINUOUS
10
0.925413
20
1.1131
11
0.927526
21
1.11493
0
LINE
8
BLACK
6
CONTINUOUS
10
0.927526
20
1.11493
11
0.929587
21
1.11537
0
LINE
8
BLACK
6
CONTINUOUS
10
0.929587
20
1.11537
11
1.06853
21
1.11537
0
LINE
8
BLACK
6
CONTINUOUS
10
1.06853
20
1.11537
11
1.07117
21
1.11461
0
LINE
8
BLACK
6
CONTINUOUS
10
1.07117
20
1.11461
11
1.07624
21
1.11143
0
LINE
8
BLACK
6
CONTINUOUS
10
1.07624
20
1.11143
11
1.07624
21
1.11143
0
LINE
8
BLACK
6
CONTINUOUS
10
1.07624
20
1.11143
11
1.07624
21
1.11143
0
LINE
8
BLACK
6
CONTINUOUS
10
1.07624
20
1.11143
11
1.08294
21
1.10908
0
LINE
8
BLACK
6
CONTINUOUS
10
1.08294
20
1.10908
11
1.09
21
1.10829
0
LINE
8
BLACK
6
CONTINUOUS
10
1.09
20
1.10829
11
1.09706
21
1.10908
0
LINE
8
BLACK
6
CONTINUOUS
10
1.09706
20
1.10908
11
1.10376
21
1.11143
0
LINE
8
BLACK
6
CONTINUOUS
10
1.10376
20
1.11143
11
1.10977
21
1.1152
0
LINE
8
BLACK
6
CONTINUOUS
10
1.10977
20
1.1152
11
1.1148
21
1.12023
0
LINE
8
BLACK
6
CONTINUOUS
10
1.1148
20
1.12023
11
1.11857
21
1.12624
0
LINE
8
BLACK
6
CONTINUOUS
10
1.11857
20
1.12624
11
1.12092
21
1.13294
0
LINE
8
BLACK
6
CONTINUOUS
10
1.12092
20
1.13294
11
1.12172
21
1.14
0
LINE
8
BLACK
6
CONTINUOUS
10
1.12172
20
1.14
11
1.12092
21
1.14706
0
LINE
8
BLACK
6
CONTINUOUS
10
1.12092
20
1.14706
11
1.11857
21
1.15376
0
LINE
8
BLACK
6
CONTINUOUS
10
1.11857
20
1.15376
11
1.11857
21
1.15376
0
LINE
8
BLACK
6
CONTINUOUS
10
1.11857
20
1.15376
11
1.11857
21
1.15376
0
LINE
8
BLACK
6
CONTINUOUS
10
1.11857
20
1.15376
11
1.1148
21
1.15977
0
LINE
8
BLACK
6
CONTINUOUS
10
1.1148
20
1.15977
11
1.1148
21
1.15977
0
LINE
8
BLACK
6
CONTINUOUS
10
1.1148
20
1.15977
11
1.10977
21
1.1648
0
LINE
8
BLACK
6
CONTINUOUS
10
1.10977
20
1.1648
11
1.10977
21
1.1648
0
LINE
8
BLACK
6
CONTINUOUS
10
1.10977
20
1.1648
11
1.10376
21
1.16857
0
LINE
8
BLACK
6
CONTINUOUS
10
1.10376
20
1.16857
11
1.10376
21
1.16857
0
LINE
8
BLACK
6
CONTINUOUS
10
1.10376
20
1.16857
11
1.10369
21
1.1686
0
LINE
8
BLACK
6
CONTINUOUS
10
1.10369
20
1.1686
11
1.09706
21
1.17092
0
LINE
8
BLACK
6
CONTINUOUS
10
1.09706
20
1.17092
11
1.09
21
1.17172
0
LINE
8
BLACK
6
CONTINUOUS
10
1.09
20
1.17172
11
1.08294
21
1.17092
0
LINE
8
BLACK
6
CONTINUOUS
10
1.60908
20
1.38294
11
1.60908
21
1.38294
0
LINE
8
BLACK
6
CONTINUOUS
10
1.60908
20
1.38294
11
1.61143
21
1.37624
0
LINE
8
BLACK
6
CONTINUOUS
10
1.61143
20
1.37624
11
1.61143
21
1.37624
0
LINE
8
BLACK
6
CONTINUOUS
10
1.61143
20
1.37624
11
1.6152
21
1.37023
0
LINE
8
BLACK
6
CONTINUOUS
10
1.6152
20
1.37023
11
1.6152
21
1.37023
0
LINE
8
BLACK
6
CONTINUOUS
10
1.6152
20
1.37023
11
1.62023
21
1.3652
0
LINE
8
BLACK
6
CONTINUOUS
10
1.62023
20
1.3652
11
1.62023
21
1.3652
0
LINE
8
BLACK
6
CONTINUOUS
10
1.62023
20
1.3652
11
1.62624
21
1.36143
0
LINE
8
BLACK
6
CONTINUOUS
10
1.62624
20
1.36143
11
1.62624
21
1.36143
0
LINE
8
BLACK
6
CONTINUOUS
10
1.62624
20
1.36143
11
1.62624
21
1.36143
0
LINE
8
BLACK
6
CONTINUOUS
10
1.62624
20
1.36143
11
1.63294
21
1.35908
0
LINE
8
BLACK
6
CONTINUOUS
10
1.63294
20
1.35908
11
1.64
21
1.35828
0
LINE
8
BLACK
6
CONTINUOUS
10
1.64
20
1.35828
11
1.64706
21
1.35908
0
LINE
8
BLACK
6
CONTINUOUS
10
1.64706
20
1.35908
11
1.65376
21
1.36143
0
LINE
8
BLACK
6
CONTINUOUS
10
1.65376
20
1.36143
11
1.65429
21
1.36176
0
LINE
8
BLACK
6
CONTINUOUS
10
1.65429
20
1.36176
11
1.65883
21
1.36461
0
LINE
8
BLACK
6
CONTINUOUS
10
1.65883
20
1.36461
11
1.66147
21
1.36537
0
LINE
8
BLACK
6
CONTINUOUS
10
1.66147
20
1.36537
11
2.02274
21
1.36537
0
LINE
8
BLACK
6
CONTINUOUS
10
2.02274
20
1.36537
11
2.02543
21
1.36459
0
LINE
8
BLACK
6
CONTINUOUS
10
2.02543
20
1.36459
11
2.02625
21
1.36392
0
LINE
8
BLACK
6
CONTINUOUS
10
2.02625
20
1.36392
11
2.05892
21
1.33125
0
LINE
8
BLACK
6
CONTINUOUS
10
2.05892
20
1.33125
11
2.06026
21
1.3288
0
LINE
8
BLACK
6
CONTINUOUS
10
2.06026
20
1.3288
11
2.06037
21
1.32774
0
LINE
8
BLACK
6
CONTINUOUS
10
2.06037
20
1.32774
11
2.06037
21
1.15827
0
LINE
8
BLACK
6
CONTINUOUS
10
2.06037
20
1.15827
11
2.06031
21
1.15765
0
LINE
8
BLACK
6
CONTINUOUS
10
2.06031
20
1.15765
11
2.06032
21
1.15765
0
LINE
8
BLACK
6
CONTINUOUS
10
2.06032
20
1.15765
11
2.06029
21
1.15734
0
LINE
8
BLACK
6
CONTINUOUS
10
2.06029
20
1.15734
11
2.06037
21
1.15461
0
LINE
8
BLACK
6
CONTINUOUS
10
2.06037
20
1.15461
11
2.06037
21
1.15345
0
LINE
8
BLACK
6
CONTINUOUS
10
2.06037
20
1.15345
11
2.06041
21
1.15318
0
LINE
8
BLACK
6
CONTINUOUS
10
2.06041
20
1.15318
11
2.06043
21
1.15295
0
LINE
8
BLACK
6
CONTINUOUS
10
2.06043
20
1.15295
11
2.06048
21
1.15112
0
LINE
8
BLACK
6
CONTINUOUS
10
2.06048
20
1.15112
11
2.06048
21
1.15112
0
LINE
8
BLACK
6
CONTINUOUS
10
2.06048
20
1.15112
11
2.0607
21
1.15037
0
LINE
8
BLACK
6
CONTINUOUS
10
2.0607
20
1.15037
11
2.06086
21
1.1496
0
LINE
8
BLACK
6
CONTINUOUS
10
2.06086
20
1.1496
11
2.06096
21
1.14883
0
LINE
8
BLACK
6
CONTINUOUS
10
2.06096
20
1.14883
11
2.06096
21
1.14883
0
LINE
8
BLACK
6
CONTINUOUS
10
2.06096
20
1.14883
11
2.06163
21
1.14712
0
LINE
8
BLACK
6
CONTINUOUS
10
2.06163
20
1.14712
11
2.06171
21
1.1469
0
LINE
8
BLACK
6
CONTINUOUS
10
2.06171
20
1.1469
11
2.06222
21
1.14514
0
LINE
8
BLACK
6
CONTINUOUS
10
2.06222
20
1.14514
11
2.06222
21
1.14514
0
LINE
8
BLACK
6
CONTINUOUS
10
2.06222
20
1.14514
11
2.06262
21
1.14447
0
LINE
8
BLACK
6
CONTINUOUS
10
2.06262
20
1.14447
11
2.06296
21
1.14377
0
LINE
8
BLACK
6
CONTINUOUS
10
2.06296
20
1.14377
11
2.06325
21
1.14304
0
LINE
8
BLACK
6
CONTINUOUS
10
2.06325
20
1.14304
11
2.06325
21
1.14304
0
LINE
8
BLACK
6
CONTINUOUS
10
2.06325
20
1.14304
11
2.06433
21
1.14156
0
LINE
8
BLACK
6
CONTINUOUS
10
2.06433
20
1.14156
11
2.06445
21
1.14136
0
LINE
8
BLACK
6
CONTINUOUS
10
2.06445
20
1.14136
11
2.06539
21
1.13979
0
LINE
8
BLACK
6
CONTINUOUS
10
2.06539
20
1.13979
11
2.06594
21
1.13923
0
LINE
8
BLACK
6
CONTINUOUS
10
2.06594
20
1.13923
11
2.06645
21
1.13864
0
LINE
8
BLACK
6
CONTINUOUS
10
2.06645
20
1.13864
11
2.06691
21
1.13801
0
LINE
8
BLACK
6
CONTINUOUS
10
2.06691
20
1.13801
11
2.06832
21
1.13684
0
LINE
8
BLACK
6
CONTINUOUS
10
2.06832
20
1.13684
11
2.06849
21
1.13668
0
LINE
8
BLACK
6
CONTINUOUS
10
2.06849
20
1.13668
11
2.11726
21
1.08792
0
LINE
8
BLACK
6
CONTINUOUS
10
2.11726
20
1.08792
11
2.13278
21
1.07239
0
LINE
8
BLACK
6
CONTINUOUS
10
2.13278
20
1.07239
11
2.13412
21
1.06994
0
LINE
8
BLACK
6
CONTINUOUS
10
2.13412
20
1.06994
11
2.13423
21
1.06889
0
LINE
8
BLACK
6
CONTINUOUS
10
2.13423
20
1.06889
11
2.13423
21
1.02876
0
LINE
8
BLACK
6
CONTINUOUS
10
2.13423
20
1.02876
11
2.13482
21
1.02507
0
LINE
8
BLACK
6
CONTINUOUS
10
2.13482
20
1.02507
11
2.13708
21
1.02062
0
LINE
8
BLACK
6
CONTINUOUS
10
2.13708
20
1.02062
11
2.14062
21
1.01708
0
LINE
8
BLACK
6
CONTINUOUS
10
2.14062
20
1.01708
11
2.14214
21
1.01631
0
LINE
8
BLACK
6
CONTINUOUS
10
2.14214
20
1.01631
11
2.14507
21
1.01482
0
LINE
8
BLACK
6
CONTINUOUS
10
2.14507
20
1.01482
11
2.14876
21
1.01423
0
LINE
8
BLACK
6
CONTINUOUS
10
2.14876
20
1.01423
11
2.21124
21
1.01423
0
LINE
8
BLACK
6
CONTINUOUS
10
2.21124
20
1.01423
11
2.21493
21
1.01482
0
LINE
8
BLACK
6
CONTINUOUS
10
2.21493
20
1.01482
11
2.21938
21
1.01708
0
LINE
8
BLACK
6
CONTINUOUS
10
2.21938
20
1.01708
11
2.22292
21
1.02062
0
LINE
8
BLACK
6
CONTINUOUS
10
2.22292
20
1.02062
11
2.22518
21
1.02507
0
LINE
8
BLACK
6
CONTINUOUS
10
2.22518
20
1.02507
11
2.22518
21
1.02507
0
LINE
8
BLACK
6
CONTINUOUS
10
2.22518
20
1.02507
11
2.22528
21
1.02537
0
LINE
8
BLACK
6
CONTINUOUS
10
2.22528
20
1.02537
11
2.22686
21
1.02768
0
LINE
8
BLACK
6
CONTINUOUS
10
2.22686
20
1.02768
11
2.22943
21
1.02877
0
LINE
8
BLACK
6
CONTINUOUS
10
2.22943
20
1.02877
11
2.23219
21
1.02829
0
LINE
8
BLACK
6
CONTINUOUS
10
2.23219
20
1.02829
11
2.23425
21
1.0264
0
LINE
8
BLACK
6
CONTINUOUS
10
2.23425
20
1.0264
11
2.23472
21
1.02537
0
LINE
8
BLACK
6
CONTINUOUS
10
2.23472
20
1.02537
11
2.23482
21
1.02507
0
LINE
8
BLACK
6
CONTINUOUS
10
2.23482
20
1.02507
11
2.23708
21
1.02062
0
LINE
8
BLACK
6
CONTINUOUS
10
2.23708
20
1.02062
11
2.24062
21
1.01708
0
LINE
8
BLACK
6
CONTINUOUS
10
2.24062
20
1.01708
11
2.24214
21
1.01631
0
LINE
8
BLACK
6
CONTINUOUS
10
2.24214
20
1.01631
11
2.24507
21
1.01482
0
LINE
8
BLACK
6
CONTINUOUS
10
2.24507
20
1.01482
11
2.24876
21
1.01423
0
LINE
8
BLACK
6
CONTINUOUS
10
2.24876
20
1.01423
11
2.31124
21
1.01423
0
LINE
8
BLACK
6
CONTINUOUS
10
2.31124
20
1.01423
11
2.31493
21
1.01482
0
LINE
8
BLACK
6
CONTINUOUS
10
2.31493
20
1.01482
11
2.31938
21
1.01708
0
LINE
8
BLACK
6
CONTINUOUS
10
2.31938
20
1.01708
11
2.32292
21
1.02062
0
LINE
8
BLACK
6
CONTINUOUS
10
2.32292
20
1.02062
11
2.32518
21
1.02507
0
LINE
8
BLACK
6
CONTINUOUS
10
2.32518
20
1.02507
11
2.32577
21
1.02876
0
LINE
8
BLACK
6
CONTINUOUS
10
2.32577
20
1.02876
11
2.32577
21
1.09124
0
LINE
8
BLACK
6
CONTINUOUS
10
2.32577
20
1.09124
11
2.32518
21
1.09493
0
LINE
8
BLACK
6
CONTINUOUS
10
2.32518
20
1.09493
11
2.32405
21
1.09716
0
LINE
8
BLACK
6
CONTINUOUS
10
2.32405
20
1.09716
11
2.32292
21
1.09938
0
LINE
8
BLACK
6
CONTINUOUS
10
2.32292
20
1.09938
11
2.31938
21
1.10292
0
LINE
8
BLACK
6
CONTINUOUS
10
2.31938
20
1.10292
11
2.31493
21
1.10518
0
LINE
8
BLACK
6
CONTINUOUS
10
2.31493
20
1.10518
11
2.31463
21
1.10528
0
LINE
8
BLACK
6
CONTINUOUS
10
2.31463
20
1.10528
11
2.31232
21
1.10686
0
LINE
8
BLACK
6
CONTINUOUS
10
2.31232
20
1.10686
11
2.31123
21
1.10943
0
LINE
8
BLACK
6
CONTINUOUS
10
2.31123
20
1.10943
11
2.31171
21
1.11219
0
LINE
8
BLACK
6
CONTINUOUS
10
2.31171
20
1.11219
11
2.3136
21
1.11425
0
LINE
8
BLACK
6
CONTINUOUS
10
2.3136
20
1.11425
11
2.31463
21
1.11472
0
LINE
8
BLACK
6
CONTINUOUS
10
2.31463
20
1.11472
11
2.31493
21
1.11482
0
LINE
8
BLACK
6
CONTINUOUS
10
2.31493
20
1.11482
11
2.31493
21
1.11482
0
LINE
8
BLACK
6
CONTINUOUS
10
2.31493
20
1.11482
11
2.31938
21
1.11708
0
LINE
8
BLACK
6
CONTINUOUS
10
2.31938
20
1.11708
11
2.32292
21
1.12062
0
LINE
8
BLACK
6
CONTINUOUS
10
2.32292
20
1.12062
11
2.32518
21
1.12507
0
LINE
8
BLACK
6
CONTINUOUS
10
2.32518
20
1.12507
11
2.32577
21
1.12876
0
LINE
8
BLACK
6
CONTINUOUS
10
2.32577
20
1.12876
11
2.32577
21
1.19124
0
LINE
8
BLACK
6
CONTINUOUS
10
2.32577
20
1.19124
11
2.32518
21
1.19493
0
LINE
8
BLACK
6
CONTINUOUS
10
2.32518
20
1.19493
11
2.32405
21
1.19716
0
LINE
8
BLACK
6
CONTINUOUS
10
2.32405
20
1.19716
11
2.32292
21
1.19938
0
LINE
8
BLACK
6
CONTINUOUS
10
2.32292
20
1.19938
11
2.31938
21
1.20292
0
LINE
8
BLACK
6
CONTINUOUS
10
2.31938
20
1.20292
11
2.31493
21
1.20518
0
LINE
8
BLACK
6
CONTINUOUS
10
2.31493
20
1.20518
11
2.31463
21
1.20528
0
LINE
8
BLACK
6
CONTINUOUS
10
2.31463
20
1.20528
11
2.31232
21
1.20686
0
LINE
8
BLACK
6
CONTINUOUS
10
2.31232
20
1.20686
11
2.31123
21
1.20943
0
LINE
8
BLACK
6
CONTINUOUS
10
2.31123
20
1.20943
11
2.31171
21
1.21219
0
LINE
8
BLACK
6
CONTINUOUS
10
2.31171
20
1.21219
11
2.3136
21
1.21425
0
LINE
8
BLACK
6
CONTINUOUS
10
2.3136
20
1.21425
11
2.31463
21
1.21472
0
LINE
8
BLACK
6
CONTINUOUS
10
2.31463
20
1.21472
11
2.31493
21
1.21482
0
LINE
8
BLACK
6
CONTINUOUS
10
2.31493
20
1.21482
11
2.31493
21
1.21482
0
LINE
8
BLACK
6
CONTINUOUS
10
2.31493
20
1.21482
11
2.31938
21
1.21708
0
LINE
8
BLACK
6
CONTINUOUS
10
2.31938
20
1.21708
11
2.32292
21
1.22062
0
LINE
8
BLACK
6
CONTINUOUS
10
2.32292
20
1.22062
11
2.32518
21
1.22507
0
LINE
8
BLACK
6
CONTINUOUS
10
2.32518
20
1.22507
11
2.32577
21
1.22876
0
LINE
8
BLACK
6
CONTINUOUS
10
2.32577
20
1.22876
11
2.32577
21
1.29124
0
LINE
8
BLACK
6
CONTINUOUS
10
2.32577
20
1.29124
11
2.32518
21
1.29493
0
LINE
8
BLACK
6
CONTINUOUS
10
2.32518
20
1.29493
11
2.32405
21
1.29716
0
LINE
8
BLACK
6
CONTINUOUS
10
2.32405
20
1.29716
11
2.32292
21
1.29938
0
LINE
8
BLACK
6
CONTINUOUS
10
2.32292
20
1.29938
11
2.31938
21
1.30292
0
LINE
8
BLACK
6
CONTINUOUS
10
2.31938
20
1.30292
11
2.31493
21
1.30518
0
LINE
8
BLACK
6
CONTINUOUS
10
2.31493
20
1.30518
11
2.31463
21
1.30528
0
LINE
8
BLACK
6
CONTINUOUS
10
2.31463
20
1.30528
11
2.31232
21
1.30686
0
LINE
8
BLACK
6
CONTINUOUS
10
2.31232
20
1.30686
11
2.31123
21
1.30943
0
LINE
8
BLACK
6
CONTINUOUS
10
2.31123
20
1.30943
11
2.31171
21
1.31219
0
LINE
8
BLACK
6
CONTINUOUS
10
2.31171
20
1.31219
11
2.3136
21
1.31425
0
LINE
8
BLACK
6
CONTINUOUS
10
2.3136
20
1.31425
11
2.31463
21
1.31472
0
LINE
8
BLACK
6
CONTINUOUS
10
2.31463
20
1.31472
11
2.31493
21
1.31482
0
LINE
8
BLACK
6
CONTINUOUS
10
2.31493
20
1.31482
11
2.31493
21
1.31482
0
LINE
8
BLACK
6
CONTINUOUS
10
2.31493
20
1.31482
11
2.31938
21
1.31708
0
LINE
8
BLACK
6
CONTINUOUS
10
2.31938
20
1.31708
11
2.32292
21
1.32062
0
LINE
8
BLACK
6
CONTINUOUS
10
2.32292
20
1.32062
11
2.32518
21
1.32507
0
LINE
8
BLACK
6
CONTINUOUS
10
2.32518
20
1.32507
11
2.32577
21
1.32876
0
LINE
8
BLACK
6
CONTINUOUS
10
2.32577
20
1.32876
11
2.32577
21
1.39124
0
LINE
8
BLACK
6
CONTINUOUS
10
2.32577
20
1.39124
11
2.32518
21
1.39493
0
LINE
8
BLACK
6
CONTINUOUS
10
2.32518
20
1.39493
11
2.32405
21
1.39716
0
LINE
8
BLACK
6
CONTINUOUS
10
2.32405
20
1.39716
11
2.32292
21
1.39938
0
LINE
8
BLACK
6
CONTINUOUS
10
2.32292
20
1.39938
11
2.31938
21
1.40292
0
LINE
8
BLACK
6
CONTINUOUS
10
2.31938
20
1.40292
11
2.3164
21
1.40444
0
LINE
8
BLACK
6
CONTINUOUS
10
2.3164
20
1.40444
11
2.31493
21
1.40518
0
LINE
8
BLACK
6
CONTINUOUS
10
2.31493
20
1.40518
11
2.31124
21
1.40577
0
LINE
8
BLACK
6
CONTINUOUS
10
2.31124
20
1.40577
11
2.31124
21
1.40577
0
LINE
8
BLACK
6
CONTINUOUS
10
2.31124
20
1.40577
11
2.24876
21
1.40577
0
LINE
8
BLACK
6
CONTINUOUS
10
2.24876
20
1.40577
11
2.24507
21
1.40518
0
LINE
8
BLACK
6
CONTINUOUS
10
2.24507
20
1.40518
11
2.24062
21
1.40292
0
LINE
8
BLACK
6
CONTINUOUS
10
2.24062
20
1.40292
11
2.23708
21
1.39938
0
LINE
8
BLACK
6
CONTINUOUS
10
2.23708
20
1.39938
11
2.23482
21
1.39493
0
LINE
8
BLACK
6
CONTINUOUS
10
2.23482
20
1.39493
11
2.23472
21
1.39463
0
LINE
8
BLACK
6
CONTINUOUS
10
2.23472
20
1.39463
11
2.23314
21
1.39232
0
LINE
8
BLACK
6
CONTINUOUS
10
2.23314
20
1.39232
11
2.23057
21
1.39123
0
LINE
8
BLACK
6
CONTINUOUS
10
2.23057
20
1.39123
11
2.22781
21
1.39171
0
LINE
8
BLACK
6
CONTINUOUS
10
2.22781
20
1.39171
11
2.22575
21
1.3936
0
LINE
8
BLACK
6
CONTINUOUS
10
2.22575
20
1.3936
11
2.22528
21
1.39463
0
LINE
8
BLACK
6
CONTINUOUS
10
2.22528
20
1.39463
11
2.22518
21
1.39493
0
LINE
8
BLACK
6
CONTINUOUS
10
2.22518
20
1.39493
11
2.22292
21
1.39938
0
LINE
8
BLACK
6
CONTINUOUS
10
2.22292
20
1.39938
11
2.21938
21
1.40292
0
LINE
8
BLACK
6
CONTINUOUS
10
2.21938
20
1.40292
11
2.2164
21
1.40444
0
LINE
8
BLACK
6
CONTINUOUS
10
2.2164
20
1.40444
11
2.21493
21
1.40518
0
LINE
8
BLACK
6
CONTINUOUS
10
2.21493
20
1.40518
11
2.21124
21
1.40577
0
LINE
8
BLACK
6
CONTINUOUS
10
2.21124
20
1.40577
11
2.21124
21
1.40577
0
LINE
8
BLACK
6
CONTINUOUS
10
2.21124
20
1.40577
11
2.14876
21
1.40577
0
LINE
8
BLACK
6
CONTINUOUS
10
2.14876
20
1.40577
11
2.14507
21
1.40518
0
LINE
8
BLACK
6
CONTINUOUS
10
2.14507
20
1.40518
11
2.14062
21
1.40292
0
LINE
8
BLACK
6
CONTINUOUS
10
2.14062
20
1.40292
11
2.13708
21
1.39938
0
LINE
8
BLACK
6
CONTINUOUS
10
2.13708
20
1.39938
11
2.13482
21
1.39493
0
LINE
8
BLACK
6
CONTINUOUS
10
2.13482
20
1.39493
11
2.13482
21
1.39493
0
LINE
8
BLACK
6
CONTINUOUS
10
2.13482
20
1.39493
11
2.13423
21
1.39124
0
LINE
8
BLACK
6
CONTINUOUS
10
2.13423
20
1.39124
11
2.13423
21
1.39124
0
LINE
8
BLACK
6
CONTINUOUS
10
2.13423
20
1.39124
11
2.13423
21
1.32876
0
LINE
8
BLACK
6
CONTINUOUS
10
2.13423
20
1.32876
11
2.13482
21
1.32507
0
LINE
8
BLACK
6
CONTINUOUS
10
2.13482
20
1.32507
11
2.13708
21
1.32062
0
LINE
8
BLACK
6
CONTINUOUS
10
2.13708
20
1.32062
11
2.14062
21
1.31708
0
LINE
8
BLACK
6
CONTINUOUS
10
2.14062
20
1.31708
11
2.14288
21
1.31593
0
LINE
8
BLACK
6
CONTINUOUS
10
2.14288
20
1.31593
11
2.14507
21
1.31482
0
LINE
8
BLACK
6
CONTINUOUS
10
2.14507
20
1.31482
11
2.14507
21
1.31482
0
LINE
8
BLACK
6
CONTINUOUS
10
2.14507
20
1.31482
11
2.14537
21
1.31472
0
LINE
8
BLACK
6
CONTINUOUS
10
2.14537
20
1.31472
11
2.14768
21
1.31314
0
LINE
8
BLACK
6
CONTINUOUS
10
2.14768
20
1.31314
11
2.14877
21
1.31057
0
LINE
8
BLACK
6
CONTINUOUS
10
2.14877
20
1.31057
11
2.14829
21
1.30781
0
LINE
8
BLACK
6
CONTINUOUS
10
2.14829
20
1.30781
11
2.1464
21
1.30575
0
LINE
8
BLACK
6
CONTINUOUS
10
2.1464
20
1.30575
11
2.14537
21
1.30528
0
LINE
8
BLACK
6
CONTINUOUS
10
2.14537
20
1.30528
11
2.14507
21
1.30518
0
LINE
8
BLACK
6
CONTINUOUS
10
2.14507
20
1.30518
11
2.14062
21
1.30292
0
LINE
8
BLACK
6
CONTINUOUS
10
2.14062
20
1.30292
11
2.13708
21
1.29938
0
LINE
8
BLACK
6
CONTINUOUS
10
2.13708
20
1.29938
11
2.13482
21
1.29493
0
LINE
8
BLACK
6
CONTINUOUS
10
2.13482
20
1.29493
11
2.13482
21
1.29493
0
LINE
8
BLACK
6
CONTINUOUS
10
2.13482
20
1.29493
11
2.13423
21
1.29124
0
LINE
8
BLACK
6
CONTINUOUS
10
2.13423
20
1.29124
11
2.13423
21
1.29124
0
LINE
8
BLACK
6
CONTINUOUS
10
2.13423
20
1.29124
11
2.13423
21
1.22876
0
LINE
8
BLACK
6
CONTINUOUS
10
2.13423
20
1.22876
11
2.13482
21
1.22507
0
LINE
8
BLACK
6
CONTINUOUS
10
2.13482
20
1.22507
11
2.13708
21
1.22062
0
LINE
8
BLACK
6
CONTINUOUS
10
2.13708
20
1.22062
11
2.14062
21
1.21708
0
LINE
8
BLACK
6
CONTINUOUS
10
2.14062
20
1.21708
11
2.14288
21
1.21593
0
LINE
8
BLACK
6
CONTINUOUS
10
2.14288
20
1.21593
11
2.14507
21
1.21482
0
LINE
8
BLACK
6
CONTINUOUS
10
2.14507
20
1.21482
11
2.14507
21
1.21482
0
LINE
8
BLACK
6
CONTINUOUS
10
2.14507
20
1.21482
11
2.14537
21
1.21472
0
LINE
8
BLACK
6
CONTINUOUS
10
2.14537
20
1.21472
11
2.14768
21
1.21314
0
LINE
8
BLACK
6
CONTINUOUS
10
2.14768
20
1.21314
11
2.14877
21
1.21057
0
LINE
8
BLACK
6
CONTINUOUS
10
2.14877
20
1.21057
11
2.14829
21
1.20781
0
LINE
8
BLACK
6
CONTINUOUS
10
2.14829
20
1.20781
11
2.1464
21
1.20575
0
LINE
8
BLACK
6
CONTINUOUS
10
2.1464
20
1.20575
11
2.14537
21
1.20528
0
LINE
8
BLACK
6
CONTINUOUS
10
2.14537
20
1.20528
11
2.14507
21
1.20518
0
LINE
8
BLACK
6
CONTINUOUS
10
2.14507
20
1.20518
11
2.14062
21
1.20292
0
LINE
8
BLACK
6
CONTINUOUS
10
2.14062
20
1.20292
11
2.13708
21
1.19938
0
LINE
8
BLACK
6
CONTINUOUS
10
2.13708
20
1.19938
11
2.13482
21
1.19493
0
LINE
8
BLACK
6
CONTINUOUS
10
2.13482
20
1.19493
11
2.13482
21
1.19493
0
LINE
8
BLACK
6
CONTINUOUS
10
2.13482
20
1.19493
11
2.13423
21
1.19124
0
LINE
8
BLACK
6
CONTINUOUS
10
2.13423
20
1.19124
11
2.13423
21
1.19124
0
LINE
8
BLACK
6
CONTINUOUS
10
2.13423
20
1.19124
11
2.13423
21
1.15257
0
LINE
8
BLACK
6
CONTINUOUS
10
2.13423
20
1.15257
11
2.13344
21
1.14989
0
LINE
8
BLACK
6
CONTINUOUS
10
2.13344
20
1.14989
11
2.13133
21
1.14806
0
LINE
8
BLACK
6
CONTINUOUS
10
2.13133
20
1.14806
11
2.12857
21
1.14766
0
LINE
8
BLACK
6
CONTINUOUS
10
2.12857
20
1.14766
11
2.12602
21
1.14882
0
LINE
8
BLACK
6
CONTINUOUS
10
2.12602
20
1.14882
11
2.12576
21
1.14906
0
LINE
8
BLACK
6
CONTINUOUS
10
2.12576
20
1.14906
11
2.11108
21
1.16375
0
LINE
8
BLACK
6
CONTINUOUS
10
2.11108
20
1.16375
11
2.10974
21
1.1662
0
LINE
8
BLACK
6
CONTINUOUS
10
2.10974
20
1.1662
11
2.10963
21
1.16726
0
LINE
8
BLACK
6
CONTINUOUS
10
2.10963
20
1.16726
11
2.10963
21
1.33673
0
LINE
8
BLACK
6
CONTINUOUS
10
2.10963
20
1.33673
11
2.10969
21
1.33735
0
LINE
8
BLACK
6
CONTINUOUS
10
2.10969
20
1.33735
11
2.10968
21
1.33735
0
LINE
8
BLACK
6
CONTINUOUS
10
2.10968
20
1.33735
11
2.10971
21
1.33766
0
LINE
8
BLACK
6
CONTINUOUS
10
2.10971
20
1.33766
11
2.10963
21
1.34039
0
LINE
8
BLACK
6
CONTINUOUS
10
2.10963
20
1.34039
11
2.10963
21
1.34155
0
LINE
8
BLACK
6
CONTINUOUS
10
2.10963
20
1.34155
11
2.10963
21
1.34155
0
LINE
8
BLACK
6
CONTINUOUS
10
2.10963
20
1.34155
11
2.10959
21
1.34182
0
LINE
8
BLACK
6
CONTINUOUS
10
2.10959
20
1.34182
11
2.10957
21
1.34205
0
LINE
8
BLACK
6
CONTINUOUS
10
2.10957
20
1.34205
11
2.10952
21
1.34388
0
LINE
8
BLACK
6
CONTINUOUS
10
2.10952
20
1.34388
11
2.1093
21
1.34463
0
LINE
8
BLACK
6
CONTINUOUS
10
2.1093
20
1.34463
11
2.10914
21
1.3454
0
LINE
8
BLACK
6
CONTINUOUS
10
2.10914
20
1.3454
11
2.10904
21
1.34617
0
LINE
8
BLACK
6
CONTINUOUS
10
2.10904
20
1.34617
11
2.10904
21
1.34617
0
LINE
8
BLACK
6
CONTINUOUS
10
2.10904
20
1.34617
11
2.10904
21
1.34617
0
LINE
8
BLACK
6
CONTINUOUS
10
2.10904
20
1.34617
11
2.10837
21
1.34788
0
LINE
8
BLACK
6
CONTINUOUS
10
2.10837
20
1.34788
11
2.10829
21
1.3481
0
LINE
8
BLACK
6
CONTINUOUS
10
2.10829
20
1.3481
11
2.10778
21
1.34986
0
LINE
8
BLACK
6
CONTINUOUS
10
2.10778
20
1.34986
11
2.10738
21
1.35053
0
LINE
8
BLACK
6
CONTINUOUS
10
2.10738
20
1.35053
11
2.10704
21
1.35123
0
LINE
8
BLACK
6
CONTINUOUS
10
2.10704
20
1.35123
11
2.10675
21
1.35196
0
LINE
8
BLACK
6
CONTINUOUS
10
2.10675
20
1.35196
11
2.10567
21
1.35344
0
LINE
8
BLACK
6
CONTINUOUS
10
2.10567
20
1.35344
11
2.10555
21
1.35364
0
LINE
8
BLACK
6
CONTINUOUS
10
2.10555
20
1.35364
11
2.10461
21
1.35521
0
LINE
8
BLACK
6
CONTINUOUS
10
2.10461
20
1.35521
11
2.10406
21
1.35577
0
LINE
8
BLACK
6
CONTINUOUS
10
2.10406
20
1.35577
11
2.10355
21
1.35636
0
LINE
8
BLACK
6
CONTINUOUS
10
2.10355
20
1.35636
11
2.10309
21
1.35699
0
LINE
8
BLACK
6
CONTINUOUS
10
2.10309
20
1.35699
11
2.10309
21
1.35699
0
LINE
8
BLACK
6
CONTINUOUS
10
2.10309
20
1.35699
11
2.10281
21
1.35723
0
LINE
8
BLACK
6
CONTINUOUS
10
2.10281
20
1.35723
11
2.10168
21
1.35816
0
LINE
8
BLACK
6
CONTINUOUS
10
2.10168
20
1.35816
11
2.10151
21
1.35832
0
LINE
8
BLACK
6
CONTINUOUS
10
2.10151
20
1.35832
11
2.05472
21
1.4051
0
LINE
8
BLACK
6
CONTINUOUS
10
2.05472
20
1.4051
11
2.05433
21
1.40559
0
LINE
8
BLACK
6
CONTINUOUS
10
2.05433
20
1.40559
11
2.05432
21
1.40558
0
LINE
8
BLACK
6
CONTINUOUS
10
2.05432
20
1.40558
11
2.05413
21
1.40582
0
LINE
8
BLACK
6
CONTINUOUS
10
2.05413
20
1.40582
11
2.05214
21
1.40769
0
LINE
8
BLACK
6
CONTINUOUS
10
2.05214
20
1.40769
11
2.05132
21
1.40851
0
LINE
8
BLACK
6
CONTINUOUS
10
2.05132
20
1.40851
11
2.05132
21
1.40851
0
LINE
8
BLACK
6
CONTINUOUS
10
2.05132
20
1.40851
11
2.0511
21
1.40868
0
LINE
8
BLACK
6
CONTINUOUS
10
2.0511
20
1.40868
11
2.05093
21
1.40883
0
LINE
8
BLACK
6
CONTINUOUS
10
2.05093
20
1.40883
11
2.04959
21
1.41008
0
LINE
8
BLACK
6
CONTINUOUS
10
2.04959
20
1.41008
11
2.04959
21
1.41008
0
LINE
8
BLACK
6
CONTINUOUS
10
2.04959
20
1.41008
11
2.0489
21
1.41046
0
LINE
8
BLACK
6
CONTINUOUS
10
2.0489
20
1.41046
11
2.04825
21
1.41089
0
LINE
8
BLACK
6
CONTINUOUS
10
2.04825
20
1.41089
11
2.04764
21
1.41137
0
LINE
8
BLACK
6
CONTINUOUS
10
2.04764
20
1.41137
11
2.04764
21
1.41137
0
LINE
8
BLACK
6
CONTINUOUS
10
2.04764
20
1.41137
11
2.04676
21
1.41175
0
LINE
8
BLACK
6
CONTINUOUS
10
2.04676
20
1.41175
11
2.04595
21
1.41209
0
LINE
8
BLACK
6
CONTINUOUS
10
2.04595
20
1.41209
11
2.04574
21
1.4122
0
LINE
8
BLACK
6
CONTINUOUS
10
2.04574
20
1.4122
11
2.04414
21
1.41308
0
LINE
8
BLACK
6
CONTINUOUS
10
2.04414
20
1.41308
11
2.04414
21
1.41308
0
LINE
8
BLACK
6
CONTINUOUS
10
2.04414
20
1.41308
11
2.04338
21
1.41327
0
LINE
8
BLACK
6
CONTINUOUS
10
2.04338
20
1.41327
11
2.04264
21
1.41353
0
LINE
8
BLACK
6
CONTINUOUS
10
2.04264
20
1.41353
11
2.04193
21
1.41384
0
LINE
8
BLACK
6
CONTINUOUS
10
2.04193
20
1.41384
11
2.04192
21
1.41384
0
LINE
8
BLACK
6
CONTINUOUS
10
2.04192
20
1.41384
11
2.04012
21
1.41412
0
LINE
8
BLACK
6
CONTINUOUS
10
2.04012
20
1.41412
11
2.03989
21
1.41417
0
LINE
8
BLACK
6
CONTINUOUS
10
2.03989
20
1.41417
11
2.03811
21
1.41463
0
LINE
8
BLACK
6
CONTINUOUS
10
2.03811
20
1.41463
11
2.03811
21
1.41463
0
LINE
8
BLACK
6
CONTINUOUS
10
2.03811
20
1.41463
11
2.03733
21
1.41463
0
LINE
8
BLACK
6
CONTINUOUS
10
2.03733
20
1.41463
11
2.03655
21
1.41469
0
LINE
8
BLACK
6
CONTINUOUS
10
2.03655
20
1.41469
11
2.03578
21
1.41481
0
LINE
8
BLACK
6
CONTINUOUS
10
2.03578
20
1.41481
11
2.03578
21
1.41481
0
LINE
8
BLACK
6
CONTINUOUS
10
2.03578
20
1.41481
11
2.03396
21
1.41464
0
LINE
8
BLACK
6
CONTINUOUS
10
2.03396
20
1.41464
11
2.03372
21
1.41463
0
LINE
8
BLACK
6
CONTINUOUS
10
2.03372
20
1.41463
11
1.66147
21
1.41463
0
LINE
8
BLACK
6
CONTINUOUS
10
1.66147
20
1.41463
11
1.65883
21
1.41539
0
LINE
8
BLACK
6
CONTINUOUS
10
1.65883
20
1.41539
11
1.65376
21
1.41857
0
LINE
8
BLACK
6
CONTINUOUS
10
1.65376
20
1.41857
11
1.65376
21
1.41857
0
LINE
8
BLACK
6
CONTINUOUS
10
1.65376
20
1.41857
11
1.64706
21
1.42092
0
LINE
8
BLACK
6
CONTINUOUS
10
1.64706
20
1.42092
11
1.64
21
1.42172
0
LINE
8
BLACK
6
CONTINUOUS
10
1.64
20
1.42172
11
1.64
21
1.42172
0
LINE
8
BLACK
6
CONTINUOUS
10
1.64
20
1.42172
11
1.63897
21
1.4216
0
LINE
8
BLACK
6
CONTINUOUS
10
1.63897
20
1.4216
11
1.63294
21
1.42092
0
LINE
8
BLACK
6
CONTINUOUS
10
1.63294
20
1.42092
11
1.63294
21
1.42092
0
LINE
8
BLACK
6
CONTINUOUS
10
1.63294
20
1.42092
11
1.63294
21
1.42092
0
LINE
8
BLACK
6
CONTINUOUS
10
1.63294
20
1.42092
11
1.62624
21
1.41857
0
LINE
8
BLACK
6
CONTINUOUS
10
1.62624
20
1.41857
11
1.62624
21
1.41857
0
LINE
8
BLACK
6
CONTINUOUS
10
1.62624
20
1.41857
11
1.62023
21
1.4148
0
LINE
8
BLACK
6
CONTINUOUS
10
1.62023
20
1.4148
11
1.62023
21
1.4148
0
LINE
8
BLACK
6
CONTINUOUS
10
1.62023
20
1.4148
11
1.6152
21
1.40977
0
LINE
8
BLACK
6
CONTINUOUS
10
1.6152
20
1.40977
11
1.6152
21
1.40977
0
LINE
8
BLACK
6
CONTINUOUS
10
1.6152
20
1.40977
11
1.61143
21
1.40376
0
LINE
8
BLACK
6
CONTINUOUS
10
1.61143
20
1.40376
11
1.61143
21
1.40376
0
LINE
8
BLACK
6
CONTINUOUS
10
1.61143
20
1.40376
11
1.60989
21
1.39938
0
LINE
8
BLACK
6
CONTINUOUS
10
1.60989
20
1.39938
11
1.60908
21
1.39706
0
LINE
8
BLACK
6
CONTINUOUS
10
1.60908
20
1.39706
11
1.60828
21
1.39
0
LINE
8
BLACK
6
CONTINUOUS
10
1.60828
20
1.39
11
1.60908
21
1.38294
0
LINE
8
BLACK
6
CONTINUOUS
10
1.66982
20
1.10007
11
1.67208
21
1.09562
0
LINE
8
BLACK
6
CONTINUOUS
10
1.67208
20
1.09562
11
1.67562
21
1.09208
0
LINE
8
BLACK
6
CONTINUOUS
10
1.67562
20
1.09208
11
1.67635
21
1.09171
0
LINE
8
BLACK
6
CONTINUOUS
10
1.67635
20
1.09171
11
1.68007
21
1.08982
0
LINE
8
BLACK
6
CONTINUOUS
10
1.68007
20
1.08982
11
1.68376
21
1.08923
0
LINE
8
BLACK
6
CONTINUOUS
10
1.68376
20
1.08923
11
1.74624
21
1.08923
0
LINE
8
BLACK
6
CONTINUOUS
10
1.74624
20
1.08923
11
1.74993
21
1.08982
0
LINE
8
BLACK
6
CONTINUOUS
10
1.74993
20
1.08982
11
1.75438
21
1.09208
0
LINE
8
BLACK
6
CONTINUOUS
10
1.75438
20
1.09208
11
1.75792
21
1.09562
0
LINE
8
BLACK
6
CONTINUOUS
10
1.75792
20
1.09562
11
1.76018
21
1.10007
0
LINE
8
BLACK
6
CONTINUOUS
10
1.76018
20
1.10007
11
1.76018
21
1.10007
0
LINE
8
BLACK
6
CONTINUOUS
10
1.76018
20
1.10007
11
1.76028
21
1.10037
0
LINE
8
BLACK
6
CONTINUOUS
10
1.76028
20
1.10037
11
1.76186
21
1.10268
0
LINE
8
BLACK
6
CONTINUOUS
10
1.76186
20
1.10268
11
1.76443
21
1.10377
0
LINE
8
BLACK
6
CONTINUOUS
10
1.76443
20
1.10377
11
1.76719
21
1.10329
0
LINE
8
BLACK
6
CONTINUOUS
10
1.76719
20
1.10329
11
1.76925
21
1.1014
0
LINE
8
BLACK
6
CONTINUOUS
10
1.76925
20
1.1014
11
1.76972
21
1.10037
0
LINE
8
BLACK
6
CONTINUOUS
10
1.76972
20
1.10037
11
1.76982
21
1.10007
0
LINE
8
BLACK
6
CONTINUOUS
10
1.76982
20
1.10007
11
1.77208
21
1.09562
0
LINE
8
BLACK
6
CONTINUOUS
10
1.77208
20
1.09562
11
1.77562
21
1.09208
0
LINE
8
BLACK
6
CONTINUOUS
10
1.77562
20
1.09208
11
1.77635
21
1.09171
0
LINE
8
BLACK
6
CONTINUOUS
10
1.77635
20
1.09171
11
1.78007
21
1.08982
0
LINE
8
BLACK
6
CONTINUOUS
10
1.78007
20
1.08982
11
1.78376
21
1.08923
0
LINE
8
BLACK
6
CONTINUOUS
10
1.78376
20
1.08923
11
1.84624
21
1.08923
0
LINE
8
BLACK
6
CONTINUOUS
10
1.84624
20
1.08923
11
1.84993
21
1.08982
0
LINE
8
BLACK
6
CONTINUOUS
10
1.84993
20
1.08982
11
1.85438
21
1.09208
0
LINE
8
BLACK
6
CONTINUOUS
10
1.85438
20
1.09208
11
1.85792
21
1.09562
0
LINE
8
BLACK
6
CONTINUOUS
10
1.85792
20
1.09562
11
1.86018
21
1.10007
0
LINE
8
BLACK
6
CONTINUOUS
10
1.86018
20
1.10007
11
1.86077
21
1.10376
0
LINE
8
BLACK
6
CONTINUOUS
10
1.86077
20
1.10376
11
1.86077
21
1.16624
0
LINE
8
BLACK
6
CONTINUOUS
10
1.86077
20
1.16624
11
1.86018
21
1.16993
0
LINE
8
BLACK
6
CONTINUOUS
10
1.86018
20
1.16993
11
1.85905
21
1.17216
0
LINE
8
BLACK
6
CONTINUOUS
10
1.85905
20
1.17216
11
1.85792
21
1.17438
0
LINE
8
BLACK
6
CONTINUOUS
10
1.85792
20
1.17438
11
1.85438
21
1.17792
0
LINE
8
BLACK
6
CONTINUOUS
10
1.85438
20
1.17792
11
1.8514
21
1.17944
0
LINE
8
BLACK
6
CONTINUOUS
10
1.8514
20
1.17944
11
1.84993
21
1.18018
0
LINE
8
BLACK
6
CONTINUOUS
10
1.84993
20
1.18018
11
1.84624
21
1.18077
0
LINE
8
BLACK
6
CONTINUOUS
10
1.84624
20
1.18077
11
1.84624
21
1.18077
0
LINE
8
BLACK
6
CONTINUOUS
10
1.84624
20
1.18077
11
1.78376
21
1.18077
0
LINE
8
BLACK
6
CONTINUOUS
10
1.78376
20
1.18077
11
1.78007
21
1.18018
0
LINE
8
BLACK
6
CONTINUOUS
10
1.78007
20
1.18018
11
1.77562
21
1.17792
0
LINE
8
BLACK
6
CONTINUOUS
10
1.77562
20
1.17792
11
1.77208
21
1.17438
0
LINE
8
BLACK
6
CONTINUOUS
10
1.77208
20
1.17438
11
1.76982
21
1.16993
0
LINE
8
BLACK
6
CONTINUOUS
10
1.76982
20
1.16993
11
1.76972
21
1.16963
0
LINE
8
BLACK
6
CONTINUOUS
10
1.76972
20
1.16963
11
1.76814
21
1.16732
0
LINE
8
BLACK
6
CONTINUOUS
10
1.76814
20
1.16732
11
1.76557
21
1.16623
0
LINE
8
BLACK
6
CONTINUOUS
10
1.76557
20
1.16623
11
1.76281
21
1.16671
0
LINE
8
BLACK
6
CONTINUOUS
10
1.76281
20
1.16671
11
1.76075
21
1.1686
0
LINE
8
BLACK
6
CONTINUOUS
10
1.76075
20
1.1686
11
1.76028
21
1.16963
0
LINE
8
BLACK
6
CONTINUOUS
10
1.76028
20
1.16963
11
1.76018
21
1.16993
0
LINE
8
BLACK
6
CONTINUOUS
10
1.76018
20
1.16993
11
1.75792
21
1.17438
0
LINE
8
BLACK
6
CONTINUOUS
10
1.75792
20
1.17438
11
1.75438
21
1.17792
0
LINE
8
BLACK
6
CONTINUOUS
10
1.75438
20
1.17792
11
1.7514
21
1.17944
0
LINE
8
BLACK
6
CONTINUOUS
10
1.7514
20
1.17944
11
1.74993
21
1.18018
0
LINE
8
BLACK
6
CONTINUOUS
10
1.74993
20
1.18018
11
1.74624
21
1.18077
0
LINE
8
BLACK
6
CONTINUOUS
10
1.74624
20
1.18077
11
1.74624
21
1.18077
0
LINE
8
BLACK
6
CONTINUOUS
10
1.74624
20
1.18077
11
1.68376
21
1.18077
0
LINE
8
BLACK
6
CONTINUOUS
10
1.68376
20
1.18077
11
1.68007
21
1.18018
0
LINE
8
BLACK
6
CONTINUOUS
10
1.68007
20
1.18018
11
1.67562
21
1.17792
0
LINE
8
BLACK
6
CONTINUOUS
10
1.67562
20
1.17792
11
1.67208
21
1.17438
0
LINE
8
BLACK
6
CONTINUOUS
10
1.67208
20
1.17438
11
1.67032
21
1.17092
0
LINE
8
BLACK
6
CONTINUOUS
10
1.67032
20
1.17092
11
1.66982
21
1.16993
0
LINE
8
BLACK
6
CONTINUOUS
10
1.66982
20
1.16993
11
1.66923
21
1.16624
0
LINE
8
BLACK
6
CONTINUOUS
10
1.66923
20
1.16624
11
1.66923
21
1.16624
0
LINE
8
BLACK
6
CONTINUOUS
10
1.66923
20
1.16624
11
1.66923
21
1.10376
0
LINE
8
BLACK
6
CONTINUOUS
10
1.66923
20
1.10376
11
1.66982
21
1.10007
0
LINE
8
BLACK
6
CONTINUOUS
10
1.40482
20
1.13507
11
1.40708
21
1.13062
0
LINE
8
BLACK
6
CONTINUOUS
10
1.40708
20
1.13062
11
1.41062
21
1.12708
0
LINE
8
BLACK
6
CONTINUOUS
10
1.41062
20
1.12708
11
1.41196
21
1.1264
0
LINE
8
BLACK
6
CONTINUOUS
10
1.41196
20
1.1264
11
1.41507
21
1.12482
0
LINE
8
BLACK
6
CONTINUOUS
10
1.41507
20
1.12482
11
1.41876
21
1.12423
0
LINE
8
BLACK
6
CONTINUOUS
10
1.41876
20
1.12423
11
1.48124
21
1.12423
0
LINE
8
BLACK
6
CONTINUOUS
10
1.48124
20
1.12423
11
1.48493
21
1.12482
0
LINE
8
BLACK
6
CONTINUOUS
10
1.48493
20
1.12482
11
1.48938
21
1.12708
0
LINE
8
BLACK
6
CONTINUOUS
10
1.48938
20
1.12708
11
1.49292
21
1.13062
0
LINE
8
BLACK
6
CONTINUOUS
10
1.49292
20
1.13062
11
1.49518
21
1.13507
0
LINE
8
BLACK
6
CONTINUOUS
10
1.49518
20
1.13507
11
1.49518
21
1.13507
0
LINE
8
BLACK
6
CONTINUOUS
10
1.49518
20
1.13507
11
1.49528
21
1.13537
0
LINE
8
BLACK
6
CONTINUOUS
10
1.49528
20
1.13537
11
1.49686
21
1.13768
0
LINE
8
BLACK
6
CONTINUOUS
10
1.49686
20
1.13768
11
1.49943
21
1.13877
0
LINE
8
BLACK
6
CONTINUOUS
10
1.49943
20
1.13877
11
1.50219
21
1.13829
0
LINE
8
BLACK
6
CONTINUOUS
10
1.50219
20
1.13829
11
1.50425
21
1.1364
0
LINE
8
BLACK
6
CONTINUOUS
10
1.50425
20
1.1364
11
1.50472
21
1.13537
0
LINE
8
BLACK
6
CONTINUOUS
10
1.50472
20
1.13537
11
1.50482
21
1.13507
0
LINE
8
BLACK
6
CONTINUOUS
10
1.50482
20
1.13507
11
1.50708
21
1.13062
0
LINE
8
BLACK
6
CONTINUOUS
10
1.50708
20
1.13062
11
1.51062
21
1.12708
0
LINE
8
BLACK
6
CONTINUOUS
10
1.51062
20
1.12708
11
1.51196
21
1.1264
0
LINE
8
BLACK
6
CONTINUOUS
10
1.51196
20
1.1264
11
1.51507
21
1.12482
0
LINE
8
BLACK
6
CONTINUOUS
10
1.51507
20
1.12482
11
1.51876
21
1.12423
0
LINE
8
BLACK
6
CONTINUOUS
10
1.51876
20
1.12423
11
1.58124
21
1.12423
0
LINE
8
BLACK
6
CONTINUOUS
10
1.58124
20
1.12423
11
1.58493
21
1.12482
0
LINE
8
BLACK
6
CONTINUOUS
10
1.58493
20
1.12482
11
1.58938
21
1.12708
0
LINE
8
BLACK
6
CONTINUOUS
10
1.58938
20
1.12708
11
1.59292
21
1.13062
0
LINE
8
BLACK
6
CONTINUOUS
10
1.59292
20
1.13062
11
1.59518
21
1.13507
0
LINE
8
BLACK
6
CONTINUOUS
10
1.59518
20
1.13507
11
1.59577
21
1.13876
0
LINE
8
BLACK
6
CONTINUOUS
10
1.59577
20
1.13876
11
1.59577
21
1.20124
0
LINE
8
BLACK
6
CONTINUOUS
10
1.59577
20
1.20124
11
1.59518
21
1.20493
0
LINE
8
BLACK
6
CONTINUOUS
10
1.59518
20
1.20493
11
1.59352
21
1.2082
0
LINE
8
BLACK
6
CONTINUOUS
10
1.59352
20
1.2082
11
1.59292
21
1.20938
0
LINE
8
BLACK
6
CONTINUOUS
10
1.59292
20
1.20938
11
1.58938
21
1.21292
0
LINE
8
BLACK
6
CONTINUOUS
10
1.58938
20
1.21292
11
1.58493
21
1.21518
0
LINE
8
BLACK
6
CONTINUOUS
10
1.58493
20
1.21518
11
1.58463
21
1.21528
0
LINE
8
BLACK
6
CONTINUOUS
10
1.58463
20
1.21528
11
1.58232
21
1.21686
0
LINE
8
BLACK
6
CONTINUOUS
10
1.58232
20
1.21686
11
1.58123
21
1.21943
0
LINE
8
BLACK
6
CONTINUOUS
10
1.58123
20
1.21943
11
1.58171
21
1.22219
0
LINE
8
BLACK
6
CONTINUOUS
10
1.58171
20
1.22219
11
1.5836
21
1.22425
0
LINE
8
BLACK
6
CONTINUOUS
10
1.5836
20
1.22425
11
1.58463
21
1.22472
0
LINE
8
BLACK
6
CONTINUOUS
10
1.58463
20
1.22472
11
1.58493
21
1.22482
0
LINE
8
BLACK
6
CONTINUOUS
10
1.58493
20
1.22482
11
1.58493
21
1.22482
0
LINE
8
BLACK
6
CONTINUOUS
10
1.58493
20
1.22482
11
1.58938
21
1.22708
0
LINE
8
BLACK
6
CONTINUOUS
10
1.58938
20
1.22708
11
1.59292
21
1.23062
0
LINE
8
BLACK
6
CONTINUOUS
10
1.59292
20
1.23062
11
1.59518
21
1.23507
0
LINE
8
BLACK
6
CONTINUOUS
10
1.59518
20
1.23507
11
1.59577
21
1.23876
0
LINE
8
BLACK
6
CONTINUOUS
10
1.59577
20
1.23876
11
1.59577
21
1.30124
0
LINE
8
BLACK
6
CONTINUOUS
10
1.59577
20
1.30124
11
1.59518
21
1.30493
0
LINE
8
BLACK
6
CONTINUOUS
10
1.59518
20
1.30493
11
1.59308
21
1.30906
0
LINE
8
BLACK
6
CONTINUOUS
10
1.59308
20
1.30906
11
1.59292
21
1.30938
0
LINE
8
BLACK
6
CONTINUOUS
10
1.59292
20
1.30938
11
1.58938
21
1.31292
0
LINE
8
BLACK
6
CONTINUOUS
10
1.58938
20
1.31292
11
1.58565
21
1.31482
0
LINE
8
BLACK
6
CONTINUOUS
10
1.58565
20
1.31482
11
1.58493
21
1.31518
0
LINE
8
BLACK
6
CONTINUOUS
10
1.58493
20
1.31518
11
1.58124
21
1.31577
0
LINE
8
BLACK
6
CONTINUOUS
10
1.58124
20
1.31577
11
1.58124
21
1.31577
0
LINE
8
BLACK
6
CONTINUOUS
10
1.58124
20
1.31577
11
1.51876
21
1.31577
0
LINE
8
BLACK
6
CONTINUOUS
10
1.51876
20
1.31577
11
1.51507
21
1.31518
0
LINE
8
BLACK
6
CONTINUOUS
10
1.51507
20
1.31518
11
1.51062
21
1.31292
0
LINE
8
BLACK
6
CONTINUOUS
10
1.51062
20
1.31292
11
1.50708
21
1.30938
0
LINE
8
BLACK
6
CONTINUOUS
10
1.50708
20
1.30938
11
1.50482
21
1.30493
0
LINE
8
BLACK
6
CONTINUOUS
10
1.50482
20
1.30493
11
1.50472
21
1.30463
0
LINE
8
BLACK
6
CONTINUOUS
10
1.50472
20
1.30463
11
1.50314
21
1.30232
0
LINE
8
BLACK
6
CONTINUOUS
10
1.50314
20
1.30232
11
1.50057
21
1.30123
0
LINE
8
BLACK
6
CONTINUOUS
10
1.50057
20
1.30123
11
1.49781
21
1.30171
0
LINE
8
BLACK
6
CONTINUOUS
10
1.49781
20
1.30171
11
1.49575
21
1.3036
0
LINE
8
BLACK
6
CONTINUOUS
10
1.49575
20
1.3036
11
1.49528
21
1.30463
0
LINE
8
BLACK
6
CONTINUOUS
10
1.49528
20
1.30463
11
1.49518
21
1.30493
0
LINE
8
BLACK
6
CONTINUOUS
10
1.49518
20
1.30493
11
1.49292
21
1.30938
0
LINE
8
BLACK
6
CONTINUOUS
10
1.49292
20
1.30938
11
1.48938
21
1.31292
0
LINE
8
BLACK
6
CONTINUOUS
10
1.48938
20
1.31292
11
1.48565
21
1.31482
0
LINE
8
BLACK
6
CONTINUOUS
10
1.48565
20
1.31482
11
1.48493
21
1.31518
0
LINE
8
BLACK
6
CONTINUOUS
10
1.48493
20
1.31518
11
1.48124
21
1.31577
0
LINE
8
BLACK
6
CONTINUOUS
10
1.48124
20
1.31577
11
1.48124
21
1.31577
0
LINE
8
BLACK
6
CONTINUOUS
10
1.48124
20
1.31577
11
1.41876
21
1.31577
0
LINE
8
BLACK
6
CONTINUOUS
10
1.41876
20
1.31577
11
1.41507
21
1.31518
0
LINE
8
BLACK
6
CONTINUOUS
10
1.41507
20
1.31518
11
1.41062
21
1.31292
0
LINE
8
BLACK
6
CONTINUOUS
10
1.41062
20
1.31292
11
1.40708
21
1.30938
0
LINE
8
BLACK
6
CONTINUOUS
10
1.40708
20
1.30938
11
1.40499
21
1.30528
0
LINE
8
BLACK
6
CONTINUOUS
10
1.40499
20
1.30528
11
1.40482
21
1.30493
0
LINE
8
BLACK
6
CONTINUOUS
10
1.40482
20
1.30493
11
1.40423
21
1.30124
0
LINE
8
BLACK
6
CONTINUOUS
10
1.40423
20
1.30124
11
1.40423
21
1.30124
0
LINE
8
BLACK
6
CONTINUOUS
10
1.40423
20
1.30124
11
1.40423
21
1.23876
0
LINE
8
BLACK
6
CONTINUOUS
10
1.40423
20
1.23876
11
1.40482
21
1.23507
0
LINE
8
BLACK
6
CONTINUOUS
10
1.40482
20
1.23507
11
1.40708
21
1.23062
0
LINE
8
BLACK
6
CONTINUOUS
10
1.40708
20
1.23062
11
1.41062
21
1.22708
0
LINE
8
BLACK
6
CONTINUOUS
10
1.41062
20
1.22708
11
1.41288
21
1.22593
0
LINE
8
BLACK
6
CONTINUOUS
10
1.41288
20
1.22593
11
1.41507
21
1.22482
0
LINE
8
BLACK
6
CONTINUOUS
10
1.41507
20
1.22482
11
1.41507
21
1.22482
0
LINE
8
BLACK
6
CONTINUOUS
10
1.41507
20
1.22482
11
1.41537
21
1.22472
0
LINE
8
BLACK
6
CONTINUOUS
10
1.41537
20
1.22472
11
1.41768
21
1.22314
0
LINE
8
BLACK
6
CONTINUOUS
10
1.41768
20
1.22314
11
1.41877
21
1.22057
0
LINE
8
BLACK
6
CONTINUOUS
10
1.41877
20
1.22057
11
1.41829
21
1.21781
0
LINE
8
BLACK
6
CONTINUOUS
10
1.41829
20
1.21781
11
1.4164
21
1.21575
0
LINE
8
BLACK
6
CONTINUOUS
10
1.4164
20
1.21575
11
1.41537
21
1.21528
0
LINE
8
BLACK
6
CONTINUOUS
10
1.41537
20
1.21528
11
1.41507
21
1.21518
0
LINE
8
BLACK
6
CONTINUOUS
10
1.41507
20
1.21518
11
1.41062
21
1.21292
0
LINE
8
BLACK
6
CONTINUOUS
10
1.41062
20
1.21292
11
1.40708
21
1.20938
0
LINE
8
BLACK
6
CONTINUOUS
10
1.40708
20
1.20938
11
1.40499
21
1.20528
0
LINE
8
BLACK
6
CONTINUOUS
10
1.40499
20
1.20528
11
1.40482
21
1.20493
0
LINE
8
BLACK
6
CONTINUOUS
10
1.40482
20
1.20493
11
1.40423
21
1.20124
0
LINE
8
BLACK
6
CONTINUOUS
10
1.40423
20
1.20124
11
1.40423
21
1.20124
0
LINE
8
BLACK
6
CONTINUOUS
10
1.40423
20
1.20124
11
1.40423
21
1.13876
0
LINE
8
BLACK
6
CONTINUOUS
10
1.40423
20
1.13876
11
1.40482
21
1.13507
0
LINE
8
BLACK
6
CONTINUOUS
10
0.414242
20
1.22829
11
0.414454
21
1.22573
0
LINE
8
BLACK
6
CONTINUOUS
10
0.414454
20
1.22573
11
0.416737
21
1.21671
0
LINE
8
BLACK
6
CONTINUOUS
10
0.416737
20
1.21671
11
0.416737
21
1.21671
0
LINE
8
BLACK
6
CONTINUOUS
10
0.416737
20
1.21671
11
0.420473
21
1.2082
0
LINE
8
BLACK
6
CONTINUOUS
10
0.420473
20
1.2082
11
0.42556
21
1.20041
0
LINE
8
BLACK
6
CONTINUOUS
10
0.42556
20
1.20041
11
0.42556
21
1.20041
0
LINE
8
BLACK
6
CONTINUOUS
10
0.42556
20
1.20041
11
0.431859
21
1.19357
0
LINE
8
BLACK
6
CONTINUOUS
10
0.431859
20
1.19357
11
0.439199
21
1.18786
0
LINE
8
BLACK
6
CONTINUOUS
10
0.439199
20
1.18786
11
0.447379
21
1.18343
0
LINE
8
BLACK
6
CONTINUOUS
10
0.447379
20
1.18343
11
0.456176
21
1.18041
0
LINE
8
BLACK
6
CONTINUOUS
10
0.456176
20
1.18041
11
0.46535
21
1.17888
0
LINE
8
BLACK
6
CONTINUOUS
10
0.46535
20
1.17888
11
0.46535
21
1.17888
0
LINE
8
BLACK
6
CONTINUOUS
10
0.46535
20
1.17888
11
0.47465
21
1.17888
0
LINE
8
BLACK
6
CONTINUOUS
10
0.47465
20
1.17888
11
0.47465
21
1.17888
0
LINE
8
BLACK
6
CONTINUOUS
10
0.47465
20
1.17888
11
0.483824
21
1.18041
0
LINE
8
BLACK
6
CONTINUOUS
10
0.483824
20
1.18041
11
0.492621
21
1.18343
0
LINE
8
BLACK
6
CONTINUOUS
10
0.492621
20
1.18343
11
0.500801
21
1.18786
0
LINE
8
BLACK
6
CONTINUOUS
10
0.500801
20
1.18786
11
0.508141
21
1.19357
0
LINE
8
BLACK
6
CONTINUOUS
10
0.508141
20
1.19357
11
0.51444
21
1.20041
0
LINE
8
BLACK
6
CONTINUOUS
10
0.51444
20
1.20041
11
0.519527
21
1.2082
0
LINE
8
BLACK
6
CONTINUOUS
10
0.519527
20
1.2082
11
0.523263
21
1.21671
0
LINE
8
BLACK
6
CONTINUOUS
10
0.523263
20
1.21671
11
0.525546
21
1.22573
0
LINE
8
BLACK
6
CONTINUOUS
10
0.525546
20
1.22573
11
0.526314
21
1.235
0
LINE
8
BLACK
6
CONTINUOUS
10
0.526314
20
1.235
11
0.525546
21
1.24427
0
LINE
8
BLACK
6
CONTINUOUS
10
0.525546
20
1.24427
11
0.523263
21
1.25329
0
LINE
8
BLACK
6
CONTINUOUS
10
0.523263
20
1.25329
11
0.519527
21
1.2618
0
LINE
8
BLACK
6
CONTINUOUS
10
0.519527
20
1.2618
11
0.519527
21
1.2618
0
LINE
8
BLACK
6
CONTINUOUS
10
0.519527
20
1.2618
11
0.51444
21
1.26959
0
LINE
8
BLACK
6
CONTINUOUS
10
0.51444
20
1.26959
11
0.51444
21
1.26959
0
LINE
8
BLACK
6
CONTINUOUS
10
0.51444
20
1.26959
11
0.508141
21
1.27643
0
LINE
8
BLACK
6
CONTINUOUS
10
0.508141
20
1.27643
11
0.500801
21
1.28214
0
LINE
8
BLACK
6
CONTINUOUS
10
0.500801
20
1.28214
11
0.500801
21
1.28214
0
LINE
8
BLACK
6
CONTINUOUS
10
0.500801
20
1.28214
11
0.492621
21
1.28657
0
LINE
8
BLACK
6
CONTINUOUS
10
0.492621
20
1.28657
11
0.492621
21
1.28657
0
LINE
8
BLACK
6
CONTINUOUS
10
0.492621
20
1.28657
11
0.483825
21
1.28959
0
LINE
8
BLACK
6
CONTINUOUS
10
0.483825
20
1.28959
11
0.483824
21
1.28959
0
LINE
8
BLACK
6
CONTINUOUS
10
0.483824
20
1.28959
11
0.479898
21
1.29025
0
LINE
8
BLACK
6
CONTINUOUS
10
0.479898
20
1.29025
11
0.47465
21
1.29112
0
LINE
8
BLACK
6
CONTINUOUS
10
0.47465
20
1.29112
11
0.46535
21
1.29112
0
LINE
8
BLACK
6
CONTINUOUS
10
0.46535
20
1.29112
11
0.460759
21
1.29036
0
LINE
8
BLACK
6
CONTINUOUS
10
0.460759
20
1.29036
11
0.456176
21
1.28959
0
LINE
8
BLACK
6
CONTINUOUS
10
0.456176
20
1.28959
11
0.456175
21
1.28959
0
LINE
8
BLACK
6
CONTINUOUS
10
0.456175
20
1.28959
11
0.447379
21
1.28657
0
LINE
8
BLACK
6
CONTINUOUS
10
0.447379
20
1.28657
11
0.447379
21
1.28657
0
LINE
8
BLACK
6
CONTINUOUS
10
0.447379
20
1.28657
11
0.439199
21
1.28214
0
LINE
8
BLACK
6
CONTINUOUS
10
0.439199
20
1.28214
11
0.439199
21
1.28214
0
LINE
8
BLACK
6
CONTINUOUS
10
0.439199
20
1.28214
11
0.431859
21
1.27643
0
LINE
8
BLACK
6
CONTINUOUS
10
0.431859
20
1.27643
11
0.42556
21
1.26959
0
LINE
8
BLACK
6
CONTINUOUS
10
0.42556
20
1.26959
11
0.42556
21
1.26959
0
LINE
8
BLACK
6
CONTINUOUS
10
0.42556
20
1.26959
11
0.420473
21
1.2618
0
LINE
8
BLACK
6
CONTINUOUS
10
0.420473
20
1.2618
11
0.416737
21
1.25329
0
LINE
8
BLACK
6
CONTINUOUS
10
0.416737
20
1.25329
11
0.416737
21
1.25329
0
LINE
8
BLACK
6
CONTINUOUS
10
0.416737
20
1.25329
11
0.414454
21
1.24427
0
LINE
8
BLACK
6
CONTINUOUS
10
0.414454
20
1.24427
11
0.413691
21
1.23507
0
LINE
8
BLACK
6
CONTINUOUS
10
0.413691
20
1.23507
11
0.413686
21
1.235
0
LINE
8
BLACK
6
CONTINUOUS
10
0.413686
20
1.235
11
0.414242
21
1.22829
0
CIRCLE
8
BLACK
10
0.4
20
1.6
40
0.00688976
0
CIRCLE
8
BLACK
10
2.4
20
1.6
40
0.00688976
0
CIRCLE
8
BLACK
10
0.4
20
0.4
40
0.00688976
0
CIRCLE
8
BLACK
10
2.4
20
0.4
40
0.00688976
0
CIRCLE
8
BLACK
10
0.47
20
1.235
40
0.00688976
0
CIRCLE
8
BLACK
10
0.37
20
1.135
40
0.00688976
0
CIRCLE
8
BLACK
10
0.57
20
1.135
40
0.00688976
0
CIRCLE
8
BLACK
10
0.37
20
1.335
40
0.00688976
0
CIRCLE
8
BLACK
10
0.57
20
1.335
40
0.00688976
0
CIRCLE
8
BLACK
10
2.475
20
0.68
40
0.00688976
0
CIRCLE
8
BLACK
10
2.375
20
0.68
40
0.00688976
0
CIRCLE
8
BLACK
10
2.475
20
0.78
40
0.00688976
0
CIRCLE
8
BLACK
10
2.375
20
0.78
40
0.00688976
0
CIRCLE
8
BLACK
10
2.475
20
0.88
40
0.00688976
0
CIRCLE
8
BLACK
10
2.375
20
0.88
40
0.00688976
0
CIRCLE
8
BLACK
10
0.99
20
0.53
40
0.00688976
0
CIRCLE
8
BLACK
10
0.99
20
0.63
40
0.00688976
0
CIRCLE
8
BLACK
10
0.89
20
0.53
40
0.00688976
0
CIRCLE
8
BLACK
10
0.89
20
0.63
40
0.00688976
0
CIRCLE
8
BLACK
10
1.55
20
1.17
40
0.00688976
0
CIRCLE
8
BLACK
10
1.55
20
1.27
40
0.00688976
0
CIRCLE
8
BLACK
10
1.45
20
1.17
40
0.00688976
0
CIRCLE
8
BLACK
10
1.45
20
1.27
40
0.00688976
0
CIRCLE
8
BLACK
10
2.28
20
1.26
40
0.00688976
0
CIRCLE
8
BLACK
10
2.18
20
1.26
40
0.00688976
0
CIRCLE
8
BLACK
10
2.28
20
1.06
40
0.00688976
0
CIRCLE
8
BLACK
10
2.18
20
1.06
40
0.00688976
0
CIRCLE
8
BLACK
10
2.28
20
1.36
40
0.00688976
0
CIRCLE
8
BLACK
10
2.18
20
1.36
40
0.00688976
0
CIRCLE
8
BLACK
10
2.28
20
1.16
40
0.00688976
0
CIRCLE
8
BLACK
10
2.18
20
1.16
40
0.00688976
0
CIRCLE
8
BLACK
10
1.815
20
1.135
40
0.00688976
0
CIRCLE
8
BLACK
10
1.715
20
1.135
40
0.00688976
0
CIRCLE
8
BLACK
10
0.36
20
0.82
40
0.00688976
0
CIRCLE
8
BLACK
10
0.46
20
0.82
40
0.00688976
0
CIRCLE
8
BLACK
10
0.36
20
0.72
40
0.00688976
0
CIRCLE
8
BLACK
10
0.46
20
0.72
40
0.00688976
0
CIRCLE
8
BLACK
10
0.36
20
0.62
40
0.00688976
0
CIRCLE
8
BLACK
10
0.46
20
0.62
40
0.00688976
0
CIRCLE
8
BLACK
10
0.67
20
0.86
40
0.00688976
0
CIRCLE
8
BLACK
10
0.67
20
0.96
40
0.00688976
0
CIRCLE
8
BLACK
10
1.56339
20
1.49
40
0.00787402
0
CIRCLE
8
BLACK
10
1.84
20
1.235
40
0.00787402
0
CIRCLE
8
BLACK
10
1.89
20
1.19
40
0.00787402
0
CIRCLE
8
BLACK
10
1.475
20
1.075
40
0.00787402
0
CIRCLE
8
BLACK
10
1.775
20
1.02
40
0.00787402
0
CIRCLE
8
BLACK
10
0.89
20
1.5
40
0.00787402
0
CIRCLE
8
BLACK
10
0.665
20
0.575
40
0.00787402
0
CIRCLE
8
BLACK
10
1.34704
20
0.817037
40
0.00787402
0
CIRCLE
8
BLACK
10
1.93612
20
1.302
40
0.00787402
0
CIRCLE
8
BLACK
10
2.16
20
0.94
40
0.00787402
0
CIRCLE
8
BLACK
10
1.7
20
0.5
40
0.00787402
0
CIRCLE
8
BLACK
10
1.38
20
0.51
40
0.00787402
0
CIRCLE
8
BLACK
10
0.956597
20
0.991251
40
0.00787402
0
CIRCLE
8
BLACK
10
0.9
20
1.14
40
0.00787402
0
CIRCLE
8
BLACK
10
1.09
20
1.14
40
0.00787402
0
CIRCLE
8
BLACK
10
1.64
20
1.39
40
0.00787402
  0
ENDSEC
  0
EOF
