  0
SECTION
  2
HEADER
  9
$ANGBASE
  50
0.0
  9
$ANGDIR
  70
1
  9
$MEASUREMENT
  70
0
  0
ENDSEC
  0
SECTION
  2
TABLES
  0
TABLE
  2
LTYPE
  70
4
  0
LTYPE
  5
40F
  2
CONTINUOUS
  70
0
  3
Solid line
  72
65
  73
0
  40
0.0
  0
LTYPE
  5
410
  2
DASHDOT
 70
0
  3
Dash Dot ____ _ ____ _
 72
65
 73
4
 40
2.0
 49
1.25
 49
-0.25
 49
0.25
 49
-0.25
  0
LTYPE
  5
411
  2
DASHED
 70
0
  3
Dashed __ __ __ __ __
 72
65
 73
2
 40
0.75
 49
0.5
 49
-0.25
  0
LTYPE
  5
43B
  2
DOTTED
 70
0
  3
Dotted .  .  .  .
 72
65
 73
2
 40
0.2
 49
0.0
 49
-0.2
  0
ENDTAB
  0
TABLE
  2
STYLE
  70
4
  0
STYLE
  2
KICAD
  70
0
  40
0
  41
1
  42
1
  50
0
  71
0
  3
isocp.shx
  0
STYLE
  2
KICADB
  70
0
  40
0
  41
1
  42
1
  50
0
  71
0
  3
isocp.shx
  0
STYLE
  2
KICADI
  70
0
  40
0
  41
1
  42
1
  50
15
  71
0
  3
isocp.shx
  0
STYLE
  2
KICADBI
  70
0
  40
0
  41
1
  42
1
  50
15
  71
0
  3
isocp.shx
  0
ENDTAB
  0
TABLE
  2
LAYER
  70
1
  0
LAYER
  2
BLACK
  70
0
  62
7
  6
CONTINUOUS
  0
ENDTAB
  0
ENDSEC
  0
SECTION
  2
ENTITIES
0
LINE
8
BLACK
6
CONTINUOUS
10
0.414063
20
0.52481
11
0.427949
21
0.522451
0
LINE
8
BLACK
6
CONTINUOUS
10
0.427949
20
0.522451
11
0.441483
21
0.518552
0
LINE
8
BLACK
6
CONTINUOUS
10
0.441483
20
0.518552
11
0.454496
21
0.513162
0
LINE
8
BLACK
6
CONTINUOUS
10
0.454496
20
0.513162
11
0.466823
21
0.506349
0
LINE
8
BLACK
6
CONTINUOUS
10
0.466823
20
0.506349
11
0.47831
21
0.498198
0
LINE
8
BLACK
6
CONTINUOUS
10
0.47831
20
0.498198
11
0.488813
21
0.488813
0
LINE
8
BLACK
6
CONTINUOUS
10
0.488813
20
0.488813
11
0.498198
21
0.47831
0
LINE
8
BLACK
6
CONTINUOUS
10
0.498198
20
0.47831
11
0.506349
21
0.466823
0
LINE
8
BLACK
6
CONTINUOUS
10
0.506349
20
0.466823
11
0.513162
21
0.454496
0
LINE
8
BLACK
6
CONTINUOUS
10
0.513162
20
0.454496
11
0.518552
21
0.441483
0
LINE
8
BLACK
6
CONTINUOUS
10
0.518552
20
0.441483
11
0.522451
21
0.427949
0
LINE
8
BLACK
6
CONTINUOUS
10
0.522451
20
0.427949
11
0.52481
21
0.414063
0
LINE
8
BLACK
6
CONTINUOUS
10
0.52481
20
0.414063
11
0.5256
21
0.4
0
LINE
8
BLACK
6
CONTINUOUS
10
0.5256
20
0.4
11
0.52481
21
0.385937
0
LINE
8
BLACK
6
CONTINUOUS
10
0.52481
20
0.385937
11
0.522451
21
0.372051
0
LINE
8
BLACK
6
CONTINUOUS
10
0.522451
20
0.372051
11
0.518552
21
0.358517
0
LINE
8
BLACK
6
CONTINUOUS
10
0.518552
20
0.358517
11
0.513162
21
0.345504
0
LINE
8
BLACK
6
CONTINUOUS
10
0.513162
20
0.345504
11
0.506349
21
0.333177
0
LINE
8
BLACK
6
CONTINUOUS
10
0.506349
20
0.333177
11
0.498198
21
0.32169
0
LINE
8
BLACK
6
CONTINUOUS
10
0.498198
20
0.32169
11
0.488813
21
0.311187
0
LINE
8
BLACK
6
CONTINUOUS
10
0.488813
20
0.311187
11
0.47831
21
0.301802
0
LINE
8
BLACK
6
CONTINUOUS
10
0.47831
20
0.301802
11
0.466823
21
0.293651
0
LINE
8
BLACK
6
CONTINUOUS
10
0.466823
20
0.293651
11
0.454496
21
0.286838
0
LINE
8
BLACK
6
CONTINUOUS
10
0.454496
20
0.286838
11
0.441483
21
0.281448
0
LINE
8
BLACK
6
CONTINUOUS
10
0.441483
20
0.281448
11
0.427949
21
0.277549
0
LINE
8
BLACK
6
CONTINUOUS
10
0.427949
20
0.277549
11
0.414063
21
0.27519
0
LINE
8
BLACK
6
CONTINUOUS
10
0.414063
20
0.27519
11
0.4
21
0.2744
0
LINE
8
BLACK
6
CONTINUOUS
10
0.4
20
0.2744
11
0.385937
21
0.27519
0
LINE
8
BLACK
6
CONTINUOUS
10
0.385937
20
0.27519
11
0.372051
21
0.277549
0
LINE
8
BLACK
6
CONTINUOUS
10
0.372051
20
0.277549
11
0.358517
21
0.281448
0
LINE
8
BLACK
6
CONTINUOUS
10
0.358517
20
0.281448
11
0.345504
21
0.286838
0
LINE
8
BLACK
6
CONTINUOUS
10
0.345504
20
0.286838
11
0.333177
21
0.293651
0
LINE
8
BLACK
6
CONTINUOUS
10
0.333177
20
0.293651
11
0.32169
21
0.301802
0
LINE
8
BLACK
6
CONTINUOUS
10
0.32169
20
0.301802
11
0.311187
21
0.311187
0
LINE
8
BLACK
6
CONTINUOUS
10
0.311187
20
0.311187
11
0.301802
21
0.32169
0
LINE
8
BLACK
6
CONTINUOUS
10
0.301802
20
0.32169
11
0.293651
21
0.333177
0
LINE
8
BLACK
6
CONTINUOUS
10
0.293651
20
0.333177
11
0.286838
21
0.345504
0
LINE
8
BLACK
6
CONTINUOUS
10
0.286838
20
0.345504
11
0.281448
21
0.358517
0
LINE
8
BLACK
6
CONTINUOUS
10
0.281448
20
0.358517
11
0.277549
21
0.372051
0
LINE
8
BLACK
6
CONTINUOUS
10
0.277549
20
0.372051
11
0.27519
21
0.385937
0
LINE
8
BLACK
6
CONTINUOUS
10
0.27519
20
0.385937
11
0.2744
21
0.4
0
LINE
8
BLACK
6
CONTINUOUS
10
0.2744
20
0.4
11
0.27519
21
0.414063
0
LINE
8
BLACK
6
CONTINUOUS
10
0.27519
20
0.414063
11
0.277549
21
0.427949
0
LINE
8
BLACK
6
CONTINUOUS
10
0.277549
20
0.427949
11
0.281448
21
0.441483
0
LINE
8
BLACK
6
CONTINUOUS
10
0.281448
20
0.441483
11
0.286838
21
0.454496
0
LINE
8
BLACK
6
CONTINUOUS
10
0.286838
20
0.454496
11
0.293651
21
0.466823
0
LINE
8
BLACK
6
CONTINUOUS
10
0.293651
20
0.466823
11
0.301802
21
0.47831
0
LINE
8
BLACK
6
CONTINUOUS
10
0.301802
20
0.47831
11
0.311187
21
0.488813
0
LINE
8
BLACK
6
CONTINUOUS
10
0.311187
20
0.488813
11
0.32169
21
0.498198
0
LINE
8
BLACK
6
CONTINUOUS
10
0.32169
20
0.498198
11
0.333177
21
0.506349
0
LINE
8
BLACK
6
CONTINUOUS
10
0.333177
20
0.506349
11
0.345504
21
0.513162
0
LINE
8
BLACK
6
CONTINUOUS
10
0.345504
20
0.513162
11
0.358517
21
0.518552
0
LINE
8
BLACK
6
CONTINUOUS
10
0.358517
20
0.518552
11
0.372051
21
0.522451
0
LINE
8
BLACK
6
CONTINUOUS
10
0.372051
20
0.522451
11
0.385937
21
0.52481
0
LINE
8
BLACK
6
CONTINUOUS
10
0.385937
20
0.52481
11
0.4
21
0.5256
0
LINE
8
BLACK
6
CONTINUOUS
10
0.4
20
0.5256
11
0.414063
21
0.52481
0
LINE
8
BLACK
6
CONTINUOUS
10
0.289962
20
0.387138
11
0.292199
21
0.374451
0
LINE
8
BLACK
6
CONTINUOUS
10
0.292199
20
0.374451
11
0.295894
21
0.362108
0
LINE
8
BLACK
6
CONTINUOUS
10
0.295894
20
0.362108
11
0.300997
21
0.350279
0
LINE
8
BLACK
6
CONTINUOUS
10
0.300997
20
0.350279
11
0.307438
21
0.339121
0
LINE
8
BLACK
6
CONTINUOUS
10
0.307438
20
0.339121
11
0.315132
21
0.328787
0
LINE
8
BLACK
6
CONTINUOUS
10
0.315132
20
0.328787
11
0.323973
21
0.319416
0
LINE
8
BLACK
6
CONTINUOUS
10
0.323973
20
0.319416
11
0.333842
21
0.311135
0
LINE
8
BLACK
6
CONTINUOUS
10
0.333842
20
0.311135
11
0.344606
21
0.304055
0
LINE
8
BLACK
6
CONTINUOUS
10
0.344606
20
0.304055
11
0.356119
21
0.298273
0
LINE
8
BLACK
6
CONTINUOUS
10
0.356119
20
0.298273
11
0.368226
21
0.293867
0
LINE
8
BLACK
6
CONTINUOUS
10
0.368226
20
0.293867
11
0.380762
21
0.290896
0
LINE
8
BLACK
6
CONTINUOUS
10
0.380762
20
0.290896
11
0.393558
21
0.2894
0
LINE
8
BLACK
6
CONTINUOUS
10
0.393558
20
0.2894
11
0.406442
21
0.2894
0
LINE
8
BLACK
6
CONTINUOUS
10
0.406442
20
0.2894
11
0.419238
21
0.290896
0
LINE
8
BLACK
6
CONTINUOUS
10
0.419238
20
0.290896
11
0.431774
21
0.293867
0
LINE
8
BLACK
6
CONTINUOUS
10
0.431774
20
0.293867
11
0.443881
21
0.298273
0
LINE
8
BLACK
6
CONTINUOUS
10
0.443881
20
0.298273
11
0.455394
21
0.304055
0
LINE
8
BLACK
6
CONTINUOUS
10
0.455394
20
0.304055
11
0.466158
21
0.311135
0
LINE
8
BLACK
6
CONTINUOUS
10
0.466158
20
0.311135
11
0.476027
21
0.319416
0
LINE
8
BLACK
6
CONTINUOUS
10
0.476027
20
0.319416
11
0.484868
21
0.328787
0
LINE
8
BLACK
6
CONTINUOUS
10
0.484868
20
0.328787
11
0.492562
21
0.339121
0
LINE
8
BLACK
6
CONTINUOUS
10
0.492562
20
0.339121
11
0.499003
21
0.350279
0
LINE
8
BLACK
6
CONTINUOUS
10
0.499003
20
0.350279
11
0.504106
21
0.362108
0
LINE
8
BLACK
6
CONTINUOUS
10
0.504106
20
0.362108
11
0.507801
21
0.374451
0
LINE
8
BLACK
6
CONTINUOUS
10
0.507801
20
0.374451
11
0.510038
21
0.387138
0
LINE
8
BLACK
6
CONTINUOUS
10
0.510038
20
0.387138
11
0.510787
21
0.4
0
LINE
8
BLACK
6
CONTINUOUS
10
0.510787
20
0.4
11
0.510038
21
0.412862
0
LINE
8
BLACK
6
CONTINUOUS
10
0.510038
20
0.412862
11
0.507801
21
0.425549
0
LINE
8
BLACK
6
CONTINUOUS
10
0.507801
20
0.425549
11
0.504106
21
0.437892
0
LINE
8
BLACK
6
CONTINUOUS
10
0.504106
20
0.437892
11
0.499003
21
0.449721
0
LINE
8
BLACK
6
CONTINUOUS
10
0.499003
20
0.449721
11
0.492562
21
0.460879
0
LINE
8
BLACK
6
CONTINUOUS
10
0.492562
20
0.460879
11
0.484868
21
0.471213
0
LINE
8
BLACK
6
CONTINUOUS
10
0.484868
20
0.471213
11
0.476027
21
0.480584
0
LINE
8
BLACK
6
CONTINUOUS
10
0.476027
20
0.480584
11
0.466158
21
0.488865
0
LINE
8
BLACK
6
CONTINUOUS
10
0.466158
20
0.488865
11
0.455394
21
0.495945
0
LINE
8
BLACK
6
CONTINUOUS
10
0.455394
20
0.495945
11
0.443881
21
0.501727
0
LINE
8
BLACK
6
CONTINUOUS
10
0.443881
20
0.501727
11
0.431774
21
0.506133
0
LINE
8
BLACK
6
CONTINUOUS
10
0.431774
20
0.506133
11
0.419238
21
0.509104
0
LINE
8
BLACK
6
CONTINUOUS
10
0.419238
20
0.509104
11
0.406442
21
0.5106
0
LINE
8
BLACK
6
CONTINUOUS
10
0.406442
20
0.5106
11
0.393558
21
0.5106
0
LINE
8
BLACK
6
CONTINUOUS
10
0.393558
20
0.5106
11
0.380762
21
0.509104
0
LINE
8
BLACK
6
CONTINUOUS
10
0.380762
20
0.509104
11
0.368226
21
0.506133
0
LINE
8
BLACK
6
CONTINUOUS
10
0.368226
20
0.506133
11
0.356119
21
0.501727
0
LINE
8
BLACK
6
CONTINUOUS
10
0.356119
20
0.501727
11
0.344606
21
0.495945
0
LINE
8
BLACK
6
CONTINUOUS
10
0.344606
20
0.495945
11
0.333842
21
0.488865
0
LINE
8
BLACK
6
CONTINUOUS
10
0.333842
20
0.488865
11
0.323973
21
0.480584
0
LINE
8
BLACK
6
CONTINUOUS
10
0.323973
20
0.480584
11
0.315132
21
0.471213
0
LINE
8
BLACK
6
CONTINUOUS
10
0.315132
20
0.471213
11
0.307438
21
0.460879
0
LINE
8
BLACK
6
CONTINUOUS
10
0.307438
20
0.460879
11
0.300997
21
0.449721
0
LINE
8
BLACK
6
CONTINUOUS
10
0.300997
20
0.449721
11
0.295894
21
0.437892
0
LINE
8
BLACK
6
CONTINUOUS
10
0.295894
20
0.437892
11
0.292199
21
0.425549
0
LINE
8
BLACK
6
CONTINUOUS
10
0.292199
20
0.425549
11
0.289962
21
0.412862
0
LINE
8
BLACK
6
CONTINUOUS
10
0.289962
20
0.412862
11
0.289213
21
0.4
0
LINE
8
BLACK
6
CONTINUOUS
10
0.289213
20
0.4
11
0.289962
21
0.387138
0
LINE
8
BLACK
6
CONTINUOUS
10
2.41406
20
0.52481
11
2.42795
21
0.522451
0
LINE
8
BLACK
6
CONTINUOUS
10
2.42795
20
0.522451
11
2.44148
21
0.518552
0
LINE
8
BLACK
6
CONTINUOUS
10
2.44148
20
0.518552
11
2.4545
21
0.513162
0
LINE
8
BLACK
6
CONTINUOUS
10
2.4545
20
0.513162
11
2.46682
21
0.506349
0
LINE
8
BLACK
6
CONTINUOUS
10
2.46682
20
0.506349
11
2.47831
21
0.498198
0
LINE
8
BLACK
6
CONTINUOUS
10
2.47831
20
0.498198
11
2.48881
21
0.488813
0
LINE
8
BLACK
6
CONTINUOUS
10
2.48881
20
0.488813
11
2.4982
21
0.47831
0
LINE
8
BLACK
6
CONTINUOUS
10
2.4982
20
0.47831
11
2.50635
21
0.466823
0
LINE
8
BLACK
6
CONTINUOUS
10
2.50635
20
0.466823
11
2.51316
21
0.454496
0
LINE
8
BLACK
6
CONTINUOUS
10
2.51316
20
0.454496
11
2.51855
21
0.441483
0
LINE
8
BLACK
6
CONTINUOUS
10
2.51855
20
0.441483
11
2.52245
21
0.427949
0
LINE
8
BLACK
6
CONTINUOUS
10
2.52245
20
0.427949
11
2.52481
21
0.414063
0
LINE
8
BLACK
6
CONTINUOUS
10
2.52481
20
0.414063
11
2.5256
21
0.4
0
LINE
8
BLACK
6
CONTINUOUS
10
2.5256
20
0.4
11
2.52481
21
0.385937
0
LINE
8
BLACK
6
CONTINUOUS
10
2.52481
20
0.385937
11
2.52245
21
0.372051
0
LINE
8
BLACK
6
CONTINUOUS
10
2.52245
20
0.372051
11
2.51855
21
0.358517
0
LINE
8
BLACK
6
CONTINUOUS
10
2.51855
20
0.358517
11
2.51316
21
0.345504
0
LINE
8
BLACK
6
CONTINUOUS
10
2.51316
20
0.345504
11
2.50635
21
0.333177
0
LINE
8
BLACK
6
CONTINUOUS
10
2.50635
20
0.333177
11
2.4982
21
0.32169
0
LINE
8
BLACK
6
CONTINUOUS
10
2.4982
20
0.32169
11
2.48881
21
0.311187
0
LINE
8
BLACK
6
CONTINUOUS
10
2.48881
20
0.311187
11
2.47831
21
0.301802
0
LINE
8
BLACK
6
CONTINUOUS
10
2.47831
20
0.301802
11
2.46682
21
0.293651
0
LINE
8
BLACK
6
CONTINUOUS
10
2.46682
20
0.293651
11
2.4545
21
0.286838
0
LINE
8
BLACK
6
CONTINUOUS
10
2.4545
20
0.286838
11
2.44148
21
0.281448
0
LINE
8
BLACK
6
CONTINUOUS
10
2.44148
20
0.281448
11
2.42795
21
0.277549
0
LINE
8
BLACK
6
CONTINUOUS
10
2.42795
20
0.277549
11
2.41406
21
0.27519
0
LINE
8
BLACK
6
CONTINUOUS
10
2.41406
20
0.27519
11
2.4
21
0.2744
0
LINE
8
BLACK
6
CONTINUOUS
10
2.4
20
0.2744
11
2.38594
21
0.27519
0
LINE
8
BLACK
6
CONTINUOUS
10
2.38594
20
0.27519
11
2.37205
21
0.277549
0
LINE
8
BLACK
6
CONTINUOUS
10
2.37205
20
0.277549
11
2.35852
21
0.281448
0
LINE
8
BLACK
6
CONTINUOUS
10
2.35852
20
0.281448
11
2.3455
21
0.286838
0
LINE
8
BLACK
6
CONTINUOUS
10
2.3455
20
0.286838
11
2.33318
21
0.293651
0
LINE
8
BLACK
6
CONTINUOUS
10
2.33318
20
0.293651
11
2.32169
21
0.301802
0
LINE
8
BLACK
6
CONTINUOUS
10
2.32169
20
0.301802
11
2.31119
21
0.311187
0
LINE
8
BLACK
6
CONTINUOUS
10
2.31119
20
0.311187
11
2.3018
21
0.32169
0
LINE
8
BLACK
6
CONTINUOUS
10
2.3018
20
0.32169
11
2.29365
21
0.333177
0
LINE
8
BLACK
6
CONTINUOUS
10
2.29365
20
0.333177
11
2.28684
21
0.345504
0
LINE
8
BLACK
6
CONTINUOUS
10
2.28684
20
0.345504
11
2.28145
21
0.358517
0
LINE
8
BLACK
6
CONTINUOUS
10
2.28145
20
0.358517
11
2.27755
21
0.372051
0
LINE
8
BLACK
6
CONTINUOUS
10
2.27755
20
0.372051
11
2.27519
21
0.385937
0
LINE
8
BLACK
6
CONTINUOUS
10
2.27519
20
0.385937
11
2.2744
21
0.4
0
LINE
8
BLACK
6
CONTINUOUS
10
2.2744
20
0.4
11
2.27519
21
0.414063
0
LINE
8
BLACK
6
CONTINUOUS
10
2.27519
20
0.414063
11
2.27755
21
0.427949
0
LINE
8
BLACK
6
CONTINUOUS
10
2.27755
20
0.427949
11
2.28145
21
0.441483
0
LINE
8
BLACK
6
CONTINUOUS
10
2.28145
20
0.441483
11
2.28684
21
0.454496
0
LINE
8
BLACK
6
CONTINUOUS
10
2.28684
20
0.454496
11
2.29365
21
0.466823
0
LINE
8
BLACK
6
CONTINUOUS
10
2.29365
20
0.466823
11
2.3018
21
0.47831
0
LINE
8
BLACK
6
CONTINUOUS
10
2.3018
20
0.47831
11
2.31119
21
0.488813
0
LINE
8
BLACK
6
CONTINUOUS
10
2.31119
20
0.488813
11
2.32169
21
0.498198
0
LINE
8
BLACK
6
CONTINUOUS
10
2.32169
20
0.498198
11
2.33318
21
0.506349
0
LINE
8
BLACK
6
CONTINUOUS
10
2.33318
20
0.506349
11
2.3455
21
0.513162
0
LINE
8
BLACK
6
CONTINUOUS
10
2.3455
20
0.513162
11
2.35852
21
0.518552
0
LINE
8
BLACK
6
CONTINUOUS
10
2.35852
20
0.518552
11
2.37205
21
0.522451
0
LINE
8
BLACK
6
CONTINUOUS
10
2.37205
20
0.522451
11
2.38594
21
0.52481
0
LINE
8
BLACK
6
CONTINUOUS
10
2.38594
20
0.52481
11
2.4
21
0.5256
0
LINE
8
BLACK
6
CONTINUOUS
10
2.4
20
0.5256
11
2.41406
21
0.52481
0
LINE
8
BLACK
6
CONTINUOUS
10
2.28996
20
0.387138
11
2.2922
21
0.374451
0
LINE
8
BLACK
6
CONTINUOUS
10
2.2922
20
0.374451
11
2.29589
21
0.362108
0
LINE
8
BLACK
6
CONTINUOUS
10
2.29589
20
0.362108
11
2.301
21
0.350279
0
LINE
8
BLACK
6
CONTINUOUS
10
2.301
20
0.350279
11
2.30744
21
0.339121
0
LINE
8
BLACK
6
CONTINUOUS
10
2.30744
20
0.339121
11
2.31513
21
0.328787
0
LINE
8
BLACK
6
CONTINUOUS
10
2.31513
20
0.328787
11
2.32397
21
0.319416
0
LINE
8
BLACK
6
CONTINUOUS
10
2.32397
20
0.319416
11
2.33384
21
0.311135
0
LINE
8
BLACK
6
CONTINUOUS
10
2.33384
20
0.311135
11
2.34461
21
0.304055
0
LINE
8
BLACK
6
CONTINUOUS
10
2.34461
20
0.304055
11
2.35612
21
0.298273
0
LINE
8
BLACK
6
CONTINUOUS
10
2.35612
20
0.298273
11
2.36823
21
0.293867
0
LINE
8
BLACK
6
CONTINUOUS
10
2.36823
20
0.293867
11
2.38076
21
0.290896
0
LINE
8
BLACK
6
CONTINUOUS
10
2.38076
20
0.290896
11
2.39356
21
0.2894
0
LINE
8
BLACK
6
CONTINUOUS
10
2.39356
20
0.2894
11
2.40644
21
0.2894
0
LINE
8
BLACK
6
CONTINUOUS
10
2.40644
20
0.2894
11
2.41924
21
0.290896
0
LINE
8
BLACK
6
CONTINUOUS
10
2.41924
20
0.290896
11
2.43177
21
0.293867
0
LINE
8
BLACK
6
CONTINUOUS
10
2.43177
20
0.293867
11
2.44388
21
0.298273
0
LINE
8
BLACK
6
CONTINUOUS
10
2.44388
20
0.298273
11
2.45539
21
0.304055
0
LINE
8
BLACK
6
CONTINUOUS
10
2.45539
20
0.304055
11
2.46616
21
0.311135
0
LINE
8
BLACK
6
CONTINUOUS
10
2.46616
20
0.311135
11
2.47603
21
0.319416
0
LINE
8
BLACK
6
CONTINUOUS
10
2.47603
20
0.319416
11
2.48487
21
0.328787
0
LINE
8
BLACK
6
CONTINUOUS
10
2.48487
20
0.328787
11
2.49256
21
0.339121
0
LINE
8
BLACK
6
CONTINUOUS
10
2.49256
20
0.339121
11
2.499
21
0.350279
0
LINE
8
BLACK
6
CONTINUOUS
10
2.499
20
0.350279
11
2.50411
21
0.362108
0
LINE
8
BLACK
6
CONTINUOUS
10
2.50411
20
0.362108
11
2.5078
21
0.374451
0
LINE
8
BLACK
6
CONTINUOUS
10
2.5078
20
0.374451
11
2.51004
21
0.387138
0
LINE
8
BLACK
6
CONTINUOUS
10
2.51004
20
0.387138
11
2.51079
21
0.4
0
LINE
8
BLACK
6
CONTINUOUS
10
2.51079
20
0.4
11
2.51004
21
0.412862
0
LINE
8
BLACK
6
CONTINUOUS
10
2.51004
20
0.412862
11
2.5078
21
0.425549
0
LINE
8
BLACK
6
CONTINUOUS
10
2.5078
20
0.425549
11
2.50411
21
0.437892
0
LINE
8
BLACK
6
CONTINUOUS
10
2.50411
20
0.437892
11
2.499
21
0.449721
0
LINE
8
BLACK
6
CONTINUOUS
10
2.499
20
0.449721
11
2.49256
21
0.460879
0
LINE
8
BLACK
6
CONTINUOUS
10
2.49256
20
0.460879
11
2.48487
21
0.471213
0
LINE
8
BLACK
6
CONTINUOUS
10
2.48487
20
0.471213
11
2.47603
21
0.480584
0
LINE
8
BLACK
6
CONTINUOUS
10
2.47603
20
0.480584
11
2.46616
21
0.488865
0
LINE
8
BLACK
6
CONTINUOUS
10
2.46616
20
0.488865
11
2.45539
21
0.495945
0
LINE
8
BLACK
6
CONTINUOUS
10
2.45539
20
0.495945
11
2.44388
21
0.501727
0
LINE
8
BLACK
6
CONTINUOUS
10
2.44388
20
0.501727
11
2.43177
21
0.506133
0
LINE
8
BLACK
6
CONTINUOUS
10
2.43177
20
0.506133
11
2.41924
21
0.509104
0
LINE
8
BLACK
6
CONTINUOUS
10
2.41924
20
0.509104
11
2.40644
21
0.5106
0
LINE
8
BLACK
6
CONTINUOUS
10
2.40644
20
0.5106
11
2.39356
21
0.5106
0
LINE
8
BLACK
6
CONTINUOUS
10
2.39356
20
0.5106
11
2.38076
21
0.509104
0
LINE
8
BLACK
6
CONTINUOUS
10
2.38076
20
0.509104
11
2.36823
21
0.506133
0
LINE
8
BLACK
6
CONTINUOUS
10
2.36823
20
0.506133
11
2.35612
21
0.501727
0
LINE
8
BLACK
6
CONTINUOUS
10
2.35612
20
0.501727
11
2.34461
21
0.495945
0
LINE
8
BLACK
6
CONTINUOUS
10
2.34461
20
0.495945
11
2.33384
21
0.488865
0
LINE
8
BLACK
6
CONTINUOUS
10
2.33384
20
0.488865
11
2.32397
21
0.480584
0
LINE
8
BLACK
6
CONTINUOUS
10
2.32397
20
0.480584
11
2.31513
21
0.471213
0
LINE
8
BLACK
6
CONTINUOUS
10
2.31513
20
0.471213
11
2.30744
21
0.460879
0
LINE
8
BLACK
6
CONTINUOUS
10
2.30744
20
0.460879
11
2.301
21
0.449721
0
LINE
8
BLACK
6
CONTINUOUS
10
2.301
20
0.449721
11
2.29589
21
0.437892
0
LINE
8
BLACK
6
CONTINUOUS
10
2.29589
20
0.437892
11
2.2922
21
0.425549
0
LINE
8
BLACK
6
CONTINUOUS
10
2.2922
20
0.425549
11
2.28996
21
0.412862
0
LINE
8
BLACK
6
CONTINUOUS
10
2.28996
20
0.412862
11
2.28921
21
0.4
0
LINE
8
BLACK
6
CONTINUOUS
10
2.28921
20
0.4
11
2.28996
21
0.387138
0
LINE
8
BLACK
6
CONTINUOUS
10
0.414063
20
1.72481
11
0.427949
21
1.72245
0
LINE
8
BLACK
6
CONTINUOUS
10
0.427949
20
1.72245
11
0.441483
21
1.71855
0
LINE
8
BLACK
6
CONTINUOUS
10
0.441483
20
1.71855
11
0.454496
21
1.71316
0
LINE
8
BLACK
6
CONTINUOUS
10
0.454496
20
1.71316
11
0.466823
21
1.70635
0
LINE
8
BLACK
6
CONTINUOUS
10
0.466823
20
1.70635
11
0.47831
21
1.6982
0
LINE
8
BLACK
6
CONTINUOUS
10
0.47831
20
1.6982
11
0.488813
21
1.68881
0
LINE
8
BLACK
6
CONTINUOUS
10
0.488813
20
1.68881
11
0.498198
21
1.67831
0
LINE
8
BLACK
6
CONTINUOUS
10
0.498198
20
1.67831
11
0.506349
21
1.66682
0
LINE
8
BLACK
6
CONTINUOUS
10
0.506349
20
1.66682
11
0.513162
21
1.6545
0
LINE
8
BLACK
6
CONTINUOUS
10
0.513162
20
1.6545
11
0.518552
21
1.64148
0
LINE
8
BLACK
6
CONTINUOUS
10
0.518552
20
1.64148
11
0.522451
21
1.62795
0
LINE
8
BLACK
6
CONTINUOUS
10
0.522451
20
1.62795
11
0.52481
21
1.61406
0
LINE
8
BLACK
6
CONTINUOUS
10
0.52481
20
1.61406
11
0.5256
21
1.6
0
LINE
8
BLACK
6
CONTINUOUS
10
0.5256
20
1.6
11
0.52481
21
1.58594
0
LINE
8
BLACK
6
CONTINUOUS
10
0.52481
20
1.58594
11
0.522451
21
1.57205
0
LINE
8
BLACK
6
CONTINUOUS
10
0.522451
20
1.57205
11
0.518552
21
1.55852
0
LINE
8
BLACK
6
CONTINUOUS
10
0.518552
20
1.55852
11
0.513162
21
1.5455
0
LINE
8
BLACK
6
CONTINUOUS
10
0.513162
20
1.5455
11
0.506349
21
1.53318
0
LINE
8
BLACK
6
CONTINUOUS
10
0.506349
20
1.53318
11
0.498198
21
1.52169
0
LINE
8
BLACK
6
CONTINUOUS
10
0.498198
20
1.52169
11
0.488813
21
1.51119
0
LINE
8
BLACK
6
CONTINUOUS
10
0.488813
20
1.51119
11
0.47831
21
1.5018
0
LINE
8
BLACK
6
CONTINUOUS
10
0.47831
20
1.5018
11
0.466823
21
1.49365
0
LINE
8
BLACK
6
CONTINUOUS
10
0.466823
20
1.49365
11
0.454496
21
1.48684
0
LINE
8
BLACK
6
CONTINUOUS
10
0.454496
20
1.48684
11
0.441483
21
1.48145
0
LINE
8
BLACK
6
CONTINUOUS
10
0.441483
20
1.48145
11
0.427949
21
1.47755
0
LINE
8
BLACK
6
CONTINUOUS
10
0.427949
20
1.47755
11
0.414063
21
1.47519
0
LINE
8
BLACK
6
CONTINUOUS
10
0.414063
20
1.47519
11
0.4
21
1.4744
0
LINE
8
BLACK
6
CONTINUOUS
10
0.4
20
1.4744
11
0.385937
21
1.47519
0
LINE
8
BLACK
6
CONTINUOUS
10
0.385937
20
1.47519
11
0.372051
21
1.47755
0
LINE
8
BLACK
6
CONTINUOUS
10
0.372051
20
1.47755
11
0.358517
21
1.48145
0
LINE
8
BLACK
6
CONTINUOUS
10
0.358517
20
1.48145
11
0.345504
21
1.48684
0
LINE
8
BLACK
6
CONTINUOUS
10
0.345504
20
1.48684
11
0.333177
21
1.49365
0
LINE
8
BLACK
6
CONTINUOUS
10
0.333177
20
1.49365
11
0.32169
21
1.5018
0
LINE
8
BLACK
6
CONTINUOUS
10
0.32169
20
1.5018
11
0.311187
21
1.51119
0
LINE
8
BLACK
6
CONTINUOUS
10
0.311187
20
1.51119
11
0.301802
21
1.52169
0
LINE
8
BLACK
6
CONTINUOUS
10
0.301802
20
1.52169
11
0.293651
21
1.53318
0
LINE
8
BLACK
6
CONTINUOUS
10
0.293651
20
1.53318
11
0.286838
21
1.5455
0
LINE
8
BLACK
6
CONTINUOUS
10
0.286838
20
1.5455
11
0.281448
21
1.55852
0
LINE
8
BLACK
6
CONTINUOUS
10
0.281448
20
1.55852
11
0.277549
21
1.57205
0
LINE
8
BLACK
6
CONTINUOUS
10
0.277549
20
1.57205
11
0.27519
21
1.58594
0
LINE
8
BLACK
6
CONTINUOUS
10
0.27519
20
1.58594
11
0.2744
21
1.6
0
LINE
8
BLACK
6
CONTINUOUS
10
0.2744
20
1.6
11
0.27519
21
1.61406
0
LINE
8
BLACK
6
CONTINUOUS
10
0.27519
20
1.61406
11
0.277549
21
1.62795
0
LINE
8
BLACK
6
CONTINUOUS
10
0.277549
20
1.62795
11
0.281448
21
1.64148
0
LINE
8
BLACK
6
CONTINUOUS
10
0.281448
20
1.64148
11
0.286838
21
1.6545
0
LINE
8
BLACK
6
CONTINUOUS
10
0.286838
20
1.6545
11
0.293651
21
1.66682
0
LINE
8
BLACK
6
CONTINUOUS
10
0.293651
20
1.66682
11
0.301802
21
1.67831
0
LINE
8
BLACK
6
CONTINUOUS
10
0.301802
20
1.67831
11
0.311187
21
1.68881
0
LINE
8
BLACK
6
CONTINUOUS
10
0.311187
20
1.68881
11
0.32169
21
1.6982
0
LINE
8
BLACK
6
CONTINUOUS
10
0.32169
20
1.6982
11
0.333177
21
1.70635
0
LINE
8
BLACK
6
CONTINUOUS
10
0.333177
20
1.70635
11
0.345504
21
1.71316
0
LINE
8
BLACK
6
CONTINUOUS
10
0.345504
20
1.71316
11
0.358517
21
1.71855
0
LINE
8
BLACK
6
CONTINUOUS
10
0.358517
20
1.71855
11
0.372051
21
1.72245
0
LINE
8
BLACK
6
CONTINUOUS
10
0.372051
20
1.72245
11
0.385937
21
1.72481
0
LINE
8
BLACK
6
CONTINUOUS
10
0.385937
20
1.72481
11
0.4
21
1.7256
0
LINE
8
BLACK
6
CONTINUOUS
10
0.4
20
1.7256
11
0.414063
21
1.72481
0
LINE
8
BLACK
6
CONTINUOUS
10
0.289962
20
1.58714
11
0.292199
21
1.57445
0
LINE
8
BLACK
6
CONTINUOUS
10
0.292199
20
1.57445
11
0.295894
21
1.56211
0
LINE
8
BLACK
6
CONTINUOUS
10
0.295894
20
1.56211
11
0.300997
21
1.55028
0
LINE
8
BLACK
6
CONTINUOUS
10
0.300997
20
1.55028
11
0.307438
21
1.53912
0
LINE
8
BLACK
6
CONTINUOUS
10
0.307438
20
1.53912
11
0.315132
21
1.52879
0
LINE
8
BLACK
6
CONTINUOUS
10
0.315132
20
1.52879
11
0.323973
21
1.51942
0
LINE
8
BLACK
6
CONTINUOUS
10
0.323973
20
1.51942
11
0.333842
21
1.51113
0
LINE
8
BLACK
6
CONTINUOUS
10
0.333842
20
1.51113
11
0.344606
21
1.50406
0
LINE
8
BLACK
6
CONTINUOUS
10
0.344606
20
1.50406
11
0.356119
21
1.49827
0
LINE
8
BLACK
6
CONTINUOUS
10
0.356119
20
1.49827
11
0.368226
21
1.49387
0
LINE
8
BLACK
6
CONTINUOUS
10
0.368226
20
1.49387
11
0.380762
21
1.4909
0
LINE
8
BLACK
6
CONTINUOUS
10
0.380762
20
1.4909
11
0.393558
21
1.4894
0
LINE
8
BLACK
6
CONTINUOUS
10
0.393558
20
1.4894
11
0.406442
21
1.4894
0
LINE
8
BLACK
6
CONTINUOUS
10
0.406442
20
1.4894
11
0.419238
21
1.4909
0
LINE
8
BLACK
6
CONTINUOUS
10
0.419238
20
1.4909
11
0.431774
21
1.49387
0
LINE
8
BLACK
6
CONTINUOUS
10
0.431774
20
1.49387
11
0.443881
21
1.49827
0
LINE
8
BLACK
6
CONTINUOUS
10
0.443881
20
1.49827
11
0.455394
21
1.50406
0
LINE
8
BLACK
6
CONTINUOUS
10
0.455394
20
1.50406
11
0.466158
21
1.51113
0
LINE
8
BLACK
6
CONTINUOUS
10
0.466158
20
1.51113
11
0.476027
21
1.51942
0
LINE
8
BLACK
6
CONTINUOUS
10
0.476027
20
1.51942
11
0.484868
21
1.52879
0
LINE
8
BLACK
6
CONTINUOUS
10
0.484868
20
1.52879
11
0.492562
21
1.53912
0
LINE
8
BLACK
6
CONTINUOUS
10
0.492562
20
1.53912
11
0.499003
21
1.55028
0
LINE
8
BLACK
6
CONTINUOUS
10
0.499003
20
1.55028
11
0.504106
21
1.56211
0
LINE
8
BLACK
6
CONTINUOUS
10
0.504106
20
1.56211
11
0.507801
21
1.57445
0
LINE
8
BLACK
6
CONTINUOUS
10
0.507801
20
1.57445
11
0.510038
21
1.58714
0
LINE
8
BLACK
6
CONTINUOUS
10
0.510038
20
1.58714
11
0.510787
21
1.6
0
LINE
8
BLACK
6
CONTINUOUS
10
0.510787
20
1.6
11
0.510038
21
1.61286
0
LINE
8
BLACK
6
CONTINUOUS
10
0.510038
20
1.61286
11
0.507801
21
1.62555
0
LINE
8
BLACK
6
CONTINUOUS
10
0.507801
20
1.62555
11
0.504106
21
1.63789
0
LINE
8
BLACK
6
CONTINUOUS
10
0.504106
20
1.63789
11
0.499003
21
1.64972
0
LINE
8
BLACK
6
CONTINUOUS
10
0.499003
20
1.64972
11
0.492562
21
1.66088
0
LINE
8
BLACK
6
CONTINUOUS
10
0.492562
20
1.66088
11
0.484868
21
1.67121
0
LINE
8
BLACK
6
CONTINUOUS
10
0.484868
20
1.67121
11
0.476027
21
1.68058
0
LINE
8
BLACK
6
CONTINUOUS
10
0.476027
20
1.68058
11
0.466158
21
1.68887
0
LINE
8
BLACK
6
CONTINUOUS
10
0.466158
20
1.68887
11
0.455394
21
1.69594
0
LINE
8
BLACK
6
CONTINUOUS
10
0.455394
20
1.69594
11
0.443881
21
1.70173
0
LINE
8
BLACK
6
CONTINUOUS
10
0.443881
20
1.70173
11
0.431774
21
1.70613
0
LINE
8
BLACK
6
CONTINUOUS
10
0.431774
20
1.70613
11
0.419238
21
1.7091
0
LINE
8
BLACK
6
CONTINUOUS
10
0.419238
20
1.7091
11
0.406442
21
1.7106
0
LINE
8
BLACK
6
CONTINUOUS
10
0.406442
20
1.7106
11
0.393558
21
1.7106
0
LINE
8
BLACK
6
CONTINUOUS
10
0.393558
20
1.7106
11
0.380762
21
1.7091
0
LINE
8
BLACK
6
CONTINUOUS
10
0.380762
20
1.7091
11
0.368226
21
1.70613
0
LINE
8
BLACK
6
CONTINUOUS
10
0.368226
20
1.70613
11
0.356119
21
1.70173
0
LINE
8
BLACK
6
CONTINUOUS
10
0.356119
20
1.70173
11
0.344606
21
1.69594
0
LINE
8
BLACK
6
CONTINUOUS
10
0.344606
20
1.69594
11
0.333842
21
1.68887
0
LINE
8
BLACK
6
CONTINUOUS
10
0.333842
20
1.68887
11
0.323973
21
1.68058
0
LINE
8
BLACK
6
CONTINUOUS
10
0.323973
20
1.68058
11
0.315132
21
1.67121
0
LINE
8
BLACK
6
CONTINUOUS
10
0.315132
20
1.67121
11
0.307438
21
1.66088
0
LINE
8
BLACK
6
CONTINUOUS
10
0.307438
20
1.66088
11
0.300997
21
1.64972
0
LINE
8
BLACK
6
CONTINUOUS
10
0.300997
20
1.64972
11
0.295894
21
1.63789
0
LINE
8
BLACK
6
CONTINUOUS
10
0.295894
20
1.63789
11
0.292199
21
1.62555
0
LINE
8
BLACK
6
CONTINUOUS
10
0.292199
20
1.62555
11
0.289962
21
1.61286
0
LINE
8
BLACK
6
CONTINUOUS
10
0.289962
20
1.61286
11
0.289213
21
1.6
0
LINE
8
BLACK
6
CONTINUOUS
10
0.289213
20
1.6
11
0.289962
21
1.58714
0
LINE
8
BLACK
6
CONTINUOUS
10
2.41406
20
1.72481
11
2.42795
21
1.72245
0
LINE
8
BLACK
6
CONTINUOUS
10
2.42795
20
1.72245
11
2.44148
21
1.71855
0
LINE
8
BLACK
6
CONTINUOUS
10
2.44148
20
1.71855
11
2.4545
21
1.71316
0
LINE
8
BLACK
6
CONTINUOUS
10
2.4545
20
1.71316
11
2.46682
21
1.70635
0
LINE
8
BLACK
6
CONTINUOUS
10
2.46682
20
1.70635
11
2.47831
21
1.6982
0
LINE
8
BLACK
6
CONTINUOUS
10
2.47831
20
1.6982
11
2.48881
21
1.68881
0
LINE
8
BLACK
6
CONTINUOUS
10
2.48881
20
1.68881
11
2.4982
21
1.67831
0
LINE
8
BLACK
6
CONTINUOUS
10
2.4982
20
1.67831
11
2.50635
21
1.66682
0
LINE
8
BLACK
6
CONTINUOUS
10
2.50635
20
1.66682
11
2.51316
21
1.6545
0
LINE
8
BLACK
6
CONTINUOUS
10
2.51316
20
1.6545
11
2.51855
21
1.64148
0
LINE
8
BLACK
6
CONTINUOUS
10
2.51855
20
1.64148
11
2.52245
21
1.62795
0
LINE
8
BLACK
6
CONTINUOUS
10
2.52245
20
1.62795
11
2.52481
21
1.61406
0
LINE
8
BLACK
6
CONTINUOUS
10
2.52481
20
1.61406
11
2.5256
21
1.6
0
LINE
8
BLACK
6
CONTINUOUS
10
2.5256
20
1.6
11
2.52481
21
1.58594
0
LINE
8
BLACK
6
CONTINUOUS
10
2.52481
20
1.58594
11
2.52245
21
1.57205
0
LINE
8
BLACK
6
CONTINUOUS
10
2.52245
20
1.57205
11
2.51855
21
1.55852
0
LINE
8
BLACK
6
CONTINUOUS
10
2.51855
20
1.55852
11
2.51316
21
1.5455
0
LINE
8
BLACK
6
CONTINUOUS
10
2.51316
20
1.5455
11
2.50635
21
1.53318
0
LINE
8
BLACK
6
CONTINUOUS
10
2.50635
20
1.53318
11
2.4982
21
1.52169
0
LINE
8
BLACK
6
CONTINUOUS
10
2.4982
20
1.52169
11
2.48881
21
1.51119
0
LINE
8
BLACK
6
CONTINUOUS
10
2.48881
20
1.51119
11
2.47831
21
1.5018
0
LINE
8
BLACK
6
CONTINUOUS
10
2.47831
20
1.5018
11
2.46682
21
1.49365
0
LINE
8
BLACK
6
CONTINUOUS
10
2.46682
20
1.49365
11
2.4545
21
1.48684
0
LINE
8
BLACK
6
CONTINUOUS
10
2.4545
20
1.48684
11
2.44148
21
1.48145
0
LINE
8
BLACK
6
CONTINUOUS
10
2.44148
20
1.48145
11
2.42795
21
1.47755
0
LINE
8
BLACK
6
CONTINUOUS
10
2.42795
20
1.47755
11
2.41406
21
1.47519
0
LINE
8
BLACK
6
CONTINUOUS
10
2.41406
20
1.47519
11
2.4
21
1.4744
0
LINE
8
BLACK
6
CONTINUOUS
10
2.4
20
1.4744
11
2.38594
21
1.47519
0
LINE
8
BLACK
6
CONTINUOUS
10
2.38594
20
1.47519
11
2.37205
21
1.47755
0
LINE
8
BLACK
6
CONTINUOUS
10
2.37205
20
1.47755
11
2.35852
21
1.48145
0
LINE
8
BLACK
6
CONTINUOUS
10
2.35852
20
1.48145
11
2.3455
21
1.48684
0
LINE
8
BLACK
6
CONTINUOUS
10
2.3455
20
1.48684
11
2.33318
21
1.49365
0
LINE
8
BLACK
6
CONTINUOUS
10
2.33318
20
1.49365
11
2.32169
21
1.5018
0
LINE
8
BLACK
6
CONTINUOUS
10
2.32169
20
1.5018
11
2.31119
21
1.51119
0
LINE
8
BLACK
6
CONTINUOUS
10
2.31119
20
1.51119
11
2.3018
21
1.52169
0
LINE
8
BLACK
6
CONTINUOUS
10
2.3018
20
1.52169
11
2.29365
21
1.53318
0
LINE
8
BLACK
6
CONTINUOUS
10
2.29365
20
1.53318
11
2.28684
21
1.5455
0
LINE
8
BLACK
6
CONTINUOUS
10
2.28684
20
1.5455
11
2.28145
21
1.55852
0
LINE
8
BLACK
6
CONTINUOUS
10
2.28145
20
1.55852
11
2.27755
21
1.57205
0
LINE
8
BLACK
6
CONTINUOUS
10
2.27755
20
1.57205
11
2.27519
21
1.58594
0
LINE
8
BLACK
6
CONTINUOUS
10
2.27519
20
1.58594
11
2.2744
21
1.6
0
LINE
8
BLACK
6
CONTINUOUS
10
2.2744
20
1.6
11
2.27519
21
1.61406
0
LINE
8
BLACK
6
CONTINUOUS
10
2.27519
20
1.61406
11
2.27755
21
1.62795
0
LINE
8
BLACK
6
CONTINUOUS
10
2.27755
20
1.62795
11
2.28145
21
1.64148
0
LINE
8
BLACK
6
CONTINUOUS
10
2.28145
20
1.64148
11
2.28684
21
1.6545
0
LINE
8
BLACK
6
CONTINUOUS
10
2.28684
20
1.6545
11
2.29365
21
1.66682
0
LINE
8
BLACK
6
CONTINUOUS
10
2.29365
20
1.66682
11
2.3018
21
1.67831
0
LINE
8
BLACK
6
CONTINUOUS
10
2.3018
20
1.67831
11
2.31119
21
1.68881
0
LINE
8
BLACK
6
CONTINUOUS
10
2.31119
20
1.68881
11
2.32169
21
1.6982
0
LINE
8
BLACK
6
CONTINUOUS
10
2.32169
20
1.6982
11
2.33318
21
1.70635
0
LINE
8
BLACK
6
CONTINUOUS
10
2.33318
20
1.70635
11
2.3455
21
1.71316
0
LINE
8
BLACK
6
CONTINUOUS
10
2.3455
20
1.71316
11
2.35852
21
1.71855
0
LINE
8
BLACK
6
CONTINUOUS
10
2.35852
20
1.71855
11
2.37205
21
1.72245
0
LINE
8
BLACK
6
CONTINUOUS
10
2.37205
20
1.72245
11
2.38594
21
1.72481
0
LINE
8
BLACK
6
CONTINUOUS
10
2.38594
20
1.72481
11
2.4
21
1.7256
0
LINE
8
BLACK
6
CONTINUOUS
10
2.4
20
1.7256
11
2.41406
21
1.72481
0
LINE
8
BLACK
6
CONTINUOUS
10
2.28996
20
1.58714
11
2.2922
21
1.57445
0
LINE
8
BLACK
6
CONTINUOUS
10
2.2922
20
1.57445
11
2.29589
21
1.56211
0
LINE
8
BLACK
6
CONTINUOUS
10
2.29589
20
1.56211
11
2.301
21
1.55028
0
LINE
8
BLACK
6
CONTINUOUS
10
2.301
20
1.55028
11
2.30744
21
1.53912
0
LINE
8
BLACK
6
CONTINUOUS
10
2.30744
20
1.53912
11
2.31513
21
1.52879
0
LINE
8
BLACK
6
CONTINUOUS
10
2.31513
20
1.52879
11
2.32397
21
1.51942
0
LINE
8
BLACK
6
CONTINUOUS
10
2.32397
20
1.51942
11
2.33384
21
1.51113
0
LINE
8
BLACK
6
CONTINUOUS
10
2.33384
20
1.51113
11
2.34461
21
1.50406
0
LINE
8
BLACK
6
CONTINUOUS
10
2.34461
20
1.50406
11
2.35612
21
1.49827
0
LINE
8
BLACK
6
CONTINUOUS
10
2.35612
20
1.49827
11
2.36823
21
1.49387
0
LINE
8
BLACK
6
CONTINUOUS
10
2.36823
20
1.49387
11
2.38076
21
1.4909
0
LINE
8
BLACK
6
CONTINUOUS
10
2.38076
20
1.4909
11
2.39356
21
1.4894
0
LINE
8
BLACK
6
CONTINUOUS
10
2.39356
20
1.4894
11
2.40644
21
1.4894
0
LINE
8
BLACK
6
CONTINUOUS
10
2.40644
20
1.4894
11
2.41924
21
1.4909
0
LINE
8
BLACK
6
CONTINUOUS
10
2.41924
20
1.4909
11
2.43177
21
1.49387
0
LINE
8
BLACK
6
CONTINUOUS
10
2.43177
20
1.49387
11
2.44388
21
1.49827
0
LINE
8
BLACK
6
CONTINUOUS
10
2.44388
20
1.49827
11
2.45539
21
1.50406
0
LINE
8
BLACK
6
CONTINUOUS
10
2.45539
20
1.50406
11
2.46616
21
1.51113
0
LINE
8
BLACK
6
CONTINUOUS
10
2.46616
20
1.51113
11
2.47603
21
1.51942
0
LINE
8
BLACK
6
CONTINUOUS
10
2.47603
20
1.51942
11
2.48487
21
1.52879
0
LINE
8
BLACK
6
CONTINUOUS
10
2.48487
20
1.52879
11
2.49256
21
1.53912
0
LINE
8
BLACK
6
CONTINUOUS
10
2.49256
20
1.53912
11
2.499
21
1.55028
0
LINE
8
BLACK
6
CONTINUOUS
10
2.499
20
1.55028
11
2.50411
21
1.56211
0
LINE
8
BLACK
6
CONTINUOUS
10
2.50411
20
1.56211
11
2.5078
21
1.57445
0
LINE
8
BLACK
6
CONTINUOUS
10
2.5078
20
1.57445
11
2.51004
21
1.58714
0
LINE
8
BLACK
6
CONTINUOUS
10
2.51004
20
1.58714
11
2.51079
21
1.6
0
LINE
8
BLACK
6
CONTINUOUS
10
2.51079
20
1.6
11
2.51004
21
1.61286
0
LINE
8
BLACK
6
CONTINUOUS
10
2.51004
20
1.61286
11
2.5078
21
1.62555
0
LINE
8
BLACK
6
CONTINUOUS
10
2.5078
20
1.62555
11
2.50411
21
1.63789
0
LINE
8
BLACK
6
CONTINUOUS
10
2.50411
20
1.63789
11
2.499
21
1.64972
0
LINE
8
BLACK
6
CONTINUOUS
10
2.499
20
1.64972
11
2.49256
21
1.66088
0
LINE
8
BLACK
6
CONTINUOUS
10
2.49256
20
1.66088
11
2.48487
21
1.67121
0
LINE
8
BLACK
6
CONTINUOUS
10
2.48487
20
1.67121
11
2.47603
21
1.68058
0
LINE
8
BLACK
6
CONTINUOUS
10
2.47603
20
1.68058
11
2.46616
21
1.68887
0
LINE
8
BLACK
6
CONTINUOUS
10
2.46616
20
1.68887
11
2.45539
21
1.69594
0
LINE
8
BLACK
6
CONTINUOUS
10
2.45539
20
1.69594
11
2.44388
21
1.70173
0
LINE
8
BLACK
6
CONTINUOUS
10
2.44388
20
1.70173
11
2.43177
21
1.70613
0
LINE
8
BLACK
6
CONTINUOUS
10
2.43177
20
1.70613
11
2.41924
21
1.7091
0
LINE
8
BLACK
6
CONTINUOUS
10
2.41924
20
1.7091
11
2.40644
21
1.7106
0
LINE
8
BLACK
6
CONTINUOUS
10
2.40644
20
1.7106
11
2.39356
21
1.7106
0
LINE
8
BLACK
6
CONTINUOUS
10
2.39356
20
1.7106
11
2.38076
21
1.7091
0
LINE
8
BLACK
6
CONTINUOUS
10
2.38076
20
1.7091
11
2.36823
21
1.70613
0
LINE
8
BLACK
6
CONTINUOUS
10
2.36823
20
1.70613
11
2.35612
21
1.70173
0
LINE
8
BLACK
6
CONTINUOUS
10
2.35612
20
1.70173
11
2.34461
21
1.69594
0
LINE
8
BLACK
6
CONTINUOUS
10
2.34461
20
1.69594
11
2.33384
21
1.68887
0
LINE
8
BLACK
6
CONTINUOUS
10
2.33384
20
1.68887
11
2.32397
21
1.68058
0
LINE
8
BLACK
6
CONTINUOUS
10
2.32397
20
1.68058
11
2.31513
21
1.67121
0
LINE
8
BLACK
6
CONTINUOUS
10
2.31513
20
1.67121
11
2.30744
21
1.66088
0
LINE
8
BLACK
6
CONTINUOUS
10
2.30744
20
1.66088
11
2.301
21
1.64972
0
LINE
8
BLACK
6
CONTINUOUS
10
2.301
20
1.64972
11
2.29589
21
1.63789
0
LINE
8
BLACK
6
CONTINUOUS
10
2.29589
20
1.63789
11
2.2922
21
1.62555
0
LINE
8
BLACK
6
CONTINUOUS
10
2.2922
20
1.62555
11
2.28996
21
1.61286
0
LINE
8
BLACK
6
CONTINUOUS
10
2.28996
20
1.61286
11
2.28921
21
1.6
0
LINE
8
BLACK
6
CONTINUOUS
10
2.28921
20
1.6
11
2.28996
21
1.58714
  0
ENDSEC
  0
EOF
