  0
SECTION
  2
HEADER
  9
$ANGBASE
  50
0.0
  9
$ANGDIR
  70
1
  9
$MEASUREMENT
  70
0
  0
ENDSEC
  0
SECTION
  2
TABLES
  0
TABLE
  2
LTYPE
  70
4
  0
LTYPE
  5
40F
  2
CONTINUOUS
  70
0
  3
Solid line
  72
65
  73
0
  40
0.0
  0
LTYPE
  5
410
  2
DASHDOT
 70
0
  3
Dash Dot ____ _ ____ _
 72
65
 73
4
 40
2.0
 49
1.25
 49
-0.25
 49
0.25
 49
-0.25
  0
LTYPE
  5
411
  2
DASHED
 70
0
  3
Dashed __ __ __ __ __
 72
65
 73
2
 40
0.75
 49
0.5
 49
-0.25
  0
LTYPE
  5
43B
  2
DOTTED
 70
0
  3
Dotted .  .  .  .
 72
65
 73
2
 40
0.2
 49
0.0
 49
-0.2
  0
ENDTAB
  0
TABLE
  2
STYLE
  70
4
  0
STYLE
  2
KICAD
  70
0
  40
0
  41
1
  42
1
  50
0
  71
0
  3
isocp.shx
  0
STYLE
  2
KICADB
  70
0
  40
0
  41
1
  42
1
  50
0
  71
0
  3
isocp.shx
  0
STYLE
  2
KICADI
  70
0
  40
0
  41
1
  42
1
  50
15
  71
0
  3
isocp.shx
  0
STYLE
  2
KICADBI
  70
0
  40
0
  41
1
  42
1
  50
15
  71
0
  3
isocp.shx
  0
ENDTAB
  0
TABLE
  2
LAYER
  70
1
  0
LAYER
  2
BLACK
  70
0
  62
7
  6
CONTINUOUS
  0
ENDTAB
  0
ENDSEC
  0
SECTION
  2
ENTITIES
0
LINE
8
BLACK
6
CONTINUOUS
10
1.29
20
-0.34
11
1.23
21
-0.34
0
LINE
8
BLACK
6
CONTINUOUS
10
1.23
20
-0.34
11
1.23
21
-0.28
0
LINE
8
BLACK
6
CONTINUOUS
10
1.23
20
-0.28
11
1.29
21
-0.28
0
LINE
8
BLACK
6
CONTINUOUS
10
1.29
20
-0.28
11
1.29
21
-0.34
0
LINE
8
BLACK
6
CONTINUOUS
10
1.39
20
-0.34
11
1.33
21
-0.34
0
LINE
8
BLACK
6
CONTINUOUS
10
1.33
20
-0.34
11
1.33
21
-0.28
0
LINE
8
BLACK
6
CONTINUOUS
10
1.33
20
-0.28
11
1.39
21
-0.28
0
LINE
8
BLACK
6
CONTINUOUS
10
1.39
20
-0.28
11
1.39
21
-0.34
0
LINE
8
BLACK
6
CONTINUOUS
10
0.747559
20
-0.330197
11
0.686142
21
-0.330197
0
LINE
8
BLACK
6
CONTINUOUS
10
0.686142
20
-0.330197
11
0.686142
21
-0.304606
0
LINE
8
BLACK
6
CONTINUOUS
10
0.686142
20
-0.304606
11
0.747559
21
-0.304606
0
LINE
8
BLACK
6
CONTINUOUS
10
0.747559
20
-0.304606
11
0.747559
21
-0.330197
0
LINE
8
BLACK
6
CONTINUOUS
10
0.853858
20
-0.330197
11
0.792441
21
-0.330197
0
LINE
8
BLACK
6
CONTINUOUS
10
0.792441
20
-0.330197
11
0.792441
21
-0.304606
0
LINE
8
BLACK
6
CONTINUOUS
10
0.792441
20
-0.304606
11
0.853858
21
-0.304606
0
LINE
8
BLACK
6
CONTINUOUS
10
0.853858
20
-0.304606
11
0.853858
21
-0.330197
0
LINE
8
BLACK
6
CONTINUOUS
10
0.747559
20
-0.292795
11
0.686142
21
-0.292795
0
LINE
8
BLACK
6
CONTINUOUS
10
0.686142
20
-0.292795
11
0.686142
21
-0.267205
0
LINE
8
BLACK
6
CONTINUOUS
10
0.686142
20
-0.267205
11
0.747559
21
-0.267205
0
LINE
8
BLACK
6
CONTINUOUS
10
0.747559
20
-0.267205
11
0.747559
21
-0.292795
0
LINE
8
BLACK
6
CONTINUOUS
10
0.747559
20
-0.255394
11
0.686142
21
-0.255394
0
LINE
8
BLACK
6
CONTINUOUS
10
0.686142
20
-0.255394
11
0.686142
21
-0.229803
0
LINE
8
BLACK
6
CONTINUOUS
10
0.686142
20
-0.229803
11
0.747559
21
-0.229803
0
LINE
8
BLACK
6
CONTINUOUS
10
0.747559
20
-0.229803
11
0.747559
21
-0.255394
0
LINE
8
BLACK
6
CONTINUOUS
10
0.853858
20
-0.255394
11
0.792441
21
-0.255394
0
LINE
8
BLACK
6
CONTINUOUS
10
0.792441
20
-0.255394
11
0.792441
21
-0.229803
0
LINE
8
BLACK
6
CONTINUOUS
10
0.792441
20
-0.229803
11
0.853858
21
-0.229803
0
LINE
8
BLACK
6
CONTINUOUS
10
0.853858
20
-0.229803
11
0.853858
21
-0.255394
0
LINE
8
BLACK
6
CONTINUOUS
10
0.928176
20
-0.19319
11
0.931369
21
-0.195324
0
LINE
8
BLACK
6
CONTINUOUS
10
0.931369
20
-0.195324
11
0.933503
21
-0.198517
0
LINE
8
BLACK
6
CONTINUOUS
10
0.933503
20
-0.198517
11
0.934252
21
-0.202283
0
LINE
8
BLACK
6
CONTINUOUS
10
0.934252
20
-0.202283
11
0.934252
21
-0.237717
0
LINE
8
BLACK
6
CONTINUOUS
10
0.934252
20
-0.237717
11
0.933503
21
-0.241483
0
LINE
8
BLACK
6
CONTINUOUS
10
0.933503
20
-0.241483
11
0.931369
21
-0.244676
0
LINE
8
BLACK
6
CONTINUOUS
10
0.931369
20
-0.244676
11
0.928176
21
-0.24681
0
LINE
8
BLACK
6
CONTINUOUS
10
0.928176
20
-0.24681
11
0.924409
21
-0.247559
0
LINE
8
BLACK
6
CONTINUOUS
10
0.924409
20
-0.247559
11
0.90374
21
-0.247559
0
LINE
8
BLACK
6
CONTINUOUS
10
0.90374
20
-0.247559
11
0.899974
21
-0.24681
0
LINE
8
BLACK
6
CONTINUOUS
10
0.899974
20
-0.24681
11
0.89678
21
-0.244676
0
LINE
8
BLACK
6
CONTINUOUS
10
0.89678
20
-0.244676
11
0.894647
21
-0.241483
0
LINE
8
BLACK
6
CONTINUOUS
10
0.894647
20
-0.241483
11
0.893898
21
-0.237717
0
LINE
8
BLACK
6
CONTINUOUS
10
0.893898
20
-0.237717
11
0.893898
21
-0.202283
0
LINE
8
BLACK
6
CONTINUOUS
10
0.893898
20
-0.202283
11
0.894647
21
-0.198517
0
LINE
8
BLACK
6
CONTINUOUS
10
0.894647
20
-0.198517
11
0.89678
21
-0.195324
0
LINE
8
BLACK
6
CONTINUOUS
10
0.89678
20
-0.195324
11
0.899974
21
-0.19319
0
LINE
8
BLACK
6
CONTINUOUS
10
0.899974
20
-0.19319
11
0.90374
21
-0.192441
0
LINE
8
BLACK
6
CONTINUOUS
10
0.90374
20
-0.192441
11
0.924409
21
-0.192441
0
LINE
8
BLACK
6
CONTINUOUS
10
0.924409
20
-0.192441
11
0.928176
21
-0.19319
0
LINE
8
BLACK
6
CONTINUOUS
10
1.00003
20
-0.19319
11
1.00322
21
-0.195324
0
LINE
8
BLACK
6
CONTINUOUS
10
1.00322
20
-0.195324
11
1.00535
21
-0.198517
0
LINE
8
BLACK
6
CONTINUOUS
10
1.00535
20
-0.198517
11
1.0061
21
-0.202283
0
LINE
8
BLACK
6
CONTINUOUS
10
1.0061
20
-0.202283
11
1.0061
21
-0.237717
0
LINE
8
BLACK
6
CONTINUOUS
10
1.0061
20
-0.237717
11
1.00535
21
-0.241483
0
LINE
8
BLACK
6
CONTINUOUS
10
1.00535
20
-0.241483
11
1.00322
21
-0.244676
0
LINE
8
BLACK
6
CONTINUOUS
10
1.00322
20
-0.244676
11
1.00003
21
-0.24681
0
LINE
8
BLACK
6
CONTINUOUS
10
1.00003
20
-0.24681
11
0.99626
21
-0.247559
0
LINE
8
BLACK
6
CONTINUOUS
10
0.99626
20
-0.247559
11
0.975591
21
-0.247559
0
LINE
8
BLACK
6
CONTINUOUS
10
0.975591
20
-0.247559
11
0.971824
21
-0.24681
0
LINE
8
BLACK
6
CONTINUOUS
10
0.971824
20
-0.24681
11
0.968631
21
-0.244676
0
LINE
8
BLACK
6
CONTINUOUS
10
0.968631
20
-0.244676
11
0.966497
21
-0.241483
0
LINE
8
BLACK
6
CONTINUOUS
10
0.966497
20
-0.241483
11
0.965748
21
-0.237717
0
LINE
8
BLACK
6
CONTINUOUS
10
0.965748
20
-0.237717
11
0.965748
21
-0.202283
0
LINE
8
BLACK
6
CONTINUOUS
10
0.965748
20
-0.202283
11
0.966497
21
-0.198517
0
LINE
8
BLACK
6
CONTINUOUS
10
0.966497
20
-0.198517
11
0.968631
21
-0.195324
0
LINE
8
BLACK
6
CONTINUOUS
10
0.968631
20
-0.195324
11
0.971824
21
-0.19319
0
LINE
8
BLACK
6
CONTINUOUS
10
0.971824
20
-0.19319
11
0.975591
21
-0.192441
0
LINE
8
BLACK
6
CONTINUOUS
10
0.975591
20
-0.192441
11
0.99626
21
-0.192441
0
LINE
8
BLACK
6
CONTINUOUS
10
0.99626
20
-0.192441
11
1.00003
21
-0.19319
0
LINE
8
BLACK
6
CONTINUOUS
10
1.29
20
-0.24
11
1.23
21
-0.24
0
LINE
8
BLACK
6
CONTINUOUS
10
1.23
20
-0.24
11
1.23
21
-0.18
0
LINE
8
BLACK
6
CONTINUOUS
10
1.23
20
-0.18
11
1.29
21
-0.18
0
LINE
8
BLACK
6
CONTINUOUS
10
1.29
20
-0.18
11
1.29
21
-0.24
0
LINE
8
BLACK
6
CONTINUOUS
10
1.39
20
-0.24
11
1.33
21
-0.24
0
LINE
8
BLACK
6
CONTINUOUS
10
1.33
20
-0.24
11
1.33
21
-0.18
0
LINE
8
BLACK
6
CONTINUOUS
10
1.33
20
-0.18
11
1.39
21
-0.18
0
LINE
8
BLACK
6
CONTINUOUS
10
1.39
20
-0.18
11
1.39
21
-0.24
0
LINE
8
BLACK
6
CONTINUOUS
10
0.447681
20
0.123614
11
0.455066
21
0.121373
0
LINE
8
BLACK
6
CONTINUOUS
10
0.455066
20
0.121373
11
0.461873
21
0.117735
0
LINE
8
BLACK
6
CONTINUOUS
10
0.461873
20
0.117735
11
0.467839
21
0.112839
0
LINE
8
BLACK
6
CONTINUOUS
10
0.467839
20
0.112839
11
0.472735
21
0.106873
0
LINE
8
BLACK
6
CONTINUOUS
10
0.472735
20
0.106873
11
0.476373
21
0.100066
0
LINE
8
BLACK
6
CONTINUOUS
10
0.476373
20
0.100066
11
0.478614
21
0.0926807
0
LINE
8
BLACK
6
CONTINUOUS
10
0.478614
20
0.0926807
11
0.47937
21
0.085
0
LINE
8
BLACK
6
CONTINUOUS
10
0.47937
20
0.085
11
0.478614
21
0.0773193
0
LINE
8
BLACK
6
CONTINUOUS
10
0.478614
20
0.0773193
11
0.476373
21
0.0699337
0
LINE
8
BLACK
6
CONTINUOUS
10
0.476373
20
0.0699337
11
0.472735
21
0.0631272
0
LINE
8
BLACK
6
CONTINUOUS
10
0.472735
20
0.0631272
11
0.467839
21
0.0571611
0
LINE
8
BLACK
6
CONTINUOUS
10
0.467839
20
0.0571611
11
0.461873
21
0.052265
0
LINE
8
BLACK
6
CONTINUOUS
10
0.461873
20
0.052265
11
0.455066
21
0.0486268
0
LINE
8
BLACK
6
CONTINUOUS
10
0.455066
20
0.0486268
11
0.447681
21
0.0463864
0
LINE
8
BLACK
6
CONTINUOUS
10
0.447681
20
0.0463864
11
0.44
21
0.0456299
0
LINE
8
BLACK
6
CONTINUOUS
10
0.44
20
0.0456299
11
0.432319
21
0.0463864
0
LINE
8
BLACK
6
CONTINUOUS
10
0.432319
20
0.0463864
11
0.424934
21
0.0486268
0
LINE
8
BLACK
6
CONTINUOUS
10
0.424934
20
0.0486268
11
0.418127
21
0.052265
0
LINE
8
BLACK
6
CONTINUOUS
10
0.418127
20
0.052265
11
0.412161
21
0.0571611
0
LINE
8
BLACK
6
CONTINUOUS
10
0.412161
20
0.0571611
11
0.407265
21
0.0631272
0
LINE
8
BLACK
6
CONTINUOUS
10
0.407265
20
0.0631272
11
0.403627
21
0.0699337
0
LINE
8
BLACK
6
CONTINUOUS
10
0.403627
20
0.0699337
11
0.401386
21
0.0773193
0
LINE
8
BLACK
6
CONTINUOUS
10
0.401386
20
0.0773193
11
0.40063
21
0.085
0
LINE
8
BLACK
6
CONTINUOUS
10
0.40063
20
0.085
11
0.401386
21
0.0926807
0
LINE
8
BLACK
6
CONTINUOUS
10
0.401386
20
0.0926807
11
0.403627
21
0.100066
0
LINE
8
BLACK
6
CONTINUOUS
10
0.403627
20
0.100066
11
0.407265
21
0.106873
0
LINE
8
BLACK
6
CONTINUOUS
10
0.407265
20
0.106873
11
0.412161
21
0.112839
0
LINE
8
BLACK
6
CONTINUOUS
10
0.412161
20
0.112839
11
0.418127
21
0.117735
0
LINE
8
BLACK
6
CONTINUOUS
10
0.418127
20
0.117735
11
0.424934
21
0.121373
0
LINE
8
BLACK
6
CONTINUOUS
10
0.424934
20
0.121373
11
0.432319
21
0.123614
0
LINE
8
BLACK
6
CONTINUOUS
10
0.432319
20
0.123614
11
0.44
21
0.12437
0
LINE
8
BLACK
6
CONTINUOUS
10
0.44
20
0.12437
11
0.447681
21
0.123614
0
LINE
8
BLACK
6
CONTINUOUS
10
0.22051
20
0.316316
11
0.233874
21
0.313148
0
LINE
8
BLACK
6
CONTINUOUS
10
0.233874
20
0.313148
11
0.246781
21
0.308451
0
LINE
8
BLACK
6
CONTINUOUS
10
0.246781
20
0.308451
11
0.259055
21
0.302286
0
LINE
8
BLACK
6
CONTINUOUS
10
0.259055
20
0.302286
11
0.270531
21
0.294739
0
LINE
8
BLACK
6
CONTINUOUS
10
0.270531
20
0.294739
11
0.281052
21
0.28591
0
LINE
8
BLACK
6
CONTINUOUS
10
0.281052
20
0.28591
11
0.290478
21
0.27592
0
LINE
8
BLACK
6
CONTINUOUS
10
0.290478
20
0.27592
11
0.29868
21
0.264903
0
LINE
8
BLACK
6
CONTINUOUS
10
0.29868
20
0.264903
11
0.305547
21
0.253008
0
LINE
8
BLACK
6
CONTINUOUS
10
0.305547
20
0.253008
11
0.310987
21
0.240396
0
LINE
8
BLACK
6
CONTINUOUS
10
0.310987
20
0.240396
11
0.314927
21
0.227238
0
LINE
8
BLACK
6
CONTINUOUS
10
0.314927
20
0.227238
11
0.317312
21
0.213712
0
LINE
8
BLACK
6
CONTINUOUS
10
0.317312
20
0.213712
11
0.31811
21
0.2
0
LINE
8
BLACK
6
CONTINUOUS
10
0.31811
20
0.2
11
0.317312
21
0.186288
0
LINE
8
BLACK
6
CONTINUOUS
10
0.317312
20
0.186288
11
0.314927
21
0.172762
0
LINE
8
BLACK
6
CONTINUOUS
10
0.314927
20
0.172762
11
0.310987
21
0.159604
0
LINE
8
BLACK
6
CONTINUOUS
10
0.310987
20
0.159604
11
0.305547
21
0.146992
0
LINE
8
BLACK
6
CONTINUOUS
10
0.305547
20
0.146992
11
0.29868
21
0.135097
0
LINE
8
BLACK
6
CONTINUOUS
10
0.29868
20
0.135097
11
0.290478
21
0.12408
0
LINE
8
BLACK
6
CONTINUOUS
10
0.290478
20
0.12408
11
0.281052
21
0.11409
0
LINE
8
BLACK
6
CONTINUOUS
10
0.281052
20
0.11409
11
0.270531
21
0.105261
0
LINE
8
BLACK
6
CONTINUOUS
10
0.270531
20
0.105261
11
0.259055
21
0.0977135
0
LINE
8
BLACK
6
CONTINUOUS
10
0.259055
20
0.0977135
11
0.246781
21
0.0915493
0
LINE
8
BLACK
6
CONTINUOUS
10
0.246781
20
0.0915493
11
0.233874
21
0.0868516
0
LINE
8
BLACK
6
CONTINUOUS
10
0.233874
20
0.0868516
11
0.22051
21
0.0836841
0
LINE
8
BLACK
6
CONTINUOUS
10
0.22051
20
0.0836841
11
0.206867
21
0.0820896
0
LINE
8
BLACK
6
CONTINUOUS
10
0.206867
20
0.0820896
11
0.193133
21
0.0820896
0
LINE
8
BLACK
6
CONTINUOUS
10
0.193133
20
0.0820896
11
0.17949
21
0.0836841
0
LINE
8
BLACK
6
CONTINUOUS
10
0.17949
20
0.0836841
11
0.166126
21
0.0868516
0
LINE
8
BLACK
6
CONTINUOUS
10
0.166126
20
0.0868516
11
0.153219
21
0.0915493
0
LINE
8
BLACK
6
CONTINUOUS
10
0.153219
20
0.0915493
11
0.140945
21
0.0977135
0
LINE
8
BLACK
6
CONTINUOUS
10
0.140945
20
0.0977135
11
0.129469
21
0.105261
0
LINE
8
BLACK
6
CONTINUOUS
10
0.129469
20
0.105261
11
0.118948
21
0.11409
0
LINE
8
BLACK
6
CONTINUOUS
10
0.118948
20
0.11409
11
0.109522
21
0.12408
0
LINE
8
BLACK
6
CONTINUOUS
10
0.109522
20
0.12408
11
0.10132
21
0.135097
0
LINE
8
BLACK
6
CONTINUOUS
10
0.10132
20
0.135097
11
0.0944528
21
0.146992
0
LINE
8
BLACK
6
CONTINUOUS
10
0.0944528
20
0.146992
11
0.0890127
21
0.159604
0
LINE
8
BLACK
6
CONTINUOUS
10
0.0890127
20
0.159604
11
0.0850734
21
0.172762
0
LINE
8
BLACK
6
CONTINUOUS
10
0.0850734
20
0.172762
11
0.0826884
21
0.186288
0
LINE
8
BLACK
6
CONTINUOUS
10
0.0826884
20
0.186288
11
0.0818898
21
0.2
0
LINE
8
BLACK
6
CONTINUOUS
10
0.0818898
20
0.2
11
0.0826884
21
0.213712
0
LINE
8
BLACK
6
CONTINUOUS
10
0.0826884
20
0.213712
11
0.0850734
21
0.227238
0
LINE
8
BLACK
6
CONTINUOUS
10
0.0850734
20
0.227238
11
0.0890127
21
0.240396
0
LINE
8
BLACK
6
CONTINUOUS
10
0.0890127
20
0.240396
11
0.0944528
21
0.253008
0
LINE
8
BLACK
6
CONTINUOUS
10
0.0944528
20
0.253008
11
0.10132
21
0.264903
0
LINE
8
BLACK
6
CONTINUOUS
10
0.10132
20
0.264903
11
0.109522
21
0.27592
0
LINE
8
BLACK
6
CONTINUOUS
10
0.109522
20
0.27592
11
0.118948
21
0.28591
0
LINE
8
BLACK
6
CONTINUOUS
10
0.118948
20
0.28591
11
0.129469
21
0.294739
0
LINE
8
BLACK
6
CONTINUOUS
10
0.129469
20
0.294739
11
0.140945
21
0.302286
0
LINE
8
BLACK
6
CONTINUOUS
10
0.140945
20
0.302286
11
0.153219
21
0.308451
0
LINE
8
BLACK
6
CONTINUOUS
10
0.153219
20
0.308451
11
0.166126
21
0.313148
0
LINE
8
BLACK
6
CONTINUOUS
10
0.166126
20
0.313148
11
0.17949
21
0.316316
0
LINE
8
BLACK
6
CONTINUOUS
10
0.17949
20
0.316316
11
0.193133
21
0.31791
0
LINE
8
BLACK
6
CONTINUOUS
10
0.193133
20
0.31791
11
0.206867
21
0.31791
0
LINE
8
BLACK
6
CONTINUOUS
10
0.206867
20
0.31791
11
0.22051
21
0.316316
0
LINE
8
BLACK
6
CONTINUOUS
10
1.82051
20
0.316316
11
1.83387
21
0.313148
0
LINE
8
BLACK
6
CONTINUOUS
10
1.83387
20
0.313148
11
1.84678
21
0.308451
0
LINE
8
BLACK
6
CONTINUOUS
10
1.84678
20
0.308451
11
1.85906
21
0.302286
0
LINE
8
BLACK
6
CONTINUOUS
10
1.85906
20
0.302286
11
1.87053
21
0.294739
0
LINE
8
BLACK
6
CONTINUOUS
10
1.87053
20
0.294739
11
1.88105
21
0.28591
0
LINE
8
BLACK
6
CONTINUOUS
10
1.88105
20
0.28591
11
1.89048
21
0.27592
0
LINE
8
BLACK
6
CONTINUOUS
10
1.89048
20
0.27592
11
1.89868
21
0.264903
0
LINE
8
BLACK
6
CONTINUOUS
10
1.89868
20
0.264903
11
1.90555
21
0.253008
0
LINE
8
BLACK
6
CONTINUOUS
10
1.90555
20
0.253008
11
1.91099
21
0.240396
0
LINE
8
BLACK
6
CONTINUOUS
10
1.91099
20
0.240396
11
1.91493
21
0.227238
0
LINE
8
BLACK
6
CONTINUOUS
10
1.91493
20
0.227238
11
1.91731
21
0.213712
0
LINE
8
BLACK
6
CONTINUOUS
10
1.91731
20
0.213712
11
1.91811
21
0.2
0
LINE
8
BLACK
6
CONTINUOUS
10
1.91811
20
0.2
11
1.91731
21
0.186288
0
LINE
8
BLACK
6
CONTINUOUS
10
1.91731
20
0.186288
11
1.91493
21
0.172762
0
LINE
8
BLACK
6
CONTINUOUS
10
1.91493
20
0.172762
11
1.91099
21
0.159604
0
LINE
8
BLACK
6
CONTINUOUS
10
1.91099
20
0.159604
11
1.90555
21
0.146992
0
LINE
8
BLACK
6
CONTINUOUS
10
1.90555
20
0.146992
11
1.89868
21
0.135097
0
LINE
8
BLACK
6
CONTINUOUS
10
1.89868
20
0.135097
11
1.89048
21
0.12408
0
LINE
8
BLACK
6
CONTINUOUS
10
1.89048
20
0.12408
11
1.88105
21
0.11409
0
LINE
8
BLACK
6
CONTINUOUS
10
1.88105
20
0.11409
11
1.87053
21
0.105261
0
LINE
8
BLACK
6
CONTINUOUS
10
1.87053
20
0.105261
11
1.85906
21
0.0977135
0
LINE
8
BLACK
6
CONTINUOUS
10
1.85906
20
0.0977135
11
1.84678
21
0.0915493
0
LINE
8
BLACK
6
CONTINUOUS
10
1.84678
20
0.0915493
11
1.83387
21
0.0868516
0
LINE
8
BLACK
6
CONTINUOUS
10
1.83387
20
0.0868516
11
1.82051
21
0.0836841
0
LINE
8
BLACK
6
CONTINUOUS
10
1.82051
20
0.0836841
11
1.80687
21
0.0820896
0
LINE
8
BLACK
6
CONTINUOUS
10
1.80687
20
0.0820896
11
1.79313
21
0.0820896
0
LINE
8
BLACK
6
CONTINUOUS
10
1.79313
20
0.0820896
11
1.77949
21
0.0836841
0
LINE
8
BLACK
6
CONTINUOUS
10
1.77949
20
0.0836841
11
1.76613
21
0.0868516
0
LINE
8
BLACK
6
CONTINUOUS
10
1.76613
20
0.0868516
11
1.75322
21
0.0915493
0
LINE
8
BLACK
6
CONTINUOUS
10
1.75322
20
0.0915493
11
1.74094
21
0.0977135
0
LINE
8
BLACK
6
CONTINUOUS
10
1.74094
20
0.0977135
11
1.72947
21
0.105261
0
LINE
8
BLACK
6
CONTINUOUS
10
1.72947
20
0.105261
11
1.71895
21
0.11409
0
LINE
8
BLACK
6
CONTINUOUS
10
1.71895
20
0.11409
11
1.70952
21
0.12408
0
LINE
8
BLACK
6
CONTINUOUS
10
1.70952
20
0.12408
11
1.70132
21
0.135097
0
LINE
8
BLACK
6
CONTINUOUS
10
1.70132
20
0.135097
11
1.69445
21
0.146992
0
LINE
8
BLACK
6
CONTINUOUS
10
1.69445
20
0.146992
11
1.68901
21
0.159604
0
LINE
8
BLACK
6
CONTINUOUS
10
1.68901
20
0.159604
11
1.68507
21
0.172762
0
LINE
8
BLACK
6
CONTINUOUS
10
1.68507
20
0.172762
11
1.68269
21
0.186288
0
LINE
8
BLACK
6
CONTINUOUS
10
1.68269
20
0.186288
11
1.68189
21
0.2
0
LINE
8
BLACK
6
CONTINUOUS
10
1.68189
20
0.2
11
1.68269
21
0.213712
0
LINE
8
BLACK
6
CONTINUOUS
10
1.68269
20
0.213712
11
1.68507
21
0.227238
0
LINE
8
BLACK
6
CONTINUOUS
10
1.68507
20
0.227238
11
1.68901
21
0.240396
0
LINE
8
BLACK
6
CONTINUOUS
10
1.68901
20
0.240396
11
1.69445
21
0.253008
0
LINE
8
BLACK
6
CONTINUOUS
10
1.69445
20
0.253008
11
1.70132
21
0.264903
0
LINE
8
BLACK
6
CONTINUOUS
10
1.70132
20
0.264903
11
1.70952
21
0.27592
0
LINE
8
BLACK
6
CONTINUOUS
10
1.70952
20
0.27592
11
1.71895
21
0.28591
0
LINE
8
BLACK
6
CONTINUOUS
10
1.71895
20
0.28591
11
1.72947
21
0.294739
0
LINE
8
BLACK
6
CONTINUOUS
10
1.72947
20
0.294739
11
1.74094
21
0.302286
0
LINE
8
BLACK
6
CONTINUOUS
10
1.74094
20
0.302286
11
1.75322
21
0.308451
0
LINE
8
BLACK
6
CONTINUOUS
10
1.75322
20
0.308451
11
1.76613
21
0.313148
0
LINE
8
BLACK
6
CONTINUOUS
10
1.76613
20
0.313148
11
1.77949
21
0.316316
0
LINE
8
BLACK
6
CONTINUOUS
10
1.77949
20
0.316316
11
1.79313
21
0.31791
0
LINE
8
BLACK
6
CONTINUOUS
10
1.79313
20
0.31791
11
1.80687
21
0.31791
0
LINE
8
BLACK
6
CONTINUOUS
10
1.80687
20
0.31791
11
1.82051
21
0.316316
0
LINE
8
BLACK
6
CONTINUOUS
10
0.484252
20
0.213701
11
0.484252
21
0.174331
0
LINE
8
BLACK
6
CONTINUOUS
10
0.484252
20
0.174331
11
0.393701
21
0.174331
0
LINE
8
BLACK
6
CONTINUOUS
10
0.393701
20
0.174331
11
0.354331
21
0.174331
0
LINE
8
BLACK
6
CONTINUOUS
10
0.354331
20
0.174331
11
0.354331
21
0.213701
0
LINE
8
BLACK
6
CONTINUOUS
10
0.354331
20
0.213701
11
0.354331
21
0.304252
0
LINE
8
BLACK
6
CONTINUOUS
10
0.354331
20
0.304252
11
0.393701
21
0.304252
0
LINE
8
BLACK
6
CONTINUOUS
10
0.393701
20
0.304252
11
0.393701
21
0.213701
0
LINE
8
BLACK
6
CONTINUOUS
10
0.393701
20
0.213701
11
0.484252
21
0.213701
0
LINE
8
BLACK
6
CONTINUOUS
10
0.720472
20
0.174331
11
0.570866
21
0.174331
0
LINE
8
BLACK
6
CONTINUOUS
10
0.570866
20
0.174331
11
0.570866
21
0.213701
0
LINE
8
BLACK
6
CONTINUOUS
10
0.570866
20
0.213701
11
0.720472
21
0.213701
0
LINE
8
BLACK
6
CONTINUOUS
10
0.720472
20
0.213701
11
0.720472
21
0.174331
0
LINE
8
BLACK
6
CONTINUOUS
10
0.956693
20
0.174331
11
0.807087
21
0.174331
0
LINE
8
BLACK
6
CONTINUOUS
10
0.807087
20
0.174331
11
0.807087
21
0.213701
0
LINE
8
BLACK
6
CONTINUOUS
10
0.807087
20
0.213701
11
0.956693
21
0.213701
0
LINE
8
BLACK
6
CONTINUOUS
10
0.956693
20
0.213701
11
0.956693
21
0.174331
0
LINE
8
BLACK
6
CONTINUOUS
10
1.19291
20
0.174331
11
1.04331
21
0.174331
0
LINE
8
BLACK
6
CONTINUOUS
10
1.04331
20
0.174331
11
1.04331
21
0.213701
0
LINE
8
BLACK
6
CONTINUOUS
10
1.04331
20
0.213701
11
1.19291
21
0.213701
0
LINE
8
BLACK
6
CONTINUOUS
10
1.19291
20
0.213701
11
1.19291
21
0.174331
0
LINE
8
BLACK
6
CONTINUOUS
10
1.42913
20
0.174331
11
1.27953
21
0.174331
0
LINE
8
BLACK
6
CONTINUOUS
10
1.27953
20
0.174331
11
1.27953
21
0.213701
0
LINE
8
BLACK
6
CONTINUOUS
10
1.27953
20
0.213701
11
1.42913
21
0.213701
0
LINE
8
BLACK
6
CONTINUOUS
10
1.42913
20
0.213701
11
1.42913
21
0.174331
0
LINE
8
BLACK
6
CONTINUOUS
10
1.6063
20
0.213701
11
1.6063
21
0.304252
0
LINE
8
BLACK
6
CONTINUOUS
10
1.6063
20
0.304252
11
1.64567
21
0.304252
0
LINE
8
BLACK
6
CONTINUOUS
10
1.64567
20
0.304252
11
1.64567
21
0.213701
0
LINE
8
BLACK
6
CONTINUOUS
10
1.64567
20
0.213701
11
1.64567
21
0.174331
0
LINE
8
BLACK
6
CONTINUOUS
10
1.64567
20
0.174331
11
1.6063
21
0.174331
0
LINE
8
BLACK
6
CONTINUOUS
10
1.6063
20
0.174331
11
1.51575
21
0.174331
0
LINE
8
BLACK
6
CONTINUOUS
10
1.51575
20
0.174331
11
1.51575
21
0.213701
0
LINE
8
BLACK
6
CONTINUOUS
10
1.51575
20
0.213701
11
1.6063
21
0.213701
0
LINE
8
BLACK
6
CONTINUOUS
10
0.988334
20
0.315826
11
0.991527
21
0.313692
0
LINE
8
BLACK
6
CONTINUOUS
10
0.991527
20
0.313692
11
0.99366
21
0.310499
0
LINE
8
BLACK
6
CONTINUOUS
10
0.99366
20
0.310499
11
0.994409
21
0.306732
0
LINE
8
BLACK
6
CONTINUOUS
10
0.994409
20
0.306732
11
0.994409
21
0.273268
0
LINE
8
BLACK
6
CONTINUOUS
10
0.994409
20
0.273268
11
0.99366
21
0.269501
0
LINE
8
BLACK
6
CONTINUOUS
10
0.99366
20
0.269501
11
0.991527
21
0.266308
0
LINE
8
BLACK
6
CONTINUOUS
10
0.991527
20
0.266308
11
0.988334
21
0.264174
0
LINE
8
BLACK
6
CONTINUOUS
10
0.988334
20
0.264174
11
0.984567
21
0.263425
0
LINE
8
BLACK
6
CONTINUOUS
10
0.984567
20
0.263425
11
0.949134
21
0.263425
0
LINE
8
BLACK
6
CONTINUOUS
10
0.949134
20
0.263425
11
0.945367
21
0.264174
0
LINE
8
BLACK
6
CONTINUOUS
10
0.945367
20
0.264174
11
0.942174
21
0.266308
0
LINE
8
BLACK
6
CONTINUOUS
10
0.942174
20
0.266308
11
0.940041
21
0.269501
0
LINE
8
BLACK
6
CONTINUOUS
10
0.940041
20
0.269501
11
0.939291
21
0.273268
0
LINE
8
BLACK
6
CONTINUOUS
10
0.939291
20
0.273268
11
0.939291
21
0.306732
0
LINE
8
BLACK
6
CONTINUOUS
10
0.939291
20
0.306732
11
0.940041
21
0.310499
0
LINE
8
BLACK
6
CONTINUOUS
10
0.940041
20
0.310499
11
0.942174
21
0.313692
0
LINE
8
BLACK
6
CONTINUOUS
10
0.942174
20
0.313692
11
0.945367
21
0.315826
0
LINE
8
BLACK
6
CONTINUOUS
10
0.945367
20
0.315826
11
0.949134
21
0.316575
0
LINE
8
BLACK
6
CONTINUOUS
10
0.949134
20
0.316575
11
0.984567
21
0.316575
0
LINE
8
BLACK
6
CONTINUOUS
10
0.984567
20
0.316575
11
0.988334
21
0.315826
0
LINE
8
BLACK
6
CONTINUOUS
10
1.09463
20
0.315826
11
1.09783
21
0.313692
0
LINE
8
BLACK
6
CONTINUOUS
10
1.09783
20
0.313692
11
1.09996
21
0.310499
0
LINE
8
BLACK
6
CONTINUOUS
10
1.09996
20
0.310499
11
1.10071
21
0.306732
0
LINE
8
BLACK
6
CONTINUOUS
10
1.10071
20
0.306732
11
1.10071
21
0.273268
0
LINE
8
BLACK
6
CONTINUOUS
10
1.10071
20
0.273268
11
1.09996
21
0.269501
0
LINE
8
BLACK
6
CONTINUOUS
10
1.09996
20
0.269501
11
1.09783
21
0.266308
0
LINE
8
BLACK
6
CONTINUOUS
10
1.09783
20
0.266308
11
1.09463
21
0.264174
0
LINE
8
BLACK
6
CONTINUOUS
10
1.09463
20
0.264174
11
1.09087
21
0.263425
0
LINE
8
BLACK
6
CONTINUOUS
10
1.09087
20
0.263425
11
1.05543
21
0.263425
0
LINE
8
BLACK
6
CONTINUOUS
10
1.05543
20
0.263425
11
1.05167
21
0.264174
0
LINE
8
BLACK
6
CONTINUOUS
10
1.05167
20
0.264174
11
1.04847
21
0.266308
0
LINE
8
BLACK
6
CONTINUOUS
10
1.04847
20
0.266308
11
1.04634
21
0.269501
0
LINE
8
BLACK
6
CONTINUOUS
10
1.04634
20
0.269501
11
1.04559
21
0.273268
0
LINE
8
BLACK
6
CONTINUOUS
10
1.04559
20
0.273268
11
1.04559
21
0.306732
0
LINE
8
BLACK
6
CONTINUOUS
10
1.04559
20
0.306732
11
1.04634
21
0.310499
0
LINE
8
BLACK
6
CONTINUOUS
10
1.04634
20
0.310499
11
1.04847
21
0.313692
0
LINE
8
BLACK
6
CONTINUOUS
10
1.04847
20
0.313692
11
1.05167
21
0.315826
0
LINE
8
BLACK
6
CONTINUOUS
10
1.05167
20
0.315826
11
1.05543
21
0.316575
0
LINE
8
BLACK
6
CONTINUOUS
10
1.05543
20
0.316575
11
1.09087
21
0.316575
0
LINE
8
BLACK
6
CONTINUOUS
10
1.09087
20
0.316575
11
1.09463
21
0.315826
0
LINE
8
BLACK
6
CONTINUOUS
10
0.538165
20
0.321676
11
0.540081
21
0.320396
0
LINE
8
BLACK
6
CONTINUOUS
10
0.540081
20
0.320396
11
0.541361
21
0.31848
0
LINE
8
BLACK
6
CONTINUOUS
10
0.541361
20
0.31848
11
0.541811
21
0.31622
0
LINE
8
BLACK
6
CONTINUOUS
10
0.541811
20
0.31622
11
0.541811
21
0.269961
0
LINE
8
BLACK
6
CONTINUOUS
10
0.541811
20
0.269961
11
0.541361
21
0.267701
0
LINE
8
BLACK
6
CONTINUOUS
10
0.541361
20
0.267701
11
0.540081
21
0.265785
0
LINE
8
BLACK
6
CONTINUOUS
10
0.540081
20
0.265785
11
0.538165
21
0.264505
0
LINE
8
BLACK
6
CONTINUOUS
10
0.538165
20
0.264505
11
0.535906
21
0.264055
0
LINE
8
BLACK
6
CONTINUOUS
10
0.535906
20
0.264055
11
0.524094
21
0.264055
0
LINE
8
BLACK
6
CONTINUOUS
10
0.524094
20
0.264055
11
0.521835
21
0.264505
0
LINE
8
BLACK
6
CONTINUOUS
10
0.521835
20
0.264505
11
0.519919
21
0.265785
0
LINE
8
BLACK
6
CONTINUOUS
10
0.519919
20
0.265785
11
0.518639
21
0.267701
0
LINE
8
BLACK
6
CONTINUOUS
10
0.518639
20
0.267701
11
0.518189
21
0.269961
0
LINE
8
BLACK
6
CONTINUOUS
10
0.518189
20
0.269961
11
0.518189
21
0.31622
0
LINE
8
BLACK
6
CONTINUOUS
10
0.518189
20
0.31622
11
0.518639
21
0.31848
0
LINE
8
BLACK
6
CONTINUOUS
10
0.518639
20
0.31848
11
0.519919
21
0.320396
0
LINE
8
BLACK
6
CONTINUOUS
10
0.519919
20
0.320396
11
0.521835
21
0.321676
0
LINE
8
BLACK
6
CONTINUOUS
10
0.521835
20
0.321676
11
0.524094
21
0.322126
0
LINE
8
BLACK
6
CONTINUOUS
10
0.524094
20
0.322126
11
0.535906
21
0.322126
0
LINE
8
BLACK
6
CONTINUOUS
10
0.535906
20
0.322126
11
0.538165
21
0.321676
0
LINE
8
BLACK
6
CONTINUOUS
10
2.42543
20
0.282047
11
2.35457
21
0.282047
0
LINE
8
BLACK
6
CONTINUOUS
10
2.35457
20
0.282047
11
2.35457
21
0.380472
0
LINE
8
BLACK
6
CONTINUOUS
10
2.35457
20
0.380472
11
2.42543
21
0.380472
0
LINE
8
BLACK
6
CONTINUOUS
10
2.42543
20
0.380472
11
2.42543
21
0.282047
0
LINE
8
BLACK
6
CONTINUOUS
10
1.37782
20
0.375511
11
1.38101
21
0.373377
0
LINE
8
BLACK
6
CONTINUOUS
10
1.38101
20
0.373377
11
1.38315
21
0.370184
0
LINE
8
BLACK
6
CONTINUOUS
10
1.38315
20
0.370184
11
1.3839
21
0.366417
0
LINE
8
BLACK
6
CONTINUOUS
10
1.3839
20
0.366417
11
1.3839
21
0.293583
0
LINE
8
BLACK
6
CONTINUOUS
10
1.3839
20
0.293583
11
1.38315
21
0.289816
0
LINE
8
BLACK
6
CONTINUOUS
10
1.38315
20
0.289816
11
1.38101
21
0.286623
0
LINE
8
BLACK
6
CONTINUOUS
10
1.38101
20
0.286623
11
1.37782
21
0.284489
0
LINE
8
BLACK
6
CONTINUOUS
10
1.37782
20
0.284489
11
1.37406
21
0.28374
0
LINE
8
BLACK
6
CONTINUOUS
10
1.37406
20
0.28374
11
1.31205
21
0.28374
0
LINE
8
BLACK
6
CONTINUOUS
10
1.31205
20
0.28374
11
1.30828
21
0.284489
0
LINE
8
BLACK
6
CONTINUOUS
10
1.30828
20
0.284489
11
1.30509
21
0.286623
0
LINE
8
BLACK
6
CONTINUOUS
10
1.30509
20
0.286623
11
1.30295
21
0.289816
0
LINE
8
BLACK
6
CONTINUOUS
10
1.30295
20
0.289816
11
1.3022
21
0.293583
0
LINE
8
BLACK
6
CONTINUOUS
10
1.3022
20
0.293583
11
1.3022
21
0.366417
0
LINE
8
BLACK
6
CONTINUOUS
10
1.3022
20
0.366417
11
1.30295
21
0.370184
0
LINE
8
BLACK
6
CONTINUOUS
10
1.30295
20
0.370184
11
1.30509
21
0.373377
0
LINE
8
BLACK
6
CONTINUOUS
10
1.30509
20
0.373377
11
1.30828
21
0.375511
0
LINE
8
BLACK
6
CONTINUOUS
10
1.30828
20
0.375511
11
1.31205
21
0.37626
0
LINE
8
BLACK
6
CONTINUOUS
10
1.31205
20
0.37626
11
1.37406
21
0.37626
0
LINE
8
BLACK
6
CONTINUOUS
10
1.37406
20
0.37626
11
1.37782
21
0.375511
0
LINE
8
BLACK
6
CONTINUOUS
10
1.57172
20
0.375511
11
1.57491
21
0.373377
0
LINE
8
BLACK
6
CONTINUOUS
10
1.57491
20
0.373377
11
1.57705
21
0.370184
0
LINE
8
BLACK
6
CONTINUOUS
10
1.57705
20
0.370184
11
1.5778
21
0.366417
0
LINE
8
BLACK
6
CONTINUOUS
10
1.5778
20
0.366417
11
1.5778
21
0.293583
0
LINE
8
BLACK
6
CONTINUOUS
10
1.5778
20
0.293583
11
1.57705
21
0.289816
0
LINE
8
BLACK
6
CONTINUOUS
10
1.57705
20
0.289816
11
1.57491
21
0.286623
0
LINE
8
BLACK
6
CONTINUOUS
10
1.57491
20
0.286623
11
1.57172
21
0.284489
0
LINE
8
BLACK
6
CONTINUOUS
10
1.57172
20
0.284489
11
1.56795
21
0.28374
0
LINE
8
BLACK
6
CONTINUOUS
10
1.56795
20
0.28374
11
1.50594
21
0.28374
0
LINE
8
BLACK
6
CONTINUOUS
10
1.50594
20
0.28374
11
1.50218
21
0.284489
0
LINE
8
BLACK
6
CONTINUOUS
10
1.50218
20
0.284489
11
1.49899
21
0.286623
0
LINE
8
BLACK
6
CONTINUOUS
10
1.49899
20
0.286623
11
1.49685
21
0.289816
0
LINE
8
BLACK
6
CONTINUOUS
10
1.49685
20
0.289816
11
1.4961
21
0.293583
0
LINE
8
BLACK
6
CONTINUOUS
10
1.4961
20
0.293583
11
1.4961
21
0.366417
0
LINE
8
BLACK
6
CONTINUOUS
10
1.4961
20
0.366417
11
1.49685
21
0.370184
0
LINE
8
BLACK
6
CONTINUOUS
10
1.49685
20
0.370184
11
1.49899
21
0.373377
0
LINE
8
BLACK
6
CONTINUOUS
10
1.49899
20
0.373377
11
1.50218
21
0.375511
0
LINE
8
BLACK
6
CONTINUOUS
10
1.50218
20
0.375511
11
1.50594
21
0.37626
0
LINE
8
BLACK
6
CONTINUOUS
10
1.50594
20
0.37626
11
1.56795
21
0.37626
0
LINE
8
BLACK
6
CONTINUOUS
10
1.56795
20
0.37626
11
1.57172
21
0.375511
0
LINE
8
BLACK
6
CONTINUOUS
10
0.500764
20
0.395495
11
0.50268
21
0.394215
0
LINE
8
BLACK
6
CONTINUOUS
10
0.50268
20
0.394215
11
0.50396
21
0.392299
0
LINE
8
BLACK
6
CONTINUOUS
10
0.50396
20
0.392299
11
0.504409
21
0.390039
0
LINE
8
BLACK
6
CONTINUOUS
10
0.504409
20
0.390039
11
0.504409
21
0.34378
0
LINE
8
BLACK
6
CONTINUOUS
10
0.504409
20
0.34378
11
0.50396
21
0.34152
0
LINE
8
BLACK
6
CONTINUOUS
10
0.50396
20
0.34152
11
0.50268
21
0.339604
0
LINE
8
BLACK
6
CONTINUOUS
10
0.50268
20
0.339604
11
0.500764
21
0.338324
0
LINE
8
BLACK
6
CONTINUOUS
10
0.500764
20
0.338324
11
0.498504
21
0.337874
0
LINE
8
BLACK
6
CONTINUOUS
10
0.498504
20
0.337874
11
0.486693
21
0.337874
0
LINE
8
BLACK
6
CONTINUOUS
10
0.486693
20
0.337874
11
0.484433
21
0.338324
0
LINE
8
BLACK
6
CONTINUOUS
10
0.484433
20
0.338324
11
0.482517
21
0.339604
0
LINE
8
BLACK
6
CONTINUOUS
10
0.482517
20
0.339604
11
0.481237
21
0.34152
0
LINE
8
BLACK
6
CONTINUOUS
10
0.481237
20
0.34152
11
0.480787
21
0.34378
0
LINE
8
BLACK
6
CONTINUOUS
10
0.480787
20
0.34378
11
0.480787
21
0.390039
0
LINE
8
BLACK
6
CONTINUOUS
10
0.480787
20
0.390039
11
0.481237
21
0.392299
0
LINE
8
BLACK
6
CONTINUOUS
10
0.481237
20
0.392299
11
0.482517
21
0.394215
0
LINE
8
BLACK
6
CONTINUOUS
10
0.482517
20
0.394215
11
0.484433
21
0.395495
0
LINE
8
BLACK
6
CONTINUOUS
10
0.484433
20
0.395495
11
0.486693
21
0.395945
0
LINE
8
BLACK
6
CONTINUOUS
10
0.486693
20
0.395945
11
0.498504
21
0.395945
0
LINE
8
BLACK
6
CONTINUOUS
10
0.498504
20
0.395945
11
0.500764
21
0.395495
0
LINE
8
BLACK
6
CONTINUOUS
10
0.575567
20
0.395495
11
0.577483
21
0.394215
0
LINE
8
BLACK
6
CONTINUOUS
10
0.577483
20
0.394215
11
0.578763
21
0.392299
0
LINE
8
BLACK
6
CONTINUOUS
10
0.578763
20
0.392299
11
0.579213
21
0.390039
0
LINE
8
BLACK
6
CONTINUOUS
10
0.579213
20
0.390039
11
0.579213
21
0.34378
0
LINE
8
BLACK
6
CONTINUOUS
10
0.579213
20
0.34378
11
0.578763
21
0.34152
0
LINE
8
BLACK
6
CONTINUOUS
10
0.578763
20
0.34152
11
0.577483
21
0.339604
0
LINE
8
BLACK
6
CONTINUOUS
10
0.577483
20
0.339604
11
0.575567
21
0.338324
0
LINE
8
BLACK
6
CONTINUOUS
10
0.575567
20
0.338324
11
0.573307
21
0.337874
0
LINE
8
BLACK
6
CONTINUOUS
10
0.573307
20
0.337874
11
0.561496
21
0.337874
0
LINE
8
BLACK
6
CONTINUOUS
10
0.561496
20
0.337874
11
0.559236
21
0.338324
0
LINE
8
BLACK
6
CONTINUOUS
10
0.559236
20
0.338324
11
0.55732
21
0.339604
0
LINE
8
BLACK
6
CONTINUOUS
10
0.55732
20
0.339604
11
0.55604
21
0.34152
0
LINE
8
BLACK
6
CONTINUOUS
10
0.55604
20
0.34152
11
0.555591
21
0.34378
0
LINE
8
BLACK
6
CONTINUOUS
10
0.555591
20
0.34378
11
0.555591
21
0.390039
0
LINE
8
BLACK
6
CONTINUOUS
10
0.555591
20
0.390039
11
0.55604
21
0.392299
0
LINE
8
BLACK
6
CONTINUOUS
10
0.55604
20
0.392299
11
0.55732
21
0.394215
0
LINE
8
BLACK
6
CONTINUOUS
10
0.55732
20
0.394215
11
0.559236
21
0.395495
0
LINE
8
BLACK
6
CONTINUOUS
10
0.559236
20
0.395495
11
0.561496
21
0.395945
0
LINE
8
BLACK
6
CONTINUOUS
10
0.561496
20
0.395945
11
0.573307
21
0.395945
0
LINE
8
BLACK
6
CONTINUOUS
10
0.573307
20
0.395945
11
0.575567
21
0.395495
0
LINE
8
BLACK
6
CONTINUOUS
10
0.996208
20
0.397794
11
0.999401
21
0.395661
0
LINE
8
BLACK
6
CONTINUOUS
10
0.999401
20
0.395661
11
1.00153
21
0.392467
0
LINE
8
BLACK
6
CONTINUOUS
10
1.00153
20
0.392467
11
1.00228
21
0.388701
0
LINE
8
BLACK
6
CONTINUOUS
10
1.00228
20
0.388701
11
1.00228
21
0.351299
0
LINE
8
BLACK
6
CONTINUOUS
10
1.00228
20
0.351299
11
1.00153
21
0.347533
0
LINE
8
BLACK
6
CONTINUOUS
10
1.00153
20
0.347533
11
0.999401
21
0.344339
0
LINE
8
BLACK
6
CONTINUOUS
10
0.999401
20
0.344339
11
0.996208
21
0.342206
0
LINE
8
BLACK
6
CONTINUOUS
10
0.996208
20
0.342206
11
0.992441
21
0.341457
0
LINE
8
BLACK
6
CONTINUOUS
10
0.992441
20
0.341457
11
0.972756
21
0.341457
0
LINE
8
BLACK
6
CONTINUOUS
10
0.972756
20
0.341457
11
0.968989
21
0.342206
0
LINE
8
BLACK
6
CONTINUOUS
10
0.968989
20
0.342206
11
0.965796
21
0.344339
0
LINE
8
BLACK
6
CONTINUOUS
10
0.965796
20
0.344339
11
0.963663
21
0.347533
0
LINE
8
BLACK
6
CONTINUOUS
10
0.963663
20
0.347533
11
0.962913
21
0.351299
0
LINE
8
BLACK
6
CONTINUOUS
10
0.962913
20
0.351299
11
0.962913
21
0.388701
0
LINE
8
BLACK
6
CONTINUOUS
10
0.962913
20
0.388701
11
0.963663
21
0.392467
0
LINE
8
BLACK
6
CONTINUOUS
10
0.963663
20
0.392467
11
0.965796
21
0.395661
0
LINE
8
BLACK
6
CONTINUOUS
10
0.965796
20
0.395661
11
0.968989
21
0.397794
0
LINE
8
BLACK
6
CONTINUOUS
10
0.968989
20
0.397794
11
0.972756
21
0.398543
0
LINE
8
BLACK
6
CONTINUOUS
10
0.972756
20
0.398543
11
0.992441
21
0.398543
0
LINE
8
BLACK
6
CONTINUOUS
10
0.992441
20
0.398543
11
0.996208
21
0.397794
0
LINE
8
BLACK
6
CONTINUOUS
10
1.07101
20
0.397794
11
1.0742
21
0.395661
0
LINE
8
BLACK
6
CONTINUOUS
10
1.0742
20
0.395661
11
1.07634
21
0.392467
0
LINE
8
BLACK
6
CONTINUOUS
10
1.07634
20
0.392467
11
1.07709
21
0.388701
0
LINE
8
BLACK
6
CONTINUOUS
10
1.07709
20
0.388701
11
1.07709
21
0.351299
0
LINE
8
BLACK
6
CONTINUOUS
10
1.07709
20
0.351299
11
1.07634
21
0.347533
0
LINE
8
BLACK
6
CONTINUOUS
10
1.07634
20
0.347533
11
1.0742
21
0.344339
0
LINE
8
BLACK
6
CONTINUOUS
10
1.0742
20
0.344339
11
1.07101
21
0.342206
0
LINE
8
BLACK
6
CONTINUOUS
10
1.07101
20
0.342206
11
1.06724
21
0.341457
0
LINE
8
BLACK
6
CONTINUOUS
10
1.06724
20
0.341457
11
1.04756
21
0.341457
0
LINE
8
BLACK
6
CONTINUOUS
10
1.04756
20
0.341457
11
1.04379
21
0.342206
0
LINE
8
BLACK
6
CONTINUOUS
10
1.04379
20
0.342206
11
1.0406
21
0.344339
0
LINE
8
BLACK
6
CONTINUOUS
10
1.0406
20
0.344339
11
1.03847
21
0.347533
0
LINE
8
BLACK
6
CONTINUOUS
10
1.03847
20
0.347533
11
1.03772
21
0.351299
0
LINE
8
BLACK
6
CONTINUOUS
10
1.03772
20
0.351299
11
1.03772
21
0.388701
0
LINE
8
BLACK
6
CONTINUOUS
10
1.03772
20
0.388701
11
1.03847
21
0.392467
0
LINE
8
BLACK
6
CONTINUOUS
10
1.03847
20
0.392467
11
1.0406
21
0.395661
0
LINE
8
BLACK
6
CONTINUOUS
10
1.0406
20
0.395661
11
1.04379
21
0.397794
0
LINE
8
BLACK
6
CONTINUOUS
10
1.04379
20
0.397794
11
1.04756
21
0.398543
0
LINE
8
BLACK
6
CONTINUOUS
10
1.04756
20
0.398543
11
1.06724
21
0.398543
0
LINE
8
BLACK
6
CONTINUOUS
10
1.06724
20
0.398543
11
1.07101
21
0.397794
0
LINE
8
BLACK
6
CONTINUOUS
10
0.310499
20
0.41366
11
0.313692
21
0.411527
0
LINE
8
BLACK
6
CONTINUOUS
10
0.313692
20
0.411527
11
0.315826
21
0.408334
0
LINE
8
BLACK
6
CONTINUOUS
10
0.315826
20
0.408334
11
0.316575
21
0.404567
0
LINE
8
BLACK
6
CONTINUOUS
10
0.316575
20
0.404567
11
0.316575
21
0.369134
0
LINE
8
BLACK
6
CONTINUOUS
10
0.316575
20
0.369134
11
0.315826
21
0.365367
0
LINE
8
BLACK
6
CONTINUOUS
10
0.315826
20
0.365367
11
0.313692
21
0.362174
0
LINE
8
BLACK
6
CONTINUOUS
10
0.313692
20
0.362174
11
0.310499
21
0.360041
0
LINE
8
BLACK
6
CONTINUOUS
10
0.310499
20
0.360041
11
0.306732
21
0.359291
0
LINE
8
BLACK
6
CONTINUOUS
10
0.306732
20
0.359291
11
0.273268
21
0.359291
0
LINE
8
BLACK
6
CONTINUOUS
10
0.273268
20
0.359291
11
0.269501
21
0.360041
0
LINE
8
BLACK
6
CONTINUOUS
10
0.269501
20
0.360041
11
0.266308
21
0.362174
0
LINE
8
BLACK
6
CONTINUOUS
10
0.266308
20
0.362174
11
0.264174
21
0.365367
0
LINE
8
BLACK
6
CONTINUOUS
10
0.264174
20
0.365367
11
0.263425
21
0.369134
0
LINE
8
BLACK
6
CONTINUOUS
10
0.263425
20
0.369134
11
0.263425
21
0.404567
0
LINE
8
BLACK
6
CONTINUOUS
10
0.263425
20
0.404567
11
0.264174
21
0.408334
0
LINE
8
BLACK
6
CONTINUOUS
10
0.264174
20
0.408334
11
0.266308
21
0.411527
0
LINE
8
BLACK
6
CONTINUOUS
10
0.266308
20
0.411527
11
0.269501
21
0.41366
0
LINE
8
BLACK
6
CONTINUOUS
10
0.269501
20
0.41366
11
0.273268
21
0.414409
0
LINE
8
BLACK
6
CONTINUOUS
10
0.273268
20
0.414409
11
0.306732
21
0.414409
0
LINE
8
BLACK
6
CONTINUOUS
10
0.306732
20
0.414409
11
0.310499
21
0.41366
0
LINE
8
BLACK
6
CONTINUOUS
10
0.12
20
0.39
11
0.06
21
0.39
0
LINE
8
BLACK
6
CONTINUOUS
10
0.06
20
0.39
11
0.06
21
0.45
0
LINE
8
BLACK
6
CONTINUOUS
10
0.06
20
0.45
11
0.12
21
0.45
0
LINE
8
BLACK
6
CONTINUOUS
10
0.12
20
0.45
11
0.12
21
0.39
0
LINE
8
BLACK
6
CONTINUOUS
10
0.22
20
0.39
11
0.16
21
0.39
0
LINE
8
BLACK
6
CONTINUOUS
10
0.16
20
0.39
11
0.16
21
0.45
0
LINE
8
BLACK
6
CONTINUOUS
10
0.16
20
0.45
11
0.22
21
0.45
0
LINE
8
BLACK
6
CONTINUOUS
10
0.22
20
0.45
11
0.22
21
0.39
0
LINE
8
BLACK
6
CONTINUOUS
10
0.393701
20
0.390866
11
0.354331
21
0.390866
0
LINE
8
BLACK
6
CONTINUOUS
10
0.354331
20
0.390866
11
0.354331
21
0.540472
0
LINE
8
BLACK
6
CONTINUOUS
10
0.354331
20
0.540472
11
0.393701
21
0.540472
0
LINE
8
BLACK
6
CONTINUOUS
10
0.393701
20
0.540472
11
0.393701
21
0.390866
0
LINE
8
BLACK
6
CONTINUOUS
10
1.64567
20
0.390866
11
1.6063
21
0.390866
0
LINE
8
BLACK
6
CONTINUOUS
10
1.6063
20
0.390866
11
1.6063
21
0.540472
0
LINE
8
BLACK
6
CONTINUOUS
10
1.6063
20
0.540472
11
1.64567
21
0.540472
0
LINE
8
BLACK
6
CONTINUOUS
10
1.64567
20
0.540472
11
1.64567
21
0.390866
0
LINE
8
BLACK
6
CONTINUOUS
10
1.46621
20
0.477794
11
1.4694
21
0.475661
0
LINE
8
BLACK
6
CONTINUOUS
10
1.4694
20
0.475661
11
1.47153
21
0.472467
0
LINE
8
BLACK
6
CONTINUOUS
10
1.47153
20
0.472467
11
1.47228
21
0.468701
0
LINE
8
BLACK
6
CONTINUOUS
10
1.47228
20
0.468701
11
1.47228
21
0.431299
0
LINE
8
BLACK
6
CONTINUOUS
10
1.47228
20
0.431299
11
1.47153
21
0.427533
0
LINE
8
BLACK
6
CONTINUOUS
10
1.47153
20
0.427533
11
1.4694
21
0.424339
0
LINE
8
BLACK
6
CONTINUOUS
10
1.4694
20
0.424339
11
1.46621
21
0.422206
0
LINE
8
BLACK
6
CONTINUOUS
10
1.46621
20
0.422206
11
1.46244
21
0.421457
0
LINE
8
BLACK
6
CONTINUOUS
10
1.46244
20
0.421457
11
1.44276
21
0.421457
0
LINE
8
BLACK
6
CONTINUOUS
10
1.44276
20
0.421457
11
1.43899
21
0.422206
0
LINE
8
BLACK
6
CONTINUOUS
10
1.43899
20
0.422206
11
1.4358
21
0.424339
0
LINE
8
BLACK
6
CONTINUOUS
10
1.4358
20
0.424339
11
1.43366
21
0.427533
0
LINE
8
BLACK
6
CONTINUOUS
10
1.43366
20
0.427533
11
1.43291
21
0.431299
0
LINE
8
BLACK
6
CONTINUOUS
10
1.43291
20
0.431299
11
1.43291
21
0.468701
0
LINE
8
BLACK
6
CONTINUOUS
10
1.43291
20
0.468701
11
1.43366
21
0.472467
0
LINE
8
BLACK
6
CONTINUOUS
10
1.43366
20
0.472467
11
1.4358
21
0.475661
0
LINE
8
BLACK
6
CONTINUOUS
10
1.4358
20
0.475661
11
1.43899
21
0.477794
0
LINE
8
BLACK
6
CONTINUOUS
10
1.43899
20
0.477794
11
1.44276
21
0.478543
0
LINE
8
BLACK
6
CONTINUOUS
10
1.44276
20
0.478543
11
1.46244
21
0.478543
0
LINE
8
BLACK
6
CONTINUOUS
10
1.46244
20
0.478543
11
1.46621
21
0.477794
0
LINE
8
BLACK
6
CONTINUOUS
10
1.54101
20
0.477794
11
1.5442
21
0.475661
0
LINE
8
BLACK
6
CONTINUOUS
10
1.5442
20
0.475661
11
1.54634
21
0.472467
0
LINE
8
BLACK
6
CONTINUOUS
10
1.54634
20
0.472467
11
1.54709
21
0.468701
0
LINE
8
BLACK
6
CONTINUOUS
10
1.54709
20
0.468701
11
1.54709
21
0.431299
0
LINE
8
BLACK
6
CONTINUOUS
10
1.54709
20
0.431299
11
1.54634
21
0.427533
0
LINE
8
BLACK
6
CONTINUOUS
10
1.54634
20
0.427533
11
1.5442
21
0.424339
0
LINE
8
BLACK
6
CONTINUOUS
10
1.5442
20
0.424339
11
1.54101
21
0.422206
0
LINE
8
BLACK
6
CONTINUOUS
10
1.54101
20
0.422206
11
1.53724
21
0.421457
0
LINE
8
BLACK
6
CONTINUOUS
10
1.53724
20
0.421457
11
1.51756
21
0.421457
0
LINE
8
BLACK
6
CONTINUOUS
10
1.51756
20
0.421457
11
1.51379
21
0.422206
0
LINE
8
BLACK
6
CONTINUOUS
10
1.51379
20
0.422206
11
1.5106
21
0.424339
0
LINE
8
BLACK
6
CONTINUOUS
10
1.5106
20
0.424339
11
1.50847
21
0.427533
0
LINE
8
BLACK
6
CONTINUOUS
10
1.50847
20
0.427533
11
1.50772
21
0.431299
0
LINE
8
BLACK
6
CONTINUOUS
10
1.50772
20
0.431299
11
1.50772
21
0.468701
0
LINE
8
BLACK
6
CONTINUOUS
10
1.50772
20
0.468701
11
1.50847
21
0.472467
0
LINE
8
BLACK
6
CONTINUOUS
10
1.50847
20
0.472467
11
1.5106
21
0.475661
0
LINE
8
BLACK
6
CONTINUOUS
10
1.5106
20
0.475661
11
1.51379
21
0.477794
0
LINE
8
BLACK
6
CONTINUOUS
10
1.51379
20
0.477794
11
1.51756
21
0.478543
0
LINE
8
BLACK
6
CONTINUOUS
10
1.51756
20
0.478543
11
1.53724
21
0.478543
0
LINE
8
BLACK
6
CONTINUOUS
10
1.53724
20
0.478543
11
1.54101
21
0.477794
0
LINE
8
BLACK
6
CONTINUOUS
10
0.968176
20
0.47681
11
0.971369
21
0.474676
0
LINE
8
BLACK
6
CONTINUOUS
10
0.971369
20
0.474676
11
0.973503
21
0.471483
0
LINE
8
BLACK
6
CONTINUOUS
10
0.973503
20
0.471483
11
0.974252
21
0.467717
0
LINE
8
BLACK
6
CONTINUOUS
10
0.974252
20
0.467717
11
0.974252
21
0.432283
0
LINE
8
BLACK
6
CONTINUOUS
10
0.974252
20
0.432283
11
0.973503
21
0.428517
0
LINE
8
BLACK
6
CONTINUOUS
10
0.973503
20
0.428517
11
0.971369
21
0.425324
0
LINE
8
BLACK
6
CONTINUOUS
10
0.971369
20
0.425324
11
0.968176
21
0.42319
0
LINE
8
BLACK
6
CONTINUOUS
10
0.968176
20
0.42319
11
0.964409
21
0.422441
0
LINE
8
BLACK
6
CONTINUOUS
10
0.964409
20
0.422441
11
0.94374
21
0.422441
0
LINE
8
BLACK
6
CONTINUOUS
10
0.94374
20
0.422441
11
0.939974
21
0.42319
0
LINE
8
BLACK
6
CONTINUOUS
10
0.939974
20
0.42319
11
0.93678
21
0.425324
0
LINE
8
BLACK
6
CONTINUOUS
10
0.93678
20
0.425324
11
0.934647
21
0.428517
0
LINE
8
BLACK
6
CONTINUOUS
10
0.934647
20
0.428517
11
0.933898
21
0.432283
0
LINE
8
BLACK
6
CONTINUOUS
10
0.933898
20
0.432283
11
0.933898
21
0.467717
0
LINE
8
BLACK
6
CONTINUOUS
10
0.933898
20
0.467717
11
0.934647
21
0.471483
0
LINE
8
BLACK
6
CONTINUOUS
10
0.934647
20
0.471483
11
0.93678
21
0.474676
0
LINE
8
BLACK
6
CONTINUOUS
10
0.93678
20
0.474676
11
0.939974
21
0.47681
0
LINE
8
BLACK
6
CONTINUOUS
10
0.939974
20
0.47681
11
0.94374
21
0.477559
0
LINE
8
BLACK
6
CONTINUOUS
10
0.94374
20
0.477559
11
0.964409
21
0.477559
0
LINE
8
BLACK
6
CONTINUOUS
10
0.964409
20
0.477559
11
0.968176
21
0.47681
0
LINE
8
BLACK
6
CONTINUOUS
10
1.04003
20
0.47681
11
1.04322
21
0.474676
0
LINE
8
BLACK
6
CONTINUOUS
10
1.04322
20
0.474676
11
1.04535
21
0.471483
0
LINE
8
BLACK
6
CONTINUOUS
10
1.04535
20
0.471483
11
1.0461
21
0.467717
0
LINE
8
BLACK
6
CONTINUOUS
10
1.0461
20
0.467717
11
1.0461
21
0.432283
0
LINE
8
BLACK
6
CONTINUOUS
10
1.0461
20
0.432283
11
1.04535
21
0.428517
0
LINE
8
BLACK
6
CONTINUOUS
10
1.04535
20
0.428517
11
1.04322
21
0.425324
0
LINE
8
BLACK
6
CONTINUOUS
10
1.04322
20
0.425324
11
1.04003
21
0.42319
0
LINE
8
BLACK
6
CONTINUOUS
10
1.04003
20
0.42319
11
1.03626
21
0.422441
0
LINE
8
BLACK
6
CONTINUOUS
10
1.03626
20
0.422441
11
1.01559
21
0.422441
0
LINE
8
BLACK
6
CONTINUOUS
10
1.01559
20
0.422441
11
1.01182
21
0.42319
0
LINE
8
BLACK
6
CONTINUOUS
10
1.01182
20
0.42319
11
1.00863
21
0.425324
0
LINE
8
BLACK
6
CONTINUOUS
10
1.00863
20
0.425324
11
1.0065
21
0.428517
0
LINE
8
BLACK
6
CONTINUOUS
10
1.0065
20
0.428517
11
1.00575
21
0.432283
0
LINE
8
BLACK
6
CONTINUOUS
10
1.00575
20
0.432283
11
1.00575
21
0.467717
0
LINE
8
BLACK
6
CONTINUOUS
10
1.00575
20
0.467717
11
1.0065
21
0.471483
0
LINE
8
BLACK
6
CONTINUOUS
10
1.0065
20
0.471483
11
1.00863
21
0.474676
0
LINE
8
BLACK
6
CONTINUOUS
10
1.00863
20
0.474676
11
1.01182
21
0.47681
0
LINE
8
BLACK
6
CONTINUOUS
10
1.01182
20
0.47681
11
1.01559
21
0.477559
0
LINE
8
BLACK
6
CONTINUOUS
10
1.01559
20
0.477559
11
1.03626
21
0.477559
0
LINE
8
BLACK
6
CONTINUOUS
10
1.03626
20
0.477559
11
1.04003
21
0.47681
0
LINE
8
BLACK
6
CONTINUOUS
10
1.85
20
0.43
11
1.79
21
0.43
0
LINE
8
BLACK
6
CONTINUOUS
10
1.79
20
0.43
11
1.79
21
0.49
0
LINE
8
BLACK
6
CONTINUOUS
10
1.79
20
0.49
11
1.85
21
0.49
0
LINE
8
BLACK
6
CONTINUOUS
10
1.85
20
0.49
11
1.85
21
0.43
0
LINE
8
BLACK
6
CONTINUOUS
10
1.95
20
0.43
11
1.89
21
0.43
0
LINE
8
BLACK
6
CONTINUOUS
10
1.89
20
0.43
11
1.89
21
0.49
0
LINE
8
BLACK
6
CONTINUOUS
10
1.89
20
0.49
11
1.95
21
0.49
0
LINE
8
BLACK
6
CONTINUOUS
10
1.95
20
0.49
11
1.95
21
0.43
0
LINE
8
BLACK
6
CONTINUOUS
10
2.42543
20
0.439528
11
2.35457
21
0.439528
0
LINE
8
BLACK
6
CONTINUOUS
10
2.35457
20
0.439528
11
2.35457
21
0.537953
0
LINE
8
BLACK
6
CONTINUOUS
10
2.35457
20
0.537953
11
2.42543
21
0.537953
0
LINE
8
BLACK
6
CONTINUOUS
10
2.42543
20
0.537953
11
2.42543
21
0.439528
0
LINE
8
BLACK
6
CONTINUOUS
10
1.14539
20
0.443307
11
1.1198
21
0.443307
0
LINE
8
BLACK
6
CONTINUOUS
10
1.1198
20
0.443307
11
1.1198
21
0.522047
0
LINE
8
BLACK
6
CONTINUOUS
10
1.1198
20
0.522047
11
1.14539
21
0.522047
0
LINE
8
BLACK
6
CONTINUOUS
10
1.14539
20
0.522047
11
1.14539
21
0.443307
0
LINE
8
BLACK
6
CONTINUOUS
10
1.1828
20
0.443307
11
1.1572
21
0.443307
0
LINE
8
BLACK
6
CONTINUOUS
10
1.1572
20
0.443307
11
1.1572
21
0.522047
0
LINE
8
BLACK
6
CONTINUOUS
10
1.1572
20
0.522047
11
1.1828
21
0.522047
0
LINE
8
BLACK
6
CONTINUOUS
10
1.1828
20
0.522047
11
1.1828
21
0.443307
0
LINE
8
BLACK
6
CONTINUOUS
10
1.2202
20
0.443307
11
1.19461
21
0.443307
0
LINE
8
BLACK
6
CONTINUOUS
10
1.19461
20
0.443307
11
1.19461
21
0.522047
0
LINE
8
BLACK
6
CONTINUOUS
10
1.19461
20
0.522047
11
1.2202
21
0.522047
0
LINE
8
BLACK
6
CONTINUOUS
10
1.2202
20
0.522047
11
1.2202
21
0.443307
0
LINE
8
BLACK
6
CONTINUOUS
10
0.471483
20
0.503503
11
0.474676
21
0.501369
0
LINE
8
BLACK
6
CONTINUOUS
10
0.474676
20
0.501369
11
0.47681
21
0.498176
0
LINE
8
BLACK
6
CONTINUOUS
10
0.47681
20
0.498176
11
0.477559
21
0.494409
0
LINE
8
BLACK
6
CONTINUOUS
10
0.477559
20
0.494409
11
0.477559
21
0.47374
0
LINE
8
BLACK
6
CONTINUOUS
10
0.477559
20
0.47374
11
0.47681
21
0.469974
0
LINE
8
BLACK
6
CONTINUOUS
10
0.47681
20
0.469974
11
0.474676
21
0.46678
0
LINE
8
BLACK
6
CONTINUOUS
10
0.474676
20
0.46678
11
0.471483
21
0.464647
0
LINE
8
BLACK
6
CONTINUOUS
10
0.471483
20
0.464647
11
0.467717
21
0.463898
0
LINE
8
BLACK
6
CONTINUOUS
10
0.467717
20
0.463898
11
0.432283
21
0.463898
0
LINE
8
BLACK
6
CONTINUOUS
10
0.432283
20
0.463898
11
0.428517
21
0.464647
0
LINE
8
BLACK
6
CONTINUOUS
10
0.428517
20
0.464647
11
0.425324
21
0.46678
0
LINE
8
BLACK
6
CONTINUOUS
10
0.425324
20
0.46678
11
0.42319
21
0.469974
0
LINE
8
BLACK
6
CONTINUOUS
10
0.42319
20
0.469974
11
0.422441
21
0.47374
0
LINE
8
BLACK
6
CONTINUOUS
10
0.422441
20
0.47374
11
0.422441
21
0.494409
0
LINE
8
BLACK
6
CONTINUOUS
10
0.422441
20
0.494409
11
0.42319
21
0.498176
0
LINE
8
BLACK
6
CONTINUOUS
10
0.42319
20
0.498176
11
0.425324
21
0.501369
0
LINE
8
BLACK
6
CONTINUOUS
10
0.425324
20
0.501369
11
0.428517
21
0.503503
0
LINE
8
BLACK
6
CONTINUOUS
10
0.428517
20
0.503503
11
0.432283
21
0.504252
0
LINE
8
BLACK
6
CONTINUOUS
10
0.432283
20
0.504252
11
0.467717
21
0.504252
0
LINE
8
BLACK
6
CONTINUOUS
10
0.467717
20
0.504252
11
0.471483
21
0.503503
0
LINE
8
BLACK
6
CONTINUOUS
10
0.310499
20
0.519959
11
0.313692
21
0.517826
0
LINE
8
BLACK
6
CONTINUOUS
10
0.313692
20
0.517826
11
0.315826
21
0.514633
0
LINE
8
BLACK
6
CONTINUOUS
10
0.315826
20
0.514633
11
0.316575
21
0.510866
0
LINE
8
BLACK
6
CONTINUOUS
10
0.316575
20
0.510866
11
0.316575
21
0.475433
0
LINE
8
BLACK
6
CONTINUOUS
10
0.316575
20
0.475433
11
0.315826
21
0.471666
0
LINE
8
BLACK
6
CONTINUOUS
10
0.315826
20
0.471666
11
0.313692
21
0.468473
0
LINE
8
BLACK
6
CONTINUOUS
10
0.313692
20
0.468473
11
0.310499
21
0.46634
0
LINE
8
BLACK
6
CONTINUOUS
10
0.310499
20
0.46634
11
0.306732
21
0.465591
0
LINE
8
BLACK
6
CONTINUOUS
10
0.306732
20
0.465591
11
0.273268
21
0.465591
0
LINE
8
BLACK
6
CONTINUOUS
10
0.273268
20
0.465591
11
0.269501
21
0.46634
0
LINE
8
BLACK
6
CONTINUOUS
10
0.269501
20
0.46634
11
0.266308
21
0.468473
0
LINE
8
BLACK
6
CONTINUOUS
10
0.266308
20
0.468473
11
0.264174
21
0.471666
0
LINE
8
BLACK
6
CONTINUOUS
10
0.264174
20
0.471666
11
0.263425
21
0.475433
0
LINE
8
BLACK
6
CONTINUOUS
10
0.263425
20
0.475433
11
0.263425
21
0.510866
0
LINE
8
BLACK
6
CONTINUOUS
10
0.263425
20
0.510866
11
0.264174
21
0.514633
0
LINE
8
BLACK
6
CONTINUOUS
10
0.264174
20
0.514633
11
0.266308
21
0.517826
0
LINE
8
BLACK
6
CONTINUOUS
10
0.266308
20
0.517826
11
0.269501
21
0.519959
0
LINE
8
BLACK
6
CONTINUOUS
10
0.269501
20
0.519959
11
0.273268
21
0.520709
0
LINE
8
BLACK
6
CONTINUOUS
10
0.273268
20
0.520709
11
0.306732
21
0.520709
0
LINE
8
BLACK
6
CONTINUOUS
10
0.306732
20
0.520709
11
0.310499
21
0.519959
0
LINE
8
BLACK
6
CONTINUOUS
10
0.607559
20
0.489803
11
0.546142
21
0.489803
0
LINE
8
BLACK
6
CONTINUOUS
10
0.546142
20
0.489803
11
0.546142
21
0.515394
0
LINE
8
BLACK
6
CONTINUOUS
10
0.546142
20
0.515394
11
0.607559
21
0.515394
0
LINE
8
BLACK
6
CONTINUOUS
10
0.607559
20
0.515394
11
0.607559
21
0.489803
0
LINE
8
BLACK
6
CONTINUOUS
10
0.713858
20
0.489803
11
0.652441
21
0.489803
0
LINE
8
BLACK
6
CONTINUOUS
10
0.652441
20
0.489803
11
0.652441
21
0.515394
0
LINE
8
BLACK
6
CONTINUOUS
10
0.652441
20
0.515394
11
0.713858
21
0.515394
0
LINE
8
BLACK
6
CONTINUOUS
10
0.713858
20
0.515394
11
0.713858
21
0.489803
0
LINE
8
BLACK
6
CONTINUOUS
10
0.12
20
0.49
11
0.06
21
0.49
0
LINE
8
BLACK
6
CONTINUOUS
10
0.06
20
0.49
11
0.06
21
0.55
0
LINE
8
BLACK
6
CONTINUOUS
10
0.06
20
0.55
11
0.12
21
0.55
0
LINE
8
BLACK
6
CONTINUOUS
10
0.12
20
0.55
11
0.12
21
0.49
0
LINE
8
BLACK
6
CONTINUOUS
10
0.22
20
0.49
11
0.16
21
0.49
0
LINE
8
BLACK
6
CONTINUOUS
10
0.16
20
0.49
11
0.16
21
0.55
0
LINE
8
BLACK
6
CONTINUOUS
10
0.16
20
0.55
11
0.22
21
0.55
0
LINE
8
BLACK
6
CONTINUOUS
10
0.22
20
0.55
11
0.22
21
0.49
0
LINE
8
BLACK
6
CONTINUOUS
10
0.801483
20
0.533503
11
0.804676
21
0.531369
0
LINE
8
BLACK
6
CONTINUOUS
10
0.804676
20
0.531369
11
0.80681
21
0.528176
0
LINE
8
BLACK
6
CONTINUOUS
10
0.80681
20
0.528176
11
0.807559
21
0.524409
0
LINE
8
BLACK
6
CONTINUOUS
10
0.807559
20
0.524409
11
0.807559
21
0.50374
0
LINE
8
BLACK
6
CONTINUOUS
10
0.807559
20
0.50374
11
0.80681
21
0.499974
0
LINE
8
BLACK
6
CONTINUOUS
10
0.80681
20
0.499974
11
0.804676
21
0.49678
0
LINE
8
BLACK
6
CONTINUOUS
10
0.804676
20
0.49678
11
0.801483
21
0.494647
0
LINE
8
BLACK
6
CONTINUOUS
10
0.801483
20
0.494647
11
0.797717
21
0.493898
0
LINE
8
BLACK
6
CONTINUOUS
10
0.797717
20
0.493898
11
0.762283
21
0.493898
0
LINE
8
BLACK
6
CONTINUOUS
10
0.762283
20
0.493898
11
0.758517
21
0.494647
0
LINE
8
BLACK
6
CONTINUOUS
10
0.758517
20
0.494647
11
0.755324
21
0.49678
0
LINE
8
BLACK
6
CONTINUOUS
10
0.755324
20
0.49678
11
0.75319
21
0.499974
0
LINE
8
BLACK
6
CONTINUOUS
10
0.75319
20
0.499974
11
0.752441
21
0.50374
0
LINE
8
BLACK
6
CONTINUOUS
10
0.752441
20
0.50374
11
0.752441
21
0.524409
0
LINE
8
BLACK
6
CONTINUOUS
10
0.752441
20
0.524409
11
0.75319
21
0.528176
0
LINE
8
BLACK
6
CONTINUOUS
10
0.75319
20
0.528176
11
0.755324
21
0.531369
0
LINE
8
BLACK
6
CONTINUOUS
10
0.755324
20
0.531369
11
0.758517
21
0.533503
0
LINE
8
BLACK
6
CONTINUOUS
10
0.758517
20
0.533503
11
0.762283
21
0.534252
0
LINE
8
BLACK
6
CONTINUOUS
10
0.762283
20
0.534252
11
0.797717
21
0.534252
0
LINE
8
BLACK
6
CONTINUOUS
10
0.797717
20
0.534252
11
0.801483
21
0.533503
0
LINE
8
BLACK
6
CONTINUOUS
10
0.862133
20
0.557794
11
0.865326
21
0.555661
0
LINE
8
BLACK
6
CONTINUOUS
10
0.865326
20
0.555661
11
0.867459
21
0.552467
0
LINE
8
BLACK
6
CONTINUOUS
10
0.867459
20
0.552467
11
0.868209
21
0.548701
0
LINE
8
BLACK
6
CONTINUOUS
10
0.868209
20
0.548701
11
0.868209
21
0.511299
0
LINE
8
BLACK
6
CONTINUOUS
10
0.868209
20
0.511299
11
0.867459
21
0.507533
0
LINE
8
BLACK
6
CONTINUOUS
10
0.867459
20
0.507533
11
0.865326
21
0.504339
0
LINE
8
BLACK
6
CONTINUOUS
10
0.865326
20
0.504339
11
0.862133
21
0.502206
0
LINE
8
BLACK
6
CONTINUOUS
10
0.862133
20
0.502206
11
0.858366
21
0.501457
0
LINE
8
BLACK
6
CONTINUOUS
10
0.858366
20
0.501457
11
0.838681
21
0.501457
0
LINE
8
BLACK
6
CONTINUOUS
10
0.838681
20
0.501457
11
0.834915
21
0.502206
0
LINE
8
BLACK
6
CONTINUOUS
10
0.834915
20
0.502206
11
0.831721
21
0.504339
0
LINE
8
BLACK
6
CONTINUOUS
10
0.831721
20
0.504339
11
0.829588
21
0.507533
0
LINE
8
BLACK
6
CONTINUOUS
10
0.829588
20
0.507533
11
0.828839
21
0.511299
0
LINE
8
BLACK
6
CONTINUOUS
10
0.828839
20
0.511299
11
0.828839
21
0.548701
0
LINE
8
BLACK
6
CONTINUOUS
10
0.828839
20
0.548701
11
0.829588
21
0.552467
0
LINE
8
BLACK
6
CONTINUOUS
10
0.829588
20
0.552467
11
0.831721
21
0.555661
0
LINE
8
BLACK
6
CONTINUOUS
10
0.831721
20
0.555661
11
0.834915
21
0.557794
0
LINE
8
BLACK
6
CONTINUOUS
10
0.834915
20
0.557794
11
0.838681
21
0.558543
0
LINE
8
BLACK
6
CONTINUOUS
10
0.838681
20
0.558543
11
0.858366
21
0.558543
0
LINE
8
BLACK
6
CONTINUOUS
10
0.858366
20
0.558543
11
0.862133
21
0.557794
0
LINE
8
BLACK
6
CONTINUOUS
10
0.936936
20
0.557794
11
0.940129
21
0.555661
0
LINE
8
BLACK
6
CONTINUOUS
10
0.940129
20
0.555661
11
0.942263
21
0.552467
0
LINE
8
BLACK
6
CONTINUOUS
10
0.942263
20
0.552467
11
0.943012
21
0.548701
0
LINE
8
BLACK
6
CONTINUOUS
10
0.943012
20
0.548701
11
0.943012
21
0.511299
0
LINE
8
BLACK
6
CONTINUOUS
10
0.943012
20
0.511299
11
0.942263
21
0.507533
0
LINE
8
BLACK
6
CONTINUOUS
10
0.942263
20
0.507533
11
0.940129
21
0.504339
0
LINE
8
BLACK
6
CONTINUOUS
10
0.940129
20
0.504339
11
0.936936
21
0.502206
0
LINE
8
BLACK
6
CONTINUOUS
10
0.936936
20
0.502206
11
0.933169
21
0.501457
0
LINE
8
BLACK
6
CONTINUOUS
10
0.933169
20
0.501457
11
0.913484
21
0.501457
0
LINE
8
BLACK
6
CONTINUOUS
10
0.913484
20
0.501457
11
0.909718
21
0.502206
0
LINE
8
BLACK
6
CONTINUOUS
10
0.909718
20
0.502206
11
0.906525
21
0.504339
0
LINE
8
BLACK
6
CONTINUOUS
10
0.906525
20
0.504339
11
0.904391
21
0.507533
0
LINE
8
BLACK
6
CONTINUOUS
10
0.904391
20
0.507533
11
0.903642
21
0.511299
0
LINE
8
BLACK
6
CONTINUOUS
10
0.903642
20
0.511299
11
0.903642
21
0.548701
0
LINE
8
BLACK
6
CONTINUOUS
10
0.903642
20
0.548701
11
0.904391
21
0.552467
0
LINE
8
BLACK
6
CONTINUOUS
10
0.904391
20
0.552467
11
0.906525
21
0.555661
0
LINE
8
BLACK
6
CONTINUOUS
10
0.906525
20
0.555661
11
0.909718
21
0.557794
0
LINE
8
BLACK
6
CONTINUOUS
10
0.909718
20
0.557794
11
0.913484
21
0.558543
0
LINE
8
BLACK
6
CONTINUOUS
10
0.913484
20
0.558543
11
0.933169
21
0.558543
0
LINE
8
BLACK
6
CONTINUOUS
10
0.933169
20
0.558543
11
0.936936
21
0.557794
0
LINE
8
BLACK
6
CONTINUOUS
10
1.52378
20
0.510945
11
1.49622
21
0.510945
0
LINE
8
BLACK
6
CONTINUOUS
10
1.49622
20
0.510945
11
1.49622
21
0.629055
0
LINE
8
BLACK
6
CONTINUOUS
10
1.49622
20
0.629055
11
1.52378
21
0.629055
0
LINE
8
BLACK
6
CONTINUOUS
10
1.52378
20
0.629055
11
1.52378
21
0.510945
0
LINE
8
BLACK
6
CONTINUOUS
10
0.607559
20
0.527205
11
0.546142
21
0.527205
0
LINE
8
BLACK
6
CONTINUOUS
10
0.546142
20
0.527205
11
0.546142
21
0.552795
0
LINE
8
BLACK
6
CONTINUOUS
10
0.546142
20
0.552795
11
0.607559
21
0.552795
0
LINE
8
BLACK
6
CONTINUOUS
10
0.607559
20
0.552795
11
0.607559
21
0.527205
0
LINE
8
BLACK
6
CONTINUOUS
10
1.85
20
0.53
11
1.79
21
0.53
0
LINE
8
BLACK
6
CONTINUOUS
10
1.79
20
0.53
11
1.79
21
0.59
0
LINE
8
BLACK
6
CONTINUOUS
10
1.79
20
0.59
11
1.85
21
0.59
0
LINE
8
BLACK
6
CONTINUOUS
10
1.85
20
0.59
11
1.85
21
0.53
0
LINE
8
BLACK
6
CONTINUOUS
10
1.95
20
0.53
11
1.89
21
0.53
0
LINE
8
BLACK
6
CONTINUOUS
10
1.89
20
0.53
11
1.89
21
0.59
0
LINE
8
BLACK
6
CONTINUOUS
10
1.89
20
0.59
11
1.95
21
0.59
0
LINE
8
BLACK
6
CONTINUOUS
10
1.95
20
0.59
11
1.95
21
0.53
0
LINE
8
BLACK
6
CONTINUOUS
10
0.471483
20
0.575353
11
0.474676
21
0.57322
0
LINE
8
BLACK
6
CONTINUOUS
10
0.474676
20
0.57322
11
0.47681
21
0.570026
0
LINE
8
BLACK
6
CONTINUOUS
10
0.47681
20
0.570026
11
0.477559
21
0.56626
0
LINE
8
BLACK
6
CONTINUOUS
10
0.477559
20
0.56626
11
0.477559
21
0.545591
0
LINE
8
BLACK
6
CONTINUOUS
10
0.477559
20
0.545591
11
0.47681
21
0.541824
0
LINE
8
BLACK
6
CONTINUOUS
10
0.47681
20
0.541824
11
0.474676
21
0.538631
0
LINE
8
BLACK
6
CONTINUOUS
10
0.474676
20
0.538631
11
0.471483
21
0.536497
0
LINE
8
BLACK
6
CONTINUOUS
10
0.471483
20
0.536497
11
0.467717
21
0.535748
0
LINE
8
BLACK
6
CONTINUOUS
10
0.467717
20
0.535748
11
0.432283
21
0.535748
0
LINE
8
BLACK
6
CONTINUOUS
10
0.432283
20
0.535748
11
0.428517
21
0.536497
0
LINE
8
BLACK
6
CONTINUOUS
10
0.428517
20
0.536497
11
0.425324
21
0.538631
0
LINE
8
BLACK
6
CONTINUOUS
10
0.425324
20
0.538631
11
0.42319
21
0.541824
0
LINE
8
BLACK
6
CONTINUOUS
10
0.42319
20
0.541824
11
0.422441
21
0.545591
0
LINE
8
BLACK
6
CONTINUOUS
10
0.422441
20
0.545591
11
0.422441
21
0.56626
0
LINE
8
BLACK
6
CONTINUOUS
10
0.422441
20
0.56626
11
0.42319
21
0.570026
0
LINE
8
BLACK
6
CONTINUOUS
10
0.42319
20
0.570026
11
0.425324
21
0.57322
0
LINE
8
BLACK
6
CONTINUOUS
10
0.425324
20
0.57322
11
0.428517
21
0.575353
0
LINE
8
BLACK
6
CONTINUOUS
10
0.428517
20
0.575353
11
0.432283
21
0.576102
0
LINE
8
BLACK
6
CONTINUOUS
10
0.432283
20
0.576102
11
0.467717
21
0.576102
0
LINE
8
BLACK
6
CONTINUOUS
10
0.467717
20
0.576102
11
0.471483
21
0.575353
0
LINE
8
BLACK
6
CONTINUOUS
10
1.48244
20
0.540472
11
1.43126
21
0.540472
0
LINE
8
BLACK
6
CONTINUOUS
10
1.43126
20
0.540472
11
1.43126
21
0.599528
0
LINE
8
BLACK
6
CONTINUOUS
10
1.43126
20
0.599528
11
1.48244
21
0.599528
0
LINE
8
BLACK
6
CONTINUOUS
10
1.48244
20
0.599528
11
1.48244
21
0.540472
0
LINE
8
BLACK
6
CONTINUOUS
10
1.58874
20
0.540472
11
1.53756
21
0.540472
0
LINE
8
BLACK
6
CONTINUOUS
10
1.53756
20
0.540472
11
1.53756
21
0.599528
0
LINE
8
BLACK
6
CONTINUOUS
10
1.53756
20
0.599528
11
1.58874
21
0.599528
0
LINE
8
BLACK
6
CONTINUOUS
10
1.58874
20
0.599528
11
1.58874
21
0.540472
0
LINE
8
BLACK
6
CONTINUOUS
10
0.312467
20
0.601534
11
0.315661
21
0.599401
0
LINE
8
BLACK
6
CONTINUOUS
10
0.315661
20
0.599401
11
0.317794
21
0.596208
0
LINE
8
BLACK
6
CONTINUOUS
10
0.317794
20
0.596208
11
0.318543
21
0.592441
0
LINE
8
BLACK
6
CONTINUOUS
10
0.318543
20
0.592441
11
0.318543
21
0.572756
0
LINE
8
BLACK
6
CONTINUOUS
10
0.318543
20
0.572756
11
0.317794
21
0.568989
0
LINE
8
BLACK
6
CONTINUOUS
10
0.317794
20
0.568989
11
0.315661
21
0.565796
0
LINE
8
BLACK
6
CONTINUOUS
10
0.315661
20
0.565796
11
0.312467
21
0.563663
0
LINE
8
BLACK
6
CONTINUOUS
10
0.312467
20
0.563663
11
0.308701
21
0.562913
0
LINE
8
BLACK
6
CONTINUOUS
10
0.308701
20
0.562913
11
0.271299
21
0.562913
0
LINE
8
BLACK
6
CONTINUOUS
10
0.271299
20
0.562913
11
0.267533
21
0.563663
0
LINE
8
BLACK
6
CONTINUOUS
10
0.267533
20
0.563663
11
0.264339
21
0.565796
0
LINE
8
BLACK
6
CONTINUOUS
10
0.264339
20
0.565796
11
0.262206
21
0.568989
0
LINE
8
BLACK
6
CONTINUOUS
10
0.262206
20
0.568989
11
0.261457
21
0.572756
0
LINE
8
BLACK
6
CONTINUOUS
10
0.261457
20
0.572756
11
0.261457
21
0.592441
0
LINE
8
BLACK
6
CONTINUOUS
10
0.261457
20
0.592441
11
0.262206
21
0.596208
0
LINE
8
BLACK
6
CONTINUOUS
10
0.262206
20
0.596208
11
0.264339
21
0.599401
0
LINE
8
BLACK
6
CONTINUOUS
10
0.264339
20
0.599401
11
0.267533
21
0.601534
0
LINE
8
BLACK
6
CONTINUOUS
10
0.267533
20
0.601534
11
0.271299
21
0.602283
0
LINE
8
BLACK
6
CONTINUOUS
10
0.271299
20
0.602283
11
0.308701
21
0.602283
0
LINE
8
BLACK
6
CONTINUOUS
10
0.308701
20
0.602283
11
0.312467
21
0.601534
0
LINE
8
BLACK
6
CONTINUOUS
10
0.607559
20
0.564606
11
0.546142
21
0.564606
0
LINE
8
BLACK
6
CONTINUOUS
10
0.546142
20
0.564606
11
0.546142
21
0.590197
0
LINE
8
BLACK
6
CONTINUOUS
10
0.546142
20
0.590197
11
0.607559
21
0.590197
0
LINE
8
BLACK
6
CONTINUOUS
10
0.607559
20
0.590197
11
0.607559
21
0.564606
0
LINE
8
BLACK
6
CONTINUOUS
10
0.713858
20
0.564606
11
0.652441
21
0.564606
0
LINE
8
BLACK
6
CONTINUOUS
10
0.652441
20
0.564606
11
0.652441
21
0.590197
0
LINE
8
BLACK
6
CONTINUOUS
10
0.652441
20
0.590197
11
0.713858
21
0.590197
0
LINE
8
BLACK
6
CONTINUOUS
10
0.713858
20
0.590197
11
0.713858
21
0.564606
0
LINE
8
BLACK
6
CONTINUOUS
10
0.801483
20
0.605353
11
0.804676
21
0.60322
0
LINE
8
BLACK
6
CONTINUOUS
10
0.804676
20
0.60322
11
0.80681
21
0.600026
0
LINE
8
BLACK
6
CONTINUOUS
10
0.80681
20
0.600026
11
0.807559
21
0.59626
0
LINE
8
BLACK
6
CONTINUOUS
10
0.807559
20
0.59626
11
0.807559
21
0.575591
0
LINE
8
BLACK
6
CONTINUOUS
10
0.807559
20
0.575591
11
0.80681
21
0.571824
0
LINE
8
BLACK
6
CONTINUOUS
10
0.80681
20
0.571824
11
0.804676
21
0.568631
0
LINE
8
BLACK
6
CONTINUOUS
10
0.804676
20
0.568631
11
0.801483
21
0.566497
0
LINE
8
BLACK
6
CONTINUOUS
10
0.801483
20
0.566497
11
0.797717
21
0.565748
0
LINE
8
BLACK
6
CONTINUOUS
10
0.797717
20
0.565748
11
0.762283
21
0.565748
0
LINE
8
BLACK
6
CONTINUOUS
10
0.762283
20
0.565748
11
0.758517
21
0.566497
0
LINE
8
BLACK
6
CONTINUOUS
10
0.758517
20
0.566497
11
0.755324
21
0.568631
0
LINE
8
BLACK
6
CONTINUOUS
10
0.755324
20
0.568631
11
0.75319
21
0.571824
0
LINE
8
BLACK
6
CONTINUOUS
10
0.75319
20
0.571824
11
0.752441
21
0.575591
0
LINE
8
BLACK
6
CONTINUOUS
10
0.752441
20
0.575591
11
0.752441
21
0.59626
0
LINE
8
BLACK
6
CONTINUOUS
10
0.752441
20
0.59626
11
0.75319
21
0.600026
0
LINE
8
BLACK
6
CONTINUOUS
10
0.75319
20
0.600026
11
0.755324
21
0.60322
0
LINE
8
BLACK
6
CONTINUOUS
10
0.755324
20
0.60322
11
0.758517
21
0.605353
0
LINE
8
BLACK
6
CONTINUOUS
10
0.758517
20
0.605353
11
0.762283
21
0.606102
0
LINE
8
BLACK
6
CONTINUOUS
10
0.762283
20
0.606102
11
0.797717
21
0.606102
0
LINE
8
BLACK
6
CONTINUOUS
10
0.797717
20
0.606102
11
0.801483
21
0.605353
0
LINE
8
BLACK
6
CONTINUOUS
10
1.14539
20
0.577953
11
1.1198
21
0.577953
0
LINE
8
BLACK
6
CONTINUOUS
10
1.1198
20
0.577953
11
1.1198
21
0.656693
0
LINE
8
BLACK
6
CONTINUOUS
10
1.1198
20
0.656693
11
1.14539
21
0.656693
0
LINE
8
BLACK
6
CONTINUOUS
10
1.14539
20
0.656693
11
1.14539
21
0.577953
0
LINE
8
BLACK
6
CONTINUOUS
10
1.2202
20
0.577953
11
1.19461
21
0.577953
0
LINE
8
BLACK
6
CONTINUOUS
10
1.19461
20
0.577953
11
1.19461
21
0.656693
0
LINE
8
BLACK
6
CONTINUOUS
10
1.19461
20
0.656693
11
1.2202
21
0.656693
0
LINE
8
BLACK
6
CONTINUOUS
10
1.2202
20
0.656693
11
1.2202
21
0.577953
0
LINE
8
BLACK
6
CONTINUOUS
10
0.864101
20
0.63681
11
0.867294
21
0.634676
0
LINE
8
BLACK
6
CONTINUOUS
10
0.867294
20
0.634676
11
0.869428
21
0.631483
0
LINE
8
BLACK
6
CONTINUOUS
10
0.869428
20
0.631483
11
0.870177
21
0.627717
0
LINE
8
BLACK
6
CONTINUOUS
10
0.870177
20
0.627717
11
0.870177
21
0.592283
0
LINE
8
BLACK
6
CONTINUOUS
10
0.870177
20
0.592283
11
0.869428
21
0.588517
0
LINE
8
BLACK
6
CONTINUOUS
10
0.869428
20
0.588517
11
0.867294
21
0.585324
0
LINE
8
BLACK
6
CONTINUOUS
10
0.867294
20
0.585324
11
0.864101
21
0.58319
0
LINE
8
BLACK
6
CONTINUOUS
10
0.864101
20
0.58319
11
0.860335
21
0.582441
0
LINE
8
BLACK
6
CONTINUOUS
10
0.860335
20
0.582441
11
0.839665
21
0.582441
0
LINE
8
BLACK
6
CONTINUOUS
10
0.839665
20
0.582441
11
0.835899
21
0.58319
0
LINE
8
BLACK
6
CONTINUOUS
10
0.835899
20
0.58319
11
0.832706
21
0.585324
0
LINE
8
BLACK
6
CONTINUOUS
10
0.832706
20
0.585324
11
0.830572
21
0.588517
0
LINE
8
BLACK
6
CONTINUOUS
10
0.830572
20
0.588517
11
0.829823
21
0.592283
0
LINE
8
BLACK
6
CONTINUOUS
10
0.829823
20
0.592283
11
0.829823
21
0.627717
0
LINE
8
BLACK
6
CONTINUOUS
10
0.829823
20
0.627717
11
0.830572
21
0.631483
0
LINE
8
BLACK
6
CONTINUOUS
10
0.830572
20
0.631483
11
0.832706
21
0.634676
0
LINE
8
BLACK
6
CONTINUOUS
10
0.832706
20
0.634676
11
0.835899
21
0.63681
0
LINE
8
BLACK
6
CONTINUOUS
10
0.835899
20
0.63681
11
0.839665
21
0.637559
0
LINE
8
BLACK
6
CONTINUOUS
10
0.839665
20
0.637559
11
0.860335
21
0.637559
0
LINE
8
BLACK
6
CONTINUOUS
10
0.860335
20
0.637559
11
0.864101
21
0.63681
0
LINE
8
BLACK
6
CONTINUOUS
10
0.935952
20
0.63681
11
0.939145
21
0.634676
0
LINE
8
BLACK
6
CONTINUOUS
10
0.939145
20
0.634676
11
0.941278
21
0.631483
0
LINE
8
BLACK
6
CONTINUOUS
10
0.941278
20
0.631483
11
0.942028
21
0.627717
0
LINE
8
BLACK
6
CONTINUOUS
10
0.942028
20
0.627717
11
0.942028
21
0.592283
0
LINE
8
BLACK
6
CONTINUOUS
10
0.942028
20
0.592283
11
0.941278
21
0.588517
0
LINE
8
BLACK
6
CONTINUOUS
10
0.941278
20
0.588517
11
0.939145
21
0.585324
0
LINE
8
BLACK
6
CONTINUOUS
10
0.939145
20
0.585324
11
0.935952
21
0.58319
0
LINE
8
BLACK
6
CONTINUOUS
10
0.935952
20
0.58319
11
0.932185
21
0.582441
0
LINE
8
BLACK
6
CONTINUOUS
10
0.932185
20
0.582441
11
0.911516
21
0.582441
0
LINE
8
BLACK
6
CONTINUOUS
10
0.911516
20
0.582441
11
0.907749
21
0.58319
0
LINE
8
BLACK
6
CONTINUOUS
10
0.907749
20
0.58319
11
0.904556
21
0.585324
0
LINE
8
BLACK
6
CONTINUOUS
10
0.904556
20
0.585324
11
0.902422
21
0.588517
0
LINE
8
BLACK
6
CONTINUOUS
10
0.902422
20
0.588517
11
0.901673
21
0.592283
0
LINE
8
BLACK
6
CONTINUOUS
10
0.901673
20
0.592283
11
0.901673
21
0.627717
0
LINE
8
BLACK
6
CONTINUOUS
10
0.901673
20
0.627717
11
0.902422
21
0.631483
0
LINE
8
BLACK
6
CONTINUOUS
10
0.902422
20
0.631483
11
0.904556
21
0.634676
0
LINE
8
BLACK
6
CONTINUOUS
10
0.904556
20
0.634676
11
0.907749
21
0.63681
0
LINE
8
BLACK
6
CONTINUOUS
10
0.907749
20
0.63681
11
0.911516
21
0.637559
0
LINE
8
BLACK
6
CONTINUOUS
10
0.911516
20
0.637559
11
0.932185
21
0.637559
0
LINE
8
BLACK
6
CONTINUOUS
10
0.932185
20
0.637559
11
0.935952
21
0.63681
0
LINE
8
BLACK
6
CONTINUOUS
10
0.12
20
0.59
11
0.06
21
0.59
0
LINE
8
BLACK
6
CONTINUOUS
10
0.06
20
0.59
11
0.06
21
0.65
0
LINE
8
BLACK
6
CONTINUOUS
10
0.06
20
0.65
11
0.12
21
0.65
0
LINE
8
BLACK
6
CONTINUOUS
10
0.12
20
0.65
11
0.12
21
0.59
0
LINE
8
BLACK
6
CONTINUOUS
10
0.22
20
0.59
11
0.16
21
0.59
0
LINE
8
BLACK
6
CONTINUOUS
10
0.16
20
0.59
11
0.16
21
0.65
0
LINE
8
BLACK
6
CONTINUOUS
10
0.16
20
0.65
11
0.22
21
0.65
0
LINE
8
BLACK
6
CONTINUOUS
10
0.22
20
0.65
11
0.22
21
0.59
0
LINE
8
BLACK
6
CONTINUOUS
10
1.01068
20
0.65681
11
1.01387
21
0.654676
0
LINE
8
BLACK
6
CONTINUOUS
10
1.01387
20
0.654676
11
1.016
21
0.651483
0
LINE
8
BLACK
6
CONTINUOUS
10
1.016
20
0.651483
11
1.01675
21
0.647717
0
LINE
8
BLACK
6
CONTINUOUS
10
1.01675
20
0.647717
11
1.01675
21
0.612283
0
LINE
8
BLACK
6
CONTINUOUS
10
1.01675
20
0.612283
11
1.016
21
0.608517
0
LINE
8
BLACK
6
CONTINUOUS
10
1.016
20
0.608517
11
1.01387
21
0.605324
0
LINE
8
BLACK
6
CONTINUOUS
10
1.01387
20
0.605324
11
1.01068
21
0.60319
0
LINE
8
BLACK
6
CONTINUOUS
10
1.01068
20
0.60319
11
1.00691
21
0.602441
0
LINE
8
BLACK
6
CONTINUOUS
10
1.00691
20
0.602441
11
0.98624
21
0.602441
0
LINE
8
BLACK
6
CONTINUOUS
10
0.98624
20
0.602441
11
0.982474
21
0.60319
0
LINE
8
BLACK
6
CONTINUOUS
10
0.982474
20
0.60319
11
0.97928
21
0.605324
0
LINE
8
BLACK
6
CONTINUOUS
10
0.97928
20
0.605324
11
0.977147
21
0.608517
0
LINE
8
BLACK
6
CONTINUOUS
10
0.977147
20
0.608517
11
0.976398
21
0.612283
0
LINE
8
BLACK
6
CONTINUOUS
10
0.976398
20
0.612283
11
0.976398
21
0.647717
0
LINE
8
BLACK
6
CONTINUOUS
10
0.976398
20
0.647717
11
0.977147
21
0.651483
0
LINE
8
BLACK
6
CONTINUOUS
10
0.977147
20
0.651483
11
0.97928
21
0.654676
0
LINE
8
BLACK
6
CONTINUOUS
10
0.97928
20
0.654676
11
0.982474
21
0.65681
0
LINE
8
BLACK
6
CONTINUOUS
10
0.982474
20
0.65681
11
0.98624
21
0.657559
0
LINE
8
BLACK
6
CONTINUOUS
10
0.98624
20
0.657559
11
1.00691
21
0.657559
0
LINE
8
BLACK
6
CONTINUOUS
10
1.00691
20
0.657559
11
1.01068
21
0.65681
0
LINE
8
BLACK
6
CONTINUOUS
10
1.08253
20
0.65681
11
1.08572
21
0.654676
0
LINE
8
BLACK
6
CONTINUOUS
10
1.08572
20
0.654676
11
1.08785
21
0.651483
0
LINE
8
BLACK
6
CONTINUOUS
10
1.08785
20
0.651483
11
1.0886
21
0.647717
0
LINE
8
BLACK
6
CONTINUOUS
10
1.0886
20
0.647717
11
1.0886
21
0.612283
0
LINE
8
BLACK
6
CONTINUOUS
10
1.0886
20
0.612283
11
1.08785
21
0.608517
0
LINE
8
BLACK
6
CONTINUOUS
10
1.08785
20
0.608517
11
1.08572
21
0.605324
0
LINE
8
BLACK
6
CONTINUOUS
10
1.08572
20
0.605324
11
1.08253
21
0.60319
0
LINE
8
BLACK
6
CONTINUOUS
10
1.08253
20
0.60319
11
1.07876
21
0.602441
0
LINE
8
BLACK
6
CONTINUOUS
10
1.07876
20
0.602441
11
1.05809
21
0.602441
0
LINE
8
BLACK
6
CONTINUOUS
10
1.05809
20
0.602441
11
1.05432
21
0.60319
0
LINE
8
BLACK
6
CONTINUOUS
10
1.05432
20
0.60319
11
1.05113
21
0.605324
0
LINE
8
BLACK
6
CONTINUOUS
10
1.05113
20
0.605324
11
1.049
21
0.608517
0
LINE
8
BLACK
6
CONTINUOUS
10
1.049
20
0.608517
11
1.04825
21
0.612283
0
LINE
8
BLACK
6
CONTINUOUS
10
1.04825
20
0.612283
11
1.04825
21
0.647717
0
LINE
8
BLACK
6
CONTINUOUS
10
1.04825
20
0.647717
11
1.049
21
0.651483
0
LINE
8
BLACK
6
CONTINUOUS
10
1.049
20
0.651483
11
1.05113
21
0.654676
0
LINE
8
BLACK
6
CONTINUOUS
10
1.05113
20
0.654676
11
1.05432
21
0.65681
0
LINE
8
BLACK
6
CONTINUOUS
10
1.05432
20
0.65681
11
1.05809
21
0.657559
0
LINE
8
BLACK
6
CONTINUOUS
10
1.05809
20
0.657559
11
1.07876
21
0.657559
0
LINE
8
BLACK
6
CONTINUOUS
10
1.07876
20
0.657559
11
1.08253
21
0.65681
0
LINE
8
BLACK
6
CONTINUOUS
10
0.393701
20
0.627087
11
0.354331
21
0.627087
0
LINE
8
BLACK
6
CONTINUOUS
10
0.354331
20
0.627087
11
0.354331
21
0.776693
0
LINE
8
BLACK
6
CONTINUOUS
10
0.354331
20
0.776693
11
0.393701
21
0.776693
0
LINE
8
BLACK
6
CONTINUOUS
10
0.393701
20
0.776693
11
0.393701
21
0.627087
0
LINE
8
BLACK
6
CONTINUOUS
10
1.64567
20
0.627087
11
1.6063
21
0.627087
0
LINE
8
BLACK
6
CONTINUOUS
10
1.6063
20
0.627087
11
1.6063
21
0.776693
0
LINE
8
BLACK
6
CONTINUOUS
10
1.6063
20
0.776693
11
1.64567
21
0.776693
0
LINE
8
BLACK
6
CONTINUOUS
10
1.64567
20
0.776693
11
1.64567
21
0.627087
0
LINE
8
BLACK
6
CONTINUOUS
10
1.85
20
0.63
11
1.79
21
0.63
0
LINE
8
BLACK
6
CONTINUOUS
10
1.79
20
0.63
11
1.79
21
0.69
0
LINE
8
BLACK
6
CONTINUOUS
10
1.79
20
0.69
11
1.85
21
0.69
0
LINE
8
BLACK
6
CONTINUOUS
10
1.85
20
0.69
11
1.85
21
0.63
0
LINE
8
BLACK
6
CONTINUOUS
10
1.95
20
0.63
11
1.89
21
0.63
0
LINE
8
BLACK
6
CONTINUOUS
10
1.89
20
0.63
11
1.89
21
0.69
0
LINE
8
BLACK
6
CONTINUOUS
10
1.89
20
0.69
11
1.95
21
0.69
0
LINE
8
BLACK
6
CONTINUOUS
10
1.95
20
0.69
11
1.95
21
0.63
0
LINE
8
BLACK
6
CONTINUOUS
10
0.312467
20
0.676337
11
0.315661
21
0.674204
0
LINE
8
BLACK
6
CONTINUOUS
10
0.315661
20
0.674204
11
0.317794
21
0.671011
0
LINE
8
BLACK
6
CONTINUOUS
10
0.317794
20
0.671011
11
0.318543
21
0.667244
0
LINE
8
BLACK
6
CONTINUOUS
10
0.318543
20
0.667244
11
0.318543
21
0.647559
0
LINE
8
BLACK
6
CONTINUOUS
10
0.318543
20
0.647559
11
0.317794
21
0.643792
0
LINE
8
BLACK
6
CONTINUOUS
10
0.317794
20
0.643792
11
0.315661
21
0.640599
0
LINE
8
BLACK
6
CONTINUOUS
10
0.315661
20
0.640599
11
0.312467
21
0.638466
0
LINE
8
BLACK
6
CONTINUOUS
10
0.312467
20
0.638466
11
0.308701
21
0.637717
0
LINE
8
BLACK
6
CONTINUOUS
10
0.308701
20
0.637717
11
0.271299
21
0.637717
0
LINE
8
BLACK
6
CONTINUOUS
10
0.271299
20
0.637717
11
0.267533
21
0.638466
0
LINE
8
BLACK
6
CONTINUOUS
10
0.267533
20
0.638466
11
0.264339
21
0.640599
0
LINE
8
BLACK
6
CONTINUOUS
10
0.264339
20
0.640599
11
0.262206
21
0.643792
0
LINE
8
BLACK
6
CONTINUOUS
10
0.262206
20
0.643792
11
0.261457
21
0.647559
0
LINE
8
BLACK
6
CONTINUOUS
10
0.261457
20
0.647559
11
0.261457
21
0.667244
0
LINE
8
BLACK
6
CONTINUOUS
10
0.261457
20
0.667244
11
0.262206
21
0.671011
0
LINE
8
BLACK
6
CONTINUOUS
10
0.262206
20
0.671011
11
0.264339
21
0.674204
0
LINE
8
BLACK
6
CONTINUOUS
10
0.264339
20
0.674204
11
0.267533
21
0.676337
0
LINE
8
BLACK
6
CONTINUOUS
10
0.267533
20
0.676337
11
0.271299
21
0.677087
0
LINE
8
BLACK
6
CONTINUOUS
10
0.271299
20
0.677087
11
0.308701
21
0.677087
0
LINE
8
BLACK
6
CONTINUOUS
10
0.308701
20
0.677087
11
0.312467
21
0.676337
0
LINE
8
BLACK
6
CONTINUOUS
10
0.678334
20
0.695826
11
0.681527
21
0.693692
0
LINE
8
BLACK
6
CONTINUOUS
10
0.681527
20
0.693692
11
0.68366
21
0.690499
0
LINE
8
BLACK
6
CONTINUOUS
10
0.68366
20
0.690499
11
0.684409
21
0.686732
0
LINE
8
BLACK
6
CONTINUOUS
10
0.684409
20
0.686732
11
0.684409
21
0.653268
0
LINE
8
BLACK
6
CONTINUOUS
10
0.684409
20
0.653268
11
0.68366
21
0.649501
0
LINE
8
BLACK
6
CONTINUOUS
10
0.68366
20
0.649501
11
0.681527
21
0.646308
0
LINE
8
BLACK
6
CONTINUOUS
10
0.681527
20
0.646308
11
0.678334
21
0.644174
0
LINE
8
BLACK
6
CONTINUOUS
10
0.678334
20
0.644174
11
0.674567
21
0.643425
0
LINE
8
BLACK
6
CONTINUOUS
10
0.674567
20
0.643425
11
0.639134
21
0.643425
0
LINE
8
BLACK
6
CONTINUOUS
10
0.639134
20
0.643425
11
0.635367
21
0.644174
0
LINE
8
BLACK
6
CONTINUOUS
10
0.635367
20
0.644174
11
0.632174
21
0.646308
0
LINE
8
BLACK
6
CONTINUOUS
10
0.632174
20
0.646308
11
0.630041
21
0.649501
0
LINE
8
BLACK
6
CONTINUOUS
10
0.630041
20
0.649501
11
0.629291
21
0.653268
0
LINE
8
BLACK
6
CONTINUOUS
10
0.629291
20
0.653268
11
0.629291
21
0.686732
0
LINE
8
BLACK
6
CONTINUOUS
10
0.629291
20
0.686732
11
0.630041
21
0.690499
0
LINE
8
BLACK
6
CONTINUOUS
10
0.630041
20
0.690499
11
0.632174
21
0.693692
0
LINE
8
BLACK
6
CONTINUOUS
10
0.632174
20
0.693692
11
0.635367
21
0.695826
0
LINE
8
BLACK
6
CONTINUOUS
10
0.635367
20
0.695826
11
0.639134
21
0.696575
0
LINE
8
BLACK
6
CONTINUOUS
10
0.639134
20
0.696575
11
0.674567
21
0.696575
0
LINE
8
BLACK
6
CONTINUOUS
10
0.674567
20
0.696575
11
0.678334
21
0.695826
0
LINE
8
BLACK
6
CONTINUOUS
10
0.784633
20
0.695826
11
0.787826
21
0.693692
0
LINE
8
BLACK
6
CONTINUOUS
10
0.787826
20
0.693692
11
0.789959
21
0.690499
0
LINE
8
BLACK
6
CONTINUOUS
10
0.789959
20
0.690499
11
0.790709
21
0.686732
0
LINE
8
BLACK
6
CONTINUOUS
10
0.790709
20
0.686732
11
0.790709
21
0.653268
0
LINE
8
BLACK
6
CONTINUOUS
10
0.790709
20
0.653268
11
0.789959
21
0.649501
0
LINE
8
BLACK
6
CONTINUOUS
10
0.789959
20
0.649501
11
0.787826
21
0.646308
0
LINE
8
BLACK
6
CONTINUOUS
10
0.787826
20
0.646308
11
0.784633
21
0.644174
0
LINE
8
BLACK
6
CONTINUOUS
10
0.784633
20
0.644174
11
0.780866
21
0.643425
0
LINE
8
BLACK
6
CONTINUOUS
10
0.780866
20
0.643425
11
0.745433
21
0.643425
0
LINE
8
BLACK
6
CONTINUOUS
10
0.745433
20
0.643425
11
0.741666
21
0.644174
0
LINE
8
BLACK
6
CONTINUOUS
10
0.741666
20
0.644174
11
0.738473
21
0.646308
0
LINE
8
BLACK
6
CONTINUOUS
10
0.738473
20
0.646308
11
0.73634
21
0.649501
0
LINE
8
BLACK
6
CONTINUOUS
10
0.73634
20
0.649501
11
0.735591
21
0.653268
0
LINE
8
BLACK
6
CONTINUOUS
10
0.735591
20
0.653268
11
0.735591
21
0.686732
0
LINE
8
BLACK
6
CONTINUOUS
10
0.735591
20
0.686732
11
0.73634
21
0.690499
0
LINE
8
BLACK
6
CONTINUOUS
10
0.73634
20
0.690499
11
0.738473
21
0.693692
0
LINE
8
BLACK
6
CONTINUOUS
10
0.738473
20
0.693692
11
0.741666
21
0.695826
0
LINE
8
BLACK
6
CONTINUOUS
10
0.741666
20
0.695826
11
0.745433
21
0.696575
0
LINE
8
BLACK
6
CONTINUOUS
10
0.745433
20
0.696575
11
0.780866
21
0.696575
0
LINE
8
BLACK
6
CONTINUOUS
10
0.780866
20
0.696575
11
0.784633
21
0.695826
0
LINE
8
BLACK
6
CONTINUOUS
10
1.46
20
0.67
11
1.4
21
0.67
0
LINE
8
BLACK
6
CONTINUOUS
10
1.4
20
0.67
11
1.4
21
0.73
0
LINE
8
BLACK
6
CONTINUOUS
10
1.4
20
0.73
11
1.46
21
0.73
0
LINE
8
BLACK
6
CONTINUOUS
10
1.46
20
0.73
11
1.46
21
0.67
0
LINE
8
BLACK
6
CONTINUOUS
10
1.56
20
0.67
11
1.5
21
0.67
0
LINE
8
BLACK
6
CONTINUOUS
10
1.5
20
0.67
11
1.5
21
0.73
0
LINE
8
BLACK
6
CONTINUOUS
10
1.5
20
0.73
11
1.56
21
0.73
0
LINE
8
BLACK
6
CONTINUOUS
10
1.56
20
0.73
11
1.56
21
0.67
0
LINE
8
BLACK
6
CONTINUOUS
10
0.12
20
0.69
11
0.06
21
0.69
0
LINE
8
BLACK
6
CONTINUOUS
10
0.06
20
0.69
11
0.06
21
0.75
0
LINE
8
BLACK
6
CONTINUOUS
10
0.06
20
0.75
11
0.12
21
0.75
0
LINE
8
BLACK
6
CONTINUOUS
10
0.12
20
0.75
11
0.12
21
0.69
0
LINE
8
BLACK
6
CONTINUOUS
10
0.22
20
0.69
11
0.16
21
0.69
0
LINE
8
BLACK
6
CONTINUOUS
10
0.16
20
0.69
11
0.16
21
0.75
0
LINE
8
BLACK
6
CONTINUOUS
10
0.16
20
0.75
11
0.22
21
0.75
0
LINE
8
BLACK
6
CONTINUOUS
10
0.22
20
0.75
11
0.22
21
0.69
0
LINE
8
BLACK
6
CONTINUOUS
10
1.04148
20
0.741003
11
1.04468
21
0.738869
0
LINE
8
BLACK
6
CONTINUOUS
10
1.04468
20
0.738869
11
1.04681
21
0.735676
0
LINE
8
BLACK
6
CONTINUOUS
10
1.04681
20
0.735676
11
1.04756
21
0.731909
0
LINE
8
BLACK
6
CONTINUOUS
10
1.04756
20
0.731909
11
1.04756
21
0.71124
0
LINE
8
BLACK
6
CONTINUOUS
10
1.04756
20
0.71124
11
1.04681
21
0.707474
0
LINE
8
BLACK
6
CONTINUOUS
10
1.04681
20
0.707474
11
1.04468
21
0.70428
0
LINE
8
BLACK
6
CONTINUOUS
10
1.04468
20
0.70428
11
1.04148
21
0.702147
0
LINE
8
BLACK
6
CONTINUOUS
10
1.04148
20
0.702147
11
1.03772
21
0.701398
0
LINE
8
BLACK
6
CONTINUOUS
10
1.03772
20
0.701398
11
1.00228
21
0.701398
0
LINE
8
BLACK
6
CONTINUOUS
10
1.00228
20
0.701398
11
0.998517
21
0.702147
0
LINE
8
BLACK
6
CONTINUOUS
10
0.998517
20
0.702147
11
0.995324
21
0.70428
0
LINE
8
BLACK
6
CONTINUOUS
10
0.995324
20
0.70428
11
0.99319
21
0.707474
0
LINE
8
BLACK
6
CONTINUOUS
10
0.99319
20
0.707474
11
0.992441
21
0.71124
0
LINE
8
BLACK
6
CONTINUOUS
10
0.992441
20
0.71124
11
0.992441
21
0.731909
0
LINE
8
BLACK
6
CONTINUOUS
10
0.992441
20
0.731909
11
0.99319
21
0.735676
0
LINE
8
BLACK
6
CONTINUOUS
10
0.99319
20
0.735676
11
0.995324
21
0.738869
0
LINE
8
BLACK
6
CONTINUOUS
10
0.995324
20
0.738869
11
0.998517
21
0.741003
0
LINE
8
BLACK
6
CONTINUOUS
10
0.998517
20
0.741003
11
1.00228
21
0.741752
0
LINE
8
BLACK
6
CONTINUOUS
10
1.00228
20
0.741752
11
1.03772
21
0.741752
0
LINE
8
BLACK
6
CONTINUOUS
10
1.03772
20
0.741752
11
1.04148
21
0.741003
0
LINE
8
BLACK
6
CONTINUOUS
10
1.24833
20
0.775826
11
1.25153
21
0.773692
0
LINE
8
BLACK
6
CONTINUOUS
10
1.25153
20
0.773692
11
1.25366
21
0.770499
0
LINE
8
BLACK
6
CONTINUOUS
10
1.25366
20
0.770499
11
1.25441
21
0.766732
0
LINE
8
BLACK
6
CONTINUOUS
10
1.25441
20
0.766732
11
1.25441
21
0.733268
0
LINE
8
BLACK
6
CONTINUOUS
10
1.25441
20
0.733268
11
1.25366
21
0.729501
0
LINE
8
BLACK
6
CONTINUOUS
10
1.25366
20
0.729501
11
1.25153
21
0.726308
0
LINE
8
BLACK
6
CONTINUOUS
10
1.25153
20
0.726308
11
1.24833
21
0.724174
0
LINE
8
BLACK
6
CONTINUOUS
10
1.24833
20
0.724174
11
1.24457
21
0.723425
0
LINE
8
BLACK
6
CONTINUOUS
10
1.24457
20
0.723425
11
1.20913
21
0.723425
0
LINE
8
BLACK
6
CONTINUOUS
10
1.20913
20
0.723425
11
1.20537
21
0.724174
0
LINE
8
BLACK
6
CONTINUOUS
10
1.20537
20
0.724174
11
1.20217
21
0.726308
0
LINE
8
BLACK
6
CONTINUOUS
10
1.20217
20
0.726308
11
1.20004
21
0.729501
0
LINE
8
BLACK
6
CONTINUOUS
10
1.20004
20
0.729501
11
1.19929
21
0.733268
0
LINE
8
BLACK
6
CONTINUOUS
10
1.19929
20
0.733268
11
1.19929
21
0.766732
0
LINE
8
BLACK
6
CONTINUOUS
10
1.19929
20
0.766732
11
1.20004
21
0.770499
0
LINE
8
BLACK
6
CONTINUOUS
10
1.20004
20
0.770499
11
1.20217
21
0.773692
0
LINE
8
BLACK
6
CONTINUOUS
10
1.20217
20
0.773692
11
1.20537
21
0.775826
0
LINE
8
BLACK
6
CONTINUOUS
10
1.20537
20
0.775826
11
1.20913
21
0.776575
0
LINE
8
BLACK
6
CONTINUOUS
10
1.20913
20
0.776575
11
1.24457
21
0.776575
0
LINE
8
BLACK
6
CONTINUOUS
10
1.24457
20
0.776575
11
1.24833
21
0.775826
0
LINE
8
BLACK
6
CONTINUOUS
10
1.35463
20
0.775826
11
1.35783
21
0.773692
0
LINE
8
BLACK
6
CONTINUOUS
10
1.35783
20
0.773692
11
1.35996
21
0.770499
0
LINE
8
BLACK
6
CONTINUOUS
10
1.35996
20
0.770499
11
1.36071
21
0.766732
0
LINE
8
BLACK
6
CONTINUOUS
10
1.36071
20
0.766732
11
1.36071
21
0.733268
0
LINE
8
BLACK
6
CONTINUOUS
10
1.36071
20
0.733268
11
1.35996
21
0.729501
0
LINE
8
BLACK
6
CONTINUOUS
10
1.35996
20
0.729501
11
1.35783
21
0.726308
0
LINE
8
BLACK
6
CONTINUOUS
10
1.35783
20
0.726308
11
1.35463
21
0.724174
0
LINE
8
BLACK
6
CONTINUOUS
10
1.35463
20
0.724174
11
1.35087
21
0.723425
0
LINE
8
BLACK
6
CONTINUOUS
10
1.35087
20
0.723425
11
1.31543
21
0.723425
0
LINE
8
BLACK
6
CONTINUOUS
10
1.31543
20
0.723425
11
1.31167
21
0.724174
0
LINE
8
BLACK
6
CONTINUOUS
10
1.31167
20
0.724174
11
1.30847
21
0.726308
0
LINE
8
BLACK
6
CONTINUOUS
10
1.30847
20
0.726308
11
1.30634
21
0.729501
0
LINE
8
BLACK
6
CONTINUOUS
10
1.30634
20
0.729501
11
1.30559
21
0.733268
0
LINE
8
BLACK
6
CONTINUOUS
10
1.30559
20
0.733268
11
1.30559
21
0.766732
0
LINE
8
BLACK
6
CONTINUOUS
10
1.30559
20
0.766732
11
1.30634
21
0.770499
0
LINE
8
BLACK
6
CONTINUOUS
10
1.30634
20
0.770499
11
1.30847
21
0.773692
0
LINE
8
BLACK
6
CONTINUOUS
10
1.30847
20
0.773692
11
1.31167
21
0.775826
0
LINE
8
BLACK
6
CONTINUOUS
10
1.31167
20
0.775826
11
1.31543
21
0.776575
0
LINE
8
BLACK
6
CONTINUOUS
10
1.31543
20
0.776575
11
1.35087
21
0.776575
0
LINE
8
BLACK
6
CONTINUOUS
10
1.35087
20
0.776575
11
1.35463
21
0.775826
0
LINE
8
BLACK
6
CONTINUOUS
10
0.696208
20
0.787794
11
0.699401
21
0.785661
0
LINE
8
BLACK
6
CONTINUOUS
10
0.699401
20
0.785661
11
0.701534
21
0.782467
0
LINE
8
BLACK
6
CONTINUOUS
10
0.701534
20
0.782467
11
0.702283
21
0.778701
0
LINE
8
BLACK
6
CONTINUOUS
10
0.702283
20
0.778701
11
0.702283
21
0.741299
0
LINE
8
BLACK
6
CONTINUOUS
10
0.702283
20
0.741299
11
0.701534
21
0.737533
0
LINE
8
BLACK
6
CONTINUOUS
10
0.701534
20
0.737533
11
0.699401
21
0.734339
0
LINE
8
BLACK
6
CONTINUOUS
10
0.699401
20
0.734339
11
0.696208
21
0.732206
0
LINE
8
BLACK
6
CONTINUOUS
10
0.696208
20
0.732206
11
0.692441
21
0.731457
0
LINE
8
BLACK
6
CONTINUOUS
10
0.692441
20
0.731457
11
0.672756
21
0.731457
0
LINE
8
BLACK
6
CONTINUOUS
10
0.672756
20
0.731457
11
0.668989
21
0.732206
0
LINE
8
BLACK
6
CONTINUOUS
10
0.668989
20
0.732206
11
0.665796
21
0.734339
0
LINE
8
BLACK
6
CONTINUOUS
10
0.665796
20
0.734339
11
0.663663
21
0.737533
0
LINE
8
BLACK
6
CONTINUOUS
10
0.663663
20
0.737533
11
0.662913
21
0.741299
0
LINE
8
BLACK
6
CONTINUOUS
10
0.662913
20
0.741299
11
0.662913
21
0.778701
0
LINE
8
BLACK
6
CONTINUOUS
10
0.662913
20
0.778701
11
0.663663
21
0.782467
0
LINE
8
BLACK
6
CONTINUOUS
10
0.663663
20
0.782467
11
0.665796
21
0.785661
0
LINE
8
BLACK
6
CONTINUOUS
10
0.665796
20
0.785661
11
0.668989
21
0.787794
0
LINE
8
BLACK
6
CONTINUOUS
10
0.668989
20
0.787794
11
0.672756
21
0.788543
0
LINE
8
BLACK
6
CONTINUOUS
10
0.672756
20
0.788543
11
0.692441
21
0.788543
0
LINE
8
BLACK
6
CONTINUOUS
10
0.692441
20
0.788543
11
0.696208
21
0.787794
0
LINE
8
BLACK
6
CONTINUOUS
10
0.771011
20
0.787794
11
0.774204
21
0.785661
0
LINE
8
BLACK
6
CONTINUOUS
10
0.774204
20
0.785661
11
0.776337
21
0.782467
0
LINE
8
BLACK
6
CONTINUOUS
10
0.776337
20
0.782467
11
0.777087
21
0.778701
0
LINE
8
BLACK
6
CONTINUOUS
10
0.777087
20
0.778701
11
0.777087
21
0.741299
0
LINE
8
BLACK
6
CONTINUOUS
10
0.777087
20
0.741299
11
0.776337
21
0.737533
0
LINE
8
BLACK
6
CONTINUOUS
10
0.776337
20
0.737533
11
0.774204
21
0.734339
0
LINE
8
BLACK
6
CONTINUOUS
10
0.774204
20
0.734339
11
0.771011
21
0.732206
0
LINE
8
BLACK
6
CONTINUOUS
10
0.771011
20
0.732206
11
0.767244
21
0.731457
0
LINE
8
BLACK
6
CONTINUOUS
10
0.767244
20
0.731457
11
0.747559
21
0.731457
0
LINE
8
BLACK
6
CONTINUOUS
10
0.747559
20
0.731457
11
0.743792
21
0.732206
0
LINE
8
BLACK
6
CONTINUOUS
10
0.743792
20
0.732206
11
0.740599
21
0.734339
0
LINE
8
BLACK
6
CONTINUOUS
10
0.740599
20
0.734339
11
0.738466
21
0.737533
0
LINE
8
BLACK
6
CONTINUOUS
10
0.738466
20
0.737533
11
0.737717
21
0.741299
0
LINE
8
BLACK
6
CONTINUOUS
10
0.737717
20
0.741299
11
0.737717
21
0.778701
0
LINE
8
BLACK
6
CONTINUOUS
10
0.737717
20
0.778701
11
0.738466
21
0.782467
0
LINE
8
BLACK
6
CONTINUOUS
10
0.738466
20
0.782467
11
0.740599
21
0.785661
0
LINE
8
BLACK
6
CONTINUOUS
10
0.740599
20
0.785661
11
0.743792
21
0.787794
0
LINE
8
BLACK
6
CONTINUOUS
10
0.743792
20
0.787794
11
0.747559
21
0.788543
0
LINE
8
BLACK
6
CONTINUOUS
10
0.747559
20
0.788543
11
0.767244
21
0.788543
0
LINE
8
BLACK
6
CONTINUOUS
10
0.767244
20
0.788543
11
0.771011
21
0.787794
0
LINE
8
BLACK
6
CONTINUOUS
10
1.57247
20
0.801534
11
1.57566
21
0.799401
0
LINE
8
BLACK
6
CONTINUOUS
10
1.57566
20
0.799401
11
1.57779
21
0.796208
0
LINE
8
BLACK
6
CONTINUOUS
10
1.57779
20
0.796208
11
1.57854
21
0.792441
0
LINE
8
BLACK
6
CONTINUOUS
10
1.57854
20
0.792441
11
1.57854
21
0.772756
0
LINE
8
BLACK
6
CONTINUOUS
10
1.57854
20
0.772756
11
1.57779
21
0.768989
0
LINE
8
BLACK
6
CONTINUOUS
10
1.57779
20
0.768989
11
1.57566
21
0.765796
0
LINE
8
BLACK
6
CONTINUOUS
10
1.57566
20
0.765796
11
1.57247
21
0.763663
0
LINE
8
BLACK
6
CONTINUOUS
10
1.57247
20
0.763663
11
1.5687
21
0.762913
0
LINE
8
BLACK
6
CONTINUOUS
10
1.5687
20
0.762913
11
1.5313
21
0.762913
0
LINE
8
BLACK
6
CONTINUOUS
10
1.5313
20
0.762913
11
1.52753
21
0.763663
0
LINE
8
BLACK
6
CONTINUOUS
10
1.52753
20
0.763663
11
1.52434
21
0.765796
0
LINE
8
BLACK
6
CONTINUOUS
10
1.52434
20
0.765796
11
1.52221
21
0.768989
0
LINE
8
BLACK
6
CONTINUOUS
10
1.52221
20
0.768989
11
1.52146
21
0.772756
0
LINE
8
BLACK
6
CONTINUOUS
10
1.52146
20
0.772756
11
1.52146
21
0.792441
0
LINE
8
BLACK
6
CONTINUOUS
10
1.52146
20
0.792441
11
1.52221
21
0.796208
0
LINE
8
BLACK
6
CONTINUOUS
10
1.52221
20
0.796208
11
1.52434
21
0.799401
0
LINE
8
BLACK
6
CONTINUOUS
10
1.52434
20
0.799401
11
1.52753
21
0.801534
0
LINE
8
BLACK
6
CONTINUOUS
10
1.52753
20
0.801534
11
1.5313
21
0.802283
0
LINE
8
BLACK
6
CONTINUOUS
10
1.5313
20
0.802283
11
1.5687
21
0.802283
0
LINE
8
BLACK
6
CONTINUOUS
10
1.5687
20
0.802283
11
1.57247
21
0.801534
0
LINE
8
BLACK
6
CONTINUOUS
10
1.04148
20
0.812853
11
1.04468
21
0.81072
0
LINE
8
BLACK
6
CONTINUOUS
10
1.04468
20
0.81072
11
1.04681
21
0.807526
0
LINE
8
BLACK
6
CONTINUOUS
10
1.04681
20
0.807526
11
1.04756
21
0.80376
0
LINE
8
BLACK
6
CONTINUOUS
10
1.04756
20
0.80376
11
1.04756
21
0.783091
0
LINE
8
BLACK
6
CONTINUOUS
10
1.04756
20
0.783091
11
1.04681
21
0.779324
0
LINE
8
BLACK
6
CONTINUOUS
10
1.04681
20
0.779324
11
1.04468
21
0.776131
0
LINE
8
BLACK
6
CONTINUOUS
10
1.04468
20
0.776131
11
1.04148
21
0.773997
0
LINE
8
BLACK
6
CONTINUOUS
10
1.04148
20
0.773997
11
1.03772
21
0.773248
0
LINE
8
BLACK
6
CONTINUOUS
10
1.03772
20
0.773248
11
1.00228
21
0.773248
0
LINE
8
BLACK
6
CONTINUOUS
10
1.00228
20
0.773248
11
0.998517
21
0.773997
0
LINE
8
BLACK
6
CONTINUOUS
10
0.998517
20
0.773997
11
0.995324
21
0.776131
0
LINE
8
BLACK
6
CONTINUOUS
10
0.995324
20
0.776131
11
0.99319
21
0.779324
0
LINE
8
BLACK
6
CONTINUOUS
10
0.99319
20
0.779324
11
0.992441
21
0.783091
0
LINE
8
BLACK
6
CONTINUOUS
10
0.992441
20
0.783091
11
0.992441
21
0.80376
0
LINE
8
BLACK
6
CONTINUOUS
10
0.992441
20
0.80376
11
0.99319
21
0.807526
0
LINE
8
BLACK
6
CONTINUOUS
10
0.99319
20
0.807526
11
0.995324
21
0.81072
0
LINE
8
BLACK
6
CONTINUOUS
10
0.995324
20
0.81072
11
0.998517
21
0.812853
0
LINE
8
BLACK
6
CONTINUOUS
10
0.998517
20
0.812853
11
1.00228
21
0.813602
0
LINE
8
BLACK
6
CONTINUOUS
10
1.00228
20
0.813602
11
1.03772
21
0.813602
0
LINE
8
BLACK
6
CONTINUOUS
10
1.03772
20
0.813602
11
1.04148
21
0.812853
0
LINE
8
BLACK
6
CONTINUOUS
10
1.8
20
0.79
11
1.74
21
0.79
0
LINE
8
BLACK
6
CONTINUOUS
10
1.74
20
0.79
11
1.74
21
0.85
0
LINE
8
BLACK
6
CONTINUOUS
10
1.74
20
0.85
11
1.8
21
0.85
0
LINE
8
BLACK
6
CONTINUOUS
10
1.8
20
0.85
11
1.8
21
0.79
0
LINE
8
BLACK
6
CONTINUOUS
10
1.9
20
0.79
11
1.84
21
0.79
0
LINE
8
BLACK
6
CONTINUOUS
10
1.84
20
0.79
11
1.84
21
0.85
0
LINE
8
BLACK
6
CONTINUOUS
10
1.84
20
0.85
11
1.9
21
0.85
0
LINE
8
BLACK
6
CONTINUOUS
10
1.9
20
0.85
11
1.9
21
0.79
0
LINE
8
BLACK
6
CONTINUOUS
10
0.188176
20
0.85681
11
0.191369
21
0.854676
0
LINE
8
BLACK
6
CONTINUOUS
10
0.191369
20
0.854676
11
0.193503
21
0.851483
0
LINE
8
BLACK
6
CONTINUOUS
10
0.193503
20
0.851483
11
0.194252
21
0.847717
0
LINE
8
BLACK
6
CONTINUOUS
10
0.194252
20
0.847717
11
0.194252
21
0.812283
0
LINE
8
BLACK
6
CONTINUOUS
10
0.194252
20
0.812283
11
0.193503
21
0.808517
0
LINE
8
BLACK
6
CONTINUOUS
10
0.193503
20
0.808517
11
0.191369
21
0.805324
0
LINE
8
BLACK
6
CONTINUOUS
10
0.191369
20
0.805324
11
0.188176
21
0.80319
0
LINE
8
BLACK
6
CONTINUOUS
10
0.188176
20
0.80319
11
0.184409
21
0.802441
0
LINE
8
BLACK
6
CONTINUOUS
10
0.184409
20
0.802441
11
0.16374
21
0.802441
0
LINE
8
BLACK
6
CONTINUOUS
10
0.16374
20
0.802441
11
0.159974
21
0.80319
0
LINE
8
BLACK
6
CONTINUOUS
10
0.159974
20
0.80319
11
0.15678
21
0.805324
0
LINE
8
BLACK
6
CONTINUOUS
10
0.15678
20
0.805324
11
0.154647
21
0.808517
0
LINE
8
BLACK
6
CONTINUOUS
10
0.154647
20
0.808517
11
0.153898
21
0.812283
0
LINE
8
BLACK
6
CONTINUOUS
10
0.153898
20
0.812283
11
0.153898
21
0.847717
0
LINE
8
BLACK
6
CONTINUOUS
10
0.153898
20
0.847717
11
0.154647
21
0.851483
0
LINE
8
BLACK
6
CONTINUOUS
10
0.154647
20
0.851483
11
0.15678
21
0.854676
0
LINE
8
BLACK
6
CONTINUOUS
10
0.15678
20
0.854676
11
0.159974
21
0.85681
0
LINE
8
BLACK
6
CONTINUOUS
10
0.159974
20
0.85681
11
0.16374
21
0.857559
0
LINE
8
BLACK
6
CONTINUOUS
10
0.16374
20
0.857559
11
0.184409
21
0.857559
0
LINE
8
BLACK
6
CONTINUOUS
10
0.184409
20
0.857559
11
0.188176
21
0.85681
0
LINE
8
BLACK
6
CONTINUOUS
10
0.260026
20
0.85681
11
0.26322
21
0.854676
0
LINE
8
BLACK
6
CONTINUOUS
10
0.26322
20
0.854676
11
0.265353
21
0.851483
0
LINE
8
BLACK
6
CONTINUOUS
10
0.265353
20
0.851483
11
0.266102
21
0.847717
0
LINE
8
BLACK
6
CONTINUOUS
10
0.266102
20
0.847717
11
0.266102
21
0.812283
0
LINE
8
BLACK
6
CONTINUOUS
10
0.266102
20
0.812283
11
0.265353
21
0.808517
0
LINE
8
BLACK
6
CONTINUOUS
10
0.265353
20
0.808517
11
0.26322
21
0.805324
0
LINE
8
BLACK
6
CONTINUOUS
10
0.26322
20
0.805324
11
0.260026
21
0.80319
0
LINE
8
BLACK
6
CONTINUOUS
10
0.260026
20
0.80319
11
0.25626
21
0.802441
0
LINE
8
BLACK
6
CONTINUOUS
10
0.25626
20
0.802441
11
0.235591
21
0.802441
0
LINE
8
BLACK
6
CONTINUOUS
10
0.235591
20
0.802441
11
0.231824
21
0.80319
0
LINE
8
BLACK
6
CONTINUOUS
10
0.231824
20
0.80319
11
0.228631
21
0.805324
0
LINE
8
BLACK
6
CONTINUOUS
10
0.228631
20
0.805324
11
0.226497
21
0.808517
0
LINE
8
BLACK
6
CONTINUOUS
10
0.226497
20
0.808517
11
0.225748
21
0.812283
0
LINE
8
BLACK
6
CONTINUOUS
10
0.225748
20
0.812283
11
0.225748
21
0.847717
0
LINE
8
BLACK
6
CONTINUOUS
10
0.225748
20
0.847717
11
0.226497
21
0.851483
0
LINE
8
BLACK
6
CONTINUOUS
10
0.226497
20
0.851483
11
0.228631
21
0.854676
0
LINE
8
BLACK
6
CONTINUOUS
10
0.228631
20
0.854676
11
0.231824
21
0.85681
0
LINE
8
BLACK
6
CONTINUOUS
10
0.231824
20
0.85681
11
0.235591
21
0.857559
0
LINE
8
BLACK
6
CONTINUOUS
10
0.235591
20
0.857559
11
0.25626
21
0.857559
0
LINE
8
BLACK
6
CONTINUOUS
10
0.25626
20
0.857559
11
0.260026
21
0.85681
0
LINE
8
BLACK
6
CONTINUOUS
10
1.32621
20
0.867794
11
1.3294
21
0.865661
0
LINE
8
BLACK
6
CONTINUOUS
10
1.3294
20
0.865661
11
1.33153
21
0.862467
0
LINE
8
BLACK
6
CONTINUOUS
10
1.33153
20
0.862467
11
1.33228
21
0.858701
0
LINE
8
BLACK
6
CONTINUOUS
10
1.33228
20
0.858701
11
1.33228
21
0.821299
0
LINE
8
BLACK
6
CONTINUOUS
10
1.33228
20
0.821299
11
1.33153
21
0.817533
0
LINE
8
BLACK
6
CONTINUOUS
10
1.33153
20
0.817533
11
1.3294
21
0.814339
0
LINE
8
BLACK
6
CONTINUOUS
10
1.3294
20
0.814339
11
1.32621
21
0.812206
0
LINE
8
BLACK
6
CONTINUOUS
10
1.32621
20
0.812206
11
1.32244
21
0.811457
0
LINE
8
BLACK
6
CONTINUOUS
10
1.32244
20
0.811457
11
1.30276
21
0.811457
0
LINE
8
BLACK
6
CONTINUOUS
10
1.30276
20
0.811457
11
1.29899
21
0.812206
0
LINE
8
BLACK
6
CONTINUOUS
10
1.29899
20
0.812206
11
1.2958
21
0.814339
0
LINE
8
BLACK
6
CONTINUOUS
10
1.2958
20
0.814339
11
1.29366
21
0.817533
0
LINE
8
BLACK
6
CONTINUOUS
10
1.29366
20
0.817533
11
1.29291
21
0.821299
0
LINE
8
BLACK
6
CONTINUOUS
10
1.29291
20
0.821299
11
1.29291
21
0.858701
0
LINE
8
BLACK
6
CONTINUOUS
10
1.29291
20
0.858701
11
1.29366
21
0.862467
0
LINE
8
BLACK
6
CONTINUOUS
10
1.29366
20
0.862467
11
1.2958
21
0.865661
0
LINE
8
BLACK
6
CONTINUOUS
10
1.2958
20
0.865661
11
1.29899
21
0.867794
0
LINE
8
BLACK
6
CONTINUOUS
10
1.29899
20
0.867794
11
1.30276
21
0.868543
0
LINE
8
BLACK
6
CONTINUOUS
10
1.30276
20
0.868543
11
1.32244
21
0.868543
0
LINE
8
BLACK
6
CONTINUOUS
10
1.32244
20
0.868543
11
1.32621
21
0.867794
0
LINE
8
BLACK
6
CONTINUOUS
10
1.40101
20
0.867794
11
1.4042
21
0.865661
0
LINE
8
BLACK
6
CONTINUOUS
10
1.4042
20
0.865661
11
1.40634
21
0.862467
0
LINE
8
BLACK
6
CONTINUOUS
10
1.40634
20
0.862467
11
1.40709
21
0.858701
0
LINE
8
BLACK
6
CONTINUOUS
10
1.40709
20
0.858701
11
1.40709
21
0.821299
0
LINE
8
BLACK
6
CONTINUOUS
10
1.40709
20
0.821299
11
1.40634
21
0.817533
0
LINE
8
BLACK
6
CONTINUOUS
10
1.40634
20
0.817533
11
1.4042
21
0.814339
0
LINE
8
BLACK
6
CONTINUOUS
10
1.4042
20
0.814339
11
1.40101
21
0.812206
0
LINE
8
BLACK
6
CONTINUOUS
10
1.40101
20
0.812206
11
1.39724
21
0.811457
0
LINE
8
BLACK
6
CONTINUOUS
10
1.39724
20
0.811457
11
1.37756
21
0.811457
0
LINE
8
BLACK
6
CONTINUOUS
10
1.37756
20
0.811457
11
1.37379
21
0.812206
0
LINE
8
BLACK
6
CONTINUOUS
10
1.37379
20
0.812206
11
1.3706
21
0.814339
0
LINE
8
BLACK
6
CONTINUOUS
10
1.3706
20
0.814339
11
1.36847
21
0.817533
0
LINE
8
BLACK
6
CONTINUOUS
10
1.36847
20
0.817533
11
1.36772
21
0.821299
0
LINE
8
BLACK
6
CONTINUOUS
10
1.36772
20
0.821299
11
1.36772
21
0.858701
0
LINE
8
BLACK
6
CONTINUOUS
10
1.36772
20
0.858701
11
1.36847
21
0.862467
0
LINE
8
BLACK
6
CONTINUOUS
10
1.36847
20
0.862467
11
1.3706
21
0.865661
0
LINE
8
BLACK
6
CONTINUOUS
10
1.3706
20
0.865661
11
1.37379
21
0.867794
0
LINE
8
BLACK
6
CONTINUOUS
10
1.37379
20
0.867794
11
1.37756
21
0.868543
0
LINE
8
BLACK
6
CONTINUOUS
10
1.37756
20
0.868543
11
1.39724
21
0.868543
0
LINE
8
BLACK
6
CONTINUOUS
10
1.39724
20
0.868543
11
1.40101
21
0.867794
0
LINE
8
BLACK
6
CONTINUOUS
10
0.472467
20
0.851534
11
0.475661
21
0.849401
0
LINE
8
BLACK
6
CONTINUOUS
10
0.475661
20
0.849401
11
0.477794
21
0.846208
0
LINE
8
BLACK
6
CONTINUOUS
10
0.477794
20
0.846208
11
0.478543
21
0.842441
0
LINE
8
BLACK
6
CONTINUOUS
10
0.478543
20
0.842441
11
0.478543
21
0.822756
0
LINE
8
BLACK
6
CONTINUOUS
10
0.478543
20
0.822756
11
0.477794
21
0.818989
0
LINE
8
BLACK
6
CONTINUOUS
10
0.477794
20
0.818989
11
0.475661
21
0.815796
0
LINE
8
BLACK
6
CONTINUOUS
10
0.475661
20
0.815796
11
0.472467
21
0.813663
0
LINE
8
BLACK
6
CONTINUOUS
10
0.472467
20
0.813663
11
0.468701
21
0.812913
0
LINE
8
BLACK
6
CONTINUOUS
10
0.468701
20
0.812913
11
0.431299
21
0.812913
0
LINE
8
BLACK
6
CONTINUOUS
10
0.431299
20
0.812913
11
0.427533
21
0.813663
0
LINE
8
BLACK
6
CONTINUOUS
10
0.427533
20
0.813663
11
0.424339
21
0.815796
0
LINE
8
BLACK
6
CONTINUOUS
10
0.424339
20
0.815796
11
0.422206
21
0.818989
0
LINE
8
BLACK
6
CONTINUOUS
10
0.422206
20
0.818989
11
0.421457
21
0.822756
0
LINE
8
BLACK
6
CONTINUOUS
10
0.421457
20
0.822756
11
0.421457
21
0.842441
0
LINE
8
BLACK
6
CONTINUOUS
10
0.421457
20
0.842441
11
0.422206
21
0.846208
0
LINE
8
BLACK
6
CONTINUOUS
10
0.422206
20
0.846208
11
0.424339
21
0.849401
0
LINE
8
BLACK
6
CONTINUOUS
10
0.424339
20
0.849401
11
0.427533
21
0.851534
0
LINE
8
BLACK
6
CONTINUOUS
10
0.427533
20
0.851534
11
0.431299
21
0.852283
0
LINE
8
BLACK
6
CONTINUOUS
10
0.431299
20
0.852283
11
0.468701
21
0.852283
0
LINE
8
BLACK
6
CONTINUOUS
10
0.468701
20
0.852283
11
0.472467
21
0.851534
0
LINE
8
BLACK
6
CONTINUOUS
10
0.551483
20
0.853503
11
0.554676
21
0.851369
0
LINE
8
BLACK
6
CONTINUOUS
10
0.554676
20
0.851369
11
0.55681
21
0.848176
0
LINE
8
BLACK
6
CONTINUOUS
10
0.55681
20
0.848176
11
0.557559
21
0.844409
0
LINE
8
BLACK
6
CONTINUOUS
10
0.557559
20
0.844409
11
0.557559
21
0.82374
0
LINE
8
BLACK
6
CONTINUOUS
10
0.557559
20
0.82374
11
0.55681
21
0.819974
0
LINE
8
BLACK
6
CONTINUOUS
10
0.55681
20
0.819974
11
0.554676
21
0.81678
0
LINE
8
BLACK
6
CONTINUOUS
10
0.554676
20
0.81678
11
0.551483
21
0.814647
0
LINE
8
BLACK
6
CONTINUOUS
10
0.551483
20
0.814647
11
0.547717
21
0.813898
0
LINE
8
BLACK
6
CONTINUOUS
10
0.547717
20
0.813898
11
0.512283
21
0.813898
0
LINE
8
BLACK
6
CONTINUOUS
10
0.512283
20
0.813898
11
0.508517
21
0.814647
0
LINE
8
BLACK
6
CONTINUOUS
10
0.508517
20
0.814647
11
0.505324
21
0.81678
0
LINE
8
BLACK
6
CONTINUOUS
10
0.505324
20
0.81678
11
0.50319
21
0.819974
0
LINE
8
BLACK
6
CONTINUOUS
10
0.50319
20
0.819974
11
0.502441
21
0.82374
0
LINE
8
BLACK
6
CONTINUOUS
10
0.502441
20
0.82374
11
0.502441
21
0.844409
0
LINE
8
BLACK
6
CONTINUOUS
10
0.502441
20
0.844409
11
0.50319
21
0.848176
0
LINE
8
BLACK
6
CONTINUOUS
10
0.50319
20
0.848176
11
0.505324
21
0.851369
0
LINE
8
BLACK
6
CONTINUOUS
10
0.505324
20
0.851369
11
0.508517
21
0.853503
0
LINE
8
BLACK
6
CONTINUOUS
10
0.508517
20
0.853503
11
0.512283
21
0.854252
0
LINE
8
BLACK
6
CONTINUOUS
10
0.512283
20
0.854252
11
0.547717
21
0.854252
0
LINE
8
BLACK
6
CONTINUOUS
10
0.547717
20
0.854252
11
0.551483
21
0.853503
0
LINE
8
BLACK
6
CONTINUOUS
10
0.662047
20
0.819803
11
0.583307
21
0.819803
0
LINE
8
BLACK
6
CONTINUOUS
10
0.583307
20
0.819803
11
0.583307
21
0.845394
0
LINE
8
BLACK
6
CONTINUOUS
10
0.583307
20
0.845394
11
0.662047
21
0.845394
0
LINE
8
BLACK
6
CONTINUOUS
10
0.662047
20
0.845394
11
0.662047
21
0.819803
0
LINE
8
BLACK
6
CONTINUOUS
10
0.796693
20
0.819803
11
0.717953
21
0.819803
0
LINE
8
BLACK
6
CONTINUOUS
10
0.717953
20
0.819803
11
0.717953
21
0.845394
0
LINE
8
BLACK
6
CONTINUOUS
10
0.717953
20
0.845394
11
0.796693
21
0.845394
0
LINE
8
BLACK
6
CONTINUOUS
10
0.796693
20
0.845394
11
0.796693
21
0.819803
0
LINE
8
BLACK
6
CONTINUOUS
10
1.57247
20
0.876337
11
1.57566
21
0.874204
0
LINE
8
BLACK
6
CONTINUOUS
10
1.57566
20
0.874204
11
1.57779
21
0.871011
0
LINE
8
BLACK
6
CONTINUOUS
10
1.57779
20
0.871011
11
1.57854
21
0.867244
0
LINE
8
BLACK
6
CONTINUOUS
10
1.57854
20
0.867244
11
1.57854
21
0.847559
0
LINE
8
BLACK
6
CONTINUOUS
10
1.57854
20
0.847559
11
1.57779
21
0.843792
0
LINE
8
BLACK
6
CONTINUOUS
10
1.57779
20
0.843792
11
1.57566
21
0.840599
0
LINE
8
BLACK
6
CONTINUOUS
10
1.57566
20
0.840599
11
1.57247
21
0.838466
0
LINE
8
BLACK
6
CONTINUOUS
10
1.57247
20
0.838466
11
1.5687
21
0.837717
0
LINE
8
BLACK
6
CONTINUOUS
10
1.5687
20
0.837717
11
1.5313
21
0.837717
0
LINE
8
BLACK
6
CONTINUOUS
10
1.5313
20
0.837717
11
1.52753
21
0.838466
0
LINE
8
BLACK
6
CONTINUOUS
10
1.52753
20
0.838466
11
1.52434
21
0.840599
0
LINE
8
BLACK
6
CONTINUOUS
10
1.52434
20
0.840599
11
1.52221
21
0.843792
0
LINE
8
BLACK
6
CONTINUOUS
10
1.52221
20
0.843792
11
1.52146
21
0.847559
0
LINE
8
BLACK
6
CONTINUOUS
10
1.52146
20
0.847559
11
1.52146
21
0.867244
0
LINE
8
BLACK
6
CONTINUOUS
10
1.52146
20
0.867244
11
1.52221
21
0.871011
0
LINE
8
BLACK
6
CONTINUOUS
10
1.52221
20
0.871011
11
1.52434
21
0.874204
0
LINE
8
BLACK
6
CONTINUOUS
10
1.52434
20
0.874204
11
1.52753
21
0.876337
0
LINE
8
BLACK
6
CONTINUOUS
10
1.52753
20
0.876337
11
1.5313
21
0.877087
0
LINE
8
BLACK
6
CONTINUOUS
10
1.5313
20
0.877087
11
1.5687
21
0.877087
0
LINE
8
BLACK
6
CONTINUOUS
10
1.5687
20
0.877087
11
1.57247
21
0.876337
0
LINE
8
BLACK
6
CONTINUOUS
10
0.858176
20
0.89681
11
0.861369
21
0.894676
0
LINE
8
BLACK
6
CONTINUOUS
10
0.861369
20
0.894676
11
0.863503
21
0.891483
0
LINE
8
BLACK
6
CONTINUOUS
10
0.863503
20
0.891483
11
0.864252
21
0.887717
0
LINE
8
BLACK
6
CONTINUOUS
10
0.864252
20
0.887717
11
0.864252
21
0.852283
0
LINE
8
BLACK
6
CONTINUOUS
10
0.864252
20
0.852283
11
0.863503
21
0.848517
0
LINE
8
BLACK
6
CONTINUOUS
10
0.863503
20
0.848517
11
0.861369
21
0.845324
0
LINE
8
BLACK
6
CONTINUOUS
10
0.861369
20
0.845324
11
0.858176
21
0.84319
0
LINE
8
BLACK
6
CONTINUOUS
10
0.858176
20
0.84319
11
0.854409
21
0.842441
0
LINE
8
BLACK
6
CONTINUOUS
10
0.854409
20
0.842441
11
0.83374
21
0.842441
0
LINE
8
BLACK
6
CONTINUOUS
10
0.83374
20
0.842441
11
0.829974
21
0.84319
0
LINE
8
BLACK
6
CONTINUOUS
10
0.829974
20
0.84319
11
0.82678
21
0.845324
0
LINE
8
BLACK
6
CONTINUOUS
10
0.82678
20
0.845324
11
0.824647
21
0.848517
0
LINE
8
BLACK
6
CONTINUOUS
10
0.824647
20
0.848517
11
0.823898
21
0.852283
0
LINE
8
BLACK
6
CONTINUOUS
10
0.823898
20
0.852283
11
0.823898
21
0.887717
0
LINE
8
BLACK
6
CONTINUOUS
10
0.823898
20
0.887717
11
0.824647
21
0.891483
0
LINE
8
BLACK
6
CONTINUOUS
10
0.824647
20
0.891483
11
0.82678
21
0.894676
0
LINE
8
BLACK
6
CONTINUOUS
10
0.82678
20
0.894676
11
0.829974
21
0.89681
0
LINE
8
BLACK
6
CONTINUOUS
10
0.829974
20
0.89681
11
0.83374
21
0.897559
0
LINE
8
BLACK
6
CONTINUOUS
10
0.83374
20
0.897559
11
0.854409
21
0.897559
0
LINE
8
BLACK
6
CONTINUOUS
10
0.854409
20
0.897559
11
0.858176
21
0.89681
0
LINE
8
BLACK
6
CONTINUOUS
10
0.930026
20
0.89681
11
0.93322
21
0.894676
0
LINE
8
BLACK
6
CONTINUOUS
10
0.93322
20
0.894676
11
0.935353
21
0.891483
0
LINE
8
BLACK
6
CONTINUOUS
10
0.935353
20
0.891483
11
0.936102
21
0.887717
0
LINE
8
BLACK
6
CONTINUOUS
10
0.936102
20
0.887717
11
0.936102
21
0.852283
0
LINE
8
BLACK
6
CONTINUOUS
10
0.936102
20
0.852283
11
0.935353
21
0.848517
0
LINE
8
BLACK
6
CONTINUOUS
10
0.935353
20
0.848517
11
0.93322
21
0.845324
0
LINE
8
BLACK
6
CONTINUOUS
10
0.93322
20
0.845324
11
0.930026
21
0.84319
0
LINE
8
BLACK
6
CONTINUOUS
10
0.930026
20
0.84319
11
0.92626
21
0.842441
0
LINE
8
BLACK
6
CONTINUOUS
10
0.92626
20
0.842441
11
0.905591
21
0.842441
0
LINE
8
BLACK
6
CONTINUOUS
10
0.905591
20
0.842441
11
0.901824
21
0.84319
0
LINE
8
BLACK
6
CONTINUOUS
10
0.901824
20
0.84319
11
0.898631
21
0.845324
0
LINE
8
BLACK
6
CONTINUOUS
10
0.898631
20
0.845324
11
0.896497
21
0.848517
0
LINE
8
BLACK
6
CONTINUOUS
10
0.896497
20
0.848517
11
0.895748
21
0.852283
0
LINE
8
BLACK
6
CONTINUOUS
10
0.895748
20
0.852283
11
0.895748
21
0.887717
0
LINE
8
BLACK
6
CONTINUOUS
10
0.895748
20
0.887717
11
0.896497
21
0.891483
0
LINE
8
BLACK
6
CONTINUOUS
10
0.896497
20
0.891483
11
0.898631
21
0.894676
0
LINE
8
BLACK
6
CONTINUOUS
10
0.898631
20
0.894676
11
0.901824
21
0.89681
0
LINE
8
BLACK
6
CONTINUOUS
10
0.901824
20
0.89681
11
0.905591
21
0.897559
0
LINE
8
BLACK
6
CONTINUOUS
10
0.905591
20
0.897559
11
0.92626
21
0.897559
0
LINE
8
BLACK
6
CONTINUOUS
10
0.92626
20
0.897559
11
0.930026
21
0.89681
0
LINE
8
BLACK
6
CONTINUOUS
10
0.662047
20
0.857205
11
0.583307
21
0.857205
0
LINE
8
BLACK
6
CONTINUOUS
10
0.583307
20
0.857205
11
0.583307
21
0.882795
0
LINE
8
BLACK
6
CONTINUOUS
10
0.583307
20
0.882795
11
0.662047
21
0.882795
0
LINE
8
BLACK
6
CONTINUOUS
10
0.662047
20
0.882795
11
0.662047
21
0.857205
0
LINE
8
BLACK
6
CONTINUOUS
10
0.393701
20
0.863307
11
0.354331
21
0.863307
0
LINE
8
BLACK
6
CONTINUOUS
10
0.354331
20
0.863307
11
0.354331
21
1.01291
0
LINE
8
BLACK
6
CONTINUOUS
10
0.354331
20
1.01291
11
0.393701
21
1.01291
0
LINE
8
BLACK
6
CONTINUOUS
10
0.393701
20
1.01291
11
0.393701
21
0.863307
0
LINE
8
BLACK
6
CONTINUOUS
10
1.64567
20
0.863307
11
1.6063
21
0.863307
0
LINE
8
BLACK
6
CONTINUOUS
10
1.6063
20
0.863307
11
1.6063
21
1.01291
0
LINE
8
BLACK
6
CONTINUOUS
10
1.6063
20
1.01291
11
1.64567
21
1.01291
0
LINE
8
BLACK
6
CONTINUOUS
10
1.64567
20
1.01291
11
1.64567
21
0.863307
0
LINE
8
BLACK
6
CONTINUOUS
10
0.198306
20
0.914738
11
0.2011
21
0.912871
0
LINE
8
BLACK
6
CONTINUOUS
10
0.2011
20
0.912871
11
0.202966
21
0.910077
0
LINE
8
BLACK
6
CONTINUOUS
10
0.202966
20
0.910077
11
0.203622
21
0.906781
0
LINE
8
BLACK
6
CONTINUOUS
10
0.203622
20
0.906781
11
0.203622
21
0.889557
0
LINE
8
BLACK
6
CONTINUOUS
10
0.203622
20
0.889557
11
0.202966
21
0.886261
0
LINE
8
BLACK
6
CONTINUOUS
10
0.202966
20
0.886261
11
0.2011
21
0.883467
0
LINE
8
BLACK
6
CONTINUOUS
10
0.2011
20
0.883467
11
0.198306
21
0.8816
0
LINE
8
BLACK
6
CONTINUOUS
10
0.198306
20
0.8816
11
0.19501
21
0.880945
0
LINE
8
BLACK
6
CONTINUOUS
10
0.19501
20
0.880945
11
0.16499
21
0.880945
0
LINE
8
BLACK
6
CONTINUOUS
10
0.16499
20
0.880945
11
0.161694
21
0.8816
0
LINE
8
BLACK
6
CONTINUOUS
10
0.161694
20
0.8816
11
0.1589
21
0.883467
0
LINE
8
BLACK
6
CONTINUOUS
10
0.1589
20
0.883467
11
0.157034
21
0.886261
0
LINE
8
BLACK
6
CONTINUOUS
10
0.157034
20
0.886261
11
0.156378
21
0.889557
0
LINE
8
BLACK
6
CONTINUOUS
10
0.156378
20
0.889557
11
0.156378
21
0.906781
0
LINE
8
BLACK
6
CONTINUOUS
10
0.156378
20
0.906781
11
0.157034
21
0.910077
0
LINE
8
BLACK
6
CONTINUOUS
10
0.157034
20
0.910077
11
0.1589
21
0.912871
0
LINE
8
BLACK
6
CONTINUOUS
10
0.1589
20
0.912871
11
0.161694
21
0.914738
0
LINE
8
BLACK
6
CONTINUOUS
10
0.161694
20
0.914738
11
0.16499
21
0.915394
0
LINE
8
BLACK
6
CONTINUOUS
10
0.16499
20
0.915394
11
0.19501
21
0.915394
0
LINE
8
BLACK
6
CONTINUOUS
10
0.19501
20
0.915394
11
0.198306
21
0.914738
0
LINE
8
BLACK
6
CONTINUOUS
10
0.551483
20
0.925353
11
0.554676
21
0.92322
0
LINE
8
BLACK
6
CONTINUOUS
10
0.554676
20
0.92322
11
0.55681
21
0.920026
0
LINE
8
BLACK
6
CONTINUOUS
10
0.55681
20
0.920026
11
0.557559
21
0.91626
0
LINE
8
BLACK
6
CONTINUOUS
10
0.557559
20
0.91626
11
0.557559
21
0.895591
0
LINE
8
BLACK
6
CONTINUOUS
10
0.557559
20
0.895591
11
0.55681
21
0.891824
0
LINE
8
BLACK
6
CONTINUOUS
10
0.55681
20
0.891824
11
0.554676
21
0.888631
0
LINE
8
BLACK
6
CONTINUOUS
10
0.554676
20
0.888631
11
0.551483
21
0.886497
0
LINE
8
BLACK
6
CONTINUOUS
10
0.551483
20
0.886497
11
0.547717
21
0.885748
0
LINE
8
BLACK
6
CONTINUOUS
10
0.547717
20
0.885748
11
0.512283
21
0.885748
0
LINE
8
BLACK
6
CONTINUOUS
10
0.512283
20
0.885748
11
0.508517
21
0.886497
0
LINE
8
BLACK
6
CONTINUOUS
10
0.508517
20
0.886497
11
0.505324
21
0.888631
0
LINE
8
BLACK
6
CONTINUOUS
10
0.505324
20
0.888631
11
0.50319
21
0.891824
0
LINE
8
BLACK
6
CONTINUOUS
10
0.50319
20
0.891824
11
0.502441
21
0.895591
0
LINE
8
BLACK
6
CONTINUOUS
10
0.502441
20
0.895591
11
0.502441
21
0.91626
0
LINE
8
BLACK
6
CONTINUOUS
10
0.502441
20
0.91626
11
0.50319
21
0.920026
0
LINE
8
BLACK
6
CONTINUOUS
10
0.50319
20
0.920026
11
0.505324
21
0.92322
0
LINE
8
BLACK
6
CONTINUOUS
10
0.505324
20
0.92322
11
0.508517
21
0.925353
0
LINE
8
BLACK
6
CONTINUOUS
10
0.508517
20
0.925353
11
0.512283
21
0.926102
0
LINE
8
BLACK
6
CONTINUOUS
10
0.512283
20
0.926102
11
0.547717
21
0.926102
0
LINE
8
BLACK
6
CONTINUOUS
10
0.547717
20
0.926102
11
0.551483
21
0.925353
0
LINE
8
BLACK
6
CONTINUOUS
10
0.472467
20
0.926337
11
0.475661
21
0.924204
0
LINE
8
BLACK
6
CONTINUOUS
10
0.475661
20
0.924204
11
0.477794
21
0.921011
0
LINE
8
BLACK
6
CONTINUOUS
10
0.477794
20
0.921011
11
0.478543
21
0.917244
0
LINE
8
BLACK
6
CONTINUOUS
10
0.478543
20
0.917244
11
0.478543
21
0.897559
0
LINE
8
BLACK
6
CONTINUOUS
10
0.478543
20
0.897559
11
0.477794
21
0.893792
0
LINE
8
BLACK
6
CONTINUOUS
10
0.477794
20
0.893792
11
0.475661
21
0.890599
0
LINE
8
BLACK
6
CONTINUOUS
10
0.475661
20
0.890599
11
0.472467
21
0.888466
0
LINE
8
BLACK
6
CONTINUOUS
10
0.472467
20
0.888466
11
0.468701
21
0.887717
0
LINE
8
BLACK
6
CONTINUOUS
10
0.468701
20
0.887717
11
0.431299
21
0.887717
0
LINE
8
BLACK
6
CONTINUOUS
10
0.431299
20
0.887717
11
0.427533
21
0.888466
0
LINE
8
BLACK
6
CONTINUOUS
10
0.427533
20
0.888466
11
0.424339
21
0.890599
0
LINE
8
BLACK
6
CONTINUOUS
10
0.424339
20
0.890599
11
0.422206
21
0.893792
0
LINE
8
BLACK
6
CONTINUOUS
10
0.422206
20
0.893792
11
0.421457
21
0.897559
0
LINE
8
BLACK
6
CONTINUOUS
10
0.421457
20
0.897559
11
0.421457
21
0.917244
0
LINE
8
BLACK
6
CONTINUOUS
10
0.421457
20
0.917244
11
0.422206
21
0.921011
0
LINE
8
BLACK
6
CONTINUOUS
10
0.422206
20
0.921011
11
0.424339
21
0.924204
0
LINE
8
BLACK
6
CONTINUOUS
10
0.424339
20
0.924204
11
0.427533
21
0.926337
0
LINE
8
BLACK
6
CONTINUOUS
10
0.427533
20
0.926337
11
0.431299
21
0.927087
0
LINE
8
BLACK
6
CONTINUOUS
10
0.431299
20
0.927087
11
0.468701
21
0.927087
0
LINE
8
BLACK
6
CONTINUOUS
10
0.468701
20
0.927087
11
0.472467
21
0.926337
0
LINE
8
BLACK
6
CONTINUOUS
10
1.8
20
0.89
11
1.74
21
0.89
0
LINE
8
BLACK
6
CONTINUOUS
10
1.74
20
0.89
11
1.74
21
0.95
0
LINE
8
BLACK
6
CONTINUOUS
10
1.74
20
0.95
11
1.8
21
0.95
0
LINE
8
BLACK
6
CONTINUOUS
10
1.8
20
0.95
11
1.8
21
0.89
0
LINE
8
BLACK
6
CONTINUOUS
10
1.9
20
0.89
11
1.84
21
0.89
0
LINE
8
BLACK
6
CONTINUOUS
10
1.84
20
0.89
11
1.84
21
0.95
0
LINE
8
BLACK
6
CONTINUOUS
10
1.84
20
0.95
11
1.9
21
0.95
0
LINE
8
BLACK
6
CONTINUOUS
10
1.9
20
0.95
11
1.9
21
0.89
0
LINE
8
BLACK
6
CONTINUOUS
10
0.662047
20
0.894606
11
0.583307
21
0.894606
0
LINE
8
BLACK
6
CONTINUOUS
10
0.583307
20
0.894606
11
0.583307
21
0.920197
0
LINE
8
BLACK
6
CONTINUOUS
10
0.583307
20
0.920197
11
0.662047
21
0.920197
0
LINE
8
BLACK
6
CONTINUOUS
10
0.662047
20
0.920197
11
0.662047
21
0.894606
0
LINE
8
BLACK
6
CONTINUOUS
10
0.796693
20
0.894606
11
0.717953
21
0.894606
0
LINE
8
BLACK
6
CONTINUOUS
10
0.717953
20
0.894606
11
0.717953
21
0.920197
0
LINE
8
BLACK
6
CONTINUOUS
10
0.717953
20
0.920197
11
0.796693
21
0.920197
0
LINE
8
BLACK
6
CONTINUOUS
10
0.796693
20
0.920197
11
0.796693
21
0.894606
0
LINE
8
BLACK
6
CONTINUOUS
10
0.0821209
20
0.997601
11
0.0897424
21
0.994648
0
LINE
8
BLACK
6
CONTINUOUS
10
0.0897424
20
0.994648
11
0.0966915
21
0.990345
0
LINE
8
BLACK
6
CONTINUOUS
10
0.0966915
20
0.990345
11
0.102732
21
0.984839
0
LINE
8
BLACK
6
CONTINUOUS
10
0.102732
20
0.984839
11
0.107657
21
0.978316
0
LINE
8
BLACK
6
CONTINUOUS
10
0.107657
20
0.978316
11
0.1113
21
0.971
0
LINE
8
BLACK
6
CONTINUOUS
10
0.1113
20
0.971
11
0.113537
21
0.963139
0
LINE
8
BLACK
6
CONTINUOUS
10
0.113537
20
0.963139
11
0.114291
21
0.955
0
LINE
8
BLACK
6
CONTINUOUS
10
0.114291
20
0.955
11
0.113537
21
0.946861
0
LINE
8
BLACK
6
CONTINUOUS
10
0.113537
20
0.946861
11
0.1113
21
0.939
0
LINE
8
BLACK
6
CONTINUOUS
10
0.1113
20
0.939
11
0.107657
21
0.931684
0
LINE
8
BLACK
6
CONTINUOUS
10
0.107657
20
0.931684
11
0.102732
21
0.925161
0
LINE
8
BLACK
6
CONTINUOUS
10
0.102732
20
0.925161
11
0.0966915
21
0.919655
0
LINE
8
BLACK
6
CONTINUOUS
10
0.0966915
20
0.919655
11
0.0897424
21
0.915352
0
LINE
8
BLACK
6
CONTINUOUS
10
0.0897424
20
0.915352
11
0.0821209
21
0.912399
0
LINE
8
BLACK
6
CONTINUOUS
10
0.0821209
20
0.912399
11
0.0740867
21
0.910898
0
LINE
8
BLACK
6
CONTINUOUS
10
0.0740867
20
0.910898
11
0.0659133
21
0.910898
0
LINE
8
BLACK
6
CONTINUOUS
10
0.0659133
20
0.910898
11
0.0578791
21
0.912399
0
LINE
8
BLACK
6
CONTINUOUS
10
0.0578791
20
0.912399
11
0.0502576
21
0.915352
0
LINE
8
BLACK
6
CONTINUOUS
10
0.0502576
20
0.915352
11
0.0433085
21
0.919655
0
LINE
8
BLACK
6
CONTINUOUS
10
0.0433085
20
0.919655
11
0.0372683
21
0.925161
0
LINE
8
BLACK
6
CONTINUOUS
10
0.0372683
20
0.925161
11
0.0323428
21
0.931684
0
LINE
8
BLACK
6
CONTINUOUS
10
0.0323428
20
0.931684
11
0.0286996
21
0.939
0
LINE
8
BLACK
6
CONTINUOUS
10
0.0286996
20
0.939
11
0.0264628
21
0.946861
0
LINE
8
BLACK
6
CONTINUOUS
10
0.0264628
20
0.946861
11
0.0257087
21
0.955
0
LINE
8
BLACK
6
CONTINUOUS
10
0.0257087
20
0.955
11
0.0264628
21
0.963139
0
LINE
8
BLACK
6
CONTINUOUS
10
0.0264628
20
0.963139
11
0.0286996
21
0.971
0
LINE
8
BLACK
6
CONTINUOUS
10
0.0286996
20
0.971
11
0.0323428
21
0.978316
0
LINE
8
BLACK
6
CONTINUOUS
10
0.0323428
20
0.978316
11
0.0372683
21
0.984839
0
LINE
8
BLACK
6
CONTINUOUS
10
0.0372683
20
0.984839
11
0.0433085
21
0.990345
0
LINE
8
BLACK
6
CONTINUOUS
10
0.0433085
20
0.990345
11
0.0502576
21
0.994648
0
LINE
8
BLACK
6
CONTINUOUS
10
0.0502576
20
0.994648
11
0.0578791
21
0.997601
0
LINE
8
BLACK
6
CONTINUOUS
10
0.0578791
20
0.997601
11
0.0659133
21
0.999102
0
LINE
8
BLACK
6
CONTINUOUS
10
0.0659133
20
0.999102
11
0.0740867
21
0.999102
0
LINE
8
BLACK
6
CONTINUOUS
10
0.0740867
20
0.999102
11
0.0821209
21
0.997601
0
LINE
8
BLACK
6
CONTINUOUS
10
0.282121
20
0.997601
11
0.289742
21
0.994648
0
LINE
8
BLACK
6
CONTINUOUS
10
0.289742
20
0.994648
11
0.296691
21
0.990345
0
LINE
8
BLACK
6
CONTINUOUS
10
0.296691
20
0.990345
11
0.302732
21
0.984839
0
LINE
8
BLACK
6
CONTINUOUS
10
0.302732
20
0.984839
11
0.307657
21
0.978316
0
LINE
8
BLACK
6
CONTINUOUS
10
0.307657
20
0.978316
11
0.3113
21
0.971
0
LINE
8
BLACK
6
CONTINUOUS
10
0.3113
20
0.971
11
0.313537
21
0.963139
0
LINE
8
BLACK
6
CONTINUOUS
10
0.313537
20
0.963139
11
0.314291
21
0.955
0
LINE
8
BLACK
6
CONTINUOUS
10
0.314291
20
0.955
11
0.313537
21
0.946861
0
LINE
8
BLACK
6
CONTINUOUS
10
0.313537
20
0.946861
11
0.3113
21
0.939
0
LINE
8
BLACK
6
CONTINUOUS
10
0.3113
20
0.939
11
0.307657
21
0.931684
0
LINE
8
BLACK
6
CONTINUOUS
10
0.307657
20
0.931684
11
0.302732
21
0.925161
0
LINE
8
BLACK
6
CONTINUOUS
10
0.302732
20
0.925161
11
0.296691
21
0.919655
0
LINE
8
BLACK
6
CONTINUOUS
10
0.296691
20
0.919655
11
0.289742
21
0.915352
0
LINE
8
BLACK
6
CONTINUOUS
10
0.289742
20
0.915352
11
0.282121
21
0.912399
0
LINE
8
BLACK
6
CONTINUOUS
10
0.282121
20
0.912399
11
0.274087
21
0.910898
0
LINE
8
BLACK
6
CONTINUOUS
10
0.274087
20
0.910898
11
0.265913
21
0.910898
0
LINE
8
BLACK
6
CONTINUOUS
10
0.265913
20
0.910898
11
0.257879
21
0.912399
0
LINE
8
BLACK
6
CONTINUOUS
10
0.257879
20
0.912399
11
0.250258
21
0.915352
0
LINE
8
BLACK
6
CONTINUOUS
10
0.250258
20
0.915352
11
0.243309
21
0.919655
0
LINE
8
BLACK
6
CONTINUOUS
10
0.243309
20
0.919655
11
0.237268
21
0.925161
0
LINE
8
BLACK
6
CONTINUOUS
10
0.237268
20
0.925161
11
0.232343
21
0.931684
0
LINE
8
BLACK
6
CONTINUOUS
10
0.232343
20
0.931684
11
0.2287
21
0.939
0
LINE
8
BLACK
6
CONTINUOUS
10
0.2287
20
0.939
11
0.226463
21
0.946861
0
LINE
8
BLACK
6
CONTINUOUS
10
0.226463
20
0.946861
11
0.225709
21
0.955
0
LINE
8
BLACK
6
CONTINUOUS
10
0.225709
20
0.955
11
0.226463
21
0.963139
0
LINE
8
BLACK
6
CONTINUOUS
10
0.226463
20
0.963139
11
0.2287
21
0.971
0
LINE
8
BLACK
6
CONTINUOUS
10
0.2287
20
0.971
11
0.232343
21
0.978316
0
LINE
8
BLACK
6
CONTINUOUS
10
0.232343
20
0.978316
11
0.237268
21
0.984839
0
LINE
8
BLACK
6
CONTINUOUS
10
0.237268
20
0.984839
11
0.243309
21
0.990345
0
LINE
8
BLACK
6
CONTINUOUS
10
0.243309
20
0.990345
11
0.250258
21
0.994648
0
LINE
8
BLACK
6
CONTINUOUS
10
0.250258
20
0.994648
11
0.257879
21
0.997601
0
LINE
8
BLACK
6
CONTINUOUS
10
0.257879
20
0.997601
11
0.265913
21
0.999102
0
LINE
8
BLACK
6
CONTINUOUS
10
0.265913
20
0.999102
11
0.274087
21
0.999102
0
LINE
8
BLACK
6
CONTINUOUS
10
0.274087
20
0.999102
11
0.282121
21
0.997601
0
LINE
8
BLACK
6
CONTINUOUS
10
1.34094
20
0.914724
11
1.28583
21
0.914724
0
LINE
8
BLACK
6
CONTINUOUS
10
1.28583
20
0.914724
11
1.28583
21
0.926535
0
LINE
8
BLACK
6
CONTINUOUS
10
1.28583
20
0.926535
11
1.34094
21
0.926535
0
LINE
8
BLACK
6
CONTINUOUS
10
1.34094
20
0.926535
11
1.34094
21
0.914724
0
LINE
8
BLACK
6
CONTINUOUS
10
1.51417
20
0.914724
11
1.45906
21
0.914724
0
LINE
8
BLACK
6
CONTINUOUS
10
1.45906
20
0.914724
11
1.45906
21
0.926535
0
LINE
8
BLACK
6
CONTINUOUS
10
1.45906
20
0.926535
11
1.51417
21
0.926535
0
LINE
8
BLACK
6
CONTINUOUS
10
1.51417
20
0.926535
11
1.51417
21
0.914724
0
LINE
8
BLACK
6
CONTINUOUS
10
1.34094
20
0.934409
11
1.28583
21
0.934409
0
LINE
8
BLACK
6
CONTINUOUS
10
1.28583
20
0.934409
11
1.28583
21
0.94622
0
LINE
8
BLACK
6
CONTINUOUS
10
1.28583
20
0.94622
11
1.34094
21
0.94622
0
LINE
8
BLACK
6
CONTINUOUS
10
1.34094
20
0.94622
11
1.34094
21
0.934409
0
LINE
8
BLACK
6
CONTINUOUS
10
1.51417
20
0.934409
11
1.45906
21
0.934409
0
LINE
8
BLACK
6
CONTINUOUS
10
1.45906
20
0.934409
11
1.45906
21
0.94622
0
LINE
8
BLACK
6
CONTINUOUS
10
1.45906
20
0.94622
11
1.51417
21
0.94622
0
LINE
8
BLACK
6
CONTINUOUS
10
1.51417
20
0.94622
11
1.51417
21
0.934409
0
LINE
8
BLACK
6
CONTINUOUS
10
0.716208
20
1.00779
11
0.719401
21
1.00566
0
LINE
8
BLACK
6
CONTINUOUS
10
0.719401
20
1.00566
11
0.721534
21
1.00247
0
LINE
8
BLACK
6
CONTINUOUS
10
0.721534
20
1.00247
11
0.722283
21
0.998701
0
LINE
8
BLACK
6
CONTINUOUS
10
0.722283
20
0.998701
11
0.722283
21
0.961299
0
LINE
8
BLACK
6
CONTINUOUS
10
0.722283
20
0.961299
11
0.721534
21
0.957533
0
LINE
8
BLACK
6
CONTINUOUS
10
0.721534
20
0.957533
11
0.719401
21
0.954339
0
LINE
8
BLACK
6
CONTINUOUS
10
0.719401
20
0.954339
11
0.716208
21
0.952206
0
LINE
8
BLACK
6
CONTINUOUS
10
0.716208
20
0.952206
11
0.712441
21
0.951457
0
LINE
8
BLACK
6
CONTINUOUS
10
0.712441
20
0.951457
11
0.692756
21
0.951457
0
LINE
8
BLACK
6
CONTINUOUS
10
0.692756
20
0.951457
11
0.688989
21
0.952206
0
LINE
8
BLACK
6
CONTINUOUS
10
0.688989
20
0.952206
11
0.685796
21
0.954339
0
LINE
8
BLACK
6
CONTINUOUS
10
0.685796
20
0.954339
11
0.683663
21
0.957533
0
LINE
8
BLACK
6
CONTINUOUS
10
0.683663
20
0.957533
11
0.682913
21
0.961299
0
LINE
8
BLACK
6
CONTINUOUS
10
0.682913
20
0.961299
11
0.682913
21
0.998701
0
LINE
8
BLACK
6
CONTINUOUS
10
0.682913
20
0.998701
11
0.683663
21
1.00247
0
LINE
8
BLACK
6
CONTINUOUS
10
0.683663
20
1.00247
11
0.685796
21
1.00566
0
LINE
8
BLACK
6
CONTINUOUS
10
0.685796
20
1.00566
11
0.688989
21
1.00779
0
LINE
8
BLACK
6
CONTINUOUS
10
0.688989
20
1.00779
11
0.692756
21
1.00854
0
LINE
8
BLACK
6
CONTINUOUS
10
0.692756
20
1.00854
11
0.712441
21
1.00854
0
LINE
8
BLACK
6
CONTINUOUS
10
0.712441
20
1.00854
11
0.716208
21
1.00779
0
LINE
8
BLACK
6
CONTINUOUS
10
0.791011
20
1.00779
11
0.794204
21
1.00566
0
LINE
8
BLACK
6
CONTINUOUS
10
0.794204
20
1.00566
11
0.796337
21
1.00247
0
LINE
8
BLACK
6
CONTINUOUS
10
0.796337
20
1.00247
11
0.797087
21
0.998701
0
LINE
8
BLACK
6
CONTINUOUS
10
0.797087
20
0.998701
11
0.797087
21
0.961299
0
LINE
8
BLACK
6
CONTINUOUS
10
0.797087
20
0.961299
11
0.796337
21
0.957533
0
LINE
8
BLACK
6
CONTINUOUS
10
0.796337
20
0.957533
11
0.794204
21
0.954339
0
LINE
8
BLACK
6
CONTINUOUS
10
0.794204
20
0.954339
11
0.791011
21
0.952206
0
LINE
8
BLACK
6
CONTINUOUS
10
0.791011
20
0.952206
11
0.787244
21
0.951457
0
LINE
8
BLACK
6
CONTINUOUS
10
0.787244
20
0.951457
11
0.767559
21
0.951457
0
LINE
8
BLACK
6
CONTINUOUS
10
0.767559
20
0.951457
11
0.763792
21
0.952206
0
LINE
8
BLACK
6
CONTINUOUS
10
0.763792
20
0.952206
11
0.760599
21
0.954339
0
LINE
8
BLACK
6
CONTINUOUS
10
0.760599
20
0.954339
11
0.758466
21
0.957533
0
LINE
8
BLACK
6
CONTINUOUS
10
0.758466
20
0.957533
11
0.757717
21
0.961299
0
LINE
8
BLACK
6
CONTINUOUS
10
0.757717
20
0.961299
11
0.757717
21
0.998701
0
LINE
8
BLACK
6
CONTINUOUS
10
0.757717
20
0.998701
11
0.758466
21
1.00247
0
LINE
8
BLACK
6
CONTINUOUS
10
0.758466
20
1.00247
11
0.760599
21
1.00566
0
LINE
8
BLACK
6
CONTINUOUS
10
0.760599
20
1.00566
11
0.763792
21
1.00779
0
LINE
8
BLACK
6
CONTINUOUS
10
0.763792
20
1.00779
11
0.767559
21
1.00854
0
LINE
8
BLACK
6
CONTINUOUS
10
0.767559
20
1.00854
11
0.787244
21
1.00854
0
LINE
8
BLACK
6
CONTINUOUS
10
0.787244
20
1.00854
11
0.791011
21
1.00779
0
LINE
8
BLACK
6
CONTINUOUS
10
0.471483
20
0.993503
11
0.474676
21
0.991369
0
LINE
8
BLACK
6
CONTINUOUS
10
0.474676
20
0.991369
11
0.47681
21
0.988176
0
LINE
8
BLACK
6
CONTINUOUS
10
0.47681
20
0.988176
11
0.477559
21
0.984409
0
LINE
8
BLACK
6
CONTINUOUS
10
0.477559
20
0.984409
11
0.477559
21
0.96374
0
LINE
8
BLACK
6
CONTINUOUS
10
0.477559
20
0.96374
11
0.47681
21
0.959974
0
LINE
8
BLACK
6
CONTINUOUS
10
0.47681
20
0.959974
11
0.474676
21
0.95678
0
LINE
8
BLACK
6
CONTINUOUS
10
0.474676
20
0.95678
11
0.471483
21
0.954647
0
LINE
8
BLACK
6
CONTINUOUS
10
0.471483
20
0.954647
11
0.467717
21
0.953898
0
LINE
8
BLACK
6
CONTINUOUS
10
0.467717
20
0.953898
11
0.432283
21
0.953898
0
LINE
8
BLACK
6
CONTINUOUS
10
0.432283
20
0.953898
11
0.428517
21
0.954647
0
LINE
8
BLACK
6
CONTINUOUS
10
0.428517
20
0.954647
11
0.425324
21
0.95678
0
LINE
8
BLACK
6
CONTINUOUS
10
0.425324
20
0.95678
11
0.42319
21
0.959974
0
LINE
8
BLACK
6
CONTINUOUS
10
0.42319
20
0.959974
11
0.422441
21
0.96374
0
LINE
8
BLACK
6
CONTINUOUS
10
0.422441
20
0.96374
11
0.422441
21
0.984409
0
LINE
8
BLACK
6
CONTINUOUS
10
0.422441
20
0.984409
11
0.42319
21
0.988176
0
LINE
8
BLACK
6
CONTINUOUS
10
0.42319
20
0.988176
11
0.425324
21
0.991369
0
LINE
8
BLACK
6
CONTINUOUS
10
0.425324
20
0.991369
11
0.428517
21
0.993503
0
LINE
8
BLACK
6
CONTINUOUS
10
0.428517
20
0.993503
11
0.432283
21
0.994252
0
LINE
8
BLACK
6
CONTINUOUS
10
0.432283
20
0.994252
11
0.467717
21
0.994252
0
LINE
8
BLACK
6
CONTINUOUS
10
0.467717
20
0.994252
11
0.471483
21
0.993503
0
LINE
8
BLACK
6
CONTINUOUS
10
1.34094
20
0.954094
11
1.28583
21
0.954094
0
LINE
8
BLACK
6
CONTINUOUS
10
1.28583
20
0.954094
11
1.28583
21
0.965906
0
LINE
8
BLACK
6
CONTINUOUS
10
1.28583
20
0.965906
11
1.34094
21
0.965906
0
LINE
8
BLACK
6
CONTINUOUS
10
1.34094
20
0.965906
11
1.34094
21
0.954094
0
LINE
8
BLACK
6
CONTINUOUS
10
1.51417
20
0.954094
11
1.45906
21
0.954094
0
LINE
8
BLACK
6
CONTINUOUS
10
1.45906
20
0.954094
11
1.45906
21
0.965906
0
LINE
8
BLACK
6
CONTINUOUS
10
1.45906
20
0.965906
11
1.51417
21
0.965906
0
LINE
8
BLACK
6
CONTINUOUS
10
1.51417
20
0.965906
11
1.51417
21
0.954094
0
LINE
8
BLACK
6
CONTINUOUS
10
0.198306
20
0.9984
11
0.2011
21
0.996533
0
LINE
8
BLACK
6
CONTINUOUS
10
0.2011
20
0.996533
11
0.202966
21
0.993739
0
LINE
8
BLACK
6
CONTINUOUS
10
0.202966
20
0.993739
11
0.203622
21
0.990443
0
LINE
8
BLACK
6
CONTINUOUS
10
0.203622
20
0.990443
11
0.203622
21
0.973219
0
LINE
8
BLACK
6
CONTINUOUS
10
0.203622
20
0.973219
11
0.202966
21
0.969923
0
LINE
8
BLACK
6
CONTINUOUS
10
0.202966
20
0.969923
11
0.2011
21
0.967129
0
LINE
8
BLACK
6
CONTINUOUS
10
0.2011
20
0.967129
11
0.198306
21
0.965262
0
LINE
8
BLACK
6
CONTINUOUS
10
0.198306
20
0.965262
11
0.19501
21
0.964606
0
LINE
8
BLACK
6
CONTINUOUS
10
0.19501
20
0.964606
11
0.16499
21
0.964606
0
LINE
8
BLACK
6
CONTINUOUS
10
0.16499
20
0.964606
11
0.161694
21
0.965262
0
LINE
8
BLACK
6
CONTINUOUS
10
0.161694
20
0.965262
11
0.1589
21
0.967129
0
LINE
8
BLACK
6
CONTINUOUS
10
0.1589
20
0.967129
11
0.157034
21
0.969923
0
LINE
8
BLACK
6
CONTINUOUS
10
0.157034
20
0.969923
11
0.156378
21
0.973219
0
LINE
8
BLACK
6
CONTINUOUS
10
0.156378
20
0.973219
11
0.156378
21
0.990443
0
LINE
8
BLACK
6
CONTINUOUS
10
0.156378
20
0.990443
11
0.157034
21
0.993739
0
LINE
8
BLACK
6
CONTINUOUS
10
0.157034
20
0.993739
11
0.1589
21
0.996533
0
LINE
8
BLACK
6
CONTINUOUS
10
0.1589
20
0.996533
11
0.161694
21
0.9984
0
LINE
8
BLACK
6
CONTINUOUS
10
0.161694
20
0.9984
11
0.16499
21
0.999055
0
LINE
8
BLACK
6
CONTINUOUS
10
0.16499
20
0.999055
11
0.19501
21
0.999055
0
LINE
8
BLACK
6
CONTINUOUS
10
0.19501
20
0.999055
11
0.198306
21
0.9984
0
LINE
8
BLACK
6
CONTINUOUS
10
1.34094
20
0.97378
11
1.28583
21
0.97378
0
LINE
8
BLACK
6
CONTINUOUS
10
1.28583
20
0.97378
11
1.28583
21
0.985591
0
LINE
8
BLACK
6
CONTINUOUS
10
1.28583
20
0.985591
11
1.34094
21
0.985591
0
LINE
8
BLACK
6
CONTINUOUS
10
1.34094
20
0.985591
11
1.34094
21
0.97378
0
LINE
8
BLACK
6
CONTINUOUS
10
1.51417
20
0.97378
11
1.45906
21
0.97378
0
LINE
8
BLACK
6
CONTINUOUS
10
1.45906
20
0.97378
11
1.45906
21
0.985591
0
LINE
8
BLACK
6
CONTINUOUS
10
1.45906
20
0.985591
11
1.51417
21
0.985591
0
LINE
8
BLACK
6
CONTINUOUS
10
1.51417
20
0.985591
11
1.51417
21
0.97378
0
LINE
8
BLACK
6
CONTINUOUS
10
1.8
20
0.99
11
1.74
21
0.99
0
LINE
8
BLACK
6
CONTINUOUS
10
1.74
20
0.99
11
1.74
21
1.05
0
LINE
8
BLACK
6
CONTINUOUS
10
1.74
20
1.05
11
1.8
21
1.05
0
LINE
8
BLACK
6
CONTINUOUS
10
1.8
20
1.05
11
1.8
21
0.99
0
LINE
8
BLACK
6
CONTINUOUS
10
1.9
20
0.99
11
1.84
21
0.99
0
LINE
8
BLACK
6
CONTINUOUS
10
1.84
20
0.99
11
1.84
21
1.05
0
LINE
8
BLACK
6
CONTINUOUS
10
1.84
20
1.05
11
1.9
21
1.05
0
LINE
8
BLACK
6
CONTINUOUS
10
1.9
20
1.05
11
1.9
21
0.99
0
LINE
8
BLACK
6
CONTINUOUS
10
1.34094
20
0.993465
11
1.28583
21
0.993465
0
LINE
8
BLACK
6
CONTINUOUS
10
1.28583
20
0.993465
11
1.28583
21
1.00528
0
LINE
8
BLACK
6
CONTINUOUS
10
1.28583
20
1.00528
11
1.34094
21
1.00528
0
LINE
8
BLACK
6
CONTINUOUS
10
1.34094
20
1.00528
11
1.34094
21
0.993465
0
LINE
8
BLACK
6
CONTINUOUS
10
1.51417
20
0.993465
11
1.45906
21
0.993465
0
LINE
8
BLACK
6
CONTINUOUS
10
1.45906
20
0.993465
11
1.45906
21
1.00528
0
LINE
8
BLACK
6
CONTINUOUS
10
1.45906
20
1.00528
11
1.51417
21
1.00528
0
LINE
8
BLACK
6
CONTINUOUS
10
1.51417
20
1.00528
11
1.51417
21
0.993465
0
LINE
8
BLACK
6
CONTINUOUS
10
0.177873
20
1.09458
11
0.185443
21
1.09228
0
LINE
8
BLACK
6
CONTINUOUS
10
0.185443
20
1.09228
11
0.19242
21
1.08855
0
LINE
8
BLACK
6
CONTINUOUS
10
0.19242
20
1.08855
11
0.198535
21
1.08353
0
LINE
8
BLACK
6
CONTINUOUS
10
0.198535
20
1.08353
11
0.203553
21
1.07742
0
LINE
8
BLACK
6
CONTINUOUS
10
0.203553
20
1.07742
11
0.207283
21
1.07044
0
LINE
8
BLACK
6
CONTINUOUS
10
0.207283
20
1.07044
11
0.209579
21
1.06287
0
LINE
8
BLACK
6
CONTINUOUS
10
0.209579
20
1.06287
11
0.210354
21
1.055
0
LINE
8
BLACK
6
CONTINUOUS
10
0.210354
20
1.055
11
0.209579
21
1.04713
0
LINE
8
BLACK
6
CONTINUOUS
10
0.209579
20
1.04713
11
0.207283
21
1.03956
0
LINE
8
BLACK
6
CONTINUOUS
10
0.207283
20
1.03956
11
0.203553
21
1.03258
0
LINE
8
BLACK
6
CONTINUOUS
10
0.203553
20
1.03258
11
0.198535
21
1.02647
0
LINE
8
BLACK
6
CONTINUOUS
10
0.198535
20
1.02647
11
0.19242
21
1.02145
0
LINE
8
BLACK
6
CONTINUOUS
10
0.19242
20
1.02145
11
0.185443
21
1.01772
0
LINE
8
BLACK
6
CONTINUOUS
10
0.185443
20
1.01772
11
0.177873
21
1.01542
0
LINE
8
BLACK
6
CONTINUOUS
10
0.177873
20
1.01542
11
0.17
21
1.01465
0
LINE
8
BLACK
6
CONTINUOUS
10
0.17
20
1.01465
11
0.162127
21
1.01542
0
LINE
8
BLACK
6
CONTINUOUS
10
0.162127
20
1.01542
11
0.154557
21
1.01772
0
LINE
8
BLACK
6
CONTINUOUS
10
0.154557
20
1.01772
11
0.14758
21
1.02145
0
LINE
8
BLACK
6
CONTINUOUS
10
0.14758
20
1.02145
11
0.141465
21
1.02647
0
LINE
8
BLACK
6
CONTINUOUS
10
0.141465
20
1.02647
11
0.136447
21
1.03258
0
LINE
8
BLACK
6
CONTINUOUS
10
0.136447
20
1.03258
11
0.132717
21
1.03956
0
LINE
8
BLACK
6
CONTINUOUS
10
0.132717
20
1.03956
11
0.130421
21
1.04713
0
LINE
8
BLACK
6
CONTINUOUS
10
0.130421
20
1.04713
11
0.129646
21
1.055
0
LINE
8
BLACK
6
CONTINUOUS
10
0.129646
20
1.055
11
0.130421
21
1.06287
0
LINE
8
BLACK
6
CONTINUOUS
10
0.130421
20
1.06287
11
0.132717
21
1.07044
0
LINE
8
BLACK
6
CONTINUOUS
10
0.132717
20
1.07044
11
0.136447
21
1.07742
0
LINE
8
BLACK
6
CONTINUOUS
10
0.136447
20
1.07742
11
0.141465
21
1.08353
0
LINE
8
BLACK
6
CONTINUOUS
10
0.141465
20
1.08353
11
0.14758
21
1.08855
0
LINE
8
BLACK
6
CONTINUOUS
10
0.14758
20
1.08855
11
0.154557
21
1.09228
0
LINE
8
BLACK
6
CONTINUOUS
10
0.154557
20
1.09228
11
0.162127
21
1.09458
0
LINE
8
BLACK
6
CONTINUOUS
10
0.162127
20
1.09458
11
0.17
21
1.09535
0
LINE
8
BLACK
6
CONTINUOUS
10
0.17
20
1.09535
11
0.177873
21
1.09458
0
LINE
8
BLACK
6
CONTINUOUS
10
0.246208
20
1.07779
11
0.249401
21
1.07566
0
LINE
8
BLACK
6
CONTINUOUS
10
0.249401
20
1.07566
11
0.251534
21
1.07247
0
LINE
8
BLACK
6
CONTINUOUS
10
0.251534
20
1.07247
11
0.252283
21
1.0687
0
LINE
8
BLACK
6
CONTINUOUS
10
0.252283
20
1.0687
11
0.252283
21
1.0313
0
LINE
8
BLACK
6
CONTINUOUS
10
0.252283
20
1.0313
11
0.251534
21
1.02753
0
LINE
8
BLACK
6
CONTINUOUS
10
0.251534
20
1.02753
11
0.249401
21
1.02434
0
LINE
8
BLACK
6
CONTINUOUS
10
0.249401
20
1.02434
11
0.246208
21
1.02221
0
LINE
8
BLACK
6
CONTINUOUS
10
0.246208
20
1.02221
11
0.242441
21
1.02146
0
LINE
8
BLACK
6
CONTINUOUS
10
0.242441
20
1.02146
11
0.222756
21
1.02146
0
LINE
8
BLACK
6
CONTINUOUS
10
0.222756
20
1.02146
11
0.218989
21
1.02221
0
LINE
8
BLACK
6
CONTINUOUS
10
0.218989
20
1.02221
11
0.215796
21
1.02434
0
LINE
8
BLACK
6
CONTINUOUS
10
0.215796
20
1.02434
11
0.213663
21
1.02753
0
LINE
8
BLACK
6
CONTINUOUS
10
0.213663
20
1.02753
11
0.212913
21
1.0313
0
LINE
8
BLACK
6
CONTINUOUS
10
0.212913
20
1.0313
11
0.212913
21
1.0687
0
LINE
8
BLACK
6
CONTINUOUS
10
0.212913
20
1.0687
11
0.213663
21
1.07247
0
LINE
8
BLACK
6
CONTINUOUS
10
0.213663
20
1.07247
11
0.215796
21
1.07566
0
LINE
8
BLACK
6
CONTINUOUS
10
0.215796
20
1.07566
11
0.218989
21
1.07779
0
LINE
8
BLACK
6
CONTINUOUS
10
0.218989
20
1.07779
11
0.222756
21
1.07854
0
LINE
8
BLACK
6
CONTINUOUS
10
0.222756
20
1.07854
11
0.242441
21
1.07854
0
LINE
8
BLACK
6
CONTINUOUS
10
0.242441
20
1.07854
11
0.246208
21
1.07779
0
LINE
8
BLACK
6
CONTINUOUS
10
0.321011
20
1.07779
11
0.324204
21
1.07566
0
LINE
8
BLACK
6
CONTINUOUS
10
0.324204
20
1.07566
11
0.326337
21
1.07247
0
LINE
8
BLACK
6
CONTINUOUS
10
0.326337
20
1.07247
11
0.327087
21
1.0687
0
LINE
8
BLACK
6
CONTINUOUS
10
0.327087
20
1.0687
11
0.327087
21
1.0313
0
LINE
8
BLACK
6
CONTINUOUS
10
0.327087
20
1.0313
11
0.326337
21
1.02753
0
LINE
8
BLACK
6
CONTINUOUS
10
0.326337
20
1.02753
11
0.324204
21
1.02434
0
LINE
8
BLACK
6
CONTINUOUS
10
0.324204
20
1.02434
11
0.321011
21
1.02221
0
LINE
8
BLACK
6
CONTINUOUS
10
0.321011
20
1.02221
11
0.317244
21
1.02146
0
LINE
8
BLACK
6
CONTINUOUS
10
0.317244
20
1.02146
11
0.297559
21
1.02146
0
LINE
8
BLACK
6
CONTINUOUS
10
0.297559
20
1.02146
11
0.293792
21
1.02221
0
LINE
8
BLACK
6
CONTINUOUS
10
0.293792
20
1.02221
11
0.290599
21
1.02434
0
LINE
8
BLACK
6
CONTINUOUS
10
0.290599
20
1.02434
11
0.288466
21
1.02753
0
LINE
8
BLACK
6
CONTINUOUS
10
0.288466
20
1.02753
11
0.287717
21
1.0313
0
LINE
8
BLACK
6
CONTINUOUS
10
0.287717
20
1.0313
11
0.287717
21
1.0687
0
LINE
8
BLACK
6
CONTINUOUS
10
0.287717
20
1.0687
11
0.288466
21
1.07247
0
LINE
8
BLACK
6
CONTINUOUS
10
0.288466
20
1.07247
11
0.290599
21
1.07566
0
LINE
8
BLACK
6
CONTINUOUS
10
0.290599
20
1.07566
11
0.293792
21
1.07779
0
LINE
8
BLACK
6
CONTINUOUS
10
0.293792
20
1.07779
11
0.297559
21
1.07854
0
LINE
8
BLACK
6
CONTINUOUS
10
0.297559
20
1.07854
11
0.317244
21
1.07854
0
LINE
8
BLACK
6
CONTINUOUS
10
0.317244
20
1.07854
11
0.321011
21
1.07779
0
LINE
8
BLACK
6
CONTINUOUS
10
0.471483
20
1.06535
11
0.474676
21
1.06322
0
LINE
8
BLACK
6
CONTINUOUS
10
0.474676
20
1.06322
11
0.47681
21
1.06003
0
LINE
8
BLACK
6
CONTINUOUS
10
0.47681
20
1.06003
11
0.477559
21
1.05626
0
LINE
8
BLACK
6
CONTINUOUS
10
0.477559
20
1.05626
11
0.477559
21
1.03559
0
LINE
8
BLACK
6
CONTINUOUS
10
0.477559
20
1.03559
11
0.47681
21
1.03182
0
LINE
8
BLACK
6
CONTINUOUS
10
0.47681
20
1.03182
11
0.474676
21
1.02863
0
LINE
8
BLACK
6
CONTINUOUS
10
0.474676
20
1.02863
11
0.471483
21
1.0265
0
LINE
8
BLACK
6
CONTINUOUS
10
0.471483
20
1.0265
11
0.467717
21
1.02575
0
LINE
8
BLACK
6
CONTINUOUS
10
0.467717
20
1.02575
11
0.432283
21
1.02575
0
LINE
8
BLACK
6
CONTINUOUS
10
0.432283
20
1.02575
11
0.428517
21
1.0265
0
LINE
8
BLACK
6
CONTINUOUS
10
0.428517
20
1.0265
11
0.425324
21
1.02863
0
LINE
8
BLACK
6
CONTINUOUS
10
0.425324
20
1.02863
11
0.42319
21
1.03182
0
LINE
8
BLACK
6
CONTINUOUS
10
0.42319
20
1.03182
11
0.422441
21
1.03559
0
LINE
8
BLACK
6
CONTINUOUS
10
0.422441
20
1.03559
11
0.422441
21
1.05626
0
LINE
8
BLACK
6
CONTINUOUS
10
0.422441
20
1.05626
11
0.42319
21
1.06003
0
LINE
8
BLACK
6
CONTINUOUS
10
0.42319
20
1.06003
11
0.425324
21
1.06322
0
LINE
8
BLACK
6
CONTINUOUS
10
0.425324
20
1.06322
11
0.428517
21
1.06535
0
LINE
8
BLACK
6
CONTINUOUS
10
0.428517
20
1.06535
11
0.432283
21
1.0661
0
LINE
8
BLACK
6
CONTINUOUS
10
0.432283
20
1.0661
11
0.467717
21
1.0661
0
LINE
8
BLACK
6
CONTINUOUS
10
0.467717
20
1.0661
11
0.471483
21
1.06535
0
LINE
8
BLACK
6
CONTINUOUS
10
1.18148
20
1.081
11
1.18468
21
1.07887
0
LINE
8
BLACK
6
CONTINUOUS
10
1.18468
20
1.07887
11
1.18681
21
1.07568
0
LINE
8
BLACK
6
CONTINUOUS
10
1.18681
20
1.07568
11
1.18756
21
1.07191
0
LINE
8
BLACK
6
CONTINUOUS
10
1.18756
20
1.07191
11
1.18756
21
1.05124
0
LINE
8
BLACK
6
CONTINUOUS
10
1.18756
20
1.05124
11
1.18681
21
1.04747
0
LINE
8
BLACK
6
CONTINUOUS
10
1.18681
20
1.04747
11
1.18468
21
1.04428
0
LINE
8
BLACK
6
CONTINUOUS
10
1.18468
20
1.04428
11
1.18148
21
1.04215
0
LINE
8
BLACK
6
CONTINUOUS
10
1.18148
20
1.04215
11
1.17772
21
1.0414
0
LINE
8
BLACK
6
CONTINUOUS
10
1.17772
20
1.0414
11
1.14228
21
1.0414
0
LINE
8
BLACK
6
CONTINUOUS
10
1.14228
20
1.0414
11
1.13852
21
1.04215
0
LINE
8
BLACK
6
CONTINUOUS
10
1.13852
20
1.04215
11
1.13532
21
1.04428
0
LINE
8
BLACK
6
CONTINUOUS
10
1.13532
20
1.04428
11
1.13319
21
1.04747
0
LINE
8
BLACK
6
CONTINUOUS
10
1.13319
20
1.04747
11
1.13244
21
1.05124
0
LINE
8
BLACK
6
CONTINUOUS
10
1.13244
20
1.05124
11
1.13244
21
1.07191
0
LINE
8
BLACK
6
CONTINUOUS
10
1.13244
20
1.07191
11
1.13319
21
1.07568
0
LINE
8
BLACK
6
CONTINUOUS
10
1.13319
20
1.07568
11
1.13532
21
1.07887
0
LINE
8
BLACK
6
CONTINUOUS
10
1.13532
20
1.07887
11
1.13852
21
1.081
0
LINE
8
BLACK
6
CONTINUOUS
10
1.13852
20
1.081
11
1.14228
21
1.08175
0
LINE
8
BLACK
6
CONTINUOUS
10
1.14228
20
1.08175
11
1.17772
21
1.08175
0
LINE
8
BLACK
6
CONTINUOUS
10
1.17772
20
1.08175
11
1.18148
21
1.081
0
LINE
8
BLACK
6
CONTINUOUS
10
0.998708
20
1.10779
11
1.0019
21
1.10566
0
LINE
8
BLACK
6
CONTINUOUS
10
1.0019
20
1.10566
11
1.00403
21
1.10247
0
LINE
8
BLACK
6
CONTINUOUS
10
1.00403
20
1.10247
11
1.00478
21
1.0987
0
LINE
8
BLACK
6
CONTINUOUS
10
1.00478
20
1.0987
11
1.00478
21
1.0613
0
LINE
8
BLACK
6
CONTINUOUS
10
1.00478
20
1.0613
11
1.00403
21
1.05753
0
LINE
8
BLACK
6
CONTINUOUS
10
1.00403
20
1.05753
11
1.0019
21
1.05434
0
LINE
8
BLACK
6
CONTINUOUS
10
1.0019
20
1.05434
11
0.998708
21
1.05221
0
LINE
8
BLACK
6
CONTINUOUS
10
0.998708
20
1.05221
11
0.994941
21
1.05146
0
LINE
8
BLACK
6
CONTINUOUS
10
0.994941
20
1.05146
11
0.975256
21
1.05146
0
LINE
8
BLACK
6
CONTINUOUS
10
0.975256
20
1.05146
11
0.971489
21
1.05221
0
LINE
8
BLACK
6
CONTINUOUS
10
0.971489
20
1.05221
11
0.968296
21
1.05434
0
LINE
8
BLACK
6
CONTINUOUS
10
0.968296
20
1.05434
11
0.966163
21
1.05753
0
LINE
8
BLACK
6
CONTINUOUS
10
0.966163
20
1.05753
11
0.965413
21
1.0613
0
LINE
8
BLACK
6
CONTINUOUS
10
0.965413
20
1.0613
11
0.965413
21
1.0987
0
LINE
8
BLACK
6
CONTINUOUS
10
0.965413
20
1.0987
11
0.966163
21
1.10247
0
LINE
8
BLACK
6
CONTINUOUS
10
0.966163
20
1.10247
11
0.968296
21
1.10566
0
LINE
8
BLACK
6
CONTINUOUS
10
0.968296
20
1.10566
11
0.971489
21
1.10779
0
LINE
8
BLACK
6
CONTINUOUS
10
0.971489
20
1.10779
11
0.975256
21
1.10854
0
LINE
8
BLACK
6
CONTINUOUS
10
0.975256
20
1.10854
11
0.994941
21
1.10854
0
LINE
8
BLACK
6
CONTINUOUS
10
0.994941
20
1.10854
11
0.998708
21
1.10779
0
LINE
8
BLACK
6
CONTINUOUS
10
1.07351
20
1.10779
11
1.0767
21
1.10566
0
LINE
8
BLACK
6
CONTINUOUS
10
1.0767
20
1.10566
11
1.07884
21
1.10247
0
LINE
8
BLACK
6
CONTINUOUS
10
1.07884
20
1.10247
11
1.07959
21
1.0987
0
LINE
8
BLACK
6
CONTINUOUS
10
1.07959
20
1.0987
11
1.07959
21
1.0613
0
LINE
8
BLACK
6
CONTINUOUS
10
1.07959
20
1.0613
11
1.07884
21
1.05753
0
LINE
8
BLACK
6
CONTINUOUS
10
1.07884
20
1.05753
11
1.0767
21
1.05434
0
LINE
8
BLACK
6
CONTINUOUS
10
1.0767
20
1.05434
11
1.07351
21
1.05221
0
LINE
8
BLACK
6
CONTINUOUS
10
1.07351
20
1.05221
11
1.06974
21
1.05146
0
LINE
8
BLACK
6
CONTINUOUS
10
1.06974
20
1.05146
11
1.05006
21
1.05146
0
LINE
8
BLACK
6
CONTINUOUS
10
1.05006
20
1.05146
11
1.04629
21
1.05221
0
LINE
8
BLACK
6
CONTINUOUS
10
1.04629
20
1.05221
11
1.0431
21
1.05434
0
LINE
8
BLACK
6
CONTINUOUS
10
1.0431
20
1.05434
11
1.04097
21
1.05753
0
LINE
8
BLACK
6
CONTINUOUS
10
1.04097
20
1.05753
11
1.04022
21
1.0613
0
LINE
8
BLACK
6
CONTINUOUS
10
1.04022
20
1.0613
11
1.04022
21
1.0987
0
LINE
8
BLACK
6
CONTINUOUS
10
1.04022
20
1.0987
11
1.04097
21
1.10247
0
LINE
8
BLACK
6
CONTINUOUS
10
1.04097
20
1.10247
11
1.0431
21
1.10566
0
LINE
8
BLACK
6
CONTINUOUS
10
1.0431
20
1.10566
11
1.04629
21
1.10779
0
LINE
8
BLACK
6
CONTINUOUS
10
1.04629
20
1.10779
11
1.05006
21
1.10854
0
LINE
8
BLACK
6
CONTINUOUS
10
1.05006
20
1.10854
11
1.06974
21
1.10854
0
LINE
8
BLACK
6
CONTINUOUS
10
1.06974
20
1.10854
11
1.07351
21
1.10779
0
LINE
8
BLACK
6
CONTINUOUS
10
1.8
20
1.09
11
1.74
21
1.09
0
LINE
8
BLACK
6
CONTINUOUS
10
1.74
20
1.09
11
1.74
21
1.15
0
LINE
8
BLACK
6
CONTINUOUS
10
1.74
20
1.15
11
1.8
21
1.15
0
LINE
8
BLACK
6
CONTINUOUS
10
1.8
20
1.15
11
1.8
21
1.09
0
LINE
8
BLACK
6
CONTINUOUS
10
1.9
20
1.09
11
1.84
21
1.09
0
LINE
8
BLACK
6
CONTINUOUS
10
1.84
20
1.09
11
1.84
21
1.15
0
LINE
8
BLACK
6
CONTINUOUS
10
1.84
20
1.15
11
1.9
21
1.15
0
LINE
8
BLACK
6
CONTINUOUS
10
1.9
20
1.15
11
1.9
21
1.09
0
LINE
8
BLACK
6
CONTINUOUS
10
0.393701
20
1.09953
11
0.354331
21
1.09953
0
LINE
8
BLACK
6
CONTINUOUS
10
0.354331
20
1.09953
11
0.354331
21
1.24913
0
LINE
8
BLACK
6
CONTINUOUS
10
0.354331
20
1.24913
11
0.393701
21
1.24913
0
LINE
8
BLACK
6
CONTINUOUS
10
0.393701
20
1.24913
11
0.393701
21
1.09953
0
LINE
8
BLACK
6
CONTINUOUS
10
1.64567
20
1.09953
11
1.6063
21
1.09953
0
LINE
8
BLACK
6
CONTINUOUS
10
1.6063
20
1.09953
11
1.6063
21
1.24913
0
LINE
8
BLACK
6
CONTINUOUS
10
1.6063
20
1.24913
11
1.64567
21
1.24913
0
LINE
8
BLACK
6
CONTINUOUS
10
1.64567
20
1.24913
11
1.64567
21
1.09953
0
LINE
8
BLACK
6
CONTINUOUS
10
0.0821209
20
1.1976
11
0.0897424
21
1.19465
0
LINE
8
BLACK
6
CONTINUOUS
10
0.0897424
20
1.19465
11
0.0966915
21
1.19035
0
LINE
8
BLACK
6
CONTINUOUS
10
0.0966915
20
1.19035
11
0.102732
21
1.18484
0
LINE
8
BLACK
6
CONTINUOUS
10
0.102732
20
1.18484
11
0.107657
21
1.17832
0
LINE
8
BLACK
6
CONTINUOUS
10
0.107657
20
1.17832
11
0.1113
21
1.171
0
LINE
8
BLACK
6
CONTINUOUS
10
0.1113
20
1.171
11
0.113537
21
1.16314
0
LINE
8
BLACK
6
CONTINUOUS
10
0.113537
20
1.16314
11
0.114291
21
1.155
0
LINE
8
BLACK
6
CONTINUOUS
10
0.114291
20
1.155
11
0.113537
21
1.14686
0
LINE
8
BLACK
6
CONTINUOUS
10
0.113537
20
1.14686
11
0.1113
21
1.139
0
LINE
8
BLACK
6
CONTINUOUS
10
0.1113
20
1.139
11
0.107657
21
1.13168
0
LINE
8
BLACK
6
CONTINUOUS
10
0.107657
20
1.13168
11
0.102732
21
1.12516
0
LINE
8
BLACK
6
CONTINUOUS
10
0.102732
20
1.12516
11
0.0966915
21
1.11965
0
LINE
8
BLACK
6
CONTINUOUS
10
0.0966915
20
1.11965
11
0.0897424
21
1.11535
0
LINE
8
BLACK
6
CONTINUOUS
10
0.0897424
20
1.11535
11
0.0821209
21
1.1124
0
LINE
8
BLACK
6
CONTINUOUS
10
0.0821209
20
1.1124
11
0.0740867
21
1.1109
0
LINE
8
BLACK
6
CONTINUOUS
10
0.0740867
20
1.1109
11
0.0659133
21
1.1109
0
LINE
8
BLACK
6
CONTINUOUS
10
0.0659133
20
1.1109
11
0.0578791
21
1.1124
0
LINE
8
BLACK
6
CONTINUOUS
10
0.0578791
20
1.1124
11
0.0502576
21
1.11535
0
LINE
8
BLACK
6
CONTINUOUS
10
0.0502576
20
1.11535
11
0.0433085
21
1.11965
0
LINE
8
BLACK
6
CONTINUOUS
10
0.0433085
20
1.11965
11
0.0372683
21
1.12516
0
LINE
8
BLACK
6
CONTINUOUS
10
0.0372683
20
1.12516
11
0.0323428
21
1.13168
0
LINE
8
BLACK
6
CONTINUOUS
10
0.0323428
20
1.13168
11
0.0286996
21
1.139
0
LINE
8
BLACK
6
CONTINUOUS
10
0.0286996
20
1.139
11
0.0264628
21
1.14686
0
LINE
8
BLACK
6
CONTINUOUS
10
0.0264628
20
1.14686
11
0.0257087
21
1.155
0
LINE
8
BLACK
6
CONTINUOUS
10
0.0257087
20
1.155
11
0.0264628
21
1.16314
0
LINE
8
BLACK
6
CONTINUOUS
10
0.0264628
20
1.16314
11
0.0286996
21
1.171
0
LINE
8
BLACK
6
CONTINUOUS
10
0.0286996
20
1.171
11
0.0323428
21
1.17832
0
LINE
8
BLACK
6
CONTINUOUS
10
0.0323428
20
1.17832
11
0.0372683
21
1.18484
0
LINE
8
BLACK
6
CONTINUOUS
10
0.0372683
20
1.18484
11
0.0433085
21
1.19035
0
LINE
8
BLACK
6
CONTINUOUS
10
0.0433085
20
1.19035
11
0.0502576
21
1.19465
0
LINE
8
BLACK
6
CONTINUOUS
10
0.0502576
20
1.19465
11
0.0578791
21
1.1976
0
LINE
8
BLACK
6
CONTINUOUS
10
0.0578791
20
1.1976
11
0.0659133
21
1.1991
0
LINE
8
BLACK
6
CONTINUOUS
10
0.0659133
20
1.1991
11
0.0740867
21
1.1991
0
LINE
8
BLACK
6
CONTINUOUS
10
0.0740867
20
1.1991
11
0.0821209
21
1.1976
0
LINE
8
BLACK
6
CONTINUOUS
10
0.282121
20
1.1976
11
0.289742
21
1.19465
0
LINE
8
BLACK
6
CONTINUOUS
10
0.289742
20
1.19465
11
0.296691
21
1.19035
0
LINE
8
BLACK
6
CONTINUOUS
10
0.296691
20
1.19035
11
0.302732
21
1.18484
0
LINE
8
BLACK
6
CONTINUOUS
10
0.302732
20
1.18484
11
0.307657
21
1.17832
0
LINE
8
BLACK
6
CONTINUOUS
10
0.307657
20
1.17832
11
0.3113
21
1.171
0
LINE
8
BLACK
6
CONTINUOUS
10
0.3113
20
1.171
11
0.313537
21
1.16314
0
LINE
8
BLACK
6
CONTINUOUS
10
0.313537
20
1.16314
11
0.314291
21
1.155
0
LINE
8
BLACK
6
CONTINUOUS
10
0.314291
20
1.155
11
0.313537
21
1.14686
0
LINE
8
BLACK
6
CONTINUOUS
10
0.313537
20
1.14686
11
0.3113
21
1.139
0
LINE
8
BLACK
6
CONTINUOUS
10
0.3113
20
1.139
11
0.307657
21
1.13168
0
LINE
8
BLACK
6
CONTINUOUS
10
0.307657
20
1.13168
11
0.302732
21
1.12516
0
LINE
8
BLACK
6
CONTINUOUS
10
0.302732
20
1.12516
11
0.296691
21
1.11965
0
LINE
8
BLACK
6
CONTINUOUS
10
0.296691
20
1.11965
11
0.289742
21
1.11535
0
LINE
8
BLACK
6
CONTINUOUS
10
0.289742
20
1.11535
11
0.282121
21
1.1124
0
LINE
8
BLACK
6
CONTINUOUS
10
0.282121
20
1.1124
11
0.274087
21
1.1109
0
LINE
8
BLACK
6
CONTINUOUS
10
0.274087
20
1.1109
11
0.265913
21
1.1109
0
LINE
8
BLACK
6
CONTINUOUS
10
0.265913
20
1.1109
11
0.257879
21
1.1124
0
LINE
8
BLACK
6
CONTINUOUS
10
0.257879
20
1.1124
11
0.250258
21
1.11535
0
LINE
8
BLACK
6
CONTINUOUS
10
0.250258
20
1.11535
11
0.243309
21
1.11965
0
LINE
8
BLACK
6
CONTINUOUS
10
0.243309
20
1.11965
11
0.237268
21
1.12516
0
LINE
8
BLACK
6
CONTINUOUS
10
0.237268
20
1.12516
11
0.232343
21
1.13168
0
LINE
8
BLACK
6
CONTINUOUS
10
0.232343
20
1.13168
11
0.2287
21
1.139
0
LINE
8
BLACK
6
CONTINUOUS
10
0.2287
20
1.139
11
0.226463
21
1.14686
0
LINE
8
BLACK
6
CONTINUOUS
10
0.226463
20
1.14686
11
0.225709
21
1.155
0
LINE
8
BLACK
6
CONTINUOUS
10
0.225709
20
1.155
11
0.226463
21
1.16314
0
LINE
8
BLACK
6
CONTINUOUS
10
0.226463
20
1.16314
11
0.2287
21
1.171
0
LINE
8
BLACK
6
CONTINUOUS
10
0.2287
20
1.171
11
0.232343
21
1.17832
0
LINE
8
BLACK
6
CONTINUOUS
10
0.232343
20
1.17832
11
0.237268
21
1.18484
0
LINE
8
BLACK
6
CONTINUOUS
10
0.237268
20
1.18484
11
0.243309
21
1.19035
0
LINE
8
BLACK
6
CONTINUOUS
10
0.243309
20
1.19035
11
0.250258
21
1.19465
0
LINE
8
BLACK
6
CONTINUOUS
10
0.250258
20
1.19465
11
0.257879
21
1.1976
0
LINE
8
BLACK
6
CONTINUOUS
10
0.257879
20
1.1976
11
0.265913
21
1.1991
0
LINE
8
BLACK
6
CONTINUOUS
10
0.265913
20
1.1991
11
0.274087
21
1.1991
0
LINE
8
BLACK
6
CONTINUOUS
10
0.274087
20
1.1991
11
0.282121
21
1.1976
0
LINE
8
BLACK
6
CONTINUOUS
10
1.18148
20
1.15285
11
1.18468
21
1.15072
0
LINE
8
BLACK
6
CONTINUOUS
10
1.18468
20
1.15072
11
1.18681
21
1.14753
0
LINE
8
BLACK
6
CONTINUOUS
10
1.18681
20
1.14753
11
1.18756
21
1.14376
0
LINE
8
BLACK
6
CONTINUOUS
10
1.18756
20
1.14376
11
1.18756
21
1.12309
0
LINE
8
BLACK
6
CONTINUOUS
10
1.18756
20
1.12309
11
1.18681
21
1.11932
0
LINE
8
BLACK
6
CONTINUOUS
10
1.18681
20
1.11932
11
1.18468
21
1.11613
0
LINE
8
BLACK
6
CONTINUOUS
10
1.18468
20
1.11613
11
1.18148
21
1.114
0
LINE
8
BLACK
6
CONTINUOUS
10
1.18148
20
1.114
11
1.17772
21
1.11325
0
LINE
8
BLACK
6
CONTINUOUS
10
1.17772
20
1.11325
11
1.14228
21
1.11325
0
LINE
8
BLACK
6
CONTINUOUS
10
1.14228
20
1.11325
11
1.13852
21
1.114
0
LINE
8
BLACK
6
CONTINUOUS
10
1.13852
20
1.114
11
1.13532
21
1.11613
0
LINE
8
BLACK
6
CONTINUOUS
10
1.13532
20
1.11613
11
1.13319
21
1.11932
0
LINE
8
BLACK
6
CONTINUOUS
10
1.13319
20
1.11932
11
1.13244
21
1.12309
0
LINE
8
BLACK
6
CONTINUOUS
10
1.13244
20
1.12309
11
1.13244
21
1.14376
0
LINE
8
BLACK
6
CONTINUOUS
10
1.13244
20
1.14376
11
1.13319
21
1.14753
0
LINE
8
BLACK
6
CONTINUOUS
10
1.13319
20
1.14753
11
1.13532
21
1.15072
0
LINE
8
BLACK
6
CONTINUOUS
10
1.13532
20
1.15072
11
1.13852
21
1.15285
0
LINE
8
BLACK
6
CONTINUOUS
10
1.13852
20
1.15285
11
1.14228
21
1.1536
0
LINE
8
BLACK
6
CONTINUOUS
10
1.14228
20
1.1536
11
1.17772
21
1.1536
0
LINE
8
BLACK
6
CONTINUOUS
10
1.17772
20
1.1536
11
1.18148
21
1.15285
0
LINE
8
BLACK
6
CONTINUOUS
10
0.576208
20
1.18779
11
0.579401
21
1.18566
0
LINE
8
BLACK
6
CONTINUOUS
10
0.579401
20
1.18566
11
0.581534
21
1.18247
0
LINE
8
BLACK
6
CONTINUOUS
10
0.581534
20
1.18247
11
0.582283
21
1.1787
0
LINE
8
BLACK
6
CONTINUOUS
10
0.582283
20
1.1787
11
0.582283
21
1.1413
0
LINE
8
BLACK
6
CONTINUOUS
10
0.582283
20
1.1413
11
0.581534
21
1.13753
0
LINE
8
BLACK
6
CONTINUOUS
10
0.581534
20
1.13753
11
0.579401
21
1.13434
0
LINE
8
BLACK
6
CONTINUOUS
10
0.579401
20
1.13434
11
0.576208
21
1.13221
0
LINE
8
BLACK
6
CONTINUOUS
10
0.576208
20
1.13221
11
0.572441
21
1.13146
0
LINE
8
BLACK
6
CONTINUOUS
10
0.572441
20
1.13146
11
0.552756
21
1.13146
0
LINE
8
BLACK
6
CONTINUOUS
10
0.552756
20
1.13146
11
0.548989
21
1.13221
0
LINE
8
BLACK
6
CONTINUOUS
10
0.548989
20
1.13221
11
0.545796
21
1.13434
0
LINE
8
BLACK
6
CONTINUOUS
10
0.545796
20
1.13434
11
0.543663
21
1.13753
0
LINE
8
BLACK
6
CONTINUOUS
10
0.543663
20
1.13753
11
0.542913
21
1.1413
0
LINE
8
BLACK
6
CONTINUOUS
10
0.542913
20
1.1413
11
0.542913
21
1.1787
0
LINE
8
BLACK
6
CONTINUOUS
10
0.542913
20
1.1787
11
0.543663
21
1.18247
0
LINE
8
BLACK
6
CONTINUOUS
10
0.543663
20
1.18247
11
0.545796
21
1.18566
0
LINE
8
BLACK
6
CONTINUOUS
10
0.545796
20
1.18566
11
0.548989
21
1.18779
0
LINE
8
BLACK
6
CONTINUOUS
10
0.548989
20
1.18779
11
0.552756
21
1.18854
0
LINE
8
BLACK
6
CONTINUOUS
10
0.552756
20
1.18854
11
0.572441
21
1.18854
0
LINE
8
BLACK
6
CONTINUOUS
10
0.572441
20
1.18854
11
0.576208
21
1.18779
0
LINE
8
BLACK
6
CONTINUOUS
10
0.651011
20
1.18779
11
0.654204
21
1.18566
0
LINE
8
BLACK
6
CONTINUOUS
10
0.654204
20
1.18566
11
0.656337
21
1.18247
0
LINE
8
BLACK
6
CONTINUOUS
10
0.656337
20
1.18247
11
0.657087
21
1.1787
0
LINE
8
BLACK
6
CONTINUOUS
10
0.657087
20
1.1787
11
0.657087
21
1.1413
0
LINE
8
BLACK
6
CONTINUOUS
10
0.657087
20
1.1413
11
0.656337
21
1.13753
0
LINE
8
BLACK
6
CONTINUOUS
10
0.656337
20
1.13753
11
0.654204
21
1.13434
0
LINE
8
BLACK
6
CONTINUOUS
10
0.654204
20
1.13434
11
0.651011
21
1.13221
0
LINE
8
BLACK
6
CONTINUOUS
10
0.651011
20
1.13221
11
0.647244
21
1.13146
0
LINE
8
BLACK
6
CONTINUOUS
10
0.647244
20
1.13146
11
0.627559
21
1.13146
0
LINE
8
BLACK
6
CONTINUOUS
10
0.627559
20
1.13146
11
0.623792
21
1.13221
0
LINE
8
BLACK
6
CONTINUOUS
10
0.623792
20
1.13221
11
0.620599
21
1.13434
0
LINE
8
BLACK
6
CONTINUOUS
10
0.620599
20
1.13434
11
0.618466
21
1.13753
0
LINE
8
BLACK
6
CONTINUOUS
10
0.618466
20
1.13753
11
0.617717
21
1.1413
0
LINE
8
BLACK
6
CONTINUOUS
10
0.617717
20
1.1413
11
0.617717
21
1.1787
0
LINE
8
BLACK
6
CONTINUOUS
10
0.617717
20
1.1787
11
0.618466
21
1.18247
0
LINE
8
BLACK
6
CONTINUOUS
10
0.618466
20
1.18247
11
0.620599
21
1.18566
0
LINE
8
BLACK
6
CONTINUOUS
10
0.620599
20
1.18566
11
0.623792
21
1.18779
0
LINE
8
BLACK
6
CONTINUOUS
10
0.623792
20
1.18779
11
0.627559
21
1.18854
0
LINE
8
BLACK
6
CONTINUOUS
10
0.627559
20
1.18854
11
0.647244
21
1.18854
0
LINE
8
BLACK
6
CONTINUOUS
10
0.647244
20
1.18854
11
0.651011
21
1.18779
0
LINE
8
BLACK
6
CONTINUOUS
10
1.28148
20
1.201
11
1.28468
21
1.19887
0
LINE
8
BLACK
6
CONTINUOUS
10
1.28468
20
1.19887
11
1.28681
21
1.19568
0
LINE
8
BLACK
6
CONTINUOUS
10
1.28681
20
1.19568
11
1.28756
21
1.19191
0
LINE
8
BLACK
6
CONTINUOUS
10
1.28756
20
1.19191
11
1.28756
21
1.17124
0
LINE
8
BLACK
6
CONTINUOUS
10
1.28756
20
1.17124
11
1.28681
21
1.16747
0
LINE
8
BLACK
6
CONTINUOUS
10
1.28681
20
1.16747
11
1.28468
21
1.16428
0
LINE
8
BLACK
6
CONTINUOUS
10
1.28468
20
1.16428
11
1.28148
21
1.16215
0
LINE
8
BLACK
6
CONTINUOUS
10
1.28148
20
1.16215
11
1.27772
21
1.1614
0
LINE
8
BLACK
6
CONTINUOUS
10
1.27772
20
1.1614
11
1.24228
21
1.1614
0
LINE
8
BLACK
6
CONTINUOUS
10
1.24228
20
1.1614
11
1.23852
21
1.16215
0
LINE
8
BLACK
6
CONTINUOUS
10
1.23852
20
1.16215
11
1.23532
21
1.16428
0
LINE
8
BLACK
6
CONTINUOUS
10
1.23532
20
1.16428
11
1.23319
21
1.16747
0
LINE
8
BLACK
6
CONTINUOUS
10
1.23319
20
1.16747
11
1.23244
21
1.17124
0
LINE
8
BLACK
6
CONTINUOUS
10
1.23244
20
1.17124
11
1.23244
21
1.19191
0
LINE
8
BLACK
6
CONTINUOUS
10
1.23244
20
1.19191
11
1.23319
21
1.19568
0
LINE
8
BLACK
6
CONTINUOUS
10
1.23319
20
1.19568
11
1.23532
21
1.19887
0
LINE
8
BLACK
6
CONTINUOUS
10
1.23532
20
1.19887
11
1.23852
21
1.201
0
LINE
8
BLACK
6
CONTINUOUS
10
1.23852
20
1.201
11
1.24228
21
1.20175
0
LINE
8
BLACK
6
CONTINUOUS
10
1.24228
20
1.20175
11
1.27772
21
1.20175
0
LINE
8
BLACK
6
CONTINUOUS
10
1.27772
20
1.20175
11
1.28148
21
1.201
0
LINE
8
BLACK
6
CONTINUOUS
10
1.11083
20
1.24583
11
1.11403
21
1.24369
0
LINE
8
BLACK
6
CONTINUOUS
10
1.11403
20
1.24369
11
1.11616
21
1.2405
0
LINE
8
BLACK
6
CONTINUOUS
10
1.11616
20
1.2405
11
1.11691
21
1.23673
0
LINE
8
BLACK
6
CONTINUOUS
10
1.11691
20
1.23673
11
1.11691
21
1.20327
0
LINE
8
BLACK
6
CONTINUOUS
10
1.11691
20
1.20327
11
1.11616
21
1.1995
0
LINE
8
BLACK
6
CONTINUOUS
10
1.11616
20
1.1995
11
1.11403
21
1.19631
0
LINE
8
BLACK
6
CONTINUOUS
10
1.11403
20
1.19631
11
1.11083
21
1.19417
0
LINE
8
BLACK
6
CONTINUOUS
10
1.11083
20
1.19417
11
1.10707
21
1.19343
0
LINE
8
BLACK
6
CONTINUOUS
10
1.10707
20
1.19343
11
1.07163
21
1.19343
0
LINE
8
BLACK
6
CONTINUOUS
10
1.07163
20
1.19343
11
1.06787
21
1.19417
0
LINE
8
BLACK
6
CONTINUOUS
10
1.06787
20
1.19417
11
1.06467
21
1.19631
0
LINE
8
BLACK
6
CONTINUOUS
10
1.06467
20
1.19631
11
1.06254
21
1.1995
0
LINE
8
BLACK
6
CONTINUOUS
10
1.06254
20
1.1995
11
1.06179
21
1.20327
0
LINE
8
BLACK
6
CONTINUOUS
10
1.06179
20
1.20327
11
1.06179
21
1.23673
0
LINE
8
BLACK
6
CONTINUOUS
10
1.06179
20
1.23673
11
1.06254
21
1.2405
0
LINE
8
BLACK
6
CONTINUOUS
10
1.06254
20
1.2405
11
1.06467
21
1.24369
0
LINE
8
BLACK
6
CONTINUOUS
10
1.06467
20
1.24369
11
1.06787
21
1.24583
0
LINE
8
BLACK
6
CONTINUOUS
10
1.06787
20
1.24583
11
1.07163
21
1.24657
0
LINE
8
BLACK
6
CONTINUOUS
10
1.07163
20
1.24657
11
1.10707
21
1.24657
0
LINE
8
BLACK
6
CONTINUOUS
10
1.10707
20
1.24657
11
1.11083
21
1.24583
0
LINE
8
BLACK
6
CONTINUOUS
10
1.21713
20
1.24583
11
1.22033
21
1.24369
0
LINE
8
BLACK
6
CONTINUOUS
10
1.22033
20
1.24369
11
1.22246
21
1.2405
0
LINE
8
BLACK
6
CONTINUOUS
10
1.22246
20
1.2405
11
1.22321
21
1.23673
0
LINE
8
BLACK
6
CONTINUOUS
10
1.22321
20
1.23673
11
1.22321
21
1.20327
0
LINE
8
BLACK
6
CONTINUOUS
10
1.22321
20
1.20327
11
1.22246
21
1.1995
0
LINE
8
BLACK
6
CONTINUOUS
10
1.22246
20
1.1995
11
1.22033
21
1.19631
0
LINE
8
BLACK
6
CONTINUOUS
10
1.22033
20
1.19631
11
1.21713
21
1.19417
0
LINE
8
BLACK
6
CONTINUOUS
10
1.21713
20
1.19417
11
1.21337
21
1.19343
0
LINE
8
BLACK
6
CONTINUOUS
10
1.21337
20
1.19343
11
1.17793
21
1.19343
0
LINE
8
BLACK
6
CONTINUOUS
10
1.17793
20
1.19343
11
1.17417
21
1.19417
0
LINE
8
BLACK
6
CONTINUOUS
10
1.17417
20
1.19417
11
1.17097
21
1.19631
0
LINE
8
BLACK
6
CONTINUOUS
10
1.17097
20
1.19631
11
1.16884
21
1.1995
0
LINE
8
BLACK
6
CONTINUOUS
10
1.16884
20
1.1995
11
1.16809
21
1.20327
0
LINE
8
BLACK
6
CONTINUOUS
10
1.16809
20
1.20327
11
1.16809
21
1.23673
0
LINE
8
BLACK
6
CONTINUOUS
10
1.16809
20
1.23673
11
1.16884
21
1.2405
0
LINE
8
BLACK
6
CONTINUOUS
10
1.16884
20
1.2405
11
1.17097
21
1.24369
0
LINE
8
BLACK
6
CONTINUOUS
10
1.17097
20
1.24369
11
1.17417
21
1.24583
0
LINE
8
BLACK
6
CONTINUOUS
10
1.17417
20
1.24583
11
1.17793
21
1.24657
0
LINE
8
BLACK
6
CONTINUOUS
10
1.17793
20
1.24657
11
1.21337
21
1.24657
0
LINE
8
BLACK
6
CONTINUOUS
10
1.21337
20
1.24657
11
1.21713
21
1.24583
0
LINE
8
BLACK
6
CONTINUOUS
10
1.42
20
1.2
11
1.36
21
1.2
0
LINE
8
BLACK
6
CONTINUOUS
10
1.36
20
1.2
11
1.36
21
1.26
0
LINE
8
BLACK
6
CONTINUOUS
10
1.36
20
1.26
11
1.42
21
1.26
0
LINE
8
BLACK
6
CONTINUOUS
10
1.42
20
1.26
11
1.42
21
1.2
0
LINE
8
BLACK
6
CONTINUOUS
10
1.52
20
1.2
11
1.46
21
1.2
0
LINE
8
BLACK
6
CONTINUOUS
10
1.46
20
1.2
11
1.46
21
1.26
0
LINE
8
BLACK
6
CONTINUOUS
10
1.46
20
1.26
11
1.52
21
1.26
0
LINE
8
BLACK
6
CONTINUOUS
10
1.52
20
1.26
11
1.52
21
1.2
0
LINE
8
BLACK
6
CONTINUOUS
10
0.558334
20
1.26583
11
0.561527
21
1.26369
0
LINE
8
BLACK
6
CONTINUOUS
10
0.561527
20
1.26369
11
0.56366
21
1.2605
0
LINE
8
BLACK
6
CONTINUOUS
10
0.56366
20
1.2605
11
0.564409
21
1.25673
0
LINE
8
BLACK
6
CONTINUOUS
10
0.564409
20
1.25673
11
0.564409
21
1.22327
0
LINE
8
BLACK
6
CONTINUOUS
10
0.564409
20
1.22327
11
0.56366
21
1.2195
0
LINE
8
BLACK
6
CONTINUOUS
10
0.56366
20
1.2195
11
0.561527
21
1.21631
0
LINE
8
BLACK
6
CONTINUOUS
10
0.561527
20
1.21631
11
0.558334
21
1.21417
0
LINE
8
BLACK
6
CONTINUOUS
10
0.558334
20
1.21417
11
0.554567
21
1.21343
0
LINE
8
BLACK
6
CONTINUOUS
10
0.554567
20
1.21343
11
0.519134
21
1.21343
0
LINE
8
BLACK
6
CONTINUOUS
10
0.519134
20
1.21343
11
0.515367
21
1.21417
0
LINE
8
BLACK
6
CONTINUOUS
10
0.515367
20
1.21417
11
0.512174
21
1.21631
0
LINE
8
BLACK
6
CONTINUOUS
10
0.512174
20
1.21631
11
0.510041
21
1.2195
0
LINE
8
BLACK
6
CONTINUOUS
10
0.510041
20
1.2195
11
0.509291
21
1.22327
0
LINE
8
BLACK
6
CONTINUOUS
10
0.509291
20
1.22327
11
0.509291
21
1.25673
0
LINE
8
BLACK
6
CONTINUOUS
10
0.509291
20
1.25673
11
0.510041
21
1.2605
0
LINE
8
BLACK
6
CONTINUOUS
10
0.510041
20
1.2605
11
0.512174
21
1.26369
0
LINE
8
BLACK
6
CONTINUOUS
10
0.512174
20
1.26369
11
0.515367
21
1.26583
0
LINE
8
BLACK
6
CONTINUOUS
10
0.515367
20
1.26583
11
0.519134
21
1.26657
0
LINE
8
BLACK
6
CONTINUOUS
10
0.519134
20
1.26657
11
0.554567
21
1.26657
0
LINE
8
BLACK
6
CONTINUOUS
10
0.554567
20
1.26657
11
0.558334
21
1.26583
0
LINE
8
BLACK
6
CONTINUOUS
10
0.664633
20
1.26583
11
0.667826
21
1.26369
0
LINE
8
BLACK
6
CONTINUOUS
10
0.667826
20
1.26369
11
0.669959
21
1.2605
0
LINE
8
BLACK
6
CONTINUOUS
10
0.669959
20
1.2605
11
0.670709
21
1.25673
0
LINE
8
BLACK
6
CONTINUOUS
10
0.670709
20
1.25673
11
0.670709
21
1.22327
0
LINE
8
BLACK
6
CONTINUOUS
10
0.670709
20
1.22327
11
0.669959
21
1.2195
0
LINE
8
BLACK
6
CONTINUOUS
10
0.669959
20
1.2195
11
0.667826
21
1.21631
0
LINE
8
BLACK
6
CONTINUOUS
10
0.667826
20
1.21631
11
0.664633
21
1.21417
0
LINE
8
BLACK
6
CONTINUOUS
10
0.664633
20
1.21417
11
0.660866
21
1.21343
0
LINE
8
BLACK
6
CONTINUOUS
10
0.660866
20
1.21343
11
0.625433
21
1.21343
0
LINE
8
BLACK
6
CONTINUOUS
10
0.625433
20
1.21343
11
0.621666
21
1.21417
0
LINE
8
BLACK
6
CONTINUOUS
10
0.621666
20
1.21417
11
0.618473
21
1.21631
0
LINE
8
BLACK
6
CONTINUOUS
10
0.618473
20
1.21631
11
0.61634
21
1.2195
0
LINE
8
BLACK
6
CONTINUOUS
10
0.61634
20
1.2195
11
0.615591
21
1.22327
0
LINE
8
BLACK
6
CONTINUOUS
10
0.615591
20
1.22327
11
0.615591
21
1.25673
0
LINE
8
BLACK
6
CONTINUOUS
10
0.615591
20
1.25673
11
0.61634
21
1.2605
0
LINE
8
BLACK
6
CONTINUOUS
10
0.61634
20
1.2605
11
0.618473
21
1.26369
0
LINE
8
BLACK
6
CONTINUOUS
10
0.618473
20
1.26369
11
0.621666
21
1.26583
0
LINE
8
BLACK
6
CONTINUOUS
10
0.621666
20
1.26583
11
0.625433
21
1.26657
0
LINE
8
BLACK
6
CONTINUOUS
10
0.625433
20
1.26657
11
0.660866
21
1.26657
0
LINE
8
BLACK
6
CONTINUOUS
10
0.660866
20
1.26657
11
0.664633
21
1.26583
0
LINE
8
BLACK
6
CONTINUOUS
10
1.28148
20
1.27285
11
1.28468
21
1.27072
0
LINE
8
BLACK
6
CONTINUOUS
10
1.28468
20
1.27072
11
1.28681
21
1.26753
0
LINE
8
BLACK
6
CONTINUOUS
10
1.28681
20
1.26753
11
1.28756
21
1.26376
0
LINE
8
BLACK
6
CONTINUOUS
10
1.28756
20
1.26376
11
1.28756
21
1.24309
0
LINE
8
BLACK
6
CONTINUOUS
10
1.28756
20
1.24309
11
1.28681
21
1.23932
0
LINE
8
BLACK
6
CONTINUOUS
10
1.28681
20
1.23932
11
1.28468
21
1.23613
0
LINE
8
BLACK
6
CONTINUOUS
10
1.28468
20
1.23613
11
1.28148
21
1.234
0
LINE
8
BLACK
6
CONTINUOUS
10
1.28148
20
1.234
11
1.27772
21
1.23325
0
LINE
8
BLACK
6
CONTINUOUS
10
1.27772
20
1.23325
11
1.24228
21
1.23325
0
LINE
8
BLACK
6
CONTINUOUS
10
1.24228
20
1.23325
11
1.23852
21
1.234
0
LINE
8
BLACK
6
CONTINUOUS
10
1.23852
20
1.234
11
1.23532
21
1.23613
0
LINE
8
BLACK
6
CONTINUOUS
10
1.23532
20
1.23613
11
1.23319
21
1.23932
0
LINE
8
BLACK
6
CONTINUOUS
10
1.23319
20
1.23932
11
1.23244
21
1.24309
0
LINE
8
BLACK
6
CONTINUOUS
10
1.23244
20
1.24309
11
1.23244
21
1.26376
0
LINE
8
BLACK
6
CONTINUOUS
10
1.23244
20
1.26376
11
1.23319
21
1.26753
0
LINE
8
BLACK
6
CONTINUOUS
10
1.23319
20
1.26753
11
1.23532
21
1.27072
0
LINE
8
BLACK
6
CONTINUOUS
10
1.23532
20
1.27072
11
1.23852
21
1.27285
0
LINE
8
BLACK
6
CONTINUOUS
10
1.23852
20
1.27285
11
1.24228
21
1.2736
0
LINE
8
BLACK
6
CONTINUOUS
10
1.24228
20
1.2736
11
1.27772
21
1.2736
0
LINE
8
BLACK
6
CONTINUOUS
10
1.27772
20
1.2736
11
1.28148
21
1.27285
0
LINE
8
BLACK
6
CONTINUOUS
10
0.22051
20
1.51632
11
0.233874
21
1.51315
0
LINE
8
BLACK
6
CONTINUOUS
10
0.233874
20
1.51315
11
0.246781
21
1.50845
0
LINE
8
BLACK
6
CONTINUOUS
10
0.246781
20
1.50845
11
0.259055
21
1.50229
0
LINE
8
BLACK
6
CONTINUOUS
10
0.259055
20
1.50229
11
0.270531
21
1.49474
0
LINE
8
BLACK
6
CONTINUOUS
10
0.270531
20
1.49474
11
0.281052
21
1.48591
0
LINE
8
BLACK
6
CONTINUOUS
10
0.281052
20
1.48591
11
0.290478
21
1.47592
0
LINE
8
BLACK
6
CONTINUOUS
10
0.290478
20
1.47592
11
0.29868
21
1.4649
0
LINE
8
BLACK
6
CONTINUOUS
10
0.29868
20
1.4649
11
0.305547
21
1.45301
0
LINE
8
BLACK
6
CONTINUOUS
10
0.305547
20
1.45301
11
0.310987
21
1.4404
0
LINE
8
BLACK
6
CONTINUOUS
10
0.310987
20
1.4404
11
0.314927
21
1.42724
0
LINE
8
BLACK
6
CONTINUOUS
10
0.314927
20
1.42724
11
0.317312
21
1.41371
0
LINE
8
BLACK
6
CONTINUOUS
10
0.317312
20
1.41371
11
0.31811
21
1.4
0
LINE
8
BLACK
6
CONTINUOUS
10
0.31811
20
1.4
11
0.317312
21
1.38629
0
LINE
8
BLACK
6
CONTINUOUS
10
0.317312
20
1.38629
11
0.314927
21
1.37276
0
LINE
8
BLACK
6
CONTINUOUS
10
0.314927
20
1.37276
11
0.310987
21
1.3596
0
LINE
8
BLACK
6
CONTINUOUS
10
0.310987
20
1.3596
11
0.305547
21
1.34699
0
LINE
8
BLACK
6
CONTINUOUS
10
0.305547
20
1.34699
11
0.29868
21
1.3351
0
LINE
8
BLACK
6
CONTINUOUS
10
0.29868
20
1.3351
11
0.290478
21
1.32408
0
LINE
8
BLACK
6
CONTINUOUS
10
0.290478
20
1.32408
11
0.281052
21
1.31409
0
LINE
8
BLACK
6
CONTINUOUS
10
0.281052
20
1.31409
11
0.270531
21
1.30526
0
LINE
8
BLACK
6
CONTINUOUS
10
0.270531
20
1.30526
11
0.259055
21
1.29771
0
LINE
8
BLACK
6
CONTINUOUS
10
0.259055
20
1.29771
11
0.246781
21
1.29155
0
LINE
8
BLACK
6
CONTINUOUS
10
0.246781
20
1.29155
11
0.233874
21
1.28685
0
LINE
8
BLACK
6
CONTINUOUS
10
0.233874
20
1.28685
11
0.22051
21
1.28368
0
LINE
8
BLACK
6
CONTINUOUS
10
0.22051
20
1.28368
11
0.206867
21
1.28209
0
LINE
8
BLACK
6
CONTINUOUS
10
0.206867
20
1.28209
11
0.193133
21
1.28209
0
LINE
8
BLACK
6
CONTINUOUS
10
0.193133
20
1.28209
11
0.17949
21
1.28368
0
LINE
8
BLACK
6
CONTINUOUS
10
0.17949
20
1.28368
11
0.166126
21
1.28685
0
LINE
8
BLACK
6
CONTINUOUS
10
0.166126
20
1.28685
11
0.153219
21
1.29155
0
LINE
8
BLACK
6
CONTINUOUS
10
0.153219
20
1.29155
11
0.140945
21
1.29771
0
LINE
8
BLACK
6
CONTINUOUS
10
0.140945
20
1.29771
11
0.129469
21
1.30526
0
LINE
8
BLACK
6
CONTINUOUS
10
0.129469
20
1.30526
11
0.118948
21
1.31409
0
LINE
8
BLACK
6
CONTINUOUS
10
0.118948
20
1.31409
11
0.109522
21
1.32408
0
LINE
8
BLACK
6
CONTINUOUS
10
0.109522
20
1.32408
11
0.10132
21
1.3351
0
LINE
8
BLACK
6
CONTINUOUS
10
0.10132
20
1.3351
11
0.0944528
21
1.34699
0
LINE
8
BLACK
6
CONTINUOUS
10
0.0944528
20
1.34699
11
0.0890127
21
1.3596
0
LINE
8
BLACK
6
CONTINUOUS
10
0.0890127
20
1.3596
11
0.0850734
21
1.37276
0
LINE
8
BLACK
6
CONTINUOUS
10
0.0850734
20
1.37276
11
0.0826884
21
1.38629
0
LINE
8
BLACK
6
CONTINUOUS
10
0.0826884
20
1.38629
11
0.0818898
21
1.4
0
LINE
8
BLACK
6
CONTINUOUS
10
0.0818898
20
1.4
11
0.0826884
21
1.41371
0
LINE
8
BLACK
6
CONTINUOUS
10
0.0826884
20
1.41371
11
0.0850734
21
1.42724
0
LINE
8
BLACK
6
CONTINUOUS
10
0.0850734
20
1.42724
11
0.0890127
21
1.4404
0
LINE
8
BLACK
6
CONTINUOUS
10
0.0890127
20
1.4404
11
0.0944528
21
1.45301
0
LINE
8
BLACK
6
CONTINUOUS
10
0.0944528
20
1.45301
11
0.10132
21
1.4649
0
LINE
8
BLACK
6
CONTINUOUS
10
0.10132
20
1.4649
11
0.109522
21
1.47592
0
LINE
8
BLACK
6
CONTINUOUS
10
0.109522
20
1.47592
11
0.118948
21
1.48591
0
LINE
8
BLACK
6
CONTINUOUS
10
0.118948
20
1.48591
11
0.129469
21
1.49474
0
LINE
8
BLACK
6
CONTINUOUS
10
0.129469
20
1.49474
11
0.140945
21
1.50229
0
LINE
8
BLACK
6
CONTINUOUS
10
0.140945
20
1.50229
11
0.153219
21
1.50845
0
LINE
8
BLACK
6
CONTINUOUS
10
0.153219
20
1.50845
11
0.166126
21
1.51315
0
LINE
8
BLACK
6
CONTINUOUS
10
0.166126
20
1.51315
11
0.17949
21
1.51632
0
LINE
8
BLACK
6
CONTINUOUS
10
0.17949
20
1.51632
11
0.193133
21
1.51791
0
LINE
8
BLACK
6
CONTINUOUS
10
0.193133
20
1.51791
11
0.206867
21
1.51791
0
LINE
8
BLACK
6
CONTINUOUS
10
0.206867
20
1.51791
11
0.22051
21
1.51632
0
LINE
8
BLACK
6
CONTINUOUS
10
1.82051
20
1.51632
11
1.83387
21
1.51315
0
LINE
8
BLACK
6
CONTINUOUS
10
1.83387
20
1.51315
11
1.84678
21
1.50845
0
LINE
8
BLACK
6
CONTINUOUS
10
1.84678
20
1.50845
11
1.85906
21
1.50229
0
LINE
8
BLACK
6
CONTINUOUS
10
1.85906
20
1.50229
11
1.87053
21
1.49474
0
LINE
8
BLACK
6
CONTINUOUS
10
1.87053
20
1.49474
11
1.88105
21
1.48591
0
LINE
8
BLACK
6
CONTINUOUS
10
1.88105
20
1.48591
11
1.89048
21
1.47592
0
LINE
8
BLACK
6
CONTINUOUS
10
1.89048
20
1.47592
11
1.89868
21
1.4649
0
LINE
8
BLACK
6
CONTINUOUS
10
1.89868
20
1.4649
11
1.90555
21
1.45301
0
LINE
8
BLACK
6
CONTINUOUS
10
1.90555
20
1.45301
11
1.91099
21
1.4404
0
LINE
8
BLACK
6
CONTINUOUS
10
1.91099
20
1.4404
11
1.91493
21
1.42724
0
LINE
8
BLACK
6
CONTINUOUS
10
1.91493
20
1.42724
11
1.91731
21
1.41371
0
LINE
8
BLACK
6
CONTINUOUS
10
1.91731
20
1.41371
11
1.91811
21
1.4
0
LINE
8
BLACK
6
CONTINUOUS
10
1.91811
20
1.4
11
1.91731
21
1.38629
0
LINE
8
BLACK
6
CONTINUOUS
10
1.91731
20
1.38629
11
1.91493
21
1.37276
0
LINE
8
BLACK
6
CONTINUOUS
10
1.91493
20
1.37276
11
1.91099
21
1.3596
0
LINE
8
BLACK
6
CONTINUOUS
10
1.91099
20
1.3596
11
1.90555
21
1.34699
0
LINE
8
BLACK
6
CONTINUOUS
10
1.90555
20
1.34699
11
1.89868
21
1.3351
0
LINE
8
BLACK
6
CONTINUOUS
10
1.89868
20
1.3351
11
1.89048
21
1.32408
0
LINE
8
BLACK
6
CONTINUOUS
10
1.89048
20
1.32408
11
1.88105
21
1.31409
0
LINE
8
BLACK
6
CONTINUOUS
10
1.88105
20
1.31409
11
1.87053
21
1.30526
0
LINE
8
BLACK
6
CONTINUOUS
10
1.87053
20
1.30526
11
1.85906
21
1.29771
0
LINE
8
BLACK
6
CONTINUOUS
10
1.85906
20
1.29771
11
1.84678
21
1.29155
0
LINE
8
BLACK
6
CONTINUOUS
10
1.84678
20
1.29155
11
1.83387
21
1.28685
0
LINE
8
BLACK
6
CONTINUOUS
10
1.83387
20
1.28685
11
1.82051
21
1.28368
0
LINE
8
BLACK
6
CONTINUOUS
10
1.82051
20
1.28368
11
1.80687
21
1.28209
0
LINE
8
BLACK
6
CONTINUOUS
10
1.80687
20
1.28209
11
1.79313
21
1.28209
0
LINE
8
BLACK
6
CONTINUOUS
10
1.79313
20
1.28209
11
1.77949
21
1.28368
0
LINE
8
BLACK
6
CONTINUOUS
10
1.77949
20
1.28368
11
1.76613
21
1.28685
0
LINE
8
BLACK
6
CONTINUOUS
10
1.76613
20
1.28685
11
1.75322
21
1.29155
0
LINE
8
BLACK
6
CONTINUOUS
10
1.75322
20
1.29155
11
1.74094
21
1.29771
0
LINE
8
BLACK
6
CONTINUOUS
10
1.74094
20
1.29771
11
1.72947
21
1.30526
0
LINE
8
BLACK
6
CONTINUOUS
10
1.72947
20
1.30526
11
1.71895
21
1.31409
0
LINE
8
BLACK
6
CONTINUOUS
10
1.71895
20
1.31409
11
1.70952
21
1.32408
0
LINE
8
BLACK
6
CONTINUOUS
10
1.70952
20
1.32408
11
1.70132
21
1.3351
0
LINE
8
BLACK
6
CONTINUOUS
10
1.70132
20
1.3351
11
1.69445
21
1.34699
0
LINE
8
BLACK
6
CONTINUOUS
10
1.69445
20
1.34699
11
1.68901
21
1.3596
0
LINE
8
BLACK
6
CONTINUOUS
10
1.68901
20
1.3596
11
1.68507
21
1.37276
0
LINE
8
BLACK
6
CONTINUOUS
10
1.68507
20
1.37276
11
1.68269
21
1.38629
0
LINE
8
BLACK
6
CONTINUOUS
10
1.68269
20
1.38629
11
1.68189
21
1.4
0
LINE
8
BLACK
6
CONTINUOUS
10
1.68189
20
1.4
11
1.68269
21
1.41371
0
LINE
8
BLACK
6
CONTINUOUS
10
1.68269
20
1.41371
11
1.68507
21
1.42724
0
LINE
8
BLACK
6
CONTINUOUS
10
1.68507
20
1.42724
11
1.68901
21
1.4404
0
LINE
8
BLACK
6
CONTINUOUS
10
1.68901
20
1.4404
11
1.69445
21
1.45301
0
LINE
8
BLACK
6
CONTINUOUS
10
1.69445
20
1.45301
11
1.70132
21
1.4649
0
LINE
8
BLACK
6
CONTINUOUS
10
1.70132
20
1.4649
11
1.70952
21
1.47592
0
LINE
8
BLACK
6
CONTINUOUS
10
1.70952
20
1.47592
11
1.71895
21
1.48591
0
LINE
8
BLACK
6
CONTINUOUS
10
1.71895
20
1.48591
11
1.72947
21
1.49474
0
LINE
8
BLACK
6
CONTINUOUS
10
1.72947
20
1.49474
11
1.74094
21
1.50229
0
LINE
8
BLACK
6
CONTINUOUS
10
1.74094
20
1.50229
11
1.75322
21
1.50845
0
LINE
8
BLACK
6
CONTINUOUS
10
1.75322
20
1.50845
11
1.76613
21
1.51315
0
LINE
8
BLACK
6
CONTINUOUS
10
1.76613
20
1.51315
11
1.77949
21
1.51632
0
LINE
8
BLACK
6
CONTINUOUS
10
1.77949
20
1.51632
11
1.79313
21
1.51791
0
LINE
8
BLACK
6
CONTINUOUS
10
1.79313
20
1.51791
11
1.80687
21
1.51791
0
LINE
8
BLACK
6
CONTINUOUS
10
1.80687
20
1.51791
11
1.82051
21
1.51632
0
LINE
8
BLACK
6
CONTINUOUS
10
1.11871
20
1.34779
11
1.1219
21
1.34566
0
LINE
8
BLACK
6
CONTINUOUS
10
1.1219
20
1.34566
11
1.12403
21
1.34247
0
LINE
8
BLACK
6
CONTINUOUS
10
1.12403
20
1.34247
11
1.12478
21
1.3387
0
LINE
8
BLACK
6
CONTINUOUS
10
1.12478
20
1.3387
11
1.12478
21
1.3013
0
LINE
8
BLACK
6
CONTINUOUS
10
1.12478
20
1.3013
11
1.12403
21
1.29753
0
LINE
8
BLACK
6
CONTINUOUS
10
1.12403
20
1.29753
11
1.1219
21
1.29434
0
LINE
8
BLACK
6
CONTINUOUS
10
1.1219
20
1.29434
11
1.11871
21
1.29221
0
LINE
8
BLACK
6
CONTINUOUS
10
1.11871
20
1.29221
11
1.11494
21
1.29146
0
LINE
8
BLACK
6
CONTINUOUS
10
1.11494
20
1.29146
11
1.09526
21
1.29146
0
LINE
8
BLACK
6
CONTINUOUS
10
1.09526
20
1.29146
11
1.09149
21
1.29221
0
LINE
8
BLACK
6
CONTINUOUS
10
1.09149
20
1.29221
11
1.0883
21
1.29434
0
LINE
8
BLACK
6
CONTINUOUS
10
1.0883
20
1.29434
11
1.08616
21
1.29753
0
LINE
8
BLACK
6
CONTINUOUS
10
1.08616
20
1.29753
11
1.08541
21
1.3013
0
LINE
8
BLACK
6
CONTINUOUS
10
1.08541
20
1.3013
11
1.08541
21
1.3387
0
LINE
8
BLACK
6
CONTINUOUS
10
1.08541
20
1.3387
11
1.08616
21
1.34247
0
LINE
8
BLACK
6
CONTINUOUS
10
1.08616
20
1.34247
11
1.0883
21
1.34566
0
LINE
8
BLACK
6
CONTINUOUS
10
1.0883
20
1.34566
11
1.09149
21
1.34779
0
LINE
8
BLACK
6
CONTINUOUS
10
1.09149
20
1.34779
11
1.09526
21
1.34854
0
LINE
8
BLACK
6
CONTINUOUS
10
1.09526
20
1.34854
11
1.11494
21
1.34854
0
LINE
8
BLACK
6
CONTINUOUS
10
1.11494
20
1.34854
11
1.11871
21
1.34779
0
LINE
8
BLACK
6
CONTINUOUS
10
1.19351
20
1.34779
11
1.1967
21
1.34566
0
LINE
8
BLACK
6
CONTINUOUS
10
1.1967
20
1.34566
11
1.19884
21
1.34247
0
LINE
8
BLACK
6
CONTINUOUS
10
1.19884
20
1.34247
11
1.19959
21
1.3387
0
LINE
8
BLACK
6
CONTINUOUS
10
1.19959
20
1.3387
11
1.19959
21
1.3013
0
LINE
8
BLACK
6
CONTINUOUS
10
1.19959
20
1.3013
11
1.19884
21
1.29753
0
LINE
8
BLACK
6
CONTINUOUS
10
1.19884
20
1.29753
11
1.1967
21
1.29434
0
LINE
8
BLACK
6
CONTINUOUS
10
1.1967
20
1.29434
11
1.19351
21
1.29221
0
LINE
8
BLACK
6
CONTINUOUS
10
1.19351
20
1.29221
11
1.18974
21
1.29146
0
LINE
8
BLACK
6
CONTINUOUS
10
1.18974
20
1.29146
11
1.17006
21
1.29146
0
LINE
8
BLACK
6
CONTINUOUS
10
1.17006
20
1.29146
11
1.16629
21
1.29221
0
LINE
8
BLACK
6
CONTINUOUS
10
1.16629
20
1.29221
11
1.1631
21
1.29434
0
LINE
8
BLACK
6
CONTINUOUS
10
1.1631
20
1.29434
11
1.16097
21
1.29753
0
LINE
8
BLACK
6
CONTINUOUS
10
1.16097
20
1.29753
11
1.16022
21
1.3013
0
LINE
8
BLACK
6
CONTINUOUS
10
1.16022
20
1.3013
11
1.16022
21
1.3387
0
LINE
8
BLACK
6
CONTINUOUS
10
1.16022
20
1.3387
11
1.16097
21
1.34247
0
LINE
8
BLACK
6
CONTINUOUS
10
1.16097
20
1.34247
11
1.1631
21
1.34566
0
LINE
8
BLACK
6
CONTINUOUS
10
1.1631
20
1.34566
11
1.16629
21
1.34779
0
LINE
8
BLACK
6
CONTINUOUS
10
1.16629
20
1.34779
11
1.17006
21
1.34854
0
LINE
8
BLACK
6
CONTINUOUS
10
1.17006
20
1.34854
11
1.18974
21
1.34854
0
LINE
8
BLACK
6
CONTINUOUS
10
1.18974
20
1.34854
11
1.19351
21
1.34779
0
LINE
8
BLACK
6
CONTINUOUS
10
1.42
20
1.3
11
1.36
21
1.3
0
LINE
8
BLACK
6
CONTINUOUS
10
1.36
20
1.3
11
1.36
21
1.36
0
LINE
8
BLACK
6
CONTINUOUS
10
1.36
20
1.36
11
1.42
21
1.36
0
LINE
8
BLACK
6
CONTINUOUS
10
1.42
20
1.36
11
1.42
21
1.3
0
LINE
8
BLACK
6
CONTINUOUS
10
1.52
20
1.3
11
1.46
21
1.3
0
LINE
8
BLACK
6
CONTINUOUS
10
1.46
20
1.3
11
1.46
21
1.36
0
LINE
8
BLACK
6
CONTINUOUS
10
1.46
20
1.36
11
1.52
21
1.36
0
LINE
8
BLACK
6
CONTINUOUS
10
1.52
20
1.36
11
1.52
21
1.3
0
LINE
8
BLACK
6
CONTINUOUS
10
0.393701
20
1.33575
11
0.354331
21
1.33575
0
LINE
8
BLACK
6
CONTINUOUS
10
0.354331
20
1.33575
11
0.354331
21
1.4263
0
LINE
8
BLACK
6
CONTINUOUS
10
0.354331
20
1.4263
11
0.354331
21
1.46567
0
LINE
8
BLACK
6
CONTINUOUS
10
0.354331
20
1.46567
11
0.393701
21
1.46567
0
LINE
8
BLACK
6
CONTINUOUS
10
0.393701
20
1.46567
11
0.484252
21
1.46567
0
LINE
8
BLACK
6
CONTINUOUS
10
0.484252
20
1.46567
11
0.484252
21
1.4263
0
LINE
8
BLACK
6
CONTINUOUS
10
0.484252
20
1.4263
11
0.393701
21
1.4263
0
LINE
8
BLACK
6
CONTINUOUS
10
0.393701
20
1.4263
11
0.393701
21
1.33575
0
LINE
8
BLACK
6
CONTINUOUS
10
1.64567
20
1.33575
11
1.6063
21
1.33575
0
LINE
8
BLACK
6
CONTINUOUS
10
1.6063
20
1.33575
11
1.6063
21
1.4263
0
LINE
8
BLACK
6
CONTINUOUS
10
1.6063
20
1.4263
11
1.51575
21
1.4263
0
LINE
8
BLACK
6
CONTINUOUS
10
1.51575
20
1.4263
11
1.51575
21
1.46567
0
LINE
8
BLACK
6
CONTINUOUS
10
1.51575
20
1.46567
11
1.6063
21
1.46567
0
LINE
8
BLACK
6
CONTINUOUS
10
1.6063
20
1.46567
11
1.64567
21
1.46567
0
LINE
8
BLACK
6
CONTINUOUS
10
1.64567
20
1.46567
11
1.64567
21
1.4263
0
LINE
8
BLACK
6
CONTINUOUS
10
1.64567
20
1.4263
11
1.64567
21
1.33575
0
LINE
8
BLACK
6
CONTINUOUS
10
0.720472
20
1.4263
11
0.570866
21
1.4263
0
LINE
8
BLACK
6
CONTINUOUS
10
0.570866
20
1.4263
11
0.570866
21
1.46567
0
LINE
8
BLACK
6
CONTINUOUS
10
0.570866
20
1.46567
11
0.720472
21
1.46567
0
LINE
8
BLACK
6
CONTINUOUS
10
0.720472
20
1.46567
11
0.720472
21
1.4263
0
LINE
8
BLACK
6
CONTINUOUS
10
0.956693
20
1.4263
11
0.807087
21
1.4263
0
LINE
8
BLACK
6
CONTINUOUS
10
0.807087
20
1.4263
11
0.807087
21
1.46567
0
LINE
8
BLACK
6
CONTINUOUS
10
0.807087
20
1.46567
11
0.956693
21
1.46567
0
LINE
8
BLACK
6
CONTINUOUS
10
0.956693
20
1.46567
11
0.956693
21
1.4263
0
LINE
8
BLACK
6
CONTINUOUS
10
1.19291
20
1.4263
11
1.04331
21
1.4263
0
LINE
8
BLACK
6
CONTINUOUS
10
1.04331
20
1.4263
11
1.04331
21
1.46567
0
LINE
8
BLACK
6
CONTINUOUS
10
1.04331
20
1.46567
11
1.19291
21
1.46567
0
LINE
8
BLACK
6
CONTINUOUS
10
1.19291
20
1.46567
11
1.19291
21
1.4263
0
LINE
8
BLACK
6
CONTINUOUS
10
1.42913
20
1.4263
11
1.27953
21
1.4263
0
LINE
8
BLACK
6
CONTINUOUS
10
1.27953
20
1.4263
11
1.27953
21
1.46567
0
LINE
8
BLACK
6
CONTINUOUS
10
1.27953
20
1.46567
11
1.42913
21
1.46567
0
LINE
8
BLACK
6
CONTINUOUS
10
1.42913
20
1.46567
11
1.42913
21
1.4263
0
LINE
8
BLACK
6
CONTINUOUS
10
1.56768
20
1.56861
11
1.57507
21
1.56637
0
LINE
8
BLACK
6
CONTINUOUS
10
1.57507
20
1.56637
11
1.58187
21
1.56274
0
LINE
8
BLACK
6
CONTINUOUS
10
1.58187
20
1.56274
11
1.58784
21
1.55784
0
LINE
8
BLACK
6
CONTINUOUS
10
1.58784
20
1.55784
11
1.59274
21
1.55187
0
LINE
8
BLACK
6
CONTINUOUS
10
1.59274
20
1.55187
11
1.59637
21
1.54507
0
LINE
8
BLACK
6
CONTINUOUS
10
1.59637
20
1.54507
11
1.59861
21
1.53768
0
LINE
8
BLACK
6
CONTINUOUS
10
1.59861
20
1.53768
11
1.59937
21
1.53
0
LINE
8
BLACK
6
CONTINUOUS
10
1.59937
20
1.53
11
1.59861
21
1.52232
0
LINE
8
BLACK
6
CONTINUOUS
10
1.59861
20
1.52232
11
1.59637
21
1.51493
0
LINE
8
BLACK
6
CONTINUOUS
10
1.59637
20
1.51493
11
1.59274
21
1.50813
0
LINE
8
BLACK
6
CONTINUOUS
10
1.59274
20
1.50813
11
1.58784
21
1.50216
0
LINE
8
BLACK
6
CONTINUOUS
10
1.58784
20
1.50216
11
1.58187
21
1.49726
0
LINE
8
BLACK
6
CONTINUOUS
10
1.58187
20
1.49726
11
1.57507
21
1.49363
0
LINE
8
BLACK
6
CONTINUOUS
10
1.57507
20
1.49363
11
1.56768
21
1.49139
0
LINE
8
BLACK
6
CONTINUOUS
10
1.56768
20
1.49139
11
1.56
21
1.49063
0
LINE
8
BLACK
6
CONTINUOUS
10
1.56
20
1.49063
11
1.55232
21
1.49139
0
LINE
8
BLACK
6
CONTINUOUS
10
1.55232
20
1.49139
11
1.54493
21
1.49363
0
LINE
8
BLACK
6
CONTINUOUS
10
1.54493
20
1.49363
11
1.53813
21
1.49726
0
LINE
8
BLACK
6
CONTINUOUS
10
1.53813
20
1.49726
11
1.53216
21
1.50216
0
LINE
8
BLACK
6
CONTINUOUS
10
1.53216
20
1.50216
11
1.52726
21
1.50813
0
LINE
8
BLACK
6
CONTINUOUS
10
1.52726
20
1.50813
11
1.52363
21
1.51493
0
LINE
8
BLACK
6
CONTINUOUS
10
1.52363
20
1.51493
11
1.52139
21
1.52232
0
LINE
8
BLACK
6
CONTINUOUS
10
1.52139
20
1.52232
11
1.52063
21
1.53
0
LINE
8
BLACK
6
CONTINUOUS
10
1.52063
20
1.53
11
1.52139
21
1.53768
0
LINE
8
BLACK
6
CONTINUOUS
10
1.52139
20
1.53768
11
1.52363
21
1.54507
0
LINE
8
BLACK
6
CONTINUOUS
10
1.52363
20
1.54507
11
1.52726
21
1.55187
0
LINE
8
BLACK
6
CONTINUOUS
10
1.52726
20
1.55187
11
1.53216
21
1.55784
0
LINE
8
BLACK
6
CONTINUOUS
10
1.53216
20
1.55784
11
1.53813
21
1.56274
0
LINE
8
BLACK
6
CONTINUOUS
10
1.53813
20
1.56274
11
1.54493
21
1.56637
0
LINE
8
BLACK
6
CONTINUOUS
10
1.54493
20
1.56637
11
1.55232
21
1.56861
0
LINE
8
BLACK
6
CONTINUOUS
10
1.55232
20
1.56861
11
1.56
21
1.56937
0
LINE
8
BLACK
6
CONTINUOUS
10
1.56
20
1.56937
11
1.56768
21
1.56861
  0
ENDSEC
  0
EOF
