  0
SECTION
  2
HEADER
  9
$ANGBASE
  50
0.0
  9
$ANGDIR
  70
1
  9
$MEASUREMENT
  70
0
  0
ENDSEC
  0
SECTION
  2
TABLES
  0
TABLE
  2
LTYPE
  70
4
  0
LTYPE
  5
40F
  2
CONTINUOUS
  70
0
  3
Solid line
  72
65
  73
0
  40
0.0
  0
LTYPE
  5
410
  2
DASHDOT
 70
0
  3
Dash Dot ____ _ ____ _
 72
65
 73
4
 40
2.0
 49
1.25
 49
-0.25
 49
0.25
 49
-0.25
  0
LTYPE
  5
411
  2
DASHED
 70
0
  3
Dashed __ __ __ __ __
 72
65
 73
2
 40
0.75
 49
0.5
 49
-0.25
  0
LTYPE
  5
43B
  2
DOTTED
 70
0
  3
Dotted .  .  .  .
 72
65
 73
2
 40
0.2
 49
0.0
 49
-0.2
  0
ENDTAB
  0
TABLE
  2
STYLE
  70
4
  0
STYLE
  2
KICAD
  70
0
  40
0
  41
1
  42
1
  50
0
  71
0
  3
isocp.shx
  0
STYLE
  2
KICADB
  70
0
  40
0
  41
1
  42
1
  50
0
  71
0
  3
isocp.shx
  0
STYLE
  2
KICADI
  70
0
  40
0
  41
1
  42
1
  50
15
  71
0
  3
isocp.shx
  0
STYLE
  2
KICADBI
  70
0
  40
0
  41
1
  42
1
  50
15
  71
0
  3
isocp.shx
  0
ENDTAB
  0
TABLE
  2
LAYER
  70
1
  0
LAYER
  2
BLACK
  70
0
  62
7
  6
CONTINUOUS
  0
ENDTAB
  0
ENDSEC
  0
SECTION
  2
ENTITIES
0
LINE
8
BLACK
6
CONTINUOUS
10
0.510384
20
0.972885
11
0.510513
21
0.972908
0
LINE
8
BLACK
6
CONTINUOUS
10
0.510513
20
0.972908
11
0.510626
21
0.972842
0
LINE
8
BLACK
6
CONTINUOUS
10
0.510626
20
0.972842
11
0.51101
21
0.972775
0
LINE
8
BLACK
6
CONTINUOUS
10
0.51101
20
0.972775
11
0.511598
21
0.972282
0
LINE
8
BLACK
6
CONTINUOUS
10
0.511598
20
0.972282
11
0.512262
21
0.971898
0
LINE
8
BLACK
6
CONTINUOUS
10
0.512262
20
0.971898
11
0.512353
21
0.971648
0
LINE
8
BLACK
6
CONTINUOUS
10
0.512353
20
0.971648
11
0.512557
21
0.971476
0
LINE
8
BLACK
6
CONTINUOUS
10
0.512557
20
0.971476
11
0.51269
21
0.970721
0
LINE
8
BLACK
6
CONTINUOUS
10
0.51269
20
0.970721
11
0.512953
21
0.97
0
LINE
8
BLACK
6
CONTINUOUS
10
0.512953
20
0.97
11
0.512953
21
0.87
0
LINE
8
BLACK
6
CONTINUOUS
10
0.512953
20
0.87
11
0.512953
21
0.87
0
LINE
8
BLACK
6
CONTINUOUS
10
0.512953
20
0.87
11
0.512953
21
0.57
0
LINE
8
BLACK
6
CONTINUOUS
10
0.512953
20
0.57
11
0.512885
21
0.569616
0
LINE
8
BLACK
6
CONTINUOUS
10
0.512885
20
0.569616
11
0.512908
21
0.569487
0
LINE
8
BLACK
6
CONTINUOUS
10
0.512908
20
0.569487
11
0.512842
21
0.569374
0
LINE
8
BLACK
6
CONTINUOUS
10
0.512842
20
0.569374
11
0.512775
21
0.56899
0
LINE
8
BLACK
6
CONTINUOUS
10
0.512775
20
0.56899
11
0.512282
21
0.568402
0
LINE
8
BLACK
6
CONTINUOUS
10
0.512282
20
0.568402
11
0.511898
21
0.567738
0
LINE
8
BLACK
6
CONTINUOUS
10
0.511898
20
0.567738
11
0.511648
21
0.567647
0
LINE
8
BLACK
6
CONTINUOUS
10
0.511648
20
0.567647
11
0.511476
21
0.567443
0
LINE
8
BLACK
6
CONTINUOUS
10
0.511476
20
0.567443
11
0.510721
21
0.56731
0
LINE
8
BLACK
6
CONTINUOUS
10
0.510721
20
0.56731
11
0.51
21
0.567047
0
LINE
8
BLACK
6
CONTINUOUS
10
0.51
20
0.567047
11
0.31
21
0.567047
0
LINE
8
BLACK
6
CONTINUOUS
10
0.31
20
0.567047
11
0.309616
21
0.567115
0
LINE
8
BLACK
6
CONTINUOUS
10
0.309616
20
0.567115
11
0.309487
21
0.567092
0
LINE
8
BLACK
6
CONTINUOUS
10
0.309487
20
0.567092
11
0.309374
21
0.567158
0
LINE
8
BLACK
6
CONTINUOUS
10
0.309374
20
0.567158
11
0.30899
21
0.567225
0
LINE
8
BLACK
6
CONTINUOUS
10
0.30899
20
0.567225
11
0.308402
21
0.567718
0
LINE
8
BLACK
6
CONTINUOUS
10
0.308402
20
0.567718
11
0.307738
21
0.568102
0
LINE
8
BLACK
6
CONTINUOUS
10
0.307738
20
0.568102
11
0.307647
21
0.568352
0
LINE
8
BLACK
6
CONTINUOUS
10
0.307647
20
0.568352
11
0.307443
21
0.568524
0
LINE
8
BLACK
6
CONTINUOUS
10
0.307443
20
0.568524
11
0.30731
21
0.569279
0
LINE
8
BLACK
6
CONTINUOUS
10
0.30731
20
0.569279
11
0.307047
21
0.57
0
LINE
8
BLACK
6
CONTINUOUS
10
0.307047
20
0.57
11
0.307047
21
0.87
0
LINE
8
BLACK
6
CONTINUOUS
10
0.307047
20
0.87
11
0.307047
21
0.87
0
LINE
8
BLACK
6
CONTINUOUS
10
0.307047
20
0.87
11
0.307047
21
0.97
0
LINE
8
BLACK
6
CONTINUOUS
10
0.307047
20
0.97
11
0.307115
21
0.970384
0
LINE
8
BLACK
6
CONTINUOUS
10
0.307115
20
0.970384
11
0.307092
21
0.970513
0
LINE
8
BLACK
6
CONTINUOUS
10
0.307092
20
0.970513
11
0.307158
21
0.970626
0
LINE
8
BLACK
6
CONTINUOUS
10
0.307158
20
0.970626
11
0.307225
21
0.97101
0
LINE
8
BLACK
6
CONTINUOUS
10
0.307225
20
0.97101
11
0.307718
21
0.971598
0
LINE
8
BLACK
6
CONTINUOUS
10
0.307718
20
0.971598
11
0.308102
21
0.972262
0
LINE
8
BLACK
6
CONTINUOUS
10
0.308102
20
0.972262
11
0.308352
21
0.972353
0
LINE
8
BLACK
6
CONTINUOUS
10
0.308352
20
0.972353
11
0.308524
21
0.972557
0
LINE
8
BLACK
6
CONTINUOUS
10
0.308524
20
0.972557
11
0.309279
21
0.97269
0
LINE
8
BLACK
6
CONTINUOUS
10
0.309279
20
0.97269
11
0.31
21
0.972953
0
LINE
8
BLACK
6
CONTINUOUS
10
0.31
20
0.972953
11
0.51
21
0.972953
0
LINE
8
BLACK
6
CONTINUOUS
10
0.51
20
0.972953
11
0.510384
21
0.972885
0
LINE
8
BLACK
6
CONTINUOUS
10
0.312953
20
0.867047
11
0.312953
21
0.572953
0
LINE
8
BLACK
6
CONTINUOUS
10
0.312953
20
0.572953
11
0.507047
21
0.572953
0
LINE
8
BLACK
6
CONTINUOUS
10
0.507047
20
0.572953
11
0.507047
21
0.867047
0
LINE
8
BLACK
6
CONTINUOUS
10
0.507047
20
0.867047
11
0.312953
21
0.867047
0
LINE
8
BLACK
6
CONTINUOUS
10
0.312953
20
0.967047
11
0.312953
21
0.872953
0
LINE
8
BLACK
6
CONTINUOUS
10
0.312953
20
0.872953
11
0.507047
21
0.872953
0
LINE
8
BLACK
6
CONTINUOUS
10
0.507047
20
0.872953
11
0.507047
21
0.967047
0
LINE
8
BLACK
6
CONTINUOUS
10
0.507047
20
0.967047
11
0.312953
21
0.967047
0
LINE
8
BLACK
6
CONTINUOUS
10
2.33038
20
1.41289
11
2.33051
21
1.41291
0
LINE
8
BLACK
6
CONTINUOUS
10
2.33051
20
1.41291
11
2.33063
21
1.41284
0
LINE
8
BLACK
6
CONTINUOUS
10
2.33063
20
1.41284
11
2.33101
21
1.41277
0
LINE
8
BLACK
6
CONTINUOUS
10
2.33101
20
1.41277
11
2.3316
21
1.41228
0
LINE
8
BLACK
6
CONTINUOUS
10
2.3316
20
1.41228
11
2.33226
21
1.4119
0
LINE
8
BLACK
6
CONTINUOUS
10
2.33226
20
1.4119
11
2.33235
21
1.41165
0
LINE
8
BLACK
6
CONTINUOUS
10
2.33235
20
1.41165
11
2.33256
21
1.41148
0
LINE
8
BLACK
6
CONTINUOUS
10
2.33256
20
1.41148
11
2.33269
21
1.41072
0
LINE
8
BLACK
6
CONTINUOUS
10
2.33269
20
1.41072
11
2.33295
21
1.41
0
LINE
8
BLACK
6
CONTINUOUS
10
2.33295
20
1.41
11
2.33295
21
1.31
0
LINE
8
BLACK
6
CONTINUOUS
10
2.33295
20
1.31
11
2.33295
21
1.21
0
LINE
8
BLACK
6
CONTINUOUS
10
2.33295
20
1.21
11
2.33295
21
1.21
0
LINE
8
BLACK
6
CONTINUOUS
10
2.33295
20
1.21
11
2.33295
21
1.11
0
LINE
8
BLACK
6
CONTINUOUS
10
2.33295
20
1.11
11
2.33295
21
1.01
0
LINE
8
BLACK
6
CONTINUOUS
10
2.33295
20
1.01
11
2.33289
21
1.00962
0
LINE
8
BLACK
6
CONTINUOUS
10
2.33289
20
1.00962
11
2.33291
21
1.00949
0
LINE
8
BLACK
6
CONTINUOUS
10
2.33291
20
1.00949
11
2.33284
21
1.00937
0
LINE
8
BLACK
6
CONTINUOUS
10
2.33284
20
1.00937
11
2.33277
21
1.00899
0
LINE
8
BLACK
6
CONTINUOUS
10
2.33277
20
1.00899
11
2.33228
21
1.0084
0
LINE
8
BLACK
6
CONTINUOUS
10
2.33228
20
1.0084
11
2.3319
21
1.00774
0
LINE
8
BLACK
6
CONTINUOUS
10
2.3319
20
1.00774
11
2.33165
21
1.00765
0
LINE
8
BLACK
6
CONTINUOUS
10
2.33165
20
1.00765
11
2.33148
21
1.00744
0
LINE
8
BLACK
6
CONTINUOUS
10
2.33148
20
1.00744
11
2.33072
21
1.00731
0
LINE
8
BLACK
6
CONTINUOUS
10
2.33072
20
1.00731
11
2.33
21
1.00705
0
LINE
8
BLACK
6
CONTINUOUS
10
2.33
20
1.00705
11
2.13
21
1.00705
0
LINE
8
BLACK
6
CONTINUOUS
10
2.13
20
1.00705
11
2.12962
21
1.00711
0
LINE
8
BLACK
6
CONTINUOUS
10
2.12962
20
1.00711
11
2.12949
21
1.00709
0
LINE
8
BLACK
6
CONTINUOUS
10
2.12949
20
1.00709
11
2.12937
21
1.00716
0
LINE
8
BLACK
6
CONTINUOUS
10
2.12937
20
1.00716
11
2.12899
21
1.00723
0
LINE
8
BLACK
6
CONTINUOUS
10
2.12899
20
1.00723
11
2.1284
21
1.00772
0
LINE
8
BLACK
6
CONTINUOUS
10
2.1284
20
1.00772
11
2.12774
21
1.0081
0
LINE
8
BLACK
6
CONTINUOUS
10
2.12774
20
1.0081
11
2.12765
21
1.00835
0
LINE
8
BLACK
6
CONTINUOUS
10
2.12765
20
1.00835
11
2.12744
21
1.00852
0
LINE
8
BLACK
6
CONTINUOUS
10
2.12744
20
1.00852
11
2.12731
21
1.00928
0
LINE
8
BLACK
6
CONTINUOUS
10
2.12731
20
1.00928
11
2.12705
21
1.01
0
LINE
8
BLACK
6
CONTINUOUS
10
2.12705
20
1.01
11
2.12705
21
1.11
0
LINE
8
BLACK
6
CONTINUOUS
10
2.12705
20
1.11
11
2.12705
21
1.21
0
LINE
8
BLACK
6
CONTINUOUS
10
2.12705
20
1.21
11
2.12705
21
1.31
0
LINE
8
BLACK
6
CONTINUOUS
10
2.12705
20
1.31
11
2.12705
21
1.41
0
LINE
8
BLACK
6
CONTINUOUS
10
2.12705
20
1.41
11
2.12711
21
1.41038
0
LINE
8
BLACK
6
CONTINUOUS
10
2.12711
20
1.41038
11
2.12709
21
1.41051
0
LINE
8
BLACK
6
CONTINUOUS
10
2.12709
20
1.41051
11
2.12716
21
1.41063
0
LINE
8
BLACK
6
CONTINUOUS
10
2.12716
20
1.41063
11
2.12723
21
1.41101
0
LINE
8
BLACK
6
CONTINUOUS
10
2.12723
20
1.41101
11
2.12772
21
1.4116
0
LINE
8
BLACK
6
CONTINUOUS
10
2.12772
20
1.4116
11
2.1281
21
1.41226
0
LINE
8
BLACK
6
CONTINUOUS
10
2.1281
20
1.41226
11
2.12835
21
1.41235
0
LINE
8
BLACK
6
CONTINUOUS
10
2.12835
20
1.41235
11
2.12852
21
1.41256
0
LINE
8
BLACK
6
CONTINUOUS
10
2.12852
20
1.41256
11
2.12928
21
1.41269
0
LINE
8
BLACK
6
CONTINUOUS
10
2.12928
20
1.41269
11
2.13
21
1.41295
0
LINE
8
BLACK
6
CONTINUOUS
10
2.13
20
1.41295
11
2.33
21
1.41295
0
LINE
8
BLACK
6
CONTINUOUS
10
2.33
20
1.41295
11
2.33038
21
1.41289
0
LINE
8
BLACK
6
CONTINUOUS
10
2.13295
20
1.10705
11
2.13295
21
1.01295
0
LINE
8
BLACK
6
CONTINUOUS
10
2.13295
20
1.01295
11
2.32705
21
1.01295
0
LINE
8
BLACK
6
CONTINUOUS
10
2.32705
20
1.01295
11
2.32705
21
1.10705
0
LINE
8
BLACK
6
CONTINUOUS
10
2.32705
20
1.10705
11
2.13295
21
1.10705
0
LINE
8
BLACK
6
CONTINUOUS
10
2.13295
20
1.20705
11
2.13295
21
1.11295
0
LINE
8
BLACK
6
CONTINUOUS
10
2.13295
20
1.11295
11
2.32705
21
1.11295
0
LINE
8
BLACK
6
CONTINUOUS
10
2.32705
20
1.11295
11
2.32705
21
1.20705
0
LINE
8
BLACK
6
CONTINUOUS
10
2.32705
20
1.20705
11
2.13295
21
1.20705
0
LINE
8
BLACK
6
CONTINUOUS
10
2.13295
20
1.30705
11
2.13295
21
1.21295
0
LINE
8
BLACK
6
CONTINUOUS
10
2.13295
20
1.21295
11
2.32705
21
1.21295
0
LINE
8
BLACK
6
CONTINUOUS
10
2.32705
20
1.21295
11
2.32705
21
1.30705
0
LINE
8
BLACK
6
CONTINUOUS
10
2.32705
20
1.30705
11
2.13295
21
1.30705
0
LINE
8
BLACK
6
CONTINUOUS
10
2.13295
20
1.40705
11
2.13295
21
1.31295
0
LINE
8
BLACK
6
CONTINUOUS
10
2.13295
20
1.31295
11
2.32705
21
1.31295
0
LINE
8
BLACK
6
CONTINUOUS
10
2.32705
20
1.31295
11
2.32705
21
1.40705
0
LINE
8
BLACK
6
CONTINUOUS
10
2.32705
20
1.40705
11
2.13295
21
1.40705
0
LINE
8
BLACK
6
CONTINUOUS
10
0.477527
20
1.22727
11
0.477591
21
1.22728
0
LINE
8
BLACK
6
CONTINUOUS
10
0.477591
20
1.22728
11
0.483216
21
1.2254
0
LINE
8
BLACK
6
CONTINUOUS
10
0.483216
20
1.2254
11
0.484117
21
1.22491
0
LINE
8
BLACK
6
CONTINUOUS
10
0.484117
20
1.22491
11
0.48421
21
1.22476
0
LINE
8
BLACK
6
CONTINUOUS
10
0.48421
20
1.22476
11
0.48437
21
1.22469
0
LINE
8
BLACK
6
CONTINUOUS
10
0.48437
20
1.22469
11
0.488119
21
1.22094
0
LINE
8
BLACK
6
CONTINUOUS
10
0.488119
20
1.22094
11
0.488708
21
1.2201
0
LINE
8
BLACK
6
CONTINUOUS
10
0.488708
20
1.2201
11
0.488723
21
1.21992
0
LINE
8
BLACK
6
CONTINUOUS
10
0.488723
20
1.21992
11
0.488833
21
1.21978
0
LINE
8
BLACK
6
CONTINUOUS
10
0.488833
20
1.21978
11
0.490707
21
1.21416
0
LINE
8
BLACK
6
CONTINUOUS
10
0.490707
20
1.21416
11
0.490837
21
1.21329
0
LINE
8
BLACK
6
CONTINUOUS
10
0.490837
20
1.21329
11
0.490859
21
1.21323
0
LINE
8
BLACK
6
CONTINUOUS
10
0.490859
20
1.21323
11
0.490859
21
1.20948
0
LINE
8
BLACK
6
CONTINUOUS
10
0.490859
20
1.20948
11
0.490681
21
1.20847
0
LINE
8
BLACK
6
CONTINUOUS
10
0.490681
20
1.20847
11
0.489383
21
1.20692
0
LINE
8
BLACK
6
CONTINUOUS
10
0.489383
20
1.20692
11
0.487394
21
1.20657
0
LINE
8
BLACK
6
CONTINUOUS
10
0.487394
20
1.20657
11
0.485644
21
1.20758
0
LINE
8
BLACK
6
CONTINUOUS
10
0.485644
20
1.20758
11
0.484954
21
1.20948
0
LINE
8
BLACK
6
CONTINUOUS
10
0.484954
20
1.20948
11
0.484954
21
1.21275
0
LINE
8
BLACK
6
CONTINUOUS
10
0.484954
20
1.21275
11
0.483451
21
1.21726
0
LINE
8
BLACK
6
CONTINUOUS
10
0.483451
20
1.21726
11
0.480687
21
1.22002
0
LINE
8
BLACK
6
CONTINUOUS
10
0.480687
20
1.22002
11
0.476179
21
1.22152
0
LINE
8
BLACK
6
CONTINUOUS
10
0.476179
20
1.22152
11
0.448536
21
1.22152
0
LINE
8
BLACK
6
CONTINUOUS
10
0.448536
20
1.22152
11
0.447526
21
1.2217
0
LINE
8
BLACK
6
CONTINUOUS
10
0.447526
20
1.2217
11
0.445979
21
1.223
0
LINE
8
BLACK
6
CONTINUOUS
10
0.445979
20
1.223
11
0.445628
21
1.22499
0
LINE
8
BLACK
6
CONTINUOUS
10
0.445628
20
1.22499
11
0.446638
21
1.22674
0
LINE
8
BLACK
6
CONTINUOUS
10
0.446638
20
1.22674
11
0.448536
21
1.22743
0
LINE
8
BLACK
6
CONTINUOUS
10
0.448536
20
1.22743
11
0.476658
21
1.22743
0
LINE
8
BLACK
6
CONTINUOUS
10
0.476658
20
1.22743
11
0.477527
21
1.22727
0
LINE
8
BLACK
6
CONTINUOUS
10
0.45892
20
1.26662
11
0.459055
21
1.26651
0
LINE
8
BLACK
6
CONTINUOUS
10
0.459055
20
1.26651
11
0.459231
21
1.26649
0
LINE
8
BLACK
6
CONTINUOUS
10
0.459231
20
1.26649
11
0.46298
21
1.26461
0
LINE
8
BLACK
6
CONTINUOUS
10
0.46298
20
1.26461
11
0.463689
21
1.26409
0
LINE
8
BLACK
6
CONTINUOUS
10
0.463689
20
1.26409
11
0.463747
21
1.26406
0
LINE
8
BLACK
6
CONTINUOUS
10
0.463747
20
1.26406
11
0.465409
21
1.2624
0
LINE
8
BLACK
6
CONTINUOUS
10
0.465409
20
1.2624
11
0.467071
21
1.26406
0
LINE
8
BLACK
6
CONTINUOUS
10
0.467071
20
1.26406
11
0.467794
21
1.26456
0
LINE
8
BLACK
6
CONTINUOUS
10
0.467794
20
1.26456
11
0.467838
21
1.26461
0
LINE
8
BLACK
6
CONTINUOUS
10
0.467838
20
1.26461
11
0.471588
21
1.26649
0
LINE
8
BLACK
6
CONTINUOUS
10
0.471588
20
1.26649
11
0.472571
21
1.26678
0
LINE
8
BLACK
6
CONTINUOUS
10
0.472571
20
1.26678
11
0.472742
21
1.26674
0
LINE
8
BLACK
6
CONTINUOUS
10
0.472742
20
1.26674
11
0.472908
21
1.2668
0
LINE
8
BLACK
6
CONTINUOUS
10
0.472908
20
1.2668
11
0.480407
21
1.2668
0
LINE
8
BLACK
6
CONTINUOUS
10
0.480407
20
1.2668
11
0.481417
21
1.26662
0
LINE
8
BLACK
6
CONTINUOUS
10
0.481417
20
1.26662
11
0.481552
21
1.26651
0
LINE
8
BLACK
6
CONTINUOUS
10
0.481552
20
1.26651
11
0.481728
21
1.26649
0
LINE
8
BLACK
6
CONTINUOUS
10
0.481728
20
1.26649
11
0.485477
21
1.26461
0
LINE
8
BLACK
6
CONTINUOUS
10
0.485477
20
1.26461
11
0.486186
21
1.26409
0
LINE
8
BLACK
6
CONTINUOUS
10
0.486186
20
1.26409
11
0.486245
21
1.26406
0
LINE
8
BLACK
6
CONTINUOUS
10
0.486245
20
1.26406
11
0.488119
21
1.26218
0
LINE
8
BLACK
6
CONTINUOUS
10
0.488119
20
1.26218
11
0.488626
21
1.26146
0
LINE
8
BLACK
6
CONTINUOUS
10
0.488626
20
1.26146
11
0.488673
21
1.26142
0
LINE
8
BLACK
6
CONTINUOUS
10
0.488673
20
1.26142
11
0.490547
21
1.25767
0
LINE
8
BLACK
6
CONTINUOUS
10
0.490547
20
1.25767
11
0.49084
21
1.25668
0
LINE
8
BLACK
6
CONTINUOUS
10
0.49084
20
1.25668
11
0.490799
21
1.25651
0
LINE
8
BLACK
6
CONTINUOUS
10
0.490799
20
1.25651
11
0.490859
21
1.25635
0
LINE
8
BLACK
6
CONTINUOUS
10
0.490859
20
1.25635
11
0.490859
21
1.24885
0
LINE
8
BLACK
6
CONTINUOUS
10
0.490859
20
1.24885
11
0.490681
21
1.24784
0
LINE
8
BLACK
6
CONTINUOUS
10
0.490681
20
1.24784
11
0.490567
21
1.2477
0
LINE
8
BLACK
6
CONTINUOUS
10
0.490567
20
1.2477
11
0.490547
21
1.24753
0
LINE
8
BLACK
6
CONTINUOUS
10
0.490547
20
1.24753
11
0.488673
21
1.24378
0
LINE
8
BLACK
6
CONTINUOUS
10
0.488673
20
1.24378
11
0.488147
21
1.24307
0
LINE
8
BLACK
6
CONTINUOUS
10
0.488147
20
1.24307
11
0.488119
21
1.24301
0
LINE
8
BLACK
6
CONTINUOUS
10
0.488119
20
1.24301
11
0.486245
21
1.24113
0
LINE
8
BLACK
6
CONTINUOUS
10
0.486245
20
1.24113
11
0.485521
21
1.24063
0
LINE
8
BLACK
6
CONTINUOUS
10
0.485521
20
1.24063
11
0.485477
21
1.24058
0
LINE
8
BLACK
6
CONTINUOUS
10
0.485477
20
1.24058
11
0.481728
21
1.23871
0
LINE
8
BLACK
6
CONTINUOUS
10
0.481728
20
1.23871
11
0.480745
21
1.23841
0
LINE
8
BLACK
6
CONTINUOUS
10
0.480745
20
1.23841
11
0.480573
21
1.23846
0
LINE
8
BLACK
6
CONTINUOUS
10
0.480573
20
1.23846
11
0.480407
21
1.2384
0
LINE
8
BLACK
6
CONTINUOUS
10
0.480407
20
1.2384
11
0.472908
21
1.2384
0
LINE
8
BLACK
6
CONTINUOUS
10
0.472908
20
1.2384
11
0.471898
21
1.23857
0
LINE
8
BLACK
6
CONTINUOUS
10
0.471898
20
1.23857
11
0.471763
21
1.23869
0
LINE
8
BLACK
6
CONTINUOUS
10
0.471763
20
1.23869
11
0.471588
21
1.23871
0
LINE
8
BLACK
6
CONTINUOUS
10
0.471588
20
1.23871
11
0.467838
21
1.24058
0
LINE
8
BLACK
6
CONTINUOUS
10
0.467838
20
1.24058
11
0.467129
21
1.24111
0
LINE
8
BLACK
6
CONTINUOUS
10
0.467129
20
1.24111
11
0.467071
21
1.24113
0
LINE
8
BLACK
6
CONTINUOUS
10
0.467071
20
1.24113
11
0.465409
21
1.2428
0
LINE
8
BLACK
6
CONTINUOUS
10
0.465409
20
1.2428
11
0.463747
21
1.24113
0
LINE
8
BLACK
6
CONTINUOUS
10
0.463747
20
1.24113
11
0.463024
21
1.24063
0
LINE
8
BLACK
6
CONTINUOUS
10
0.463024
20
1.24063
11
0.46298
21
1.24058
0
LINE
8
BLACK
6
CONTINUOUS
10
0.46298
20
1.24058
11
0.459231
21
1.23871
0
LINE
8
BLACK
6
CONTINUOUS
10
0.459231
20
1.23871
11
0.458248
21
1.23841
0
LINE
8
BLACK
6
CONTINUOUS
10
0.458248
20
1.23841
11
0.458076
21
1.23846
0
LINE
8
BLACK
6
CONTINUOUS
10
0.458076
20
1.23846
11
0.45791
21
1.2384
0
LINE
8
BLACK
6
CONTINUOUS
10
0.45791
20
1.2384
11
0.456035
21
1.2384
0
LINE
8
BLACK
6
CONTINUOUS
10
0.456035
20
1.2384
11
0.455025
21
1.23857
0
LINE
8
BLACK
6
CONTINUOUS
10
0.455025
20
1.23857
11
0.45489
21
1.23869
0
LINE
8
BLACK
6
CONTINUOUS
10
0.45489
20
1.23869
11
0.454715
21
1.23871
0
LINE
8
BLACK
6
CONTINUOUS
10
0.454715
20
1.23871
11
0.450965
21
1.24058
0
LINE
8
BLACK
6
CONTINUOUS
10
0.450965
20
1.24058
11
0.450256
21
1.24111
0
LINE
8
BLACK
6
CONTINUOUS
10
0.450256
20
1.24111
11
0.450198
21
1.24113
0
LINE
8
BLACK
6
CONTINUOUS
10
0.450198
20
1.24113
11
0.448323
21
1.24301
0
LINE
8
BLACK
6
CONTINUOUS
10
0.448323
20
1.24301
11
0.447817
21
1.24373
0
LINE
8
BLACK
6
CONTINUOUS
10
0.447817
20
1.24373
11
0.44777
21
1.24378
0
LINE
8
BLACK
6
CONTINUOUS
10
0.44777
20
1.24378
11
0.445895
21
1.24753
0
LINE
8
BLACK
6
CONTINUOUS
10
0.445895
20
1.24753
11
0.445603
21
1.24851
0
LINE
8
BLACK
6
CONTINUOUS
10
0.445603
20
1.24851
11
0.445644
21
1.24868
0
LINE
8
BLACK
6
CONTINUOUS
10
0.445644
20
1.24868
11
0.445583
21
1.24885
0
LINE
8
BLACK
6
CONTINUOUS
10
0.445583
20
1.24885
11
0.445583
21
1.25635
0
LINE
8
BLACK
6
CONTINUOUS
10
0.445583
20
1.25635
11
0.445761
21
1.25736
0
LINE
8
BLACK
6
CONTINUOUS
10
0.445761
20
1.25736
11
0.445875
21
1.25749
0
LINE
8
BLACK
6
CONTINUOUS
10
0.445875
20
1.25749
11
0.445895
21
1.25767
0
LINE
8
BLACK
6
CONTINUOUS
10
0.445895
20
1.25767
11
0.44777
21
1.26142
0
LINE
8
BLACK
6
CONTINUOUS
10
0.44777
20
1.26142
11
0.448296
21
1.26213
0
LINE
8
BLACK
6
CONTINUOUS
10
0.448296
20
1.26213
11
0.448323
21
1.26218
0
LINE
8
BLACK
6
CONTINUOUS
10
0.448323
20
1.26218
11
0.450198
21
1.26406
0
LINE
8
BLACK
6
CONTINUOUS
10
0.450198
20
1.26406
11
0.450921
21
1.26456
0
LINE
8
BLACK
6
CONTINUOUS
10
0.450921
20
1.26456
11
0.450965
21
1.26461
0
LINE
8
BLACK
6
CONTINUOUS
10
0.450965
20
1.26461
11
0.454715
21
1.26649
0
LINE
8
BLACK
6
CONTINUOUS
10
0.454715
20
1.26649
11
0.455698
21
1.26678
0
LINE
8
BLACK
6
CONTINUOUS
10
0.455698
20
1.26678
11
0.455869
21
1.26674
0
LINE
8
BLACK
6
CONTINUOUS
10
0.455869
20
1.26674
11
0.456035
21
1.2668
0
LINE
8
BLACK
6
CONTINUOUS
10
0.456035
20
1.2668
11
0.45791
21
1.2668
0
LINE
8
BLACK
6
CONTINUOUS
10
0.45791
20
1.2668
11
0.45892
21
1.26662
0
LINE
8
BLACK
6
CONTINUOUS
10
0.454035
20
1.25954
11
0.452838
21
1.25835
0
LINE
8
BLACK
6
CONTINUOUS
10
0.452838
20
1.25835
11
0.451489
21
1.25565
0
LINE
8
BLACK
6
CONTINUOUS
10
0.451489
20
1.25565
11
0.451489
21
1.24954
0
LINE
8
BLACK
6
CONTINUOUS
10
0.451489
20
1.24954
11
0.452838
21
1.24685
0
LINE
8
BLACK
6
CONTINUOUS
10
0.452838
20
1.24685
11
0.454035
21
1.24565
0
LINE
8
BLACK
6
CONTINUOUS
10
0.454035
20
1.24565
11
0.456732
21
1.2443
0
LINE
8
BLACK
6
CONTINUOUS
10
0.456732
20
1.2443
11
0.457213
21
1.2443
0
LINE
8
BLACK
6
CONTINUOUS
10
0.457213
20
1.2443
11
0.45991
21
1.24565
0
LINE
8
BLACK
6
CONTINUOUS
10
0.45991
20
1.24565
11
0.461108
21
1.24685
0
LINE
8
BLACK
6
CONTINUOUS
10
0.461108
20
1.24685
11
0.462456
21
1.24954
0
LINE
8
BLACK
6
CONTINUOUS
10
0.462456
20
1.24954
11
0.462456
21
1.25565
0
LINE
8
BLACK
6
CONTINUOUS
10
0.462456
20
1.25565
11
0.461108
21
1.25835
0
LINE
8
BLACK
6
CONTINUOUS
10
0.461108
20
1.25835
11
0.45991
21
1.25954
0
LINE
8
BLACK
6
CONTINUOUS
10
0.45991
20
1.25954
11
0.457213
21
1.26089
0
LINE
8
BLACK
6
CONTINUOUS
10
0.457213
20
1.26089
11
0.456732
21
1.26089
0
LINE
8
BLACK
6
CONTINUOUS
10
0.456732
20
1.26089
11
0.454035
21
1.25954
0
LINE
8
BLACK
6
CONTINUOUS
10
0.470908
20
1.25954
11
0.469711
21
1.25835
0
LINE
8
BLACK
6
CONTINUOUS
10
0.469711
20
1.25835
11
0.468362
21
1.25565
0
LINE
8
BLACK
6
CONTINUOUS
10
0.468362
20
1.25565
11
0.468362
21
1.24954
0
LINE
8
BLACK
6
CONTINUOUS
10
0.468362
20
1.24954
11
0.469711
21
1.24685
0
LINE
8
BLACK
6
CONTINUOUS
10
0.469711
20
1.24685
11
0.470908
21
1.24565
0
LINE
8
BLACK
6
CONTINUOUS
10
0.470908
20
1.24565
11
0.473605
21
1.2443
0
LINE
8
BLACK
6
CONTINUOUS
10
0.473605
20
1.2443
11
0.47971
21
1.2443
0
LINE
8
BLACK
6
CONTINUOUS
10
0.47971
20
1.2443
11
0.482408
21
1.24565
0
LINE
8
BLACK
6
CONTINUOUS
10
0.482408
20
1.24565
11
0.483605
21
1.24685
0
LINE
8
BLACK
6
CONTINUOUS
10
0.483605
20
1.24685
11
0.484954
21
1.24954
0
LINE
8
BLACK
6
CONTINUOUS
10
0.484954
20
1.24954
11
0.484954
21
1.25565
0
LINE
8
BLACK
6
CONTINUOUS
10
0.484954
20
1.25565
11
0.483605
21
1.25835
0
LINE
8
BLACK
6
CONTINUOUS
10
0.483605
20
1.25835
11
0.482408
21
1.25954
0
LINE
8
BLACK
6
CONTINUOUS
10
0.482408
20
1.25954
11
0.47971
21
1.26089
0
LINE
8
BLACK
6
CONTINUOUS
10
0.47971
20
1.26089
11
0.473605
21
1.26089
0
LINE
8
BLACK
6
CONTINUOUS
10
0.473605
20
1.26089
11
0.470908
21
1.25954
0
LINE
8
BLACK
6
CONTINUOUS
10
0.595
20
1.36457
11
0.596392
21
1.36399
0
LINE
8
BLACK
6
CONTINUOUS
10
0.596392
20
1.36399
11
0.596969
21
1.3626
0
LINE
8
BLACK
6
CONTINUOUS
10
0.596969
20
1.3626
11
0.596969
21
1.1126
0
LINE
8
BLACK
6
CONTINUOUS
10
0.596969
20
1.1126
11
0.596392
21
1.11121
0
LINE
8
BLACK
6
CONTINUOUS
10
0.596392
20
1.11121
11
0.595
21
1.11063
0
LINE
8
BLACK
6
CONTINUOUS
10
0.595
20
1.11063
11
0.47
21
1.11063
0
LINE
8
BLACK
6
CONTINUOUS
10
0.47
20
1.11063
11
0.345
21
1.11063
0
LINE
8
BLACK
6
CONTINUOUS
10
0.345
20
1.11063
11
0.343608
21
1.11121
0
LINE
8
BLACK
6
CONTINUOUS
10
0.343608
20
1.11121
11
0.343031
21
1.1126
0
LINE
8
BLACK
6
CONTINUOUS
10
0.343031
20
1.1126
11
0.343031
21
1.1126
0
LINE
8
BLACK
6
CONTINUOUS
10
0.343031
20
1.1126
11
0.343031
21
1.3626
0
LINE
8
BLACK
6
CONTINUOUS
10
0.343031
20
1.3626
11
0.343608
21
1.36399
0
LINE
8
BLACK
6
CONTINUOUS
10
0.343608
20
1.36399
11
0.345
21
1.36457
0
LINE
8
BLACK
6
CONTINUOUS
10
0.345
20
1.36457
11
0.595
21
1.36457
0
LINE
8
BLACK
6
CONTINUOUS
10
0.346969
20
1.11457
11
0.439131
21
1.11457
0
LINE
8
BLACK
6
CONTINUOUS
10
0.439131
20
1.11457
11
0.428065
21
1.11775
0
LINE
8
BLACK
6
CONTINUOUS
10
0.428065
20
1.11775
11
0.41491
21
1.1232
0
LINE
8
BLACK
6
CONTINUOUS
10
0.41491
20
1.1232
11
0.402449
21
1.13009
0
LINE
8
BLACK
6
CONTINUOUS
10
0.402449
20
1.13009
11
0.390836
21
1.13833
0
LINE
8
BLACK
6
CONTINUOUS
10
0.390836
20
1.13833
11
0.38022
21
1.14782
0
LINE
8
BLACK
6
CONTINUOUS
10
0.38022
20
1.14782
11
0.370732
21
1.15843
0
LINE
8
BLACK
6
CONTINUOUS
10
0.370732
20
1.15843
11
0.362493
21
1.17005
0
LINE
8
BLACK
6
CONTINUOUS
10
0.362493
20
1.17005
11
0.355605
21
1.18251
0
LINE
8
BLACK
6
CONTINUOUS
10
0.355605
20
1.18251
11
0.350157
21
1.19566
0
LINE
8
BLACK
6
CONTINUOUS
10
0.350157
20
1.19566
11
0.346969
21
1.20673
0
LINE
8
BLACK
6
CONTINUOUS
10
0.346969
20
1.20673
11
0.346969
21
1.11457
0
LINE
8
BLACK
6
CONTINUOUS
10
0.466548
20
1.36063
11
0.456203
21
1.36005
0
LINE
8
BLACK
6
CONTINUOUS
10
0.456203
20
1.36005
11
0.44258
21
1.35773
0
LINE
8
BLACK
6
CONTINUOUS
10
0.44258
20
1.35773
11
0.429301
21
1.35391
0
LINE
8
BLACK
6
CONTINUOUS
10
0.429301
20
1.35391
11
0.416535
21
1.34862
0
LINE
8
BLACK
6
CONTINUOUS
10
0.416535
20
1.34862
11
0.40444
21
1.34194
0
LINE
8
BLACK
6
CONTINUOUS
10
0.40444
20
1.34194
11
0.39317
21
1.33394
0
LINE
8
BLACK
6
CONTINUOUS
10
0.39317
20
1.33394
11
0.382867
21
1.32473
0
LINE
8
BLACK
6
CONTINUOUS
10
0.382867
20
1.32473
11
0.373659
21
1.31443
0
LINE
8
BLACK
6
CONTINUOUS
10
0.373659
20
1.31443
11
0.365662
21
1.30316
0
LINE
8
BLACK
6
CONTINUOUS
10
0.365662
20
1.30316
11
0.358978
21
1.29106
0
LINE
8
BLACK
6
CONTINUOUS
10
0.358978
20
1.29106
11
0.35369
21
1.2783
0
LINE
8
BLACK
6
CONTINUOUS
10
0.35369
20
1.2783
11
0.349864
21
1.26502
0
LINE
8
BLACK
6
CONTINUOUS
10
0.349864
20
1.26502
11
0.347549
21
1.2514
0
LINE
8
BLACK
6
CONTINUOUS
10
0.347549
20
1.2514
11
0.346969
21
1.24105
0
LINE
8
BLACK
6
CONTINUOUS
10
0.346969
20
1.24105
11
0.346969
21
1.23415
0
LINE
8
BLACK
6
CONTINUOUS
10
0.346969
20
1.23415
11
0.347549
21
1.2238
0
LINE
8
BLACK
6
CONTINUOUS
10
0.347549
20
1.2238
11
0.349864
21
1.21018
0
LINE
8
BLACK
6
CONTINUOUS
10
0.349864
20
1.21018
11
0.35369
21
1.1969
0
LINE
8
BLACK
6
CONTINUOUS
10
0.35369
20
1.1969
11
0.358978
21
1.18413
0
LINE
8
BLACK
6
CONTINUOUS
10
0.358978
20
1.18413
11
0.365662
21
1.17204
0
LINE
8
BLACK
6
CONTINUOUS
10
0.365662
20
1.17204
11
0.373659
21
1.16077
0
LINE
8
BLACK
6
CONTINUOUS
10
0.373659
20
1.16077
11
0.382867
21
1.15046
0
LINE
8
BLACK
6
CONTINUOUS
10
0.382867
20
1.15046
11
0.39317
21
1.14126
0
LINE
8
BLACK
6
CONTINUOUS
10
0.39317
20
1.14126
11
0.40444
21
1.13326
0
LINE
8
BLACK
6
CONTINUOUS
10
0.40444
20
1.13326
11
0.416535
21
1.12658
0
LINE
8
BLACK
6
CONTINUOUS
10
0.416535
20
1.12658
11
0.429301
21
1.12129
0
LINE
8
BLACK
6
CONTINUOUS
10
0.429301
20
1.12129
11
0.44258
21
1.11746
0
LINE
8
BLACK
6
CONTINUOUS
10
0.44258
20
1.11746
11
0.456203
21
1.11515
0
LINE
8
BLACK
6
CONTINUOUS
10
0.456203
20
1.11515
11
0.466548
21
1.11457
0
LINE
8
BLACK
6
CONTINUOUS
10
0.466548
20
1.11457
11
0.473452
21
1.11457
0
LINE
8
BLACK
6
CONTINUOUS
10
0.473452
20
1.11457
11
0.483797
21
1.11515
0
LINE
8
BLACK
6
CONTINUOUS
10
0.483797
20
1.11515
11
0.49742
21
1.11746
0
LINE
8
BLACK
6
CONTINUOUS
10
0.49742
20
1.11746
11
0.510699
21
1.12129
0
LINE
8
BLACK
6
CONTINUOUS
10
0.510699
20
1.12129
11
0.523465
21
1.12658
0
LINE
8
BLACK
6
CONTINUOUS
10
0.523465
20
1.12658
11
0.53556
21
1.13326
0
LINE
8
BLACK
6
CONTINUOUS
10
0.53556
20
1.13326
11
0.54683
21
1.14126
0
LINE
8
BLACK
6
CONTINUOUS
10
0.54683
20
1.14126
11
0.557133
21
1.15046
0
LINE
8
BLACK
6
CONTINUOUS
10
0.557133
20
1.15046
11
0.566341
21
1.16077
0
LINE
8
BLACK
6
CONTINUOUS
10
0.566341
20
1.16077
11
0.574338
21
1.17204
0
LINE
8
BLACK
6
CONTINUOUS
10
0.574338
20
1.17204
11
0.581022
21
1.18413
0
LINE
8
BLACK
6
CONTINUOUS
10
0.581022
20
1.18413
11
0.58631
21
1.1969
0
LINE
8
BLACK
6
CONTINUOUS
10
0.58631
20
1.1969
11
0.590136
21
1.21018
0
LINE
8
BLACK
6
CONTINUOUS
10
0.590136
20
1.21018
11
0.592451
21
1.2238
0
LINE
8
BLACK
6
CONTINUOUS
10
0.592451
20
1.2238
11
0.593031
21
1.23415
0
LINE
8
BLACK
6
CONTINUOUS
10
0.593031
20
1.23415
11
0.593031
21
1.24105
0
LINE
8
BLACK
6
CONTINUOUS
10
0.593031
20
1.24105
11
0.592451
21
1.2514
0
LINE
8
BLACK
6
CONTINUOUS
10
0.592451
20
1.2514
11
0.590136
21
1.26502
0
LINE
8
BLACK
6
CONTINUOUS
10
0.590136
20
1.26502
11
0.58631
21
1.2783
0
LINE
8
BLACK
6
CONTINUOUS
10
0.58631
20
1.2783
11
0.581022
21
1.29106
0
LINE
8
BLACK
6
CONTINUOUS
10
0.581022
20
1.29106
11
0.574338
21
1.30316
0
LINE
8
BLACK
6
CONTINUOUS
10
0.574338
20
1.30316
11
0.566341
21
1.31443
0
LINE
8
BLACK
6
CONTINUOUS
10
0.566341
20
1.31443
11
0.557133
21
1.32473
0
LINE
8
BLACK
6
CONTINUOUS
10
0.557133
20
1.32473
11
0.54683
21
1.33394
0
LINE
8
BLACK
6
CONTINUOUS
10
0.54683
20
1.33394
11
0.53556
21
1.34194
0
LINE
8
BLACK
6
CONTINUOUS
10
0.53556
20
1.34194
11
0.523465
21
1.34862
0
LINE
8
BLACK
6
CONTINUOUS
10
0.523465
20
1.34862
11
0.510699
21
1.35391
0
LINE
8
BLACK
6
CONTINUOUS
10
0.510699
20
1.35391
11
0.49742
21
1.35773
0
LINE
8
BLACK
6
CONTINUOUS
10
0.49742
20
1.35773
11
0.483797
21
1.36005
0
LINE
8
BLACK
6
CONTINUOUS
10
0.483797
20
1.36005
11
0.473452
21
1.36063
0
LINE
8
BLACK
6
CONTINUOUS
10
0.473452
20
1.36063
11
0.466548
21
1.36063
0
LINE
8
BLACK
6
CONTINUOUS
10
0.589843
20
1.19566
11
0.584395
21
1.18251
0
LINE
8
BLACK
6
CONTINUOUS
10
0.584395
20
1.18251
11
0.577507
21
1.17005
0
LINE
8
BLACK
6
CONTINUOUS
10
0.577507
20
1.17005
11
0.569268
21
1.15843
0
LINE
8
BLACK
6
CONTINUOUS
10
0.569268
20
1.15843
11
0.55978
21
1.14782
0
LINE
8
BLACK
6
CONTINUOUS
10
0.55978
20
1.14782
11
0.549164
21
1.13833
0
LINE
8
BLACK
6
CONTINUOUS
10
0.549164
20
1.13833
11
0.537551
21
1.13009
0
LINE
8
BLACK
6
CONTINUOUS
10
0.537551
20
1.13009
11
0.52509
21
1.1232
0
LINE
8
BLACK
6
CONTINUOUS
10
0.52509
20
1.1232
11
0.511935
21
1.11775
0
LINE
8
BLACK
6
CONTINUOUS
10
0.511935
20
1.11775
11
0.500869
21
1.11457
0
LINE
8
BLACK
6
CONTINUOUS
10
0.500869
20
1.11457
11
0.593031
21
1.11457
0
LINE
8
BLACK
6
CONTINUOUS
10
0.593031
20
1.11457
11
0.593031
21
1.20673
0
LINE
8
BLACK
6
CONTINUOUS
10
0.593031
20
1.20673
11
0.589843
21
1.19566
0
LINE
8
BLACK
6
CONTINUOUS
10
0.346969
20
1.36063
11
0.346969
21
1.26847
0
LINE
8
BLACK
6
CONTINUOUS
10
0.346969
20
1.26847
11
0.350157
21
1.27953
0
LINE
8
BLACK
6
CONTINUOUS
10
0.350157
20
1.27953
11
0.355605
21
1.29269
0
LINE
8
BLACK
6
CONTINUOUS
10
0.355605
20
1.29269
11
0.362493
21
1.30515
0
LINE
8
BLACK
6
CONTINUOUS
10
0.362493
20
1.30515
11
0.370732
21
1.31676
0
LINE
8
BLACK
6
CONTINUOUS
10
0.370732
20
1.31676
11
0.38022
21
1.32738
0
LINE
8
BLACK
6
CONTINUOUS
10
0.38022
20
1.32738
11
0.390836
21
1.33687
0
LINE
8
BLACK
6
CONTINUOUS
10
0.390836
20
1.33687
11
0.402449
21
1.34511
0
LINE
8
BLACK
6
CONTINUOUS
10
0.402449
20
1.34511
11
0.41491
21
1.35199
0
LINE
8
BLACK
6
CONTINUOUS
10
0.41491
20
1.35199
11
0.428065
21
1.35744
0
LINE
8
BLACK
6
CONTINUOUS
10
0.428065
20
1.35744
11
0.439131
21
1.36063
0
LINE
8
BLACK
6
CONTINUOUS
10
0.439131
20
1.36063
11
0.346969
21
1.36063
0
LINE
8
BLACK
6
CONTINUOUS
10
0.500869
20
1.36063
11
0.511935
21
1.35744
0
LINE
8
BLACK
6
CONTINUOUS
10
0.511935
20
1.35744
11
0.52509
21
1.35199
0
LINE
8
BLACK
6
CONTINUOUS
10
0.52509
20
1.35199
11
0.537551
21
1.34511
0
LINE
8
BLACK
6
CONTINUOUS
10
0.537551
20
1.34511
11
0.549164
21
1.33687
0
LINE
8
BLACK
6
CONTINUOUS
10
0.549164
20
1.33687
11
0.55978
21
1.32738
0
LINE
8
BLACK
6
CONTINUOUS
10
0.55978
20
1.32738
11
0.569268
21
1.31676
0
LINE
8
BLACK
6
CONTINUOUS
10
0.569268
20
1.31676
11
0.577507
21
1.30515
0
LINE
8
BLACK
6
CONTINUOUS
10
0.577507
20
1.30515
11
0.584395
21
1.29269
0
LINE
8
BLACK
6
CONTINUOUS
10
0.584395
20
1.29269
11
0.589843
21
1.27953
0
LINE
8
BLACK
6
CONTINUOUS
10
0.589843
20
1.27953
11
0.593031
21
1.26847
0
LINE
8
BLACK
6
CONTINUOUS
10
0.593031
20
1.26847
11
0.593031
21
1.36063
0
LINE
8
BLACK
6
CONTINUOUS
10
0.593031
20
1.36063
11
0.500869
21
1.36063
0
LINE
8
BLACK
6
CONTINUOUS
10
1.81038
20
1.22789
11
1.81051
21
1.22791
0
LINE
8
BLACK
6
CONTINUOUS
10
1.81051
20
1.22791
11
1.81063
21
1.22784
0
LINE
8
BLACK
6
CONTINUOUS
10
1.81063
20
1.22784
11
1.81101
21
1.22777
0
LINE
8
BLACK
6
CONTINUOUS
10
1.81101
20
1.22777
11
1.8116
21
1.22728
0
LINE
8
BLACK
6
CONTINUOUS
10
1.8116
20
1.22728
11
1.81226
21
1.2269
0
LINE
8
BLACK
6
CONTINUOUS
10
1.81226
20
1.2269
11
1.81235
21
1.22665
0
LINE
8
BLACK
6
CONTINUOUS
10
1.81235
20
1.22665
11
1.81256
21
1.22648
0
LINE
8
BLACK
6
CONTINUOUS
10
1.81256
20
1.22648
11
1.81269
21
1.22572
0
LINE
8
BLACK
6
CONTINUOUS
10
1.81269
20
1.22572
11
1.81295
21
1.225
0
LINE
8
BLACK
6
CONTINUOUS
10
1.81295
20
1.225
11
1.81295
21
1.125
0
LINE
8
BLACK
6
CONTINUOUS
10
1.81295
20
1.125
11
1.81289
21
1.12462
0
LINE
8
BLACK
6
CONTINUOUS
10
1.81289
20
1.12462
11
1.81291
21
1.12449
0
LINE
8
BLACK
6
CONTINUOUS
10
1.81291
20
1.12449
11
1.81284
21
1.12437
0
LINE
8
BLACK
6
CONTINUOUS
10
1.81284
20
1.12437
11
1.81277
21
1.12399
0
LINE
8
BLACK
6
CONTINUOUS
10
1.81277
20
1.12399
11
1.81228
21
1.1234
0
LINE
8
BLACK
6
CONTINUOUS
10
1.81228
20
1.1234
11
1.8119
21
1.12274
0
LINE
8
BLACK
6
CONTINUOUS
10
1.8119
20
1.12274
11
1.81165
21
1.12265
0
LINE
8
BLACK
6
CONTINUOUS
10
1.81165
20
1.12265
11
1.81148
21
1.12244
0
LINE
8
BLACK
6
CONTINUOUS
10
1.81148
20
1.12244
11
1.81072
21
1.12231
0
LINE
8
BLACK
6
CONTINUOUS
10
1.81072
20
1.12231
11
1.81
21
1.12205
0
LINE
8
BLACK
6
CONTINUOUS
10
1.81
20
1.12205
11
1.61
21
1.12205
0
LINE
8
BLACK
6
CONTINUOUS
10
1.61
20
1.12205
11
1.60962
21
1.12211
0
LINE
8
BLACK
6
CONTINUOUS
10
1.60962
20
1.12211
11
1.60949
21
1.12209
0
LINE
8
BLACK
6
CONTINUOUS
10
1.60949
20
1.12209
11
1.60937
21
1.12216
0
LINE
8
BLACK
6
CONTINUOUS
10
1.60937
20
1.12216
11
1.60899
21
1.12223
0
LINE
8
BLACK
6
CONTINUOUS
10
1.60899
20
1.12223
11
1.6084
21
1.12272
0
LINE
8
BLACK
6
CONTINUOUS
10
1.6084
20
1.12272
11
1.60774
21
1.1231
0
LINE
8
BLACK
6
CONTINUOUS
10
1.60774
20
1.1231
11
1.60765
21
1.12335
0
LINE
8
BLACK
6
CONTINUOUS
10
1.60765
20
1.12335
11
1.60744
21
1.12352
0
LINE
8
BLACK
6
CONTINUOUS
10
1.60744
20
1.12352
11
1.60731
21
1.12428
0
LINE
8
BLACK
6
CONTINUOUS
10
1.60731
20
1.12428
11
1.60705
21
1.125
0
LINE
8
BLACK
6
CONTINUOUS
10
1.60705
20
1.125
11
1.60705
21
1.225
0
LINE
8
BLACK
6
CONTINUOUS
10
1.60705
20
1.225
11
1.60711
21
1.22538
0
LINE
8
BLACK
6
CONTINUOUS
10
1.60711
20
1.22538
11
1.60709
21
1.22551
0
LINE
8
BLACK
6
CONTINUOUS
10
1.60709
20
1.22551
11
1.60716
21
1.22563
0
LINE
8
BLACK
6
CONTINUOUS
10
1.60716
20
1.22563
11
1.60723
21
1.22601
0
LINE
8
BLACK
6
CONTINUOUS
10
1.60723
20
1.22601
11
1.60772
21
1.2266
0
LINE
8
BLACK
6
CONTINUOUS
10
1.60772
20
1.2266
11
1.6081
21
1.22726
0
LINE
8
BLACK
6
CONTINUOUS
10
1.6081
20
1.22726
11
1.60835
21
1.22735
0
LINE
8
BLACK
6
CONTINUOUS
10
1.60835
20
1.22735
11
1.60852
21
1.22756
0
LINE
8
BLACK
6
CONTINUOUS
10
1.60852
20
1.22756
11
1.60928
21
1.22769
0
LINE
8
BLACK
6
CONTINUOUS
10
1.60928
20
1.22769
11
1.61
21
1.22795
0
LINE
8
BLACK
6
CONTINUOUS
10
1.61
20
1.22795
11
1.81
21
1.22795
0
LINE
8
BLACK
6
CONTINUOUS
10
1.81
20
1.22795
11
1.81038
21
1.22789
0
LINE
8
BLACK
6
CONTINUOUS
10
1.61295
20
1.22205
11
1.61295
21
1.12795
0
LINE
8
BLACK
6
CONTINUOUS
10
1.61295
20
1.12795
11
1.80705
21
1.12795
0
LINE
8
BLACK
6
CONTINUOUS
10
1.80705
20
1.12795
11
1.80705
21
1.22205
0
LINE
8
BLACK
6
CONTINUOUS
10
1.80705
20
1.22205
11
1.61295
21
1.22205
0
LINE
8
BLACK
6
CONTINUOUS
10
0.685767
20
1.21506
11
0.687314
21
1.21377
0
LINE
8
BLACK
6
CONTINUOUS
10
0.687314
20
1.21377
11
0.687665
21
1.21178
0
LINE
8
BLACK
6
CONTINUOUS
10
0.687665
20
1.21178
11
0.686655
21
1.21003
0
LINE
8
BLACK
6
CONTINUOUS
10
0.686655
20
1.21003
11
0.684757
21
1.20934
0
LINE
8
BLACK
6
CONTINUOUS
10
0.684757
20
1.20934
11
0.658696
21
1.20934
0
LINE
8
BLACK
6
CONTINUOUS
10
0.658696
20
1.20934
11
0.674757
21
1.20184
0
LINE
8
BLACK
6
CONTINUOUS
10
0.674757
20
1.20184
11
0.675074
21
1.20162
0
LINE
8
BLACK
6
CONTINUOUS
10
0.675074
20
1.20162
11
0.675201
21
1.20158
0
LINE
8
BLACK
6
CONTINUOUS
10
0.675201
20
1.20158
11
0.675276
21
1.20148
0
LINE
8
BLACK
6
CONTINUOUS
10
0.675276
20
1.20148
11
0.675597
21
1.20125
0
LINE
8
BLACK
6
CONTINUOUS
10
0.675597
20
1.20125
11
0.67592
21
1.20056
0
LINE
8
BLACK
6
CONTINUOUS
10
0.67592
20
1.20056
11
0.67636
21
1.19993
0
LINE
8
BLACK
6
CONTINUOUS
10
0.67636
20
1.19993
11
0.676337
21
1.19966
0
LINE
8
BLACK
6
CONTINUOUS
10
0.676337
20
1.19966
11
0.67645
21
1.19942
0
LINE
8
BLACK
6
CONTINUOUS
10
0.67645
20
1.19942
11
0.676251
21
1.19868
0
LINE
8
BLACK
6
CONTINUOUS
10
0.676251
20
1.19868
11
0.676184
21
1.19792
0
LINE
8
BLACK
6
CONTINUOUS
10
0.676184
20
1.19792
11
0.675996
21
1.19773
0
LINE
8
BLACK
6
CONTINUOUS
10
0.675996
20
1.19773
11
0.675926
21
1.19747
0
LINE
8
BLACK
6
CONTINUOUS
10
0.675926
20
1.19747
11
0.675298
21
1.19703
0
LINE
8
BLACK
6
CONTINUOUS
10
0.675298
20
1.19703
11
0.674757
21
1.19649
0
LINE
8
BLACK
6
CONTINUOUS
10
0.674757
20
1.19649
11
0.658696
21
1.189
0
LINE
8
BLACK
6
CONTINUOUS
10
0.658696
20
1.189
11
0.684757
21
1.189
0
LINE
8
BLACK
6
CONTINUOUS
10
0.684757
20
1.189
11
0.685767
21
1.18882
0
LINE
8
BLACK
6
CONTINUOUS
10
0.685767
20
1.18882
11
0.687314
21
1.18752
0
LINE
8
BLACK
6
CONTINUOUS
10
0.687314
20
1.18752
11
0.687665
21
1.18553
0
LINE
8
BLACK
6
CONTINUOUS
10
0.687665
20
1.18553
11
0.686655
21
1.18378
0
LINE
8
BLACK
6
CONTINUOUS
10
0.686655
20
1.18378
11
0.684757
21
1.18309
0
LINE
8
BLACK
6
CONTINUOUS
10
0.684757
20
1.18309
11
0.645387
21
1.18309
0
LINE
8
BLACK
6
CONTINUOUS
10
0.645387
20
1.18309
11
0.644377
21
1.18327
0
LINE
8
BLACK
6
CONTINUOUS
10
0.644377
20
1.18327
11
0.644075
21
1.18352
0
LINE
8
BLACK
6
CONTINUOUS
10
0.644075
20
1.18352
11
0.643694
21
1.18362
0
LINE
8
BLACK
6
CONTINUOUS
10
0.643694
20
1.18362
11
0.643324
21
1.18415
0
LINE
8
BLACK
6
CONTINUOUS
10
0.643324
20
1.18415
11
0.642829
21
1.18457
0
LINE
8
BLACK
6
CONTINUOUS
10
0.642829
20
1.18457
11
0.642761
21
1.18495
0
LINE
8
BLACK
6
CONTINUOUS
10
0.642761
20
1.18495
11
0.642535
21
1.18528
0
LINE
8
BLACK
6
CONTINUOUS
10
0.642535
20
1.18528
11
0.642591
21
1.18592
0
LINE
8
BLACK
6
CONTINUOUS
10
0.642591
20
1.18592
11
0.642479
21
1.18656
0
LINE
8
BLACK
6
CONTINUOUS
10
0.642479
20
1.18656
11
0.642676
21
1.1869
0
LINE
8
BLACK
6
CONTINUOUS
10
0.642676
20
1.1869
11
0.64271
21
1.18729
0
LINE
8
BLACK
6
CONTINUOUS
10
0.64271
20
1.18729
11
0.643166
21
1.18775
0
LINE
8
BLACK
6
CONTINUOUS
10
0.643166
20
1.18775
11
0.643489
21
1.1883
0
LINE
8
BLACK
6
CONTINUOUS
10
0.643489
20
1.1883
11
0.643859
21
1.18844
0
LINE
8
BLACK
6
CONTINUOUS
10
0.643859
20
1.18844
11
0.644138
21
1.18872
0
LINE
8
BLACK
6
CONTINUOUS
10
0.644138
20
1.18872
11
0.666526
21
1.19917
0
LINE
8
BLACK
6
CONTINUOUS
10
0.666526
20
1.19917
11
0.644138
21
1.20961
0
LINE
8
BLACK
6
CONTINUOUS
10
0.644138
20
1.20961
11
0.643298
21
1.2102
0
LINE
8
BLACK
6
CONTINUOUS
10
0.643298
20
1.2102
11
0.643131
21
1.21056
0
LINE
8
BLACK
6
CONTINUOUS
10
0.643131
20
1.21056
11
0.642829
21
1.21081
0
LINE
8
BLACK
6
CONTINUOUS
10
0.642829
20
1.21081
11
0.642717
21
1.21145
0
LINE
8
BLACK
6
CONTINUOUS
10
0.642717
20
1.21145
11
0.642445
21
1.21203
0
LINE
8
BLACK
6
CONTINUOUS
10
0.642445
20
1.21203
11
0.642547
21
1.21241
0
LINE
8
BLACK
6
CONTINUOUS
10
0.642547
20
1.21241
11
0.642479
21
1.2128
0
LINE
8
BLACK
6
CONTINUOUS
10
0.642479
20
1.2128
11
0.642801
21
1.21336
0
LINE
8
BLACK
6
CONTINUOUS
10
0.642801
20
1.21336
11
0.642968
21
1.21398
0
LINE
8
BLACK
6
CONTINUOUS
10
0.642968
20
1.21398
11
0.643291
21
1.21421
0
LINE
8
BLACK
6
CONTINUOUS
10
0.643291
20
1.21421
11
0.643489
21
1.21455
0
LINE
8
BLACK
6
CONTINUOUS
10
0.643489
20
1.21455
11
0.644095
21
1.21477
0
LINE
8
BLACK
6
CONTINUOUS
10
0.644095
20
1.21477
11
0.644623
21
1.21514
0
LINE
8
BLACK
6
CONTINUOUS
10
0.644623
20
1.21514
11
0.645016
21
1.21511
0
LINE
8
BLACK
6
CONTINUOUS
10
0.645016
20
1.21511
11
0.645387
21
1.21524
0
LINE
8
BLACK
6
CONTINUOUS
10
0.645387
20
1.21524
11
0.684757
21
1.21524
0
LINE
8
BLACK
6
CONTINUOUS
10
0.684757
20
1.21524
11
0.685767
21
1.21506
0
LINE
8
BLACK
6
CONTINUOUS
10
0.683095
20
1.25562
11
0.68497
21
1.25375
0
LINE
8
BLACK
6
CONTINUOUS
10
0.68497
20
1.25375
11
0.685558
21
1.25291
0
LINE
8
BLACK
6
CONTINUOUS
10
0.685558
20
1.25291
11
0.685573
21
1.25273
0
LINE
8
BLACK
6
CONTINUOUS
10
0.685573
20
1.25273
11
0.685683
21
1.25259
0
LINE
8
BLACK
6
CONTINUOUS
10
0.685683
20
1.25259
11
0.687558
21
1.24697
0
LINE
8
BLACK
6
CONTINUOUS
10
0.687558
20
1.24697
11
0.687687
21
1.2461
0
LINE
8
BLACK
6
CONTINUOUS
10
0.687687
20
1.2461
11
0.687709
21
1.24603
0
LINE
8
BLACK
6
CONTINUOUS
10
0.687709
20
1.24603
11
0.687709
21
1.24229
0
LINE
8
BLACK
6
CONTINUOUS
10
0.687709
20
1.24229
11
0.687556
21
1.24142
0
LINE
8
BLACK
6
CONTINUOUS
10
0.687556
20
1.24142
11
0.687558
21
1.24135
0
LINE
8
BLACK
6
CONTINUOUS
10
0.687558
20
1.24135
11
0.685683
21
1.23573
0
LINE
8
BLACK
6
CONTINUOUS
10
0.685683
20
1.23573
11
0.685195
21
1.23483
0
LINE
8
BLACK
6
CONTINUOUS
10
0.685195
20
1.23483
11
0.685044
21
1.23473
0
LINE
8
BLACK
6
CONTINUOUS
10
0.685044
20
1.23473
11
0.68497
21
1.23457
0
LINE
8
BLACK
6
CONTINUOUS
10
0.68497
20
1.23457
11
0.68122
21
1.23082
0
LINE
8
BLACK
6
CONTINUOUS
10
0.68122
20
1.23082
11
0.680497
21
1.23032
0
LINE
8
BLACK
6
CONTINUOUS
10
0.680497
20
1.23032
11
0.680453
21
1.23027
0
LINE
8
BLACK
6
CONTINUOUS
10
0.680453
20
1.23027
11
0.676703
21
1.2284
0
LINE
8
BLACK
6
CONTINUOUS
10
0.676703
20
1.2284
11
0.676215
21
1.22825
0
LINE
8
BLACK
6
CONTINUOUS
10
0.676215
20
1.22825
11
0.676099
21
1.22817
0
LINE
8
BLACK
6
CONTINUOUS
10
0.676099
20
1.22817
11
0.6686
21
1.2263
0
LINE
8
BLACK
6
CONTINUOUS
10
0.6686
20
1.2263
11
0.668012
21
1.22626
0
LINE
8
BLACK
6
CONTINUOUS
10
0.668012
20
1.22626
11
0.667884
21
1.22621
0
LINE
8
BLACK
6
CONTINUOUS
10
0.667884
20
1.22621
11
0.662259
21
1.22621
0
LINE
8
BLACK
6
CONTINUOUS
10
0.662259
20
1.22621
11
0.661679
21
1.22631
0
LINE
8
BLACK
6
CONTINUOUS
10
0.661679
20
1.22631
11
0.661543
21
1.2263
0
LINE
8
BLACK
6
CONTINUOUS
10
0.661543
20
1.2263
11
0.654044
21
1.22817
0
LINE
8
BLACK
6
CONTINUOUS
10
0.654044
20
1.22817
11
0.653579
21
1.22838
0
LINE
8
BLACK
6
CONTINUOUS
10
0.653579
20
1.22838
11
0.65344
21
1.2284
0
LINE
8
BLACK
6
CONTINUOUS
10
0.65344
20
1.2284
11
0.64969
21
1.23027
0
LINE
8
BLACK
6
CONTINUOUS
10
0.64969
20
1.23027
11
0.648981
21
1.2308
0
LINE
8
BLACK
6
CONTINUOUS
10
0.648981
20
1.2308
11
0.648923
21
1.23082
0
LINE
8
BLACK
6
CONTINUOUS
10
0.648923
20
1.23082
11
0.645173
21
1.23457
0
LINE
8
BLACK
6
CONTINUOUS
10
0.645173
20
1.23457
11
0.644585
21
1.23541
0
LINE
8
BLACK
6
CONTINUOUS
10
0.644585
20
1.23541
11
0.64457
21
1.23559
0
LINE
8
BLACK
6
CONTINUOUS
10
0.64457
20
1.23559
11
0.64446
21
1.23573
0
LINE
8
BLACK
6
CONTINUOUS
10
0.64446
20
1.23573
11
0.642585
21
1.24135
0
LINE
8
BLACK
6
CONTINUOUS
10
0.642585
20
1.24135
11
0.642456
21
1.24222
0
LINE
8
BLACK
6
CONTINUOUS
10
0.642456
20
1.24222
11
0.642434
21
1.24229
0
LINE
8
BLACK
6
CONTINUOUS
10
0.642434
20
1.24229
11
0.642434
21
1.24603
0
LINE
8
BLACK
6
CONTINUOUS
10
0.642434
20
1.24603
11
0.642587
21
1.2469
0
LINE
8
BLACK
6
CONTINUOUS
10
0.642587
20
1.2469
11
0.642585
21
1.24697
0
LINE
8
BLACK
6
CONTINUOUS
10
0.642585
20
1.24697
11
0.64446
21
1.25259
0
LINE
8
BLACK
6
CONTINUOUS
10
0.64446
20
1.25259
11
0.644948
21
1.25349
0
LINE
8
BLACK
6
CONTINUOUS
10
0.644948
20
1.25349
11
0.645099
21
1.25359
0
LINE
8
BLACK
6
CONTINUOUS
10
0.645099
20
1.25359
11
0.645173
21
1.25375
0
LINE
8
BLACK
6
CONTINUOUS
10
0.645173
20
1.25375
11
0.647048
21
1.25562
0
LINE
8
BLACK
6
CONTINUOUS
10
0.647048
20
1.25562
11
0.647888
21
1.25621
0
LINE
8
BLACK
6
CONTINUOUS
10
0.647888
20
1.25621
11
0.6499
21
1.25639
0
LINE
8
BLACK
6
CONTINUOUS
10
0.6499
20
1.25639
11
0.651555
21
1.25523
0
LINE
8
BLACK
6
CONTINUOUS
10
0.651555
20
1.25523
11
0.652078
21
1.25328
0
LINE
8
BLACK
6
CONTINUOUS
10
0.652078
20
1.25328
11
0.651224
21
1.25145
0
LINE
8
BLACK
6
CONTINUOUS
10
0.651224
20
1.25145
11
0.649842
21
1.25006
0
LINE
8
BLACK
6
CONTINUOUS
10
0.649842
20
1.25006
11
0.648339
21
1.24556
0
LINE
8
BLACK
6
CONTINUOUS
10
0.648339
20
1.24556
11
0.648339
21
1.24276
0
LINE
8
BLACK
6
CONTINUOUS
10
0.648339
20
1.24276
11
0.649842
21
1.23826
0
LINE
8
BLACK
6
CONTINUOUS
10
0.649842
20
1.23826
11
0.65276
21
1.23534
0
LINE
8
BLACK
6
CONTINUOUS
10
0.65276
20
1.23534
11
0.655791
21
1.23382
0
LINE
8
BLACK
6
CONTINUOUS
10
0.655791
20
1.23382
11
0.662623
21
1.23211
0
LINE
8
BLACK
6
CONTINUOUS
10
0.662623
20
1.23211
11
0.66752
21
1.23211
0
LINE
8
BLACK
6
CONTINUOUS
10
0.66752
20
1.23211
11
0.674352
21
1.23382
0
LINE
8
BLACK
6
CONTINUOUS
10
0.674352
20
1.23382
11
0.677383
21
1.23534
0
LINE
8
BLACK
6
CONTINUOUS
10
0.677383
20
1.23534
11
0.680301
21
1.23826
0
LINE
8
BLACK
6
CONTINUOUS
10
0.680301
20
1.23826
11
0.681804
21
1.24276
0
LINE
8
BLACK
6
CONTINUOUS
10
0.681804
20
1.24276
11
0.681804
21
1.24556
0
LINE
8
BLACK
6
CONTINUOUS
10
0.681804
20
1.24556
11
0.680301
21
1.25006
0
LINE
8
BLACK
6
CONTINUOUS
10
0.680301
20
1.25006
11
0.678919
21
1.25145
0
LINE
8
BLACK
6
CONTINUOUS
10
0.678919
20
1.25145
11
0.678331
21
1.25229
0
LINE
8
BLACK
6
CONTINUOUS
10
0.678331
20
1.25229
11
0.678155
21
1.2543
0
LINE
8
BLACK
6
CONTINUOUS
10
0.678155
20
1.2543
11
0.679313
21
1.25595
0
LINE
8
BLACK
6
CONTINUOUS
10
0.679313
20
1.25595
11
0.681264
21
1.25648
0
LINE
8
BLACK
6
CONTINUOUS
10
0.681264
20
1.25648
11
0.683095
21
1.25562
0
LINE
8
BLACK
6
CONTINUOUS
10
0.647024
20
1.29536
11
0.665072
21
1.28333
0
LINE
8
BLACK
6
CONTINUOUS
10
0.665072
20
1.28333
11
0.683119
21
1.29536
0
LINE
8
BLACK
6
CONTINUOUS
10
0.683119
20
1.29536
11
0.684058
21
1.29577
0
LINE
8
BLACK
6
CONTINUOUS
10
0.684058
20
1.29577
11
0.686065
21
1.29555
0
LINE
8
BLACK
6
CONTINUOUS
10
0.686065
20
1.29555
11
0.687461
21
1.29409
0
LINE
8
BLACK
6
CONTINUOUS
10
0.687461
20
1.29409
11
0.687591
21
1.29207
0
LINE
8
BLACK
6
CONTINUOUS
10
0.687591
20
1.29207
11
0.686395
21
1.29045
0
LINE
8
BLACK
6
CONTINUOUS
10
0.686395
20
1.29045
11
0.670395
21
1.27978
0
LINE
8
BLACK
6
CONTINUOUS
10
0.670395
20
1.27978
11
0.686395
21
1.26911
0
LINE
8
BLACK
6
CONTINUOUS
10
0.686395
20
1.26911
11
0.687136
21
1.26841
0
LINE
8
BLACK
6
CONTINUOUS
10
0.687136
20
1.26841
11
0.687703
21
1.26647
0
LINE
8
BLACK
6
CONTINUOUS
10
0.687703
20
1.26647
11
0.686892
21
1.26462
0
LINE
8
BLACK
6
CONTINUOUS
10
0.686892
20
1.26462
11
0.685081
21
1.26372
0
LINE
8
BLACK
6
CONTINUOUS
10
0.685081
20
1.26372
11
0.683119
21
1.2642
0
LINE
8
BLACK
6
CONTINUOUS
10
0.683119
20
1.2642
11
0.665072
21
1.27623
0
LINE
8
BLACK
6
CONTINUOUS
10
0.665072
20
1.27623
11
0.647024
21
1.2642
0
LINE
8
BLACK
6
CONTINUOUS
10
0.647024
20
1.2642
11
0.646085
21
1.26379
0
LINE
8
BLACK
6
CONTINUOUS
10
0.646085
20
1.26379
11
0.644078
21
1.26401
0
LINE
8
BLACK
6
CONTINUOUS
10
0.644078
20
1.26401
11
0.642683
21
1.26547
0
LINE
8
BLACK
6
CONTINUOUS
10
0.642683
20
1.26547
11
0.642553
21
1.26749
0
LINE
8
BLACK
6
CONTINUOUS
10
0.642553
20
1.26749
11
0.643749
21
1.26911
0
LINE
8
BLACK
6
CONTINUOUS
10
0.643749
20
1.26911
11
0.659748
21
1.27978
0
LINE
8
BLACK
6
CONTINUOUS
10
0.659748
20
1.27978
11
0.643749
21
1.29045
0
LINE
8
BLACK
6
CONTINUOUS
10
0.643749
20
1.29045
11
0.643007
21
1.29116
0
LINE
8
BLACK
6
CONTINUOUS
10
0.643007
20
1.29116
11
0.64244
21
1.29309
0
LINE
8
BLACK
6
CONTINUOUS
10
0.64244
20
1.29309
11
0.643251
21
1.29494
0
LINE
8
BLACK
6
CONTINUOUS
10
0.643251
20
1.29494
11
0.645062
21
1.29584
0
LINE
8
BLACK
6
CONTINUOUS
10
0.645062
20
1.29584
11
0.647024
21
1.29536
  0
ENDSEC
  0
EOF
