  0
SECTION
  2
HEADER
  9
$ANGBASE
  50
0.0
  9
$ANGDIR
  70
1
  9
$MEASUREMENT
  70
0
  0
ENDSEC
  0
SECTION
  2
TABLES
  0
TABLE
  2
LTYPE
  70
4
  0
LTYPE
  5
40F
  2
CONTINUOUS
  70
0
  3
Solid line
  72
65
  73
0
  40
0.0
  0
LTYPE
  5
410
  2
DASHDOT
 70
0
  3
Dash Dot ____ _ ____ _
 72
65
 73
4
 40
2.0
 49
1.25
 49
-0.25
 49
0.25
 49
-0.25
  0
LTYPE
  5
411
  2
DASHED
 70
0
  3
Dashed __ __ __ __ __
 72
65
 73
2
 40
0.75
 49
0.5
 49
-0.25
  0
LTYPE
  5
43B
  2
DOTTED
 70
0
  3
Dotted .  .  .  .
 72
65
 73
2
 40
0.2
 49
0.0
 49
-0.2
  0
ENDTAB
  0
TABLE
  2
STYLE
  70
4
  0
STYLE
  2
KICAD
  70
0
  40
0
  41
1
  42
1
  50
0
  71
0
  3
isocp.shx
  0
STYLE
  2
KICADB
  70
0
  40
0
  41
1
  42
1
  50
0
  71
0
  3
isocp.shx
  0
STYLE
  2
KICADI
  70
0
  40
0
  41
1
  42
1
  50
15
  71
0
  3
isocp.shx
  0
STYLE
  2
KICADBI
  70
0
  40
0
  41
1
  42
1
  50
15
  71
0
  3
isocp.shx
  0
ENDTAB
  0
TABLE
  2
LAYER
  70
1
  0
LAYER
  2
BLACK
  70
0
  62
7
  6
CONTINUOUS
  0
ENDTAB
  0
ENDSEC
  0
SECTION
  2
ENTITIES
0
LINE
8
BLACK
6
CONTINUOUS
10
0.894866
20
1.51498
11
0.897217
21
1.51378
0
LINE
8
BLACK
6
CONTINUOUS
10
0.897217
20
1.51378
11
0.94
21
1.51378
0
LINE
8
BLACK
6
CONTINUOUS
10
0.94
20
1.51378
11
0.941419
21
1.51366
0
LINE
8
BLACK
6
CONTINUOUS
10
0.941419
20
1.51366
11
0.941704
21
1.51367
0
LINE
8
BLACK
6
CONTINUOUS
10
0.941704
20
1.51367
11
0.941869
21
1.51362
0
LINE
8
BLACK
6
CONTINUOUS
10
0.941869
20
1.51362
11
0.942268
21
1.51359
0
LINE
8
BLACK
6
CONTINUOUS
10
0.942268
20
1.51359
11
0.944147
21
1.51295
0
LINE
8
BLACK
6
CONTINUOUS
10
0.944147
20
1.51295
11
0.946052
21
1.51238
0
LINE
8
BLACK
6
CONTINUOUS
10
0.946052
20
1.51238
11
0.946286
21
1.51221
0
LINE
8
BLACK
6
CONTINUOUS
10
0.946286
20
1.51221
11
0.946558
21
1.51212
0
LINE
8
BLACK
6
CONTINUOUS
10
0.946558
20
1.51212
11
0.948127
21
1.5109
0
LINE
8
BLACK
6
CONTINUOUS
10
0.948127
20
1.5109
11
0.949744
21
1.50974
0
LINE
8
BLACK
6
CONTINUOUS
10
0.949744
20
1.50974
11
1.49444
21
0.965044
0
LINE
8
BLACK
6
CONTINUOUS
10
1.49444
20
0.965044
11
1.49487
21
0.964977
0
LINE
8
BLACK
6
CONTINUOUS
10
1.49487
20
0.964977
11
1.49722
21
0.96378
0
LINE
8
BLACK
6
CONTINUOUS
10
1.49722
20
0.96378
11
1.67429
21
0.96378
0
LINE
8
BLACK
6
CONTINUOUS
10
1.67429
20
0.96378
11
1.73496
21
1.02444
0
LINE
8
BLACK
6
CONTINUOUS
10
1.73496
20
1.02444
11
1.73502
21
1.02487
0
LINE
8
BLACK
6
CONTINUOUS
10
1.73502
20
1.02487
11
1.73726
21
1.02926
0
LINE
8
BLACK
6
CONTINUOUS
10
1.73726
20
1.02926
11
1.74074
21
1.03274
0
LINE
8
BLACK
6
CONTINUOUS
10
1.74074
20
1.03274
11
1.74513
21
1.03498
0
LINE
8
BLACK
6
CONTINUOUS
10
1.74513
20
1.03498
11
1.74556
21
1.03504
0
LINE
8
BLACK
6
CONTINUOUS
10
1.74556
20
1.03504
11
1.92234
21
1.21183
0
LINE
8
BLACK
6
CONTINUOUS
10
1.92234
20
1.21183
11
1.92234
21
1.29478
0
LINE
8
BLACK
6
CONTINUOUS
10
1.92234
20
1.29478
11
1.92114
21
1.29713
0
LINE
8
BLACK
6
CONTINUOUS
10
1.92114
20
1.29713
11
1.92037
21
1.302
0
LINE
8
BLACK
6
CONTINUOUS
10
1.92037
20
1.302
11
1.92114
21
1.30687
0
LINE
8
BLACK
6
CONTINUOUS
10
1.92114
20
1.30687
11
1.92338
21
1.31126
0
LINE
8
BLACK
6
CONTINUOUS
10
1.92338
20
1.31126
11
1.92686
21
1.31474
0
LINE
8
BLACK
6
CONTINUOUS
10
1.92686
20
1.31474
11
1.93125
21
1.31698
0
LINE
8
BLACK
6
CONTINUOUS
10
1.93125
20
1.31698
11
1.93612
21
1.31775
0
LINE
8
BLACK
6
CONTINUOUS
10
1.93612
20
1.31775
11
1.94099
21
1.31698
0
LINE
8
BLACK
6
CONTINUOUS
10
1.94099
20
1.31698
11
1.94538
21
1.31474
0
LINE
8
BLACK
6
CONTINUOUS
10
1.94538
20
1.31474
11
1.94886
21
1.31126
0
LINE
8
BLACK
6
CONTINUOUS
10
1.94886
20
1.31126
11
1.9511
21
1.30687
0
LINE
8
BLACK
6
CONTINUOUS
10
1.9511
20
1.30687
11
1.95187
21
1.302
0
LINE
8
BLACK
6
CONTINUOUS
10
1.95187
20
1.302
11
1.9511
21
1.29713
0
LINE
8
BLACK
6
CONTINUOUS
10
1.9511
20
1.29713
11
1.9499
21
1.29478
0
LINE
8
BLACK
6
CONTINUOUS
10
1.9499
20
1.29478
11
1.9499
21
1.20612
0
LINE
8
BLACK
6
CONTINUOUS
10
1.9499
20
1.20612
11
1.94978
21
1.2047
0
LINE
8
BLACK
6
CONTINUOUS
10
1.94978
20
1.2047
11
1.94979
21
1.20441
0
LINE
8
BLACK
6
CONTINUOUS
10
1.94979
20
1.20441
11
1.94974
21
1.20425
0
LINE
8
BLACK
6
CONTINUOUS
10
1.94974
20
1.20425
11
1.94971
21
1.20385
0
LINE
8
BLACK
6
CONTINUOUS
10
1.94971
20
1.20385
11
1.94907
21
1.20197
0
LINE
8
BLACK
6
CONTINUOUS
10
1.94907
20
1.20197
11
1.9485
21
1.20007
0
LINE
8
BLACK
6
CONTINUOUS
10
1.9485
20
1.20007
11
1.94833
21
1.19983
0
LINE
8
BLACK
6
CONTINUOUS
10
1.94833
20
1.19983
11
1.94824
21
1.19956
0
LINE
8
BLACK
6
CONTINUOUS
10
1.94824
20
1.19956
11
1.94702
21
1.19799
0
LINE
8
BLACK
6
CONTINUOUS
10
1.94702
20
1.19799
11
1.94586
21
1.19638
0
LINE
8
BLACK
6
CONTINUOUS
10
1.94586
20
1.19638
11
1.76949
21
1.02
0
LINE
8
BLACK
6
CONTINUOUS
10
1.76949
20
1.02
11
1.83571
21
0.95378
0
LINE
8
BLACK
6
CONTINUOUS
10
1.83571
20
0.95378
11
2.15278
21
0.95378
0
LINE
8
BLACK
6
CONTINUOUS
10
2.15278
20
0.95378
11
2.15513
21
0.954977
0
LINE
8
BLACK
6
CONTINUOUS
10
2.15513
20
0.954977
11
2.16
21
0.955748
0
LINE
8
BLACK
6
CONTINUOUS
10
2.16
20
0.955748
11
2.16487
21
0.954977
0
LINE
8
BLACK
6
CONTINUOUS
10
2.16487
20
0.954977
11
2.16926
21
0.95274
0
LINE
8
BLACK
6
CONTINUOUS
10
2.16926
20
0.95274
11
2.17274
21
0.949256
0
LINE
8
BLACK
6
CONTINUOUS
10
2.17274
20
0.949256
11
2.17498
21
0.944866
0
LINE
8
BLACK
6
CONTINUOUS
10
2.17498
20
0.944866
11
2.17575
21
0.94
0
LINE
8
BLACK
6
CONTINUOUS
10
2.17575
20
0.94
11
2.17498
21
0.935134
0
LINE
8
BLACK
6
CONTINUOUS
10
2.17498
20
0.935134
11
2.17274
21
0.930744
0
LINE
8
BLACK
6
CONTINUOUS
10
2.17274
20
0.930744
11
2.16926
21
0.92726
0
LINE
8
BLACK
6
CONTINUOUS
10
2.16926
20
0.92726
11
2.16487
21
0.925023
0
LINE
8
BLACK
6
CONTINUOUS
10
2.16487
20
0.925023
11
2.16
21
0.924252
0
LINE
8
BLACK
6
CONTINUOUS
10
2.16
20
0.924252
11
2.15513
21
0.925023
0
LINE
8
BLACK
6
CONTINUOUS
10
2.15513
20
0.925023
11
2.15278
21
0.92622
0
LINE
8
BLACK
6
CONTINUOUS
10
2.15278
20
0.92622
11
1.83
21
0.92622
0
LINE
8
BLACK
6
CONTINUOUS
10
1.83
20
0.92622
11
1.82858
21
0.926338
0
LINE
8
BLACK
6
CONTINUOUS
10
1.82858
20
0.926338
11
1.8283
21
0.926326
0
LINE
8
BLACK
6
CONTINUOUS
10
1.8283
20
0.926326
11
1.82813
21
0.926375
0
LINE
8
BLACK
6
CONTINUOUS
10
1.82813
20
0.926375
11
1.82773
21
0.926408
0
LINE
8
BLACK
6
CONTINUOUS
10
1.82773
20
0.926408
11
1.82585
21
0.927054
0
LINE
8
BLACK
6
CONTINUOUS
10
1.82585
20
0.927054
11
1.82395
21
0.927621
0
LINE
8
BLACK
6
CONTINUOUS
10
1.82395
20
0.927621
11
1.82371
21
0.927788
0
LINE
8
BLACK
6
CONTINUOUS
10
1.82371
20
0.927788
11
1.82344
21
0.927881
0
LINE
8
BLACK
6
CONTINUOUS
10
1.82344
20
0.927881
11
1.82187
21
0.929102
0
LINE
8
BLACK
6
CONTINUOUS
10
1.82187
20
0.929102
11
1.82026
21
0.930256
0
LINE
8
BLACK
6
CONTINUOUS
10
1.82026
20
0.930256
11
1.75
21
1.00051
0
LINE
8
BLACK
6
CONTINUOUS
10
1.75
20
1.00051
11
1.68974
21
0.940256
0
LINE
8
BLACK
6
CONTINUOUS
10
1.68974
20
0.940256
11
1.68866
21
0.939336
0
LINE
8
BLACK
6
CONTINUOUS
10
1.68866
20
0.939336
11
1.68846
21
0.939126
0
LINE
8
BLACK
6
CONTINUOUS
10
1.68846
20
0.939126
11
1.68831
21
0.939044
0
LINE
8
BLACK
6
CONTINUOUS
10
1.68831
20
0.939044
11
1.68801
21
0.938786
0
LINE
8
BLACK
6
CONTINUOUS
10
1.68801
20
0.938786
11
1.68622
21
0.937913
0
LINE
8
BLACK
6
CONTINUOUS
10
1.68622
20
0.937913
11
1.68447
21
0.936967
0
LINE
8
BLACK
6
CONTINUOUS
10
1.68447
20
0.936967
11
1.68419
21
0.93692
0
LINE
8
BLACK
6
CONTINUOUS
10
1.68419
20
0.93692
11
1.68393
21
0.936793
0
LINE
8
BLACK
6
CONTINUOUS
10
1.68393
20
0.936793
11
1.68196
21
0.936548
0
LINE
8
BLACK
6
CONTINUOUS
10
1.68196
20
0.936548
11
1.68
21
0.93622
0
LINE
8
BLACK
6
CONTINUOUS
10
1.68
20
0.93622
11
1.49722
21
0.93622
0
LINE
8
BLACK
6
CONTINUOUS
10
1.49722
20
0.93622
11
1.49487
21
0.935023
0
LINE
8
BLACK
6
CONTINUOUS
10
1.49487
20
0.935023
11
1.49
21
0.934252
0
LINE
8
BLACK
6
CONTINUOUS
10
1.49
20
0.934252
11
1.48513
21
0.935023
0
LINE
8
BLACK
6
CONTINUOUS
10
1.48513
20
0.935023
11
1.48472
21
0.935233
0
LINE
8
BLACK
6
CONTINUOUS
10
1.48472
20
0.935233
11
1.36208
21
0.812595
0
LINE
8
BLACK
6
CONTINUOUS
10
1.36208
20
0.812595
11
1.36201
21
0.812171
0
LINE
8
BLACK
6
CONTINUOUS
10
1.36201
20
0.812171
11
1.36082
21
0.80982
0
LINE
8
BLACK
6
CONTINUOUS
10
1.36082
20
0.80982
11
1.36082
21
0.79867
0
LINE
8
BLACK
6
CONTINUOUS
10
1.36082
20
0.79867
11
1.64571
21
0.51378
0
LINE
8
BLACK
6
CONTINUOUS
10
1.64571
20
0.51378
11
1.69278
21
0.51378
0
LINE
8
BLACK
6
CONTINUOUS
10
1.69278
20
0.51378
11
1.69513
21
0.514977
0
LINE
8
BLACK
6
CONTINUOUS
10
1.69513
20
0.514977
11
1.7
21
0.515748
0
LINE
8
BLACK
6
CONTINUOUS
10
1.7
20
0.515748
11
1.70487
21
0.514977
0
LINE
8
BLACK
6
CONTINUOUS
10
1.70487
20
0.514977
11
1.70926
21
0.51274
0
LINE
8
BLACK
6
CONTINUOUS
10
1.70926
20
0.51274
11
1.71274
21
0.509256
0
LINE
8
BLACK
6
CONTINUOUS
10
1.71274
20
0.509256
11
1.71498
21
0.504866
0
LINE
8
BLACK
6
CONTINUOUS
10
1.71498
20
0.504866
11
1.71575
21
0.5
0
LINE
8
BLACK
6
CONTINUOUS
10
1.71575
20
0.5
11
1.71498
21
0.495134
0
LINE
8
BLACK
6
CONTINUOUS
10
1.71498
20
0.495134
11
1.71274
21
0.490744
0
LINE
8
BLACK
6
CONTINUOUS
10
1.71274
20
0.490744
11
1.70926
21
0.48726
0
LINE
8
BLACK
6
CONTINUOUS
10
1.70926
20
0.48726
11
1.70487
21
0.485023
0
LINE
8
BLACK
6
CONTINUOUS
10
1.70487
20
0.485023
11
1.7
21
0.484252
0
LINE
8
BLACK
6
CONTINUOUS
10
1.7
20
0.484252
11
1.69513
21
0.485023
0
LINE
8
BLACK
6
CONTINUOUS
10
1.69513
20
0.485023
11
1.69278
21
0.48622
0
LINE
8
BLACK
6
CONTINUOUS
10
1.69278
20
0.48622
11
1.64
21
0.48622
0
LINE
8
BLACK
6
CONTINUOUS
10
1.64
20
0.48622
11
1.63858
21
0.486338
0
LINE
8
BLACK
6
CONTINUOUS
10
1.63858
20
0.486338
11
1.6383
21
0.486326
0
LINE
8
BLACK
6
CONTINUOUS
10
1.6383
20
0.486326
11
1.63813
21
0.486375
0
LINE
8
BLACK
6
CONTINUOUS
10
1.63813
20
0.486375
11
1.63773
21
0.486408
0
LINE
8
BLACK
6
CONTINUOUS
10
1.63773
20
0.486408
11
1.63585
21
0.487054
0
LINE
8
BLACK
6
CONTINUOUS
10
1.63585
20
0.487054
11
1.63395
21
0.487621
0
LINE
8
BLACK
6
CONTINUOUS
10
1.63395
20
0.487621
11
1.63371
21
0.487788
0
LINE
8
BLACK
6
CONTINUOUS
10
1.63371
20
0.487788
11
1.63344
21
0.487881
0
LINE
8
BLACK
6
CONTINUOUS
10
1.63344
20
0.487881
11
1.63187
21
0.489102
0
LINE
8
BLACK
6
CONTINUOUS
10
1.63187
20
0.489102
11
1.63026
21
0.490256
0
LINE
8
BLACK
6
CONTINUOUS
10
1.63026
20
0.490256
11
1.33729
21
0.783219
0
LINE
8
BLACK
6
CONTINUOUS
10
1.33729
20
0.783219
11
1.33637
21
0.784306
0
LINE
8
BLACK
6
CONTINUOUS
10
1.33637
20
0.784306
11
1.33616
21
0.784499
0
LINE
8
BLACK
6
CONTINUOUS
10
1.33616
20
0.784499
11
1.33608
21
0.78465
0
LINE
8
BLACK
6
CONTINUOUS
10
1.33608
20
0.78465
11
1.33582
21
0.784956
0
LINE
8
BLACK
6
CONTINUOUS
10
1.33582
20
0.784956
11
1.33495
21
0.786741
0
LINE
8
BLACK
6
CONTINUOUS
10
1.33495
20
0.786741
11
1.334
21
0.788488
0
LINE
8
BLACK
6
CONTINUOUS
10
1.334
20
0.788488
11
1.33396
21
0.788772
0
LINE
8
BLACK
6
CONTINUOUS
10
1.33396
20
0.788772
11
1.33383
21
0.789031
0
LINE
8
BLACK
6
CONTINUOUS
10
1.33383
20
0.789031
11
1.33358
21
0.791003
0
LINE
8
BLACK
6
CONTINUOUS
10
1.33358
20
0.791003
11
1.33326
21
0.792963
0
LINE
8
BLACK
6
CONTINUOUS
10
1.33326
20
0.792963
11
1.33326
21
0.803258
0
LINE
8
BLACK
6
CONTINUOUS
10
1.33326
20
0.803258
11
0.952745
21
0.803258
0
LINE
8
BLACK
6
CONTINUOUS
10
0.952745
20
0.803258
11
0.699744
21
0.550256
0
LINE
8
BLACK
6
CONTINUOUS
10
0.699744
20
0.550256
11
0.698657
21
0.549336
0
LINE
8
BLACK
6
CONTINUOUS
10
0.698657
20
0.549336
11
0.698464
21
0.549126
0
LINE
8
BLACK
6
CONTINUOUS
10
0.698464
20
0.549126
11
0.698312
21
0.549044
0
LINE
8
BLACK
6
CONTINUOUS
10
0.698312
20
0.549044
11
0.698007
21
0.548786
0
LINE
8
BLACK
6
CONTINUOUS
10
0.698007
20
0.548786
11
0.696221
21
0.547913
0
LINE
8
BLACK
6
CONTINUOUS
10
0.696221
20
0.547913
11
0.694474
21
0.546967
0
LINE
8
BLACK
6
CONTINUOUS
10
0.694474
20
0.546967
11
0.69419
21
0.54692
0
LINE
8
BLACK
6
CONTINUOUS
10
0.69419
20
0.54692
11
0.693932
21
0.546793
0
LINE
8
BLACK
6
CONTINUOUS
10
0.693932
20
0.546793
11
0.69196
21
0.546548
0
LINE
8
BLACK
6
CONTINUOUS
10
0.69196
20
0.546548
11
0.69
21
0.54622
0
LINE
8
BLACK
6
CONTINUOUS
10
0.69
20
0.54622
11
0.687217
21
0.54622
0
LINE
8
BLACK
6
CONTINUOUS
10
0.687217
20
0.54622
11
0.684866
21
0.545023
0
LINE
8
BLACK
6
CONTINUOUS
10
0.684866
20
0.545023
11
0.68
21
0.544252
0
LINE
8
BLACK
6
CONTINUOUS
10
0.68
20
0.544252
11
0.675134
21
0.545023
0
LINE
8
BLACK
6
CONTINUOUS
10
0.675134
20
0.545023
11
0.670744
21
0.54726
0
LINE
8
BLACK
6
CONTINUOUS
10
0.670744
20
0.54726
11
0.66726
21
0.550744
0
LINE
8
BLACK
6
CONTINUOUS
10
0.66726
20
0.550744
11
0.665023
21
0.555134
0
LINE
8
BLACK
6
CONTINUOUS
10
0.665023
20
0.555134
11
0.664252
21
0.56
0
LINE
8
BLACK
6
CONTINUOUS
10
0.664252
20
0.56
11
0.665023
21
0.564866
0
LINE
8
BLACK
6
CONTINUOUS
10
0.665023
20
0.564866
11
0.66726
21
0.569256
0
LINE
8
BLACK
6
CONTINUOUS
10
0.66726
20
0.569256
11
0.670744
21
0.57274
0
LINE
8
BLACK
6
CONTINUOUS
10
0.670744
20
0.57274
11
0.675134
21
0.574977
0
LINE
8
BLACK
6
CONTINUOUS
10
0.675134
20
0.574977
11
0.68
21
0.575748
0
LINE
8
BLACK
6
CONTINUOUS
10
0.68
20
0.575748
11
0.684866
21
0.574977
0
LINE
8
BLACK
6
CONTINUOUS
10
0.684866
20
0.574977
11
0.68528
21
0.574767
0
LINE
8
BLACK
6
CONTINUOUS
10
0.68528
20
0.574767
11
0.937294
21
0.826781
0
LINE
8
BLACK
6
CONTINUOUS
10
0.937294
20
0.826781
11
0.938381
21
0.827701
0
LINE
8
BLACK
6
CONTINUOUS
10
0.938381
20
0.827701
11
0.938574
21
0.827911
0
LINE
8
BLACK
6
CONTINUOUS
10
0.938574
20
0.827911
11
0.938725
21
0.827993
0
LINE
8
BLACK
6
CONTINUOUS
10
0.938725
20
0.827993
11
0.93903
21
0.828252
0
LINE
8
BLACK
6
CONTINUOUS
10
0.93903
20
0.828252
11
0.940816
21
0.829125
0
LINE
8
BLACK
6
CONTINUOUS
10
0.940816
20
0.829125
11
0.942563
21
0.83007
0
LINE
8
BLACK
6
CONTINUOUS
10
0.942563
20
0.83007
11
0.942847
21
0.830118
0
LINE
8
BLACK
6
CONTINUOUS
10
0.942847
20
0.830118
11
0.943106
21
0.830244
0
LINE
8
BLACK
6
CONTINUOUS
10
0.943106
20
0.830244
11
0.945078
21
0.83049
0
LINE
8
BLACK
6
CONTINUOUS
10
0.945078
20
0.83049
11
0.947037
21
0.830817
0
LINE
8
BLACK
6
CONTINUOUS
10
0.947037
20
0.830817
11
1.33982
21
0.830817
0
LINE
8
BLACK
6
CONTINUOUS
10
1.33982
20
0.830817
11
1.34217
21
0.832015
0
LINE
8
BLACK
6
CONTINUOUS
10
1.34217
20
0.832015
11
1.34259
21
0.832082
0
LINE
8
BLACK
6
CONTINUOUS
10
1.34259
20
0.832082
11
1.46551
21
0.955
0
LINE
8
BLACK
6
CONTINUOUS
10
1.46551
20
0.955
11
0.934292
21
1.48622
0
LINE
8
BLACK
6
CONTINUOUS
10
0.934292
20
1.48622
11
0.897217
21
1.48622
0
LINE
8
BLACK
6
CONTINUOUS
10
0.897217
20
1.48622
11
0.894866
21
1.48502
0
LINE
8
BLACK
6
CONTINUOUS
10
0.894866
20
1.48502
11
0.89
21
1.48425
0
LINE
8
BLACK
6
CONTINUOUS
10
0.89
20
1.48425
11
0.885134
21
1.48502
0
LINE
8
BLACK
6
CONTINUOUS
10
0.885134
20
1.48502
11
0.880744
21
1.48726
0
LINE
8
BLACK
6
CONTINUOUS
10
0.880744
20
1.48726
11
0.87726
21
1.49074
0
LINE
8
BLACK
6
CONTINUOUS
10
0.87726
20
1.49074
11
0.875023
21
1.49513
0
LINE
8
BLACK
6
CONTINUOUS
10
0.875023
20
1.49513
11
0.874252
21
1.5
0
LINE
8
BLACK
6
CONTINUOUS
10
0.874252
20
1.5
11
0.875023
21
1.50487
0
LINE
8
BLACK
6
CONTINUOUS
10
0.875023
20
1.50487
11
0.87726
21
1.50926
0
LINE
8
BLACK
6
CONTINUOUS
10
0.87726
20
1.50926
11
0.880744
21
1.51274
0
LINE
8
BLACK
6
CONTINUOUS
10
0.880744
20
1.51274
11
0.885134
21
1.51498
0
LINE
8
BLACK
6
CONTINUOUS
10
0.885134
20
1.51498
11
0.89
21
1.51575
0
LINE
8
BLACK
6
CONTINUOUS
10
0.89
20
1.51575
11
0.894866
21
1.51498
0
LINE
8
BLACK
6
CONTINUOUS
10
1.02
20
0.538858
11
1.36
21
0.538858
0
LINE
8
BLACK
6
CONTINUOUS
10
1.36
20
0.538858
11
1.36184
21
0.538665
0
LINE
8
BLACK
6
CONTINUOUS
10
1.36184
20
0.538665
11
1.36248
21
0.53838
0
LINE
8
BLACK
6
CONTINUOUS
10
1.36248
20
0.53838
11
1.36317
21
0.53827
0
LINE
8
BLACK
6
CONTINUOUS
10
1.36317
20
0.53827
11
1.36415
21
0.537638
0
LINE
8
BLACK
6
CONTINUOUS
10
1.36415
20
0.537638
11
1.36521
21
0.537166
0
LINE
8
BLACK
6
CONTINUOUS
10
1.36521
20
0.537166
11
1.36568
21
0.536646
0
LINE
8
BLACK
6
CONTINUOUS
10
1.36568
20
0.536646
11
1.36626
21
0.536264
0
LINE
8
BLACK
6
CONTINUOUS
10
1.36626
20
0.536264
11
1.37722
21
0.525308
0
LINE
8
BLACK
6
CONTINUOUS
10
1.37722
20
0.525308
11
1.38
21
0.525748
0
LINE
8
BLACK
6
CONTINUOUS
10
1.38
20
0.525748
11
1.38487
21
0.524977
0
LINE
8
BLACK
6
CONTINUOUS
10
1.38487
20
0.524977
11
1.38926
21
0.52274
0
LINE
8
BLACK
6
CONTINUOUS
10
1.38926
20
0.52274
11
1.39274
21
0.519256
0
LINE
8
BLACK
6
CONTINUOUS
10
1.39274
20
0.519256
11
1.39498
21
0.514866
0
LINE
8
BLACK
6
CONTINUOUS
10
1.39498
20
0.514866
11
1.39575
21
0.51
0
LINE
8
BLACK
6
CONTINUOUS
10
1.39575
20
0.51
11
1.39498
21
0.505134
0
LINE
8
BLACK
6
CONTINUOUS
10
1.39498
20
0.505134
11
1.39274
21
0.500744
0
LINE
8
BLACK
6
CONTINUOUS
10
1.39274
20
0.500744
11
1.38926
21
0.49726
0
LINE
8
BLACK
6
CONTINUOUS
10
1.38926
20
0.49726
11
1.38487
21
0.495023
0
LINE
8
BLACK
6
CONTINUOUS
10
1.38487
20
0.495023
11
1.38
21
0.494252
0
LINE
8
BLACK
6
CONTINUOUS
10
1.38
20
0.494252
11
1.37513
21
0.495023
0
LINE
8
BLACK
6
CONTINUOUS
10
1.37513
20
0.495023
11
1.37074
21
0.49726
0
LINE
8
BLACK
6
CONTINUOUS
10
1.37074
20
0.49726
11
1.36726
21
0.500744
0
LINE
8
BLACK
6
CONTINUOUS
10
1.36726
20
0.500744
11
1.36502
21
0.505134
0
LINE
8
BLACK
6
CONTINUOUS
10
1.36502
20
0.505134
11
1.36425
21
0.51
0
LINE
8
BLACK
6
CONTINUOUS
10
1.36425
20
0.51
11
1.36469
21
0.51278
0
LINE
8
BLACK
6
CONTINUOUS
10
1.36469
20
0.51278
11
1.35633
21
0.521142
0
LINE
8
BLACK
6
CONTINUOUS
10
1.35633
20
0.521142
11
1.02
21
0.521142
0
LINE
8
BLACK
6
CONTINUOUS
10
1.02
20
0.521142
11
1.02
21
0.5
0
LINE
8
BLACK
6
CONTINUOUS
10
1.02
20
0.5
11
0.96
21
0.5
0
LINE
8
BLACK
6
CONTINUOUS
10
0.96
20
0.5
11
0.96
21
0.56
0
LINE
8
BLACK
6
CONTINUOUS
10
0.96
20
0.56
11
1.02
21
0.56
0
LINE
8
BLACK
6
CONTINUOUS
10
1.02
20
0.56
11
1.02
21
0.538858
0
LINE
8
BLACK
6
CONTINUOUS
10
0.92
20
0.5
11
0.86
21
0.5
0
LINE
8
BLACK
6
CONTINUOUS
10
0.86
20
0.5
11
0.86
21
0.56
0
LINE
8
BLACK
6
CONTINUOUS
10
0.86
20
0.56
11
0.92
21
0.56
0
LINE
8
BLACK
6
CONTINUOUS
10
0.92
20
0.56
11
0.92
21
0.5
0
LINE
8
BLACK
6
CONTINUOUS
10
0.92
20
0.6
11
0.86
21
0.6
0
LINE
8
BLACK
6
CONTINUOUS
10
0.86
20
0.6
11
0.86
21
0.66
0
LINE
8
BLACK
6
CONTINUOUS
10
0.86
20
0.66
11
0.92
21
0.66
0
LINE
8
BLACK
6
CONTINUOUS
10
0.92
20
0.66
11
0.92
21
0.6
0
LINE
8
BLACK
6
CONTINUOUS
10
1.02
20
0.6
11
0.96
21
0.6
0
LINE
8
BLACK
6
CONTINUOUS
10
0.96
20
0.6
11
0.96
21
0.66
0
LINE
8
BLACK
6
CONTINUOUS
10
0.96
20
0.66
11
1.02
21
0.66
0
LINE
8
BLACK
6
CONTINUOUS
10
1.02
20
0.66
11
1.02
21
0.6
0
LINE
8
BLACK
6
CONTINUOUS
10
1.64487
20
1.40498
11
1.64926
21
1.40274
0
LINE
8
BLACK
6
CONTINUOUS
10
1.64926
20
1.40274
11
1.65274
21
1.39926
0
LINE
8
BLACK
6
CONTINUOUS
10
1.65274
20
1.39926
11
1.65294
21
1.39886
0
LINE
8
BLACK
6
CONTINUOUS
10
1.65294
20
1.39886
11
1.90519
21
1.39886
0
LINE
8
BLACK
6
CONTINUOUS
10
1.90519
20
1.39886
11
1.90703
21
1.39866
0
LINE
8
BLACK
6
CONTINUOUS
10
1.90703
20
1.39866
11
1.90767
21
1.39838
0
LINE
8
BLACK
6
CONTINUOUS
10
1.90767
20
1.39838
11
1.90836
21
1.39827
0
LINE
8
BLACK
6
CONTINUOUS
10
1.90836
20
1.39827
11
1.90933
21
1.39764
0
LINE
8
BLACK
6
CONTINUOUS
10
1.90933
20
1.39764
11
1.91039
21
1.39717
0
LINE
8
BLACK
6
CONTINUOUS
10
1.91039
20
1.39717
11
1.91086
21
1.39665
0
LINE
8
BLACK
6
CONTINUOUS
10
1.91086
20
1.39665
11
1.91145
21
1.39626
0
LINE
8
BLACK
6
CONTINUOUS
10
1.91145
20
1.39626
11
1.98433
21
1.32338
0
LINE
8
BLACK
6
CONTINUOUS
10
1.98433
20
1.32338
11
1.9855
21
1.32194
0
LINE
8
BLACK
6
CONTINUOUS
10
1.9855
20
1.32194
11
1.98575
21
1.32129
0
LINE
8
BLACK
6
CONTINUOUS
10
1.98575
20
1.32129
11
1.98616
21
1.32072
0
LINE
8
BLACK
6
CONTINUOUS
10
1.98616
20
1.32072
11
1.9864
21
1.31959
0
LINE
8
BLACK
6
CONTINUOUS
10
1.9864
20
1.31959
11
1.98682
21
1.3185
0
LINE
8
BLACK
6
CONTINUOUS
10
1.98682
20
1.3185
11
1.98678
21
1.3178
0
LINE
8
BLACK
6
CONTINUOUS
10
1.98678
20
1.3178
11
1.98693
21
1.31712
0
LINE
8
BLACK
6
CONTINUOUS
10
1.98693
20
1.31712
11
1.98693
21
1.2656
0
LINE
8
BLACK
6
CONTINUOUS
10
1.98693
20
1.2656
11
2.16253
21
1.09
0
LINE
8
BLACK
6
CONTINUOUS
10
2.16253
20
1.09
11
2.21
21
1.09
0
LINE
8
BLACK
6
CONTINUOUS
10
2.21
20
1.09
11
2.21
21
1.03
0
LINE
8
BLACK
6
CONTINUOUS
10
2.21
20
1.03
11
2.15
21
1.03
0
LINE
8
BLACK
6
CONTINUOUS
10
2.15
20
1.03
11
2.15
21
1.07747
0
LINE
8
BLACK
6
CONTINUOUS
10
2.15
20
1.07747
11
1.97181
21
1.25567
0
LINE
8
BLACK
6
CONTINUOUS
10
1.97181
20
1.25567
11
1.97064
21
1.25711
0
LINE
8
BLACK
6
CONTINUOUS
10
1.97064
20
1.25711
11
1.97039
21
1.25776
0
LINE
8
BLACK
6
CONTINUOUS
10
1.97039
20
1.25776
11
1.96998
21
1.25833
0
LINE
8
BLACK
6
CONTINUOUS
10
1.96998
20
1.25833
11
1.96974
21
1.25946
0
LINE
8
BLACK
6
CONTINUOUS
10
1.96974
20
1.25946
11
1.96932
21
1.26054
0
LINE
8
BLACK
6
CONTINUOUS
10
1.96932
20
1.26054
11
1.96936
21
1.26124
0
LINE
8
BLACK
6
CONTINUOUS
10
1.96936
20
1.26124
11
1.96921
21
1.26193
0
LINE
8
BLACK
6
CONTINUOUS
10
1.96921
20
1.26193
11
1.96921
21
1.31345
0
LINE
8
BLACK
6
CONTINUOUS
10
1.96921
20
1.31345
11
1.90152
21
1.38114
0
LINE
8
BLACK
6
CONTINUOUS
10
1.90152
20
1.38114
11
1.65294
21
1.38114
0
LINE
8
BLACK
6
CONTINUOUS
10
1.65294
20
1.38114
11
1.65274
21
1.38074
0
LINE
8
BLACK
6
CONTINUOUS
10
1.65274
20
1.38074
11
1.64926
21
1.37726
0
LINE
8
BLACK
6
CONTINUOUS
10
1.64926
20
1.37726
11
1.64487
21
1.37502
0
LINE
8
BLACK
6
CONTINUOUS
10
1.64487
20
1.37502
11
1.64
21
1.37425
0
LINE
8
BLACK
6
CONTINUOUS
10
1.64
20
1.37425
11
1.63513
21
1.37502
0
LINE
8
BLACK
6
CONTINUOUS
10
1.63513
20
1.37502
11
1.63074
21
1.37726
0
LINE
8
BLACK
6
CONTINUOUS
10
1.63074
20
1.37726
11
1.62726
21
1.38074
0
LINE
8
BLACK
6
CONTINUOUS
10
1.62726
20
1.38074
11
1.62502
21
1.38513
0
LINE
8
BLACK
6
CONTINUOUS
10
1.62502
20
1.38513
11
1.62425
21
1.39
0
LINE
8
BLACK
6
CONTINUOUS
10
1.62425
20
1.39
11
1.62502
21
1.39487
0
LINE
8
BLACK
6
CONTINUOUS
10
1.62502
20
1.39487
11
1.62726
21
1.39926
0
LINE
8
BLACK
6
CONTINUOUS
10
1.62726
20
1.39926
11
1.63074
21
1.40274
0
LINE
8
BLACK
6
CONTINUOUS
10
1.63074
20
1.40274
11
1.63513
21
1.40498
0
LINE
8
BLACK
6
CONTINUOUS
10
1.63513
20
1.40498
11
1.64
21
1.40575
0
LINE
8
BLACK
6
CONTINUOUS
10
1.64
20
1.40575
11
1.64487
21
1.40498
0
LINE
8
BLACK
6
CONTINUOUS
10
2.31
20
1.03
11
2.25
21
1.03
0
LINE
8
BLACK
6
CONTINUOUS
10
2.25
20
1.03
11
2.25
21
1.09
0
LINE
8
BLACK
6
CONTINUOUS
10
2.25
20
1.09
11
2.31
21
1.09
0
LINE
8
BLACK
6
CONTINUOUS
10
2.31
20
1.09
11
2.31
21
1.03
0
LINE
8
BLACK
6
CONTINUOUS
10
2.21
20
1.13
11
2.15
21
1.13
0
LINE
8
BLACK
6
CONTINUOUS
10
2.15
20
1.13
11
2.15
21
1.19
0
LINE
8
BLACK
6
CONTINUOUS
10
2.15
20
1.19
11
2.21
21
1.19
0
LINE
8
BLACK
6
CONTINUOUS
10
2.21
20
1.19
11
2.21
21
1.13
0
LINE
8
BLACK
6
CONTINUOUS
10
2.31
20
1.13
11
2.25
21
1.13
0
LINE
8
BLACK
6
CONTINUOUS
10
2.25
20
1.13
11
2.25
21
1.19
0
LINE
8
BLACK
6
CONTINUOUS
10
2.25
20
1.19
11
2.31
21
1.19
0
LINE
8
BLACK
6
CONTINUOUS
10
2.31
20
1.19
11
2.31
21
1.13
0
LINE
8
BLACK
6
CONTINUOUS
10
2.21
20
1.23
11
2.15
21
1.23
0
LINE
8
BLACK
6
CONTINUOUS
10
2.15
20
1.23
11
2.15
21
1.29
0
LINE
8
BLACK
6
CONTINUOUS
10
2.15
20
1.29
11
2.21
21
1.29
0
LINE
8
BLACK
6
CONTINUOUS
10
2.21
20
1.29
11
2.21
21
1.23
0
LINE
8
BLACK
6
CONTINUOUS
10
2.31
20
1.23
11
2.25
21
1.23
0
LINE
8
BLACK
6
CONTINUOUS
10
2.25
20
1.23
11
2.25
21
1.29
0
LINE
8
BLACK
6
CONTINUOUS
10
2.25
20
1.29
11
2.31
21
1.29
0
LINE
8
BLACK
6
CONTINUOUS
10
2.31
20
1.29
11
2.31
21
1.23
0
LINE
8
BLACK
6
CONTINUOUS
10
2.21
20
1.33
11
2.15
21
1.33
0
LINE
8
BLACK
6
CONTINUOUS
10
2.15
20
1.33
11
2.15
21
1.39
0
LINE
8
BLACK
6
CONTINUOUS
10
2.15
20
1.39
11
2.21
21
1.39
0
LINE
8
BLACK
6
CONTINUOUS
10
2.21
20
1.39
11
2.21
21
1.33
0
LINE
8
BLACK
6
CONTINUOUS
10
2.31
20
1.33
11
2.25
21
1.33
0
LINE
8
BLACK
6
CONTINUOUS
10
2.25
20
1.33
11
2.25
21
1.39
0
LINE
8
BLACK
6
CONTINUOUS
10
2.25
20
1.39
11
2.31
21
1.39
0
LINE
8
BLACK
6
CONTINUOUS
10
2.31
20
1.39
11
2.31
21
1.33
0
LINE
8
BLACK
6
CONTINUOUS
10
0.39
20
0.69
11
0.33
21
0.69
0
LINE
8
BLACK
6
CONTINUOUS
10
0.33
20
0.69
11
0.33
21
0.75
0
LINE
8
BLACK
6
CONTINUOUS
10
0.33
20
0.75
11
0.39
21
0.75
0
LINE
8
BLACK
6
CONTINUOUS
10
0.39
20
0.75
11
0.39
21
0.69
0
LINE
8
BLACK
6
CONTINUOUS
10
0.49
20
0.69
11
0.43
21
0.69
0
LINE
8
BLACK
6
CONTINUOUS
10
0.43
20
0.69
11
0.43
21
0.75
0
LINE
8
BLACK
6
CONTINUOUS
10
0.43
20
0.75
11
0.49
21
0.75
0
LINE
8
BLACK
6
CONTINUOUS
10
0.49
20
0.75
11
0.49
21
0.69
0
LINE
8
BLACK
6
CONTINUOUS
10
2.43
20
0.75
11
2.37
21
0.75
0
LINE
8
BLACK
6
CONTINUOUS
10
2.37
20
0.75
11
2.37
21
0.81
0
LINE
8
BLACK
6
CONTINUOUS
10
2.37
20
0.81
11
2.43
21
0.81
0
LINE
8
BLACK
6
CONTINUOUS
10
2.43
20
0.81
11
2.43
21
0.75
0
LINE
8
BLACK
6
CONTINUOUS
10
2.53
20
0.75
11
2.47
21
0.75
0
LINE
8
BLACK
6
CONTINUOUS
10
2.47
20
0.75
11
2.47
21
0.81
0
LINE
8
BLACK
6
CONTINUOUS
10
2.47
20
0.81
11
2.53
21
0.81
0
LINE
8
BLACK
6
CONTINUOUS
10
2.53
20
0.81
11
2.53
21
0.75
0
LINE
8
BLACK
6
CONTINUOUS
10
0.39
20
0.89
11
0.33
21
0.89
0
LINE
8
BLACK
6
CONTINUOUS
10
0.33
20
0.89
11
0.33
21
0.95
0
LINE
8
BLACK
6
CONTINUOUS
10
0.33
20
0.95
11
0.39
21
0.95
0
LINE
8
BLACK
6
CONTINUOUS
10
0.39
20
0.95
11
0.39
21
0.89
0
LINE
8
BLACK
6
CONTINUOUS
10
0.49
20
0.89
11
0.43
21
0.89
0
LINE
8
BLACK
6
CONTINUOUS
10
0.43
20
0.89
11
0.43
21
0.95
0
LINE
8
BLACK
6
CONTINUOUS
10
0.43
20
0.95
11
0.49
21
0.95
0
LINE
8
BLACK
6
CONTINUOUS
10
0.49
20
0.95
11
0.49
21
0.89
0
LINE
8
BLACK
6
CONTINUOUS
10
0.904866
20
1.15498
11
0.909256
21
1.15274
0
LINE
8
BLACK
6
CONTINUOUS
10
0.909256
20
1.15274
11
0.91274
21
1.14926
0
LINE
8
BLACK
6
CONTINUOUS
10
0.91274
20
1.14926
11
0.913445
21
1.14787
0
LINE
8
BLACK
6
CONTINUOUS
10
0.913445
20
1.14787
11
1.08601
21
1.14787
0
LINE
8
BLACK
6
CONTINUOUS
10
1.08601
20
1.14787
11
1.09013
21
1.14998
0
LINE
8
BLACK
6
CONTINUOUS
10
1.09013
20
1.14998
11
1.095
21
1.15075
0
LINE
8
BLACK
6
CONTINUOUS
10
1.095
20
1.15075
11
1.09987
21
1.14998
0
LINE
8
BLACK
6
CONTINUOUS
10
1.09987
20
1.14998
11
1.10426
21
1.14774
0
LINE
8
BLACK
6
CONTINUOUS
10
1.10426
20
1.14774
11
1.10774
21
1.14426
0
LINE
8
BLACK
6
CONTINUOUS
10
1.10774
20
1.14426
11
1.10998
21
1.13987
0
LINE
8
BLACK
6
CONTINUOUS
10
1.10998
20
1.13987
11
1.11075
21
1.135
0
LINE
8
BLACK
6
CONTINUOUS
10
1.11075
20
1.135
11
1.10998
21
1.13013
0
LINE
8
BLACK
6
CONTINUOUS
10
1.10998
20
1.13013
11
1.10774
21
1.12574
0
LINE
8
BLACK
6
CONTINUOUS
10
1.10774
20
1.12574
11
1.10426
21
1.12226
0
LINE
8
BLACK
6
CONTINUOUS
10
1.10426
20
1.12226
11
1.09987
21
1.12002
0
LINE
8
BLACK
6
CONTINUOUS
10
1.09987
20
1.12002
11
1.095
21
1.11925
0
LINE
8
BLACK
6
CONTINUOUS
10
1.095
20
1.11925
11
1.09013
21
1.12002
0
LINE
8
BLACK
6
CONTINUOUS
10
1.09013
20
1.12002
11
1.08574
21
1.12226
0
LINE
8
BLACK
6
CONTINUOUS
10
1.08574
20
1.12226
11
1.08226
21
1.12574
0
LINE
8
BLACK
6
CONTINUOUS
10
1.08226
20
1.12574
11
1.08002
21
1.13013
0
LINE
8
BLACK
6
CONTINUOUS
10
1.08002
20
1.13013
11
1.07971
21
1.13213
0
LINE
8
BLACK
6
CONTINUOUS
10
1.07971
20
1.13213
11
0.91901
21
1.13213
0
LINE
8
BLACK
6
CONTINUOUS
10
0.91901
20
1.13213
11
0.962165
21
1.08897
0
LINE
8
BLACK
6
CONTINUOUS
10
0.962165
20
1.08897
11
0.962868
21
1.08785
0
LINE
8
BLACK
6
CONTINUOUS
10
0.962868
20
1.08785
11
0.963691
21
1.08682
0
LINE
8
BLACK
6
CONTINUOUS
10
0.963691
20
1.08682
11
0.963791
21
1.08638
0
LINE
8
BLACK
6
CONTINUOUS
10
0.963791
20
1.08638
11
0.964029
21
1.086
0
LINE
8
BLACK
6
CONTINUOUS
10
0.964029
20
1.086
11
0.964177
21
1.08469
0
LINE
8
BLACK
6
CONTINUOUS
10
0.964177
20
1.08469
11
0.964471
21
1.0834
0
LINE
8
BLACK
6
CONTINUOUS
10
0.964471
20
1.0834
11
0.964471
21
1.0047
0
LINE
8
BLACK
6
CONTINUOUS
10
0.964471
20
1.0047
11
0.965853
21
1.00399
0
LINE
8
BLACK
6
CONTINUOUS
10
0.965853
20
1.00399
11
0.969337
21
1.00051
0
LINE
8
BLACK
6
CONTINUOUS
10
0.969337
20
1.00051
11
0.971574
21
0.996117
0
LINE
8
BLACK
6
CONTINUOUS
10
0.971574
20
0.996117
11
0.972345
21
0.991251
0
LINE
8
BLACK
6
CONTINUOUS
10
0.972345
20
0.991251
11
0.971574
21
0.986384
0
LINE
8
BLACK
6
CONTINUOUS
10
0.971574
20
0.986384
11
0.969337
21
0.981994
0
LINE
8
BLACK
6
CONTINUOUS
10
0.969337
20
0.981994
11
0.965853
21
0.97851
0
LINE
8
BLACK
6
CONTINUOUS
10
0.965853
20
0.97851
11
0.961463
21
0.976273
0
LINE
8
BLACK
6
CONTINUOUS
10
0.961463
20
0.976273
11
0.956597
21
0.975502
0
LINE
8
BLACK
6
CONTINUOUS
10
0.956597
20
0.975502
11
0.951731
21
0.976273
0
LINE
8
BLACK
6
CONTINUOUS
10
0.951731
20
0.976273
11
0.94734
21
0.97851
0
LINE
8
BLACK
6
CONTINUOUS
10
0.94734
20
0.97851
11
0.943856
21
0.981994
0
LINE
8
BLACK
6
CONTINUOUS
10
0.943856
20
0.981994
11
0.94162
21
0.986384
0
LINE
8
BLACK
6
CONTINUOUS
10
0.94162
20
0.986384
11
0.940849
21
0.991251
0
LINE
8
BLACK
6
CONTINUOUS
10
0.940849
20
0.991251
11
0.94162
21
0.996117
0
LINE
8
BLACK
6
CONTINUOUS
10
0.94162
20
0.996117
11
0.943856
21
1.00051
0
LINE
8
BLACK
6
CONTINUOUS
10
0.943856
20
1.00051
11
0.94734
21
1.00399
0
LINE
8
BLACK
6
CONTINUOUS
10
0.94734
20
1.00399
11
0.948723
21
1.0047
0
LINE
8
BLACK
6
CONTINUOUS
10
0.948723
20
1.0047
11
0.948723
21
1.08014
0
LINE
8
BLACK
6
CONTINUOUS
10
0.948723
20
1.08014
11
0.903982
21
1.12488
0
LINE
8
BLACK
6
CONTINUOUS
10
0.903982
20
1.12488
11
0.9
21
1.12425
0
LINE
8
BLACK
6
CONTINUOUS
10
0.9
20
1.12425
11
0.895134
21
1.12502
0
LINE
8
BLACK
6
CONTINUOUS
10
0.895134
20
1.12502
11
0.890744
21
1.12726
0
LINE
8
BLACK
6
CONTINUOUS
10
0.890744
20
1.12726
11
0.88726
21
1.13074
0
LINE
8
BLACK
6
CONTINUOUS
10
0.88726
20
1.13074
11
0.885023
21
1.13513
0
LINE
8
BLACK
6
CONTINUOUS
10
0.885023
20
1.13513
11
0.884252
21
1.14
0
LINE
8
BLACK
6
CONTINUOUS
10
0.884252
20
1.14
11
0.885023
21
1.14487
0
LINE
8
BLACK
6
CONTINUOUS
10
0.885023
20
1.14487
11
0.88726
21
1.14926
0
LINE
8
BLACK
6
CONTINUOUS
10
0.88726
20
1.14926
11
0.890744
21
1.15274
0
LINE
8
BLACK
6
CONTINUOUS
10
0.890744
20
1.15274
11
0.895134
21
1.15498
0
LINE
8
BLACK
6
CONTINUOUS
10
0.895134
20
1.15498
11
0.9
21
1.15575
0
LINE
8
BLACK
6
CONTINUOUS
10
0.9
20
1.15575
11
0.904866
21
1.15498
0
LINE
8
BLACK
6
CONTINUOUS
10
1.48
20
1.14
11
1.42
21
1.14
0
LINE
8
BLACK
6
CONTINUOUS
10
1.42
20
1.14
11
1.42
21
1.2
0
LINE
8
BLACK
6
CONTINUOUS
10
1.42
20
1.2
11
1.48
21
1.2
0
LINE
8
BLACK
6
CONTINUOUS
10
1.48
20
1.2
11
1.48
21
1.14
0
LINE
8
BLACK
6
CONTINUOUS
10
1.58
20
1.14
11
1.52
21
1.14
0
LINE
8
BLACK
6
CONTINUOUS
10
1.52
20
1.14
11
1.52
21
1.2
0
LINE
8
BLACK
6
CONTINUOUS
10
1.52
20
1.2
11
1.58
21
1.2
0
LINE
8
BLACK
6
CONTINUOUS
10
1.58
20
1.2
11
1.58
21
1.14
0
LINE
8
BLACK
6
CONTINUOUS
10
1.48
20
1.24
11
1.42
21
1.24
0
LINE
8
BLACK
6
CONTINUOUS
10
1.42
20
1.24
11
1.42
21
1.3
0
LINE
8
BLACK
6
CONTINUOUS
10
1.42
20
1.3
11
1.48
21
1.3
0
LINE
8
BLACK
6
CONTINUOUS
10
1.48
20
1.3
11
1.48
21
1.24
0
LINE
8
BLACK
6
CONTINUOUS
10
1.58
20
1.24
11
1.52
21
1.24
0
LINE
8
BLACK
6
CONTINUOUS
10
1.52
20
1.24
11
1.52
21
1.3
0
LINE
8
BLACK
6
CONTINUOUS
10
1.52
20
1.3
11
1.58
21
1.3
0
LINE
8
BLACK
6
CONTINUOUS
10
1.58
20
1.3
11
1.58
21
1.24
0
LINE
8
BLACK
6
CONTINUOUS
10
1.69
20
1.145
11
1.63
21
1.145
0
LINE
8
BLACK
6
CONTINUOUS
10
1.63
20
1.145
11
1.63
21
1.205
0
LINE
8
BLACK
6
CONTINUOUS
10
1.63
20
1.205
11
1.69
21
1.205
0
LINE
8
BLACK
6
CONTINUOUS
10
1.69
20
1.205
11
1.69
21
1.145
0
LINE
8
BLACK
6
CONTINUOUS
10
1.79
20
1.145
11
1.73
21
1.145
0
LINE
8
BLACK
6
CONTINUOUS
10
1.73
20
1.145
11
1.73
21
1.205
0
LINE
8
BLACK
6
CONTINUOUS
10
1.73
20
1.205
11
1.79
21
1.205
0
LINE
8
BLACK
6
CONTINUOUS
10
1.79
20
1.205
11
1.79
21
1.145
0
LINE
8
BLACK
6
CONTINUOUS
10
0.477873
20
1.27718
11
0.485443
21
1.27488
0
LINE
8
BLACK
6
CONTINUOUS
10
0.485443
20
1.27488
11
0.49242
21
1.27115
0
LINE
8
BLACK
6
CONTINUOUS
10
0.49242
20
1.27115
11
0.498535
21
1.26613
0
LINE
8
BLACK
6
CONTINUOUS
10
0.498535
20
1.26613
11
0.503553
21
1.26002
0
LINE
8
BLACK
6
CONTINUOUS
10
0.503553
20
1.26002
11
0.507283
21
1.25304
0
LINE
8
BLACK
6
CONTINUOUS
10
0.507283
20
1.25304
11
0.509579
21
1.24547
0
LINE
8
BLACK
6
CONTINUOUS
10
0.509579
20
1.24547
11
0.510354
21
1.2376
0
LINE
8
BLACK
6
CONTINUOUS
10
0.510354
20
1.2376
11
0.509579
21
1.22973
0
LINE
8
BLACK
6
CONTINUOUS
10
0.509579
20
1.22973
11
0.507283
21
1.22216
0
LINE
8
BLACK
6
CONTINUOUS
10
0.507283
20
1.22216
11
0.503553
21
1.21518
0
LINE
8
BLACK
6
CONTINUOUS
10
0.503553
20
1.21518
11
0.498535
21
1.20906
0
LINE
8
BLACK
6
CONTINUOUS
10
0.498535
20
1.20906
11
0.49242
21
1.20405
0
LINE
8
BLACK
6
CONTINUOUS
10
0.49242
20
1.20405
11
0.485443
21
1.20032
0
LINE
8
BLACK
6
CONTINUOUS
10
0.485443
20
1.20032
11
0.477873
21
1.19802
0
LINE
8
BLACK
6
CONTINUOUS
10
0.477873
20
1.19802
11
0.47
21
1.19724
0
LINE
8
BLACK
6
CONTINUOUS
10
0.47
20
1.19724
11
0.462127
21
1.19802
0
LINE
8
BLACK
6
CONTINUOUS
10
0.462127
20
1.19802
11
0.454557
21
1.20032
0
LINE
8
BLACK
6
CONTINUOUS
10
0.454557
20
1.20032
11
0.44758
21
1.20405
0
LINE
8
BLACK
6
CONTINUOUS
10
0.44758
20
1.20405
11
0.441465
21
1.20906
0
LINE
8
BLACK
6
CONTINUOUS
10
0.441465
20
1.20906
11
0.436447
21
1.21518
0
LINE
8
BLACK
6
CONTINUOUS
10
0.436447
20
1.21518
11
0.432717
21
1.22216
0
LINE
8
BLACK
6
CONTINUOUS
10
0.432717
20
1.22216
11
0.430421
21
1.22973
0
LINE
8
BLACK
6
CONTINUOUS
10
0.430421
20
1.22973
11
0.429646
21
1.2376
0
LINE
8
BLACK
6
CONTINUOUS
10
0.429646
20
1.2376
11
0.430421
21
1.24547
0
LINE
8
BLACK
6
CONTINUOUS
10
0.430421
20
1.24547
11
0.432717
21
1.25304
0
LINE
8
BLACK
6
CONTINUOUS
10
0.432717
20
1.25304
11
0.436447
21
1.26002
0
LINE
8
BLACK
6
CONTINUOUS
10
0.436447
20
1.26002
11
0.441465
21
1.26613
0
LINE
8
BLACK
6
CONTINUOUS
10
0.441465
20
1.26613
11
0.44758
21
1.27115
0
LINE
8
BLACK
6
CONTINUOUS
10
0.44758
20
1.27115
11
0.454557
21
1.27488
0
LINE
8
BLACK
6
CONTINUOUS
10
0.454557
20
1.27488
11
0.462127
21
1.27718
0
LINE
8
BLACK
6
CONTINUOUS
10
0.462127
20
1.27718
11
0.47
21
1.27795
0
LINE
8
BLACK
6
CONTINUOUS
10
0.47
20
1.27795
11
0.477873
21
1.27718
0
LINE
8
BLACK
6
CONTINUOUS
10
2.58731
20
1.7888
11
2.58914
21
1.78669
0
LINE
8
BLACK
6
CONTINUOUS
10
2.58914
20
1.78669
11
2.58959
21
1.78463
0
LINE
8
BLACK
6
CONTINUOUS
10
2.58959
20
1.78463
11
2.58959
21
0.215374
0
LINE
8
BLACK
6
CONTINUOUS
10
2.58959
20
0.215374
11
2.5888
21
0.212692
0
LINE
8
BLACK
6
CONTINUOUS
10
2.5888
20
0.212692
11
2.58669
21
0.210862
0
LINE
8
BLACK
6
CONTINUOUS
10
2.58669
20
0.210862
11
2.58463
21
0.210413
0
LINE
8
BLACK
6
CONTINUOUS
10
2.58463
20
0.210413
11
0.215374
21
0.210413
0
LINE
8
BLACK
6
CONTINUOUS
10
0.215374
20
0.210413
11
0.212692
21
0.211201
0
LINE
8
BLACK
6
CONTINUOUS
10
0.212692
20
0.211201
11
0.210862
21
0.213313
0
LINE
8
BLACK
6
CONTINUOUS
10
0.210862
20
0.213313
11
0.210413
21
0.215374
0
LINE
8
BLACK
6
CONTINUOUS
10
0.210413
20
0.215374
11
0.210413
21
0.56
0
LINE
8
BLACK
6
CONTINUOUS
10
0.210413
20
0.56
11
0.210413
21
0.688759
0
LINE
8
BLACK
6
CONTINUOUS
10
0.210413
20
0.688759
11
0.210413
21
0.888759
0
LINE
8
BLACK
6
CONTINUOUS
10
0.210413
20
0.888759
11
0.210413
21
1.14
0
LINE
8
BLACK
6
CONTINUOUS
10
0.210413
20
1.14
11
0.210413
21
1.2376
0
LINE
8
BLACK
6
CONTINUOUS
10
0.210413
20
1.2376
11
0.210413
21
1.78463
0
LINE
8
BLACK
6
CONTINUOUS
10
0.210413
20
1.78463
11
0.211201
21
1.78731
0
LINE
8
BLACK
6
CONTINUOUS
10
0.211201
20
1.78731
11
0.213313
21
1.78914
0
LINE
8
BLACK
6
CONTINUOUS
10
0.213313
20
1.78914
11
0.215374
21
1.78959
0
LINE
8
BLACK
6
CONTINUOUS
10
0.215374
20
1.78959
11
2.58463
21
1.78959
0
LINE
8
BLACK
6
CONTINUOUS
10
2.58463
20
1.78959
11
2.58731
21
1.7888
0
LINE
8
BLACK
6
CONTINUOUS
10
0.64908
20
0.552943
11
0.650632
21
0.548509
0
LINE
8
BLACK
6
CONTINUOUS
10
0.650632
20
0.548509
11
0.651426
21
0.546239
0
LINE
8
BLACK
6
CONTINUOUS
10
0.651426
20
0.546239
11
0.651426
21
0.546239
0
LINE
8
BLACK
6
CONTINUOUS
10
0.651426
20
0.546239
11
0.655204
21
0.540226
0
LINE
8
BLACK
6
CONTINUOUS
10
0.655204
20
0.540226
11
0.655204
21
0.540226
0
LINE
8
BLACK
6
CONTINUOUS
10
0.655204
20
0.540226
11
0.660226
21
0.535204
0
LINE
8
BLACK
6
CONTINUOUS
10
0.660226
20
0.535204
11
0.660226
21
0.535204
0
LINE
8
BLACK
6
CONTINUOUS
10
0.660226
20
0.535204
11
0.666239
21
0.531426
0
LINE
8
BLACK
6
CONTINUOUS
10
0.666239
20
0.531426
11
0.666239
21
0.531426
0
LINE
8
BLACK
6
CONTINUOUS
10
0.666239
20
0.531426
11
0.666239
21
0.531426
0
LINE
8
BLACK
6
CONTINUOUS
10
0.666239
20
0.531426
11
0.672943
21
0.52908
0
LINE
8
BLACK
6
CONTINUOUS
10
0.672943
20
0.52908
11
0.68
21
0.528285
0
LINE
8
BLACK
6
CONTINUOUS
10
0.68
20
0.528285
11
0.687057
21
0.52908
0
LINE
8
BLACK
6
CONTINUOUS
10
0.687057
20
0.52908
11
0.690185
21
0.530174
0
LINE
8
BLACK
6
CONTINUOUS
10
0.690185
20
0.530174
11
0.691579
21
0.530411
0
LINE
8
BLACK
6
CONTINUOUS
10
0.691579
20
0.530411
11
0.691578
21
0.530434
0
LINE
8
BLACK
6
CONTINUOUS
10
0.691578
20
0.530434
11
0.691577
21
0.530436
0
LINE
8
BLACK
6
CONTINUOUS
10
0.691577
20
0.530436
11
0.691578
21
0.530436
0
LINE
8
BLACK
6
CONTINUOUS
10
0.691578
20
0.530436
11
0.691577
21
0.530444
0
LINE
8
BLACK
6
CONTINUOUS
10
0.691577
20
0.530444
11
0.691721
21
0.530453
0
LINE
8
BLACK
6
CONTINUOUS
10
0.691721
20
0.530453
11
0.691721
21
0.530453
0
LINE
8
BLACK
6
CONTINUOUS
10
0.691721
20
0.530453
11
0.693003
21
0.530603
0
LINE
8
BLACK
6
CONTINUOUS
10
0.693003
20
0.530603
11
0.696016
21
0.530866
0
LINE
8
BLACK
6
CONTINUOUS
10
0.696016
20
0.530866
11
0.696016
21
0.530866
0
LINE
8
BLACK
6
CONTINUOUS
10
0.696016
20
0.530866
11
0.696299
21
0.530925
0
LINE
8
BLACK
6
CONTINUOUS
10
0.696299
20
0.530925
11
0.696299
21
0.530922
0
LINE
8
BLACK
6
CONTINUOUS
10
0.696299
20
0.530922
11
0.69658
21
0.530984
0
LINE
8
BLACK
6
CONTINUOUS
10
0.69658
20
0.530984
11
0.696579
21
0.530987
0
LINE
8
BLACK
6
CONTINUOUS
10
0.696579
20
0.530987
11
0.69686
21
0.531054
0
LINE
8
BLACK
6
CONTINUOUS
10
0.69686
20
0.531054
11
0.69686
21
0.531054
0
LINE
8
BLACK
6
CONTINUOUS
10
0.69686
20
0.531054
11
0.699702
21
0.532088
0
LINE
8
BLACK
6
CONTINUOUS
10
0.699702
20
0.532088
11
0.702572
21
0.533039
0
LINE
8
BLACK
6
CONTINUOUS
10
0.702572
20
0.533039
11
0.702572
21
0.533039
0
LINE
8
BLACK
6
CONTINUOUS
10
0.702572
20
0.533039
11
0.702834
21
0.533161
0
LINE
8
BLACK
6
CONTINUOUS
10
0.702834
20
0.533161
11
0.702835
21
0.533158
0
LINE
8
BLACK
6
CONTINUOUS
10
0.702835
20
0.533158
11
0.703094
21
0.533283
0
LINE
8
BLACK
6
CONTINUOUS
10
0.703094
20
0.533283
11
0.703093
21
0.533286
0
LINE
8
BLACK
6
CONTINUOUS
10
0.703093
20
0.533286
11
0.703351
21
0.533416
0
LINE
8
BLACK
6
CONTINUOUS
10
0.703351
20
0.533416
11
0.703351
21
0.533416
0
LINE
8
BLACK
6
CONTINUOUS
10
0.703351
20
0.533416
11
0.703351
21
0.533416
0
LINE
8
BLACK
6
CONTINUOUS
10
0.703351
20
0.533416
11
0.704302
21
0.534041
0
LINE
8
BLACK
6
CONTINUOUS
10
0.704302
20
0.534041
11
0.705877
21
0.535077
0
LINE
8
BLACK
6
CONTINUOUS
10
0.705877
20
0.535077
11
0.707164
21
0.535871
0
LINE
8
BLACK
6
CONTINUOUS
10
0.707164
20
0.535871
11
0.708451
21
0.536665
0
LINE
8
BLACK
6
CONTINUOUS
10
0.708451
20
0.536665
11
0.708451
21
0.536665
0
LINE
8
BLACK
6
CONTINUOUS
10
0.708451
20
0.536665
11
0.708678
21
0.536844
0
LINE
8
BLACK
6
CONTINUOUS
10
0.708678
20
0.536844
11
0.70868
21
0.536842
0
LINE
8
BLACK
6
CONTINUOUS
10
0.70868
20
0.536842
11
0.708902
21
0.537023
0
LINE
8
BLACK
6
CONTINUOUS
10
0.708902
20
0.537023
11
0.7089
21
0.537026
0
LINE
8
BLACK
6
CONTINUOUS
10
0.7089
20
0.537026
11
0.709122
21
0.537211
0
LINE
8
BLACK
6
CONTINUOUS
10
0.709122
20
0.537211
11
0.709122
21
0.537211
0
LINE
8
BLACK
6
CONTINUOUS
10
0.709122
20
0.537211
11
0.711196
21
0.53941
0
LINE
8
BLACK
6
CONTINUOUS
10
0.711196
20
0.53941
11
0.835764
21
0.663978
0
LINE
8
BLACK
6
CONTINUOUS
10
0.835764
20
0.663978
11
0.838217
21
0.665317
0
LINE
8
BLACK
6
CONTINUOUS
10
0.838217
20
0.665317
11
0.841005
21
0.665118
0
LINE
8
BLACK
6
CONTINUOUS
10
0.841005
20
0.665118
11
0.843243
21
0.663443
0
LINE
8
BLACK
6
CONTINUOUS
10
0.843243
20
0.663443
11
0.84422
21
0.660824
0
LINE
8
BLACK
6
CONTINUOUS
10
0.84422
20
0.660824
11
0.844232
21
0.66047
0
LINE
8
BLACK
6
CONTINUOUS
10
0.844232
20
0.66047
11
0.844232
21
0.598759
0
LINE
8
BLACK
6
CONTINUOUS
10
0.844232
20
0.598759
11
0.844817
21
0.595067
0
LINE
8
BLACK
6
CONTINUOUS
10
0.844817
20
0.595067
11
0.847085
21
0.590616
0
LINE
8
BLACK
6
CONTINUOUS
10
0.847085
20
0.590616
11
0.850616
21
0.587085
0
LINE
8
BLACK
6
CONTINUOUS
10
0.850616
20
0.587085
11
0.852884
21
0.585929
0
LINE
8
BLACK
6
CONTINUOUS
10
0.852884
20
0.585929
11
0.855067
21
0.584817
0
LINE
8
BLACK
6
CONTINUOUS
10
0.855067
20
0.584817
11
0.855067
21
0.584817
0
LINE
8
BLACK
6
CONTINUOUS
10
0.855067
20
0.584817
11
0.855372
21
0.584718
0
LINE
8
BLACK
6
CONTINUOUS
10
0.855372
20
0.584718
11
0.857679
21
0.58314
0
LINE
8
BLACK
6
CONTINUOUS
10
0.857679
20
0.58314
11
0.858768
21
0.580566
0
LINE
8
BLACK
6
CONTINUOUS
10
0.858768
20
0.580566
11
0.858291
21
0.577812
0
LINE
8
BLACK
6
CONTINUOUS
10
0.858291
20
0.577812
11
0.856401
21
0.575752
0
LINE
8
BLACK
6
CONTINUOUS
10
0.856401
20
0.575752
11
0.855372
21
0.575282
0
LINE
8
BLACK
6
CONTINUOUS
10
0.855372
20
0.575282
11
0.855067
21
0.575183
0
LINE
8
BLACK
6
CONTINUOUS
10
0.855067
20
0.575183
11
0.850616
21
0.572915
0
LINE
8
BLACK
6
CONTINUOUS
10
0.850616
20
0.572915
11
0.847085
21
0.569384
0
LINE
8
BLACK
6
CONTINUOUS
10
0.847085
20
0.569384
11
0.844817
21
0.564933
0
LINE
8
BLACK
6
CONTINUOUS
10
0.844817
20
0.564933
11
0.844817
21
0.564933
0
LINE
8
BLACK
6
CONTINUOUS
10
0.844817
20
0.564933
11
0.844232
21
0.561241
0
LINE
8
BLACK
6
CONTINUOUS
10
0.844232
20
0.561241
11
0.844232
21
0.561241
0
LINE
8
BLACK
6
CONTINUOUS
10
0.844232
20
0.561241
11
0.844232
21
0.498759
0
LINE
8
BLACK
6
CONTINUOUS
10
0.844232
20
0.498759
11
0.844817
21
0.495067
0
LINE
8
BLACK
6
CONTINUOUS
10
0.844817
20
0.495067
11
0.847085
21
0.490616
0
LINE
8
BLACK
6
CONTINUOUS
10
0.847085
20
0.490616
11
0.850616
21
0.487085
0
LINE
8
BLACK
6
CONTINUOUS
10
0.850616
20
0.487085
11
0.852138
21
0.48631
0
LINE
8
BLACK
6
CONTINUOUS
10
0.852138
20
0.48631
11
0.855067
21
0.484817
0
LINE
8
BLACK
6
CONTINUOUS
10
0.855067
20
0.484817
11
0.858759
21
0.484232
0
LINE
8
BLACK
6
CONTINUOUS
10
0.858759
20
0.484232
11
0.921241
21
0.484232
0
LINE
8
BLACK
6
CONTINUOUS
10
0.921241
20
0.484232
11
0.924933
21
0.484817
0
LINE
8
BLACK
6
CONTINUOUS
10
0.924933
20
0.484817
11
0.929384
21
0.487085
0
LINE
8
BLACK
6
CONTINUOUS
10
0.929384
20
0.487085
11
0.932915
21
0.490616
0
LINE
8
BLACK
6
CONTINUOUS
10
0.932915
20
0.490616
11
0.935183
21
0.495067
0
LINE
8
BLACK
6
CONTINUOUS
10
0.935183
20
0.495067
11
0.935183
21
0.495067
0
LINE
8
BLACK
6
CONTINUOUS
10
0.935183
20
0.495067
11
0.935282
21
0.495372
0
LINE
8
BLACK
6
CONTINUOUS
10
0.935282
20
0.495372
11
0.93686
21
0.497679
0
LINE
8
BLACK
6
CONTINUOUS
10
0.93686
20
0.497679
11
0.939434
21
0.498768
0
LINE
8
BLACK
6
CONTINUOUS
10
0.939434
20
0.498768
11
0.942188
21
0.498291
0
LINE
8
BLACK
6
CONTINUOUS
10
0.942188
20
0.498291
11
0.944248
21
0.496401
0
LINE
8
BLACK
6
CONTINUOUS
10
0.944248
20
0.496401
11
0.944718
21
0.495372
0
LINE
8
BLACK
6
CONTINUOUS
10
0.944718
20
0.495372
11
0.944817
21
0.495067
0
LINE
8
BLACK
6
CONTINUOUS
10
0.944817
20
0.495067
11
0.947085
21
0.490616
0
LINE
8
BLACK
6
CONTINUOUS
10
0.947085
20
0.490616
11
0.950616
21
0.487085
0
LINE
8
BLACK
6
CONTINUOUS
10
0.950616
20
0.487085
11
0.952138
21
0.48631
0
LINE
8
BLACK
6
CONTINUOUS
10
0.952138
20
0.48631
11
0.955067
21
0.484817
0
LINE
8
BLACK
6
CONTINUOUS
10
0.955067
20
0.484817
11
0.958759
21
0.484232
0
LINE
8
BLACK
6
CONTINUOUS
10
0.958759
20
0.484232
11
1.02124
21
0.484232
0
LINE
8
BLACK
6
CONTINUOUS
10
1.02124
20
0.484232
11
1.02493
21
0.484817
0
LINE
8
BLACK
6
CONTINUOUS
10
1.02493
20
0.484817
11
1.02938
21
0.487085
0
LINE
8
BLACK
6
CONTINUOUS
10
1.02938
20
0.487085
11
1.03292
21
0.490616
0
LINE
8
BLACK
6
CONTINUOUS
10
1.03292
20
0.490616
11
1.03518
21
0.495067
0
LINE
8
BLACK
6
CONTINUOUS
10
1.03518
20
0.495067
11
1.03577
21
0.498759
0
LINE
8
BLACK
6
CONTINUOUS
10
1.03577
20
0.498759
11
1.03577
21
0.500413
0
LINE
8
BLACK
6
CONTINUOUS
10
1.03577
20
0.500413
11
1.03656
21
0.503095
0
LINE
8
BLACK
6
CONTINUOUS
10
1.03656
20
0.503095
11
1.03867
21
0.504926
0
LINE
8
BLACK
6
CONTINUOUS
10
1.03867
20
0.504926
11
1.04073
21
0.505374
0
LINE
8
BLACK
6
CONTINUOUS
10
1.04073
20
0.505374
11
1.34471
21
0.505374
0
LINE
8
BLACK
6
CONTINUOUS
10
1.34471
20
0.505374
11
1.34739
21
0.504587
0
LINE
8
BLACK
6
CONTINUOUS
10
1.34739
20
0.504587
11
1.34922
21
0.502474
0
LINE
8
BLACK
6
CONTINUOUS
10
1.34922
20
0.502474
11
1.34939
21
0.502052
0
LINE
8
BLACK
6
CONTINUOUS
10
1.34939
20
0.502052
11
1.35092
21
0.497679
0
LINE
8
BLACK
6
CONTINUOUS
10
1.35092
20
0.497679
11
1.35143
21
0.496239
0
LINE
8
BLACK
6
CONTINUOUS
10
1.35143
20
0.496239
11
1.35143
21
0.496239
0
LINE
8
BLACK
6
CONTINUOUS
10
1.35143
20
0.496239
11
1.3552
21
0.490226
0
LINE
8
BLACK
6
CONTINUOUS
10
1.3552
20
0.490226
11
1.3552
21
0.490226
0
LINE
8
BLACK
6
CONTINUOUS
10
1.3552
20
0.490226
11
1.36023
21
0.485204
0
LINE
8
BLACK
6
CONTINUOUS
10
1.36023
20
0.485204
11
1.36023
21
0.485204
0
LINE
8
BLACK
6
CONTINUOUS
10
1.36023
20
0.485204
11
1.36624
21
0.481426
0
LINE
8
BLACK
6
CONTINUOUS
10
1.36624
20
0.481426
11
1.36624
21
0.481426
0
LINE
8
BLACK
6
CONTINUOUS
10
1.36624
20
0.481426
11
1.36624
21
0.481426
0
LINE
8
BLACK
6
CONTINUOUS
10
1.36624
20
0.481426
11
1.37294
21
0.47908
0
LINE
8
BLACK
6
CONTINUOUS
10
1.37294
20
0.47908
11
1.38
21
0.478285
0
LINE
8
BLACK
6
CONTINUOUS
10
1.38
20
0.478285
11
1.38706
21
0.47908
0
LINE
8
BLACK
6
CONTINUOUS
10
1.38706
20
0.47908
11
1.39376
21
0.481426
0
LINE
8
BLACK
6
CONTINUOUS
10
1.39376
20
0.481426
11
1.39977
21
0.485204
0
LINE
8
BLACK
6
CONTINUOUS
10
1.39977
20
0.485204
11
1.4048
21
0.490226
0
LINE
8
BLACK
6
CONTINUOUS
10
1.4048
20
0.490226
11
1.40857
21
0.496239
0
LINE
8
BLACK
6
CONTINUOUS
10
1.40857
20
0.496239
11
1.41092
21
0.502943
0
LINE
8
BLACK
6
CONTINUOUS
10
1.41092
20
0.502943
11
1.41172
21
0.51
0
LINE
8
BLACK
6
CONTINUOUS
10
1.41172
20
0.51
11
1.41092
21
0.517057
0
LINE
8
BLACK
6
CONTINUOUS
10
1.41092
20
0.517057
11
1.40857
21
0.523761
0
LINE
8
BLACK
6
CONTINUOUS
10
1.40857
20
0.523761
11
1.40857
21
0.523761
0
LINE
8
BLACK
6
CONTINUOUS
10
1.40857
20
0.523761
11
1.40857
21
0.523761
0
LINE
8
BLACK
6
CONTINUOUS
10
1.40857
20
0.523761
11
1.4048
21
0.529774
0
LINE
8
BLACK
6
CONTINUOUS
10
1.4048
20
0.529774
11
1.4048
21
0.529774
0
LINE
8
BLACK
6
CONTINUOUS
10
1.4048
20
0.529774
11
1.39977
21
0.534796
0
LINE
8
BLACK
6
CONTINUOUS
10
1.39977
20
0.534796
11
1.39977
21
0.534796
0
LINE
8
BLACK
6
CONTINUOUS
10
1.39977
20
0.534796
11
1.39376
21
0.538574
0
LINE
8
BLACK
6
CONTINUOUS
10
1.39376
20
0.538574
11
1.39376
21
0.538574
0
LINE
8
BLACK
6
CONTINUOUS
10
1.39376
20
0.538574
11
1.38706
21
0.54092
0
LINE
8
BLACK
6
CONTINUOUS
10
1.38706
20
0.54092
11
1.38706
21
0.54092
0
LINE
8
BLACK
6
CONTINUOUS
10
1.38706
20
0.54092
11
1.38523
21
0.541126
0
LINE
8
BLACK
6
CONTINUOUS
10
1.38523
20
0.541126
11
1.38265
21
0.542209
0
LINE
8
BLACK
6
CONTINUOUS
10
1.38265
20
0.542209
11
1.38228
21
0.542548
0
LINE
8
BLACK
6
CONTINUOUS
10
1.38228
20
0.542548
11
1.37972
21
0.545104
0
LINE
8
BLACK
6
CONTINUOUS
10
1.37972
20
0.545104
11
1.37933
21
0.545589
0
LINE
8
BLACK
6
CONTINUOUS
10
1.37933
20
0.545589
11
1.37932
21
0.545582
0
LINE
8
BLACK
6
CONTINUOUS
10
1.37932
20
0.545582
11
1.37913
21
0.545822
0
LINE
8
BLACK
6
CONTINUOUS
10
1.37913
20
0.545822
11
1.37714
21
0.547686
0
LINE
8
BLACK
6
CONTINUOUS
10
1.37714
20
0.547686
11
1.37632
21
0.548508
0
LINE
8
BLACK
6
CONTINUOUS
10
1.37632
20
0.548508
11
1.37632
21
0.548509
0
LINE
8
BLACK
6
CONTINUOUS
10
1.37632
20
0.548509
11
1.3761
21
0.548675
0
LINE
8
BLACK
6
CONTINUOUS
10
1.3761
20
0.548675
11
1.37593
21
0.548827
0
LINE
8
BLACK
6
CONTINUOUS
10
1.37593
20
0.548827
11
1.37459
21
0.550081
0
LINE
8
BLACK
6
CONTINUOUS
10
1.37459
20
0.550081
11
1.37459
21
0.550081
0
LINE
8
BLACK
6
CONTINUOUS
10
1.37459
20
0.550081
11
1.3739
21
0.550458
0
LINE
8
BLACK
6
CONTINUOUS
10
1.3739
20
0.550458
11
1.37325
21
0.550886
0
LINE
8
BLACK
6
CONTINUOUS
10
1.37325
20
0.550886
11
1.37264
21
0.551365
0
LINE
8
BLACK
6
CONTINUOUS
10
1.37264
20
0.551365
11
1.37264
21
0.551365
0
LINE
8
BLACK
6
CONTINUOUS
10
1.37264
20
0.551365
11
1.37176
21
0.551746
0
LINE
8
BLACK
6
CONTINUOUS
10
1.37176
20
0.551746
11
1.37095
21
0.552093
0
LINE
8
BLACK
6
CONTINUOUS
10
1.37095
20
0.552093
11
1.37074
21
0.552196
0
LINE
8
BLACK
6
CONTINUOUS
10
1.37074
20
0.552196
11
1.36914
21
0.553079
0
LINE
8
BLACK
6
CONTINUOUS
10
1.36914
20
0.553079
11
1.36914
21
0.553079
0
LINE
8
BLACK
6
CONTINUOUS
10
1.36914
20
0.553079
11
1.36838
21
0.553273
0
LINE
8
BLACK
6
CONTINUOUS
10
1.36838
20
0.553273
11
1.36764
21
0.553525
0
LINE
8
BLACK
6
CONTINUOUS
10
1.36764
20
0.553525
11
1.36693
21
0.553836
0
LINE
8
BLACK
6
CONTINUOUS
10
1.36693
20
0.553836
11
1.36692
21
0.553836
0
LINE
8
BLACK
6
CONTINUOUS
10
1.36692
20
0.553836
11
1.36512
21
0.554123
0
LINE
8
BLACK
6
CONTINUOUS
10
1.36512
20
0.554123
11
1.36489
21
0.55417
0
LINE
8
BLACK
6
CONTINUOUS
10
1.36489
20
0.55417
11
1.36311
21
0.554626
0
LINE
8
BLACK
6
CONTINUOUS
10
1.36311
20
0.554626
11
1.36311
21
0.554626
0
LINE
8
BLACK
6
CONTINUOUS
10
1.36311
20
0.554626
11
1.36233
21
0.554626
0
LINE
8
BLACK
6
CONTINUOUS
10
1.36233
20
0.554626
11
1.36155
21
0.554687
0
LINE
8
BLACK
6
CONTINUOUS
10
1.36155
20
0.554687
11
1.36078
21
0.554809
0
LINE
8
BLACK
6
CONTINUOUS
10
1.36078
20
0.554809
11
1.36078
21
0.554809
0
LINE
8
BLACK
6
CONTINUOUS
10
1.36078
20
0.554809
11
1.35896
21
0.554637
0
LINE
8
BLACK
6
CONTINUOUS
10
1.35896
20
0.554637
11
1.35872
21
0.554626
0
LINE
8
BLACK
6
CONTINUOUS
10
1.35872
20
0.554626
11
1.04073
21
0.554626
0
LINE
8
BLACK
6
CONTINUOUS
10
1.04073
20
0.554626
11
1.03805
21
0.555413
0
LINE
8
BLACK
6
CONTINUOUS
10
1.03805
20
0.555413
11
1.03622
21
0.557526
0
LINE
8
BLACK
6
CONTINUOUS
10
1.03622
20
0.557526
11
1.03577
21
0.559587
0
LINE
8
BLACK
6
CONTINUOUS
10
1.03577
20
0.559587
11
1.03577
21
0.561241
0
LINE
8
BLACK
6
CONTINUOUS
10
1.03577
20
0.561241
11
1.03569
21
0.561709
0
LINE
8
BLACK
6
CONTINUOUS
10
1.03569
20
0.561709
11
1.03518
21
0.564933
0
LINE
8
BLACK
6
CONTINUOUS
10
1.03518
20
0.564933
11
1.03405
21
0.567158
0
LINE
8
BLACK
6
CONTINUOUS
10
1.03405
20
0.567158
11
1.03292
21
0.569384
0
LINE
8
BLACK
6
CONTINUOUS
10
1.03292
20
0.569384
11
1.02938
21
0.572915
0
LINE
8
BLACK
6
CONTINUOUS
10
1.02938
20
0.572915
11
1.02493
21
0.575183
0
LINE
8
BLACK
6
CONTINUOUS
10
1.02493
20
0.575183
11
1.02463
21
0.575282
0
LINE
8
BLACK
6
CONTINUOUS
10
1.02463
20
0.575282
11
1.02232
21
0.57686
0
LINE
8
BLACK
6
CONTINUOUS
10
1.02232
20
0.57686
11
1.02123
21
0.579434
0
LINE
8
BLACK
6
CONTINUOUS
10
1.02123
20
0.579434
11
1.02171
21
0.582189
0
LINE
8
BLACK
6
CONTINUOUS
10
1.02171
20
0.582189
11
1.0236
21
0.584248
0
LINE
8
BLACK
6
CONTINUOUS
10
1.0236
20
0.584248
11
1.02463
21
0.584718
0
LINE
8
BLACK
6
CONTINUOUS
10
1.02463
20
0.584718
11
1.02493
21
0.584817
0
LINE
8
BLACK
6
CONTINUOUS
10
1.02493
20
0.584817
11
1.02493
21
0.584817
0
LINE
8
BLACK
6
CONTINUOUS
10
1.02493
20
0.584817
11
1.02938
21
0.587085
0
LINE
8
BLACK
6
CONTINUOUS
10
1.02938
20
0.587085
11
1.03292
21
0.590616
0
LINE
8
BLACK
6
CONTINUOUS
10
1.03292
20
0.590616
11
1.03518
21
0.595067
0
LINE
8
BLACK
6
CONTINUOUS
10
1.03518
20
0.595067
11
1.03577
21
0.598759
0
LINE
8
BLACK
6
CONTINUOUS
10
1.03577
20
0.598759
11
1.03577
21
0.661241
0
LINE
8
BLACK
6
CONTINUOUS
10
1.03577
20
0.661241
11
1.03518
21
0.664933
0
LINE
8
BLACK
6
CONTINUOUS
10
1.03518
20
0.664933
11
1.03405
21
0.667158
0
LINE
8
BLACK
6
CONTINUOUS
10
1.03405
20
0.667158
11
1.03292
21
0.669384
0
LINE
8
BLACK
6
CONTINUOUS
10
1.03292
20
0.669384
11
1.02938
21
0.672915
0
LINE
8
BLACK
6
CONTINUOUS
10
1.02938
20
0.672915
11
1.02565
21
0.674817
0
LINE
8
BLACK
6
CONTINUOUS
10
1.02565
20
0.674817
11
1.02493
21
0.675183
0
LINE
8
BLACK
6
CONTINUOUS
10
1.02493
20
0.675183
11
1.02124
21
0.675768
0
LINE
8
BLACK
6
CONTINUOUS
10
1.02124
20
0.675768
11
1.02124
21
0.675768
0
LINE
8
BLACK
6
CONTINUOUS
10
1.02124
20
0.675768
11
0.958759
21
0.675768
0
LINE
8
BLACK
6
CONTINUOUS
10
0.958759
20
0.675768
11
0.955067
21
0.675183
0
LINE
8
BLACK
6
CONTINUOUS
10
0.955067
20
0.675183
11
0.950616
21
0.672915
0
LINE
8
BLACK
6
CONTINUOUS
10
0.950616
20
0.672915
11
0.947085
21
0.669384
0
LINE
8
BLACK
6
CONTINUOUS
10
0.947085
20
0.669384
11
0.944817
21
0.664933
0
LINE
8
BLACK
6
CONTINUOUS
10
0.944817
20
0.664933
11
0.944718
21
0.664628
0
LINE
8
BLACK
6
CONTINUOUS
10
0.944718
20
0.664628
11
0.94314
21
0.66232
0
LINE
8
BLACK
6
CONTINUOUS
10
0.94314
20
0.66232
11
0.940565
21
0.661232
0
LINE
8
BLACK
6
CONTINUOUS
10
0.940565
20
0.661232
11
0.937811
21
0.661709
0
LINE
8
BLACK
6
CONTINUOUS
10
0.937811
20
0.661709
11
0.935752
21
0.663599
0
LINE
8
BLACK
6
CONTINUOUS
10
0.935752
20
0.663599
11
0.935282
21
0.664628
0
LINE
8
BLACK
6
CONTINUOUS
10
0.935282
20
0.664628
11
0.935183
21
0.664933
0
LINE
8
BLACK
6
CONTINUOUS
10
0.935183
20
0.664933
11
0.932915
21
0.669384
0
LINE
8
BLACK
6
CONTINUOUS
10
0.932915
20
0.669384
11
0.929384
21
0.672915
0
LINE
8
BLACK
6
CONTINUOUS
10
0.929384
20
0.672915
11
0.925651
21
0.674817
0
LINE
8
BLACK
6
CONTINUOUS
10
0.925651
20
0.674817
11
0.924933
21
0.675183
0
LINE
8
BLACK
6
CONTINUOUS
10
0.924933
20
0.675183
11
0.921241
21
0.675768
0
LINE
8
BLACK
6
CONTINUOUS
10
0.921241
20
0.675768
11
0.921241
21
0.675768
0
LINE
8
BLACK
6
CONTINUOUS
10
0.921241
20
0.675768
11
0.85953
21
0.675768
0
LINE
8
BLACK
6
CONTINUOUS
10
0.85953
20
0.675768
11
0.856848
21
0.676555
0
LINE
8
BLACK
6
CONTINUOUS
10
0.856848
20
0.676555
11
0.855017
21
0.678668
0
LINE
8
BLACK
6
CONTINUOUS
10
0.855017
20
0.678668
11
0.85462
21
0.681434
0
LINE
8
BLACK
6
CONTINUOUS
10
0.85462
20
0.681434
11
0.855781
21
0.683977
0
LINE
8
BLACK
6
CONTINUOUS
10
0.855781
20
0.683977
11
0.856022
21
0.684236
0
LINE
8
BLACK
6
CONTINUOUS
10
0.856022
20
0.684236
11
0.957823
21
0.786037
0
LINE
8
BLACK
6
CONTINUOUS
10
0.957823
20
0.786037
11
0.960277
21
0.787377
0
LINE
8
BLACK
6
CONTINUOUS
10
0.960277
20
0.787377
11
0.961331
21
0.78749
0
LINE
8
BLACK
6
CONTINUOUS
10
0.961331
20
0.78749
11
1.31411
21
0.78749
0
LINE
8
BLACK
6
CONTINUOUS
10
1.31411
20
0.78749
11
1.31679
21
0.786703
0
LINE
8
BLACK
6
CONTINUOUS
10
1.31679
20
0.786703
11
1.31862
21
0.78459
0
LINE
8
BLACK
6
CONTINUOUS
10
1.31862
20
0.78459
11
1.31877
21
0.784226
0
LINE
8
BLACK
6
CONTINUOUS
10
1.31877
20
0.784226
11
1.31912
21
0.783261
0
LINE
8
BLACK
6
CONTINUOUS
10
1.31912
20
0.783261
11
1.32008
21
0.780391
0
LINE
8
BLACK
6
CONTINUOUS
10
1.32008
20
0.780391
11
1.3202
21
0.780129
0
LINE
8
BLACK
6
CONTINUOUS
10
1.3202
20
0.780129
11
1.3202
21
0.780128
0
LINE
8
BLACK
6
CONTINUOUS
10
1.3202
20
0.780128
11
1.32032
21
0.779868
0
LINE
8
BLACK
6
CONTINUOUS
10
1.32032
20
0.779868
11
1.32032
21
0.77987
0
LINE
8
BLACK
6
CONTINUOUS
10
1.32032
20
0.77987
11
1.32045
21
0.779612
0
LINE
8
BLACK
6
CONTINUOUS
10
1.32045
20
0.779612
11
1.32211
21
0.777085
0
LINE
8
BLACK
6
CONTINUOUS
10
1.32211
20
0.777085
11
1.3237
21
0.774512
0
LINE
8
BLACK
6
CONTINUOUS
10
1.3237
20
0.774512
11
1.32388
21
0.774285
0
LINE
8
BLACK
6
CONTINUOUS
10
1.32388
20
0.774285
11
1.32388
21
0.774283
0
LINE
8
BLACK
6
CONTINUOUS
10
1.32388
20
0.774283
11
1.32406
21
0.77406
0
LINE
8
BLACK
6
CONTINUOUS
10
1.32406
20
0.77406
11
1.32406
21
0.774062
0
LINE
8
BLACK
6
CONTINUOUS
10
1.32406
20
0.774062
11
1.32425
21
0.773841
0
LINE
8
BLACK
6
CONTINUOUS
10
1.32425
20
0.773841
11
1.32425
21
0.773841
0
LINE
8
BLACK
6
CONTINUOUS
10
1.32425
20
0.773841
11
1.32425
21
0.773841
0
LINE
8
BLACK
6
CONTINUOUS
10
1.32425
20
0.773841
11
1.32645
21
0.771766
0
LINE
8
BLACK
6
CONTINUOUS
10
1.32645
20
0.771766
11
1.61733
21
0.480885
0
LINE
8
BLACK
6
CONTINUOUS
10
1.61733
20
0.480885
11
1.6178
21
0.480339
0
LINE
8
BLACK
6
CONTINUOUS
10
1.6178
20
0.480339
11
1.61836
21
0.479585
0
LINE
8
BLACK
6
CONTINUOUS
10
1.61836
20
0.479585
11
1.61994
21
0.478264
0
LINE
8
BLACK
6
CONTINUOUS
10
1.61994
20
0.478264
11
1.62009
21
0.478119
0
LINE
8
BLACK
6
CONTINUOUS
10
1.62009
20
0.478119
11
1.62032
21
0.47789
0
LINE
8
BLACK
6
CONTINUOUS
10
1.62032
20
0.47789
11
1.62032
21
0.47789
0
LINE
8
BLACK
6
CONTINUOUS
10
1.62032
20
0.47789
11
1.62134
21
0.477089
0
LINE
8
BLACK
6
CONTINUOUS
10
1.62134
20
0.477089
11
1.62365
21
0.475146
0
LINE
8
BLACK
6
CONTINUOUS
10
1.62365
20
0.475146
11
1.62389
21
0.474987
0
LINE
8
BLACK
6
CONTINUOUS
10
1.62389
20
0.474987
11
1.62389
21
0.474984
0
LINE
8
BLACK
6
CONTINUOUS
10
1.62389
20
0.474984
11
1.62414
21
0.47483
0
LINE
8
BLACK
6
CONTINUOUS
10
1.62414
20
0.47483
11
1.62414
21
0.474832
0
LINE
8
BLACK
6
CONTINUOUS
10
1.62414
20
0.474832
11
1.62438
21
0.474681
0
LINE
8
BLACK
6
CONTINUOUS
10
1.62438
20
0.474681
11
1.62438
21
0.474681
0
LINE
8
BLACK
6
CONTINUOUS
10
1.62438
20
0.474681
11
1.62712
21
0.473403
0
LINE
8
BLACK
6
CONTINUOUS
10
1.62712
20
0.473403
11
1.62983
21
0.472046
0
LINE
8
BLACK
6
CONTINUOUS
10
1.62983
20
0.472046
11
1.62983
21
0.472046
0
LINE
8
BLACK
6
CONTINUOUS
10
1.62983
20
0.472046
11
1.62983
21
0.472046
0
LINE
8
BLACK
6
CONTINUOUS
10
1.62983
20
0.472046
11
1.6301
21
0.471947
0
LINE
8
BLACK
6
CONTINUOUS
10
1.6301
20
0.471947
11
1.6301
21
0.471944
0
LINE
8
BLACK
6
CONTINUOUS
10
1.6301
20
0.471944
11
1.63037
21
0.471849
0
LINE
8
BLACK
6
CONTINUOUS
10
1.63037
20
0.471849
11
1.63037
21
0.471852
0
LINE
8
BLACK
6
CONTINUOUS
10
1.63037
20
0.471852
11
1.63064
21
0.471762
0
LINE
8
BLACK
6
CONTINUOUS
10
1.63064
20
0.471762
11
1.6336
21
0.47115
0
LINE
8
BLACK
6
CONTINUOUS
10
1.6336
20
0.47115
11
1.63655
21
0.470453
0
LINE
8
BLACK
6
CONTINUOUS
10
1.63655
20
0.470453
11
1.63683
21
0.470419
0
LINE
8
BLACK
6
CONTINUOUS
10
1.63683
20
0.470419
11
1.63683
21
0.470416
0
LINE
8
BLACK
6
CONTINUOUS
10
1.63683
20
0.470416
11
1.63712
21
0.470387
0
LINE
8
BLACK
6
CONTINUOUS
10
1.63712
20
0.470387
11
1.63712
21
0.47039
0
LINE
8
BLACK
6
CONTINUOUS
10
1.63712
20
0.47039
11
1.63741
21
0.470365
0
LINE
8
BLACK
6
CONTINUOUS
10
1.63741
20
0.470365
11
1.63741
21
0.470365
0
LINE
8
BLACK
6
CONTINUOUS
10
1.63741
20
0.470365
11
1.64043
21
0.470453
0
LINE
8
BLACK
6
CONTINUOUS
10
1.64043
20
0.470453
11
1.68818
21
0.470453
0
LINE
8
BLACK
6
CONTINUOUS
10
1.68818
20
0.470453
11
1.68982
21
0.470174
0
LINE
8
BLACK
6
CONTINUOUS
10
1.68982
20
0.470174
11
1.69294
21
0.46908
0
LINE
8
BLACK
6
CONTINUOUS
10
1.69294
20
0.46908
11
1.7
21
0.468285
0
LINE
8
BLACK
6
CONTINUOUS
10
1.7
20
0.468285
11
1.70706
21
0.46908
0
LINE
8
BLACK
6
CONTINUOUS
10
1.70706
20
0.46908
11
1.71376
21
0.471426
0
LINE
8
BLACK
6
CONTINUOUS
10
1.71376
20
0.471426
11
1.71977
21
0.475204
0
LINE
8
BLACK
6
CONTINUOUS
10
1.71977
20
0.475204
11
1.7248
21
0.480226
0
LINE
8
BLACK
6
CONTINUOUS
10
1.7248
20
0.480226
11
1.72857
21
0.486239
0
LINE
8
BLACK
6
CONTINUOUS
10
1.72857
20
0.486239
11
1.73092
21
0.492943
0
LINE
8
BLACK
6
CONTINUOUS
10
1.73092
20
0.492943
11
1.73172
21
0.5
0
LINE
8
BLACK
6
CONTINUOUS
10
1.73172
20
0.5
11
1.73092
21
0.507057
0
LINE
8
BLACK
6
CONTINUOUS
10
1.73092
20
0.507057
11
1.72857
21
0.513761
0
LINE
8
BLACK
6
CONTINUOUS
10
1.72857
20
0.513761
11
1.72857
21
0.513761
0
LINE
8
BLACK
6
CONTINUOUS
10
1.72857
20
0.513761
11
1.72857
21
0.513761
0
LINE
8
BLACK
6
CONTINUOUS
10
1.72857
20
0.513761
11
1.7248
21
0.519774
0
LINE
8
BLACK
6
CONTINUOUS
10
1.7248
20
0.519774
11
1.7248
21
0.519774
0
LINE
8
BLACK
6
CONTINUOUS
10
1.7248
20
0.519774
11
1.71977
21
0.524796
0
LINE
8
BLACK
6
CONTINUOUS
10
1.71977
20
0.524796
11
1.71977
21
0.524796
0
LINE
8
BLACK
6
CONTINUOUS
10
1.71977
20
0.524796
11
1.71376
21
0.528574
0
LINE
8
BLACK
6
CONTINUOUS
10
1.71376
20
0.528574
11
1.71376
21
0.528574
0
LINE
8
BLACK
6
CONTINUOUS
10
1.71376
20
0.528574
11
1.71018
21
0.529826
0
LINE
8
BLACK
6
CONTINUOUS
10
1.71018
20
0.529826
11
1.70706
21
0.53092
0
LINE
8
BLACK
6
CONTINUOUS
10
1.70706
20
0.53092
11
1.7
21
0.531715
0
LINE
8
BLACK
6
CONTINUOUS
10
1.7
20
0.531715
11
1.69294
21
0.53092
0
LINE
8
BLACK
6
CONTINUOUS
10
1.69294
20
0.53092
11
1.69081
21
0.530174
0
LINE
8
BLACK
6
CONTINUOUS
10
1.69081
20
0.530174
11
1.68982
21
0.529826
0
LINE
8
BLACK
6
CONTINUOUS
10
1.68982
20
0.529826
11
1.68818
21
0.529547
0
LINE
8
BLACK
6
CONTINUOUS
10
1.68818
20
0.529547
11
1.65429
21
0.529547
0
LINE
8
BLACK
6
CONTINUOUS
10
1.65429
20
0.529547
11
1.65161
21
0.530335
0
LINE
8
BLACK
6
CONTINUOUS
10
1.65161
20
0.530335
11
1.65079
21
0.531
0
LINE
8
BLACK
6
CONTINUOUS
10
1.65079
20
0.531
11
1.43303
21
0.748759
0
LINE
8
BLACK
6
CONTINUOUS
10
1.43303
20
0.748759
11
1.38029
21
0.801492
0
LINE
8
BLACK
6
CONTINUOUS
10
1.38029
20
0.801492
11
1.37895
21
0.803946
0
LINE
8
BLACK
6
CONTINUOUS
10
1.37895
20
0.803946
11
1.37915
21
0.806734
0
LINE
8
BLACK
6
CONTINUOUS
10
1.37915
20
0.806734
11
1.38029
21
0.808508
0
LINE
8
BLACK
6
CONTINUOUS
10
1.38029
20
0.808508
11
1.41982
21
0.848038
0
LINE
8
BLACK
6
CONTINUOUS
10
1.41982
20
0.848038
11
1.48885
21
0.917067
0
LINE
8
BLACK
6
CONTINUOUS
10
1.48885
20
0.917067
11
1.49131
21
0.918406
0
LINE
8
BLACK
6
CONTINUOUS
10
1.49131
20
0.918406
11
1.4918
21
0.918488
0
LINE
8
BLACK
6
CONTINUOUS
10
1.4918
20
0.918488
11
1.49706
21
0.91908
0
LINE
8
BLACK
6
CONTINUOUS
10
1.49706
20
0.91908
11
1.50018
21
0.920174
0
LINE
8
BLACK
6
CONTINUOUS
10
1.50018
20
0.920174
11
1.50182
21
0.920453
0
LINE
8
BLACK
6
CONTINUOUS
10
1.50182
20
0.920453
11
1.67749
21
0.920453
0
LINE
8
BLACK
6
CONTINUOUS
10
1.67749
20
0.920453
11
1.6782
21
0.9204
0
LINE
8
BLACK
6
CONTINUOUS
10
1.6782
20
0.9204
11
1.67842
21
0.920369
0
LINE
8
BLACK
6
CONTINUOUS
10
1.67842
20
0.920369
11
1.67913
21
0.920264
0
LINE
8
BLACK
6
CONTINUOUS
10
1.67913
20
0.920264
11
1.68049
21
0.920383
0
LINE
8
BLACK
6
CONTINUOUS
10
1.68049
20
0.920383
11
1.68118
21
0.920443
0
LINE
8
BLACK
6
CONTINUOUS
10
1.68118
20
0.920443
11
1.6814
21
0.920453
0
LINE
8
BLACK
6
CONTINUOUS
10
1.6814
20
0.920453
11
1.68172
21
0.920453
0
LINE
8
BLACK
6
CONTINUOUS
10
1.68172
20
0.920453
11
1.683
21
0.920603
0
LINE
8
BLACK
6
CONTINUOUS
10
1.683
20
0.920603
11
1.68602
21
0.920866
0
LINE
8
BLACK
6
CONTINUOUS
10
1.68602
20
0.920866
11
1.68602
21
0.920866
0
LINE
8
BLACK
6
CONTINUOUS
10
1.68602
20
0.920866
11
1.6863
21
0.920925
0
LINE
8
BLACK
6
CONTINUOUS
10
1.6863
20
0.920925
11
1.6863
21
0.920922
0
LINE
8
BLACK
6
CONTINUOUS
10
1.6863
20
0.920922
11
1.68658
21
0.920984
0
LINE
8
BLACK
6
CONTINUOUS
10
1.68658
20
0.920984
11
1.68658
21
0.920987
0
LINE
8
BLACK
6
CONTINUOUS
10
1.68658
20
0.920987
11
1.68686
21
0.921054
0
LINE
8
BLACK
6
CONTINUOUS
10
1.68686
20
0.921054
11
1.68686
21
0.921054
0
LINE
8
BLACK
6
CONTINUOUS
10
1.68686
20
0.921054
11
1.6897
21
0.922088
0
LINE
8
BLACK
6
CONTINUOUS
10
1.6897
20
0.922088
11
1.69257
21
0.923039
0
LINE
8
BLACK
6
CONTINUOUS
10
1.69257
20
0.923039
11
1.69257
21
0.923039
0
LINE
8
BLACK
6
CONTINUOUS
10
1.69257
20
0.923039
11
1.69283
21
0.923161
0
LINE
8
BLACK
6
CONTINUOUS
10
1.69283
20
0.923161
11
1.69284
21
0.923158
0
LINE
8
BLACK
6
CONTINUOUS
10
1.69284
20
0.923158
11
1.69309
21
0.923283
0
LINE
8
BLACK
6
CONTINUOUS
10
1.69309
20
0.923283
11
1.69309
21
0.923286
0
LINE
8
BLACK
6
CONTINUOUS
10
1.69309
20
0.923286
11
1.69335
21
0.923416
0
LINE
8
BLACK
6
CONTINUOUS
10
1.69335
20
0.923416
11
1.69335
21
0.923416
0
LINE
8
BLACK
6
CONTINUOUS
10
1.69335
20
0.923416
11
1.69335
21
0.923416
0
LINE
8
BLACK
6
CONTINUOUS
10
1.69335
20
0.923416
11
1.6943
21
0.924041
0
LINE
8
BLACK
6
CONTINUOUS
10
1.6943
20
0.924041
11
1.69588
21
0.925077
0
LINE
8
BLACK
6
CONTINUOUS
10
1.69588
20
0.925077
11
1.69716
21
0.925871
0
LINE
8
BLACK
6
CONTINUOUS
10
1.69716
20
0.925871
11
1.69845
21
0.926665
0
LINE
8
BLACK
6
CONTINUOUS
10
1.69845
20
0.926665
11
1.69845
21
0.926665
0
LINE
8
BLACK
6
CONTINUOUS
10
1.69845
20
0.926665
11
1.69868
21
0.926844
0
LINE
8
BLACK
6
CONTINUOUS
10
1.69868
20
0.926844
11
1.69868
21
0.926842
0
LINE
8
BLACK
6
CONTINUOUS
10
1.69868
20
0.926842
11
1.6989
21
0.927023
0
LINE
8
BLACK
6
CONTINUOUS
10
1.6989
20
0.927023
11
1.6989
21
0.927026
0
LINE
8
BLACK
6
CONTINUOUS
10
1.6989
20
0.927026
11
1.69912
21
0.927211
0
LINE
8
BLACK
6
CONTINUOUS
10
1.69912
20
0.927211
11
1.69912
21
0.927211
0
LINE
8
BLACK
6
CONTINUOUS
10
1.69912
20
0.927211
11
1.7012
21
0.92941
0
LINE
8
BLACK
6
CONTINUOUS
10
1.7012
20
0.92941
11
1.7235
21
0.951709
0
LINE
8
BLACK
6
CONTINUOUS
10
1.7235
20
0.951709
11
1.74649
21
0.974706
0
LINE
8
BLACK
6
CONTINUOUS
10
1.74649
20
0.974706
11
1.74895
21
0.976046
0
LINE
8
BLACK
6
CONTINUOUS
10
1.74895
20
0.976046
11
1.75173
21
0.975846
0
LINE
8
BLACK
6
CONTINUOUS
10
1.75173
20
0.975846
11
1.75351
21
0.974706
0
LINE
8
BLACK
6
CONTINUOUS
10
1.75351
20
0.974706
11
1.80733
21
0.920885
0
LINE
8
BLACK
6
CONTINUOUS
10
1.80733
20
0.920885
11
1.8078
21
0.920339
0
LINE
8
BLACK
6
CONTINUOUS
10
1.8078
20
0.920339
11
1.80836
21
0.919585
0
LINE
8
BLACK
6
CONTINUOUS
10
1.80836
20
0.919585
11
1.80994
21
0.918264
0
LINE
8
BLACK
6
CONTINUOUS
10
1.80994
20
0.918264
11
1.8101
21
0.918119
0
LINE
8
BLACK
6
CONTINUOUS
10
1.8101
20
0.918119
11
1.81032
21
0.91789
0
LINE
8
BLACK
6
CONTINUOUS
10
1.81032
20
0.91789
11
1.81134
21
0.917089
0
LINE
8
BLACK
6
CONTINUOUS
10
1.81134
20
0.917089
11
1.81365
21
0.915146
0
LINE
8
BLACK
6
CONTINUOUS
10
1.81365
20
0.915146
11
1.81365
21
0.915146
0
LINE
8
BLACK
6
CONTINUOUS
10
1.81365
20
0.915146
11
1.81389
21
0.914987
0
LINE
8
BLACK
6
CONTINUOUS
10
1.81389
20
0.914987
11
1.81389
21
0.914984
0
LINE
8
BLACK
6
CONTINUOUS
10
1.81389
20
0.914984
11
1.81414
21
0.91483
0
LINE
8
BLACK
6
CONTINUOUS
10
1.81414
20
0.91483
11
1.81414
21
0.914832
0
LINE
8
BLACK
6
CONTINUOUS
10
1.81414
20
0.914832
11
1.81438
21
0.914681
0
LINE
8
BLACK
6
CONTINUOUS
10
1.81438
20
0.914681
11
1.81712
21
0.913403
0
LINE
8
BLACK
6
CONTINUOUS
10
1.81712
20
0.913403
11
1.81983
21
0.912046
0
LINE
8
BLACK
6
CONTINUOUS
10
1.81983
20
0.912046
11
1.8201
21
0.911947
0
LINE
8
BLACK
6
CONTINUOUS
10
1.8201
20
0.911947
11
1.8201
21
0.911944
0
LINE
8
BLACK
6
CONTINUOUS
10
1.8201
20
0.911944
11
1.82037
21
0.911849
0
LINE
8
BLACK
6
CONTINUOUS
10
1.82037
20
0.911849
11
1.82037
21
0.911852
0
LINE
8
BLACK
6
CONTINUOUS
10
1.82037
20
0.911852
11
1.82064
21
0.911762
0
LINE
8
BLACK
6
CONTINUOUS
10
1.82064
20
0.911762
11
1.8236
21
0.91115
0
LINE
8
BLACK
6
CONTINUOUS
10
1.8236
20
0.91115
11
1.8236
21
0.91115
0
LINE
8
BLACK
6
CONTINUOUS
10
1.8236
20
0.91115
11
1.82655
21
0.910453
0
LINE
8
BLACK
6
CONTINUOUS
10
1.82655
20
0.910453
11
1.82655
21
0.910453
0
LINE
8
BLACK
6
CONTINUOUS
10
1.82655
20
0.910453
11
1.82683
21
0.910419
0
LINE
8
BLACK
6
CONTINUOUS
10
1.82683
20
0.910419
11
1.82683
21
0.910416
0
LINE
8
BLACK
6
CONTINUOUS
10
1.82683
20
0.910416
11
1.82712
21
0.910387
0
LINE
8
BLACK
6
CONTINUOUS
10
1.82712
20
0.910387
11
1.82712
21
0.91039
0
LINE
8
BLACK
6
CONTINUOUS
10
1.82712
20
0.91039
11
1.82741
21
0.910365
0
LINE
8
BLACK
6
CONTINUOUS
10
1.82741
20
0.910365
11
1.82741
21
0.910365
0
LINE
8
BLACK
6
CONTINUOUS
10
1.82741
20
0.910365
11
1.83043
21
0.910453
0
LINE
8
BLACK
6
CONTINUOUS
10
1.83043
20
0.910453
11
2.14818
21
0.910453
0
LINE
8
BLACK
6
CONTINUOUS
10
2.14818
20
0.910453
11
2.14982
21
0.910174
0
LINE
8
BLACK
6
CONTINUOUS
10
2.14982
20
0.910174
11
2.15294
21
0.90908
0
LINE
8
BLACK
6
CONTINUOUS
10
2.15294
20
0.90908
11
2.16
21
0.908285
0
LINE
8
BLACK
6
CONTINUOUS
10
2.16
20
0.908285
11
2.16706
21
0.90908
0
LINE
8
BLACK
6
CONTINUOUS
10
2.16706
20
0.90908
11
2.17376
21
0.911426
0
LINE
8
BLACK
6
CONTINUOUS
10
2.17376
20
0.911426
11
2.17977
21
0.915204
0
LINE
8
BLACK
6
CONTINUOUS
10
2.17977
20
0.915204
11
2.1848
21
0.920226
0
LINE
8
BLACK
6
CONTINUOUS
10
2.1848
20
0.920226
11
2.18857
21
0.926239
0
LINE
8
BLACK
6
CONTINUOUS
10
2.18857
20
0.926239
11
2.19092
21
0.932943
0
LINE
8
BLACK
6
CONTINUOUS
10
2.19092
20
0.932943
11
2.19172
21
0.94
0
LINE
8
BLACK
6
CONTINUOUS
10
2.19172
20
0.94
11
2.19092
21
0.947057
0
LINE
8
BLACK
6
CONTINUOUS
10
2.19092
20
0.947057
11
2.18857
21
0.953761
0
LINE
8
BLACK
6
CONTINUOUS
10
2.18857
20
0.953761
11
2.18857
21
0.953761
0
LINE
8
BLACK
6
CONTINUOUS
10
2.18857
20
0.953761
11
2.18857
21
0.953761
0
LINE
8
BLACK
6
CONTINUOUS
10
2.18857
20
0.953761
11
2.1848
21
0.959774
0
LINE
8
BLACK
6
CONTINUOUS
10
2.1848
20
0.959774
11
2.1848
21
0.959774
0
LINE
8
BLACK
6
CONTINUOUS
10
2.1848
20
0.959774
11
2.17977
21
0.964796
0
LINE
8
BLACK
6
CONTINUOUS
10
2.17977
20
0.964796
11
2.17977
21
0.964796
0
LINE
8
BLACK
6
CONTINUOUS
10
2.17977
20
0.964796
11
2.17376
21
0.968574
0
LINE
8
BLACK
6
CONTINUOUS
10
2.17376
20
0.968574
11
2.17376
21
0.968574
0
LINE
8
BLACK
6
CONTINUOUS
10
2.17376
20
0.968574
11
2.17018
21
0.969826
0
LINE
8
BLACK
6
CONTINUOUS
10
2.17018
20
0.969826
11
2.16706
21
0.97092
0
LINE
8
BLACK
6
CONTINUOUS
10
2.16706
20
0.97092
11
2.16
21
0.971715
0
LINE
8
BLACK
6
CONTINUOUS
10
2.16
20
0.971715
11
2.16
21
0.971715
0
LINE
8
BLACK
6
CONTINUOUS
10
2.16
20
0.971715
11
2.15897
21
0.9716
0
LINE
8
BLACK
6
CONTINUOUS
10
2.15897
20
0.9716
11
2.15294
21
0.97092
0
LINE
8
BLACK
6
CONTINUOUS
10
2.15294
20
0.97092
11
2.15294
21
0.97092
0
LINE
8
BLACK
6
CONTINUOUS
10
2.15294
20
0.97092
11
2.15294
21
0.97092
0
LINE
8
BLACK
6
CONTINUOUS
10
2.15294
20
0.97092
11
2.14982
21
0.969826
0
LINE
8
BLACK
6
CONTINUOUS
10
2.14982
20
0.969826
11
2.14818
21
0.969547
0
LINE
8
BLACK
6
CONTINUOUS
10
2.14818
20
0.969547
11
1.84429
21
0.969547
0
LINE
8
BLACK
6
CONTINUOUS
10
1.84429
20
0.969547
11
1.84161
21
0.970335
0
LINE
8
BLACK
6
CONTINUOUS
10
1.84161
20
0.970335
11
1.84079
21
0.971
0
LINE
8
BLACK
6
CONTINUOUS
10
1.84079
20
0.971
11
1.79529
21
1.01649
0
LINE
8
BLACK
6
CONTINUOUS
10
1.79529
20
1.01649
11
1.79395
21
1.01895
0
LINE
8
BLACK
6
CONTINUOUS
10
1.79395
20
1.01895
11
1.79415
21
1.02173
0
LINE
8
BLACK
6
CONTINUOUS
10
1.79415
20
1.02173
11
1.79529
21
1.02351
0
LINE
8
BLACK
6
CONTINUOUS
10
1.79529
20
1.02351
11
1.87507
21
1.10328
0
LINE
8
BLACK
6
CONTINUOUS
10
1.87507
20
1.10328
11
1.95523
21
1.18345
0
LINE
8
BLACK
6
CONTINUOUS
10
1.95523
20
1.18345
11
1.95578
21
1.18392
0
LINE
8
BLACK
6
CONTINUOUS
10
1.95578
20
1.18392
11
1.95653
21
1.18448
0
LINE
8
BLACK
6
CONTINUOUS
10
1.95653
20
1.18448
11
1.95785
21
1.18606
0
LINE
8
BLACK
6
CONTINUOUS
10
1.95785
20
1.18606
11
1.958
21
1.18621
0
LINE
8
BLACK
6
CONTINUOUS
10
1.958
20
1.18621
11
1.95823
21
1.18644
0
LINE
8
BLACK
6
CONTINUOUS
10
1.95823
20
1.18644
11
1.95903
21
1.18746
0
LINE
8
BLACK
6
CONTINUOUS
10
1.95903
20
1.18746
11
1.96097
21
1.18977
0
LINE
8
BLACK
6
CONTINUOUS
10
1.96097
20
1.18977
11
1.96097
21
1.18977
0
LINE
8
BLACK
6
CONTINUOUS
10
1.96097
20
1.18977
11
1.96113
21
1.19001
0
LINE
8
BLACK
6
CONTINUOUS
10
1.96113
20
1.19001
11
1.96113
21
1.19001
0
LINE
8
BLACK
6
CONTINUOUS
10
1.96113
20
1.19001
11
1.96129
21
1.19025
0
LINE
8
BLACK
6
CONTINUOUS
10
1.96129
20
1.19025
11
1.96129
21
1.19026
0
LINE
8
BLACK
6
CONTINUOUS
10
1.96129
20
1.19026
11
1.96144
21
1.1905
0
LINE
8
BLACK
6
CONTINUOUS
10
1.96144
20
1.1905
11
1.96144
21
1.1905
0
LINE
8
BLACK
6
CONTINUOUS
10
1.96144
20
1.1905
11
1.96144
21
1.1905
0
LINE
8
BLACK
6
CONTINUOUS
10
1.96144
20
1.1905
11
1.96272
21
1.19324
0
LINE
8
BLACK
6
CONTINUOUS
10
1.96272
20
1.19324
11
1.96407
21
1.19594
0
LINE
8
BLACK
6
CONTINUOUS
10
1.96407
20
1.19594
11
1.96407
21
1.19594
0
LINE
8
BLACK
6
CONTINUOUS
10
1.96407
20
1.19594
11
1.96407
21
1.19594
0
LINE
8
BLACK
6
CONTINUOUS
10
1.96407
20
1.19594
11
1.96417
21
1.19622
0
LINE
8
BLACK
6
CONTINUOUS
10
1.96417
20
1.19622
11
1.96418
21
1.19622
0
LINE
8
BLACK
6
CONTINUOUS
10
1.96418
20
1.19622
11
1.96427
21
1.19649
0
LINE
8
BLACK
6
CONTINUOUS
10
1.96427
20
1.19649
11
1.96427
21
1.19649
0
LINE
8
BLACK
6
CONTINUOUS
10
1.96427
20
1.19649
11
1.96436
21
1.19676
0
LINE
8
BLACK
6
CONTINUOUS
10
1.96436
20
1.19676
11
1.96436
21
1.19676
0
LINE
8
BLACK
6
CONTINUOUS
10
1.96436
20
1.19676
11
1.96497
21
1.19972
0
LINE
8
BLACK
6
CONTINUOUS
10
1.96497
20
1.19972
11
1.96567
21
1.20267
0
LINE
8
BLACK
6
CONTINUOUS
10
1.96567
20
1.20267
11
1.96567
21
1.20267
0
LINE
8
BLACK
6
CONTINUOUS
10
1.96567
20
1.20267
11
1.9657
21
1.20295
0
LINE
8
BLACK
6
CONTINUOUS
10
1.9657
20
1.20295
11
1.9657
21
1.20295
0
LINE
8
BLACK
6
CONTINUOUS
10
1.9657
20
1.20295
11
1.96573
21
1.20324
0
LINE
8
BLACK
6
CONTINUOUS
10
1.96573
20
1.20324
11
1.96573
21
1.20324
0
LINE
8
BLACK
6
CONTINUOUS
10
1.96573
20
1.20324
11
1.96575
21
1.20353
0
LINE
8
BLACK
6
CONTINUOUS
10
1.96575
20
1.20353
11
1.96575
21
1.20353
0
LINE
8
BLACK
6
CONTINUOUS
10
1.96575
20
1.20353
11
1.96567
21
1.20655
0
LINE
8
BLACK
6
CONTINUOUS
10
1.96567
20
1.20655
11
1.96567
21
1.22753
0
LINE
8
BLACK
6
CONTINUOUS
10
1.96567
20
1.22753
11
1.96645
21
1.23021
0
LINE
8
BLACK
6
CONTINUOUS
10
1.96645
20
1.23021
11
1.96857
21
1.23204
0
LINE
8
BLACK
6
CONTINUOUS
10
1.96857
20
1.23204
11
1.97133
21
1.23244
0
LINE
8
BLACK
6
CONTINUOUS
10
1.97133
20
1.23244
11
1.97388
21
1.23128
0
LINE
8
BLACK
6
CONTINUOUS
10
1.97388
20
1.23128
11
1.97413
21
1.23104
0
LINE
8
BLACK
6
CONTINUOUS
10
1.97413
20
1.23104
11
2.05529
21
1.14989
0
LINE
8
BLACK
6
CONTINUOUS
10
2.05529
20
1.14989
11
2.13278
21
1.07239
0
LINE
8
BLACK
6
CONTINUOUS
10
2.13278
20
1.07239
11
2.13412
21
1.06994
0
LINE
8
BLACK
6
CONTINUOUS
10
2.13412
20
1.06994
11
2.13423
21
1.06889
0
LINE
8
BLACK
6
CONTINUOUS
10
2.13423
20
1.06889
11
2.13423
21
1.02876
0
LINE
8
BLACK
6
CONTINUOUS
10
2.13423
20
1.02876
11
2.13482
21
1.02507
0
LINE
8
BLACK
6
CONTINUOUS
10
2.13482
20
1.02507
11
2.13708
21
1.02062
0
LINE
8
BLACK
6
CONTINUOUS
10
2.13708
20
1.02062
11
2.14062
21
1.01708
0
LINE
8
BLACK
6
CONTINUOUS
10
2.14062
20
1.01708
11
2.14178
21
1.01649
0
LINE
8
BLACK
6
CONTINUOUS
10
2.14178
20
1.01649
11
2.14507
21
1.01482
0
LINE
8
BLACK
6
CONTINUOUS
10
2.14507
20
1.01482
11
2.14876
21
1.01423
0
LINE
8
BLACK
6
CONTINUOUS
10
2.14876
20
1.01423
11
2.21124
21
1.01423
0
LINE
8
BLACK
6
CONTINUOUS
10
2.21124
20
1.01423
11
2.21493
21
1.01482
0
LINE
8
BLACK
6
CONTINUOUS
10
2.21493
20
1.01482
11
2.21938
21
1.01708
0
LINE
8
BLACK
6
CONTINUOUS
10
2.21938
20
1.01708
11
2.22292
21
1.02062
0
LINE
8
BLACK
6
CONTINUOUS
10
2.22292
20
1.02062
11
2.22518
21
1.02507
0
LINE
8
BLACK
6
CONTINUOUS
10
2.22518
20
1.02507
11
2.22518
21
1.02507
0
LINE
8
BLACK
6
CONTINUOUS
10
2.22518
20
1.02507
11
2.22528
21
1.02537
0
LINE
8
BLACK
6
CONTINUOUS
10
2.22528
20
1.02537
11
2.22686
21
1.02768
0
LINE
8
BLACK
6
CONTINUOUS
10
2.22686
20
1.02768
11
2.22943
21
1.02877
0
LINE
8
BLACK
6
CONTINUOUS
10
2.22943
20
1.02877
11
2.23219
21
1.02829
0
LINE
8
BLACK
6
CONTINUOUS
10
2.23219
20
1.02829
11
2.23425
21
1.0264
0
LINE
8
BLACK
6
CONTINUOUS
10
2.23425
20
1.0264
11
2.23472
21
1.02537
0
LINE
8
BLACK
6
CONTINUOUS
10
2.23472
20
1.02537
11
2.23482
21
1.02507
0
LINE
8
BLACK
6
CONTINUOUS
10
2.23482
20
1.02507
11
2.23708
21
1.02062
0
LINE
8
BLACK
6
CONTINUOUS
10
2.23708
20
1.02062
11
2.24062
21
1.01708
0
LINE
8
BLACK
6
CONTINUOUS
10
2.24062
20
1.01708
11
2.24178
21
1.01649
0
LINE
8
BLACK
6
CONTINUOUS
10
2.24178
20
1.01649
11
2.24507
21
1.01482
0
LINE
8
BLACK
6
CONTINUOUS
10
2.24507
20
1.01482
11
2.24876
21
1.01423
0
LINE
8
BLACK
6
CONTINUOUS
10
2.24876
20
1.01423
11
2.31124
21
1.01423
0
LINE
8
BLACK
6
CONTINUOUS
10
2.31124
20
1.01423
11
2.31493
21
1.01482
0
LINE
8
BLACK
6
CONTINUOUS
10
2.31493
20
1.01482
11
2.31938
21
1.01708
0
LINE
8
BLACK
6
CONTINUOUS
10
2.31938
20
1.01708
11
2.32292
21
1.02062
0
LINE
8
BLACK
6
CONTINUOUS
10
2.32292
20
1.02062
11
2.32518
21
1.02507
0
LINE
8
BLACK
6
CONTINUOUS
10
2.32518
20
1.02507
11
2.32577
21
1.02876
0
LINE
8
BLACK
6
CONTINUOUS
10
2.32577
20
1.02876
11
2.32577
21
1.09124
0
LINE
8
BLACK
6
CONTINUOUS
10
2.32577
20
1.09124
11
2.32518
21
1.09493
0
LINE
8
BLACK
6
CONTINUOUS
10
2.32518
20
1.09493
11
2.32405
21
1.09716
0
LINE
8
BLACK
6
CONTINUOUS
10
2.32405
20
1.09716
11
2.32292
21
1.09938
0
LINE
8
BLACK
6
CONTINUOUS
10
2.32292
20
1.09938
11
2.31938
21
1.10292
0
LINE
8
BLACK
6
CONTINUOUS
10
2.31938
20
1.10292
11
2.31493
21
1.10518
0
LINE
8
BLACK
6
CONTINUOUS
10
2.31493
20
1.10518
11
2.31463
21
1.10528
0
LINE
8
BLACK
6
CONTINUOUS
10
2.31463
20
1.10528
11
2.31232
21
1.10686
0
LINE
8
BLACK
6
CONTINUOUS
10
2.31232
20
1.10686
11
2.31123
21
1.10943
0
LINE
8
BLACK
6
CONTINUOUS
10
2.31123
20
1.10943
11
2.31171
21
1.11219
0
LINE
8
BLACK
6
CONTINUOUS
10
2.31171
20
1.11219
11
2.3136
21
1.11425
0
LINE
8
BLACK
6
CONTINUOUS
10
2.3136
20
1.11425
11
2.31463
21
1.11472
0
LINE
8
BLACK
6
CONTINUOUS
10
2.31463
20
1.11472
11
2.31493
21
1.11482
0
LINE
8
BLACK
6
CONTINUOUS
10
2.31493
20
1.11482
11
2.31493
21
1.11482
0
LINE
8
BLACK
6
CONTINUOUS
10
2.31493
20
1.11482
11
2.31938
21
1.11708
0
LINE
8
BLACK
6
CONTINUOUS
10
2.31938
20
1.11708
11
2.32292
21
1.12062
0
LINE
8
BLACK
6
CONTINUOUS
10
2.32292
20
1.12062
11
2.32518
21
1.12507
0
LINE
8
BLACK
6
CONTINUOUS
10
2.32518
20
1.12507
11
2.32577
21
1.12876
0
LINE
8
BLACK
6
CONTINUOUS
10
2.32577
20
1.12876
11
2.32577
21
1.19124
0
LINE
8
BLACK
6
CONTINUOUS
10
2.32577
20
1.19124
11
2.32518
21
1.19493
0
LINE
8
BLACK
6
CONTINUOUS
10
2.32518
20
1.19493
11
2.32405
21
1.19716
0
LINE
8
BLACK
6
CONTINUOUS
10
2.32405
20
1.19716
11
2.32292
21
1.19938
0
LINE
8
BLACK
6
CONTINUOUS
10
2.32292
20
1.19938
11
2.31938
21
1.20292
0
LINE
8
BLACK
6
CONTINUOUS
10
2.31938
20
1.20292
11
2.31493
21
1.20518
0
LINE
8
BLACK
6
CONTINUOUS
10
2.31493
20
1.20518
11
2.31463
21
1.20528
0
LINE
8
BLACK
6
CONTINUOUS
10
2.31463
20
1.20528
11
2.31232
21
1.20686
0
LINE
8
BLACK
6
CONTINUOUS
10
2.31232
20
1.20686
11
2.31123
21
1.20943
0
LINE
8
BLACK
6
CONTINUOUS
10
2.31123
20
1.20943
11
2.31171
21
1.21219
0
LINE
8
BLACK
6
CONTINUOUS
10
2.31171
20
1.21219
11
2.3136
21
1.21425
0
LINE
8
BLACK
6
CONTINUOUS
10
2.3136
20
1.21425
11
2.31463
21
1.21472
0
LINE
8
BLACK
6
CONTINUOUS
10
2.31463
20
1.21472
11
2.31493
21
1.21482
0
LINE
8
BLACK
6
CONTINUOUS
10
2.31493
20
1.21482
11
2.31493
21
1.21482
0
LINE
8
BLACK
6
CONTINUOUS
10
2.31493
20
1.21482
11
2.31938
21
1.21708
0
LINE
8
BLACK
6
CONTINUOUS
10
2.31938
20
1.21708
11
2.32292
21
1.22062
0
LINE
8
BLACK
6
CONTINUOUS
10
2.32292
20
1.22062
11
2.32518
21
1.22507
0
LINE
8
BLACK
6
CONTINUOUS
10
2.32518
20
1.22507
11
2.32577
21
1.22876
0
LINE
8
BLACK
6
CONTINUOUS
10
2.32577
20
1.22876
11
2.32577
21
1.29124
0
LINE
8
BLACK
6
CONTINUOUS
10
2.32577
20
1.29124
11
2.32518
21
1.29493
0
LINE
8
BLACK
6
CONTINUOUS
10
2.32518
20
1.29493
11
2.32405
21
1.29716
0
LINE
8
BLACK
6
CONTINUOUS
10
2.32405
20
1.29716
11
2.32292
21
1.29938
0
LINE
8
BLACK
6
CONTINUOUS
10
2.32292
20
1.29938
11
2.31938
21
1.30292
0
LINE
8
BLACK
6
CONTINUOUS
10
2.31938
20
1.30292
11
2.31493
21
1.30518
0
LINE
8
BLACK
6
CONTINUOUS
10
2.31493
20
1.30518
11
2.31463
21
1.30528
0
LINE
8
BLACK
6
CONTINUOUS
10
2.31463
20
1.30528
11
2.31232
21
1.30686
0
LINE
8
BLACK
6
CONTINUOUS
10
2.31232
20
1.30686
11
2.31123
21
1.30943
0
LINE
8
BLACK
6
CONTINUOUS
10
2.31123
20
1.30943
11
2.31171
21
1.31219
0
LINE
8
BLACK
6
CONTINUOUS
10
2.31171
20
1.31219
11
2.3136
21
1.31425
0
LINE
8
BLACK
6
CONTINUOUS
10
2.3136
20
1.31425
11
2.31463
21
1.31472
0
LINE
8
BLACK
6
CONTINUOUS
10
2.31463
20
1.31472
11
2.31493
21
1.31482
0
LINE
8
BLACK
6
CONTINUOUS
10
2.31493
20
1.31482
11
2.31493
21
1.31482
0
LINE
8
BLACK
6
CONTINUOUS
10
2.31493
20
1.31482
11
2.31938
21
1.31708
0
LINE
8
BLACK
6
CONTINUOUS
10
2.31938
20
1.31708
11
2.32292
21
1.32062
0
LINE
8
BLACK
6
CONTINUOUS
10
2.32292
20
1.32062
11
2.32518
21
1.32507
0
LINE
8
BLACK
6
CONTINUOUS
10
2.32518
20
1.32507
11
2.32577
21
1.32876
0
LINE
8
BLACK
6
CONTINUOUS
10
2.32577
20
1.32876
11
2.32577
21
1.39124
0
LINE
8
BLACK
6
CONTINUOUS
10
2.32577
20
1.39124
11
2.32518
21
1.39493
0
LINE
8
BLACK
6
CONTINUOUS
10
2.32518
20
1.39493
11
2.32405
21
1.39716
0
LINE
8
BLACK
6
CONTINUOUS
10
2.32405
20
1.39716
11
2.32292
21
1.39938
0
LINE
8
BLACK
6
CONTINUOUS
10
2.32292
20
1.39938
11
2.31938
21
1.40292
0
LINE
8
BLACK
6
CONTINUOUS
10
2.31938
20
1.40292
11
2.3164
21
1.40444
0
LINE
8
BLACK
6
CONTINUOUS
10
2.3164
20
1.40444
11
2.31493
21
1.40518
0
LINE
8
BLACK
6
CONTINUOUS
10
2.31493
20
1.40518
11
2.31124
21
1.40577
0
LINE
8
BLACK
6
CONTINUOUS
10
2.31124
20
1.40577
11
2.31124
21
1.40577
0
LINE
8
BLACK
6
CONTINUOUS
10
2.31124
20
1.40577
11
2.24876
21
1.40577
0
LINE
8
BLACK
6
CONTINUOUS
10
2.24876
20
1.40577
11
2.24507
21
1.40518
0
LINE
8
BLACK
6
CONTINUOUS
10
2.24507
20
1.40518
11
2.24062
21
1.40292
0
LINE
8
BLACK
6
CONTINUOUS
10
2.24062
20
1.40292
11
2.23708
21
1.39938
0
LINE
8
BLACK
6
CONTINUOUS
10
2.23708
20
1.39938
11
2.23482
21
1.39493
0
LINE
8
BLACK
6
CONTINUOUS
10
2.23482
20
1.39493
11
2.23472
21
1.39463
0
LINE
8
BLACK
6
CONTINUOUS
10
2.23472
20
1.39463
11
2.23314
21
1.39232
0
LINE
8
BLACK
6
CONTINUOUS
10
2.23314
20
1.39232
11
2.23057
21
1.39123
0
LINE
8
BLACK
6
CONTINUOUS
10
2.23057
20
1.39123
11
2.22781
21
1.39171
0
LINE
8
BLACK
6
CONTINUOUS
10
2.22781
20
1.39171
11
2.22575
21
1.3936
0
LINE
8
BLACK
6
CONTINUOUS
10
2.22575
20
1.3936
11
2.22528
21
1.39463
0
LINE
8
BLACK
6
CONTINUOUS
10
2.22528
20
1.39463
11
2.22518
21
1.39493
0
LINE
8
BLACK
6
CONTINUOUS
10
2.22518
20
1.39493
11
2.22292
21
1.39938
0
LINE
8
BLACK
6
CONTINUOUS
10
2.22292
20
1.39938
11
2.21938
21
1.40292
0
LINE
8
BLACK
6
CONTINUOUS
10
2.21938
20
1.40292
11
2.2164
21
1.40444
0
LINE
8
BLACK
6
CONTINUOUS
10
2.2164
20
1.40444
11
2.21493
21
1.40518
0
LINE
8
BLACK
6
CONTINUOUS
10
2.21493
20
1.40518
11
2.21124
21
1.40577
0
LINE
8
BLACK
6
CONTINUOUS
10
2.21124
20
1.40577
11
2.21124
21
1.40577
0
LINE
8
BLACK
6
CONTINUOUS
10
2.21124
20
1.40577
11
2.14876
21
1.40577
0
LINE
8
BLACK
6
CONTINUOUS
10
2.14876
20
1.40577
11
2.14507
21
1.40518
0
LINE
8
BLACK
6
CONTINUOUS
10
2.14507
20
1.40518
11
2.14062
21
1.40292
0
LINE
8
BLACK
6
CONTINUOUS
10
2.14062
20
1.40292
11
2.13708
21
1.39938
0
LINE
8
BLACK
6
CONTINUOUS
10
2.13708
20
1.39938
11
2.13482
21
1.39493
0
LINE
8
BLACK
6
CONTINUOUS
10
2.13482
20
1.39493
11
2.13482
21
1.39493
0
LINE
8
BLACK
6
CONTINUOUS
10
2.13482
20
1.39493
11
2.13423
21
1.39124
0
LINE
8
BLACK
6
CONTINUOUS
10
2.13423
20
1.39124
11
2.13423
21
1.39124
0
LINE
8
BLACK
6
CONTINUOUS
10
2.13423
20
1.39124
11
2.13423
21
1.32876
0
LINE
8
BLACK
6
CONTINUOUS
10
2.13423
20
1.32876
11
2.13482
21
1.32507
0
LINE
8
BLACK
6
CONTINUOUS
10
2.13482
20
1.32507
11
2.13708
21
1.32062
0
LINE
8
BLACK
6
CONTINUOUS
10
2.13708
20
1.32062
11
2.14062
21
1.31708
0
LINE
8
BLACK
6
CONTINUOUS
10
2.14062
20
1.31708
11
2.14288
21
1.31593
0
LINE
8
BLACK
6
CONTINUOUS
10
2.14288
20
1.31593
11
2.14507
21
1.31482
0
LINE
8
BLACK
6
CONTINUOUS
10
2.14507
20
1.31482
11
2.14507
21
1.31482
0
LINE
8
BLACK
6
CONTINUOUS
10
2.14507
20
1.31482
11
2.14537
21
1.31472
0
LINE
8
BLACK
6
CONTINUOUS
10
2.14537
20
1.31472
11
2.14768
21
1.31314
0
LINE
8
BLACK
6
CONTINUOUS
10
2.14768
20
1.31314
11
2.14877
21
1.31057
0
LINE
8
BLACK
6
CONTINUOUS
10
2.14877
20
1.31057
11
2.14829
21
1.30781
0
LINE
8
BLACK
6
CONTINUOUS
10
2.14829
20
1.30781
11
2.1464
21
1.30575
0
LINE
8
BLACK
6
CONTINUOUS
10
2.1464
20
1.30575
11
2.14537
21
1.30528
0
LINE
8
BLACK
6
CONTINUOUS
10
2.14537
20
1.30528
11
2.14507
21
1.30518
0
LINE
8
BLACK
6
CONTINUOUS
10
2.14507
20
1.30518
11
2.14062
21
1.30292
0
LINE
8
BLACK
6
CONTINUOUS
10
2.14062
20
1.30292
11
2.13708
21
1.29938
0
LINE
8
BLACK
6
CONTINUOUS
10
2.13708
20
1.29938
11
2.13482
21
1.29493
0
LINE
8
BLACK
6
CONTINUOUS
10
2.13482
20
1.29493
11
2.13482
21
1.29493
0
LINE
8
BLACK
6
CONTINUOUS
10
2.13482
20
1.29493
11
2.13423
21
1.29124
0
LINE
8
BLACK
6
CONTINUOUS
10
2.13423
20
1.29124
11
2.13423
21
1.29124
0
LINE
8
BLACK
6
CONTINUOUS
10
2.13423
20
1.29124
11
2.13423
21
1.22876
0
LINE
8
BLACK
6
CONTINUOUS
10
2.13423
20
1.22876
11
2.13482
21
1.22507
0
LINE
8
BLACK
6
CONTINUOUS
10
2.13482
20
1.22507
11
2.13708
21
1.22062
0
LINE
8
BLACK
6
CONTINUOUS
10
2.13708
20
1.22062
11
2.14062
21
1.21708
0
LINE
8
BLACK
6
CONTINUOUS
10
2.14062
20
1.21708
11
2.14097
21
1.21691
0
LINE
8
BLACK
6
CONTINUOUS
10
2.14097
20
1.21691
11
2.14507
21
1.21482
0
LINE
8
BLACK
6
CONTINUOUS
10
2.14507
20
1.21482
11
2.14507
21
1.21482
0
LINE
8
BLACK
6
CONTINUOUS
10
2.14507
20
1.21482
11
2.14537
21
1.21472
0
LINE
8
BLACK
6
CONTINUOUS
10
2.14537
20
1.21472
11
2.14768
21
1.21314
0
LINE
8
BLACK
6
CONTINUOUS
10
2.14768
20
1.21314
11
2.14877
21
1.21057
0
LINE
8
BLACK
6
CONTINUOUS
10
2.14877
20
1.21057
11
2.14829
21
1.20781
0
LINE
8
BLACK
6
CONTINUOUS
10
2.14829
20
1.20781
11
2.1464
21
1.20575
0
LINE
8
BLACK
6
CONTINUOUS
10
2.1464
20
1.20575
11
2.14537
21
1.20528
0
LINE
8
BLACK
6
CONTINUOUS
10
2.14537
20
1.20528
11
2.14507
21
1.20518
0
LINE
8
BLACK
6
CONTINUOUS
10
2.14507
20
1.20518
11
2.14062
21
1.20292
0
LINE
8
BLACK
6
CONTINUOUS
10
2.14062
20
1.20292
11
2.13708
21
1.19938
0
LINE
8
BLACK
6
CONTINUOUS
10
2.13708
20
1.19938
11
2.13555
21
1.19637
0
LINE
8
BLACK
6
CONTINUOUS
10
2.13555
20
1.19637
11
2.13482
21
1.19493
0
LINE
8
BLACK
6
CONTINUOUS
10
2.13482
20
1.19493
11
2.13423
21
1.19124
0
LINE
8
BLACK
6
CONTINUOUS
10
2.13423
20
1.19124
11
2.13423
21
1.19124
0
LINE
8
BLACK
6
CONTINUOUS
10
2.13423
20
1.19124
11
2.13423
21
1.15257
0
LINE
8
BLACK
6
CONTINUOUS
10
2.13423
20
1.15257
11
2.13344
21
1.14989
0
LINE
8
BLACK
6
CONTINUOUS
10
2.13344
20
1.14989
11
2.13133
21
1.14806
0
LINE
8
BLACK
6
CONTINUOUS
10
2.13133
20
1.14806
11
2.12857
21
1.14766
0
LINE
8
BLACK
6
CONTINUOUS
10
2.12857
20
1.14766
11
2.12602
21
1.14882
0
LINE
8
BLACK
6
CONTINUOUS
10
2.12602
20
1.14882
11
2.12576
21
1.14906
0
LINE
8
BLACK
6
CONTINUOUS
10
2.12576
20
1.14906
11
2.00415
21
1.27068
0
LINE
8
BLACK
6
CONTINUOUS
10
2.00415
20
1.27068
11
2.00281
21
1.27313
0
LINE
8
BLACK
6
CONTINUOUS
10
2.00281
20
1.27313
11
2.0027
21
1.27419
0
LINE
8
BLACK
6
CONTINUOUS
10
2.0027
20
1.27419
11
2.0027
21
1.31385
0
LINE
8
BLACK
6
CONTINUOUS
10
2.0027
20
1.31385
11
2.00276
21
1.31447
0
LINE
8
BLACK
6
CONTINUOUS
10
2.00276
20
1.31447
11
2.00275
21
1.31447
0
LINE
8
BLACK
6
CONTINUOUS
10
2.00275
20
1.31447
11
2.00278
21
1.31478
0
LINE
8
BLACK
6
CONTINUOUS
10
2.00278
20
1.31478
11
2.0027
21
1.3175
0
LINE
8
BLACK
6
CONTINUOUS
10
2.0027
20
1.3175
11
2.0027
21
1.31867
0
LINE
8
BLACK
6
CONTINUOUS
10
2.0027
20
1.31867
11
2.0027
21
1.31867
0
LINE
8
BLACK
6
CONTINUOUS
10
2.0027
20
1.31867
11
2.00266
21
1.31894
0
LINE
8
BLACK
6
CONTINUOUS
10
2.00266
20
1.31894
11
2.00264
21
1.31917
0
LINE
8
BLACK
6
CONTINUOUS
10
2.00264
20
1.31917
11
2.00259
21
1.321
0
LINE
8
BLACK
6
CONTINUOUS
10
2.00259
20
1.321
11
2.00237
21
1.32175
0
LINE
8
BLACK
6
CONTINUOUS
10
2.00237
20
1.32175
11
2.00221
21
1.32251
0
LINE
8
BLACK
6
CONTINUOUS
10
2.00221
20
1.32251
11
2.00211
21
1.32329
0
LINE
8
BLACK
6
CONTINUOUS
10
2.00211
20
1.32329
11
2.00211
21
1.32329
0
LINE
8
BLACK
6
CONTINUOUS
10
2.00211
20
1.32329
11
2.00211
21
1.32329
0
LINE
8
BLACK
6
CONTINUOUS
10
2.00211
20
1.32329
11
2.00144
21
1.32499
0
LINE
8
BLACK
6
CONTINUOUS
10
2.00144
20
1.32499
11
2.00136
21
1.32522
0
LINE
8
BLACK
6
CONTINUOUS
10
2.00136
20
1.32522
11
2.00085
21
1.32698
0
LINE
8
BLACK
6
CONTINUOUS
10
2.00085
20
1.32698
11
2.00085
21
1.32698
0
LINE
8
BLACK
6
CONTINUOUS
10
2.00085
20
1.32698
11
2.00045
21
1.32765
0
LINE
8
BLACK
6
CONTINUOUS
10
2.00045
20
1.32765
11
2.00011
21
1.32835
0
LINE
8
BLACK
6
CONTINUOUS
10
2.00011
20
1.32835
11
1.99995
21
1.32876
0
LINE
8
BLACK
6
CONTINUOUS
10
1.99995
20
1.32876
11
1.99982
21
1.32908
0
LINE
8
BLACK
6
CONTINUOUS
10
1.99982
20
1.32908
11
1.99874
21
1.33056
0
LINE
8
BLACK
6
CONTINUOUS
10
1.99874
20
1.33056
11
1.99862
21
1.33075
0
LINE
8
BLACK
6
CONTINUOUS
10
1.99862
20
1.33075
11
1.99768
21
1.33233
0
LINE
8
BLACK
6
CONTINUOUS
10
1.99768
20
1.33233
11
1.99768
21
1.33233
0
LINE
8
BLACK
6
CONTINUOUS
10
1.99768
20
1.33233
11
1.99768
21
1.33233
0
LINE
8
BLACK
6
CONTINUOUS
10
1.99768
20
1.33233
11
1.99713
21
1.33288
0
LINE
8
BLACK
6
CONTINUOUS
10
1.99713
20
1.33288
11
1.99662
21
1.33348
0
LINE
8
BLACK
6
CONTINUOUS
10
1.99662
20
1.33348
11
1.99616
21
1.33411
0
LINE
8
BLACK
6
CONTINUOUS
10
1.99616
20
1.33411
11
1.99616
21
1.33411
0
LINE
8
BLACK
6
CONTINUOUS
10
1.99616
20
1.33411
11
1.99475
21
1.33528
0
LINE
8
BLACK
6
CONTINUOUS
10
1.99475
20
1.33528
11
1.99458
21
1.33543
0
LINE
8
BLACK
6
CONTINUOUS
10
1.99458
20
1.33543
11
1.92491
21
1.4051
0
LINE
8
BLACK
6
CONTINUOUS
10
1.92491
20
1.4051
11
1.92452
21
1.40559
0
LINE
8
BLACK
6
CONTINUOUS
10
1.92452
20
1.40559
11
1.92451
21
1.40558
0
LINE
8
BLACK
6
CONTINUOUS
10
1.92451
20
1.40558
11
1.92431
21
1.40582
0
LINE
8
BLACK
6
CONTINUOUS
10
1.92431
20
1.40582
11
1.92233
21
1.40769
0
LINE
8
BLACK
6
CONTINUOUS
10
1.92233
20
1.40769
11
1.92151
21
1.40851
0
LINE
8
BLACK
6
CONTINUOUS
10
1.92151
20
1.40851
11
1.92151
21
1.40851
0
LINE
8
BLACK
6
CONTINUOUS
10
1.92151
20
1.40851
11
1.92129
21
1.40868
0
LINE
8
BLACK
6
CONTINUOUS
10
1.92129
20
1.40868
11
1.92111
21
1.40883
0
LINE
8
BLACK
6
CONTINUOUS
10
1.92111
20
1.40883
11
1.91978
21
1.41008
0
LINE
8
BLACK
6
CONTINUOUS
10
1.91978
20
1.41008
11
1.91978
21
1.41008
0
LINE
8
BLACK
6
CONTINUOUS
10
1.91978
20
1.41008
11
1.91909
21
1.41046
0
LINE
8
BLACK
6
CONTINUOUS
10
1.91909
20
1.41046
11
1.91844
21
1.41089
0
LINE
8
BLACK
6
CONTINUOUS
10
1.91844
20
1.41089
11
1.91782
21
1.41137
0
LINE
8
BLACK
6
CONTINUOUS
10
1.91782
20
1.41137
11
1.91782
21
1.41137
0
LINE
8
BLACK
6
CONTINUOUS
10
1.91782
20
1.41137
11
1.91694
21
1.41175
0
LINE
8
BLACK
6
CONTINUOUS
10
1.91694
20
1.41175
11
1.91614
21
1.41209
0
LINE
8
BLACK
6
CONTINUOUS
10
1.91614
20
1.41209
11
1.91593
21
1.4122
0
LINE
8
BLACK
6
CONTINUOUS
10
1.91593
20
1.4122
11
1.91433
21
1.41308
0
LINE
8
BLACK
6
CONTINUOUS
10
1.91433
20
1.41308
11
1.91433
21
1.41308
0
LINE
8
BLACK
6
CONTINUOUS
10
1.91433
20
1.41308
11
1.91357
21
1.41327
0
LINE
8
BLACK
6
CONTINUOUS
10
1.91357
20
1.41327
11
1.91283
21
1.41353
0
LINE
8
BLACK
6
CONTINUOUS
10
1.91283
20
1.41353
11
1.91211
21
1.41384
0
LINE
8
BLACK
6
CONTINUOUS
10
1.91211
20
1.41384
11
1.91211
21
1.41384
0
LINE
8
BLACK
6
CONTINUOUS
10
1.91211
20
1.41384
11
1.9103
21
1.41412
0
LINE
8
BLACK
6
CONTINUOUS
10
1.9103
20
1.41412
11
1.91007
21
1.41417
0
LINE
8
BLACK
6
CONTINUOUS
10
1.91007
20
1.41417
11
1.9083
21
1.41463
0
LINE
8
BLACK
6
CONTINUOUS
10
1.9083
20
1.41463
11
1.9083
21
1.41463
0
LINE
8
BLACK
6
CONTINUOUS
10
1.9083
20
1.41463
11
1.90752
21
1.41463
0
LINE
8
BLACK
6
CONTINUOUS
10
1.90752
20
1.41463
11
1.90674
21
1.41469
0
LINE
8
BLACK
6
CONTINUOUS
10
1.90674
20
1.41469
11
1.90597
21
1.41481
0
LINE
8
BLACK
6
CONTINUOUS
10
1.90597
20
1.41481
11
1.90597
21
1.41481
0
LINE
8
BLACK
6
CONTINUOUS
10
1.90597
20
1.41481
11
1.90414
21
1.41464
0
LINE
8
BLACK
6
CONTINUOUS
10
1.90414
20
1.41464
11
1.90391
21
1.41463
0
LINE
8
BLACK
6
CONTINUOUS
10
1.90391
20
1.41463
11
1.66147
21
1.41463
0
LINE
8
BLACK
6
CONTINUOUS
10
1.66147
20
1.41463
11
1.65883
21
1.41539
0
LINE
8
BLACK
6
CONTINUOUS
10
1.65883
20
1.41539
11
1.65376
21
1.41857
0
LINE
8
BLACK
6
CONTINUOUS
10
1.65376
20
1.41857
11
1.65376
21
1.41857
0
LINE
8
BLACK
6
CONTINUOUS
10
1.65376
20
1.41857
11
1.64706
21
1.42092
0
LINE
8
BLACK
6
CONTINUOUS
10
1.64706
20
1.42092
11
1.64
21
1.42172
0
LINE
8
BLACK
6
CONTINUOUS
10
1.64
20
1.42172
11
1.64
21
1.42172
0
LINE
8
BLACK
6
CONTINUOUS
10
1.64
20
1.42172
11
1.63897
21
1.4216
0
LINE
8
BLACK
6
CONTINUOUS
10
1.63897
20
1.4216
11
1.63294
21
1.42092
0
LINE
8
BLACK
6
CONTINUOUS
10
1.63294
20
1.42092
11
1.63294
21
1.42092
0
LINE
8
BLACK
6
CONTINUOUS
10
1.63294
20
1.42092
11
1.63294
21
1.42092
0
LINE
8
BLACK
6
CONTINUOUS
10
1.63294
20
1.42092
11
1.62624
21
1.41857
0
LINE
8
BLACK
6
CONTINUOUS
10
1.62624
20
1.41857
11
1.62624
21
1.41857
0
LINE
8
BLACK
6
CONTINUOUS
10
1.62624
20
1.41857
11
1.62023
21
1.4148
0
LINE
8
BLACK
6
CONTINUOUS
10
1.62023
20
1.4148
11
1.62023
21
1.4148
0
LINE
8
BLACK
6
CONTINUOUS
10
1.62023
20
1.4148
11
1.6152
21
1.40977
0
LINE
8
BLACK
6
CONTINUOUS
10
1.6152
20
1.40977
11
1.6152
21
1.40977
0
LINE
8
BLACK
6
CONTINUOUS
10
1.6152
20
1.40977
11
1.61143
21
1.40376
0
LINE
8
BLACK
6
CONTINUOUS
10
1.61143
20
1.40376
11
1.61143
21
1.40376
0
LINE
8
BLACK
6
CONTINUOUS
10
1.61143
20
1.40376
11
1.60989
21
1.39938
0
LINE
8
BLACK
6
CONTINUOUS
10
1.60989
20
1.39938
11
1.60908
21
1.39706
0
LINE
8
BLACK
6
CONTINUOUS
10
1.60908
20
1.39706
11
1.60828
21
1.39
0
LINE
8
BLACK
6
CONTINUOUS
10
1.60828
20
1.39
11
1.60908
21
1.38294
0
LINE
8
BLACK
6
CONTINUOUS
10
1.60908
20
1.38294
11
1.60908
21
1.38294
0
LINE
8
BLACK
6
CONTINUOUS
10
1.60908
20
1.38294
11
1.61143
21
1.37624
0
LINE
8
BLACK
6
CONTINUOUS
10
1.61143
20
1.37624
11
1.61143
21
1.37624
0
LINE
8
BLACK
6
CONTINUOUS
10
1.61143
20
1.37624
11
1.6152
21
1.37023
0
LINE
8
BLACK
6
CONTINUOUS
10
1.6152
20
1.37023
11
1.6152
21
1.37023
0
LINE
8
BLACK
6
CONTINUOUS
10
1.6152
20
1.37023
11
1.62023
21
1.3652
0
LINE
8
BLACK
6
CONTINUOUS
10
1.62023
20
1.3652
11
1.62023
21
1.3652
0
LINE
8
BLACK
6
CONTINUOUS
10
1.62023
20
1.3652
11
1.62624
21
1.36143
0
LINE
8
BLACK
6
CONTINUOUS
10
1.62624
20
1.36143
11
1.62624
21
1.36143
0
LINE
8
BLACK
6
CONTINUOUS
10
1.62624
20
1.36143
11
1.62624
21
1.36143
0
LINE
8
BLACK
6
CONTINUOUS
10
1.62624
20
1.36143
11
1.63294
21
1.35908
0
LINE
8
BLACK
6
CONTINUOUS
10
1.63294
20
1.35908
11
1.64
21
1.35828
0
LINE
8
BLACK
6
CONTINUOUS
10
1.64
20
1.35828
11
1.64706
21
1.35908
0
LINE
8
BLACK
6
CONTINUOUS
10
1.64706
20
1.35908
11
1.65376
21
1.36143
0
LINE
8
BLACK
6
CONTINUOUS
10
1.65376
20
1.36143
11
1.65429
21
1.36176
0
LINE
8
BLACK
6
CONTINUOUS
10
1.65429
20
1.36176
11
1.65883
21
1.36461
0
LINE
8
BLACK
6
CONTINUOUS
10
1.65883
20
1.36461
11
1.66147
21
1.36537
0
LINE
8
BLACK
6
CONTINUOUS
10
1.66147
20
1.36537
11
1.89293
21
1.36537
0
LINE
8
BLACK
6
CONTINUOUS
10
1.89293
20
1.36537
11
1.89561
21
1.36459
0
LINE
8
BLACK
6
CONTINUOUS
10
1.89561
20
1.36459
11
1.89644
21
1.36392
0
LINE
8
BLACK
6
CONTINUOUS
10
1.89644
20
1.36392
11
1.92252
21
1.33784
0
LINE
8
BLACK
6
CONTINUOUS
10
1.92252
20
1.33784
11
1.92386
21
1.33539
0
LINE
8
BLACK
6
CONTINUOUS
10
1.92386
20
1.33539
11
1.92366
21
1.3326
0
LINE
8
BLACK
6
CONTINUOUS
10
1.92366
20
1.3326
11
1.92199
21
1.33036
0
LINE
8
BLACK
6
CONTINUOUS
10
1.92199
20
1.33036
11
1.92165
21
1.33013
0
LINE
8
BLACK
6
CONTINUOUS
10
1.92165
20
1.33013
11
1.91634
21
1.32679
0
LINE
8
BLACK
6
CONTINUOUS
10
1.91634
20
1.32679
11
1.91132
21
1.32177
0
LINE
8
BLACK
6
CONTINUOUS
10
1.91132
20
1.32177
11
1.91132
21
1.32177
0
LINE
8
BLACK
6
CONTINUOUS
10
1.91132
20
1.32177
11
1.90754
21
1.31576
0
LINE
8
BLACK
6
CONTINUOUS
10
1.90754
20
1.31576
11
1.90754
21
1.31576
0
LINE
8
BLACK
6
CONTINUOUS
10
1.90754
20
1.31576
11
1.9052
21
1.30906
0
LINE
8
BLACK
6
CONTINUOUS
10
1.9052
20
1.30906
11
1.9052
21
1.30906
0
LINE
8
BLACK
6
CONTINUOUS
10
1.9052
20
1.30906
11
1.9044
21
1.302
0
LINE
8
BLACK
6
CONTINUOUS
10
1.9044
20
1.302
11
1.9052
21
1.29494
0
LINE
8
BLACK
6
CONTINUOUS
10
1.9052
20
1.29494
11
1.90616
21
1.29219
0
LINE
8
BLACK
6
CONTINUOUS
10
1.90616
20
1.29219
11
1.90629
21
1.29181
0
LINE
8
BLACK
6
CONTINUOUS
10
1.90629
20
1.29181
11
1.90657
21
1.29018
0
LINE
8
BLACK
6
CONTINUOUS
10
1.90657
20
1.29018
11
1.90657
21
1.22041
0
LINE
8
BLACK
6
CONTINUOUS
10
1.90657
20
1.22041
11
1.90578
21
1.21773
0
LINE
8
BLACK
6
CONTINUOUS
10
1.90578
20
1.21773
11
1.90512
21
1.21691
0
LINE
8
BLACK
6
CONTINUOUS
10
1.90512
20
1.21691
11
1.73788
21
1.04967
0
LINE
8
BLACK
6
CONTINUOUS
10
1.73788
20
1.04967
11
1.73645
21
1.04877
0
LINE
8
BLACK
6
CONTINUOUS
10
1.73645
20
1.04877
11
1.73649
21
1.0487
0
LINE
8
BLACK
6
CONTINUOUS
10
1.73649
20
1.0487
11
1.73624
21
1.04857
0
LINE
8
BLACK
6
CONTINUOUS
10
1.73624
20
1.04857
11
1.73023
21
1.0448
0
LINE
8
BLACK
6
CONTINUOUS
10
1.73023
20
1.0448
11
1.73023
21
1.0448
0
LINE
8
BLACK
6
CONTINUOUS
10
1.73023
20
1.0448
11
1.7252
21
1.03977
0
LINE
8
BLACK
6
CONTINUOUS
10
1.7252
20
1.03977
11
1.72143
21
1.03376
0
LINE
8
BLACK
6
CONTINUOUS
10
1.72143
20
1.03376
11
1.7213
21
1.03351
0
LINE
8
BLACK
6
CONTINUOUS
10
1.7213
20
1.03351
11
1.72123
21
1.03355
0
LINE
8
BLACK
6
CONTINUOUS
10
1.72123
20
1.03355
11
1.72033
21
1.03212
0
LINE
8
BLACK
6
CONTINUOUS
10
1.72033
20
1.03212
11
1.66921
21
0.981
0
LINE
8
BLACK
6
CONTINUOUS
10
1.66921
20
0.981
11
1.66676
21
0.979661
0
LINE
8
BLACK
6
CONTINUOUS
10
1.66676
20
0.979661
11
1.66571
21
0.979547
0
LINE
8
BLACK
6
CONTINUOUS
10
1.66571
20
0.979547
11
1.50429
21
0.979547
0
LINE
8
BLACK
6
CONTINUOUS
10
1.50429
20
0.979547
11
1.50161
21
0.980335
0
LINE
8
BLACK
6
CONTINUOUS
10
1.50161
20
0.980335
11
1.50079
21
0.981
0
LINE
8
BLACK
6
CONTINUOUS
10
1.50079
20
0.981
11
1.34303
21
1.13876
0
LINE
8
BLACK
6
CONTINUOUS
10
1.34303
20
1.13876
11
0.962671
21
1.51912
0
LINE
8
BLACK
6
CONTINUOUS
10
0.962671
20
1.51912
11
0.962199
21
1.51966
0
LINE
8
BLACK
6
CONTINUOUS
10
0.962199
20
1.51966
11
0.961638
21
1.52041
0
LINE
8
BLACK
6
CONTINUOUS
10
0.961638
20
1.52041
11
0.960064
21
1.52174
0
LINE
8
BLACK
6
CONTINUOUS
10
0.960064
20
1.52174
11
0.959905
21
1.52188
0
LINE
8
BLACK
6
CONTINUOUS
10
0.959905
20
1.52188
11
0.959676
21
1.52211
0
LINE
8
BLACK
6
CONTINUOUS
10
0.959676
20
1.52211
11
0.958663
21
1.52291
0
LINE
8
BLACK
6
CONTINUOUS
10
0.958663
20
1.52291
11
0.956347
21
1.52485
0
LINE
8
BLACK
6
CONTINUOUS
10
0.956347
20
1.52485
11
0.956106
21
1.52501
0
LINE
8
BLACK
6
CONTINUOUS
10
0.956106
20
1.52501
11
0.956107
21
1.52502
0
LINE
8
BLACK
6
CONTINUOUS
10
0.956107
20
1.52502
11
0.955865
21
1.52517
0
LINE
8
BLACK
6
CONTINUOUS
10
0.955865
20
1.52517
11
0.955863
21
1.52517
0
LINE
8
BLACK
6
CONTINUOUS
10
0.955863
20
1.52517
11
0.955617
21
1.52532
0
LINE
8
BLACK
6
CONTINUOUS
10
0.955617
20
1.52532
11
0.952876
21
1.5266
0
LINE
8
BLACK
6
CONTINUOUS
10
0.952876
20
1.5266
11
0.950175
21
1.52795
0
LINE
8
BLACK
6
CONTINUOUS
10
0.950175
20
1.52795
11
0.950175
21
1.52795
0
LINE
8
BLACK
6
CONTINUOUS
10
0.950175
20
1.52795
11
0.950175
21
1.52795
0
LINE
8
BLACK
6
CONTINUOUS
10
0.950175
20
1.52795
11
0.950174
21
1.52795
0
LINE
8
BLACK
6
CONTINUOUS
10
0.950174
20
1.52795
11
0.949903
21
1.52805
0
LINE
8
BLACK
6
CONTINUOUS
10
0.949903
20
1.52805
11
0.949904
21
1.52806
0
LINE
8
BLACK
6
CONTINUOUS
10
0.949904
20
1.52806
11
0.949632
21
1.52815
0
LINE
8
BLACK
6
CONTINUOUS
10
0.949632
20
1.52815
11
0.949631
21
1.52815
0
LINE
8
BLACK
6
CONTINUOUS
10
0.949631
20
1.52815
11
0.949357
21
1.52824
0
LINE
8
BLACK
6
CONTINUOUS
10
0.949357
20
1.52824
11
0.949357
21
1.52824
0
LINE
8
BLACK
6
CONTINUOUS
10
0.949357
20
1.52824
11
0.949357
21
1.52824
0
LINE
8
BLACK
6
CONTINUOUS
10
0.949357
20
1.52824
11
0.949357
21
1.52824
0
LINE
8
BLACK
6
CONTINUOUS
10
0.949357
20
1.52824
11
0.946395
21
1.52885
0
LINE
8
BLACK
6
CONTINUOUS
10
0.946395
20
1.52885
11
0.943454
21
1.52955
0
LINE
8
BLACK
6
CONTINUOUS
10
0.943454
20
1.52955
11
0.943167
21
1.52958
0
LINE
8
BLACK
6
CONTINUOUS
10
0.943167
20
1.52958
11
0.943167
21
1.52958
0
LINE
8
BLACK
6
CONTINUOUS
10
0.943167
20
1.52958
11
0.942881
21
1.52961
0
LINE
8
BLACK
6
CONTINUOUS
10
0.942881
20
1.52961
11
0.942881
21
1.52961
0
LINE
8
BLACK
6
CONTINUOUS
10
0.942881
20
1.52961
11
0.942593
21
1.52964
0
LINE
8
BLACK
6
CONTINUOUS
10
0.942593
20
1.52964
11
0.942593
21
1.52964
0
LINE
8
BLACK
6
CONTINUOUS
10
0.942593
20
1.52964
11
0.93957
21
1.52955
0
LINE
8
BLACK
6
CONTINUOUS
10
0.93957
20
1.52955
11
0.901823
21
1.52955
0
LINE
8
BLACK
6
CONTINUOUS
10
0.901823
20
1.52955
11
0.900185
21
1.52983
0
LINE
8
BLACK
6
CONTINUOUS
10
0.900185
20
1.52983
11
0.897057
21
1.53092
0
LINE
8
BLACK
6
CONTINUOUS
10
0.897057
20
1.53092
11
0.89
21
1.53172
0
LINE
8
BLACK
6
CONTINUOUS
10
0.89
20
1.53172
11
0.89
21
1.53172
0
LINE
8
BLACK
6
CONTINUOUS
10
0.89
20
1.53172
11
0.888973
21
1.5316
0
LINE
8
BLACK
6
CONTINUOUS
10
0.888973
20
1.5316
11
0.882943
21
1.53092
0
LINE
8
BLACK
6
CONTINUOUS
10
0.882943
20
1.53092
11
0.882943
21
1.53092
0
LINE
8
BLACK
6
CONTINUOUS
10
0.882943
20
1.53092
11
0.882943
21
1.53092
0
LINE
8
BLACK
6
CONTINUOUS
10
0.882943
20
1.53092
11
0.876239
21
1.52857
0
LINE
8
BLACK
6
CONTINUOUS
10
0.876239
20
1.52857
11
0.876239
21
1.52857
0
LINE
8
BLACK
6
CONTINUOUS
10
0.876239
20
1.52857
11
0.870226
21
1.5248
0
LINE
8
BLACK
6
CONTINUOUS
10
0.870226
20
1.5248
11
0.870226
21
1.5248
0
LINE
8
BLACK
6
CONTINUOUS
10
0.870226
20
1.5248
11
0.865204
21
1.51977
0
LINE
8
BLACK
6
CONTINUOUS
10
0.865204
20
1.51977
11
0.865204
21
1.51977
0
LINE
8
BLACK
6
CONTINUOUS
10
0.865204
20
1.51977
11
0.861426
21
1.51376
0
LINE
8
BLACK
6
CONTINUOUS
10
0.861426
20
1.51376
11
0.861426
21
1.51376
0
LINE
8
BLACK
6
CONTINUOUS
10
0.861426
20
1.51376
11
0.861426
21
1.51376
0
LINE
8
BLACK
6
CONTINUOUS
10
0.861426
20
1.51376
11
0.85908
21
1.50706
0
LINE
8
BLACK
6
CONTINUOUS
10
0.85908
20
1.50706
11
0.858285
21
1.5
0
LINE
8
BLACK
6
CONTINUOUS
10
0.858285
20
1.5
11
0.85908
21
1.49294
0
LINE
8
BLACK
6
CONTINUOUS
10
0.85908
20
1.49294
11
0.85908
21
1.49294
0
LINE
8
BLACK
6
CONTINUOUS
10
0.85908
20
1.49294
11
0.861426
21
1.48624
0
LINE
8
BLACK
6
CONTINUOUS
10
0.861426
20
1.48624
11
0.861426
21
1.48624
0
LINE
8
BLACK
6
CONTINUOUS
10
0.861426
20
1.48624
11
0.865204
21
1.48023
0
LINE
8
BLACK
6
CONTINUOUS
10
0.865204
20
1.48023
11
0.865204
21
1.48023
0
LINE
8
BLACK
6
CONTINUOUS
10
0.865204
20
1.48023
11
0.870226
21
1.4752
0
LINE
8
BLACK
6
CONTINUOUS
10
0.870226
20
1.4752
11
0.870226
21
1.4752
0
LINE
8
BLACK
6
CONTINUOUS
10
0.870226
20
1.4752
11
0.876239
21
1.47143
0
LINE
8
BLACK
6
CONTINUOUS
10
0.876239
20
1.47143
11
0.876239
21
1.47143
0
LINE
8
BLACK
6
CONTINUOUS
10
0.876239
20
1.47143
11
0.876239
21
1.47143
0
LINE
8
BLACK
6
CONTINUOUS
10
0.876239
20
1.47143
11
0.882943
21
1.46908
0
LINE
8
BLACK
6
CONTINUOUS
10
0.882943
20
1.46908
11
0.89
21
1.46828
0
LINE
8
BLACK
6
CONTINUOUS
10
0.89
20
1.46828
11
0.897057
21
1.46908
0
LINE
8
BLACK
6
CONTINUOUS
10
0.897057
20
1.46908
11
0.900185
21
1.47017
0
LINE
8
BLACK
6
CONTINUOUS
10
0.900185
20
1.47017
11
0.901823
21
1.47045
0
LINE
8
BLACK
6
CONTINUOUS
10
0.901823
20
1.47045
11
0.925706
21
1.47045
0
LINE
8
BLACK
6
CONTINUOUS
10
0.925706
20
1.47045
11
0.928388
21
1.46967
0
LINE
8
BLACK
6
CONTINUOUS
10
0.928388
20
1.46967
11
0.929214
21
1.469
0
LINE
8
BLACK
6
CONTINUOUS
10
0.929214
20
1.469
11
1.1853
21
1.21292
0
LINE
8
BLACK
6
CONTINUOUS
10
1.1853
20
1.21292
11
1.43971
21
0.958508
0
LINE
8
BLACK
6
CONTINUOUS
10
1.43971
20
0.958508
11
1.44105
21
0.956054
0
LINE
8
BLACK
6
CONTINUOUS
10
1.44105
20
0.956054
11
1.44085
21
0.953266
0
LINE
8
BLACK
6
CONTINUOUS
10
1.44085
20
0.953266
11
1.43971
21
0.951492
0
LINE
8
BLACK
6
CONTINUOUS
10
1.43971
20
0.951492
11
1.33625
21
0.848038
0
LINE
8
BLACK
6
CONTINUOUS
10
1.33625
20
0.848038
11
1.3338
21
0.846698
0
LINE
8
BLACK
6
CONTINUOUS
10
1.3338
20
0.846698
11
1.33274
21
0.846585
0
LINE
8
BLACK
6
CONTINUOUS
10
1.33274
20
0.846585
11
0.949551
21
0.846585
0
LINE
8
BLACK
6
CONTINUOUS
10
0.949551
20
0.846585
11
0.948832
21
0.846637
0
LINE
8
BLACK
6
CONTINUOUS
10
0.948832
20
0.846637
11
0.947903
21
0.846773
0
LINE
8
BLACK
6
CONTINUOUS
10
0.947903
20
0.846773
11
0.945855
21
0.846594
0
LINE
8
BLACK
6
CONTINUOUS
10
0.945855
20
0.846594
11
0.945639
21
0.846585
0
LINE
8
BLACK
6
CONTINUOUS
10
0.945639
20
0.846585
11
0.945316
21
0.846585
0
LINE
8
BLACK
6
CONTINUOUS
10
0.945316
20
0.846585
11
0.944034
21
0.846435
0
LINE
8
BLACK
6
CONTINUOUS
10
0.944034
20
0.846435
11
0.941022
21
0.846171
0
LINE
8
BLACK
6
CONTINUOUS
10
0.941022
20
0.846171
11
0.941022
21
0.846171
0
LINE
8
BLACK
6
CONTINUOUS
10
0.941022
20
0.846171
11
0.941022
21
0.846171
0
LINE
8
BLACK
6
CONTINUOUS
10
0.941022
20
0.846171
11
0.941022
21
0.846171
0
LINE
8
BLACK
6
CONTINUOUS
10
0.941022
20
0.846171
11
0.940739
21
0.846113
0
LINE
8
BLACK
6
CONTINUOUS
10
0.940739
20
0.846113
11
0.940738
21
0.846116
0
LINE
8
BLACK
6
CONTINUOUS
10
0.940738
20
0.846116
11
0.940457
21
0.846053
0
LINE
8
BLACK
6
CONTINUOUS
10
0.940457
20
0.846053
11
0.940458
21
0.84605
0
LINE
8
BLACK
6
CONTINUOUS
10
0.940458
20
0.84605
11
0.940177
21
0.845984
0
LINE
8
BLACK
6
CONTINUOUS
10
0.940177
20
0.845984
11
0.938283
21
0.845295
0
LINE
8
BLACK
6
CONTINUOUS
10
0.938283
20
0.845295
11
0.937336
21
0.84495
0
LINE
8
BLACK
6
CONTINUOUS
10
0.937336
20
0.84495
11
0.934465
21
0.843999
0
LINE
8
BLACK
6
CONTINUOUS
10
0.934465
20
0.843999
11
0.934465
21
0.843999
0
LINE
8
BLACK
6
CONTINUOUS
10
0.934465
20
0.843999
11
0.934203
21
0.843877
0
LINE
8
BLACK
6
CONTINUOUS
10
0.934203
20
0.843877
11
0.934202
21
0.843879
0
LINE
8
BLACK
6
CONTINUOUS
10
0.934202
20
0.843879
11
0.933943
21
0.843754
0
LINE
8
BLACK
6
CONTINUOUS
10
0.933943
20
0.843754
11
0.933944
21
0.843751
0
LINE
8
BLACK
6
CONTINUOUS
10
0.933944
20
0.843751
11
0.933686
21
0.843622
0
LINE
8
BLACK
6
CONTINUOUS
10
0.933686
20
0.843622
11
0.93116
21
0.84196
0
LINE
8
BLACK
6
CONTINUOUS
10
0.93116
20
0.84196
11
0.928586
21
0.840373
0
LINE
8
BLACK
6
CONTINUOUS
10
0.928586
20
0.840373
11
0.92836
21
0.840193
0
LINE
8
BLACK
6
CONTINUOUS
10
0.92836
20
0.840193
11
0.928358
21
0.840196
0
LINE
8
BLACK
6
CONTINUOUS
10
0.928358
20
0.840196
11
0.928135
21
0.840014
0
LINE
8
BLACK
6
CONTINUOUS
10
0.928135
20
0.840014
11
0.928137
21
0.840012
0
LINE
8
BLACK
6
CONTINUOUS
10
0.928137
20
0.840012
11
0.927916
21
0.839826
0
LINE
8
BLACK
6
CONTINUOUS
10
0.927916
20
0.839826
11
0.92584
21
0.837627
0
LINE
8
BLACK
6
CONTINUOUS
10
0.92584
20
0.837627
11
0.681147
21
0.592934
0
LINE
8
BLACK
6
CONTINUOUS
10
0.681147
20
0.592934
11
0.678694
21
0.591594
0
LINE
8
BLACK
6
CONTINUOUS
10
0.678694
20
0.591594
11
0.678195
21
0.591512
0
LINE
8
BLACK
6
CONTINUOUS
10
0.678195
20
0.591512
11
0.676013
21
0.591266
0
LINE
8
BLACK
6
CONTINUOUS
10
0.676013
20
0.591266
11
0.672943
21
0.59092
0
LINE
8
BLACK
6
CONTINUOUS
10
0.672943
20
0.59092
11
0.672943
21
0.59092
0
LINE
8
BLACK
6
CONTINUOUS
10
0.672943
20
0.59092
11
0.672943
21
0.59092
0
LINE
8
BLACK
6
CONTINUOUS
10
0.672943
20
0.59092
11
0.666239
21
0.588574
0
LINE
8
BLACK
6
CONTINUOUS
10
0.666239
20
0.588574
11
0.666239
21
0.588574
0
LINE
8
BLACK
6
CONTINUOUS
10
0.666239
20
0.588574
11
0.660226
21
0.584796
0
LINE
8
BLACK
6
CONTINUOUS
10
0.660226
20
0.584796
11
0.660226
21
0.584796
0
LINE
8
BLACK
6
CONTINUOUS
10
0.660226
20
0.584796
11
0.655204
21
0.579774
0
LINE
8
BLACK
6
CONTINUOUS
10
0.655204
20
0.579774
11
0.655204
21
0.579774
0
LINE
8
BLACK
6
CONTINUOUS
10
0.655204
20
0.579774
11
0.651426
21
0.573761
0
LINE
8
BLACK
6
CONTINUOUS
10
0.651426
20
0.573761
11
0.651426
21
0.573761
0
LINE
8
BLACK
6
CONTINUOUS
10
0.651426
20
0.573761
11
0.649894
21
0.569384
0
LINE
8
BLACK
6
CONTINUOUS
10
0.649894
20
0.569384
11
0.64908
21
0.567057
0
LINE
8
BLACK
6
CONTINUOUS
10
0.64908
20
0.567057
11
0.648285
21
0.56
0
LINE
8
BLACK
6
CONTINUOUS
10
0.648285
20
0.56
11
0.64908
21
0.552943
0
LINE
8
BLACK
6
CONTINUOUS
10
0.314817
20
0.685067
11
0.317085
21
0.680616
0
LINE
8
BLACK
6
CONTINUOUS
10
0.317085
20
0.680616
11
0.320616
21
0.677085
0
LINE
8
BLACK
6
CONTINUOUS
10
0.320616
20
0.677085
11
0.321656
21
0.676555
0
LINE
8
BLACK
6
CONTINUOUS
10
0.321656
20
0.676555
11
0.325067
21
0.674817
0
LINE
8
BLACK
6
CONTINUOUS
10
0.325067
20
0.674817
11
0.328759
21
0.674232
0
LINE
8
BLACK
6
CONTINUOUS
10
0.328759
20
0.674232
11
0.391241
21
0.674232
0
LINE
8
BLACK
6
CONTINUOUS
10
0.391241
20
0.674232
11
0.394933
21
0.674817
0
LINE
8
BLACK
6
CONTINUOUS
10
0.394933
20
0.674817
11
0.399384
21
0.677085
0
LINE
8
BLACK
6
CONTINUOUS
10
0.399384
20
0.677085
11
0.402915
21
0.680616
0
LINE
8
BLACK
6
CONTINUOUS
10
0.402915
20
0.680616
11
0.405183
21
0.685067
0
LINE
8
BLACK
6
CONTINUOUS
10
0.405183
20
0.685067
11
0.405183
21
0.685067
0
LINE
8
BLACK
6
CONTINUOUS
10
0.405183
20
0.685067
11
0.405282
21
0.685372
0
LINE
8
BLACK
6
CONTINUOUS
10
0.405282
20
0.685372
11
0.40686
21
0.687679
0
LINE
8
BLACK
6
CONTINUOUS
10
0.40686
20
0.687679
11
0.409434
21
0.688768
0
LINE
8
BLACK
6
CONTINUOUS
10
0.409434
20
0.688768
11
0.412188
21
0.688291
0
LINE
8
BLACK
6
CONTINUOUS
10
0.412188
20
0.688291
11
0.414248
21
0.686401
0
LINE
8
BLACK
6
CONTINUOUS
10
0.414248
20
0.686401
11
0.414718
21
0.685372
0
LINE
8
BLACK
6
CONTINUOUS
10
0.414718
20
0.685372
11
0.414817
21
0.685067
0
LINE
8
BLACK
6
CONTINUOUS
10
0.414817
20
0.685067
11
0.417085
21
0.680616
0
LINE
8
BLACK
6
CONTINUOUS
10
0.417085
20
0.680616
11
0.420616
21
0.677085
0
LINE
8
BLACK
6
CONTINUOUS
10
0.420616
20
0.677085
11
0.421656
21
0.676555
0
LINE
8
BLACK
6
CONTINUOUS
10
0.421656
20
0.676555
11
0.425067
21
0.674817
0
LINE
8
BLACK
6
CONTINUOUS
10
0.425067
20
0.674817
11
0.428759
21
0.674232
0
LINE
8
BLACK
6
CONTINUOUS
10
0.428759
20
0.674232
11
0.491241
21
0.674232
0
LINE
8
BLACK
6
CONTINUOUS
10
0.491241
20
0.674232
11
0.494933
21
0.674817
0
LINE
8
BLACK
6
CONTINUOUS
10
0.494933
20
0.674817
11
0.499384
21
0.677085
0
LINE
8
BLACK
6
CONTINUOUS
10
0.499384
20
0.677085
11
0.502915
21
0.680616
0
LINE
8
BLACK
6
CONTINUOUS
10
0.502915
20
0.680616
11
0.505183
21
0.685067
0
LINE
8
BLACK
6
CONTINUOUS
10
0.505183
20
0.685067
11
0.505768
21
0.688759
0
LINE
8
BLACK
6
CONTINUOUS
10
0.505768
20
0.688759
11
0.505768
21
0.751241
0
LINE
8
BLACK
6
CONTINUOUS
10
0.505768
20
0.751241
11
0.505183
21
0.754933
0
LINE
8
BLACK
6
CONTINUOUS
10
0.505183
20
0.754933
11
0.504049
21
0.757158
0
LINE
8
BLACK
6
CONTINUOUS
10
0.504049
20
0.757158
11
0.502915
21
0.759384
0
LINE
8
BLACK
6
CONTINUOUS
10
0.502915
20
0.759384
11
0.499384
21
0.762915
0
LINE
8
BLACK
6
CONTINUOUS
10
0.499384
20
0.762915
11
0.496398
21
0.764437
0
LINE
8
BLACK
6
CONTINUOUS
10
0.496398
20
0.764437
11
0.494933
21
0.765183
0
LINE
8
BLACK
6
CONTINUOUS
10
0.494933
20
0.765183
11
0.491241
21
0.765768
0
LINE
8
BLACK
6
CONTINUOUS
10
0.491241
20
0.765768
11
0.491241
21
0.765768
0
LINE
8
BLACK
6
CONTINUOUS
10
0.491241
20
0.765768
11
0.428759
21
0.765768
0
LINE
8
BLACK
6
CONTINUOUS
10
0.428759
20
0.765768
11
0.425067
21
0.765183
0
LINE
8
BLACK
6
CONTINUOUS
10
0.425067
20
0.765183
11
0.420616
21
0.762915
0
LINE
8
BLACK
6
CONTINUOUS
10
0.420616
20
0.762915
11
0.417085
21
0.759384
0
LINE
8
BLACK
6
CONTINUOUS
10
0.417085
20
0.759384
11
0.414817
21
0.754933
0
LINE
8
BLACK
6
CONTINUOUS
10
0.414817
20
0.754933
11
0.414718
21
0.754628
0
LINE
8
BLACK
6
CONTINUOUS
10
0.414718
20
0.754628
11
0.41314
21
0.75232
0
LINE
8
BLACK
6
CONTINUOUS
10
0.41314
20
0.75232
11
0.410565
21
0.751232
0
LINE
8
BLACK
6
CONTINUOUS
10
0.410565
20
0.751232
11
0.407811
21
0.751709
0
LINE
8
BLACK
6
CONTINUOUS
10
0.407811
20
0.751709
11
0.405752
21
0.753599
0
LINE
8
BLACK
6
CONTINUOUS
10
0.405752
20
0.753599
11
0.405282
21
0.754628
0
LINE
8
BLACK
6
CONTINUOUS
10
0.405282
20
0.754628
11
0.405183
21
0.754933
0
LINE
8
BLACK
6
CONTINUOUS
10
0.405183
20
0.754933
11
0.402915
21
0.759384
0
LINE
8
BLACK
6
CONTINUOUS
10
0.402915
20
0.759384
11
0.399384
21
0.762915
0
LINE
8
BLACK
6
CONTINUOUS
10
0.399384
20
0.762915
11
0.396398
21
0.764437
0
LINE
8
BLACK
6
CONTINUOUS
10
0.396398
20
0.764437
11
0.394933
21
0.765183
0
LINE
8
BLACK
6
CONTINUOUS
10
0.394933
20
0.765183
11
0.391241
21
0.765768
0
LINE
8
BLACK
6
CONTINUOUS
10
0.391241
20
0.765768
11
0.391241
21
0.765768
0
LINE
8
BLACK
6
CONTINUOUS
10
0.391241
20
0.765768
11
0.328759
21
0.765768
0
LINE
8
BLACK
6
CONTINUOUS
10
0.328759
20
0.765768
11
0.325067
21
0.765183
0
LINE
8
BLACK
6
CONTINUOUS
10
0.325067
20
0.765183
11
0.320616
21
0.762915
0
LINE
8
BLACK
6
CONTINUOUS
10
0.320616
20
0.762915
11
0.317085
21
0.759384
0
LINE
8
BLACK
6
CONTINUOUS
10
0.317085
20
0.759384
11
0.314817
21
0.754933
0
LINE
8
BLACK
6
CONTINUOUS
10
0.314817
20
0.754933
11
0.314817
21
0.754933
0
LINE
8
BLACK
6
CONTINUOUS
10
0.314817
20
0.754933
11
0.314232
21
0.751241
0
LINE
8
BLACK
6
CONTINUOUS
10
0.314232
20
0.751241
11
0.314232
21
0.751241
0
LINE
8
BLACK
6
CONTINUOUS
10
0.314232
20
0.751241
11
0.314232
21
0.688759
0
LINE
8
BLACK
6
CONTINUOUS
10
0.314232
20
0.688759
11
0.314817
21
0.685067
0
LINE
8
BLACK
6
CONTINUOUS
10
2.35482
20
0.745067
11
2.35708
21
0.740616
0
LINE
8
BLACK
6
CONTINUOUS
10
2.35708
20
0.740616
11
2.36062
21
0.737085
0
LINE
8
BLACK
6
CONTINUOUS
10
2.36062
20
0.737085
11
2.36214
21
0.73631
0
LINE
8
BLACK
6
CONTINUOUS
10
2.36214
20
0.73631
11
2.36507
21
0.734817
0
LINE
8
BLACK
6
CONTINUOUS
10
2.36507
20
0.734817
11
2.36876
21
0.734232
0
LINE
8
BLACK
6
CONTINUOUS
10
2.36876
20
0.734232
11
2.43124
21
0.734232
0
LINE
8
BLACK
6
CONTINUOUS
10
2.43124
20
0.734232
11
2.43493
21
0.734817
0
LINE
8
BLACK
6
CONTINUOUS
10
2.43493
20
0.734817
11
2.43938
21
0.737085
0
LINE
8
BLACK
6
CONTINUOUS
10
2.43938
20
0.737085
11
2.44292
21
0.740616
0
LINE
8
BLACK
6
CONTINUOUS
10
2.44292
20
0.740616
11
2.44518
21
0.745067
0
LINE
8
BLACK
6
CONTINUOUS
10
2.44518
20
0.745067
11
2.44518
21
0.745067
0
LINE
8
BLACK
6
CONTINUOUS
10
2.44518
20
0.745067
11
2.44528
21
0.745372
0
LINE
8
BLACK
6
CONTINUOUS
10
2.44528
20
0.745372
11
2.44686
21
0.747679
0
LINE
8
BLACK
6
CONTINUOUS
10
2.44686
20
0.747679
11
2.44943
21
0.748768
0
LINE
8
BLACK
6
CONTINUOUS
10
2.44943
20
0.748768
11
2.45219
21
0.748291
0
LINE
8
BLACK
6
CONTINUOUS
10
2.45219
20
0.748291
11
2.45425
21
0.746401
0
LINE
8
BLACK
6
CONTINUOUS
10
2.45425
20
0.746401
11
2.45472
21
0.745372
0
LINE
8
BLACK
6
CONTINUOUS
10
2.45472
20
0.745372
11
2.45482
21
0.745067
0
LINE
8
BLACK
6
CONTINUOUS
10
2.45482
20
0.745067
11
2.45708
21
0.740616
0
LINE
8
BLACK
6
CONTINUOUS
10
2.45708
20
0.740616
11
2.46062
21
0.737085
0
LINE
8
BLACK
6
CONTINUOUS
10
2.46062
20
0.737085
11
2.46214
21
0.73631
0
LINE
8
BLACK
6
CONTINUOUS
10
2.46214
20
0.73631
11
2.46507
21
0.734817
0
LINE
8
BLACK
6
CONTINUOUS
10
2.46507
20
0.734817
11
2.46876
21
0.734232
0
LINE
8
BLACK
6
CONTINUOUS
10
2.46876
20
0.734232
11
2.53124
21
0.734232
0
LINE
8
BLACK
6
CONTINUOUS
10
2.53124
20
0.734232
11
2.53493
21
0.734817
0
LINE
8
BLACK
6
CONTINUOUS
10
2.53493
20
0.734817
11
2.53938
21
0.737085
0
LINE
8
BLACK
6
CONTINUOUS
10
2.53938
20
0.737085
11
2.54292
21
0.740616
0
LINE
8
BLACK
6
CONTINUOUS
10
2.54292
20
0.740616
11
2.54518
21
0.745067
0
LINE
8
BLACK
6
CONTINUOUS
10
2.54518
20
0.745067
11
2.54577
21
0.748759
0
LINE
8
BLACK
6
CONTINUOUS
10
2.54577
20
0.748759
11
2.54577
21
0.811241
0
LINE
8
BLACK
6
CONTINUOUS
10
2.54577
20
0.811241
11
2.54518
21
0.814933
0
LINE
8
BLACK
6
CONTINUOUS
10
2.54518
20
0.814933
11
2.54405
21
0.817158
0
LINE
8
BLACK
6
CONTINUOUS
10
2.54405
20
0.817158
11
2.54292
21
0.819384
0
LINE
8
BLACK
6
CONTINUOUS
10
2.54292
20
0.819384
11
2.53938
21
0.822915
0
LINE
8
BLACK
6
CONTINUOUS
10
2.53938
20
0.822915
11
2.5364
21
0.824437
0
LINE
8
BLACK
6
CONTINUOUS
10
2.5364
20
0.824437
11
2.53493
21
0.825183
0
LINE
8
BLACK
6
CONTINUOUS
10
2.53493
20
0.825183
11
2.53124
21
0.825768
0
LINE
8
BLACK
6
CONTINUOUS
10
2.53124
20
0.825768
11
2.53124
21
0.825768
0
LINE
8
BLACK
6
CONTINUOUS
10
2.53124
20
0.825768
11
2.46876
21
0.825768
0
LINE
8
BLACK
6
CONTINUOUS
10
2.46876
20
0.825768
11
2.46507
21
0.825183
0
LINE
8
BLACK
6
CONTINUOUS
10
2.46507
20
0.825183
11
2.46062
21
0.822915
0
LINE
8
BLACK
6
CONTINUOUS
10
2.46062
20
0.822915
11
2.45708
21
0.819384
0
LINE
8
BLACK
6
CONTINUOUS
10
2.45708
20
0.819384
11
2.45482
21
0.814933
0
LINE
8
BLACK
6
CONTINUOUS
10
2.45482
20
0.814933
11
2.45472
21
0.814628
0
LINE
8
BLACK
6
CONTINUOUS
10
2.45472
20
0.814628
11
2.45314
21
0.81232
0
LINE
8
BLACK
6
CONTINUOUS
10
2.45314
20
0.81232
11
2.45057
21
0.811232
0
LINE
8
BLACK
6
CONTINUOUS
10
2.45057
20
0.811232
11
2.44781
21
0.811709
0
LINE
8
BLACK
6
CONTINUOUS
10
2.44781
20
0.811709
11
2.44575
21
0.813599
0
LINE
8
BLACK
6
CONTINUOUS
10
2.44575
20
0.813599
11
2.44528
21
0.814628
0
LINE
8
BLACK
6
CONTINUOUS
10
2.44528
20
0.814628
11
2.44518
21
0.814933
0
LINE
8
BLACK
6
CONTINUOUS
10
2.44518
20
0.814933
11
2.44292
21
0.819384
0
LINE
8
BLACK
6
CONTINUOUS
10
2.44292
20
0.819384
11
2.43938
21
0.822915
0
LINE
8
BLACK
6
CONTINUOUS
10
2.43938
20
0.822915
11
2.4364
21
0.824437
0
LINE
8
BLACK
6
CONTINUOUS
10
2.4364
20
0.824437
11
2.43493
21
0.825183
0
LINE
8
BLACK
6
CONTINUOUS
10
2.43493
20
0.825183
11
2.43124
21
0.825768
0
LINE
8
BLACK
6
CONTINUOUS
10
2.43124
20
0.825768
11
2.43124
21
0.825768
0
LINE
8
BLACK
6
CONTINUOUS
10
2.43124
20
0.825768
11
2.36876
21
0.825768
0
LINE
8
BLACK
6
CONTINUOUS
10
2.36876
20
0.825768
11
2.36507
21
0.825183
0
LINE
8
BLACK
6
CONTINUOUS
10
2.36507
20
0.825183
11
2.36062
21
0.822915
0
LINE
8
BLACK
6
CONTINUOUS
10
2.36062
20
0.822915
11
2.35708
21
0.819384
0
LINE
8
BLACK
6
CONTINUOUS
10
2.35708
20
0.819384
11
2.35482
21
0.814933
0
LINE
8
BLACK
6
CONTINUOUS
10
2.35482
20
0.814933
11
2.35482
21
0.814933
0
LINE
8
BLACK
6
CONTINUOUS
10
2.35482
20
0.814933
11
2.35423
21
0.811241
0
LINE
8
BLACK
6
CONTINUOUS
10
2.35423
20
0.811241
11
2.35423
21
0.811241
0
LINE
8
BLACK
6
CONTINUOUS
10
2.35423
20
0.811241
11
2.35423
21
0.748759
0
LINE
8
BLACK
6
CONTINUOUS
10
2.35423
20
0.748759
11
2.35482
21
0.745067
0
LINE
8
BLACK
6
CONTINUOUS
10
0.314817
20
0.885067
11
0.317085
21
0.880616
0
LINE
8
BLACK
6
CONTINUOUS
10
0.317085
20
0.880616
11
0.320616
21
0.877085
0
LINE
8
BLACK
6
CONTINUOUS
10
0.320616
20
0.877085
11
0.322138
21
0.87631
0
LINE
8
BLACK
6
CONTINUOUS
10
0.322138
20
0.87631
11
0.325067
21
0.874817
0
LINE
8
BLACK
6
CONTINUOUS
10
0.325067
20
0.874817
11
0.328759
21
0.874232
0
LINE
8
BLACK
6
CONTINUOUS
10
0.328759
20
0.874232
11
0.391241
21
0.874232
0
LINE
8
BLACK
6
CONTINUOUS
10
0.391241
20
0.874232
11
0.394933
21
0.874817
0
LINE
8
BLACK
6
CONTINUOUS
10
0.394933
20
0.874817
11
0.399384
21
0.877085
0
LINE
8
BLACK
6
CONTINUOUS
10
0.399384
20
0.877085
11
0.402915
21
0.880616
0
LINE
8
BLACK
6
CONTINUOUS
10
0.402915
20
0.880616
11
0.405183
21
0.885067
0
LINE
8
BLACK
6
CONTINUOUS
10
0.405183
20
0.885067
11
0.405183
21
0.885067
0
LINE
8
BLACK
6
CONTINUOUS
10
0.405183
20
0.885067
11
0.405282
21
0.885372
0
LINE
8
BLACK
6
CONTINUOUS
10
0.405282
20
0.885372
11
0.40686
21
0.887679
0
LINE
8
BLACK
6
CONTINUOUS
10
0.40686
20
0.887679
11
0.409434
21
0.888768
0
LINE
8
BLACK
6
CONTINUOUS
10
0.409434
20
0.888768
11
0.412188
21
0.888291
0
LINE
8
BLACK
6
CONTINUOUS
10
0.412188
20
0.888291
11
0.414248
21
0.886401
0
LINE
8
BLACK
6
CONTINUOUS
10
0.414248
20
0.886401
11
0.414718
21
0.885372
0
LINE
8
BLACK
6
CONTINUOUS
10
0.414718
20
0.885372
11
0.414817
21
0.885067
0
LINE
8
BLACK
6
CONTINUOUS
10
0.414817
20
0.885067
11
0.417085
21
0.880616
0
LINE
8
BLACK
6
CONTINUOUS
10
0.417085
20
0.880616
11
0.420616
21
0.877085
0
LINE
8
BLACK
6
CONTINUOUS
10
0.420616
20
0.877085
11
0.422138
21
0.87631
0
LINE
8
BLACK
6
CONTINUOUS
10
0.422138
20
0.87631
11
0.425067
21
0.874817
0
LINE
8
BLACK
6
CONTINUOUS
10
0.425067
20
0.874817
11
0.428759
21
0.874232
0
LINE
8
BLACK
6
CONTINUOUS
10
0.428759
20
0.874232
11
0.491241
21
0.874232
0
LINE
8
BLACK
6
CONTINUOUS
10
0.491241
20
0.874232
11
0.494933
21
0.874817
0
LINE
8
BLACK
6
CONTINUOUS
10
0.494933
20
0.874817
11
0.499384
21
0.877085
0
LINE
8
BLACK
6
CONTINUOUS
10
0.499384
20
0.877085
11
0.502915
21
0.880616
0
LINE
8
BLACK
6
CONTINUOUS
10
0.502915
20
0.880616
11
0.505183
21
0.885067
0
LINE
8
BLACK
6
CONTINUOUS
10
0.505183
20
0.885067
11
0.505768
21
0.888759
0
LINE
8
BLACK
6
CONTINUOUS
10
0.505768
20
0.888759
11
0.505768
21
0.951241
0
LINE
8
BLACK
6
CONTINUOUS
10
0.505768
20
0.951241
11
0.505183
21
0.954933
0
LINE
8
BLACK
6
CONTINUOUS
10
0.505183
20
0.954933
11
0.503362
21
0.958508
0
LINE
8
BLACK
6
CONTINUOUS
10
0.503362
20
0.958508
11
0.502915
21
0.959384
0
LINE
8
BLACK
6
CONTINUOUS
10
0.502915
20
0.959384
11
0.499384
21
0.962915
0
LINE
8
BLACK
6
CONTINUOUS
10
0.499384
20
0.962915
11
0.495693
21
0.964796
0
LINE
8
BLACK
6
CONTINUOUS
10
0.495693
20
0.964796
11
0.494933
21
0.965183
0
LINE
8
BLACK
6
CONTINUOUS
10
0.494933
20
0.965183
11
0.491241
21
0.965768
0
LINE
8
BLACK
6
CONTINUOUS
10
0.491241
20
0.965768
11
0.491241
21
0.965768
0
LINE
8
BLACK
6
CONTINUOUS
10
0.491241
20
0.965768
11
0.428759
21
0.965768
0
LINE
8
BLACK
6
CONTINUOUS
10
0.428759
20
0.965768
11
0.425067
21
0.965183
0
LINE
8
BLACK
6
CONTINUOUS
10
0.425067
20
0.965183
11
0.420616
21
0.962915
0
LINE
8
BLACK
6
CONTINUOUS
10
0.420616
20
0.962915
11
0.417085
21
0.959384
0
LINE
8
BLACK
6
CONTINUOUS
10
0.417085
20
0.959384
11
0.414817
21
0.954933
0
LINE
8
BLACK
6
CONTINUOUS
10
0.414817
20
0.954933
11
0.414718
21
0.954628
0
LINE
8
BLACK
6
CONTINUOUS
10
0.414718
20
0.954628
11
0.41314
21
0.95232
0
LINE
8
BLACK
6
CONTINUOUS
10
0.41314
20
0.95232
11
0.410565
21
0.951232
0
LINE
8
BLACK
6
CONTINUOUS
10
0.410565
20
0.951232
11
0.407811
21
0.951709
0
LINE
8
BLACK
6
CONTINUOUS
10
0.407811
20
0.951709
11
0.405752
21
0.953599
0
LINE
8
BLACK
6
CONTINUOUS
10
0.405752
20
0.953599
11
0.405282
21
0.954628
0
LINE
8
BLACK
6
CONTINUOUS
10
0.405282
20
0.954628
11
0.405183
21
0.954933
0
LINE
8
BLACK
6
CONTINUOUS
10
0.405183
20
0.954933
11
0.402915
21
0.959384
0
LINE
8
BLACK
6
CONTINUOUS
10
0.402915
20
0.959384
11
0.399384
21
0.962915
0
LINE
8
BLACK
6
CONTINUOUS
10
0.399384
20
0.962915
11
0.395693
21
0.964796
0
LINE
8
BLACK
6
CONTINUOUS
10
0.395693
20
0.964796
11
0.394933
21
0.965183
0
LINE
8
BLACK
6
CONTINUOUS
10
0.394933
20
0.965183
11
0.391241
21
0.965768
0
LINE
8
BLACK
6
CONTINUOUS
10
0.391241
20
0.965768
11
0.391241
21
0.965768
0
LINE
8
BLACK
6
CONTINUOUS
10
0.391241
20
0.965768
11
0.328759
21
0.965768
0
LINE
8
BLACK
6
CONTINUOUS
10
0.328759
20
0.965768
11
0.325067
21
0.965183
0
LINE
8
BLACK
6
CONTINUOUS
10
0.325067
20
0.965183
11
0.320616
21
0.962915
0
LINE
8
BLACK
6
CONTINUOUS
10
0.320616
20
0.962915
11
0.317085
21
0.959384
0
LINE
8
BLACK
6
CONTINUOUS
10
0.317085
20
0.959384
11
0.315388
21
0.956054
0
LINE
8
BLACK
6
CONTINUOUS
10
0.315388
20
0.956054
11
0.314817
21
0.954933
0
LINE
8
BLACK
6
CONTINUOUS
10
0.314817
20
0.954933
11
0.314272
21
0.951492
0
LINE
8
BLACK
6
CONTINUOUS
10
0.314272
20
0.951492
11
0.314232
21
0.951241
0
LINE
8
BLACK
6
CONTINUOUS
10
0.314232
20
0.951241
11
0.314232
21
0.888759
0
LINE
8
BLACK
6
CONTINUOUS
10
0.314232
20
0.888759
11
0.314817
21
0.885067
0
LINE
8
BLACK
6
CONTINUOUS
10
0.892943
20
1.17092
11
0.892943
21
1.17092
0
LINE
8
BLACK
6
CONTINUOUS
10
0.892943
20
1.17092
11
0.892943
21
1.17092
0
LINE
8
BLACK
6
CONTINUOUS
10
0.892943
20
1.17092
11
0.886239
21
1.16857
0
LINE
8
BLACK
6
CONTINUOUS
10
0.886239
20
1.16857
11
0.886239
21
1.16857
0
LINE
8
BLACK
6
CONTINUOUS
10
0.886239
20
1.16857
11
0.880226
21
1.1648
0
LINE
8
BLACK
6
CONTINUOUS
10
0.880226
20
1.1648
11
0.880226
21
1.1648
0
LINE
8
BLACK
6
CONTINUOUS
10
0.880226
20
1.1648
11
0.875204
21
1.15977
0
LINE
8
BLACK
6
CONTINUOUS
10
0.875204
20
1.15977
11
0.875204
21
1.15977
0
LINE
8
BLACK
6
CONTINUOUS
10
0.875204
20
1.15977
11
0.871426
21
1.15376
0
LINE
8
BLACK
6
CONTINUOUS
10
0.871426
20
1.15376
11
0.871426
21
1.15376
0
LINE
8
BLACK
6
CONTINUOUS
10
0.871426
20
1.15376
11
0.870071
21
1.14989
0
LINE
8
BLACK
6
CONTINUOUS
10
0.870071
20
1.14989
11
0.86908
21
1.14706
0
LINE
8
BLACK
6
CONTINUOUS
10
0.86908
20
1.14706
11
0.868285
21
1.14
0
LINE
8
BLACK
6
CONTINUOUS
10
0.868285
20
1.14
11
0.86908
21
1.13294
0
LINE
8
BLACK
6
CONTINUOUS
10
0.86908
20
1.13294
11
0.87083
21
1.12794
0
LINE
8
BLACK
6
CONTINUOUS
10
0.87083
20
1.12794
11
0.871426
21
1.12624
0
LINE
8
BLACK
6
CONTINUOUS
10
0.871426
20
1.12624
11
0.871426
21
1.12624
0
LINE
8
BLACK
6
CONTINUOUS
10
0.871426
20
1.12624
11
0.875204
21
1.12023
0
LINE
8
BLACK
6
CONTINUOUS
10
0.875204
20
1.12023
11
0.875204
21
1.12023
0
LINE
8
BLACK
6
CONTINUOUS
10
0.875204
20
1.12023
11
0.880226
21
1.1152
0
LINE
8
BLACK
6
CONTINUOUS
10
0.880226
20
1.1152
11
0.880226
21
1.1152
0
LINE
8
BLACK
6
CONTINUOUS
10
0.880226
20
1.1152
11
0.886239
21
1.11143
0
LINE
8
BLACK
6
CONTINUOUS
10
0.886239
20
1.11143
11
0.886239
21
1.11143
0
LINE
8
BLACK
6
CONTINUOUS
10
0.886239
20
1.11143
11
0.886239
21
1.11143
0
LINE
8
BLACK
6
CONTINUOUS
10
0.886239
20
1.11143
11
0.892943
21
1.10908
0
LINE
8
BLACK
6
CONTINUOUS
10
0.892943
20
1.10908
11
0.892943
21
1.10908
0
LINE
8
BLACK
6
CONTINUOUS
10
0.892943
20
1.10908
11
0.892943
21
1.10908
0
LINE
8
BLACK
6
CONTINUOUS
10
0.892943
20
1.10908
11
0.89391
21
1.10897
0
LINE
8
BLACK
6
CONTINUOUS
10
0.89391
20
1.10897
11
0.896337
21
1.1087
0
LINE
8
BLACK
6
CONTINUOUS
10
0.896337
20
1.1087
11
0.898914
21
1.10761
0
LINE
8
BLACK
6
CONTINUOUS
10
0.898914
20
1.10761
11
0.89929
21
1.10728
0
LINE
8
BLACK
6
CONTINUOUS
10
0.89929
20
1.10728
11
0.931502
21
1.07506
0
LINE
8
BLACK
6
CONTINUOUS
10
0.931502
20
1.07506
11
0.932842
21
1.07261
0
LINE
8
BLACK
6
CONTINUOUS
10
0.932842
20
1.07261
11
0.932955
21
1.07156
0
LINE
8
BLACK
6
CONTINUOUS
10
0.932955
20
1.07156
11
0.932955
21
1.01421
0
LINE
8
BLACK
6
CONTINUOUS
10
0.932955
20
1.01421
11
0.932168
21
1.01153
0
LINE
8
BLACK
6
CONTINUOUS
10
0.932168
20
1.01153
11
0.931873
21
1.01111
0
LINE
8
BLACK
6
CONTINUOUS
10
0.931873
20
1.01111
11
0.931801
21
1.01102
0
LINE
8
BLACK
6
CONTINUOUS
10
0.931801
20
1.01102
11
0.928023
21
1.00501
0
LINE
8
BLACK
6
CONTINUOUS
10
0.928023
20
1.00501
11
0.928023
21
1.00501
0
LINE
8
BLACK
6
CONTINUOUS
10
0.928023
20
1.00501
11
0.928023
21
1.00501
0
LINE
8
BLACK
6
CONTINUOUS
10
0.928023
20
1.00501
11
0.925677
21
0.998308
0
LINE
8
BLACK
6
CONTINUOUS
10
0.925677
20
0.998308
11
0.924882
21
0.991251
0
LINE
8
BLACK
6
CONTINUOUS
10
0.924882
20
0.991251
11
0.925677
21
0.984193
0
LINE
8
BLACK
6
CONTINUOUS
10
0.925677
20
0.984193
11
0.925677
21
0.984193
0
LINE
8
BLACK
6
CONTINUOUS
10
0.925677
20
0.984193
11
0.928023
21
0.97749
0
LINE
8
BLACK
6
CONTINUOUS
10
0.928023
20
0.97749
11
0.928023
21
0.97749
0
LINE
8
BLACK
6
CONTINUOUS
10
0.928023
20
0.97749
11
0.931801
21
0.971476
0
LINE
8
BLACK
6
CONTINUOUS
10
0.931801
20
0.971476
11
0.931801
21
0.971476
0
LINE
8
BLACK
6
CONTINUOUS
10
0.931801
20
0.971476
11
0.936823
21
0.966455
0
LINE
8
BLACK
6
CONTINUOUS
10
0.936823
20
0.966455
11
0.936823
21
0.966455
0
LINE
8
BLACK
6
CONTINUOUS
10
0.936823
20
0.966455
11
0.942836
21
0.962676
0
LINE
8
BLACK
6
CONTINUOUS
10
0.942836
20
0.962676
11
0.942836
21
0.962676
0
LINE
8
BLACK
6
CONTINUOUS
10
0.942836
20
0.962676
11
0.942836
21
0.962676
0
LINE
8
BLACK
6
CONTINUOUS
10
0.942836
20
0.962676
11
0.94954
21
0.960331
0
LINE
8
BLACK
6
CONTINUOUS
10
0.94954
20
0.960331
11
0.956597
21
0.959535
0
LINE
8
BLACK
6
CONTINUOUS
10
0.956597
20
0.959535
11
0.963654
21
0.960331
0
LINE
8
BLACK
6
CONTINUOUS
10
0.963654
20
0.960331
11
0.970358
21
0.962676
0
LINE
8
BLACK
6
CONTINUOUS
10
0.970358
20
0.962676
11
0.976371
21
0.966455
0
LINE
8
BLACK
6
CONTINUOUS
10
0.976371
20
0.966455
11
0.981393
21
0.971476
0
LINE
8
BLACK
6
CONTINUOUS
10
0.981393
20
0.971476
11
0.985171
21
0.97749
0
LINE
8
BLACK
6
CONTINUOUS
10
0.985171
20
0.97749
11
0.987517
21
0.984193
0
LINE
8
BLACK
6
CONTINUOUS
10
0.987517
20
0.984193
11
0.988312
21
0.991251
0
LINE
8
BLACK
6
CONTINUOUS
10
0.988312
20
0.991251
11
0.987517
21
0.998308
0
LINE
8
BLACK
6
CONTINUOUS
10
0.987517
20
0.998308
11
0.985171
21
1.00501
0
LINE
8
BLACK
6
CONTINUOUS
10
0.985171
20
1.00501
11
0.985171
21
1.00501
0
LINE
8
BLACK
6
CONTINUOUS
10
0.985171
20
1.00501
11
0.985171
21
1.00501
0
LINE
8
BLACK
6
CONTINUOUS
10
0.985171
20
1.00501
11
0.981393
21
1.01102
0
LINE
8
BLACK
6
CONTINUOUS
10
0.981393
20
1.01102
11
0.981393
21
1.01102
0
LINE
8
BLACK
6
CONTINUOUS
10
0.981393
20
1.01102
11
0.981393
21
1.01102
0
LINE
8
BLACK
6
CONTINUOUS
10
0.981393
20
1.01102
11
0.981393
21
1.01102
0
LINE
8
BLACK
6
CONTINUOUS
10
0.981393
20
1.01102
11
0.981321
21
1.01111
0
LINE
8
BLACK
6
CONTINUOUS
10
0.981321
20
1.01111
11
0.981293
21
1.01118
0
LINE
8
BLACK
6
CONTINUOUS
10
0.981293
20
1.01118
11
0.981245
21
1.01126
0
LINE
8
BLACK
6
CONTINUOUS
10
0.981245
20
1.01126
11
0.981258
21
1.01127
0
LINE
8
BLACK
6
CONTINUOUS
10
0.981258
20
1.01127
11
0.980264
21
1.0137
0
LINE
8
BLACK
6
CONTINUOUS
10
0.980264
20
1.0137
11
0.980239
21
1.01421
0
LINE
8
BLACK
6
CONTINUOUS
10
0.980239
20
1.01421
11
0.980239
21
1.08169
0
LINE
8
BLACK
6
CONTINUOUS
10
0.980239
20
1.08169
11
0.98026
21
1.08201
0
LINE
8
BLACK
6
CONTINUOUS
10
0.98026
20
1.08201
11
0.980443
21
1.0834
0
LINE
8
BLACK
6
CONTINUOUS
10
0.980443
20
1.0834
11
0.980443
21
1.0834
0
LINE
8
BLACK
6
CONTINUOUS
10
0.980443
20
1.0834
11
0.97963
21
1.08957
0
LINE
8
BLACK
6
CONTINUOUS
10
0.97963
20
1.08957
11
0.97894
21
1.09124
0
LINE
8
BLACK
6
CONTINUOUS
10
0.97894
20
1.09124
11
0.977248
21
1.09533
0
LINE
8
BLACK
6
CONTINUOUS
10
0.977248
20
1.09533
11
0.97441
21
1.09902
0
LINE
8
BLACK
6
CONTINUOUS
10
0.97441
20
1.09902
11
0.973458
21
1.10026
0
LINE
8
BLACK
6
CONTINUOUS
10
0.973458
20
1.10026
11
0.973458
21
1.10026
0
LINE
8
BLACK
6
CONTINUOUS
10
0.973458
20
1.10026
11
0.972347
21
1.10112
0
LINE
8
BLACK
6
CONTINUOUS
10
0.972347
20
1.10112
11
0.972103
21
1.10133
0
LINE
8
BLACK
6
CONTINUOUS
10
0.972103
20
1.10133
11
0.965544
21
1.10789
0
LINE
8
BLACK
6
CONTINUOUS
10
0.965544
20
1.10789
11
0.964205
21
1.11034
0
LINE
8
BLACK
6
CONTINUOUS
10
0.964205
20
1.11034
11
0.964404
21
1.11313
0
LINE
8
BLACK
6
CONTINUOUS
10
0.964404
20
1.11313
11
0.966079
21
1.11537
0
LINE
8
BLACK
6
CONTINUOUS
10
0.966079
20
1.11537
11
0.968698
21
1.11635
0
LINE
8
BLACK
6
CONTINUOUS
10
0.968698
20
1.11635
11
0.969052
21
1.11636
0
LINE
8
BLACK
6
CONTINUOUS
10
0.969052
20
1.11636
11
1.06702
21
1.11636
0
LINE
8
BLACK
6
CONTINUOUS
10
1.06702
20
1.11636
11
1.0697
21
1.11557
0
LINE
8
BLACK
6
CONTINUOUS
10
1.0697
20
1.11557
11
1.07052
21
1.11491
0
LINE
8
BLACK
6
CONTINUOUS
10
1.07052
20
1.11491
11
1.07523
21
1.1102
0
LINE
8
BLACK
6
CONTINUOUS
10
1.07523
20
1.1102
11
1.07523
21
1.1102
0
LINE
8
BLACK
6
CONTINUOUS
10
1.07523
20
1.1102
11
1.08124
21
1.10643
0
LINE
8
BLACK
6
CONTINUOUS
10
1.08124
20
1.10643
11
1.08124
21
1.10643
0
LINE
8
BLACK
6
CONTINUOUS
10
1.08124
20
1.10643
11
1.08124
21
1.10643
0
LINE
8
BLACK
6
CONTINUOUS
10
1.08124
20
1.10643
11
1.08794
21
1.10408
0
LINE
8
BLACK
6
CONTINUOUS
10
1.08794
20
1.10408
11
1.095
21
1.10328
0
LINE
8
BLACK
6
CONTINUOUS
10
1.095
20
1.10328
11
1.10206
21
1.10408
0
LINE
8
BLACK
6
CONTINUOUS
10
1.10206
20
1.10408
11
1.10876
21
1.10643
0
LINE
8
BLACK
6
CONTINUOUS
10
1.10876
20
1.10643
11
1.11477
21
1.1102
0
LINE
8
BLACK
6
CONTINUOUS
10
1.11477
20
1.1102
11
1.1198
21
1.11523
0
LINE
8
BLACK
6
CONTINUOUS
10
1.1198
20
1.11523
11
1.12357
21
1.12124
0
LINE
8
BLACK
6
CONTINUOUS
10
1.12357
20
1.12124
11
1.12592
21
1.12794
0
LINE
8
BLACK
6
CONTINUOUS
10
1.12592
20
1.12794
11
1.12672
21
1.135
0
LINE
8
BLACK
6
CONTINUOUS
10
1.12672
20
1.135
11
1.12592
21
1.14206
0
LINE
8
BLACK
6
CONTINUOUS
10
1.12592
20
1.14206
11
1.12357
21
1.14876
0
LINE
8
BLACK
6
CONTINUOUS
10
1.12357
20
1.14876
11
1.12357
21
1.14876
0
LINE
8
BLACK
6
CONTINUOUS
10
1.12357
20
1.14876
11
1.12357
21
1.14876
0
LINE
8
BLACK
6
CONTINUOUS
10
1.12357
20
1.14876
11
1.1198
21
1.15477
0
LINE
8
BLACK
6
CONTINUOUS
10
1.1198
20
1.15477
11
1.1198
21
1.15477
0
LINE
8
BLACK
6
CONTINUOUS
10
1.1198
20
1.15477
11
1.11477
21
1.1598
0
LINE
8
BLACK
6
CONTINUOUS
10
1.11477
20
1.1598
11
1.11477
21
1.1598
0
LINE
8
BLACK
6
CONTINUOUS
10
1.11477
20
1.1598
11
1.10876
21
1.16357
0
LINE
8
BLACK
6
CONTINUOUS
10
1.10876
20
1.16357
11
1.10876
21
1.16357
0
LINE
8
BLACK
6
CONTINUOUS
10
1.10876
20
1.16357
11
1.10777
21
1.16392
0
LINE
8
BLACK
6
CONTINUOUS
10
1.10777
20
1.16392
11
1.10206
21
1.16592
0
LINE
8
BLACK
6
CONTINUOUS
10
1.10206
20
1.16592
11
1.095
21
1.16672
0
LINE
8
BLACK
6
CONTINUOUS
10
1.095
20
1.16672
11
1.08794
21
1.16592
0
LINE
8
BLACK
6
CONTINUOUS
10
1.08794
20
1.16592
11
1.08368
21
1.16443
0
LINE
8
BLACK
6
CONTINUOUS
10
1.08368
20
1.16443
11
1.08223
21
1.16392
0
LINE
8
BLACK
6
CONTINUOUS
10
1.08223
20
1.16392
11
1.08059
21
1.16364
0
LINE
8
BLACK
6
CONTINUOUS
10
1.08059
20
1.16364
11
0.922957
21
1.16364
0
LINE
8
BLACK
6
CONTINUOUS
10
0.922957
20
1.16364
11
0.920275
21
1.16443
0
LINE
8
BLACK
6
CONTINUOUS
10
0.920275
20
1.16443
11
0.919864
21
1.16472
0
LINE
8
BLACK
6
CONTINUOUS
10
0.919864
20
1.16472
11
0.919774
21
1.1648
0
LINE
8
BLACK
6
CONTINUOUS
10
0.919774
20
1.1648
11
0.913761
21
1.16857
0
LINE
8
BLACK
6
CONTINUOUS
10
0.913761
20
1.16857
11
0.913761
21
1.16857
0
LINE
8
BLACK
6
CONTINUOUS
10
0.913761
20
1.16857
11
0.913761
21
1.16857
0
LINE
8
BLACK
6
CONTINUOUS
10
0.913761
20
1.16857
11
0.907057
21
1.17092
0
LINE
8
BLACK
6
CONTINUOUS
10
0.907057
20
1.17092
11
0.9
21
1.17172
0
LINE
8
BLACK
6
CONTINUOUS
10
0.9
20
1.17172
11
0.892943
21
1.17092
0
LINE
8
BLACK
6
CONTINUOUS
10
1.40482
20
1.13507
11
1.40708
21
1.13062
0
LINE
8
BLACK
6
CONTINUOUS
10
1.40708
20
1.13062
11
1.41062
21
1.12708
0
LINE
8
BLACK
6
CONTINUOUS
10
1.41062
20
1.12708
11
1.41196
21
1.1264
0
LINE
8
BLACK
6
CONTINUOUS
10
1.41196
20
1.1264
11
1.41507
21
1.12482
0
LINE
8
BLACK
6
CONTINUOUS
10
1.41507
20
1.12482
11
1.41876
21
1.12423
0
LINE
8
BLACK
6
CONTINUOUS
10
1.41876
20
1.12423
11
1.48124
21
1.12423
0
LINE
8
BLACK
6
CONTINUOUS
10
1.48124
20
1.12423
11
1.48493
21
1.12482
0
LINE
8
BLACK
6
CONTINUOUS
10
1.48493
20
1.12482
11
1.48938
21
1.12708
0
LINE
8
BLACK
6
CONTINUOUS
10
1.48938
20
1.12708
11
1.49292
21
1.13062
0
LINE
8
BLACK
6
CONTINUOUS
10
1.49292
20
1.13062
11
1.49518
21
1.13507
0
LINE
8
BLACK
6
CONTINUOUS
10
1.49518
20
1.13507
11
1.49518
21
1.13507
0
LINE
8
BLACK
6
CONTINUOUS
10
1.49518
20
1.13507
11
1.49528
21
1.13537
0
LINE
8
BLACK
6
CONTINUOUS
10
1.49528
20
1.13537
11
1.49686
21
1.13768
0
LINE
8
BLACK
6
CONTINUOUS
10
1.49686
20
1.13768
11
1.49943
21
1.13877
0
LINE
8
BLACK
6
CONTINUOUS
10
1.49943
20
1.13877
11
1.50219
21
1.13829
0
LINE
8
BLACK
6
CONTINUOUS
10
1.50219
20
1.13829
11
1.50425
21
1.1364
0
LINE
8
BLACK
6
CONTINUOUS
10
1.50425
20
1.1364
11
1.50472
21
1.13537
0
LINE
8
BLACK
6
CONTINUOUS
10
1.50472
20
1.13537
11
1.50482
21
1.13507
0
LINE
8
BLACK
6
CONTINUOUS
10
1.50482
20
1.13507
11
1.50708
21
1.13062
0
LINE
8
BLACK
6
CONTINUOUS
10
1.50708
20
1.13062
11
1.51062
21
1.12708
0
LINE
8
BLACK
6
CONTINUOUS
10
1.51062
20
1.12708
11
1.51196
21
1.1264
0
LINE
8
BLACK
6
CONTINUOUS
10
1.51196
20
1.1264
11
1.51507
21
1.12482
0
LINE
8
BLACK
6
CONTINUOUS
10
1.51507
20
1.12482
11
1.51876
21
1.12423
0
LINE
8
BLACK
6
CONTINUOUS
10
1.51876
20
1.12423
11
1.58124
21
1.12423
0
LINE
8
BLACK
6
CONTINUOUS
10
1.58124
20
1.12423
11
1.58493
21
1.12482
0
LINE
8
BLACK
6
CONTINUOUS
10
1.58493
20
1.12482
11
1.58938
21
1.12708
0
LINE
8
BLACK
6
CONTINUOUS
10
1.58938
20
1.12708
11
1.59292
21
1.13062
0
LINE
8
BLACK
6
CONTINUOUS
10
1.59292
20
1.13062
11
1.59518
21
1.13507
0
LINE
8
BLACK
6
CONTINUOUS
10
1.59518
20
1.13507
11
1.59577
21
1.13876
0
LINE
8
BLACK
6
CONTINUOUS
10
1.59577
20
1.13876
11
1.59577
21
1.14376
0
LINE
8
BLACK
6
CONTINUOUS
10
1.59577
20
1.14376
11
1.59577
21
1.20124
0
LINE
8
BLACK
6
CONTINUOUS
10
1.59577
20
1.20124
11
1.59518
21
1.20493
0
LINE
8
BLACK
6
CONTINUOUS
10
1.59518
20
1.20493
11
1.59332
21
1.2086
0
LINE
8
BLACK
6
CONTINUOUS
10
1.59332
20
1.2086
11
1.59292
21
1.20938
0
LINE
8
BLACK
6
CONTINUOUS
10
1.59292
20
1.20938
11
1.58938
21
1.21292
0
LINE
8
BLACK
6
CONTINUOUS
10
1.58938
20
1.21292
11
1.58493
21
1.21518
0
LINE
8
BLACK
6
CONTINUOUS
10
1.58493
20
1.21518
11
1.58463
21
1.21528
0
LINE
8
BLACK
6
CONTINUOUS
10
1.58463
20
1.21528
11
1.58232
21
1.21686
0
LINE
8
BLACK
6
CONTINUOUS
10
1.58232
20
1.21686
11
1.58123
21
1.21943
0
LINE
8
BLACK
6
CONTINUOUS
10
1.58123
20
1.21943
11
1.58171
21
1.22219
0
LINE
8
BLACK
6
CONTINUOUS
10
1.58171
20
1.22219
11
1.5836
21
1.22425
0
LINE
8
BLACK
6
CONTINUOUS
10
1.5836
20
1.22425
11
1.58463
21
1.22472
0
LINE
8
BLACK
6
CONTINUOUS
10
1.58463
20
1.22472
11
1.58493
21
1.22482
0
LINE
8
BLACK
6
CONTINUOUS
10
1.58493
20
1.22482
11
1.58493
21
1.22482
0
LINE
8
BLACK
6
CONTINUOUS
10
1.58493
20
1.22482
11
1.58938
21
1.22708
0
LINE
8
BLACK
6
CONTINUOUS
10
1.58938
20
1.22708
11
1.59292
21
1.23062
0
LINE
8
BLACK
6
CONTINUOUS
10
1.59292
20
1.23062
11
1.59518
21
1.23507
0
LINE
8
BLACK
6
CONTINUOUS
10
1.59518
20
1.23507
11
1.59577
21
1.23876
0
LINE
8
BLACK
6
CONTINUOUS
10
1.59577
20
1.23876
11
1.59577
21
1.30124
0
LINE
8
BLACK
6
CONTINUOUS
10
1.59577
20
1.30124
11
1.59518
21
1.30493
0
LINE
8
BLACK
6
CONTINUOUS
10
1.59518
20
1.30493
11
1.59308
21
1.30906
0
LINE
8
BLACK
6
CONTINUOUS
10
1.59308
20
1.30906
11
1.59292
21
1.30938
0
LINE
8
BLACK
6
CONTINUOUS
10
1.59292
20
1.30938
11
1.58938
21
1.31292
0
LINE
8
BLACK
6
CONTINUOUS
10
1.58938
20
1.31292
11
1.58585
21
1.31472
0
LINE
8
BLACK
6
CONTINUOUS
10
1.58585
20
1.31472
11
1.58493
21
1.31518
0
LINE
8
BLACK
6
CONTINUOUS
10
1.58493
20
1.31518
11
1.58124
21
1.31577
0
LINE
8
BLACK
6
CONTINUOUS
10
1.58124
20
1.31577
11
1.58124
21
1.31577
0
LINE
8
BLACK
6
CONTINUOUS
10
1.58124
20
1.31577
11
1.51876
21
1.31577
0
LINE
8
BLACK
6
CONTINUOUS
10
1.51876
20
1.31577
11
1.51507
21
1.31518
0
LINE
8
BLACK
6
CONTINUOUS
10
1.51507
20
1.31518
11
1.51062
21
1.31292
0
LINE
8
BLACK
6
CONTINUOUS
10
1.51062
20
1.31292
11
1.50708
21
1.30938
0
LINE
8
BLACK
6
CONTINUOUS
10
1.50708
20
1.30938
11
1.50482
21
1.30493
0
LINE
8
BLACK
6
CONTINUOUS
10
1.50482
20
1.30493
11
1.50472
21
1.30463
0
LINE
8
BLACK
6
CONTINUOUS
10
1.50472
20
1.30463
11
1.50314
21
1.30232
0
LINE
8
BLACK
6
CONTINUOUS
10
1.50314
20
1.30232
11
1.50057
21
1.30123
0
LINE
8
BLACK
6
CONTINUOUS
10
1.50057
20
1.30123
11
1.49781
21
1.30171
0
LINE
8
BLACK
6
CONTINUOUS
10
1.49781
20
1.30171
11
1.49575
21
1.3036
0
LINE
8
BLACK
6
CONTINUOUS
10
1.49575
20
1.3036
11
1.49528
21
1.30463
0
LINE
8
BLACK
6
CONTINUOUS
10
1.49528
20
1.30463
11
1.49518
21
1.30493
0
LINE
8
BLACK
6
CONTINUOUS
10
1.49518
20
1.30493
11
1.49292
21
1.30938
0
LINE
8
BLACK
6
CONTINUOUS
10
1.49292
20
1.30938
11
1.48938
21
1.31292
0
LINE
8
BLACK
6
CONTINUOUS
10
1.48938
20
1.31292
11
1.48585
21
1.31472
0
LINE
8
BLACK
6
CONTINUOUS
10
1.48585
20
1.31472
11
1.48493
21
1.31518
0
LINE
8
BLACK
6
CONTINUOUS
10
1.48493
20
1.31518
11
1.48124
21
1.31577
0
LINE
8
BLACK
6
CONTINUOUS
10
1.48124
20
1.31577
11
1.48124
21
1.31577
0
LINE
8
BLACK
6
CONTINUOUS
10
1.48124
20
1.31577
11
1.41876
21
1.31577
0
LINE
8
BLACK
6
CONTINUOUS
10
1.41876
20
1.31577
11
1.41507
21
1.31518
0
LINE
8
BLACK
6
CONTINUOUS
10
1.41507
20
1.31518
11
1.41062
21
1.31292
0
LINE
8
BLACK
6
CONTINUOUS
10
1.41062
20
1.31292
11
1.40708
21
1.30938
0
LINE
8
BLACK
6
CONTINUOUS
10
1.40708
20
1.30938
11
1.40499
21
1.30528
0
LINE
8
BLACK
6
CONTINUOUS
10
1.40499
20
1.30528
11
1.40482
21
1.30493
0
LINE
8
BLACK
6
CONTINUOUS
10
1.40482
20
1.30493
11
1.40423
21
1.30124
0
LINE
8
BLACK
6
CONTINUOUS
10
1.40423
20
1.30124
11
1.40423
21
1.30124
0
LINE
8
BLACK
6
CONTINUOUS
10
1.40423
20
1.30124
11
1.40423
21
1.23876
0
LINE
8
BLACK
6
CONTINUOUS
10
1.40423
20
1.23876
11
1.40482
21
1.23507
0
LINE
8
BLACK
6
CONTINUOUS
10
1.40482
20
1.23507
11
1.40708
21
1.23062
0
LINE
8
BLACK
6
CONTINUOUS
10
1.40708
20
1.23062
11
1.41062
21
1.22708
0
LINE
8
BLACK
6
CONTINUOUS
10
1.41062
20
1.22708
11
1.41288
21
1.22593
0
LINE
8
BLACK
6
CONTINUOUS
10
1.41288
20
1.22593
11
1.41507
21
1.22482
0
LINE
8
BLACK
6
CONTINUOUS
10
1.41507
20
1.22482
11
1.41507
21
1.22482
0
LINE
8
BLACK
6
CONTINUOUS
10
1.41507
20
1.22482
11
1.41537
21
1.22472
0
LINE
8
BLACK
6
CONTINUOUS
10
1.41537
20
1.22472
11
1.41768
21
1.22314
0
LINE
8
BLACK
6
CONTINUOUS
10
1.41768
20
1.22314
11
1.41877
21
1.22057
0
LINE
8
BLACK
6
CONTINUOUS
10
1.41877
20
1.22057
11
1.41829
21
1.21781
0
LINE
8
BLACK
6
CONTINUOUS
10
1.41829
20
1.21781
11
1.4164
21
1.21575
0
LINE
8
BLACK
6
CONTINUOUS
10
1.4164
20
1.21575
11
1.41537
21
1.21528
0
LINE
8
BLACK
6
CONTINUOUS
10
1.41537
20
1.21528
11
1.41507
21
1.21518
0
LINE
8
BLACK
6
CONTINUOUS
10
1.41507
20
1.21518
11
1.41062
21
1.21292
0
LINE
8
BLACK
6
CONTINUOUS
10
1.41062
20
1.21292
11
1.40708
21
1.20938
0
LINE
8
BLACK
6
CONTINUOUS
10
1.40708
20
1.20938
11
1.40499
21
1.20528
0
LINE
8
BLACK
6
CONTINUOUS
10
1.40499
20
1.20528
11
1.40482
21
1.20493
0
LINE
8
BLACK
6
CONTINUOUS
10
1.40482
20
1.20493
11
1.40423
21
1.20124
0
LINE
8
BLACK
6
CONTINUOUS
10
1.40423
20
1.20124
11
1.40423
21
1.20124
0
LINE
8
BLACK
6
CONTINUOUS
10
1.40423
20
1.20124
11
1.40423
21
1.13876
0
LINE
8
BLACK
6
CONTINUOUS
10
1.40423
20
1.13876
11
1.40482
21
1.13507
0
LINE
8
BLACK
6
CONTINUOUS
10
1.61482
20
1.14007
11
1.61708
21
1.13562
0
LINE
8
BLACK
6
CONTINUOUS
10
1.61708
20
1.13562
11
1.62062
21
1.13208
0
LINE
8
BLACK
6
CONTINUOUS
10
1.62062
20
1.13208
11
1.62214
21
1.13131
0
LINE
8
BLACK
6
CONTINUOUS
10
1.62214
20
1.13131
11
1.62507
21
1.12982
0
LINE
8
BLACK
6
CONTINUOUS
10
1.62507
20
1.12982
11
1.62876
21
1.12923
0
LINE
8
BLACK
6
CONTINUOUS
10
1.62876
20
1.12923
11
1.69124
21
1.12923
0
LINE
8
BLACK
6
CONTINUOUS
10
1.69124
20
1.12923
11
1.69493
21
1.12982
0
LINE
8
BLACK
6
CONTINUOUS
10
1.69493
20
1.12982
11
1.69938
21
1.13208
0
LINE
8
BLACK
6
CONTINUOUS
10
1.69938
20
1.13208
11
1.70292
21
1.13562
0
LINE
8
BLACK
6
CONTINUOUS
10
1.70292
20
1.13562
11
1.70518
21
1.14007
0
LINE
8
BLACK
6
CONTINUOUS
10
1.70518
20
1.14007
11
1.70518
21
1.14007
0
LINE
8
BLACK
6
CONTINUOUS
10
1.70518
20
1.14007
11
1.70528
21
1.14037
0
LINE
8
BLACK
6
CONTINUOUS
10
1.70528
20
1.14037
11
1.70686
21
1.14268
0
LINE
8
BLACK
6
CONTINUOUS
10
1.70686
20
1.14268
11
1.70943
21
1.14377
0
LINE
8
BLACK
6
CONTINUOUS
10
1.70943
20
1.14377
11
1.71219
21
1.14329
0
LINE
8
BLACK
6
CONTINUOUS
10
1.71219
20
1.14329
11
1.71425
21
1.1414
0
LINE
8
BLACK
6
CONTINUOUS
10
1.71425
20
1.1414
11
1.71472
21
1.14037
0
LINE
8
BLACK
6
CONTINUOUS
10
1.71472
20
1.14037
11
1.71482
21
1.14007
0
LINE
8
BLACK
6
CONTINUOUS
10
1.71482
20
1.14007
11
1.71708
21
1.13562
0
LINE
8
BLACK
6
CONTINUOUS
10
1.71708
20
1.13562
11
1.72062
21
1.13208
0
LINE
8
BLACK
6
CONTINUOUS
10
1.72062
20
1.13208
11
1.72214
21
1.13131
0
LINE
8
BLACK
6
CONTINUOUS
10
1.72214
20
1.13131
11
1.72507
21
1.12982
0
LINE
8
BLACK
6
CONTINUOUS
10
1.72507
20
1.12982
11
1.72876
21
1.12923
0
LINE
8
BLACK
6
CONTINUOUS
10
1.72876
20
1.12923
11
1.79124
21
1.12923
0
LINE
8
BLACK
6
CONTINUOUS
10
1.79124
20
1.12923
11
1.79493
21
1.12982
0
LINE
8
BLACK
6
CONTINUOUS
10
1.79493
20
1.12982
11
1.79938
21
1.13208
0
LINE
8
BLACK
6
CONTINUOUS
10
1.79938
20
1.13208
11
1.80292
21
1.13562
0
LINE
8
BLACK
6
CONTINUOUS
10
1.80292
20
1.13562
11
1.80518
21
1.14007
0
LINE
8
BLACK
6
CONTINUOUS
10
1.80518
20
1.14007
11
1.80577
21
1.14376
0
LINE
8
BLACK
6
CONTINUOUS
10
1.80577
20
1.14376
11
1.80577
21
1.20624
0
LINE
8
BLACK
6
CONTINUOUS
10
1.80577
20
1.20624
11
1.80518
21
1.20993
0
LINE
8
BLACK
6
CONTINUOUS
10
1.80518
20
1.20993
11
1.80299
21
1.21423
0
LINE
8
BLACK
6
CONTINUOUS
10
1.80299
20
1.21423
11
1.80292
21
1.21438
0
LINE
8
BLACK
6
CONTINUOUS
10
1.80292
20
1.21438
11
1.79938
21
1.21792
0
LINE
8
BLACK
6
CONTINUOUS
10
1.79938
20
1.21792
11
1.7964
21
1.21944
0
LINE
8
BLACK
6
CONTINUOUS
10
1.7964
20
1.21944
11
1.79493
21
1.22018
0
LINE
8
BLACK
6
CONTINUOUS
10
1.79493
20
1.22018
11
1.79124
21
1.22077
0
LINE
8
BLACK
6
CONTINUOUS
10
1.79124
20
1.22077
11
1.79124
21
1.22077
0
LINE
8
BLACK
6
CONTINUOUS
10
1.79124
20
1.22077
11
1.72876
21
1.22077
0
LINE
8
BLACK
6
CONTINUOUS
10
1.72876
20
1.22077
11
1.72507
21
1.22018
0
LINE
8
BLACK
6
CONTINUOUS
10
1.72507
20
1.22018
11
1.72062
21
1.21792
0
LINE
8
BLACK
6
CONTINUOUS
10
1.72062
20
1.21792
11
1.71708
21
1.21438
0
LINE
8
BLACK
6
CONTINUOUS
10
1.71708
20
1.21438
11
1.71482
21
1.20993
0
LINE
8
BLACK
6
CONTINUOUS
10
1.71482
20
1.20993
11
1.71472
21
1.20963
0
LINE
8
BLACK
6
CONTINUOUS
10
1.71472
20
1.20963
11
1.71314
21
1.20732
0
LINE
8
BLACK
6
CONTINUOUS
10
1.71314
20
1.20732
11
1.71057
21
1.20623
0
LINE
8
BLACK
6
CONTINUOUS
10
1.71057
20
1.20623
11
1.70781
21
1.20671
0
LINE
8
BLACK
6
CONTINUOUS
10
1.70781
20
1.20671
11
1.70575
21
1.2086
0
LINE
8
BLACK
6
CONTINUOUS
10
1.70575
20
1.2086
11
1.70528
21
1.20963
0
LINE
8
BLACK
6
CONTINUOUS
10
1.70528
20
1.20963
11
1.70518
21
1.20993
0
LINE
8
BLACK
6
CONTINUOUS
10
1.70518
20
1.20993
11
1.70292
21
1.21438
0
LINE
8
BLACK
6
CONTINUOUS
10
1.70292
20
1.21438
11
1.69938
21
1.21792
0
LINE
8
BLACK
6
CONTINUOUS
10
1.69938
20
1.21792
11
1.6964
21
1.21944
0
LINE
8
BLACK
6
CONTINUOUS
10
1.6964
20
1.21944
11
1.69493
21
1.22018
0
LINE
8
BLACK
6
CONTINUOUS
10
1.69493
20
1.22018
11
1.69124
21
1.22077
0
LINE
8
BLACK
6
CONTINUOUS
10
1.69124
20
1.22077
11
1.69124
21
1.22077
0
LINE
8
BLACK
6
CONTINUOUS
10
1.69124
20
1.22077
11
1.62876
21
1.22077
0
LINE
8
BLACK
6
CONTINUOUS
10
1.62876
20
1.22077
11
1.62507
21
1.22018
0
LINE
8
BLACK
6
CONTINUOUS
10
1.62507
20
1.22018
11
1.62062
21
1.21792
0
LINE
8
BLACK
6
CONTINUOUS
10
1.62062
20
1.21792
11
1.61708
21
1.21438
0
LINE
8
BLACK
6
CONTINUOUS
10
1.61708
20
1.21438
11
1.61482
21
1.20993
0
LINE
8
BLACK
6
CONTINUOUS
10
1.61482
20
1.20993
11
1.61482
21
1.20993
0
LINE
8
BLACK
6
CONTINUOUS
10
1.61482
20
1.20993
11
1.61423
21
1.20624
0
LINE
8
BLACK
6
CONTINUOUS
10
1.61423
20
1.20624
11
1.61423
21
1.20624
0
LINE
8
BLACK
6
CONTINUOUS
10
1.61423
20
1.20624
11
1.61423
21
1.14376
0
LINE
8
BLACK
6
CONTINUOUS
10
1.61423
20
1.14376
11
1.61482
21
1.14007
0
LINE
8
BLACK
6
CONTINUOUS
10
0.414418
20
1.22876
11
0.414454
21
1.22833
0
LINE
8
BLACK
6
CONTINUOUS
10
0.414454
20
1.22833
11
0.416737
21
1.21931
0
LINE
8
BLACK
6
CONTINUOUS
10
0.416737
20
1.21931
11
0.416737
21
1.21931
0
LINE
8
BLACK
6
CONTINUOUS
10
0.416737
20
1.21931
11
0.420473
21
1.2108
0
LINE
8
BLACK
6
CONTINUOUS
10
0.420473
20
1.2108
11
0.42556
21
1.20301
0
LINE
8
BLACK
6
CONTINUOUS
10
0.42556
20
1.20301
11
0.42556
21
1.20301
0
LINE
8
BLACK
6
CONTINUOUS
10
0.42556
20
1.20301
11
0.431859
21
1.19617
0
LINE
8
BLACK
6
CONTINUOUS
10
0.431859
20
1.19617
11
0.439199
21
1.19045
0
LINE
8
BLACK
6
CONTINUOUS
10
0.439199
20
1.19045
11
0.447379
21
1.18603
0
LINE
8
BLACK
6
CONTINUOUS
10
0.447379
20
1.18603
11
0.456176
21
1.18301
0
LINE
8
BLACK
6
CONTINUOUS
10
0.456176
20
1.18301
11
0.46535
21
1.18148
0
LINE
8
BLACK
6
CONTINUOUS
10
0.46535
20
1.18148
11
0.46535
21
1.18148
0
LINE
8
BLACK
6
CONTINUOUS
10
0.46535
20
1.18148
11
0.47465
21
1.18148
0
LINE
8
BLACK
6
CONTINUOUS
10
0.47465
20
1.18148
11
0.47465
21
1.18148
0
LINE
8
BLACK
6
CONTINUOUS
10
0.47465
20
1.18148
11
0.483824
21
1.18301
0
LINE
8
BLACK
6
CONTINUOUS
10
0.483824
20
1.18301
11
0.492621
21
1.18603
0
LINE
8
BLACK
6
CONTINUOUS
10
0.492621
20
1.18603
11
0.500801
21
1.19045
0
LINE
8
BLACK
6
CONTINUOUS
10
0.500801
20
1.19045
11
0.508141
21
1.19617
0
LINE
8
BLACK
6
CONTINUOUS
10
0.508141
20
1.19617
11
0.51444
21
1.20301
0
LINE
8
BLACK
6
CONTINUOUS
10
0.51444
20
1.20301
11
0.514499
21
1.2031
0
LINE
8
BLACK
6
CONTINUOUS
10
0.514499
20
1.2031
11
0.516551
21
1.20624
0
LINE
8
BLACK
6
CONTINUOUS
10
0.516551
20
1.20624
11
0.519527
21
1.2108
0
LINE
8
BLACK
6
CONTINUOUS
10
0.519527
20
1.2108
11
0.523263
21
1.21931
0
LINE
8
BLACK
6
CONTINUOUS
10
0.523263
20
1.21931
11
0.525546
21
1.22833
0
LINE
8
BLACK
6
CONTINUOUS
10
0.525546
20
1.22833
11
0.526314
21
1.2376
0
LINE
8
BLACK
6
CONTINUOUS
10
0.526314
20
1.2376
11
0.525546
21
1.24687
0
LINE
8
BLACK
6
CONTINUOUS
10
0.525546
20
1.24687
11
0.523263
21
1.25588
0
LINE
8
BLACK
6
CONTINUOUS
10
0.523263
20
1.25588
11
0.519527
21
1.2644
0
LINE
8
BLACK
6
CONTINUOUS
10
0.519527
20
1.2644
11
0.519527
21
1.2644
0
LINE
8
BLACK
6
CONTINUOUS
10
0.519527
20
1.2644
11
0.51444
21
1.27219
0
LINE
8
BLACK
6
CONTINUOUS
10
0.51444
20
1.27219
11
0.51444
21
1.27219
0
LINE
8
BLACK
6
CONTINUOUS
10
0.51444
20
1.27219
11
0.508141
21
1.27903
0
LINE
8
BLACK
6
CONTINUOUS
10
0.508141
20
1.27903
11
0.500801
21
1.28474
0
LINE
8
BLACK
6
CONTINUOUS
10
0.500801
20
1.28474
11
0.500801
21
1.28474
0
LINE
8
BLACK
6
CONTINUOUS
10
0.500801
20
1.28474
11
0.492621
21
1.28917
0
LINE
8
BLACK
6
CONTINUOUS
10
0.492621
20
1.28917
11
0.492621
21
1.28917
0
LINE
8
BLACK
6
CONTINUOUS
10
0.492621
20
1.28917
11
0.483825
21
1.29219
0
LINE
8
BLACK
6
CONTINUOUS
10
0.483825
20
1.29219
11
0.483824
21
1.29219
0
LINE
8
BLACK
6
CONTINUOUS
10
0.483824
20
1.29219
11
0.479898
21
1.29284
0
LINE
8
BLACK
6
CONTINUOUS
10
0.479898
20
1.29284
11
0.47465
21
1.29372
0
LINE
8
BLACK
6
CONTINUOUS
10
0.47465
20
1.29372
11
0.46535
21
1.29372
0
LINE
8
BLACK
6
CONTINUOUS
10
0.46535
20
1.29372
11
0.460759
21
1.29295
0
LINE
8
BLACK
6
CONTINUOUS
10
0.460759
20
1.29295
11
0.456176
21
1.29219
0
LINE
8
BLACK
6
CONTINUOUS
10
0.456176
20
1.29219
11
0.456175
21
1.29219
0
LINE
8
BLACK
6
CONTINUOUS
10
0.456175
20
1.29219
11
0.447379
21
1.28917
0
LINE
8
BLACK
6
CONTINUOUS
10
0.447379
20
1.28917
11
0.447379
21
1.28917
0
LINE
8
BLACK
6
CONTINUOUS
10
0.447379
20
1.28917
11
0.439199
21
1.28474
0
LINE
8
BLACK
6
CONTINUOUS
10
0.439199
20
1.28474
11
0.439199
21
1.28474
0
LINE
8
BLACK
6
CONTINUOUS
10
0.439199
20
1.28474
11
0.431859
21
1.27903
0
LINE
8
BLACK
6
CONTINUOUS
10
0.431859
20
1.27903
11
0.42556
21
1.27219
0
LINE
8
BLACK
6
CONTINUOUS
10
0.42556
20
1.27219
11
0.42556
21
1.27219
0
LINE
8
BLACK
6
CONTINUOUS
10
0.42556
20
1.27219
11
0.420473
21
1.2644
0
LINE
8
BLACK
6
CONTINUOUS
10
0.420473
20
1.2644
11
0.416737
21
1.25588
0
LINE
8
BLACK
6
CONTINUOUS
10
0.416737
20
1.25588
11
0.416737
21
1.25588
0
LINE
8
BLACK
6
CONTINUOUS
10
0.416737
20
1.25588
11
0.414454
21
1.24687
0
LINE
8
BLACK
6
CONTINUOUS
10
0.414454
20
1.24687
11
0.414454
21
1.24687
0
LINE
8
BLACK
6
CONTINUOUS
10
0.414454
20
1.24687
11
0.414454
21
1.24687
0
LINE
8
BLACK
6
CONTINUOUS
10
0.414454
20
1.24687
11
0.413686
21
1.2376
0
LINE
8
BLACK
6
CONTINUOUS
10
0.413686
20
1.2376
11
0.414418
21
1.22876
0
CIRCLE
8
BLACK
10
0.4
20
1.6
40
0.00688976
0
CIRCLE
8
BLACK
10
2.4
20
1.6
40
0.00688976
0
CIRCLE
8
BLACK
10
0.4
20
0.4
40
0.00688976
0
CIRCLE
8
BLACK
10
2.4
20
0.4
40
0.00688976
0
CIRCLE
8
BLACK
10
0.47
20
1.2376
40
0.00688976
0
CIRCLE
8
BLACK
10
0.37
20
1.1376
40
0.00688976
0
CIRCLE
8
BLACK
10
0.57
20
1.1376
40
0.00688976
0
CIRCLE
8
BLACK
10
0.37
20
1.3376
40
0.00688976
0
CIRCLE
8
BLACK
10
0.57
20
1.3376
40
0.00688976
0
CIRCLE
8
BLACK
10
2.5
20
0.68
40
0.00688976
0
CIRCLE
8
BLACK
10
2.4
20
0.68
40
0.00688976
0
CIRCLE
8
BLACK
10
2.5
20
0.78
40
0.00688976
0
CIRCLE
8
BLACK
10
2.4
20
0.78
40
0.00688976
0
CIRCLE
8
BLACK
10
2.5
20
0.88
40
0.00688976
0
CIRCLE
8
BLACK
10
2.4
20
0.88
40
0.00688976
0
CIRCLE
8
BLACK
10
0.99
20
0.53
40
0.00688976
0
CIRCLE
8
BLACK
10
0.99
20
0.63
40
0.00688976
0
CIRCLE
8
BLACK
10
0.89
20
0.53
40
0.00688976
0
CIRCLE
8
BLACK
10
0.89
20
0.63
40
0.00688976
0
CIRCLE
8
BLACK
10
1.55
20
1.17
40
0.00688976
0
CIRCLE
8
BLACK
10
1.55
20
1.27
40
0.00688976
0
CIRCLE
8
BLACK
10
1.45
20
1.17
40
0.00688976
0
CIRCLE
8
BLACK
10
1.45
20
1.27
40
0.00688976
0
CIRCLE
8
BLACK
10
2.28
20
1.26
40
0.00688976
0
CIRCLE
8
BLACK
10
2.18
20
1.26
40
0.00688976
0
CIRCLE
8
BLACK
10
2.28
20
1.06
40
0.00688976
0
CIRCLE
8
BLACK
10
2.18
20
1.06
40
0.00688976
0
CIRCLE
8
BLACK
10
2.28
20
1.36
40
0.00688976
0
CIRCLE
8
BLACK
10
2.18
20
1.36
40
0.00688976
0
CIRCLE
8
BLACK
10
2.28
20
1.16
40
0.00688976
0
CIRCLE
8
BLACK
10
2.18
20
1.16
40
0.00688976
0
CIRCLE
8
BLACK
10
1.76
20
1.175
40
0.00688976
0
CIRCLE
8
BLACK
10
1.66
20
1.175
40
0.00688976
0
CIRCLE
8
BLACK
10
0.36
20
0.82
40
0.00688976
0
CIRCLE
8
BLACK
10
0.46
20
0.82
40
0.00688976
0
CIRCLE
8
BLACK
10
0.36
20
0.72
40
0.00688976
0
CIRCLE
8
BLACK
10
0.46
20
0.72
40
0.00688976
0
CIRCLE
8
BLACK
10
0.36
20
0.62
40
0.00688976
0
CIRCLE
8
BLACK
10
0.46
20
0.62
40
0.00688976
0
CIRCLE
8
BLACK
10
0.46
20
0.92
40
0.00688976
0
CIRCLE
8
BLACK
10
0.36
20
0.92
40
0.00688976
0
CIRCLE
8
BLACK
10
1.49
20
0.95
40
0.00787402
0
CIRCLE
8
BLACK
10
1.75
20
1.02
40
0.00787402
0
CIRCLE
8
BLACK
10
0.89
20
1.5
40
0.00787402
0
CIRCLE
8
BLACK
10
0.68
20
0.56
40
0.00787402
0
CIRCLE
8
BLACK
10
1.34704
20
0.817037
40
0.00787402
0
CIRCLE
8
BLACK
10
1.93612
20
1.302
40
0.00787402
0
CIRCLE
8
BLACK
10
2.16
20
0.94
40
0.00787402
0
CIRCLE
8
BLACK
10
1.7
20
0.5
40
0.00787402
0
CIRCLE
8
BLACK
10
1.38
20
0.51
40
0.00787402
0
CIRCLE
8
BLACK
10
0.956597
20
0.991251
40
0.00787402
0
CIRCLE
8
BLACK
10
0.9
20
1.14
40
0.00787402
0
CIRCLE
8
BLACK
10
1.095
20
1.135
40
0.00787402
0
CIRCLE
8
BLACK
10
1.64
20
1.39
40
0.00787402
  0
ENDSEC
  0
EOF
