  0
SECTION
  2
HEADER
  9
$ANGBASE
  50
0.0
  9
$ANGDIR
  70
1
  9
$MEASUREMENT
  70
0
  0
ENDSEC
  0
SECTION
  2
TABLES
  0
TABLE
  2
LTYPE
  70
4
  0
LTYPE
  5
40F
  2
CONTINUOUS
  70
0
  3
Solid line
  72
65
  73
0
  40
0.0
  0
LTYPE
  5
410
  2
DASHDOT
 70
0
  3
Dash Dot ____ _ ____ _
 72
65
 73
4
 40
2.0
 49
1.25
 49
-0.25
 49
0.25
 49
-0.25
  0
LTYPE
  5
411
  2
DASHED
 70
0
  3
Dashed __ __ __ __ __
 72
65
 73
2
 40
0.75
 49
0.5
 49
-0.25
  0
LTYPE
  5
43B
  2
DOTTED
 70
0
  3
Dotted .  .  .  .
 72
65
 73
2
 40
0.2
 49
0.0
 49
-0.2
  0
ENDTAB
  0
TABLE
  2
STYLE
  70
4
  0
STYLE
  2
KICAD
  70
0
  40
0
  41
1
  42
1
  50
0
  71
0
  3
isocp.shx
  0
STYLE
  2
KICADB
  70
0
  40
0
  41
1
  42
1
  50
0
  71
0
  3
isocp.shx
  0
STYLE
  2
KICADI
  70
0
  40
0
  41
1
  42
1
  50
15
  71
0
  3
isocp.shx
  0
STYLE
  2
KICADBI
  70
0
  40
0
  41
1
  42
1
  50
15
  71
0
  3
isocp.shx
  0
ENDTAB
  0
TABLE
  2
LAYER
  70
1
  0
LAYER
  2
BLACK
  70
0
  62
7
  6
CONTINUOUS
  0
ENDTAB
  0
ENDSEC
  0
SECTION
  2
ENTITIES
0
LINE
8
BLACK
6
CONTINUOUS
10
0.42051
20
0.516316
11
0.433874
21
0.513148
0
LINE
8
BLACK
6
CONTINUOUS
10
0.433874
20
0.513148
11
0.446781
21
0.508451
0
LINE
8
BLACK
6
CONTINUOUS
10
0.446781
20
0.508451
11
0.459055
21
0.502286
0
LINE
8
BLACK
6
CONTINUOUS
10
0.459055
20
0.502286
11
0.470531
21
0.494739
0
LINE
8
BLACK
6
CONTINUOUS
10
0.470531
20
0.494739
11
0.481052
21
0.48591
0
LINE
8
BLACK
6
CONTINUOUS
10
0.481052
20
0.48591
11
0.490478
21
0.47592
0
LINE
8
BLACK
6
CONTINUOUS
10
0.490478
20
0.47592
11
0.49868
21
0.464903
0
LINE
8
BLACK
6
CONTINUOUS
10
0.49868
20
0.464903
11
0.505547
21
0.453008
0
LINE
8
BLACK
6
CONTINUOUS
10
0.505547
20
0.453008
11
0.510987
21
0.440396
0
LINE
8
BLACK
6
CONTINUOUS
10
0.510987
20
0.440396
11
0.514927
21
0.427238
0
LINE
8
BLACK
6
CONTINUOUS
10
0.514927
20
0.427238
11
0.517312
21
0.413712
0
LINE
8
BLACK
6
CONTINUOUS
10
0.517312
20
0.413712
11
0.51811
21
0.4
0
LINE
8
BLACK
6
CONTINUOUS
10
0.51811
20
0.4
11
0.517312
21
0.386288
0
LINE
8
BLACK
6
CONTINUOUS
10
0.517312
20
0.386288
11
0.514927
21
0.372762
0
LINE
8
BLACK
6
CONTINUOUS
10
0.514927
20
0.372762
11
0.510987
21
0.359604
0
LINE
8
BLACK
6
CONTINUOUS
10
0.510987
20
0.359604
11
0.505547
21
0.346992
0
LINE
8
BLACK
6
CONTINUOUS
10
0.505547
20
0.346992
11
0.49868
21
0.335097
0
LINE
8
BLACK
6
CONTINUOUS
10
0.49868
20
0.335097
11
0.490478
21
0.32408
0
LINE
8
BLACK
6
CONTINUOUS
10
0.490478
20
0.32408
11
0.481052
21
0.31409
0
LINE
8
BLACK
6
CONTINUOUS
10
0.481052
20
0.31409
11
0.470531
21
0.305261
0
LINE
8
BLACK
6
CONTINUOUS
10
0.470531
20
0.305261
11
0.459055
21
0.297714
0
LINE
8
BLACK
6
CONTINUOUS
10
0.459055
20
0.297714
11
0.446781
21
0.291549
0
LINE
8
BLACK
6
CONTINUOUS
10
0.446781
20
0.291549
11
0.433874
21
0.286852
0
LINE
8
BLACK
6
CONTINUOUS
10
0.433874
20
0.286852
11
0.42051
21
0.283684
0
LINE
8
BLACK
6
CONTINUOUS
10
0.42051
20
0.283684
11
0.406867
21
0.28209
0
LINE
8
BLACK
6
CONTINUOUS
10
0.406867
20
0.28209
11
0.393133
21
0.28209
0
LINE
8
BLACK
6
CONTINUOUS
10
0.393133
20
0.28209
11
0.37949
21
0.283684
0
LINE
8
BLACK
6
CONTINUOUS
10
0.37949
20
0.283684
11
0.366126
21
0.286852
0
LINE
8
BLACK
6
CONTINUOUS
10
0.366126
20
0.286852
11
0.353219
21
0.291549
0
LINE
8
BLACK
6
CONTINUOUS
10
0.353219
20
0.291549
11
0.340945
21
0.297714
0
LINE
8
BLACK
6
CONTINUOUS
10
0.340945
20
0.297714
11
0.329469
21
0.305261
0
LINE
8
BLACK
6
CONTINUOUS
10
0.329469
20
0.305261
11
0.318948
21
0.31409
0
LINE
8
BLACK
6
CONTINUOUS
10
0.318948
20
0.31409
11
0.309522
21
0.32408
0
LINE
8
BLACK
6
CONTINUOUS
10
0.309522
20
0.32408
11
0.30132
21
0.335097
0
LINE
8
BLACK
6
CONTINUOUS
10
0.30132
20
0.335097
11
0.294453
21
0.346992
0
LINE
8
BLACK
6
CONTINUOUS
10
0.294453
20
0.346992
11
0.289013
21
0.359604
0
LINE
8
BLACK
6
CONTINUOUS
10
0.289013
20
0.359604
11
0.285073
21
0.372762
0
LINE
8
BLACK
6
CONTINUOUS
10
0.285073
20
0.372762
11
0.282688
21
0.386288
0
LINE
8
BLACK
6
CONTINUOUS
10
0.282688
20
0.386288
11
0.28189
21
0.4
0
LINE
8
BLACK
6
CONTINUOUS
10
0.28189
20
0.4
11
0.282688
21
0.413712
0
LINE
8
BLACK
6
CONTINUOUS
10
0.282688
20
0.413712
11
0.285073
21
0.427238
0
LINE
8
BLACK
6
CONTINUOUS
10
0.285073
20
0.427238
11
0.289013
21
0.440396
0
LINE
8
BLACK
6
CONTINUOUS
10
0.289013
20
0.440396
11
0.294453
21
0.453008
0
LINE
8
BLACK
6
CONTINUOUS
10
0.294453
20
0.453008
11
0.30132
21
0.464903
0
LINE
8
BLACK
6
CONTINUOUS
10
0.30132
20
0.464903
11
0.309522
21
0.47592
0
LINE
8
BLACK
6
CONTINUOUS
10
0.309522
20
0.47592
11
0.318948
21
0.48591
0
LINE
8
BLACK
6
CONTINUOUS
10
0.318948
20
0.48591
11
0.329469
21
0.494739
0
LINE
8
BLACK
6
CONTINUOUS
10
0.329469
20
0.494739
11
0.340945
21
0.502286
0
LINE
8
BLACK
6
CONTINUOUS
10
0.340945
20
0.502286
11
0.353219
21
0.508451
0
LINE
8
BLACK
6
CONTINUOUS
10
0.353219
20
0.508451
11
0.366126
21
0.513148
0
LINE
8
BLACK
6
CONTINUOUS
10
0.366126
20
0.513148
11
0.37949
21
0.516316
0
LINE
8
BLACK
6
CONTINUOUS
10
0.37949
20
0.516316
11
0.393133
21
0.51791
0
LINE
8
BLACK
6
CONTINUOUS
10
0.393133
20
0.51791
11
0.406867
21
0.51791
0
LINE
8
BLACK
6
CONTINUOUS
10
0.406867
20
0.51791
11
0.42051
21
0.516316
0
LINE
8
BLACK
6
CONTINUOUS
10
2.42051
20
0.516316
11
2.43387
21
0.513148
0
LINE
8
BLACK
6
CONTINUOUS
10
2.43387
20
0.513148
11
2.44678
21
0.508451
0
LINE
8
BLACK
6
CONTINUOUS
10
2.44678
20
0.508451
11
2.45906
21
0.502286
0
LINE
8
BLACK
6
CONTINUOUS
10
2.45906
20
0.502286
11
2.47053
21
0.494739
0
LINE
8
BLACK
6
CONTINUOUS
10
2.47053
20
0.494739
11
2.48105
21
0.48591
0
LINE
8
BLACK
6
CONTINUOUS
10
2.48105
20
0.48591
11
2.49048
21
0.47592
0
LINE
8
BLACK
6
CONTINUOUS
10
2.49048
20
0.47592
11
2.49868
21
0.464903
0
LINE
8
BLACK
6
CONTINUOUS
10
2.49868
20
0.464903
11
2.50555
21
0.453008
0
LINE
8
BLACK
6
CONTINUOUS
10
2.50555
20
0.453008
11
2.51099
21
0.440396
0
LINE
8
BLACK
6
CONTINUOUS
10
2.51099
20
0.440396
11
2.51493
21
0.427238
0
LINE
8
BLACK
6
CONTINUOUS
10
2.51493
20
0.427238
11
2.51731
21
0.413712
0
LINE
8
BLACK
6
CONTINUOUS
10
2.51731
20
0.413712
11
2.51811
21
0.4
0
LINE
8
BLACK
6
CONTINUOUS
10
2.51811
20
0.4
11
2.51731
21
0.386288
0
LINE
8
BLACK
6
CONTINUOUS
10
2.51731
20
0.386288
11
2.51493
21
0.372762
0
LINE
8
BLACK
6
CONTINUOUS
10
2.51493
20
0.372762
11
2.51099
21
0.359604
0
LINE
8
BLACK
6
CONTINUOUS
10
2.51099
20
0.359604
11
2.50555
21
0.346992
0
LINE
8
BLACK
6
CONTINUOUS
10
2.50555
20
0.346992
11
2.49868
21
0.335097
0
LINE
8
BLACK
6
CONTINUOUS
10
2.49868
20
0.335097
11
2.49048
21
0.32408
0
LINE
8
BLACK
6
CONTINUOUS
10
2.49048
20
0.32408
11
2.48105
21
0.31409
0
LINE
8
BLACK
6
CONTINUOUS
10
2.48105
20
0.31409
11
2.47053
21
0.305261
0
LINE
8
BLACK
6
CONTINUOUS
10
2.47053
20
0.305261
11
2.45906
21
0.297714
0
LINE
8
BLACK
6
CONTINUOUS
10
2.45906
20
0.297714
11
2.44678
21
0.291549
0
LINE
8
BLACK
6
CONTINUOUS
10
2.44678
20
0.291549
11
2.43387
21
0.286852
0
LINE
8
BLACK
6
CONTINUOUS
10
2.43387
20
0.286852
11
2.42051
21
0.283684
0
LINE
8
BLACK
6
CONTINUOUS
10
2.42051
20
0.283684
11
2.40687
21
0.28209
0
LINE
8
BLACK
6
CONTINUOUS
10
2.40687
20
0.28209
11
2.39313
21
0.28209
0
LINE
8
BLACK
6
CONTINUOUS
10
2.39313
20
0.28209
11
2.37949
21
0.283684
0
LINE
8
BLACK
6
CONTINUOUS
10
2.37949
20
0.283684
11
2.36613
21
0.286852
0
LINE
8
BLACK
6
CONTINUOUS
10
2.36613
20
0.286852
11
2.35322
21
0.291549
0
LINE
8
BLACK
6
CONTINUOUS
10
2.35322
20
0.291549
11
2.34094
21
0.297714
0
LINE
8
BLACK
6
CONTINUOUS
10
2.34094
20
0.297714
11
2.32947
21
0.305261
0
LINE
8
BLACK
6
CONTINUOUS
10
2.32947
20
0.305261
11
2.31895
21
0.31409
0
LINE
8
BLACK
6
CONTINUOUS
10
2.31895
20
0.31409
11
2.30952
21
0.32408
0
LINE
8
BLACK
6
CONTINUOUS
10
2.30952
20
0.32408
11
2.30132
21
0.335097
0
LINE
8
BLACK
6
CONTINUOUS
10
2.30132
20
0.335097
11
2.29445
21
0.346992
0
LINE
8
BLACK
6
CONTINUOUS
10
2.29445
20
0.346992
11
2.28901
21
0.359604
0
LINE
8
BLACK
6
CONTINUOUS
10
2.28901
20
0.359604
11
2.28507
21
0.372762
0
LINE
8
BLACK
6
CONTINUOUS
10
2.28507
20
0.372762
11
2.28269
21
0.386288
0
LINE
8
BLACK
6
CONTINUOUS
10
2.28269
20
0.386288
11
2.28189
21
0.4
0
LINE
8
BLACK
6
CONTINUOUS
10
2.28189
20
0.4
11
2.28269
21
0.413712
0
LINE
8
BLACK
6
CONTINUOUS
10
2.28269
20
0.413712
11
2.28507
21
0.427238
0
LINE
8
BLACK
6
CONTINUOUS
10
2.28507
20
0.427238
11
2.28901
21
0.440396
0
LINE
8
BLACK
6
CONTINUOUS
10
2.28901
20
0.440396
11
2.29445
21
0.453008
0
LINE
8
BLACK
6
CONTINUOUS
10
2.29445
20
0.453008
11
2.30132
21
0.464903
0
LINE
8
BLACK
6
CONTINUOUS
10
2.30132
20
0.464903
11
2.30952
21
0.47592
0
LINE
8
BLACK
6
CONTINUOUS
10
2.30952
20
0.47592
11
2.31895
21
0.48591
0
LINE
8
BLACK
6
CONTINUOUS
10
2.31895
20
0.48591
11
2.32947
21
0.494739
0
LINE
8
BLACK
6
CONTINUOUS
10
2.32947
20
0.494739
11
2.34094
21
0.502286
0
LINE
8
BLACK
6
CONTINUOUS
10
2.34094
20
0.502286
11
2.35322
21
0.508451
0
LINE
8
BLACK
6
CONTINUOUS
10
2.35322
20
0.508451
11
2.36613
21
0.513148
0
LINE
8
BLACK
6
CONTINUOUS
10
2.36613
20
0.513148
11
2.37949
21
0.516316
0
LINE
8
BLACK
6
CONTINUOUS
10
2.37949
20
0.516316
11
2.39313
21
0.51791
0
LINE
8
BLACK
6
CONTINUOUS
10
2.39313
20
0.51791
11
2.40687
21
0.51791
0
LINE
8
BLACK
6
CONTINUOUS
10
2.40687
20
0.51791
11
2.42051
21
0.516316
0
LINE
8
BLACK
6
CONTINUOUS
10
0.92
20
0.5
11
0.86
21
0.5
0
LINE
8
BLACK
6
CONTINUOUS
10
0.86
20
0.5
11
0.86
21
0.56
0
LINE
8
BLACK
6
CONTINUOUS
10
0.86
20
0.56
11
0.92
21
0.56
0
LINE
8
BLACK
6
CONTINUOUS
10
0.92
20
0.56
11
0.92
21
0.5
0
LINE
8
BLACK
6
CONTINUOUS
10
1.02
20
0.5
11
0.96
21
0.5
0
LINE
8
BLACK
6
CONTINUOUS
10
0.96
20
0.5
11
0.96
21
0.56
0
LINE
8
BLACK
6
CONTINUOUS
10
0.96
20
0.56
11
1.02
21
0.56
0
LINE
8
BLACK
6
CONTINUOUS
10
1.02
20
0.56
11
1.02
21
0.5
0
LINE
8
BLACK
6
CONTINUOUS
10
0.39
20
0.59
11
0.33
21
0.59
0
LINE
8
BLACK
6
CONTINUOUS
10
0.33
20
0.59
11
0.33
21
0.65
0
LINE
8
BLACK
6
CONTINUOUS
10
0.33
20
0.65
11
0.39
21
0.65
0
LINE
8
BLACK
6
CONTINUOUS
10
0.39
20
0.65
11
0.39
21
0.59
0
LINE
8
BLACK
6
CONTINUOUS
10
0.49
20
0.59
11
0.43
21
0.59
0
LINE
8
BLACK
6
CONTINUOUS
10
0.43
20
0.59
11
0.43
21
0.65
0
LINE
8
BLACK
6
CONTINUOUS
10
0.43
20
0.65
11
0.49
21
0.65
0
LINE
8
BLACK
6
CONTINUOUS
10
0.49
20
0.65
11
0.49
21
0.59
0
LINE
8
BLACK
6
CONTINUOUS
10
0.92
20
0.6
11
0.86
21
0.6
0
LINE
8
BLACK
6
CONTINUOUS
10
0.86
20
0.6
11
0.86
21
0.66
0
LINE
8
BLACK
6
CONTINUOUS
10
0.86
20
0.66
11
0.92
21
0.66
0
LINE
8
BLACK
6
CONTINUOUS
10
0.92
20
0.66
11
0.92
21
0.6
0
LINE
8
BLACK
6
CONTINUOUS
10
1.02
20
0.6
11
0.96
21
0.6
0
LINE
8
BLACK
6
CONTINUOUS
10
0.96
20
0.6
11
0.96
21
0.66
0
LINE
8
BLACK
6
CONTINUOUS
10
0.96
20
0.66
11
1.02
21
0.66
0
LINE
8
BLACK
6
CONTINUOUS
10
1.02
20
0.66
11
1.02
21
0.6
0
LINE
8
BLACK
6
CONTINUOUS
10
2.405
20
0.65
11
2.345
21
0.65
0
LINE
8
BLACK
6
CONTINUOUS
10
2.345
20
0.65
11
2.345
21
0.71
0
LINE
8
BLACK
6
CONTINUOUS
10
2.345
20
0.71
11
2.405
21
0.71
0
LINE
8
BLACK
6
CONTINUOUS
10
2.405
20
0.71
11
2.405
21
0.65
0
LINE
8
BLACK
6
CONTINUOUS
10
2.505
20
0.65
11
2.445
21
0.65
0
LINE
8
BLACK
6
CONTINUOUS
10
2.445
20
0.65
11
2.445
21
0.71
0
LINE
8
BLACK
6
CONTINUOUS
10
2.445
20
0.71
11
2.505
21
0.71
0
LINE
8
BLACK
6
CONTINUOUS
10
2.505
20
0.71
11
2.505
21
0.65
0
LINE
8
BLACK
6
CONTINUOUS
10
0.39
20
0.69
11
0.33
21
0.69
0
LINE
8
BLACK
6
CONTINUOUS
10
0.33
20
0.69
11
0.33
21
0.75
0
LINE
8
BLACK
6
CONTINUOUS
10
0.33
20
0.75
11
0.39
21
0.75
0
LINE
8
BLACK
6
CONTINUOUS
10
0.39
20
0.75
11
0.39
21
0.69
0
LINE
8
BLACK
6
CONTINUOUS
10
0.49
20
0.69
11
0.43
21
0.69
0
LINE
8
BLACK
6
CONTINUOUS
10
0.43
20
0.69
11
0.43
21
0.75
0
LINE
8
BLACK
6
CONTINUOUS
10
0.43
20
0.75
11
0.49
21
0.75
0
LINE
8
BLACK
6
CONTINUOUS
10
0.49
20
0.75
11
0.49
21
0.69
0
LINE
8
BLACK
6
CONTINUOUS
10
2.405
20
0.75
11
2.345
21
0.75
0
LINE
8
BLACK
6
CONTINUOUS
10
2.345
20
0.75
11
2.345
21
0.81
0
LINE
8
BLACK
6
CONTINUOUS
10
2.345
20
0.81
11
2.405
21
0.81
0
LINE
8
BLACK
6
CONTINUOUS
10
2.405
20
0.81
11
2.405
21
0.75
0
LINE
8
BLACK
6
CONTINUOUS
10
2.505
20
0.75
11
2.445
21
0.75
0
LINE
8
BLACK
6
CONTINUOUS
10
2.445
20
0.75
11
2.445
21
0.81
0
LINE
8
BLACK
6
CONTINUOUS
10
2.445
20
0.81
11
2.505
21
0.81
0
LINE
8
BLACK
6
CONTINUOUS
10
2.505
20
0.81
11
2.505
21
0.75
0
LINE
8
BLACK
6
CONTINUOUS
10
0.39
20
0.79
11
0.33
21
0.79
0
LINE
8
BLACK
6
CONTINUOUS
10
0.33
20
0.79
11
0.33
21
0.85
0
LINE
8
BLACK
6
CONTINUOUS
10
0.33
20
0.85
11
0.39
21
0.85
0
LINE
8
BLACK
6
CONTINUOUS
10
0.39
20
0.85
11
0.39
21
0.79
0
LINE
8
BLACK
6
CONTINUOUS
10
0.49
20
0.79
11
0.43
21
0.79
0
LINE
8
BLACK
6
CONTINUOUS
10
0.43
20
0.79
11
0.43
21
0.85
0
LINE
8
BLACK
6
CONTINUOUS
10
0.43
20
0.85
11
0.49
21
0.85
0
LINE
8
BLACK
6
CONTINUOUS
10
0.49
20
0.85
11
0.49
21
0.79
0
LINE
8
BLACK
6
CONTINUOUS
10
0.7
20
0.83
11
0.64
21
0.83
0
LINE
8
BLACK
6
CONTINUOUS
10
0.64
20
0.83
11
0.64
21
0.89
0
LINE
8
BLACK
6
CONTINUOUS
10
0.64
20
0.89
11
0.7
21
0.89
0
LINE
8
BLACK
6
CONTINUOUS
10
0.7
20
0.89
11
0.7
21
0.83
0
LINE
8
BLACK
6
CONTINUOUS
10
2.405
20
0.85
11
2.345
21
0.85
0
LINE
8
BLACK
6
CONTINUOUS
10
2.345
20
0.85
11
2.345
21
0.91
0
LINE
8
BLACK
6
CONTINUOUS
10
2.345
20
0.91
11
2.405
21
0.91
0
LINE
8
BLACK
6
CONTINUOUS
10
2.405
20
0.91
11
2.405
21
0.85
0
LINE
8
BLACK
6
CONTINUOUS
10
2.505
20
0.85
11
2.445
21
0.85
0
LINE
8
BLACK
6
CONTINUOUS
10
2.445
20
0.85
11
2.445
21
0.91
0
LINE
8
BLACK
6
CONTINUOUS
10
2.445
20
0.91
11
2.505
21
0.91
0
LINE
8
BLACK
6
CONTINUOUS
10
2.505
20
0.91
11
2.505
21
0.85
0
LINE
8
BLACK
6
CONTINUOUS
10
0.7
20
0.93
11
0.64
21
0.93
0
LINE
8
BLACK
6
CONTINUOUS
10
0.64
20
0.93
11
0.64
21
0.99
0
LINE
8
BLACK
6
CONTINUOUS
10
0.64
20
0.99
11
0.7
21
0.99
0
LINE
8
BLACK
6
CONTINUOUS
10
0.7
20
0.99
11
0.7
21
0.93
0
LINE
8
BLACK
6
CONTINUOUS
10
2.21
20
1.03
11
2.15
21
1.03
0
LINE
8
BLACK
6
CONTINUOUS
10
2.15
20
1.03
11
2.15
21
1.09
0
LINE
8
BLACK
6
CONTINUOUS
10
2.15
20
1.09
11
2.21
21
1.09
0
LINE
8
BLACK
6
CONTINUOUS
10
2.21
20
1.09
11
2.21
21
1.03
0
LINE
8
BLACK
6
CONTINUOUS
10
2.31
20
1.03
11
2.25
21
1.03
0
LINE
8
BLACK
6
CONTINUOUS
10
2.25
20
1.03
11
2.25
21
1.09
0
LINE
8
BLACK
6
CONTINUOUS
10
2.25
20
1.09
11
2.31
21
1.09
0
LINE
8
BLACK
6
CONTINUOUS
10
2.31
20
1.09
11
2.31
21
1.03
0
LINE
8
BLACK
6
CONTINUOUS
10
0.382121
20
1.1776
11
0.389742
21
1.17465
0
LINE
8
BLACK
6
CONTINUOUS
10
0.389742
20
1.17465
11
0.396691
21
1.17035
0
LINE
8
BLACK
6
CONTINUOUS
10
0.396691
20
1.17035
11
0.402732
21
1.16484
0
LINE
8
BLACK
6
CONTINUOUS
10
0.402732
20
1.16484
11
0.407657
21
1.15832
0
LINE
8
BLACK
6
CONTINUOUS
10
0.407657
20
1.15832
11
0.4113
21
1.151
0
LINE
8
BLACK
6
CONTINUOUS
10
0.4113
20
1.151
11
0.413537
21
1.14314
0
LINE
8
BLACK
6
CONTINUOUS
10
0.413537
20
1.14314
11
0.414291
21
1.135
0
LINE
8
BLACK
6
CONTINUOUS
10
0.414291
20
1.135
11
0.413537
21
1.12686
0
LINE
8
BLACK
6
CONTINUOUS
10
0.413537
20
1.12686
11
0.4113
21
1.119
0
LINE
8
BLACK
6
CONTINUOUS
10
0.4113
20
1.119
11
0.407657
21
1.11168
0
LINE
8
BLACK
6
CONTINUOUS
10
0.407657
20
1.11168
11
0.402732
21
1.10516
0
LINE
8
BLACK
6
CONTINUOUS
10
0.402732
20
1.10516
11
0.396691
21
1.09965
0
LINE
8
BLACK
6
CONTINUOUS
10
0.396691
20
1.09965
11
0.389742
21
1.09535
0
LINE
8
BLACK
6
CONTINUOUS
10
0.389742
20
1.09535
11
0.382121
21
1.0924
0
LINE
8
BLACK
6
CONTINUOUS
10
0.382121
20
1.0924
11
0.374087
21
1.0909
0
LINE
8
BLACK
6
CONTINUOUS
10
0.374087
20
1.0909
11
0.365913
21
1.0909
0
LINE
8
BLACK
6
CONTINUOUS
10
0.365913
20
1.0909
11
0.357879
21
1.0924
0
LINE
8
BLACK
6
CONTINUOUS
10
0.357879
20
1.0924
11
0.350258
21
1.09535
0
LINE
8
BLACK
6
CONTINUOUS
10
0.350258
20
1.09535
11
0.343309
21
1.09965
0
LINE
8
BLACK
6
CONTINUOUS
10
0.343309
20
1.09965
11
0.337268
21
1.10516
0
LINE
8
BLACK
6
CONTINUOUS
10
0.337268
20
1.10516
11
0.332343
21
1.11168
0
LINE
8
BLACK
6
CONTINUOUS
10
0.332343
20
1.11168
11
0.3287
21
1.119
0
LINE
8
BLACK
6
CONTINUOUS
10
0.3287
20
1.119
11
0.326463
21
1.12686
0
LINE
8
BLACK
6
CONTINUOUS
10
0.326463
20
1.12686
11
0.325709
21
1.135
0
LINE
8
BLACK
6
CONTINUOUS
10
0.325709
20
1.135
11
0.326463
21
1.14314
0
LINE
8
BLACK
6
CONTINUOUS
10
0.326463
20
1.14314
11
0.3287
21
1.151
0
LINE
8
BLACK
6
CONTINUOUS
10
0.3287
20
1.151
11
0.332343
21
1.15832
0
LINE
8
BLACK
6
CONTINUOUS
10
0.332343
20
1.15832
11
0.337268
21
1.16484
0
LINE
8
BLACK
6
CONTINUOUS
10
0.337268
20
1.16484
11
0.343309
21
1.17035
0
LINE
8
BLACK
6
CONTINUOUS
10
0.343309
20
1.17035
11
0.350258
21
1.17465
0
LINE
8
BLACK
6
CONTINUOUS
10
0.350258
20
1.17465
11
0.357879
21
1.1776
0
LINE
8
BLACK
6
CONTINUOUS
10
0.357879
20
1.1776
11
0.365913
21
1.1791
0
LINE
8
BLACK
6
CONTINUOUS
10
0.365913
20
1.1791
11
0.374087
21
1.1791
0
LINE
8
BLACK
6
CONTINUOUS
10
0.374087
20
1.1791
11
0.382121
21
1.1776
0
LINE
8
BLACK
6
CONTINUOUS
10
0.582121
20
1.1776
11
0.589742
21
1.17465
0
LINE
8
BLACK
6
CONTINUOUS
10
0.589742
20
1.17465
11
0.596691
21
1.17035
0
LINE
8
BLACK
6
CONTINUOUS
10
0.596691
20
1.17035
11
0.602732
21
1.16484
0
LINE
8
BLACK
6
CONTINUOUS
10
0.602732
20
1.16484
11
0.607657
21
1.15832
0
LINE
8
BLACK
6
CONTINUOUS
10
0.607657
20
1.15832
11
0.6113
21
1.151
0
LINE
8
BLACK
6
CONTINUOUS
10
0.6113
20
1.151
11
0.613537
21
1.14314
0
LINE
8
BLACK
6
CONTINUOUS
10
0.613537
20
1.14314
11
0.614291
21
1.135
0
LINE
8
BLACK
6
CONTINUOUS
10
0.614291
20
1.135
11
0.613537
21
1.12686
0
LINE
8
BLACK
6
CONTINUOUS
10
0.613537
20
1.12686
11
0.6113
21
1.119
0
LINE
8
BLACK
6
CONTINUOUS
10
0.6113
20
1.119
11
0.607657
21
1.11168
0
LINE
8
BLACK
6
CONTINUOUS
10
0.607657
20
1.11168
11
0.602732
21
1.10516
0
LINE
8
BLACK
6
CONTINUOUS
10
0.602732
20
1.10516
11
0.596691
21
1.09965
0
LINE
8
BLACK
6
CONTINUOUS
10
0.596691
20
1.09965
11
0.589742
21
1.09535
0
LINE
8
BLACK
6
CONTINUOUS
10
0.589742
20
1.09535
11
0.582121
21
1.0924
0
LINE
8
BLACK
6
CONTINUOUS
10
0.582121
20
1.0924
11
0.574087
21
1.0909
0
LINE
8
BLACK
6
CONTINUOUS
10
0.574087
20
1.0909
11
0.565913
21
1.0909
0
LINE
8
BLACK
6
CONTINUOUS
10
0.565913
20
1.0909
11
0.557879
21
1.0924
0
LINE
8
BLACK
6
CONTINUOUS
10
0.557879
20
1.0924
11
0.550258
21
1.09535
0
LINE
8
BLACK
6
CONTINUOUS
10
0.550258
20
1.09535
11
0.543309
21
1.09965
0
LINE
8
BLACK
6
CONTINUOUS
10
0.543309
20
1.09965
11
0.537268
21
1.10516
0
LINE
8
BLACK
6
CONTINUOUS
10
0.537268
20
1.10516
11
0.532343
21
1.11168
0
LINE
8
BLACK
6
CONTINUOUS
10
0.532343
20
1.11168
11
0.5287
21
1.119
0
LINE
8
BLACK
6
CONTINUOUS
10
0.5287
20
1.119
11
0.526463
21
1.12686
0
LINE
8
BLACK
6
CONTINUOUS
10
0.526463
20
1.12686
11
0.525709
21
1.135
0
LINE
8
BLACK
6
CONTINUOUS
10
0.525709
20
1.135
11
0.526463
21
1.14314
0
LINE
8
BLACK
6
CONTINUOUS
10
0.526463
20
1.14314
11
0.5287
21
1.151
0
LINE
8
BLACK
6
CONTINUOUS
10
0.5287
20
1.151
11
0.532343
21
1.15832
0
LINE
8
BLACK
6
CONTINUOUS
10
0.532343
20
1.15832
11
0.537268
21
1.16484
0
LINE
8
BLACK
6
CONTINUOUS
10
0.537268
20
1.16484
11
0.543309
21
1.17035
0
LINE
8
BLACK
6
CONTINUOUS
10
0.543309
20
1.17035
11
0.550258
21
1.17465
0
LINE
8
BLACK
6
CONTINUOUS
10
0.550258
20
1.17465
11
0.557879
21
1.1776
0
LINE
8
BLACK
6
CONTINUOUS
10
0.557879
20
1.1776
11
0.565913
21
1.1791
0
LINE
8
BLACK
6
CONTINUOUS
10
0.565913
20
1.1791
11
0.574087
21
1.1791
0
LINE
8
BLACK
6
CONTINUOUS
10
0.574087
20
1.1791
11
0.582121
21
1.1776
0
LINE
8
BLACK
6
CONTINUOUS
10
1.745
20
1.105
11
1.685
21
1.105
0
LINE
8
BLACK
6
CONTINUOUS
10
1.685
20
1.105
11
1.685
21
1.165
0
LINE
8
BLACK
6
CONTINUOUS
10
1.685
20
1.165
11
1.745
21
1.165
0
LINE
8
BLACK
6
CONTINUOUS
10
1.745
20
1.165
11
1.745
21
1.105
0
LINE
8
BLACK
6
CONTINUOUS
10
1.845
20
1.105
11
1.785
21
1.105
0
LINE
8
BLACK
6
CONTINUOUS
10
1.785
20
1.105
11
1.785
21
1.165
0
LINE
8
BLACK
6
CONTINUOUS
10
1.785
20
1.165
11
1.845
21
1.165
0
LINE
8
BLACK
6
CONTINUOUS
10
1.845
20
1.165
11
1.845
21
1.105
0
LINE
8
BLACK
6
CONTINUOUS
10
2.21
20
1.13
11
2.15
21
1.13
0
LINE
8
BLACK
6
CONTINUOUS
10
2.15
20
1.13
11
2.15
21
1.19
0
LINE
8
BLACK
6
CONTINUOUS
10
2.15
20
1.19
11
2.21
21
1.19
0
LINE
8
BLACK
6
CONTINUOUS
10
2.21
20
1.19
11
2.21
21
1.13
0
LINE
8
BLACK
6
CONTINUOUS
10
2.31
20
1.13
11
2.25
21
1.13
0
LINE
8
BLACK
6
CONTINUOUS
10
2.25
20
1.13
11
2.25
21
1.19
0
LINE
8
BLACK
6
CONTINUOUS
10
2.25
20
1.19
11
2.31
21
1.19
0
LINE
8
BLACK
6
CONTINUOUS
10
2.31
20
1.19
11
2.31
21
1.13
0
LINE
8
BLACK
6
CONTINUOUS
10
1.48
20
1.14
11
1.42
21
1.14
0
LINE
8
BLACK
6
CONTINUOUS
10
1.42
20
1.14
11
1.42
21
1.2
0
LINE
8
BLACK
6
CONTINUOUS
10
1.42
20
1.2
11
1.48
21
1.2
0
LINE
8
BLACK
6
CONTINUOUS
10
1.48
20
1.2
11
1.48
21
1.14
0
LINE
8
BLACK
6
CONTINUOUS
10
1.58
20
1.14
11
1.52
21
1.14
0
LINE
8
BLACK
6
CONTINUOUS
10
1.52
20
1.14
11
1.52
21
1.2
0
LINE
8
BLACK
6
CONTINUOUS
10
1.52
20
1.2
11
1.58
21
1.2
0
LINE
8
BLACK
6
CONTINUOUS
10
1.58
20
1.2
11
1.58
21
1.14
0
LINE
8
BLACK
6
CONTINUOUS
10
0.477873
20
1.27458
11
0.485443
21
1.27228
0
LINE
8
BLACK
6
CONTINUOUS
10
0.485443
20
1.27228
11
0.49242
21
1.26855
0
LINE
8
BLACK
6
CONTINUOUS
10
0.49242
20
1.26855
11
0.498535
21
1.26353
0
LINE
8
BLACK
6
CONTINUOUS
10
0.498535
20
1.26353
11
0.503553
21
1.25742
0
LINE
8
BLACK
6
CONTINUOUS
10
0.503553
20
1.25742
11
0.507283
21
1.25044
0
LINE
8
BLACK
6
CONTINUOUS
10
0.507283
20
1.25044
11
0.509579
21
1.24287
0
LINE
8
BLACK
6
CONTINUOUS
10
0.509579
20
1.24287
11
0.510354
21
1.235
0
LINE
8
BLACK
6
CONTINUOUS
10
0.510354
20
1.235
11
0.509579
21
1.22713
0
LINE
8
BLACK
6
CONTINUOUS
10
0.509579
20
1.22713
11
0.507283
21
1.21956
0
LINE
8
BLACK
6
CONTINUOUS
10
0.507283
20
1.21956
11
0.503553
21
1.21258
0
LINE
8
BLACK
6
CONTINUOUS
10
0.503553
20
1.21258
11
0.498535
21
1.20647
0
LINE
8
BLACK
6
CONTINUOUS
10
0.498535
20
1.20647
11
0.49242
21
1.20145
0
LINE
8
BLACK
6
CONTINUOUS
10
0.49242
20
1.20145
11
0.485443
21
1.19772
0
LINE
8
BLACK
6
CONTINUOUS
10
0.485443
20
1.19772
11
0.477873
21
1.19542
0
LINE
8
BLACK
6
CONTINUOUS
10
0.477873
20
1.19542
11
0.47
21
1.19465
0
LINE
8
BLACK
6
CONTINUOUS
10
0.47
20
1.19465
11
0.462127
21
1.19542
0
LINE
8
BLACK
6
CONTINUOUS
10
0.462127
20
1.19542
11
0.454557
21
1.19772
0
LINE
8
BLACK
6
CONTINUOUS
10
0.454557
20
1.19772
11
0.44758
21
1.20145
0
LINE
8
BLACK
6
CONTINUOUS
10
0.44758
20
1.20145
11
0.441465
21
1.20647
0
LINE
8
BLACK
6
CONTINUOUS
10
0.441465
20
1.20647
11
0.436447
21
1.21258
0
LINE
8
BLACK
6
CONTINUOUS
10
0.436447
20
1.21258
11
0.432717
21
1.21956
0
LINE
8
BLACK
6
CONTINUOUS
10
0.432717
20
1.21956
11
0.430421
21
1.22713
0
LINE
8
BLACK
6
CONTINUOUS
10
0.430421
20
1.22713
11
0.429646
21
1.235
0
LINE
8
BLACK
6
CONTINUOUS
10
0.429646
20
1.235
11
0.430421
21
1.24287
0
LINE
8
BLACK
6
CONTINUOUS
10
0.430421
20
1.24287
11
0.432717
21
1.25044
0
LINE
8
BLACK
6
CONTINUOUS
10
0.432717
20
1.25044
11
0.436447
21
1.25742
0
LINE
8
BLACK
6
CONTINUOUS
10
0.436447
20
1.25742
11
0.441465
21
1.26353
0
LINE
8
BLACK
6
CONTINUOUS
10
0.441465
20
1.26353
11
0.44758
21
1.26855
0
LINE
8
BLACK
6
CONTINUOUS
10
0.44758
20
1.26855
11
0.454557
21
1.27228
0
LINE
8
BLACK
6
CONTINUOUS
10
0.454557
20
1.27228
11
0.462127
21
1.27458
0
LINE
8
BLACK
6
CONTINUOUS
10
0.462127
20
1.27458
11
0.47
21
1.27535
0
LINE
8
BLACK
6
CONTINUOUS
10
0.47
20
1.27535
11
0.477873
21
1.27458
0
LINE
8
BLACK
6
CONTINUOUS
10
2.21
20
1.23
11
2.15
21
1.23
0
LINE
8
BLACK
6
CONTINUOUS
10
2.15
20
1.23
11
2.15
21
1.29
0
LINE
8
BLACK
6
CONTINUOUS
10
2.15
20
1.29
11
2.21
21
1.29
0
LINE
8
BLACK
6
CONTINUOUS
10
2.21
20
1.29
11
2.21
21
1.23
0
LINE
8
BLACK
6
CONTINUOUS
10
2.31
20
1.23
11
2.25
21
1.23
0
LINE
8
BLACK
6
CONTINUOUS
10
2.25
20
1.23
11
2.25
21
1.29
0
LINE
8
BLACK
6
CONTINUOUS
10
2.25
20
1.29
11
2.31
21
1.29
0
LINE
8
BLACK
6
CONTINUOUS
10
2.31
20
1.29
11
2.31
21
1.23
0
LINE
8
BLACK
6
CONTINUOUS
10
1.48
20
1.24
11
1.42
21
1.24
0
LINE
8
BLACK
6
CONTINUOUS
10
1.42
20
1.24
11
1.42
21
1.3
0
LINE
8
BLACK
6
CONTINUOUS
10
1.42
20
1.3
11
1.48
21
1.3
0
LINE
8
BLACK
6
CONTINUOUS
10
1.48
20
1.3
11
1.48
21
1.24
0
LINE
8
BLACK
6
CONTINUOUS
10
1.58
20
1.24
11
1.52
21
1.24
0
LINE
8
BLACK
6
CONTINUOUS
10
1.52
20
1.24
11
1.52
21
1.3
0
LINE
8
BLACK
6
CONTINUOUS
10
1.52
20
1.3
11
1.58
21
1.3
0
LINE
8
BLACK
6
CONTINUOUS
10
1.58
20
1.3
11
1.58
21
1.24
0
LINE
8
BLACK
6
CONTINUOUS
10
0.382121
20
1.3776
11
0.389742
21
1.37465
0
LINE
8
BLACK
6
CONTINUOUS
10
0.389742
20
1.37465
11
0.396691
21
1.37035
0
LINE
8
BLACK
6
CONTINUOUS
10
0.396691
20
1.37035
11
0.402732
21
1.36484
0
LINE
8
BLACK
6
CONTINUOUS
10
0.402732
20
1.36484
11
0.407657
21
1.35832
0
LINE
8
BLACK
6
CONTINUOUS
10
0.407657
20
1.35832
11
0.4113
21
1.351
0
LINE
8
BLACK
6
CONTINUOUS
10
0.4113
20
1.351
11
0.413537
21
1.34314
0
LINE
8
BLACK
6
CONTINUOUS
10
0.413537
20
1.34314
11
0.414291
21
1.335
0
LINE
8
BLACK
6
CONTINUOUS
10
0.414291
20
1.335
11
0.413537
21
1.32686
0
LINE
8
BLACK
6
CONTINUOUS
10
0.413537
20
1.32686
11
0.4113
21
1.319
0
LINE
8
BLACK
6
CONTINUOUS
10
0.4113
20
1.319
11
0.407657
21
1.31168
0
LINE
8
BLACK
6
CONTINUOUS
10
0.407657
20
1.31168
11
0.402732
21
1.30516
0
LINE
8
BLACK
6
CONTINUOUS
10
0.402732
20
1.30516
11
0.396691
21
1.29965
0
LINE
8
BLACK
6
CONTINUOUS
10
0.396691
20
1.29965
11
0.389742
21
1.29535
0
LINE
8
BLACK
6
CONTINUOUS
10
0.389742
20
1.29535
11
0.382121
21
1.2924
0
LINE
8
BLACK
6
CONTINUOUS
10
0.382121
20
1.2924
11
0.374087
21
1.2909
0
LINE
8
BLACK
6
CONTINUOUS
10
0.374087
20
1.2909
11
0.365913
21
1.2909
0
LINE
8
BLACK
6
CONTINUOUS
10
0.365913
20
1.2909
11
0.357879
21
1.2924
0
LINE
8
BLACK
6
CONTINUOUS
10
0.357879
20
1.2924
11
0.350258
21
1.29535
0
LINE
8
BLACK
6
CONTINUOUS
10
0.350258
20
1.29535
11
0.343309
21
1.29965
0
LINE
8
BLACK
6
CONTINUOUS
10
0.343309
20
1.29965
11
0.337268
21
1.30516
0
LINE
8
BLACK
6
CONTINUOUS
10
0.337268
20
1.30516
11
0.332343
21
1.31168
0
LINE
8
BLACK
6
CONTINUOUS
10
0.332343
20
1.31168
11
0.3287
21
1.319
0
LINE
8
BLACK
6
CONTINUOUS
10
0.3287
20
1.319
11
0.326463
21
1.32686
0
LINE
8
BLACK
6
CONTINUOUS
10
0.326463
20
1.32686
11
0.325709
21
1.335
0
LINE
8
BLACK
6
CONTINUOUS
10
0.325709
20
1.335
11
0.326463
21
1.34314
0
LINE
8
BLACK
6
CONTINUOUS
10
0.326463
20
1.34314
11
0.3287
21
1.351
0
LINE
8
BLACK
6
CONTINUOUS
10
0.3287
20
1.351
11
0.332343
21
1.35832
0
LINE
8
BLACK
6
CONTINUOUS
10
0.332343
20
1.35832
11
0.337268
21
1.36484
0
LINE
8
BLACK
6
CONTINUOUS
10
0.337268
20
1.36484
11
0.343309
21
1.37035
0
LINE
8
BLACK
6
CONTINUOUS
10
0.343309
20
1.37035
11
0.350258
21
1.37465
0
LINE
8
BLACK
6
CONTINUOUS
10
0.350258
20
1.37465
11
0.357879
21
1.3776
0
LINE
8
BLACK
6
CONTINUOUS
10
0.357879
20
1.3776
11
0.365913
21
1.3791
0
LINE
8
BLACK
6
CONTINUOUS
10
0.365913
20
1.3791
11
0.374087
21
1.3791
0
LINE
8
BLACK
6
CONTINUOUS
10
0.374087
20
1.3791
11
0.382121
21
1.3776
0
LINE
8
BLACK
6
CONTINUOUS
10
0.582121
20
1.3776
11
0.589742
21
1.37465
0
LINE
8
BLACK
6
CONTINUOUS
10
0.589742
20
1.37465
11
0.596691
21
1.37035
0
LINE
8
BLACK
6
CONTINUOUS
10
0.596691
20
1.37035
11
0.602732
21
1.36484
0
LINE
8
BLACK
6
CONTINUOUS
10
0.602732
20
1.36484
11
0.607657
21
1.35832
0
LINE
8
BLACK
6
CONTINUOUS
10
0.607657
20
1.35832
11
0.6113
21
1.351
0
LINE
8
BLACK
6
CONTINUOUS
10
0.6113
20
1.351
11
0.613537
21
1.34314
0
LINE
8
BLACK
6
CONTINUOUS
10
0.613537
20
1.34314
11
0.614291
21
1.335
0
LINE
8
BLACK
6
CONTINUOUS
10
0.614291
20
1.335
11
0.613537
21
1.32686
0
LINE
8
BLACK
6
CONTINUOUS
10
0.613537
20
1.32686
11
0.6113
21
1.319
0
LINE
8
BLACK
6
CONTINUOUS
10
0.6113
20
1.319
11
0.607657
21
1.31168
0
LINE
8
BLACK
6
CONTINUOUS
10
0.607657
20
1.31168
11
0.602732
21
1.30516
0
LINE
8
BLACK
6
CONTINUOUS
10
0.602732
20
1.30516
11
0.596691
21
1.29965
0
LINE
8
BLACK
6
CONTINUOUS
10
0.596691
20
1.29965
11
0.589742
21
1.29535
0
LINE
8
BLACK
6
CONTINUOUS
10
0.589742
20
1.29535
11
0.582121
21
1.2924
0
LINE
8
BLACK
6
CONTINUOUS
10
0.582121
20
1.2924
11
0.574087
21
1.2909
0
LINE
8
BLACK
6
CONTINUOUS
10
0.574087
20
1.2909
11
0.565913
21
1.2909
0
LINE
8
BLACK
6
CONTINUOUS
10
0.565913
20
1.2909
11
0.557879
21
1.2924
0
LINE
8
BLACK
6
CONTINUOUS
10
0.557879
20
1.2924
11
0.550258
21
1.29535
0
LINE
8
BLACK
6
CONTINUOUS
10
0.550258
20
1.29535
11
0.543309
21
1.29965
0
LINE
8
BLACK
6
CONTINUOUS
10
0.543309
20
1.29965
11
0.537268
21
1.30516
0
LINE
8
BLACK
6
CONTINUOUS
10
0.537268
20
1.30516
11
0.532343
21
1.31168
0
LINE
8
BLACK
6
CONTINUOUS
10
0.532343
20
1.31168
11
0.5287
21
1.319
0
LINE
8
BLACK
6
CONTINUOUS
10
0.5287
20
1.319
11
0.526463
21
1.32686
0
LINE
8
BLACK
6
CONTINUOUS
10
0.526463
20
1.32686
11
0.525709
21
1.335
0
LINE
8
BLACK
6
CONTINUOUS
10
0.525709
20
1.335
11
0.526463
21
1.34314
0
LINE
8
BLACK
6
CONTINUOUS
10
0.526463
20
1.34314
11
0.5287
21
1.351
0
LINE
8
BLACK
6
CONTINUOUS
10
0.5287
20
1.351
11
0.532343
21
1.35832
0
LINE
8
BLACK
6
CONTINUOUS
10
0.532343
20
1.35832
11
0.537268
21
1.36484
0
LINE
8
BLACK
6
CONTINUOUS
10
0.537268
20
1.36484
11
0.543309
21
1.37035
0
LINE
8
BLACK
6
CONTINUOUS
10
0.543309
20
1.37035
11
0.550258
21
1.37465
0
LINE
8
BLACK
6
CONTINUOUS
10
0.550258
20
1.37465
11
0.557879
21
1.3776
0
LINE
8
BLACK
6
CONTINUOUS
10
0.557879
20
1.3776
11
0.565913
21
1.3791
0
LINE
8
BLACK
6
CONTINUOUS
10
0.565913
20
1.3791
11
0.574087
21
1.3791
0
LINE
8
BLACK
6
CONTINUOUS
10
0.574087
20
1.3791
11
0.582121
21
1.3776
0
LINE
8
BLACK
6
CONTINUOUS
10
2.21
20
1.33
11
2.15
21
1.33
0
LINE
8
BLACK
6
CONTINUOUS
10
2.15
20
1.33
11
2.15
21
1.39
0
LINE
8
BLACK
6
CONTINUOUS
10
2.15
20
1.39
11
2.21
21
1.39
0
LINE
8
BLACK
6
CONTINUOUS
10
2.21
20
1.39
11
2.21
21
1.33
0
LINE
8
BLACK
6
CONTINUOUS
10
2.31
20
1.33
11
2.25
21
1.33
0
LINE
8
BLACK
6
CONTINUOUS
10
2.25
20
1.33
11
2.25
21
1.39
0
LINE
8
BLACK
6
CONTINUOUS
10
2.25
20
1.39
11
2.31
21
1.39
0
LINE
8
BLACK
6
CONTINUOUS
10
2.31
20
1.39
11
2.31
21
1.33
0
LINE
8
BLACK
6
CONTINUOUS
10
0.42051
20
1.71632
11
0.433874
21
1.71315
0
LINE
8
BLACK
6
CONTINUOUS
10
0.433874
20
1.71315
11
0.446781
21
1.70845
0
LINE
8
BLACK
6
CONTINUOUS
10
0.446781
20
1.70845
11
0.459055
21
1.70229
0
LINE
8
BLACK
6
CONTINUOUS
10
0.459055
20
1.70229
11
0.470531
21
1.69474
0
LINE
8
BLACK
6
CONTINUOUS
10
0.470531
20
1.69474
11
0.481052
21
1.68591
0
LINE
8
BLACK
6
CONTINUOUS
10
0.481052
20
1.68591
11
0.490478
21
1.67592
0
LINE
8
BLACK
6
CONTINUOUS
10
0.490478
20
1.67592
11
0.49868
21
1.6649
0
LINE
8
BLACK
6
CONTINUOUS
10
0.49868
20
1.6649
11
0.505547
21
1.65301
0
LINE
8
BLACK
6
CONTINUOUS
10
0.505547
20
1.65301
11
0.510987
21
1.6404
0
LINE
8
BLACK
6
CONTINUOUS
10
0.510987
20
1.6404
11
0.514927
21
1.62724
0
LINE
8
BLACK
6
CONTINUOUS
10
0.514927
20
1.62724
11
0.517312
21
1.61371
0
LINE
8
BLACK
6
CONTINUOUS
10
0.517312
20
1.61371
11
0.51811
21
1.6
0
LINE
8
BLACK
6
CONTINUOUS
10
0.51811
20
1.6
11
0.517312
21
1.58629
0
LINE
8
BLACK
6
CONTINUOUS
10
0.517312
20
1.58629
11
0.514927
21
1.57276
0
LINE
8
BLACK
6
CONTINUOUS
10
0.514927
20
1.57276
11
0.510987
21
1.5596
0
LINE
8
BLACK
6
CONTINUOUS
10
0.510987
20
1.5596
11
0.505547
21
1.54699
0
LINE
8
BLACK
6
CONTINUOUS
10
0.505547
20
1.54699
11
0.49868
21
1.5351
0
LINE
8
BLACK
6
CONTINUOUS
10
0.49868
20
1.5351
11
0.490478
21
1.52408
0
LINE
8
BLACK
6
CONTINUOUS
10
0.490478
20
1.52408
11
0.481052
21
1.51409
0
LINE
8
BLACK
6
CONTINUOUS
10
0.481052
20
1.51409
11
0.470531
21
1.50526
0
LINE
8
BLACK
6
CONTINUOUS
10
0.470531
20
1.50526
11
0.459055
21
1.49771
0
LINE
8
BLACK
6
CONTINUOUS
10
0.459055
20
1.49771
11
0.446781
21
1.49155
0
LINE
8
BLACK
6
CONTINUOUS
10
0.446781
20
1.49155
11
0.433874
21
1.48685
0
LINE
8
BLACK
6
CONTINUOUS
10
0.433874
20
1.48685
11
0.42051
21
1.48368
0
LINE
8
BLACK
6
CONTINUOUS
10
0.42051
20
1.48368
11
0.406867
21
1.48209
0
LINE
8
BLACK
6
CONTINUOUS
10
0.406867
20
1.48209
11
0.393133
21
1.48209
0
LINE
8
BLACK
6
CONTINUOUS
10
0.393133
20
1.48209
11
0.37949
21
1.48368
0
LINE
8
BLACK
6
CONTINUOUS
10
0.37949
20
1.48368
11
0.366126
21
1.48685
0
LINE
8
BLACK
6
CONTINUOUS
10
0.366126
20
1.48685
11
0.353219
21
1.49155
0
LINE
8
BLACK
6
CONTINUOUS
10
0.353219
20
1.49155
11
0.340945
21
1.49771
0
LINE
8
BLACK
6
CONTINUOUS
10
0.340945
20
1.49771
11
0.329469
21
1.50526
0
LINE
8
BLACK
6
CONTINUOUS
10
0.329469
20
1.50526
11
0.318948
21
1.51409
0
LINE
8
BLACK
6
CONTINUOUS
10
0.318948
20
1.51409
11
0.309522
21
1.52408
0
LINE
8
BLACK
6
CONTINUOUS
10
0.309522
20
1.52408
11
0.30132
21
1.5351
0
LINE
8
BLACK
6
CONTINUOUS
10
0.30132
20
1.5351
11
0.294453
21
1.54699
0
LINE
8
BLACK
6
CONTINUOUS
10
0.294453
20
1.54699
11
0.289013
21
1.5596
0
LINE
8
BLACK
6
CONTINUOUS
10
0.289013
20
1.5596
11
0.285073
21
1.57276
0
LINE
8
BLACK
6
CONTINUOUS
10
0.285073
20
1.57276
11
0.282688
21
1.58629
0
LINE
8
BLACK
6
CONTINUOUS
10
0.282688
20
1.58629
11
0.28189
21
1.6
0
LINE
8
BLACK
6
CONTINUOUS
10
0.28189
20
1.6
11
0.282688
21
1.61371
0
LINE
8
BLACK
6
CONTINUOUS
10
0.282688
20
1.61371
11
0.285073
21
1.62724
0
LINE
8
BLACK
6
CONTINUOUS
10
0.285073
20
1.62724
11
0.289013
21
1.6404
0
LINE
8
BLACK
6
CONTINUOUS
10
0.289013
20
1.6404
11
0.294453
21
1.65301
0
LINE
8
BLACK
6
CONTINUOUS
10
0.294453
20
1.65301
11
0.30132
21
1.6649
0
LINE
8
BLACK
6
CONTINUOUS
10
0.30132
20
1.6649
11
0.309522
21
1.67592
0
LINE
8
BLACK
6
CONTINUOUS
10
0.309522
20
1.67592
11
0.318948
21
1.68591
0
LINE
8
BLACK
6
CONTINUOUS
10
0.318948
20
1.68591
11
0.329469
21
1.69474
0
LINE
8
BLACK
6
CONTINUOUS
10
0.329469
20
1.69474
11
0.340945
21
1.70229
0
LINE
8
BLACK
6
CONTINUOUS
10
0.340945
20
1.70229
11
0.353219
21
1.70845
0
LINE
8
BLACK
6
CONTINUOUS
10
0.353219
20
1.70845
11
0.366126
21
1.71315
0
LINE
8
BLACK
6
CONTINUOUS
10
0.366126
20
1.71315
11
0.37949
21
1.71632
0
LINE
8
BLACK
6
CONTINUOUS
10
0.37949
20
1.71632
11
0.393133
21
1.71791
0
LINE
8
BLACK
6
CONTINUOUS
10
0.393133
20
1.71791
11
0.406867
21
1.71791
0
LINE
8
BLACK
6
CONTINUOUS
10
0.406867
20
1.71791
11
0.42051
21
1.71632
0
LINE
8
BLACK
6
CONTINUOUS
10
2.42051
20
1.71632
11
2.43387
21
1.71315
0
LINE
8
BLACK
6
CONTINUOUS
10
2.43387
20
1.71315
11
2.44678
21
1.70845
0
LINE
8
BLACK
6
CONTINUOUS
10
2.44678
20
1.70845
11
2.45906
21
1.70229
0
LINE
8
BLACK
6
CONTINUOUS
10
2.45906
20
1.70229
11
2.47053
21
1.69474
0
LINE
8
BLACK
6
CONTINUOUS
10
2.47053
20
1.69474
11
2.48105
21
1.68591
0
LINE
8
BLACK
6
CONTINUOUS
10
2.48105
20
1.68591
11
2.49048
21
1.67592
0
LINE
8
BLACK
6
CONTINUOUS
10
2.49048
20
1.67592
11
2.49868
21
1.6649
0
LINE
8
BLACK
6
CONTINUOUS
10
2.49868
20
1.6649
11
2.50555
21
1.65301
0
LINE
8
BLACK
6
CONTINUOUS
10
2.50555
20
1.65301
11
2.51099
21
1.6404
0
LINE
8
BLACK
6
CONTINUOUS
10
2.51099
20
1.6404
11
2.51493
21
1.62724
0
LINE
8
BLACK
6
CONTINUOUS
10
2.51493
20
1.62724
11
2.51731
21
1.61371
0
LINE
8
BLACK
6
CONTINUOUS
10
2.51731
20
1.61371
11
2.51811
21
1.6
0
LINE
8
BLACK
6
CONTINUOUS
10
2.51811
20
1.6
11
2.51731
21
1.58629
0
LINE
8
BLACK
6
CONTINUOUS
10
2.51731
20
1.58629
11
2.51493
21
1.57276
0
LINE
8
BLACK
6
CONTINUOUS
10
2.51493
20
1.57276
11
2.51099
21
1.5596
0
LINE
8
BLACK
6
CONTINUOUS
10
2.51099
20
1.5596
11
2.50555
21
1.54699
0
LINE
8
BLACK
6
CONTINUOUS
10
2.50555
20
1.54699
11
2.49868
21
1.5351
0
LINE
8
BLACK
6
CONTINUOUS
10
2.49868
20
1.5351
11
2.49048
21
1.52408
0
LINE
8
BLACK
6
CONTINUOUS
10
2.49048
20
1.52408
11
2.48105
21
1.51409
0
LINE
8
BLACK
6
CONTINUOUS
10
2.48105
20
1.51409
11
2.47053
21
1.50526
0
LINE
8
BLACK
6
CONTINUOUS
10
2.47053
20
1.50526
11
2.45906
21
1.49771
0
LINE
8
BLACK
6
CONTINUOUS
10
2.45906
20
1.49771
11
2.44678
21
1.49155
0
LINE
8
BLACK
6
CONTINUOUS
10
2.44678
20
1.49155
11
2.43387
21
1.48685
0
LINE
8
BLACK
6
CONTINUOUS
10
2.43387
20
1.48685
11
2.42051
21
1.48368
0
LINE
8
BLACK
6
CONTINUOUS
10
2.42051
20
1.48368
11
2.40687
21
1.48209
0
LINE
8
BLACK
6
CONTINUOUS
10
2.40687
20
1.48209
11
2.39313
21
1.48209
0
LINE
8
BLACK
6
CONTINUOUS
10
2.39313
20
1.48209
11
2.37949
21
1.48368
0
LINE
8
BLACK
6
CONTINUOUS
10
2.37949
20
1.48368
11
2.36613
21
1.48685
0
LINE
8
BLACK
6
CONTINUOUS
10
2.36613
20
1.48685
11
2.35322
21
1.49155
0
LINE
8
BLACK
6
CONTINUOUS
10
2.35322
20
1.49155
11
2.34094
21
1.49771
0
LINE
8
BLACK
6
CONTINUOUS
10
2.34094
20
1.49771
11
2.32947
21
1.50526
0
LINE
8
BLACK
6
CONTINUOUS
10
2.32947
20
1.50526
11
2.31895
21
1.51409
0
LINE
8
BLACK
6
CONTINUOUS
10
2.31895
20
1.51409
11
2.30952
21
1.52408
0
LINE
8
BLACK
6
CONTINUOUS
10
2.30952
20
1.52408
11
2.30132
21
1.5351
0
LINE
8
BLACK
6
CONTINUOUS
10
2.30132
20
1.5351
11
2.29445
21
1.54699
0
LINE
8
BLACK
6
CONTINUOUS
10
2.29445
20
1.54699
11
2.28901
21
1.5596
0
LINE
8
BLACK
6
CONTINUOUS
10
2.28901
20
1.5596
11
2.28507
21
1.57276
0
LINE
8
BLACK
6
CONTINUOUS
10
2.28507
20
1.57276
11
2.28269
21
1.58629
0
LINE
8
BLACK
6
CONTINUOUS
10
2.28269
20
1.58629
11
2.28189
21
1.6
0
LINE
8
BLACK
6
CONTINUOUS
10
2.28189
20
1.6
11
2.28269
21
1.61371
0
LINE
8
BLACK
6
CONTINUOUS
10
2.28269
20
1.61371
11
2.28507
21
1.62724
0
LINE
8
BLACK
6
CONTINUOUS
10
2.28507
20
1.62724
11
2.28901
21
1.6404
0
LINE
8
BLACK
6
CONTINUOUS
10
2.28901
20
1.6404
11
2.29445
21
1.65301
0
LINE
8
BLACK
6
CONTINUOUS
10
2.29445
20
1.65301
11
2.30132
21
1.6649
0
LINE
8
BLACK
6
CONTINUOUS
10
2.30132
20
1.6649
11
2.30952
21
1.67592
0
LINE
8
BLACK
6
CONTINUOUS
10
2.30952
20
1.67592
11
2.31895
21
1.68591
0
LINE
8
BLACK
6
CONTINUOUS
10
2.31895
20
1.68591
11
2.32947
21
1.69474
0
LINE
8
BLACK
6
CONTINUOUS
10
2.32947
20
1.69474
11
2.34094
21
1.70229
0
LINE
8
BLACK
6
CONTINUOUS
10
2.34094
20
1.70229
11
2.35322
21
1.70845
0
LINE
8
BLACK
6
CONTINUOUS
10
2.35322
20
1.70845
11
2.36613
21
1.71315
0
LINE
8
BLACK
6
CONTINUOUS
10
2.36613
20
1.71315
11
2.37949
21
1.71632
0
LINE
8
BLACK
6
CONTINUOUS
10
2.37949
20
1.71632
11
2.39313
21
1.71791
0
LINE
8
BLACK
6
CONTINUOUS
10
2.39313
20
1.71791
11
2.40687
21
1.71791
0
LINE
8
BLACK
6
CONTINUOUS
10
2.40687
20
1.71791
11
2.42051
21
1.71632
  0
ENDSEC
  0
EOF
