  0
SECTION
  2
HEADER
  9
$ANGBASE
  50
0.0
  9
$ANGDIR
  70
1
  9
$MEASUREMENT
  70
0
  0
ENDSEC
  0
SECTION
  2
TABLES
  0
TABLE
  2
LTYPE
  70
4
  0
LTYPE
  5
40F
  2
CONTINUOUS
  70
0
  3
Solid line
  72
65
  73
0
  40
0.0
  0
LTYPE
  5
410
  2
DASHDOT
 70
0
  3
Dash Dot ____ _ ____ _
 72
65
 73
4
 40
2.0
 49
1.25
 49
-0.25
 49
0.25
 49
-0.25
  0
LTYPE
  5
411
  2
DASHED
 70
0
  3
Dashed __ __ __ __ __
 72
65
 73
2
 40
0.75
 49
0.5
 49
-0.25
  0
LTYPE
  5
43B
  2
DOTTED
 70
0
  3
Dotted .  .  .  .
 72
65
 73
2
 40
0.2
 49
0.0
 49
-0.2
  0
ENDTAB
  0
TABLE
  2
STYLE
  70
4
  0
STYLE
  2
KICAD
  70
0
  40
0
  41
1
  42
1
  50
0
  71
0
  3
isocp.shx
  0
STYLE
  2
KICADB
  70
0
  40
0
  41
1
  42
1
  50
0
  71
0
  3
isocp.shx
  0
STYLE
  2
KICADI
  70
0
  40
0
  41
1
  42
1
  50
15
  71
0
  3
isocp.shx
  0
STYLE
  2
KICADBI
  70
0
  40
0
  41
1
  42
1
  50
15
  71
0
  3
isocp.shx
  0
ENDTAB
  0
TABLE
  2
LAYER
  70
1
  0
LAYER
  2
BLACK
  70
0
  62
7
  6
CONTINUOUS
  0
ENDTAB
  0
ENDSEC
  0
SECTION
  2
ENTITIES
0
LINE
8
BLACK
6
CONTINUOUS
10
0.191325
20
1.79277
11
0.192872
21
1.79148
0
LINE
8
BLACK
6
CONTINUOUS
10
0.192872
20
1.79148
11
0.193223
21
1.78949
0
LINE
8
BLACK
6
CONTINUOUS
10
0.193223
20
1.78949
11
0.192213
21
1.78774
0
LINE
8
BLACK
6
CONTINUOUS
10
0.192213
20
1.78774
11
0.190315
21
1.78705
0
LINE
8
BLACK
6
CONTINUOUS
10
0.190315
20
1.78705
11
0.044866
21
1.78705
0
LINE
8
BLACK
6
CONTINUOUS
10
0.044866
20
1.78705
11
0.0657066
21
1.74701
0
LINE
8
BLACK
6
CONTINUOUS
10
0.0657066
20
1.74701
11
0.0660149
21
1.74603
0
LINE
8
BLACK
6
CONTINUOUS
10
0.0660149
20
1.74603
11
0.0655778
21
1.74406
0
LINE
8
BLACK
6
CONTINUOUS
10
0.0655778
20
1.74406
11
0.0639754
21
1.74283
0
LINE
8
BLACK
6
CONTINUOUS
10
0.0639754
20
1.74283
11
0.0619575
21
1.74292
0
LINE
8
BLACK
6
CONTINUOUS
10
0.0619575
20
1.74292
11
0.0604683
21
1.74429
0
LINE
8
BLACK
6
CONTINUOUS
10
0.0604683
20
1.74429
11
0.0429528
21
1.77793
0
LINE
8
BLACK
6
CONTINUOUS
10
0.0429528
20
1.77793
11
0.0429528
21
0.222067
0
LINE
8
BLACK
6
CONTINUOUS
10
0.0429528
20
0.222067
11
0.0604683
21
0.255714
0
LINE
8
BLACK
6
CONTINUOUS
10
0.0604683
20
0.255714
11
0.0610926
21
0.256528
0
LINE
8
BLACK
6
CONTINUOUS
10
0.0610926
20
0.256528
11
0.0629586
21
0.2573
0
LINE
8
BLACK
6
CONTINUOUS
10
0.0629586
20
0.2573
11
0.064885
21
0.256693
0
LINE
8
BLACK
6
CONTINUOUS
10
0.064885
20
0.256693
11
0.0659702
21
0.25499
0
LINE
8
BLACK
6
CONTINUOUS
10
0.0659702
20
0.25499
11
0.0657066
21
0.252987
0
LINE
8
BLACK
6
CONTINUOUS
10
0.0657066
20
0.252987
11
0.044866
21
0.212953
0
LINE
8
BLACK
6
CONTINUOUS
10
0.044866
20
0.212953
11
0.190315
21
0.212953
0
LINE
8
BLACK
6
CONTINUOUS
10
0.190315
20
0.212953
11
0.191325
21
0.212775
0
LINE
8
BLACK
6
CONTINUOUS
10
0.191325
20
0.212775
11
0.192872
21
0.211476
0
LINE
8
BLACK
6
CONTINUOUS
10
0.192872
20
0.211476
11
0.193223
21
0.209487
0
LINE
8
BLACK
6
CONTINUOUS
10
0.193223
20
0.209487
11
0.192213
21
0.207738
0
LINE
8
BLACK
6
CONTINUOUS
10
0.192213
20
0.207738
11
0.190315
21
0.207047
0
LINE
8
BLACK
6
CONTINUOUS
10
0.190315
20
0.207047
11
0.0169126
21
0.207047
0
LINE
8
BLACK
6
CONTINUOUS
10
0.0169126
20
0.207047
11
0.0159027
21
0.207225
0
LINE
8
BLACK
6
CONTINUOUS
10
0.0159027
20
0.207225
11
0.0143554
21
0.208524
0
LINE
8
BLACK
6
CONTINUOUS
10
0.0143554
20
0.208524
11
0.0140047
21
0.210513
0
LINE
8
BLACK
6
CONTINUOUS
10
0.0140047
20
0.210513
11
0.0150146
21
0.212262
0
LINE
8
BLACK
6
CONTINUOUS
10
0.0150146
20
0.212262
11
0.0169126
21
0.212953
0
LINE
8
BLACK
6
CONTINUOUS
10
0.0169126
20
0.212953
11
0.035134
21
0.212953
0
LINE
8
BLACK
6
CONTINUOUS
10
0.035134
20
0.212953
11
0.0142934
21
0.252987
0
LINE
8
BLACK
6
CONTINUOUS
10
0.0142934
20
0.252987
11
0.013985
21
0.253965
0
LINE
8
BLACK
6
CONTINUOUS
10
0.013985
20
0.253965
11
0.0144222
21
0.255937
0
LINE
8
BLACK
6
CONTINUOUS
10
0.0144222
20
0.255937
11
0.0160246
21
0.257167
0
LINE
8
BLACK
6
CONTINUOUS
10
0.0160246
20
0.257167
11
0.0180425
21
0.257079
0
LINE
8
BLACK
6
CONTINUOUS
10
0.0180425
20
0.257079
11
0.0195317
21
0.255714
0
LINE
8
BLACK
6
CONTINUOUS
10
0.0195317
20
0.255714
11
0.0370472
21
0.222067
0
LINE
8
BLACK
6
CONTINUOUS
10
0.0370472
20
0.222067
11
0.0370472
21
1.77793
0
LINE
8
BLACK
6
CONTINUOUS
10
0.0370472
20
1.77793
11
0.0195317
21
1.74429
0
LINE
8
BLACK
6
CONTINUOUS
10
0.0195317
20
1.74429
11
0.0189074
21
1.74347
0
LINE
8
BLACK
6
CONTINUOUS
10
0.0189074
20
1.74347
11
0.0170413
21
1.7427
0
LINE
8
BLACK
6
CONTINUOUS
10
0.0170413
20
1.7427
11
0.015115
21
1.74331
0
LINE
8
BLACK
6
CONTINUOUS
10
0.015115
20
1.74331
11
0.0140298
21
1.74501
0
LINE
8
BLACK
6
CONTINUOUS
10
0.0140298
20
1.74501
11
0.0142934
21
1.74701
0
LINE
8
BLACK
6
CONTINUOUS
10
0.0142934
20
1.74701
11
0.035134
21
1.78705
0
LINE
8
BLACK
6
CONTINUOUS
10
0.035134
20
1.78705
11
0.0169126
21
1.78705
0
LINE
8
BLACK
6
CONTINUOUS
10
0.0169126
20
1.78705
11
0.0159027
21
1.78723
0
LINE
8
BLACK
6
CONTINUOUS
10
0.0159027
20
1.78723
11
0.0143554
21
1.78852
0
LINE
8
BLACK
6
CONTINUOUS
10
0.0143554
20
1.78852
11
0.0140047
21
1.79051
0
LINE
8
BLACK
6
CONTINUOUS
10
0.0140047
20
1.79051
11
0.0150146
21
1.79226
0
LINE
8
BLACK
6
CONTINUOUS
10
0.0150146
20
1.79226
11
0.0169126
21
1.79295
0
LINE
8
BLACK
6
CONTINUOUS
10
0.0169126
20
1.79295
11
0.190315
21
1.79295
0
LINE
8
BLACK
6
CONTINUOUS
10
0.190315
20
1.79295
11
0.191325
21
1.79277
0
LINE
8
BLACK
6
CONTINUOUS
10
0.0148926
20
0.880038
11
0.0155834
21
0.87814
0
LINE
8
BLACK
6
CONTINUOUS
10
0.0155834
20
0.87814
11
0.0155834
21
0.855643
0
LINE
8
BLACK
6
CONTINUOUS
10
0.0155834
20
0.855643
11
0.0154054
21
0.854633
0
LINE
8
BLACK
6
CONTINUOUS
10
0.0154054
20
0.854633
11
0.014107
21
0.853086
0
LINE
8
BLACK
6
CONTINUOUS
10
0.014107
20
0.853086
11
0.0121179
21
0.852735
0
LINE
8
BLACK
6
CONTINUOUS
10
0.0121179
20
0.852735
11
0.0103687
21
0.853745
0
LINE
8
BLACK
6
CONTINUOUS
10
0.0103687
20
0.853745
11
0.00967791
21
0.855643
0
LINE
8
BLACK
6
CONTINUOUS
10
0.00967791
20
0.855643
11
0.00967791
21
0.863939
0
LINE
8
BLACK
6
CONTINUOUS
10
0.00967791
20
0.863939
11
-0.0177361
21
0.863939
0
LINE
8
BLACK
6
CONTINUOUS
10
-0.0177361
20
0.863939
11
-0.0152777
21
0.861481
0
LINE
8
BLACK
6
CONTINUOUS
10
-0.0152777
20
0.861481
11
-0.0147713
21
0.860757
0
LINE
8
BLACK
6
CONTINUOUS
10
-0.0147713
20
0.860757
11
-0.0147246
21
0.860713
0
LINE
8
BLACK
6
CONTINUOUS
10
-0.0147246
20
0.860713
11
-0.0128498
21
0.856964
0
LINE
8
BLACK
6
CONTINUOUS
10
-0.0128498
20
0.856964
11
-0.0125574
21
0.855981
0
LINE
8
BLACK
6
CONTINUOUS
10
-0.0125574
20
0.855981
11
-0.0130267
21
0.854016
0
LINE
8
BLACK
6
CONTINUOUS
10
-0.0130267
20
0.854016
11
-0.014649
21
0.852813
0
LINE
8
BLACK
6
CONTINUOUS
10
-0.014649
20
0.852813
11
-0.0166652
21
0.852934
0
LINE
8
BLACK
6
CONTINUOUS
10
-0.0166652
20
0.852934
11
-0.0181319
21
0.854323
0
LINE
8
BLACK
6
CONTINUOUS
10
-0.0181319
20
0.854323
11
-0.0197923
21
0.857644
0
LINE
8
BLACK
6
CONTINUOUS
10
-0.0197923
20
0.857644
11
-0.0229963
21
0.860847
0
LINE
8
BLACK
6
CONTINUOUS
10
-0.0229963
20
0.860847
11
-0.0283773
21
0.864435
0
LINE
8
BLACK
6
CONTINUOUS
10
-0.0283773
20
0.864435
11
-0.0291188
21
0.865143
0
LINE
8
BLACK
6
CONTINUOUS
10
-0.0291188
20
0.865143
11
-0.0291665
21
0.865306
0
LINE
8
BLACK
6
CONTINUOUS
10
-0.0291665
20
0.865306
11
-0.0292966
21
0.865415
0
LINE
8
BLACK
6
CONTINUOUS
10
-0.0292966
20
0.865415
11
-0.0294454
21
0.866259
0
LINE
8
BLACK
6
CONTINUOUS
10
-0.0294454
20
0.866259
11
-0.0296861
21
0.867082
0
LINE
8
BLACK
6
CONTINUOUS
10
-0.0296861
20
0.867082
11
-0.0296179
21
0.867237
0
LINE
8
BLACK
6
CONTINUOUS
10
-0.0296179
20
0.867237
11
-0.0296473
21
0.867404
0
LINE
8
BLACK
6
CONTINUOUS
10
-0.0296473
20
0.867404
11
-0.0292189
21
0.868146
0
LINE
8
BLACK
6
CONTINUOUS
10
-0.0292189
20
0.868146
11
-0.0288745
21
0.868931
0
LINE
8
BLACK
6
CONTINUOUS
10
-0.0288745
20
0.868931
11
-0.0287223
21
0.869007
0
LINE
8
BLACK
6
CONTINUOUS
10
-0.0287223
20
0.869007
11
-0.0286374
21
0.869154
0
LINE
8
BLACK
6
CONTINUOUS
10
-0.0286374
20
0.869154
11
-0.0278322
21
0.869447
0
LINE
8
BLACK
6
CONTINUOUS
10
-0.0278322
20
0.869447
11
-0.0270639
21
0.869826
0
LINE
8
BLACK
6
CONTINUOUS
10
-0.0270639
20
0.869826
11
-0.026899
21
0.869786
0
LINE
8
BLACK
6
CONTINUOUS
10
-0.026899
20
0.869786
11
-0.0267394
21
0.869844
0
LINE
8
BLACK
6
CONTINUOUS
10
-0.0267394
20
0.869844
11
0.00967791
21
0.869844
0
LINE
8
BLACK
6
CONTINUOUS
10
0.00967791
20
0.869844
11
0.00967791
21
0.87814
0
LINE
8
BLACK
6
CONTINUOUS
10
0.00967791
20
0.87814
11
0.00985598
21
0.87915
0
LINE
8
BLACK
6
CONTINUOUS
10
0.00985598
20
0.87915
11
0.0111543
21
0.880697
0
LINE
8
BLACK
6
CONTINUOUS
10
0.0111543
20
0.880697
11
0.0131434
21
0.881048
0
LINE
8
BLACK
6
CONTINUOUS
10
0.0131434
20
0.881048
11
0.0148926
21
0.880038
0
LINE
8
BLACK
6
CONTINUOUS
10
0.0061415
20
0.91841
11
0.00627673
21
0.918297
0
LINE
8
BLACK
6
CONTINUOUS
10
0.00627673
20
0.918297
11
0.00645209
21
0.918277
0
LINE
8
BLACK
6
CONTINUOUS
10
0.00645209
20
0.918277
11
0.0102016
21
0.916402
0
LINE
8
BLACK
6
CONTINUOUS
10
0.0102016
20
0.916402
11
0.0109106
21
0.915876
0
LINE
8
BLACK
6
CONTINUOUS
10
0.0109106
20
0.915876
11
0.010969
21
0.915849
0
LINE
8
BLACK
6
CONTINUOUS
10
0.010969
20
0.915849
11
0.0128438
21
0.913974
0
LINE
8
BLACK
6
CONTINUOUS
10
0.0128438
20
0.913974
11
0.0133502
21
0.913251
0
LINE
8
BLACK
6
CONTINUOUS
10
0.0133502
20
0.913251
11
0.0133969
21
0.913207
0
LINE
8
BLACK
6
CONTINUOUS
10
0.0133969
20
0.913207
11
0.0152717
21
0.909457
0
LINE
8
BLACK
6
CONTINUOUS
10
0.0152717
20
0.909457
11
0.0155641
21
0.908474
0
LINE
8
BLACK
6
CONTINUOUS
10
0.0155641
20
0.908474
11
0.015523
21
0.908302
0
LINE
8
BLACK
6
CONTINUOUS
10
0.015523
20
0.908302
11
0.0155834
21
0.908136
0
LINE
8
BLACK
6
CONTINUOUS
10
0.0155834
20
0.908136
11
0.0155834
21
0.898763
0
LINE
8
BLACK
6
CONTINUOUS
10
0.0155834
20
0.898763
11
0.0154054
21
0.897753
0
LINE
8
BLACK
6
CONTINUOUS
10
0.0154054
20
0.897753
11
0.0152919
21
0.897618
0
LINE
8
BLACK
6
CONTINUOUS
10
0.0152919
20
0.897618
11
0.0152717
21
0.897442
0
LINE
8
BLACK
6
CONTINUOUS
10
0.0152717
20
0.897442
11
0.0133969
21
0.893693
0
LINE
8
BLACK
6
CONTINUOUS
10
0.0133969
20
0.893693
11
0.0128709
21
0.892984
0
LINE
8
BLACK
6
CONTINUOUS
10
0.0128709
20
0.892984
11
0.0128438
21
0.892925
0
LINE
8
BLACK
6
CONTINUOUS
10
0.0128438
20
0.892925
11
0.010969
21
0.89105
0
LINE
8
BLACK
6
CONTINUOUS
10
0.010969
20
0.89105
11
0.0101289
21
0.890462
0
LINE
8
BLACK
6
CONTINUOUS
10
0.0101289
20
0.890462
11
0.00811685
21
0.890286
0
LINE
8
BLACK
6
CONTINUOUS
10
0.00811685
20
0.890286
11
0.00646232
21
0.891445
0
LINE
8
BLACK
6
CONTINUOUS
10
0.00646232
20
0.891445
11
0.00593961
21
0.893396
0
LINE
8
BLACK
6
CONTINUOUS
10
0.00593961
20
0.893396
11
0.00679323
21
0.895226
0
LINE
8
BLACK
6
CONTINUOUS
10
0.00679323
20
0.895226
11
0.00832917
21
0.896762
0
LINE
8
BLACK
6
CONTINUOUS
10
0.00832917
20
0.896762
11
0.00967791
21
0.89946
0
LINE
8
BLACK
6
CONTINUOUS
10
0.00967791
20
0.89946
11
0.00967791
21
0.907439
0
LINE
8
BLACK
6
CONTINUOUS
10
0.00967791
20
0.907439
11
0.00832917
21
0.910137
0
LINE
8
BLACK
6
CONTINUOUS
10
0.00832917
20
0.910137
11
0.00713201
21
0.911334
0
LINE
8
BLACK
6
CONTINUOUS
10
0.00713201
20
0.911334
11
0.00443453
21
0.912683
0
LINE
8
BLACK
6
CONTINUOUS
10
0.00443453
20
0.912683
11
-0.0035452
21
0.912683
0
LINE
8
BLACK
6
CONTINUOUS
10
-0.0035452
20
0.912683
11
-0.00624268
21
0.911334
0
LINE
8
BLACK
6
CONTINUOUS
10
-0.00624268
20
0.911334
11
-0.0074398
21
0.910137
0
LINE
8
BLACK
6
CONTINUOUS
10
-0.0074398
20
0.910137
11
-0.00878854
21
0.907439
0
LINE
8
BLACK
6
CONTINUOUS
10
-0.00878854
20
0.907439
11
-0.00878854
21
0.89946
0
LINE
8
BLACK
6
CONTINUOUS
10
-0.00878854
20
0.89946
11
-0.0074398
21
0.896762
0
LINE
8
BLACK
6
CONTINUOUS
10
-0.0074398
20
0.896762
11
-0.00590386
21
0.895226
0
LINE
8
BLACK
6
CONTINUOUS
10
-0.00590386
20
0.895226
11
-0.00531567
21
0.894386
0
LINE
8
BLACK
6
CONTINUOUS
10
-0.00531567
20
0.894386
11
-0.00531402
21
0.894367
0
LINE
8
BLACK
6
CONTINUOUS
10
-0.00531402
20
0.894367
11
-0.00530039
21
0.894353
0
LINE
8
BLACK
6
CONTINUOUS
10
-0.00530039
20
0.894353
11
-0.0052261
21
0.893362
0
LINE
8
BLACK
6
CONTINUOUS
10
-0.0052261
20
0.893362
11
-0.00513965
21
0.892374
0
LINE
8
BLACK
6
CONTINUOUS
10
-0.00513965
20
0.892374
11
-0.00515083
21
0.892358
0
LINE
8
BLACK
6
CONTINUOUS
10
-0.00515083
20
0.892358
11
-0.00514933
21
0.892339
0
LINE
8
BLACK
6
CONTINUOUS
10
-0.00514933
20
0.892339
11
-0.00572933
21
0.891532
0
LINE
8
BLACK
6
CONTINUOUS
10
-0.00572933
20
0.891532
11
-0.00629815
21
0.89072
0
LINE
8
BLACK
6
CONTINUOUS
10
-0.00629815
20
0.89072
11
-0.00631697
21
0.890715
0
LINE
8
BLACK
6
CONTINUOUS
10
-0.00631697
20
0.890715
11
-0.00632827
21
0.890699
0
LINE
8
BLACK
6
CONTINUOUS
10
-0.00632827
20
0.890699
11
-0.00729047
21
0.890454
0
LINE
8
BLACK
6
CONTINUOUS
10
-0.00729047
20
0.890454
11
-0.00824913
21
0.890197
0
LINE
8
BLACK
6
CONTINUOUS
10
-0.00824913
20
0.890197
11
-0.00826673
21
0.890205
0
LINE
8
BLACK
6
CONTINUOUS
10
-0.00826673
20
0.890205
11
-0.00828559
21
0.8902
0
LINE
8
BLACK
6
CONTINUOUS
10
-0.00828559
20
0.8902
11
-0.0270332
21
0.892075
0
LINE
8
BLACK
6
CONTINUOUS
10
-0.0270332
20
0.892075
11
-0.0271836
21
0.892117
0
LINE
8
BLACK
6
CONTINUOUS
10
-0.0271836
20
0.892117
11
-0.0272522
21
0.892105
0
LINE
8
BLACK
6
CONTINUOUS
10
-0.0272522
20
0.892105
11
-0.0273582
21
0.892166
0
LINE
8
BLACK
6
CONTINUOUS
10
-0.0273582
20
0.892166
11
-0.0280204
21
0.892353
0
LINE
8
BLACK
6
CONTINUOUS
10
-0.0280204
20
0.892353
11
-0.0284583
21
0.892802
0
LINE
8
BLACK
6
CONTINUOUS
10
-0.0284583
20
0.892802
11
-0.0290013
21
0.893115
0
LINE
8
BLACK
6
CONTINUOUS
10
-0.0290013
20
0.893115
11
-0.0291425
21
0.893503
0
LINE
8
BLACK
6
CONTINUOUS
10
-0.0291425
20
0.893503
11
-0.0294308
21
0.893799
0
LINE
8
BLACK
6
CONTINUOUS
10
-0.0294308
20
0.893799
11
-0.0294777
21
0.894424
0
LINE
8
BLACK
6
CONTINUOUS
10
-0.0294777
20
0.894424
11
-0.0296922
21
0.895013
0
LINE
8
BLACK
6
CONTINUOUS
10
-0.0296922
20
0.895013
11
-0.0296922
21
0.913761
0
LINE
8
BLACK
6
CONTINUOUS
10
-0.0296922
20
0.913761
11
-0.0295141
21
0.914771
0
LINE
8
BLACK
6
CONTINUOUS
10
-0.0295141
20
0.914771
11
-0.0282158
21
0.916318
0
LINE
8
BLACK
6
CONTINUOUS
10
-0.0282158
20
0.916318
11
-0.0262267
21
0.916669
0
LINE
8
BLACK
6
CONTINUOUS
10
-0.0262267
20
0.916669
11
-0.0244775
21
0.915659
0
LINE
8
BLACK
6
CONTINUOUS
10
-0.0244775
20
0.915659
11
-0.0237867
21
0.913761
0
LINE
8
BLACK
6
CONTINUOUS
10
-0.0237867
20
0.913761
11
-0.0237867
21
0.897685
0
LINE
8
BLACK
6
CONTINUOUS
10
-0.0237867
20
0.897685
11
-0.0140154
21
0.896708
0
LINE
8
BLACK
6
CONTINUOUS
10
-0.0140154
20
0.896708
11
-0.0143823
21
0.897442
0
LINE
8
BLACK
6
CONTINUOUS
10
-0.0143823
20
0.897442
11
-0.0146747
21
0.898425
0
LINE
8
BLACK
6
CONTINUOUS
10
-0.0146747
20
0.898425
11
-0.0146337
21
0.898597
0
LINE
8
BLACK
6
CONTINUOUS
10
-0.0146337
20
0.898597
11
-0.0146941
21
0.898763
0
LINE
8
BLACK
6
CONTINUOUS
10
-0.0146941
20
0.898763
11
-0.0146941
21
0.908136
0
LINE
8
BLACK
6
CONTINUOUS
10
-0.0146941
20
0.908136
11
-0.014516
21
0.909146
0
LINE
8
BLACK
6
CONTINUOUS
10
-0.014516
20
0.909146
11
-0.0144025
21
0.909282
0
LINE
8
BLACK
6
CONTINUOUS
10
-0.0144025
20
0.909282
11
-0.0143823
21
0.909457
0
LINE
8
BLACK
6
CONTINUOUS
10
-0.0143823
20
0.909457
11
-0.0125076
21
0.913207
0
LINE
8
BLACK
6
CONTINUOUS
10
-0.0125076
20
0.913207
11
-0.0119817
21
0.913916
0
LINE
8
BLACK
6
CONTINUOUS
10
-0.0119817
20
0.913916
11
-0.0119544
21
0.913974
0
LINE
8
BLACK
6
CONTINUOUS
10
-0.0119544
20
0.913974
11
-0.0100797
21
0.915849
0
LINE
8
BLACK
6
CONTINUOUS
10
-0.0100797
20
0.915849
11
-0.00935661
21
0.916355
0
LINE
8
BLACK
6
CONTINUOUS
10
-0.00935661
20
0.916355
11
-0.00931228
21
0.916402
0
LINE
8
BLACK
6
CONTINUOUS
10
-0.00931228
20
0.916402
11
-0.00556276
21
0.918277
0
LINE
8
BLACK
6
CONTINUOUS
10
-0.00556276
20
0.918277
11
-0.00457984
21
0.918569
0
LINE
8
BLACK
6
CONTINUOUS
10
-0.00457984
20
0.918569
11
-0.00440815
21
0.918528
0
LINE
8
BLACK
6
CONTINUOUS
10
-0.00440815
20
0.918528
11
-0.00424224
21
0.918588
0
LINE
8
BLACK
6
CONTINUOUS
10
-0.00424224
20
0.918588
11
0.00513157
21
0.918588
0
LINE
8
BLACK
6
CONTINUOUS
10
0.00513157
20
0.918588
11
0.0061415
21
0.91841
0
LINE
8
BLACK
6
CONTINUOUS
10
-0.0163557
20
0.955906
11
-0.0162204
21
0.955792
0
LINE
8
BLACK
6
CONTINUOUS
10
-0.0162204
20
0.955792
11
-0.0160451
21
0.955772
0
LINE
8
BLACK
6
CONTINUOUS
10
-0.0160451
20
0.955772
11
-0.0122956
21
0.953897
0
LINE
8
BLACK
6
CONTINUOUS
10
-0.0122956
20
0.953897
11
-0.0115865
21
0.953371
0
LINE
8
BLACK
6
CONTINUOUS
10
-0.0115865
20
0.953371
11
-0.0115281
21
0.953344
0
LINE
8
BLACK
6
CONTINUOUS
10
-0.0115281
20
0.953344
11
-0.00986654
21
0.951682
0
LINE
8
BLACK
6
CONTINUOUS
10
-0.00986654
20
0.951682
11
-0.00820492
21
0.953344
0
LINE
8
BLACK
6
CONTINUOUS
10
-0.00820492
20
0.953344
11
-0.00748185
21
0.95385
0
LINE
8
BLACK
6
CONTINUOUS
10
-0.00748185
20
0.95385
11
-0.00743752
21
0.953897
0
LINE
8
BLACK
6
CONTINUOUS
10
-0.00743752
20
0.953897
11
-0.00368799
21
0.955772
0
LINE
8
BLACK
6
CONTINUOUS
10
-0.00368799
20
0.955772
11
-0.00270508
21
0.956064
0
LINE
8
BLACK
6
CONTINUOUS
10
-0.00270508
20
0.956064
11
-0.00253339
21
0.956023
0
LINE
8
BLACK
6
CONTINUOUS
10
-0.00253339
20
0.956023
11
-0.00236748
21
0.956084
0
LINE
8
BLACK
6
CONTINUOUS
10
-0.00236748
20
0.956084
11
0.00513157
21
0.956084
0
LINE
8
BLACK
6
CONTINUOUS
10
0.00513157
20
0.956084
11
0.0061415
21
0.955906
0
LINE
8
BLACK
6
CONTINUOUS
10
0.0061415
20
0.955906
11
0.00627673
21
0.955792
0
LINE
8
BLACK
6
CONTINUOUS
10
0.00627673
20
0.955792
11
0.00645209
21
0.955772
0
LINE
8
BLACK
6
CONTINUOUS
10
0.00645209
20
0.955772
11
0.0102016
21
0.953897
0
LINE
8
BLACK
6
CONTINUOUS
10
0.0102016
20
0.953897
11
0.0109106
21
0.953371
0
LINE
8
BLACK
6
CONTINUOUS
10
0.0109106
20
0.953371
11
0.010969
21
0.953344
0
LINE
8
BLACK
6
CONTINUOUS
10
0.010969
20
0.953344
11
0.0128438
21
0.951469
0
LINE
8
BLACK
6
CONTINUOUS
10
0.0128438
20
0.951469
11
0.0133502
21
0.950746
0
LINE
8
BLACK
6
CONTINUOUS
10
0.0133502
20
0.950746
11
0.0133969
21
0.950702
0
LINE
8
BLACK
6
CONTINUOUS
10
0.0133969
20
0.950702
11
0.0152717
21
0.946952
0
LINE
8
BLACK
6
CONTINUOUS
10
0.0152717
20
0.946952
11
0.0155641
21
0.945969
0
LINE
8
BLACK
6
CONTINUOUS
10
0.0155641
20
0.945969
11
0.015523
21
0.945798
0
LINE
8
BLACK
6
CONTINUOUS
10
0.015523
20
0.945798
11
0.0155834
21
0.945632
0
LINE
8
BLACK
6
CONTINUOUS
10
0.0155834
20
0.945632
11
0.0155834
21
0.938133
0
LINE
8
BLACK
6
CONTINUOUS
10
0.0155834
20
0.938133
11
0.0154054
21
0.937123
0
LINE
8
BLACK
6
CONTINUOUS
10
0.0154054
20
0.937123
11
0.0152919
21
0.936988
0
LINE
8
BLACK
6
CONTINUOUS
10
0.0152919
20
0.936988
11
0.0152717
21
0.936812
0
LINE
8
BLACK
6
CONTINUOUS
10
0.0152717
20
0.936812
11
0.0133969
21
0.933063
0
LINE
8
BLACK
6
CONTINUOUS
10
0.0133969
20
0.933063
11
0.0128709
21
0.932354
0
LINE
8
BLACK
6
CONTINUOUS
10
0.0128709
20
0.932354
11
0.0128438
21
0.932295
0
LINE
8
BLACK
6
CONTINUOUS
10
0.0128438
20
0.932295
11
0.010969
21
0.930421
0
LINE
8
BLACK
6
CONTINUOUS
10
0.010969
20
0.930421
11
0.0102459
21
0.929914
0
LINE
8
BLACK
6
CONTINUOUS
10
0.0102459
20
0.929914
11
0.0102016
21
0.929867
0
LINE
8
BLACK
6
CONTINUOUS
10
0.0102016
20
0.929867
11
0.00645209
21
0.927993
0
LINE
8
BLACK
6
CONTINUOUS
10
0.00645209
20
0.927993
11
0.00546913
21
0.9277
0
LINE
8
BLACK
6
CONTINUOUS
10
0.00546913
20
0.9277
11
0.00529744
21
0.927741
0
LINE
8
BLACK
6
CONTINUOUS
10
0.00529744
20
0.927741
11
0.00513157
21
0.927681
0
LINE
8
BLACK
6
CONTINUOUS
10
0.00513157
20
0.927681
11
-0.00236748
21
0.927681
0
LINE
8
BLACK
6
CONTINUOUS
10
-0.00236748
20
0.927681
11
-0.0033774
21
0.927859
0
LINE
8
BLACK
6
CONTINUOUS
10
-0.0033774
20
0.927859
11
-0.00351268
21
0.927973
0
LINE
8
BLACK
6
CONTINUOUS
10
-0.00351268
20
0.927973
11
-0.00368799
21
0.927993
0
LINE
8
BLACK
6
CONTINUOUS
10
-0.00368799
20
0.927993
11
-0.00743752
21
0.929867
0
LINE
8
BLACK
6
CONTINUOUS
10
-0.00743752
20
0.929867
11
-0.00814661
21
0.930393
0
LINE
8
BLACK
6
CONTINUOUS
10
-0.00814661
20
0.930393
11
-0.00820492
21
0.930421
0
LINE
8
BLACK
6
CONTINUOUS
10
-0.00820492
20
0.930421
11
-0.00986654
21
0.932082
0
LINE
8
BLACK
6
CONTINUOUS
10
-0.00986654
20
0.932082
11
-0.0115281
21
0.930421
0
LINE
8
BLACK
6
CONTINUOUS
10
-0.0115281
20
0.930421
11
-0.0122513
21
0.929914
0
LINE
8
BLACK
6
CONTINUOUS
10
-0.0122513
20
0.929914
11
-0.0122956
21
0.929867
0
LINE
8
BLACK
6
CONTINUOUS
10
-0.0122956
20
0.929867
11
-0.0160451
21
0.927993
0
LINE
8
BLACK
6
CONTINUOUS
10
-0.0160451
20
0.927993
11
-0.017028
21
0.9277
0
LINE
8
BLACK
6
CONTINUOUS
10
-0.017028
20
0.9277
11
-0.0171997
21
0.927741
0
LINE
8
BLACK
6
CONTINUOUS
10
-0.0171997
20
0.927741
11
-0.0173656
21
0.927681
0
LINE
8
BLACK
6
CONTINUOUS
10
-0.0173656
20
0.927681
11
-0.0192404
21
0.927681
0
LINE
8
BLACK
6
CONTINUOUS
10
-0.0192404
20
0.927681
11
-0.0202503
21
0.927859
0
LINE
8
BLACK
6
CONTINUOUS
10
-0.0202503
20
0.927859
11
-0.0203856
21
0.927973
0
LINE
8
BLACK
6
CONTINUOUS
10
-0.0203856
20
0.927973
11
-0.0205609
21
0.927993
0
LINE
8
BLACK
6
CONTINUOUS
10
-0.0205609
20
0.927993
11
-0.0243104
21
0.929867
0
LINE
8
BLACK
6
CONTINUOUS
10
-0.0243104
20
0.929867
11
-0.0250195
21
0.930393
0
LINE
8
BLACK
6
CONTINUOUS
10
-0.0250195
20
0.930393
11
-0.0250778
21
0.930421
0
LINE
8
BLACK
6
CONTINUOUS
10
-0.0250778
20
0.930421
11
-0.0269526
21
0.932295
0
LINE
8
BLACK
6
CONTINUOUS
10
-0.0269526
20
0.932295
11
-0.0274589
21
0.933018
0
LINE
8
BLACK
6
CONTINUOUS
10
-0.0274589
20
0.933018
11
-0.0275057
21
0.933063
0
LINE
8
BLACK
6
CONTINUOUS
10
-0.0275057
20
0.933063
11
-0.0293804
21
0.936812
0
LINE
8
BLACK
6
CONTINUOUS
10
-0.0293804
20
0.936812
11
-0.0296728
21
0.937795
0
LINE
8
BLACK
6
CONTINUOUS
10
-0.0296728
20
0.937795
11
-0.0296318
21
0.937967
0
LINE
8
BLACK
6
CONTINUOUS
10
-0.0296318
20
0.937967
11
-0.0296922
21
0.938133
0
LINE
8
BLACK
6
CONTINUOUS
10
-0.0296922
20
0.938133
11
-0.0296922
21
0.945632
0
LINE
8
BLACK
6
CONTINUOUS
10
-0.0296922
20
0.945632
11
-0.0295141
21
0.946642
0
LINE
8
BLACK
6
CONTINUOUS
10
-0.0295141
20
0.946642
11
-0.0294006
21
0.946777
0
LINE
8
BLACK
6
CONTINUOUS
10
-0.0294006
20
0.946777
11
-0.0293804
21
0.946952
0
LINE
8
BLACK
6
CONTINUOUS
10
-0.0293804
20
0.946952
11
-0.0275057
21
0.950702
0
LINE
8
BLACK
6
CONTINUOUS
10
-0.0275057
20
0.950702
11
-0.0269798
21
0.951411
0
LINE
8
BLACK
6
CONTINUOUS
10
-0.0269798
20
0.951411
11
-0.0269526
21
0.951469
0
LINE
8
BLACK
6
CONTINUOUS
10
-0.0269526
20
0.951469
11
-0.0250778
21
0.953344
0
LINE
8
BLACK
6
CONTINUOUS
10
-0.0250778
20
0.953344
11
-0.0243547
21
0.95385
0
LINE
8
BLACK
6
CONTINUOUS
10
-0.0243547
20
0.95385
11
-0.0243104
21
0.953897
0
LINE
8
BLACK
6
CONTINUOUS
10
-0.0243104
20
0.953897
11
-0.0205609
21
0.955772
0
LINE
8
BLACK
6
CONTINUOUS
10
-0.0205609
20
0.955772
11
-0.019578
21
0.956064
0
LINE
8
BLACK
6
CONTINUOUS
10
-0.019578
20
0.956064
11
-0.0194063
21
0.956023
0
LINE
8
BLACK
6
CONTINUOUS
10
-0.0194063
20
0.956023
11
-0.0192404
21
0.956084
0
LINE
8
BLACK
6
CONTINUOUS
10
-0.0192404
20
0.956084
11
-0.0173656
21
0.956084
0
LINE
8
BLACK
6
CONTINUOUS
10
-0.0173656
20
0.956084
11
-0.0163557
21
0.955906
0
LINE
8
BLACK
6
CONTINUOUS
10
-0.0212408
20
0.948829
11
-0.0224379
21
0.947632
0
LINE
8
BLACK
6
CONTINUOUS
10
-0.0224379
20
0.947632
11
-0.0237867
21
0.944935
0
LINE
8
BLACK
6
CONTINUOUS
10
-0.0237867
20
0.944935
11
-0.0237867
21
0.93883
0
LINE
8
BLACK
6
CONTINUOUS
10
-0.0237867
20
0.93883
11
-0.0224379
21
0.936132
0
LINE
8
BLACK
6
CONTINUOUS
10
-0.0224379
20
0.936132
11
-0.0212408
21
0.934935
0
LINE
8
BLACK
6
CONTINUOUS
10
-0.0212408
20
0.934935
11
-0.0185433
21
0.933586
0
LINE
8
BLACK
6
CONTINUOUS
10
-0.0185433
20
0.933586
11
-0.0180626
21
0.933586
0
LINE
8
BLACK
6
CONTINUOUS
10
-0.0180626
20
0.933586
11
-0.0153652
21
0.934935
0
LINE
8
BLACK
6
CONTINUOUS
10
-0.0153652
20
0.934935
11
-0.014168
21
0.936132
0
LINE
8
BLACK
6
CONTINUOUS
10
-0.014168
20
0.936132
11
-0.0128193
21
0.93883
0
LINE
8
BLACK
6
CONTINUOUS
10
-0.0128193
20
0.93883
11
-0.0128193
21
0.944935
0
LINE
8
BLACK
6
CONTINUOUS
10
-0.0128193
20
0.944935
11
-0.014168
21
0.947632
0
LINE
8
BLACK
6
CONTINUOUS
10
-0.014168
20
0.947632
11
-0.0153652
21
0.948829
0
LINE
8
BLACK
6
CONTINUOUS
10
-0.0153652
20
0.948829
11
-0.0180626
21
0.950178
0
LINE
8
BLACK
6
CONTINUOUS
10
-0.0180626
20
0.950178
11
-0.0185433
21
0.950178
0
LINE
8
BLACK
6
CONTINUOUS
10
-0.0185433
20
0.950178
11
-0.0212408
21
0.948829
0
LINE
8
BLACK
6
CONTINUOUS
10
-0.00436791
20
0.948829
11
-0.00556504
21
0.947632
0
LINE
8
BLACK
6
CONTINUOUS
10
-0.00556504
20
0.947632
11
-0.00691378
21
0.944935
0
LINE
8
BLACK
6
CONTINUOUS
10
-0.00691378
20
0.944935
11
-0.00691378
21
0.93883
0
LINE
8
BLACK
6
CONTINUOUS
10
-0.00691378
20
0.93883
11
-0.00556504
21
0.936132
0
LINE
8
BLACK
6
CONTINUOUS
10
-0.00556504
20
0.936132
11
-0.00436791
21
0.934935
0
LINE
8
BLACK
6
CONTINUOUS
10
-0.00436791
20
0.934935
11
-0.00167043
21
0.933586
0
LINE
8
BLACK
6
CONTINUOUS
10
-0.00167043
20
0.933586
11
0.00443453
21
0.933586
0
LINE
8
BLACK
6
CONTINUOUS
10
0.00443453
20
0.933586
11
0.00713201
21
0.934935
0
LINE
8
BLACK
6
CONTINUOUS
10
0.00713201
20
0.934935
11
0.00832917
21
0.936132
0
LINE
8
BLACK
6
CONTINUOUS
10
0.00832917
20
0.936132
11
0.00967791
21
0.93883
0
LINE
8
BLACK
6
CONTINUOUS
10
0.00967791
20
0.93883
11
0.00967791
21
0.944935
0
LINE
8
BLACK
6
CONTINUOUS
10
0.00967791
20
0.944935
11
0.00832917
21
0.947632
0
LINE
8
BLACK
6
CONTINUOUS
10
0.00832917
20
0.947632
11
0.00713201
21
0.948829
0
LINE
8
BLACK
6
CONTINUOUS
10
0.00713201
20
0.948829
11
0.00443453
21
0.950178
0
LINE
8
BLACK
6
CONTINUOUS
10
0.00443453
20
0.950178
11
-0.00167043
21
0.950178
0
LINE
8
BLACK
6
CONTINUOUS
10
-0.00167043
20
0.950178
11
-0.00436791
21
0.948829
0
LINE
8
BLACK
6
CONTINUOUS
10
-0.00178713
20
0.993477
11
-0.00165134
21
0.993491
0
LINE
8
BLACK
6
CONTINUOUS
10
-0.00165134
20
0.993491
11
0.00584772
21
0.991616
0
LINE
8
BLACK
6
CONTINUOUS
10
0.00584772
20
0.991616
11
0.00631315
21
0.991408
0
LINE
8
BLACK
6
CONTINUOUS
10
0.00631315
20
0.991408
11
0.00645209
21
0.991392
0
LINE
8
BLACK
6
CONTINUOUS
10
0.00645209
20
0.991392
11
0.0102016
21
0.989518
0
LINE
8
BLACK
6
CONTINUOUS
10
0.0102016
20
0.989518
11
0.0109106
21
0.988992
0
LINE
8
BLACK
6
CONTINUOUS
10
0.0109106
20
0.988992
11
0.010969
21
0.988965
0
LINE
8
BLACK
6
CONTINUOUS
10
0.010969
20
0.988965
11
0.0128438
21
0.98709
0
LINE
8
BLACK
6
CONTINUOUS
10
0.0128438
20
0.98709
11
0.0133502
21
0.986367
0
LINE
8
BLACK
6
CONTINUOUS
10
0.0133502
20
0.986367
11
0.0133969
21
0.986322
0
LINE
8
BLACK
6
CONTINUOUS
10
0.0133969
20
0.986322
11
0.0152717
21
0.982573
0
LINE
8
BLACK
6
CONTINUOUS
10
0.0152717
20
0.982573
11
0.0155641
21
0.98159
0
LINE
8
BLACK
6
CONTINUOUS
10
0.0155641
20
0.98159
11
0.015523
21
0.981418
0
LINE
8
BLACK
6
CONTINUOUS
10
0.015523
20
0.981418
11
0.0155834
21
0.981252
0
LINE
8
BLACK
6
CONTINUOUS
10
0.0155834
20
0.981252
11
0.0155834
21
0.977503
0
LINE
8
BLACK
6
CONTINUOUS
10
0.0155834
20
0.977503
11
0.0154054
21
0.976493
0
LINE
8
BLACK
6
CONTINUOUS
10
0.0154054
20
0.976493
11
0.0152919
21
0.976358
0
LINE
8
BLACK
6
CONTINUOUS
10
0.0152919
20
0.976358
11
0.0152717
21
0.976182
0
LINE
8
BLACK
6
CONTINUOUS
10
0.0152717
20
0.976182
11
0.0133969
21
0.972433
0
LINE
8
BLACK
6
CONTINUOUS
10
0.0133969
20
0.972433
11
0.0128709
21
0.971724
0
LINE
8
BLACK
6
CONTINUOUS
10
0.0128709
20
0.971724
11
0.0128438
21
0.971665
0
LINE
8
BLACK
6
CONTINUOUS
10
0.0128438
20
0.971665
11
0.010969
21
0.969791
0
LINE
8
BLACK
6
CONTINUOUS
10
0.010969
20
0.969791
11
0.0102459
21
0.969284
0
LINE
8
BLACK
6
CONTINUOUS
10
0.0102459
20
0.969284
11
0.0102016
21
0.969238
0
LINE
8
BLACK
6
CONTINUOUS
10
0.0102016
20
0.969238
11
0.00645209
21
0.967363
0
LINE
8
BLACK
6
CONTINUOUS
10
0.00645209
20
0.967363
11
0.00596362
21
0.967217
0
LINE
8
BLACK
6
CONTINUOUS
10
0.00596362
20
0.967217
11
0.00584772
21
0.967139
0
LINE
8
BLACK
6
CONTINUOUS
10
0.00584772
20
0.967139
11
-0.00165134
21
0.965264
0
LINE
8
BLACK
6
CONTINUOUS
10
-0.00165134
20
0.965264
11
-0.00223925
21
0.965223
0
LINE
8
BLACK
6
CONTINUOUS
10
-0.00223925
20
0.965223
11
-0.00236748
21
0.965176
0
LINE
8
BLACK
6
CONTINUOUS
10
-0.00236748
20
0.965176
11
-0.0117413
21
0.965176
0
LINE
8
BLACK
6
CONTINUOUS
10
-0.0117413
20
0.965176
11
-0.0123217
21
0.965279
0
LINE
8
BLACK
6
CONTINUOUS
10
-0.0123217
20
0.965279
11
-0.0124574
21
0.965264
0
LINE
8
BLACK
6
CONTINUOUS
10
-0.0124574
20
0.965264
11
-0.0199565
21
0.967139
0
LINE
8
BLACK
6
CONTINUOUS
10
-0.0199565
20
0.967139
11
-0.020422
21
0.967347
0
LINE
8
BLACK
6
CONTINUOUS
10
-0.020422
20
0.967347
11
-0.0205609
21
0.967363
0
LINE
8
BLACK
6
CONTINUOUS
10
-0.0205609
20
0.967363
11
-0.0243104
21
0.969238
0
LINE
8
BLACK
6
CONTINUOUS
10
-0.0243104
20
0.969238
11
-0.0250195
21
0.969763
0
LINE
8
BLACK
6
CONTINUOUS
10
-0.0250195
20
0.969763
11
-0.0250778
21
0.969791
0
LINE
8
BLACK
6
CONTINUOUS
10
-0.0250778
20
0.969791
11
-0.0269526
21
0.971665
0
LINE
8
BLACK
6
CONTINUOUS
10
-0.0269526
20
0.971665
11
-0.0274589
21
0.972389
0
LINE
8
BLACK
6
CONTINUOUS
10
-0.0274589
20
0.972389
11
-0.0275057
21
0.972433
0
LINE
8
BLACK
6
CONTINUOUS
10
-0.0275057
20
0.972433
11
-0.0293804
21
0.976182
0
LINE
8
BLACK
6
CONTINUOUS
10
-0.0293804
20
0.976182
11
-0.0296728
21
0.977165
0
LINE
8
BLACK
6
CONTINUOUS
10
-0.0296728
20
0.977165
11
-0.0296318
21
0.977337
0
LINE
8
BLACK
6
CONTINUOUS
10
-0.0296318
20
0.977337
11
-0.0296922
21
0.977503
0
LINE
8
BLACK
6
CONTINUOUS
10
-0.0296922
20
0.977503
11
-0.0296922
21
0.981252
0
LINE
8
BLACK
6
CONTINUOUS
10
-0.0296922
20
0.981252
11
-0.0295141
21
0.982262
0
LINE
8
BLACK
6
CONTINUOUS
10
-0.0295141
20
0.982262
11
-0.0294006
21
0.982398
0
LINE
8
BLACK
6
CONTINUOUS
10
-0.0294006
20
0.982398
11
-0.0293804
21
0.982573
0
LINE
8
BLACK
6
CONTINUOUS
10
-0.0293804
20
0.982573
11
-0.0275057
21
0.986322
0
LINE
8
BLACK
6
CONTINUOUS
10
-0.0275057
20
0.986322
11
-0.0269798
21
0.987031
0
LINE
8
BLACK
6
CONTINUOUS
10
-0.0269798
20
0.987031
11
-0.0269526
21
0.98709
0
LINE
8
BLACK
6
CONTINUOUS
10
-0.0269526
20
0.98709
11
-0.0250778
21
0.988965
0
LINE
8
BLACK
6
CONTINUOUS
10
-0.0250778
20
0.988965
11
-0.0243547
21
0.989471
0
LINE
8
BLACK
6
CONTINUOUS
10
-0.0243547
20
0.989471
11
-0.0243104
21
0.989518
0
LINE
8
BLACK
6
CONTINUOUS
10
-0.0243104
20
0.989518
11
-0.0205609
21
0.991392
0
LINE
8
BLACK
6
CONTINUOUS
10
-0.0205609
20
0.991392
11
-0.0200724
21
0.991538
0
LINE
8
BLACK
6
CONTINUOUS
10
-0.0200724
20
0.991538
11
-0.0199565
21
0.991616
0
LINE
8
BLACK
6
CONTINUOUS
10
-0.0199565
20
0.991616
11
-0.0124574
21
0.993491
0
LINE
8
BLACK
6
CONTINUOUS
10
-0.0124574
20
0.993491
11
-0.0118696
21
0.993532
0
LINE
8
BLACK
6
CONTINUOUS
10
-0.0118696
20
0.993532
11
-0.0117413
21
0.993579
0
LINE
8
BLACK
6
CONTINUOUS
10
-0.0117413
20
0.993579
11
-0.00236748
21
0.993579
0
LINE
8
BLACK
6
CONTINUOUS
10
-0.00236748
20
0.993579
11
-0.00178713
21
0.993477
0
LINE
8
BLACK
6
CONTINUOUS
10
-0.0182098
20
0.985965
11
-0.0212408
21
0.98445
0
LINE
8
BLACK
6
CONTINUOUS
10
-0.0212408
20
0.98445
11
-0.0224379
21
0.983253
0
LINE
8
BLACK
6
CONTINUOUS
10
-0.0224379
20
0.983253
11
-0.0237867
21
0.980555
0
LINE
8
BLACK
6
CONTINUOUS
10
-0.0237867
20
0.980555
11
-0.0237867
21
0.9782
0
LINE
8
BLACK
6
CONTINUOUS
10
-0.0237867
20
0.9782
11
-0.0224379
21
0.975502
0
LINE
8
BLACK
6
CONTINUOUS
10
-0.0224379
20
0.975502
11
-0.0212408
21
0.974305
0
LINE
8
BLACK
6
CONTINUOUS
10
-0.0212408
20
0.974305
11
-0.0182098
21
0.97279
0
LINE
8
BLACK
6
CONTINUOUS
10
-0.0182098
20
0.97279
11
-0.0113778
21
0.971082
0
LINE
8
BLACK
6
CONTINUOUS
10
-0.0113778
20
0.971082
11
-0.00273102
21
0.971082
0
LINE
8
BLACK
6
CONTINUOUS
10
-0.00273102
20
0.971082
11
0.00410102
21
0.97279
0
LINE
8
BLACK
6
CONTINUOUS
10
0.00410102
20
0.97279
11
0.00713201
21
0.974305
0
LINE
8
BLACK
6
CONTINUOUS
10
0.00713201
20
0.974305
11
0.00832917
21
0.975502
0
LINE
8
BLACK
6
CONTINUOUS
10
0.00832917
20
0.975502
11
0.00967791
21
0.9782
0
LINE
8
BLACK
6
CONTINUOUS
10
0.00967791
20
0.9782
11
0.00967791
21
0.980555
0
LINE
8
BLACK
6
CONTINUOUS
10
0.00967791
20
0.980555
11
0.00832917
21
0.983253
0
LINE
8
BLACK
6
CONTINUOUS
10
0.00832917
20
0.983253
11
0.00713201
21
0.98445
0
LINE
8
BLACK
6
CONTINUOUS
10
0.00713201
20
0.98445
11
0.00410102
21
0.985965
0
LINE
8
BLACK
6
CONTINUOUS
10
0.00410102
20
0.985965
11
-0.00273102
21
0.987673
0
LINE
8
BLACK
6
CONTINUOUS
10
-0.00273102
20
0.987673
11
-0.0113778
21
0.987673
0
LINE
8
BLACK
6
CONTINUOUS
10
-0.0113778
20
0.987673
11
-0.0182098
21
0.985965
0
LINE
8
BLACK
6
CONTINUOUS
10
0.0136406
20
1.07402
11
0.0151878
21
1.07272
0
LINE
8
BLACK
6
CONTINUOUS
10
0.0151878
20
1.07272
11
0.0155386
21
1.07073
0
LINE
8
BLACK
6
CONTINUOUS
10
0.0155386
20
1.07073
11
0.0145287
21
1.06898
0
LINE
8
BLACK
6
CONTINUOUS
10
0.0145287
20
1.06898
11
0.0126307
21
1.06829
0
LINE
8
BLACK
6
CONTINUOUS
10
0.0126307
20
1.06829
11
-0.00729472
21
1.06829
0
LINE
8
BLACK
6
CONTINUOUS
10
-0.00729472
20
1.06829
11
-0.00954047
21
1.06717
0
LINE
8
BLACK
6
CONTINUOUS
10
-0.00954047
20
1.06717
11
-0.0106633
21
1.06492
0
LINE
8
BLACK
6
CONTINUOUS
10
-0.0106633
20
1.06492
11
-0.0106633
21
1.06069
0
LINE
8
BLACK
6
CONTINUOUS
10
-0.0106633
20
1.06069
11
-0.00954047
21
1.05844
0
LINE
8
BLACK
6
CONTINUOUS
10
-0.00954047
20
1.05844
11
-0.00729472
21
1.05732
0
LINE
8
BLACK
6
CONTINUOUS
10
-0.00729472
20
1.05732
11
0.0126307
21
1.05732
0
LINE
8
BLACK
6
CONTINUOUS
10
0.0126307
20
1.05732
11
0.0136406
21
1.05714
0
LINE
8
BLACK
6
CONTINUOUS
10
0.0136406
20
1.05714
11
0.0151878
21
1.05584
0
LINE
8
BLACK
6
CONTINUOUS
10
0.0151878
20
1.05584
11
0.0155386
21
1.05386
0
LINE
8
BLACK
6
CONTINUOUS
10
0.0155386
20
1.05386
11
0.0145287
21
1.05211
0
LINE
8
BLACK
6
CONTINUOUS
10
0.0145287
20
1.05211
11
0.0126307
21
1.05142
0
LINE
8
BLACK
6
CONTINUOUS
10
0.0126307
20
1.05142
11
-0.00729472
21
1.05142
0
LINE
8
BLACK
6
CONTINUOUS
10
-0.00729472
20
1.05142
11
-0.00954047
21
1.05029
0
LINE
8
BLACK
6
CONTINUOUS
10
-0.00954047
20
1.05029
11
-0.0106633
21
1.04805
0
LINE
8
BLACK
6
CONTINUOUS
10
-0.0106633
20
1.04805
11
-0.0106633
21
1.04382
0
LINE
8
BLACK
6
CONTINUOUS
10
-0.0106633
20
1.04382
11
-0.00931457
21
1.04112
0
LINE
8
BLACK
6
CONTINUOUS
10
-0.00931457
20
1.04112
11
-0.00864346
21
1.04045
0
LINE
8
BLACK
6
CONTINUOUS
10
-0.00864346
20
1.04045
11
0.0126307
21
1.04045
0
LINE
8
BLACK
6
CONTINUOUS
10
0.0126307
20
1.04045
11
0.0136406
21
1.04027
0
LINE
8
BLACK
6
CONTINUOUS
10
0.0136406
20
1.04027
11
0.0151878
21
1.03897
0
LINE
8
BLACK
6
CONTINUOUS
10
0.0151878
20
1.03897
11
0.0155386
21
1.03698
0
LINE
8
BLACK
6
CONTINUOUS
10
0.0155386
20
1.03698
11
0.0145287
21
1.03523
0
LINE
8
BLACK
6
CONTINUOUS
10
0.0145287
20
1.03523
11
0.0126307
21
1.03454
0
LINE
8
BLACK
6
CONTINUOUS
10
0.0126307
20
1.03454
11
-0.0136161
21
1.03454
0
LINE
8
BLACK
6
CONTINUOUS
10
-0.0136161
20
1.03454
11
-0.014626
21
1.03472
0
LINE
8
BLACK
6
CONTINUOUS
10
-0.014626
20
1.03472
11
-0.0161732
21
1.03602
0
LINE
8
BLACK
6
CONTINUOUS
10
-0.0161732
20
1.03602
11
-0.016524
21
1.03801
0
LINE
8
BLACK
6
CONTINUOUS
10
-0.016524
20
1.03801
11
-0.0155141
21
1.03976
0
LINE
8
BLACK
6
CONTINUOUS
10
-0.0155141
20
1.03976
11
-0.015279
21
1.03984
0
LINE
8
BLACK
6
CONTINUOUS
10
-0.015279
20
1.03984
11
-0.0162571
21
1.0418
0
LINE
8
BLACK
6
CONTINUOUS
10
-0.0162571
20
1.0418
11
-0.0165494
21
1.04278
0
LINE
8
BLACK
6
CONTINUOUS
10
-0.0165494
20
1.04278
11
-0.0165085
21
1.04295
0
LINE
8
BLACK
6
CONTINUOUS
10
-0.0165085
20
1.04295
11
-0.0165688
21
1.04312
0
LINE
8
BLACK
6
CONTINUOUS
10
-0.0165688
20
1.04312
11
-0.0165688
21
1.04874
0
LINE
8
BLACK
6
CONTINUOUS
10
-0.0165688
20
1.04874
11
-0.0163907
21
1.04975
0
LINE
8
BLACK
6
CONTINUOUS
10
-0.0163907
20
1.04975
11
-0.0162773
21
1.04989
0
LINE
8
BLACK
6
CONTINUOUS
10
-0.0162773
20
1.04989
11
-0.0162571
21
1.05006
0
LINE
8
BLACK
6
CONTINUOUS
10
-0.0162571
20
1.05006
11
-0.0143823
21
1.05381
0
LINE
8
BLACK
6
CONTINUOUS
10
-0.0143823
20
1.05381
11
-0.0139596
21
1.05438
0
LINE
8
BLACK
6
CONTINUOUS
10
-0.0139596
20
1.05438
11
-0.0140613
21
1.05462
0
LINE
8
BLACK
6
CONTINUOUS
10
-0.0140613
20
1.05462
11
-0.0143823
21
1.05492
0
LINE
8
BLACK
6
CONTINUOUS
10
-0.0143823
20
1.05492
11
-0.0162571
21
1.05867
0
LINE
8
BLACK
6
CONTINUOUS
10
-0.0162571
20
1.05867
11
-0.0165494
21
1.05965
0
LINE
8
BLACK
6
CONTINUOUS
10
-0.0165494
20
1.05965
11
-0.0165085
21
1.05983
0
LINE
8
BLACK
6
CONTINUOUS
10
-0.0165085
20
1.05983
11
-0.0165688
21
1.05999
0
LINE
8
BLACK
6
CONTINUOUS
10
-0.0165688
20
1.05999
11
-0.0165688
21
1.06562
0
LINE
8
BLACK
6
CONTINUOUS
10
-0.0165688
20
1.06562
11
-0.0163907
21
1.06663
0
LINE
8
BLACK
6
CONTINUOUS
10
-0.0163907
20
1.06663
11
-0.0162773
21
1.06676
0
LINE
8
BLACK
6
CONTINUOUS
10
-0.0162773
20
1.06676
11
-0.0162571
21
1.06694
0
LINE
8
BLACK
6
CONTINUOUS
10
-0.0162571
20
1.06694
11
-0.0143823
21
1.07069
0
LINE
8
BLACK
6
CONTINUOUS
10
-0.0143823
20
1.07069
11
-0.0137714
21
1.07151
0
LINE
8
BLACK
6
CONTINUOUS
10
-0.0137714
20
1.07151
11
-0.0133657
21
1.07169
0
LINE
8
BLACK
6
CONTINUOUS
10
-0.0133657
20
1.07169
11
-0.0130618
21
1.07201
0
LINE
8
BLACK
6
CONTINUOUS
10
-0.0130618
20
1.07201
11
-0.00931228
21
1.07388
0
LINE
8
BLACK
6
CONTINUOUS
10
-0.00931228
20
1.07388
11
-0.00832937
21
1.07417
0
LINE
8
BLACK
6
CONTINUOUS
10
-0.00832937
20
1.07417
11
-0.00815768
21
1.07413
0
LINE
8
BLACK
6
CONTINUOUS
10
-0.00815768
20
1.07413
11
-0.00799177
21
1.07419
0
LINE
8
BLACK
6
CONTINUOUS
10
-0.00799177
20
1.07419
11
0.0126307
21
1.07419
0
LINE
8
BLACK
6
CONTINUOUS
10
0.0126307
20
1.07419
11
0.0136406
21
1.07402
0
LINE
8
BLACK
6
CONTINUOUS
10
-0.0243659
20
1.09469
11
-0.0241004
21
1.09472
0
LINE
8
BLACK
6
CONTINUOUS
10
-0.0241004
20
1.09472
11
-0.023472
21
1.09428
0
LINE
8
BLACK
6
CONTINUOUS
10
-0.023472
20
1.09428
11
-0.0227767
21
1.09395
0
LINE
8
BLACK
6
CONTINUOUS
10
-0.0227767
20
1.09395
11
-0.020902
21
1.09208
0
LINE
8
BLACK
6
CONTINUOUS
10
-0.020902
20
1.09208
11
-0.0206786
21
1.09176
0
LINE
8
BLACK
6
CONTINUOUS
10
-0.0206786
20
1.09176
11
-0.0205711
21
1.09168
0
LINE
8
BLACK
6
CONTINUOUS
10
-0.0205711
20
1.09168
11
-0.0205372
21
1.09156
0
LINE
8
BLACK
6
CONTINUOUS
10
-0.0205372
20
1.09156
11
-0.0205323
21
1.09155
0
LINE
8
BLACK
6
CONTINUOUS
10
-0.0205323
20
1.09155
11
-0.0204327
21
1.09147
0
LINE
8
BLACK
6
CONTINUOUS
10
-0.0204327
20
1.09147
11
-0.0204189
21
1.09139
0
LINE
8
BLACK
6
CONTINUOUS
10
-0.0204189
20
1.09139
11
-0.0203138
21
1.09124
0
LINE
8
BLACK
6
CONTINUOUS
10
-0.0203138
20
1.09124
11
-0.0202469
21
1.09047
0
LINE
8
BLACK
6
CONTINUOUS
10
-0.0202469
20
1.09047
11
-0.0200484
21
1.08973
0
LINE
8
BLACK
6
CONTINUOUS
10
-0.0200484
20
1.08973
11
-0.0201054
21
1.08961
0
LINE
8
BLACK
6
CONTINUOUS
10
-0.0201054
20
1.08961
11
-0.020082
21
1.08948
0
LINE
8
BLACK
6
CONTINUOUS
10
-0.020082
20
1.08948
11
-0.0201495
21
1.08936
0
LINE
8
BLACK
6
CONTINUOUS
10
-0.0201495
20
1.08936
11
-0.0201378
21
1.08922
0
LINE
8
BLACK
6
CONTINUOUS
10
-0.0201378
20
1.08922
11
-0.0205778
21
1.0886
0
LINE
8
BLACK
6
CONTINUOUS
10
-0.0205778
20
1.0886
11
-0.020902
21
1.0879
0
LINE
8
BLACK
6
CONTINUOUS
10
-0.020902
20
1.0879
11
-0.0227767
21
1.08603
0
LINE
8
BLACK
6
CONTINUOUS
10
-0.0227767
20
1.08603
11
-0.0230958
21
1.0858
0
LINE
8
BLACK
6
CONTINUOUS
10
-0.0230958
20
1.0858
11
-0.023171
21
1.0857
0
LINE
8
BLACK
6
CONTINUOUS
10
-0.023171
20
1.0857
11
-0.0232978
21
1.08566
0
LINE
8
BLACK
6
CONTINUOUS
10
-0.0232978
20
1.08566
11
-0.0236168
21
1.08544
0
LINE
8
BLACK
6
CONTINUOUS
10
-0.0236168
20
1.08544
11
-0.0243811
21
1.08537
0
LINE
8
BLACK
6
CONTINUOUS
10
-0.0243811
20
1.08537
11
-0.025122
21
1.08517
0
LINE
8
BLACK
6
CONTINUOUS
10
-0.025122
20
1.08517
11
-0.0253634
21
1.08529
0
LINE
8
BLACK
6
CONTINUOUS
10
-0.0253634
20
1.08529
11
-0.0256289
21
1.08526
0
LINE
8
BLACK
6
CONTINUOUS
10
-0.0256289
20
1.08526
11
-0.0262574
21
1.0857
0
LINE
8
BLACK
6
CONTINUOUS
10
-0.0262574
20
1.0857
11
-0.0269526
21
1.08603
0
LINE
8
BLACK
6
CONTINUOUS
10
-0.0269526
20
1.08603
11
-0.0288273
21
1.0879
0
LINE
8
BLACK
6
CONTINUOUS
10
-0.0288273
20
1.0879
11
-0.0290507
21
1.08822
0
LINE
8
BLACK
6
CONTINUOUS
10
-0.0290507
20
1.08822
11
-0.0291582
21
1.0883
0
LINE
8
BLACK
6
CONTINUOUS
10
-0.0291582
20
1.0883
11
-0.0291922
21
1.08842
0
LINE
8
BLACK
6
CONTINUOUS
10
-0.0291922
20
1.08842
11
-0.029197
21
1.08843
0
LINE
8
BLACK
6
CONTINUOUS
10
-0.029197
20
1.08843
11
-0.0292966
21
1.08851
0
LINE
8
BLACK
6
CONTINUOUS
10
-0.0292966
20
1.08851
11
-0.0293104
21
1.08859
0
LINE
8
BLACK
6
CONTINUOUS
10
-0.0293104
20
1.08859
11
-0.0294155
21
1.08874
0
LINE
8
BLACK
6
CONTINUOUS
10
-0.0294155
20
1.08874
11
-0.0294824
21
1.08951
0
LINE
8
BLACK
6
CONTINUOUS
10
-0.0294824
20
1.08951
11
-0.0296809
21
1.09025
0
LINE
8
BLACK
6
CONTINUOUS
10
-0.0296809
20
1.09025
11
-0.0296239
21
1.09037
0
LINE
8
BLACK
6
CONTINUOUS
10
-0.0296239
20
1.09037
11
-0.0296473
21
1.0905
0
LINE
8
BLACK
6
CONTINUOUS
10
-0.0296473
20
1.0905
11
-0.0295798
21
1.09062
0
LINE
8
BLACK
6
CONTINUOUS
10
-0.0295798
20
1.09062
11
-0.0295916
21
1.09075
0
LINE
8
BLACK
6
CONTINUOUS
10
-0.0295916
20
1.09075
11
-0.0291515
21
1.09138
0
LINE
8
BLACK
6
CONTINUOUS
10
-0.0291515
20
1.09138
11
-0.0288273
21
1.09208
0
LINE
8
BLACK
6
CONTINUOUS
10
-0.0288273
20
1.09208
11
-0.0269526
21
1.09395
0
LINE
8
BLACK
6
CONTINUOUS
10
-0.0269526
20
1.09395
11
-0.0266335
21
1.09417
0
LINE
8
BLACK
6
CONTINUOUS
10
-0.0266335
20
1.09417
11
-0.0265583
21
1.09428
0
LINE
8
BLACK
6
CONTINUOUS
10
-0.0265583
20
1.09428
11
-0.0264315
21
1.09432
0
LINE
8
BLACK
6
CONTINUOUS
10
-0.0264315
20
1.09432
11
-0.0261125
21
1.09454
0
LINE
8
BLACK
6
CONTINUOUS
10
-0.0261125
20
1.09454
11
-0.0253483
21
1.09461
0
LINE
8
BLACK
6
CONTINUOUS
10
-0.0253483
20
1.09461
11
-0.0246073
21
1.09481
0
LINE
8
BLACK
6
CONTINUOUS
10
-0.0246073
20
1.09481
11
-0.0243659
21
1.09469
0
LINE
8
BLACK
6
CONTINUOUS
10
0.0136406
20
1.09276
11
0.0151878
21
1.09147
0
LINE
8
BLACK
6
CONTINUOUS
10
0.0151878
20
1.09147
11
0.0155386
21
1.08948
0
LINE
8
BLACK
6
CONTINUOUS
10
0.0155386
20
1.08948
11
0.0145287
21
1.08773
0
LINE
8
BLACK
6
CONTINUOUS
10
0.0145287
20
1.08773
11
0.0126307
21
1.08704
0
LINE
8
BLACK
6
CONTINUOUS
10
0.0126307
20
1.08704
11
-0.0136161
21
1.08704
0
LINE
8
BLACK
6
CONTINUOUS
10
-0.0136161
20
1.08704
11
-0.014626
21
1.08721
0
LINE
8
BLACK
6
CONTINUOUS
10
-0.014626
20
1.08721
11
-0.0161732
21
1.08851
0
LINE
8
BLACK
6
CONTINUOUS
10
-0.0161732
20
1.08851
11
-0.016524
21
1.0905
0
LINE
8
BLACK
6
CONTINUOUS
10
-0.016524
20
1.0905
11
-0.0155141
21
1.09225
0
LINE
8
BLACK
6
CONTINUOUS
10
-0.0155141
20
1.09225
11
-0.0136161
21
1.09294
0
LINE
8
BLACK
6
CONTINUOUS
10
-0.0136161
20
1.09294
11
0.0126307
21
1.09294
0
LINE
8
BLACK
6
CONTINUOUS
10
0.0126307
20
1.09294
11
0.0136406
21
1.09276
0
LINE
8
BLACK
6
CONTINUOUS
10
0.0143898
20
1.11673
11
0.0155026
21
1.11505
0
LINE
8
BLACK
6
CONTINUOUS
10
0.0155026
20
1.11505
11
0.0152717
21
1.11304
0
LINE
8
BLACK
6
CONTINUOUS
10
0.0152717
20
1.11304
11
0.0133969
21
1.10929
0
LINE
8
BLACK
6
CONTINUOUS
10
0.0133969
20
1.10929
11
0.012786
21
1.10847
0
LINE
8
BLACK
6
CONTINUOUS
10
0.012786
20
1.10847
11
0.0123803
21
1.10829
0
LINE
8
BLACK
6
CONTINUOUS
10
0.0123803
20
1.10829
11
0.0120764
21
1.10797
0
LINE
8
BLACK
6
CONTINUOUS
10
0.0120764
20
1.10797
11
0.00832685
21
1.1061
0
LINE
8
BLACK
6
CONTINUOUS
10
0.00832685
20
1.1061
11
0.0073439
21
1.1058
0
LINE
8
BLACK
6
CONTINUOUS
10
0.0073439
20
1.1058
11
0.00717217
21
1.10584
0
LINE
8
BLACK
6
CONTINUOUS
10
0.00717217
20
1.10584
11
0.00700634
21
1.10578
0
LINE
8
BLACK
6
CONTINUOUS
10
0.00700634
20
1.10578
11
-0.0267394
21
1.10578
0
LINE
8
BLACK
6
CONTINUOUS
10
-0.0267394
20
1.10578
11
-0.0277493
21
1.10596
0
LINE
8
BLACK
6
CONTINUOUS
10
-0.0277493
20
1.10596
11
-0.0292966
21
1.10726
0
LINE
8
BLACK
6
CONTINUOUS
10
-0.0292966
20
1.10726
11
-0.0296473
21
1.10925
0
LINE
8
BLACK
6
CONTINUOUS
10
-0.0296473
20
1.10925
11
-0.0286374
21
1.111
0
LINE
8
BLACK
6
CONTINUOUS
10
-0.0286374
20
1.111
11
-0.0267394
21
1.11169
0
LINE
8
BLACK
6
CONTINUOUS
10
-0.0267394
20
1.11169
11
0.00630929
21
1.11169
0
LINE
8
BLACK
6
CONTINUOUS
10
0.00630929
20
1.11169
11
0.00855504
21
1.11281
0
LINE
8
BLACK
6
CONTINUOUS
10
0.00855504
20
1.11281
11
0.00998965
21
1.11568
0
LINE
8
BLACK
6
CONTINUOUS
10
0.00998965
20
1.11568
11
0.0106006
21
1.1165
0
LINE
8
BLACK
6
CONTINUOUS
10
0.0106006
20
1.1165
11
0.0124537
21
1.11731
0
LINE
8
BLACK
6
CONTINUOUS
10
0.0124537
20
1.11731
11
0.0143898
21
1.11673
0
LINE
8
BLACK
6
CONTINUOUS
10
0.00801626
20
1.14713
11
0.0081515
21
1.14702
0
LINE
8
BLACK
6
CONTINUOUS
10
0.0081515
20
1.14702
11
0.00832685
21
1.147
0
LINE
8
BLACK
6
CONTINUOUS
10
0.00832685
20
1.147
11
0.0120764
21
1.14512
0
LINE
8
BLACK
6
CONTINUOUS
10
0.0120764
20
1.14512
11
0.0129001
21
1.14451
0
LINE
8
BLACK
6
CONTINUOUS
10
0.0129001
20
1.14451
11
0.0130759
21
1.14411
0
LINE
8
BLACK
6
CONTINUOUS
10
0.0130759
20
1.14411
11
0.0133969
21
1.1438
0
LINE
8
BLACK
6
CONTINUOUS
10
0.0133969
20
1.1438
11
0.0152717
21
1.14005
0
LINE
8
BLACK
6
CONTINUOUS
10
0.0152717
20
1.14005
11
0.0155641
21
1.13907
0
LINE
8
BLACK
6
CONTINUOUS
10
0.0155641
20
1.13907
11
0.015523
21
1.1389
0
LINE
8
BLACK
6
CONTINUOUS
10
0.015523
20
1.1389
11
0.0155834
21
1.13873
0
LINE
8
BLACK
6
CONTINUOUS
10
0.0155834
20
1.13873
11
0.0155834
21
1.13123
0
LINE
8
BLACK
6
CONTINUOUS
10
0.0155834
20
1.13123
11
0.0154054
21
1.13022
0
LINE
8
BLACK
6
CONTINUOUS
10
0.0154054
20
1.13022
11
0.0152919
21
1.13009
0
LINE
8
BLACK
6
CONTINUOUS
10
0.0152919
20
1.13009
11
0.0152717
21
1.12991
0
LINE
8
BLACK
6
CONTINUOUS
10
0.0152717
20
1.12991
11
0.0133969
21
1.12616
0
LINE
8
BLACK
6
CONTINUOUS
10
0.0133969
20
1.12616
11
0.012786
21
1.12534
0
LINE
8
BLACK
6
CONTINUOUS
10
0.012786
20
1.12534
11
0.0109328
21
1.12454
0
LINE
8
BLACK
6
CONTINUOUS
10
0.0109328
20
1.12454
11
0.00899681
21
1.12511
0
LINE
8
BLACK
6
CONTINUOUS
10
0.00899681
20
1.12511
11
0.00788398
21
1.1268
0
LINE
8
BLACK
6
CONTINUOUS
10
0.00788398
20
1.1268
11
0.00811488
21
1.1288
0
LINE
8
BLACK
6
CONTINUOUS
10
0.00811488
20
1.1288
11
0.00967791
21
1.13193
0
LINE
8
BLACK
6
CONTINUOUS
10
0.00967791
20
1.13193
11
0.00967791
21
1.13804
0
LINE
8
BLACK
6
CONTINUOUS
10
0.00967791
20
1.13804
11
0.00855504
21
1.14028
0
LINE
8
BLACK
6
CONTINUOUS
10
0.00855504
20
1.14028
11
0.00630929
21
1.1414
0
LINE
8
BLACK
6
CONTINUOUS
10
0.00630929
20
1.1414
11
0.00582862
21
1.1414
0
LINE
8
BLACK
6
CONTINUOUS
10
0.00582862
20
1.1414
11
0.00358287
21
1.14028
0
LINE
8
BLACK
6
CONTINUOUS
10
0.00358287
20
1.14028
11
0.00246004
21
1.13804
0
LINE
8
BLACK
6
CONTINUOUS
10
0.00246004
20
1.13804
11
0.00246004
21
1.13311
0
LINE
8
BLACK
6
CONTINUOUS
10
0.00246004
20
1.13311
11
0.00228197
21
1.1321
0
LINE
8
BLACK
6
CONTINUOUS
10
0.00228197
20
1.1321
11
0.00216846
21
1.13196
0
LINE
8
BLACK
6
CONTINUOUS
10
0.00216846
20
1.13196
11
0.00214831
21
1.13179
0
LINE
8
BLACK
6
CONTINUOUS
10
0.00214831
20
1.13179
11
0.000273543
21
1.12804
0
LINE
8
BLACK
6
CONTINUOUS
10
0.000273543
20
1.12804
11
-0.000337362
21
1.12721
0
LINE
8
BLACK
6
CONTINUOUS
10
-0.000337362
20
1.12721
11
-0.000743071
21
1.12704
0
LINE
8
BLACK
6
CONTINUOUS
10
-0.000743071
20
1.12704
11
-0.00104697
21
1.12672
0
LINE
8
BLACK
6
CONTINUOUS
10
-0.00104697
20
1.12672
11
-0.0047965
21
1.12484
0
LINE
8
BLACK
6
CONTINUOUS
10
-0.0047965
20
1.12484
11
-0.00577945
21
1.12455
0
LINE
8
BLACK
6
CONTINUOUS
10
-0.00577945
20
1.12455
11
-0.00595114
21
1.12459
0
LINE
8
BLACK
6
CONTINUOUS
10
-0.00595114
20
1.12459
11
-0.00611701
21
1.12453
0
LINE
8
BLACK
6
CONTINUOUS
10
-0.00611701
20
1.12453
11
-0.00799177
21
1.12453
0
LINE
8
BLACK
6
CONTINUOUS
10
-0.00799177
20
1.12453
11
-0.00900169
21
1.12471
0
LINE
8
BLACK
6
CONTINUOUS
10
-0.00900169
20
1.12471
11
-0.00913697
21
1.12482
0
LINE
8
BLACK
6
CONTINUOUS
10
-0.00913697
20
1.12482
11
-0.00931228
21
1.12484
0
LINE
8
BLACK
6
CONTINUOUS
10
-0.00931228
20
1.12484
11
-0.0130618
21
1.12672
0
LINE
8
BLACK
6
CONTINUOUS
10
-0.0130618
20
1.12672
11
-0.0138855
21
1.12733
0
LINE
8
BLACK
6
CONTINUOUS
10
-0.0138855
20
1.12733
11
-0.0140613
21
1.12773
0
LINE
8
BLACK
6
CONTINUOUS
10
-0.0140613
20
1.12773
11
-0.0143823
21
1.12804
0
LINE
8
BLACK
6
CONTINUOUS
10
-0.0143823
20
1.12804
11
-0.0162571
21
1.13179
0
LINE
8
BLACK
6
CONTINUOUS
10
-0.0162571
20
1.13179
11
-0.0165494
21
1.13277
0
LINE
8
BLACK
6
CONTINUOUS
10
-0.0165494
20
1.13277
11
-0.0165085
21
1.13294
0
LINE
8
BLACK
6
CONTINUOUS
10
-0.0165085
20
1.13294
11
-0.0165688
21
1.13311
0
LINE
8
BLACK
6
CONTINUOUS
10
-0.0165688
20
1.13311
11
-0.0165688
21
1.13873
0
LINE
8
BLACK
6
CONTINUOUS
10
-0.0165688
20
1.13873
11
-0.0163907
21
1.13974
0
LINE
8
BLACK
6
CONTINUOUS
10
-0.0163907
20
1.13974
11
-0.0162773
21
1.13988
0
LINE
8
BLACK
6
CONTINUOUS
10
-0.0162773
20
1.13988
11
-0.0162571
21
1.14005
0
LINE
8
BLACK
6
CONTINUOUS
10
-0.0162571
20
1.14005
11
-0.0143823
21
1.1438
0
LINE
8
BLACK
6
CONTINUOUS
10
-0.0143823
20
1.1438
11
-0.0137714
21
1.14463
0
LINE
8
BLACK
6
CONTINUOUS
10
-0.0137714
20
1.14463
11
-0.0119182
21
1.14543
0
LINE
8
BLACK
6
CONTINUOUS
10
-0.0119182
20
1.14543
11
-0.0099822
21
1.14485
0
LINE
8
BLACK
6
CONTINUOUS
10
-0.0099822
20
1.14485
11
-0.00886937
21
1.14317
0
LINE
8
BLACK
6
CONTINUOUS
10
-0.00886937
20
1.14317
11
-0.00910028
21
1.14116
0
LINE
8
BLACK
6
CONTINUOUS
10
-0.00910028
20
1.14116
11
-0.0106633
21
1.13804
0
LINE
8
BLACK
6
CONTINUOUS
10
-0.0106633
20
1.13804
11
-0.0106633
21
1.13381
0
LINE
8
BLACK
6
CONTINUOUS
10
-0.0106633
20
1.13381
11
-0.00954047
21
1.13156
0
LINE
8
BLACK
6
CONTINUOUS
10
-0.00954047
20
1.13156
11
-0.00729472
21
1.13044
0
LINE
8
BLACK
6
CONTINUOUS
10
-0.00729472
20
1.13044
11
-0.00681406
21
1.13044
0
LINE
8
BLACK
6
CONTINUOUS
10
-0.00681406
20
1.13044
11
-0.00456835
21
1.13156
0
LINE
8
BLACK
6
CONTINUOUS
10
-0.00456835
20
1.13156
11
-0.00344547
21
1.13381
0
LINE
8
BLACK
6
CONTINUOUS
10
-0.00344547
20
1.13381
11
-0.00344547
21
1.13873
0
LINE
8
BLACK
6
CONTINUOUS
10
-0.00344547
20
1.13873
11
-0.0032674
21
1.13974
0
LINE
8
BLACK
6
CONTINUOUS
10
-0.0032674
20
1.13974
11
-0.00315394
21
1.13988
0
LINE
8
BLACK
6
CONTINUOUS
10
-0.00315394
20
1.13988
11
-0.00313374
21
1.14005
0
LINE
8
BLACK
6
CONTINUOUS
10
-0.00313374
20
1.14005
11
-0.00125898
21
1.1438
0
LINE
8
BLACK
6
CONTINUOUS
10
-0.00125898
20
1.1438
11
-0.000648071
21
1.14463
0
LINE
8
BLACK
6
CONTINUOUS
10
-0.000648071
20
1.14463
11
-0.000242402
21
1.1448
0
LINE
8
BLACK
6
CONTINUOUS
10
-0.000242402
20
1.1448
11
6.15354e-05
21
1.14512
0
LINE
8
BLACK
6
CONTINUOUS
10
6.15354e-05
20
1.14512
11
0.00381106
21
1.147
0
LINE
8
BLACK
6
CONTINUOUS
10
0.00381106
20
1.147
11
0.00479398
21
1.14729
0
LINE
8
BLACK
6
CONTINUOUS
10
0.00479398
20
1.14729
11
0.00496567
21
1.14725
0
LINE
8
BLACK
6
CONTINUOUS
10
0.00496567
20
1.14725
11
0.00513157
21
1.14731
0
LINE
8
BLACK
6
CONTINUOUS
10
0.00513157
20
1.14731
11
0.00700634
21
1.14731
0
LINE
8
BLACK
6
CONTINUOUS
10
0.00700634
20
1.14731
11
0.00801626
21
1.14713
0
LINE
8
BLACK
6
CONTINUOUS
10
0.255937
20
2.03558
11
0.257167
21
2.03398
0
LINE
8
BLACK
6
CONTINUOUS
10
0.257167
20
2.03398
11
0.257079
21
2.03196
0
LINE
8
BLACK
6
CONTINUOUS
10
0.257079
20
2.03196
11
0.255714
21
2.03047
0
LINE
8
BLACK
6
CONTINUOUS
10
0.255714
20
2.03047
11
0.222067
21
2.01295
0
LINE
8
BLACK
6
CONTINUOUS
10
0.222067
20
2.01295
11
2.57793
21
2.01295
0
LINE
8
BLACK
6
CONTINUOUS
10
2.57793
20
2.01295
11
2.54429
21
2.03047
0
LINE
8
BLACK
6
CONTINUOUS
10
2.54429
20
2.03047
11
2.54347
21
2.03109
0
LINE
8
BLACK
6
CONTINUOUS
10
2.54347
20
2.03109
11
2.5427
21
2.03296
0
LINE
8
BLACK
6
CONTINUOUS
10
2.5427
20
2.03296
11
2.54331
21
2.03489
0
LINE
8
BLACK
6
CONTINUOUS
10
2.54331
20
2.03489
11
2.54501
21
2.03597
0
LINE
8
BLACK
6
CONTINUOUS
10
2.54501
20
2.03597
11
2.54701
21
2.03571
0
LINE
8
BLACK
6
CONTINUOUS
10
2.54701
20
2.03571
11
2.58705
21
2.01487
0
LINE
8
BLACK
6
CONTINUOUS
10
2.58705
20
2.01487
11
2.58705
21
2.03309
0
LINE
8
BLACK
6
CONTINUOUS
10
2.58705
20
2.03309
11
2.58723
21
2.0341
0
LINE
8
BLACK
6
CONTINUOUS
10
2.58723
20
2.0341
11
2.58852
21
2.03564
0
LINE
8
BLACK
6
CONTINUOUS
10
2.58852
20
2.03564
11
2.59051
21
2.036
0
LINE
8
BLACK
6
CONTINUOUS
10
2.59051
20
2.036
11
2.59226
21
2.03499
0
LINE
8
BLACK
6
CONTINUOUS
10
2.59226
20
2.03499
11
2.59295
21
2.03309
0
LINE
8
BLACK
6
CONTINUOUS
10
2.59295
20
2.03309
11
2.59295
21
1.80969
0
LINE
8
BLACK
6
CONTINUOUS
10
2.59295
20
1.80969
11
2.59277
21
1.80868
0
LINE
8
BLACK
6
CONTINUOUS
10
2.59277
20
1.80868
11
2.59148
21
1.80713
0
LINE
8
BLACK
6
CONTINUOUS
10
2.59148
20
1.80713
11
2.58949
21
1.80678
0
LINE
8
BLACK
6
CONTINUOUS
10
2.58949
20
1.80678
11
2.58774
21
1.80779
0
LINE
8
BLACK
6
CONTINUOUS
10
2.58774
20
1.80779
11
2.58705
21
1.80969
0
LINE
8
BLACK
6
CONTINUOUS
10
2.58705
20
1.80969
11
2.58705
21
2.00513
0
LINE
8
BLACK
6
CONTINUOUS
10
2.58705
20
2.00513
11
2.54701
21
1.98429
0
LINE
8
BLACK
6
CONTINUOUS
10
2.54701
20
1.98429
11
2.54603
21
1.98399
0
LINE
8
BLACK
6
CONTINUOUS
10
2.54603
20
1.98399
11
2.54406
21
1.98442
0
LINE
8
BLACK
6
CONTINUOUS
10
2.54406
20
1.98442
11
2.54283
21
1.98602
0
LINE
8
BLACK
6
CONTINUOUS
10
2.54283
20
1.98602
11
2.54292
21
1.98804
0
LINE
8
BLACK
6
CONTINUOUS
10
2.54292
20
1.98804
11
2.54429
21
1.98953
0
LINE
8
BLACK
6
CONTINUOUS
10
2.54429
20
1.98953
11
2.57793
21
2.00705
0
LINE
8
BLACK
6
CONTINUOUS
10
2.57793
20
2.00705
11
0.222067
21
2.00705
0
LINE
8
BLACK
6
CONTINUOUS
10
0.222067
20
2.00705
11
0.255714
21
1.98953
0
LINE
8
BLACK
6
CONTINUOUS
10
0.255714
20
1.98953
11
0.256528
21
1.98891
0
LINE
8
BLACK
6
CONTINUOUS
10
0.256528
20
1.98891
11
0.2573
21
1.98704
0
LINE
8
BLACK
6
CONTINUOUS
10
0.2573
20
1.98704
11
0.256693
21
1.98512
0
LINE
8
BLACK
6
CONTINUOUS
10
0.256693
20
1.98512
11
0.25499
21
1.98403
0
LINE
8
BLACK
6
CONTINUOUS
10
0.25499
20
1.98403
11
0.252987
21
1.98429
0
LINE
8
BLACK
6
CONTINUOUS
10
0.252987
20
1.98429
11
0.212953
21
2.00513
0
LINE
8
BLACK
6
CONTINUOUS
10
0.212953
20
2.00513
11
0.212953
21
1.80969
0
LINE
8
BLACK
6
CONTINUOUS
10
0.212953
20
1.80969
11
0.212775
21
1.80868
0
LINE
8
BLACK
6
CONTINUOUS
10
0.212775
20
1.80868
11
0.211476
21
1.80713
0
LINE
8
BLACK
6
CONTINUOUS
10
0.211476
20
1.80713
11
0.209487
21
1.80678
0
LINE
8
BLACK
6
CONTINUOUS
10
0.209487
20
1.80678
11
0.207738
21
1.80779
0
LINE
8
BLACK
6
CONTINUOUS
10
0.207738
20
1.80779
11
0.207047
21
1.80969
0
LINE
8
BLACK
6
CONTINUOUS
10
0.207047
20
1.80969
11
0.207047
21
2.03309
0
LINE
8
BLACK
6
CONTINUOUS
10
0.207047
20
2.03309
11
0.207225
21
2.0341
0
LINE
8
BLACK
6
CONTINUOUS
10
0.207225
20
2.0341
11
0.208524
21
2.03564
0
LINE
8
BLACK
6
CONTINUOUS
10
0.208524
20
2.03564
11
0.210513
21
2.036
0
LINE
8
BLACK
6
CONTINUOUS
10
0.210513
20
2.036
11
0.212262
21
2.03499
0
LINE
8
BLACK
6
CONTINUOUS
10
0.212262
20
2.03499
11
0.212953
21
2.03309
0
LINE
8
BLACK
6
CONTINUOUS
10
0.212953
20
2.03309
11
0.212953
21
2.01487
0
LINE
8
BLACK
6
CONTINUOUS
10
0.212953
20
2.01487
11
0.252987
21
2.03571
0
LINE
8
BLACK
6
CONTINUOUS
10
0.252987
20
2.03571
11
0.253965
21
2.03601
0
LINE
8
BLACK
6
CONTINUOUS
10
0.253965
20
2.03601
11
0.255937
21
2.03558
0
LINE
8
BLACK
6
CONTINUOUS
10
1.27165
20
2.07951
11
1.27179
21
2.0794
0
LINE
8
BLACK
6
CONTINUOUS
10
1.27179
20
2.0794
11
1.27196
21
2.07938
0
LINE
8
BLACK
6
CONTINUOUS
10
1.27196
20
2.07938
11
1.27571
21
2.07751
0
LINE
8
BLACK
6
CONTINUOUS
10
1.27571
20
2.07751
11
1.27642
21
2.07698
0
LINE
8
BLACK
6
CONTINUOUS
10
1.27642
20
2.07698
11
1.27648
21
2.07695
0
LINE
8
BLACK
6
CONTINUOUS
10
1.27648
20
2.07695
11
1.27835
21
2.07508
0
LINE
8
BLACK
6
CONTINUOUS
10
1.27835
20
2.07508
11
1.27886
21
2.07435
0
LINE
8
BLACK
6
CONTINUOUS
10
1.27886
20
2.07435
11
1.27891
21
2.07431
0
LINE
8
BLACK
6
CONTINUOUS
10
1.27891
20
2.07431
11
1.28078
21
2.07056
0
LINE
8
BLACK
6
CONTINUOUS
10
1.28078
20
2.07056
11
1.28107
21
2.06958
0
LINE
8
BLACK
6
CONTINUOUS
10
1.28107
20
2.06958
11
1.28103
21
2.06941
0
LINE
8
BLACK
6
CONTINUOUS
10
1.28103
20
2.06941
11
1.28109
21
2.06924
0
LINE
8
BLACK
6
CONTINUOUS
10
1.28109
20
2.06924
11
1.28109
21
2.06549
0
LINE
8
BLACK
6
CONTINUOUS
10
1.28109
20
2.06549
11
1.28094
21
2.06462
0
LINE
8
BLACK
6
CONTINUOUS
10
1.28094
20
2.06462
11
1.28094
21
2.06456
0
LINE
8
BLACK
6
CONTINUOUS
10
1.28094
20
2.06456
11
1.27907
21
2.05893
0
LINE
8
BLACK
6
CONTINUOUS
10
1.27907
20
2.05893
11
1.27858
21
2.05803
0
LINE
8
BLACK
6
CONTINUOUS
10
1.27858
20
2.05803
11
1.27843
21
2.05794
0
LINE
8
BLACK
6
CONTINUOUS
10
1.27843
20
2.05794
11
1.27835
21
2.05778
0
LINE
8
BLACK
6
CONTINUOUS
10
1.27835
20
2.05778
11
1.2609
21
2.04032
0
LINE
8
BLACK
6
CONTINUOUS
10
1.2609
20
2.04032
11
1.27814
21
2.04032
0
LINE
8
BLACK
6
CONTINUOUS
10
1.27814
20
2.04032
11
1.27915
21
2.04014
0
LINE
8
BLACK
6
CONTINUOUS
10
1.27915
20
2.04014
11
1.2807
21
2.03885
0
LINE
8
BLACK
6
CONTINUOUS
10
1.2807
20
2.03885
11
1.28105
21
2.03686
0
LINE
8
BLACK
6
CONTINUOUS
10
1.28105
20
2.03686
11
1.28004
21
2.03511
0
LINE
8
BLACK
6
CONTINUOUS
10
1.28004
20
2.03511
11
1.27814
21
2.03442
0
LINE
8
BLACK
6
CONTINUOUS
10
1.27814
20
2.03442
11
1.25377
21
2.03442
0
LINE
8
BLACK
6
CONTINUOUS
10
1.25377
20
2.03442
11
1.25313
21
2.03453
0
LINE
8
BLACK
6
CONTINUOUS
10
1.25313
20
2.03453
11
1.253
21
2.03452
0
LINE
8
BLACK
6
CONTINUOUS
10
1.253
20
2.03452
11
1.25294
21
2.03456
0
LINE
8
BLACK
6
CONTINUOUS
10
1.25294
20
2.03456
11
1.25276
21
2.03459
0
LINE
8
BLACK
6
CONTINUOUS
10
1.25276
20
2.03459
11
1.25208
21
2.03517
0
LINE
8
BLACK
6
CONTINUOUS
10
1.25208
20
2.03517
11
1.25135
21
2.03568
0
LINE
8
BLACK
6
CONTINUOUS
10
1.25135
20
2.03568
11
1.25131
21
2.03581
0
LINE
8
BLACK
6
CONTINUOUS
10
1.25131
20
2.03581
11
1.25121
21
2.03589
0
LINE
8
BLACK
6
CONTINUOUS
10
1.25121
20
2.03589
11
1.25106
21
2.03677
0
LINE
8
BLACK
6
CONTINUOUS
10
1.25106
20
2.03677
11
1.25083
21
2.03763
0
LINE
8
BLACK
6
CONTINUOUS
10
1.25083
20
2.03763
11
1.25088
21
2.03775
0
LINE
8
BLACK
6
CONTINUOUS
10
1.25088
20
2.03775
11
1.25086
21
2.03788
0
LINE
8
BLACK
6
CONTINUOUS
10
1.25086
20
2.03788
11
1.2513
21
2.03865
0
LINE
8
BLACK
6
CONTINUOUS
10
1.2513
20
2.03865
11
1.25168
21
2.03946
0
LINE
8
BLACK
6
CONTINUOUS
10
1.25168
20
2.03946
11
1.27368
21
2.06146
0
LINE
8
BLACK
6
CONTINUOUS
10
1.27368
20
2.06146
11
1.27519
21
2.06597
0
LINE
8
BLACK
6
CONTINUOUS
10
1.27519
20
2.06597
11
1.27519
21
2.06854
0
LINE
8
BLACK
6
CONTINUOUS
10
1.27519
20
2.06854
11
1.27384
21
2.07124
0
LINE
8
BLACK
6
CONTINUOUS
10
1.27384
20
2.07124
11
1.27264
21
2.07244
0
LINE
8
BLACK
6
CONTINUOUS
10
1.27264
20
2.07244
11
1.26994
21
2.07379
0
LINE
8
BLACK
6
CONTINUOUS
10
1.26994
20
2.07379
11
1.26196
21
2.07379
0
LINE
8
BLACK
6
CONTINUOUS
10
1.26196
20
2.07379
11
1.25927
21
2.07244
0
LINE
8
BLACK
6
CONTINUOUS
10
1.25927
20
2.07244
11
1.25773
21
2.0709
0
LINE
8
BLACK
6
CONTINUOUS
10
1.25773
20
2.0709
11
1.25689
21
2.07031
0
LINE
8
BLACK
6
CONTINUOUS
10
1.25689
20
2.07031
11
1.25488
21
2.07014
0
LINE
8
BLACK
6
CONTINUOUS
10
1.25488
20
2.07014
11
1.25322
21
2.0713
0
LINE
8
BLACK
6
CONTINUOUS
10
1.25322
20
2.0713
11
1.2527
21
2.07325
0
LINE
8
BLACK
6
CONTINUOUS
10
1.2527
20
2.07325
11
1.25356
21
2.07508
0
LINE
8
BLACK
6
CONTINUOUS
10
1.25356
20
2.07508
11
1.25543
21
2.07695
0
LINE
8
BLACK
6
CONTINUOUS
10
1.25543
20
2.07695
11
1.25615
21
2.07746
0
LINE
8
BLACK
6
CONTINUOUS
10
1.25615
20
2.07746
11
1.2562
21
2.07751
0
LINE
8
BLACK
6
CONTINUOUS
10
1.2562
20
2.07751
11
1.25995
21
2.07938
0
LINE
8
BLACK
6
CONTINUOUS
10
1.25995
20
2.07938
11
1.26093
21
2.07967
0
LINE
8
BLACK
6
CONTINUOUS
10
1.26093
20
2.07967
11
1.2611
21
2.07963
0
LINE
8
BLACK
6
CONTINUOUS
10
1.2611
20
2.07963
11
1.26127
21
2.07969
0
LINE
8
BLACK
6
CONTINUOUS
10
1.26127
20
2.07969
11
1.27064
21
2.07969
0
LINE
8
BLACK
6
CONTINUOUS
10
1.27064
20
2.07969
11
1.27165
21
2.07951
0
LINE
8
BLACK
6
CONTINUOUS
10
1.31607
20
2.07962
11
1.31621
21
2.07964
0
LINE
8
BLACK
6
CONTINUOUS
10
1.31621
20
2.07964
11
1.31631
21
2.07957
0
LINE
8
BLACK
6
CONTINUOUS
10
1.31631
20
2.07957
11
1.31665
21
2.07951
0
LINE
8
BLACK
6
CONTINUOUS
10
1.31665
20
2.07951
11
1.31726
21
2.079
0
LINE
8
BLACK
6
CONTINUOUS
10
1.31726
20
2.079
11
1.31794
21
2.07859
0
LINE
8
BLACK
6
CONTINUOUS
10
1.31794
20
2.07859
11
1.31801
21
2.07837
0
LINE
8
BLACK
6
CONTINUOUS
10
1.31801
20
2.07837
11
1.31819
21
2.07822
0
LINE
8
BLACK
6
CONTINUOUS
10
1.31819
20
2.07822
11
1.31833
21
2.07743
0
LINE
8
BLACK
6
CONTINUOUS
10
1.31833
20
2.07743
11
1.31859
21
2.07668
0
LINE
8
BLACK
6
CONTINUOUS
10
1.31859
20
2.07668
11
1.3185
21
2.07646
0
LINE
8
BLACK
6
CONTINUOUS
10
1.3185
20
2.07646
11
1.31854
21
2.07623
0
LINE
8
BLACK
6
CONTINUOUS
10
1.31854
20
2.07623
11
1.31815
21
2.07554
0
LINE
8
BLACK
6
CONTINUOUS
10
1.31815
20
2.07554
11
1.31786
21
2.07479
0
LINE
8
BLACK
6
CONTINUOUS
10
1.31786
20
2.07479
11
1.3089
21
2.06456
0
LINE
8
BLACK
6
CONTINUOUS
10
1.3089
20
2.06456
11
1.30915
21
2.06452
0
LINE
8
BLACK
6
CONTINUOUS
10
1.30915
20
2.06452
11
1.30928
21
2.0644
0
LINE
8
BLACK
6
CONTINUOUS
10
1.30928
20
2.0644
11
1.30946
21
2.06438
0
LINE
8
BLACK
6
CONTINUOUS
10
1.30946
20
2.06438
11
1.31321
21
2.06251
0
LINE
8
BLACK
6
CONTINUOUS
10
1.31321
20
2.06251
11
1.31392
21
2.06198
0
LINE
8
BLACK
6
CONTINUOUS
10
1.31392
20
2.06198
11
1.31397
21
2.06195
0
LINE
8
BLACK
6
CONTINUOUS
10
1.31397
20
2.06195
11
1.31585
21
2.06008
0
LINE
8
BLACK
6
CONTINUOUS
10
1.31585
20
2.06008
11
1.31635
21
2.05936
0
LINE
8
BLACK
6
CONTINUOUS
10
1.31635
20
2.05936
11
1.3164
21
2.05931
0
LINE
8
BLACK
6
CONTINUOUS
10
1.3164
20
2.05931
11
1.31828
21
2.05556
0
LINE
8
BLACK
6
CONTINUOUS
10
1.31828
20
2.05556
11
1.31857
21
2.05458
0
LINE
8
BLACK
6
CONTINUOUS
10
1.31857
20
2.05458
11
1.31853
21
2.05441
0
LINE
8
BLACK
6
CONTINUOUS
10
1.31853
20
2.05441
11
1.31859
21
2.05424
0
LINE
8
BLACK
6
CONTINUOUS
10
1.31859
20
2.05424
11
1.31859
21
2.04487
0
LINE
8
BLACK
6
CONTINUOUS
10
1.31859
20
2.04487
11
1.31841
21
2.04386
0
LINE
8
BLACK
6
CONTINUOUS
10
1.31841
20
2.04386
11
1.3183
21
2.04372
0
LINE
8
BLACK
6
CONTINUOUS
10
1.3183
20
2.04372
11
1.31828
21
2.04355
0
LINE
8
BLACK
6
CONTINUOUS
10
1.31828
20
2.04355
11
1.3164
21
2.0398
0
LINE
8
BLACK
6
CONTINUOUS
10
1.3164
20
2.0398
11
1.31588
21
2.03909
0
LINE
8
BLACK
6
CONTINUOUS
10
1.31588
20
2.03909
11
1.31585
21
2.03903
0
LINE
8
BLACK
6
CONTINUOUS
10
1.31585
20
2.03903
11
1.31397
21
2.03716
0
LINE
8
BLACK
6
CONTINUOUS
10
1.31397
20
2.03716
11
1.31325
21
2.03665
0
LINE
8
BLACK
6
CONTINUOUS
10
1.31325
20
2.03665
11
1.31321
21
2.0366
0
LINE
8
BLACK
6
CONTINUOUS
10
1.31321
20
2.0366
11
1.30946
21
2.03473
0
LINE
8
BLACK
6
CONTINUOUS
10
1.30946
20
2.03473
11
1.30847
21
2.03444
0
LINE
8
BLACK
6
CONTINUOUS
10
1.30847
20
2.03444
11
1.3083
21
2.03448
0
LINE
8
BLACK
6
CONTINUOUS
10
1.3083
20
2.03448
11
1.30814
21
2.03442
0
LINE
8
BLACK
6
CONTINUOUS
10
1.30814
20
2.03442
11
1.29689
21
2.03442
0
LINE
8
BLACK
6
CONTINUOUS
10
1.29689
20
2.03442
11
1.29588
21
2.03459
0
LINE
8
BLACK
6
CONTINUOUS
10
1.29588
20
2.03459
11
1.29574
21
2.03471
0
LINE
8
BLACK
6
CONTINUOUS
10
1.29574
20
2.03471
11
1.29557
21
2.03473
0
LINE
8
BLACK
6
CONTINUOUS
10
1.29557
20
2.03473
11
1.29182
21
2.0366
0
LINE
8
BLACK
6
CONTINUOUS
10
1.29182
20
2.0366
11
1.29111
21
2.03713
0
LINE
8
BLACK
6
CONTINUOUS
10
1.29111
20
2.03713
11
1.29105
21
2.03716
0
LINE
8
BLACK
6
CONTINUOUS
10
1.29105
20
2.03716
11
1.28918
21
2.03903
0
LINE
8
BLACK
6
CONTINUOUS
10
1.28918
20
2.03903
11
1.28859
21
2.03987
0
LINE
8
BLACK
6
CONTINUOUS
10
1.28859
20
2.03987
11
1.28841
21
2.04188
0
LINE
8
BLACK
6
CONTINUOUS
10
1.28841
20
2.04188
11
1.28957
21
2.04354
0
LINE
8
BLACK
6
CONTINUOUS
10
1.28957
20
2.04354
11
1.29152
21
2.04406
0
LINE
8
BLACK
6
CONTINUOUS
10
1.29152
20
2.04406
11
1.29335
21
2.04321
0
LINE
8
BLACK
6
CONTINUOUS
10
1.29335
20
2.04321
11
1.29489
21
2.04167
0
LINE
8
BLACK
6
CONTINUOUS
10
1.29489
20
2.04167
11
1.29758
21
2.04032
0
LINE
8
BLACK
6
CONTINUOUS
10
1.29758
20
2.04032
11
1.30744
21
2.04032
0
LINE
8
BLACK
6
CONTINUOUS
10
1.30744
20
2.04032
11
1.31014
21
2.04167
0
LINE
8
BLACK
6
CONTINUOUS
10
1.31014
20
2.04167
11
1.31133
21
2.04287
0
LINE
8
BLACK
6
CONTINUOUS
10
1.31133
20
2.04287
11
1.31268
21
2.04557
0
LINE
8
BLACK
6
CONTINUOUS
10
1.31268
20
2.04557
11
1.31268
21
2.05355
0
LINE
8
BLACK
6
CONTINUOUS
10
1.31268
20
2.05355
11
1.31133
21
2.05624
0
LINE
8
BLACK
6
CONTINUOUS
10
1.31133
20
2.05624
11
1.31014
21
2.05744
0
LINE
8
BLACK
6
CONTINUOUS
10
1.31014
20
2.05744
11
1.30744
21
2.05879
0
LINE
8
BLACK
6
CONTINUOUS
10
1.30744
20
2.05879
11
1.30251
21
2.05879
0
LINE
8
BLACK
6
CONTINUOUS
10
1.30251
20
2.05879
11
1.30207
21
2.05887
0
LINE
8
BLACK
6
CONTINUOUS
10
1.30207
20
2.05887
11
1.30194
21
2.05884
0
LINE
8
BLACK
6
CONTINUOUS
10
1.30194
20
2.05884
11
1.30183
21
2.05891
0
LINE
8
BLACK
6
CONTINUOUS
10
1.30183
20
2.05891
11
1.3015
21
2.05897
0
LINE
8
BLACK
6
CONTINUOUS
10
1.3015
20
2.05897
11
1.30089
21
2.05948
0
LINE
8
BLACK
6
CONTINUOUS
10
1.30089
20
2.05948
11
1.30021
21
2.05989
0
LINE
8
BLACK
6
CONTINUOUS
10
1.30021
20
2.05989
11
1.30014
21
2.06011
0
LINE
8
BLACK
6
CONTINUOUS
10
1.30014
20
2.06011
11
1.29995
21
2.06026
0
LINE
8
BLACK
6
CONTINUOUS
10
1.29995
20
2.06026
11
1.29982
21
2.06105
0
LINE
8
BLACK
6
CONTINUOUS
10
1.29982
20
2.06105
11
1.29956
21
2.0618
0
LINE
8
BLACK
6
CONTINUOUS
10
1.29956
20
2.0618
11
1.29965
21
2.06202
0
LINE
8
BLACK
6
CONTINUOUS
10
1.29965
20
2.06202
11
1.2996
21
2.06225
0
LINE
8
BLACK
6
CONTINUOUS
10
1.2996
20
2.06225
11
1.3
21
2.06294
0
LINE
8
BLACK
6
CONTINUOUS
10
1.3
20
2.06294
11
1.30029
21
2.06369
0
LINE
8
BLACK
6
CONTINUOUS
10
1.30029
20
2.06369
11
1.30913
21
2.07379
0
LINE
8
BLACK
6
CONTINUOUS
10
1.30913
20
2.07379
11
1.29126
21
2.07379
0
LINE
8
BLACK
6
CONTINUOUS
10
1.29126
20
2.07379
11
1.29025
21
2.07396
0
LINE
8
BLACK
6
CONTINUOUS
10
1.29025
20
2.07396
11
1.28871
21
2.07526
0
LINE
8
BLACK
6
CONTINUOUS
10
1.28871
20
2.07526
11
1.28836
21
2.07725
0
LINE
8
BLACK
6
CONTINUOUS
10
1.28836
20
2.07725
11
1.28937
21
2.079
0
LINE
8
BLACK
6
CONTINUOUS
10
1.28937
20
2.079
11
1.29126
21
2.07969
0
LINE
8
BLACK
6
CONTINUOUS
10
1.29126
20
2.07969
11
1.31564
21
2.07969
0
LINE
8
BLACK
6
CONTINUOUS
10
1.31564
20
2.07969
11
1.31607
21
2.07962
0
LINE
8
BLACK
6
CONTINUOUS
10
1.34664
20
2.07951
11
1.34678
21
2.0794
0
LINE
8
BLACK
6
CONTINUOUS
10
1.34678
20
2.0794
11
1.34695
21
2.07938
0
LINE
8
BLACK
6
CONTINUOUS
10
1.34695
20
2.07938
11
1.3507
21
2.07751
0
LINE
8
BLACK
6
CONTINUOUS
10
1.3507
20
2.07751
11
1.35141
21
2.07698
0
LINE
8
BLACK
6
CONTINUOUS
10
1.35141
20
2.07698
11
1.35147
21
2.07695
0
LINE
8
BLACK
6
CONTINUOUS
10
1.35147
20
2.07695
11
1.35334
21
2.07508
0
LINE
8
BLACK
6
CONTINUOUS
10
1.35334
20
2.07508
11
1.35385
21
2.07435
0
LINE
8
BLACK
6
CONTINUOUS
10
1.35385
20
2.07435
11
1.3539
21
2.07431
0
LINE
8
BLACK
6
CONTINUOUS
10
1.3539
20
2.07431
11
1.35577
21
2.07056
0
LINE
8
BLACK
6
CONTINUOUS
10
1.35577
20
2.07056
11
1.35606
21
2.06958
0
LINE
8
BLACK
6
CONTINUOUS
10
1.35606
20
2.06958
11
1.35602
21
2.06941
0
LINE
8
BLACK
6
CONTINUOUS
10
1.35602
20
2.06941
11
1.35608
21
2.06924
0
LINE
8
BLACK
6
CONTINUOUS
10
1.35608
20
2.06924
11
1.35608
21
2.06737
0
LINE
8
BLACK
6
CONTINUOUS
10
1.35608
20
2.06737
11
1.35591
21
2.06636
0
LINE
8
BLACK
6
CONTINUOUS
10
1.35591
20
2.06636
11
1.35579
21
2.06622
0
LINE
8
BLACK
6
CONTINUOUS
10
1.35579
20
2.06622
11
1.35577
21
2.06605
0
LINE
8
BLACK
6
CONTINUOUS
10
1.35577
20
2.06605
11
1.3539
21
2.0623
0
LINE
8
BLACK
6
CONTINUOUS
10
1.3539
20
2.0623
11
1.35337
21
2.06159
0
LINE
8
BLACK
6
CONTINUOUS
10
1.35337
20
2.06159
11
1.35334
21
2.06153
0
LINE
8
BLACK
6
CONTINUOUS
10
1.35334
20
2.06153
11
1.35168
21
2.05987
0
LINE
8
BLACK
6
CONTINUOUS
10
1.35168
20
2.05987
11
1.35334
21
2.0582
0
LINE
8
BLACK
6
CONTINUOUS
10
1.35334
20
2.0582
11
1.35385
21
2.05748
0
LINE
8
BLACK
6
CONTINUOUS
10
1.35385
20
2.05748
11
1.3539
21
2.05744
0
LINE
8
BLACK
6
CONTINUOUS
10
1.3539
20
2.05744
11
1.35577
21
2.05369
0
LINE
8
BLACK
6
CONTINUOUS
10
1.35577
20
2.05369
11
1.35606
21
2.05271
0
LINE
8
BLACK
6
CONTINUOUS
10
1.35606
20
2.05271
11
1.35602
21
2.05253
0
LINE
8
BLACK
6
CONTINUOUS
10
1.35602
20
2.05253
11
1.35608
21
2.05237
0
LINE
8
BLACK
6
CONTINUOUS
10
1.35608
20
2.05237
11
1.35608
21
2.04487
0
LINE
8
BLACK
6
CONTINUOUS
10
1.35608
20
2.04487
11
1.35591
21
2.04386
0
LINE
8
BLACK
6
CONTINUOUS
10
1.35591
20
2.04386
11
1.35579
21
2.04372
0
LINE
8
BLACK
6
CONTINUOUS
10
1.35579
20
2.04372
11
1.35577
21
2.04355
0
LINE
8
BLACK
6
CONTINUOUS
10
1.35577
20
2.04355
11
1.3539
21
2.0398
0
LINE
8
BLACK
6
CONTINUOUS
10
1.3539
20
2.0398
11
1.35337
21
2.03909
0
LINE
8
BLACK
6
CONTINUOUS
10
1.35337
20
2.03909
11
1.35334
21
2.03903
0
LINE
8
BLACK
6
CONTINUOUS
10
1.35334
20
2.03903
11
1.35147
21
2.03716
0
LINE
8
BLACK
6
CONTINUOUS
10
1.35147
20
2.03716
11
1.35075
21
2.03665
0
LINE
8
BLACK
6
CONTINUOUS
10
1.35075
20
2.03665
11
1.3507
21
2.0366
0
LINE
8
BLACK
6
CONTINUOUS
10
1.3507
20
2.0366
11
1.34695
21
2.03473
0
LINE
8
BLACK
6
CONTINUOUS
10
1.34695
20
2.03473
11
1.34597
21
2.03444
0
LINE
8
BLACK
6
CONTINUOUS
10
1.34597
20
2.03444
11
1.3458
21
2.03448
0
LINE
8
BLACK
6
CONTINUOUS
10
1.3458
20
2.03448
11
1.34563
21
2.03442
0
LINE
8
BLACK
6
CONTINUOUS
10
1.34563
20
2.03442
11
1.33813
21
2.03442
0
LINE
8
BLACK
6
CONTINUOUS
10
1.33813
20
2.03442
11
1.33712
21
2.03459
0
LINE
8
BLACK
6
CONTINUOUS
10
1.33712
20
2.03459
11
1.33699
21
2.03471
0
LINE
8
BLACK
6
CONTINUOUS
10
1.33699
20
2.03471
11
1.33681
21
2.03473
0
LINE
8
BLACK
6
CONTINUOUS
10
1.33681
20
2.03473
11
1.33306
21
2.0366
0
LINE
8
BLACK
6
CONTINUOUS
10
1.33306
20
2.0366
11
1.33235
21
2.03713
0
LINE
8
BLACK
6
CONTINUOUS
10
1.33235
20
2.03713
11
1.3323
21
2.03716
0
LINE
8
BLACK
6
CONTINUOUS
10
1.3323
20
2.03716
11
1.33042
21
2.03903
0
LINE
8
BLACK
6
CONTINUOUS
10
1.33042
20
2.03903
11
1.32991
21
2.03975
0
LINE
8
BLACK
6
CONTINUOUS
10
1.32991
20
2.03975
11
1.32987
21
2.0398
0
LINE
8
BLACK
6
CONTINUOUS
10
1.32987
20
2.0398
11
1.32799
21
2.04355
0
LINE
8
BLACK
6
CONTINUOUS
10
1.32799
20
2.04355
11
1.3277
21
2.04453
0
LINE
8
BLACK
6
CONTINUOUS
10
1.3277
20
2.04453
11
1.32774
21
2.0447
0
LINE
8
BLACK
6
CONTINUOUS
10
1.32774
20
2.0447
11
1.32768
21
2.04487
0
LINE
8
BLACK
6
CONTINUOUS
10
1.32768
20
2.04487
11
1.32768
21
2.05237
0
LINE
8
BLACK
6
CONTINUOUS
10
1.32768
20
2.05237
11
1.32786
21
2.05338
0
LINE
8
BLACK
6
CONTINUOUS
10
1.32786
20
2.05338
11
1.32797
21
2.05351
0
LINE
8
BLACK
6
CONTINUOUS
10
1.32797
20
2.05351
11
1.32799
21
2.05369
0
LINE
8
BLACK
6
CONTINUOUS
10
1.32799
20
2.05369
11
1.32987
21
2.05744
0
LINE
8
BLACK
6
CONTINUOUS
10
1.32987
20
2.05744
11
1.33039
21
2.05815
0
LINE
8
BLACK
6
CONTINUOUS
10
1.33039
20
2.05815
11
1.33042
21
2.0582
0
LINE
8
BLACK
6
CONTINUOUS
10
1.33042
20
2.0582
11
1.33208
21
2.05987
0
LINE
8
BLACK
6
CONTINUOUS
10
1.33208
20
2.05987
11
1.33042
21
2.06153
0
LINE
8
BLACK
6
CONTINUOUS
10
1.33042
20
2.06153
11
1.32991
21
2.06225
0
LINE
8
BLACK
6
CONTINUOUS
10
1.32991
20
2.06225
11
1.32987
21
2.0623
0
LINE
8
BLACK
6
CONTINUOUS
10
1.32987
20
2.0623
11
1.32799
21
2.06605
0
LINE
8
BLACK
6
CONTINUOUS
10
1.32799
20
2.06605
11
1.3277
21
2.06703
0
LINE
8
BLACK
6
CONTINUOUS
10
1.3277
20
2.06703
11
1.32774
21
2.0672
0
LINE
8
BLACK
6
CONTINUOUS
10
1.32774
20
2.0672
11
1.32768
21
2.06737
0
LINE
8
BLACK
6
CONTINUOUS
10
1.32768
20
2.06737
11
1.32768
21
2.06924
0
LINE
8
BLACK
6
CONTINUOUS
10
1.32768
20
2.06924
11
1.32786
21
2.07025
0
LINE
8
BLACK
6
CONTINUOUS
10
1.32786
20
2.07025
11
1.32797
21
2.07039
0
LINE
8
BLACK
6
CONTINUOUS
10
1.32797
20
2.07039
11
1.32799
21
2.07056
0
LINE
8
BLACK
6
CONTINUOUS
10
1.32799
20
2.07056
11
1.32987
21
2.07431
0
LINE
8
BLACK
6
CONTINUOUS
10
1.32987
20
2.07431
11
1.33039
21
2.07502
0
LINE
8
BLACK
6
CONTINUOUS
10
1.33039
20
2.07502
11
1.33042
21
2.07508
0
LINE
8
BLACK
6
CONTINUOUS
10
1.33042
20
2.07508
11
1.3323
21
2.07695
0
LINE
8
BLACK
6
CONTINUOUS
10
1.3323
20
2.07695
11
1.33302
21
2.07746
0
LINE
8
BLACK
6
CONTINUOUS
10
1.33302
20
2.07746
11
1.33306
21
2.07751
0
LINE
8
BLACK
6
CONTINUOUS
10
1.33306
20
2.07751
11
1.33681
21
2.07938
0
LINE
8
BLACK
6
CONTINUOUS
10
1.33681
20
2.07938
11
1.3378
21
2.07967
0
LINE
8
BLACK
6
CONTINUOUS
10
1.3378
20
2.07967
11
1.33797
21
2.07963
0
LINE
8
BLACK
6
CONTINUOUS
10
1.33797
20
2.07963
11
1.33813
21
2.07969
0
LINE
8
BLACK
6
CONTINUOUS
10
1.33813
20
2.07969
11
1.34563
21
2.07969
0
LINE
8
BLACK
6
CONTINUOUS
10
1.34563
20
2.07969
11
1.34664
21
2.07951
0
LINE
8
BLACK
6
CONTINUOUS
10
1.33613
20
2.05557
11
1.33494
21
2.05437
0
LINE
8
BLACK
6
CONTINUOUS
10
1.33494
20
2.05437
11
1.33359
21
2.05167
0
LINE
8
BLACK
6
CONTINUOUS
10
1.33359
20
2.05167
11
1.33359
21
2.04557
0
LINE
8
BLACK
6
CONTINUOUS
10
1.33359
20
2.04557
11
1.33494
21
2.04287
0
LINE
8
BLACK
6
CONTINUOUS
10
1.33494
20
2.04287
11
1.33613
21
2.04167
0
LINE
8
BLACK
6
CONTINUOUS
10
1.33613
20
2.04167
11
1.33883
21
2.04032
0
LINE
8
BLACK
6
CONTINUOUS
10
1.33883
20
2.04032
11
1.34493
21
2.04032
0
LINE
8
BLACK
6
CONTINUOUS
10
1.34493
20
2.04032
11
1.34763
21
2.04167
0
LINE
8
BLACK
6
CONTINUOUS
10
1.34763
20
2.04167
11
1.34883
21
2.04287
0
LINE
8
BLACK
6
CONTINUOUS
10
1.34883
20
2.04287
11
1.35018
21
2.04557
0
LINE
8
BLACK
6
CONTINUOUS
10
1.35018
20
2.04557
11
1.35018
21
2.05167
0
LINE
8
BLACK
6
CONTINUOUS
10
1.35018
20
2.05167
11
1.34883
21
2.05437
0
LINE
8
BLACK
6
CONTINUOUS
10
1.34883
20
2.05437
11
1.34763
21
2.05557
0
LINE
8
BLACK
6
CONTINUOUS
10
1.34763
20
2.05557
11
1.34493
21
2.05691
0
LINE
8
BLACK
6
CONTINUOUS
10
1.34493
20
2.05691
11
1.33883
21
2.05691
0
LINE
8
BLACK
6
CONTINUOUS
10
1.33883
20
2.05691
11
1.33613
21
2.05557
0
LINE
8
BLACK
6
CONTINUOUS
10
1.33613
20
2.07244
11
1.33494
21
2.07124
0
LINE
8
BLACK
6
CONTINUOUS
10
1.33494
20
2.07124
11
1.33359
21
2.06854
0
LINE
8
BLACK
6
CONTINUOUS
10
1.33359
20
2.06854
11
1.33359
21
2.06806
0
LINE
8
BLACK
6
CONTINUOUS
10
1.33359
20
2.06806
11
1.33494
21
2.06537
0
LINE
8
BLACK
6
CONTINUOUS
10
1.33494
20
2.06537
11
1.33613
21
2.06417
0
LINE
8
BLACK
6
CONTINUOUS
10
1.33613
20
2.06417
11
1.33883
21
2.06282
0
LINE
8
BLACK
6
CONTINUOUS
10
1.33883
20
2.06282
11
1.34493
21
2.06282
0
LINE
8
BLACK
6
CONTINUOUS
10
1.34493
20
2.06282
11
1.34763
21
2.06417
0
LINE
8
BLACK
6
CONTINUOUS
10
1.34763
20
2.06417
11
1.34883
21
2.06537
0
LINE
8
BLACK
6
CONTINUOUS
10
1.34883
20
2.06537
11
1.35018
21
2.06806
0
LINE
8
BLACK
6
CONTINUOUS
10
1.35018
20
2.06806
11
1.35018
21
2.06854
0
LINE
8
BLACK
6
CONTINUOUS
10
1.35018
20
2.06854
11
1.34883
21
2.07124
0
LINE
8
BLACK
6
CONTINUOUS
10
1.34883
20
2.07124
11
1.34763
21
2.07244
0
LINE
8
BLACK
6
CONTINUOUS
10
1.34763
20
2.07244
11
1.34493
21
2.07379
0
LINE
8
BLACK
6
CONTINUOUS
10
1.34493
20
2.07379
11
1.33883
21
2.07379
0
LINE
8
BLACK
6
CONTINUOUS
10
1.33883
20
2.07379
11
1.33613
21
2.07244
0
LINE
8
BLACK
6
CONTINUOUS
10
1.38226
20
2.07951
11
1.3824
21
2.0794
0
LINE
8
BLACK
6
CONTINUOUS
10
1.3824
20
2.0794
11
1.38257
21
2.07938
0
LINE
8
BLACK
6
CONTINUOUS
10
1.38257
20
2.07938
11
1.38632
21
2.07751
0
LINE
8
BLACK
6
CONTINUOUS
10
1.38632
20
2.07751
11
1.38703
21
2.07698
0
LINE
8
BLACK
6
CONTINUOUS
10
1.38703
20
2.07698
11
1.38709
21
2.07695
0
LINE
8
BLACK
6
CONTINUOUS
10
1.38709
20
2.07695
11
1.38896
21
2.07508
0
LINE
8
BLACK
6
CONTINUOUS
10
1.38896
20
2.07508
11
1.38947
21
2.07435
0
LINE
8
BLACK
6
CONTINUOUS
10
1.38947
20
2.07435
11
1.38952
21
2.07431
0
LINE
8
BLACK
6
CONTINUOUS
10
1.38952
20
2.07431
11
1.39139
21
2.07056
0
LINE
8
BLACK
6
CONTINUOUS
10
1.39139
20
2.07056
11
1.39154
21
2.07007
0
LINE
8
BLACK
6
CONTINUOUS
10
1.39154
20
2.07007
11
1.39162
21
2.06996
0
LINE
8
BLACK
6
CONTINUOUS
10
1.39162
20
2.06996
11
1.39349
21
2.06246
0
LINE
8
BLACK
6
CONTINUOUS
10
1.39349
20
2.06246
11
1.39353
21
2.06187
0
LINE
8
BLACK
6
CONTINUOUS
10
1.39353
20
2.06187
11
1.39358
21
2.06174
0
LINE
8
BLACK
6
CONTINUOUS
10
1.39358
20
2.06174
11
1.39358
21
2.05237
0
LINE
8
BLACK
6
CONTINUOUS
10
1.39358
20
2.05237
11
1.39348
21
2.05179
0
LINE
8
BLACK
6
CONTINUOUS
10
1.39348
20
2.05179
11
1.39349
21
2.05165
0
LINE
8
BLACK
6
CONTINUOUS
10
1.39349
20
2.05165
11
1.39162
21
2.04415
0
LINE
8
BLACK
6
CONTINUOUS
10
1.39162
20
2.04415
11
1.39141
21
2.04369
0
LINE
8
BLACK
6
CONTINUOUS
10
1.39141
20
2.04369
11
1.39139
21
2.04355
0
LINE
8
BLACK
6
CONTINUOUS
10
1.39139
20
2.04355
11
1.38952
21
2.0398
0
LINE
8
BLACK
6
CONTINUOUS
10
1.38952
20
2.0398
11
1.38899
21
2.03909
0
LINE
8
BLACK
6
CONTINUOUS
10
1.38899
20
2.03909
11
1.38896
21
2.03903
0
LINE
8
BLACK
6
CONTINUOUS
10
1.38896
20
2.03903
11
1.38709
21
2.03716
0
LINE
8
BLACK
6
CONTINUOUS
10
1.38709
20
2.03716
11
1.38637
21
2.03665
0
LINE
8
BLACK
6
CONTINUOUS
10
1.38637
20
2.03665
11
1.38632
21
2.0366
0
LINE
8
BLACK
6
CONTINUOUS
10
1.38632
20
2.0366
11
1.38257
21
2.03473
0
LINE
8
BLACK
6
CONTINUOUS
10
1.38257
20
2.03473
11
1.38159
21
2.03444
0
LINE
8
BLACK
6
CONTINUOUS
10
1.38159
20
2.03444
11
1.38142
21
2.03448
0
LINE
8
BLACK
6
CONTINUOUS
10
1.38142
20
2.03448
11
1.38125
21
2.03442
0
LINE
8
BLACK
6
CONTINUOUS
10
1.38125
20
2.03442
11
1.3775
21
2.03442
0
LINE
8
BLACK
6
CONTINUOUS
10
1.3775
20
2.03442
11
1.37649
21
2.03459
0
LINE
8
BLACK
6
CONTINUOUS
10
1.37649
20
2.03459
11
1.37636
21
2.03471
0
LINE
8
BLACK
6
CONTINUOUS
10
1.37636
20
2.03471
11
1.37618
21
2.03473
0
LINE
8
BLACK
6
CONTINUOUS
10
1.37618
20
2.03473
11
1.37243
21
2.0366
0
LINE
8
BLACK
6
CONTINUOUS
10
1.37243
20
2.0366
11
1.37172
21
2.03713
0
LINE
8
BLACK
6
CONTINUOUS
10
1.37172
20
2.03713
11
1.37167
21
2.03716
0
LINE
8
BLACK
6
CONTINUOUS
10
1.37167
20
2.03716
11
1.36979
21
2.03903
0
LINE
8
BLACK
6
CONTINUOUS
10
1.36979
20
2.03903
11
1.36928
21
2.03975
0
LINE
8
BLACK
6
CONTINUOUS
10
1.36928
20
2.03975
11
1.36924
21
2.0398
0
LINE
8
BLACK
6
CONTINUOUS
10
1.36924
20
2.0398
11
1.36736
21
2.04355
0
LINE
8
BLACK
6
CONTINUOUS
10
1.36736
20
2.04355
11
1.36722
21
2.04404
0
LINE
8
BLACK
6
CONTINUOUS
10
1.36722
20
2.04404
11
1.36714
21
2.04415
0
LINE
8
BLACK
6
CONTINUOUS
10
1.36714
20
2.04415
11
1.36526
21
2.05165
0
LINE
8
BLACK
6
CONTINUOUS
10
1.36526
20
2.05165
11
1.36522
21
2.05224
0
LINE
8
BLACK
6
CONTINUOUS
10
1.36522
20
2.05224
11
1.36518
21
2.05237
0
LINE
8
BLACK
6
CONTINUOUS
10
1.36518
20
2.05237
11
1.36518
21
2.06174
0
LINE
8
BLACK
6
CONTINUOUS
10
1.36518
20
2.06174
11
1.36528
21
2.06232
0
LINE
8
BLACK
6
CONTINUOUS
10
1.36528
20
2.06232
11
1.36526
21
2.06246
0
LINE
8
BLACK
6
CONTINUOUS
10
1.36526
20
2.06246
11
1.36714
21
2.06996
0
LINE
8
BLACK
6
CONTINUOUS
10
1.36714
20
2.06996
11
1.36735
21
2.07042
0
LINE
8
BLACK
6
CONTINUOUS
10
1.36735
20
2.07042
11
1.36736
21
2.07056
0
LINE
8
BLACK
6
CONTINUOUS
10
1.36736
20
2.07056
11
1.36924
21
2.07431
0
LINE
8
BLACK
6
CONTINUOUS
10
1.36924
20
2.07431
11
1.36976
21
2.07502
0
LINE
8
BLACK
6
CONTINUOUS
10
1.36976
20
2.07502
11
1.36979
21
2.07508
0
LINE
8
BLACK
6
CONTINUOUS
10
1.36979
20
2.07508
11
1.37167
21
2.07695
0
LINE
8
BLACK
6
CONTINUOUS
10
1.37167
20
2.07695
11
1.37239
21
2.07746
0
LINE
8
BLACK
6
CONTINUOUS
10
1.37239
20
2.07746
11
1.37243
21
2.07751
0
LINE
8
BLACK
6
CONTINUOUS
10
1.37243
20
2.07751
11
1.37618
21
2.07938
0
LINE
8
BLACK
6
CONTINUOUS
10
1.37618
20
2.07938
11
1.37717
21
2.07967
0
LINE
8
BLACK
6
CONTINUOUS
10
1.37717
20
2.07967
11
1.37734
21
2.07963
0
LINE
8
BLACK
6
CONTINUOUS
10
1.37734
20
2.07963
11
1.3775
21
2.07969
0
LINE
8
BLACK
6
CONTINUOUS
10
1.3775
20
2.07969
11
1.38125
21
2.07969
0
LINE
8
BLACK
6
CONTINUOUS
10
1.38125
20
2.07969
11
1.38226
21
2.07951
0
LINE
8
BLACK
6
CONTINUOUS
10
1.3755
20
2.07244
11
1.37431
21
2.07124
0
LINE
8
BLACK
6
CONTINUOUS
10
1.37431
20
2.07124
11
1.37279
21
2.06821
0
LINE
8
BLACK
6
CONTINUOUS
10
1.37279
20
2.06821
11
1.37108
21
2.06138
0
LINE
8
BLACK
6
CONTINUOUS
10
1.37108
20
2.06138
11
1.37108
21
2.05273
0
LINE
8
BLACK
6
CONTINUOUS
10
1.37108
20
2.05273
11
1.37279
21
2.0459
0
LINE
8
BLACK
6
CONTINUOUS
10
1.37279
20
2.0459
11
1.37431
21
2.04287
0
LINE
8
BLACK
6
CONTINUOUS
10
1.37431
20
2.04287
11
1.3755
21
2.04167
0
LINE
8
BLACK
6
CONTINUOUS
10
1.3755
20
2.04167
11
1.3782
21
2.04032
0
LINE
8
BLACK
6
CONTINUOUS
10
1.3782
20
2.04032
11
1.38056
21
2.04032
0
LINE
8
BLACK
6
CONTINUOUS
10
1.38056
20
2.04032
11
1.38325
21
2.04167
0
LINE
8
BLACK
6
CONTINUOUS
10
1.38325
20
2.04167
11
1.38445
21
2.04287
0
LINE
8
BLACK
6
CONTINUOUS
10
1.38445
20
2.04287
11
1.38597
21
2.0459
0
LINE
8
BLACK
6
CONTINUOUS
10
1.38597
20
2.0459
11
1.38767
21
2.05273
0
LINE
8
BLACK
6
CONTINUOUS
10
1.38767
20
2.05273
11
1.38767
21
2.06138
0
LINE
8
BLACK
6
CONTINUOUS
10
1.38767
20
2.06138
11
1.38597
21
2.06821
0
LINE
8
BLACK
6
CONTINUOUS
10
1.38597
20
2.06821
11
1.38445
21
2.07124
0
LINE
8
BLACK
6
CONTINUOUS
10
1.38445
20
2.07124
11
1.38325
21
2.07244
0
LINE
8
BLACK
6
CONTINUOUS
10
1.38325
20
2.07244
11
1.38056
21
2.07379
0
LINE
8
BLACK
6
CONTINUOUS
10
1.38056
20
2.07379
11
1.3782
21
2.07379
0
LINE
8
BLACK
6
CONTINUOUS
10
1.3782
20
2.07379
11
1.3755
21
2.07244
0
LINE
8
BLACK
6
CONTINUOUS
10
1.53974
20
2.06639
11
1.53988
21
2.06628
0
LINE
8
BLACK
6
CONTINUOUS
10
1.53988
20
2.06628
11
1.54005
21
2.06626
0
LINE
8
BLACK
6
CONTINUOUS
10
1.54005
20
2.06626
11
1.5438
21
2.06438
0
LINE
8
BLACK
6
CONTINUOUS
10
1.5438
20
2.06438
11
1.54463
21
2.06377
0
LINE
8
BLACK
6
CONTINUOUS
10
1.54463
20
2.06377
11
1.54543
21
2.06192
0
LINE
8
BLACK
6
CONTINUOUS
10
1.54543
20
2.06192
11
1.54485
21
2.05998
0
LINE
8
BLACK
6
CONTINUOUS
10
1.54485
20
2.05998
11
1.54317
21
2.05887
0
LINE
8
BLACK
6
CONTINUOUS
10
1.54317
20
2.05887
11
1.54116
21
2.0591
0
LINE
8
BLACK
6
CONTINUOUS
10
1.54116
20
2.0591
11
1.53804
21
2.06066
0
LINE
8
BLACK
6
CONTINUOUS
10
1.53804
20
2.06066
11
1.53381
21
2.06066
0
LINE
8
BLACK
6
CONTINUOUS
10
1.53381
20
2.06066
11
1.53156
21
2.05954
0
LINE
8
BLACK
6
CONTINUOUS
10
1.53156
20
2.05954
11
1.53044
21
2.05729
0
LINE
8
BLACK
6
CONTINUOUS
10
1.53044
20
2.05729
11
1.53044
21
2.05681
0
LINE
8
BLACK
6
CONTINUOUS
10
1.53044
20
2.05681
11
1.53156
21
2.05457
0
LINE
8
BLACK
6
CONTINUOUS
10
1.53156
20
2.05457
11
1.53381
21
2.05345
0
LINE
8
BLACK
6
CONTINUOUS
10
1.53381
20
2.05345
11
1.53873
21
2.05345
0
LINE
8
BLACK
6
CONTINUOUS
10
1.53873
20
2.05345
11
1.53974
21
2.05327
0
LINE
8
BLACK
6
CONTINUOUS
10
1.53974
20
2.05327
11
1.53988
21
2.05315
0
LINE
8
BLACK
6
CONTINUOUS
10
1.53988
20
2.05315
11
1.54005
21
2.05313
0
LINE
8
BLACK
6
CONTINUOUS
10
1.54005
20
2.05313
11
1.5438
21
2.05126
0
LINE
8
BLACK
6
CONTINUOUS
10
1.5438
20
2.05126
11
1.54463
21
2.05065
0
LINE
8
BLACK
6
CONTINUOUS
10
1.54463
20
2.05065
11
1.5448
21
2.05024
0
LINE
8
BLACK
6
CONTINUOUS
10
1.5448
20
2.05024
11
1.54512
21
2.04994
0
LINE
8
BLACK
6
CONTINUOUS
10
1.54512
20
2.04994
11
1.547
21
2.04619
0
LINE
8
BLACK
6
CONTINUOUS
10
1.547
20
2.04619
11
1.54729
21
2.04521
0
LINE
8
BLACK
6
CONTINUOUS
10
1.54729
20
2.04521
11
1.54725
21
2.04503
0
LINE
8
BLACK
6
CONTINUOUS
10
1.54725
20
2.04503
11
1.54731
21
2.04487
0
LINE
8
BLACK
6
CONTINUOUS
10
1.54731
20
2.04487
11
1.54731
21
2.04299
0
LINE
8
BLACK
6
CONTINUOUS
10
1.54731
20
2.04299
11
1.54713
21
2.04198
0
LINE
8
BLACK
6
CONTINUOUS
10
1.54713
20
2.04198
11
1.54702
21
2.04185
0
LINE
8
BLACK
6
CONTINUOUS
10
1.54702
20
2.04185
11
1.547
21
2.04167
0
LINE
8
BLACK
6
CONTINUOUS
10
1.547
20
2.04167
11
1.54512
21
2.03792
0
LINE
8
BLACK
6
CONTINUOUS
10
1.54512
20
2.03792
11
1.54451
21
2.0371
0
LINE
8
BLACK
6
CONTINUOUS
10
1.54451
20
2.0371
11
1.54411
21
2.03692
0
LINE
8
BLACK
6
CONTINUOUS
10
1.54411
20
2.03692
11
1.5438
21
2.0366
0
LINE
8
BLACK
6
CONTINUOUS
10
1.5438
20
2.0366
11
1.54005
21
2.03473
0
LINE
8
BLACK
6
CONTINUOUS
10
1.54005
20
2.03473
11
1.53907
21
2.03444
0
LINE
8
BLACK
6
CONTINUOUS
10
1.53907
20
2.03444
11
1.5389
21
2.03448
0
LINE
8
BLACK
6
CONTINUOUS
10
1.5389
20
2.03448
11
1.53873
21
2.03442
0
LINE
8
BLACK
6
CONTINUOUS
10
1.53873
20
2.03442
11
1.53123
21
2.03442
0
LINE
8
BLACK
6
CONTINUOUS
10
1.53123
20
2.03442
11
1.53022
21
2.03459
0
LINE
8
BLACK
6
CONTINUOUS
10
1.53022
20
2.03459
11
1.53009
21
2.03471
0
LINE
8
BLACK
6
CONTINUOUS
10
1.53009
20
2.03471
11
1.52991
21
2.03473
0
LINE
8
BLACK
6
CONTINUOUS
10
1.52991
20
2.03473
11
1.52616
21
2.0366
0
LINE
8
BLACK
6
CONTINUOUS
10
1.52616
20
2.0366
11
1.52534
21
2.03721
0
LINE
8
BLACK
6
CONTINUOUS
10
1.52534
20
2.03721
11
1.52454
21
2.03907
0
LINE
8
BLACK
6
CONTINUOUS
10
1.52454
20
2.03907
11
1.52511
21
2.041
0
LINE
8
BLACK
6
CONTINUOUS
10
1.52511
20
2.041
11
1.5268
21
2.04212
0
LINE
8
BLACK
6
CONTINUOUS
10
1.5268
20
2.04212
11
1.5288
21
2.04189
0
LINE
8
BLACK
6
CONTINUOUS
10
1.5288
20
2.04189
11
1.53193
21
2.04032
0
LINE
8
BLACK
6
CONTINUOUS
10
1.53193
20
2.04032
11
1.53804
21
2.04032
0
LINE
8
BLACK
6
CONTINUOUS
10
1.53804
20
2.04032
11
1.54028
21
2.04144
0
LINE
8
BLACK
6
CONTINUOUS
10
1.54028
20
2.04144
11
1.5414
21
2.04369
0
LINE
8
BLACK
6
CONTINUOUS
10
1.5414
20
2.04369
11
1.5414
21
2.04417
0
LINE
8
BLACK
6
CONTINUOUS
10
1.5414
20
2.04417
11
1.54028
21
2.04642
0
LINE
8
BLACK
6
CONTINUOUS
10
1.54028
20
2.04642
11
1.53804
21
2.04754
0
LINE
8
BLACK
6
CONTINUOUS
10
1.53804
20
2.04754
11
1.53311
21
2.04754
0
LINE
8
BLACK
6
CONTINUOUS
10
1.53311
20
2.04754
11
1.5321
21
2.04772
0
LINE
8
BLACK
6
CONTINUOUS
10
1.5321
20
2.04772
11
1.53196
21
2.04783
0
LINE
8
BLACK
6
CONTINUOUS
10
1.53196
20
2.04783
11
1.53179
21
2.04785
0
LINE
8
BLACK
6
CONTINUOUS
10
1.53179
20
2.04785
11
1.52804
21
2.04973
0
LINE
8
BLACK
6
CONTINUOUS
10
1.52804
20
2.04973
11
1.52721
21
2.05034
0
LINE
8
BLACK
6
CONTINUOUS
10
1.52721
20
2.05034
11
1.52704
21
2.05074
0
LINE
8
BLACK
6
CONTINUOUS
10
1.52704
20
2.05074
11
1.52672
21
2.05105
0
LINE
8
BLACK
6
CONTINUOUS
10
1.52672
20
2.05105
11
1.52484
21
2.0548
0
LINE
8
BLACK
6
CONTINUOUS
10
1.52484
20
2.0548
11
1.52455
21
2.05578
0
LINE
8
BLACK
6
CONTINUOUS
10
1.52455
20
2.05578
11
1.52459
21
2.05595
0
LINE
8
BLACK
6
CONTINUOUS
10
1.52459
20
2.05595
11
1.52453
21
2.05612
0
LINE
8
BLACK
6
CONTINUOUS
10
1.52453
20
2.05612
11
1.52453
21
2.05799
0
LINE
8
BLACK
6
CONTINUOUS
10
1.52453
20
2.05799
11
1.52471
21
2.059
0
LINE
8
BLACK
6
CONTINUOUS
10
1.52471
20
2.059
11
1.52482
21
2.05914
0
LINE
8
BLACK
6
CONTINUOUS
10
1.52482
20
2.05914
11
1.52484
21
2.05931
0
LINE
8
BLACK
6
CONTINUOUS
10
1.52484
20
2.05931
11
1.52672
21
2.06306
0
LINE
8
BLACK
6
CONTINUOUS
10
1.52672
20
2.06306
11
1.52733
21
2.06389
0
LINE
8
BLACK
6
CONTINUOUS
10
1.52733
20
2.06389
11
1.52773
21
2.06406
0
LINE
8
BLACK
6
CONTINUOUS
10
1.52773
20
2.06406
11
1.52804
21
2.06438
0
LINE
8
BLACK
6
CONTINUOUS
10
1.52804
20
2.06438
11
1.53179
21
2.06626
0
LINE
8
BLACK
6
CONTINUOUS
10
1.53179
20
2.06626
11
1.53277
21
2.06655
0
LINE
8
BLACK
6
CONTINUOUS
10
1.53277
20
2.06655
11
1.53294
21
2.06651
0
LINE
8
BLACK
6
CONTINUOUS
10
1.53294
20
2.06651
11
1.53311
21
2.06657
0
LINE
8
BLACK
6
CONTINUOUS
10
1.53311
20
2.06657
11
1.53873
21
2.06657
0
LINE
8
BLACK
6
CONTINUOUS
10
1.53873
20
2.06657
11
1.53974
21
2.06639
0
LINE
8
BLACK
6
CONTINUOUS
10
1.44975
20
2.06639
11
1.44989
21
2.06628
0
LINE
8
BLACK
6
CONTINUOUS
10
1.44989
20
2.06628
11
1.45006
21
2.06626
0
LINE
8
BLACK
6
CONTINUOUS
10
1.45006
20
2.06626
11
1.45381
21
2.06438
0
LINE
8
BLACK
6
CONTINUOUS
10
1.45381
20
2.06438
11
1.45438
21
2.06396
0
LINE
8
BLACK
6
CONTINUOUS
10
1.45438
20
2.06396
11
1.45462
21
2.06406
0
LINE
8
BLACK
6
CONTINUOUS
10
1.45462
20
2.06406
11
1.45492
21
2.06438
0
LINE
8
BLACK
6
CONTINUOUS
10
1.45492
20
2.06438
11
1.45867
21
2.06626
0
LINE
8
BLACK
6
CONTINUOUS
10
1.45867
20
2.06626
11
1.45965
21
2.06655
0
LINE
8
BLACK
6
CONTINUOUS
10
1.45965
20
2.06655
11
1.45983
21
2.06651
0
LINE
8
BLACK
6
CONTINUOUS
10
1.45983
20
2.06651
11
1.45999
21
2.06657
0
LINE
8
BLACK
6
CONTINUOUS
10
1.45999
20
2.06657
11
1.46562
21
2.06657
0
LINE
8
BLACK
6
CONTINUOUS
10
1.46562
20
2.06657
11
1.46663
21
2.06639
0
LINE
8
BLACK
6
CONTINUOUS
10
1.46663
20
2.06639
11
1.46676
21
2.06628
0
LINE
8
BLACK
6
CONTINUOUS
10
1.46676
20
2.06628
11
1.46694
21
2.06626
0
LINE
8
BLACK
6
CONTINUOUS
10
1.46694
20
2.06626
11
1.47069
21
2.06438
0
LINE
8
BLACK
6
CONTINUOUS
10
1.47069
20
2.06438
11
1.47151
21
2.06377
0
LINE
8
BLACK
6
CONTINUOUS
10
1.47151
20
2.06377
11
1.47169
21
2.06337
0
LINE
8
BLACK
6
CONTINUOUS
10
1.47169
20
2.06337
11
1.47201
21
2.06306
0
LINE
8
BLACK
6
CONTINUOUS
10
1.47201
20
2.06306
11
1.47388
21
2.05931
0
LINE
8
BLACK
6
CONTINUOUS
10
1.47388
20
2.05931
11
1.47417
21
2.05833
0
LINE
8
BLACK
6
CONTINUOUS
10
1.47417
20
2.05833
11
1.47413
21
2.05816
0
LINE
8
BLACK
6
CONTINUOUS
10
1.47413
20
2.05816
11
1.47419
21
2.05799
0
LINE
8
BLACK
6
CONTINUOUS
10
1.47419
20
2.05799
11
1.47419
21
2.03737
0
LINE
8
BLACK
6
CONTINUOUS
10
1.47419
20
2.03737
11
1.47402
21
2.03636
0
LINE
8
BLACK
6
CONTINUOUS
10
1.47402
20
2.03636
11
1.47272
21
2.03481
0
LINE
8
BLACK
6
CONTINUOUS
10
1.47272
20
2.03481
11
1.47073
21
2.03446
0
LINE
8
BLACK
6
CONTINUOUS
10
1.47073
20
2.03446
11
1.46898
21
2.03547
0
LINE
8
BLACK
6
CONTINUOUS
10
1.46898
20
2.03547
11
1.46829
21
2.03737
0
LINE
8
BLACK
6
CONTINUOUS
10
1.46829
20
2.03737
11
1.46829
21
2.05729
0
LINE
8
BLACK
6
CONTINUOUS
10
1.46829
20
2.05729
11
1.46717
21
2.05954
0
LINE
8
BLACK
6
CONTINUOUS
10
1.46717
20
2.05954
11
1.46492
21
2.06066
0
LINE
8
BLACK
6
CONTINUOUS
10
1.46492
20
2.06066
11
1.46069
21
2.06066
0
LINE
8
BLACK
6
CONTINUOUS
10
1.46069
20
2.06066
11
1.45844
21
2.05954
0
LINE
8
BLACK
6
CONTINUOUS
10
1.45844
20
2.05954
11
1.45732
21
2.05729
0
LINE
8
BLACK
6
CONTINUOUS
10
1.45732
20
2.05729
11
1.45732
21
2.03737
0
LINE
8
BLACK
6
CONTINUOUS
10
1.45732
20
2.03737
11
1.45714
21
2.03636
0
LINE
8
BLACK
6
CONTINUOUS
10
1.45714
20
2.03636
11
1.45584
21
2.03481
0
LINE
8
BLACK
6
CONTINUOUS
10
1.45584
20
2.03481
11
1.45386
21
2.03446
0
LINE
8
BLACK
6
CONTINUOUS
10
1.45386
20
2.03446
11
1.45211
21
2.03547
0
LINE
8
BLACK
6
CONTINUOUS
10
1.45211
20
2.03547
11
1.45142
21
2.03737
0
LINE
8
BLACK
6
CONTINUOUS
10
1.45142
20
2.03737
11
1.45142
21
2.05729
0
LINE
8
BLACK
6
CONTINUOUS
10
1.45142
20
2.05729
11
1.45029
21
2.05954
0
LINE
8
BLACK
6
CONTINUOUS
10
1.45029
20
2.05954
11
1.44805
21
2.06066
0
LINE
8
BLACK
6
CONTINUOUS
10
1.44805
20
2.06066
11
1.44382
21
2.06066
0
LINE
8
BLACK
6
CONTINUOUS
10
1.44382
20
2.06066
11
1.44112
21
2.05931
0
LINE
8
BLACK
6
CONTINUOUS
10
1.44112
20
2.05931
11
1.44045
21
2.05864
0
LINE
8
BLACK
6
CONTINUOUS
10
1.44045
20
2.05864
11
1.44045
21
2.03737
0
LINE
8
BLACK
6
CONTINUOUS
10
1.44045
20
2.03737
11
1.44027
21
2.03636
0
LINE
8
BLACK
6
CONTINUOUS
10
1.44027
20
2.03636
11
1.43897
21
2.03481
0
LINE
8
BLACK
6
CONTINUOUS
10
1.43897
20
2.03481
11
1.43698
21
2.03446
0
LINE
8
BLACK
6
CONTINUOUS
10
1.43698
20
2.03446
11
1.43523
21
2.03547
0
LINE
8
BLACK
6
CONTINUOUS
10
1.43523
20
2.03547
11
1.43454
21
2.03737
0
LINE
8
BLACK
6
CONTINUOUS
10
1.43454
20
2.03737
11
1.43454
21
2.06362
0
LINE
8
BLACK
6
CONTINUOUS
10
1.43454
20
2.06362
11
1.43472
21
2.06463
0
LINE
8
BLACK
6
CONTINUOUS
10
1.43472
20
2.06463
11
1.43602
21
2.06617
0
LINE
8
BLACK
6
CONTINUOUS
10
1.43602
20
2.06617
11
1.43801
21
2.06652
0
LINE
8
BLACK
6
CONTINUOUS
10
1.43801
20
2.06652
11
1.43976
21
2.06551
0
LINE
8
BLACK
6
CONTINUOUS
10
1.43976
20
2.06551
11
1.43984
21
2.06528
0
LINE
8
BLACK
6
CONTINUOUS
10
1.43984
20
2.06528
11
1.4418
21
2.06626
0
LINE
8
BLACK
6
CONTINUOUS
10
1.4418
20
2.06626
11
1.44278
21
2.06655
0
LINE
8
BLACK
6
CONTINUOUS
10
1.44278
20
2.06655
11
1.44295
21
2.06651
0
LINE
8
BLACK
6
CONTINUOUS
10
1.44295
20
2.06651
11
1.44312
21
2.06657
0
LINE
8
BLACK
6
CONTINUOUS
10
1.44312
20
2.06657
11
1.44874
21
2.06657
0
LINE
8
BLACK
6
CONTINUOUS
10
1.44874
20
2.06657
11
1.44975
21
2.06639
0
LINE
8
BLACK
6
CONTINUOUS
10
1.49225
20
2.06551
11
1.49294
21
2.06362
0
LINE
8
BLACK
6
CONTINUOUS
10
1.49294
20
2.06362
11
1.49294
21
2.03737
0
LINE
8
BLACK
6
CONTINUOUS
10
1.49294
20
2.03737
11
1.49276
21
2.03636
0
LINE
8
BLACK
6
CONTINUOUS
10
1.49276
20
2.03636
11
1.49147
21
2.03481
0
LINE
8
BLACK
6
CONTINUOUS
10
1.49147
20
2.03481
11
1.48948
21
2.03446
0
LINE
8
BLACK
6
CONTINUOUS
10
1.48948
20
2.03446
11
1.48773
21
2.03547
0
LINE
8
BLACK
6
CONTINUOUS
10
1.48773
20
2.03547
11
1.48704
21
2.03737
0
LINE
8
BLACK
6
CONTINUOUS
10
1.48704
20
2.03737
11
1.48704
21
2.06362
0
LINE
8
BLACK
6
CONTINUOUS
10
1.48704
20
2.06362
11
1.48721
21
2.06463
0
LINE
8
BLACK
6
CONTINUOUS
10
1.48721
20
2.06463
11
1.48851
21
2.06617
0
LINE
8
BLACK
6
CONTINUOUS
10
1.48851
20
2.06617
11
1.4905
21
2.06652
0
LINE
8
BLACK
6
CONTINUOUS
10
1.4905
20
2.06652
11
1.49225
21
2.06551
0
LINE
8
BLACK
6
CONTINUOUS
10
1.511
20
2.07864
11
1.51169
21
2.07674
0
LINE
8
BLACK
6
CONTINUOUS
10
1.51169
20
2.07674
11
1.51169
21
2.04369
0
LINE
8
BLACK
6
CONTINUOUS
10
1.51169
20
2.04369
11
1.51281
21
2.04144
0
LINE
8
BLACK
6
CONTINUOUS
10
1.51281
20
2.04144
11
1.51568
21
2.04001
0
LINE
8
BLACK
6
CONTINUOUS
10
1.51568
20
2.04001
11
1.5165
21
2.0394
0
LINE
8
BLACK
6
CONTINUOUS
10
1.5165
20
2.0394
11
1.51731
21
2.03755
0
LINE
8
BLACK
6
CONTINUOUS
10
1.51731
20
2.03755
11
1.51673
21
2.03561
0
LINE
8
BLACK
6
CONTINUOUS
10
1.51673
20
2.03561
11
1.51505
21
2.0345
0
LINE
8
BLACK
6
CONTINUOUS
10
1.51505
20
2.0345
11
1.51304
21
2.03473
0
LINE
8
BLACK
6
CONTINUOUS
10
1.51304
20
2.03473
11
1.50929
21
2.0366
0
LINE
8
BLACK
6
CONTINUOUS
10
1.50929
20
2.0366
11
1.50847
21
2.03721
0
LINE
8
BLACK
6
CONTINUOUS
10
1.50847
20
2.03721
11
1.50829
21
2.03762
0
LINE
8
BLACK
6
CONTINUOUS
10
1.50829
20
2.03762
11
1.50797
21
2.03792
0
LINE
8
BLACK
6
CONTINUOUS
10
1.50797
20
2.03792
11
1.5061
21
2.04167
0
LINE
8
BLACK
6
CONTINUOUS
10
1.5061
20
2.04167
11
1.5058
21
2.04266
0
LINE
8
BLACK
6
CONTINUOUS
10
1.5058
20
2.04266
11
1.50584
21
2.04283
0
LINE
8
BLACK
6
CONTINUOUS
10
1.50584
20
2.04283
11
1.50578
21
2.04299
0
LINE
8
BLACK
6
CONTINUOUS
10
1.50578
20
2.04299
11
1.50578
21
2.07674
0
LINE
8
BLACK
6
CONTINUOUS
10
1.50578
20
2.07674
11
1.50596
21
2.07775
0
LINE
8
BLACK
6
CONTINUOUS
10
1.50596
20
2.07775
11
1.50726
21
2.0793
0
LINE
8
BLACK
6
CONTINUOUS
10
1.50726
20
2.0793
11
1.50925
21
2.07965
0
LINE
8
BLACK
6
CONTINUOUS
10
1.50925
20
2.07965
11
1.511
21
2.07864
0
LINE
8
BLACK
6
CONTINUOUS
10
1.49037
20
2.07962
11
1.4905
21
2.07965
0
LINE
8
BLACK
6
CONTINUOUS
10
1.4905
20
2.07965
11
1.49062
21
2.07958
0
LINE
8
BLACK
6
CONTINUOUS
10
1.49062
20
2.07958
11
1.49075
21
2.07959
0
LINE
8
BLACK
6
CONTINUOUS
10
1.49075
20
2.07959
11
1.49138
21
2.07915
0
LINE
8
BLACK
6
CONTINUOUS
10
1.49138
20
2.07915
11
1.49208
21
2.07883
0
LINE
8
BLACK
6
CONTINUOUS
10
1.49208
20
2.07883
11
1.49395
21
2.07695
0
LINE
8
BLACK
6
CONTINUOUS
10
1.49395
20
2.07695
11
1.49417
21
2.07663
0
LINE
8
BLACK
6
CONTINUOUS
10
1.49417
20
2.07663
11
1.49428
21
2.07656
0
LINE
8
BLACK
6
CONTINUOUS
10
1.49428
20
2.07656
11
1.49432
21
2.07643
0
LINE
8
BLACK
6
CONTINUOUS
10
1.49432
20
2.07643
11
1.49454
21
2.07611
0
LINE
8
BLACK
6
CONTINUOUS
10
1.49454
20
2.07611
11
1.49461
21
2.07535
0
LINE
8
BLACK
6
CONTINUOUS
10
1.49461
20
2.07535
11
1.4948
21
2.07461
0
LINE
8
BLACK
6
CONTINUOUS
10
1.4948
20
2.07461
11
1.49469
21
2.07437
0
LINE
8
BLACK
6
CONTINUOUS
10
1.49469
20
2.07437
11
1.49472
21
2.0741
0
LINE
8
BLACK
6
CONTINUOUS
10
1.49472
20
2.0741
11
1.49428
21
2.07347
0
LINE
8
BLACK
6
CONTINUOUS
10
1.49428
20
2.07347
11
1.49395
21
2.07278
0
LINE
8
BLACK
6
CONTINUOUS
10
1.49395
20
2.07278
11
1.49208
21
2.0709
0
LINE
8
BLACK
6
CONTINUOUS
10
1.49208
20
2.0709
11
1.49176
21
2.07068
0
LINE
8
BLACK
6
CONTINUOUS
10
1.49176
20
2.07068
11
1.49168
21
2.07057
0
LINE
8
BLACK
6
CONTINUOUS
10
1.49168
20
2.07057
11
1.49156
21
2.07054
0
LINE
8
BLACK
6
CONTINUOUS
10
1.49156
20
2.07054
11
1.49155
21
2.07053
0
LINE
8
BLACK
6
CONTINUOUS
10
1.49155
20
2.07053
11
1.49147
21
2.07043
0
LINE
8
BLACK
6
CONTINUOUS
10
1.49147
20
2.07043
11
1.49139
21
2.07042
0
LINE
8
BLACK
6
CONTINUOUS
10
1.49139
20
2.07042
11
1.49124
21
2.07031
0
LINE
8
BLACK
6
CONTINUOUS
10
1.49124
20
2.07031
11
1.49047
21
2.07025
0
LINE
8
BLACK
6
CONTINUOUS
10
1.49047
20
2.07025
11
1.48973
21
2.07005
0
LINE
8
BLACK
6
CONTINUOUS
10
1.48973
20
2.07005
11
1.48961
21
2.07011
0
LINE
8
BLACK
6
CONTINUOUS
10
1.48961
20
2.07011
11
1.48948
21
2.07008
0
LINE
8
BLACK
6
CONTINUOUS
10
1.48948
20
2.07008
11
1.48936
21
2.07015
0
LINE
8
BLACK
6
CONTINUOUS
10
1.48936
20
2.07015
11
1.48922
21
2.07014
0
LINE
8
BLACK
6
CONTINUOUS
10
1.48922
20
2.07014
11
1.4886
21
2.07058
0
LINE
8
BLACK
6
CONTINUOUS
10
1.4886
20
2.07058
11
1.4879
21
2.0709
0
LINE
8
BLACK
6
CONTINUOUS
10
1.4879
20
2.0709
11
1.48603
21
2.07278
0
LINE
8
BLACK
6
CONTINUOUS
10
1.48603
20
2.07278
11
1.4858
21
2.0731
0
LINE
8
BLACK
6
CONTINUOUS
10
1.4858
20
2.0731
11
1.4857
21
2.07317
0
LINE
8
BLACK
6
CONTINUOUS
10
1.4857
20
2.07317
11
1.48566
21
2.0733
0
LINE
8
BLACK
6
CONTINUOUS
10
1.48566
20
2.0733
11
1.48544
21
2.07362
0
LINE
8
BLACK
6
CONTINUOUS
10
1.48544
20
2.07362
11
1.48537
21
2.07438
0
LINE
8
BLACK
6
CONTINUOUS
10
1.48537
20
2.07438
11
1.48517
21
2.07512
0
LINE
8
BLACK
6
CONTINUOUS
10
1.48517
20
2.07512
11
1.48529
21
2.07536
0
LINE
8
BLACK
6
CONTINUOUS
10
1.48529
20
2.07536
11
1.48526
21
2.07563
0
LINE
8
BLACK
6
CONTINUOUS
10
1.48526
20
2.07563
11
1.4857
21
2.07626
0
LINE
8
BLACK
6
CONTINUOUS
10
1.4857
20
2.07626
11
1.48603
21
2.07695
0
LINE
8
BLACK
6
CONTINUOUS
10
1.48603
20
2.07695
11
1.4879
21
2.07883
0
LINE
8
BLACK
6
CONTINUOUS
10
1.4879
20
2.07883
11
1.48822
21
2.07905
0
LINE
8
BLACK
6
CONTINUOUS
10
1.48822
20
2.07905
11
1.4883
21
2.07916
0
LINE
8
BLACK
6
CONTINUOUS
10
1.4883
20
2.07916
11
1.48842
21
2.07919
0
LINE
8
BLACK
6
CONTINUOUS
10
1.48842
20
2.07919
11
1.48843
21
2.0792
0
LINE
8
BLACK
6
CONTINUOUS
10
1.48843
20
2.0792
11
1.48851
21
2.0793
0
LINE
8
BLACK
6
CONTINUOUS
10
1.48851
20
2.0793
11
1.48859
21
2.07931
0
LINE
8
BLACK
6
CONTINUOUS
10
1.48859
20
2.07931
11
1.48874
21
2.07942
0
LINE
8
BLACK
6
CONTINUOUS
10
1.48874
20
2.07942
11
1.48951
21
2.07948
0
LINE
8
BLACK
6
CONTINUOUS
10
1.48951
20
2.07948
11
1.49025
21
2.07968
0
LINE
8
BLACK
6
CONTINUOUS
10
1.49025
20
2.07968
11
1.49037
21
2.07962
  0
ENDSEC
  0
EOF
