  0
SECTION
  2
HEADER
  9
$ANGBASE
  50
0.0
  9
$ANGDIR
  70
1
  9
$MEASUREMENT
  70
0
  0
ENDSEC
  0
SECTION
  2
TABLES
  0
TABLE
  2
LTYPE
  70
4
  0
LTYPE
  5
40F
  2
CONTINUOUS
  70
0
  3
Solid line
  72
65
  73
0
  40
0.0
  0
LTYPE
  5
410
  2
DASHDOT
 70
0
  3
Dash Dot ____ _ ____ _
 72
65
 73
4
 40
2.0
 49
1.25
 49
-0.25
 49
0.25
 49
-0.25
  0
LTYPE
  5
411
  2
DASHED
 70
0
  3
Dashed __ __ __ __ __
 72
65
 73
2
 40
0.75
 49
0.5
 49
-0.25
  0
LTYPE
  5
43B
  2
DOTTED
 70
0
  3
Dotted .  .  .  .
 72
65
 73
2
 40
0.2
 49
0.0
 49
-0.2
  0
ENDTAB
  0
TABLE
  2
STYLE
  70
4
  0
STYLE
  2
KICAD
  70
0
  40
0
  41
1
  42
1
  50
0
  71
0
  3
isocp.shx
  0
STYLE
  2
KICADB
  70
0
  40
0
  41
1
  42
1
  50
0
  71
0
  3
isocp.shx
  0
STYLE
  2
KICADI
  70
0
  40
0
  41
1
  42
1
  50
15
  71
0
  3
isocp.shx
  0
STYLE
  2
KICADBI
  70
0
  40
0
  41
1
  42
1
  50
15
  71
0
  3
isocp.shx
  0
ENDTAB
  0
TABLE
  2
LAYER
  70
1
  0
LAYER
  2
BLACK
  70
0
  62
7
  6
CONTINUOUS
  0
ENDTAB
  0
ENDSEC
  0
SECTION
  2
ENTITIES
0
LINE
8
BLACK
6
CONTINUOUS
10
0.633717
20
0.339434
11
0.642168
21
0.33717
0
LINE
8
BLACK
6
CONTINUOUS
10
0.642168
20
0.33717
11
0.650098
21
0.333472
0
LINE
8
BLACK
6
CONTINUOUS
10
0.650098
20
0.333472
11
0.657266
21
0.328453
0
LINE
8
BLACK
6
CONTINUOUS
10
0.657266
20
0.328453
11
0.663453
21
0.322266
0
LINE
8
BLACK
6
CONTINUOUS
10
0.663453
20
0.322266
11
0.668472
21
0.315098
0
LINE
8
BLACK
6
CONTINUOUS
10
0.668472
20
0.315098
11
0.67217
21
0.307168
0
LINE
8
BLACK
6
CONTINUOUS
10
0.67217
20
0.307168
11
0.674434
21
0.298717
0
LINE
8
BLACK
6
CONTINUOUS
10
0.674434
20
0.298717
11
0.675197
21
0.29
0
LINE
8
BLACK
6
CONTINUOUS
10
0.675197
20
0.29
11
0.674434
21
0.281283
0
LINE
8
BLACK
6
CONTINUOUS
10
0.674434
20
0.281283
11
0.67217
21
0.272832
0
LINE
8
BLACK
6
CONTINUOUS
10
0.67217
20
0.272832
11
0.668472
21
0.264902
0
LINE
8
BLACK
6
CONTINUOUS
10
0.668472
20
0.264902
11
0.663453
21
0.257734
0
LINE
8
BLACK
6
CONTINUOUS
10
0.663453
20
0.257734
11
0.657266
21
0.251547
0
LINE
8
BLACK
6
CONTINUOUS
10
0.657266
20
0.251547
11
0.650098
21
0.246528
0
LINE
8
BLACK
6
CONTINUOUS
10
0.650098
20
0.246528
11
0.642168
21
0.24283
0
LINE
8
BLACK
6
CONTINUOUS
10
0.642168
20
0.24283
11
0.633717
21
0.240566
0
LINE
8
BLACK
6
CONTINUOUS
10
0.633717
20
0.240566
11
0.625
21
0.239803
0
LINE
8
BLACK
6
CONTINUOUS
10
0.625
20
0.239803
11
0.616283
21
0.240566
0
LINE
8
BLACK
6
CONTINUOUS
10
0.616283
20
0.240566
11
0.607832
21
0.24283
0
LINE
8
BLACK
6
CONTINUOUS
10
0.607832
20
0.24283
11
0.599902
21
0.246528
0
LINE
8
BLACK
6
CONTINUOUS
10
0.599902
20
0.246528
11
0.592734
21
0.251547
0
LINE
8
BLACK
6
CONTINUOUS
10
0.592734
20
0.251547
11
0.586547
21
0.257734
0
LINE
8
BLACK
6
CONTINUOUS
10
0.586547
20
0.257734
11
0.581528
21
0.264902
0
LINE
8
BLACK
6
CONTINUOUS
10
0.581528
20
0.264902
11
0.57783
21
0.272832
0
LINE
8
BLACK
6
CONTINUOUS
10
0.57783
20
0.272832
11
0.575566
21
0.281283
0
LINE
8
BLACK
6
CONTINUOUS
10
0.575566
20
0.281283
11
0.574803
21
0.29
0
LINE
8
BLACK
6
CONTINUOUS
10
0.574803
20
0.29
11
0.575566
21
0.298717
0
LINE
8
BLACK
6
CONTINUOUS
10
0.575566
20
0.298717
11
0.57783
21
0.307168
0
LINE
8
BLACK
6
CONTINUOUS
10
0.57783
20
0.307168
11
0.581528
21
0.315098
0
LINE
8
BLACK
6
CONTINUOUS
10
0.581528
20
0.315098
11
0.586547
21
0.322266
0
LINE
8
BLACK
6
CONTINUOUS
10
0.586547
20
0.322266
11
0.592734
21
0.328453
0
LINE
8
BLACK
6
CONTINUOUS
10
0.592734
20
0.328453
11
0.599902
21
0.333472
0
LINE
8
BLACK
6
CONTINUOUS
10
0.599902
20
0.333472
11
0.607832
21
0.33717
0
LINE
8
BLACK
6
CONTINUOUS
10
0.607832
20
0.33717
11
0.616283
21
0.339434
0
LINE
8
BLACK
6
CONTINUOUS
10
0.616283
20
0.339434
11
0.625
21
0.340197
0
LINE
8
BLACK
6
CONTINUOUS
10
0.625
20
0.340197
11
0.633717
21
0.339434
0
LINE
8
BLACK
6
CONTINUOUS
10
0.577323
20
0.281593
11
0.579507
21
0.273442
0
LINE
8
BLACK
6
CONTINUOUS
10
0.579507
20
0.273442
11
0.583074
21
0.265794
0
LINE
8
BLACK
6
CONTINUOUS
10
0.583074
20
0.265794
11
0.587914
21
0.258881
0
LINE
8
BLACK
6
CONTINUOUS
10
0.587914
20
0.258881
11
0.593881
21
0.252914
0
LINE
8
BLACK
6
CONTINUOUS
10
0.593881
20
0.252914
11
0.600794
21
0.248074
0
LINE
8
BLACK
6
CONTINUOUS
10
0.600794
20
0.248074
11
0.608442
21
0.244507
0
LINE
8
BLACK
6
CONTINUOUS
10
0.608442
20
0.244507
11
0.616593
21
0.242323
0
LINE
8
BLACK
6
CONTINUOUS
10
0.616593
20
0.242323
11
0.625
21
0.241587
0
LINE
8
BLACK
6
CONTINUOUS
10
0.625
20
0.241587
11
0.633407
21
0.242323
0
LINE
8
BLACK
6
CONTINUOUS
10
0.633407
20
0.242323
11
0.641558
21
0.244507
0
LINE
8
BLACK
6
CONTINUOUS
10
0.641558
20
0.244507
11
0.649206
21
0.248074
0
LINE
8
BLACK
6
CONTINUOUS
10
0.649206
20
0.248074
11
0.656119
21
0.252914
0
LINE
8
BLACK
6
CONTINUOUS
10
0.656119
20
0.252914
11
0.662086
21
0.258881
0
LINE
8
BLACK
6
CONTINUOUS
10
0.662086
20
0.258881
11
0.666926
21
0.265794
0
LINE
8
BLACK
6
CONTINUOUS
10
0.666926
20
0.265794
11
0.670493
21
0.273442
0
LINE
8
BLACK
6
CONTINUOUS
10
0.670493
20
0.273442
11
0.672677
21
0.281593
0
LINE
8
BLACK
6
CONTINUOUS
10
0.672677
20
0.281593
11
0.673413
21
0.29
0
LINE
8
BLACK
6
CONTINUOUS
10
0.673413
20
0.29
11
0.672677
21
0.298407
0
LINE
8
BLACK
6
CONTINUOUS
10
0.672677
20
0.298407
11
0.670493
21
0.306558
0
LINE
8
BLACK
6
CONTINUOUS
10
0.670493
20
0.306558
11
0.666926
21
0.314206
0
LINE
8
BLACK
6
CONTINUOUS
10
0.666926
20
0.314206
11
0.662086
21
0.321119
0
LINE
8
BLACK
6
CONTINUOUS
10
0.662086
20
0.321119
11
0.656119
21
0.327086
0
LINE
8
BLACK
6
CONTINUOUS
10
0.656119
20
0.327086
11
0.649206
21
0.331926
0
LINE
8
BLACK
6
CONTINUOUS
10
0.649206
20
0.331926
11
0.641558
21
0.335493
0
LINE
8
BLACK
6
CONTINUOUS
10
0.641558
20
0.335493
11
0.633407
21
0.337677
0
LINE
8
BLACK
6
CONTINUOUS
10
0.633407
20
0.337677
11
0.625
21
0.338413
0
LINE
8
BLACK
6
CONTINUOUS
10
0.625
20
0.338413
11
0.616593
21
0.337677
0
LINE
8
BLACK
6
CONTINUOUS
10
0.616593
20
0.337677
11
0.608442
21
0.335493
0
LINE
8
BLACK
6
CONTINUOUS
10
0.608442
20
0.335493
11
0.600794
21
0.331926
0
LINE
8
BLACK
6
CONTINUOUS
10
0.600794
20
0.331926
11
0.593881
21
0.327086
0
LINE
8
BLACK
6
CONTINUOUS
10
0.593881
20
0.327086
11
0.587914
21
0.321119
0
LINE
8
BLACK
6
CONTINUOUS
10
0.587914
20
0.321119
11
0.583074
21
0.314206
0
LINE
8
BLACK
6
CONTINUOUS
10
0.583074
20
0.314206
11
0.579507
21
0.306558
0
LINE
8
BLACK
6
CONTINUOUS
10
0.579507
20
0.306558
11
0.577323
21
0.298407
0
LINE
8
BLACK
6
CONTINUOUS
10
0.577323
20
0.298407
11
0.576587
21
0.29
0
LINE
8
BLACK
6
CONTINUOUS
10
0.576587
20
0.29
11
0.577323
21
0.281593
0
LINE
8
BLACK
6
CONTINUOUS
10
1.17614
20
0.508386
11
1.17684
21
0.508098
0
LINE
8
BLACK
6
CONTINUOUS
10
1.17684
20
0.508098
11
1.17713
21
0.507402
0
LINE
8
BLACK
6
CONTINUOUS
10
1.17713
20
0.507402
11
1.17713
21
0.432598
0
LINE
8
BLACK
6
CONTINUOUS
10
1.17713
20
0.432598
11
1.17684
21
0.431902
0
LINE
8
BLACK
6
CONTINUOUS
10
1.17684
20
0.431902
11
1.17614
21
0.431614
0
LINE
8
BLACK
6
CONTINUOUS
10
1.17614
20
0.431614
11
1.04386
21
0.431614
0
LINE
8
BLACK
6
CONTINUOUS
10
1.04386
20
0.431614
11
1.04316
21
0.431902
0
LINE
8
BLACK
6
CONTINUOUS
10
1.04316
20
0.431902
11
1.04287
21
0.432598
0
LINE
8
BLACK
6
CONTINUOUS
10
1.04287
20
0.432598
11
1.04287
21
0.507402
0
LINE
8
BLACK
6
CONTINUOUS
10
1.04287
20
0.507402
11
1.04316
21
0.508098
0
LINE
8
BLACK
6
CONTINUOUS
10
1.04316
20
0.508098
11
1.04386
21
0.508386
0
LINE
8
BLACK
6
CONTINUOUS
10
1.04386
20
0.508386
11
1.17614
21
0.508386
0
LINE
8
BLACK
6
CONTINUOUS
10
1.04484
20
0.506417
11
1.04484
21
0.433583
0
LINE
8
BLACK
6
CONTINUOUS
10
1.04484
20
0.433583
11
1.17516
21
0.433583
0
LINE
8
BLACK
6
CONTINUOUS
10
1.17516
20
0.433583
11
1.17516
21
0.506417
0
LINE
8
BLACK
6
CONTINUOUS
10
1.17516
20
0.506417
11
1.04484
21
0.506417
0
LINE
8
BLACK
6
CONTINUOUS
10
1.67614
20
0.538386
11
1.67684
21
0.538098
0
LINE
8
BLACK
6
CONTINUOUS
10
1.67684
20
0.538098
11
1.67713
21
0.537402
0
LINE
8
BLACK
6
CONTINUOUS
10
1.67713
20
0.537402
11
1.67713
21
0.462598
0
LINE
8
BLACK
6
CONTINUOUS
10
1.67713
20
0.462598
11
1.67684
21
0.461902
0
LINE
8
BLACK
6
CONTINUOUS
10
1.67684
20
0.461902
11
1.67614
21
0.461614
0
LINE
8
BLACK
6
CONTINUOUS
10
1.67614
20
0.461614
11
1.54386
21
0.461614
0
LINE
8
BLACK
6
CONTINUOUS
10
1.54386
20
0.461614
11
1.54316
21
0.461902
0
LINE
8
BLACK
6
CONTINUOUS
10
1.54316
20
0.461902
11
1.54287
21
0.462598
0
LINE
8
BLACK
6
CONTINUOUS
10
1.54287
20
0.462598
11
1.54287
21
0.537402
0
LINE
8
BLACK
6
CONTINUOUS
10
1.54287
20
0.537402
11
1.54316
21
0.538098
0
LINE
8
BLACK
6
CONTINUOUS
10
1.54316
20
0.538098
11
1.54386
21
0.538386
0
LINE
8
BLACK
6
CONTINUOUS
10
1.54386
20
0.538386
11
1.67614
21
0.538386
0
LINE
8
BLACK
6
CONTINUOUS
10
1.54484
20
0.536417
11
1.54484
21
0.463583
0
LINE
8
BLACK
6
CONTINUOUS
10
1.54484
20
0.463583
11
1.67516
21
0.463583
0
LINE
8
BLACK
6
CONTINUOUS
10
1.67516
20
0.463583
11
1.67516
21
0.536417
0
LINE
8
BLACK
6
CONTINUOUS
10
1.67516
20
0.536417
11
1.54484
21
0.536417
0
LINE
8
BLACK
6
CONTINUOUS
10
1.52134
20
0.651535
11
1.52203
21
0.651247
0
LINE
8
BLACK
6
CONTINUOUS
10
1.52203
20
0.651247
11
1.52232
21
0.650551
0
LINE
8
BLACK
6
CONTINUOUS
10
1.52232
20
0.650551
11
1.52232
21
0.469449
0
LINE
8
BLACK
6
CONTINUOUS
10
1.52232
20
0.469449
11
1.52203
21
0.468753
0
LINE
8
BLACK
6
CONTINUOUS
10
1.52203
20
0.468753
11
1.52134
21
0.468465
0
LINE
8
BLACK
6
CONTINUOUS
10
1.52134
20
0.468465
11
1.43866
21
0.468465
0
LINE
8
BLACK
6
CONTINUOUS
10
1.43866
20
0.468465
11
1.43797
21
0.468753
0
LINE
8
BLACK
6
CONTINUOUS
10
1.43797
20
0.468753
11
1.43768
21
0.469449
0
LINE
8
BLACK
6
CONTINUOUS
10
1.43768
20
0.469449
11
1.43768
21
0.650551
0
LINE
8
BLACK
6
CONTINUOUS
10
1.43768
20
0.650551
11
1.43797
21
0.651247
0
LINE
8
BLACK
6
CONTINUOUS
10
1.43797
20
0.651247
11
1.43866
21
0.651535
0
LINE
8
BLACK
6
CONTINUOUS
10
1.43866
20
0.651535
11
1.52134
21
0.651535
0
LINE
8
BLACK
6
CONTINUOUS
10
1.43965
20
0.649567
11
1.43965
21
0.470433
0
LINE
8
BLACK
6
CONTINUOUS
10
1.43965
20
0.470433
11
1.52035
21
0.470433
0
LINE
8
BLACK
6
CONTINUOUS
10
1.52035
20
0.470433
11
1.52035
21
0.649567
0
LINE
8
BLACK
6
CONTINUOUS
10
1.52035
20
0.649567
11
1.43965
21
0.649567
0
LINE
8
BLACK
6
CONTINUOUS
10
1.33087
20
0.664685
11
1.33156
21
0.664397
0
LINE
8
BLACK
6
CONTINUOUS
10
1.33156
20
0.664397
11
1.33185
21
0.663701
0
LINE
8
BLACK
6
CONTINUOUS
10
1.33185
20
0.663701
11
1.33185
21
0.476299
0
LINE
8
BLACK
6
CONTINUOUS
10
1.33185
20
0.476299
11
1.33156
21
0.475603
0
LINE
8
BLACK
6
CONTINUOUS
10
1.33156
20
0.475603
11
1.33087
21
0.475315
0
LINE
8
BLACK
6
CONTINUOUS
10
1.33087
20
0.475315
11
1.18913
21
0.475315
0
LINE
8
BLACK
6
CONTINUOUS
10
1.18913
20
0.475315
11
1.18844
21
0.475603
0
LINE
8
BLACK
6
CONTINUOUS
10
1.18844
20
0.475603
11
1.18815
21
0.476299
0
LINE
8
BLACK
6
CONTINUOUS
10
1.18815
20
0.476299
11
1.18815
21
0.476299
0
LINE
8
BLACK
6
CONTINUOUS
10
1.18815
20
0.476299
11
1.18815
21
0.663701
0
LINE
8
BLACK
6
CONTINUOUS
10
1.18815
20
0.663701
11
1.18844
21
0.664397
0
LINE
8
BLACK
6
CONTINUOUS
10
1.18844
20
0.664397
11
1.18913
21
0.664685
0
LINE
8
BLACK
6
CONTINUOUS
10
1.18913
20
0.664685
11
1.33087
21
0.664685
0
LINE
8
BLACK
6
CONTINUOUS
10
1.19012
20
0.662717
11
1.19012
21
0.477283
0
LINE
8
BLACK
6
CONTINUOUS
10
1.19012
20
0.477283
11
1.32988
21
0.477283
0
LINE
8
BLACK
6
CONTINUOUS
10
1.32988
20
0.477283
11
1.32988
21
0.662717
0
LINE
8
BLACK
6
CONTINUOUS
10
1.32988
20
0.662717
11
1.19012
21
0.662717
0
LINE
8
BLACK
6
CONTINUOUS
10
1.41858
20
0.667913
11
1.41928
21
0.667625
0
LINE
8
BLACK
6
CONTINUOUS
10
1.41928
20
0.667625
11
1.41957
21
0.666929
0
LINE
8
BLACK
6
CONTINUOUS
10
1.41957
20
0.666929
11
1.41957
21
0.533071
0
LINE
8
BLACK
6
CONTINUOUS
10
1.41957
20
0.533071
11
1.41928
21
0.532375
0
LINE
8
BLACK
6
CONTINUOUS
10
1.41928
20
0.532375
11
1.41858
21
0.532087
0
LINE
8
BLACK
6
CONTINUOUS
10
1.41858
20
0.532087
11
1.34142
21
0.532087
0
LINE
8
BLACK
6
CONTINUOUS
10
1.34142
20
0.532087
11
1.34072
21
0.532375
0
LINE
8
BLACK
6
CONTINUOUS
10
1.34072
20
0.532375
11
1.34043
21
0.533071
0
LINE
8
BLACK
6
CONTINUOUS
10
1.34043
20
0.533071
11
1.34043
21
0.533071
0
LINE
8
BLACK
6
CONTINUOUS
10
1.34043
20
0.533071
11
1.34043
21
0.666929
0
LINE
8
BLACK
6
CONTINUOUS
10
1.34043
20
0.666929
11
1.34072
21
0.667625
0
LINE
8
BLACK
6
CONTINUOUS
10
1.34072
20
0.667625
11
1.34142
21
0.667913
0
LINE
8
BLACK
6
CONTINUOUS
10
1.34142
20
0.667913
11
1.41858
21
0.667913
0
LINE
8
BLACK
6
CONTINUOUS
10
1.3424
20
0.665945
11
1.3424
21
0.534055
0
LINE
8
BLACK
6
CONTINUOUS
10
1.3424
20
0.534055
11
1.4176
21
0.534055
0
LINE
8
BLACK
6
CONTINUOUS
10
1.4176
20
0.534055
11
1.4176
21
0.665945
0
LINE
8
BLACK
6
CONTINUOUS
10
1.4176
20
0.665945
11
1.3424
21
0.665945
0
LINE
8
BLACK
6
CONTINUOUS
10
1.69693
20
0.649567
11
1.69763
21
0.649279
0
LINE
8
BLACK
6
CONTINUOUS
10
1.69763
20
0.649279
11
1.69791
21
0.648583
0
LINE
8
BLACK
6
CONTINUOUS
10
1.69791
20
0.648583
11
1.69791
21
0.571417
0
LINE
8
BLACK
6
CONTINUOUS
10
1.69791
20
0.571417
11
1.69763
21
0.570721
0
LINE
8
BLACK
6
CONTINUOUS
10
1.69763
20
0.570721
11
1.69693
21
0.570433
0
LINE
8
BLACK
6
CONTINUOUS
10
1.69693
20
0.570433
11
1.56307
21
0.570433
0
LINE
8
BLACK
6
CONTINUOUS
10
1.56307
20
0.570433
11
1.56237
21
0.570721
0
LINE
8
BLACK
6
CONTINUOUS
10
1.56237
20
0.570721
11
1.56209
21
0.571417
0
LINE
8
BLACK
6
CONTINUOUS
10
1.56209
20
0.571417
11
1.56209
21
0.648583
0
LINE
8
BLACK
6
CONTINUOUS
10
1.56209
20
0.648583
11
1.56237
21
0.649279
0
LINE
8
BLACK
6
CONTINUOUS
10
1.56237
20
0.649279
11
1.56307
21
0.649567
0
LINE
8
BLACK
6
CONTINUOUS
10
1.56307
20
0.649567
11
1.69693
21
0.649567
0
LINE
8
BLACK
6
CONTINUOUS
10
1.56406
20
0.647598
11
1.56406
21
0.572402
0
LINE
8
BLACK
6
CONTINUOUS
10
1.56406
20
0.572402
11
1.69594
21
0.572402
0
LINE
8
BLACK
6
CONTINUOUS
10
1.69594
20
0.572402
11
1.69594
21
0.647598
0
LINE
8
BLACK
6
CONTINUOUS
10
1.69594
20
0.647598
11
1.56406
21
0.647598
0
LINE
8
BLACK
6
CONTINUOUS
10
1.17614
20
0.718386
11
1.17684
21
0.718098
0
LINE
8
BLACK
6
CONTINUOUS
10
1.17684
20
0.718098
11
1.17713
21
0.717402
0
LINE
8
BLACK
6
CONTINUOUS
10
1.17713
20
0.717402
11
1.17713
21
0.642598
0
LINE
8
BLACK
6
CONTINUOUS
10
1.17713
20
0.642598
11
1.17684
21
0.641902
0
LINE
8
BLACK
6
CONTINUOUS
10
1.17684
20
0.641902
11
1.17614
21
0.641614
0
LINE
8
BLACK
6
CONTINUOUS
10
1.17614
20
0.641614
11
1.04386
21
0.641614
0
LINE
8
BLACK
6
CONTINUOUS
10
1.04386
20
0.641614
11
1.04316
21
0.641902
0
LINE
8
BLACK
6
CONTINUOUS
10
1.04316
20
0.641902
11
1.04287
21
0.642598
0
LINE
8
BLACK
6
CONTINUOUS
10
1.04287
20
0.642598
11
1.04287
21
0.717402
0
LINE
8
BLACK
6
CONTINUOUS
10
1.04287
20
0.717402
11
1.04316
21
0.718098
0
LINE
8
BLACK
6
CONTINUOUS
10
1.04316
20
0.718098
11
1.04386
21
0.718386
0
LINE
8
BLACK
6
CONTINUOUS
10
1.04386
20
0.718386
11
1.17614
21
0.718386
0
LINE
8
BLACK
6
CONTINUOUS
10
1.04484
20
0.716417
11
1.04484
21
0.643583
0
LINE
8
BLACK
6
CONTINUOUS
10
1.04484
20
0.643583
11
1.17516
21
0.643583
0
LINE
8
BLACK
6
CONTINUOUS
10
1.17516
20
0.643583
11
1.17516
21
0.716417
0
LINE
8
BLACK
6
CONTINUOUS
10
1.17516
20
0.716417
11
1.04484
21
0.716417
0
LINE
8
BLACK
6
CONTINUOUS
10
1.69693
20
0.90252
11
1.69763
21
0.902231
0
LINE
8
BLACK
6
CONTINUOUS
10
1.69763
20
0.902231
11
1.69791
21
0.901535
0
LINE
8
BLACK
6
CONTINUOUS
10
1.69791
20
0.901535
11
1.69791
21
0.668465
0
LINE
8
BLACK
6
CONTINUOUS
10
1.69791
20
0.668465
11
1.69763
21
0.667769
0
LINE
8
BLACK
6
CONTINUOUS
10
1.69763
20
0.667769
11
1.69693
21
0.66748
0
LINE
8
BLACK
6
CONTINUOUS
10
1.69693
20
0.66748
11
1.56307
21
0.66748
0
LINE
8
BLACK
6
CONTINUOUS
10
1.56307
20
0.66748
11
1.56237
21
0.667769
0
LINE
8
BLACK
6
CONTINUOUS
10
1.56237
20
0.667769
11
1.56209
21
0.668465
0
LINE
8
BLACK
6
CONTINUOUS
10
1.56209
20
0.668465
11
1.56209
21
0.901535
0
LINE
8
BLACK
6
CONTINUOUS
10
1.56209
20
0.901535
11
1.56237
21
0.902231
0
LINE
8
BLACK
6
CONTINUOUS
10
1.56237
20
0.902231
11
1.56307
21
0.90252
0
LINE
8
BLACK
6
CONTINUOUS
10
1.56307
20
0.90252
11
1.69693
21
0.90252
0
LINE
8
BLACK
6
CONTINUOUS
10
1.56406
20
0.900551
11
1.56406
21
0.669449
0
LINE
8
BLACK
6
CONTINUOUS
10
1.56406
20
0.669449
11
1.69594
21
0.669449
0
LINE
8
BLACK
6
CONTINUOUS
10
1.69594
20
0.669449
11
1.69594
21
0.900551
0
LINE
8
BLACK
6
CONTINUOUS
10
1.69594
20
0.900551
11
1.56406
21
0.900551
0
LINE
8
BLACK
6
CONTINUOUS
10
1.47614
20
0.758386
11
1.47684
21
0.758098
0
LINE
8
BLACK
6
CONTINUOUS
10
1.47684
20
0.758098
11
1.47713
21
0.757402
0
LINE
8
BLACK
6
CONTINUOUS
10
1.47713
20
0.757402
11
1.47713
21
0.682598
0
LINE
8
BLACK
6
CONTINUOUS
10
1.47713
20
0.682598
11
1.47684
21
0.681902
0
LINE
8
BLACK
6
CONTINUOUS
10
1.47684
20
0.681902
11
1.47614
21
0.681614
0
LINE
8
BLACK
6
CONTINUOUS
10
1.47614
20
0.681614
11
1.34386
21
0.681614
0
LINE
8
BLACK
6
CONTINUOUS
10
1.34386
20
0.681614
11
1.34316
21
0.681902
0
LINE
8
BLACK
6
CONTINUOUS
10
1.34316
20
0.681902
11
1.34287
21
0.682598
0
LINE
8
BLACK
6
CONTINUOUS
10
1.34287
20
0.682598
11
1.34287
21
0.757402
0
LINE
8
BLACK
6
CONTINUOUS
10
1.34287
20
0.757402
11
1.34316
21
0.758098
0
LINE
8
BLACK
6
CONTINUOUS
10
1.34316
20
0.758098
11
1.34386
21
0.758386
0
LINE
8
BLACK
6
CONTINUOUS
10
1.34386
20
0.758386
11
1.47614
21
0.758386
0
LINE
8
BLACK
6
CONTINUOUS
10
1.34484
20
0.756417
11
1.34484
21
0.683583
0
LINE
8
BLACK
6
CONTINUOUS
10
1.34484
20
0.683583
11
1.47516
21
0.683583
0
LINE
8
BLACK
6
CONTINUOUS
10
1.47516
20
0.683583
11
1.47516
21
0.756417
0
LINE
8
BLACK
6
CONTINUOUS
10
1.47516
20
0.756417
11
1.34484
21
0.756417
0
LINE
8
BLACK
6
CONTINUOUS
10
1.87449
20
0.901535
11
1.87518
21
0.901247
0
LINE
8
BLACK
6
CONTINUOUS
10
1.87518
20
0.901247
11
1.87547
21
0.900551
0
LINE
8
BLACK
6
CONTINUOUS
10
1.87547
20
0.900551
11
1.87547
21
0.719449
0
LINE
8
BLACK
6
CONTINUOUS
10
1.87547
20
0.719449
11
1.87518
21
0.718753
0
LINE
8
BLACK
6
CONTINUOUS
10
1.87518
20
0.718753
11
1.87449
21
0.718465
0
LINE
8
BLACK
6
CONTINUOUS
10
1.87449
20
0.718465
11
1.79181
21
0.718465
0
LINE
8
BLACK
6
CONTINUOUS
10
1.79181
20
0.718465
11
1.79112
21
0.718753
0
LINE
8
BLACK
6
CONTINUOUS
10
1.79112
20
0.718753
11
1.79083
21
0.719449
0
LINE
8
BLACK
6
CONTINUOUS
10
1.79083
20
0.719449
11
1.79083
21
0.719449
0
LINE
8
BLACK
6
CONTINUOUS
10
1.79083
20
0.719449
11
1.79083
21
0.900551
0
LINE
8
BLACK
6
CONTINUOUS
10
1.79083
20
0.900551
11
1.79112
21
0.901247
0
LINE
8
BLACK
6
CONTINUOUS
10
1.79112
20
0.901247
11
1.79181
21
0.901535
0
LINE
8
BLACK
6
CONTINUOUS
10
1.79181
20
0.901535
11
1.87449
21
0.901535
0
LINE
8
BLACK
6
CONTINUOUS
10
1.7928
20
0.899567
11
1.7928
21
0.720433
0
LINE
8
BLACK
6
CONTINUOUS
10
1.7928
20
0.720433
11
1.8735
21
0.720433
0
LINE
8
BLACK
6
CONTINUOUS
10
1.8735
20
0.720433
11
1.8735
21
0.899567
0
LINE
8
BLACK
6
CONTINUOUS
10
1.8735
20
0.899567
11
1.7928
21
0.899567
0
LINE
8
BLACK
6
CONTINUOUS
10
1.22055
20
0.819724
11
1.22125
21
0.819436
0
LINE
8
BLACK
6
CONTINUOUS
10
1.22125
20
0.819436
11
1.22154
21
0.81874
0
LINE
8
BLACK
6
CONTINUOUS
10
1.22154
20
0.81874
11
1.22154
21
0.736063
0
LINE
8
BLACK
6
CONTINUOUS
10
1.22154
20
0.736063
11
1.22125
21
0.735367
0
LINE
8
BLACK
6
CONTINUOUS
10
1.22125
20
0.735367
11
1.22055
21
0.735079
0
LINE
8
BLACK
6
CONTINUOUS
10
1.22055
20
0.735079
11
1.03945
21
0.735079
0
LINE
8
BLACK
6
CONTINUOUS
10
1.03945
20
0.735079
11
1.03875
21
0.735367
0
LINE
8
BLACK
6
CONTINUOUS
10
1.03875
20
0.735367
11
1.03846
21
0.736063
0
LINE
8
BLACK
6
CONTINUOUS
10
1.03846
20
0.736063
11
1.03846
21
0.81874
0
LINE
8
BLACK
6
CONTINUOUS
10
1.03846
20
0.81874
11
1.03875
21
0.819436
0
LINE
8
BLACK
6
CONTINUOUS
10
1.03875
20
0.819436
11
1.03945
21
0.819724
0
LINE
8
BLACK
6
CONTINUOUS
10
1.03945
20
0.819724
11
1.22055
21
0.819724
0
LINE
8
BLACK
6
CONTINUOUS
10
1.04043
20
0.817756
11
1.04043
21
0.737047
0
LINE
8
BLACK
6
CONTINUOUS
10
1.04043
20
0.737047
11
1.21957
21
0.737047
0
LINE
8
BLACK
6
CONTINUOUS
10
1.21957
20
0.737047
11
1.21957
21
0.817756
0
LINE
8
BLACK
6
CONTINUOUS
10
1.21957
20
0.817756
11
1.04043
21
0.817756
0
LINE
8
BLACK
6
CONTINUOUS
10
0.938583
20
0.887913
11
0.939279
21
0.887625
0
LINE
8
BLACK
6
CONTINUOUS
10
0.939279
20
0.887625
11
0.939567
21
0.886929
0
LINE
8
BLACK
6
CONTINUOUS
10
0.939567
20
0.886929
11
0.939567
21
0.753071
0
LINE
8
BLACK
6
CONTINUOUS
10
0.939567
20
0.753071
11
0.939279
21
0.752375
0
LINE
8
BLACK
6
CONTINUOUS
10
0.939279
20
0.752375
11
0.938583
21
0.752087
0
LINE
8
BLACK
6
CONTINUOUS
10
0.938583
20
0.752087
11
0.861417
21
0.752087
0
LINE
8
BLACK
6
CONTINUOUS
10
0.861417
20
0.752087
11
0.860721
21
0.752375
0
LINE
8
BLACK
6
CONTINUOUS
10
0.860721
20
0.752375
11
0.860433
21
0.753071
0
LINE
8
BLACK
6
CONTINUOUS
10
0.860433
20
0.753071
11
0.860433
21
0.753071
0
LINE
8
BLACK
6
CONTINUOUS
10
0.860433
20
0.753071
11
0.860433
21
0.886929
0
LINE
8
BLACK
6
CONTINUOUS
10
0.860433
20
0.886929
11
0.860721
21
0.887625
0
LINE
8
BLACK
6
CONTINUOUS
10
0.860721
20
0.887625
11
0.861417
21
0.887913
0
LINE
8
BLACK
6
CONTINUOUS
10
0.861417
20
0.887913
11
0.938583
21
0.887913
0
LINE
8
BLACK
6
CONTINUOUS
10
0.862402
20
0.885945
11
0.862402
21
0.754055
0
LINE
8
BLACK
6
CONTINUOUS
10
0.862402
20
0.754055
11
0.937598
21
0.754055
0
LINE
8
BLACK
6
CONTINUOUS
10
0.937598
20
0.754055
11
0.937598
21
0.885945
0
LINE
8
BLACK
6
CONTINUOUS
10
0.937598
20
0.885945
11
0.862402
21
0.885945
0
LINE
8
BLACK
6
CONTINUOUS
10
1.0274
20
0.887126
11
1.0281
21
0.886838
0
LINE
8
BLACK
6
CONTINUOUS
10
1.0281
20
0.886838
11
1.02839
21
0.886142
0
LINE
8
BLACK
6
CONTINUOUS
10
1.02839
20
0.886142
11
1.02839
21
0.753858
0
LINE
8
BLACK
6
CONTINUOUS
10
1.02839
20
0.753858
11
1.0281
21
0.753162
0
LINE
8
BLACK
6
CONTINUOUS
10
1.0281
20
0.753162
11
1.0274
21
0.752874
0
LINE
8
BLACK
6
CONTINUOUS
10
1.0274
20
0.752874
11
0.952598
21
0.752874
0
LINE
8
BLACK
6
CONTINUOUS
10
0.952598
20
0.752874
11
0.951902
21
0.753162
0
LINE
8
BLACK
6
CONTINUOUS
10
0.951902
20
0.753162
11
0.951614
21
0.753858
0
LINE
8
BLACK
6
CONTINUOUS
10
0.951614
20
0.753858
11
0.951614
21
0.886142
0
LINE
8
BLACK
6
CONTINUOUS
10
0.951614
20
0.886142
11
0.951902
21
0.886838
0
LINE
8
BLACK
6
CONTINUOUS
10
0.951902
20
0.886838
11
0.952598
21
0.887126
0
LINE
8
BLACK
6
CONTINUOUS
10
0.952598
20
0.887126
11
1.0274
21
0.887126
0
LINE
8
BLACK
6
CONTINUOUS
10
0.953583
20
0.885157
11
0.953583
21
0.754843
0
LINE
8
BLACK
6
CONTINUOUS
10
0.953583
20
0.754843
11
1.02642
21
0.754843
0
LINE
8
BLACK
6
CONTINUOUS
10
1.02642
20
0.754843
11
1.02642
21
0.885157
0
LINE
8
BLACK
6
CONTINUOUS
10
1.02642
20
0.885157
11
0.953583
21
0.885157
0
LINE
8
BLACK
6
CONTINUOUS
10
1.3174
20
0.887126
11
1.3181
21
0.886838
0
LINE
8
BLACK
6
CONTINUOUS
10
1.3181
20
0.886838
11
1.31839
21
0.886142
0
LINE
8
BLACK
6
CONTINUOUS
10
1.31839
20
0.886142
11
1.31839
21
0.753858
0
LINE
8
BLACK
6
CONTINUOUS
10
1.31839
20
0.753858
11
1.3181
21
0.753162
0
LINE
8
BLACK
6
CONTINUOUS
10
1.3181
20
0.753162
11
1.3174
21
0.752874
0
LINE
8
BLACK
6
CONTINUOUS
10
1.3174
20
0.752874
11
1.2426
21
0.752874
0
LINE
8
BLACK
6
CONTINUOUS
10
1.2426
20
0.752874
11
1.2419
21
0.753162
0
LINE
8
BLACK
6
CONTINUOUS
10
1.2419
20
0.753162
11
1.24161
21
0.753858
0
LINE
8
BLACK
6
CONTINUOUS
10
1.24161
20
0.753858
11
1.24161
21
0.886142
0
LINE
8
BLACK
6
CONTINUOUS
10
1.24161
20
0.886142
11
1.2419
21
0.886838
0
LINE
8
BLACK
6
CONTINUOUS
10
1.2419
20
0.886838
11
1.2426
21
0.887126
0
LINE
8
BLACK
6
CONTINUOUS
10
1.2426
20
0.887126
11
1.3174
21
0.887126
0
LINE
8
BLACK
6
CONTINUOUS
10
1.24358
20
0.885157
11
1.24358
21
0.754843
0
LINE
8
BLACK
6
CONTINUOUS
10
1.24358
20
0.754843
11
1.31642
21
0.754843
0
LINE
8
BLACK
6
CONTINUOUS
10
1.31642
20
0.754843
11
1.31642
21
0.885157
0
LINE
8
BLACK
6
CONTINUOUS
10
1.31642
20
0.885157
11
1.24358
21
0.885157
0
LINE
8
BLACK
6
CONTINUOUS
10
1.78358
20
0.902913
11
1.78428
21
0.902625
0
LINE
8
BLACK
6
CONTINUOUS
10
1.78428
20
0.902625
11
1.78457
21
0.901929
0
LINE
8
BLACK
6
CONTINUOUS
10
1.78457
20
0.901929
11
1.78457
21
0.768071
0
LINE
8
BLACK
6
CONTINUOUS
10
1.78457
20
0.768071
11
1.78428
21
0.767375
0
LINE
8
BLACK
6
CONTINUOUS
10
1.78428
20
0.767375
11
1.78358
21
0.767087
0
LINE
8
BLACK
6
CONTINUOUS
10
1.78358
20
0.767087
11
1.70642
21
0.767087
0
LINE
8
BLACK
6
CONTINUOUS
10
1.70642
20
0.767087
11
1.70572
21
0.767375
0
LINE
8
BLACK
6
CONTINUOUS
10
1.70572
20
0.767375
11
1.70543
21
0.768071
0
LINE
8
BLACK
6
CONTINUOUS
10
1.70543
20
0.768071
11
1.70543
21
0.768071
0
LINE
8
BLACK
6
CONTINUOUS
10
1.70543
20
0.768071
11
1.70543
21
0.901929
0
LINE
8
BLACK
6
CONTINUOUS
10
1.70543
20
0.901929
11
1.70572
21
0.902625
0
LINE
8
BLACK
6
CONTINUOUS
10
1.70572
20
0.902625
11
1.70642
21
0.902913
0
LINE
8
BLACK
6
CONTINUOUS
10
1.70642
20
0.902913
11
1.78358
21
0.902913
0
LINE
8
BLACK
6
CONTINUOUS
10
1.7074
20
0.900945
11
1.7074
21
0.769055
0
LINE
8
BLACK
6
CONTINUOUS
10
1.7074
20
0.769055
11
1.7826
21
0.769055
0
LINE
8
BLACK
6
CONTINUOUS
10
1.7826
20
0.769055
11
1.7826
21
0.900945
0
LINE
8
BLACK
6
CONTINUOUS
10
1.7826
20
0.900945
11
1.7074
21
0.900945
0
LINE
8
BLACK
6
CONTINUOUS
10
1.19508
20
0.916969
11
1.19577
21
0.91668
0
LINE
8
BLACK
6
CONTINUOUS
10
1.19577
20
0.91668
11
1.19606
21
0.915984
0
LINE
8
BLACK
6
CONTINUOUS
10
1.19606
20
0.915984
11
1.19606
21
0.838819
0
LINE
8
BLACK
6
CONTINUOUS
10
1.19606
20
0.838819
11
1.19577
21
0.838123
0
LINE
8
BLACK
6
CONTINUOUS
10
1.19577
20
0.838123
11
1.19508
21
0.837835
0
LINE
8
BLACK
6
CONTINUOUS
10
1.19508
20
0.837835
11
1.06122
21
0.837835
0
LINE
8
BLACK
6
CONTINUOUS
10
1.06122
20
0.837835
11
1.06052
21
0.838123
0
LINE
8
BLACK
6
CONTINUOUS
10
1.06052
20
0.838123
11
1.06024
21
0.838819
0
LINE
8
BLACK
6
CONTINUOUS
10
1.06024
20
0.838819
11
1.06024
21
0.915984
0
LINE
8
BLACK
6
CONTINUOUS
10
1.06024
20
0.915984
11
1.06052
21
0.91668
0
LINE
8
BLACK
6
CONTINUOUS
10
1.06052
20
0.91668
11
1.06122
21
0.916969
0
LINE
8
BLACK
6
CONTINUOUS
10
1.06122
20
0.916969
11
1.19508
21
0.916969
0
LINE
8
BLACK
6
CONTINUOUS
10
1.0622
20
0.915
11
1.0622
21
0.839803
0
LINE
8
BLACK
6
CONTINUOUS
10
1.0622
20
0.839803
11
1.19409
21
0.839803
0
LINE
8
BLACK
6
CONTINUOUS
10
1.19409
20
0.839803
11
1.19409
21
0.915
0
LINE
8
BLACK
6
CONTINUOUS
10
1.19409
20
0.915
11
1.0622
21
0.915
0
LINE
8
BLACK
6
CONTINUOUS
10
1.8674
20
1.05713
11
1.8681
21
1.05684
0
LINE
8
BLACK
6
CONTINUOUS
10
1.8681
20
1.05684
11
1.86839
21
1.05614
0
LINE
8
BLACK
6
CONTINUOUS
10
1.86839
20
1.05614
11
1.86839
21
0.923858
0
LINE
8
BLACK
6
CONTINUOUS
10
1.86839
20
0.923858
11
1.8681
21
0.923162
0
LINE
8
BLACK
6
CONTINUOUS
10
1.8681
20
0.923162
11
1.8674
21
0.922874
0
LINE
8
BLACK
6
CONTINUOUS
10
1.8674
20
0.922874
11
1.7926
21
0.922874
0
LINE
8
BLACK
6
CONTINUOUS
10
1.7926
20
0.922874
11
1.7919
21
0.923162
0
LINE
8
BLACK
6
CONTINUOUS
10
1.7919
20
0.923162
11
1.79161
21
0.923858
0
LINE
8
BLACK
6
CONTINUOUS
10
1.79161
20
0.923858
11
1.79161
21
1.05614
0
LINE
8
BLACK
6
CONTINUOUS
10
1.79161
20
1.05614
11
1.7919
21
1.05684
0
LINE
8
BLACK
6
CONTINUOUS
10
1.7919
20
1.05684
11
1.7926
21
1.05713
0
LINE
8
BLACK
6
CONTINUOUS
10
1.7926
20
1.05713
11
1.8674
21
1.05713
0
LINE
8
BLACK
6
CONTINUOUS
10
1.79358
20
1.05516
11
1.79358
21
0.924843
0
LINE
8
BLACK
6
CONTINUOUS
10
1.79358
20
0.924843
11
1.86642
21
0.924843
0
LINE
8
BLACK
6
CONTINUOUS
10
1.86642
20
0.924843
11
1.86642
21
1.05516
0
LINE
8
BLACK
6
CONTINUOUS
10
1.86642
20
1.05516
11
1.79358
21
1.05516
0
LINE
8
BLACK
6
CONTINUOUS
10
1.1637
20
1.07685
11
1.1644
21
1.07656
0
LINE
8
BLACK
6
CONTINUOUS
10
1.1644
20
1.07656
11
1.16469
21
1.07587
0
LINE
8
BLACK
6
CONTINUOUS
10
1.16469
20
1.07587
11
1.16469
21
0.934134
0
LINE
8
BLACK
6
CONTINUOUS
10
1.16469
20
0.934134
11
1.1644
21
0.933438
0
LINE
8
BLACK
6
CONTINUOUS
10
1.1644
20
0.933438
11
1.1637
21
0.93315
0
LINE
8
BLACK
6
CONTINUOUS
10
1.1637
20
0.93315
11
0.976299
21
0.93315
0
LINE
8
BLACK
6
CONTINUOUS
10
0.976299
20
0.93315
11
0.975603
21
0.933438
0
LINE
8
BLACK
6
CONTINUOUS
10
0.975603
20
0.933438
11
0.975315
21
0.934134
0
LINE
8
BLACK
6
CONTINUOUS
10
0.975315
20
0.934134
11
0.975315
21
1.07587
0
LINE
8
BLACK
6
CONTINUOUS
10
0.975315
20
1.07587
11
0.975603
21
1.07656
0
LINE
8
BLACK
6
CONTINUOUS
10
0.975603
20
1.07656
11
0.976299
21
1.07685
0
LINE
8
BLACK
6
CONTINUOUS
10
0.976299
20
1.07685
11
1.1637
21
1.07685
0
LINE
8
BLACK
6
CONTINUOUS
10
0.977283
20
1.07488
11
0.977283
21
0.935118
0
LINE
8
BLACK
6
CONTINUOUS
10
0.977283
20
0.935118
11
1.16272
21
0.935118
0
LINE
8
BLACK
6
CONTINUOUS
10
1.16272
20
0.935118
11
1.16272
21
1.07488
0
LINE
8
BLACK
6
CONTINUOUS
10
1.16272
20
1.07488
11
0.977283
21
1.07488
0
LINE
8
BLACK
6
CONTINUOUS
10
1.6274
20
1.09713
11
1.6281
21
1.09684
0
LINE
8
BLACK
6
CONTINUOUS
10
1.6281
20
1.09684
11
1.62839
21
1.09614
0
LINE
8
BLACK
6
CONTINUOUS
10
1.62839
20
1.09614
11
1.62839
21
0.963858
0
LINE
8
BLACK
6
CONTINUOUS
10
1.62839
20
0.963858
11
1.6281
21
0.963162
0
LINE
8
BLACK
6
CONTINUOUS
10
1.6281
20
0.963162
11
1.6274
21
0.962874
0
LINE
8
BLACK
6
CONTINUOUS
10
1.6274
20
0.962874
11
1.5526
21
0.962874
0
LINE
8
BLACK
6
CONTINUOUS
10
1.5526
20
0.962874
11
1.5519
21
0.963162
0
LINE
8
BLACK
6
CONTINUOUS
10
1.5519
20
0.963162
11
1.55161
21
0.963858
0
LINE
8
BLACK
6
CONTINUOUS
10
1.55161
20
0.963858
11
1.55161
21
1.09614
0
LINE
8
BLACK
6
CONTINUOUS
10
1.55161
20
1.09614
11
1.5519
21
1.09684
0
LINE
8
BLACK
6
CONTINUOUS
10
1.5519
20
1.09684
11
1.5526
21
1.09713
0
LINE
8
BLACK
6
CONTINUOUS
10
1.5526
20
1.09713
11
1.6274
21
1.09713
0
LINE
8
BLACK
6
CONTINUOUS
10
1.55358
20
1.09516
11
1.55358
21
0.964843
0
LINE
8
BLACK
6
CONTINUOUS
10
1.55358
20
0.964843
11
1.62642
21
0.964843
0
LINE
8
BLACK
6
CONTINUOUS
10
1.62642
20
0.964843
11
1.62642
21
1.09516
0
LINE
8
BLACK
6
CONTINUOUS
10
1.62642
20
1.09516
11
1.55358
21
1.09516
0
LINE
8
BLACK
6
CONTINUOUS
10
1.52614
20
1.05839
11
1.52684
21
1.0581
0
LINE
8
BLACK
6
CONTINUOUS
10
1.52684
20
1.0581
11
1.52713
21
1.0574
0
LINE
8
BLACK
6
CONTINUOUS
10
1.52713
20
1.0574
11
1.52713
21
0.982598
0
LINE
8
BLACK
6
CONTINUOUS
10
1.52713
20
0.982598
11
1.52684
21
0.981902
0
LINE
8
BLACK
6
CONTINUOUS
10
1.52684
20
0.981902
11
1.52614
21
0.981614
0
LINE
8
BLACK
6
CONTINUOUS
10
1.52614
20
0.981614
11
1.39386
21
0.981614
0
LINE
8
BLACK
6
CONTINUOUS
10
1.39386
20
0.981614
11
1.39316
21
0.981902
0
LINE
8
BLACK
6
CONTINUOUS
10
1.39316
20
0.981902
11
1.39287
21
0.982598
0
LINE
8
BLACK
6
CONTINUOUS
10
1.39287
20
0.982598
11
1.39287
21
0.982598
0
LINE
8
BLACK
6
CONTINUOUS
10
1.39287
20
0.982598
11
1.39287
21
1.0574
0
LINE
8
BLACK
6
CONTINUOUS
10
1.39287
20
1.0574
11
1.39316
21
1.0581
0
LINE
8
BLACK
6
CONTINUOUS
10
1.39316
20
1.0581
11
1.39386
21
1.05839
0
LINE
8
BLACK
6
CONTINUOUS
10
1.39386
20
1.05839
11
1.52614
21
1.05839
0
LINE
8
BLACK
6
CONTINUOUS
10
1.39484
20
1.05642
11
1.39484
21
0.983583
0
LINE
8
BLACK
6
CONTINUOUS
10
1.39484
20
0.983583
11
1.52516
21
0.983583
0
LINE
8
BLACK
6
CONTINUOUS
10
1.52516
20
0.983583
11
1.52516
21
1.05642
0
LINE
8
BLACK
6
CONTINUOUS
10
1.52516
20
1.05642
11
1.39484
21
1.05642
0
LINE
8
BLACK
6
CONTINUOUS
10
1.38555
20
1.11732
11
1.38625
21
1.11703
0
LINE
8
BLACK
6
CONTINUOUS
10
1.38625
20
1.11703
11
1.38654
21
1.11634
0
LINE
8
BLACK
6
CONTINUOUS
10
1.38654
20
1.11634
11
1.38654
21
1.03366
0
LINE
8
BLACK
6
CONTINUOUS
10
1.38654
20
1.03366
11
1.38625
21
1.03297
0
LINE
8
BLACK
6
CONTINUOUS
10
1.38625
20
1.03297
11
1.38555
21
1.03268
0
LINE
8
BLACK
6
CONTINUOUS
10
1.38555
20
1.03268
11
1.20445
21
1.03268
0
LINE
8
BLACK
6
CONTINUOUS
10
1.20445
20
1.03268
11
1.20375
21
1.03297
0
LINE
8
BLACK
6
CONTINUOUS
10
1.20375
20
1.03297
11
1.20346
21
1.03366
0
LINE
8
BLACK
6
CONTINUOUS
10
1.20346
20
1.03366
11
1.20346
21
1.03366
0
LINE
8
BLACK
6
CONTINUOUS
10
1.20346
20
1.03366
11
1.20346
21
1.11634
0
LINE
8
BLACK
6
CONTINUOUS
10
1.20346
20
1.11634
11
1.20375
21
1.11703
0
LINE
8
BLACK
6
CONTINUOUS
10
1.20375
20
1.11703
11
1.20445
21
1.11732
0
LINE
8
BLACK
6
CONTINUOUS
10
1.20445
20
1.11732
11
1.38555
21
1.11732
0
LINE
8
BLACK
6
CONTINUOUS
10
1.20543
20
1.11535
11
1.20543
21
1.03465
0
LINE
8
BLACK
6
CONTINUOUS
10
1.20543
20
1.03465
11
1.38457
21
1.03465
0
LINE
8
BLACK
6
CONTINUOUS
10
1.38457
20
1.03465
11
1.38457
21
1.11535
0
LINE
8
BLACK
6
CONTINUOUS
10
1.38457
20
1.11535
11
1.20543
21
1.11535
0
LINE
8
BLACK
6
CONTINUOUS
10
1.37693
20
1.20457
11
1.37763
21
1.20428
0
LINE
8
BLACK
6
CONTINUOUS
10
1.37763
20
1.20428
11
1.37791
21
1.20358
0
LINE
8
BLACK
6
CONTINUOUS
10
1.37791
20
1.20358
11
1.37791
21
1.12642
0
LINE
8
BLACK
6
CONTINUOUS
10
1.37791
20
1.12642
11
1.37763
21
1.12572
0
LINE
8
BLACK
6
CONTINUOUS
10
1.37763
20
1.12572
11
1.37693
21
1.12543
0
LINE
8
BLACK
6
CONTINUOUS
10
1.37693
20
1.12543
11
1.24307
21
1.12543
0
LINE
8
BLACK
6
CONTINUOUS
10
1.24307
20
1.12543
11
1.24237
21
1.12572
0
LINE
8
BLACK
6
CONTINUOUS
10
1.24237
20
1.12572
11
1.24209
21
1.12642
0
LINE
8
BLACK
6
CONTINUOUS
10
1.24209
20
1.12642
11
1.24209
21
1.20358
0
LINE
8
BLACK
6
CONTINUOUS
10
1.24209
20
1.20358
11
1.24237
21
1.20428
0
LINE
8
BLACK
6
CONTINUOUS
10
1.24237
20
1.20428
11
1.24307
21
1.20457
0
LINE
8
BLACK
6
CONTINUOUS
10
1.24307
20
1.20457
11
1.37693
21
1.20457
0
LINE
8
BLACK
6
CONTINUOUS
10
1.24406
20
1.2026
11
1.24406
21
1.1274
0
LINE
8
BLACK
6
CONTINUOUS
10
1.24406
20
1.1274
11
1.37594
21
1.1274
0
LINE
8
BLACK
6
CONTINUOUS
10
1.37594
20
1.1274
11
1.37594
21
1.2026
0
LINE
8
BLACK
6
CONTINUOUS
10
1.37594
20
1.2026
11
1.24406
21
1.2026
0
LINE
8
BLACK
6
CONTINUOUS
10
1.04858
20
1.31791
11
1.04928
21
1.31763
0
LINE
8
BLACK
6
CONTINUOUS
10
1.04928
20
1.31763
11
1.04957
21
1.31693
0
LINE
8
BLACK
6
CONTINUOUS
10
1.04957
20
1.31693
11
1.04957
21
1.18307
0
LINE
8
BLACK
6
CONTINUOUS
10
1.04957
20
1.18307
11
1.04928
21
1.18237
0
LINE
8
BLACK
6
CONTINUOUS
10
1.04928
20
1.18237
11
1.04858
21
1.18209
0
LINE
8
BLACK
6
CONTINUOUS
10
1.04858
20
1.18209
11
0.971417
21
1.18209
0
LINE
8
BLACK
6
CONTINUOUS
10
0.971417
20
1.18209
11
0.970721
21
1.18237
0
LINE
8
BLACK
6
CONTINUOUS
10
0.970721
20
1.18237
11
0.970433
21
1.18307
0
LINE
8
BLACK
6
CONTINUOUS
10
0.970433
20
1.18307
11
0.970433
21
1.18307
0
LINE
8
BLACK
6
CONTINUOUS
10
0.970433
20
1.18307
11
0.970433
21
1.31693
0
LINE
8
BLACK
6
CONTINUOUS
10
0.970433
20
1.31693
11
0.970721
21
1.31763
0
LINE
8
BLACK
6
CONTINUOUS
10
0.970721
20
1.31763
11
0.971417
21
1.31791
0
LINE
8
BLACK
6
CONTINUOUS
10
0.971417
20
1.31791
11
1.04858
21
1.31791
0
LINE
8
BLACK
6
CONTINUOUS
10
0.972402
20
1.31594
11
0.972402
21
1.18406
0
LINE
8
BLACK
6
CONTINUOUS
10
0.972402
20
1.18406
11
1.0476
21
1.18406
0
LINE
8
BLACK
6
CONTINUOUS
10
1.0476
20
1.18406
11
1.0476
21
1.31594
0
LINE
8
BLACK
6
CONTINUOUS
10
1.0476
20
1.31594
11
0.972402
21
1.31594
0
LINE
8
BLACK
6
CONTINUOUS
10
0.956142
20
1.27339
11
0.956838
21
1.2731
0
LINE
8
BLACK
6
CONTINUOUS
10
0.956838
20
1.2731
11
0.957126
21
1.2724
0
LINE
8
BLACK
6
CONTINUOUS
10
0.957126
20
1.2724
11
0.957126
21
1.1976
0
LINE
8
BLACK
6
CONTINUOUS
10
0.957126
20
1.1976
11
0.956838
21
1.1969
0
LINE
8
BLACK
6
CONTINUOUS
10
0.956838
20
1.1969
11
0.956142
21
1.19661
0
LINE
8
BLACK
6
CONTINUOUS
10
0.956142
20
1.19661
11
0.823858
21
1.19661
0
LINE
8
BLACK
6
CONTINUOUS
10
0.823858
20
1.19661
11
0.823162
21
1.1969
0
LINE
8
BLACK
6
CONTINUOUS
10
0.823162
20
1.1969
11
0.822874
21
1.1976
0
LINE
8
BLACK
6
CONTINUOUS
10
0.822874
20
1.1976
11
0.822874
21
1.2724
0
LINE
8
BLACK
6
CONTINUOUS
10
0.822874
20
1.2724
11
0.823162
21
1.2731
0
LINE
8
BLACK
6
CONTINUOUS
10
0.823162
20
1.2731
11
0.823858
21
1.27339
0
LINE
8
BLACK
6
CONTINUOUS
10
0.823858
20
1.27339
11
0.956142
21
1.27339
0
LINE
8
BLACK
6
CONTINUOUS
10
0.824843
20
1.27142
11
0.824843
21
1.19858
0
LINE
8
BLACK
6
CONTINUOUS
10
0.824843
20
1.19858
11
0.955157
21
1.19858
0
LINE
8
BLACK
6
CONTINUOUS
10
0.955157
20
1.19858
11
0.955157
21
1.27142
0
LINE
8
BLACK
6
CONTINUOUS
10
0.955157
20
1.27142
11
0.824843
21
1.27142
0
LINE
8
BLACK
6
CONTINUOUS
10
1.97634
20
1.38154
11
1.97703
21
1.38125
0
LINE
8
BLACK
6
CONTINUOUS
10
1.97703
20
1.38125
11
1.97732
21
1.38055
0
LINE
8
BLACK
6
CONTINUOUS
10
1.97732
20
1.38055
11
1.97732
21
1.19945
0
LINE
8
BLACK
6
CONTINUOUS
10
1.97732
20
1.19945
11
1.97703
21
1.19875
0
LINE
8
BLACK
6
CONTINUOUS
10
1.97703
20
1.19875
11
1.97634
21
1.19846
0
LINE
8
BLACK
6
CONTINUOUS
10
1.97634
20
1.19846
11
1.89366
21
1.19846
0
LINE
8
BLACK
6
CONTINUOUS
10
1.89366
20
1.19846
11
1.89297
21
1.19875
0
LINE
8
BLACK
6
CONTINUOUS
10
1.89297
20
1.19875
11
1.89268
21
1.19945
0
LINE
8
BLACK
6
CONTINUOUS
10
1.89268
20
1.19945
11
1.89268
21
1.38055
0
LINE
8
BLACK
6
CONTINUOUS
10
1.89268
20
1.38055
11
1.89297
21
1.38125
0
LINE
8
BLACK
6
CONTINUOUS
10
1.89297
20
1.38125
11
1.89366
21
1.38154
0
LINE
8
BLACK
6
CONTINUOUS
10
1.89366
20
1.38154
11
1.97634
21
1.38154
0
LINE
8
BLACK
6
CONTINUOUS
10
1.89465
20
1.37957
11
1.89465
21
1.20043
0
LINE
8
BLACK
6
CONTINUOUS
10
1.89465
20
1.20043
11
1.97535
21
1.20043
0
LINE
8
BLACK
6
CONTINUOUS
10
1.97535
20
1.20043
11
1.97535
21
1.37957
0
LINE
8
BLACK
6
CONTINUOUS
10
1.97535
20
1.37957
11
1.89465
21
1.37957
0
LINE
8
BLACK
6
CONTINUOUS
10
1.38154
20
1.35291
11
1.38223
21
1.35263
0
LINE
8
BLACK
6
CONTINUOUS
10
1.38223
20
1.35263
11
1.38252
21
1.35193
0
LINE
8
BLACK
6
CONTINUOUS
10
1.38252
20
1.35193
11
1.38252
21
1.21807
0
LINE
8
BLACK
6
CONTINUOUS
10
1.38252
20
1.21807
11
1.38223
21
1.21737
0
LINE
8
BLACK
6
CONTINUOUS
10
1.38223
20
1.21737
11
1.38154
21
1.21709
0
LINE
8
BLACK
6
CONTINUOUS
10
1.38154
20
1.21709
11
1.14846
21
1.21709
0
LINE
8
BLACK
6
CONTINUOUS
10
1.14846
20
1.21709
11
1.14777
21
1.21737
0
LINE
8
BLACK
6
CONTINUOUS
10
1.14777
20
1.21737
11
1.14748
21
1.21807
0
LINE
8
BLACK
6
CONTINUOUS
10
1.14748
20
1.21807
11
1.14748
21
1.35193
0
LINE
8
BLACK
6
CONTINUOUS
10
1.14748
20
1.35193
11
1.14777
21
1.35263
0
LINE
8
BLACK
6
CONTINUOUS
10
1.14777
20
1.35263
11
1.14846
21
1.35291
0
LINE
8
BLACK
6
CONTINUOUS
10
1.14846
20
1.35291
11
1.38154
21
1.35291
0
LINE
8
BLACK
6
CONTINUOUS
10
1.14945
20
1.35094
11
1.14945
21
1.21906
0
LINE
8
BLACK
6
CONTINUOUS
10
1.14945
20
1.21906
11
1.38055
21
1.21906
0
LINE
8
BLACK
6
CONTINUOUS
10
1.38055
20
1.21906
11
1.38055
21
1.35094
0
LINE
8
BLACK
6
CONTINUOUS
10
1.38055
20
1.35094
11
1.14945
21
1.35094
0
LINE
8
BLACK
6
CONTINUOUS
10
1.1374
20
1.35213
11
1.1381
21
1.35184
0
LINE
8
BLACK
6
CONTINUOUS
10
1.1381
20
1.35184
11
1.13839
21
1.35114
0
LINE
8
BLACK
6
CONTINUOUS
10
1.13839
20
1.35114
11
1.13839
21
1.21886
0
LINE
8
BLACK
6
CONTINUOUS
10
1.13839
20
1.21886
11
1.1381
21
1.21816
0
LINE
8
BLACK
6
CONTINUOUS
10
1.1381
20
1.21816
11
1.1374
21
1.21787
0
LINE
8
BLACK
6
CONTINUOUS
10
1.1374
20
1.21787
11
1.0626
21
1.21787
0
LINE
8
BLACK
6
CONTINUOUS
10
1.0626
20
1.21787
11
1.0619
21
1.21816
0
LINE
8
BLACK
6
CONTINUOUS
10
1.0619
20
1.21816
11
1.06161
21
1.21886
0
LINE
8
BLACK
6
CONTINUOUS
10
1.06161
20
1.21886
11
1.06161
21
1.35114
0
LINE
8
BLACK
6
CONTINUOUS
10
1.06161
20
1.35114
11
1.0619
21
1.35184
0
LINE
8
BLACK
6
CONTINUOUS
10
1.0619
20
1.35184
11
1.0626
21
1.35213
0
LINE
8
BLACK
6
CONTINUOUS
10
1.0626
20
1.35213
11
1.1374
21
1.35213
0
LINE
8
BLACK
6
CONTINUOUS
10
1.06358
20
1.35016
11
1.06358
21
1.21984
0
LINE
8
BLACK
6
CONTINUOUS
10
1.06358
20
1.21984
11
1.13642
21
1.21984
0
LINE
8
BLACK
6
CONTINUOUS
10
1.13642
20
1.21984
11
1.13642
21
1.35016
0
LINE
8
BLACK
6
CONTINUOUS
10
1.13642
20
1.35016
11
1.06358
21
1.35016
0
LINE
8
BLACK
6
CONTINUOUS
10
1.74693
20
1.31957
11
1.74763
21
1.31928
0
LINE
8
BLACK
6
CONTINUOUS
10
1.74763
20
1.31928
11
1.74791
21
1.31858
0
LINE
8
BLACK
6
CONTINUOUS
10
1.74791
20
1.31858
11
1.74791
21
1.24142
0
LINE
8
BLACK
6
CONTINUOUS
10
1.74791
20
1.24142
11
1.74763
21
1.24072
0
LINE
8
BLACK
6
CONTINUOUS
10
1.74763
20
1.24072
11
1.74693
21
1.24043
0
LINE
8
BLACK
6
CONTINUOUS
10
1.74693
20
1.24043
11
1.61307
21
1.24043
0
LINE
8
BLACK
6
CONTINUOUS
10
1.61307
20
1.24043
11
1.61237
21
1.24072
0
LINE
8
BLACK
6
CONTINUOUS
10
1.61237
20
1.24072
11
1.61209
21
1.24142
0
LINE
8
BLACK
6
CONTINUOUS
10
1.61209
20
1.24142
11
1.61209
21
1.31858
0
LINE
8
BLACK
6
CONTINUOUS
10
1.61209
20
1.31858
11
1.61237
21
1.31928
0
LINE
8
BLACK
6
CONTINUOUS
10
1.61237
20
1.31928
11
1.61307
21
1.31957
0
LINE
8
BLACK
6
CONTINUOUS
10
1.61307
20
1.31957
11
1.74693
21
1.31957
0
LINE
8
BLACK
6
CONTINUOUS
10
1.61406
20
1.3176
11
1.61406
21
1.2424
0
LINE
8
BLACK
6
CONTINUOUS
10
1.61406
20
1.2424
11
1.74594
21
1.2424
0
LINE
8
BLACK
6
CONTINUOUS
10
1.74594
20
1.2424
11
1.74594
21
1.3176
0
LINE
8
BLACK
6
CONTINUOUS
10
1.74594
20
1.3176
11
1.61406
21
1.3176
0
LINE
8
BLACK
6
CONTINUOUS
10
1.87858
20
1.38291
11
1.87928
21
1.38263
0
LINE
8
BLACK
6
CONTINUOUS
10
1.87928
20
1.38263
11
1.87957
21
1.38193
0
LINE
8
BLACK
6
CONTINUOUS
10
1.87957
20
1.38193
11
1.87957
21
1.24807
0
LINE
8
BLACK
6
CONTINUOUS
10
1.87957
20
1.24807
11
1.87928
21
1.24737
0
LINE
8
BLACK
6
CONTINUOUS
10
1.87928
20
1.24737
11
1.87858
21
1.24709
0
LINE
8
BLACK
6
CONTINUOUS
10
1.87858
20
1.24709
11
1.80142
21
1.24709
0
LINE
8
BLACK
6
CONTINUOUS
10
1.80142
20
1.24709
11
1.80072
21
1.24737
0
LINE
8
BLACK
6
CONTINUOUS
10
1.80072
20
1.24737
11
1.80043
21
1.24807
0
LINE
8
BLACK
6
CONTINUOUS
10
1.80043
20
1.24807
11
1.80043
21
1.38193
0
LINE
8
BLACK
6
CONTINUOUS
10
1.80043
20
1.38193
11
1.80072
21
1.38263
0
LINE
8
BLACK
6
CONTINUOUS
10
1.80072
20
1.38263
11
1.80142
21
1.38291
0
LINE
8
BLACK
6
CONTINUOUS
10
1.80142
20
1.38291
11
1.87858
21
1.38291
0
LINE
8
BLACK
6
CONTINUOUS
10
1.8024
20
1.38094
11
1.8024
21
1.24906
0
LINE
8
BLACK
6
CONTINUOUS
10
1.8024
20
1.24906
11
1.8776
21
1.24906
0
LINE
8
BLACK
6
CONTINUOUS
10
1.8776
20
1.24906
11
1.8776
21
1.38094
0
LINE
8
BLACK
6
CONTINUOUS
10
1.8776
20
1.38094
11
1.8024
21
1.38094
0
LINE
8
BLACK
6
CONTINUOUS
10
1.77402
20
1.48382
11
1.77471
21
1.48353
0
LINE
8
BLACK
6
CONTINUOUS
10
1.77471
20
1.48353
11
1.775
21
1.48283
0
LINE
8
BLACK
6
CONTINUOUS
10
1.775
20
1.48283
11
1.775
21
1.33717
0
LINE
8
BLACK
6
CONTINUOUS
10
1.775
20
1.33717
11
1.77471
21
1.33647
0
LINE
8
BLACK
6
CONTINUOUS
10
1.77471
20
1.33647
11
1.77402
21
1.33618
0
LINE
8
BLACK
6
CONTINUOUS
10
1.77402
20
1.33618
11
1.52598
21
1.33618
0
LINE
8
BLACK
6
CONTINUOUS
10
1.52598
20
1.33618
11
1.52529
21
1.33647
0
LINE
8
BLACK
6
CONTINUOUS
10
1.52529
20
1.33647
11
1.525
21
1.33717
0
LINE
8
BLACK
6
CONTINUOUS
10
1.525
20
1.33717
11
1.525
21
1.48283
0
LINE
8
BLACK
6
CONTINUOUS
10
1.525
20
1.48283
11
1.52529
21
1.48353
0
LINE
8
BLACK
6
CONTINUOUS
10
1.52529
20
1.48353
11
1.52598
21
1.48382
0
LINE
8
BLACK
6
CONTINUOUS
10
1.52598
20
1.48382
11
1.77402
21
1.48382
0
LINE
8
BLACK
6
CONTINUOUS
10
1.52697
20
1.48185
11
1.52697
21
1.33815
0
LINE
8
BLACK
6
CONTINUOUS
10
1.52697
20
1.33815
11
1.77303
21
1.33815
0
LINE
8
BLACK
6
CONTINUOUS
10
1.77303
20
1.33815
11
1.77303
21
1.48185
0
LINE
8
BLACK
6
CONTINUOUS
10
1.77303
20
1.48185
11
1.52697
21
1.48185
0
LINE
8
BLACK
6
CONTINUOUS
10
1.37693
20
1.45457
11
1.37763
21
1.45428
0
LINE
8
BLACK
6
CONTINUOUS
10
1.37763
20
1.45428
11
1.37791
21
1.45358
0
LINE
8
BLACK
6
CONTINUOUS
10
1.37791
20
1.45358
11
1.37791
21
1.37642
0
LINE
8
BLACK
6
CONTINUOUS
10
1.37791
20
1.37642
11
1.37763
21
1.37572
0
LINE
8
BLACK
6
CONTINUOUS
10
1.37763
20
1.37572
11
1.37693
21
1.37543
0
LINE
8
BLACK
6
CONTINUOUS
10
1.37693
20
1.37543
11
1.24307
21
1.37543
0
LINE
8
BLACK
6
CONTINUOUS
10
1.24307
20
1.37543
11
1.24237
21
1.37572
0
LINE
8
BLACK
6
CONTINUOUS
10
1.24237
20
1.37572
11
1.24209
21
1.37642
0
LINE
8
BLACK
6
CONTINUOUS
10
1.24209
20
1.37642
11
1.24209
21
1.45358
0
LINE
8
BLACK
6
CONTINUOUS
10
1.24209
20
1.45358
11
1.24237
21
1.45428
0
LINE
8
BLACK
6
CONTINUOUS
10
1.24237
20
1.45428
11
1.24307
21
1.45457
0
LINE
8
BLACK
6
CONTINUOUS
10
1.24307
20
1.45457
11
1.37693
21
1.45457
0
LINE
8
BLACK
6
CONTINUOUS
10
1.24406
20
1.4526
11
1.24406
21
1.3774
0
LINE
8
BLACK
6
CONTINUOUS
10
1.24406
20
1.3774
11
1.37594
21
1.3774
0
LINE
8
BLACK
6
CONTINUOUS
10
1.37594
20
1.3774
11
1.37594
21
1.4526
0
LINE
8
BLACK
6
CONTINUOUS
10
1.37594
20
1.4526
11
1.24406
21
1.4526
0
LINE
8
BLACK
6
CONTINUOUS
10
1.14193
20
1.54157
11
1.14263
21
1.54129
0
LINE
8
BLACK
6
CONTINUOUS
10
1.14263
20
1.54129
11
1.14291
21
1.54059
0
LINE
8
BLACK
6
CONTINUOUS
10
1.14291
20
1.54059
11
1.14291
21
1.38941
0
LINE
8
BLACK
6
CONTINUOUS
10
1.14291
20
1.38941
11
1.14263
21
1.38871
0
LINE
8
BLACK
6
CONTINUOUS
10
1.14263
20
1.38871
11
1.14193
21
1.38843
0
LINE
8
BLACK
6
CONTINUOUS
10
1.14193
20
1.38843
11
1.00807
21
1.38843
0
LINE
8
BLACK
6
CONTINUOUS
10
1.00807
20
1.38843
11
1.00737
21
1.38871
0
LINE
8
BLACK
6
CONTINUOUS
10
1.00737
20
1.38871
11
1.00709
21
1.38941
0
LINE
8
BLACK
6
CONTINUOUS
10
1.00709
20
1.38941
11
1.00709
21
1.54059
0
LINE
8
BLACK
6
CONTINUOUS
10
1.00709
20
1.54059
11
1.00737
21
1.54129
0
LINE
8
BLACK
6
CONTINUOUS
10
1.00737
20
1.54129
11
1.00807
21
1.54157
0
LINE
8
BLACK
6
CONTINUOUS
10
1.00807
20
1.54157
11
1.14193
21
1.54157
0
LINE
8
BLACK
6
CONTINUOUS
10
1.00906
20
1.53961
11
1.00906
21
1.39039
0
LINE
8
BLACK
6
CONTINUOUS
10
1.00906
20
1.39039
11
1.14094
21
1.39039
0
LINE
8
BLACK
6
CONTINUOUS
10
1.14094
20
1.39039
11
1.14094
21
1.53961
0
LINE
8
BLACK
6
CONTINUOUS
10
1.14094
20
1.53961
11
1.00906
21
1.53961
0
LINE
8
BLACK
6
CONTINUOUS
10
0.993583
20
1.53291
11
0.994279
21
1.53263
0
LINE
8
BLACK
6
CONTINUOUS
10
0.994279
20
1.53263
11
0.994567
21
1.53193
0
LINE
8
BLACK
6
CONTINUOUS
10
0.994567
20
1.53193
11
0.994567
21
1.39807
0
LINE
8
BLACK
6
CONTINUOUS
10
0.994567
20
1.39807
11
0.994279
21
1.39737
0
LINE
8
BLACK
6
CONTINUOUS
10
0.994279
20
1.39737
11
0.993583
21
1.39709
0
LINE
8
BLACK
6
CONTINUOUS
10
0.993583
20
1.39709
11
0.916417
21
1.39709
0
LINE
8
BLACK
6
CONTINUOUS
10
0.916417
20
1.39709
11
0.915721
21
1.39737
0
LINE
8
BLACK
6
CONTINUOUS
10
0.915721
20
1.39737
11
0.915433
21
1.39807
0
LINE
8
BLACK
6
CONTINUOUS
10
0.915433
20
1.39807
11
0.915433
21
1.39807
0
LINE
8
BLACK
6
CONTINUOUS
10
0.915433
20
1.39807
11
0.915433
21
1.53193
0
LINE
8
BLACK
6
CONTINUOUS
10
0.915433
20
1.53193
11
0.915721
21
1.53263
0
LINE
8
BLACK
6
CONTINUOUS
10
0.915721
20
1.53263
11
0.916417
21
1.53291
0
LINE
8
BLACK
6
CONTINUOUS
10
0.916417
20
1.53291
11
0.993583
21
1.53291
0
LINE
8
BLACK
6
CONTINUOUS
10
0.917402
20
1.53094
11
0.917402
21
1.39906
0
LINE
8
BLACK
6
CONTINUOUS
10
0.917402
20
1.39906
11
0.992598
21
1.39906
0
LINE
8
BLACK
6
CONTINUOUS
10
0.992598
20
1.39906
11
0.992598
21
1.53094
0
LINE
8
BLACK
6
CONTINUOUS
10
0.992598
20
1.53094
11
0.917402
21
1.53094
0
LINE
8
BLACK
6
CONTINUOUS
10
1.99646
20
1.59744
11
1.99715
21
1.59715
0
LINE
8
BLACK
6
CONTINUOUS
10
1.99715
20
1.59715
11
1.99744
21
1.59646
0
LINE
8
BLACK
6
CONTINUOUS
10
1.99744
20
1.59646
11
1.99744
21
0.403543
0
LINE
8
BLACK
6
CONTINUOUS
10
1.99744
20
0.403543
11
1.99715
21
0.402847
0
LINE
8
BLACK
6
CONTINUOUS
10
1.99715
20
0.402847
11
1.99646
21
0.402559
0
LINE
8
BLACK
6
CONTINUOUS
10
1.99646
20
0.402559
11
0.803543
21
0.402559
0
LINE
8
BLACK
6
CONTINUOUS
10
0.803543
20
0.402559
11
0.802847
21
0.402847
0
LINE
8
BLACK
6
CONTINUOUS
10
0.802847
20
0.402847
11
0.802559
21
0.403543
0
LINE
8
BLACK
6
CONTINUOUS
10
0.802559
20
0.403543
11
0.802559
21
1.59646
0
LINE
8
BLACK
6
CONTINUOUS
10
0.802559
20
1.59646
11
0.802847
21
1.59715
0
LINE
8
BLACK
6
CONTINUOUS
10
0.802847
20
1.59715
11
0.803543
21
1.59744
0
LINE
8
BLACK
6
CONTINUOUS
10
0.803543
20
1.59744
11
1.99646
21
1.59744
0
LINE
8
BLACK
6
CONTINUOUS
10
0.804528
20
1.59547
11
0.804528
21
0.404528
0
LINE
8
BLACK
6
CONTINUOUS
10
0.804528
20
0.404528
11
1.99547
21
0.404528
0
LINE
8
BLACK
6
CONTINUOUS
10
1.99547
20
0.404528
11
1.99547
21
1.59547
0
LINE
8
BLACK
6
CONTINUOUS
10
1.99547
20
1.59547
11
0.804528
21
1.59547
0
LINE
8
BLACK
6
CONTINUOUS
10
2.05551
20
1.6565
11
2.05621
21
1.65621
0
LINE
8
BLACK
6
CONTINUOUS
10
2.05621
20
1.65621
11
2.0565
21
1.65551
0
LINE
8
BLACK
6
CONTINUOUS
10
2.0565
20
1.65551
11
2.0565
21
0.344488
0
LINE
8
BLACK
6
CONTINUOUS
10
2.0565
20
0.344488
11
2.05621
21
0.343792
0
LINE
8
BLACK
6
CONTINUOUS
10
2.05621
20
0.343792
11
2.05551
21
0.343504
0
LINE
8
BLACK
6
CONTINUOUS
10
2.05551
20
0.343504
11
0.744488
21
0.343504
0
LINE
8
BLACK
6
CONTINUOUS
10
0.744488
20
0.343504
11
0.743792
21
0.343792
0
LINE
8
BLACK
6
CONTINUOUS
10
0.743792
20
0.343792
11
0.743504
21
0.344488
0
LINE
8
BLACK
6
CONTINUOUS
10
0.743504
20
0.344488
11
0.743504
21
1.65551
0
LINE
8
BLACK
6
CONTINUOUS
10
0.743504
20
1.65551
11
0.743792
21
1.65621
0
LINE
8
BLACK
6
CONTINUOUS
10
0.743792
20
1.65621
11
0.744488
21
1.6565
0
LINE
8
BLACK
6
CONTINUOUS
10
0.744488
20
1.6565
11
2.05551
21
1.6565
0
LINE
8
BLACK
6
CONTINUOUS
10
0.745472
20
1.65453
11
0.745472
21
0.345472
0
LINE
8
BLACK
6
CONTINUOUS
10
0.745472
20
0.345472
11
2.05453
21
0.345472
0
LINE
8
BLACK
6
CONTINUOUS
10
2.05453
20
0.345472
11
2.05453
21
1.65453
0
LINE
8
BLACK
6
CONTINUOUS
10
2.05453
20
1.65453
11
0.745472
21
1.65453
0
LINE
8
BLACK
6
CONTINUOUS
10
2.2289
20
0.63878
11
2.22959
21
0.638491
0
LINE
8
BLACK
6
CONTINUOUS
10
2.22959
20
0.638491
11
2.22988
21
0.637795
0
LINE
8
BLACK
6
CONTINUOUS
10
2.22988
20
0.637795
11
2.22988
21
0.362205
0
LINE
8
BLACK
6
CONTINUOUS
10
2.22988
20
0.362205
11
2.22959
21
0.361509
0
LINE
8
BLACK
6
CONTINUOUS
10
2.22959
20
0.361509
11
2.2289
21
0.36122
0
LINE
8
BLACK
6
CONTINUOUS
10
2.2289
20
0.36122
11
2.0911
21
0.36122
0
LINE
8
BLACK
6
CONTINUOUS
10
2.0911
20
0.36122
11
2.09041
21
0.361509
0
LINE
8
BLACK
6
CONTINUOUS
10
2.09041
20
0.361509
11
2.09012
21
0.362205
0
LINE
8
BLACK
6
CONTINUOUS
10
2.09012
20
0.362205
11
2.09012
21
0.637795
0
LINE
8
BLACK
6
CONTINUOUS
10
2.09012
20
0.637795
11
2.09041
21
0.638491
0
LINE
8
BLACK
6
CONTINUOUS
10
2.09041
20
0.638491
11
2.0911
21
0.63878
0
LINE
8
BLACK
6
CONTINUOUS
10
2.0911
20
0.63878
11
2.2289
21
0.63878
0
LINE
8
BLACK
6
CONTINUOUS
10
2.09209
20
0.636811
11
2.09209
21
0.363189
0
LINE
8
BLACK
6
CONTINUOUS
10
2.09209
20
0.363189
11
2.22791
21
0.363189
0
LINE
8
BLACK
6
CONTINUOUS
10
2.22791
20
0.363189
11
2.22791
21
0.636811
0
LINE
8
BLACK
6
CONTINUOUS
10
2.22791
20
0.636811
11
2.09209
21
0.636811
0
LINE
8
BLACK
6
CONTINUOUS
10
0.621339
20
0.741535
11
0.622035
21
0.741247
0
LINE
8
BLACK
6
CONTINUOUS
10
0.622035
20
0.741247
11
0.622323
21
0.740551
0
LINE
8
BLACK
6
CONTINUOUS
10
0.622323
20
0.740551
11
0.622323
21
0.559449
0
LINE
8
BLACK
6
CONTINUOUS
10
0.622323
20
0.559449
11
0.622035
21
0.558753
0
LINE
8
BLACK
6
CONTINUOUS
10
0.622035
20
0.558753
11
0.621339
21
0.558465
0
LINE
8
BLACK
6
CONTINUOUS
10
0.621339
20
0.558465
11
0.538661
21
0.558465
0
LINE
8
BLACK
6
CONTINUOUS
10
0.538661
20
0.558465
11
0.537965
21
0.558753
0
LINE
8
BLACK
6
CONTINUOUS
10
0.537965
20
0.558753
11
0.537677
21
0.559449
0
LINE
8
BLACK
6
CONTINUOUS
10
0.537677
20
0.559449
11
0.537677
21
0.740551
0
LINE
8
BLACK
6
CONTINUOUS
10
0.537677
20
0.740551
11
0.537965
21
0.741247
0
LINE
8
BLACK
6
CONTINUOUS
10
0.537965
20
0.741247
11
0.538661
21
0.741535
0
LINE
8
BLACK
6
CONTINUOUS
10
0.538661
20
0.741535
11
0.621339
21
0.741535
0
LINE
8
BLACK
6
CONTINUOUS
10
0.539646
20
0.739567
11
0.539646
21
0.560433
0
LINE
8
BLACK
6
CONTINUOUS
10
0.539646
20
0.560433
11
0.620354
21
0.560433
0
LINE
8
BLACK
6
CONTINUOUS
10
0.620354
20
0.560433
11
0.620354
21
0.739567
0
LINE
8
BLACK
6
CONTINUOUS
10
0.620354
20
0.739567
11
0.539646
21
0.739567
0
LINE
8
BLACK
6
CONTINUOUS
10
0.717402
20
0.727126
11
0.718098
21
0.726838
0
LINE
8
BLACK
6
CONTINUOUS
10
0.718098
20
0.726838
11
0.718386
21
0.726142
0
LINE
8
BLACK
6
CONTINUOUS
10
0.718386
20
0.726142
11
0.718386
21
0.593858
0
LINE
8
BLACK
6
CONTINUOUS
10
0.718386
20
0.593858
11
0.718098
21
0.593162
0
LINE
8
BLACK
6
CONTINUOUS
10
0.718098
20
0.593162
11
0.717402
21
0.592874
0
LINE
8
BLACK
6
CONTINUOUS
10
0.717402
20
0.592874
11
0.642598
21
0.592874
0
LINE
8
BLACK
6
CONTINUOUS
10
0.642598
20
0.592874
11
0.641902
21
0.593162
0
LINE
8
BLACK
6
CONTINUOUS
10
0.641902
20
0.593162
11
0.641614
21
0.593858
0
LINE
8
BLACK
6
CONTINUOUS
10
0.641614
20
0.593858
11
0.641614
21
0.726142
0
LINE
8
BLACK
6
CONTINUOUS
10
0.641614
20
0.726142
11
0.641902
21
0.726838
0
LINE
8
BLACK
6
CONTINUOUS
10
0.641902
20
0.726838
11
0.642598
21
0.727126
0
LINE
8
BLACK
6
CONTINUOUS
10
0.642598
20
0.727126
11
0.717402
21
0.727126
0
LINE
8
BLACK
6
CONTINUOUS
10
0.643583
20
0.725157
11
0.643583
21
0.594843
0
LINE
8
BLACK
6
CONTINUOUS
10
0.643583
20
0.594843
11
0.716417
21
0.594843
0
LINE
8
BLACK
6
CONTINUOUS
10
0.716417
20
0.594843
11
0.716417
21
0.725157
0
LINE
8
BLACK
6
CONTINUOUS
10
0.716417
20
0.725157
11
0.643583
21
0.725157
0
LINE
8
BLACK
6
CONTINUOUS
10
2.26693
20
0.729567
11
2.26763
21
0.729279
0
LINE
8
BLACK
6
CONTINUOUS
10
2.26763
20
0.729279
11
2.26791
21
0.728583
0
LINE
8
BLACK
6
CONTINUOUS
10
2.26791
20
0.728583
11
2.26791
21
0.651417
0
LINE
8
BLACK
6
CONTINUOUS
10
2.26791
20
0.651417
11
2.26763
21
0.650721
0
LINE
8
BLACK
6
CONTINUOUS
10
2.26763
20
0.650721
11
2.26693
21
0.650433
0
LINE
8
BLACK
6
CONTINUOUS
10
2.26693
20
0.650433
11
2.13307
21
0.650433
0
LINE
8
BLACK
6
CONTINUOUS
10
2.13307
20
0.650433
11
2.13237
21
0.650721
0
LINE
8
BLACK
6
CONTINUOUS
10
2.13237
20
0.650721
11
2.13209
21
0.651417
0
LINE
8
BLACK
6
CONTINUOUS
10
2.13209
20
0.651417
11
2.13209
21
0.728583
0
LINE
8
BLACK
6
CONTINUOUS
10
2.13209
20
0.728583
11
2.13237
21
0.729279
0
LINE
8
BLACK
6
CONTINUOUS
10
2.13237
20
0.729279
11
2.13307
21
0.729567
0
LINE
8
BLACK
6
CONTINUOUS
10
2.13307
20
0.729567
11
2.26693
21
0.729567
0
LINE
8
BLACK
6
CONTINUOUS
10
2.13406
20
0.727598
11
2.13406
21
0.652402
0
LINE
8
BLACK
6
CONTINUOUS
10
2.13406
20
0.652402
11
2.26594
21
0.652402
0
LINE
8
BLACK
6
CONTINUOUS
10
2.26594
20
0.652402
11
2.26594
21
0.727598
0
LINE
8
BLACK
6
CONTINUOUS
10
2.26594
20
0.727598
11
2.13406
21
0.727598
0
LINE
8
BLACK
6
CONTINUOUS
10
0.618583
20
0.887913
11
0.619279
21
0.887625
0
LINE
8
BLACK
6
CONTINUOUS
10
0.619279
20
0.887625
11
0.619567
21
0.886929
0
LINE
8
BLACK
6
CONTINUOUS
10
0.619567
20
0.886929
11
0.619567
21
0.753071
0
LINE
8
BLACK
6
CONTINUOUS
10
0.619567
20
0.753071
11
0.619279
21
0.752375
0
LINE
8
BLACK
6
CONTINUOUS
10
0.619279
20
0.752375
11
0.618583
21
0.752087
0
LINE
8
BLACK
6
CONTINUOUS
10
0.618583
20
0.752087
11
0.541417
21
0.752087
0
LINE
8
BLACK
6
CONTINUOUS
10
0.541417
20
0.752087
11
0.540721
21
0.752375
0
LINE
8
BLACK
6
CONTINUOUS
10
0.540721
20
0.752375
11
0.540433
21
0.753071
0
LINE
8
BLACK
6
CONTINUOUS
10
0.540433
20
0.753071
11
0.540433
21
0.753071
0
LINE
8
BLACK
6
CONTINUOUS
10
0.540433
20
0.753071
11
0.540433
21
0.886929
0
LINE
8
BLACK
6
CONTINUOUS
10
0.540433
20
0.886929
11
0.540721
21
0.887625
0
LINE
8
BLACK
6
CONTINUOUS
10
0.540721
20
0.887625
11
0.541417
21
0.887913
0
LINE
8
BLACK
6
CONTINUOUS
10
0.541417
20
0.887913
11
0.618583
21
0.887913
0
LINE
8
BLACK
6
CONTINUOUS
10
0.542402
20
0.885945
11
0.542402
21
0.754055
0
LINE
8
BLACK
6
CONTINUOUS
10
0.542402
20
0.754055
11
0.617598
21
0.754055
0
LINE
8
BLACK
6
CONTINUOUS
10
0.617598
20
0.754055
11
0.617598
21
0.885945
0
LINE
8
BLACK
6
CONTINUOUS
10
0.617598
20
0.885945
11
0.542402
21
0.885945
0
LINE
8
BLACK
6
CONTINUOUS
10
2.53283
20
1.24862
11
2.53353
21
1.24833
0
LINE
8
BLACK
6
CONTINUOUS
10
2.53353
20
1.24833
11
2.53382
21
1.24764
0
LINE
8
BLACK
6
CONTINUOUS
10
2.53382
20
1.24764
11
2.53382
21
0.952362
0
LINE
8
BLACK
6
CONTINUOUS
10
2.53382
20
0.952362
11
2.53353
21
0.951666
0
LINE
8
BLACK
6
CONTINUOUS
10
2.53353
20
0.951666
11
2.53283
21
0.951378
0
LINE
8
BLACK
6
CONTINUOUS
10
2.53283
20
0.951378
11
2.38717
21
0.951378
0
LINE
8
BLACK
6
CONTINUOUS
10
2.38717
20
0.951378
11
2.38647
21
0.951666
0
LINE
8
BLACK
6
CONTINUOUS
10
2.38647
20
0.951666
11
2.38618
21
0.952362
0
LINE
8
BLACK
6
CONTINUOUS
10
2.38618
20
0.952362
11
2.38618
21
1.24764
0
LINE
8
BLACK
6
CONTINUOUS
10
2.38618
20
1.24764
11
2.38647
21
1.24833
0
LINE
8
BLACK
6
CONTINUOUS
10
2.38647
20
1.24833
11
2.38717
21
1.24862
0
LINE
8
BLACK
6
CONTINUOUS
10
2.38717
20
1.24862
11
2.53283
21
1.24862
0
LINE
8
BLACK
6
CONTINUOUS
10
2.38815
20
1.24665
11
2.38815
21
0.953346
0
LINE
8
BLACK
6
CONTINUOUS
10
2.38815
20
0.953346
11
2.53185
21
0.953346
0
LINE
8
BLACK
6
CONTINUOUS
10
2.53185
20
0.953346
11
2.53185
21
1.24665
0
LINE
8
BLACK
6
CONTINUOUS
10
2.53185
20
1.24665
11
2.38815
21
1.24665
0
LINE
8
BLACK
6
CONTINUOUS
10
0.506142
20
1.03839
11
0.506838
21
1.0381
0
LINE
8
BLACK
6
CONTINUOUS
10
0.506838
20
1.0381
11
0.507126
21
1.0374
0
LINE
8
BLACK
6
CONTINUOUS
10
0.507126
20
1.0374
11
0.507126
21
0.962598
0
LINE
8
BLACK
6
CONTINUOUS
10
0.507126
20
0.962598
11
0.506838
21
0.961902
0
LINE
8
BLACK
6
CONTINUOUS
10
0.506838
20
0.961902
11
0.506142
21
0.961614
0
LINE
8
BLACK
6
CONTINUOUS
10
0.506142
20
0.961614
11
0.373858
21
0.961614
0
LINE
8
BLACK
6
CONTINUOUS
10
0.373858
20
0.961614
11
0.373162
21
0.961902
0
LINE
8
BLACK
6
CONTINUOUS
10
0.373162
20
0.961902
11
0.372874
21
0.962598
0
LINE
8
BLACK
6
CONTINUOUS
10
0.372874
20
0.962598
11
0.372874
21
0.962598
0
LINE
8
BLACK
6
CONTINUOUS
10
0.372874
20
0.962598
11
0.372874
21
1.0374
0
LINE
8
BLACK
6
CONTINUOUS
10
0.372874
20
1.0374
11
0.373162
21
1.0381
0
LINE
8
BLACK
6
CONTINUOUS
10
0.373162
20
1.0381
11
0.373858
21
1.03839
0
LINE
8
BLACK
6
CONTINUOUS
10
0.373858
20
1.03839
11
0.506142
21
1.03839
0
LINE
8
BLACK
6
CONTINUOUS
10
0.374843
20
1.03642
11
0.374843
21
0.963583
0
LINE
8
BLACK
6
CONTINUOUS
10
0.374843
20
0.963583
11
0.505157
21
0.963583
0
LINE
8
BLACK
6
CONTINUOUS
10
0.505157
20
0.963583
11
0.505157
21
1.03642
0
LINE
8
BLACK
6
CONTINUOUS
10
0.505157
20
1.03642
11
0.374843
21
1.03642
0
LINE
8
BLACK
6
CONTINUOUS
10
0.503465
20
1.17988
11
0.504161
21
1.17959
0
LINE
8
BLACK
6
CONTINUOUS
10
0.504161
20
1.17959
11
0.504449
21
1.1789
0
LINE
8
BLACK
6
CONTINUOUS
10
0.504449
20
1.1789
11
0.504449
21
1.0411
0
LINE
8
BLACK
6
CONTINUOUS
10
0.504449
20
1.0411
11
0.504161
21
1.04041
0
LINE
8
BLACK
6
CONTINUOUS
10
0.504161
20
1.04041
11
0.503465
21
1.04012
0
LINE
8
BLACK
6
CONTINUOUS
10
0.503465
20
1.04012
11
0.436535
21
1.04012
0
LINE
8
BLACK
6
CONTINUOUS
10
0.436535
20
1.04012
11
0.435839
21
1.04041
0
LINE
8
BLACK
6
CONTINUOUS
10
0.435839
20
1.04041
11
0.435551
21
1.0411
0
LINE
8
BLACK
6
CONTINUOUS
10
0.435551
20
1.0411
11
0.435551
21
1.1789
0
LINE
8
BLACK
6
CONTINUOUS
10
0.435551
20
1.1789
11
0.435839
21
1.17959
0
LINE
8
BLACK
6
CONTINUOUS
10
0.435839
20
1.17959
11
0.436535
21
1.17988
0
LINE
8
BLACK
6
CONTINUOUS
10
0.436535
20
1.17988
11
0.503465
21
1.17988
0
LINE
8
BLACK
6
CONTINUOUS
10
0.43752
20
1.17791
11
0.43752
21
1.04209
0
LINE
8
BLACK
6
CONTINUOUS
10
0.43752
20
1.04209
11
0.50248
21
1.04209
0
LINE
8
BLACK
6
CONTINUOUS
10
0.50248
20
1.04209
11
0.50248
21
1.17791
0
LINE
8
BLACK
6
CONTINUOUS
10
0.50248
20
1.17791
11
0.43752
21
1.17791
0
LINE
8
BLACK
6
CONTINUOUS
10
0.716929
20
1.27457
11
0.717625
21
1.27428
0
LINE
8
BLACK
6
CONTINUOUS
10
0.717625
20
1.27428
11
0.717913
21
1.27358
0
LINE
8
BLACK
6
CONTINUOUS
10
0.717913
20
1.27358
11
0.717913
21
1.19642
0
LINE
8
BLACK
6
CONTINUOUS
10
0.717913
20
1.19642
11
0.717625
21
1.19572
0
LINE
8
BLACK
6
CONTINUOUS
10
0.717625
20
1.19572
11
0.716929
21
1.19543
0
LINE
8
BLACK
6
CONTINUOUS
10
0.716929
20
1.19543
11
0.583071
21
1.19543
0
LINE
8
BLACK
6
CONTINUOUS
10
0.583071
20
1.19543
11
0.582375
21
1.19572
0
LINE
8
BLACK
6
CONTINUOUS
10
0.582375
20
1.19572
11
0.582087
21
1.19642
0
LINE
8
BLACK
6
CONTINUOUS
10
0.582087
20
1.19642
11
0.582087
21
1.27358
0
LINE
8
BLACK
6
CONTINUOUS
10
0.582087
20
1.27358
11
0.582375
21
1.27428
0
LINE
8
BLACK
6
CONTINUOUS
10
0.582375
20
1.27428
11
0.583071
21
1.27457
0
LINE
8
BLACK
6
CONTINUOUS
10
0.583071
20
1.27457
11
0.716929
21
1.27457
0
LINE
8
BLACK
6
CONTINUOUS
10
0.584055
20
1.2726
11
0.584055
21
1.1974
0
LINE
8
BLACK
6
CONTINUOUS
10
0.584055
20
1.1974
11
0.715945
21
1.1974
0
LINE
8
BLACK
6
CONTINUOUS
10
0.715945
20
1.1974
11
0.715945
21
1.2726
0
LINE
8
BLACK
6
CONTINUOUS
10
0.715945
20
1.2726
11
0.584055
21
1.2726
0
LINE
8
BLACK
6
CONTINUOUS
10
2.18872
20
1.76203
11
2.19717
21
1.75977
0
LINE
8
BLACK
6
CONTINUOUS
10
2.19717
20
1.75977
11
2.2051
21
1.75607
0
LINE
8
BLACK
6
CONTINUOUS
10
2.2051
20
1.75607
11
2.21227
21
1.75105
0
LINE
8
BLACK
6
CONTINUOUS
10
2.21227
20
1.75105
11
2.21845
21
1.74486
0
LINE
8
BLACK
6
CONTINUOUS
10
2.21845
20
1.74486
11
2.22347
21
1.7377
0
LINE
8
BLACK
6
CONTINUOUS
10
2.22347
20
1.7377
11
2.22717
21
1.72977
0
LINE
8
BLACK
6
CONTINUOUS
10
2.22717
20
1.72977
11
2.22943
21
1.72131
0
LINE
8
BLACK
6
CONTINUOUS
10
2.22943
20
1.72131
11
2.2302
21
1.7126
0
LINE
8
BLACK
6
CONTINUOUS
10
2.2302
20
1.7126
11
2.22943
21
1.70388
0
LINE
8
BLACK
6
CONTINUOUS
10
2.22943
20
1.70388
11
2.22717
21
1.69543
0
LINE
8
BLACK
6
CONTINUOUS
10
2.22717
20
1.69543
11
2.22347
21
1.6875
0
LINE
8
BLACK
6
CONTINUOUS
10
2.22347
20
1.6875
11
2.21845
21
1.68033
0
LINE
8
BLACK
6
CONTINUOUS
10
2.21845
20
1.68033
11
2.21227
21
1.67415
0
LINE
8
BLACK
6
CONTINUOUS
10
2.21227
20
1.67415
11
2.2051
21
1.66913
0
LINE
8
BLACK
6
CONTINUOUS
10
2.2051
20
1.66913
11
2.19717
21
1.66543
0
LINE
8
BLACK
6
CONTINUOUS
10
2.19717
20
1.66543
11
2.18872
21
1.66316
0
LINE
8
BLACK
6
CONTINUOUS
10
2.18872
20
1.66316
11
2.18
21
1.6624
0
LINE
8
BLACK
6
CONTINUOUS
10
2.18
20
1.6624
11
2.17128
21
1.66316
0
LINE
8
BLACK
6
CONTINUOUS
10
2.17128
20
1.66316
11
2.16283
21
1.66543
0
LINE
8
BLACK
6
CONTINUOUS
10
2.16283
20
1.66543
11
2.1549
21
1.66913
0
LINE
8
BLACK
6
CONTINUOUS
10
2.1549
20
1.66913
11
2.14773
21
1.67415
0
LINE
8
BLACK
6
CONTINUOUS
10
2.14773
20
1.67415
11
2.14155
21
1.68033
0
LINE
8
BLACK
6
CONTINUOUS
10
2.14155
20
1.68033
11
2.13653
21
1.6875
0
LINE
8
BLACK
6
CONTINUOUS
10
2.13653
20
1.6875
11
2.13283
21
1.69543
0
LINE
8
BLACK
6
CONTINUOUS
10
2.13283
20
1.69543
11
2.13057
21
1.70388
0
LINE
8
BLACK
6
CONTINUOUS
10
2.13057
20
1.70388
11
2.1298
21
1.7126
0
LINE
8
BLACK
6
CONTINUOUS
10
2.1298
20
1.7126
11
2.13057
21
1.72131
0
LINE
8
BLACK
6
CONTINUOUS
10
2.13057
20
1.72131
11
2.13283
21
1.72977
0
LINE
8
BLACK
6
CONTINUOUS
10
2.13283
20
1.72977
11
2.13653
21
1.7377
0
LINE
8
BLACK
6
CONTINUOUS
10
2.13653
20
1.7377
11
2.14155
21
1.74486
0
LINE
8
BLACK
6
CONTINUOUS
10
2.14155
20
1.74486
11
2.14773
21
1.75105
0
LINE
8
BLACK
6
CONTINUOUS
10
2.14773
20
1.75105
11
2.1549
21
1.75607
0
LINE
8
BLACK
6
CONTINUOUS
10
2.1549
20
1.75607
11
2.16283
21
1.75977
0
LINE
8
BLACK
6
CONTINUOUS
10
2.16283
20
1.75977
11
2.17128
21
1.76203
0
LINE
8
BLACK
6
CONTINUOUS
10
2.17128
20
1.76203
11
2.18
21
1.7628
0
LINE
8
BLACK
6
CONTINUOUS
10
2.18
20
1.7628
11
2.18872
21
1.76203
0
LINE
8
BLACK
6
CONTINUOUS
10
2.13232
20
1.70419
11
2.13451
21
1.69604
0
LINE
8
BLACK
6
CONTINUOUS
10
2.13451
20
1.69604
11
2.13807
21
1.68839
0
LINE
8
BLACK
6
CONTINUOUS
10
2.13807
20
1.68839
11
2.14291
21
1.68148
0
LINE
8
BLACK
6
CONTINUOUS
10
2.14291
20
1.68148
11
2.14888
21
1.67551
0
LINE
8
BLACK
6
CONTINUOUS
10
2.14888
20
1.67551
11
2.15579
21
1.67067
0
LINE
8
BLACK
6
CONTINUOUS
10
2.15579
20
1.67067
11
2.16344
21
1.66711
0
LINE
8
BLACK
6
CONTINUOUS
10
2.16344
20
1.66711
11
2.17159
21
1.66492
0
LINE
8
BLACK
6
CONTINUOUS
10
2.17159
20
1.66492
11
2.18
21
1.66419
0
LINE
8
BLACK
6
CONTINUOUS
10
2.18
20
1.66419
11
2.18841
21
1.66492
0
LINE
8
BLACK
6
CONTINUOUS
10
2.18841
20
1.66492
11
2.19656
21
1.66711
0
LINE
8
BLACK
6
CONTINUOUS
10
2.19656
20
1.66711
11
2.20421
21
1.67067
0
LINE
8
BLACK
6
CONTINUOUS
10
2.20421
20
1.67067
11
2.21112
21
1.67551
0
LINE
8
BLACK
6
CONTINUOUS
10
2.21112
20
1.67551
11
2.21709
21
1.68148
0
LINE
8
BLACK
6
CONTINUOUS
10
2.21709
20
1.68148
11
2.22193
21
1.68839
0
LINE
8
BLACK
6
CONTINUOUS
10
2.22193
20
1.68839
11
2.22549
21
1.69604
0
LINE
8
BLACK
6
CONTINUOUS
10
2.22549
20
1.69604
11
2.22768
21
1.70419
0
LINE
8
BLACK
6
CONTINUOUS
10
2.22768
20
1.70419
11
2.22841
21
1.7126
0
LINE
8
BLACK
6
CONTINUOUS
10
2.22841
20
1.7126
11
2.22768
21
1.72101
0
LINE
8
BLACK
6
CONTINUOUS
10
2.22768
20
1.72101
11
2.22549
21
1.72916
0
LINE
8
BLACK
6
CONTINUOUS
10
2.22549
20
1.72916
11
2.22193
21
1.7368
0
LINE
8
BLACK
6
CONTINUOUS
10
2.22193
20
1.7368
11
2.21709
21
1.74372
0
LINE
8
BLACK
6
CONTINUOUS
10
2.21709
20
1.74372
11
2.21112
21
1.74968
0
LINE
8
BLACK
6
CONTINUOUS
10
2.21112
20
1.74968
11
2.20421
21
1.75452
0
LINE
8
BLACK
6
CONTINUOUS
10
2.20421
20
1.75452
11
2.19656
21
1.75809
0
LINE
8
BLACK
6
CONTINUOUS
10
2.19656
20
1.75809
11
2.18841
21
1.76028
0
LINE
8
BLACK
6
CONTINUOUS
10
2.18841
20
1.76028
11
2.18
21
1.76101
0
LINE
8
BLACK
6
CONTINUOUS
10
2.18
20
1.76101
11
2.17159
21
1.76028
0
LINE
8
BLACK
6
CONTINUOUS
10
2.17159
20
1.76028
11
2.16344
21
1.75809
0
LINE
8
BLACK
6
CONTINUOUS
10
2.16344
20
1.75809
11
2.15579
21
1.75452
0
LINE
8
BLACK
6
CONTINUOUS
10
2.15579
20
1.75452
11
2.14888
21
1.74968
0
LINE
8
BLACK
6
CONTINUOUS
10
2.14888
20
1.74968
11
2.14291
21
1.74372
0
LINE
8
BLACK
6
CONTINUOUS
10
2.14291
20
1.74372
11
2.13807
21
1.7368
0
LINE
8
BLACK
6
CONTINUOUS
10
2.13807
20
1.7368
11
2.13451
21
1.72916
0
LINE
8
BLACK
6
CONTINUOUS
10
2.13451
20
1.72916
11
2.13232
21
1.72101
0
LINE
8
BLACK
6
CONTINUOUS
10
2.13232
20
1.72101
11
2.13159
21
1.7126
0
LINE
8
BLACK
6
CONTINUOUS
10
2.13159
20
1.7126
11
2.13232
21
1.70419
  0
ENDSEC
  0
EOF
