  0
SECTION
  2
HEADER
  9
$ANGBASE
  50
0.0
  9
$ANGDIR
  70
1
  9
$MEASUREMENT
  70
0
  0
ENDSEC
  0
SECTION
  2
TABLES
  0
TABLE
  2
LTYPE
  70
4
  0
LTYPE
  5
40F
  2
CONTINUOUS
  70
0
  3
Solid line
  72
65
  73
0
  40
0.0
  0
LTYPE
  5
410
  2
DASHDOT
 70
0
  3
Dash Dot ____ _ ____ _
 72
65
 73
4
 40
2.0
 49
1.25
 49
-0.25
 49
0.25
 49
-0.25
  0
LTYPE
  5
411
  2
DASHED
 70
0
  3
Dashed __ __ __ __ __
 72
65
 73
2
 40
0.75
 49
0.5
 49
-0.25
  0
LTYPE
  5
43B
  2
DOTTED
 70
0
  3
Dotted .  .  .  .
 72
65
 73
2
 40
0.2
 49
0.0
 49
-0.2
  0
ENDTAB
  0
TABLE
  2
STYLE
  70
4
  0
STYLE
  2
KICAD
  70
0
  40
0
  41
1
  42
1
  50
0
  71
0
  3
isocp.shx
  0
STYLE
  2
KICADB
  70
0
  40
0
  41
1
  42
1
  50
0
  71
0
  3
isocp.shx
  0
STYLE
  2
KICADI
  70
0
  40
0
  41
1
  42
1
  50
15
  71
0
  3
isocp.shx
  0
STYLE
  2
KICADBI
  70
0
  40
0
  41
1
  42
1
  50
15
  71
0
  3
isocp.shx
  0
ENDTAB
  0
TABLE
  2
LAYER
  70
1
  0
LAYER
  2
BLACK
  70
0
  62
7
  6
CONTINUOUS
  0
ENDTAB
  0
ENDSEC
  0
SECTION
  2
ENTITIES
0
LINE
8
BLACK
6
CONTINUOUS
10
1.29
20
-0.34
11
1.23
21
-0.34
0
LINE
8
BLACK
6
CONTINUOUS
10
1.23
20
-0.34
11
1.23
21
-0.28
0
LINE
8
BLACK
6
CONTINUOUS
10
1.23
20
-0.28
11
1.29
21
-0.28
0
LINE
8
BLACK
6
CONTINUOUS
10
1.29
20
-0.28
11
1.29
21
-0.34
0
LINE
8
BLACK
6
CONTINUOUS
10
1.39
20
-0.34
11
1.33
21
-0.34
0
LINE
8
BLACK
6
CONTINUOUS
10
1.33
20
-0.34
11
1.33
21
-0.28
0
LINE
8
BLACK
6
CONTINUOUS
10
1.33
20
-0.28
11
1.39
21
-0.28
0
LINE
8
BLACK
6
CONTINUOUS
10
1.39
20
-0.28
11
1.39
21
-0.34
0
LINE
8
BLACK
6
CONTINUOUS
10
1.29
20
-0.24
11
1.23
21
-0.24
0
LINE
8
BLACK
6
CONTINUOUS
10
1.23
20
-0.24
11
1.23
21
-0.18
0
LINE
8
BLACK
6
CONTINUOUS
10
1.23
20
-0.18
11
1.29
21
-0.18
0
LINE
8
BLACK
6
CONTINUOUS
10
1.29
20
-0.18
11
1.29
21
-0.24
0
LINE
8
BLACK
6
CONTINUOUS
10
1.39
20
-0.24
11
1.33
21
-0.24
0
LINE
8
BLACK
6
CONTINUOUS
10
1.33
20
-0.24
11
1.33
21
-0.18
0
LINE
8
BLACK
6
CONTINUOUS
10
1.33
20
-0.18
11
1.39
21
-0.18
0
LINE
8
BLACK
6
CONTINUOUS
10
1.39
20
-0.18
11
1.39
21
-0.24
0
LINE
8
BLACK
6
CONTINUOUS
10
0.12
20
0.39
11
0.06
21
0.39
0
LINE
8
BLACK
6
CONTINUOUS
10
0.06
20
0.39
11
0.06
21
0.45
0
LINE
8
BLACK
6
CONTINUOUS
10
0.06
20
0.45
11
0.12
21
0.45
0
LINE
8
BLACK
6
CONTINUOUS
10
0.12
20
0.45
11
0.12
21
0.39
0
LINE
8
BLACK
6
CONTINUOUS
10
0.22
20
0.39
11
0.16
21
0.39
0
LINE
8
BLACK
6
CONTINUOUS
10
0.16
20
0.39
11
0.16
21
0.45
0
LINE
8
BLACK
6
CONTINUOUS
10
0.16
20
0.45
11
0.22
21
0.45
0
LINE
8
BLACK
6
CONTINUOUS
10
0.22
20
0.45
11
0.22
21
0.39
0
LINE
8
BLACK
6
CONTINUOUS
10
0.12
20
0.49
11
0.06
21
0.49
0
LINE
8
BLACK
6
CONTINUOUS
10
0.06
20
0.49
11
0.06
21
0.55
0
LINE
8
BLACK
6
CONTINUOUS
10
0.06
20
0.55
11
0.12
21
0.55
0
LINE
8
BLACK
6
CONTINUOUS
10
0.12
20
0.55
11
0.12
21
0.49
0
LINE
8
BLACK
6
CONTINUOUS
10
0.22
20
0.49
11
0.16
21
0.49
0
LINE
8
BLACK
6
CONTINUOUS
10
0.16
20
0.49
11
0.16
21
0.55
0
LINE
8
BLACK
6
CONTINUOUS
10
0.16
20
0.55
11
0.22
21
0.55
0
LINE
8
BLACK
6
CONTINUOUS
10
0.22
20
0.55
11
0.22
21
0.49
0
LINE
8
BLACK
6
CONTINUOUS
10
1.85
20
0.53
11
1.79
21
0.53
0
LINE
8
BLACK
6
CONTINUOUS
10
1.79
20
0.53
11
1.79
21
0.59
0
LINE
8
BLACK
6
CONTINUOUS
10
1.79
20
0.59
11
1.85
21
0.59
0
LINE
8
BLACK
6
CONTINUOUS
10
1.85
20
0.59
11
1.85
21
0.53
0
LINE
8
BLACK
6
CONTINUOUS
10
1.95
20
0.53
11
1.89
21
0.53
0
LINE
8
BLACK
6
CONTINUOUS
10
1.89
20
0.53
11
1.89
21
0.59
0
LINE
8
BLACK
6
CONTINUOUS
10
1.89
20
0.59
11
1.95
21
0.59
0
LINE
8
BLACK
6
CONTINUOUS
10
1.95
20
0.59
11
1.95
21
0.53
0
LINE
8
BLACK
6
CONTINUOUS
10
0.12
20
0.59
11
0.06
21
0.59
0
LINE
8
BLACK
6
CONTINUOUS
10
0.06
20
0.59
11
0.06
21
0.65
0
LINE
8
BLACK
6
CONTINUOUS
10
0.06
20
0.65
11
0.12
21
0.65
0
LINE
8
BLACK
6
CONTINUOUS
10
0.12
20
0.65
11
0.12
21
0.59
0
LINE
8
BLACK
6
CONTINUOUS
10
0.22
20
0.59
11
0.16
21
0.59
0
LINE
8
BLACK
6
CONTINUOUS
10
0.16
20
0.59
11
0.16
21
0.65
0
LINE
8
BLACK
6
CONTINUOUS
10
0.16
20
0.65
11
0.22
21
0.65
0
LINE
8
BLACK
6
CONTINUOUS
10
0.22
20
0.65
11
0.22
21
0.59
0
LINE
8
BLACK
6
CONTINUOUS
10
1.46
20
0.67
11
1.4
21
0.67
0
LINE
8
BLACK
6
CONTINUOUS
10
1.4
20
0.67
11
1.4
21
0.73
0
LINE
8
BLACK
6
CONTINUOUS
10
1.4
20
0.73
11
1.46
21
0.73
0
LINE
8
BLACK
6
CONTINUOUS
10
1.46
20
0.73
11
1.46
21
0.67
0
LINE
8
BLACK
6
CONTINUOUS
10
1.56
20
0.67
11
1.5
21
0.67
0
LINE
8
BLACK
6
CONTINUOUS
10
1.5
20
0.67
11
1.5
21
0.73
0
LINE
8
BLACK
6
CONTINUOUS
10
1.5
20
0.73
11
1.56
21
0.73
0
LINE
8
BLACK
6
CONTINUOUS
10
1.56
20
0.73
11
1.56
21
0.67
0
LINE
8
BLACK
6
CONTINUOUS
10
0.12
20
0.69
11
0.06
21
0.69
0
LINE
8
BLACK
6
CONTINUOUS
10
0.06
20
0.69
11
0.06
21
0.75
0
LINE
8
BLACK
6
CONTINUOUS
10
0.06
20
0.75
11
0.12
21
0.75
0
LINE
8
BLACK
6
CONTINUOUS
10
0.12
20
0.75
11
0.12
21
0.69
0
LINE
8
BLACK
6
CONTINUOUS
10
0.22
20
0.69
11
0.16
21
0.69
0
LINE
8
BLACK
6
CONTINUOUS
10
0.16
20
0.69
11
0.16
21
0.75
0
LINE
8
BLACK
6
CONTINUOUS
10
0.16
20
0.75
11
0.22
21
0.75
0
LINE
8
BLACK
6
CONTINUOUS
10
0.22
20
0.75
11
0.22
21
0.69
0
LINE
8
BLACK
6
CONTINUOUS
10
1.8
20
0.79
11
1.74
21
0.79
0
LINE
8
BLACK
6
CONTINUOUS
10
1.74
20
0.79
11
1.74
21
0.85
0
LINE
8
BLACK
6
CONTINUOUS
10
1.74
20
0.85
11
1.8
21
0.85
0
LINE
8
BLACK
6
CONTINUOUS
10
1.8
20
0.85
11
1.8
21
0.79
0
LINE
8
BLACK
6
CONTINUOUS
10
1.9
20
0.79
11
1.84
21
0.79
0
LINE
8
BLACK
6
CONTINUOUS
10
1.84
20
0.79
11
1.84
21
0.85
0
LINE
8
BLACK
6
CONTINUOUS
10
1.84
20
0.85
11
1.9
21
0.85
0
LINE
8
BLACK
6
CONTINUOUS
10
1.9
20
0.85
11
1.9
21
0.79
0
LINE
8
BLACK
6
CONTINUOUS
10
1.8
20
0.89
11
1.74
21
0.89
0
LINE
8
BLACK
6
CONTINUOUS
10
1.74
20
0.89
11
1.74
21
0.95
0
LINE
8
BLACK
6
CONTINUOUS
10
1.74
20
0.95
11
1.8
21
0.95
0
LINE
8
BLACK
6
CONTINUOUS
10
1.8
20
0.95
11
1.8
21
0.89
0
LINE
8
BLACK
6
CONTINUOUS
10
1.9
20
0.89
11
1.84
21
0.89
0
LINE
8
BLACK
6
CONTINUOUS
10
1.84
20
0.89
11
1.84
21
0.95
0
LINE
8
BLACK
6
CONTINUOUS
10
1.84
20
0.95
11
1.9
21
0.95
0
LINE
8
BLACK
6
CONTINUOUS
10
1.9
20
0.95
11
1.9
21
0.89
0
LINE
8
BLACK
6
CONTINUOUS
10
0.282121
20
0.997601
11
0.289742
21
0.994648
0
LINE
8
BLACK
6
CONTINUOUS
10
0.289742
20
0.994648
11
0.296691
21
0.990345
0
LINE
8
BLACK
6
CONTINUOUS
10
0.296691
20
0.990345
11
0.302732
21
0.984839
0
LINE
8
BLACK
6
CONTINUOUS
10
0.302732
20
0.984839
11
0.307657
21
0.978316
0
LINE
8
BLACK
6
CONTINUOUS
10
0.307657
20
0.978316
11
0.3113
21
0.971
0
LINE
8
BLACK
6
CONTINUOUS
10
0.3113
20
0.971
11
0.313537
21
0.963139
0
LINE
8
BLACK
6
CONTINUOUS
10
0.313537
20
0.963139
11
0.314291
21
0.955
0
LINE
8
BLACK
6
CONTINUOUS
10
0.314291
20
0.955
11
0.313537
21
0.946861
0
LINE
8
BLACK
6
CONTINUOUS
10
0.313537
20
0.946861
11
0.3113
21
0.939
0
LINE
8
BLACK
6
CONTINUOUS
10
0.3113
20
0.939
11
0.307657
21
0.931684
0
LINE
8
BLACK
6
CONTINUOUS
10
0.307657
20
0.931684
11
0.302732
21
0.925161
0
LINE
8
BLACK
6
CONTINUOUS
10
0.302732
20
0.925161
11
0.296691
21
0.919655
0
LINE
8
BLACK
6
CONTINUOUS
10
0.296691
20
0.919655
11
0.289742
21
0.915352
0
LINE
8
BLACK
6
CONTINUOUS
10
0.289742
20
0.915352
11
0.282121
21
0.912399
0
LINE
8
BLACK
6
CONTINUOUS
10
0.282121
20
0.912399
11
0.274087
21
0.910898
0
LINE
8
BLACK
6
CONTINUOUS
10
0.274087
20
0.910898
11
0.265913
21
0.910898
0
LINE
8
BLACK
6
CONTINUOUS
10
0.265913
20
0.910898
11
0.257879
21
0.912399
0
LINE
8
BLACK
6
CONTINUOUS
10
0.257879
20
0.912399
11
0.250258
21
0.915352
0
LINE
8
BLACK
6
CONTINUOUS
10
0.250258
20
0.915352
11
0.243309
21
0.919655
0
LINE
8
BLACK
6
CONTINUOUS
10
0.243309
20
0.919655
11
0.237268
21
0.925161
0
LINE
8
BLACK
6
CONTINUOUS
10
0.237268
20
0.925161
11
0.232343
21
0.931684
0
LINE
8
BLACK
6
CONTINUOUS
10
0.232343
20
0.931684
11
0.2287
21
0.939
0
LINE
8
BLACK
6
CONTINUOUS
10
0.2287
20
0.939
11
0.226463
21
0.946861
0
LINE
8
BLACK
6
CONTINUOUS
10
0.226463
20
0.946861
11
0.225709
21
0.955
0
LINE
8
BLACK
6
CONTINUOUS
10
0.225709
20
0.955
11
0.226463
21
0.963139
0
LINE
8
BLACK
6
CONTINUOUS
10
0.226463
20
0.963139
11
0.2287
21
0.971
0
LINE
8
BLACK
6
CONTINUOUS
10
0.2287
20
0.971
11
0.232343
21
0.978316
0
LINE
8
BLACK
6
CONTINUOUS
10
0.232343
20
0.978316
11
0.237268
21
0.984839
0
LINE
8
BLACK
6
CONTINUOUS
10
0.237268
20
0.984839
11
0.243309
21
0.990345
0
LINE
8
BLACK
6
CONTINUOUS
10
0.243309
20
0.990345
11
0.250258
21
0.994648
0
LINE
8
BLACK
6
CONTINUOUS
10
0.250258
20
0.994648
11
0.257879
21
0.997601
0
LINE
8
BLACK
6
CONTINUOUS
10
0.257879
20
0.997601
11
0.265913
21
0.999102
0
LINE
8
BLACK
6
CONTINUOUS
10
0.265913
20
0.999102
11
0.274087
21
0.999102
0
LINE
8
BLACK
6
CONTINUOUS
10
0.274087
20
0.999102
11
0.282121
21
0.997601
0
LINE
8
BLACK
6
CONTINUOUS
10
1.8
20
0.99
11
1.74
21
0.99
0
LINE
8
BLACK
6
CONTINUOUS
10
1.74
20
0.99
11
1.74
21
1.05
0
LINE
8
BLACK
6
CONTINUOUS
10
1.74
20
1.05
11
1.8
21
1.05
0
LINE
8
BLACK
6
CONTINUOUS
10
1.8
20
1.05
11
1.8
21
0.99
0
LINE
8
BLACK
6
CONTINUOUS
10
1.9
20
0.99
11
1.84
21
0.99
0
LINE
8
BLACK
6
CONTINUOUS
10
1.84
20
0.99
11
1.84
21
1.05
0
LINE
8
BLACK
6
CONTINUOUS
10
1.84
20
1.05
11
1.9
21
1.05
0
LINE
8
BLACK
6
CONTINUOUS
10
1.9
20
1.05
11
1.9
21
0.99
0
LINE
8
BLACK
6
CONTINUOUS
10
0.177873
20
1.09458
11
0.185443
21
1.09228
0
LINE
8
BLACK
6
CONTINUOUS
10
0.185443
20
1.09228
11
0.19242
21
1.08855
0
LINE
8
BLACK
6
CONTINUOUS
10
0.19242
20
1.08855
11
0.198535
21
1.08353
0
LINE
8
BLACK
6
CONTINUOUS
10
0.198535
20
1.08353
11
0.203553
21
1.07742
0
LINE
8
BLACK
6
CONTINUOUS
10
0.203553
20
1.07742
11
0.207283
21
1.07044
0
LINE
8
BLACK
6
CONTINUOUS
10
0.207283
20
1.07044
11
0.209579
21
1.06287
0
LINE
8
BLACK
6
CONTINUOUS
10
0.209579
20
1.06287
11
0.210354
21
1.055
0
LINE
8
BLACK
6
CONTINUOUS
10
0.210354
20
1.055
11
0.209579
21
1.04713
0
LINE
8
BLACK
6
CONTINUOUS
10
0.209579
20
1.04713
11
0.207283
21
1.03956
0
LINE
8
BLACK
6
CONTINUOUS
10
0.207283
20
1.03956
11
0.203553
21
1.03258
0
LINE
8
BLACK
6
CONTINUOUS
10
0.203553
20
1.03258
11
0.198535
21
1.02647
0
LINE
8
BLACK
6
CONTINUOUS
10
0.198535
20
1.02647
11
0.19242
21
1.02145
0
LINE
8
BLACK
6
CONTINUOUS
10
0.19242
20
1.02145
11
0.185443
21
1.01772
0
LINE
8
BLACK
6
CONTINUOUS
10
0.185443
20
1.01772
11
0.177873
21
1.01542
0
LINE
8
BLACK
6
CONTINUOUS
10
0.177873
20
1.01542
11
0.17
21
1.01465
0
LINE
8
BLACK
6
CONTINUOUS
10
0.17
20
1.01465
11
0.162127
21
1.01542
0
LINE
8
BLACK
6
CONTINUOUS
10
0.162127
20
1.01542
11
0.154557
21
1.01772
0
LINE
8
BLACK
6
CONTINUOUS
10
0.154557
20
1.01772
11
0.14758
21
1.02145
0
LINE
8
BLACK
6
CONTINUOUS
10
0.14758
20
1.02145
11
0.141465
21
1.02647
0
LINE
8
BLACK
6
CONTINUOUS
10
0.141465
20
1.02647
11
0.136447
21
1.03258
0
LINE
8
BLACK
6
CONTINUOUS
10
0.136447
20
1.03258
11
0.132717
21
1.03956
0
LINE
8
BLACK
6
CONTINUOUS
10
0.132717
20
1.03956
11
0.130421
21
1.04713
0
LINE
8
BLACK
6
CONTINUOUS
10
0.130421
20
1.04713
11
0.129646
21
1.055
0
LINE
8
BLACK
6
CONTINUOUS
10
0.129646
20
1.055
11
0.130421
21
1.06287
0
LINE
8
BLACK
6
CONTINUOUS
10
0.130421
20
1.06287
11
0.132717
21
1.07044
0
LINE
8
BLACK
6
CONTINUOUS
10
0.132717
20
1.07044
11
0.136447
21
1.07742
0
LINE
8
BLACK
6
CONTINUOUS
10
0.136447
20
1.07742
11
0.141465
21
1.08353
0
LINE
8
BLACK
6
CONTINUOUS
10
0.141465
20
1.08353
11
0.14758
21
1.08855
0
LINE
8
BLACK
6
CONTINUOUS
10
0.14758
20
1.08855
11
0.154557
21
1.09228
0
LINE
8
BLACK
6
CONTINUOUS
10
0.154557
20
1.09228
11
0.162127
21
1.09458
0
LINE
8
BLACK
6
CONTINUOUS
10
0.162127
20
1.09458
11
0.17
21
1.09535
0
LINE
8
BLACK
6
CONTINUOUS
10
0.17
20
1.09535
11
0.177873
21
1.09458
0
LINE
8
BLACK
6
CONTINUOUS
10
1.8
20
1.09
11
1.74
21
1.09
0
LINE
8
BLACK
6
CONTINUOUS
10
1.74
20
1.09
11
1.74
21
1.15
0
LINE
8
BLACK
6
CONTINUOUS
10
1.74
20
1.15
11
1.8
21
1.15
0
LINE
8
BLACK
6
CONTINUOUS
10
1.8
20
1.15
11
1.8
21
1.09
0
LINE
8
BLACK
6
CONTINUOUS
10
1.9
20
1.09
11
1.84
21
1.09
0
LINE
8
BLACK
6
CONTINUOUS
10
1.84
20
1.09
11
1.84
21
1.15
0
LINE
8
BLACK
6
CONTINUOUS
10
1.84
20
1.15
11
1.9
21
1.15
0
LINE
8
BLACK
6
CONTINUOUS
10
1.9
20
1.15
11
1.9
21
1.09
0
LINE
8
BLACK
6
CONTINUOUS
10
0.282121
20
1.1976
11
0.289742
21
1.19465
0
LINE
8
BLACK
6
CONTINUOUS
10
0.289742
20
1.19465
11
0.296691
21
1.19035
0
LINE
8
BLACK
6
CONTINUOUS
10
0.296691
20
1.19035
11
0.302732
21
1.18484
0
LINE
8
BLACK
6
CONTINUOUS
10
0.302732
20
1.18484
11
0.307657
21
1.17832
0
LINE
8
BLACK
6
CONTINUOUS
10
0.307657
20
1.17832
11
0.3113
21
1.171
0
LINE
8
BLACK
6
CONTINUOUS
10
0.3113
20
1.171
11
0.313537
21
1.16314
0
LINE
8
BLACK
6
CONTINUOUS
10
0.313537
20
1.16314
11
0.314291
21
1.155
0
LINE
8
BLACK
6
CONTINUOUS
10
0.314291
20
1.155
11
0.313537
21
1.14686
0
LINE
8
BLACK
6
CONTINUOUS
10
0.313537
20
1.14686
11
0.3113
21
1.139
0
LINE
8
BLACK
6
CONTINUOUS
10
0.3113
20
1.139
11
0.307657
21
1.13168
0
LINE
8
BLACK
6
CONTINUOUS
10
0.307657
20
1.13168
11
0.302732
21
1.12516
0
LINE
8
BLACK
6
CONTINUOUS
10
0.302732
20
1.12516
11
0.296691
21
1.11965
0
LINE
8
BLACK
6
CONTINUOUS
10
0.296691
20
1.11965
11
0.289742
21
1.11535
0
LINE
8
BLACK
6
CONTINUOUS
10
0.289742
20
1.11535
11
0.282121
21
1.1124
0
LINE
8
BLACK
6
CONTINUOUS
10
0.282121
20
1.1124
11
0.274087
21
1.1109
0
LINE
8
BLACK
6
CONTINUOUS
10
0.274087
20
1.1109
11
0.265913
21
1.1109
0
LINE
8
BLACK
6
CONTINUOUS
10
0.265913
20
1.1109
11
0.257879
21
1.1124
0
LINE
8
BLACK
6
CONTINUOUS
10
0.257879
20
1.1124
11
0.250258
21
1.11535
0
LINE
8
BLACK
6
CONTINUOUS
10
0.250258
20
1.11535
11
0.243309
21
1.11965
0
LINE
8
BLACK
6
CONTINUOUS
10
0.243309
20
1.11965
11
0.237268
21
1.12516
0
LINE
8
BLACK
6
CONTINUOUS
10
0.237268
20
1.12516
11
0.232343
21
1.13168
0
LINE
8
BLACK
6
CONTINUOUS
10
0.232343
20
1.13168
11
0.2287
21
1.139
0
LINE
8
BLACK
6
CONTINUOUS
10
0.2287
20
1.139
11
0.226463
21
1.14686
0
LINE
8
BLACK
6
CONTINUOUS
10
0.226463
20
1.14686
11
0.225709
21
1.155
0
LINE
8
BLACK
6
CONTINUOUS
10
0.225709
20
1.155
11
0.226463
21
1.16314
0
LINE
8
BLACK
6
CONTINUOUS
10
0.226463
20
1.16314
11
0.2287
21
1.171
0
LINE
8
BLACK
6
CONTINUOUS
10
0.2287
20
1.171
11
0.232343
21
1.17832
0
LINE
8
BLACK
6
CONTINUOUS
10
0.232343
20
1.17832
11
0.237268
21
1.18484
0
LINE
8
BLACK
6
CONTINUOUS
10
0.237268
20
1.18484
11
0.243309
21
1.19035
0
LINE
8
BLACK
6
CONTINUOUS
10
0.243309
20
1.19035
11
0.250258
21
1.19465
0
LINE
8
BLACK
6
CONTINUOUS
10
0.250258
20
1.19465
11
0.257879
21
1.1976
0
LINE
8
BLACK
6
CONTINUOUS
10
0.257879
20
1.1976
11
0.265913
21
1.1991
0
LINE
8
BLACK
6
CONTINUOUS
10
0.265913
20
1.1991
11
0.274087
21
1.1991
0
LINE
8
BLACK
6
CONTINUOUS
10
0.274087
20
1.1991
11
0.282121
21
1.1976
0
LINE
8
BLACK
6
CONTINUOUS
10
1.42
20
1.2
11
1.36
21
1.2
0
LINE
8
BLACK
6
CONTINUOUS
10
1.36
20
1.2
11
1.36
21
1.26
0
LINE
8
BLACK
6
CONTINUOUS
10
1.36
20
1.26
11
1.42
21
1.26
0
LINE
8
BLACK
6
CONTINUOUS
10
1.42
20
1.26
11
1.42
21
1.2
0
LINE
8
BLACK
6
CONTINUOUS
10
1.52
20
1.2
11
1.46
21
1.2
0
LINE
8
BLACK
6
CONTINUOUS
10
1.46
20
1.2
11
1.46
21
1.26
0
LINE
8
BLACK
6
CONTINUOUS
10
1.46
20
1.26
11
1.52
21
1.26
0
LINE
8
BLACK
6
CONTINUOUS
10
1.52
20
1.26
11
1.52
21
1.2
0
LINE
8
BLACK
6
CONTINUOUS
10
1.42
20
1.3
11
1.36
21
1.3
0
LINE
8
BLACK
6
CONTINUOUS
10
1.36
20
1.3
11
1.36
21
1.36
0
LINE
8
BLACK
6
CONTINUOUS
10
1.36
20
1.36
11
1.42
21
1.36
0
LINE
8
BLACK
6
CONTINUOUS
10
1.42
20
1.36
11
1.42
21
1.3
0
LINE
8
BLACK
6
CONTINUOUS
10
1.52
20
1.3
11
1.46
21
1.3
0
LINE
8
BLACK
6
CONTINUOUS
10
1.46
20
1.3
11
1.46
21
1.36
0
LINE
8
BLACK
6
CONTINUOUS
10
1.46
20
1.36
11
1.52
21
1.36
0
LINE
8
BLACK
6
CONTINUOUS
10
1.52
20
1.36
11
1.52
21
1.3
0
LINE
8
BLACK
6
CONTINUOUS
10
1.98731
20
1.5888
11
1.98914
21
1.58669
0
LINE
8
BLACK
6
CONTINUOUS
10
1.98914
20
1.58669
11
1.98959
21
1.58463
0
LINE
8
BLACK
6
CONTINUOUS
10
1.98959
20
1.58463
11
1.98959
21
0.015374
0
LINE
8
BLACK
6
CONTINUOUS
10
1.98959
20
0.015374
11
1.9888
21
0.0126921
0
LINE
8
BLACK
6
CONTINUOUS
10
1.9888
20
0.0126921
11
1.98669
21
0.0108617
0
LINE
8
BLACK
6
CONTINUOUS
10
1.98669
20
0.0108617
11
1.98463
21
0.0104134
0
LINE
8
BLACK
6
CONTINUOUS
10
1.98463
20
0.0104134
11
0.015374
21
0.0104134
0
LINE
8
BLACK
6
CONTINUOUS
10
0.015374
20
0.0104134
11
0.0126921
21
0.0112009
0
LINE
8
BLACK
6
CONTINUOUS
10
0.0126921
20
0.0112009
11
0.0108617
21
0.0133133
0
LINE
8
BLACK
6
CONTINUOUS
10
0.0108617
20
0.0133133
11
0.0104134
21
0.015374
0
LINE
8
BLACK
6
CONTINUOUS
10
0.0104134
20
0.015374
11
0.0104134
21
0.388186
0
LINE
8
BLACK
6
CONTINUOUS
10
0.0104134
20
0.388186
11
0.0104134
21
0.488186
0
LINE
8
BLACK
6
CONTINUOUS
10
0.0104134
20
0.488186
11
0.0104134
21
0.588186
0
LINE
8
BLACK
6
CONTINUOUS
10
0.0104134
20
0.588186
11
0.0104134
21
0.668186
0
LINE
8
BLACK
6
CONTINUOUS
10
0.0104134
20
0.668186
11
0.0104134
21
0.688186
0
LINE
8
BLACK
6
CONTINUOUS
10
0.0104134
20
0.688186
11
0.0104134
21
0.788186
0
LINE
8
BLACK
6
CONTINUOUS
10
0.0104134
20
0.788186
11
0.0104134
21
0.888186
0
LINE
8
BLACK
6
CONTINUOUS
10
0.0104134
20
0.888186
11
0.0104134
21
0.926688
0
LINE
8
BLACK
6
CONTINUOUS
10
0.0104134
20
0.926688
11
0.0112009
21
0.92937
0
LINE
8
BLACK
6
CONTINUOUS
10
0.0112009
20
0.92937
11
0.0133133
21
0.931201
0
LINE
8
BLACK
6
CONTINUOUS
10
0.0133133
20
0.931201
11
0.01608
21
0.931599
0
LINE
8
BLACK
6
CONTINUOUS
10
0.01608
20
0.931599
11
0.0186225
21
0.930437
0
LINE
8
BLACK
6
CONTINUOUS
10
0.0186225
20
0.930437
11
0.0199168
21
0.928681
0
LINE
8
BLACK
6
CONTINUOUS
10
0.0199168
20
0.928681
11
0.020195
21
0.928047
0
LINE
8
BLACK
6
CONTINUOUS
10
0.020195
20
0.928047
11
0.0253106
21
0.920217
0
LINE
8
BLACK
6
CONTINUOUS
10
0.0253106
20
0.920217
11
0.031645
21
0.913336
0
LINE
8
BLACK
6
CONTINUOUS
10
0.031645
20
0.913336
11
0.0390261
21
0.907591
0
LINE
8
BLACK
6
CONTINUOUS
10
0.0390261
20
0.907591
11
0.0390261
21
0.907591
0
LINE
8
BLACK
6
CONTINUOUS
10
0.0390261
20
0.907591
11
0.0472518
21
0.903139
0
LINE
8
BLACK
6
CONTINUOUS
10
0.0472518
20
0.903139
11
0.0472519
21
0.903139
0
LINE
8
BLACK
6
CONTINUOUS
10
0.0472519
20
0.903139
11
0.0560978
21
0.900102
0
LINE
8
BLACK
6
CONTINUOUS
10
0.0560978
20
0.900102
11
0.0560982
21
0.900102
0
LINE
8
BLACK
6
CONTINUOUS
10
0.0560982
20
0.900102
11
0.0591658
21
0.899591
0
LINE
8
BLACK
6
CONTINUOUS
10
0.0591658
20
0.899591
11
0.0653235
21
0.898563
0
LINE
8
BLACK
6
CONTINUOUS
10
0.0653235
20
0.898563
11
0.0653237
21
0.898563
0
LINE
8
BLACK
6
CONTINUOUS
10
0.0653237
20
0.898563
11
0.0746763
21
0.898563
0
LINE
8
BLACK
6
CONTINUOUS
10
0.0746763
20
0.898563
11
0.0746765
21
0.898563
0
LINE
8
BLACK
6
CONTINUOUS
10
0.0746765
20
0.898563
11
0.0820674
21
0.899796
0
LINE
8
BLACK
6
CONTINUOUS
10
0.0820674
20
0.899796
11
0.0839018
21
0.900102
0
LINE
8
BLACK
6
CONTINUOUS
10
0.0839018
20
0.900102
11
0.0839019
21
0.900102
0
LINE
8
BLACK
6
CONTINUOUS
10
0.0839019
20
0.900102
11
0.083902
21
0.900102
0
LINE
8
BLACK
6
CONTINUOUS
10
0.083902
20
0.900102
11
0.0839021
21
0.900102
0
LINE
8
BLACK
6
CONTINUOUS
10
0.0839021
20
0.900102
11
0.092748
21
0.903139
0
LINE
8
BLACK
6
CONTINUOUS
10
0.092748
20
0.903139
11
0.0927481
21
0.903139
0
LINE
8
BLACK
6
CONTINUOUS
10
0.0927481
20
0.903139
11
0.100974
21
0.907591
0
LINE
8
BLACK
6
CONTINUOUS
10
0.100974
20
0.907591
11
0.100974
21
0.907591
0
LINE
8
BLACK
6
CONTINUOUS
10
0.100974
20
0.907591
11
0.108355
21
0.913336
0
LINE
8
BLACK
6
CONTINUOUS
10
0.108355
20
0.913336
11
0.114689
21
0.920217
0
LINE
8
BLACK
6
CONTINUOUS
10
0.114689
20
0.920217
11
0.119805
21
0.928047
0
LINE
8
BLACK
6
CONTINUOUS
10
0.119805
20
0.928047
11
0.123562
21
0.936612
0
LINE
8
BLACK
6
CONTINUOUS
10
0.123562
20
0.936612
11
0.123562
21
0.936612
0
LINE
8
BLACK
6
CONTINUOUS
10
0.123562
20
0.936612
11
0.125858
21
0.945679
0
LINE
8
BLACK
6
CONTINUOUS
10
0.125858
20
0.945679
11
0.125858
21
0.945679
0
LINE
8
BLACK
6
CONTINUOUS
10
0.125858
20
0.945679
11
0.12663
21
0.955
0
LINE
8
BLACK
6
CONTINUOUS
10
0.12663
20
0.955
11
0.125858
21
0.964321
0
LINE
8
BLACK
6
CONTINUOUS
10
0.125858
20
0.964321
11
0.123562
21
0.973388
0
LINE
8
BLACK
6
CONTINUOUS
10
0.123562
20
0.973388
11
0.119805
21
0.981953
0
LINE
8
BLACK
6
CONTINUOUS
10
0.119805
20
0.981953
11
0.114689
21
0.989783
0
LINE
8
BLACK
6
CONTINUOUS
10
0.114689
20
0.989783
11
0.108355
21
0.996664
0
LINE
8
BLACK
6
CONTINUOUS
10
0.108355
20
0.996664
11
0.100974
21
1.00241
0
LINE
8
BLACK
6
CONTINUOUS
10
0.100974
20
1.00241
11
0.0927482
21
1.00686
0
LINE
8
BLACK
6
CONTINUOUS
10
0.0927482
20
1.00686
11
0.083902
21
1.0099
0
LINE
8
BLACK
6
CONTINUOUS
10
0.083902
20
1.0099
11
0.0746765
21
1.01144
0
LINE
8
BLACK
6
CONTINUOUS
10
0.0746765
20
1.01144
11
0.0653235
21
1.01144
0
LINE
8
BLACK
6
CONTINUOUS
10
0.0653235
20
1.01144
11
0.056098
21
1.0099
0
LINE
8
BLACK
6
CONTINUOUS
10
0.056098
20
1.0099
11
0.0472518
21
1.00686
0
LINE
8
BLACK
6
CONTINUOUS
10
0.0472518
20
1.00686
11
0.0390261
21
1.00241
0
LINE
8
BLACK
6
CONTINUOUS
10
0.0390261
20
1.00241
11
0.0316452
21
0.996664
0
LINE
8
BLACK
6
CONTINUOUS
10
0.0316452
20
0.996664
11
0.0316452
21
0.996664
0
LINE
8
BLACK
6
CONTINUOUS
10
0.0316452
20
0.996664
11
0.031645
21
0.996664
0
LINE
8
BLACK
6
CONTINUOUS
10
0.031645
20
0.996664
11
0.0253106
21
0.989783
0
LINE
8
BLACK
6
CONTINUOUS
10
0.0253106
20
0.989783
11
0.0208902
21
0.983017
0
LINE
8
BLACK
6
CONTINUOUS
10
0.0208902
20
0.983017
11
0.020195
21
0.981953
0
LINE
8
BLACK
6
CONTINUOUS
10
0.020195
20
0.981953
11
0.0199168
21
0.981319
0
LINE
8
BLACK
6
CONTINUOUS
10
0.0199168
20
0.981319
11
0.0181184
21
0.979179
0
LINE
8
BLACK
6
CONTINUOUS
10
0.0181184
20
0.979179
11
0.0154486
21
0.978351
0
LINE
8
BLACK
6
CONTINUOUS
10
0.0154486
20
0.978351
11
0.0127552
21
0.979099
0
LINE
8
BLACK
6
CONTINUOUS
10
0.0127552
20
0.979099
11
0.0108931
21
0.981183
0
LINE
8
BLACK
6
CONTINUOUS
10
0.0108931
20
0.981183
11
0.0104134
21
0.983311
0
LINE
8
BLACK
6
CONTINUOUS
10
0.0104134
20
0.983311
11
0.0104134
21
1.055
0
LINE
8
BLACK
6
CONTINUOUS
10
0.0104134
20
1.055
11
0.0104134
21
1.12669
0
LINE
8
BLACK
6
CONTINUOUS
10
0.0104134
20
1.12669
11
0.0112009
21
1.12937
0
LINE
8
BLACK
6
CONTINUOUS
10
0.0112009
20
1.12937
11
0.0133133
21
1.1312
0
LINE
8
BLACK
6
CONTINUOUS
10
0.0133133
20
1.1312
11
0.01608
21
1.1316
0
LINE
8
BLACK
6
CONTINUOUS
10
0.01608
20
1.1316
11
0.0186225
21
1.13044
0
LINE
8
BLACK
6
CONTINUOUS
10
0.0186225
20
1.13044
11
0.0199168
21
1.12868
0
LINE
8
BLACK
6
CONTINUOUS
10
0.0199168
20
1.12868
11
0.020195
21
1.12805
0
LINE
8
BLACK
6
CONTINUOUS
10
0.020195
20
1.12805
11
0.0253106
21
1.12022
0
LINE
8
BLACK
6
CONTINUOUS
10
0.0253106
20
1.12022
11
0.031645
21
1.11334
0
LINE
8
BLACK
6
CONTINUOUS
10
0.031645
20
1.11334
11
0.0390261
21
1.10759
0
LINE
8
BLACK
6
CONTINUOUS
10
0.0390261
20
1.10759
11
0.0390261
21
1.10759
0
LINE
8
BLACK
6
CONTINUOUS
10
0.0390261
20
1.10759
11
0.0472518
21
1.10314
0
LINE
8
BLACK
6
CONTINUOUS
10
0.0472518
20
1.10314
11
0.0472519
21
1.10314
0
LINE
8
BLACK
6
CONTINUOUS
10
0.0472519
20
1.10314
11
0.0560978
21
1.1001
0
LINE
8
BLACK
6
CONTINUOUS
10
0.0560978
20
1.1001
11
0.0560982
21
1.1001
0
LINE
8
BLACK
6
CONTINUOUS
10
0.0560982
20
1.1001
11
0.0591659
21
1.09959
0
LINE
8
BLACK
6
CONTINUOUS
10
0.0591659
20
1.09959
11
0.0653235
21
1.09856
0
LINE
8
BLACK
6
CONTINUOUS
10
0.0653235
20
1.09856
11
0.0653237
21
1.09856
0
LINE
8
BLACK
6
CONTINUOUS
10
0.0653237
20
1.09856
11
0.0746763
21
1.09856
0
LINE
8
BLACK
6
CONTINUOUS
10
0.0746763
20
1.09856
11
0.0746765
21
1.09856
0
LINE
8
BLACK
6
CONTINUOUS
10
0.0746765
20
1.09856
11
0.0820674
21
1.0998
0
LINE
8
BLACK
6
CONTINUOUS
10
0.0820674
20
1.0998
11
0.0839018
21
1.1001
0
LINE
8
BLACK
6
CONTINUOUS
10
0.0839018
20
1.1001
11
0.0839019
21
1.1001
0
LINE
8
BLACK
6
CONTINUOUS
10
0.0839019
20
1.1001
11
0.083902
21
1.1001
0
LINE
8
BLACK
6
CONTINUOUS
10
0.083902
20
1.1001
11
0.0839021
21
1.1001
0
LINE
8
BLACK
6
CONTINUOUS
10
0.0839021
20
1.1001
11
0.092748
21
1.10314
0
LINE
8
BLACK
6
CONTINUOUS
10
0.092748
20
1.10314
11
0.0927481
21
1.10314
0
LINE
8
BLACK
6
CONTINUOUS
10
0.0927481
20
1.10314
11
0.100974
21
1.10759
0
LINE
8
BLACK
6
CONTINUOUS
10
0.100974
20
1.10759
11
0.100974
21
1.10759
0
LINE
8
BLACK
6
CONTINUOUS
10
0.100974
20
1.10759
11
0.108355
21
1.11334
0
LINE
8
BLACK
6
CONTINUOUS
10
0.108355
20
1.11334
11
0.114689
21
1.12022
0
LINE
8
BLACK
6
CONTINUOUS
10
0.114689
20
1.12022
11
0.119805
21
1.12805
0
LINE
8
BLACK
6
CONTINUOUS
10
0.119805
20
1.12805
11
0.123562
21
1.13661
0
LINE
8
BLACK
6
CONTINUOUS
10
0.123562
20
1.13661
11
0.123562
21
1.13661
0
LINE
8
BLACK
6
CONTINUOUS
10
0.123562
20
1.13661
11
0.125858
21
1.14568
0
LINE
8
BLACK
6
CONTINUOUS
10
0.125858
20
1.14568
11
0.125858
21
1.14568
0
LINE
8
BLACK
6
CONTINUOUS
10
0.125858
20
1.14568
11
0.12663
21
1.155
0
LINE
8
BLACK
6
CONTINUOUS
10
0.12663
20
1.155
11
0.125858
21
1.16432
0
LINE
8
BLACK
6
CONTINUOUS
10
0.125858
20
1.16432
11
0.123562
21
1.17339
0
LINE
8
BLACK
6
CONTINUOUS
10
0.123562
20
1.17339
11
0.119805
21
1.18195
0
LINE
8
BLACK
6
CONTINUOUS
10
0.119805
20
1.18195
11
0.114689
21
1.18978
0
LINE
8
BLACK
6
CONTINUOUS
10
0.114689
20
1.18978
11
0.108355
21
1.19666
0
LINE
8
BLACK
6
CONTINUOUS
10
0.108355
20
1.19666
11
0.100974
21
1.20241
0
LINE
8
BLACK
6
CONTINUOUS
10
0.100974
20
1.20241
11
0.0927482
21
1.20686
0
LINE
8
BLACK
6
CONTINUOUS
10
0.0927482
20
1.20686
11
0.083902
21
1.2099
0
LINE
8
BLACK
6
CONTINUOUS
10
0.083902
20
1.2099
11
0.0746765
21
1.21144
0
LINE
8
BLACK
6
CONTINUOUS
10
0.0746765
20
1.21144
11
0.0653235
21
1.21144
0
LINE
8
BLACK
6
CONTINUOUS
10
0.0653235
20
1.21144
11
0.056098
21
1.2099
0
LINE
8
BLACK
6
CONTINUOUS
10
0.056098
20
1.2099
11
0.0472518
21
1.20686
0
LINE
8
BLACK
6
CONTINUOUS
10
0.0472518
20
1.20686
11
0.0390261
21
1.20241
0
LINE
8
BLACK
6
CONTINUOUS
10
0.0390261
20
1.20241
11
0.0316452
21
1.19666
0
LINE
8
BLACK
6
CONTINUOUS
10
0.0316452
20
1.19666
11
0.0316452
21
1.19666
0
LINE
8
BLACK
6
CONTINUOUS
10
0.0316452
20
1.19666
11
0.031645
21
1.19666
0
LINE
8
BLACK
6
CONTINUOUS
10
0.031645
20
1.19666
11
0.0253106
21
1.18978
0
LINE
8
BLACK
6
CONTINUOUS
10
0.0253106
20
1.18978
11
0.0201951
21
1.18195
0
LINE
8
BLACK
6
CONTINUOUS
10
0.0201951
20
1.18195
11
0.020195
21
1.18195
0
LINE
8
BLACK
6
CONTINUOUS
10
0.020195
20
1.18195
11
0.0199168
21
1.18132
0
LINE
8
BLACK
6
CONTINUOUS
10
0.0199168
20
1.18132
11
0.0181184
21
1.17918
0
LINE
8
BLACK
6
CONTINUOUS
10
0.0181184
20
1.17918
11
0.0154486
21
1.17835
0
LINE
8
BLACK
6
CONTINUOUS
10
0.0154486
20
1.17835
11
0.0127552
21
1.1791
0
LINE
8
BLACK
6
CONTINUOUS
10
0.0127552
20
1.1791
11
0.0108931
21
1.18118
0
LINE
8
BLACK
6
CONTINUOUS
10
0.0108931
20
1.18118
11
0.0104134
21
1.18331
0
LINE
8
BLACK
6
CONTINUOUS
10
0.0104134
20
1.18331
11
0.0104134
21
1.29819
0
LINE
8
BLACK
6
CONTINUOUS
10
0.0104134
20
1.29819
11
0.0104134
21
1.58463
0
LINE
8
BLACK
6
CONTINUOUS
10
0.0104134
20
1.58463
11
0.0112009
21
1.58731
0
LINE
8
BLACK
6
CONTINUOUS
10
0.0112009
20
1.58731
11
0.0133133
21
1.58914
0
LINE
8
BLACK
6
CONTINUOUS
10
0.0133133
20
1.58914
11
0.015374
21
1.58959
0
LINE
8
BLACK
6
CONTINUOUS
10
0.015374
20
1.58959
11
1.98463
21
1.58959
0
LINE
8
BLACK
6
CONTINUOUS
10
1.98463
20
1.58959
11
1.98731
21
1.5888
0
LINE
8
BLACK
6
CONTINUOUS
10
0.0479721
20
0.387171
11
0.0479721
21
0.387171
0
LINE
8
BLACK
6
CONTINUOUS
10
0.0479721
20
0.387171
11
0.0498063
21
0.383017
0
LINE
8
BLACK
6
CONTINUOUS
10
0.0498063
20
0.383017
11
0.0498063
21
0.383017
0
LINE
8
BLACK
6
CONTINUOUS
10
0.0498063
20
0.383017
11
0.053017
21
0.379806
0
LINE
8
BLACK
6
CONTINUOUS
10
0.053017
20
0.379806
11
0.0530171
21
0.379806
0
LINE
8
BLACK
6
CONTINUOUS
10
0.0530171
20
0.379806
11
0.057171
21
0.377972
0
LINE
8
BLACK
6
CONTINUOUS
10
0.057171
20
0.377972
11
0.0571712
21
0.377972
0
LINE
8
BLACK
6
CONTINUOUS
10
0.0571712
20
0.377972
11
0.0581862
21
0.377854
0
LINE
8
BLACK
6
CONTINUOUS
10
0.0581862
20
0.377854
11
0.0581865
21
0.377854
0
LINE
8
BLACK
6
CONTINUOUS
10
0.0581865
20
0.377854
11
0.121814
21
0.377854
0
LINE
8
BLACK
6
CONTINUOUS
10
0.121814
20
0.377854
11
0.122829
21
0.377972
0
LINE
8
BLACK
6
CONTINUOUS
10
0.122829
20
0.377972
11
0.122829
21
0.377972
0
LINE
8
BLACK
6
CONTINUOUS
10
0.122829
20
0.377972
11
0.126983
21
0.379806
0
LINE
8
BLACK
6
CONTINUOUS
10
0.126983
20
0.379806
11
0.126983
21
0.379806
0
LINE
8
BLACK
6
CONTINUOUS
10
0.126983
20
0.379806
11
0.130194
21
0.383017
0
LINE
8
BLACK
6
CONTINUOUS
10
0.130194
20
0.383017
11
0.130194
21
0.383017
0
LINE
8
BLACK
6
CONTINUOUS
10
0.130194
20
0.383017
11
0.130194
21
0.383017
0
LINE
8
BLACK
6
CONTINUOUS
10
0.130194
20
0.383017
11
0.132028
21
0.387171
0
LINE
8
BLACK
6
CONTINUOUS
10
0.132028
20
0.387171
11
0.132146
21
0.388186
0
LINE
8
BLACK
6
CONTINUOUS
10
0.132146
20
0.388186
11
0.132146
21
0.388186
0
LINE
8
BLACK
6
CONTINUOUS
10
0.132146
20
0.388186
11
0.132146
21
0.451814
0
LINE
8
BLACK
6
CONTINUOUS
10
0.132146
20
0.451814
11
0.132028
21
0.452829
0
LINE
8
BLACK
6
CONTINUOUS
10
0.132028
20
0.452829
11
0.130194
21
0.456983
0
LINE
8
BLACK
6
CONTINUOUS
10
0.130194
20
0.456983
11
0.126983
21
0.460194
0
LINE
8
BLACK
6
CONTINUOUS
10
0.126983
20
0.460194
11
0.122829
21
0.462028
0
LINE
8
BLACK
6
CONTINUOUS
10
0.122829
20
0.462028
11
0.121814
21
0.462146
0
LINE
8
BLACK
6
CONTINUOUS
10
0.121814
20
0.462146
11
0.121814
21
0.462146
0
LINE
8
BLACK
6
CONTINUOUS
10
0.121814
20
0.462146
11
0.121814
21
0.462146
0
LINE
8
BLACK
6
CONTINUOUS
10
0.121814
20
0.462146
11
0.0581865
21
0.462146
0
LINE
8
BLACK
6
CONTINUOUS
10
0.0581865
20
0.462146
11
0.0581864
21
0.462146
0
LINE
8
BLACK
6
CONTINUOUS
10
0.0581864
20
0.462146
11
0.0581863
21
0.462146
0
LINE
8
BLACK
6
CONTINUOUS
10
0.0581863
20
0.462146
11
0.0571711
21
0.462028
0
LINE
8
BLACK
6
CONTINUOUS
10
0.0571711
20
0.462028
11
0.0530171
21
0.460194
0
LINE
8
BLACK
6
CONTINUOUS
10
0.0530171
20
0.460194
11
0.0530171
21
0.460194
0
LINE
8
BLACK
6
CONTINUOUS
10
0.0530171
20
0.460194
11
0.053017
21
0.460194
0
LINE
8
BLACK
6
CONTINUOUS
10
0.053017
20
0.460194
11
0.0498063
21
0.456983
0
LINE
8
BLACK
6
CONTINUOUS
10
0.0498063
20
0.456983
11
0.0498063
21
0.456983
0
LINE
8
BLACK
6
CONTINUOUS
10
0.0498063
20
0.456983
11
0.0479721
21
0.452829
0
LINE
8
BLACK
6
CONTINUOUS
10
0.0479721
20
0.452829
11
0.0479721
21
0.452829
0
LINE
8
BLACK
6
CONTINUOUS
10
0.0479721
20
0.452829
11
0.0478543
21
0.451814
0
LINE
8
BLACK
6
CONTINUOUS
10
0.0478543
20
0.451814
11
0.0478543
21
0.388186
0
LINE
8
BLACK
6
CONTINUOUS
10
0.0478543
20
0.388186
11
0.0479721
21
0.387171
0
LINE
8
BLACK
6
CONTINUOUS
10
0.147972
20
0.387171
11
0.147972
21
0.387171
0
LINE
8
BLACK
6
CONTINUOUS
10
0.147972
20
0.387171
11
0.149806
21
0.383017
0
LINE
8
BLACK
6
CONTINUOUS
10
0.149806
20
0.383017
11
0.149806
21
0.383017
0
LINE
8
BLACK
6
CONTINUOUS
10
0.149806
20
0.383017
11
0.153017
21
0.379806
0
LINE
8
BLACK
6
CONTINUOUS
10
0.153017
20
0.379806
11
0.153017
21
0.379806
0
LINE
8
BLACK
6
CONTINUOUS
10
0.153017
20
0.379806
11
0.157171
21
0.377972
0
LINE
8
BLACK
6
CONTINUOUS
10
0.157171
20
0.377972
11
0.157171
21
0.377972
0
LINE
8
BLACK
6
CONTINUOUS
10
0.157171
20
0.377972
11
0.158186
21
0.377854
0
LINE
8
BLACK
6
CONTINUOUS
10
0.158186
20
0.377854
11
0.158186
21
0.377854
0
LINE
8
BLACK
6
CONTINUOUS
10
0.158186
20
0.377854
11
0.221814
21
0.377854
0
LINE
8
BLACK
6
CONTINUOUS
10
0.221814
20
0.377854
11
0.222829
21
0.377972
0
LINE
8
BLACK
6
CONTINUOUS
10
0.222829
20
0.377972
11
0.222829
21
0.377972
0
LINE
8
BLACK
6
CONTINUOUS
10
0.222829
20
0.377972
11
0.226983
21
0.379806
0
LINE
8
BLACK
6
CONTINUOUS
10
0.226983
20
0.379806
11
0.226983
21
0.379806
0
LINE
8
BLACK
6
CONTINUOUS
10
0.226983
20
0.379806
11
0.230194
21
0.383017
0
LINE
8
BLACK
6
CONTINUOUS
10
0.230194
20
0.383017
11
0.230194
21
0.383017
0
LINE
8
BLACK
6
CONTINUOUS
10
0.230194
20
0.383017
11
0.230194
21
0.383017
0
LINE
8
BLACK
6
CONTINUOUS
10
0.230194
20
0.383017
11
0.232028
21
0.387171
0
LINE
8
BLACK
6
CONTINUOUS
10
0.232028
20
0.387171
11
0.232146
21
0.388186
0
LINE
8
BLACK
6
CONTINUOUS
10
0.232146
20
0.388186
11
0.232146
21
0.451814
0
LINE
8
BLACK
6
CONTINUOUS
10
0.232146
20
0.451814
11
0.232028
21
0.452829
0
LINE
8
BLACK
6
CONTINUOUS
10
0.232028
20
0.452829
11
0.230194
21
0.456983
0
LINE
8
BLACK
6
CONTINUOUS
10
0.230194
20
0.456983
11
0.226983
21
0.460194
0
LINE
8
BLACK
6
CONTINUOUS
10
0.226983
20
0.460194
11
0.222829
21
0.462028
0
LINE
8
BLACK
6
CONTINUOUS
10
0.222829
20
0.462028
11
0.221814
21
0.462146
0
LINE
8
BLACK
6
CONTINUOUS
10
0.221814
20
0.462146
11
0.221814
21
0.462146
0
LINE
8
BLACK
6
CONTINUOUS
10
0.221814
20
0.462146
11
0.221814
21
0.462146
0
LINE
8
BLACK
6
CONTINUOUS
10
0.221814
20
0.462146
11
0.158186
21
0.462146
0
LINE
8
BLACK
6
CONTINUOUS
10
0.158186
20
0.462146
11
0.158186
21
0.462146
0
LINE
8
BLACK
6
CONTINUOUS
10
0.158186
20
0.462146
11
0.158186
21
0.462146
0
LINE
8
BLACK
6
CONTINUOUS
10
0.158186
20
0.462146
11
0.157171
21
0.462028
0
LINE
8
BLACK
6
CONTINUOUS
10
0.157171
20
0.462028
11
0.153017
21
0.460194
0
LINE
8
BLACK
6
CONTINUOUS
10
0.153017
20
0.460194
11
0.153017
21
0.460194
0
LINE
8
BLACK
6
CONTINUOUS
10
0.153017
20
0.460194
11
0.153017
21
0.460194
0
LINE
8
BLACK
6
CONTINUOUS
10
0.153017
20
0.460194
11
0.149806
21
0.456983
0
LINE
8
BLACK
6
CONTINUOUS
10
0.149806
20
0.456983
11
0.149806
21
0.456983
0
LINE
8
BLACK
6
CONTINUOUS
10
0.149806
20
0.456983
11
0.147972
21
0.452829
0
LINE
8
BLACK
6
CONTINUOUS
10
0.147972
20
0.452829
11
0.147972
21
0.452829
0
LINE
8
BLACK
6
CONTINUOUS
10
0.147972
20
0.452829
11
0.147854
21
0.451814
0
LINE
8
BLACK
6
CONTINUOUS
10
0.147854
20
0.451814
11
0.147854
21
0.388186
0
LINE
8
BLACK
6
CONTINUOUS
10
0.147854
20
0.388186
11
0.147972
21
0.387171
0
LINE
8
BLACK
6
CONTINUOUS
10
0.0479721
20
0.487171
11
0.0479721
21
0.487171
0
LINE
8
BLACK
6
CONTINUOUS
10
0.0479721
20
0.487171
11
0.0498063
21
0.483017
0
LINE
8
BLACK
6
CONTINUOUS
10
0.0498063
20
0.483017
11
0.0498063
21
0.483017
0
LINE
8
BLACK
6
CONTINUOUS
10
0.0498063
20
0.483017
11
0.053017
21
0.479806
0
LINE
8
BLACK
6
CONTINUOUS
10
0.053017
20
0.479806
11
0.0530171
21
0.479806
0
LINE
8
BLACK
6
CONTINUOUS
10
0.0530171
20
0.479806
11
0.057171
21
0.477972
0
LINE
8
BLACK
6
CONTINUOUS
10
0.057171
20
0.477972
11
0.0571712
21
0.477972
0
LINE
8
BLACK
6
CONTINUOUS
10
0.0571712
20
0.477972
11
0.0581862
21
0.477854
0
LINE
8
BLACK
6
CONTINUOUS
10
0.0581862
20
0.477854
11
0.0581865
21
0.477854
0
LINE
8
BLACK
6
CONTINUOUS
10
0.0581865
20
0.477854
11
0.121814
21
0.477854
0
LINE
8
BLACK
6
CONTINUOUS
10
0.121814
20
0.477854
11
0.122829
21
0.477972
0
LINE
8
BLACK
6
CONTINUOUS
10
0.122829
20
0.477972
11
0.122829
21
0.477972
0
LINE
8
BLACK
6
CONTINUOUS
10
0.122829
20
0.477972
11
0.126983
21
0.479806
0
LINE
8
BLACK
6
CONTINUOUS
10
0.126983
20
0.479806
11
0.126983
21
0.479806
0
LINE
8
BLACK
6
CONTINUOUS
10
0.126983
20
0.479806
11
0.130194
21
0.483017
0
LINE
8
BLACK
6
CONTINUOUS
10
0.130194
20
0.483017
11
0.130194
21
0.483017
0
LINE
8
BLACK
6
CONTINUOUS
10
0.130194
20
0.483017
11
0.130194
21
0.483017
0
LINE
8
BLACK
6
CONTINUOUS
10
0.130194
20
0.483017
11
0.132028
21
0.487171
0
LINE
8
BLACK
6
CONTINUOUS
10
0.132028
20
0.487171
11
0.132146
21
0.488186
0
LINE
8
BLACK
6
CONTINUOUS
10
0.132146
20
0.488186
11
0.132146
21
0.488186
0
LINE
8
BLACK
6
CONTINUOUS
10
0.132146
20
0.488186
11
0.132146
21
0.551814
0
LINE
8
BLACK
6
CONTINUOUS
10
0.132146
20
0.551814
11
0.132028
21
0.552829
0
LINE
8
BLACK
6
CONTINUOUS
10
0.132028
20
0.552829
11
0.130194
21
0.556983
0
LINE
8
BLACK
6
CONTINUOUS
10
0.130194
20
0.556983
11
0.126983
21
0.560194
0
LINE
8
BLACK
6
CONTINUOUS
10
0.126983
20
0.560194
11
0.122829
21
0.562028
0
LINE
8
BLACK
6
CONTINUOUS
10
0.122829
20
0.562028
11
0.121814
21
0.562146
0
LINE
8
BLACK
6
CONTINUOUS
10
0.121814
20
0.562146
11
0.121814
21
0.562146
0
LINE
8
BLACK
6
CONTINUOUS
10
0.121814
20
0.562146
11
0.121814
21
0.562146
0
LINE
8
BLACK
6
CONTINUOUS
10
0.121814
20
0.562146
11
0.0581865
21
0.562146
0
LINE
8
BLACK
6
CONTINUOUS
10
0.0581865
20
0.562146
11
0.0581864
21
0.562146
0
LINE
8
BLACK
6
CONTINUOUS
10
0.0581864
20
0.562146
11
0.0581863
21
0.562146
0
LINE
8
BLACK
6
CONTINUOUS
10
0.0581863
20
0.562146
11
0.0571711
21
0.562028
0
LINE
8
BLACK
6
CONTINUOUS
10
0.0571711
20
0.562028
11
0.0530171
21
0.560194
0
LINE
8
BLACK
6
CONTINUOUS
10
0.0530171
20
0.560194
11
0.0530171
21
0.560194
0
LINE
8
BLACK
6
CONTINUOUS
10
0.0530171
20
0.560194
11
0.053017
21
0.560194
0
LINE
8
BLACK
6
CONTINUOUS
10
0.053017
20
0.560194
11
0.0498063
21
0.556983
0
LINE
8
BLACK
6
CONTINUOUS
10
0.0498063
20
0.556983
11
0.0498063
21
0.556983
0
LINE
8
BLACK
6
CONTINUOUS
10
0.0498063
20
0.556983
11
0.0479721
21
0.552829
0
LINE
8
BLACK
6
CONTINUOUS
10
0.0479721
20
0.552829
11
0.0479721
21
0.552829
0
LINE
8
BLACK
6
CONTINUOUS
10
0.0479721
20
0.552829
11
0.0478543
21
0.551814
0
LINE
8
BLACK
6
CONTINUOUS
10
0.0478543
20
0.551814
11
0.0478543
21
0.488186
0
LINE
8
BLACK
6
CONTINUOUS
10
0.0478543
20
0.488186
11
0.0479721
21
0.487171
0
LINE
8
BLACK
6
CONTINUOUS
10
0.147972
20
0.487171
11
0.147972
21
0.487171
0
LINE
8
BLACK
6
CONTINUOUS
10
0.147972
20
0.487171
11
0.149806
21
0.483017
0
LINE
8
BLACK
6
CONTINUOUS
10
0.149806
20
0.483017
11
0.149806
21
0.483017
0
LINE
8
BLACK
6
CONTINUOUS
10
0.149806
20
0.483017
11
0.153017
21
0.479806
0
LINE
8
BLACK
6
CONTINUOUS
10
0.153017
20
0.479806
11
0.153017
21
0.479806
0
LINE
8
BLACK
6
CONTINUOUS
10
0.153017
20
0.479806
11
0.157171
21
0.477972
0
LINE
8
BLACK
6
CONTINUOUS
10
0.157171
20
0.477972
11
0.157171
21
0.477972
0
LINE
8
BLACK
6
CONTINUOUS
10
0.157171
20
0.477972
11
0.158186
21
0.477854
0
LINE
8
BLACK
6
CONTINUOUS
10
0.158186
20
0.477854
11
0.158186
21
0.477854
0
LINE
8
BLACK
6
CONTINUOUS
10
0.158186
20
0.477854
11
0.221814
21
0.477854
0
LINE
8
BLACK
6
CONTINUOUS
10
0.221814
20
0.477854
11
0.222829
21
0.477972
0
LINE
8
BLACK
6
CONTINUOUS
10
0.222829
20
0.477972
11
0.222829
21
0.477972
0
LINE
8
BLACK
6
CONTINUOUS
10
0.222829
20
0.477972
11
0.226983
21
0.479806
0
LINE
8
BLACK
6
CONTINUOUS
10
0.226983
20
0.479806
11
0.226983
21
0.479806
0
LINE
8
BLACK
6
CONTINUOUS
10
0.226983
20
0.479806
11
0.230194
21
0.483017
0
LINE
8
BLACK
6
CONTINUOUS
10
0.230194
20
0.483017
11
0.230194
21
0.483017
0
LINE
8
BLACK
6
CONTINUOUS
10
0.230194
20
0.483017
11
0.230194
21
0.483017
0
LINE
8
BLACK
6
CONTINUOUS
10
0.230194
20
0.483017
11
0.232028
21
0.487171
0
LINE
8
BLACK
6
CONTINUOUS
10
0.232028
20
0.487171
11
0.232146
21
0.488186
0
LINE
8
BLACK
6
CONTINUOUS
10
0.232146
20
0.488186
11
0.232146
21
0.528186
0
LINE
8
BLACK
6
CONTINUOUS
10
0.232146
20
0.528186
11
0.232146
21
0.551814
0
LINE
8
BLACK
6
CONTINUOUS
10
0.232146
20
0.551814
11
0.232028
21
0.552829
0
LINE
8
BLACK
6
CONTINUOUS
10
0.232028
20
0.552829
11
0.230194
21
0.556983
0
LINE
8
BLACK
6
CONTINUOUS
10
0.230194
20
0.556983
11
0.226983
21
0.560194
0
LINE
8
BLACK
6
CONTINUOUS
10
0.226983
20
0.560194
11
0.222829
21
0.562028
0
LINE
8
BLACK
6
CONTINUOUS
10
0.222829
20
0.562028
11
0.221814
21
0.562146
0
LINE
8
BLACK
6
CONTINUOUS
10
0.221814
20
0.562146
11
0.221814
21
0.562146
0
LINE
8
BLACK
6
CONTINUOUS
10
0.221814
20
0.562146
11
0.221814
21
0.562146
0
LINE
8
BLACK
6
CONTINUOUS
10
0.221814
20
0.562146
11
0.158186
21
0.562146
0
LINE
8
BLACK
6
CONTINUOUS
10
0.158186
20
0.562146
11
0.158186
21
0.562146
0
LINE
8
BLACK
6
CONTINUOUS
10
0.158186
20
0.562146
11
0.158186
21
0.562146
0
LINE
8
BLACK
6
CONTINUOUS
10
0.158186
20
0.562146
11
0.157171
21
0.562028
0
LINE
8
BLACK
6
CONTINUOUS
10
0.157171
20
0.562028
11
0.153017
21
0.560194
0
LINE
8
BLACK
6
CONTINUOUS
10
0.153017
20
0.560194
11
0.153017
21
0.560194
0
LINE
8
BLACK
6
CONTINUOUS
10
0.153017
20
0.560194
11
0.153017
21
0.560194
0
LINE
8
BLACK
6
CONTINUOUS
10
0.153017
20
0.560194
11
0.149806
21
0.556983
0
LINE
8
BLACK
6
CONTINUOUS
10
0.149806
20
0.556983
11
0.149806
21
0.556983
0
LINE
8
BLACK
6
CONTINUOUS
10
0.149806
20
0.556983
11
0.147972
21
0.552829
0
LINE
8
BLACK
6
CONTINUOUS
10
0.147972
20
0.552829
11
0.147972
21
0.552829
0
LINE
8
BLACK
6
CONTINUOUS
10
0.147972
20
0.552829
11
0.147854
21
0.551814
0
LINE
8
BLACK
6
CONTINUOUS
10
0.147854
20
0.551814
11
0.147854
21
0.488186
0
LINE
8
BLACK
6
CONTINUOUS
10
0.147854
20
0.488186
11
0.147972
21
0.487171
0
LINE
8
BLACK
6
CONTINUOUS
10
1.77797
20
0.527171
11
1.77797
21
0.527171
0
LINE
8
BLACK
6
CONTINUOUS
10
1.77797
20
0.527171
11
1.77981
21
0.523017
0
LINE
8
BLACK
6
CONTINUOUS
10
1.77981
20
0.523017
11
1.77981
21
0.523017
0
LINE
8
BLACK
6
CONTINUOUS
10
1.77981
20
0.523017
11
1.78302
21
0.519806
0
LINE
8
BLACK
6
CONTINUOUS
10
1.78302
20
0.519806
11
1.78302
21
0.519806
0
LINE
8
BLACK
6
CONTINUOUS
10
1.78302
20
0.519806
11
1.78717
21
0.517972
0
LINE
8
BLACK
6
CONTINUOUS
10
1.78717
20
0.517972
11
1.78717
21
0.517972
0
LINE
8
BLACK
6
CONTINUOUS
10
1.78717
20
0.517972
11
1.78819
21
0.517854
0
LINE
8
BLACK
6
CONTINUOUS
10
1.78819
20
0.517854
11
1.78819
21
0.517854
0
LINE
8
BLACK
6
CONTINUOUS
10
1.78819
20
0.517854
11
1.85181
21
0.517854
0
LINE
8
BLACK
6
CONTINUOUS
10
1.85181
20
0.517854
11
1.85283
21
0.517972
0
LINE
8
BLACK
6
CONTINUOUS
10
1.85283
20
0.517972
11
1.85283
21
0.517972
0
LINE
8
BLACK
6
CONTINUOUS
10
1.85283
20
0.517972
11
1.85698
21
0.519806
0
LINE
8
BLACK
6
CONTINUOUS
10
1.85698
20
0.519806
11
1.85698
21
0.519806
0
LINE
8
BLACK
6
CONTINUOUS
10
1.85698
20
0.519806
11
1.86019
21
0.523017
0
LINE
8
BLACK
6
CONTINUOUS
10
1.86019
20
0.523017
11
1.86019
21
0.523017
0
LINE
8
BLACK
6
CONTINUOUS
10
1.86019
20
0.523017
11
1.86019
21
0.523017
0
LINE
8
BLACK
6
CONTINUOUS
10
1.86019
20
0.523017
11
1.86203
21
0.527171
0
LINE
8
BLACK
6
CONTINUOUS
10
1.86203
20
0.527171
11
1.86215
21
0.528186
0
LINE
8
BLACK
6
CONTINUOUS
10
1.86215
20
0.528186
11
1.86215
21
0.528186
0
LINE
8
BLACK
6
CONTINUOUS
10
1.86215
20
0.528186
11
1.86215
21
0.591814
0
LINE
8
BLACK
6
CONTINUOUS
10
1.86215
20
0.591814
11
1.86203
21
0.592829
0
LINE
8
BLACK
6
CONTINUOUS
10
1.86203
20
0.592829
11
1.86019
21
0.596983
0
LINE
8
BLACK
6
CONTINUOUS
10
1.86019
20
0.596983
11
1.85698
21
0.600194
0
LINE
8
BLACK
6
CONTINUOUS
10
1.85698
20
0.600194
11
1.85283
21
0.602028
0
LINE
8
BLACK
6
CONTINUOUS
10
1.85283
20
0.602028
11
1.85181
21
0.602146
0
LINE
8
BLACK
6
CONTINUOUS
10
1.85181
20
0.602146
11
1.85181
21
0.602146
0
LINE
8
BLACK
6
CONTINUOUS
10
1.85181
20
0.602146
11
1.85181
21
0.602146
0
LINE
8
BLACK
6
CONTINUOUS
10
1.85181
20
0.602146
11
1.78819
21
0.602146
0
LINE
8
BLACK
6
CONTINUOUS
10
1.78819
20
0.602146
11
1.78819
21
0.602146
0
LINE
8
BLACK
6
CONTINUOUS
10
1.78819
20
0.602146
11
1.78819
21
0.602146
0
LINE
8
BLACK
6
CONTINUOUS
10
1.78819
20
0.602146
11
1.78717
21
0.602028
0
LINE
8
BLACK
6
CONTINUOUS
10
1.78717
20
0.602028
11
1.78302
21
0.600194
0
LINE
8
BLACK
6
CONTINUOUS
10
1.78302
20
0.600194
11
1.78302
21
0.600194
0
LINE
8
BLACK
6
CONTINUOUS
10
1.78302
20
0.600194
11
1.78302
21
0.600194
0
LINE
8
BLACK
6
CONTINUOUS
10
1.78302
20
0.600194
11
1.77981
21
0.596983
0
LINE
8
BLACK
6
CONTINUOUS
10
1.77981
20
0.596983
11
1.77981
21
0.596983
0
LINE
8
BLACK
6
CONTINUOUS
10
1.77981
20
0.596983
11
1.77797
21
0.592829
0
LINE
8
BLACK
6
CONTINUOUS
10
1.77797
20
0.592829
11
1.77797
21
0.592829
0
LINE
8
BLACK
6
CONTINUOUS
10
1.77797
20
0.592829
11
1.77785
21
0.591814
0
LINE
8
BLACK
6
CONTINUOUS
10
1.77785
20
0.591814
11
1.77785
21
0.528186
0
LINE
8
BLACK
6
CONTINUOUS
10
1.77785
20
0.528186
11
1.77797
21
0.527171
0
LINE
8
BLACK
6
CONTINUOUS
10
1.87797
20
0.527171
11
1.87797
21
0.527171
0
LINE
8
BLACK
6
CONTINUOUS
10
1.87797
20
0.527171
11
1.87981
21
0.523017
0
LINE
8
BLACK
6
CONTINUOUS
10
1.87981
20
0.523017
11
1.87981
21
0.523017
0
LINE
8
BLACK
6
CONTINUOUS
10
1.87981
20
0.523017
11
1.88302
21
0.519806
0
LINE
8
BLACK
6
CONTINUOUS
10
1.88302
20
0.519806
11
1.88302
21
0.519806
0
LINE
8
BLACK
6
CONTINUOUS
10
1.88302
20
0.519806
11
1.88717
21
0.517972
0
LINE
8
BLACK
6
CONTINUOUS
10
1.88717
20
0.517972
11
1.88717
21
0.517972
0
LINE
8
BLACK
6
CONTINUOUS
10
1.88717
20
0.517972
11
1.88819
21
0.517854
0
LINE
8
BLACK
6
CONTINUOUS
10
1.88819
20
0.517854
11
1.88819
21
0.517854
0
LINE
8
BLACK
6
CONTINUOUS
10
1.88819
20
0.517854
11
1.95181
21
0.517854
0
LINE
8
BLACK
6
CONTINUOUS
10
1.95181
20
0.517854
11
1.95283
21
0.517972
0
LINE
8
BLACK
6
CONTINUOUS
10
1.95283
20
0.517972
11
1.95283
21
0.517972
0
LINE
8
BLACK
6
CONTINUOUS
10
1.95283
20
0.517972
11
1.95698
21
0.519806
0
LINE
8
BLACK
6
CONTINUOUS
10
1.95698
20
0.519806
11
1.95698
21
0.519806
0
LINE
8
BLACK
6
CONTINUOUS
10
1.95698
20
0.519806
11
1.96019
21
0.523017
0
LINE
8
BLACK
6
CONTINUOUS
10
1.96019
20
0.523017
11
1.96019
21
0.523017
0
LINE
8
BLACK
6
CONTINUOUS
10
1.96019
20
0.523017
11
1.96019
21
0.523017
0
LINE
8
BLACK
6
CONTINUOUS
10
1.96019
20
0.523017
11
1.96203
21
0.527171
0
LINE
8
BLACK
6
CONTINUOUS
10
1.96203
20
0.527171
11
1.96215
21
0.528186
0
LINE
8
BLACK
6
CONTINUOUS
10
1.96215
20
0.528186
11
1.96215
21
0.591814
0
LINE
8
BLACK
6
CONTINUOUS
10
1.96215
20
0.591814
11
1.96203
21
0.592829
0
LINE
8
BLACK
6
CONTINUOUS
10
1.96203
20
0.592829
11
1.96019
21
0.596983
0
LINE
8
BLACK
6
CONTINUOUS
10
1.96019
20
0.596983
11
1.95698
21
0.600194
0
LINE
8
BLACK
6
CONTINUOUS
10
1.95698
20
0.600194
11
1.95283
21
0.602028
0
LINE
8
BLACK
6
CONTINUOUS
10
1.95283
20
0.602028
11
1.95181
21
0.602146
0
LINE
8
BLACK
6
CONTINUOUS
10
1.95181
20
0.602146
11
1.95181
21
0.602146
0
LINE
8
BLACK
6
CONTINUOUS
10
1.95181
20
0.602146
11
1.95181
21
0.602146
0
LINE
8
BLACK
6
CONTINUOUS
10
1.95181
20
0.602146
11
1.88819
21
0.602146
0
LINE
8
BLACK
6
CONTINUOUS
10
1.88819
20
0.602146
11
1.88819
21
0.602146
0
LINE
8
BLACK
6
CONTINUOUS
10
1.88819
20
0.602146
11
1.88819
21
0.602146
0
LINE
8
BLACK
6
CONTINUOUS
10
1.88819
20
0.602146
11
1.88717
21
0.602028
0
LINE
8
BLACK
6
CONTINUOUS
10
1.88717
20
0.602028
11
1.88302
21
0.600194
0
LINE
8
BLACK
6
CONTINUOUS
10
1.88302
20
0.600194
11
1.88302
21
0.600194
0
LINE
8
BLACK
6
CONTINUOUS
10
1.88302
20
0.600194
11
1.88302
21
0.600194
0
LINE
8
BLACK
6
CONTINUOUS
10
1.88302
20
0.600194
11
1.87981
21
0.596983
0
LINE
8
BLACK
6
CONTINUOUS
10
1.87981
20
0.596983
11
1.87981
21
0.596983
0
LINE
8
BLACK
6
CONTINUOUS
10
1.87981
20
0.596983
11
1.87797
21
0.592829
0
LINE
8
BLACK
6
CONTINUOUS
10
1.87797
20
0.592829
11
1.87797
21
0.592829
0
LINE
8
BLACK
6
CONTINUOUS
10
1.87797
20
0.592829
11
1.87785
21
0.591814
0
LINE
8
BLACK
6
CONTINUOUS
10
1.87785
20
0.591814
11
1.87785
21
0.528186
0
LINE
8
BLACK
6
CONTINUOUS
10
1.87785
20
0.528186
11
1.87797
21
0.527171
0
LINE
8
BLACK
6
CONTINUOUS
10
0.0479721
20
0.587171
11
0.0479721
21
0.587171
0
LINE
8
BLACK
6
CONTINUOUS
10
0.0479721
20
0.587171
11
0.0498063
21
0.583017
0
LINE
8
BLACK
6
CONTINUOUS
10
0.0498063
20
0.583017
11
0.0498063
21
0.583017
0
LINE
8
BLACK
6
CONTINUOUS
10
0.0498063
20
0.583017
11
0.053017
21
0.579806
0
LINE
8
BLACK
6
CONTINUOUS
10
0.053017
20
0.579806
11
0.0530171
21
0.579806
0
LINE
8
BLACK
6
CONTINUOUS
10
0.0530171
20
0.579806
11
0.057171
21
0.577972
0
LINE
8
BLACK
6
CONTINUOUS
10
0.057171
20
0.577972
11
0.0571712
21
0.577972
0
LINE
8
BLACK
6
CONTINUOUS
10
0.0571712
20
0.577972
11
0.0581862
21
0.577854
0
LINE
8
BLACK
6
CONTINUOUS
10
0.0581862
20
0.577854
11
0.0581865
21
0.577854
0
LINE
8
BLACK
6
CONTINUOUS
10
0.0581865
20
0.577854
11
0.121814
21
0.577854
0
LINE
8
BLACK
6
CONTINUOUS
10
0.121814
20
0.577854
11
0.122829
21
0.577972
0
LINE
8
BLACK
6
CONTINUOUS
10
0.122829
20
0.577972
11
0.122829
21
0.577972
0
LINE
8
BLACK
6
CONTINUOUS
10
0.122829
20
0.577972
11
0.126983
21
0.579806
0
LINE
8
BLACK
6
CONTINUOUS
10
0.126983
20
0.579806
11
0.126983
21
0.579806
0
LINE
8
BLACK
6
CONTINUOUS
10
0.126983
20
0.579806
11
0.130194
21
0.583017
0
LINE
8
BLACK
6
CONTINUOUS
10
0.130194
20
0.583017
11
0.130194
21
0.583017
0
LINE
8
BLACK
6
CONTINUOUS
10
0.130194
20
0.583017
11
0.130194
21
0.583017
0
LINE
8
BLACK
6
CONTINUOUS
10
0.130194
20
0.583017
11
0.132028
21
0.587171
0
LINE
8
BLACK
6
CONTINUOUS
10
0.132028
20
0.587171
11
0.132146
21
0.588186
0
LINE
8
BLACK
6
CONTINUOUS
10
0.132146
20
0.588186
11
0.132146
21
0.588186
0
LINE
8
BLACK
6
CONTINUOUS
10
0.132146
20
0.588186
11
0.132146
21
0.651814
0
LINE
8
BLACK
6
CONTINUOUS
10
0.132146
20
0.651814
11
0.132028
21
0.652829
0
LINE
8
BLACK
6
CONTINUOUS
10
0.132028
20
0.652829
11
0.130194
21
0.656983
0
LINE
8
BLACK
6
CONTINUOUS
10
0.130194
20
0.656983
11
0.126983
21
0.660194
0
LINE
8
BLACK
6
CONTINUOUS
10
0.126983
20
0.660194
11
0.122829
21
0.662028
0
LINE
8
BLACK
6
CONTINUOUS
10
0.122829
20
0.662028
11
0.121814
21
0.662146
0
LINE
8
BLACK
6
CONTINUOUS
10
0.121814
20
0.662146
11
0.121814
21
0.662146
0
LINE
8
BLACK
6
CONTINUOUS
10
0.121814
20
0.662146
11
0.121814
21
0.662146
0
LINE
8
BLACK
6
CONTINUOUS
10
0.121814
20
0.662146
11
0.0581865
21
0.662146
0
LINE
8
BLACK
6
CONTINUOUS
10
0.0581865
20
0.662146
11
0.0581864
21
0.662146
0
LINE
8
BLACK
6
CONTINUOUS
10
0.0581864
20
0.662146
11
0.0581863
21
0.662146
0
LINE
8
BLACK
6
CONTINUOUS
10
0.0581863
20
0.662146
11
0.0571711
21
0.662028
0
LINE
8
BLACK
6
CONTINUOUS
10
0.0571711
20
0.662028
11
0.0530171
21
0.660194
0
LINE
8
BLACK
6
CONTINUOUS
10
0.0530171
20
0.660194
11
0.053017
21
0.660194
0
LINE
8
BLACK
6
CONTINUOUS
10
0.053017
20
0.660194
11
0.0530171
21
0.660194
0
LINE
8
BLACK
6
CONTINUOUS
10
0.0530171
20
0.660194
11
0.053017
21
0.660194
0
LINE
8
BLACK
6
CONTINUOUS
10
0.053017
20
0.660194
11
0.0498063
21
0.656983
0
LINE
8
BLACK
6
CONTINUOUS
10
0.0498063
20
0.656983
11
0.0498063
21
0.656983
0
LINE
8
BLACK
6
CONTINUOUS
10
0.0498063
20
0.656983
11
0.0479721
21
0.652829
0
LINE
8
BLACK
6
CONTINUOUS
10
0.0479721
20
0.652829
11
0.0479721
21
0.652829
0
LINE
8
BLACK
6
CONTINUOUS
10
0.0479721
20
0.652829
11
0.0478543
21
0.651814
0
LINE
8
BLACK
6
CONTINUOUS
10
0.0478543
20
0.651814
11
0.0478543
21
0.588186
0
LINE
8
BLACK
6
CONTINUOUS
10
0.0478543
20
0.588186
11
0.0479721
21
0.587171
0
LINE
8
BLACK
6
CONTINUOUS
10
0.147972
20
0.587171
11
0.147972
21
0.587171
0
LINE
8
BLACK
6
CONTINUOUS
10
0.147972
20
0.587171
11
0.149806
21
0.583017
0
LINE
8
BLACK
6
CONTINUOUS
10
0.149806
20
0.583017
11
0.149806
21
0.583017
0
LINE
8
BLACK
6
CONTINUOUS
10
0.149806
20
0.583017
11
0.153017
21
0.579806
0
LINE
8
BLACK
6
CONTINUOUS
10
0.153017
20
0.579806
11
0.153017
21
0.579806
0
LINE
8
BLACK
6
CONTINUOUS
10
0.153017
20
0.579806
11
0.157171
21
0.577972
0
LINE
8
BLACK
6
CONTINUOUS
10
0.157171
20
0.577972
11
0.157171
21
0.577972
0
LINE
8
BLACK
6
CONTINUOUS
10
0.157171
20
0.577972
11
0.158186
21
0.577854
0
LINE
8
BLACK
6
CONTINUOUS
10
0.158186
20
0.577854
11
0.158186
21
0.577854
0
LINE
8
BLACK
6
CONTINUOUS
10
0.158186
20
0.577854
11
0.221814
21
0.577854
0
LINE
8
BLACK
6
CONTINUOUS
10
0.221814
20
0.577854
11
0.222829
21
0.577972
0
LINE
8
BLACK
6
CONTINUOUS
10
0.222829
20
0.577972
11
0.222829
21
0.577972
0
LINE
8
BLACK
6
CONTINUOUS
10
0.222829
20
0.577972
11
0.226983
21
0.579806
0
LINE
8
BLACK
6
CONTINUOUS
10
0.226983
20
0.579806
11
0.226983
21
0.579806
0
LINE
8
BLACK
6
CONTINUOUS
10
0.226983
20
0.579806
11
0.230194
21
0.583017
0
LINE
8
BLACK
6
CONTINUOUS
10
0.230194
20
0.583017
11
0.230194
21
0.583017
0
LINE
8
BLACK
6
CONTINUOUS
10
0.230194
20
0.583017
11
0.230194
21
0.583017
0
LINE
8
BLACK
6
CONTINUOUS
10
0.230194
20
0.583017
11
0.232028
21
0.587171
0
LINE
8
BLACK
6
CONTINUOUS
10
0.232028
20
0.587171
11
0.232146
21
0.588186
0
LINE
8
BLACK
6
CONTINUOUS
10
0.232146
20
0.588186
11
0.232146
21
0.651814
0
LINE
8
BLACK
6
CONTINUOUS
10
0.232146
20
0.651814
11
0.232028
21
0.652829
0
LINE
8
BLACK
6
CONTINUOUS
10
0.232028
20
0.652829
11
0.230194
21
0.656983
0
LINE
8
BLACK
6
CONTINUOUS
10
0.230194
20
0.656983
11
0.226983
21
0.660194
0
LINE
8
BLACK
6
CONTINUOUS
10
0.226983
20
0.660194
11
0.222829
21
0.662028
0
LINE
8
BLACK
6
CONTINUOUS
10
0.222829
20
0.662028
11
0.221814
21
0.662146
0
LINE
8
BLACK
6
CONTINUOUS
10
0.221814
20
0.662146
11
0.221814
21
0.662146
0
LINE
8
BLACK
6
CONTINUOUS
10
0.221814
20
0.662146
11
0.221814
21
0.662146
0
LINE
8
BLACK
6
CONTINUOUS
10
0.221814
20
0.662146
11
0.158186
21
0.662146
0
LINE
8
BLACK
6
CONTINUOUS
10
0.158186
20
0.662146
11
0.158186
21
0.662146
0
LINE
8
BLACK
6
CONTINUOUS
10
0.158186
20
0.662146
11
0.158186
21
0.662146
0
LINE
8
BLACK
6
CONTINUOUS
10
0.158186
20
0.662146
11
0.157171
21
0.662028
0
LINE
8
BLACK
6
CONTINUOUS
10
0.157171
20
0.662028
11
0.153017
21
0.660194
0
LINE
8
BLACK
6
CONTINUOUS
10
0.153017
20
0.660194
11
0.153017
21
0.660194
0
LINE
8
BLACK
6
CONTINUOUS
10
0.153017
20
0.660194
11
0.153017
21
0.660194
0
LINE
8
BLACK
6
CONTINUOUS
10
0.153017
20
0.660194
11
0.153017
21
0.660194
0
LINE
8
BLACK
6
CONTINUOUS
10
0.153017
20
0.660194
11
0.149806
21
0.656983
0
LINE
8
BLACK
6
CONTINUOUS
10
0.149806
20
0.656983
11
0.149806
21
0.656983
0
LINE
8
BLACK
6
CONTINUOUS
10
0.149806
20
0.656983
11
0.147972
21
0.652829
0
LINE
8
BLACK
6
CONTINUOUS
10
0.147972
20
0.652829
11
0.147972
21
0.652829
0
LINE
8
BLACK
6
CONTINUOUS
10
0.147972
20
0.652829
11
0.147854
21
0.651814
0
LINE
8
BLACK
6
CONTINUOUS
10
0.147854
20
0.651814
11
0.147854
21
0.588186
0
LINE
8
BLACK
6
CONTINUOUS
10
0.147854
20
0.588186
11
0.147972
21
0.587171
0
LINE
8
BLACK
6
CONTINUOUS
10
1.38797
20
0.667171
11
1.38797
21
0.667171
0
LINE
8
BLACK
6
CONTINUOUS
10
1.38797
20
0.667171
11
1.38981
21
0.663017
0
LINE
8
BLACK
6
CONTINUOUS
10
1.38981
20
0.663017
11
1.38981
21
0.663017
0
LINE
8
BLACK
6
CONTINUOUS
10
1.38981
20
0.663017
11
1.39302
21
0.659806
0
LINE
8
BLACK
6
CONTINUOUS
10
1.39302
20
0.659806
11
1.39302
21
0.659806
0
LINE
8
BLACK
6
CONTINUOUS
10
1.39302
20
0.659806
11
1.39717
21
0.657972
0
LINE
8
BLACK
6
CONTINUOUS
10
1.39717
20
0.657972
11
1.39717
21
0.657972
0
LINE
8
BLACK
6
CONTINUOUS
10
1.39717
20
0.657972
11
1.39819
21
0.657854
0
LINE
8
BLACK
6
CONTINUOUS
10
1.39819
20
0.657854
11
1.39819
21
0.657854
0
LINE
8
BLACK
6
CONTINUOUS
10
1.39819
20
0.657854
11
1.46181
21
0.657854
0
LINE
8
BLACK
6
CONTINUOUS
10
1.46181
20
0.657854
11
1.46283
21
0.657972
0
LINE
8
BLACK
6
CONTINUOUS
10
1.46283
20
0.657972
11
1.46283
21
0.657972
0
LINE
8
BLACK
6
CONTINUOUS
10
1.46283
20
0.657972
11
1.46698
21
0.659806
0
LINE
8
BLACK
6
CONTINUOUS
10
1.46698
20
0.659806
11
1.46698
21
0.659806
0
LINE
8
BLACK
6
CONTINUOUS
10
1.46698
20
0.659806
11
1.47019
21
0.663017
0
LINE
8
BLACK
6
CONTINUOUS
10
1.47019
20
0.663017
11
1.47019
21
0.663017
0
LINE
8
BLACK
6
CONTINUOUS
10
1.47019
20
0.663017
11
1.47019
21
0.663017
0
LINE
8
BLACK
6
CONTINUOUS
10
1.47019
20
0.663017
11
1.47203
21
0.667171
0
LINE
8
BLACK
6
CONTINUOUS
10
1.47203
20
0.667171
11
1.47215
21
0.668186
0
LINE
8
BLACK
6
CONTINUOUS
10
1.47215
20
0.668186
11
1.47215
21
0.668186
0
LINE
8
BLACK
6
CONTINUOUS
10
1.47215
20
0.668186
11
1.47215
21
0.731814
0
LINE
8
BLACK
6
CONTINUOUS
10
1.47215
20
0.731814
11
1.47203
21
0.732829
0
LINE
8
BLACK
6
CONTINUOUS
10
1.47203
20
0.732829
11
1.47019
21
0.736983
0
LINE
8
BLACK
6
CONTINUOUS
10
1.47019
20
0.736983
11
1.46698
21
0.740194
0
LINE
8
BLACK
6
CONTINUOUS
10
1.46698
20
0.740194
11
1.46283
21
0.742028
0
LINE
8
BLACK
6
CONTINUOUS
10
1.46283
20
0.742028
11
1.46181
21
0.742146
0
LINE
8
BLACK
6
CONTINUOUS
10
1.46181
20
0.742146
11
1.46181
21
0.742146
0
LINE
8
BLACK
6
CONTINUOUS
10
1.46181
20
0.742146
11
1.46181
21
0.742146
0
LINE
8
BLACK
6
CONTINUOUS
10
1.46181
20
0.742146
11
1.39819
21
0.742146
0
LINE
8
BLACK
6
CONTINUOUS
10
1.39819
20
0.742146
11
1.39819
21
0.742146
0
LINE
8
BLACK
6
CONTINUOUS
10
1.39819
20
0.742146
11
1.39819
21
0.742146
0
LINE
8
BLACK
6
CONTINUOUS
10
1.39819
20
0.742146
11
1.39717
21
0.742028
0
LINE
8
BLACK
6
CONTINUOUS
10
1.39717
20
0.742028
11
1.39302
21
0.740194
0
LINE
8
BLACK
6
CONTINUOUS
10
1.39302
20
0.740194
11
1.39302
21
0.740194
0
LINE
8
BLACK
6
CONTINUOUS
10
1.39302
20
0.740194
11
1.39302
21
0.740194
0
LINE
8
BLACK
6
CONTINUOUS
10
1.39302
20
0.740194
11
1.38981
21
0.736983
0
LINE
8
BLACK
6
CONTINUOUS
10
1.38981
20
0.736983
11
1.38981
21
0.736983
0
LINE
8
BLACK
6
CONTINUOUS
10
1.38981
20
0.736983
11
1.38797
21
0.732829
0
LINE
8
BLACK
6
CONTINUOUS
10
1.38797
20
0.732829
11
1.38797
21
0.732829
0
LINE
8
BLACK
6
CONTINUOUS
10
1.38797
20
0.732829
11
1.38785
21
0.731814
0
LINE
8
BLACK
6
CONTINUOUS
10
1.38785
20
0.731814
11
1.38785
21
0.668186
0
LINE
8
BLACK
6
CONTINUOUS
10
1.38785
20
0.668186
11
1.38797
21
0.667171
0
LINE
8
BLACK
6
CONTINUOUS
10
1.48797
20
0.667171
11
1.48797
21
0.667171
0
LINE
8
BLACK
6
CONTINUOUS
10
1.48797
20
0.667171
11
1.48981
21
0.663017
0
LINE
8
BLACK
6
CONTINUOUS
10
1.48981
20
0.663017
11
1.48981
21
0.663017
0
LINE
8
BLACK
6
CONTINUOUS
10
1.48981
20
0.663017
11
1.49302
21
0.659806
0
LINE
8
BLACK
6
CONTINUOUS
10
1.49302
20
0.659806
11
1.49302
21
0.659806
0
LINE
8
BLACK
6
CONTINUOUS
10
1.49302
20
0.659806
11
1.49717
21
0.657972
0
LINE
8
BLACK
6
CONTINUOUS
10
1.49717
20
0.657972
11
1.49717
21
0.657972
0
LINE
8
BLACK
6
CONTINUOUS
10
1.49717
20
0.657972
11
1.49819
21
0.657854
0
LINE
8
BLACK
6
CONTINUOUS
10
1.49819
20
0.657854
11
1.49819
21
0.657854
0
LINE
8
BLACK
6
CONTINUOUS
10
1.49819
20
0.657854
11
1.56181
21
0.657854
0
LINE
8
BLACK
6
CONTINUOUS
10
1.56181
20
0.657854
11
1.56283
21
0.657972
0
LINE
8
BLACK
6
CONTINUOUS
10
1.56283
20
0.657972
11
1.56283
21
0.657972
0
LINE
8
BLACK
6
CONTINUOUS
10
1.56283
20
0.657972
11
1.56698
21
0.659806
0
LINE
8
BLACK
6
CONTINUOUS
10
1.56698
20
0.659806
11
1.56698
21
0.659806
0
LINE
8
BLACK
6
CONTINUOUS
10
1.56698
20
0.659806
11
1.57019
21
0.663017
0
LINE
8
BLACK
6
CONTINUOUS
10
1.57019
20
0.663017
11
1.57019
21
0.663017
0
LINE
8
BLACK
6
CONTINUOUS
10
1.57019
20
0.663017
11
1.57019
21
0.663017
0
LINE
8
BLACK
6
CONTINUOUS
10
1.57019
20
0.663017
11
1.57203
21
0.667171
0
LINE
8
BLACK
6
CONTINUOUS
10
1.57203
20
0.667171
11
1.57215
21
0.668186
0
LINE
8
BLACK
6
CONTINUOUS
10
1.57215
20
0.668186
11
1.57215
21
0.731814
0
LINE
8
BLACK
6
CONTINUOUS
10
1.57215
20
0.731814
11
1.57203
21
0.732829
0
LINE
8
BLACK
6
CONTINUOUS
10
1.57203
20
0.732829
11
1.57019
21
0.736983
0
LINE
8
BLACK
6
CONTINUOUS
10
1.57019
20
0.736983
11
1.56698
21
0.740194
0
LINE
8
BLACK
6
CONTINUOUS
10
1.56698
20
0.740194
11
1.56283
21
0.742028
0
LINE
8
BLACK
6
CONTINUOUS
10
1.56283
20
0.742028
11
1.56181
21
0.742146
0
LINE
8
BLACK
6
CONTINUOUS
10
1.56181
20
0.742146
11
1.56181
21
0.742146
0
LINE
8
BLACK
6
CONTINUOUS
10
1.56181
20
0.742146
11
1.56181
21
0.742146
0
LINE
8
BLACK
6
CONTINUOUS
10
1.56181
20
0.742146
11
1.49819
21
0.742146
0
LINE
8
BLACK
6
CONTINUOUS
10
1.49819
20
0.742146
11
1.49819
21
0.742146
0
LINE
8
BLACK
6
CONTINUOUS
10
1.49819
20
0.742146
11
1.49819
21
0.742146
0
LINE
8
BLACK
6
CONTINUOUS
10
1.49819
20
0.742146
11
1.49717
21
0.742028
0
LINE
8
BLACK
6
CONTINUOUS
10
1.49717
20
0.742028
11
1.49302
21
0.740194
0
LINE
8
BLACK
6
CONTINUOUS
10
1.49302
20
0.740194
11
1.49302
21
0.740194
0
LINE
8
BLACK
6
CONTINUOUS
10
1.49302
20
0.740194
11
1.49302
21
0.740194
0
LINE
8
BLACK
6
CONTINUOUS
10
1.49302
20
0.740194
11
1.48981
21
0.736983
0
LINE
8
BLACK
6
CONTINUOUS
10
1.48981
20
0.736983
11
1.48981
21
0.736983
0
LINE
8
BLACK
6
CONTINUOUS
10
1.48981
20
0.736983
11
1.48797
21
0.732829
0
LINE
8
BLACK
6
CONTINUOUS
10
1.48797
20
0.732829
11
1.48797
21
0.732829
0
LINE
8
BLACK
6
CONTINUOUS
10
1.48797
20
0.732829
11
1.48785
21
0.731814
0
LINE
8
BLACK
6
CONTINUOUS
10
1.48785
20
0.731814
11
1.48785
21
0.668186
0
LINE
8
BLACK
6
CONTINUOUS
10
1.48785
20
0.668186
11
1.48797
21
0.667171
0
LINE
8
BLACK
6
CONTINUOUS
10
0.0479721
20
0.687171
11
0.0479721
21
0.687171
0
LINE
8
BLACK
6
CONTINUOUS
10
0.0479721
20
0.687171
11
0.0498063
21
0.683017
0
LINE
8
BLACK
6
CONTINUOUS
10
0.0498063
20
0.683017
11
0.0498063
21
0.683017
0
LINE
8
BLACK
6
CONTINUOUS
10
0.0498063
20
0.683017
11
0.053017
21
0.679806
0
LINE
8
BLACK
6
CONTINUOUS
10
0.053017
20
0.679806
11
0.0530171
21
0.679806
0
LINE
8
BLACK
6
CONTINUOUS
10
0.0530171
20
0.679806
11
0.057171
21
0.677972
0
LINE
8
BLACK
6
CONTINUOUS
10
0.057171
20
0.677972
11
0.0571712
21
0.677972
0
LINE
8
BLACK
6
CONTINUOUS
10
0.0571712
20
0.677972
11
0.0581862
21
0.677854
0
LINE
8
BLACK
6
CONTINUOUS
10
0.0581862
20
0.677854
11
0.0581865
21
0.677854
0
LINE
8
BLACK
6
CONTINUOUS
10
0.0581865
20
0.677854
11
0.121814
21
0.677854
0
LINE
8
BLACK
6
CONTINUOUS
10
0.121814
20
0.677854
11
0.122829
21
0.677972
0
LINE
8
BLACK
6
CONTINUOUS
10
0.122829
20
0.677972
11
0.122829
21
0.677972
0
LINE
8
BLACK
6
CONTINUOUS
10
0.122829
20
0.677972
11
0.126983
21
0.679806
0
LINE
8
BLACK
6
CONTINUOUS
10
0.126983
20
0.679806
11
0.126983
21
0.679806
0
LINE
8
BLACK
6
CONTINUOUS
10
0.126983
20
0.679806
11
0.130194
21
0.683017
0
LINE
8
BLACK
6
CONTINUOUS
10
0.130194
20
0.683017
11
0.130194
21
0.683017
0
LINE
8
BLACK
6
CONTINUOUS
10
0.130194
20
0.683017
11
0.130194
21
0.683017
0
LINE
8
BLACK
6
CONTINUOUS
10
0.130194
20
0.683017
11
0.132028
21
0.687171
0
LINE
8
BLACK
6
CONTINUOUS
10
0.132028
20
0.687171
11
0.132146
21
0.688186
0
LINE
8
BLACK
6
CONTINUOUS
10
0.132146
20
0.688186
11
0.132146
21
0.688186
0
LINE
8
BLACK
6
CONTINUOUS
10
0.132146
20
0.688186
11
0.132146
21
0.751814
0
LINE
8
BLACK
6
CONTINUOUS
10
0.132146
20
0.751814
11
0.132028
21
0.752829
0
LINE
8
BLACK
6
CONTINUOUS
10
0.132028
20
0.752829
11
0.130194
21
0.756983
0
LINE
8
BLACK
6
CONTINUOUS
10
0.130194
20
0.756983
11
0.126983
21
0.760194
0
LINE
8
BLACK
6
CONTINUOUS
10
0.126983
20
0.760194
11
0.122829
21
0.762028
0
LINE
8
BLACK
6
CONTINUOUS
10
0.122829
20
0.762028
11
0.121814
21
0.762146
0
LINE
8
BLACK
6
CONTINUOUS
10
0.121814
20
0.762146
11
0.121814
21
0.762146
0
LINE
8
BLACK
6
CONTINUOUS
10
0.121814
20
0.762146
11
0.121814
21
0.762146
0
LINE
8
BLACK
6
CONTINUOUS
10
0.121814
20
0.762146
11
0.0581865
21
0.762146
0
LINE
8
BLACK
6
CONTINUOUS
10
0.0581865
20
0.762146
11
0.0581864
21
0.762146
0
LINE
8
BLACK
6
CONTINUOUS
10
0.0581864
20
0.762146
11
0.0581863
21
0.762146
0
LINE
8
BLACK
6
CONTINUOUS
10
0.0581863
20
0.762146
11
0.0571711
21
0.762028
0
LINE
8
BLACK
6
CONTINUOUS
10
0.0571711
20
0.762028
11
0.0530171
21
0.760194
0
LINE
8
BLACK
6
CONTINUOUS
10
0.0530171
20
0.760194
11
0.053017
21
0.760194
0
LINE
8
BLACK
6
CONTINUOUS
10
0.053017
20
0.760194
11
0.0530171
21
0.760194
0
LINE
8
BLACK
6
CONTINUOUS
10
0.0530171
20
0.760194
11
0.053017
21
0.760194
0
LINE
8
BLACK
6
CONTINUOUS
10
0.053017
20
0.760194
11
0.0498063
21
0.756983
0
LINE
8
BLACK
6
CONTINUOUS
10
0.0498063
20
0.756983
11
0.0498063
21
0.756983
0
LINE
8
BLACK
6
CONTINUOUS
10
0.0498063
20
0.756983
11
0.0479721
21
0.752829
0
LINE
8
BLACK
6
CONTINUOUS
10
0.0479721
20
0.752829
11
0.0479721
21
0.752829
0
LINE
8
BLACK
6
CONTINUOUS
10
0.0479721
20
0.752829
11
0.0478543
21
0.751814
0
LINE
8
BLACK
6
CONTINUOUS
10
0.0478543
20
0.751814
11
0.0478543
21
0.688186
0
LINE
8
BLACK
6
CONTINUOUS
10
0.0478543
20
0.688186
11
0.0479721
21
0.687171
0
LINE
8
BLACK
6
CONTINUOUS
10
0.147972
20
0.687171
11
0.147972
21
0.687171
0
LINE
8
BLACK
6
CONTINUOUS
10
0.147972
20
0.687171
11
0.149806
21
0.683017
0
LINE
8
BLACK
6
CONTINUOUS
10
0.149806
20
0.683017
11
0.149806
21
0.683017
0
LINE
8
BLACK
6
CONTINUOUS
10
0.149806
20
0.683017
11
0.153017
21
0.679806
0
LINE
8
BLACK
6
CONTINUOUS
10
0.153017
20
0.679806
11
0.153017
21
0.679806
0
LINE
8
BLACK
6
CONTINUOUS
10
0.153017
20
0.679806
11
0.157171
21
0.677972
0
LINE
8
BLACK
6
CONTINUOUS
10
0.157171
20
0.677972
11
0.157171
21
0.677972
0
LINE
8
BLACK
6
CONTINUOUS
10
0.157171
20
0.677972
11
0.158186
21
0.677854
0
LINE
8
BLACK
6
CONTINUOUS
10
0.158186
20
0.677854
11
0.158186
21
0.677854
0
LINE
8
BLACK
6
CONTINUOUS
10
0.158186
20
0.677854
11
0.221814
21
0.677854
0
LINE
8
BLACK
6
CONTINUOUS
10
0.221814
20
0.677854
11
0.222829
21
0.677972
0
LINE
8
BLACK
6
CONTINUOUS
10
0.222829
20
0.677972
11
0.222829
21
0.677972
0
LINE
8
BLACK
6
CONTINUOUS
10
0.222829
20
0.677972
11
0.226983
21
0.679806
0
LINE
8
BLACK
6
CONTINUOUS
10
0.226983
20
0.679806
11
0.226983
21
0.679806
0
LINE
8
BLACK
6
CONTINUOUS
10
0.226983
20
0.679806
11
0.230194
21
0.683017
0
LINE
8
BLACK
6
CONTINUOUS
10
0.230194
20
0.683017
11
0.230194
21
0.683017
0
LINE
8
BLACK
6
CONTINUOUS
10
0.230194
20
0.683017
11
0.230194
21
0.683017
0
LINE
8
BLACK
6
CONTINUOUS
10
0.230194
20
0.683017
11
0.232028
21
0.687171
0
LINE
8
BLACK
6
CONTINUOUS
10
0.232028
20
0.687171
11
0.232146
21
0.688186
0
LINE
8
BLACK
6
CONTINUOUS
10
0.232146
20
0.688186
11
0.232146
21
0.751814
0
LINE
8
BLACK
6
CONTINUOUS
10
0.232146
20
0.751814
11
0.232028
21
0.752829
0
LINE
8
BLACK
6
CONTINUOUS
10
0.232028
20
0.752829
11
0.230194
21
0.756983
0
LINE
8
BLACK
6
CONTINUOUS
10
0.230194
20
0.756983
11
0.226983
21
0.760194
0
LINE
8
BLACK
6
CONTINUOUS
10
0.226983
20
0.760194
11
0.222829
21
0.762028
0
LINE
8
BLACK
6
CONTINUOUS
10
0.222829
20
0.762028
11
0.221814
21
0.762146
0
LINE
8
BLACK
6
CONTINUOUS
10
0.221814
20
0.762146
11
0.221814
21
0.762146
0
LINE
8
BLACK
6
CONTINUOUS
10
0.221814
20
0.762146
11
0.221814
21
0.762146
0
LINE
8
BLACK
6
CONTINUOUS
10
0.221814
20
0.762146
11
0.158186
21
0.762146
0
LINE
8
BLACK
6
CONTINUOUS
10
0.158186
20
0.762146
11
0.158186
21
0.762146
0
LINE
8
BLACK
6
CONTINUOUS
10
0.158186
20
0.762146
11
0.158186
21
0.762146
0
LINE
8
BLACK
6
CONTINUOUS
10
0.158186
20
0.762146
11
0.157171
21
0.762028
0
LINE
8
BLACK
6
CONTINUOUS
10
0.157171
20
0.762028
11
0.153017
21
0.760194
0
LINE
8
BLACK
6
CONTINUOUS
10
0.153017
20
0.760194
11
0.153017
21
0.760194
0
LINE
8
BLACK
6
CONTINUOUS
10
0.153017
20
0.760194
11
0.153017
21
0.760194
0
LINE
8
BLACK
6
CONTINUOUS
10
0.153017
20
0.760194
11
0.153017
21
0.760194
0
LINE
8
BLACK
6
CONTINUOUS
10
0.153017
20
0.760194
11
0.149806
21
0.756983
0
LINE
8
BLACK
6
CONTINUOUS
10
0.149806
20
0.756983
11
0.149806
21
0.756983
0
LINE
8
BLACK
6
CONTINUOUS
10
0.149806
20
0.756983
11
0.147972
21
0.752829
0
LINE
8
BLACK
6
CONTINUOUS
10
0.147972
20
0.752829
11
0.147972
21
0.752829
0
LINE
8
BLACK
6
CONTINUOUS
10
0.147972
20
0.752829
11
0.147854
21
0.751814
0
LINE
8
BLACK
6
CONTINUOUS
10
0.147854
20
0.751814
11
0.147854
21
0.688186
0
LINE
8
BLACK
6
CONTINUOUS
10
0.147854
20
0.688186
11
0.147972
21
0.687171
0
LINE
8
BLACK
6
CONTINUOUS
10
1.72797
20
0.787171
11
1.72797
21
0.787171
0
LINE
8
BLACK
6
CONTINUOUS
10
1.72797
20
0.787171
11
1.72981
21
0.783017
0
LINE
8
BLACK
6
CONTINUOUS
10
1.72981
20
0.783017
11
1.72981
21
0.783017
0
LINE
8
BLACK
6
CONTINUOUS
10
1.72981
20
0.783017
11
1.73302
21
0.779806
0
LINE
8
BLACK
6
CONTINUOUS
10
1.73302
20
0.779806
11
1.73302
21
0.779806
0
LINE
8
BLACK
6
CONTINUOUS
10
1.73302
20
0.779806
11
1.73717
21
0.777972
0
LINE
8
BLACK
6
CONTINUOUS
10
1.73717
20
0.777972
11
1.73717
21
0.777972
0
LINE
8
BLACK
6
CONTINUOUS
10
1.73717
20
0.777972
11
1.73819
21
0.777854
0
LINE
8
BLACK
6
CONTINUOUS
10
1.73819
20
0.777854
11
1.73819
21
0.777854
0
LINE
8
BLACK
6
CONTINUOUS
10
1.73819
20
0.777854
11
1.80181
21
0.777854
0
LINE
8
BLACK
6
CONTINUOUS
10
1.80181
20
0.777854
11
1.80283
21
0.777972
0
LINE
8
BLACK
6
CONTINUOUS
10
1.80283
20
0.777972
11
1.80283
21
0.777972
0
LINE
8
BLACK
6
CONTINUOUS
10
1.80283
20
0.777972
11
1.80698
21
0.779806
0
LINE
8
BLACK
6
CONTINUOUS
10
1.80698
20
0.779806
11
1.80698
21
0.779806
0
LINE
8
BLACK
6
CONTINUOUS
10
1.80698
20
0.779806
11
1.81019
21
0.783017
0
LINE
8
BLACK
6
CONTINUOUS
10
1.81019
20
0.783017
11
1.81019
21
0.783017
0
LINE
8
BLACK
6
CONTINUOUS
10
1.81019
20
0.783017
11
1.81019
21
0.783017
0
LINE
8
BLACK
6
CONTINUOUS
10
1.81019
20
0.783017
11
1.81203
21
0.787171
0
LINE
8
BLACK
6
CONTINUOUS
10
1.81203
20
0.787171
11
1.81215
21
0.788186
0
LINE
8
BLACK
6
CONTINUOUS
10
1.81215
20
0.788186
11
1.81215
21
0.788186
0
LINE
8
BLACK
6
CONTINUOUS
10
1.81215
20
0.788186
11
1.81215
21
0.851814
0
LINE
8
BLACK
6
CONTINUOUS
10
1.81215
20
0.851814
11
1.81203
21
0.852829
0
LINE
8
BLACK
6
CONTINUOUS
10
1.81203
20
0.852829
11
1.81019
21
0.856983
0
LINE
8
BLACK
6
CONTINUOUS
10
1.81019
20
0.856983
11
1.80698
21
0.860194
0
LINE
8
BLACK
6
CONTINUOUS
10
1.80698
20
0.860194
11
1.80283
21
0.862028
0
LINE
8
BLACK
6
CONTINUOUS
10
1.80283
20
0.862028
11
1.80181
21
0.862146
0
LINE
8
BLACK
6
CONTINUOUS
10
1.80181
20
0.862146
11
1.80181
21
0.862146
0
LINE
8
BLACK
6
CONTINUOUS
10
1.80181
20
0.862146
11
1.80181
21
0.862146
0
LINE
8
BLACK
6
CONTINUOUS
10
1.80181
20
0.862146
11
1.73819
21
0.862146
0
LINE
8
BLACK
6
CONTINUOUS
10
1.73819
20
0.862146
11
1.73819
21
0.862146
0
LINE
8
BLACK
6
CONTINUOUS
10
1.73819
20
0.862146
11
1.73819
21
0.862146
0
LINE
8
BLACK
6
CONTINUOUS
10
1.73819
20
0.862146
11
1.73717
21
0.862028
0
LINE
8
BLACK
6
CONTINUOUS
10
1.73717
20
0.862028
11
1.73302
21
0.860194
0
LINE
8
BLACK
6
CONTINUOUS
10
1.73302
20
0.860194
11
1.73302
21
0.860194
0
LINE
8
BLACK
6
CONTINUOUS
10
1.73302
20
0.860194
11
1.73302
21
0.860194
0
LINE
8
BLACK
6
CONTINUOUS
10
1.73302
20
0.860194
11
1.72981
21
0.856983
0
LINE
8
BLACK
6
CONTINUOUS
10
1.72981
20
0.856983
11
1.72981
21
0.856983
0
LINE
8
BLACK
6
CONTINUOUS
10
1.72981
20
0.856983
11
1.72797
21
0.852829
0
LINE
8
BLACK
6
CONTINUOUS
10
1.72797
20
0.852829
11
1.72797
21
0.852829
0
LINE
8
BLACK
6
CONTINUOUS
10
1.72797
20
0.852829
11
1.72785
21
0.851814
0
LINE
8
BLACK
6
CONTINUOUS
10
1.72785
20
0.851814
11
1.72785
21
0.788186
0
LINE
8
BLACK
6
CONTINUOUS
10
1.72785
20
0.788186
11
1.72797
21
0.787171
0
LINE
8
BLACK
6
CONTINUOUS
10
1.82797
20
0.787171
11
1.82797
21
0.787171
0
LINE
8
BLACK
6
CONTINUOUS
10
1.82797
20
0.787171
11
1.82981
21
0.783017
0
LINE
8
BLACK
6
CONTINUOUS
10
1.82981
20
0.783017
11
1.82981
21
0.783017
0
LINE
8
BLACK
6
CONTINUOUS
10
1.82981
20
0.783017
11
1.83302
21
0.779806
0
LINE
8
BLACK
6
CONTINUOUS
10
1.83302
20
0.779806
11
1.83302
21
0.779806
0
LINE
8
BLACK
6
CONTINUOUS
10
1.83302
20
0.779806
11
1.83717
21
0.777972
0
LINE
8
BLACK
6
CONTINUOUS
10
1.83717
20
0.777972
11
1.83717
21
0.777972
0
LINE
8
BLACK
6
CONTINUOUS
10
1.83717
20
0.777972
11
1.83819
21
0.777854
0
LINE
8
BLACK
6
CONTINUOUS
10
1.83819
20
0.777854
11
1.83819
21
0.777854
0
LINE
8
BLACK
6
CONTINUOUS
10
1.83819
20
0.777854
11
1.90181
21
0.777854
0
LINE
8
BLACK
6
CONTINUOUS
10
1.90181
20
0.777854
11
1.90283
21
0.777972
0
LINE
8
BLACK
6
CONTINUOUS
10
1.90283
20
0.777972
11
1.90283
21
0.777972
0
LINE
8
BLACK
6
CONTINUOUS
10
1.90283
20
0.777972
11
1.90698
21
0.779806
0
LINE
8
BLACK
6
CONTINUOUS
10
1.90698
20
0.779806
11
1.90698
21
0.779806
0
LINE
8
BLACK
6
CONTINUOUS
10
1.90698
20
0.779806
11
1.91019
21
0.783017
0
LINE
8
BLACK
6
CONTINUOUS
10
1.91019
20
0.783017
11
1.91019
21
0.783017
0
LINE
8
BLACK
6
CONTINUOUS
10
1.91019
20
0.783017
11
1.91019
21
0.783017
0
LINE
8
BLACK
6
CONTINUOUS
10
1.91019
20
0.783017
11
1.91203
21
0.787171
0
LINE
8
BLACK
6
CONTINUOUS
10
1.91203
20
0.787171
11
1.91215
21
0.788186
0
LINE
8
BLACK
6
CONTINUOUS
10
1.91215
20
0.788186
11
1.91215
21
0.851814
0
LINE
8
BLACK
6
CONTINUOUS
10
1.91215
20
0.851814
11
1.91203
21
0.852829
0
LINE
8
BLACK
6
CONTINUOUS
10
1.91203
20
0.852829
11
1.91019
21
0.856983
0
LINE
8
BLACK
6
CONTINUOUS
10
1.91019
20
0.856983
11
1.90698
21
0.860194
0
LINE
8
BLACK
6
CONTINUOUS
10
1.90698
20
0.860194
11
1.90283
21
0.862028
0
LINE
8
BLACK
6
CONTINUOUS
10
1.90283
20
0.862028
11
1.90181
21
0.862146
0
LINE
8
BLACK
6
CONTINUOUS
10
1.90181
20
0.862146
11
1.90181
21
0.862146
0
LINE
8
BLACK
6
CONTINUOUS
10
1.90181
20
0.862146
11
1.90181
21
0.862146
0
LINE
8
BLACK
6
CONTINUOUS
10
1.90181
20
0.862146
11
1.83819
21
0.862146
0
LINE
8
BLACK
6
CONTINUOUS
10
1.83819
20
0.862146
11
1.83819
21
0.862146
0
LINE
8
BLACK
6
CONTINUOUS
10
1.83819
20
0.862146
11
1.83819
21
0.862146
0
LINE
8
BLACK
6
CONTINUOUS
10
1.83819
20
0.862146
11
1.83717
21
0.862028
0
LINE
8
BLACK
6
CONTINUOUS
10
1.83717
20
0.862028
11
1.83302
21
0.860194
0
LINE
8
BLACK
6
CONTINUOUS
10
1.83302
20
0.860194
11
1.83302
21
0.860194
0
LINE
8
BLACK
6
CONTINUOUS
10
1.83302
20
0.860194
11
1.83302
21
0.860194
0
LINE
8
BLACK
6
CONTINUOUS
10
1.83302
20
0.860194
11
1.82981
21
0.856983
0
LINE
8
BLACK
6
CONTINUOUS
10
1.82981
20
0.856983
11
1.82981
21
0.856983
0
LINE
8
BLACK
6
CONTINUOUS
10
1.82981
20
0.856983
11
1.82797
21
0.852829
0
LINE
8
BLACK
6
CONTINUOUS
10
1.82797
20
0.852829
11
1.82797
21
0.852829
0
LINE
8
BLACK
6
CONTINUOUS
10
1.82797
20
0.852829
11
1.82785
21
0.851814
0
LINE
8
BLACK
6
CONTINUOUS
10
1.82785
20
0.851814
11
1.82785
21
0.788186
0
LINE
8
BLACK
6
CONTINUOUS
10
1.82785
20
0.788186
11
1.82797
21
0.787171
0
LINE
8
BLACK
6
CONTINUOUS
10
1.72797
20
0.887171
11
1.72797
21
0.887171
0
LINE
8
BLACK
6
CONTINUOUS
10
1.72797
20
0.887171
11
1.72981
21
0.883017
0
LINE
8
BLACK
6
CONTINUOUS
10
1.72981
20
0.883017
11
1.72981
21
0.883017
0
LINE
8
BLACK
6
CONTINUOUS
10
1.72981
20
0.883017
11
1.73302
21
0.879806
0
LINE
8
BLACK
6
CONTINUOUS
10
1.73302
20
0.879806
11
1.73302
21
0.879806
0
LINE
8
BLACK
6
CONTINUOUS
10
1.73302
20
0.879806
11
1.73717
21
0.877972
0
LINE
8
BLACK
6
CONTINUOUS
10
1.73717
20
0.877972
11
1.73717
21
0.877972
0
LINE
8
BLACK
6
CONTINUOUS
10
1.73717
20
0.877972
11
1.73819
21
0.877854
0
LINE
8
BLACK
6
CONTINUOUS
10
1.73819
20
0.877854
11
1.73819
21
0.877854
0
LINE
8
BLACK
6
CONTINUOUS
10
1.73819
20
0.877854
11
1.80181
21
0.877854
0
LINE
8
BLACK
6
CONTINUOUS
10
1.80181
20
0.877854
11
1.80283
21
0.877972
0
LINE
8
BLACK
6
CONTINUOUS
10
1.80283
20
0.877972
11
1.80283
21
0.877972
0
LINE
8
BLACK
6
CONTINUOUS
10
1.80283
20
0.877972
11
1.80698
21
0.879806
0
LINE
8
BLACK
6
CONTINUOUS
10
1.80698
20
0.879806
11
1.80698
21
0.879806
0
LINE
8
BLACK
6
CONTINUOUS
10
1.80698
20
0.879806
11
1.81019
21
0.883017
0
LINE
8
BLACK
6
CONTINUOUS
10
1.81019
20
0.883017
11
1.81019
21
0.883017
0
LINE
8
BLACK
6
CONTINUOUS
10
1.81019
20
0.883017
11
1.81019
21
0.883017
0
LINE
8
BLACK
6
CONTINUOUS
10
1.81019
20
0.883017
11
1.81203
21
0.887171
0
LINE
8
BLACK
6
CONTINUOUS
10
1.81203
20
0.887171
11
1.81215
21
0.888186
0
LINE
8
BLACK
6
CONTINUOUS
10
1.81215
20
0.888186
11
1.81215
21
0.888186
0
LINE
8
BLACK
6
CONTINUOUS
10
1.81215
20
0.888186
11
1.81215
21
0.951814
0
LINE
8
BLACK
6
CONTINUOUS
10
1.81215
20
0.951814
11
1.81203
21
0.952829
0
LINE
8
BLACK
6
CONTINUOUS
10
1.81203
20
0.952829
11
1.81019
21
0.956983
0
LINE
8
BLACK
6
CONTINUOUS
10
1.81019
20
0.956983
11
1.80698
21
0.960194
0
LINE
8
BLACK
6
CONTINUOUS
10
1.80698
20
0.960194
11
1.80283
21
0.962028
0
LINE
8
BLACK
6
CONTINUOUS
10
1.80283
20
0.962028
11
1.80181
21
0.962146
0
LINE
8
BLACK
6
CONTINUOUS
10
1.80181
20
0.962146
11
1.80181
21
0.962146
0
LINE
8
BLACK
6
CONTINUOUS
10
1.80181
20
0.962146
11
1.80181
21
0.962146
0
LINE
8
BLACK
6
CONTINUOUS
10
1.80181
20
0.962146
11
1.73819
21
0.962146
0
LINE
8
BLACK
6
CONTINUOUS
10
1.73819
20
0.962146
11
1.73819
21
0.962146
0
LINE
8
BLACK
6
CONTINUOUS
10
1.73819
20
0.962146
11
1.73819
21
0.962146
0
LINE
8
BLACK
6
CONTINUOUS
10
1.73819
20
0.962146
11
1.73717
21
0.962028
0
LINE
8
BLACK
6
CONTINUOUS
10
1.73717
20
0.962028
11
1.73302
21
0.960194
0
LINE
8
BLACK
6
CONTINUOUS
10
1.73302
20
0.960194
11
1.73302
21
0.960194
0
LINE
8
BLACK
6
CONTINUOUS
10
1.73302
20
0.960194
11
1.73302
21
0.960194
0
LINE
8
BLACK
6
CONTINUOUS
10
1.73302
20
0.960194
11
1.72981
21
0.956983
0
LINE
8
BLACK
6
CONTINUOUS
10
1.72981
20
0.956983
11
1.72981
21
0.956983
0
LINE
8
BLACK
6
CONTINUOUS
10
1.72981
20
0.956983
11
1.72797
21
0.952829
0
LINE
8
BLACK
6
CONTINUOUS
10
1.72797
20
0.952829
11
1.72797
21
0.952829
0
LINE
8
BLACK
6
CONTINUOUS
10
1.72797
20
0.952829
11
1.72785
21
0.951814
0
LINE
8
BLACK
6
CONTINUOUS
10
1.72785
20
0.951814
11
1.72785
21
0.888186
0
LINE
8
BLACK
6
CONTINUOUS
10
1.72785
20
0.888186
11
1.72797
21
0.887171
0
LINE
8
BLACK
6
CONTINUOUS
10
1.82797
20
0.887171
11
1.82797
21
0.887171
0
LINE
8
BLACK
6
CONTINUOUS
10
1.82797
20
0.887171
11
1.82981
21
0.883017
0
LINE
8
BLACK
6
CONTINUOUS
10
1.82981
20
0.883017
11
1.82981
21
0.883017
0
LINE
8
BLACK
6
CONTINUOUS
10
1.82981
20
0.883017
11
1.83302
21
0.879806
0
LINE
8
BLACK
6
CONTINUOUS
10
1.83302
20
0.879806
11
1.83302
21
0.879806
0
LINE
8
BLACK
6
CONTINUOUS
10
1.83302
20
0.879806
11
1.83717
21
0.877972
0
LINE
8
BLACK
6
CONTINUOUS
10
1.83717
20
0.877972
11
1.83717
21
0.877972
0
LINE
8
BLACK
6
CONTINUOUS
10
1.83717
20
0.877972
11
1.83819
21
0.877854
0
LINE
8
BLACK
6
CONTINUOUS
10
1.83819
20
0.877854
11
1.83819
21
0.877854
0
LINE
8
BLACK
6
CONTINUOUS
10
1.83819
20
0.877854
11
1.90181
21
0.877854
0
LINE
8
BLACK
6
CONTINUOUS
10
1.90181
20
0.877854
11
1.90283
21
0.877972
0
LINE
8
BLACK
6
CONTINUOUS
10
1.90283
20
0.877972
11
1.90283
21
0.877972
0
LINE
8
BLACK
6
CONTINUOUS
10
1.90283
20
0.877972
11
1.90698
21
0.879806
0
LINE
8
BLACK
6
CONTINUOUS
10
1.90698
20
0.879806
11
1.90698
21
0.879806
0
LINE
8
BLACK
6
CONTINUOUS
10
1.90698
20
0.879806
11
1.91019
21
0.883017
0
LINE
8
BLACK
6
CONTINUOUS
10
1.91019
20
0.883017
11
1.91019
21
0.883017
0
LINE
8
BLACK
6
CONTINUOUS
10
1.91019
20
0.883017
11
1.91019
21
0.883017
0
LINE
8
BLACK
6
CONTINUOUS
10
1.91019
20
0.883017
11
1.91203
21
0.887171
0
LINE
8
BLACK
6
CONTINUOUS
10
1.91203
20
0.887171
11
1.91215
21
0.888186
0
LINE
8
BLACK
6
CONTINUOUS
10
1.91215
20
0.888186
11
1.91215
21
0.951814
0
LINE
8
BLACK
6
CONTINUOUS
10
1.91215
20
0.951814
11
1.91203
21
0.952829
0
LINE
8
BLACK
6
CONTINUOUS
10
1.91203
20
0.952829
11
1.91019
21
0.956983
0
LINE
8
BLACK
6
CONTINUOUS
10
1.91019
20
0.956983
11
1.90698
21
0.960194
0
LINE
8
BLACK
6
CONTINUOUS
10
1.90698
20
0.960194
11
1.90283
21
0.962028
0
LINE
8
BLACK
6
CONTINUOUS
10
1.90283
20
0.962028
11
1.90181
21
0.962146
0
LINE
8
BLACK
6
CONTINUOUS
10
1.90181
20
0.962146
11
1.90181
21
0.962146
0
LINE
8
BLACK
6
CONTINUOUS
10
1.90181
20
0.962146
11
1.90181
21
0.962146
0
LINE
8
BLACK
6
CONTINUOUS
10
1.90181
20
0.962146
11
1.83819
21
0.962146
0
LINE
8
BLACK
6
CONTINUOUS
10
1.83819
20
0.962146
11
1.83819
21
0.962146
0
LINE
8
BLACK
6
CONTINUOUS
10
1.83819
20
0.962146
11
1.83819
21
0.962146
0
LINE
8
BLACK
6
CONTINUOUS
10
1.83819
20
0.962146
11
1.83717
21
0.962028
0
LINE
8
BLACK
6
CONTINUOUS
10
1.83717
20
0.962028
11
1.83302
21
0.960194
0
LINE
8
BLACK
6
CONTINUOUS
10
1.83302
20
0.960194
11
1.83302
21
0.960194
0
LINE
8
BLACK
6
CONTINUOUS
10
1.83302
20
0.960194
11
1.83302
21
0.960194
0
LINE
8
BLACK
6
CONTINUOUS
10
1.83302
20
0.960194
11
1.82981
21
0.956983
0
LINE
8
BLACK
6
CONTINUOUS
10
1.82981
20
0.956983
11
1.82981
21
0.956983
0
LINE
8
BLACK
6
CONTINUOUS
10
1.82981
20
0.956983
11
1.82797
21
0.952829
0
LINE
8
BLACK
6
CONTINUOUS
10
1.82797
20
0.952829
11
1.82797
21
0.952829
0
LINE
8
BLACK
6
CONTINUOUS
10
1.82797
20
0.952829
11
1.82785
21
0.951814
0
LINE
8
BLACK
6
CONTINUOUS
10
1.82785
20
0.951814
11
1.82785
21
0.888186
0
LINE
8
BLACK
6
CONTINUOUS
10
1.82785
20
0.888186
11
1.82797
21
0.887171
0
LINE
8
BLACK
6
CONTINUOUS
10
0.213634
20
0.951814
11
0.214142
21
0.945679
0
LINE
8
BLACK
6
CONTINUOUS
10
0.214142
20
0.945679
11
0.216438
21
0.936612
0
LINE
8
BLACK
6
CONTINUOUS
10
0.216438
20
0.936612
11
0.216438
21
0.936612
0
LINE
8
BLACK
6
CONTINUOUS
10
0.216438
20
0.936612
11
0.220195
21
0.928047
0
LINE
8
BLACK
6
CONTINUOUS
10
0.220195
20
0.928047
11
0.225311
21
0.920217
0
LINE
8
BLACK
6
CONTINUOUS
10
0.225311
20
0.920217
11
0.231645
21
0.913336
0
LINE
8
BLACK
6
CONTINUOUS
10
0.231645
20
0.913336
11
0.239026
21
0.907591
0
LINE
8
BLACK
6
CONTINUOUS
10
0.239026
20
0.907591
11
0.239026
21
0.907591
0
LINE
8
BLACK
6
CONTINUOUS
10
0.239026
20
0.907591
11
0.247252
21
0.903139
0
LINE
8
BLACK
6
CONTINUOUS
10
0.247252
20
0.903139
11
0.247252
21
0.903139
0
LINE
8
BLACK
6
CONTINUOUS
10
0.247252
20
0.903139
11
0.256098
21
0.900102
0
LINE
8
BLACK
6
CONTINUOUS
10
0.256098
20
0.900102
11
0.256098
21
0.900102
0
LINE
8
BLACK
6
CONTINUOUS
10
0.256098
20
0.900102
11
0.259166
21
0.899591
0
LINE
8
BLACK
6
CONTINUOUS
10
0.259166
20
0.899591
11
0.265324
21
0.898563
0
LINE
8
BLACK
6
CONTINUOUS
10
0.265324
20
0.898563
11
0.265324
21
0.898563
0
LINE
8
BLACK
6
CONTINUOUS
10
0.265324
20
0.898563
11
0.274676
21
0.898563
0
LINE
8
BLACK
6
CONTINUOUS
10
0.274676
20
0.898563
11
0.274676
21
0.898563
0
LINE
8
BLACK
6
CONTINUOUS
10
0.274676
20
0.898563
11
0.282067
21
0.899796
0
LINE
8
BLACK
6
CONTINUOUS
10
0.282067
20
0.899796
11
0.283902
21
0.900102
0
LINE
8
BLACK
6
CONTINUOUS
10
0.283902
20
0.900102
11
0.283902
21
0.900102
0
LINE
8
BLACK
6
CONTINUOUS
10
0.283902
20
0.900102
11
0.283902
21
0.900102
0
LINE
8
BLACK
6
CONTINUOUS
10
0.283902
20
0.900102
11
0.283902
21
0.900102
0
LINE
8
BLACK
6
CONTINUOUS
10
0.283902
20
0.900102
11
0.292748
21
0.903139
0
LINE
8
BLACK
6
CONTINUOUS
10
0.292748
20
0.903139
11
0.292748
21
0.903139
0
LINE
8
BLACK
6
CONTINUOUS
10
0.292748
20
0.903139
11
0.300974
21
0.907591
0
LINE
8
BLACK
6
CONTINUOUS
10
0.300974
20
0.907591
11
0.300974
21
0.907591
0
LINE
8
BLACK
6
CONTINUOUS
10
0.300974
20
0.907591
11
0.308355
21
0.913336
0
LINE
8
BLACK
6
CONTINUOUS
10
0.308355
20
0.913336
11
0.314689
21
0.920217
0
LINE
8
BLACK
6
CONTINUOUS
10
0.314689
20
0.920217
11
0.319805
21
0.928047
0
LINE
8
BLACK
6
CONTINUOUS
10
0.319805
20
0.928047
11
0.323562
21
0.936612
0
LINE
8
BLACK
6
CONTINUOUS
10
0.323562
20
0.936612
11
0.323562
21
0.936612
0
LINE
8
BLACK
6
CONTINUOUS
10
0.323562
20
0.936612
11
0.325858
21
0.945679
0
LINE
8
BLACK
6
CONTINUOUS
10
0.325858
20
0.945679
11
0.325858
21
0.945679
0
LINE
8
BLACK
6
CONTINUOUS
10
0.325858
20
0.945679
11
0.32663
21
0.955
0
LINE
8
BLACK
6
CONTINUOUS
10
0.32663
20
0.955
11
0.325858
21
0.964321
0
LINE
8
BLACK
6
CONTINUOUS
10
0.325858
20
0.964321
11
0.323562
21
0.973388
0
LINE
8
BLACK
6
CONTINUOUS
10
0.323562
20
0.973388
11
0.319805
21
0.981953
0
LINE
8
BLACK
6
CONTINUOUS
10
0.319805
20
0.981953
11
0.315733
21
0.988186
0
LINE
8
BLACK
6
CONTINUOUS
10
0.315733
20
0.988186
11
0.314689
21
0.989783
0
LINE
8
BLACK
6
CONTINUOUS
10
0.314689
20
0.989783
11
0.308355
21
0.996664
0
LINE
8
BLACK
6
CONTINUOUS
10
0.308355
20
0.996664
11
0.300974
21
1.00241
0
LINE
8
BLACK
6
CONTINUOUS
10
0.300974
20
1.00241
11
0.292748
21
1.00686
0
LINE
8
BLACK
6
CONTINUOUS
10
0.292748
20
1.00686
11
0.283902
21
1.0099
0
LINE
8
BLACK
6
CONTINUOUS
10
0.283902
20
1.0099
11
0.274676
21
1.01144
0
LINE
8
BLACK
6
CONTINUOUS
10
0.274676
20
1.01144
11
0.265324
21
1.01144
0
LINE
8
BLACK
6
CONTINUOUS
10
0.265324
20
1.01144
11
0.256098
21
1.0099
0
LINE
8
BLACK
6
CONTINUOUS
10
0.256098
20
1.0099
11
0.247252
21
1.00686
0
LINE
8
BLACK
6
CONTINUOUS
10
0.247252
20
1.00686
11
0.239026
21
1.00241
0
LINE
8
BLACK
6
CONTINUOUS
10
0.239026
20
1.00241
11
0.231645
21
0.996664
0
LINE
8
BLACK
6
CONTINUOUS
10
0.231645
20
0.996664
11
0.231645
21
0.996664
0
LINE
8
BLACK
6
CONTINUOUS
10
0.231645
20
0.996664
11
0.231645
21
0.996664
0
LINE
8
BLACK
6
CONTINUOUS
10
0.231645
20
0.996664
11
0.225311
21
0.989783
0
LINE
8
BLACK
6
CONTINUOUS
10
0.225311
20
0.989783
11
0.220195
21
0.981953
0
LINE
8
BLACK
6
CONTINUOUS
10
0.220195
20
0.981953
11
0.216438
21
0.973388
0
LINE
8
BLACK
6
CONTINUOUS
10
0.216438
20
0.973388
11
0.216438
21
0.973388
0
LINE
8
BLACK
6
CONTINUOUS
10
0.216438
20
0.973388
11
0.214142
21
0.964321
0
LINE
8
BLACK
6
CONTINUOUS
10
0.214142
20
0.964321
11
0.214142
21
0.964321
0
LINE
8
BLACK
6
CONTINUOUS
10
0.214142
20
0.964321
11
0.214142
21
0.964321
0
LINE
8
BLACK
6
CONTINUOUS
10
0.214142
20
0.964321
11
0.21337
21
0.955
0
LINE
8
BLACK
6
CONTINUOUS
10
0.21337
20
0.955
11
0.213634
21
0.951814
0
LINE
8
BLACK
6
CONTINUOUS
10
1.72797
20
0.987171
11
1.72797
21
0.987171
0
LINE
8
BLACK
6
CONTINUOUS
10
1.72797
20
0.987171
11
1.72981
21
0.983017
0
LINE
8
BLACK
6
CONTINUOUS
10
1.72981
20
0.983017
11
1.72981
21
0.983017
0
LINE
8
BLACK
6
CONTINUOUS
10
1.72981
20
0.983017
11
1.73302
21
0.979806
0
LINE
8
BLACK
6
CONTINUOUS
10
1.73302
20
0.979806
11
1.73302
21
0.979806
0
LINE
8
BLACK
6
CONTINUOUS
10
1.73302
20
0.979806
11
1.73717
21
0.977972
0
LINE
8
BLACK
6
CONTINUOUS
10
1.73717
20
0.977972
11
1.73717
21
0.977972
0
LINE
8
BLACK
6
CONTINUOUS
10
1.73717
20
0.977972
11
1.73819
21
0.977854
0
LINE
8
BLACK
6
CONTINUOUS
10
1.73819
20
0.977854
11
1.73819
21
0.977854
0
LINE
8
BLACK
6
CONTINUOUS
10
1.73819
20
0.977854
11
1.80181
21
0.977854
0
LINE
8
BLACK
6
CONTINUOUS
10
1.80181
20
0.977854
11
1.80283
21
0.977972
0
LINE
8
BLACK
6
CONTINUOUS
10
1.80283
20
0.977972
11
1.80283
21
0.977972
0
LINE
8
BLACK
6
CONTINUOUS
10
1.80283
20
0.977972
11
1.80698
21
0.979806
0
LINE
8
BLACK
6
CONTINUOUS
10
1.80698
20
0.979806
11
1.80698
21
0.979806
0
LINE
8
BLACK
6
CONTINUOUS
10
1.80698
20
0.979806
11
1.81019
21
0.983017
0
LINE
8
BLACK
6
CONTINUOUS
10
1.81019
20
0.983017
11
1.81019
21
0.983017
0
LINE
8
BLACK
6
CONTINUOUS
10
1.81019
20
0.983017
11
1.81019
21
0.983017
0
LINE
8
BLACK
6
CONTINUOUS
10
1.81019
20
0.983017
11
1.81203
21
0.987171
0
LINE
8
BLACK
6
CONTINUOUS
10
1.81203
20
0.987171
11
1.81215
21
0.988186
0
LINE
8
BLACK
6
CONTINUOUS
10
1.81215
20
0.988186
11
1.81215
21
0.988186
0
LINE
8
BLACK
6
CONTINUOUS
10
1.81215
20
0.988186
11
1.81215
21
1.05181
0
LINE
8
BLACK
6
CONTINUOUS
10
1.81215
20
1.05181
11
1.81203
21
1.05283
0
LINE
8
BLACK
6
CONTINUOUS
10
1.81203
20
1.05283
11
1.81019
21
1.05698
0
LINE
8
BLACK
6
CONTINUOUS
10
1.81019
20
1.05698
11
1.80698
21
1.06019
0
LINE
8
BLACK
6
CONTINUOUS
10
1.80698
20
1.06019
11
1.80283
21
1.06203
0
LINE
8
BLACK
6
CONTINUOUS
10
1.80283
20
1.06203
11
1.80181
21
1.06215
0
LINE
8
BLACK
6
CONTINUOUS
10
1.80181
20
1.06215
11
1.80181
21
1.06215
0
LINE
8
BLACK
6
CONTINUOUS
10
1.80181
20
1.06215
11
1.80181
21
1.06215
0
LINE
8
BLACK
6
CONTINUOUS
10
1.80181
20
1.06215
11
1.73819
21
1.06215
0
LINE
8
BLACK
6
CONTINUOUS
10
1.73819
20
1.06215
11
1.73819
21
1.06215
0
LINE
8
BLACK
6
CONTINUOUS
10
1.73819
20
1.06215
11
1.73819
21
1.06215
0
LINE
8
BLACK
6
CONTINUOUS
10
1.73819
20
1.06215
11
1.73717
21
1.06203
0
LINE
8
BLACK
6
CONTINUOUS
10
1.73717
20
1.06203
11
1.73302
21
1.06019
0
LINE
8
BLACK
6
CONTINUOUS
10
1.73302
20
1.06019
11
1.73302
21
1.06019
0
LINE
8
BLACK
6
CONTINUOUS
10
1.73302
20
1.06019
11
1.73302
21
1.06019
0
LINE
8
BLACK
6
CONTINUOUS
10
1.73302
20
1.06019
11
1.72981
21
1.05698
0
LINE
8
BLACK
6
CONTINUOUS
10
1.72981
20
1.05698
11
1.72981
21
1.05698
0
LINE
8
BLACK
6
CONTINUOUS
10
1.72981
20
1.05698
11
1.72797
21
1.05283
0
LINE
8
BLACK
6
CONTINUOUS
10
1.72797
20
1.05283
11
1.72797
21
1.05283
0
LINE
8
BLACK
6
CONTINUOUS
10
1.72797
20
1.05283
11
1.72785
21
1.05181
0
LINE
8
BLACK
6
CONTINUOUS
10
1.72785
20
1.05181
11
1.72785
21
0.988186
0
LINE
8
BLACK
6
CONTINUOUS
10
1.72785
20
0.988186
11
1.72797
21
0.987171
0
LINE
8
BLACK
6
CONTINUOUS
10
1.82797
20
0.987171
11
1.82797
21
0.987171
0
LINE
8
BLACK
6
CONTINUOUS
10
1.82797
20
0.987171
11
1.82981
21
0.983017
0
LINE
8
BLACK
6
CONTINUOUS
10
1.82981
20
0.983017
11
1.82981
21
0.983017
0
LINE
8
BLACK
6
CONTINUOUS
10
1.82981
20
0.983017
11
1.83302
21
0.979806
0
LINE
8
BLACK
6
CONTINUOUS
10
1.83302
20
0.979806
11
1.83302
21
0.979806
0
LINE
8
BLACK
6
CONTINUOUS
10
1.83302
20
0.979806
11
1.83717
21
0.977972
0
LINE
8
BLACK
6
CONTINUOUS
10
1.83717
20
0.977972
11
1.83717
21
0.977972
0
LINE
8
BLACK
6
CONTINUOUS
10
1.83717
20
0.977972
11
1.83819
21
0.977854
0
LINE
8
BLACK
6
CONTINUOUS
10
1.83819
20
0.977854
11
1.83819
21
0.977854
0
LINE
8
BLACK
6
CONTINUOUS
10
1.83819
20
0.977854
11
1.90181
21
0.977854
0
LINE
8
BLACK
6
CONTINUOUS
10
1.90181
20
0.977854
11
1.90283
21
0.977972
0
LINE
8
BLACK
6
CONTINUOUS
10
1.90283
20
0.977972
11
1.90283
21
0.977972
0
LINE
8
BLACK
6
CONTINUOUS
10
1.90283
20
0.977972
11
1.90698
21
0.979806
0
LINE
8
BLACK
6
CONTINUOUS
10
1.90698
20
0.979806
11
1.90698
21
0.979806
0
LINE
8
BLACK
6
CONTINUOUS
10
1.90698
20
0.979806
11
1.91019
21
0.983017
0
LINE
8
BLACK
6
CONTINUOUS
10
1.91019
20
0.983017
11
1.91019
21
0.983017
0
LINE
8
BLACK
6
CONTINUOUS
10
1.91019
20
0.983017
11
1.91019
21
0.983017
0
LINE
8
BLACK
6
CONTINUOUS
10
1.91019
20
0.983017
11
1.91203
21
0.987171
0
LINE
8
BLACK
6
CONTINUOUS
10
1.91203
20
0.987171
11
1.91215
21
0.988186
0
LINE
8
BLACK
6
CONTINUOUS
10
1.91215
20
0.988186
11
1.91215
21
1.05181
0
LINE
8
BLACK
6
CONTINUOUS
10
1.91215
20
1.05181
11
1.91203
21
1.05283
0
LINE
8
BLACK
6
CONTINUOUS
10
1.91203
20
1.05283
11
1.91019
21
1.05698
0
LINE
8
BLACK
6
CONTINUOUS
10
1.91019
20
1.05698
11
1.90698
21
1.06019
0
LINE
8
BLACK
6
CONTINUOUS
10
1.90698
20
1.06019
11
1.90283
21
1.06203
0
LINE
8
BLACK
6
CONTINUOUS
10
1.90283
20
1.06203
11
1.90181
21
1.06215
0
LINE
8
BLACK
6
CONTINUOUS
10
1.90181
20
1.06215
11
1.90181
21
1.06215
0
LINE
8
BLACK
6
CONTINUOUS
10
1.90181
20
1.06215
11
1.90181
21
1.06215
0
LINE
8
BLACK
6
CONTINUOUS
10
1.90181
20
1.06215
11
1.83819
21
1.06215
0
LINE
8
BLACK
6
CONTINUOUS
10
1.83819
20
1.06215
11
1.83819
21
1.06215
0
LINE
8
BLACK
6
CONTINUOUS
10
1.83819
20
1.06215
11
1.83819
21
1.06215
0
LINE
8
BLACK
6
CONTINUOUS
10
1.83819
20
1.06215
11
1.83717
21
1.06203
0
LINE
8
BLACK
6
CONTINUOUS
10
1.83717
20
1.06203
11
1.83302
21
1.06019
0
LINE
8
BLACK
6
CONTINUOUS
10
1.83302
20
1.06019
11
1.83302
21
1.06019
0
LINE
8
BLACK
6
CONTINUOUS
10
1.83302
20
1.06019
11
1.83302
21
1.06019
0
LINE
8
BLACK
6
CONTINUOUS
10
1.83302
20
1.06019
11
1.82981
21
1.05698
0
LINE
8
BLACK
6
CONTINUOUS
10
1.82981
20
1.05698
11
1.82981
21
1.05698
0
LINE
8
BLACK
6
CONTINUOUS
10
1.82981
20
1.05698
11
1.82797
21
1.05283
0
LINE
8
BLACK
6
CONTINUOUS
10
1.82797
20
1.05283
11
1.82797
21
1.05283
0
LINE
8
BLACK
6
CONTINUOUS
10
1.82797
20
1.05283
11
1.82785
21
1.05181
0
LINE
8
BLACK
6
CONTINUOUS
10
1.82785
20
1.05181
11
1.82785
21
0.988186
0
LINE
8
BLACK
6
CONTINUOUS
10
1.82785
20
0.988186
11
1.82797
21
0.987171
0
LINE
8
BLACK
6
CONTINUOUS
10
0.1181
20
1.04585
11
0.120478
21
1.03698
0
LINE
8
BLACK
6
CONTINUOUS
10
0.120478
20
1.03698
11
0.120478
21
1.03698
0
LINE
8
BLACK
6
CONTINUOUS
10
0.120478
20
1.03698
11
0.12436
21
1.02865
0
LINE
8
BLACK
6
CONTINUOUS
10
0.12436
20
1.02865
11
0.129629
21
1.02112
0
LINE
8
BLACK
6
CONTINUOUS
10
0.129629
20
1.02112
11
0.129629
21
1.02112
0
LINE
8
BLACK
6
CONTINUOUS
10
0.129629
20
1.02112
11
0.136125
21
1.01463
0
LINE
8
BLACK
6
CONTINUOUS
10
0.136125
20
1.01463
11
0.136125
21
1.01463
0
LINE
8
BLACK
6
CONTINUOUS
10
0.136125
20
1.01463
11
0.14365
21
1.00936
0
LINE
8
BLACK
6
CONTINUOUS
10
0.14365
20
1.00936
11
0.151975
21
1.00548
0
LINE
8
BLACK
6
CONTINUOUS
10
0.151975
20
1.00548
11
0.151975
21
1.00548
0
LINE
8
BLACK
6
CONTINUOUS
10
0.151975
20
1.00548
11
0.158471
21
1.00374
0
LINE
8
BLACK
6
CONTINUOUS
10
0.158471
20
1.00374
11
0.160849
21
1.0031
0
LINE
8
BLACK
6
CONTINUOUS
10
0.160849
20
1.0031
11
0.17
21
1.0023
0
LINE
8
BLACK
6
CONTINUOUS
10
0.17
20
1.0023
11
0.179151
21
1.0031
0
LINE
8
BLACK
6
CONTINUOUS
10
0.179151
20
1.0031
11
0.183906
21
1.00437
0
LINE
8
BLACK
6
CONTINUOUS
10
0.183906
20
1.00437
11
0.188025
21
1.00548
0
LINE
8
BLACK
6
CONTINUOUS
10
0.188025
20
1.00548
11
0.188025
21
1.00548
0
LINE
8
BLACK
6
CONTINUOUS
10
0.188025
20
1.00548
11
0.19635
21
1.00936
0
LINE
8
BLACK
6
CONTINUOUS
10
0.19635
20
1.00936
11
0.203875
21
1.01463
0
LINE
8
BLACK
6
CONTINUOUS
10
0.203875
20
1.01463
11
0.203875
21
1.01463
0
LINE
8
BLACK
6
CONTINUOUS
10
0.203875
20
1.01463
11
0.210371
21
1.02112
0
LINE
8
BLACK
6
CONTINUOUS
10
0.210371
20
1.02112
11
0.210371
21
1.02112
0
LINE
8
BLACK
6
CONTINUOUS
10
0.210371
20
1.02112
11
0.21564
21
1.02865
0
LINE
8
BLACK
6
CONTINUOUS
10
0.21564
20
1.02865
11
0.219522
21
1.03698
0
LINE
8
BLACK
6
CONTINUOUS
10
0.219522
20
1.03698
11
0.2219
21
1.04585
0
LINE
8
BLACK
6
CONTINUOUS
10
0.2219
20
1.04585
11
0.222701
21
1.055
0
LINE
8
BLACK
6
CONTINUOUS
10
0.222701
20
1.055
11
0.2219
21
1.06415
0
LINE
8
BLACK
6
CONTINUOUS
10
0.2219
20
1.06415
11
0.219522
21
1.07302
0
LINE
8
BLACK
6
CONTINUOUS
10
0.219522
20
1.07302
11
0.21564
21
1.08135
0
LINE
8
BLACK
6
CONTINUOUS
10
0.21564
20
1.08135
11
0.210853
21
1.08819
0
LINE
8
BLACK
6
CONTINUOUS
10
0.210853
20
1.08819
11
0.210371
21
1.08888
0
LINE
8
BLACK
6
CONTINUOUS
10
0.210371
20
1.08888
11
0.203875
21
1.09537
0
LINE
8
BLACK
6
CONTINUOUS
10
0.203875
20
1.09537
11
0.19635
21
1.10064
0
LINE
8
BLACK
6
CONTINUOUS
10
0.19635
20
1.10064
11
0.188025
21
1.10452
0
LINE
8
BLACK
6
CONTINUOUS
10
0.188025
20
1.10452
11
0.179151
21
1.1069
0
LINE
8
BLACK
6
CONTINUOUS
10
0.179151
20
1.1069
11
0.17
21
1.1077
0
LINE
8
BLACK
6
CONTINUOUS
10
0.17
20
1.1077
11
0.160849
21
1.1069
0
LINE
8
BLACK
6
CONTINUOUS
10
0.160849
20
1.1069
11
0.151975
21
1.10452
0
LINE
8
BLACK
6
CONTINUOUS
10
0.151975
20
1.10452
11
0.14365
21
1.10064
0
LINE
8
BLACK
6
CONTINUOUS
10
0.14365
20
1.10064
11
0.136125
21
1.09537
0
LINE
8
BLACK
6
CONTINUOUS
10
0.136125
20
1.09537
11
0.129629
21
1.08888
0
LINE
8
BLACK
6
CONTINUOUS
10
0.129629
20
1.08888
11
0.12436
21
1.08135
0
LINE
8
BLACK
6
CONTINUOUS
10
0.12436
20
1.08135
11
0.120478
21
1.07302
0
LINE
8
BLACK
6
CONTINUOUS
10
0.120478
20
1.07302
11
0.1181
21
1.06415
0
LINE
8
BLACK
6
CONTINUOUS
10
0.1181
20
1.06415
11
0.117473
21
1.05698
0
LINE
8
BLACK
6
CONTINUOUS
10
0.117473
20
1.05698
11
0.117299
21
1.055
0
LINE
8
BLACK
6
CONTINUOUS
10
0.117299
20
1.055
11
0.1181
21
1.04585
0
LINE
8
BLACK
6
CONTINUOUS
10
1.72797
20
1.08717
11
1.72797
21
1.08717
0
LINE
8
BLACK
6
CONTINUOUS
10
1.72797
20
1.08717
11
1.72981
21
1.08302
0
LINE
8
BLACK
6
CONTINUOUS
10
1.72981
20
1.08302
11
1.72981
21
1.08302
0
LINE
8
BLACK
6
CONTINUOUS
10
1.72981
20
1.08302
11
1.73302
21
1.07981
0
LINE
8
BLACK
6
CONTINUOUS
10
1.73302
20
1.07981
11
1.73302
21
1.07981
0
LINE
8
BLACK
6
CONTINUOUS
10
1.73302
20
1.07981
11
1.73717
21
1.07797
0
LINE
8
BLACK
6
CONTINUOUS
10
1.73717
20
1.07797
11
1.73717
21
1.07797
0
LINE
8
BLACK
6
CONTINUOUS
10
1.73717
20
1.07797
11
1.73819
21
1.07785
0
LINE
8
BLACK
6
CONTINUOUS
10
1.73819
20
1.07785
11
1.73819
21
1.07785
0
LINE
8
BLACK
6
CONTINUOUS
10
1.73819
20
1.07785
11
1.80181
21
1.07785
0
LINE
8
BLACK
6
CONTINUOUS
10
1.80181
20
1.07785
11
1.80283
21
1.07797
0
LINE
8
BLACK
6
CONTINUOUS
10
1.80283
20
1.07797
11
1.80283
21
1.07797
0
LINE
8
BLACK
6
CONTINUOUS
10
1.80283
20
1.07797
11
1.80698
21
1.07981
0
LINE
8
BLACK
6
CONTINUOUS
10
1.80698
20
1.07981
11
1.80698
21
1.07981
0
LINE
8
BLACK
6
CONTINUOUS
10
1.80698
20
1.07981
11
1.81019
21
1.08302
0
LINE
8
BLACK
6
CONTINUOUS
10
1.81019
20
1.08302
11
1.81019
21
1.08302
0
LINE
8
BLACK
6
CONTINUOUS
10
1.81019
20
1.08302
11
1.81019
21
1.08302
0
LINE
8
BLACK
6
CONTINUOUS
10
1.81019
20
1.08302
11
1.81203
21
1.08717
0
LINE
8
BLACK
6
CONTINUOUS
10
1.81203
20
1.08717
11
1.81215
21
1.08819
0
LINE
8
BLACK
6
CONTINUOUS
10
1.81215
20
1.08819
11
1.81215
21
1.08819
0
LINE
8
BLACK
6
CONTINUOUS
10
1.81215
20
1.08819
11
1.81215
21
1.15181
0
LINE
8
BLACK
6
CONTINUOUS
10
1.81215
20
1.15181
11
1.81203
21
1.15283
0
LINE
8
BLACK
6
CONTINUOUS
10
1.81203
20
1.15283
11
1.81019
21
1.15698
0
LINE
8
BLACK
6
CONTINUOUS
10
1.81019
20
1.15698
11
1.80698
21
1.16019
0
LINE
8
BLACK
6
CONTINUOUS
10
1.80698
20
1.16019
11
1.80283
21
1.16203
0
LINE
8
BLACK
6
CONTINUOUS
10
1.80283
20
1.16203
11
1.80181
21
1.16215
0
LINE
8
BLACK
6
CONTINUOUS
10
1.80181
20
1.16215
11
1.80181
21
1.16215
0
LINE
8
BLACK
6
CONTINUOUS
10
1.80181
20
1.16215
11
1.80181
21
1.16215
0
LINE
8
BLACK
6
CONTINUOUS
10
1.80181
20
1.16215
11
1.73819
21
1.16215
0
LINE
8
BLACK
6
CONTINUOUS
10
1.73819
20
1.16215
11
1.73819
21
1.16215
0
LINE
8
BLACK
6
CONTINUOUS
10
1.73819
20
1.16215
11
1.73819
21
1.16215
0
LINE
8
BLACK
6
CONTINUOUS
10
1.73819
20
1.16215
11
1.73717
21
1.16203
0
LINE
8
BLACK
6
CONTINUOUS
10
1.73717
20
1.16203
11
1.73302
21
1.16019
0
LINE
8
BLACK
6
CONTINUOUS
10
1.73302
20
1.16019
11
1.73302
21
1.16019
0
LINE
8
BLACK
6
CONTINUOUS
10
1.73302
20
1.16019
11
1.73302
21
1.16019
0
LINE
8
BLACK
6
CONTINUOUS
10
1.73302
20
1.16019
11
1.72981
21
1.15698
0
LINE
8
BLACK
6
CONTINUOUS
10
1.72981
20
1.15698
11
1.72981
21
1.15698
0
LINE
8
BLACK
6
CONTINUOUS
10
1.72981
20
1.15698
11
1.72797
21
1.15283
0
LINE
8
BLACK
6
CONTINUOUS
10
1.72797
20
1.15283
11
1.72797
21
1.15283
0
LINE
8
BLACK
6
CONTINUOUS
10
1.72797
20
1.15283
11
1.72785
21
1.15181
0
LINE
8
BLACK
6
CONTINUOUS
10
1.72785
20
1.15181
11
1.72785
21
1.08819
0
LINE
8
BLACK
6
CONTINUOUS
10
1.72785
20
1.08819
11
1.72797
21
1.08717
0
LINE
8
BLACK
6
CONTINUOUS
10
1.82797
20
1.08717
11
1.82797
21
1.08717
0
LINE
8
BLACK
6
CONTINUOUS
10
1.82797
20
1.08717
11
1.82981
21
1.08302
0
LINE
8
BLACK
6
CONTINUOUS
10
1.82981
20
1.08302
11
1.82981
21
1.08302
0
LINE
8
BLACK
6
CONTINUOUS
10
1.82981
20
1.08302
11
1.83302
21
1.07981
0
LINE
8
BLACK
6
CONTINUOUS
10
1.83302
20
1.07981
11
1.83302
21
1.07981
0
LINE
8
BLACK
6
CONTINUOUS
10
1.83302
20
1.07981
11
1.83717
21
1.07797
0
LINE
8
BLACK
6
CONTINUOUS
10
1.83717
20
1.07797
11
1.83717
21
1.07797
0
LINE
8
BLACK
6
CONTINUOUS
10
1.83717
20
1.07797
11
1.83819
21
1.07785
0
LINE
8
BLACK
6
CONTINUOUS
10
1.83819
20
1.07785
11
1.83819
21
1.07785
0
LINE
8
BLACK
6
CONTINUOUS
10
1.83819
20
1.07785
11
1.90181
21
1.07785
0
LINE
8
BLACK
6
CONTINUOUS
10
1.90181
20
1.07785
11
1.90283
21
1.07797
0
LINE
8
BLACK
6
CONTINUOUS
10
1.90283
20
1.07797
11
1.90283
21
1.07797
0
LINE
8
BLACK
6
CONTINUOUS
10
1.90283
20
1.07797
11
1.90698
21
1.07981
0
LINE
8
BLACK
6
CONTINUOUS
10
1.90698
20
1.07981
11
1.90698
21
1.07981
0
LINE
8
BLACK
6
CONTINUOUS
10
1.90698
20
1.07981
11
1.91019
21
1.08302
0
LINE
8
BLACK
6
CONTINUOUS
10
1.91019
20
1.08302
11
1.91019
21
1.08302
0
LINE
8
BLACK
6
CONTINUOUS
10
1.91019
20
1.08302
11
1.91019
21
1.08302
0
LINE
8
BLACK
6
CONTINUOUS
10
1.91019
20
1.08302
11
1.91203
21
1.08717
0
LINE
8
BLACK
6
CONTINUOUS
10
1.91203
20
1.08717
11
1.91215
21
1.08819
0
LINE
8
BLACK
6
CONTINUOUS
10
1.91215
20
1.08819
11
1.91215
21
1.15181
0
LINE
8
BLACK
6
CONTINUOUS
10
1.91215
20
1.15181
11
1.91203
21
1.15283
0
LINE
8
BLACK
6
CONTINUOUS
10
1.91203
20
1.15283
11
1.91019
21
1.15698
0
LINE
8
BLACK
6
CONTINUOUS
10
1.91019
20
1.15698
11
1.90698
21
1.16019
0
LINE
8
BLACK
6
CONTINUOUS
10
1.90698
20
1.16019
11
1.90283
21
1.16203
0
LINE
8
BLACK
6
CONTINUOUS
10
1.90283
20
1.16203
11
1.90181
21
1.16215
0
LINE
8
BLACK
6
CONTINUOUS
10
1.90181
20
1.16215
11
1.90181
21
1.16215
0
LINE
8
BLACK
6
CONTINUOUS
10
1.90181
20
1.16215
11
1.90181
21
1.16215
0
LINE
8
BLACK
6
CONTINUOUS
10
1.90181
20
1.16215
11
1.83819
21
1.16215
0
LINE
8
BLACK
6
CONTINUOUS
10
1.83819
20
1.16215
11
1.83819
21
1.16215
0
LINE
8
BLACK
6
CONTINUOUS
10
1.83819
20
1.16215
11
1.83819
21
1.16215
0
LINE
8
BLACK
6
CONTINUOUS
10
1.83819
20
1.16215
11
1.83717
21
1.16203
0
LINE
8
BLACK
6
CONTINUOUS
10
1.83717
20
1.16203
11
1.83302
21
1.16019
0
LINE
8
BLACK
6
CONTINUOUS
10
1.83302
20
1.16019
11
1.83302
21
1.16019
0
LINE
8
BLACK
6
CONTINUOUS
10
1.83302
20
1.16019
11
1.83302
21
1.16019
0
LINE
8
BLACK
6
CONTINUOUS
10
1.83302
20
1.16019
11
1.82981
21
1.15698
0
LINE
8
BLACK
6
CONTINUOUS
10
1.82981
20
1.15698
11
1.82981
21
1.15698
0
LINE
8
BLACK
6
CONTINUOUS
10
1.82981
20
1.15698
11
1.82797
21
1.15283
0
LINE
8
BLACK
6
CONTINUOUS
10
1.82797
20
1.15283
11
1.82797
21
1.15283
0
LINE
8
BLACK
6
CONTINUOUS
10
1.82797
20
1.15283
11
1.82785
21
1.15181
0
LINE
8
BLACK
6
CONTINUOUS
10
1.82785
20
1.15181
11
1.82785
21
1.08819
0
LINE
8
BLACK
6
CONTINUOUS
10
1.82785
20
1.08819
11
1.82797
21
1.08717
0
LINE
8
BLACK
6
CONTINUOUS
10
0.213634
20
1.15181
11
0.214142
21
1.14568
0
LINE
8
BLACK
6
CONTINUOUS
10
0.214142
20
1.14568
11
0.216438
21
1.13661
0
LINE
8
BLACK
6
CONTINUOUS
10
0.216438
20
1.13661
11
0.216438
21
1.13661
0
LINE
8
BLACK
6
CONTINUOUS
10
0.216438
20
1.13661
11
0.220195
21
1.12805
0
LINE
8
BLACK
6
CONTINUOUS
10
0.220195
20
1.12805
11
0.225311
21
1.12022
0
LINE
8
BLACK
6
CONTINUOUS
10
0.225311
20
1.12022
11
0.231645
21
1.11334
0
LINE
8
BLACK
6
CONTINUOUS
10
0.231645
20
1.11334
11
0.239026
21
1.10759
0
LINE
8
BLACK
6
CONTINUOUS
10
0.239026
20
1.10759
11
0.239026
21
1.10759
0
LINE
8
BLACK
6
CONTINUOUS
10
0.239026
20
1.10759
11
0.247252
21
1.10314
0
LINE
8
BLACK
6
CONTINUOUS
10
0.247252
20
1.10314
11
0.247252
21
1.10314
0
LINE
8
BLACK
6
CONTINUOUS
10
0.247252
20
1.10314
11
0.256098
21
1.1001
0
LINE
8
BLACK
6
CONTINUOUS
10
0.256098
20
1.1001
11
0.256098
21
1.1001
0
LINE
8
BLACK
6
CONTINUOUS
10
0.256098
20
1.1001
11
0.259166
21
1.09959
0
LINE
8
BLACK
6
CONTINUOUS
10
0.259166
20
1.09959
11
0.265324
21
1.09856
0
LINE
8
BLACK
6
CONTINUOUS
10
0.265324
20
1.09856
11
0.265324
21
1.09856
0
LINE
8
BLACK
6
CONTINUOUS
10
0.265324
20
1.09856
11
0.274676
21
1.09856
0
LINE
8
BLACK
6
CONTINUOUS
10
0.274676
20
1.09856
11
0.274676
21
1.09856
0
LINE
8
BLACK
6
CONTINUOUS
10
0.274676
20
1.09856
11
0.282067
21
1.0998
0
LINE
8
BLACK
6
CONTINUOUS
10
0.282067
20
1.0998
11
0.283902
21
1.1001
0
LINE
8
BLACK
6
CONTINUOUS
10
0.283902
20
1.1001
11
0.283902
21
1.1001
0
LINE
8
BLACK
6
CONTINUOUS
10
0.283902
20
1.1001
11
0.283902
21
1.1001
0
LINE
8
BLACK
6
CONTINUOUS
10
0.283902
20
1.1001
11
0.283902
21
1.1001
0
LINE
8
BLACK
6
CONTINUOUS
10
0.283902
20
1.1001
11
0.292748
21
1.10314
0
LINE
8
BLACK
6
CONTINUOUS
10
0.292748
20
1.10314
11
0.292748
21
1.10314
0
LINE
8
BLACK
6
CONTINUOUS
10
0.292748
20
1.10314
11
0.300974
21
1.10759
0
LINE
8
BLACK
6
CONTINUOUS
10
0.300974
20
1.10759
11
0.300974
21
1.10759
0
LINE
8
BLACK
6
CONTINUOUS
10
0.300974
20
1.10759
11
0.308355
21
1.11334
0
LINE
8
BLACK
6
CONTINUOUS
10
0.308355
20
1.11334
11
0.314689
21
1.12022
0
LINE
8
BLACK
6
CONTINUOUS
10
0.314689
20
1.12022
11
0.319805
21
1.12805
0
LINE
8
BLACK
6
CONTINUOUS
10
0.319805
20
1.12805
11
0.323562
21
1.13661
0
LINE
8
BLACK
6
CONTINUOUS
10
0.323562
20
1.13661
11
0.323562
21
1.13661
0
LINE
8
BLACK
6
CONTINUOUS
10
0.323562
20
1.13661
11
0.325858
21
1.14568
0
LINE
8
BLACK
6
CONTINUOUS
10
0.325858
20
1.14568
11
0.325858
21
1.14568
0
LINE
8
BLACK
6
CONTINUOUS
10
0.325858
20
1.14568
11
0.32663
21
1.155
0
LINE
8
BLACK
6
CONTINUOUS
10
0.32663
20
1.155
11
0.325858
21
1.16432
0
LINE
8
BLACK
6
CONTINUOUS
10
0.325858
20
1.16432
11
0.323562
21
1.17339
0
LINE
8
BLACK
6
CONTINUOUS
10
0.323562
20
1.17339
11
0.319805
21
1.18195
0
LINE
8
BLACK
6
CONTINUOUS
10
0.319805
20
1.18195
11
0.314689
21
1.18978
0
LINE
8
BLACK
6
CONTINUOUS
10
0.314689
20
1.18978
11
0.308355
21
1.19666
0
LINE
8
BLACK
6
CONTINUOUS
10
0.308355
20
1.19666
11
0.3064
21
1.19819
0
LINE
8
BLACK
6
CONTINUOUS
10
0.3064
20
1.19819
11
0.300974
21
1.20241
0
LINE
8
BLACK
6
CONTINUOUS
10
0.300974
20
1.20241
11
0.292748
21
1.20686
0
LINE
8
BLACK
6
CONTINUOUS
10
0.292748
20
1.20686
11
0.283902
21
1.2099
0
LINE
8
BLACK
6
CONTINUOUS
10
0.283902
20
1.2099
11
0.274676
21
1.21144
0
LINE
8
BLACK
6
CONTINUOUS
10
0.274676
20
1.21144
11
0.265324
21
1.21144
0
LINE
8
BLACK
6
CONTINUOUS
10
0.265324
20
1.21144
11
0.256098
21
1.2099
0
LINE
8
BLACK
6
CONTINUOUS
10
0.256098
20
1.2099
11
0.247252
21
1.20686
0
LINE
8
BLACK
6
CONTINUOUS
10
0.247252
20
1.20686
11
0.239026
21
1.20241
0
LINE
8
BLACK
6
CONTINUOUS
10
0.239026
20
1.20241
11
0.231645
21
1.19666
0
LINE
8
BLACK
6
CONTINUOUS
10
0.231645
20
1.19666
11
0.231645
21
1.19666
0
LINE
8
BLACK
6
CONTINUOUS
10
0.231645
20
1.19666
11
0.231645
21
1.19666
0
LINE
8
BLACK
6
CONTINUOUS
10
0.231645
20
1.19666
11
0.225311
21
1.18978
0
LINE
8
BLACK
6
CONTINUOUS
10
0.225311
20
1.18978
11
0.220195
21
1.18195
0
LINE
8
BLACK
6
CONTINUOUS
10
0.220195
20
1.18195
11
0.216438
21
1.17339
0
LINE
8
BLACK
6
CONTINUOUS
10
0.216438
20
1.17339
11
0.216438
21
1.17339
0
LINE
8
BLACK
6
CONTINUOUS
10
0.216438
20
1.17339
11
0.214142
21
1.16432
0
LINE
8
BLACK
6
CONTINUOUS
10
0.214142
20
1.16432
11
0.214142
21
1.16432
0
LINE
8
BLACK
6
CONTINUOUS
10
0.214142
20
1.16432
11
0.214142
21
1.16432
0
LINE
8
BLACK
6
CONTINUOUS
10
0.214142
20
1.16432
11
0.21337
21
1.155
0
LINE
8
BLACK
6
CONTINUOUS
10
0.21337
20
1.155
11
0.213634
21
1.15181
0
LINE
8
BLACK
6
CONTINUOUS
10
1.34797
20
1.19717
11
1.34797
21
1.19717
0
LINE
8
BLACK
6
CONTINUOUS
10
1.34797
20
1.19717
11
1.34981
21
1.19302
0
LINE
8
BLACK
6
CONTINUOUS
10
1.34981
20
1.19302
11
1.34981
21
1.19302
0
LINE
8
BLACK
6
CONTINUOUS
10
1.34981
20
1.19302
11
1.35302
21
1.18981
0
LINE
8
BLACK
6
CONTINUOUS
10
1.35302
20
1.18981
11
1.35302
21
1.18981
0
LINE
8
BLACK
6
CONTINUOUS
10
1.35302
20
1.18981
11
1.35717
21
1.18797
0
LINE
8
BLACK
6
CONTINUOUS
10
1.35717
20
1.18797
11
1.35717
21
1.18797
0
LINE
8
BLACK
6
CONTINUOUS
10
1.35717
20
1.18797
11
1.35819
21
1.18785
0
LINE
8
BLACK
6
CONTINUOUS
10
1.35819
20
1.18785
11
1.35819
21
1.18785
0
LINE
8
BLACK
6
CONTINUOUS
10
1.35819
20
1.18785
11
1.42181
21
1.18785
0
LINE
8
BLACK
6
CONTINUOUS
10
1.42181
20
1.18785
11
1.42283
21
1.18797
0
LINE
8
BLACK
6
CONTINUOUS
10
1.42283
20
1.18797
11
1.42283
21
1.18797
0
LINE
8
BLACK
6
CONTINUOUS
10
1.42283
20
1.18797
11
1.42698
21
1.18981
0
LINE
8
BLACK
6
CONTINUOUS
10
1.42698
20
1.18981
11
1.42698
21
1.18981
0
LINE
8
BLACK
6
CONTINUOUS
10
1.42698
20
1.18981
11
1.43019
21
1.19302
0
LINE
8
BLACK
6
CONTINUOUS
10
1.43019
20
1.19302
11
1.43019
21
1.19302
0
LINE
8
BLACK
6
CONTINUOUS
10
1.43019
20
1.19302
11
1.43019
21
1.19302
0
LINE
8
BLACK
6
CONTINUOUS
10
1.43019
20
1.19302
11
1.43203
21
1.19717
0
LINE
8
BLACK
6
CONTINUOUS
10
1.43203
20
1.19717
11
1.43215
21
1.19819
0
LINE
8
BLACK
6
CONTINUOUS
10
1.43215
20
1.19819
11
1.43215
21
1.19819
0
LINE
8
BLACK
6
CONTINUOUS
10
1.43215
20
1.19819
11
1.43215
21
1.26181
0
LINE
8
BLACK
6
CONTINUOUS
10
1.43215
20
1.26181
11
1.43203
21
1.26283
0
LINE
8
BLACK
6
CONTINUOUS
10
1.43203
20
1.26283
11
1.43019
21
1.26698
0
LINE
8
BLACK
6
CONTINUOUS
10
1.43019
20
1.26698
11
1.42698
21
1.27019
0
LINE
8
BLACK
6
CONTINUOUS
10
1.42698
20
1.27019
11
1.42283
21
1.27203
0
LINE
8
BLACK
6
CONTINUOUS
10
1.42283
20
1.27203
11
1.42181
21
1.27215
0
LINE
8
BLACK
6
CONTINUOUS
10
1.42181
20
1.27215
11
1.42181
21
1.27215
0
LINE
8
BLACK
6
CONTINUOUS
10
1.42181
20
1.27215
11
1.42181
21
1.27215
0
LINE
8
BLACK
6
CONTINUOUS
10
1.42181
20
1.27215
11
1.35819
21
1.27215
0
LINE
8
BLACK
6
CONTINUOUS
10
1.35819
20
1.27215
11
1.35819
21
1.27215
0
LINE
8
BLACK
6
CONTINUOUS
10
1.35819
20
1.27215
11
1.35819
21
1.27215
0
LINE
8
BLACK
6
CONTINUOUS
10
1.35819
20
1.27215
11
1.35717
21
1.27203
0
LINE
8
BLACK
6
CONTINUOUS
10
1.35717
20
1.27203
11
1.35302
21
1.27019
0
LINE
8
BLACK
6
CONTINUOUS
10
1.35302
20
1.27019
11
1.35302
21
1.27019
0
LINE
8
BLACK
6
CONTINUOUS
10
1.35302
20
1.27019
11
1.35302
21
1.27019
0
LINE
8
BLACK
6
CONTINUOUS
10
1.35302
20
1.27019
11
1.34981
21
1.26698
0
LINE
8
BLACK
6
CONTINUOUS
10
1.34981
20
1.26698
11
1.34981
21
1.26698
0
LINE
8
BLACK
6
CONTINUOUS
10
1.34981
20
1.26698
11
1.34797
21
1.26283
0
LINE
8
BLACK
6
CONTINUOUS
10
1.34797
20
1.26283
11
1.34797
21
1.26283
0
LINE
8
BLACK
6
CONTINUOUS
10
1.34797
20
1.26283
11
1.34785
21
1.26181
0
LINE
8
BLACK
6
CONTINUOUS
10
1.34785
20
1.26181
11
1.34785
21
1.19819
0
LINE
8
BLACK
6
CONTINUOUS
10
1.34785
20
1.19819
11
1.34797
21
1.19717
0
LINE
8
BLACK
6
CONTINUOUS
10
1.44797
20
1.19717
11
1.44797
21
1.19717
0
LINE
8
BLACK
6
CONTINUOUS
10
1.44797
20
1.19717
11
1.44981
21
1.19302
0
LINE
8
BLACK
6
CONTINUOUS
10
1.44981
20
1.19302
11
1.44981
21
1.19302
0
LINE
8
BLACK
6
CONTINUOUS
10
1.44981
20
1.19302
11
1.45302
21
1.18981
0
LINE
8
BLACK
6
CONTINUOUS
10
1.45302
20
1.18981
11
1.45302
21
1.18981
0
LINE
8
BLACK
6
CONTINUOUS
10
1.45302
20
1.18981
11
1.45717
21
1.18797
0
LINE
8
BLACK
6
CONTINUOUS
10
1.45717
20
1.18797
11
1.45717
21
1.18797
0
LINE
8
BLACK
6
CONTINUOUS
10
1.45717
20
1.18797
11
1.45819
21
1.18785
0
LINE
8
BLACK
6
CONTINUOUS
10
1.45819
20
1.18785
11
1.45819
21
1.18785
0
LINE
8
BLACK
6
CONTINUOUS
10
1.45819
20
1.18785
11
1.52181
21
1.18785
0
LINE
8
BLACK
6
CONTINUOUS
10
1.52181
20
1.18785
11
1.52283
21
1.18797
0
LINE
8
BLACK
6
CONTINUOUS
10
1.52283
20
1.18797
11
1.52283
21
1.18797
0
LINE
8
BLACK
6
CONTINUOUS
10
1.52283
20
1.18797
11
1.52698
21
1.18981
0
LINE
8
BLACK
6
CONTINUOUS
10
1.52698
20
1.18981
11
1.52698
21
1.18981
0
LINE
8
BLACK
6
CONTINUOUS
10
1.52698
20
1.18981
11
1.53019
21
1.19302
0
LINE
8
BLACK
6
CONTINUOUS
10
1.53019
20
1.19302
11
1.53019
21
1.19302
0
LINE
8
BLACK
6
CONTINUOUS
10
1.53019
20
1.19302
11
1.53019
21
1.19302
0
LINE
8
BLACK
6
CONTINUOUS
10
1.53019
20
1.19302
11
1.53203
21
1.19717
0
LINE
8
BLACK
6
CONTINUOUS
10
1.53203
20
1.19717
11
1.53215
21
1.19819
0
LINE
8
BLACK
6
CONTINUOUS
10
1.53215
20
1.19819
11
1.53215
21
1.26181
0
LINE
8
BLACK
6
CONTINUOUS
10
1.53215
20
1.26181
11
1.53203
21
1.26283
0
LINE
8
BLACK
6
CONTINUOUS
10
1.53203
20
1.26283
11
1.53019
21
1.26698
0
LINE
8
BLACK
6
CONTINUOUS
10
1.53019
20
1.26698
11
1.52698
21
1.27019
0
LINE
8
BLACK
6
CONTINUOUS
10
1.52698
20
1.27019
11
1.52283
21
1.27203
0
LINE
8
BLACK
6
CONTINUOUS
10
1.52283
20
1.27203
11
1.52181
21
1.27215
0
LINE
8
BLACK
6
CONTINUOUS
10
1.52181
20
1.27215
11
1.52181
21
1.27215
0
LINE
8
BLACK
6
CONTINUOUS
10
1.52181
20
1.27215
11
1.52181
21
1.27215
0
LINE
8
BLACK
6
CONTINUOUS
10
1.52181
20
1.27215
11
1.45819
21
1.27215
0
LINE
8
BLACK
6
CONTINUOUS
10
1.45819
20
1.27215
11
1.45819
21
1.27215
0
LINE
8
BLACK
6
CONTINUOUS
10
1.45819
20
1.27215
11
1.45819
21
1.27215
0
LINE
8
BLACK
6
CONTINUOUS
10
1.45819
20
1.27215
11
1.45717
21
1.27203
0
LINE
8
BLACK
6
CONTINUOUS
10
1.45717
20
1.27203
11
1.45302
21
1.27019
0
LINE
8
BLACK
6
CONTINUOUS
10
1.45302
20
1.27019
11
1.45302
21
1.27019
0
LINE
8
BLACK
6
CONTINUOUS
10
1.45302
20
1.27019
11
1.45302
21
1.27019
0
LINE
8
BLACK
6
CONTINUOUS
10
1.45302
20
1.27019
11
1.44981
21
1.26698
0
LINE
8
BLACK
6
CONTINUOUS
10
1.44981
20
1.26698
11
1.44981
21
1.26698
0
LINE
8
BLACK
6
CONTINUOUS
10
1.44981
20
1.26698
11
1.44797
21
1.26283
0
LINE
8
BLACK
6
CONTINUOUS
10
1.44797
20
1.26283
11
1.44797
21
1.26283
0
LINE
8
BLACK
6
CONTINUOUS
10
1.44797
20
1.26283
11
1.44785
21
1.26181
0
LINE
8
BLACK
6
CONTINUOUS
10
1.44785
20
1.26181
11
1.44785
21
1.19819
0
LINE
8
BLACK
6
CONTINUOUS
10
1.44785
20
1.19819
11
1.44797
21
1.19717
0
LINE
8
BLACK
6
CONTINUOUS
10
1.35819
20
1.37215
11
1.35717
21
1.37203
0
LINE
8
BLACK
6
CONTINUOUS
10
1.35717
20
1.37203
11
1.35302
21
1.37019
0
LINE
8
BLACK
6
CONTINUOUS
10
1.35302
20
1.37019
11
1.35302
21
1.37019
0
LINE
8
BLACK
6
CONTINUOUS
10
1.35302
20
1.37019
11
1.35302
21
1.37019
0
LINE
8
BLACK
6
CONTINUOUS
10
1.35302
20
1.37019
11
1.34981
21
1.36698
0
LINE
8
BLACK
6
CONTINUOUS
10
1.34981
20
1.36698
11
1.34981
21
1.36698
0
LINE
8
BLACK
6
CONTINUOUS
10
1.34981
20
1.36698
11
1.34797
21
1.36283
0
LINE
8
BLACK
6
CONTINUOUS
10
1.34797
20
1.36283
11
1.34797
21
1.36283
0
LINE
8
BLACK
6
CONTINUOUS
10
1.34797
20
1.36283
11
1.34785
21
1.36181
0
LINE
8
BLACK
6
CONTINUOUS
10
1.34785
20
1.36181
11
1.34785
21
1.29819
0
LINE
8
BLACK
6
CONTINUOUS
10
1.34785
20
1.29819
11
1.34797
21
1.29717
0
LINE
8
BLACK
6
CONTINUOUS
10
1.34797
20
1.29717
11
1.34797
21
1.29717
0
LINE
8
BLACK
6
CONTINUOUS
10
1.34797
20
1.29717
11
1.34981
21
1.29302
0
LINE
8
BLACK
6
CONTINUOUS
10
1.34981
20
1.29302
11
1.34981
21
1.29302
0
LINE
8
BLACK
6
CONTINUOUS
10
1.34981
20
1.29302
11
1.35302
21
1.28981
0
LINE
8
BLACK
6
CONTINUOUS
10
1.35302
20
1.28981
11
1.35302
21
1.28981
0
LINE
8
BLACK
6
CONTINUOUS
10
1.35302
20
1.28981
11
1.35717
21
1.28797
0
LINE
8
BLACK
6
CONTINUOUS
10
1.35717
20
1.28797
11
1.35717
21
1.28797
0
LINE
8
BLACK
6
CONTINUOUS
10
1.35717
20
1.28797
11
1.35819
21
1.28785
0
LINE
8
BLACK
6
CONTINUOUS
10
1.35819
20
1.28785
11
1.35819
21
1.28785
0
LINE
8
BLACK
6
CONTINUOUS
10
1.35819
20
1.28785
11
1.42181
21
1.28785
0
LINE
8
BLACK
6
CONTINUOUS
10
1.42181
20
1.28785
11
1.42283
21
1.28797
0
LINE
8
BLACK
6
CONTINUOUS
10
1.42283
20
1.28797
11
1.42283
21
1.28797
0
LINE
8
BLACK
6
CONTINUOUS
10
1.42283
20
1.28797
11
1.42698
21
1.28981
0
LINE
8
BLACK
6
CONTINUOUS
10
1.42698
20
1.28981
11
1.42698
21
1.28981
0
LINE
8
BLACK
6
CONTINUOUS
10
1.42698
20
1.28981
11
1.43019
21
1.29302
0
LINE
8
BLACK
6
CONTINUOUS
10
1.43019
20
1.29302
11
1.43019
21
1.29302
0
LINE
8
BLACK
6
CONTINUOUS
10
1.43019
20
1.29302
11
1.43019
21
1.29302
0
LINE
8
BLACK
6
CONTINUOUS
10
1.43019
20
1.29302
11
1.43203
21
1.29717
0
LINE
8
BLACK
6
CONTINUOUS
10
1.43203
20
1.29717
11
1.43215
21
1.29819
0
LINE
8
BLACK
6
CONTINUOUS
10
1.43215
20
1.29819
11
1.43215
21
1.29819
0
LINE
8
BLACK
6
CONTINUOUS
10
1.43215
20
1.29819
11
1.43215
21
1.36181
0
LINE
8
BLACK
6
CONTINUOUS
10
1.43215
20
1.36181
11
1.43203
21
1.36283
0
LINE
8
BLACK
6
CONTINUOUS
10
1.43203
20
1.36283
11
1.43019
21
1.36698
0
LINE
8
BLACK
6
CONTINUOUS
10
1.43019
20
1.36698
11
1.42698
21
1.37019
0
LINE
8
BLACK
6
CONTINUOUS
10
1.42698
20
1.37019
11
1.42283
21
1.37203
0
LINE
8
BLACK
6
CONTINUOUS
10
1.42283
20
1.37203
11
1.42181
21
1.37215
0
LINE
8
BLACK
6
CONTINUOUS
10
1.42181
20
1.37215
11
1.42181
21
1.37215
0
LINE
8
BLACK
6
CONTINUOUS
10
1.42181
20
1.37215
11
1.42181
21
1.37215
0
LINE
8
BLACK
6
CONTINUOUS
10
1.42181
20
1.37215
11
1.35819
21
1.37215
0
LINE
8
BLACK
6
CONTINUOUS
10
1.35819
20
1.37215
11
1.35819
21
1.37215
0
LINE
8
BLACK
6
CONTINUOUS
10
1.35819
20
1.37215
11
1.35819
21
1.37215
0
LINE
8
BLACK
6
CONTINUOUS
10
1.44797
20
1.29717
11
1.44797
21
1.29717
0
LINE
8
BLACK
6
CONTINUOUS
10
1.44797
20
1.29717
11
1.44981
21
1.29302
0
LINE
8
BLACK
6
CONTINUOUS
10
1.44981
20
1.29302
11
1.44981
21
1.29302
0
LINE
8
BLACK
6
CONTINUOUS
10
1.44981
20
1.29302
11
1.45302
21
1.28981
0
LINE
8
BLACK
6
CONTINUOUS
10
1.45302
20
1.28981
11
1.45302
21
1.28981
0
LINE
8
BLACK
6
CONTINUOUS
10
1.45302
20
1.28981
11
1.45717
21
1.28797
0
LINE
8
BLACK
6
CONTINUOUS
10
1.45717
20
1.28797
11
1.45717
21
1.28797
0
LINE
8
BLACK
6
CONTINUOUS
10
1.45717
20
1.28797
11
1.45819
21
1.28785
0
LINE
8
BLACK
6
CONTINUOUS
10
1.45819
20
1.28785
11
1.45819
21
1.28785
0
LINE
8
BLACK
6
CONTINUOUS
10
1.45819
20
1.28785
11
1.52181
21
1.28785
0
LINE
8
BLACK
6
CONTINUOUS
10
1.52181
20
1.28785
11
1.52283
21
1.28797
0
LINE
8
BLACK
6
CONTINUOUS
10
1.52283
20
1.28797
11
1.52283
21
1.28797
0
LINE
8
BLACK
6
CONTINUOUS
10
1.52283
20
1.28797
11
1.52698
21
1.28981
0
LINE
8
BLACK
6
CONTINUOUS
10
1.52698
20
1.28981
11
1.52698
21
1.28981
0
LINE
8
BLACK
6
CONTINUOUS
10
1.52698
20
1.28981
11
1.53019
21
1.29302
0
LINE
8
BLACK
6
CONTINUOUS
10
1.53019
20
1.29302
11
1.53019
21
1.29302
0
LINE
8
BLACK
6
CONTINUOUS
10
1.53019
20
1.29302
11
1.53019
21
1.29302
0
LINE
8
BLACK
6
CONTINUOUS
10
1.53019
20
1.29302
11
1.53203
21
1.29717
0
LINE
8
BLACK
6
CONTINUOUS
10
1.53203
20
1.29717
11
1.53215
21
1.29819
0
LINE
8
BLACK
6
CONTINUOUS
10
1.53215
20
1.29819
11
1.53215
21
1.36181
0
LINE
8
BLACK
6
CONTINUOUS
10
1.53215
20
1.36181
11
1.53203
21
1.36283
0
LINE
8
BLACK
6
CONTINUOUS
10
1.53203
20
1.36283
11
1.53019
21
1.36698
0
LINE
8
BLACK
6
CONTINUOUS
10
1.53019
20
1.36698
11
1.52698
21
1.37019
0
LINE
8
BLACK
6
CONTINUOUS
10
1.52698
20
1.37019
11
1.52283
21
1.37203
0
LINE
8
BLACK
6
CONTINUOUS
10
1.52283
20
1.37203
11
1.52181
21
1.37215
0
LINE
8
BLACK
6
CONTINUOUS
10
1.52181
20
1.37215
11
1.52181
21
1.37215
0
LINE
8
BLACK
6
CONTINUOUS
10
1.52181
20
1.37215
11
1.52181
21
1.37215
0
LINE
8
BLACK
6
CONTINUOUS
10
1.52181
20
1.37215
11
1.45819
21
1.37215
0
LINE
8
BLACK
6
CONTINUOUS
10
1.45819
20
1.37215
11
1.45819
21
1.37215
0
LINE
8
BLACK
6
CONTINUOUS
10
1.45819
20
1.37215
11
1.45819
21
1.37215
0
LINE
8
BLACK
6
CONTINUOUS
10
1.45819
20
1.37215
11
1.45717
21
1.37203
0
LINE
8
BLACK
6
CONTINUOUS
10
1.45717
20
1.37203
11
1.45302
21
1.37019
0
LINE
8
BLACK
6
CONTINUOUS
10
1.45302
20
1.37019
11
1.45302
21
1.37019
0
LINE
8
BLACK
6
CONTINUOUS
10
1.45302
20
1.37019
11
1.45302
21
1.37019
0
LINE
8
BLACK
6
CONTINUOUS
10
1.45302
20
1.37019
11
1.44981
21
1.36698
0
LINE
8
BLACK
6
CONTINUOUS
10
1.44981
20
1.36698
11
1.44981
21
1.36698
0
LINE
8
BLACK
6
CONTINUOUS
10
1.44981
20
1.36698
11
1.44797
21
1.36283
0
LINE
8
BLACK
6
CONTINUOUS
10
1.44797
20
1.36283
11
1.44797
21
1.36283
0
LINE
8
BLACK
6
CONTINUOUS
10
1.44797
20
1.36283
11
1.44785
21
1.36181
0
LINE
8
BLACK
6
CONTINUOUS
10
1.44785
20
1.36181
11
1.44785
21
1.29819
0
LINE
8
BLACK
6
CONTINUOUS
10
1.44785
20
1.29819
11
1.44797
21
1.29717
0
LINE
8
BLACK
6
CONTINUOUS
10
0.0821209
20
0.997601
11
0.0897424
21
0.994648
0
LINE
8
BLACK
6
CONTINUOUS
10
0.0897424
20
0.994648
11
0.0966915
21
0.990345
0
LINE
8
BLACK
6
CONTINUOUS
10
0.0966915
20
0.990345
11
0.102732
21
0.984839
0
LINE
8
BLACK
6
CONTINUOUS
10
0.102732
20
0.984839
11
0.107657
21
0.978316
0
LINE
8
BLACK
6
CONTINUOUS
10
0.107657
20
0.978316
11
0.1113
21
0.971
0
LINE
8
BLACK
6
CONTINUOUS
10
0.1113
20
0.971
11
0.113537
21
0.963139
0
LINE
8
BLACK
6
CONTINUOUS
10
0.113537
20
0.963139
11
0.114291
21
0.955
0
LINE
8
BLACK
6
CONTINUOUS
10
0.114291
20
0.955
11
0.113537
21
0.946861
0
LINE
8
BLACK
6
CONTINUOUS
10
0.113537
20
0.946861
11
0.1113
21
0.939
0
LINE
8
BLACK
6
CONTINUOUS
10
0.1113
20
0.939
11
0.107657
21
0.931684
0
LINE
8
BLACK
6
CONTINUOUS
10
0.107657
20
0.931684
11
0.102732
21
0.925161
0
LINE
8
BLACK
6
CONTINUOUS
10
0.102732
20
0.925161
11
0.0966915
21
0.919655
0
LINE
8
BLACK
6
CONTINUOUS
10
0.0966915
20
0.919655
11
0.0897424
21
0.915352
0
LINE
8
BLACK
6
CONTINUOUS
10
0.0897424
20
0.915352
11
0.0821209
21
0.912399
0
LINE
8
BLACK
6
CONTINUOUS
10
0.0821209
20
0.912399
11
0.0740867
21
0.910898
0
LINE
8
BLACK
6
CONTINUOUS
10
0.0740867
20
0.910898
11
0.0659133
21
0.910898
0
LINE
8
BLACK
6
CONTINUOUS
10
0.0659133
20
0.910898
11
0.0578791
21
0.912399
0
LINE
8
BLACK
6
CONTINUOUS
10
0.0578791
20
0.912399
11
0.0502576
21
0.915352
0
LINE
8
BLACK
6
CONTINUOUS
10
0.0502576
20
0.915352
11
0.0433085
21
0.919655
0
LINE
8
BLACK
6
CONTINUOUS
10
0.0433085
20
0.919655
11
0.0372683
21
0.925161
0
LINE
8
BLACK
6
CONTINUOUS
10
0.0372683
20
0.925161
11
0.0323428
21
0.931684
0
LINE
8
BLACK
6
CONTINUOUS
10
0.0323428
20
0.931684
11
0.0286996
21
0.939
0
LINE
8
BLACK
6
CONTINUOUS
10
0.0286996
20
0.939
11
0.0264628
21
0.946861
0
LINE
8
BLACK
6
CONTINUOUS
10
0.0264628
20
0.946861
11
0.0257087
21
0.955
0
LINE
8
BLACK
6
CONTINUOUS
10
0.0257087
20
0.955
11
0.0264628
21
0.963139
0
LINE
8
BLACK
6
CONTINUOUS
10
0.0264628
20
0.963139
11
0.0286996
21
0.971
0
LINE
8
BLACK
6
CONTINUOUS
10
0.0286996
20
0.971
11
0.0323428
21
0.978316
0
LINE
8
BLACK
6
CONTINUOUS
10
0.0323428
20
0.978316
11
0.0372683
21
0.984839
0
LINE
8
BLACK
6
CONTINUOUS
10
0.0372683
20
0.984839
11
0.0433085
21
0.990345
0
LINE
8
BLACK
6
CONTINUOUS
10
0.0433085
20
0.990345
11
0.0502576
21
0.994648
0
LINE
8
BLACK
6
CONTINUOUS
10
0.0502576
20
0.994648
11
0.0578791
21
0.997601
0
LINE
8
BLACK
6
CONTINUOUS
10
0.0578791
20
0.997601
11
0.0659133
21
0.999102
0
LINE
8
BLACK
6
CONTINUOUS
10
0.0659133
20
0.999102
11
0.0740867
21
0.999102
0
LINE
8
BLACK
6
CONTINUOUS
10
0.0740867
20
0.999102
11
0.0821209
21
0.997601
0
LINE
8
BLACK
6
CONTINUOUS
10
0.0821209
20
1.1976
11
0.0897424
21
1.19465
0
LINE
8
BLACK
6
CONTINUOUS
10
0.0897424
20
1.19465
11
0.0966915
21
1.19035
0
LINE
8
BLACK
6
CONTINUOUS
10
0.0966915
20
1.19035
11
0.102732
21
1.18484
0
LINE
8
BLACK
6
CONTINUOUS
10
0.102732
20
1.18484
11
0.107657
21
1.17832
0
LINE
8
BLACK
6
CONTINUOUS
10
0.107657
20
1.17832
11
0.1113
21
1.171
0
LINE
8
BLACK
6
CONTINUOUS
10
0.1113
20
1.171
11
0.113537
21
1.16314
0
LINE
8
BLACK
6
CONTINUOUS
10
0.113537
20
1.16314
11
0.114291
21
1.155
0
LINE
8
BLACK
6
CONTINUOUS
10
0.114291
20
1.155
11
0.113537
21
1.14686
0
LINE
8
BLACK
6
CONTINUOUS
10
0.113537
20
1.14686
11
0.1113
21
1.139
0
LINE
8
BLACK
6
CONTINUOUS
10
0.1113
20
1.139
11
0.107657
21
1.13168
0
LINE
8
BLACK
6
CONTINUOUS
10
0.107657
20
1.13168
11
0.102732
21
1.12516
0
LINE
8
BLACK
6
CONTINUOUS
10
0.102732
20
1.12516
11
0.0966915
21
1.11965
0
LINE
8
BLACK
6
CONTINUOUS
10
0.0966915
20
1.11965
11
0.0897424
21
1.11535
0
LINE
8
BLACK
6
CONTINUOUS
10
0.0897424
20
1.11535
11
0.0821209
21
1.1124
0
LINE
8
BLACK
6
CONTINUOUS
10
0.0821209
20
1.1124
11
0.0740867
21
1.1109
0
LINE
8
BLACK
6
CONTINUOUS
10
0.0740867
20
1.1109
11
0.0659133
21
1.1109
0
LINE
8
BLACK
6
CONTINUOUS
10
0.0659133
20
1.1109
11
0.0578791
21
1.1124
0
LINE
8
BLACK
6
CONTINUOUS
10
0.0578791
20
1.1124
11
0.0502576
21
1.11535
0
LINE
8
BLACK
6
CONTINUOUS
10
0.0502576
20
1.11535
11
0.0433085
21
1.11965
0
LINE
8
BLACK
6
CONTINUOUS
10
0.0433085
20
1.11965
11
0.0372683
21
1.12516
0
LINE
8
BLACK
6
CONTINUOUS
10
0.0372683
20
1.12516
11
0.0323428
21
1.13168
0
LINE
8
BLACK
6
CONTINUOUS
10
0.0323428
20
1.13168
11
0.0286996
21
1.139
0
LINE
8
BLACK
6
CONTINUOUS
10
0.0286996
20
1.139
11
0.0264628
21
1.14686
0
LINE
8
BLACK
6
CONTINUOUS
10
0.0264628
20
1.14686
11
0.0257087
21
1.155
0
LINE
8
BLACK
6
CONTINUOUS
10
0.0257087
20
1.155
11
0.0264628
21
1.16314
0
LINE
8
BLACK
6
CONTINUOUS
10
0.0264628
20
1.16314
11
0.0286996
21
1.171
0
LINE
8
BLACK
6
CONTINUOUS
10
0.0286996
20
1.171
11
0.0323428
21
1.17832
0
LINE
8
BLACK
6
CONTINUOUS
10
0.0323428
20
1.17832
11
0.0372683
21
1.18484
0
LINE
8
BLACK
6
CONTINUOUS
10
0.0372683
20
1.18484
11
0.0433085
21
1.19035
0
LINE
8
BLACK
6
CONTINUOUS
10
0.0433085
20
1.19035
11
0.0502576
21
1.19465
0
LINE
8
BLACK
6
CONTINUOUS
10
0.0502576
20
1.19465
11
0.0578791
21
1.1976
0
LINE
8
BLACK
6
CONTINUOUS
10
0.0578791
20
1.1976
11
0.0659133
21
1.1991
0
LINE
8
BLACK
6
CONTINUOUS
10
0.0659133
20
1.1991
11
0.0740867
21
1.1991
0
LINE
8
BLACK
6
CONTINUOUS
10
0.0740867
20
1.1991
11
0.0821209
21
1.1976
0
CIRCLE
8
BLACK
10
0.2
20
1.4
40
0.00688976
0
CIRCLE
8
BLACK
10
1.8
20
0.2
40
0.00688976
0
CIRCLE
8
BLACK
10
1.8
20
1.4
40
0.00688976
0
CIRCLE
8
BLACK
10
0.2
20
0.2
40
0.00688976
0
CIRCLE
8
BLACK
10
0.17
20
1.055
40
0.00688976
0
CIRCLE
8
BLACK
10
0.07
20
0.955
40
0.00688976
0
CIRCLE
8
BLACK
10
0.27
20
0.955
40
0.00688976
0
CIRCLE
8
BLACK
10
0.07
20
1.155
40
0.00688976
0
CIRCLE
8
BLACK
10
0.27
20
1.155
40
0.00688976
0
CIRCLE
8
BLACK
10
1.92
20
0.46
40
0.00688976
0
CIRCLE
8
BLACK
10
1.82
20
0.46
40
0.00688976
0
CIRCLE
8
BLACK
10
1.92
20
0.56
40
0.00688976
0
CIRCLE
8
BLACK
10
1.82
20
0.56
40
0.00688976
0
CIRCLE
8
BLACK
10
1.92
20
0.66
40
0.00688976
0
CIRCLE
8
BLACK
10
1.82
20
0.66
40
0.00688976
0
CIRCLE
8
BLACK
10
1.36
20
-0.31
40
0.00688976
0
CIRCLE
8
BLACK
10
1.36
20
-0.21
40
0.00688976
0
CIRCLE
8
BLACK
10
1.26
20
-0.31
40
0.00688976
0
CIRCLE
8
BLACK
10
1.26
20
-0.21
40
0.00688976
0
CIRCLE
8
BLACK
10
1.39
20
1.23
40
0.00688976
0
CIRCLE
8
BLACK
10
1.49
20
1.23
40
0.00688976
0
CIRCLE
8
BLACK
10
1.39
20
1.33
40
0.00688976
0
CIRCLE
8
BLACK
10
1.49
20
1.33
40
0.00688976
0
CIRCLE
8
BLACK
10
1.87
20
1.02
40
0.00688976
0
CIRCLE
8
BLACK
10
1.77
20
1.02
40
0.00688976
0
CIRCLE
8
BLACK
10
1.77
20
0.82
40
0.00688976
0
CIRCLE
8
BLACK
10
1.87
20
0.82
40
0.00688976
0
CIRCLE
8
BLACK
10
1.77
20
0.92
40
0.00688976
0
CIRCLE
8
BLACK
10
1.87
20
0.92
40
0.00688976
0
CIRCLE
8
BLACK
10
1.87
20
1.12
40
0.00688976
0
CIRCLE
8
BLACK
10
1.77
20
1.12
40
0.00688976
0
CIRCLE
8
BLACK
10
1.53
20
0.7
40
0.00688976
0
CIRCLE
8
BLACK
10
1.43
20
0.7
40
0.00688976
0
CIRCLE
8
BLACK
10
0.09
20
0.62
40
0.00688976
0
CIRCLE
8
BLACK
10
0.19
20
0.62
40
0.00688976
0
CIRCLE
8
BLACK
10
0.09
20
0.52
40
0.00688976
0
CIRCLE
8
BLACK
10
0.19
20
0.52
40
0.00688976
0
CIRCLE
8
BLACK
10
0.09
20
0.42
40
0.00688976
0
CIRCLE
8
BLACK
10
0.19
20
0.42
40
0.00688976
0
CIRCLE
8
BLACK
10
0.09
20
0.72
40
0.00688976
0
CIRCLE
8
BLACK
10
0.19
20
0.72
40
0.00688976
0
CIRCLE
8
BLACK
10
1.08
20
1.14
40
0.00787402
  0
ENDSEC
  0
EOF
