  0
SECTION
  2
HEADER
  9
$ANGBASE
  50
0.0
  9
$ANGDIR
  70
1
  9
$MEASUREMENT
  70
0
  0
ENDSEC
  0
SECTION
  2
TABLES
  0
TABLE
  2
LTYPE
  70
4
  0
LTYPE
  5
40F
  2
CONTINUOUS
  70
0
  3
Solid line
  72
65
  73
0
  40
0.0
  0
LTYPE
  5
410
  2
DASHDOT
 70
0
  3
Dash Dot ____ _ ____ _
 72
65
 73
4
 40
2.0
 49
1.25
 49
-0.25
 49
0.25
 49
-0.25
  0
LTYPE
  5
411
  2
DASHED
 70
0
  3
Dashed __ __ __ __ __
 72
65
 73
2
 40
0.75
 49
0.5
 49
-0.25
  0
LTYPE
  5
43B
  2
DOTTED
 70
0
  3
Dotted .  .  .  .
 72
65
 73
2
 40
0.2
 49
0.0
 49
-0.2
  0
ENDTAB
  0
TABLE
  2
STYLE
  70
4
  0
STYLE
  2
KICAD
  70
0
  40
0
  41
1
  42
1
  50
0
  71
0
  3
isocp.shx
  0
STYLE
  2
KICADB
  70
0
  40
0
  41
1
  42
1
  50
0
  71
0
  3
isocp.shx
  0
STYLE
  2
KICADI
  70
0
  40
0
  41
1
  42
1
  50
15
  71
0
  3
isocp.shx
  0
STYLE
  2
KICADBI
  70
0
  40
0
  41
1
  42
1
  50
15
  71
0
  3
isocp.shx
  0
ENDTAB
  0
TABLE
  2
LAYER
  70
1
  0
LAYER
  2
BLACK
  70
0
  62
7
  6
CONTINUOUS
  0
ENDTAB
  0
ENDSEC
  0
SECTION
  2
ENTITIES
0
LINE
8
BLACK
6
CONTINUOUS
10
0.414063
20
0.52481
11
0.427949
21
0.522451
0
LINE
8
BLACK
6
CONTINUOUS
10
0.427949
20
0.522451
11
0.441483
21
0.518552
0
LINE
8
BLACK
6
CONTINUOUS
10
0.441483
20
0.518552
11
0.454496
21
0.513162
0
LINE
8
BLACK
6
CONTINUOUS
10
0.454496
20
0.513162
11
0.466823
21
0.506349
0
LINE
8
BLACK
6
CONTINUOUS
10
0.466823
20
0.506349
11
0.47831
21
0.498198
0
LINE
8
BLACK
6
CONTINUOUS
10
0.47831
20
0.498198
11
0.488813
21
0.488813
0
LINE
8
BLACK
6
CONTINUOUS
10
0.488813
20
0.488813
11
0.498198
21
0.47831
0
LINE
8
BLACK
6
CONTINUOUS
10
0.498198
20
0.47831
11
0.506349
21
0.466823
0
LINE
8
BLACK
6
CONTINUOUS
10
0.506349
20
0.466823
11
0.513162
21
0.454496
0
LINE
8
BLACK
6
CONTINUOUS
10
0.513162
20
0.454496
11
0.518552
21
0.441483
0
LINE
8
BLACK
6
CONTINUOUS
10
0.518552
20
0.441483
11
0.522451
21
0.427949
0
LINE
8
BLACK
6
CONTINUOUS
10
0.522451
20
0.427949
11
0.52481
21
0.414063
0
LINE
8
BLACK
6
CONTINUOUS
10
0.52481
20
0.414063
11
0.5256
21
0.4
0
LINE
8
BLACK
6
CONTINUOUS
10
0.5256
20
0.4
11
0.52481
21
0.385937
0
LINE
8
BLACK
6
CONTINUOUS
10
0.52481
20
0.385937
11
0.522451
21
0.372051
0
LINE
8
BLACK
6
CONTINUOUS
10
0.522451
20
0.372051
11
0.518552
21
0.358517
0
LINE
8
BLACK
6
CONTINUOUS
10
0.518552
20
0.358517
11
0.513162
21
0.345504
0
LINE
8
BLACK
6
CONTINUOUS
10
0.513162
20
0.345504
11
0.506349
21
0.333177
0
LINE
8
BLACK
6
CONTINUOUS
10
0.506349
20
0.333177
11
0.498198
21
0.32169
0
LINE
8
BLACK
6
CONTINUOUS
10
0.498198
20
0.32169
11
0.488813
21
0.311187
0
LINE
8
BLACK
6
CONTINUOUS
10
0.488813
20
0.311187
11
0.47831
21
0.301802
0
LINE
8
BLACK
6
CONTINUOUS
10
0.47831
20
0.301802
11
0.466823
21
0.293651
0
LINE
8
BLACK
6
CONTINUOUS
10
0.466823
20
0.293651
11
0.454496
21
0.286838
0
LINE
8
BLACK
6
CONTINUOUS
10
0.454496
20
0.286838
11
0.441483
21
0.281448
0
LINE
8
BLACK
6
CONTINUOUS
10
0.441483
20
0.281448
11
0.427949
21
0.277549
0
LINE
8
BLACK
6
CONTINUOUS
10
0.427949
20
0.277549
11
0.414063
21
0.27519
0
LINE
8
BLACK
6
CONTINUOUS
10
0.414063
20
0.27519
11
0.4
21
0.2744
0
LINE
8
BLACK
6
CONTINUOUS
10
0.4
20
0.2744
11
0.385937
21
0.27519
0
LINE
8
BLACK
6
CONTINUOUS
10
0.385937
20
0.27519
11
0.372051
21
0.277549
0
LINE
8
BLACK
6
CONTINUOUS
10
0.372051
20
0.277549
11
0.358517
21
0.281448
0
LINE
8
BLACK
6
CONTINUOUS
10
0.358517
20
0.281448
11
0.345504
21
0.286838
0
LINE
8
BLACK
6
CONTINUOUS
10
0.345504
20
0.286838
11
0.333177
21
0.293651
0
LINE
8
BLACK
6
CONTINUOUS
10
0.333177
20
0.293651
11
0.32169
21
0.301802
0
LINE
8
BLACK
6
CONTINUOUS
10
0.32169
20
0.301802
11
0.311187
21
0.311187
0
LINE
8
BLACK
6
CONTINUOUS
10
0.311187
20
0.311187
11
0.301802
21
0.32169
0
LINE
8
BLACK
6
CONTINUOUS
10
0.301802
20
0.32169
11
0.293651
21
0.333177
0
LINE
8
BLACK
6
CONTINUOUS
10
0.293651
20
0.333177
11
0.286838
21
0.345504
0
LINE
8
BLACK
6
CONTINUOUS
10
0.286838
20
0.345504
11
0.281448
21
0.358517
0
LINE
8
BLACK
6
CONTINUOUS
10
0.281448
20
0.358517
11
0.277549
21
0.372051
0
LINE
8
BLACK
6
CONTINUOUS
10
0.277549
20
0.372051
11
0.27519
21
0.385937
0
LINE
8
BLACK
6
CONTINUOUS
10
0.27519
20
0.385937
11
0.2744
21
0.4
0
LINE
8
BLACK
6
CONTINUOUS
10
0.2744
20
0.4
11
0.27519
21
0.414063
0
LINE
8
BLACK
6
CONTINUOUS
10
0.27519
20
0.414063
11
0.277549
21
0.427949
0
LINE
8
BLACK
6
CONTINUOUS
10
0.277549
20
0.427949
11
0.281448
21
0.441483
0
LINE
8
BLACK
6
CONTINUOUS
10
0.281448
20
0.441483
11
0.286838
21
0.454496
0
LINE
8
BLACK
6
CONTINUOUS
10
0.286838
20
0.454496
11
0.293651
21
0.466823
0
LINE
8
BLACK
6
CONTINUOUS
10
0.293651
20
0.466823
11
0.301802
21
0.47831
0
LINE
8
BLACK
6
CONTINUOUS
10
0.301802
20
0.47831
11
0.311187
21
0.488813
0
LINE
8
BLACK
6
CONTINUOUS
10
0.311187
20
0.488813
11
0.32169
21
0.498198
0
LINE
8
BLACK
6
CONTINUOUS
10
0.32169
20
0.498198
11
0.333177
21
0.506349
0
LINE
8
BLACK
6
CONTINUOUS
10
0.333177
20
0.506349
11
0.345504
21
0.513162
0
LINE
8
BLACK
6
CONTINUOUS
10
0.345504
20
0.513162
11
0.358517
21
0.518552
0
LINE
8
BLACK
6
CONTINUOUS
10
0.358517
20
0.518552
11
0.372051
21
0.522451
0
LINE
8
BLACK
6
CONTINUOUS
10
0.372051
20
0.522451
11
0.385937
21
0.52481
0
LINE
8
BLACK
6
CONTINUOUS
10
0.385937
20
0.52481
11
0.4
21
0.5256
0
LINE
8
BLACK
6
CONTINUOUS
10
0.4
20
0.5256
11
0.414063
21
0.52481
0
LINE
8
BLACK
6
CONTINUOUS
10
0.289962
20
0.387138
11
0.292199
21
0.374451
0
LINE
8
BLACK
6
CONTINUOUS
10
0.292199
20
0.374451
11
0.295894
21
0.362108
0
LINE
8
BLACK
6
CONTINUOUS
10
0.295894
20
0.362108
11
0.300997
21
0.350279
0
LINE
8
BLACK
6
CONTINUOUS
10
0.300997
20
0.350279
11
0.307438
21
0.339121
0
LINE
8
BLACK
6
CONTINUOUS
10
0.307438
20
0.339121
11
0.315132
21
0.328787
0
LINE
8
BLACK
6
CONTINUOUS
10
0.315132
20
0.328787
11
0.323973
21
0.319416
0
LINE
8
BLACK
6
CONTINUOUS
10
0.323973
20
0.319416
11
0.333842
21
0.311135
0
LINE
8
BLACK
6
CONTINUOUS
10
0.333842
20
0.311135
11
0.344606
21
0.304055
0
LINE
8
BLACK
6
CONTINUOUS
10
0.344606
20
0.304055
11
0.356119
21
0.298273
0
LINE
8
BLACK
6
CONTINUOUS
10
0.356119
20
0.298273
11
0.368226
21
0.293867
0
LINE
8
BLACK
6
CONTINUOUS
10
0.368226
20
0.293867
11
0.380762
21
0.290896
0
LINE
8
BLACK
6
CONTINUOUS
10
0.380762
20
0.290896
11
0.393558
21
0.2894
0
LINE
8
BLACK
6
CONTINUOUS
10
0.393558
20
0.2894
11
0.406442
21
0.2894
0
LINE
8
BLACK
6
CONTINUOUS
10
0.406442
20
0.2894
11
0.419238
21
0.290896
0
LINE
8
BLACK
6
CONTINUOUS
10
0.419238
20
0.290896
11
0.431774
21
0.293867
0
LINE
8
BLACK
6
CONTINUOUS
10
0.431774
20
0.293867
11
0.443881
21
0.298273
0
LINE
8
BLACK
6
CONTINUOUS
10
0.443881
20
0.298273
11
0.455394
21
0.304055
0
LINE
8
BLACK
6
CONTINUOUS
10
0.455394
20
0.304055
11
0.466158
21
0.311135
0
LINE
8
BLACK
6
CONTINUOUS
10
0.466158
20
0.311135
11
0.476027
21
0.319416
0
LINE
8
BLACK
6
CONTINUOUS
10
0.476027
20
0.319416
11
0.484868
21
0.328787
0
LINE
8
BLACK
6
CONTINUOUS
10
0.484868
20
0.328787
11
0.492562
21
0.339121
0
LINE
8
BLACK
6
CONTINUOUS
10
0.492562
20
0.339121
11
0.499003
21
0.350279
0
LINE
8
BLACK
6
CONTINUOUS
10
0.499003
20
0.350279
11
0.504106
21
0.362108
0
LINE
8
BLACK
6
CONTINUOUS
10
0.504106
20
0.362108
11
0.507801
21
0.374451
0
LINE
8
BLACK
6
CONTINUOUS
10
0.507801
20
0.374451
11
0.510038
21
0.387138
0
LINE
8
BLACK
6
CONTINUOUS
10
0.510038
20
0.387138
11
0.510787
21
0.4
0
LINE
8
BLACK
6
CONTINUOUS
10
0.510787
20
0.4
11
0.510038
21
0.412862
0
LINE
8
BLACK
6
CONTINUOUS
10
0.510038
20
0.412862
11
0.507801
21
0.425549
0
LINE
8
BLACK
6
CONTINUOUS
10
0.507801
20
0.425549
11
0.504106
21
0.437892
0
LINE
8
BLACK
6
CONTINUOUS
10
0.504106
20
0.437892
11
0.499003
21
0.449721
0
LINE
8
BLACK
6
CONTINUOUS
10
0.499003
20
0.449721
11
0.492562
21
0.460879
0
LINE
8
BLACK
6
CONTINUOUS
10
0.492562
20
0.460879
11
0.484868
21
0.471213
0
LINE
8
BLACK
6
CONTINUOUS
10
0.484868
20
0.471213
11
0.476027
21
0.480584
0
LINE
8
BLACK
6
CONTINUOUS
10
0.476027
20
0.480584
11
0.466158
21
0.488865
0
LINE
8
BLACK
6
CONTINUOUS
10
0.466158
20
0.488865
11
0.455394
21
0.495945
0
LINE
8
BLACK
6
CONTINUOUS
10
0.455394
20
0.495945
11
0.443881
21
0.501727
0
LINE
8
BLACK
6
CONTINUOUS
10
0.443881
20
0.501727
11
0.431774
21
0.506133
0
LINE
8
BLACK
6
CONTINUOUS
10
0.431774
20
0.506133
11
0.419238
21
0.509104
0
LINE
8
BLACK
6
CONTINUOUS
10
0.419238
20
0.509104
11
0.406442
21
0.5106
0
LINE
8
BLACK
6
CONTINUOUS
10
0.406442
20
0.5106
11
0.393558
21
0.5106
0
LINE
8
BLACK
6
CONTINUOUS
10
0.393558
20
0.5106
11
0.380762
21
0.509104
0
LINE
8
BLACK
6
CONTINUOUS
10
0.380762
20
0.509104
11
0.368226
21
0.506133
0
LINE
8
BLACK
6
CONTINUOUS
10
0.368226
20
0.506133
11
0.356119
21
0.501727
0
LINE
8
BLACK
6
CONTINUOUS
10
0.356119
20
0.501727
11
0.344606
21
0.495945
0
LINE
8
BLACK
6
CONTINUOUS
10
0.344606
20
0.495945
11
0.333842
21
0.488865
0
LINE
8
BLACK
6
CONTINUOUS
10
0.333842
20
0.488865
11
0.323973
21
0.480584
0
LINE
8
BLACK
6
CONTINUOUS
10
0.323973
20
0.480584
11
0.315132
21
0.471213
0
LINE
8
BLACK
6
CONTINUOUS
10
0.315132
20
0.471213
11
0.307438
21
0.460879
0
LINE
8
BLACK
6
CONTINUOUS
10
0.307438
20
0.460879
11
0.300997
21
0.449721
0
LINE
8
BLACK
6
CONTINUOUS
10
0.300997
20
0.449721
11
0.295894
21
0.437892
0
LINE
8
BLACK
6
CONTINUOUS
10
0.295894
20
0.437892
11
0.292199
21
0.425549
0
LINE
8
BLACK
6
CONTINUOUS
10
0.292199
20
0.425549
11
0.289962
21
0.412862
0
LINE
8
BLACK
6
CONTINUOUS
10
0.289962
20
0.412862
11
0.289213
21
0.4
0
LINE
8
BLACK
6
CONTINUOUS
10
0.289213
20
0.4
11
0.289962
21
0.387138
0
LINE
8
BLACK
6
CONTINUOUS
10
2.41406
20
0.52481
11
2.42795
21
0.522451
0
LINE
8
BLACK
6
CONTINUOUS
10
2.42795
20
0.522451
11
2.44148
21
0.518552
0
LINE
8
BLACK
6
CONTINUOUS
10
2.44148
20
0.518552
11
2.4545
21
0.513162
0
LINE
8
BLACK
6
CONTINUOUS
10
2.4545
20
0.513162
11
2.46682
21
0.506349
0
LINE
8
BLACK
6
CONTINUOUS
10
2.46682
20
0.506349
11
2.47831
21
0.498198
0
LINE
8
BLACK
6
CONTINUOUS
10
2.47831
20
0.498198
11
2.48881
21
0.488813
0
LINE
8
BLACK
6
CONTINUOUS
10
2.48881
20
0.488813
11
2.4982
21
0.47831
0
LINE
8
BLACK
6
CONTINUOUS
10
2.4982
20
0.47831
11
2.50635
21
0.466823
0
LINE
8
BLACK
6
CONTINUOUS
10
2.50635
20
0.466823
11
2.51316
21
0.454496
0
LINE
8
BLACK
6
CONTINUOUS
10
2.51316
20
0.454496
11
2.51855
21
0.441483
0
LINE
8
BLACK
6
CONTINUOUS
10
2.51855
20
0.441483
11
2.52245
21
0.427949
0
LINE
8
BLACK
6
CONTINUOUS
10
2.52245
20
0.427949
11
2.52481
21
0.414063
0
LINE
8
BLACK
6
CONTINUOUS
10
2.52481
20
0.414063
11
2.5256
21
0.4
0
LINE
8
BLACK
6
CONTINUOUS
10
2.5256
20
0.4
11
2.52481
21
0.385937
0
LINE
8
BLACK
6
CONTINUOUS
10
2.52481
20
0.385937
11
2.52245
21
0.372051
0
LINE
8
BLACK
6
CONTINUOUS
10
2.52245
20
0.372051
11
2.51855
21
0.358517
0
LINE
8
BLACK
6
CONTINUOUS
10
2.51855
20
0.358517
11
2.51316
21
0.345504
0
LINE
8
BLACK
6
CONTINUOUS
10
2.51316
20
0.345504
11
2.50635
21
0.333177
0
LINE
8
BLACK
6
CONTINUOUS
10
2.50635
20
0.333177
11
2.4982
21
0.32169
0
LINE
8
BLACK
6
CONTINUOUS
10
2.4982
20
0.32169
11
2.48881
21
0.311187
0
LINE
8
BLACK
6
CONTINUOUS
10
2.48881
20
0.311187
11
2.47831
21
0.301802
0
LINE
8
BLACK
6
CONTINUOUS
10
2.47831
20
0.301802
11
2.46682
21
0.293651
0
LINE
8
BLACK
6
CONTINUOUS
10
2.46682
20
0.293651
11
2.4545
21
0.286838
0
LINE
8
BLACK
6
CONTINUOUS
10
2.4545
20
0.286838
11
2.44148
21
0.281448
0
LINE
8
BLACK
6
CONTINUOUS
10
2.44148
20
0.281448
11
2.42795
21
0.277549
0
LINE
8
BLACK
6
CONTINUOUS
10
2.42795
20
0.277549
11
2.41406
21
0.27519
0
LINE
8
BLACK
6
CONTINUOUS
10
2.41406
20
0.27519
11
2.4
21
0.2744
0
LINE
8
BLACK
6
CONTINUOUS
10
2.4
20
0.2744
11
2.38594
21
0.27519
0
LINE
8
BLACK
6
CONTINUOUS
10
2.38594
20
0.27519
11
2.37205
21
0.277549
0
LINE
8
BLACK
6
CONTINUOUS
10
2.37205
20
0.277549
11
2.35852
21
0.281448
0
LINE
8
BLACK
6
CONTINUOUS
10
2.35852
20
0.281448
11
2.3455
21
0.286838
0
LINE
8
BLACK
6
CONTINUOUS
10
2.3455
20
0.286838
11
2.33318
21
0.293651
0
LINE
8
BLACK
6
CONTINUOUS
10
2.33318
20
0.293651
11
2.32169
21
0.301802
0
LINE
8
BLACK
6
CONTINUOUS
10
2.32169
20
0.301802
11
2.31119
21
0.311187
0
LINE
8
BLACK
6
CONTINUOUS
10
2.31119
20
0.311187
11
2.3018
21
0.32169
0
LINE
8
BLACK
6
CONTINUOUS
10
2.3018
20
0.32169
11
2.29365
21
0.333177
0
LINE
8
BLACK
6
CONTINUOUS
10
2.29365
20
0.333177
11
2.28684
21
0.345504
0
LINE
8
BLACK
6
CONTINUOUS
10
2.28684
20
0.345504
11
2.28145
21
0.358517
0
LINE
8
BLACK
6
CONTINUOUS
10
2.28145
20
0.358517
11
2.27755
21
0.372051
0
LINE
8
BLACK
6
CONTINUOUS
10
2.27755
20
0.372051
11
2.27519
21
0.385937
0
LINE
8
BLACK
6
CONTINUOUS
10
2.27519
20
0.385937
11
2.2744
21
0.4
0
LINE
8
BLACK
6
CONTINUOUS
10
2.2744
20
0.4
11
2.27519
21
0.414063
0
LINE
8
BLACK
6
CONTINUOUS
10
2.27519
20
0.414063
11
2.27755
21
0.427949
0
LINE
8
BLACK
6
CONTINUOUS
10
2.27755
20
0.427949
11
2.28145
21
0.441483
0
LINE
8
BLACK
6
CONTINUOUS
10
2.28145
20
0.441483
11
2.28684
21
0.454496
0
LINE
8
BLACK
6
CONTINUOUS
10
2.28684
20
0.454496
11
2.29365
21
0.466823
0
LINE
8
BLACK
6
CONTINUOUS
10
2.29365
20
0.466823
11
2.3018
21
0.47831
0
LINE
8
BLACK
6
CONTINUOUS
10
2.3018
20
0.47831
11
2.31119
21
0.488813
0
LINE
8
BLACK
6
CONTINUOUS
10
2.31119
20
0.488813
11
2.32169
21
0.498198
0
LINE
8
BLACK
6
CONTINUOUS
10
2.32169
20
0.498198
11
2.33318
21
0.506349
0
LINE
8
BLACK
6
CONTINUOUS
10
2.33318
20
0.506349
11
2.3455
21
0.513162
0
LINE
8
BLACK
6
CONTINUOUS
10
2.3455
20
0.513162
11
2.35852
21
0.518552
0
LINE
8
BLACK
6
CONTINUOUS
10
2.35852
20
0.518552
11
2.37205
21
0.522451
0
LINE
8
BLACK
6
CONTINUOUS
10
2.37205
20
0.522451
11
2.38594
21
0.52481
0
LINE
8
BLACK
6
CONTINUOUS
10
2.38594
20
0.52481
11
2.4
21
0.5256
0
LINE
8
BLACK
6
CONTINUOUS
10
2.4
20
0.5256
11
2.41406
21
0.52481
0
LINE
8
BLACK
6
CONTINUOUS
10
2.28996
20
0.387138
11
2.2922
21
0.374451
0
LINE
8
BLACK
6
CONTINUOUS
10
2.2922
20
0.374451
11
2.29589
21
0.362108
0
LINE
8
BLACK
6
CONTINUOUS
10
2.29589
20
0.362108
11
2.301
21
0.350279
0
LINE
8
BLACK
6
CONTINUOUS
10
2.301
20
0.350279
11
2.30744
21
0.339121
0
LINE
8
BLACK
6
CONTINUOUS
10
2.30744
20
0.339121
11
2.31513
21
0.328787
0
LINE
8
BLACK
6
CONTINUOUS
10
2.31513
20
0.328787
11
2.32397
21
0.319416
0
LINE
8
BLACK
6
CONTINUOUS
10
2.32397
20
0.319416
11
2.33384
21
0.311135
0
LINE
8
BLACK
6
CONTINUOUS
10
2.33384
20
0.311135
11
2.34461
21
0.304055
0
LINE
8
BLACK
6
CONTINUOUS
10
2.34461
20
0.304055
11
2.35612
21
0.298273
0
LINE
8
BLACK
6
CONTINUOUS
10
2.35612
20
0.298273
11
2.36823
21
0.293867
0
LINE
8
BLACK
6
CONTINUOUS
10
2.36823
20
0.293867
11
2.38076
21
0.290896
0
LINE
8
BLACK
6
CONTINUOUS
10
2.38076
20
0.290896
11
2.39356
21
0.2894
0
LINE
8
BLACK
6
CONTINUOUS
10
2.39356
20
0.2894
11
2.40644
21
0.2894
0
LINE
8
BLACK
6
CONTINUOUS
10
2.40644
20
0.2894
11
2.41924
21
0.290896
0
LINE
8
BLACK
6
CONTINUOUS
10
2.41924
20
0.290896
11
2.43177
21
0.293867
0
LINE
8
BLACK
6
CONTINUOUS
10
2.43177
20
0.293867
11
2.44388
21
0.298273
0
LINE
8
BLACK
6
CONTINUOUS
10
2.44388
20
0.298273
11
2.45539
21
0.304055
0
LINE
8
BLACK
6
CONTINUOUS
10
2.45539
20
0.304055
11
2.46616
21
0.311135
0
LINE
8
BLACK
6
CONTINUOUS
10
2.46616
20
0.311135
11
2.47603
21
0.319416
0
LINE
8
BLACK
6
CONTINUOUS
10
2.47603
20
0.319416
11
2.48487
21
0.328787
0
LINE
8
BLACK
6
CONTINUOUS
10
2.48487
20
0.328787
11
2.49256
21
0.339121
0
LINE
8
BLACK
6
CONTINUOUS
10
2.49256
20
0.339121
11
2.499
21
0.350279
0
LINE
8
BLACK
6
CONTINUOUS
10
2.499
20
0.350279
11
2.50411
21
0.362108
0
LINE
8
BLACK
6
CONTINUOUS
10
2.50411
20
0.362108
11
2.5078
21
0.374451
0
LINE
8
BLACK
6
CONTINUOUS
10
2.5078
20
0.374451
11
2.51004
21
0.387138
0
LINE
8
BLACK
6
CONTINUOUS
10
2.51004
20
0.387138
11
2.51079
21
0.4
0
LINE
8
BLACK
6
CONTINUOUS
10
2.51079
20
0.4
11
2.51004
21
0.412862
0
LINE
8
BLACK
6
CONTINUOUS
10
2.51004
20
0.412862
11
2.5078
21
0.425549
0
LINE
8
BLACK
6
CONTINUOUS
10
2.5078
20
0.425549
11
2.50411
21
0.437892
0
LINE
8
BLACK
6
CONTINUOUS
10
2.50411
20
0.437892
11
2.499
21
0.449721
0
LINE
8
BLACK
6
CONTINUOUS
10
2.499
20
0.449721
11
2.49256
21
0.460879
0
LINE
8
BLACK
6
CONTINUOUS
10
2.49256
20
0.460879
11
2.48487
21
0.471213
0
LINE
8
BLACK
6
CONTINUOUS
10
2.48487
20
0.471213
11
2.47603
21
0.480584
0
LINE
8
BLACK
6
CONTINUOUS
10
2.47603
20
0.480584
11
2.46616
21
0.488865
0
LINE
8
BLACK
6
CONTINUOUS
10
2.46616
20
0.488865
11
2.45539
21
0.495945
0
LINE
8
BLACK
6
CONTINUOUS
10
2.45539
20
0.495945
11
2.44388
21
0.501727
0
LINE
8
BLACK
6
CONTINUOUS
10
2.44388
20
0.501727
11
2.43177
21
0.506133
0
LINE
8
BLACK
6
CONTINUOUS
10
2.43177
20
0.506133
11
2.41924
21
0.509104
0
LINE
8
BLACK
6
CONTINUOUS
10
2.41924
20
0.509104
11
2.40644
21
0.5106
0
LINE
8
BLACK
6
CONTINUOUS
10
2.40644
20
0.5106
11
2.39356
21
0.5106
0
LINE
8
BLACK
6
CONTINUOUS
10
2.39356
20
0.5106
11
2.38076
21
0.509104
0
LINE
8
BLACK
6
CONTINUOUS
10
2.38076
20
0.509104
11
2.36823
21
0.506133
0
LINE
8
BLACK
6
CONTINUOUS
10
2.36823
20
0.506133
11
2.35612
21
0.501727
0
LINE
8
BLACK
6
CONTINUOUS
10
2.35612
20
0.501727
11
2.34461
21
0.495945
0
LINE
8
BLACK
6
CONTINUOUS
10
2.34461
20
0.495945
11
2.33384
21
0.488865
0
LINE
8
BLACK
6
CONTINUOUS
10
2.33384
20
0.488865
11
2.32397
21
0.480584
0
LINE
8
BLACK
6
CONTINUOUS
10
2.32397
20
0.480584
11
2.31513
21
0.471213
0
LINE
8
BLACK
6
CONTINUOUS
10
2.31513
20
0.471213
11
2.30744
21
0.460879
0
LINE
8
BLACK
6
CONTINUOUS
10
2.30744
20
0.460879
11
2.301
21
0.449721
0
LINE
8
BLACK
6
CONTINUOUS
10
2.301
20
0.449721
11
2.29589
21
0.437892
0
LINE
8
BLACK
6
CONTINUOUS
10
2.29589
20
0.437892
11
2.2922
21
0.425549
0
LINE
8
BLACK
6
CONTINUOUS
10
2.2922
20
0.425549
11
2.28996
21
0.412862
0
LINE
8
BLACK
6
CONTINUOUS
10
2.28996
20
0.412862
11
2.28921
21
0.4
0
LINE
8
BLACK
6
CONTINUOUS
10
2.28921
20
0.4
11
2.28996
21
0.387138
0
LINE
8
BLACK
6
CONTINUOUS
10
0.94
20
0.682953
11
1.04
21
0.682953
0
LINE
8
BLACK
6
CONTINUOUS
10
1.04
20
0.682953
11
1.04038
21
0.682885
0
LINE
8
BLACK
6
CONTINUOUS
10
1.04038
20
0.682885
11
1.04051
21
0.682908
0
LINE
8
BLACK
6
CONTINUOUS
10
1.04051
20
0.682908
11
1.04063
21
0.682842
0
LINE
8
BLACK
6
CONTINUOUS
10
1.04063
20
0.682842
11
1.04101
21
0.682775
0
LINE
8
BLACK
6
CONTINUOUS
10
1.04101
20
0.682775
11
1.0416
21
0.682282
0
LINE
8
BLACK
6
CONTINUOUS
10
1.0416
20
0.682282
11
1.04226
21
0.681898
0
LINE
8
BLACK
6
CONTINUOUS
10
1.04226
20
0.681898
11
1.04235
21
0.681648
0
LINE
8
BLACK
6
CONTINUOUS
10
1.04235
20
0.681648
11
1.04256
21
0.681476
0
LINE
8
BLACK
6
CONTINUOUS
10
1.04256
20
0.681476
11
1.04269
21
0.680721
0
LINE
8
BLACK
6
CONTINUOUS
10
1.04269
20
0.680721
11
1.04295
21
0.68
0
LINE
8
BLACK
6
CONTINUOUS
10
1.04295
20
0.68
11
1.04295
21
0.48
0
LINE
8
BLACK
6
CONTINUOUS
10
1.04295
20
0.48
11
1.04289
21
0.479616
0
LINE
8
BLACK
6
CONTINUOUS
10
1.04289
20
0.479616
11
1.04291
21
0.479487
0
LINE
8
BLACK
6
CONTINUOUS
10
1.04291
20
0.479487
11
1.04284
21
0.479374
0
LINE
8
BLACK
6
CONTINUOUS
10
1.04284
20
0.479374
11
1.04277
21
0.47899
0
LINE
8
BLACK
6
CONTINUOUS
10
1.04277
20
0.47899
11
1.04228
21
0.478402
0
LINE
8
BLACK
6
CONTINUOUS
10
1.04228
20
0.478402
11
1.0419
21
0.477738
0
LINE
8
BLACK
6
CONTINUOUS
10
1.0419
20
0.477738
11
1.04165
21
0.477647
0
LINE
8
BLACK
6
CONTINUOUS
10
1.04165
20
0.477647
11
1.04148
21
0.477443
0
LINE
8
BLACK
6
CONTINUOUS
10
1.04148
20
0.477443
11
1.04072
21
0.47731
0
LINE
8
BLACK
6
CONTINUOUS
10
1.04072
20
0.47731
11
1.04
21
0.477047
0
LINE
8
BLACK
6
CONTINUOUS
10
1.04
20
0.477047
11
0.94
21
0.477047
0
LINE
8
BLACK
6
CONTINUOUS
10
0.94
20
0.477047
11
0.84
21
0.477047
0
LINE
8
BLACK
6
CONTINUOUS
10
0.84
20
0.477047
11
0.839616
21
0.477115
0
LINE
8
BLACK
6
CONTINUOUS
10
0.839616
20
0.477115
11
0.839487
21
0.477092
0
LINE
8
BLACK
6
CONTINUOUS
10
0.839487
20
0.477092
11
0.839374
21
0.477158
0
LINE
8
BLACK
6
CONTINUOUS
10
0.839374
20
0.477158
11
0.83899
21
0.477225
0
LINE
8
BLACK
6
CONTINUOUS
10
0.83899
20
0.477225
11
0.838402
21
0.477718
0
LINE
8
BLACK
6
CONTINUOUS
10
0.838402
20
0.477718
11
0.837738
21
0.478102
0
LINE
8
BLACK
6
CONTINUOUS
10
0.837738
20
0.478102
11
0.837647
21
0.478352
0
LINE
8
BLACK
6
CONTINUOUS
10
0.837647
20
0.478352
11
0.837443
21
0.478524
0
LINE
8
BLACK
6
CONTINUOUS
10
0.837443
20
0.478524
11
0.83731
21
0.479279
0
LINE
8
BLACK
6
CONTINUOUS
10
0.83731
20
0.479279
11
0.837047
21
0.48
0
LINE
8
BLACK
6
CONTINUOUS
10
0.837047
20
0.48
11
0.837047
21
0.68
0
LINE
8
BLACK
6
CONTINUOUS
10
0.837047
20
0.68
11
0.837115
21
0.680384
0
LINE
8
BLACK
6
CONTINUOUS
10
0.837115
20
0.680384
11
0.837092
21
0.680513
0
LINE
8
BLACK
6
CONTINUOUS
10
0.837092
20
0.680513
11
0.837158
21
0.680626
0
LINE
8
BLACK
6
CONTINUOUS
10
0.837158
20
0.680626
11
0.837225
21
0.68101
0
LINE
8
BLACK
6
CONTINUOUS
10
0.837225
20
0.68101
11
0.837718
21
0.681598
0
LINE
8
BLACK
6
CONTINUOUS
10
0.837718
20
0.681598
11
0.838102
21
0.682262
0
LINE
8
BLACK
6
CONTINUOUS
10
0.838102
20
0.682262
11
0.838352
21
0.682353
0
LINE
8
BLACK
6
CONTINUOUS
10
0.838352
20
0.682353
11
0.838524
21
0.682557
0
LINE
8
BLACK
6
CONTINUOUS
10
0.838524
20
0.682557
11
0.839279
21
0.68269
0
LINE
8
BLACK
6
CONTINUOUS
10
0.839279
20
0.68269
11
0.84
21
0.682953
0
LINE
8
BLACK
6
CONTINUOUS
10
0.84
20
0.682953
11
0.94
21
0.682953
0
LINE
8
BLACK
6
CONTINUOUS
10
0.942953
20
0.677047
11
0.942953
21
0.482953
0
LINE
8
BLACK
6
CONTINUOUS
10
0.942953
20
0.482953
11
1.03705
21
0.482953
0
LINE
8
BLACK
6
CONTINUOUS
10
1.03705
20
0.482953
11
1.03705
21
0.677047
0
LINE
8
BLACK
6
CONTINUOUS
10
1.03705
20
0.677047
11
0.942953
21
0.677047
0
LINE
8
BLACK
6
CONTINUOUS
10
0.842953
20
0.677047
11
0.842953
21
0.482953
0
LINE
8
BLACK
6
CONTINUOUS
10
0.842953
20
0.482953
11
0.937047
21
0.482953
0
LINE
8
BLACK
6
CONTINUOUS
10
0.937047
20
0.482953
11
0.937047
21
0.677047
0
LINE
8
BLACK
6
CONTINUOUS
10
0.937047
20
0.677047
11
0.842953
21
0.677047
0
LINE
8
BLACK
6
CONTINUOUS
10
0.510384
20
0.872885
11
0.510513
21
0.872908
0
LINE
8
BLACK
6
CONTINUOUS
10
0.510513
20
0.872908
11
0.510626
21
0.872842
0
LINE
8
BLACK
6
CONTINUOUS
10
0.510626
20
0.872842
11
0.51101
21
0.872775
0
LINE
8
BLACK
6
CONTINUOUS
10
0.51101
20
0.872775
11
0.511598
21
0.872282
0
LINE
8
BLACK
6
CONTINUOUS
10
0.511598
20
0.872282
11
0.512262
21
0.871898
0
LINE
8
BLACK
6
CONTINUOUS
10
0.512262
20
0.871898
11
0.512353
21
0.871648
0
LINE
8
BLACK
6
CONTINUOUS
10
0.512353
20
0.871648
11
0.512557
21
0.871476
0
LINE
8
BLACK
6
CONTINUOUS
10
0.512557
20
0.871476
11
0.51269
21
0.870721
0
LINE
8
BLACK
6
CONTINUOUS
10
0.51269
20
0.870721
11
0.512953
21
0.87
0
LINE
8
BLACK
6
CONTINUOUS
10
0.512953
20
0.87
11
0.512953
21
0.57
0
LINE
8
BLACK
6
CONTINUOUS
10
0.512953
20
0.57
11
0.512885
21
0.569616
0
LINE
8
BLACK
6
CONTINUOUS
10
0.512885
20
0.569616
11
0.512908
21
0.569487
0
LINE
8
BLACK
6
CONTINUOUS
10
0.512908
20
0.569487
11
0.512842
21
0.569374
0
LINE
8
BLACK
6
CONTINUOUS
10
0.512842
20
0.569374
11
0.512775
21
0.56899
0
LINE
8
BLACK
6
CONTINUOUS
10
0.512775
20
0.56899
11
0.512282
21
0.568402
0
LINE
8
BLACK
6
CONTINUOUS
10
0.512282
20
0.568402
11
0.511898
21
0.567738
0
LINE
8
BLACK
6
CONTINUOUS
10
0.511898
20
0.567738
11
0.511648
21
0.567647
0
LINE
8
BLACK
6
CONTINUOUS
10
0.511648
20
0.567647
11
0.511476
21
0.567443
0
LINE
8
BLACK
6
CONTINUOUS
10
0.511476
20
0.567443
11
0.510721
21
0.56731
0
LINE
8
BLACK
6
CONTINUOUS
10
0.510721
20
0.56731
11
0.51
21
0.567047
0
LINE
8
BLACK
6
CONTINUOUS
10
0.51
20
0.567047
11
0.31
21
0.567047
0
LINE
8
BLACK
6
CONTINUOUS
10
0.31
20
0.567047
11
0.309616
21
0.567115
0
LINE
8
BLACK
6
CONTINUOUS
10
0.309616
20
0.567115
11
0.309487
21
0.567092
0
LINE
8
BLACK
6
CONTINUOUS
10
0.309487
20
0.567092
11
0.309374
21
0.567158
0
LINE
8
BLACK
6
CONTINUOUS
10
0.309374
20
0.567158
11
0.30899
21
0.567225
0
LINE
8
BLACK
6
CONTINUOUS
10
0.30899
20
0.567225
11
0.308402
21
0.567718
0
LINE
8
BLACK
6
CONTINUOUS
10
0.308402
20
0.567718
11
0.307738
21
0.568102
0
LINE
8
BLACK
6
CONTINUOUS
10
0.307738
20
0.568102
11
0.307647
21
0.568352
0
LINE
8
BLACK
6
CONTINUOUS
10
0.307647
20
0.568352
11
0.307443
21
0.568524
0
LINE
8
BLACK
6
CONTINUOUS
10
0.307443
20
0.568524
11
0.30731
21
0.569279
0
LINE
8
BLACK
6
CONTINUOUS
10
0.30731
20
0.569279
11
0.307047
21
0.57
0
LINE
8
BLACK
6
CONTINUOUS
10
0.307047
20
0.57
11
0.307047
21
0.87
0
LINE
8
BLACK
6
CONTINUOUS
10
0.307047
20
0.87
11
0.307115
21
0.870384
0
LINE
8
BLACK
6
CONTINUOUS
10
0.307115
20
0.870384
11
0.307092
21
0.870513
0
LINE
8
BLACK
6
CONTINUOUS
10
0.307092
20
0.870513
11
0.307158
21
0.870626
0
LINE
8
BLACK
6
CONTINUOUS
10
0.307158
20
0.870626
11
0.307225
21
0.87101
0
LINE
8
BLACK
6
CONTINUOUS
10
0.307225
20
0.87101
11
0.307718
21
0.871598
0
LINE
8
BLACK
6
CONTINUOUS
10
0.307718
20
0.871598
11
0.308102
21
0.872262
0
LINE
8
BLACK
6
CONTINUOUS
10
0.308102
20
0.872262
11
0.308352
21
0.872353
0
LINE
8
BLACK
6
CONTINUOUS
10
0.308352
20
0.872353
11
0.308524
21
0.872557
0
LINE
8
BLACK
6
CONTINUOUS
10
0.308524
20
0.872557
11
0.309279
21
0.87269
0
LINE
8
BLACK
6
CONTINUOUS
10
0.309279
20
0.87269
11
0.31
21
0.872953
0
LINE
8
BLACK
6
CONTINUOUS
10
0.31
20
0.872953
11
0.51
21
0.872953
0
LINE
8
BLACK
6
CONTINUOUS
10
0.51
20
0.872953
11
0.510384
21
0.872885
0
LINE
8
BLACK
6
CONTINUOUS
10
0.312953
20
0.867047
11
0.312953
21
0.572953
0
LINE
8
BLACK
6
CONTINUOUS
10
0.312953
20
0.572953
11
0.507047
21
0.572953
0
LINE
8
BLACK
6
CONTINUOUS
10
0.507047
20
0.572953
11
0.507047
21
0.867047
0
LINE
8
BLACK
6
CONTINUOUS
10
0.507047
20
0.867047
11
0.312953
21
0.867047
0
LINE
8
BLACK
6
CONTINUOUS
10
2.52538
20
0.932885
11
2.52551
21
0.932908
0
LINE
8
BLACK
6
CONTINUOUS
10
2.52551
20
0.932908
11
2.52563
21
0.932842
0
LINE
8
BLACK
6
CONTINUOUS
10
2.52563
20
0.932842
11
2.52601
21
0.932775
0
LINE
8
BLACK
6
CONTINUOUS
10
2.52601
20
0.932775
11
2.5266
21
0.932282
0
LINE
8
BLACK
6
CONTINUOUS
10
2.5266
20
0.932282
11
2.52726
21
0.931898
0
LINE
8
BLACK
6
CONTINUOUS
10
2.52726
20
0.931898
11
2.52735
21
0.931648
0
LINE
8
BLACK
6
CONTINUOUS
10
2.52735
20
0.931648
11
2.52756
21
0.931476
0
LINE
8
BLACK
6
CONTINUOUS
10
2.52756
20
0.931476
11
2.52769
21
0.930721
0
LINE
8
BLACK
6
CONTINUOUS
10
2.52769
20
0.930721
11
2.52795
21
0.93
0
LINE
8
BLACK
6
CONTINUOUS
10
2.52795
20
0.93
11
2.52795
21
0.63
0
LINE
8
BLACK
6
CONTINUOUS
10
2.52795
20
0.63
11
2.52789
21
0.629616
0
LINE
8
BLACK
6
CONTINUOUS
10
2.52789
20
0.629616
11
2.52791
21
0.629487
0
LINE
8
BLACK
6
CONTINUOUS
10
2.52791
20
0.629487
11
2.52784
21
0.629374
0
LINE
8
BLACK
6
CONTINUOUS
10
2.52784
20
0.629374
11
2.52777
21
0.62899
0
LINE
8
BLACK
6
CONTINUOUS
10
2.52777
20
0.62899
11
2.52728
21
0.628402
0
LINE
8
BLACK
6
CONTINUOUS
10
2.52728
20
0.628402
11
2.5269
21
0.627738
0
LINE
8
BLACK
6
CONTINUOUS
10
2.5269
20
0.627738
11
2.52665
21
0.627647
0
LINE
8
BLACK
6
CONTINUOUS
10
2.52665
20
0.627647
11
2.52648
21
0.627443
0
LINE
8
BLACK
6
CONTINUOUS
10
2.52648
20
0.627443
11
2.52572
21
0.62731
0
LINE
8
BLACK
6
CONTINUOUS
10
2.52572
20
0.62731
11
2.525
21
0.627047
0
LINE
8
BLACK
6
CONTINUOUS
10
2.525
20
0.627047
11
2.325
21
0.627047
0
LINE
8
BLACK
6
CONTINUOUS
10
2.325
20
0.627047
11
2.32462
21
0.627115
0
LINE
8
BLACK
6
CONTINUOUS
10
2.32462
20
0.627115
11
2.32449
21
0.627092
0
LINE
8
BLACK
6
CONTINUOUS
10
2.32449
20
0.627092
11
2.32437
21
0.627158
0
LINE
8
BLACK
6
CONTINUOUS
10
2.32437
20
0.627158
11
2.32399
21
0.627225
0
LINE
8
BLACK
6
CONTINUOUS
10
2.32399
20
0.627225
11
2.3234
21
0.627718
0
LINE
8
BLACK
6
CONTINUOUS
10
2.3234
20
0.627718
11
2.32274
21
0.628102
0
LINE
8
BLACK
6
CONTINUOUS
10
2.32274
20
0.628102
11
2.32265
21
0.628352
0
LINE
8
BLACK
6
CONTINUOUS
10
2.32265
20
0.628352
11
2.32244
21
0.628524
0
LINE
8
BLACK
6
CONTINUOUS
10
2.32244
20
0.628524
11
2.32231
21
0.629279
0
LINE
8
BLACK
6
CONTINUOUS
10
2.32231
20
0.629279
11
2.32205
21
0.63
0
LINE
8
BLACK
6
CONTINUOUS
10
2.32205
20
0.63
11
2.32205
21
0.93
0
LINE
8
BLACK
6
CONTINUOUS
10
2.32205
20
0.93
11
2.32211
21
0.930384
0
LINE
8
BLACK
6
CONTINUOUS
10
2.32211
20
0.930384
11
2.32209
21
0.930513
0
LINE
8
BLACK
6
CONTINUOUS
10
2.32209
20
0.930513
11
2.32216
21
0.930626
0
LINE
8
BLACK
6
CONTINUOUS
10
2.32216
20
0.930626
11
2.32223
21
0.93101
0
LINE
8
BLACK
6
CONTINUOUS
10
2.32223
20
0.93101
11
2.32272
21
0.931598
0
LINE
8
BLACK
6
CONTINUOUS
10
2.32272
20
0.931598
11
2.3231
21
0.932262
0
LINE
8
BLACK
6
CONTINUOUS
10
2.3231
20
0.932262
11
2.32335
21
0.932353
0
LINE
8
BLACK
6
CONTINUOUS
10
2.32335
20
0.932353
11
2.32352
21
0.932557
0
LINE
8
BLACK
6
CONTINUOUS
10
2.32352
20
0.932557
11
2.32428
21
0.93269
0
LINE
8
BLACK
6
CONTINUOUS
10
2.32428
20
0.93269
11
2.325
21
0.932953
0
LINE
8
BLACK
6
CONTINUOUS
10
2.325
20
0.932953
11
2.525
21
0.932953
0
LINE
8
BLACK
6
CONTINUOUS
10
2.525
20
0.932953
11
2.52538
21
0.932885
0
LINE
8
BLACK
6
CONTINUOUS
10
2.32795
20
0.927047
11
2.32795
21
0.632953
0
LINE
8
BLACK
6
CONTINUOUS
10
2.32795
20
0.632953
11
2.52205
21
0.632953
0
LINE
8
BLACK
6
CONTINUOUS
10
2.52205
20
0.632953
11
2.52205
21
0.927047
0
LINE
8
BLACK
6
CONTINUOUS
10
2.52205
20
0.927047
11
2.32795
21
0.927047
0
LINE
8
BLACK
6
CONTINUOUS
10
0.720384
20
1.01289
11
0.720513
21
1.01291
0
LINE
8
BLACK
6
CONTINUOUS
10
0.720513
20
1.01291
11
0.720626
21
1.01284
0
LINE
8
BLACK
6
CONTINUOUS
10
0.720626
20
1.01284
11
0.72101
21
1.01277
0
LINE
8
BLACK
6
CONTINUOUS
10
0.72101
20
1.01277
11
0.721598
21
1.01228
0
LINE
8
BLACK
6
CONTINUOUS
10
0.721598
20
1.01228
11
0.722262
21
1.0119
0
LINE
8
BLACK
6
CONTINUOUS
10
0.722262
20
1.0119
11
0.722353
21
1.01165
0
LINE
8
BLACK
6
CONTINUOUS
10
0.722353
20
1.01165
11
0.722557
21
1.01148
0
LINE
8
BLACK
6
CONTINUOUS
10
0.722557
20
1.01148
11
0.72269
21
1.01072
0
LINE
8
BLACK
6
CONTINUOUS
10
0.72269
20
1.01072
11
0.722953
21
1.01
0
LINE
8
BLACK
6
CONTINUOUS
10
0.722953
20
1.01
11
0.722953
21
0.81
0
LINE
8
BLACK
6
CONTINUOUS
10
0.722953
20
0.81
11
0.722885
21
0.809616
0
LINE
8
BLACK
6
CONTINUOUS
10
0.722885
20
0.809616
11
0.722908
21
0.809487
0
LINE
8
BLACK
6
CONTINUOUS
10
0.722908
20
0.809487
11
0.722842
21
0.809374
0
LINE
8
BLACK
6
CONTINUOUS
10
0.722842
20
0.809374
11
0.722775
21
0.80899
0
LINE
8
BLACK
6
CONTINUOUS
10
0.722775
20
0.80899
11
0.722282
21
0.808402
0
LINE
8
BLACK
6
CONTINUOUS
10
0.722282
20
0.808402
11
0.721898
21
0.807738
0
LINE
8
BLACK
6
CONTINUOUS
10
0.721898
20
0.807738
11
0.721648
21
0.807647
0
LINE
8
BLACK
6
CONTINUOUS
10
0.721648
20
0.807647
11
0.721476
21
0.807443
0
LINE
8
BLACK
6
CONTINUOUS
10
0.721476
20
0.807443
11
0.720721
21
0.80731
0
LINE
8
BLACK
6
CONTINUOUS
10
0.720721
20
0.80731
11
0.72
21
0.807047
0
LINE
8
BLACK
6
CONTINUOUS
10
0.72
20
0.807047
11
0.62
21
0.807047
0
LINE
8
BLACK
6
CONTINUOUS
10
0.62
20
0.807047
11
0.619616
21
0.807115
0
LINE
8
BLACK
6
CONTINUOUS
10
0.619616
20
0.807115
11
0.619487
21
0.807092
0
LINE
8
BLACK
6
CONTINUOUS
10
0.619487
20
0.807092
11
0.619374
21
0.807158
0
LINE
8
BLACK
6
CONTINUOUS
10
0.619374
20
0.807158
11
0.61899
21
0.807225
0
LINE
8
BLACK
6
CONTINUOUS
10
0.61899
20
0.807225
11
0.618402
21
0.807718
0
LINE
8
BLACK
6
CONTINUOUS
10
0.618402
20
0.807718
11
0.617738
21
0.808102
0
LINE
8
BLACK
6
CONTINUOUS
10
0.617738
20
0.808102
11
0.617647
21
0.808352
0
LINE
8
BLACK
6
CONTINUOUS
10
0.617647
20
0.808352
11
0.617443
21
0.808524
0
LINE
8
BLACK
6
CONTINUOUS
10
0.617443
20
0.808524
11
0.61731
21
0.809279
0
LINE
8
BLACK
6
CONTINUOUS
10
0.61731
20
0.809279
11
0.617047
21
0.81
0
LINE
8
BLACK
6
CONTINUOUS
10
0.617047
20
0.81
11
0.617047
21
1.01
0
LINE
8
BLACK
6
CONTINUOUS
10
0.617047
20
1.01
11
0.617115
21
1.01038
0
LINE
8
BLACK
6
CONTINUOUS
10
0.617115
20
1.01038
11
0.617092
21
1.01051
0
LINE
8
BLACK
6
CONTINUOUS
10
0.617092
20
1.01051
11
0.617158
21
1.01063
0
LINE
8
BLACK
6
CONTINUOUS
10
0.617158
20
1.01063
11
0.617225
21
1.01101
0
LINE
8
BLACK
6
CONTINUOUS
10
0.617225
20
1.01101
11
0.617718
21
1.0116
0
LINE
8
BLACK
6
CONTINUOUS
10
0.617718
20
1.0116
11
0.618102
21
1.01226
0
LINE
8
BLACK
6
CONTINUOUS
10
0.618102
20
1.01226
11
0.618352
21
1.01235
0
LINE
8
BLACK
6
CONTINUOUS
10
0.618352
20
1.01235
11
0.618524
21
1.01256
0
LINE
8
BLACK
6
CONTINUOUS
10
0.618524
20
1.01256
11
0.619279
21
1.01269
0
LINE
8
BLACK
6
CONTINUOUS
10
0.619279
20
1.01269
11
0.62
21
1.01295
0
LINE
8
BLACK
6
CONTINUOUS
10
0.62
20
1.01295
11
0.72
21
1.01295
0
LINE
8
BLACK
6
CONTINUOUS
10
0.72
20
1.01295
11
0.720384
21
1.01289
0
LINE
8
BLACK
6
CONTINUOUS
10
0.622953
20
1.00705
11
0.622953
21
0.812953
0
LINE
8
BLACK
6
CONTINUOUS
10
0.622953
20
0.812953
11
0.717047
21
0.812953
0
LINE
8
BLACK
6
CONTINUOUS
10
0.717047
20
0.812953
11
0.717047
21
1.00705
0
LINE
8
BLACK
6
CONTINUOUS
10
0.717047
20
1.00705
11
0.622953
21
1.00705
0
LINE
8
BLACK
6
CONTINUOUS
10
2.33038
20
1.41289
11
2.33051
21
1.41291
0
LINE
8
BLACK
6
CONTINUOUS
10
2.33051
20
1.41291
11
2.33063
21
1.41284
0
LINE
8
BLACK
6
CONTINUOUS
10
2.33063
20
1.41284
11
2.33101
21
1.41277
0
LINE
8
BLACK
6
CONTINUOUS
10
2.33101
20
1.41277
11
2.3316
21
1.41228
0
LINE
8
BLACK
6
CONTINUOUS
10
2.3316
20
1.41228
11
2.33226
21
1.4119
0
LINE
8
BLACK
6
CONTINUOUS
10
2.33226
20
1.4119
11
2.33235
21
1.41165
0
LINE
8
BLACK
6
CONTINUOUS
10
2.33235
20
1.41165
11
2.33256
21
1.41148
0
LINE
8
BLACK
6
CONTINUOUS
10
2.33256
20
1.41148
11
2.33269
21
1.41072
0
LINE
8
BLACK
6
CONTINUOUS
10
2.33269
20
1.41072
11
2.33295
21
1.41
0
LINE
8
BLACK
6
CONTINUOUS
10
2.33295
20
1.41
11
2.33295
21
1.31
0
LINE
8
BLACK
6
CONTINUOUS
10
2.33295
20
1.31
11
2.33295
21
1.21
0
LINE
8
BLACK
6
CONTINUOUS
10
2.33295
20
1.21
11
2.33295
21
1.21
0
LINE
8
BLACK
6
CONTINUOUS
10
2.33295
20
1.21
11
2.33295
21
1.11
0
LINE
8
BLACK
6
CONTINUOUS
10
2.33295
20
1.11
11
2.33295
21
1.01
0
LINE
8
BLACK
6
CONTINUOUS
10
2.33295
20
1.01
11
2.33289
21
1.00962
0
LINE
8
BLACK
6
CONTINUOUS
10
2.33289
20
1.00962
11
2.33291
21
1.00949
0
LINE
8
BLACK
6
CONTINUOUS
10
2.33291
20
1.00949
11
2.33284
21
1.00937
0
LINE
8
BLACK
6
CONTINUOUS
10
2.33284
20
1.00937
11
2.33277
21
1.00899
0
LINE
8
BLACK
6
CONTINUOUS
10
2.33277
20
1.00899
11
2.33228
21
1.0084
0
LINE
8
BLACK
6
CONTINUOUS
10
2.33228
20
1.0084
11
2.3319
21
1.00774
0
LINE
8
BLACK
6
CONTINUOUS
10
2.3319
20
1.00774
11
2.33165
21
1.00765
0
LINE
8
BLACK
6
CONTINUOUS
10
2.33165
20
1.00765
11
2.33148
21
1.00744
0
LINE
8
BLACK
6
CONTINUOUS
10
2.33148
20
1.00744
11
2.33072
21
1.00731
0
LINE
8
BLACK
6
CONTINUOUS
10
2.33072
20
1.00731
11
2.33
21
1.00705
0
LINE
8
BLACK
6
CONTINUOUS
10
2.33
20
1.00705
11
2.13
21
1.00705
0
LINE
8
BLACK
6
CONTINUOUS
10
2.13
20
1.00705
11
2.12962
21
1.00711
0
LINE
8
BLACK
6
CONTINUOUS
10
2.12962
20
1.00711
11
2.12949
21
1.00709
0
LINE
8
BLACK
6
CONTINUOUS
10
2.12949
20
1.00709
11
2.12937
21
1.00716
0
LINE
8
BLACK
6
CONTINUOUS
10
2.12937
20
1.00716
11
2.12899
21
1.00723
0
LINE
8
BLACK
6
CONTINUOUS
10
2.12899
20
1.00723
11
2.1284
21
1.00772
0
LINE
8
BLACK
6
CONTINUOUS
10
2.1284
20
1.00772
11
2.12774
21
1.0081
0
LINE
8
BLACK
6
CONTINUOUS
10
2.12774
20
1.0081
11
2.12765
21
1.00835
0
LINE
8
BLACK
6
CONTINUOUS
10
2.12765
20
1.00835
11
2.12744
21
1.00852
0
LINE
8
BLACK
6
CONTINUOUS
10
2.12744
20
1.00852
11
2.12731
21
1.00928
0
LINE
8
BLACK
6
CONTINUOUS
10
2.12731
20
1.00928
11
2.12705
21
1.01
0
LINE
8
BLACK
6
CONTINUOUS
10
2.12705
20
1.01
11
2.12705
21
1.11
0
LINE
8
BLACK
6
CONTINUOUS
10
2.12705
20
1.11
11
2.12705
21
1.21
0
LINE
8
BLACK
6
CONTINUOUS
10
2.12705
20
1.21
11
2.12705
21
1.31
0
LINE
8
BLACK
6
CONTINUOUS
10
2.12705
20
1.31
11
2.12705
21
1.41
0
LINE
8
BLACK
6
CONTINUOUS
10
2.12705
20
1.41
11
2.12711
21
1.41038
0
LINE
8
BLACK
6
CONTINUOUS
10
2.12711
20
1.41038
11
2.12709
21
1.41051
0
LINE
8
BLACK
6
CONTINUOUS
10
2.12709
20
1.41051
11
2.12716
21
1.41063
0
LINE
8
BLACK
6
CONTINUOUS
10
2.12716
20
1.41063
11
2.12723
21
1.41101
0
LINE
8
BLACK
6
CONTINUOUS
10
2.12723
20
1.41101
11
2.12772
21
1.4116
0
LINE
8
BLACK
6
CONTINUOUS
10
2.12772
20
1.4116
11
2.1281
21
1.41226
0
LINE
8
BLACK
6
CONTINUOUS
10
2.1281
20
1.41226
11
2.12835
21
1.41235
0
LINE
8
BLACK
6
CONTINUOUS
10
2.12835
20
1.41235
11
2.12852
21
1.41256
0
LINE
8
BLACK
6
CONTINUOUS
10
2.12852
20
1.41256
11
2.12928
21
1.41269
0
LINE
8
BLACK
6
CONTINUOUS
10
2.12928
20
1.41269
11
2.13
21
1.41295
0
LINE
8
BLACK
6
CONTINUOUS
10
2.13
20
1.41295
11
2.33
21
1.41295
0
LINE
8
BLACK
6
CONTINUOUS
10
2.33
20
1.41295
11
2.33038
21
1.41289
0
LINE
8
BLACK
6
CONTINUOUS
10
2.13295
20
1.10705
11
2.13295
21
1.01295
0
LINE
8
BLACK
6
CONTINUOUS
10
2.13295
20
1.01295
11
2.32705
21
1.01295
0
LINE
8
BLACK
6
CONTINUOUS
10
2.32705
20
1.01295
11
2.32705
21
1.10705
0
LINE
8
BLACK
6
CONTINUOUS
10
2.32705
20
1.10705
11
2.13295
21
1.10705
0
LINE
8
BLACK
6
CONTINUOUS
10
2.13295
20
1.20705
11
2.13295
21
1.11295
0
LINE
8
BLACK
6
CONTINUOUS
10
2.13295
20
1.11295
11
2.32705
21
1.11295
0
LINE
8
BLACK
6
CONTINUOUS
10
2.32705
20
1.11295
11
2.32705
21
1.20705
0
LINE
8
BLACK
6
CONTINUOUS
10
2.32705
20
1.20705
11
2.13295
21
1.20705
0
LINE
8
BLACK
6
CONTINUOUS
10
2.13295
20
1.30705
11
2.13295
21
1.21295
0
LINE
8
BLACK
6
CONTINUOUS
10
2.13295
20
1.21295
11
2.32705
21
1.21295
0
LINE
8
BLACK
6
CONTINUOUS
10
2.32705
20
1.21295
11
2.32705
21
1.30705
0
LINE
8
BLACK
6
CONTINUOUS
10
2.32705
20
1.30705
11
2.13295
21
1.30705
0
LINE
8
BLACK
6
CONTINUOUS
10
2.13295
20
1.40705
11
2.13295
21
1.31295
0
LINE
8
BLACK
6
CONTINUOUS
10
2.13295
20
1.31295
11
2.32705
21
1.31295
0
LINE
8
BLACK
6
CONTINUOUS
10
2.32705
20
1.31295
11
2.32705
21
1.40705
0
LINE
8
BLACK
6
CONTINUOUS
10
2.32705
20
1.40705
11
2.13295
21
1.40705
0
LINE
8
BLACK
6
CONTINUOUS
10
1.86538
20
1.18789
11
1.86551
21
1.18791
0
LINE
8
BLACK
6
CONTINUOUS
10
1.86551
20
1.18791
11
1.86563
21
1.18784
0
LINE
8
BLACK
6
CONTINUOUS
10
1.86563
20
1.18784
11
1.86601
21
1.18777
0
LINE
8
BLACK
6
CONTINUOUS
10
1.86601
20
1.18777
11
1.8666
21
1.18728
0
LINE
8
BLACK
6
CONTINUOUS
10
1.8666
20
1.18728
11
1.86726
21
1.1869
0
LINE
8
BLACK
6
CONTINUOUS
10
1.86726
20
1.1869
11
1.86735
21
1.18665
0
LINE
8
BLACK
6
CONTINUOUS
10
1.86735
20
1.18665
11
1.86756
21
1.18648
0
LINE
8
BLACK
6
CONTINUOUS
10
1.86756
20
1.18648
11
1.86769
21
1.18572
0
LINE
8
BLACK
6
CONTINUOUS
10
1.86769
20
1.18572
11
1.86795
21
1.185
0
LINE
8
BLACK
6
CONTINUOUS
10
1.86795
20
1.185
11
1.86795
21
1.085
0
LINE
8
BLACK
6
CONTINUOUS
10
1.86795
20
1.085
11
1.86789
21
1.08462
0
LINE
8
BLACK
6
CONTINUOUS
10
1.86789
20
1.08462
11
1.86791
21
1.08449
0
LINE
8
BLACK
6
CONTINUOUS
10
1.86791
20
1.08449
11
1.86784
21
1.08437
0
LINE
8
BLACK
6
CONTINUOUS
10
1.86784
20
1.08437
11
1.86777
21
1.08399
0
LINE
8
BLACK
6
CONTINUOUS
10
1.86777
20
1.08399
11
1.86728
21
1.0834
0
LINE
8
BLACK
6
CONTINUOUS
10
1.86728
20
1.0834
11
1.8669
21
1.08274
0
LINE
8
BLACK
6
CONTINUOUS
10
1.8669
20
1.08274
11
1.86665
21
1.08265
0
LINE
8
BLACK
6
CONTINUOUS
10
1.86665
20
1.08265
11
1.86648
21
1.08244
0
LINE
8
BLACK
6
CONTINUOUS
10
1.86648
20
1.08244
11
1.86572
21
1.08231
0
LINE
8
BLACK
6
CONTINUOUS
10
1.86572
20
1.08231
11
1.865
21
1.08205
0
LINE
8
BLACK
6
CONTINUOUS
10
1.865
20
1.08205
11
1.665
21
1.08205
0
LINE
8
BLACK
6
CONTINUOUS
10
1.665
20
1.08205
11
1.66462
21
1.08211
0
LINE
8
BLACK
6
CONTINUOUS
10
1.66462
20
1.08211
11
1.66449
21
1.08209
0
LINE
8
BLACK
6
CONTINUOUS
10
1.66449
20
1.08209
11
1.66437
21
1.08216
0
LINE
8
BLACK
6
CONTINUOUS
10
1.66437
20
1.08216
11
1.66399
21
1.08223
0
LINE
8
BLACK
6
CONTINUOUS
10
1.66399
20
1.08223
11
1.6634
21
1.08272
0
LINE
8
BLACK
6
CONTINUOUS
10
1.6634
20
1.08272
11
1.66274
21
1.0831
0
LINE
8
BLACK
6
CONTINUOUS
10
1.66274
20
1.0831
11
1.66265
21
1.08335
0
LINE
8
BLACK
6
CONTINUOUS
10
1.66265
20
1.08335
11
1.66244
21
1.08352
0
LINE
8
BLACK
6
CONTINUOUS
10
1.66244
20
1.08352
11
1.66231
21
1.08428
0
LINE
8
BLACK
6
CONTINUOUS
10
1.66231
20
1.08428
11
1.66205
21
1.085
0
LINE
8
BLACK
6
CONTINUOUS
10
1.66205
20
1.085
11
1.66205
21
1.185
0
LINE
8
BLACK
6
CONTINUOUS
10
1.66205
20
1.185
11
1.66211
21
1.18538
0
LINE
8
BLACK
6
CONTINUOUS
10
1.66211
20
1.18538
11
1.66209
21
1.18551
0
LINE
8
BLACK
6
CONTINUOUS
10
1.66209
20
1.18551
11
1.66216
21
1.18563
0
LINE
8
BLACK
6
CONTINUOUS
10
1.66216
20
1.18563
11
1.66223
21
1.18601
0
LINE
8
BLACK
6
CONTINUOUS
10
1.66223
20
1.18601
11
1.66272
21
1.1866
0
LINE
8
BLACK
6
CONTINUOUS
10
1.66272
20
1.1866
11
1.6631
21
1.18726
0
LINE
8
BLACK
6
CONTINUOUS
10
1.6631
20
1.18726
11
1.66335
21
1.18735
0
LINE
8
BLACK
6
CONTINUOUS
10
1.66335
20
1.18735
11
1.66352
21
1.18756
0
LINE
8
BLACK
6
CONTINUOUS
10
1.66352
20
1.18756
11
1.66428
21
1.18769
0
LINE
8
BLACK
6
CONTINUOUS
10
1.66428
20
1.18769
11
1.665
21
1.18795
0
LINE
8
BLACK
6
CONTINUOUS
10
1.665
20
1.18795
11
1.865
21
1.18795
0
LINE
8
BLACK
6
CONTINUOUS
10
1.865
20
1.18795
11
1.86538
21
1.18789
0
LINE
8
BLACK
6
CONTINUOUS
10
1.66795
20
1.18205
11
1.66795
21
1.08795
0
LINE
8
BLACK
6
CONTINUOUS
10
1.66795
20
1.08795
11
1.86205
21
1.08795
0
LINE
8
BLACK
6
CONTINUOUS
10
1.86205
20
1.08795
11
1.86205
21
1.18205
0
LINE
8
BLACK
6
CONTINUOUS
10
1.86205
20
1.18205
11
1.66795
21
1.18205
0
LINE
8
BLACK
6
CONTINUOUS
10
0.477527
20
1.22468
11
0.477591
21
1.22468
0
LINE
8
BLACK
6
CONTINUOUS
10
0.477591
20
1.22468
11
0.483216
21
1.2228
0
LINE
8
BLACK
6
CONTINUOUS
10
0.483216
20
1.2228
11
0.484117
21
1.22231
0
LINE
8
BLACK
6
CONTINUOUS
10
0.484117
20
1.22231
11
0.48421
21
1.22216
0
LINE
8
BLACK
6
CONTINUOUS
10
0.48421
20
1.22216
11
0.48437
21
1.22209
0
LINE
8
BLACK
6
CONTINUOUS
10
0.48437
20
1.22209
11
0.488119
21
1.21834
0
LINE
8
BLACK
6
CONTINUOUS
10
0.488119
20
1.21834
11
0.488708
21
1.2175
0
LINE
8
BLACK
6
CONTINUOUS
10
0.488708
20
1.2175
11
0.488723
21
1.21732
0
LINE
8
BLACK
6
CONTINUOUS
10
0.488723
20
1.21732
11
0.488833
21
1.21719
0
LINE
8
BLACK
6
CONTINUOUS
10
0.488833
20
1.21719
11
0.490707
21
1.21156
0
LINE
8
BLACK
6
CONTINUOUS
10
0.490707
20
1.21156
11
0.490837
21
1.21069
0
LINE
8
BLACK
6
CONTINUOUS
10
0.490837
20
1.21069
11
0.490859
21
1.21063
0
LINE
8
BLACK
6
CONTINUOUS
10
0.490859
20
1.21063
11
0.490859
21
1.20688
0
LINE
8
BLACK
6
CONTINUOUS
10
0.490859
20
1.20688
11
0.490681
21
1.20587
0
LINE
8
BLACK
6
CONTINUOUS
10
0.490681
20
1.20587
11
0.489383
21
1.20432
0
LINE
8
BLACK
6
CONTINUOUS
10
0.489383
20
1.20432
11
0.487394
21
1.20397
0
LINE
8
BLACK
6
CONTINUOUS
10
0.487394
20
1.20397
11
0.485644
21
1.20498
0
LINE
8
BLACK
6
CONTINUOUS
10
0.485644
20
1.20498
11
0.484954
21
1.20688
0
LINE
8
BLACK
6
CONTINUOUS
10
0.484954
20
1.20688
11
0.484954
21
1.21015
0
LINE
8
BLACK
6
CONTINUOUS
10
0.484954
20
1.21015
11
0.483451
21
1.21466
0
LINE
8
BLACK
6
CONTINUOUS
10
0.483451
20
1.21466
11
0.480687
21
1.21742
0
LINE
8
BLACK
6
CONTINUOUS
10
0.480687
20
1.21742
11
0.476179
21
1.21892
0
LINE
8
BLACK
6
CONTINUOUS
10
0.476179
20
1.21892
11
0.448536
21
1.21892
0
LINE
8
BLACK
6
CONTINUOUS
10
0.448536
20
1.21892
11
0.447526
21
1.2191
0
LINE
8
BLACK
6
CONTINUOUS
10
0.447526
20
1.2191
11
0.445979
21
1.2204
0
LINE
8
BLACK
6
CONTINUOUS
10
0.445979
20
1.2204
11
0.445628
21
1.22239
0
LINE
8
BLACK
6
CONTINUOUS
10
0.445628
20
1.22239
11
0.446638
21
1.22414
0
LINE
8
BLACK
6
CONTINUOUS
10
0.446638
20
1.22414
11
0.448536
21
1.22483
0
LINE
8
BLACK
6
CONTINUOUS
10
0.448536
20
1.22483
11
0.476658
21
1.22483
0
LINE
8
BLACK
6
CONTINUOUS
10
0.476658
20
1.22483
11
0.477527
21
1.22468
0
LINE
8
BLACK
6
CONTINUOUS
10
0.45892
20
1.26402
11
0.459055
21
1.26391
0
LINE
8
BLACK
6
CONTINUOUS
10
0.459055
20
1.26391
11
0.459231
21
1.26389
0
LINE
8
BLACK
6
CONTINUOUS
10
0.459231
20
1.26389
11
0.46298
21
1.26201
0
LINE
8
BLACK
6
CONTINUOUS
10
0.46298
20
1.26201
11
0.463689
21
1.26149
0
LINE
8
BLACK
6
CONTINUOUS
10
0.463689
20
1.26149
11
0.463747
21
1.26146
0
LINE
8
BLACK
6
CONTINUOUS
10
0.463747
20
1.26146
11
0.465409
21
1.2598
0
LINE
8
BLACK
6
CONTINUOUS
10
0.465409
20
1.2598
11
0.467071
21
1.26146
0
LINE
8
BLACK
6
CONTINUOUS
10
0.467071
20
1.26146
11
0.467794
21
1.26197
0
LINE
8
BLACK
6
CONTINUOUS
10
0.467794
20
1.26197
11
0.467838
21
1.26201
0
LINE
8
BLACK
6
CONTINUOUS
10
0.467838
20
1.26201
11
0.471588
21
1.26389
0
LINE
8
BLACK
6
CONTINUOUS
10
0.471588
20
1.26389
11
0.472571
21
1.26418
0
LINE
8
BLACK
6
CONTINUOUS
10
0.472571
20
1.26418
11
0.472742
21
1.26414
0
LINE
8
BLACK
6
CONTINUOUS
10
0.472742
20
1.26414
11
0.472908
21
1.2642
0
LINE
8
BLACK
6
CONTINUOUS
10
0.472908
20
1.2642
11
0.480407
21
1.2642
0
LINE
8
BLACK
6
CONTINUOUS
10
0.480407
20
1.2642
11
0.481417
21
1.26402
0
LINE
8
BLACK
6
CONTINUOUS
10
0.481417
20
1.26402
11
0.481552
21
1.26391
0
LINE
8
BLACK
6
CONTINUOUS
10
0.481552
20
1.26391
11
0.481728
21
1.26389
0
LINE
8
BLACK
6
CONTINUOUS
10
0.481728
20
1.26389
11
0.485477
21
1.26201
0
LINE
8
BLACK
6
CONTINUOUS
10
0.485477
20
1.26201
11
0.486186
21
1.26149
0
LINE
8
BLACK
6
CONTINUOUS
10
0.486186
20
1.26149
11
0.486245
21
1.26146
0
LINE
8
BLACK
6
CONTINUOUS
10
0.486245
20
1.26146
11
0.488119
21
1.25959
0
LINE
8
BLACK
6
CONTINUOUS
10
0.488119
20
1.25959
11
0.488626
21
1.25886
0
LINE
8
BLACK
6
CONTINUOUS
10
0.488626
20
1.25886
11
0.488673
21
1.25882
0
LINE
8
BLACK
6
CONTINUOUS
10
0.488673
20
1.25882
11
0.490547
21
1.25507
0
LINE
8
BLACK
6
CONTINUOUS
10
0.490547
20
1.25507
11
0.49084
21
1.25409
0
LINE
8
BLACK
6
CONTINUOUS
10
0.49084
20
1.25409
11
0.490799
21
1.25391
0
LINE
8
BLACK
6
CONTINUOUS
10
0.490799
20
1.25391
11
0.490859
21
1.25375
0
LINE
8
BLACK
6
CONTINUOUS
10
0.490859
20
1.25375
11
0.490859
21
1.24625
0
LINE
8
BLACK
6
CONTINUOUS
10
0.490859
20
1.24625
11
0.490681
21
1.24524
0
LINE
8
BLACK
6
CONTINUOUS
10
0.490681
20
1.24524
11
0.490567
21
1.2451
0
LINE
8
BLACK
6
CONTINUOUS
10
0.490567
20
1.2451
11
0.490547
21
1.24493
0
LINE
8
BLACK
6
CONTINUOUS
10
0.490547
20
1.24493
11
0.488673
21
1.24118
0
LINE
8
BLACK
6
CONTINUOUS
10
0.488673
20
1.24118
11
0.488147
21
1.24047
0
LINE
8
BLACK
6
CONTINUOUS
10
0.488147
20
1.24047
11
0.488119
21
1.24041
0
LINE
8
BLACK
6
CONTINUOUS
10
0.488119
20
1.24041
11
0.486245
21
1.23854
0
LINE
8
BLACK
6
CONTINUOUS
10
0.486245
20
1.23854
11
0.485521
21
1.23803
0
LINE
8
BLACK
6
CONTINUOUS
10
0.485521
20
1.23803
11
0.485477
21
1.23798
0
LINE
8
BLACK
6
CONTINUOUS
10
0.485477
20
1.23798
11
0.481728
21
1.23611
0
LINE
8
BLACK
6
CONTINUOUS
10
0.481728
20
1.23611
11
0.480745
21
1.23582
0
LINE
8
BLACK
6
CONTINUOUS
10
0.480745
20
1.23582
11
0.480573
21
1.23586
0
LINE
8
BLACK
6
CONTINUOUS
10
0.480573
20
1.23586
11
0.480407
21
1.2358
0
LINE
8
BLACK
6
CONTINUOUS
10
0.480407
20
1.2358
11
0.472908
21
1.2358
0
LINE
8
BLACK
6
CONTINUOUS
10
0.472908
20
1.2358
11
0.471898
21
1.23597
0
LINE
8
BLACK
6
CONTINUOUS
10
0.471898
20
1.23597
11
0.471763
21
1.23609
0
LINE
8
BLACK
6
CONTINUOUS
10
0.471763
20
1.23609
11
0.471588
21
1.23611
0
LINE
8
BLACK
6
CONTINUOUS
10
0.471588
20
1.23611
11
0.467838
21
1.23798
0
LINE
8
BLACK
6
CONTINUOUS
10
0.467838
20
1.23798
11
0.467129
21
1.23851
0
LINE
8
BLACK
6
CONTINUOUS
10
0.467129
20
1.23851
11
0.467071
21
1.23854
0
LINE
8
BLACK
6
CONTINUOUS
10
0.467071
20
1.23854
11
0.465409
21
1.2402
0
LINE
8
BLACK
6
CONTINUOUS
10
0.465409
20
1.2402
11
0.463747
21
1.23854
0
LINE
8
BLACK
6
CONTINUOUS
10
0.463747
20
1.23854
11
0.463024
21
1.23803
0
LINE
8
BLACK
6
CONTINUOUS
10
0.463024
20
1.23803
11
0.46298
21
1.23798
0
LINE
8
BLACK
6
CONTINUOUS
10
0.46298
20
1.23798
11
0.459231
21
1.23611
0
LINE
8
BLACK
6
CONTINUOUS
10
0.459231
20
1.23611
11
0.458248
21
1.23582
0
LINE
8
BLACK
6
CONTINUOUS
10
0.458248
20
1.23582
11
0.458076
21
1.23586
0
LINE
8
BLACK
6
CONTINUOUS
10
0.458076
20
1.23586
11
0.45791
21
1.2358
0
LINE
8
BLACK
6
CONTINUOUS
10
0.45791
20
1.2358
11
0.456035
21
1.2358
0
LINE
8
BLACK
6
CONTINUOUS
10
0.456035
20
1.2358
11
0.455025
21
1.23597
0
LINE
8
BLACK
6
CONTINUOUS
10
0.455025
20
1.23597
11
0.45489
21
1.23609
0
LINE
8
BLACK
6
CONTINUOUS
10
0.45489
20
1.23609
11
0.454715
21
1.23611
0
LINE
8
BLACK
6
CONTINUOUS
10
0.454715
20
1.23611
11
0.450965
21
1.23798
0
LINE
8
BLACK
6
CONTINUOUS
10
0.450965
20
1.23798
11
0.450256
21
1.23851
0
LINE
8
BLACK
6
CONTINUOUS
10
0.450256
20
1.23851
11
0.450198
21
1.23854
0
LINE
8
BLACK
6
CONTINUOUS
10
0.450198
20
1.23854
11
0.448323
21
1.24041
0
LINE
8
BLACK
6
CONTINUOUS
10
0.448323
20
1.24041
11
0.447817
21
1.24113
0
LINE
8
BLACK
6
CONTINUOUS
10
0.447817
20
1.24113
11
0.44777
21
1.24118
0
LINE
8
BLACK
6
CONTINUOUS
10
0.44777
20
1.24118
11
0.445895
21
1.24493
0
LINE
8
BLACK
6
CONTINUOUS
10
0.445895
20
1.24493
11
0.445603
21
1.24591
0
LINE
8
BLACK
6
CONTINUOUS
10
0.445603
20
1.24591
11
0.445644
21
1.24608
0
LINE
8
BLACK
6
CONTINUOUS
10
0.445644
20
1.24608
11
0.445583
21
1.24625
0
LINE
8
BLACK
6
CONTINUOUS
10
0.445583
20
1.24625
11
0.445583
21
1.25375
0
LINE
8
BLACK
6
CONTINUOUS
10
0.445583
20
1.25375
11
0.445761
21
1.25476
0
LINE
8
BLACK
6
CONTINUOUS
10
0.445761
20
1.25476
11
0.445875
21
1.25489
0
LINE
8
BLACK
6
CONTINUOUS
10
0.445875
20
1.25489
11
0.445895
21
1.25507
0
LINE
8
BLACK
6
CONTINUOUS
10
0.445895
20
1.25507
11
0.44777
21
1.25882
0
LINE
8
BLACK
6
CONTINUOUS
10
0.44777
20
1.25882
11
0.448296
21
1.25953
0
LINE
8
BLACK
6
CONTINUOUS
10
0.448296
20
1.25953
11
0.448323
21
1.25959
0
LINE
8
BLACK
6
CONTINUOUS
10
0.448323
20
1.25959
11
0.450198
21
1.26146
0
LINE
8
BLACK
6
CONTINUOUS
10
0.450198
20
1.26146
11
0.450921
21
1.26197
0
LINE
8
BLACK
6
CONTINUOUS
10
0.450921
20
1.26197
11
0.450965
21
1.26201
0
LINE
8
BLACK
6
CONTINUOUS
10
0.450965
20
1.26201
11
0.454715
21
1.26389
0
LINE
8
BLACK
6
CONTINUOUS
10
0.454715
20
1.26389
11
0.455698
21
1.26418
0
LINE
8
BLACK
6
CONTINUOUS
10
0.455698
20
1.26418
11
0.455869
21
1.26414
0
LINE
8
BLACK
6
CONTINUOUS
10
0.455869
20
1.26414
11
0.456035
21
1.2642
0
LINE
8
BLACK
6
CONTINUOUS
10
0.456035
20
1.2642
11
0.45791
21
1.2642
0
LINE
8
BLACK
6
CONTINUOUS
10
0.45791
20
1.2642
11
0.45892
21
1.26402
0
LINE
8
BLACK
6
CONTINUOUS
10
0.454035
20
1.25695
11
0.452838
21
1.25575
0
LINE
8
BLACK
6
CONTINUOUS
10
0.452838
20
1.25575
11
0.451489
21
1.25305
0
LINE
8
BLACK
6
CONTINUOUS
10
0.451489
20
1.25305
11
0.451489
21
1.24695
0
LINE
8
BLACK
6
CONTINUOUS
10
0.451489
20
1.24695
11
0.452838
21
1.24425
0
LINE
8
BLACK
6
CONTINUOUS
10
0.452838
20
1.24425
11
0.454035
21
1.24305
0
LINE
8
BLACK
6
CONTINUOUS
10
0.454035
20
1.24305
11
0.456732
21
1.2417
0
LINE
8
BLACK
6
CONTINUOUS
10
0.456732
20
1.2417
11
0.457213
21
1.2417
0
LINE
8
BLACK
6
CONTINUOUS
10
0.457213
20
1.2417
11
0.45991
21
1.24305
0
LINE
8
BLACK
6
CONTINUOUS
10
0.45991
20
1.24305
11
0.461108
21
1.24425
0
LINE
8
BLACK
6
CONTINUOUS
10
0.461108
20
1.24425
11
0.462456
21
1.24695
0
LINE
8
BLACK
6
CONTINUOUS
10
0.462456
20
1.24695
11
0.462456
21
1.25305
0
LINE
8
BLACK
6
CONTINUOUS
10
0.462456
20
1.25305
11
0.461108
21
1.25575
0
LINE
8
BLACK
6
CONTINUOUS
10
0.461108
20
1.25575
11
0.45991
21
1.25695
0
LINE
8
BLACK
6
CONTINUOUS
10
0.45991
20
1.25695
11
0.457213
21
1.25829
0
LINE
8
BLACK
6
CONTINUOUS
10
0.457213
20
1.25829
11
0.456732
21
1.25829
0
LINE
8
BLACK
6
CONTINUOUS
10
0.456732
20
1.25829
11
0.454035
21
1.25695
0
LINE
8
BLACK
6
CONTINUOUS
10
0.470908
20
1.25695
11
0.469711
21
1.25575
0
LINE
8
BLACK
6
CONTINUOUS
10
0.469711
20
1.25575
11
0.468362
21
1.25305
0
LINE
8
BLACK
6
CONTINUOUS
10
0.468362
20
1.25305
11
0.468362
21
1.24695
0
LINE
8
BLACK
6
CONTINUOUS
10
0.468362
20
1.24695
11
0.469711
21
1.24425
0
LINE
8
BLACK
6
CONTINUOUS
10
0.469711
20
1.24425
11
0.470908
21
1.24305
0
LINE
8
BLACK
6
CONTINUOUS
10
0.470908
20
1.24305
11
0.473605
21
1.2417
0
LINE
8
BLACK
6
CONTINUOUS
10
0.473605
20
1.2417
11
0.47971
21
1.2417
0
LINE
8
BLACK
6
CONTINUOUS
10
0.47971
20
1.2417
11
0.482408
21
1.24305
0
LINE
8
BLACK
6
CONTINUOUS
10
0.482408
20
1.24305
11
0.483605
21
1.24425
0
LINE
8
BLACK
6
CONTINUOUS
10
0.483605
20
1.24425
11
0.484954
21
1.24695
0
LINE
8
BLACK
6
CONTINUOUS
10
0.484954
20
1.24695
11
0.484954
21
1.25305
0
LINE
8
BLACK
6
CONTINUOUS
10
0.484954
20
1.25305
11
0.483605
21
1.25575
0
LINE
8
BLACK
6
CONTINUOUS
10
0.483605
20
1.25575
11
0.482408
21
1.25695
0
LINE
8
BLACK
6
CONTINUOUS
10
0.482408
20
1.25695
11
0.47971
21
1.25829
0
LINE
8
BLACK
6
CONTINUOUS
10
0.47971
20
1.25829
11
0.473605
21
1.25829
0
LINE
8
BLACK
6
CONTINUOUS
10
0.473605
20
1.25829
11
0.470908
21
1.25695
0
LINE
8
BLACK
6
CONTINUOUS
10
0.595
20
1.36197
11
0.596392
21
1.36139
0
LINE
8
BLACK
6
CONTINUOUS
10
0.596392
20
1.36139
11
0.596969
21
1.36
0
LINE
8
BLACK
6
CONTINUOUS
10
0.596969
20
1.36
11
0.596969
21
1.11
0
LINE
8
BLACK
6
CONTINUOUS
10
0.596969
20
1.11
11
0.596392
21
1.10861
0
LINE
8
BLACK
6
CONTINUOUS
10
0.596392
20
1.10861
11
0.595
21
1.10803
0
LINE
8
BLACK
6
CONTINUOUS
10
0.595
20
1.10803
11
0.47
21
1.10803
0
LINE
8
BLACK
6
CONTINUOUS
10
0.47
20
1.10803
11
0.345
21
1.10803
0
LINE
8
BLACK
6
CONTINUOUS
10
0.345
20
1.10803
11
0.343608
21
1.10861
0
LINE
8
BLACK
6
CONTINUOUS
10
0.343608
20
1.10861
11
0.343031
21
1.11
0
LINE
8
BLACK
6
CONTINUOUS
10
0.343031
20
1.11
11
0.343031
21
1.11
0
LINE
8
BLACK
6
CONTINUOUS
10
0.343031
20
1.11
11
0.343031
21
1.36
0
LINE
8
BLACK
6
CONTINUOUS
10
0.343031
20
1.36
11
0.343608
21
1.36139
0
LINE
8
BLACK
6
CONTINUOUS
10
0.343608
20
1.36139
11
0.345
21
1.36197
0
LINE
8
BLACK
6
CONTINUOUS
10
0.345
20
1.36197
11
0.595
21
1.36197
0
LINE
8
BLACK
6
CONTINUOUS
10
0.346969
20
1.11197
11
0.439131
21
1.11197
0
LINE
8
BLACK
6
CONTINUOUS
10
0.439131
20
1.11197
11
0.428065
21
1.11516
0
LINE
8
BLACK
6
CONTINUOUS
10
0.428065
20
1.11516
11
0.41491
21
1.12061
0
LINE
8
BLACK
6
CONTINUOUS
10
0.41491
20
1.12061
11
0.402449
21
1.12749
0
LINE
8
BLACK
6
CONTINUOUS
10
0.402449
20
1.12749
11
0.390836
21
1.13573
0
LINE
8
BLACK
6
CONTINUOUS
10
0.390836
20
1.13573
11
0.38022
21
1.14522
0
LINE
8
BLACK
6
CONTINUOUS
10
0.38022
20
1.14522
11
0.370732
21
1.15584
0
LINE
8
BLACK
6
CONTINUOUS
10
0.370732
20
1.15584
11
0.362493
21
1.16745
0
LINE
8
BLACK
6
CONTINUOUS
10
0.362493
20
1.16745
11
0.355605
21
1.17991
0
LINE
8
BLACK
6
CONTINUOUS
10
0.355605
20
1.17991
11
0.350157
21
1.19306
0
LINE
8
BLACK
6
CONTINUOUS
10
0.350157
20
1.19306
11
0.346969
21
1.20413
0
LINE
8
BLACK
6
CONTINUOUS
10
0.346969
20
1.20413
11
0.346969
21
1.11197
0
LINE
8
BLACK
6
CONTINUOUS
10
0.466548
20
1.35803
11
0.456203
21
1.35745
0
LINE
8
BLACK
6
CONTINUOUS
10
0.456203
20
1.35745
11
0.44258
21
1.35514
0
LINE
8
BLACK
6
CONTINUOUS
10
0.44258
20
1.35514
11
0.429301
21
1.35131
0
LINE
8
BLACK
6
CONTINUOUS
10
0.429301
20
1.35131
11
0.416535
21
1.34602
0
LINE
8
BLACK
6
CONTINUOUS
10
0.416535
20
1.34602
11
0.40444
21
1.33934
0
LINE
8
BLACK
6
CONTINUOUS
10
0.40444
20
1.33934
11
0.39317
21
1.33134
0
LINE
8
BLACK
6
CONTINUOUS
10
0.39317
20
1.33134
11
0.382867
21
1.32213
0
LINE
8
BLACK
6
CONTINUOUS
10
0.382867
20
1.32213
11
0.373659
21
1.31183
0
LINE
8
BLACK
6
CONTINUOUS
10
0.373659
20
1.31183
11
0.365662
21
1.30056
0
LINE
8
BLACK
6
CONTINUOUS
10
0.365662
20
1.30056
11
0.358978
21
1.28847
0
LINE
8
BLACK
6
CONTINUOUS
10
0.358978
20
1.28847
11
0.35369
21
1.2757
0
LINE
8
BLACK
6
CONTINUOUS
10
0.35369
20
1.2757
11
0.349864
21
1.26242
0
LINE
8
BLACK
6
CONTINUOUS
10
0.349864
20
1.26242
11
0.347549
21
1.2488
0
LINE
8
BLACK
6
CONTINUOUS
10
0.347549
20
1.2488
11
0.346969
21
1.23845
0
LINE
8
BLACK
6
CONTINUOUS
10
0.346969
20
1.23845
11
0.346969
21
1.23155
0
LINE
8
BLACK
6
CONTINUOUS
10
0.346969
20
1.23155
11
0.347549
21
1.2212
0
LINE
8
BLACK
6
CONTINUOUS
10
0.347549
20
1.2212
11
0.349864
21
1.20758
0
LINE
8
BLACK
6
CONTINUOUS
10
0.349864
20
1.20758
11
0.35369
21
1.1943
0
LINE
8
BLACK
6
CONTINUOUS
10
0.35369
20
1.1943
11
0.358978
21
1.18153
0
LINE
8
BLACK
6
CONTINUOUS
10
0.358978
20
1.18153
11
0.365662
21
1.16944
0
LINE
8
BLACK
6
CONTINUOUS
10
0.365662
20
1.16944
11
0.373659
21
1.15817
0
LINE
8
BLACK
6
CONTINUOUS
10
0.373659
20
1.15817
11
0.382867
21
1.14787
0
LINE
8
BLACK
6
CONTINUOUS
10
0.382867
20
1.14787
11
0.39317
21
1.13866
0
LINE
8
BLACK
6
CONTINUOUS
10
0.39317
20
1.13866
11
0.40444
21
1.13066
0
LINE
8
BLACK
6
CONTINUOUS
10
0.40444
20
1.13066
11
0.416535
21
1.12398
0
LINE
8
BLACK
6
CONTINUOUS
10
0.416535
20
1.12398
11
0.429301
21
1.11869
0
LINE
8
BLACK
6
CONTINUOUS
10
0.429301
20
1.11869
11
0.44258
21
1.11486
0
LINE
8
BLACK
6
CONTINUOUS
10
0.44258
20
1.11486
11
0.456203
21
1.11255
0
LINE
8
BLACK
6
CONTINUOUS
10
0.456203
20
1.11255
11
0.466548
21
1.11197
0
LINE
8
BLACK
6
CONTINUOUS
10
0.466548
20
1.11197
11
0.473452
21
1.11197
0
LINE
8
BLACK
6
CONTINUOUS
10
0.473452
20
1.11197
11
0.483797
21
1.11255
0
LINE
8
BLACK
6
CONTINUOUS
10
0.483797
20
1.11255
11
0.49742
21
1.11486
0
LINE
8
BLACK
6
CONTINUOUS
10
0.49742
20
1.11486
11
0.510699
21
1.11869
0
LINE
8
BLACK
6
CONTINUOUS
10
0.510699
20
1.11869
11
0.523465
21
1.12398
0
LINE
8
BLACK
6
CONTINUOUS
10
0.523465
20
1.12398
11
0.53556
21
1.13066
0
LINE
8
BLACK
6
CONTINUOUS
10
0.53556
20
1.13066
11
0.54683
21
1.13866
0
LINE
8
BLACK
6
CONTINUOUS
10
0.54683
20
1.13866
11
0.557133
21
1.14787
0
LINE
8
BLACK
6
CONTINUOUS
10
0.557133
20
1.14787
11
0.566341
21
1.15817
0
LINE
8
BLACK
6
CONTINUOUS
10
0.566341
20
1.15817
11
0.574338
21
1.16944
0
LINE
8
BLACK
6
CONTINUOUS
10
0.574338
20
1.16944
11
0.581022
21
1.18153
0
LINE
8
BLACK
6
CONTINUOUS
10
0.581022
20
1.18153
11
0.58631
21
1.1943
0
LINE
8
BLACK
6
CONTINUOUS
10
0.58631
20
1.1943
11
0.590136
21
1.20758
0
LINE
8
BLACK
6
CONTINUOUS
10
0.590136
20
1.20758
11
0.592451
21
1.2212
0
LINE
8
BLACK
6
CONTINUOUS
10
0.592451
20
1.2212
11
0.593031
21
1.23155
0
LINE
8
BLACK
6
CONTINUOUS
10
0.593031
20
1.23155
11
0.593031
21
1.23845
0
LINE
8
BLACK
6
CONTINUOUS
10
0.593031
20
1.23845
11
0.592451
21
1.2488
0
LINE
8
BLACK
6
CONTINUOUS
10
0.592451
20
1.2488
11
0.590136
21
1.26242
0
LINE
8
BLACK
6
CONTINUOUS
10
0.590136
20
1.26242
11
0.58631
21
1.2757
0
LINE
8
BLACK
6
CONTINUOUS
10
0.58631
20
1.2757
11
0.581022
21
1.28847
0
LINE
8
BLACK
6
CONTINUOUS
10
0.581022
20
1.28847
11
0.574338
21
1.30056
0
LINE
8
BLACK
6
CONTINUOUS
10
0.574338
20
1.30056
11
0.566341
21
1.31183
0
LINE
8
BLACK
6
CONTINUOUS
10
0.566341
20
1.31183
11
0.557133
21
1.32213
0
LINE
8
BLACK
6
CONTINUOUS
10
0.557133
20
1.32213
11
0.54683
21
1.33134
0
LINE
8
BLACK
6
CONTINUOUS
10
0.54683
20
1.33134
11
0.53556
21
1.33934
0
LINE
8
BLACK
6
CONTINUOUS
10
0.53556
20
1.33934
11
0.523465
21
1.34602
0
LINE
8
BLACK
6
CONTINUOUS
10
0.523465
20
1.34602
11
0.510699
21
1.35131
0
LINE
8
BLACK
6
CONTINUOUS
10
0.510699
20
1.35131
11
0.49742
21
1.35514
0
LINE
8
BLACK
6
CONTINUOUS
10
0.49742
20
1.35514
11
0.483797
21
1.35745
0
LINE
8
BLACK
6
CONTINUOUS
10
0.483797
20
1.35745
11
0.473452
21
1.35803
0
LINE
8
BLACK
6
CONTINUOUS
10
0.473452
20
1.35803
11
0.466548
21
1.35803
0
LINE
8
BLACK
6
CONTINUOUS
10
0.589843
20
1.19306
11
0.584395
21
1.17991
0
LINE
8
BLACK
6
CONTINUOUS
10
0.584395
20
1.17991
11
0.577507
21
1.16745
0
LINE
8
BLACK
6
CONTINUOUS
10
0.577507
20
1.16745
11
0.569268
21
1.15584
0
LINE
8
BLACK
6
CONTINUOUS
10
0.569268
20
1.15584
11
0.55978
21
1.14522
0
LINE
8
BLACK
6
CONTINUOUS
10
0.55978
20
1.14522
11
0.549164
21
1.13573
0
LINE
8
BLACK
6
CONTINUOUS
10
0.549164
20
1.13573
11
0.537551
21
1.12749
0
LINE
8
BLACK
6
CONTINUOUS
10
0.537551
20
1.12749
11
0.52509
21
1.12061
0
LINE
8
BLACK
6
CONTINUOUS
10
0.52509
20
1.12061
11
0.511935
21
1.11516
0
LINE
8
BLACK
6
CONTINUOUS
10
0.511935
20
1.11516
11
0.500869
21
1.11197
0
LINE
8
BLACK
6
CONTINUOUS
10
0.500869
20
1.11197
11
0.593031
21
1.11197
0
LINE
8
BLACK
6
CONTINUOUS
10
0.593031
20
1.11197
11
0.593031
21
1.20413
0
LINE
8
BLACK
6
CONTINUOUS
10
0.593031
20
1.20413
11
0.589843
21
1.19306
0
LINE
8
BLACK
6
CONTINUOUS
10
0.346969
20
1.35803
11
0.346969
21
1.26587
0
LINE
8
BLACK
6
CONTINUOUS
10
0.346969
20
1.26587
11
0.350157
21
1.27694
0
LINE
8
BLACK
6
CONTINUOUS
10
0.350157
20
1.27694
11
0.355605
21
1.29009
0
LINE
8
BLACK
6
CONTINUOUS
10
0.355605
20
1.29009
11
0.362493
21
1.30255
0
LINE
8
BLACK
6
CONTINUOUS
10
0.362493
20
1.30255
11
0.370732
21
1.31416
0
LINE
8
BLACK
6
CONTINUOUS
10
0.370732
20
1.31416
11
0.38022
21
1.32478
0
LINE
8
BLACK
6
CONTINUOUS
10
0.38022
20
1.32478
11
0.390836
21
1.33427
0
LINE
8
BLACK
6
CONTINUOUS
10
0.390836
20
1.33427
11
0.402449
21
1.34251
0
LINE
8
BLACK
6
CONTINUOUS
10
0.402449
20
1.34251
11
0.41491
21
1.34939
0
LINE
8
BLACK
6
CONTINUOUS
10
0.41491
20
1.34939
11
0.428065
21
1.35484
0
LINE
8
BLACK
6
CONTINUOUS
10
0.428065
20
1.35484
11
0.439131
21
1.35803
0
LINE
8
BLACK
6
CONTINUOUS
10
0.439131
20
1.35803
11
0.346969
21
1.35803
0
LINE
8
BLACK
6
CONTINUOUS
10
0.500869
20
1.35803
11
0.511935
21
1.35484
0
LINE
8
BLACK
6
CONTINUOUS
10
0.511935
20
1.35484
11
0.52509
21
1.34939
0
LINE
8
BLACK
6
CONTINUOUS
10
0.52509
20
1.34939
11
0.537551
21
1.34251
0
LINE
8
BLACK
6
CONTINUOUS
10
0.537551
20
1.34251
11
0.549164
21
1.33427
0
LINE
8
BLACK
6
CONTINUOUS
10
0.549164
20
1.33427
11
0.55978
21
1.32478
0
LINE
8
BLACK
6
CONTINUOUS
10
0.55978
20
1.32478
11
0.569268
21
1.31416
0
LINE
8
BLACK
6
CONTINUOUS
10
0.569268
20
1.31416
11
0.577507
21
1.30255
0
LINE
8
BLACK
6
CONTINUOUS
10
0.577507
20
1.30255
11
0.584395
21
1.29009
0
LINE
8
BLACK
6
CONTINUOUS
10
0.584395
20
1.29009
11
0.589843
21
1.27694
0
LINE
8
BLACK
6
CONTINUOUS
10
0.589843
20
1.27694
11
0.593031
21
1.26587
0
LINE
8
BLACK
6
CONTINUOUS
10
0.593031
20
1.26587
11
0.593031
21
1.35803
0
LINE
8
BLACK
6
CONTINUOUS
10
0.593031
20
1.35803
11
0.500869
21
1.35803
0
LINE
8
BLACK
6
CONTINUOUS
10
1.5
20
1.32295
11
1.6
21
1.32295
0
LINE
8
BLACK
6
CONTINUOUS
10
1.6
20
1.32295
11
1.60038
21
1.32289
0
LINE
8
BLACK
6
CONTINUOUS
10
1.60038
20
1.32289
11
1.60051
21
1.32291
0
LINE
8
BLACK
6
CONTINUOUS
10
1.60051
20
1.32291
11
1.60063
21
1.32284
0
LINE
8
BLACK
6
CONTINUOUS
10
1.60063
20
1.32284
11
1.60101
21
1.32277
0
LINE
8
BLACK
6
CONTINUOUS
10
1.60101
20
1.32277
11
1.6016
21
1.32228
0
LINE
8
BLACK
6
CONTINUOUS
10
1.6016
20
1.32228
11
1.60226
21
1.3219
0
LINE
8
BLACK
6
CONTINUOUS
10
1.60226
20
1.3219
11
1.60235
21
1.32165
0
LINE
8
BLACK
6
CONTINUOUS
10
1.60235
20
1.32165
11
1.60256
21
1.32148
0
LINE
8
BLACK
6
CONTINUOUS
10
1.60256
20
1.32148
11
1.60269
21
1.32072
0
LINE
8
BLACK
6
CONTINUOUS
10
1.60269
20
1.32072
11
1.60295
21
1.32
0
LINE
8
BLACK
6
CONTINUOUS
10
1.60295
20
1.32
11
1.60295
21
1.12
0
LINE
8
BLACK
6
CONTINUOUS
10
1.60295
20
1.12
11
1.60289
21
1.11962
0
LINE
8
BLACK
6
CONTINUOUS
10
1.60289
20
1.11962
11
1.60291
21
1.11949
0
LINE
8
BLACK
6
CONTINUOUS
10
1.60291
20
1.11949
11
1.60284
21
1.11937
0
LINE
8
BLACK
6
CONTINUOUS
10
1.60284
20
1.11937
11
1.60277
21
1.11899
0
LINE
8
BLACK
6
CONTINUOUS
10
1.60277
20
1.11899
11
1.60228
21
1.1184
0
LINE
8
BLACK
6
CONTINUOUS
10
1.60228
20
1.1184
11
1.6019
21
1.11774
0
LINE
8
BLACK
6
CONTINUOUS
10
1.6019
20
1.11774
11
1.60165
21
1.11765
0
LINE
8
BLACK
6
CONTINUOUS
10
1.60165
20
1.11765
11
1.60148
21
1.11744
0
LINE
8
BLACK
6
CONTINUOUS
10
1.60148
20
1.11744
11
1.60072
21
1.11731
0
LINE
8
BLACK
6
CONTINUOUS
10
1.60072
20
1.11731
11
1.6
21
1.11705
0
LINE
8
BLACK
6
CONTINUOUS
10
1.6
20
1.11705
11
1.5
21
1.11705
0
LINE
8
BLACK
6
CONTINUOUS
10
1.5
20
1.11705
11
1.4
21
1.11705
0
LINE
8
BLACK
6
CONTINUOUS
10
1.4
20
1.11705
11
1.39962
21
1.11711
0
LINE
8
BLACK
6
CONTINUOUS
10
1.39962
20
1.11711
11
1.39949
21
1.11709
0
LINE
8
BLACK
6
CONTINUOUS
10
1.39949
20
1.11709
11
1.39937
21
1.11716
0
LINE
8
BLACK
6
CONTINUOUS
10
1.39937
20
1.11716
11
1.39899
21
1.11723
0
LINE
8
BLACK
6
CONTINUOUS
10
1.39899
20
1.11723
11
1.3984
21
1.11772
0
LINE
8
BLACK
6
CONTINUOUS
10
1.3984
20
1.11772
11
1.39774
21
1.1181
0
LINE
8
BLACK
6
CONTINUOUS
10
1.39774
20
1.1181
11
1.39765
21
1.11835
0
LINE
8
BLACK
6
CONTINUOUS
10
1.39765
20
1.11835
11
1.39744
21
1.11852
0
LINE
8
BLACK
6
CONTINUOUS
10
1.39744
20
1.11852
11
1.39731
21
1.11928
0
LINE
8
BLACK
6
CONTINUOUS
10
1.39731
20
1.11928
11
1.39705
21
1.12
0
LINE
8
BLACK
6
CONTINUOUS
10
1.39705
20
1.12
11
1.39705
21
1.32
0
LINE
8
BLACK
6
CONTINUOUS
10
1.39705
20
1.32
11
1.39711
21
1.32038
0
LINE
8
BLACK
6
CONTINUOUS
10
1.39711
20
1.32038
11
1.39709
21
1.32051
0
LINE
8
BLACK
6
CONTINUOUS
10
1.39709
20
1.32051
11
1.39716
21
1.32063
0
LINE
8
BLACK
6
CONTINUOUS
10
1.39716
20
1.32063
11
1.39723
21
1.32101
0
LINE
8
BLACK
6
CONTINUOUS
10
1.39723
20
1.32101
11
1.39772
21
1.3216
0
LINE
8
BLACK
6
CONTINUOUS
10
1.39772
20
1.3216
11
1.3981
21
1.32226
0
LINE
8
BLACK
6
CONTINUOUS
10
1.3981
20
1.32226
11
1.39835
21
1.32235
0
LINE
8
BLACK
6
CONTINUOUS
10
1.39835
20
1.32235
11
1.39852
21
1.32256
0
LINE
8
BLACK
6
CONTINUOUS
10
1.39852
20
1.32256
11
1.39928
21
1.32269
0
LINE
8
BLACK
6
CONTINUOUS
10
1.39928
20
1.32269
11
1.4
21
1.32295
0
LINE
8
BLACK
6
CONTINUOUS
10
1.4
20
1.32295
11
1.5
21
1.32295
0
LINE
8
BLACK
6
CONTINUOUS
10
1.50295
20
1.31705
11
1.50295
21
1.12295
0
LINE
8
BLACK
6
CONTINUOUS
10
1.50295
20
1.12295
11
1.59705
21
1.12295
0
LINE
8
BLACK
6
CONTINUOUS
10
1.59705
20
1.12295
11
1.59705
21
1.31705
0
LINE
8
BLACK
6
CONTINUOUS
10
1.59705
20
1.31705
11
1.50295
21
1.31705
0
LINE
8
BLACK
6
CONTINUOUS
10
1.40295
20
1.31705
11
1.40295
21
1.12295
0
LINE
8
BLACK
6
CONTINUOUS
10
1.40295
20
1.12295
11
1.49705
21
1.12295
0
LINE
8
BLACK
6
CONTINUOUS
10
1.49705
20
1.12295
11
1.49705
21
1.31705
0
LINE
8
BLACK
6
CONTINUOUS
10
1.49705
20
1.31705
11
1.40295
21
1.31705
0
LINE
8
BLACK
6
CONTINUOUS
10
0.685767
20
1.21247
11
0.687314
21
1.21117
0
LINE
8
BLACK
6
CONTINUOUS
10
0.687314
20
1.21117
11
0.687665
21
1.20918
0
LINE
8
BLACK
6
CONTINUOUS
10
0.687665
20
1.20918
11
0.686655
21
1.20743
0
LINE
8
BLACK
6
CONTINUOUS
10
0.686655
20
1.20743
11
0.684757
21
1.20674
0
LINE
8
BLACK
6
CONTINUOUS
10
0.684757
20
1.20674
11
0.658696
21
1.20674
0
LINE
8
BLACK
6
CONTINUOUS
10
0.658696
20
1.20674
11
0.674757
21
1.19924
0
LINE
8
BLACK
6
CONTINUOUS
10
0.674757
20
1.19924
11
0.675074
21
1.19902
0
LINE
8
BLACK
6
CONTINUOUS
10
0.675074
20
1.19902
11
0.675201
21
1.19899
0
LINE
8
BLACK
6
CONTINUOUS
10
0.675201
20
1.19899
11
0.675276
21
1.19888
0
LINE
8
BLACK
6
CONTINUOUS
10
0.675276
20
1.19888
11
0.675597
21
1.19865
0
LINE
8
BLACK
6
CONTINUOUS
10
0.675597
20
1.19865
11
0.67592
21
1.19796
0
LINE
8
BLACK
6
CONTINUOUS
10
0.67592
20
1.19796
11
0.67636
21
1.19733
0
LINE
8
BLACK
6
CONTINUOUS
10
0.67636
20
1.19733
11
0.676337
21
1.19707
0
LINE
8
BLACK
6
CONTINUOUS
10
0.676337
20
1.19707
11
0.67645
21
1.19682
0
LINE
8
BLACK
6
CONTINUOUS
10
0.67645
20
1.19682
11
0.676251
21
1.19608
0
LINE
8
BLACK
6
CONTINUOUS
10
0.676251
20
1.19608
11
0.676184
21
1.19532
0
LINE
8
BLACK
6
CONTINUOUS
10
0.676184
20
1.19532
11
0.675996
21
1.19513
0
LINE
8
BLACK
6
CONTINUOUS
10
0.675996
20
1.19513
11
0.675926
21
1.19487
0
LINE
8
BLACK
6
CONTINUOUS
10
0.675926
20
1.19487
11
0.675298
21
1.19443
0
LINE
8
BLACK
6
CONTINUOUS
10
0.675298
20
1.19443
11
0.674757
21
1.19389
0
LINE
8
BLACK
6
CONTINUOUS
10
0.674757
20
1.19389
11
0.658696
21
1.1864
0
LINE
8
BLACK
6
CONTINUOUS
10
0.658696
20
1.1864
11
0.684757
21
1.1864
0
LINE
8
BLACK
6
CONTINUOUS
10
0.684757
20
1.1864
11
0.685767
21
1.18622
0
LINE
8
BLACK
6
CONTINUOUS
10
0.685767
20
1.18622
11
0.687314
21
1.18492
0
LINE
8
BLACK
6
CONTINUOUS
10
0.687314
20
1.18492
11
0.687665
21
1.18293
0
LINE
8
BLACK
6
CONTINUOUS
10
0.687665
20
1.18293
11
0.686655
21
1.18118
0
LINE
8
BLACK
6
CONTINUOUS
10
0.686655
20
1.18118
11
0.684757
21
1.18049
0
LINE
8
BLACK
6
CONTINUOUS
10
0.684757
20
1.18049
11
0.645387
21
1.18049
0
LINE
8
BLACK
6
CONTINUOUS
10
0.645387
20
1.18049
11
0.644377
21
1.18067
0
LINE
8
BLACK
6
CONTINUOUS
10
0.644377
20
1.18067
11
0.644075
21
1.18092
0
LINE
8
BLACK
6
CONTINUOUS
10
0.644075
20
1.18092
11
0.643694
21
1.18102
0
LINE
8
BLACK
6
CONTINUOUS
10
0.643694
20
1.18102
11
0.643324
21
1.18155
0
LINE
8
BLACK
6
CONTINUOUS
10
0.643324
20
1.18155
11
0.642829
21
1.18197
0
LINE
8
BLACK
6
CONTINUOUS
10
0.642829
20
1.18197
11
0.642761
21
1.18236
0
LINE
8
BLACK
6
CONTINUOUS
10
0.642761
20
1.18236
11
0.642535
21
1.18268
0
LINE
8
BLACK
6
CONTINUOUS
10
0.642535
20
1.18268
11
0.642591
21
1.18332
0
LINE
8
BLACK
6
CONTINUOUS
10
0.642591
20
1.18332
11
0.642479
21
1.18396
0
LINE
8
BLACK
6
CONTINUOUS
10
0.642479
20
1.18396
11
0.642676
21
1.1843
0
LINE
8
BLACK
6
CONTINUOUS
10
0.642676
20
1.1843
11
0.64271
21
1.18469
0
LINE
8
BLACK
6
CONTINUOUS
10
0.64271
20
1.18469
11
0.643166
21
1.18515
0
LINE
8
BLACK
6
CONTINUOUS
10
0.643166
20
1.18515
11
0.643489
21
1.18571
0
LINE
8
BLACK
6
CONTINUOUS
10
0.643489
20
1.18571
11
0.643859
21
1.18584
0
LINE
8
BLACK
6
CONTINUOUS
10
0.643859
20
1.18584
11
0.644138
21
1.18612
0
LINE
8
BLACK
6
CONTINUOUS
10
0.644138
20
1.18612
11
0.666526
21
1.19657
0
LINE
8
BLACK
6
CONTINUOUS
10
0.666526
20
1.19657
11
0.644138
21
1.20701
0
LINE
8
BLACK
6
CONTINUOUS
10
0.644138
20
1.20701
11
0.643298
21
1.2076
0
LINE
8
BLACK
6
CONTINUOUS
10
0.643298
20
1.2076
11
0.643131
21
1.20796
0
LINE
8
BLACK
6
CONTINUOUS
10
0.643131
20
1.20796
11
0.642829
21
1.20821
0
LINE
8
BLACK
6
CONTINUOUS
10
0.642829
20
1.20821
11
0.642717
21
1.20885
0
LINE
8
BLACK
6
CONTINUOUS
10
0.642717
20
1.20885
11
0.642445
21
1.20943
0
LINE
8
BLACK
6
CONTINUOUS
10
0.642445
20
1.20943
11
0.642547
21
1.20982
0
LINE
8
BLACK
6
CONTINUOUS
10
0.642547
20
1.20982
11
0.642479
21
1.2102
0
LINE
8
BLACK
6
CONTINUOUS
10
0.642479
20
1.2102
11
0.642801
21
1.21076
0
LINE
8
BLACK
6
CONTINUOUS
10
0.642801
20
1.21076
11
0.642968
21
1.21139
0
LINE
8
BLACK
6
CONTINUOUS
10
0.642968
20
1.21139
11
0.643291
21
1.21161
0
LINE
8
BLACK
6
CONTINUOUS
10
0.643291
20
1.21161
11
0.643489
21
1.21195
0
LINE
8
BLACK
6
CONTINUOUS
10
0.643489
20
1.21195
11
0.644095
21
1.21217
0
LINE
8
BLACK
6
CONTINUOUS
10
0.644095
20
1.21217
11
0.644623
21
1.21254
0
LINE
8
BLACK
6
CONTINUOUS
10
0.644623
20
1.21254
11
0.645016
21
1.21251
0
LINE
8
BLACK
6
CONTINUOUS
10
0.645016
20
1.21251
11
0.645387
21
1.21264
0
LINE
8
BLACK
6
CONTINUOUS
10
0.645387
20
1.21264
11
0.684757
21
1.21264
0
LINE
8
BLACK
6
CONTINUOUS
10
0.684757
20
1.21264
11
0.685767
21
1.21247
0
LINE
8
BLACK
6
CONTINUOUS
10
0.683095
20
1.25302
11
0.68497
21
1.25115
0
LINE
8
BLACK
6
CONTINUOUS
10
0.68497
20
1.25115
11
0.685558
21
1.25031
0
LINE
8
BLACK
6
CONTINUOUS
10
0.685558
20
1.25031
11
0.685573
21
1.25013
0
LINE
8
BLACK
6
CONTINUOUS
10
0.685573
20
1.25013
11
0.685683
21
1.24999
0
LINE
8
BLACK
6
CONTINUOUS
10
0.685683
20
1.24999
11
0.687558
21
1.24437
0
LINE
8
BLACK
6
CONTINUOUS
10
0.687558
20
1.24437
11
0.687687
21
1.2435
0
LINE
8
BLACK
6
CONTINUOUS
10
0.687687
20
1.2435
11
0.687709
21
1.24344
0
LINE
8
BLACK
6
CONTINUOUS
10
0.687709
20
1.24344
11
0.687709
21
1.23969
0
LINE
8
BLACK
6
CONTINUOUS
10
0.687709
20
1.23969
11
0.687556
21
1.23882
0
LINE
8
BLACK
6
CONTINUOUS
10
0.687556
20
1.23882
11
0.687558
21
1.23875
0
LINE
8
BLACK
6
CONTINUOUS
10
0.687558
20
1.23875
11
0.685683
21
1.23313
0
LINE
8
BLACK
6
CONTINUOUS
10
0.685683
20
1.23313
11
0.685195
21
1.23223
0
LINE
8
BLACK
6
CONTINUOUS
10
0.685195
20
1.23223
11
0.685044
21
1.23213
0
LINE
8
BLACK
6
CONTINUOUS
10
0.685044
20
1.23213
11
0.68497
21
1.23197
0
LINE
8
BLACK
6
CONTINUOUS
10
0.68497
20
1.23197
11
0.68122
21
1.22823
0
LINE
8
BLACK
6
CONTINUOUS
10
0.68122
20
1.22823
11
0.680497
21
1.22772
0
LINE
8
BLACK
6
CONTINUOUS
10
0.680497
20
1.22772
11
0.680453
21
1.22767
0
LINE
8
BLACK
6
CONTINUOUS
10
0.680453
20
1.22767
11
0.676703
21
1.2258
0
LINE
8
BLACK
6
CONTINUOUS
10
0.676703
20
1.2258
11
0.676215
21
1.22565
0
LINE
8
BLACK
6
CONTINUOUS
10
0.676215
20
1.22565
11
0.676099
21
1.22557
0
LINE
8
BLACK
6
CONTINUOUS
10
0.676099
20
1.22557
11
0.6686
21
1.2237
0
LINE
8
BLACK
6
CONTINUOUS
10
0.6686
20
1.2237
11
0.668012
21
1.22366
0
LINE
8
BLACK
6
CONTINUOUS
10
0.668012
20
1.22366
11
0.667884
21
1.22361
0
LINE
8
BLACK
6
CONTINUOUS
10
0.667884
20
1.22361
11
0.662259
21
1.22361
0
LINE
8
BLACK
6
CONTINUOUS
10
0.662259
20
1.22361
11
0.661679
21
1.22371
0
LINE
8
BLACK
6
CONTINUOUS
10
0.661679
20
1.22371
11
0.661543
21
1.2237
0
LINE
8
BLACK
6
CONTINUOUS
10
0.661543
20
1.2237
11
0.654044
21
1.22557
0
LINE
8
BLACK
6
CONTINUOUS
10
0.654044
20
1.22557
11
0.653579
21
1.22578
0
LINE
8
BLACK
6
CONTINUOUS
10
0.653579
20
1.22578
11
0.65344
21
1.2258
0
LINE
8
BLACK
6
CONTINUOUS
10
0.65344
20
1.2258
11
0.64969
21
1.22767
0
LINE
8
BLACK
6
CONTINUOUS
10
0.64969
20
1.22767
11
0.648981
21
1.2282
0
LINE
8
BLACK
6
CONTINUOUS
10
0.648981
20
1.2282
11
0.648923
21
1.22823
0
LINE
8
BLACK
6
CONTINUOUS
10
0.648923
20
1.22823
11
0.645173
21
1.23197
0
LINE
8
BLACK
6
CONTINUOUS
10
0.645173
20
1.23197
11
0.644585
21
1.23281
0
LINE
8
BLACK
6
CONTINUOUS
10
0.644585
20
1.23281
11
0.64457
21
1.23299
0
LINE
8
BLACK
6
CONTINUOUS
10
0.64457
20
1.23299
11
0.64446
21
1.23313
0
LINE
8
BLACK
6
CONTINUOUS
10
0.64446
20
1.23313
11
0.642585
21
1.23875
0
LINE
8
BLACK
6
CONTINUOUS
10
0.642585
20
1.23875
11
0.642456
21
1.23963
0
LINE
8
BLACK
6
CONTINUOUS
10
0.642456
20
1.23963
11
0.642434
21
1.23969
0
LINE
8
BLACK
6
CONTINUOUS
10
0.642434
20
1.23969
11
0.642434
21
1.24344
0
LINE
8
BLACK
6
CONTINUOUS
10
0.642434
20
1.24344
11
0.642587
21
1.24431
0
LINE
8
BLACK
6
CONTINUOUS
10
0.642587
20
1.24431
11
0.642585
21
1.24437
0
LINE
8
BLACK
6
CONTINUOUS
10
0.642585
20
1.24437
11
0.64446
21
1.24999
0
LINE
8
BLACK
6
CONTINUOUS
10
0.64446
20
1.24999
11
0.644948
21
1.2509
0
LINE
8
BLACK
6
CONTINUOUS
10
0.644948
20
1.2509
11
0.645099
21
1.25099
0
LINE
8
BLACK
6
CONTINUOUS
10
0.645099
20
1.25099
11
0.645173
21
1.25115
0
LINE
8
BLACK
6
CONTINUOUS
10
0.645173
20
1.25115
11
0.647048
21
1.25302
0
LINE
8
BLACK
6
CONTINUOUS
10
0.647048
20
1.25302
11
0.647888
21
1.25361
0
LINE
8
BLACK
6
CONTINUOUS
10
0.647888
20
1.25361
11
0.6499
21
1.25379
0
LINE
8
BLACK
6
CONTINUOUS
10
0.6499
20
1.25379
11
0.651555
21
1.25263
0
LINE
8
BLACK
6
CONTINUOUS
10
0.651555
20
1.25263
11
0.652078
21
1.25068
0
LINE
8
BLACK
6
CONTINUOUS
10
0.652078
20
1.25068
11
0.651224
21
1.24885
0
LINE
8
BLACK
6
CONTINUOUS
10
0.651224
20
1.24885
11
0.649842
21
1.24747
0
LINE
8
BLACK
6
CONTINUOUS
10
0.649842
20
1.24747
11
0.648339
21
1.24296
0
LINE
8
BLACK
6
CONTINUOUS
10
0.648339
20
1.24296
11
0.648339
21
1.24017
0
LINE
8
BLACK
6
CONTINUOUS
10
0.648339
20
1.24017
11
0.649842
21
1.23566
0
LINE
8
BLACK
6
CONTINUOUS
10
0.649842
20
1.23566
11
0.65276
21
1.23274
0
LINE
8
BLACK
6
CONTINUOUS
10
0.65276
20
1.23274
11
0.655791
21
1.23122
0
LINE
8
BLACK
6
CONTINUOUS
10
0.655791
20
1.23122
11
0.662623
21
1.22952
0
LINE
8
BLACK
6
CONTINUOUS
10
0.662623
20
1.22952
11
0.66752
21
1.22952
0
LINE
8
BLACK
6
CONTINUOUS
10
0.66752
20
1.22952
11
0.674352
21
1.23122
0
LINE
8
BLACK
6
CONTINUOUS
10
0.674352
20
1.23122
11
0.677383
21
1.23274
0
LINE
8
BLACK
6
CONTINUOUS
10
0.677383
20
1.23274
11
0.680301
21
1.23566
0
LINE
8
BLACK
6
CONTINUOUS
10
0.680301
20
1.23566
11
0.681804
21
1.24017
0
LINE
8
BLACK
6
CONTINUOUS
10
0.681804
20
1.24017
11
0.681804
21
1.24296
0
LINE
8
BLACK
6
CONTINUOUS
10
0.681804
20
1.24296
11
0.680301
21
1.24747
0
LINE
8
BLACK
6
CONTINUOUS
10
0.680301
20
1.24747
11
0.678919
21
1.24885
0
LINE
8
BLACK
6
CONTINUOUS
10
0.678919
20
1.24885
11
0.678331
21
1.24969
0
LINE
8
BLACK
6
CONTINUOUS
10
0.678331
20
1.24969
11
0.678155
21
1.2517
0
LINE
8
BLACK
6
CONTINUOUS
10
0.678155
20
1.2517
11
0.679313
21
1.25335
0
LINE
8
BLACK
6
CONTINUOUS
10
0.679313
20
1.25335
11
0.681264
21
1.25388
0
LINE
8
BLACK
6
CONTINUOUS
10
0.681264
20
1.25388
11
0.683095
21
1.25302
0
LINE
8
BLACK
6
CONTINUOUS
10
0.647024
20
1.29276
11
0.665072
21
1.28073
0
LINE
8
BLACK
6
CONTINUOUS
10
0.665072
20
1.28073
11
0.683119
21
1.29276
0
LINE
8
BLACK
6
CONTINUOUS
10
0.683119
20
1.29276
11
0.684058
21
1.29317
0
LINE
8
BLACK
6
CONTINUOUS
10
0.684058
20
1.29317
11
0.686065
21
1.29295
0
LINE
8
BLACK
6
CONTINUOUS
10
0.686065
20
1.29295
11
0.687461
21
1.29149
0
LINE
8
BLACK
6
CONTINUOUS
10
0.687461
20
1.29149
11
0.687591
21
1.28948
0
LINE
8
BLACK
6
CONTINUOUS
10
0.687591
20
1.28948
11
0.686395
21
1.28785
0
LINE
8
BLACK
6
CONTINUOUS
10
0.686395
20
1.28785
11
0.670395
21
1.27718
0
LINE
8
BLACK
6
CONTINUOUS
10
0.670395
20
1.27718
11
0.686395
21
1.26652
0
LINE
8
BLACK
6
CONTINUOUS
10
0.686395
20
1.26652
11
0.687136
21
1.26581
0
LINE
8
BLACK
6
CONTINUOUS
10
0.687136
20
1.26581
11
0.687703
21
1.26387
0
LINE
8
BLACK
6
CONTINUOUS
10
0.687703
20
1.26387
11
0.686892
21
1.26202
0
LINE
8
BLACK
6
CONTINUOUS
10
0.686892
20
1.26202
11
0.685081
21
1.26112
0
LINE
8
BLACK
6
CONTINUOUS
10
0.685081
20
1.26112
11
0.683119
21
1.2616
0
LINE
8
BLACK
6
CONTINUOUS
10
0.683119
20
1.2616
11
0.665072
21
1.27363
0
LINE
8
BLACK
6
CONTINUOUS
10
0.665072
20
1.27363
11
0.647024
21
1.2616
0
LINE
8
BLACK
6
CONTINUOUS
10
0.647024
20
1.2616
11
0.646085
21
1.26119
0
LINE
8
BLACK
6
CONTINUOUS
10
0.646085
20
1.26119
11
0.644078
21
1.26141
0
LINE
8
BLACK
6
CONTINUOUS
10
0.644078
20
1.26141
11
0.642683
21
1.26287
0
LINE
8
BLACK
6
CONTINUOUS
10
0.642683
20
1.26287
11
0.642553
21
1.26489
0
LINE
8
BLACK
6
CONTINUOUS
10
0.642553
20
1.26489
11
0.643749
21
1.26652
0
LINE
8
BLACK
6
CONTINUOUS
10
0.643749
20
1.26652
11
0.659748
21
1.27718
0
LINE
8
BLACK
6
CONTINUOUS
10
0.659748
20
1.27718
11
0.643749
21
1.28785
0
LINE
8
BLACK
6
CONTINUOUS
10
0.643749
20
1.28785
11
0.643007
21
1.28856
0
LINE
8
BLACK
6
CONTINUOUS
10
0.643007
20
1.28856
11
0.64244
21
1.2905
0
LINE
8
BLACK
6
CONTINUOUS
10
0.64244
20
1.2905
11
0.643251
21
1.29235
0
LINE
8
BLACK
6
CONTINUOUS
10
0.643251
20
1.29235
11
0.645062
21
1.29324
0
LINE
8
BLACK
6
CONTINUOUS
10
0.645062
20
1.29324
11
0.647024
21
1.29276
0
LINE
8
BLACK
6
CONTINUOUS
10
0.414063
20
1.72481
11
0.427949
21
1.72245
0
LINE
8
BLACK
6
CONTINUOUS
10
0.427949
20
1.72245
11
0.441483
21
1.71855
0
LINE
8
BLACK
6
CONTINUOUS
10
0.441483
20
1.71855
11
0.454496
21
1.71316
0
LINE
8
BLACK
6
CONTINUOUS
10
0.454496
20
1.71316
11
0.466823
21
1.70635
0
LINE
8
BLACK
6
CONTINUOUS
10
0.466823
20
1.70635
11
0.47831
21
1.6982
0
LINE
8
BLACK
6
CONTINUOUS
10
0.47831
20
1.6982
11
0.488813
21
1.68881
0
LINE
8
BLACK
6
CONTINUOUS
10
0.488813
20
1.68881
11
0.498198
21
1.67831
0
LINE
8
BLACK
6
CONTINUOUS
10
0.498198
20
1.67831
11
0.506349
21
1.66682
0
LINE
8
BLACK
6
CONTINUOUS
10
0.506349
20
1.66682
11
0.513162
21
1.6545
0
LINE
8
BLACK
6
CONTINUOUS
10
0.513162
20
1.6545
11
0.518552
21
1.64148
0
LINE
8
BLACK
6
CONTINUOUS
10
0.518552
20
1.64148
11
0.522451
21
1.62795
0
LINE
8
BLACK
6
CONTINUOUS
10
0.522451
20
1.62795
11
0.52481
21
1.61406
0
LINE
8
BLACK
6
CONTINUOUS
10
0.52481
20
1.61406
11
0.5256
21
1.6
0
LINE
8
BLACK
6
CONTINUOUS
10
0.5256
20
1.6
11
0.52481
21
1.58594
0
LINE
8
BLACK
6
CONTINUOUS
10
0.52481
20
1.58594
11
0.522451
21
1.57205
0
LINE
8
BLACK
6
CONTINUOUS
10
0.522451
20
1.57205
11
0.518552
21
1.55852
0
LINE
8
BLACK
6
CONTINUOUS
10
0.518552
20
1.55852
11
0.513162
21
1.5455
0
LINE
8
BLACK
6
CONTINUOUS
10
0.513162
20
1.5455
11
0.506349
21
1.53318
0
LINE
8
BLACK
6
CONTINUOUS
10
0.506349
20
1.53318
11
0.498198
21
1.52169
0
LINE
8
BLACK
6
CONTINUOUS
10
0.498198
20
1.52169
11
0.488813
21
1.51119
0
LINE
8
BLACK
6
CONTINUOUS
10
0.488813
20
1.51119
11
0.47831
21
1.5018
0
LINE
8
BLACK
6
CONTINUOUS
10
0.47831
20
1.5018
11
0.466823
21
1.49365
0
LINE
8
BLACK
6
CONTINUOUS
10
0.466823
20
1.49365
11
0.454496
21
1.48684
0
LINE
8
BLACK
6
CONTINUOUS
10
0.454496
20
1.48684
11
0.441483
21
1.48145
0
LINE
8
BLACK
6
CONTINUOUS
10
0.441483
20
1.48145
11
0.427949
21
1.47755
0
LINE
8
BLACK
6
CONTINUOUS
10
0.427949
20
1.47755
11
0.414063
21
1.47519
0
LINE
8
BLACK
6
CONTINUOUS
10
0.414063
20
1.47519
11
0.4
21
1.4744
0
LINE
8
BLACK
6
CONTINUOUS
10
0.4
20
1.4744
11
0.385937
21
1.47519
0
LINE
8
BLACK
6
CONTINUOUS
10
0.385937
20
1.47519
11
0.372051
21
1.47755
0
LINE
8
BLACK
6
CONTINUOUS
10
0.372051
20
1.47755
11
0.358517
21
1.48145
0
LINE
8
BLACK
6
CONTINUOUS
10
0.358517
20
1.48145
11
0.345504
21
1.48684
0
LINE
8
BLACK
6
CONTINUOUS
10
0.345504
20
1.48684
11
0.333177
21
1.49365
0
LINE
8
BLACK
6
CONTINUOUS
10
0.333177
20
1.49365
11
0.32169
21
1.5018
0
LINE
8
BLACK
6
CONTINUOUS
10
0.32169
20
1.5018
11
0.311187
21
1.51119
0
LINE
8
BLACK
6
CONTINUOUS
10
0.311187
20
1.51119
11
0.301802
21
1.52169
0
LINE
8
BLACK
6
CONTINUOUS
10
0.301802
20
1.52169
11
0.293651
21
1.53318
0
LINE
8
BLACK
6
CONTINUOUS
10
0.293651
20
1.53318
11
0.286838
21
1.5455
0
LINE
8
BLACK
6
CONTINUOUS
10
0.286838
20
1.5455
11
0.281448
21
1.55852
0
LINE
8
BLACK
6
CONTINUOUS
10
0.281448
20
1.55852
11
0.277549
21
1.57205
0
LINE
8
BLACK
6
CONTINUOUS
10
0.277549
20
1.57205
11
0.27519
21
1.58594
0
LINE
8
BLACK
6
CONTINUOUS
10
0.27519
20
1.58594
11
0.2744
21
1.6
0
LINE
8
BLACK
6
CONTINUOUS
10
0.2744
20
1.6
11
0.27519
21
1.61406
0
LINE
8
BLACK
6
CONTINUOUS
10
0.27519
20
1.61406
11
0.277549
21
1.62795
0
LINE
8
BLACK
6
CONTINUOUS
10
0.277549
20
1.62795
11
0.281448
21
1.64148
0
LINE
8
BLACK
6
CONTINUOUS
10
0.281448
20
1.64148
11
0.286838
21
1.6545
0
LINE
8
BLACK
6
CONTINUOUS
10
0.286838
20
1.6545
11
0.293651
21
1.66682
0
LINE
8
BLACK
6
CONTINUOUS
10
0.293651
20
1.66682
11
0.301802
21
1.67831
0
LINE
8
BLACK
6
CONTINUOUS
10
0.301802
20
1.67831
11
0.311187
21
1.68881
0
LINE
8
BLACK
6
CONTINUOUS
10
0.311187
20
1.68881
11
0.32169
21
1.6982
0
LINE
8
BLACK
6
CONTINUOUS
10
0.32169
20
1.6982
11
0.333177
21
1.70635
0
LINE
8
BLACK
6
CONTINUOUS
10
0.333177
20
1.70635
11
0.345504
21
1.71316
0
LINE
8
BLACK
6
CONTINUOUS
10
0.345504
20
1.71316
11
0.358517
21
1.71855
0
LINE
8
BLACK
6
CONTINUOUS
10
0.358517
20
1.71855
11
0.372051
21
1.72245
0
LINE
8
BLACK
6
CONTINUOUS
10
0.372051
20
1.72245
11
0.385937
21
1.72481
0
LINE
8
BLACK
6
CONTINUOUS
10
0.385937
20
1.72481
11
0.4
21
1.7256
0
LINE
8
BLACK
6
CONTINUOUS
10
0.4
20
1.7256
11
0.414063
21
1.72481
0
LINE
8
BLACK
6
CONTINUOUS
10
0.289962
20
1.58714
11
0.292199
21
1.57445
0
LINE
8
BLACK
6
CONTINUOUS
10
0.292199
20
1.57445
11
0.295894
21
1.56211
0
LINE
8
BLACK
6
CONTINUOUS
10
0.295894
20
1.56211
11
0.300997
21
1.55028
0
LINE
8
BLACK
6
CONTINUOUS
10
0.300997
20
1.55028
11
0.307438
21
1.53912
0
LINE
8
BLACK
6
CONTINUOUS
10
0.307438
20
1.53912
11
0.315132
21
1.52879
0
LINE
8
BLACK
6
CONTINUOUS
10
0.315132
20
1.52879
11
0.323973
21
1.51942
0
LINE
8
BLACK
6
CONTINUOUS
10
0.323973
20
1.51942
11
0.333842
21
1.51113
0
LINE
8
BLACK
6
CONTINUOUS
10
0.333842
20
1.51113
11
0.344606
21
1.50406
0
LINE
8
BLACK
6
CONTINUOUS
10
0.344606
20
1.50406
11
0.356119
21
1.49827
0
LINE
8
BLACK
6
CONTINUOUS
10
0.356119
20
1.49827
11
0.368226
21
1.49387
0
LINE
8
BLACK
6
CONTINUOUS
10
0.368226
20
1.49387
11
0.380762
21
1.4909
0
LINE
8
BLACK
6
CONTINUOUS
10
0.380762
20
1.4909
11
0.393558
21
1.4894
0
LINE
8
BLACK
6
CONTINUOUS
10
0.393558
20
1.4894
11
0.406442
21
1.4894
0
LINE
8
BLACK
6
CONTINUOUS
10
0.406442
20
1.4894
11
0.419238
21
1.4909
0
LINE
8
BLACK
6
CONTINUOUS
10
0.419238
20
1.4909
11
0.431774
21
1.49387
0
LINE
8
BLACK
6
CONTINUOUS
10
0.431774
20
1.49387
11
0.443881
21
1.49827
0
LINE
8
BLACK
6
CONTINUOUS
10
0.443881
20
1.49827
11
0.455394
21
1.50406
0
LINE
8
BLACK
6
CONTINUOUS
10
0.455394
20
1.50406
11
0.466158
21
1.51113
0
LINE
8
BLACK
6
CONTINUOUS
10
0.466158
20
1.51113
11
0.476027
21
1.51942
0
LINE
8
BLACK
6
CONTINUOUS
10
0.476027
20
1.51942
11
0.484868
21
1.52879
0
LINE
8
BLACK
6
CONTINUOUS
10
0.484868
20
1.52879
11
0.492562
21
1.53912
0
LINE
8
BLACK
6
CONTINUOUS
10
0.492562
20
1.53912
11
0.499003
21
1.55028
0
LINE
8
BLACK
6
CONTINUOUS
10
0.499003
20
1.55028
11
0.504106
21
1.56211
0
LINE
8
BLACK
6
CONTINUOUS
10
0.504106
20
1.56211
11
0.507801
21
1.57445
0
LINE
8
BLACK
6
CONTINUOUS
10
0.507801
20
1.57445
11
0.510038
21
1.58714
0
LINE
8
BLACK
6
CONTINUOUS
10
0.510038
20
1.58714
11
0.510787
21
1.6
0
LINE
8
BLACK
6
CONTINUOUS
10
0.510787
20
1.6
11
0.510038
21
1.61286
0
LINE
8
BLACK
6
CONTINUOUS
10
0.510038
20
1.61286
11
0.507801
21
1.62555
0
LINE
8
BLACK
6
CONTINUOUS
10
0.507801
20
1.62555
11
0.504106
21
1.63789
0
LINE
8
BLACK
6
CONTINUOUS
10
0.504106
20
1.63789
11
0.499003
21
1.64972
0
LINE
8
BLACK
6
CONTINUOUS
10
0.499003
20
1.64972
11
0.492562
21
1.66088
0
LINE
8
BLACK
6
CONTINUOUS
10
0.492562
20
1.66088
11
0.484868
21
1.67121
0
LINE
8
BLACK
6
CONTINUOUS
10
0.484868
20
1.67121
11
0.476027
21
1.68058
0
LINE
8
BLACK
6
CONTINUOUS
10
0.476027
20
1.68058
11
0.466158
21
1.68887
0
LINE
8
BLACK
6
CONTINUOUS
10
0.466158
20
1.68887
11
0.455394
21
1.69594
0
LINE
8
BLACK
6
CONTINUOUS
10
0.455394
20
1.69594
11
0.443881
21
1.70173
0
LINE
8
BLACK
6
CONTINUOUS
10
0.443881
20
1.70173
11
0.431774
21
1.70613
0
LINE
8
BLACK
6
CONTINUOUS
10
0.431774
20
1.70613
11
0.419238
21
1.7091
0
LINE
8
BLACK
6
CONTINUOUS
10
0.419238
20
1.7091
11
0.406442
21
1.7106
0
LINE
8
BLACK
6
CONTINUOUS
10
0.406442
20
1.7106
11
0.393558
21
1.7106
0
LINE
8
BLACK
6
CONTINUOUS
10
0.393558
20
1.7106
11
0.380762
21
1.7091
0
LINE
8
BLACK
6
CONTINUOUS
10
0.380762
20
1.7091
11
0.368226
21
1.70613
0
LINE
8
BLACK
6
CONTINUOUS
10
0.368226
20
1.70613
11
0.356119
21
1.70173
0
LINE
8
BLACK
6
CONTINUOUS
10
0.356119
20
1.70173
11
0.344606
21
1.69594
0
LINE
8
BLACK
6
CONTINUOUS
10
0.344606
20
1.69594
11
0.333842
21
1.68887
0
LINE
8
BLACK
6
CONTINUOUS
10
0.333842
20
1.68887
11
0.323973
21
1.68058
0
LINE
8
BLACK
6
CONTINUOUS
10
0.323973
20
1.68058
11
0.315132
21
1.67121
0
LINE
8
BLACK
6
CONTINUOUS
10
0.315132
20
1.67121
11
0.307438
21
1.66088
0
LINE
8
BLACK
6
CONTINUOUS
10
0.307438
20
1.66088
11
0.300997
21
1.64972
0
LINE
8
BLACK
6
CONTINUOUS
10
0.300997
20
1.64972
11
0.295894
21
1.63789
0
LINE
8
BLACK
6
CONTINUOUS
10
0.295894
20
1.63789
11
0.292199
21
1.62555
0
LINE
8
BLACK
6
CONTINUOUS
10
0.292199
20
1.62555
11
0.289962
21
1.61286
0
LINE
8
BLACK
6
CONTINUOUS
10
0.289962
20
1.61286
11
0.289213
21
1.6
0
LINE
8
BLACK
6
CONTINUOUS
10
0.289213
20
1.6
11
0.289962
21
1.58714
0
LINE
8
BLACK
6
CONTINUOUS
10
2.41406
20
1.72481
11
2.42795
21
1.72245
0
LINE
8
BLACK
6
CONTINUOUS
10
2.42795
20
1.72245
11
2.44148
21
1.71855
0
LINE
8
BLACK
6
CONTINUOUS
10
2.44148
20
1.71855
11
2.4545
21
1.71316
0
LINE
8
BLACK
6
CONTINUOUS
10
2.4545
20
1.71316
11
2.46682
21
1.70635
0
LINE
8
BLACK
6
CONTINUOUS
10
2.46682
20
1.70635
11
2.47831
21
1.6982
0
LINE
8
BLACK
6
CONTINUOUS
10
2.47831
20
1.6982
11
2.48881
21
1.68881
0
LINE
8
BLACK
6
CONTINUOUS
10
2.48881
20
1.68881
11
2.4982
21
1.67831
0
LINE
8
BLACK
6
CONTINUOUS
10
2.4982
20
1.67831
11
2.50635
21
1.66682
0
LINE
8
BLACK
6
CONTINUOUS
10
2.50635
20
1.66682
11
2.51316
21
1.6545
0
LINE
8
BLACK
6
CONTINUOUS
10
2.51316
20
1.6545
11
2.51855
21
1.64148
0
LINE
8
BLACK
6
CONTINUOUS
10
2.51855
20
1.64148
11
2.52245
21
1.62795
0
LINE
8
BLACK
6
CONTINUOUS
10
2.52245
20
1.62795
11
2.52481
21
1.61406
0
LINE
8
BLACK
6
CONTINUOUS
10
2.52481
20
1.61406
11
2.5256
21
1.6
0
LINE
8
BLACK
6
CONTINUOUS
10
2.5256
20
1.6
11
2.52481
21
1.58594
0
LINE
8
BLACK
6
CONTINUOUS
10
2.52481
20
1.58594
11
2.52245
21
1.57205
0
LINE
8
BLACK
6
CONTINUOUS
10
2.52245
20
1.57205
11
2.51855
21
1.55852
0
LINE
8
BLACK
6
CONTINUOUS
10
2.51855
20
1.55852
11
2.51316
21
1.5455
0
LINE
8
BLACK
6
CONTINUOUS
10
2.51316
20
1.5455
11
2.50635
21
1.53318
0
LINE
8
BLACK
6
CONTINUOUS
10
2.50635
20
1.53318
11
2.4982
21
1.52169
0
LINE
8
BLACK
6
CONTINUOUS
10
2.4982
20
1.52169
11
2.48881
21
1.51119
0
LINE
8
BLACK
6
CONTINUOUS
10
2.48881
20
1.51119
11
2.47831
21
1.5018
0
LINE
8
BLACK
6
CONTINUOUS
10
2.47831
20
1.5018
11
2.46682
21
1.49365
0
LINE
8
BLACK
6
CONTINUOUS
10
2.46682
20
1.49365
11
2.4545
21
1.48684
0
LINE
8
BLACK
6
CONTINUOUS
10
2.4545
20
1.48684
11
2.44148
21
1.48145
0
LINE
8
BLACK
6
CONTINUOUS
10
2.44148
20
1.48145
11
2.42795
21
1.47755
0
LINE
8
BLACK
6
CONTINUOUS
10
2.42795
20
1.47755
11
2.41406
21
1.47519
0
LINE
8
BLACK
6
CONTINUOUS
10
2.41406
20
1.47519
11
2.4
21
1.4744
0
LINE
8
BLACK
6
CONTINUOUS
10
2.4
20
1.4744
11
2.38594
21
1.47519
0
LINE
8
BLACK
6
CONTINUOUS
10
2.38594
20
1.47519
11
2.37205
21
1.47755
0
LINE
8
BLACK
6
CONTINUOUS
10
2.37205
20
1.47755
11
2.35852
21
1.48145
0
LINE
8
BLACK
6
CONTINUOUS
10
2.35852
20
1.48145
11
2.3455
21
1.48684
0
LINE
8
BLACK
6
CONTINUOUS
10
2.3455
20
1.48684
11
2.33318
21
1.49365
0
LINE
8
BLACK
6
CONTINUOUS
10
2.33318
20
1.49365
11
2.32169
21
1.5018
0
LINE
8
BLACK
6
CONTINUOUS
10
2.32169
20
1.5018
11
2.31119
21
1.51119
0
LINE
8
BLACK
6
CONTINUOUS
10
2.31119
20
1.51119
11
2.3018
21
1.52169
0
LINE
8
BLACK
6
CONTINUOUS
10
2.3018
20
1.52169
11
2.29365
21
1.53318
0
LINE
8
BLACK
6
CONTINUOUS
10
2.29365
20
1.53318
11
2.28684
21
1.5455
0
LINE
8
BLACK
6
CONTINUOUS
10
2.28684
20
1.5455
11
2.28145
21
1.55852
0
LINE
8
BLACK
6
CONTINUOUS
10
2.28145
20
1.55852
11
2.27755
21
1.57205
0
LINE
8
BLACK
6
CONTINUOUS
10
2.27755
20
1.57205
11
2.27519
21
1.58594
0
LINE
8
BLACK
6
CONTINUOUS
10
2.27519
20
1.58594
11
2.2744
21
1.6
0
LINE
8
BLACK
6
CONTINUOUS
10
2.2744
20
1.6
11
2.27519
21
1.61406
0
LINE
8
BLACK
6
CONTINUOUS
10
2.27519
20
1.61406
11
2.27755
21
1.62795
0
LINE
8
BLACK
6
CONTINUOUS
10
2.27755
20
1.62795
11
2.28145
21
1.64148
0
LINE
8
BLACK
6
CONTINUOUS
10
2.28145
20
1.64148
11
2.28684
21
1.6545
0
LINE
8
BLACK
6
CONTINUOUS
10
2.28684
20
1.6545
11
2.29365
21
1.66682
0
LINE
8
BLACK
6
CONTINUOUS
10
2.29365
20
1.66682
11
2.3018
21
1.67831
0
LINE
8
BLACK
6
CONTINUOUS
10
2.3018
20
1.67831
11
2.31119
21
1.68881
0
LINE
8
BLACK
6
CONTINUOUS
10
2.31119
20
1.68881
11
2.32169
21
1.6982
0
LINE
8
BLACK
6
CONTINUOUS
10
2.32169
20
1.6982
11
2.33318
21
1.70635
0
LINE
8
BLACK
6
CONTINUOUS
10
2.33318
20
1.70635
11
2.3455
21
1.71316
0
LINE
8
BLACK
6
CONTINUOUS
10
2.3455
20
1.71316
11
2.35852
21
1.71855
0
LINE
8
BLACK
6
CONTINUOUS
10
2.35852
20
1.71855
11
2.37205
21
1.72245
0
LINE
8
BLACK
6
CONTINUOUS
10
2.37205
20
1.72245
11
2.38594
21
1.72481
0
LINE
8
BLACK
6
CONTINUOUS
10
2.38594
20
1.72481
11
2.4
21
1.7256
0
LINE
8
BLACK
6
CONTINUOUS
10
2.4
20
1.7256
11
2.41406
21
1.72481
0
LINE
8
BLACK
6
CONTINUOUS
10
2.28996
20
1.58714
11
2.2922
21
1.57445
0
LINE
8
BLACK
6
CONTINUOUS
10
2.2922
20
1.57445
11
2.29589
21
1.56211
0
LINE
8
BLACK
6
CONTINUOUS
10
2.29589
20
1.56211
11
2.301
21
1.55028
0
LINE
8
BLACK
6
CONTINUOUS
10
2.301
20
1.55028
11
2.30744
21
1.53912
0
LINE
8
BLACK
6
CONTINUOUS
10
2.30744
20
1.53912
11
2.31513
21
1.52879
0
LINE
8
BLACK
6
CONTINUOUS
10
2.31513
20
1.52879
11
2.32397
21
1.51942
0
LINE
8
BLACK
6
CONTINUOUS
10
2.32397
20
1.51942
11
2.33384
21
1.51113
0
LINE
8
BLACK
6
CONTINUOUS
10
2.33384
20
1.51113
11
2.34461
21
1.50406
0
LINE
8
BLACK
6
CONTINUOUS
10
2.34461
20
1.50406
11
2.35612
21
1.49827
0
LINE
8
BLACK
6
CONTINUOUS
10
2.35612
20
1.49827
11
2.36823
21
1.49387
0
LINE
8
BLACK
6
CONTINUOUS
10
2.36823
20
1.49387
11
2.38076
21
1.4909
0
LINE
8
BLACK
6
CONTINUOUS
10
2.38076
20
1.4909
11
2.39356
21
1.4894
0
LINE
8
BLACK
6
CONTINUOUS
10
2.39356
20
1.4894
11
2.40644
21
1.4894
0
LINE
8
BLACK
6
CONTINUOUS
10
2.40644
20
1.4894
11
2.41924
21
1.4909
0
LINE
8
BLACK
6
CONTINUOUS
10
2.41924
20
1.4909
11
2.43177
21
1.49387
0
LINE
8
BLACK
6
CONTINUOUS
10
2.43177
20
1.49387
11
2.44388
21
1.49827
0
LINE
8
BLACK
6
CONTINUOUS
10
2.44388
20
1.49827
11
2.45539
21
1.50406
0
LINE
8
BLACK
6
CONTINUOUS
10
2.45539
20
1.50406
11
2.46616
21
1.51113
0
LINE
8
BLACK
6
CONTINUOUS
10
2.46616
20
1.51113
11
2.47603
21
1.51942
0
LINE
8
BLACK
6
CONTINUOUS
10
2.47603
20
1.51942
11
2.48487
21
1.52879
0
LINE
8
BLACK
6
CONTINUOUS
10
2.48487
20
1.52879
11
2.49256
21
1.53912
0
LINE
8
BLACK
6
CONTINUOUS
10
2.49256
20
1.53912
11
2.499
21
1.55028
0
LINE
8
BLACK
6
CONTINUOUS
10
2.499
20
1.55028
11
2.50411
21
1.56211
0
LINE
8
BLACK
6
CONTINUOUS
10
2.50411
20
1.56211
11
2.5078
21
1.57445
0
LINE
8
BLACK
6
CONTINUOUS
10
2.5078
20
1.57445
11
2.51004
21
1.58714
0
LINE
8
BLACK
6
CONTINUOUS
10
2.51004
20
1.58714
11
2.51079
21
1.6
0
LINE
8
BLACK
6
CONTINUOUS
10
2.51079
20
1.6
11
2.51004
21
1.61286
0
LINE
8
BLACK
6
CONTINUOUS
10
2.51004
20
1.61286
11
2.5078
21
1.62555
0
LINE
8
BLACK
6
CONTINUOUS
10
2.5078
20
1.62555
11
2.50411
21
1.63789
0
LINE
8
BLACK
6
CONTINUOUS
10
2.50411
20
1.63789
11
2.499
21
1.64972
0
LINE
8
BLACK
6
CONTINUOUS
10
2.499
20
1.64972
11
2.49256
21
1.66088
0
LINE
8
BLACK
6
CONTINUOUS
10
2.49256
20
1.66088
11
2.48487
21
1.67121
0
LINE
8
BLACK
6
CONTINUOUS
10
2.48487
20
1.67121
11
2.47603
21
1.68058
0
LINE
8
BLACK
6
CONTINUOUS
10
2.47603
20
1.68058
11
2.46616
21
1.68887
0
LINE
8
BLACK
6
CONTINUOUS
10
2.46616
20
1.68887
11
2.45539
21
1.69594
0
LINE
8
BLACK
6
CONTINUOUS
10
2.45539
20
1.69594
11
2.44388
21
1.70173
0
LINE
8
BLACK
6
CONTINUOUS
10
2.44388
20
1.70173
11
2.43177
21
1.70613
0
LINE
8
BLACK
6
CONTINUOUS
10
2.43177
20
1.70613
11
2.41924
21
1.7091
0
LINE
8
BLACK
6
CONTINUOUS
10
2.41924
20
1.7091
11
2.40644
21
1.7106
0
LINE
8
BLACK
6
CONTINUOUS
10
2.40644
20
1.7106
11
2.39356
21
1.7106
0
LINE
8
BLACK
6
CONTINUOUS
10
2.39356
20
1.7106
11
2.38076
21
1.7091
0
LINE
8
BLACK
6
CONTINUOUS
10
2.38076
20
1.7091
11
2.36823
21
1.70613
0
LINE
8
BLACK
6
CONTINUOUS
10
2.36823
20
1.70613
11
2.35612
21
1.70173
0
LINE
8
BLACK
6
CONTINUOUS
10
2.35612
20
1.70173
11
2.34461
21
1.69594
0
LINE
8
BLACK
6
CONTINUOUS
10
2.34461
20
1.69594
11
2.33384
21
1.68887
0
LINE
8
BLACK
6
CONTINUOUS
10
2.33384
20
1.68887
11
2.32397
21
1.68058
0
LINE
8
BLACK
6
CONTINUOUS
10
2.32397
20
1.68058
11
2.31513
21
1.67121
0
LINE
8
BLACK
6
CONTINUOUS
10
2.31513
20
1.67121
11
2.30744
21
1.66088
0
LINE
8
BLACK
6
CONTINUOUS
10
2.30744
20
1.66088
11
2.301
21
1.64972
0
LINE
8
BLACK
6
CONTINUOUS
10
2.301
20
1.64972
11
2.29589
21
1.63789
0
LINE
8
BLACK
6
CONTINUOUS
10
2.29589
20
1.63789
11
2.2922
21
1.62555
0
LINE
8
BLACK
6
CONTINUOUS
10
2.2922
20
1.62555
11
2.28996
21
1.61286
0
LINE
8
BLACK
6
CONTINUOUS
10
2.28996
20
1.61286
11
2.28921
21
1.6
0
LINE
8
BLACK
6
CONTINUOUS
10
2.28921
20
1.6
11
2.28996
21
1.58714
  0
ENDSEC
  0
EOF
