<?xml version='1.0' encoding='ASCII' standalone='yes'?>
<svg xmlns:svg="http://www.w3.org/2000/svg" xmlns="http://www.w3.org/2000/svg" xmlns:xlink="http://www.w3.org/1999/xlink" version="1.1" width="297.0022mm" height="210.0072mm" viewBox="0.0000 0.0000 297.0022 210.0072">
<title>SVG Image created as PCRD07-F_Fab.svg date 2023/10/04 14:05:09 </title>
  <desc>Image generated by PCBNEW </desc>
<g style="fill:#848484; fill-opacity:1.0000;stroke:#848484; stroke-opacity:1.0000; stroke-linecap:round; stroke-linejoin:round;" transform="translate(0 0) scale(1 1)">
</g>
<g style="fill:#848484; fill-opacity:0.0;  stroke:#848484; stroke-width:0.0000; stroke-opacity:1;  stroke-linecap:round; stroke-linejoin:round;">
</g>
<g style="fill:#848484; fill-opacity:0.0;  stroke:#848484; stroke-width:0.7351; stroke-opacity:1;  stroke-linecap:round; stroke-linejoin:round;">
<g transform="rotate(-90.000000 57.2379 75.7506)">
<text x="57.2379" y="78.2010" textLength="16.3944" font-size="6.5344" lengthAdjust="spacingAndGlyphs" text-anchor="middle" opacity="0.01" style="font-family:monospace">MCX</text>
</g>
<g class="stroked-text"><desc>MCX</desc>
<path d="M59.4669 82.1683 L54.5660 82.1683 "/>
<path d="M54.5660 82.1683 L58.0666 80.5347 "/>
<path d="M58.0666 80.5347 L54.5660 78.9011 "/>
<path d="M54.5660 78.9011 L59.4669 78.9011 "/>
<path d="M59.0001 73.7669 L59.2335 74.0003 "/>
<path d="M59.2335 74.0003 L59.4669 74.7004 "/>
<path d="M59.4669 74.7004 L59.4669 75.1671 "/>
<path d="M59.4669 75.1671 L59.2335 75.8672 "/>
<path d="M59.2335 75.8672 L58.7667 76.3340 "/>
<path d="M58.7667 76.3340 L58.3000 76.5674 "/>
<path d="M58.3000 76.5674 L57.3665 76.8007 "/>
<path d="M57.3665 76.8007 L56.6664 76.8007 "/>
<path d="M56.6664 76.8007 L55.7329 76.5674 "/>
<path d="M55.7329 76.5674 L55.2662 76.3340 "/>
<path d="M55.2662 76.3340 L54.7994 75.8672 "/>
<path d="M54.7994 75.8672 L54.5660 75.1671 "/>
<path d="M54.5660 75.1671 L54.5660 74.7004 "/>
<path d="M54.5660 74.7004 L54.7994 74.0003 "/>
<path d="M54.7994 74.0003 L55.0328 73.7669 "/>
<path d="M54.5660 72.1333 L59.4669 68.8661 "/>
<path d="M54.5660 68.8661 L59.4669 72.1333 "/>
</g><g transform="rotate(-90.000000 32.7337 75.7506)">
<text x="32.7337" y="78.2010" textLength="9.6266" font-size="6.5344" lengthAdjust="spacingAndGlyphs" text-anchor="middle" opacity="0.01" style="font-family:monospace">J8</text>
</g>
<g class="stroked-text"><desc>J8</desc>
<path d="M30.0619 77.3842 L33.5625 77.3842 "/>
<path d="M33.5625 77.3842 L34.2626 77.6175 "/>
<path d="M34.2626 77.6175 L34.7293 78.0843 "/>
<path d="M34.7293 78.0843 L34.9627 78.7844 "/>
<path d="M34.9627 78.7844 L34.9627 79.2511 "/>
<path d="M32.1622 74.3503 L31.9289 74.8171 "/>
<path d="M31.9289 74.8171 L31.6955 75.0504 "/>
<path d="M31.6955 75.0504 L31.2288 75.2838 "/>
<path d="M31.2288 75.2838 L30.9954 75.2838 "/>
<path d="M30.9954 75.2838 L30.5286 75.0504 "/>
<path d="M30.5286 75.0504 L30.2953 74.8171 "/>
<path d="M30.2953 74.8171 L30.0619 74.3503 "/>
<path d="M30.0619 74.3503 L30.0619 73.4168 "/>
<path d="M30.0619 73.4168 L30.2953 72.9501 "/>
<path d="M30.2953 72.9501 L30.5286 72.7167 "/>
<path d="M30.5286 72.7167 L30.9954 72.4833 "/>
<path d="M30.9954 72.4833 L31.2288 72.4833 "/>
<path d="M31.2288 72.4833 L31.6955 72.7167 "/>
<path d="M31.6955 72.7167 L31.9289 72.9501 "/>
<path d="M31.9289 72.9501 L32.1622 73.4168 "/>
<path d="M32.1622 73.4168 L32.1622 74.3503 "/>
<path d="M32.1622 74.3503 L32.3956 74.8171 "/>
<path d="M32.3956 74.8171 L32.6290 75.0504 "/>
<path d="M32.6290 75.0504 L33.0957 75.2838 "/>
<path d="M33.0957 75.2838 L34.0292 75.2838 "/>
<path d="M34.0292 75.2838 L34.4960 75.0504 "/>
<path d="M34.4960 75.0504 L34.7293 74.8171 "/>
<path d="M34.7293 74.8171 L34.9627 74.3503 "/>
<path d="M34.9627 74.3503 L34.9627 73.4168 "/>
<path d="M34.9627 73.4168 L34.7293 72.9501 "/>
<path d="M34.7293 72.9501 L34.4960 72.7167 "/>
<path d="M34.4960 72.7167 L34.0292 72.4833 "/>
<path d="M34.0292 72.4833 L33.0957 72.4833 "/>
<path d="M33.0957 72.4833 L32.6290 72.7167 "/>
<path d="M32.6290 72.7167 L32.3956 72.9501 "/>
<path d="M32.3956 72.9501 L32.1622 73.4168 "/>
</g></g>
<g style="fill:#848484; fill-opacity:0.0;  stroke:#848484; stroke-width:1.8672; stroke-opacity:1;  stroke-linecap:round; stroke-linejoin:round;">
<circle cx="24.0201" cy="30.3150" r="14.7012"/> 
<circle cx="272.9821" cy="30.3150" r="14.7012"/> 
<circle cx="24.0201" cy="179.6922" r="14.7012"/> 
<circle cx="272.9821" cy="179.6922" r="14.7012"/> 
</g>
<g style="fill:#848484; fill-opacity:0.0;  stroke:#848484; stroke-width:0.4901; stroke-opacity:1;  stroke-linecap:round; stroke-linejoin:round;">
<path d="M17.1736 91.3107 L48.2939 91.3107 "/>
<path d="M17.1736 91.3107 L17.1736 60.1904 "/>
<path d="M48.2939 91.3107 L48.2939 60.1904 "/>
<path d="M17.1736 60.1904 L48.2939 60.1904 "/>
<circle cx="32.7337" cy="75.7506" r="15.5601"/> 
</g>
<g style="fill:#848484; fill-opacity:0.0;  stroke:#848484; stroke-width:0.7351; stroke-opacity:1;  stroke-linecap:round; stroke-linejoin:round;">
<path d="M288.5423 151.0616 L263.6461 151.0616 "/>
<path d="M288.5423 113.7173 L288.5423 151.0616 "/>
<path d="M263.6461 151.0616 L263.6461 113.7173 "/>
<path d="M263.6461 113.7173 L288.5423 113.7173 "/>
<path d="M91.2398 169.7337 L91.2398 144.8375 "/>
<path d="M103.6879 169.7337 L91.2398 169.7337 "/>
<path d="M91.2398 144.8375 L103.6879 144.8375 "/>
<path d="M103.6879 144.8375 L103.6879 169.7337 "/>
<path d="M78.7917 169.7337 L78.7917 144.8375 "/>
<path d="M91.2398 169.7337 L78.7917 169.7337 "/>
<path d="M78.7917 144.8375 L91.2398 144.8375 "/>
<path d="M91.2398 144.8375 L91.2398 169.7337 "/>
<path d="M160.9492 90.0659 L160.9492 65.1697 "/>
<path d="M173.3973 90.0659 L160.9492 90.0659 "/>
<path d="M160.9492 65.1697 L173.3973 65.1697 "/>
<path d="M173.3973 65.1697 L173.3973 90.0659 "/>
<path d="M148.5011 90.0659 L148.5011 65.1697 "/>
<path d="M160.9492 90.0659 L148.5011 90.0659 "/>
<path d="M148.5011 65.1697 L160.9492 65.1697 "/>
<path d="M160.9492 65.1697 L160.9492 90.0659 "/>
<path d="M264.2685 78.8626 L239.3723 78.8626 "/>
<path d="M264.2685 66.4145 L264.2685 78.8626 "/>
<path d="M239.3723 78.8626 L239.3723 66.4145 "/>
<path d="M239.3723 66.4145 L264.2685 66.4145 "/>
<path d="M264.2685 103.7588 L239.3723 103.7588 "/>
<path d="M264.2685 91.3107 L264.2685 103.7588 "/>
<path d="M239.3723 103.7588 L239.3723 91.3107 "/>
<path d="M239.3723 91.3107 L264.2685 91.3107 "/>
<path d="M264.2685 66.4145 L239.3723 66.4145 "/>
<path d="M264.2685 53.9664 L264.2685 66.4145 "/>
<path d="M239.3723 66.4145 L239.3723 53.9664 "/>
<path d="M239.3723 53.9664 L264.2685 53.9664 "/>
<path d="M264.2685 91.3107 L239.3723 91.3107 "/>
<path d="M264.2685 78.8626 L264.2685 91.3107 "/>
<path d="M239.3723 91.3107 L239.3723 78.8626 "/>
<path d="M239.3723 78.8626 L264.2685 78.8626 "/>
<path d="M206.3848 94.4227 L181.4886 94.4227 "/>
<path d="M206.3848 81.9746 L206.3848 94.4227 "/>
<path d="M181.4886 94.4227 L181.4886 81.9746 "/>
<path d="M181.4886 81.9746 L206.3848 81.9746 "/>
<path d="M12.8168 121.1861 L37.7130 121.1861 "/>
<path d="M12.8168 158.5304 L12.8168 121.1861 "/>
<path d="M37.7130 121.1861 L37.7130 158.5304 "/>
<path d="M37.7130 158.5304 L12.8168 158.5304 "/>
<path d="M51.4059 128.6550 L51.4059 103.7588 "/>
<path d="M63.8540 128.6550 L51.4059 128.6550 "/>
<path d="M51.4059 103.7588 L63.8540 103.7588 "/>
<path d="M63.8540 103.7588 L63.8540 128.6550 "/>
<g>
</g>
<g>
</g>
<g>
</g>
<g>
</g>
<g>
</g>
<g>
</g>
<g>
</g>
<g>
</g>
<g>
</g>
<g>
</g>
<g>
</g>
<g>
</g>
<g>
</g>
<g>
</g>
<g>
</g>
<g>
</g>
<g>
</g>
<g>
</g>
<g>
</g>
<g>
</g>
<g>
</g>
<g>
</g>
<g>
</g>
<g>
</g>
<g>
</g>
<g>
</g>
<g>
</g>
<g>
</g>
<g>
</g>
<g>
</g>
<g>
</g>
<g>
</g>
<g>
</g>
<g>
</g>
<g>
</g>
<g>
</g>
<g>
</g>
<g>
</g>
<g>
</g>
<g>
</g>
<g>
</g>
<g>
</g>
<g>
</g>
<g>
</g>
<g>
</g>
<g>
</g>
<g>
</g>
<g>
</g>
<g>
</g>
<g>
</g>
<g>
</g>
<g>
</g>
<g>
</g>
<g>
</g>
<g>
</g>
<g>
</g>
<g>
</g>
<g>
</g>
<g>
</g>
<g>
</g>
<g>
</g>
<g>
</g>
<g>
</g>
<g>
</g>
<g>
</g>
<g>
</g>
<g>
</g>
<g>
</g>
<g>
</g>
<g>
</g>
</g> 
<svg:g><svg:g><svg:title>SVG Image created as PCRD07-Edge_Cuts.svg date 2023/10/04 14:05:09 </svg:title>
  <svg:desc>Image generated by PCBNEW </svg:desc>
<svg:g style="fill:#C2C200; fill-opacity:1.0000;stroke:#C2C200; stroke-opacity:1.0000; stroke-linecap:round; stroke-linejoin:round;" transform="translate(0 0) scale(1 1)">
</svg:g>
<svg:g style="fill:#C2C200; fill-opacity:0.0;  stroke:#C2C200; stroke-width:0.0000; stroke-opacity:1;  stroke-linecap:round; stroke-linejoin:round;">
</svg:g>
<svg:g style="fill:#C2C200; fill-opacity:0.0;  stroke:#C2C200; stroke-width:0.7351; stroke-opacity:1;  stroke-linecap:round; stroke-linejoin:round;">
<svg:path style="fill:#C2C200; fill-opacity:0.0;  stroke:#C2C200; stroke-width:0.7351; stroke-opacity:1;  stroke-linecap:round; stroke-linejoin:round;fill:none" d="M 0.3687,6.6636 296.6335,6.6636 296.6335,203.3436 0.3687,203.3436 Z"/> 
<svg:g>
</svg:g>
<svg:g>
</svg:g>
<svg:g>
</svg:g>
<svg:g>
</svg:g>
<svg:g>
</svg:g>
<svg:g>
</svg:g>
<svg:g>
</svg:g>
<svg:g>
</svg:g>
<svg:g>
</svg:g>
<svg:g>
</svg:g>
<svg:g>
</svg:g>
<svg:g>
</svg:g>
<svg:g>
</svg:g>
<svg:g>
</svg:g>
<svg:g>
</svg:g>
<svg:g>
</svg:g>
<svg:g>
</svg:g>
<svg:g>
</svg:g>
<svg:g>
</svg:g>
<svg:g>
</svg:g>
<svg:g>
</svg:g>
<svg:g>
</svg:g>
<svg:g>
</svg:g>
<svg:g>
</svg:g>
<svg:g>
</svg:g>
<svg:g>
</svg:g>
<svg:g>
</svg:g>
<svg:g>
</svg:g>
<svg:g>
</svg:g>
<svg:g>
</svg:g>
<svg:g>
</svg:g>
<svg:g>
</svg:g>
<svg:g>
</svg:g>
<svg:g>
</svg:g>
<svg:g>
</svg:g>
<svg:g>
</svg:g>
<svg:g>
</svg:g>
<svg:g>
</svg:g>
<svg:g>
</svg:g>
<svg:g>
</svg:g>
<svg:g>
</svg:g>
<svg:g>
</svg:g>
<svg:g>
</svg:g>
<svg:g>
</svg:g>
<svg:g>
</svg:g>
<svg:g>
</svg:g>
<svg:g>
</svg:g>
<svg:g>
</svg:g>
<svg:g>
</svg:g>
<svg:g>
</svg:g>
<svg:g>
</svg:g>
<svg:g>
</svg:g>
<svg:g>
</svg:g>
<svg:g>
</svg:g>
<svg:g>
</svg:g>
<svg:g>
</svg:g>
<svg:g>
</svg:g>
<svg:g>
</svg:g>
<svg:g>
</svg:g>
<svg:g>
</svg:g>
<svg:g>
</svg:g>
<svg:g>
</svg:g>
<svg:g>
</svg:g>
<svg:g>
</svg:g>
<svg:g>
</svg:g>
<svg:g>
</svg:g>
<svg:g>
</svg:g>
<svg:g>
</svg:g>
<svg:g>
</svg:g>
<svg:g>
</svg:g>
</svg:g> 
</svg:g></svg:g></svg>
