<?xml version='1.0' encoding='ASCII' standalone='yes'?>
<svg xmlns:svg="http://www.w3.org/2000/svg" xmlns="http://www.w3.org/2000/svg" xmlns:xlink="http://www.w3.org/1999/xlink" version="1.1" width="297.0022mm" height="210.0072mm" viewBox="0.0000 0.0000 297.0022 210.0072">
<title>SVG Image created as PCRD07-B_Fab.svg date 2023/09/10 08:56:35 </title>
  <desc>Image generated by PCBNEW </desc>
<g style="fill:#000084; fill-opacity:1.0000;stroke:#000084; stroke-opacity:1.0000; stroke-linecap:round; stroke-linejoin:round;" transform="translate(0 0) scale(1 1)">
</g>
<g style="fill:#000084; fill-opacity:0.0;  stroke:#000084; stroke-width:0.0000; stroke-opacity:1;  stroke-linecap:round; stroke-linejoin:round;">
</g>
<g style="fill:#000084; fill-opacity:0.01;  stroke:#000084; stroke-width:0.5687; stroke-opacity:1;  stroke-linecap:round; stroke-linejoin:round;">
<text x="199.0876" y="96.7180" transform="scale(-1 1) translate(-398.175214 0)" textLength="6.2717" font-size="3.4738" lengthAdjust="spacingAndGlyphs" text-anchor="middle" opacity="0.01" style="font-family:monospace">C2</text>
<g class="stroked-text"><desc>C2</desc>
<path d="M198.6534 96.3429 L198.5293 96.4670 "/>
<path d="M198.5293 96.4670 L198.1571 96.5910 "/>
<path d="M198.1571 96.5910 L197.9090 96.5910 "/>
<path d="M197.9090 96.5910 L197.5368 96.4670 "/>
<path d="M197.5368 96.4670 L197.2887 96.2188 "/>
<path d="M197.2887 96.2188 L197.1646 95.9707 "/>
<path d="M197.1646 95.9707 L197.0405 95.4744 "/>
<path d="M197.0405 95.4744 L197.0405 95.1022 "/>
<path d="M197.0405 95.1022 L197.1646 94.6060 "/>
<path d="M197.1646 94.6060 L197.2887 94.3579 "/>
<path d="M197.2887 94.3579 L197.5368 94.1097 "/>
<path d="M197.5368 94.1097 L197.9090 93.9857 "/>
<path d="M197.9090 93.9857 L198.1571 93.9857 "/>
<path d="M198.1571 93.9857 L198.5293 94.1097 "/>
<path d="M198.5293 94.1097 L198.6534 94.2338 "/>
<path d="M199.6459 94.2338 L199.7700 94.1097 "/>
<path d="M199.7700 94.1097 L200.0181 93.9857 "/>
<path d="M200.0181 93.9857 L200.6384 93.9857 "/>
<path d="M200.6384 93.9857 L200.8866 94.1097 "/>
<path d="M200.8866 94.1097 L201.0106 94.2338 "/>
<path d="M201.0106 94.2338 L201.1347 94.4819 "/>
<path d="M201.1347 94.4819 L201.1347 94.7301 "/>
<path d="M201.1347 94.7301 L201.0106 95.1022 "/>
<path d="M201.0106 95.1022 L199.5218 96.5910 "/>
<path d="M199.5218 96.5910 L201.1347 96.5910 "/>
</g><text x="199.7489" y="100.3549" transform="scale(-1 1) translate(-399.497737 0)" textLength="13.2193" font-size="3.4738" lengthAdjust="spacingAndGlyphs" text-anchor="middle" opacity="0.01" style="font-family:monospace">220pF</text>
<g class="stroked-text"><desc>220pF</desc>
<path d="M194.2280 97.8707 L194.3520 97.7467 "/>
<path d="M194.3520 97.7467 L194.6002 97.6226 "/>
<path d="M194.6002 97.6226 L195.2205 97.6226 "/>
<path d="M195.2205 97.6226 L195.4686 97.7467 "/>
<path d="M195.4686 97.7467 L195.5927 97.8707 "/>
<path d="M195.5927 97.8707 L195.7168 98.1189 "/>
<path d="M195.7168 98.1189 L195.7168 98.3670 "/>
<path d="M195.7168 98.3670 L195.5927 98.7392 "/>
<path d="M195.5927 98.7392 L194.1039 100.2280 "/>
<path d="M194.1039 100.2280 L195.7168 100.2280 "/>
<path d="M196.7093 97.8707 L196.8333 97.7467 "/>
<path d="M196.8333 97.7467 L197.0815 97.6226 "/>
<path d="M197.0815 97.6226 L197.7018 97.6226 "/>
<path d="M197.7018 97.6226 L197.9499 97.7467 "/>
<path d="M197.9499 97.7467 L198.0740 97.8707 "/>
<path d="M198.0740 97.8707 L198.1981 98.1189 "/>
<path d="M198.1981 98.1189 L198.1981 98.3670 "/>
<path d="M198.1981 98.3670 L198.0740 98.7392 "/>
<path d="M198.0740 98.7392 L196.5852 100.2280 "/>
<path d="M196.5852 100.2280 L198.1981 100.2280 "/>
<path d="M199.8109 97.6226 L200.0590 97.6226 "/>
<path d="M200.0590 97.6226 L200.3072 97.7467 "/>
<path d="M200.3072 97.7467 L200.4312 97.8707 "/>
<path d="M200.4312 97.8707 L200.5553 98.1189 "/>
<path d="M200.5553 98.1189 L200.6794 98.6151 "/>
<path d="M200.6794 98.6151 L200.6794 99.2354 "/>
<path d="M200.6794 99.2354 L200.5553 99.7317 "/>
<path d="M200.5553 99.7317 L200.4312 99.9798 "/>
<path d="M200.4312 99.9798 L200.3072 100.1039 "/>
<path d="M200.3072 100.1039 L200.0590 100.2280 "/>
<path d="M200.0590 100.2280 L199.8109 100.2280 "/>
<path d="M199.8109 100.2280 L199.5628 100.1039 "/>
<path d="M199.5628 100.1039 L199.4387 99.9798 "/>
<path d="M199.4387 99.9798 L199.3146 99.7317 "/>
<path d="M199.3146 99.7317 L199.1906 99.2354 "/>
<path d="M199.1906 99.2354 L199.1906 98.6151 "/>
<path d="M199.1906 98.6151 L199.3146 98.1189 "/>
<path d="M199.3146 98.1189 L199.4387 97.8707 "/>
<path d="M199.4387 97.8707 L199.5628 97.7467 "/>
<path d="M199.5628 97.7467 L199.8109 97.6226 "/>
<path d="M201.7959 98.4911 L201.7959 101.0964 "/>
<path d="M201.7959 98.6151 L202.0441 98.4911 "/>
<path d="M202.0441 98.4911 L202.5403 98.4911 "/>
<path d="M202.5403 98.4911 L202.7885 98.6151 "/>
<path d="M202.7885 98.6151 L202.9125 98.7392 "/>
<path d="M202.9125 98.7392 L203.0366 98.9873 "/>
<path d="M203.0366 98.9873 L203.0366 99.7317 "/>
<path d="M203.0366 99.7317 L202.9125 99.9798 "/>
<path d="M202.9125 99.9798 L202.7885 100.1039 "/>
<path d="M202.7885 100.1039 L202.5403 100.2280 "/>
<path d="M202.5403 100.2280 L202.0441 100.2280 "/>
<path d="M202.0441 100.2280 L201.7959 100.1039 "/>
<path d="M205.0216 98.8632 L204.1532 98.8632 "/>
<path d="M204.1532 100.2280 L204.1532 97.6226 "/>
<path d="M204.1532 97.6226 L205.3938 97.6226 "/>
</g></g>
<g style="fill:#000084; fill-opacity:0.01;  stroke:#000084; stroke-width:0.3905; stroke-opacity:1;  stroke-linecap:round; stroke-linejoin:round;">
<text x="148.8447" y="46.4377" transform="scale(-1 1) translate(-297.689495 0)" textLength="5.8576" font-size="3.4712" lengthAdjust="spacingAndGlyphs" text-anchor="middle" opacity="0.01" style="font-family:monospace">U2</text>
<g class="stroked-text"><desc>U2</desc>
<path d="M146.8612 43.7167 L146.8612 45.8242 "/>
<path d="M146.8612 45.8242 L146.9852 46.0721 "/>
<path d="M146.9852 46.0721 L147.1092 46.1961 "/>
<path d="M147.1092 46.1961 L147.3571 46.3201 "/>
<path d="M147.3571 46.3201 L147.8530 46.3201 "/>
<path d="M147.8530 46.3201 L148.1009 46.1961 "/>
<path d="M148.1009 46.1961 L148.2249 46.0721 "/>
<path d="M148.2249 46.0721 L148.3489 45.8242 "/>
<path d="M148.3489 45.8242 L148.3489 43.7167 "/>
<path d="M149.4646 43.9646 L149.5886 43.8407 "/>
<path d="M149.5886 43.8407 L149.8365 43.7167 "/>
<path d="M149.8365 43.7167 L150.4564 43.7167 "/>
<path d="M150.4564 43.7167 L150.7043 43.8407 "/>
<path d="M150.7043 43.8407 L150.8283 43.9646 "/>
<path d="M150.8283 43.9646 L150.9523 44.2126 "/>
<path d="M150.9523 44.2126 L150.9523 44.4605 "/>
<path d="M150.9523 44.4605 L150.8283 44.8324 "/>
<path d="M150.8283 44.8324 L149.3406 46.3201 "/>
<path d="M149.3406 46.3201 L150.9523 46.3201 "/>
</g></g>
<g style="fill:#000084; fill-opacity:0.01;  stroke:#000084; stroke-width:1.5620; stroke-opacity:1;  stroke-linecap:round; stroke-linejoin:round;">
<text x="180.6913" y="172.4523" transform="scale(-1 1) translate(-361.382622 0)" textLength="18.5915" font-size="10.5802" lengthAdjust="spacingAndGlyphs" text-anchor="middle" opacity="0.01" style="font-family:monospace">C1</text>
<g class="stroked-text"><desc>C1</desc>
<path d="M179.3688 171.3187 L178.9909 171.6966 "/>
<path d="M178.9909 171.6966 L177.8573 172.0744 "/>
<path d="M177.8573 172.0744 L177.1016 172.0744 "/>
<path d="M177.1016 172.0744 L175.9680 171.6966 "/>
<path d="M175.9680 171.6966 L175.2123 170.9408 "/>
<path d="M175.2123 170.9408 L174.8344 170.1851 "/>
<path d="M174.8344 170.1851 L174.4566 168.6737 "/>
<path d="M174.4566 168.6737 L174.4566 167.5401 "/>
<path d="M174.4566 167.5401 L174.8344 166.0286 "/>
<path d="M174.8344 166.0286 L175.2123 165.2729 "/>
<path d="M175.2123 165.2729 L175.9680 164.5172 "/>
<path d="M175.9680 164.5172 L177.1016 164.1393 "/>
<path d="M177.1016 164.1393 L177.8573 164.1393 "/>
<path d="M177.8573 164.1393 L178.9909 164.5172 "/>
<path d="M178.9909 164.5172 L179.3688 164.8950 "/>
<path d="M186.9261 172.0744 L182.3917 172.0744 "/>
<path d="M184.6589 172.0744 L184.6589 164.1393 "/>
<path d="M184.6589 164.1393 L183.9032 165.2729 "/>
<path d="M183.9032 165.2729 L183.1474 166.0286 "/>
<path d="M183.1474 166.0286 L182.3917 166.4065 "/>
</g></g>
<g style="fill:#000084; fill-opacity:0.01;  stroke:#000084; stroke-width:0.7810; stroke-opacity:1;  stroke-linecap:round; stroke-linejoin:round;">
<text x="160.4767" y="156.8632" transform="scale(-1 1) translate(-320.953405 0)" textLength="10.4508" font-size="10.4136" lengthAdjust="spacingAndGlyphs" text-anchor="middle" opacity="0.01" style="font-family:monospace">+</text>
<g class="stroked-text"><desc>+</desc>
<path d="M157.5014 153.5553 L163.4520 153.5553 "/>
<path d="M160.4767 156.5306 L160.4767 150.5800 "/>
</g></g>
<g style="fill:#000084; fill-opacity:0.01;  stroke:#000084; stroke-width:0.5687; stroke-opacity:1;  stroke-linecap:round; stroke-linejoin:round;">
<text x="119.7362" y="134.4099" transform="scale(-1 1) translate(-239.472447 0)" textLength="6.2717" font-size="3.4738" lengthAdjust="spacingAndGlyphs" text-anchor="middle" opacity="0.01" style="font-family:monospace">C4</text>
<g class="stroked-text"><desc>C4</desc>
<path d="M119.3020 134.0348 L119.1779 134.1589 "/>
<path d="M119.1779 134.1589 L118.8057 134.2829 "/>
<path d="M118.8057 134.2829 L118.5576 134.2829 "/>
<path d="M118.5576 134.2829 L118.1854 134.1589 "/>
<path d="M118.1854 134.1589 L117.9373 133.9107 "/>
<path d="M117.9373 133.9107 L117.8132 133.6626 "/>
<path d="M117.8132 133.6626 L117.6892 133.1664 "/>
<path d="M117.6892 133.1664 L117.6892 132.7942 "/>
<path d="M117.6892 132.7942 L117.8132 132.2979 "/>
<path d="M117.8132 132.2979 L117.9373 132.0498 "/>
<path d="M117.9373 132.0498 L118.1854 131.8016 "/>
<path d="M118.1854 131.8016 L118.5576 131.6776 "/>
<path d="M118.5576 131.6776 L118.8057 131.6776 "/>
<path d="M118.8057 131.6776 L119.1779 131.8016 "/>
<path d="M119.1779 131.8016 L119.3020 131.9257 "/>
<path d="M121.5352 132.5460 L121.5352 134.2829 "/>
<path d="M120.9148 131.5535 L120.2945 133.4145 "/>
<path d="M120.2945 133.4145 L121.9074 133.4145 "/>
</g><text x="119.0750" y="130.7730" transform="scale(-1 1) translate(-238.149924 0)" textLength="10.7380" font-size="3.4738" lengthAdjust="spacingAndGlyphs" text-anchor="middle" opacity="0.01" style="font-family:monospace">10uF</text>
<g class="stroked-text"><desc>10uF</desc>
<path d="M116.2835 130.6460 L114.7947 130.6460 "/>
<path d="M115.5391 130.6460 L115.5391 128.0406 "/>
<path d="M115.5391 128.0406 L115.2910 128.4128 "/>
<path d="M115.2910 128.4128 L115.0428 128.6610 "/>
<path d="M115.0428 128.6610 L114.7947 128.7850 "/>
<path d="M117.8963 128.0406 L118.1445 128.0406 "/>
<path d="M118.1445 128.0406 L118.3926 128.1647 "/>
<path d="M118.3926 128.1647 L118.5167 128.2888 "/>
<path d="M118.5167 128.2888 L118.6407 128.5369 "/>
<path d="M118.6407 128.5369 L118.7648 129.0331 "/>
<path d="M118.7648 129.0331 L118.7648 129.6535 "/>
<path d="M118.7648 129.6535 L118.6407 130.1497 "/>
<path d="M118.6407 130.1497 L118.5167 130.3979 "/>
<path d="M118.5167 130.3979 L118.3926 130.5219 "/>
<path d="M118.3926 130.5219 L118.1445 130.6460 "/>
<path d="M118.1445 130.6460 L117.8963 130.6460 "/>
<path d="M117.8963 130.6460 L117.6482 130.5219 "/>
<path d="M117.6482 130.5219 L117.5241 130.3979 "/>
<path d="M117.5241 130.3979 L117.4001 130.1497 "/>
<path d="M117.4001 130.1497 L117.2760 129.6535 "/>
<path d="M117.2760 129.6535 L117.2760 129.0331 "/>
<path d="M117.2760 129.0331 L117.4001 128.5369 "/>
<path d="M117.4001 128.5369 L117.5241 128.2888 "/>
<path d="M117.5241 128.2888 L117.6482 128.1647 "/>
<path d="M117.6482 128.1647 L117.8963 128.0406 "/>
<path d="M120.9980 128.9091 L120.9980 130.6460 "/>
<path d="M119.8814 128.9091 L119.8814 130.2738 "/>
<path d="M119.8814 130.2738 L120.0055 130.5219 "/>
<path d="M120.0055 130.5219 L120.2536 130.6460 "/>
<path d="M120.2536 130.6460 L120.6258 130.6460 "/>
<path d="M120.6258 130.6460 L120.8739 130.5219 "/>
<path d="M120.8739 130.5219 L120.9980 130.3979 "/>
<path d="M123.1071 129.2813 L122.2386 129.2813 "/>
<path d="M122.2386 130.6460 L122.2386 128.0406 "/>
<path d="M122.2386 128.0406 L123.4793 128.0406 "/>
</g><text x="129.6551" y="52.4135" transform="scale(-1 1) translate(-259.310293 0)" textLength="6.2717" font-size="3.4738" lengthAdjust="spacingAndGlyphs" text-anchor="middle" opacity="0.01" style="font-family:monospace">C7</text>
<g class="stroked-text"><desc>C7</desc>
<path d="M129.2209 52.0384 L129.0969 52.1624 "/>
<path d="M129.0969 52.1624 L128.7247 52.2865 "/>
<path d="M128.7247 52.2865 L128.4765 52.2865 "/>
<path d="M128.4765 52.2865 L128.1043 52.1624 "/>
<path d="M128.1043 52.1624 L127.8562 51.9143 "/>
<path d="M127.8562 51.9143 L127.7321 51.6662 "/>
<path d="M127.7321 51.6662 L127.6081 51.1699 "/>
<path d="M127.6081 51.1699 L127.6081 50.7977 "/>
<path d="M127.6081 50.7977 L127.7321 50.3015 "/>
<path d="M127.7321 50.3015 L127.8562 50.0533 "/>
<path d="M127.8562 50.0533 L128.1043 49.8052 "/>
<path d="M128.1043 49.8052 L128.4765 49.6811 "/>
<path d="M128.4765 49.6811 L128.7247 49.6811 "/>
<path d="M128.7247 49.6811 L129.0969 49.8052 "/>
<path d="M129.0969 49.8052 L129.2209 49.9293 "/>
<path d="M130.0894 49.6811 L131.8263 49.6811 "/>
<path d="M131.8263 49.6811 L130.7097 52.2865 "/>
</g><text x="128.9939" y="48.7765" transform="scale(-1 1) translate(-257.987770 0)" textLength="10.7380" font-size="3.4738" lengthAdjust="spacingAndGlyphs" text-anchor="middle" opacity="0.01" style="font-family:monospace">10uF</text>
<g class="stroked-text"><desc>10uF</desc>
<path d="M126.2024 48.6496 L124.7136 48.6496 "/>
<path d="M125.4580 48.6496 L125.4580 46.0442 "/>
<path d="M125.4580 46.0442 L125.2099 46.4164 "/>
<path d="M125.2099 46.4164 L124.9618 46.6645 "/>
<path d="M124.9618 46.6645 L124.7136 46.7886 "/>
<path d="M127.8153 46.0442 L128.0634 46.0442 "/>
<path d="M128.0634 46.0442 L128.3115 46.1683 "/>
<path d="M128.3115 46.1683 L128.4356 46.2923 "/>
<path d="M128.4356 46.2923 L128.5597 46.5405 "/>
<path d="M128.5597 46.5405 L128.6837 47.0367 "/>
<path d="M128.6837 47.0367 L128.6837 47.6570 "/>
<path d="M128.6837 47.6570 L128.5597 48.1533 "/>
<path d="M128.5597 48.1533 L128.4356 48.4014 "/>
<path d="M128.4356 48.4014 L128.3115 48.5255 "/>
<path d="M128.3115 48.5255 L128.0634 48.6496 "/>
<path d="M128.0634 48.6496 L127.8153 48.6496 "/>
<path d="M127.8153 48.6496 L127.5671 48.5255 "/>
<path d="M127.5671 48.5255 L127.4431 48.4014 "/>
<path d="M127.4431 48.4014 L127.3190 48.1533 "/>
<path d="M127.3190 48.1533 L127.1949 47.6570 "/>
<path d="M127.1949 47.6570 L127.1949 47.0367 "/>
<path d="M127.1949 47.0367 L127.3190 46.5405 "/>
<path d="M127.3190 46.5405 L127.4431 46.2923 "/>
<path d="M127.4431 46.2923 L127.5671 46.1683 "/>
<path d="M127.5671 46.1683 L127.8153 46.0442 "/>
<path d="M130.9169 46.9127 L130.9169 48.6496 "/>
<path d="M129.8003 46.9127 L129.8003 48.2774 "/>
<path d="M129.8003 48.2774 L129.9244 48.5255 "/>
<path d="M129.9244 48.5255 L130.1725 48.6496 "/>
<path d="M130.1725 48.6496 L130.5447 48.6496 "/>
<path d="M130.5447 48.6496 L130.7928 48.5255 "/>
<path d="M130.7928 48.5255 L130.9169 48.4014 "/>
<path d="M133.0260 47.2848 L132.1576 47.2848 "/>
<path d="M132.1576 48.6496 L132.1576 46.0442 "/>
<path d="M132.1576 46.0442 L133.3982 46.0442 "/>
</g><text x="154.1218" y="94.0729" transform="scale(-1 1) translate(-308.243646 0)" textLength="6.2717" font-size="3.4738" lengthAdjust="spacingAndGlyphs" text-anchor="middle" opacity="0.01" style="font-family:monospace">C8</text>
<g class="stroked-text"><desc>C8</desc>
<path d="M153.6876 93.6979 L153.5635 93.8219 "/>
<path d="M153.5635 93.8219 L153.1913 93.9460 "/>
<path d="M153.1913 93.9460 L152.9432 93.9460 "/>
<path d="M152.9432 93.9460 L152.5710 93.8219 "/>
<path d="M152.5710 93.8219 L152.3229 93.5738 "/>
<path d="M152.3229 93.5738 L152.1988 93.3257 "/>
<path d="M152.1988 93.3257 L152.0747 92.8294 "/>
<path d="M152.0747 92.8294 L152.0747 92.4572 "/>
<path d="M152.0747 92.4572 L152.1988 91.9609 "/>
<path d="M152.1988 91.9609 L152.3229 91.7128 "/>
<path d="M152.3229 91.7128 L152.5710 91.4647 "/>
<path d="M152.5710 91.4647 L152.9432 91.3406 "/>
<path d="M152.9432 91.3406 L153.1913 91.3406 "/>
<path d="M153.1913 91.3406 L153.5635 91.4647 "/>
<path d="M153.5635 91.4647 L153.6876 91.5887 "/>
<path d="M155.1764 92.4572 L154.9282 92.3331 "/>
<path d="M154.9282 92.3331 L154.8042 92.2091 "/>
<path d="M154.8042 92.2091 L154.6801 91.9609 "/>
<path d="M154.6801 91.9609 L154.6801 91.8369 "/>
<path d="M154.6801 91.8369 L154.8042 91.5887 "/>
<path d="M154.8042 91.5887 L154.9282 91.4647 "/>
<path d="M154.9282 91.4647 L155.1764 91.3406 "/>
<path d="M155.1764 91.3406 L155.6726 91.3406 "/>
<path d="M155.6726 91.3406 L155.9208 91.4647 "/>
<path d="M155.9208 91.4647 L156.0448 91.5887 "/>
<path d="M156.0448 91.5887 L156.1689 91.8369 "/>
<path d="M156.1689 91.8369 L156.1689 91.9609 "/>
<path d="M156.1689 91.9609 L156.0448 92.2091 "/>
<path d="M156.0448 92.2091 L155.9208 92.3331 "/>
<path d="M155.9208 92.3331 L155.6726 92.4572 "/>
<path d="M155.6726 92.4572 L155.1764 92.4572 "/>
<path d="M155.1764 92.4572 L154.9282 92.5813 "/>
<path d="M154.9282 92.5813 L154.8042 92.7053 "/>
<path d="M154.8042 92.7053 L154.6801 92.9535 "/>
<path d="M154.6801 92.9535 L154.6801 93.4497 "/>
<path d="M154.6801 93.4497 L154.8042 93.6979 "/>
<path d="M154.8042 93.6979 L154.9282 93.8219 "/>
<path d="M154.9282 93.8219 L155.1764 93.9460 "/>
<path d="M155.1764 93.9460 L155.6726 93.9460 "/>
<path d="M155.6726 93.9460 L155.9208 93.8219 "/>
<path d="M155.9208 93.8219 L156.0448 93.6979 "/>
<path d="M156.0448 93.6979 L156.1689 93.4497 "/>
<path d="M156.1689 93.4497 L156.1689 92.9535 "/>
<path d="M156.1689 92.9535 L156.0448 92.7053 "/>
<path d="M156.0448 92.7053 L155.9208 92.5813 "/>
<path d="M155.9208 92.5813 L155.6726 92.4572 "/>
</g><text x="154.7831" y="97.7099" transform="scale(-1 1) translate(-309.566169 0)" textLength="10.7380" font-size="3.4738" lengthAdjust="spacingAndGlyphs" text-anchor="middle" opacity="0.01" style="font-family:monospace">10uF</text>
<g class="stroked-text"><desc>10uF</desc>
<path d="M151.9916 97.5829 L150.5028 97.5829 "/>
<path d="M151.2472 97.5829 L151.2472 94.9776 "/>
<path d="M151.2472 94.9776 L150.9991 95.3497 "/>
<path d="M150.9991 95.3497 L150.7510 95.5979 "/>
<path d="M150.7510 95.5979 L150.5028 95.7219 "/>
<path d="M153.6045 94.9776 L153.8526 94.9776 "/>
<path d="M153.8526 94.9776 L154.1007 95.1016 "/>
<path d="M154.1007 95.1016 L154.2248 95.2257 "/>
<path d="M154.2248 95.2257 L154.3489 95.4738 "/>
<path d="M154.3489 95.4738 L154.4729 95.9701 "/>
<path d="M154.4729 95.9701 L154.4729 96.5904 "/>
<path d="M154.4729 96.5904 L154.3489 97.0867 "/>
<path d="M154.3489 97.0867 L154.2248 97.3348 "/>
<path d="M154.2248 97.3348 L154.1007 97.4589 "/>
<path d="M154.1007 97.4589 L153.8526 97.5829 "/>
<path d="M153.8526 97.5829 L153.6045 97.5829 "/>
<path d="M153.6045 97.5829 L153.3563 97.4589 "/>
<path d="M153.3563 97.4589 L153.2323 97.3348 "/>
<path d="M153.2323 97.3348 L153.1082 97.0867 "/>
<path d="M153.1082 97.0867 L152.9841 96.5904 "/>
<path d="M152.9841 96.5904 L152.9841 95.9701 "/>
<path d="M152.9841 95.9701 L153.1082 95.4738 "/>
<path d="M153.1082 95.4738 L153.2323 95.2257 "/>
<path d="M153.2323 95.2257 L153.3563 95.1016 "/>
<path d="M153.3563 95.1016 L153.6045 94.9776 "/>
<path d="M156.7061 95.8460 L156.7061 97.5829 "/>
<path d="M155.5895 95.8460 L155.5895 97.2107 "/>
<path d="M155.5895 97.2107 L155.7136 97.4589 "/>
<path d="M155.7136 97.4589 L155.9617 97.5829 "/>
<path d="M155.9617 97.5829 L156.3339 97.5829 "/>
<path d="M156.3339 97.5829 L156.5820 97.4589 "/>
<path d="M156.5820 97.4589 L156.7061 97.3348 "/>
<path d="M158.8152 96.2182 L157.9468 96.2182 "/>
<path d="M157.9468 97.5829 L157.9468 94.9776 "/>
<path d="M157.9468 94.9776 L159.1874 94.9776 "/>
</g><text x="193.1363" y="146.9739" transform="scale(-1 1) translate(-386.272506 0)" textLength="6.2717" font-size="3.4738" lengthAdjust="spacingAndGlyphs" text-anchor="middle" opacity="0.01" style="font-family:monospace">C9</text>
<g class="stroked-text"><desc>C9</desc>
<path d="M192.7020 146.5988 L192.5780 146.7228 "/>
<path d="M192.5780 146.7228 L192.2058 146.8469 "/>
<path d="M192.2058 146.8469 L191.9576 146.8469 "/>
<path d="M191.9576 146.8469 L191.5854 146.7228 "/>
<path d="M191.5854 146.7228 L191.3373 146.4747 "/>
<path d="M191.3373 146.4747 L191.2132 146.2266 "/>
<path d="M191.2132 146.2266 L191.0892 145.7303 "/>
<path d="M191.0892 145.7303 L191.0892 145.3581 "/>
<path d="M191.0892 145.3581 L191.2132 144.8619 "/>
<path d="M191.2132 144.8619 L191.3373 144.6137 "/>
<path d="M191.3373 144.6137 L191.5854 144.3656 "/>
<path d="M191.5854 144.3656 L191.9576 144.2415 "/>
<path d="M191.9576 144.2415 L192.2058 144.2415 "/>
<path d="M192.2058 144.2415 L192.5780 144.3656 "/>
<path d="M192.5780 144.3656 L192.7020 144.4897 "/>
<path d="M193.9427 146.8469 L194.4389 146.8469 "/>
<path d="M194.4389 146.8469 L194.6871 146.7228 "/>
<path d="M194.6871 146.7228 L194.8111 146.5988 "/>
<path d="M194.8111 146.5988 L195.0593 146.2266 "/>
<path d="M195.0593 146.2266 L195.1833 145.7303 "/>
<path d="M195.1833 145.7303 L195.1833 144.7378 "/>
<path d="M195.1833 144.7378 L195.0593 144.4897 "/>
<path d="M195.0593 144.4897 L194.9352 144.3656 "/>
<path d="M194.9352 144.3656 L194.6871 144.2415 "/>
<path d="M194.6871 144.2415 L194.1908 144.2415 "/>
<path d="M194.1908 144.2415 L193.9427 144.3656 "/>
<path d="M193.9427 144.3656 L193.8186 144.4897 "/>
<path d="M193.8186 144.4897 L193.6946 144.7378 "/>
<path d="M193.6946 144.7378 L193.6946 145.3581 "/>
<path d="M193.6946 145.3581 L193.8186 145.6063 "/>
<path d="M193.8186 145.6063 L193.9427 145.7303 "/>
<path d="M193.9427 145.7303 L194.1908 145.8544 "/>
<path d="M194.1908 145.8544 L194.6871 145.8544 "/>
<path d="M194.6871 145.8544 L194.9352 145.7303 "/>
<path d="M194.9352 145.7303 L195.0593 145.6063 "/>
<path d="M195.0593 145.6063 L195.1833 145.3581 "/>
</g><text x="193.7975" y="150.6108" transform="scale(-1 1) translate(-387.595029 0)" textLength="10.7380" font-size="3.4738" lengthAdjust="spacingAndGlyphs" text-anchor="middle" opacity="0.01" style="font-family:monospace">10uF</text>
<g class="stroked-text"><desc>10uF</desc>
<path d="M191.0060 150.4838 L189.5173 150.4838 "/>
<path d="M190.2617 150.4838 L190.2617 147.8785 "/>
<path d="M190.2617 147.8785 L190.0135 148.2507 "/>
<path d="M190.0135 148.2507 L189.7654 148.4988 "/>
<path d="M189.7654 148.4988 L189.5173 148.6229 "/>
<path d="M192.6189 147.8785 L192.8670 147.8785 "/>
<path d="M192.8670 147.8785 L193.1152 148.0025 "/>
<path d="M193.1152 148.0025 L193.2392 148.1266 "/>
<path d="M193.2392 148.1266 L193.3633 148.3747 "/>
<path d="M193.3633 148.3747 L193.4874 148.8710 "/>
<path d="M193.4874 148.8710 L193.4874 149.4913 "/>
<path d="M193.4874 149.4913 L193.3633 149.9876 "/>
<path d="M193.3633 149.9876 L193.2392 150.2357 "/>
<path d="M193.2392 150.2357 L193.1152 150.3598 "/>
<path d="M193.1152 150.3598 L192.8670 150.4838 "/>
<path d="M192.8670 150.4838 L192.6189 150.4838 "/>
<path d="M192.6189 150.4838 L192.3708 150.3598 "/>
<path d="M192.3708 150.3598 L192.2467 150.2357 "/>
<path d="M192.2467 150.2357 L192.1226 149.9876 "/>
<path d="M192.1226 149.9876 L191.9986 149.4913 "/>
<path d="M191.9986 149.4913 L191.9986 148.8710 "/>
<path d="M191.9986 148.8710 L192.1226 148.3747 "/>
<path d="M192.1226 148.3747 L192.2467 148.1266 "/>
<path d="M192.2467 148.1266 L192.3708 148.0025 "/>
<path d="M192.3708 148.0025 L192.6189 147.8785 "/>
<path d="M195.7205 148.7469 L195.7205 150.4838 "/>
<path d="M194.6039 148.7469 L194.6039 150.1116 "/>
<path d="M194.6039 150.1116 L194.7280 150.3598 "/>
<path d="M194.7280 150.3598 L194.9761 150.4838 "/>
<path d="M194.9761 150.4838 L195.3483 150.4838 "/>
<path d="M195.3483 150.4838 L195.5965 150.3598 "/>
<path d="M195.5965 150.3598 L195.7205 150.2357 "/>
<path d="M197.8296 149.1191 L196.9612 149.1191 "/>
<path d="M196.9612 150.4838 L196.9612 147.8785 "/>
<path d="M196.9612 147.8785 L198.2018 147.8785 "/>
</g><text x="129.6551" y="39.1882" transform="scale(-1 1) translate(-259.310293 0)" textLength="8.7530" font-size="3.4738" lengthAdjust="spacingAndGlyphs" text-anchor="middle" opacity="0.01" style="font-family:monospace">C12</text>
<g class="stroked-text"><desc>C12</desc>
<path d="M127.9803 38.8131 L127.8562 38.9372 "/>
<path d="M127.8562 38.9372 L127.4840 39.0613 "/>
<path d="M127.4840 39.0613 L127.2359 39.0613 "/>
<path d="M127.2359 39.0613 L126.8637 38.9372 "/>
<path d="M126.8637 38.9372 L126.6156 38.6891 "/>
<path d="M126.6156 38.6891 L126.4915 38.4409 "/>
<path d="M126.4915 38.4409 L126.3674 37.9447 "/>
<path d="M126.3674 37.9447 L126.3674 37.5725 "/>
<path d="M126.3674 37.5725 L126.4915 37.0762 "/>
<path d="M126.4915 37.0762 L126.6156 36.8281 "/>
<path d="M126.6156 36.8281 L126.8637 36.5800 "/>
<path d="M126.8637 36.5800 L127.2359 36.4559 "/>
<path d="M127.2359 36.4559 L127.4840 36.4559 "/>
<path d="M127.4840 36.4559 L127.8562 36.5800 "/>
<path d="M127.8562 36.5800 L127.9803 36.7040 "/>
<path d="M130.4616 39.0613 L128.9728 39.0613 "/>
<path d="M129.7172 39.0613 L129.7172 36.4559 "/>
<path d="M129.7172 36.4559 L129.4691 36.8281 "/>
<path d="M129.4691 36.8281 L129.2209 37.0762 "/>
<path d="M129.2209 37.0762 L128.9728 37.2003 "/>
<path d="M131.4541 36.7040 L131.5782 36.5800 "/>
<path d="M131.5782 36.5800 L131.8263 36.4559 "/>
<path d="M131.8263 36.4559 L132.4466 36.4559 "/>
<path d="M132.4466 36.4559 L132.6947 36.5800 "/>
<path d="M132.6947 36.5800 L132.8188 36.7040 "/>
<path d="M132.8188 36.7040 L132.9429 36.9522 "/>
<path d="M132.9429 36.9522 L132.9429 37.2003 "/>
<path d="M132.9429 37.2003 L132.8188 37.5725 "/>
<path d="M132.8188 37.5725 L131.3300 39.0613 "/>
<path d="M131.3300 39.0613 L132.9429 39.0613 "/>
</g><text x="128.9939" y="35.5513" transform="scale(-1 1) translate(-257.987770 0)" textLength="13.2193" font-size="3.4738" lengthAdjust="spacingAndGlyphs" text-anchor="middle" opacity="0.01" style="font-family:monospace">100nF</text>
<g class="stroked-text"><desc>100nF</desc>
<path d="M124.9618 35.4243 L123.4730 35.4243 "/>
<path d="M124.2174 35.4243 L124.2174 32.8190 "/>
<path d="M124.2174 32.8190 L123.9692 33.1912 "/>
<path d="M123.9692 33.1912 L123.7211 33.4393 "/>
<path d="M123.7211 33.4393 L123.4730 33.5634 "/>
<path d="M126.5746 32.8190 L126.8227 32.8190 "/>
<path d="M126.8227 32.8190 L127.0709 32.9430 "/>
<path d="M127.0709 32.9430 L127.1949 33.0671 "/>
<path d="M127.1949 33.0671 L127.3190 33.3152 "/>
<path d="M127.3190 33.3152 L127.4431 33.8115 "/>
<path d="M127.4431 33.8115 L127.4431 34.4318 "/>
<path d="M127.4431 34.4318 L127.3190 34.9281 "/>
<path d="M127.3190 34.9281 L127.1949 35.1762 "/>
<path d="M127.1949 35.1762 L127.0709 35.3003 "/>
<path d="M127.0709 35.3003 L126.8227 35.4243 "/>
<path d="M126.8227 35.4243 L126.5746 35.4243 "/>
<path d="M126.5746 35.4243 L126.3265 35.3003 "/>
<path d="M126.3265 35.3003 L126.2024 35.1762 "/>
<path d="M126.2024 35.1762 L126.0784 34.9281 "/>
<path d="M126.0784 34.9281 L125.9543 34.4318 "/>
<path d="M125.9543 34.4318 L125.9543 33.8115 "/>
<path d="M125.9543 33.8115 L126.0784 33.3152 "/>
<path d="M126.0784 33.3152 L126.2024 33.0671 "/>
<path d="M126.2024 33.0671 L126.3265 32.9430 "/>
<path d="M126.3265 32.9430 L126.5746 32.8190 "/>
<path d="M129.0559 32.8190 L129.3040 32.8190 "/>
<path d="M129.3040 32.8190 L129.5522 32.9430 "/>
<path d="M129.5522 32.9430 L129.6762 33.0671 "/>
<path d="M129.6762 33.0671 L129.8003 33.3152 "/>
<path d="M129.8003 33.3152 L129.9244 33.8115 "/>
<path d="M129.9244 33.8115 L129.9244 34.4318 "/>
<path d="M129.9244 34.4318 L129.8003 34.9281 "/>
<path d="M129.8003 34.9281 L129.6762 35.1762 "/>
<path d="M129.6762 35.1762 L129.5522 35.3003 "/>
<path d="M129.5522 35.3003 L129.3040 35.4243 "/>
<path d="M129.3040 35.4243 L129.0559 35.4243 "/>
<path d="M129.0559 35.4243 L128.8078 35.3003 "/>
<path d="M128.8078 35.3003 L128.6837 35.1762 "/>
<path d="M128.6837 35.1762 L128.5597 34.9281 "/>
<path d="M128.5597 34.9281 L128.4356 34.4318 "/>
<path d="M128.4356 34.4318 L128.4356 33.8115 "/>
<path d="M128.4356 33.8115 L128.5597 33.3152 "/>
<path d="M128.5597 33.3152 L128.6837 33.0671 "/>
<path d="M128.6837 33.0671 L128.8078 32.9430 "/>
<path d="M128.8078 32.9430 L129.0559 32.8190 "/>
<path d="M131.0410 33.6874 L131.0410 35.4243 "/>
<path d="M131.0410 33.9356 L131.1650 33.8115 "/>
<path d="M131.1650 33.8115 L131.4132 33.6874 "/>
<path d="M131.4132 33.6874 L131.7854 33.6874 "/>
<path d="M131.7854 33.6874 L132.0335 33.8115 "/>
<path d="M132.0335 33.8115 L132.1575 34.0596 "/>
<path d="M132.1575 34.0596 L132.1575 35.4243 "/>
<path d="M134.2667 34.0596 L133.3982 34.0596 "/>
<path d="M133.3982 35.4243 L133.3982 32.8190 "/>
<path d="M133.3982 32.8190 L134.6389 32.8190 "/>
</g><text x="154.1218" y="83.4928" transform="scale(-1 1) translate(-308.243646 0)" textLength="8.7530" font-size="3.4738" lengthAdjust="spacingAndGlyphs" text-anchor="middle" opacity="0.01" style="font-family:monospace">C13</text>
<g class="stroked-text"><desc>C13</desc>
<path d="M152.4469 83.1177 L152.3229 83.2417 "/>
<path d="M152.3229 83.2417 L151.9507 83.3658 "/>
<path d="M151.9507 83.3658 L151.7026 83.3658 "/>
<path d="M151.7026 83.3658 L151.3304 83.2417 "/>
<path d="M151.3304 83.2417 L151.0822 82.9936 "/>
<path d="M151.0822 82.9936 L150.9582 82.7455 "/>
<path d="M150.9582 82.7455 L150.8341 82.2492 "/>
<path d="M150.8341 82.2492 L150.8341 81.8770 "/>
<path d="M150.8341 81.8770 L150.9582 81.3808 "/>
<path d="M150.9582 81.3808 L151.0822 81.1326 "/>
<path d="M151.0822 81.1326 L151.3304 80.8845 "/>
<path d="M151.3304 80.8845 L151.7026 80.7604 "/>
<path d="M151.7026 80.7604 L151.9507 80.7604 "/>
<path d="M151.9507 80.7604 L152.3229 80.8845 "/>
<path d="M152.3229 80.8845 L152.4469 81.0086 "/>
<path d="M154.9282 83.3658 L153.4395 83.3658 "/>
<path d="M154.1839 83.3658 L154.1839 80.7604 "/>
<path d="M154.1839 80.7604 L153.9357 81.1326 "/>
<path d="M153.9357 81.1326 L153.6876 81.3808 "/>
<path d="M153.6876 81.3808 L153.4395 81.5048 "/>
<path d="M155.7967 80.7604 L157.4096 80.7604 "/>
<path d="M157.4096 80.7604 L156.5411 81.7530 "/>
<path d="M156.5411 81.7530 L156.9133 81.7530 "/>
<path d="M156.9133 81.7530 L157.1614 81.8770 "/>
<path d="M157.1614 81.8770 L157.2855 82.0011 "/>
<path d="M157.2855 82.0011 L157.4096 82.2492 "/>
<path d="M157.4096 82.2492 L157.4096 82.8695 "/>
<path d="M157.4096 82.8695 L157.2855 83.1177 "/>
<path d="M157.2855 83.1177 L157.1614 83.2417 "/>
<path d="M157.1614 83.2417 L156.9133 83.3658 "/>
<path d="M156.9133 83.3658 L156.1689 83.3658 "/>
<path d="M156.1689 83.3658 L155.9208 83.2417 "/>
<path d="M155.9208 83.2417 L155.7967 83.1177 "/>
</g><text x="154.7831" y="87.1297" transform="scale(-1 1) translate(-309.566169 0)" textLength="13.2193" font-size="3.4738" lengthAdjust="spacingAndGlyphs" text-anchor="middle" opacity="0.01" style="font-family:monospace">100nF</text>
<g class="stroked-text"><desc>100nF</desc>
<path d="M150.7510 87.0027 L149.2622 87.0027 "/>
<path d="M150.0066 87.0027 L150.0066 84.3974 "/>
<path d="M150.0066 84.3974 L149.7584 84.7696 "/>
<path d="M149.7584 84.7696 L149.5103 85.0177 "/>
<path d="M149.5103 85.0177 L149.2622 85.1418 "/>
<path d="M152.3638 84.3974 L152.6119 84.3974 "/>
<path d="M152.6119 84.3974 L152.8601 84.5214 "/>
<path d="M152.8601 84.5214 L152.9841 84.6455 "/>
<path d="M152.9841 84.6455 L153.1082 84.8936 "/>
<path d="M153.1082 84.8936 L153.2323 85.3899 "/>
<path d="M153.2323 85.3899 L153.2323 86.0102 "/>
<path d="M153.2323 86.0102 L153.1082 86.5065 "/>
<path d="M153.1082 86.5065 L152.9841 86.7546 "/>
<path d="M152.9841 86.7546 L152.8601 86.8787 "/>
<path d="M152.8601 86.8787 L152.6119 87.0027 "/>
<path d="M152.6119 87.0027 L152.3638 87.0027 "/>
<path d="M152.3638 87.0027 L152.1157 86.8787 "/>
<path d="M152.1157 86.8787 L151.9916 86.7546 "/>
<path d="M151.9916 86.7546 L151.8676 86.5065 "/>
<path d="M151.8676 86.5065 L151.7435 86.0102 "/>
<path d="M151.7435 86.0102 L151.7435 85.3899 "/>
<path d="M151.7435 85.3899 L151.8676 84.8936 "/>
<path d="M151.8676 84.8936 L151.9916 84.6455 "/>
<path d="M151.9916 84.6455 L152.1157 84.5214 "/>
<path d="M152.1157 84.5214 L152.3638 84.3974 "/>
<path d="M154.8451 84.3974 L155.0932 84.3974 "/>
<path d="M155.0932 84.3974 L155.3414 84.5214 "/>
<path d="M155.3414 84.5214 L155.4654 84.6455 "/>
<path d="M155.4654 84.6455 L155.5895 84.8936 "/>
<path d="M155.5895 84.8936 L155.7136 85.3899 "/>
<path d="M155.7136 85.3899 L155.7136 86.0102 "/>
<path d="M155.7136 86.0102 L155.5895 86.5065 "/>
<path d="M155.5895 86.5065 L155.4654 86.7546 "/>
<path d="M155.4654 86.7546 L155.3414 86.8787 "/>
<path d="M155.3414 86.8787 L155.0932 87.0027 "/>
<path d="M155.0932 87.0027 L154.8451 87.0027 "/>
<path d="M154.8451 87.0027 L154.5970 86.8787 "/>
<path d="M154.5970 86.8787 L154.4729 86.7546 "/>
<path d="M154.4729 86.7546 L154.3489 86.5065 "/>
<path d="M154.3489 86.5065 L154.2248 86.0102 "/>
<path d="M154.2248 86.0102 L154.2248 85.3899 "/>
<path d="M154.2248 85.3899 L154.3489 84.8936 "/>
<path d="M154.3489 84.8936 L154.4729 84.6455 "/>
<path d="M154.4729 84.6455 L154.5970 84.5214 "/>
<path d="M154.5970 84.5214 L154.8451 84.3974 "/>
<path d="M156.8302 85.2658 L156.8302 87.0027 "/>
<path d="M156.8302 85.5140 L156.9542 85.3899 "/>
<path d="M156.9542 85.3899 L157.2024 85.2658 "/>
<path d="M157.2024 85.2658 L157.5746 85.2658 "/>
<path d="M157.5746 85.2658 L157.8227 85.3899 "/>
<path d="M157.8227 85.3899 L157.9467 85.6380 "/>
<path d="M157.9467 85.6380 L157.9467 87.0027 "/>
<path d="M160.0559 85.6380 L159.1874 85.6380 "/>
<path d="M159.1874 87.0027 L159.1874 84.3974 "/>
<path d="M159.1874 84.3974 L160.4281 84.3974 "/>
</g><text x="193.7975" y="133.7486" transform="scale(-1 1) translate(-387.595029 0)" textLength="8.7530" font-size="3.4738" lengthAdjust="spacingAndGlyphs" text-anchor="middle" opacity="0.01" style="font-family:monospace">C14</text>
<g class="stroked-text"><desc>C14</desc>
<path d="M192.1226 133.3735 L191.9986 133.4976 "/>
<path d="M191.9986 133.4976 L191.6264 133.6217 "/>
<path d="M191.6264 133.6217 L191.3782 133.6217 "/>
<path d="M191.3782 133.6217 L191.0060 133.4976 "/>
<path d="M191.0060 133.4976 L190.7579 133.2495 "/>
<path d="M190.7579 133.2495 L190.6339 133.0013 "/>
<path d="M190.6339 133.0013 L190.5098 132.5051 "/>
<path d="M190.5098 132.5051 L190.5098 132.1329 "/>
<path d="M190.5098 132.1329 L190.6339 131.6366 "/>
<path d="M190.6339 131.6366 L190.7579 131.3885 "/>
<path d="M190.7579 131.3885 L191.0060 131.1404 "/>
<path d="M191.0060 131.1404 L191.3782 131.0163 "/>
<path d="M191.3782 131.0163 L191.6264 131.0163 "/>
<path d="M191.6264 131.0163 L191.9986 131.1404 "/>
<path d="M191.9986 131.1404 L192.1226 131.2644 "/>
<path d="M194.6039 133.6217 L193.1152 133.6217 "/>
<path d="M193.8596 133.6217 L193.8596 131.0163 "/>
<path d="M193.8596 131.0163 L193.6114 131.3885 "/>
<path d="M193.6114 131.3885 L193.3633 131.6366 "/>
<path d="M193.3633 131.6366 L193.1152 131.7607 "/>
<path d="M196.8371 131.8848 L196.8371 133.6217 "/>
<path d="M196.2168 130.8922 L195.5965 132.7532 "/>
<path d="M195.5965 132.7532 L197.2093 132.7532 "/>
</g><text x="194.4588" y="137.3856" transform="scale(-1 1) translate(-388.917552 0)" textLength="13.2193" font-size="3.4738" lengthAdjust="spacingAndGlyphs" text-anchor="middle" opacity="0.01" style="font-family:monospace">100nF</text>
<g class="stroked-text"><desc>100nF</desc>
<path d="M190.4267 137.2586 L188.9379 137.2586 "/>
<path d="M189.6823 137.2586 L189.6823 134.6532 "/>
<path d="M189.6823 134.6532 L189.4341 135.0254 "/>
<path d="M189.4341 135.0254 L189.1860 135.2736 "/>
<path d="M189.1860 135.2736 L188.9379 135.3976 "/>
<path d="M192.0395 134.6532 L192.2876 134.6532 "/>
<path d="M192.2876 134.6532 L192.5358 134.7773 "/>
<path d="M192.5358 134.7773 L192.6598 134.9014 "/>
<path d="M192.6598 134.9014 L192.7839 135.1495 "/>
<path d="M192.7839 135.1495 L192.9080 135.6458 "/>
<path d="M192.9080 135.6458 L192.9080 136.2661 "/>
<path d="M192.9080 136.2661 L192.7839 136.7624 "/>
<path d="M192.7839 136.7624 L192.6598 137.0105 "/>
<path d="M192.6598 137.0105 L192.5358 137.1345 "/>
<path d="M192.5358 137.1345 L192.2876 137.2586 "/>
<path d="M192.2876 137.2586 L192.0395 137.2586 "/>
<path d="M192.0395 137.2586 L191.7914 137.1345 "/>
<path d="M191.7914 137.1345 L191.6673 137.0105 "/>
<path d="M191.6673 137.0105 L191.5432 136.7624 "/>
<path d="M191.5432 136.7624 L191.4192 136.2661 "/>
<path d="M191.4192 136.2661 L191.4192 135.6458 "/>
<path d="M191.4192 135.6458 L191.5432 135.1495 "/>
<path d="M191.5432 135.1495 L191.6673 134.9014 "/>
<path d="M191.6673 134.9014 L191.7914 134.7773 "/>
<path d="M191.7914 134.7773 L192.0395 134.6532 "/>
<path d="M194.5208 134.6532 L194.7689 134.6532 "/>
<path d="M194.7689 134.6532 L195.0171 134.7773 "/>
<path d="M195.0171 134.7773 L195.1411 134.9014 "/>
<path d="M195.1411 134.9014 L195.2652 135.1495 "/>
<path d="M195.2652 135.1495 L195.3893 135.6458 "/>
<path d="M195.3893 135.6458 L195.3893 136.2661 "/>
<path d="M195.3893 136.2661 L195.2652 136.7624 "/>
<path d="M195.2652 136.7624 L195.1411 137.0105 "/>
<path d="M195.1411 137.0105 L195.0171 137.1345 "/>
<path d="M195.0171 137.1345 L194.7689 137.2586 "/>
<path d="M194.7689 137.2586 L194.5208 137.2586 "/>
<path d="M194.5208 137.2586 L194.2727 137.1345 "/>
<path d="M194.2727 137.1345 L194.1486 137.0105 "/>
<path d="M194.1486 137.0105 L194.0246 136.7624 "/>
<path d="M194.0246 136.7624 L193.9005 136.2661 "/>
<path d="M193.9005 136.2661 L193.9005 135.6458 "/>
<path d="M193.9005 135.6458 L194.0246 135.1495 "/>
<path d="M194.0246 135.1495 L194.1486 134.9014 "/>
<path d="M194.1486 134.9014 L194.2727 134.7773 "/>
<path d="M194.2727 134.7773 L194.5208 134.6532 "/>
<path d="M196.5059 135.5217 L196.5059 137.2586 "/>
<path d="M196.5059 135.7698 L196.6299 135.6458 "/>
<path d="M196.6299 135.6458 L196.8780 135.5217 "/>
<path d="M196.8780 135.5217 L197.2502 135.5217 "/>
<path d="M197.2502 135.5217 L197.4984 135.6458 "/>
<path d="M197.4984 135.6458 L197.6224 135.8939 "/>
<path d="M197.6224 135.8939 L197.6224 137.2586 "/>
<path d="M199.7316 135.8939 L198.8631 135.8939 "/>
<path d="M198.8631 137.2586 L198.8631 134.6532 "/>
<path d="M198.8631 134.6532 L200.1037 134.6532 "/>
</g><text x="145.5254" y="70.9288" transform="scale(-1 1) translate(-291.050846 0)" textLength="8.7530" font-size="3.4738" lengthAdjust="spacingAndGlyphs" text-anchor="middle" opacity="0.01" style="font-family:monospace">C19</text>
<g class="stroked-text"><desc>C19</desc>
<path d="M143.8505 70.5537 L143.7265 70.6778 "/>
<path d="M143.7265 70.6778 L143.3543 70.8018 "/>
<path d="M143.3543 70.8018 L143.1062 70.8018 "/>
<path d="M143.1062 70.8018 L142.7340 70.6778 "/>
<path d="M142.7340 70.6778 L142.4858 70.4296 "/>
<path d="M142.4858 70.4296 L142.3618 70.1815 "/>
<path d="M142.3618 70.1815 L142.2377 69.6852 "/>
<path d="M142.2377 69.6852 L142.2377 69.3130 "/>
<path d="M142.2377 69.3130 L142.3618 68.8168 "/>
<path d="M142.3618 68.8168 L142.4858 68.5687 "/>
<path d="M142.4858 68.5687 L142.7340 68.3205 "/>
<path d="M142.7340 68.3205 L143.1062 68.1965 "/>
<path d="M143.1062 68.1965 L143.3543 68.1965 "/>
<path d="M143.3543 68.1965 L143.7265 68.3205 "/>
<path d="M143.7265 68.3205 L143.8505 68.4446 "/>
<path d="M146.3318 70.8018 L144.8431 70.8018 "/>
<path d="M145.5875 70.8018 L145.5875 68.1965 "/>
<path d="M145.5875 68.1965 L145.3393 68.5687 "/>
<path d="M145.3393 68.5687 L145.0912 68.8168 "/>
<path d="M145.0912 68.8168 L144.8431 68.9409 "/>
<path d="M147.5725 70.8018 L148.0688 70.8018 "/>
<path d="M148.0688 70.8018 L148.3169 70.6778 "/>
<path d="M148.3169 70.6778 L148.4410 70.5537 "/>
<path d="M148.4410 70.5537 L148.6891 70.1815 "/>
<path d="M148.6891 70.1815 L148.8132 69.6852 "/>
<path d="M148.8132 69.6852 L148.8132 68.6927 "/>
<path d="M148.8132 68.6927 L148.6891 68.4446 "/>
<path d="M148.6891 68.4446 L148.5650 68.3205 "/>
<path d="M148.5650 68.3205 L148.3169 68.1965 "/>
<path d="M148.3169 68.1965 L147.8206 68.1965 "/>
<path d="M147.8206 68.1965 L147.5725 68.3205 "/>
<path d="M147.5725 68.3205 L147.4484 68.4446 "/>
<path d="M147.4484 68.4446 L147.3244 68.6927 "/>
<path d="M147.3244 68.6927 L147.3244 69.3130 "/>
<path d="M147.3244 69.3130 L147.4484 69.5612 "/>
<path d="M147.4484 69.5612 L147.5725 69.6852 "/>
<path d="M147.5725 69.6852 L147.8206 69.8093 "/>
<path d="M147.8206 69.8093 L148.3169 69.8093 "/>
<path d="M148.3169 69.8093 L148.5650 69.6852 "/>
<path d="M148.5650 69.6852 L148.6891 69.5612 "/>
<path d="M148.6891 69.5612 L148.8132 69.3130 "/>
</g></g>
<g style="fill:#000084; fill-opacity:0.0;  stroke:#000084; stroke-width:0.7810; stroke-opacity:1;  stroke-linecap:round; stroke-linejoin:round;">
<g transform="rotate(-90.000000 143.2110 139.3892)">
<text x="143.2110" y="141.9926" transform="scale(-1 1) translate(-286.422015 0)" textLength="11.4673" font-size="6.9424" lengthAdjust="spacingAndGlyphs" text-anchor="middle" opacity="0.01" style="font-family:monospace">D1</text>
</g>
<g class="stroked-text"><desc>D1</desc>
<path d="M140.8429 135.5461 L146.0496 135.5461 "/>
<path d="M146.0496 135.5461 L146.0496 136.7858 "/>
<path d="M146.0496 136.7858 L145.8017 137.5296 "/>
<path d="M145.8017 137.5296 L145.3058 138.0255 "/>
<path d="M145.3058 138.0255 L144.8099 138.2735 "/>
<path d="M144.8099 138.2735 L143.8182 138.5214 "/>
<path d="M143.8182 138.5214 L143.0743 138.5214 "/>
<path d="M143.0743 138.5214 L142.0826 138.2735 "/>
<path d="M142.0826 138.2735 L141.5867 138.0255 "/>
<path d="M141.5867 138.0255 L141.0908 137.5296 "/>
<path d="M141.0908 137.5296 L140.8429 136.7858 "/>
<path d="M140.8429 136.7858 L140.8429 135.5461 "/>
<path d="M140.8429 143.4802 L140.8429 140.5049 "/>
<path d="M140.8429 141.9926 L146.0496 141.9926 "/>
<path d="M146.0496 141.9926 L145.3058 141.4967 "/>
<path d="M145.3058 141.4967 L144.8099 141.0008 "/>
<path d="M144.8099 141.0008 L144.5620 140.5049 "/>
</g></g>
<g style="fill:#000084; fill-opacity:0.01;  stroke:#000084; stroke-width:0.5687; stroke-opacity:1;  stroke-linecap:round; stroke-linejoin:round;">
<g transform="rotate(-90.000000 112.4623 49.7883)">
<text x="112.4623" y="51.0909" transform="scale(-1 1) translate(-224.924693 0)" textLength="6.2717" font-size="3.4738" lengthAdjust="spacingAndGlyphs" text-anchor="middle" opacity="0.01" style="font-family:monospace">R1</text>
</g>
<g class="stroked-text"><desc>R1</desc>
<path d="M111.2866 49.3540 L112.5273 48.4856 "/>
<path d="M111.2866 47.8653 L113.8920 47.8653 "/>
<path d="M113.8920 47.8653 L113.8920 48.8578 "/>
<path d="M113.8920 48.8578 L113.7679 49.1059 "/>
<path d="M113.7679 49.1059 L113.6439 49.2300 "/>
<path d="M113.6439 49.2300 L113.3957 49.3540 "/>
<path d="M113.3957 49.3540 L113.0235 49.3540 "/>
<path d="M113.0235 49.3540 L112.7754 49.2300 "/>
<path d="M112.7754 49.2300 L112.6513 49.1059 "/>
<path d="M112.6513 49.1059 L112.5273 48.8578 "/>
<path d="M112.5273 48.8578 L112.5273 47.8653 "/>
<path d="M111.2866 51.8353 L111.2866 50.3466 "/>
<path d="M111.2866 51.0910 L113.8920 51.0910 "/>
<path d="M113.8920 51.0910 L113.5198 50.8428 "/>
<path d="M113.5198 50.8428 L113.2717 50.5947 "/>
<path d="M113.2717 50.5947 L113.1476 50.3466 "/>
</g><g transform="rotate(-90.000000 116.0993 49.1270)">
<text x="116.0993" y="50.4297" transform="scale(-1 1) translate(-232.198570 0)" textLength="8.7530" font-size="3.4738" lengthAdjust="spacingAndGlyphs" text-anchor="middle" opacity="0.01" style="font-family:monospace">10R</text>
</g>
<g class="stroked-text"><desc>10R</desc>
<path d="M114.9236 47.3281 L114.9236 45.8393 "/>
<path d="M114.9236 46.5837 L117.5289 46.5837 "/>
<path d="M117.5289 46.5837 L117.1567 46.3355 "/>
<path d="M117.1567 46.3355 L116.9086 46.0874 "/>
<path d="M116.9086 46.0874 L116.7845 45.8393 "/>
<path d="M117.5289 48.9409 L117.5289 49.1890 "/>
<path d="M117.5289 49.1890 L117.4049 49.4372 "/>
<path d="M117.4049 49.4372 L117.2808 49.5612 "/>
<path d="M117.2808 49.5612 L117.0327 49.6853 "/>
<path d="M117.0327 49.6853 L116.5364 49.8094 "/>
<path d="M116.5364 49.8094 L115.9161 49.8094 "/>
<path d="M115.9161 49.8094 L115.4198 49.6853 "/>
<path d="M115.4198 49.6853 L115.1717 49.5612 "/>
<path d="M115.1717 49.5612 L115.0476 49.4372 "/>
<path d="M115.0476 49.4372 L114.9236 49.1890 "/>
<path d="M114.9236 49.1890 L114.9236 48.9409 "/>
<path d="M114.9236 48.9409 L115.0476 48.6928 "/>
<path d="M115.0476 48.6928 L115.1717 48.5687 "/>
<path d="M115.1717 48.5687 L115.4198 48.4446 "/>
<path d="M115.4198 48.4446 L115.9161 48.3206 "/>
<path d="M115.9161 48.3206 L116.5364 48.3206 "/>
<path d="M116.5364 48.3206 L117.0327 48.4446 "/>
<path d="M117.0327 48.4446 L117.2808 48.5687 "/>
<path d="M117.2808 48.5687 L117.4049 48.6928 "/>
<path d="M117.4049 48.6928 L117.5289 48.9409 "/>
<path d="M114.9236 52.4147 L116.1642 51.5463 "/>
<path d="M114.9236 50.9259 L117.5289 50.9259 "/>
<path d="M117.5289 50.9259 L117.5289 51.9185 "/>
<path d="M117.5289 51.9185 L117.4049 52.1666 "/>
<path d="M117.4049 52.1666 L117.2808 52.2907 "/>
<path d="M117.2808 52.2907 L117.0327 52.4147 "/>
<path d="M117.0327 52.4147 L116.6605 52.4147 "/>
<path d="M116.6605 52.4147 L116.4123 52.2907 "/>
<path d="M116.4123 52.2907 L116.2883 52.1666 "/>
<path d="M116.2883 52.1666 L116.1642 51.9185 "/>
<path d="M116.1642 51.9185 L116.1642 50.9259 "/>
</g><g transform="rotate(-90.000000 128.9939 65.6585)">
<text x="128.9939" y="66.9612" transform="scale(-1 1) translate(-257.987770 0)" textLength="6.2717" font-size="3.4738" lengthAdjust="spacingAndGlyphs" text-anchor="middle" opacity="0.01" style="font-family:monospace">R3</text>
</g>
<g class="stroked-text"><desc>R3</desc>
<path d="M127.8182 65.2243 L129.0588 64.3559 "/>
<path d="M127.8182 63.7355 L130.4235 63.7355 "/>
<path d="M130.4235 63.7355 L130.4235 64.7281 "/>
<path d="M130.4235 64.7281 L130.2995 64.9762 "/>
<path d="M130.2995 64.9762 L130.1754 65.1002 "/>
<path d="M130.1754 65.1002 L129.9273 65.2243 "/>
<path d="M129.9273 65.2243 L129.5551 65.2243 "/>
<path d="M129.5551 65.2243 L129.3069 65.1002 "/>
<path d="M129.3069 65.1002 L129.1829 64.9762 "/>
<path d="M129.1829 64.9762 L129.0588 64.7281 "/>
<path d="M129.0588 64.7281 L129.0588 63.7355 "/>
<path d="M130.4235 66.0928 L130.4235 67.7056 "/>
<path d="M130.4235 67.7056 L129.4310 66.8372 "/>
<path d="M129.4310 66.8372 L129.4310 67.2094 "/>
<path d="M129.4310 67.2094 L129.3069 67.4575 "/>
<path d="M129.3069 67.4575 L129.1829 67.5816 "/>
<path d="M129.1829 67.5816 L128.9348 67.7056 "/>
<path d="M128.9348 67.7056 L128.3144 67.7056 "/>
<path d="M128.3144 67.7056 L128.0663 67.5816 "/>
<path d="M128.0663 67.5816 L127.9422 67.4575 "/>
<path d="M127.9422 67.4575 L127.8182 67.2094 "/>
<path d="M127.8182 67.2094 L127.8182 66.4650 "/>
<path d="M127.8182 66.4650 L127.9422 66.2168 "/>
<path d="M127.9422 66.2168 L128.0663 66.0928 "/>
</g><g transform="rotate(-90.000000 125.3569 66.3198)">
<text x="125.3569" y="67.6225" transform="scale(-1 1) translate(-250.713893 0)" textLength="8.6289" font-size="3.4738" lengthAdjust="spacingAndGlyphs" text-anchor="middle" opacity="0.01" style="font-family:monospace">100</text>
</g>
<g class="stroked-text"><desc>100</desc>
<path d="M124.1812 64.5829 L124.1812 63.0941 "/>
<path d="M124.1812 63.8385 L126.7866 63.8385 "/>
<path d="M126.7866 63.8385 L126.4144 63.5904 "/>
<path d="M126.4144 63.5904 L126.1663 63.3422 "/>
<path d="M126.1663 63.3422 L126.0422 63.0941 "/>
<path d="M126.7866 66.1957 L126.7866 66.4439 "/>
<path d="M126.7866 66.4439 L126.6625 66.6920 "/>
<path d="M126.6625 66.6920 L126.5385 66.8161 "/>
<path d="M126.5385 66.8161 L126.2903 66.9401 "/>
<path d="M126.2903 66.9401 L125.7941 67.0642 "/>
<path d="M125.7941 67.0642 L125.1738 67.0642 "/>
<path d="M125.1738 67.0642 L124.6775 66.9401 "/>
<path d="M124.6775 66.9401 L124.4294 66.8161 "/>
<path d="M124.4294 66.8161 L124.3053 66.6920 "/>
<path d="M124.3053 66.6920 L124.1812 66.4439 "/>
<path d="M124.1812 66.4439 L124.1812 66.1957 "/>
<path d="M124.1812 66.1957 L124.3053 65.9476 "/>
<path d="M124.3053 65.9476 L124.4294 65.8235 "/>
<path d="M124.4294 65.8235 L124.6775 65.6995 "/>
<path d="M124.6775 65.6995 L125.1738 65.5754 "/>
<path d="M125.1738 65.5754 L125.7941 65.5754 "/>
<path d="M125.7941 65.5754 L126.2903 65.6995 "/>
<path d="M126.2903 65.6995 L126.5385 65.8235 "/>
<path d="M126.5385 65.8235 L126.6625 65.9476 "/>
<path d="M126.6625 65.9476 L126.7866 66.1957 "/>
<path d="M126.7866 68.6770 L126.7866 68.9252 "/>
<path d="M126.7866 68.9252 L126.6625 69.1733 "/>
<path d="M126.6625 69.1733 L126.5385 69.2974 "/>
<path d="M126.5385 69.2974 L126.2903 69.4214 "/>
<path d="M126.2903 69.4214 L125.7941 69.5455 "/>
<path d="M125.7941 69.5455 L125.1738 69.5455 "/>
<path d="M125.1738 69.5455 L124.6775 69.4214 "/>
<path d="M124.6775 69.4214 L124.4294 69.2974 "/>
<path d="M124.4294 69.2974 L124.3053 69.1733 "/>
<path d="M124.3053 69.1733 L124.1812 68.9252 "/>
<path d="M124.1812 68.9252 L124.1812 68.6770 "/>
<path d="M124.1812 68.6770 L124.3053 68.4289 "/>
<path d="M124.3053 68.4289 L124.4294 68.3048 "/>
<path d="M124.4294 68.3048 L124.6775 68.1808 "/>
<path d="M124.6775 68.1808 L125.1738 68.0567 "/>
<path d="M125.1738 68.0567 L125.7941 68.0567 "/>
<path d="M125.7941 68.0567 L126.2903 68.1808 "/>
<path d="M126.2903 68.1808 L126.5385 68.3048 "/>
<path d="M126.5385 68.3048 L126.6625 68.4289 "/>
<path d="M126.6625 68.4289 L126.7866 68.6770 "/>
</g><g transform="rotate(-90.000000 147.5092 110.6243)">
<text x="147.5092" y="111.9270" transform="scale(-1 1) translate(-295.018415 0)" textLength="6.2717" font-size="3.4738" lengthAdjust="spacingAndGlyphs" text-anchor="middle" opacity="0.01" style="font-family:monospace">R4</text>
</g>
<g class="stroked-text"><desc>R4</desc>
<path d="M146.3335 110.1901 L147.5741 109.3216 "/>
<path d="M146.3335 108.7013 L148.9389 108.7013 "/>
<path d="M148.9389 108.7013 L148.9389 109.6938 "/>
<path d="M148.9389 109.6938 L148.8148 109.9420 "/>
<path d="M148.8148 109.9420 L148.6907 110.0660 "/>
<path d="M148.6907 110.0660 L148.4426 110.1901 "/>
<path d="M148.4426 110.1901 L148.0704 110.1901 "/>
<path d="M148.0704 110.1901 L147.8223 110.0660 "/>
<path d="M147.8223 110.0660 L147.6982 109.9420 "/>
<path d="M147.6982 109.9420 L147.5741 109.6938 "/>
<path d="M147.5741 109.6938 L147.5741 108.7013 "/>
<path d="M148.0704 112.4233 L146.3335 112.4233 "/>
<path d="M149.0629 111.8029 L147.2019 111.1826 "/>
<path d="M147.2019 111.1826 L147.2019 112.7955 "/>
</g><g transform="rotate(-90.000000 143.8723 111.2856)">
<text x="143.8723" y="112.5883" transform="scale(-1 1) translate(-287.744538 0)" textLength="8.6289" font-size="3.4738" lengthAdjust="spacingAndGlyphs" text-anchor="middle" opacity="0.01" style="font-family:monospace">100</text>
</g>
<g class="stroked-text"><desc>100</desc>
<path d="M142.6966 109.5487 L142.6966 108.0599 "/>
<path d="M142.6966 108.8043 L145.3019 108.8043 "/>
<path d="M145.3019 108.8043 L144.9297 108.5561 "/>
<path d="M144.9297 108.5561 L144.6816 108.3080 "/>
<path d="M144.6816 108.3080 L144.5575 108.0599 "/>
<path d="M145.3019 111.1615 L145.3019 111.4096 "/>
<path d="M145.3019 111.4096 L145.1779 111.6578 "/>
<path d="M145.1779 111.6578 L145.0538 111.7818 "/>
<path d="M145.0538 111.7818 L144.8057 111.9059 "/>
<path d="M144.8057 111.9059 L144.3094 112.0300 "/>
<path d="M144.3094 112.0300 L143.6891 112.0300 "/>
<path d="M143.6891 112.0300 L143.1928 111.9059 "/>
<path d="M143.1928 111.9059 L142.9447 111.7818 "/>
<path d="M142.9447 111.7818 L142.8206 111.6578 "/>
<path d="M142.8206 111.6578 L142.6966 111.4096 "/>
<path d="M142.6966 111.4096 L142.6966 111.1615 "/>
<path d="M142.6966 111.1615 L142.8206 110.9134 "/>
<path d="M142.8206 110.9134 L142.9447 110.7893 "/>
<path d="M142.9447 110.7893 L143.1928 110.6653 "/>
<path d="M143.1928 110.6653 L143.6891 110.5412 "/>
<path d="M143.6891 110.5412 L144.3094 110.5412 "/>
<path d="M144.3094 110.5412 L144.8057 110.6653 "/>
<path d="M144.8057 110.6653 L145.0538 110.7893 "/>
<path d="M145.0538 110.7893 L145.1779 110.9134 "/>
<path d="M145.1779 110.9134 L145.3019 111.1615 "/>
<path d="M145.3019 113.6428 L145.3019 113.8910 "/>
<path d="M145.3019 113.8910 L145.1779 114.1391 "/>
<path d="M145.1779 114.1391 L145.0538 114.2631 "/>
<path d="M145.0538 114.2631 L144.8057 114.3872 "/>
<path d="M144.8057 114.3872 L144.3094 114.5113 "/>
<path d="M144.3094 114.5113 L143.6891 114.5113 "/>
<path d="M143.6891 114.5113 L143.1928 114.3872 "/>
<path d="M143.1928 114.3872 L142.9447 114.2631 "/>
<path d="M142.9447 114.2631 L142.8206 114.1391 "/>
<path d="M142.8206 114.1391 L142.6966 113.8910 "/>
<path d="M142.6966 113.8910 L142.6966 113.6428 "/>
<path d="M142.6966 113.6428 L142.8206 113.3947 "/>
<path d="M142.8206 113.3947 L142.9447 113.2706 "/>
<path d="M142.9447 113.2706 L143.1928 113.1466 "/>
<path d="M143.1928 113.1466 L143.6891 113.0225 "/>
<path d="M143.6891 113.0225 L144.3094 113.0225 "/>
<path d="M144.3094 113.0225 L144.8057 113.1466 "/>
<path d="M144.8057 113.1466 L145.0538 113.2706 "/>
<path d="M145.0538 113.2706 L145.1779 113.3947 "/>
<path d="M145.1779 113.3947 L145.3019 113.6428 "/>
</g><text x="172.6371" y="150.2802" transform="scale(-1 1) translate(-345.274291 0)" textLength="6.2717" font-size="3.4738" lengthAdjust="spacingAndGlyphs" text-anchor="middle" opacity="0.01" style="font-family:monospace">R5</text>
<g class="stroked-text"><desc>R5</desc>
<path d="M172.2029 150.1532 L171.3345 148.9126 "/>
<path d="M170.7141 150.1532 L170.7141 147.5478 "/>
<path d="M170.7141 147.5478 L171.7067 147.5478 "/>
<path d="M171.7067 147.5478 L171.9548 147.6719 "/>
<path d="M171.9548 147.6719 L172.0789 147.7960 "/>
<path d="M172.0789 147.7960 L172.2029 148.0441 "/>
<path d="M172.2029 148.0441 L172.2029 148.4163 "/>
<path d="M172.2029 148.4163 L172.0789 148.6644 "/>
<path d="M172.0789 148.6644 L171.9548 148.7885 "/>
<path d="M171.9548 148.7885 L171.7067 148.9126 "/>
<path d="M171.7067 148.9126 L170.7141 148.9126 "/>
<path d="M174.5602 147.5478 L173.3195 147.5478 "/>
<path d="M173.3195 147.5478 L173.1954 148.7885 "/>
<path d="M173.1954 148.7885 L173.3195 148.6644 "/>
<path d="M173.3195 148.6644 L173.5676 148.5404 "/>
<path d="M173.5676 148.5404 L174.1880 148.5404 "/>
<path d="M174.1880 148.5404 L174.4361 148.6644 "/>
<path d="M174.4361 148.6644 L174.5602 148.7885 "/>
<path d="M174.5602 148.7885 L174.6842 149.0366 "/>
<path d="M174.6842 149.0366 L174.6842 149.6570 "/>
<path d="M174.6842 149.6570 L174.5602 149.9051 "/>
<path d="M174.5602 149.9051 L174.4361 150.0291 "/>
<path d="M174.4361 150.0291 L174.1880 150.1532 "/>
<path d="M174.1880 150.1532 L173.5676 150.1532 "/>
<path d="M173.5676 150.1532 L173.3195 150.0291 "/>
<path d="M173.3195 150.0291 L173.1954 149.9051 "/>
</g><text x="171.9759" y="146.6432" transform="scale(-1 1) translate(-343.951768 0)" textLength="8.6289" font-size="3.4738" lengthAdjust="spacingAndGlyphs" text-anchor="middle" opacity="0.01" style="font-family:monospace">100</text>
<g class="stroked-text"><desc>100</desc>
<path d="M170.2390 146.5163 L168.7502 146.5163 "/>
<path d="M169.4946 146.5163 L169.4946 143.9109 "/>
<path d="M169.4946 143.9109 L169.2465 144.2831 "/>
<path d="M169.2465 144.2831 L168.9983 144.5312 "/>
<path d="M168.9983 144.5312 L168.7502 144.6553 "/>
<path d="M171.8518 143.9109 L172.1000 143.9109 "/>
<path d="M172.1000 143.9109 L172.3481 144.0350 "/>
<path d="M172.3481 144.0350 L172.4721 144.1590 "/>
<path d="M172.4721 144.1590 L172.5962 144.4072 "/>
<path d="M172.5962 144.4072 L172.7203 144.9034 "/>
<path d="M172.7203 144.9034 L172.7203 145.5238 "/>
<path d="M172.7203 145.5238 L172.5962 146.0200 "/>
<path d="M172.5962 146.0200 L172.4721 146.2681 "/>
<path d="M172.4721 146.2681 L172.3481 146.3922 "/>
<path d="M172.3481 146.3922 L172.1000 146.5163 "/>
<path d="M172.1000 146.5163 L171.8518 146.5163 "/>
<path d="M171.8518 146.5163 L171.6037 146.3922 "/>
<path d="M171.6037 146.3922 L171.4796 146.2681 "/>
<path d="M171.4796 146.2681 L171.3556 146.0200 "/>
<path d="M171.3556 146.0200 L171.2315 145.5238 "/>
<path d="M171.2315 145.5238 L171.2315 144.9034 "/>
<path d="M171.2315 144.9034 L171.3556 144.4072 "/>
<path d="M171.3556 144.4072 L171.4796 144.1590 "/>
<path d="M171.4796 144.1590 L171.6037 144.0350 "/>
<path d="M171.6037 144.0350 L171.8518 143.9109 "/>
<path d="M174.3331 143.9109 L174.5813 143.9109 "/>
<path d="M174.5813 143.9109 L174.8294 144.0350 "/>
<path d="M174.8294 144.0350 L174.9535 144.1590 "/>
<path d="M174.9535 144.1590 L175.0775 144.4072 "/>
<path d="M175.0775 144.4072 L175.2016 144.9034 "/>
<path d="M175.2016 144.9034 L175.2016 145.5238 "/>
<path d="M175.2016 145.5238 L175.0775 146.0200 "/>
<path d="M175.0775 146.0200 L174.9535 146.2681 "/>
<path d="M174.9535 146.2681 L174.8294 146.3922 "/>
<path d="M174.8294 146.3922 L174.5813 146.5163 "/>
<path d="M174.5813 146.5163 L174.3331 146.5163 "/>
<path d="M174.3331 146.5163 L174.0850 146.3922 "/>
<path d="M174.0850 146.3922 L173.9609 146.2681 "/>
<path d="M173.9609 146.2681 L173.8369 146.0200 "/>
<path d="M173.8369 146.0200 L173.7128 145.5238 "/>
<path d="M173.7128 145.5238 L173.7128 144.9034 "/>
<path d="M173.7128 144.9034 L173.8369 144.4072 "/>
<path d="M173.8369 144.4072 L173.9609 144.1590 "/>
<path d="M173.9609 144.1590 L174.0850 144.0350 "/>
<path d="M174.0850 144.0350 L174.3331 143.9109 "/>
</g><text x="199.0876" y="83.4928" transform="scale(-1 1) translate(-398.175214 0)" textLength="8.7530" font-size="3.4738" lengthAdjust="spacingAndGlyphs" text-anchor="middle" opacity="0.01" style="font-family:monospace">R12</text>
<g class="stroked-text"><desc>R12</desc>
<path d="M197.4127 83.3658 L196.5443 82.1251 "/>
<path d="M195.9239 83.3658 L195.9239 80.7604 "/>
<path d="M195.9239 80.7604 L196.9165 80.7604 "/>
<path d="M196.9165 80.7604 L197.1646 80.8845 "/>
<path d="M197.1646 80.8845 L197.2887 81.0086 "/>
<path d="M197.2887 81.0086 L197.4127 81.2567 "/>
<path d="M197.4127 81.2567 L197.4127 81.6289 "/>
<path d="M197.4127 81.6289 L197.2887 81.8770 "/>
<path d="M197.2887 81.8770 L197.1646 82.0011 "/>
<path d="M197.1646 82.0011 L196.9165 82.1251 "/>
<path d="M196.9165 82.1251 L195.9239 82.1251 "/>
<path d="M199.8940 83.3658 L198.4053 83.3658 "/>
<path d="M199.1496 83.3658 L199.1496 80.7604 "/>
<path d="M199.1496 80.7604 L198.9015 81.1326 "/>
<path d="M198.9015 81.1326 L198.6534 81.3808 "/>
<path d="M198.6534 81.3808 L198.4053 81.5048 "/>
<path d="M200.8866 81.0086 L201.0106 80.8845 "/>
<path d="M201.0106 80.8845 L201.2588 80.7604 "/>
<path d="M201.2588 80.7604 L201.8791 80.7604 "/>
<path d="M201.8791 80.7604 L202.1272 80.8845 "/>
<path d="M202.1272 80.8845 L202.2513 81.0086 "/>
<path d="M202.2513 81.0086 L202.3753 81.2567 "/>
<path d="M202.3753 81.2567 L202.3753 81.5048 "/>
<path d="M202.3753 81.5048 L202.2513 81.8770 "/>
<path d="M202.2513 81.8770 L200.7625 83.3658 "/>
<path d="M200.7625 83.3658 L202.3753 83.3658 "/>
</g><text x="199.7489" y="87.1297" transform="scale(-1 1) translate(-399.497737 0)" textLength="5.7754" font-size="3.4738" lengthAdjust="spacingAndGlyphs" text-anchor="middle" opacity="0.01" style="font-family:monospace">1k</text>
<g class="stroked-text"><desc>1k</desc>
<path d="M199.4387 87.0027 L197.9499 87.0027 "/>
<path d="M198.6943 87.0027 L198.6943 84.3974 "/>
<path d="M198.6943 84.3974 L198.4462 84.7696 "/>
<path d="M198.4462 84.7696 L198.1981 85.0177 "/>
<path d="M198.1981 85.0177 L197.9499 85.1418 "/>
<path d="M200.5553 87.0027 L200.5553 84.3974 "/>
<path d="M200.8034 86.0102 L201.5478 87.0027 "/>
<path d="M201.5478 85.2658 L200.5553 86.2583 "/>
</g><text x="166.6858" y="117.8784" transform="scale(-1 1) translate(-333.371584 0)" textLength="8.7530" font-size="3.4738" lengthAdjust="spacingAndGlyphs" text-anchor="middle" opacity="0.01" style="font-family:monospace">R13</text>
<g class="stroked-text"><desc>R13</desc>
<path d="M165.0109 117.7514 L164.1425 116.5107 "/>
<path d="M163.5221 117.7514 L163.5221 115.1460 "/>
<path d="M163.5221 115.1460 L164.5147 115.1460 "/>
<path d="M164.5147 115.1460 L164.7628 115.2701 "/>
<path d="M164.7628 115.2701 L164.8868 115.3942 "/>
<path d="M164.8868 115.3942 L165.0109 115.6423 "/>
<path d="M165.0109 115.6423 L165.0109 116.0145 "/>
<path d="M165.0109 116.0145 L164.8868 116.2626 "/>
<path d="M164.8868 116.2626 L164.7628 116.3867 "/>
<path d="M164.7628 116.3867 L164.5147 116.5107 "/>
<path d="M164.5147 116.5107 L163.5221 116.5107 "/>
<path d="M167.4922 117.7514 L166.0034 117.7514 "/>
<path d="M166.7478 117.7514 L166.7478 115.1460 "/>
<path d="M166.7478 115.1460 L166.4997 115.5182 "/>
<path d="M166.4997 115.5182 L166.2516 115.7664 "/>
<path d="M166.2516 115.7664 L166.0034 115.8904 "/>
<path d="M168.3607 115.1460 L169.9735 115.1460 "/>
<path d="M169.9735 115.1460 L169.1051 116.1385 "/>
<path d="M169.1051 116.1385 L169.4773 116.1385 "/>
<path d="M169.4773 116.1385 L169.7254 116.2626 "/>
<path d="M169.7254 116.2626 L169.8495 116.3867 "/>
<path d="M169.8495 116.3867 L169.9735 116.6348 "/>
<path d="M169.9735 116.6348 L169.9735 117.2551 "/>
<path d="M169.9735 117.2551 L169.8495 117.5033 "/>
<path d="M169.8495 117.5033 L169.7254 117.6273 "/>
<path d="M169.7254 117.6273 L169.4773 117.7514 "/>
<path d="M169.4773 117.7514 L168.7329 117.7514 "/>
<path d="M168.7329 117.7514 L168.4847 117.6273 "/>
<path d="M168.4847 117.6273 L168.3607 117.5033 "/>
</g><text x="167.3471" y="121.5153" transform="scale(-1 1) translate(-334.694107 0)" textLength="11.2343" font-size="3.4738" lengthAdjust="spacingAndGlyphs" text-anchor="middle" opacity="0.01" style="font-family:monospace">100R</text>
<g class="stroked-text"><desc>100R</desc>
<path d="M164.3075 121.3883 L162.8187 121.3883 "/>
<path d="M163.5631 121.3883 L163.5631 118.7830 "/>
<path d="M163.5631 118.7830 L163.3149 119.1552 "/>
<path d="M163.3149 119.1552 L163.0668 119.4033 "/>
<path d="M163.0668 119.4033 L162.8187 119.5274 "/>
<path d="M165.9203 118.7830 L166.1684 118.7830 "/>
<path d="M166.1684 118.7830 L166.4166 118.9070 "/>
<path d="M166.4166 118.9070 L166.5406 119.0311 "/>
<path d="M166.5406 119.0311 L166.6647 119.2792 "/>
<path d="M166.6647 119.2792 L166.7888 119.7755 "/>
<path d="M166.7888 119.7755 L166.7888 120.3958 "/>
<path d="M166.7888 120.3958 L166.6647 120.8921 "/>
<path d="M166.6647 120.8921 L166.5406 121.1402 "/>
<path d="M166.5406 121.1402 L166.4166 121.2643 "/>
<path d="M166.4166 121.2643 L166.1684 121.3883 "/>
<path d="M166.1684 121.3883 L165.9203 121.3883 "/>
<path d="M165.9203 121.3883 L165.6722 121.2643 "/>
<path d="M165.6722 121.2643 L165.5481 121.1402 "/>
<path d="M165.5481 121.1402 L165.4240 120.8921 "/>
<path d="M165.4240 120.8921 L165.3000 120.3958 "/>
<path d="M165.3000 120.3958 L165.3000 119.7755 "/>
<path d="M165.3000 119.7755 L165.4240 119.2792 "/>
<path d="M165.4240 119.2792 L165.5481 119.0311 "/>
<path d="M165.5481 119.0311 L165.6722 118.9070 "/>
<path d="M165.6722 118.9070 L165.9203 118.7830 "/>
<path d="M168.4016 118.7830 L168.6497 118.7830 "/>
<path d="M168.6497 118.7830 L168.8979 118.9070 "/>
<path d="M168.8979 118.9070 L169.0219 119.0311 "/>
<path d="M169.0219 119.0311 L169.1460 119.2792 "/>
<path d="M169.1460 119.2792 L169.2701 119.7755 "/>
<path d="M169.2701 119.7755 L169.2701 120.3958 "/>
<path d="M169.2701 120.3958 L169.1460 120.8921 "/>
<path d="M169.1460 120.8921 L169.0219 121.1402 "/>
<path d="M169.0219 121.1402 L168.8979 121.2643 "/>
<path d="M168.8979 121.2643 L168.6497 121.3883 "/>
<path d="M168.6497 121.3883 L168.4016 121.3883 "/>
<path d="M168.4016 121.3883 L168.1535 121.2643 "/>
<path d="M168.1535 121.2643 L168.0294 121.1402 "/>
<path d="M168.0294 121.1402 L167.9054 120.8921 "/>
<path d="M167.9054 120.8921 L167.7813 120.3958 "/>
<path d="M167.7813 120.3958 L167.7813 119.7755 "/>
<path d="M167.7813 119.7755 L167.9054 119.2792 "/>
<path d="M167.9054 119.2792 L168.0294 119.0311 "/>
<path d="M168.0294 119.0311 L168.1535 118.9070 "/>
<path d="M168.1535 118.9070 L168.4016 118.7830 "/>
<path d="M171.8754 121.3883 L171.0070 120.1477 "/>
<path d="M170.3867 121.3883 L170.3867 118.7830 "/>
<path d="M170.3867 118.7830 L171.3792 118.7830 "/>
<path d="M171.3792 118.7830 L171.6273 118.9070 "/>
<path d="M171.6273 118.9070 L171.7514 119.0311 "/>
<path d="M171.7514 119.0311 L171.8754 119.2792 "/>
<path d="M171.8754 119.2792 L171.8754 119.6514 "/>
<path d="M171.8754 119.6514 L171.7514 119.8996 "/>
<path d="M171.7514 119.8996 L171.6273 120.0236 "/>
<path d="M171.6273 120.0236 L171.3792 120.1477 "/>
<path d="M171.3792 120.1477 L170.3867 120.1477 "/>
</g></g>
<g style="fill:#000084; fill-opacity:0.01;  stroke:#000084; stroke-width:0.7810; stroke-opacity:1;  stroke-linecap:round; stroke-linejoin:round;">
<text x="116.6481" y="155.0856" transform="scale(-1 1) translate(-233.296160 0)" textLength="16.4262" font-size="6.9424" lengthAdjust="spacingAndGlyphs" text-anchor="middle" opacity="0.01" style="font-family:monospace">C21</text>
<g class="stroked-text"><desc>C21</desc>
<path d="M113.3009 154.3544 L113.0529 154.6024 "/>
<path d="M113.0529 154.6024 L112.3091 154.8503 "/>
<path d="M112.3091 154.8503 L111.8132 154.8503 "/>
<path d="M111.8132 154.8503 L111.0694 154.6024 "/>
<path d="M111.0694 154.6024 L110.5735 154.1065 "/>
<path d="M110.5735 154.1065 L110.3256 153.6106 "/>
<path d="M110.3256 153.6106 L110.0776 152.6188 "/>
<path d="M110.0776 152.6188 L110.0776 151.8750 "/>
<path d="M110.0776 151.8750 L110.3256 150.8833 "/>
<path d="M110.3256 150.8833 L110.5735 150.3874 "/>
<path d="M110.5735 150.3874 L111.0694 149.8915 "/>
<path d="M111.0694 149.8915 L111.8132 149.6435 "/>
<path d="M111.8132 149.6435 L112.3091 149.6435 "/>
<path d="M112.3091 149.6435 L113.0529 149.8915 "/>
<path d="M113.0529 149.8915 L113.3009 150.1394 "/>
<path d="M115.2844 150.1394 L115.5323 149.8915 "/>
<path d="M115.5323 149.8915 L116.0282 149.6435 "/>
<path d="M116.0282 149.6435 L117.2679 149.6435 "/>
<path d="M117.2679 149.6435 L117.7638 149.8915 "/>
<path d="M117.7638 149.8915 L118.0118 150.1394 "/>
<path d="M118.0118 150.1394 L118.2597 150.6353 "/>
<path d="M118.2597 150.6353 L118.2597 151.1312 "/>
<path d="M118.2597 151.1312 L118.0118 151.8750 "/>
<path d="M118.0118 151.8750 L115.0365 154.8503 "/>
<path d="M115.0365 154.8503 L118.2597 154.8503 "/>
<path d="M123.2185 154.8503 L120.2432 154.8503 "/>
<path d="M121.7309 154.8503 L121.7309 149.6435 "/>
<path d="M121.7309 149.6435 L121.2350 150.3874 "/>
<path d="M121.2350 150.3874 L120.7391 150.8833 "/>
<path d="M120.7391 150.8833 L120.2432 151.1312 "/>
</g><text x="148.5011" y="14.3639" transform="scale(-1 1) translate(-297.002200 0)" textLength="21.1371" font-size="6.9424" lengthAdjust="spacingAndGlyphs" text-anchor="middle" opacity="0.01" style="font-family:monospace">HOLE</text>
<g class="stroked-text"><desc>HOLE</desc>
<path d="M139.8231 14.1287 L139.8231 8.9219 "/>
<path d="M139.8231 11.4013 L142.7984 11.4013 "/>
<path d="M142.7984 14.1287 L142.7984 8.9219 "/>
<path d="M146.2696 8.9219 L147.2614 8.9219 "/>
<path d="M147.2614 8.9219 L147.7573 9.1698 "/>
<path d="M147.7573 9.1698 L148.2532 9.6657 "/>
<path d="M148.2532 9.6657 L148.5011 10.6575 "/>
<path d="M148.5011 10.6575 L148.5011 12.3931 "/>
<path d="M148.5011 12.3931 L148.2532 13.3848 "/>
<path d="M148.2532 13.3848 L147.7573 13.8807 "/>
<path d="M147.7573 13.8807 L147.2614 14.1287 "/>
<path d="M147.2614 14.1287 L146.2696 14.1287 "/>
<path d="M146.2696 14.1287 L145.7737 13.8807 "/>
<path d="M145.7737 13.8807 L145.2779 13.3848 "/>
<path d="M145.2779 13.3848 L145.0299 12.3931 "/>
<path d="M145.0299 12.3931 L145.0299 10.6575 "/>
<path d="M145.0299 10.6575 L145.2779 9.6657 "/>
<path d="M145.2779 9.6657 L145.7737 9.1698 "/>
<path d="M145.7737 9.1698 L146.2696 8.9219 "/>
<path d="M153.2120 14.1287 L150.7326 14.1287 "/>
<path d="M150.7326 14.1287 L150.7326 8.9219 "/>
<path d="M154.9476 11.4013 L156.6832 11.4013 "/>
<path d="M157.4270 14.1287 L154.9476 14.1287 "/>
<path d="M154.9476 14.1287 L154.9476 8.9219 "/>
<path d="M154.9476 8.9219 L157.4270 8.9219 "/>
</g></g>
<g style="fill:#000084; fill-opacity:0.0;  stroke:#000084; stroke-width:0.3905; stroke-opacity:1;  stroke-linecap:round; stroke-linejoin:round;">
<g transform="rotate(-90.000000 198.7570 115.5838)">
<text x="198.7570" y="116.8855" transform="scale(-1 1) translate(-397.513952 0)" textLength="5.8576" font-size="3.4712" lengthAdjust="spacingAndGlyphs" text-anchor="middle" opacity="0.01" style="font-family:monospace">U5</text>
</g>
<g class="stroked-text"><desc>U5</desc>
<path d="M200.1763 113.6002 L198.0688 113.6002 "/>
<path d="M198.0688 113.6002 L197.8208 113.7242 "/>
<path d="M197.8208 113.7242 L197.6969 113.8482 "/>
<path d="M197.6969 113.8482 L197.5729 114.0961 "/>
<path d="M197.5729 114.0961 L197.5729 114.5920 "/>
<path d="M197.5729 114.5920 L197.6969 114.8400 "/>
<path d="M197.6969 114.8400 L197.8208 114.9639 "/>
<path d="M197.8208 114.9639 L198.0688 115.0879 "/>
<path d="M198.0688 115.0879 L200.1763 115.0879 "/>
<path d="M200.1763 117.5673 L200.1763 116.3276 "/>
<path d="M200.1763 116.3276 L198.9366 116.2036 "/>
<path d="M198.9366 116.2036 L199.0606 116.3276 "/>
<path d="M199.0606 116.3276 L199.1845 116.5756 "/>
<path d="M199.1845 116.5756 L199.1845 117.1954 "/>
<path d="M199.1845 117.1954 L199.0606 117.4434 "/>
<path d="M199.0606 117.4434 L198.9366 117.5673 "/>
<path d="M198.9366 117.5673 L198.6886 117.6913 "/>
<path d="M198.6886 117.6913 L198.0688 117.6913 "/>
<path d="M198.0688 117.6913 L197.8208 117.5673 "/>
<path d="M197.8208 117.5673 L197.6969 117.4434 "/>
<path d="M197.6969 117.4434 L197.5729 117.1954 "/>
<path d="M197.5729 117.1954 L197.5729 116.5756 "/>
<path d="M197.5729 116.5756 L197.6969 116.3276 "/>
<path d="M197.6969 116.3276 L197.8208 116.2036 "/>
</g><g transform="rotate(-90.000000 174.9516 65.3279)">
<text x="174.9516" y="66.6296" transform="scale(-1 1) translate(-349.903122 0)" textLength="5.8576" font-size="3.4712" lengthAdjust="spacingAndGlyphs" text-anchor="middle" opacity="0.01" style="font-family:monospace">U1</text>
</g>
<g class="stroked-text"><desc>U1</desc>
<path d="M176.3709 63.3444 L174.2634 63.3444 "/>
<path d="M174.2634 63.3444 L174.0154 63.4683 "/>
<path d="M174.0154 63.4683 L173.8915 63.5923 "/>
<path d="M173.8915 63.5923 L173.7675 63.8403 "/>
<path d="M173.7675 63.8403 L173.7675 64.3361 "/>
<path d="M173.7675 64.3361 L173.8915 64.5841 "/>
<path d="M173.8915 64.5841 L174.0154 64.7081 "/>
<path d="M174.0154 64.7081 L174.2634 64.8320 "/>
<path d="M174.2634 64.8320 L176.3709 64.8320 "/>
<path d="M173.7675 67.4354 L173.7675 65.9478 "/>
<path d="M173.7675 66.6916 L176.3709 66.6916 "/>
<path d="M176.3709 66.6916 L175.9990 66.4437 "/>
<path d="M175.9990 66.4437 L175.7510 66.1957 "/>
<path d="M175.7510 66.1957 L175.6271 65.9478 "/>
</g></g>
<g style="fill:#000084; fill-opacity:0.0;  stroke:#000084; stroke-width:0.7810; stroke-opacity:1;  stroke-linecap:round; stroke-linejoin:round;">
<path d="M191.1525 101.0360 L191.1525 93.1009 "/>
<path d="M191.1525 93.1009 L196.4426 93.1009 "/>
<path d="M196.4426 101.0360 L191.1525 101.0360 "/>
<path d="M201.7327 93.1009 L207.0227 93.1009 "/>
<path d="M207.0227 101.0360 L201.7327 101.0360 "/>
<path d="M207.0227 93.1009 L207.0227 101.0360 "/>
</g>
<g style="fill:#000084; fill-opacity:0.0;  stroke:#000084; stroke-width:0.5207; stroke-opacity:1;  stroke-linecap:round; stroke-linejoin:round;">
<path d="M143.6380 49.7180 L156.3946 49.7180 "/>
<path d="M143.6380 49.7180 L141.2949 47.3749 "/>
<path d="M156.3946 40.5540 L156.3946 49.7180 "/>
<path d="M141.2949 40.5540 L141.2949 47.3749 "/>
<path d="M141.2949 40.5540 L156.3946 40.5540 "/>
</g>
<g style="fill:#000084; fill-opacity:0.0;  stroke:#000084; stroke-width:0.7810; stroke-opacity:1;  stroke-linecap:round; stroke-linejoin:round;">
<path d="M195.6623 177.3324 L164.4243 177.3324 "/>
<path d="M195.7813 159.6370 L164.5433 159.6370 "/>
<path d="M127.6714 127.4865 L127.6714 135.4216 "/>
<path d="M127.6714 135.4216 L122.3813 135.4216 "/>
<path d="M122.3813 127.4865 L127.6714 127.4865 "/>
<path d="M117.0912 135.4216 L111.8011 135.4216 "/>
<path d="M111.8011 127.4865 L117.0912 127.4865 "/>
<path d="M111.8011 135.4216 L111.8011 127.4865 "/>
<path d="M137.5903 45.4901 L137.5903 53.4252 "/>
<path d="M137.5903 53.4252 L132.3002 53.4252 "/>
<path d="M132.3002 45.4901 L137.5903 45.4901 "/>
<path d="M127.0101 53.4252 L121.7200 53.4252 "/>
<path d="M121.7200 45.4901 L127.0101 45.4901 "/>
<path d="M121.7200 53.4252 L121.7200 45.4901 "/>
<path d="M146.1867 98.3910 L146.1867 90.4558 "/>
<path d="M146.1867 90.4558 L151.4768 90.4558 "/>
<path d="M151.4768 98.3910 L146.1867 98.3910 "/>
<path d="M156.7669 90.4558 L162.0570 90.4558 "/>
<path d="M162.0570 98.3910 L156.7669 98.3910 "/>
<path d="M162.0570 90.4558 L162.0570 98.3910 "/>
<path d="M185.2011 151.2919 L185.2011 143.3568 "/>
<path d="M185.2011 143.3568 L190.4912 143.3568 "/>
<path d="M190.4912 151.2919 L185.2011 151.2919 "/>
<path d="M195.7813 143.3568 L201.0714 143.3568 "/>
<path d="M201.0714 151.2919 L195.7813 151.2919 "/>
<path d="M201.0714 143.3568 L201.0714 151.2919 "/>
<path d="M137.5903 32.2648 L137.5903 40.2000 "/>
<path d="M137.5903 40.2000 L132.3002 40.2000 "/>
<path d="M132.3002 32.2648 L137.5903 32.2648 "/>
<path d="M127.0101 40.2000 L121.7200 40.2000 "/>
<path d="M121.7200 32.2648 L127.0101 32.2648 "/>
<path d="M121.7200 40.2000 L121.7200 32.2648 "/>
<path d="M146.1867 87.8108 L146.1867 79.8757 "/>
<path d="M146.1867 79.8757 L151.4768 79.8757 "/>
<path d="M151.4768 87.8108 L146.1867 87.8108 "/>
<path d="M156.7669 79.8757 L162.0570 79.8757 "/>
<path d="M162.0570 87.8108 L156.7669 87.8108 "/>
<path d="M162.0570 79.8757 L162.0570 87.8108 "/>
<path d="M185.8624 138.0667 L185.8624 130.1315 "/>
<path d="M185.8624 130.1315 L191.1525 130.1315 "/>
<path d="M191.1525 138.0667 L185.8624 138.0667 "/>
<path d="M196.4426 130.1315 L201.7327 130.1315 "/>
<path d="M201.7327 138.0667 L196.4426 138.0667 "/>
<path d="M201.7327 130.1315 L201.7327 138.0667 "/>
<path d="M153.4606 64.0054 L153.4606 71.9405 "/>
<path d="M153.4606 71.9405 L148.1705 71.9405 "/>
<path d="M148.1705 64.0054 L153.4606 64.0054 "/>
<path d="M142.8804 71.9405 L137.5903 71.9405 "/>
<path d="M137.5903 64.0054 L142.8804 64.0054 "/>
<path d="M137.5903 71.9405 L137.5903 64.0054 "/>
</g>
<g style="fill:#000084; fill-opacity:0.0;  stroke:#000084; stroke-width:0.5207; stroke-opacity:1;  stroke-linecap:round; stroke-linejoin:round;">
<path d="M135.4008 145.9289 L151.0212 145.9289 "/>
<path d="M143.2057 154.5230 L143.2057 149.8281 "/>
<path d="M143.2057 154.5230 L139.3043 160.5141 "/>
<path d="M143.2057 154.5230 L147.3716 160.5141 "/>
<path d="M147.3716 154.5230 L139.0397 154.5230 "/>
<path d="M139.3043 160.5141 L147.3716 160.5141 "/>
<path d="M143.2057 160.5141 L143.2057 165.7116 "/>
<path d="M135.4008 169.8801 L135.4008 145.9289 "/>
<path d="M151.0212 169.8801 L151.0212 145.9289 "/>
<path d="M151.0212 169.8801 L135.4008 169.8801 "/>
</g>
<g style="fill:#000084; fill-opacity:0.0;  stroke:#000084; stroke-width:0.7810; stroke-opacity:1;  stroke-linecap:round; stroke-linejoin:round;">
<path d="M118.0831 57.7234 L110.1479 57.7234 "/>
<path d="M110.1479 57.7234 L110.1479 52.4333 "/>
<path d="M118.0831 52.4333 L118.0831 57.7234 "/>
<path d="M110.1479 47.1432 L110.1479 41.8531 "/>
<path d="M118.0831 41.8531 L118.0831 47.1432 "/>
<path d="M110.1479 41.8531 L118.0831 41.8531 "/>
<path d="M123.3732 57.7234 L131.3083 57.7234 "/>
<path d="M131.3083 57.7234 L131.3083 63.0135 "/>
<path d="M123.3732 63.0135 L123.3732 57.7234 "/>
<path d="M131.3083 68.3036 L131.3083 73.5937 "/>
<path d="M123.3732 73.5937 L123.3732 68.3036 "/>
<path d="M131.3083 73.5937 L123.3732 73.5937 "/>
<path d="M141.8885 102.6892 L149.8236 102.6892 "/>
<path d="M149.8236 102.6892 L149.8236 107.9793 "/>
<path d="M141.8885 107.9793 L141.8885 102.6892 "/>
<path d="M149.8236 113.2694 L149.8236 118.5595 "/>
<path d="M141.8885 118.5595 L141.8885 113.2694 "/>
<path d="M149.8236 118.5595 L141.8885 118.5595 "/>
<path d="M180.5723 143.3568 L180.5723 151.2919 "/>
<path d="M180.5723 151.2919 L175.2822 151.2919 "/>
<path d="M175.2822 143.3568 L180.5723 143.3568 "/>
<path d="M169.9921 151.2919 L164.7020 151.2919 "/>
<path d="M164.7020 143.3568 L169.9921 143.3568 "/>
<path d="M164.7020 151.2919 L164.7020 143.3568 "/>
<path d="M191.1525 87.8108 L191.1525 79.8757 "/>
<path d="M191.1525 79.8757 L196.4426 79.8757 "/>
<path d="M196.4426 87.8108 L191.1525 87.8108 "/>
<path d="M201.7327 79.8757 L207.0227 79.8757 "/>
<path d="M207.0227 87.8108 L201.7327 87.8108 "/>
<path d="M207.0227 79.8757 L207.0227 87.8108 "/>
<path d="M158.7507 122.1964 L158.7507 114.2613 "/>
<path d="M158.7507 114.2613 L164.0407 114.2613 "/>
<path d="M164.0407 122.1964 L158.7507 122.1964 "/>
<path d="M169.3308 114.2613 L174.6209 114.2613 "/>
<path d="M174.6209 122.1964 L169.3308 122.1964 "/>
<path d="M174.6209 114.2613 L174.6209 122.1964 "/>
<path d="M129.0798 148.6469 L129.0798 156.5820 "/>
<path d="M129.0798 156.5820 L107.9194 156.5820 "/>
<path d="M107.9194 148.6469 L129.0798 148.6469 "/>
<path d="M107.9194 156.5820 L107.9194 148.6469 "/>
</g>
<g style="fill:#000084; fill-opacity:0.0;  stroke:#000084; stroke-width:0.5207; stroke-opacity:1;  stroke-linecap:round; stroke-linejoin:round;">
<path d="M231.8096 19.0500 L65.1926 19.0500 "/>
<path d="M231.8096 185.6671 L231.8096 19.0500 "/>
<path d="M65.1926 19.0500 L65.1926 185.6671 "/>
<path d="M65.1926 185.6671 L231.8096 185.6671 "/>
<path d="M203.4431 120.2699 L203.4431 107.5133 "/>
<path d="M203.4431 120.2699 L200.0587 123.6543 "/>
<path d="M194.0709 107.5133 L203.4431 107.5133 "/>
<path d="M194.0709 123.6543 L200.0587 123.6543 "/>
<path d="M194.0709 123.6543 L194.0709 107.5133 "/>
<path d="M179.6377 70.0140 L179.6377 57.2574 "/>
<path d="M179.6377 70.0140 L176.2533 73.3984 "/>
<path d="M170.2655 57.2574 L179.6377 57.2574 "/>
<path d="M170.2655 73.3984 L176.2533 73.3984 "/>
<path d="M170.2655 73.3984 L170.2655 57.2574 "/>
<g>
</g>
<g>
</g>
<g>
</g>
<g>
</g>
<g>
</g>
<g>
</g>
<g>
</g>
<g>
</g>
<g>
</g>
<g>
</g>
<g>
</g>
<g>
</g>
<g>
</g>
<g>
</g>
<g>
</g>
<g>
</g>
<g>
</g>
<g>
</g>
<g>
</g>
<g>
</g>
<g>
</g>
<g>
</g>
<g>
</g>
<g>
</g>
<g>
</g>
<g>
</g>
<g>
</g>
<g>
</g>
<g>
</g>
<g>
</g>
<g>
</g>
<g>
</g>
<g>
</g>
<g>
</g>
<g>
</g>
<g>
</g>
</g> 
<svg:g><svg:g><svg:title>SVG Image created as PCRD07-Edge_Cuts.svg date 2023/09/10 08:56:35 </svg:title>
  <svg:desc>Image generated by PCBNEW </svg:desc>
<svg:g style="fill:#C2C200; fill-opacity:1.0000;stroke:#C2C200; stroke-opacity:1.0000; stroke-linecap:round; stroke-linejoin:round;" transform="translate(0 0) scale(1 1)">
</svg:g>
<svg:g style="fill:#C2C200; fill-opacity:0.0;  stroke:#C2C200; stroke-width:0.0000; stroke-opacity:1;  stroke-linecap:round; stroke-linejoin:round;">
</svg:g>
<svg:g style="fill:#C2C200; fill-opacity:0.0;  stroke:#C2C200; stroke-width:1.0414; stroke-opacity:1;  stroke-linecap:round; stroke-linejoin:round;">
<svg:path d="M279.4309 0.5243 L17.5713 0.5243 "/>
<svg:path d="M279.4309 209.4829 L17.5713 209.4829 "/>
<svg:path d="M17.5713 209.4829 L17.5713 0.5243 "/>
<svg:path d="M279.4309 209.4829 L279.4309 0.5243 "/>
<svg:g>
</svg:g>
<svg:g>
</svg:g>
<svg:g>
</svg:g>
<svg:g>
</svg:g>
<svg:g>
</svg:g>
<svg:g>
</svg:g>
<svg:g>
</svg:g>
<svg:g>
</svg:g>
<svg:g>
</svg:g>
<svg:g>
</svg:g>
<svg:g>
</svg:g>
<svg:g>
</svg:g>
<svg:g>
</svg:g>
<svg:g>
</svg:g>
<svg:g>
</svg:g>
<svg:g>
</svg:g>
<svg:g>
</svg:g>
<svg:g>
</svg:g>
<svg:g>
</svg:g>
<svg:g>
</svg:g>
<svg:g>
</svg:g>
<svg:g>
</svg:g>
<svg:g>
</svg:g>
<svg:g>
</svg:g>
<svg:g>
</svg:g>
<svg:g>
</svg:g>
<svg:g>
</svg:g>
<svg:g>
</svg:g>
<svg:g>
</svg:g>
<svg:g>
</svg:g>
<svg:g>
</svg:g>
<svg:g>
</svg:g>
<svg:g>
</svg:g>
<svg:g>
</svg:g>
<svg:g>
</svg:g>
<svg:g>
</svg:g>
</svg:g> 
</svg:g></svg:g></svg>
