<?xml version='1.0' encoding='ASCII' standalone='yes'?>
<svg xmlns:svg="http://www.w3.org/2000/svg" xmlns="http://www.w3.org/2000/svg" xmlns:xlink="http://www.w3.org/1999/xlink" version="1.1" width="297.0022mm" height="210.0072mm" viewBox="0.0000 0.0000 297.0022 210.0072">
<title>SVG Image created as PCRD07-F_Fab.svg date 2023/09/20 22:24:24 </title>
  <desc>Image generated by PCBNEW </desc>
<g style="fill:#848484; fill-opacity:1.0000;stroke:#848484; stroke-opacity:1.0000; stroke-linecap:round; stroke-linejoin:round;" transform="translate(0 0) scale(1 1)">
</g>
<g style="fill:#848484; fill-opacity:0.0;  stroke:#848484; stroke-width:0.0000; stroke-opacity:1;  stroke-linecap:round; stroke-linejoin:round;">
</g>
<g style="fill:#848484; fill-opacity:0.0;  stroke:#848484; stroke-width:0.7810; stroke-opacity:1;  stroke-linecap:round; stroke-linejoin:round;">
<g transform="rotate(-90.000000 64.7656 71.2793)">
<text x="64.7656" y="73.8827" textLength="17.4179" font-size="6.9424" lengthAdjust="spacingAndGlyphs" text-anchor="middle" opacity="0.01" style="font-family:monospace">MCX</text>
</g>
<g class="stroked-text"><desc>MCX</desc>
<path d="M67.1337 78.0977 L61.9270 78.0977 "/>
<path d="M61.9270 78.0977 L65.6461 76.3621 "/>
<path d="M65.6461 76.3621 L61.9270 74.6265 "/>
<path d="M61.9270 74.6265 L67.1337 74.6265 "/>
<path d="M66.6379 69.1718 L66.8858 69.4197 "/>
<path d="M66.8858 69.4197 L67.1337 70.1635 "/>
<path d="M67.1337 70.1635 L67.1337 70.6594 "/>
<path d="M67.1337 70.6594 L66.8858 71.4032 "/>
<path d="M66.8858 71.4032 L66.3899 71.8991 "/>
<path d="M66.3899 71.8991 L65.8940 72.1471 "/>
<path d="M65.8940 72.1471 L64.9023 72.3950 "/>
<path d="M64.9023 72.3950 L64.1584 72.3950 "/>
<path d="M64.1584 72.3950 L63.1667 72.1471 "/>
<path d="M63.1667 72.1471 L62.6708 71.8991 "/>
<path d="M62.6708 71.8991 L62.1749 71.4032 "/>
<path d="M62.1749 71.4032 L61.9270 70.6594 "/>
<path d="M61.9270 70.6594 L61.9270 70.1635 "/>
<path d="M61.9270 70.1635 L62.1749 69.4197 "/>
<path d="M62.1749 69.4197 L62.4228 69.1718 "/>
<path d="M61.9270 67.4362 L67.1337 63.9650 "/>
<path d="M61.9270 63.9650 L67.1337 67.4362 "/>
</g><g transform="rotate(-90.000000 38.7317 71.2793)">
<text x="38.7317" y="73.8827" textLength="10.2276" font-size="6.9424" lengthAdjust="spacingAndGlyphs" text-anchor="middle" opacity="0.01" style="font-family:monospace">J8</text>
</g>
<g class="stroked-text"><desc>J8</desc>
<path d="M35.8930 73.0149 L39.6122 73.0149 "/>
<path d="M39.6122 73.0149 L40.3560 73.2628 "/>
<path d="M40.3560 73.2628 L40.8519 73.7587 "/>
<path d="M40.8519 73.7587 L41.0998 74.5025 "/>
<path d="M41.0998 74.5025 L41.0998 74.9984 "/>
<path d="M38.1245 69.7916 L37.8766 70.2875 "/>
<path d="M37.8766 70.2875 L37.6286 70.5354 "/>
<path d="M37.6286 70.5354 L37.1328 70.7834 "/>
<path d="M37.1328 70.7834 L36.8848 70.7834 "/>
<path d="M36.8848 70.7834 L36.3889 70.5354 "/>
<path d="M36.3889 70.5354 L36.1410 70.2875 "/>
<path d="M36.1410 70.2875 L35.8930 69.7916 "/>
<path d="M35.8930 69.7916 L35.8930 68.7998 "/>
<path d="M35.8930 68.7998 L36.1410 68.3040 "/>
<path d="M36.1410 68.3040 L36.3889 68.0560 "/>
<path d="M36.3889 68.0560 L36.8848 67.8081 "/>
<path d="M36.8848 67.8081 L37.1328 67.8081 "/>
<path d="M37.1328 67.8081 L37.6286 68.0560 "/>
<path d="M37.6286 68.0560 L37.8766 68.3040 "/>
<path d="M37.8766 68.3040 L38.1245 68.7998 "/>
<path d="M38.1245 68.7998 L38.1245 69.7916 "/>
<path d="M38.1245 69.7916 L38.3725 70.2875 "/>
<path d="M38.3725 70.2875 L38.6204 70.5354 "/>
<path d="M38.6204 70.5354 L39.1163 70.7834 "/>
<path d="M39.1163 70.7834 L40.1081 70.7834 "/>
<path d="M40.1081 70.7834 L40.6039 70.5354 "/>
<path d="M40.6039 70.5354 L40.8519 70.2875 "/>
<path d="M40.8519 70.2875 L41.0998 69.7916 "/>
<path d="M41.0998 69.7916 L41.0998 68.7998 "/>
<path d="M41.0998 68.7998 L40.8519 68.3040 "/>
<path d="M40.8519 68.3040 L40.6039 68.0560 "/>
<path d="M40.6039 68.0560 L40.1081 67.8081 "/>
<path d="M40.1081 67.8081 L39.1163 67.8081 "/>
<path d="M39.1163 67.8081 L38.6204 68.0560 "/>
<path d="M38.6204 68.0560 L38.3725 68.3040 "/>
<path d="M38.3725 68.3040 L38.1245 68.7998 "/>
</g></g>
<g style="fill:#848484; fill-opacity:0.0;  stroke:#848484; stroke-width:0.5207; stroke-opacity:1;  stroke-linecap:round; stroke-linejoin:round;">
<path d="M22.2001 87.8108 L55.2632 87.8108 "/>
<path d="M22.2001 87.8108 L22.2001 54.7477 "/>
<path d="M55.2632 87.8108 L55.2632 54.7477 "/>
<path d="M22.2001 54.7477 L55.2632 54.7477 "/>
<circle cx="38.7317" cy="71.2793" r="16.5315"/> 
</g>
<g style="fill:#848484; fill-opacity:0.0;  stroke:#848484; stroke-width:0.7810; stroke-opacity:1;  stroke-linecap:round; stroke-linejoin:round;">
<path d="M243.7228 95.7459 L270.1732 95.7459 "/>
<path d="M243.7228 108.9712 L243.7228 95.7459 "/>
<path d="M270.1732 95.7459 L270.1732 108.9712 "/>
<path d="M270.1732 108.9712 L243.7228 108.9712 "/>
<path d="M243.7228 82.5207 L270.1732 82.5207 "/>
<path d="M243.7228 95.7459 L243.7228 82.5207 "/>
<path d="M270.1732 82.5207 L270.1732 95.7459 "/>
<path d="M270.1732 95.7459 L243.7228 95.7459 "/>
<path d="M270.1732 69.2955 L243.7228 69.2955 "/>
<path d="M270.1732 56.0702 L270.1732 69.2955 "/>
<path d="M243.7228 69.2955 L243.7228 56.0702 "/>
<path d="M243.7228 56.0702 L270.1732 56.0702 "/>
<path d="M225.2074 124.8414 L198.7570 124.8414 "/>
<path d="M225.2074 111.6162 L225.2074 124.8414 "/>
<path d="M198.7570 124.8414 L198.7570 111.6162 "/>
<path d="M198.7570 111.6162 L225.2074 111.6162 "/>
<path d="M21.5389 122.1964 L47.9893 122.1964 "/>
<path d="M21.5389 161.8721 L21.5389 122.1964 "/>
<path d="M47.9893 122.1964 L47.9893 161.8721 "/>
<path d="M47.9893 161.8721 L21.5389 161.8721 "/>
<path d="M21.5389 108.9712 L47.9893 108.9712 "/>
<path d="M21.5389 122.1964 L21.5389 108.9712 "/>
<path d="M47.9893 108.9712 L47.9893 122.1964 "/>
<path d="M47.9893 122.1964 L21.5389 122.1964 "/>
<g>
</g>
<g>
</g>
<g>
</g>
<g>
</g>
<g>
</g>
<g>
</g>
<g>
</g>
<g>
</g>
<g>
</g>
<g>
</g>
<g>
</g>
<g>
</g>
<g>
</g>
<g>
</g>
<g>
</g>
<g>
</g>
<g>
</g>
<g>
</g>
<g>
</g>
<g>
</g>
<g>
</g>
<g>
</g>
<g>
</g>
<g>
</g>
<g>
</g>
<g>
</g>
<g>
</g>
<g>
</g>
<g>
</g>
<g>
</g>
<g>
</g>
<g>
</g>
<g>
</g>
<g>
</g>
<g>
</g>
<g>
</g>
<g>
</g>
<g>
</g>
<g>
</g>
<g>
</g>
<g>
</g>
<g>
</g>
<g>
</g>
<g>
</g>
<g>
</g>
<g>
</g>
<g>
</g>
<g>
</g>
<g>
</g>
<g>
</g>
<g>
</g>
<g>
</g>
<g>
</g>
<g>
</g>
<g>
</g>
<g>
</g>
<g>
</g>
<g>
</g>
<g>
</g>
<g>
</g>
<g>
</g>
<g>
</g>
<g>
</g>
<g>
</g>
<g>
</g>
<g>
</g>
</g> 
<svg:g><svg:g><svg:title>SVG Image created as PCRD07-Edge_Cuts.svg date 2023/09/20 22:24:24 </svg:title>
  <svg:desc>Image generated by PCBNEW </svg:desc>
<svg:g style="fill:#C2C200; fill-opacity:1.0000;stroke:#C2C200; stroke-opacity:1.0000; stroke-linecap:round; stroke-linejoin:round;" transform="translate(0 0) scale(1 1)">
</svg:g>
<svg:g style="fill:#C2C200; fill-opacity:0.0;  stroke:#C2C200; stroke-width:0.0000; stroke-opacity:1;  stroke-linecap:round; stroke-linejoin:round;">
</svg:g>
<svg:g style="fill:#C2C200; fill-opacity:0.0;  stroke:#C2C200; stroke-width:1.0414; stroke-opacity:1;  stroke-linecap:round; stroke-linejoin:round;">
<svg:path d="M17.5713 0.5243 L279.4309 0.5243 "/>
<svg:path d="M17.5713 209.4829 L279.4309 209.4829 "/>
<svg:path d="M279.4309 209.4829 L279.4309 0.5243 "/>
<svg:path d="M17.5713 209.4829 L17.5713 0.5243 "/>
<svg:g>
</svg:g>
<svg:g>
</svg:g>
<svg:g>
</svg:g>
<svg:g>
</svg:g>
<svg:g>
</svg:g>
<svg:g>
</svg:g>
<svg:g>
</svg:g>
<svg:g>
</svg:g>
<svg:g>
</svg:g>
<svg:g>
</svg:g>
<svg:g>
</svg:g>
<svg:g>
</svg:g>
<svg:g>
</svg:g>
<svg:g>
</svg:g>
<svg:g>
</svg:g>
<svg:g>
</svg:g>
<svg:g>
</svg:g>
<svg:g>
</svg:g>
<svg:g>
</svg:g>
<svg:g>
</svg:g>
<svg:g>
</svg:g>
<svg:g>
</svg:g>
<svg:g>
</svg:g>
<svg:g>
</svg:g>
<svg:g>
</svg:g>
<svg:g>
</svg:g>
<svg:g>
</svg:g>
<svg:g>
</svg:g>
<svg:g>
</svg:g>
<svg:g>
</svg:g>
<svg:g>
</svg:g>
<svg:g>
</svg:g>
<svg:g>
</svg:g>
<svg:g>
</svg:g>
<svg:g>
</svg:g>
<svg:g>
</svg:g>
<svg:g>
</svg:g>
<svg:g>
</svg:g>
<svg:g>
</svg:g>
<svg:g>
</svg:g>
<svg:g>
</svg:g>
<svg:g>
</svg:g>
<svg:g>
</svg:g>
<svg:g>
</svg:g>
<svg:g>
</svg:g>
<svg:g>
</svg:g>
<svg:g>
</svg:g>
<svg:g>
</svg:g>
<svg:g>
</svg:g>
<svg:g>
</svg:g>
<svg:g>
</svg:g>
<svg:g>
</svg:g>
<svg:g>
</svg:g>
<svg:g>
</svg:g>
<svg:g>
</svg:g>
<svg:g>
</svg:g>
<svg:g>
</svg:g>
<svg:g>
</svg:g>
<svg:g>
</svg:g>
<svg:g>
</svg:g>
<svg:g>
</svg:g>
<svg:g>
</svg:g>
<svg:g>
</svg:g>
<svg:g>
</svg:g>
<svg:g>
</svg:g>
<svg:g>
</svg:g>
</svg:g> 
</svg:g></svg:g></svg>
