<?xml version='1.0' encoding='ASCII' standalone='yes'?>
<svg xmlns:svg="http://www.w3.org/2000/svg" xmlns="http://www.w3.org/2000/svg" xmlns:xlink="http://www.w3.org/1999/xlink" version="1.1" width="297.0022mm" height="210.0072mm" viewBox="0.0000 0.0000 297.0022 210.0072">
<title>SVG Image created as PCRD07-F_Fab.svg date 2023/09/26 14:20:26 </title>
  <desc>Image generated by PCBNEW </desc>
<g style="fill:#848484; fill-opacity:1.0000;stroke:#848484; stroke-opacity:1.0000; stroke-linecap:round; stroke-linejoin:round;" transform="translate(0 0) scale(1 1)">
</g>
<g style="fill:#848484; fill-opacity:0.0;  stroke:#848484; stroke-width:0.0000; stroke-opacity:1;  stroke-linecap:round; stroke-linejoin:round;">
</g>
<g style="fill:#848484; fill-opacity:0.0;  stroke:#848484; stroke-width:0.7351; stroke-opacity:1;  stroke-linecap:round; stroke-linejoin:round;">
<g transform="rotate(-90.000000 57.2379 75.4271)">
<text x="57.2379" y="77.8775" textLength="16.3944" font-size="6.5344" lengthAdjust="spacingAndGlyphs" text-anchor="middle" opacity="0.01" style="font-family:monospace">MCX</text>
</g>
<g class="stroked-text"><desc>MCX</desc>
<path d="M59.4669 81.8448 L54.5660 81.8448 "/>
<path d="M54.5660 81.8448 L58.0666 80.2112 "/>
<path d="M58.0666 80.2112 L54.5660 78.5776 "/>
<path d="M54.5660 78.5776 L59.4669 78.5776 "/>
<path d="M59.0001 73.4434 L59.2335 73.6768 "/>
<path d="M59.2335 73.6768 L59.4669 74.3769 "/>
<path d="M59.4669 74.3769 L59.4669 74.8437 "/>
<path d="M59.4669 74.8437 L59.2335 75.5438 "/>
<path d="M59.2335 75.5438 L58.7667 76.0105 "/>
<path d="M58.7667 76.0105 L58.3000 76.2439 "/>
<path d="M58.3000 76.2439 L57.3665 76.4773 "/>
<path d="M57.3665 76.4773 L56.6664 76.4773 "/>
<path d="M56.6664 76.4773 L55.7329 76.2439 "/>
<path d="M55.7329 76.2439 L55.2662 76.0105 "/>
<path d="M55.2662 76.0105 L54.7994 75.5438 "/>
<path d="M54.7994 75.5438 L54.5660 74.8437 "/>
<path d="M54.5660 74.8437 L54.5660 74.3769 "/>
<path d="M54.5660 74.3769 L54.7994 73.6768 "/>
<path d="M54.7994 73.6768 L55.0328 73.4434 "/>
<path d="M54.5660 71.8098 L59.4669 68.5426 "/>
<path d="M54.5660 68.5426 L59.4669 71.8098 "/>
</g><g transform="rotate(-90.000000 32.7337 75.4271)">
<text x="32.7337" y="77.8775" textLength="9.6266" font-size="6.5344" lengthAdjust="spacingAndGlyphs" text-anchor="middle" opacity="0.01" style="font-family:monospace">J8</text>
</g>
<g class="stroked-text"><desc>J8</desc>
<path d="M30.0619 77.0607 L33.5625 77.0607 "/>
<path d="M33.5625 77.0607 L34.2626 77.2941 "/>
<path d="M34.2626 77.2941 L34.7293 77.7608 "/>
<path d="M34.7293 77.7608 L34.9627 78.4609 "/>
<path d="M34.9627 78.4609 L34.9627 78.9277 "/>
<path d="M32.1622 74.0269 L31.9289 74.4936 "/>
<path d="M31.9289 74.4936 L31.6955 74.7270 "/>
<path d="M31.6955 74.7270 L31.2288 74.9604 "/>
<path d="M31.2288 74.9604 L30.9954 74.9604 "/>
<path d="M30.9954 74.9604 L30.5286 74.7270 "/>
<path d="M30.5286 74.7270 L30.2953 74.4936 "/>
<path d="M30.2953 74.4936 L30.0619 74.0269 "/>
<path d="M30.0619 74.0269 L30.0619 73.0934 "/>
<path d="M30.0619 73.0934 L30.2953 72.6266 "/>
<path d="M30.2953 72.6266 L30.5286 72.3933 "/>
<path d="M30.5286 72.3933 L30.9954 72.1599 "/>
<path d="M30.9954 72.1599 L31.2288 72.1599 "/>
<path d="M31.2288 72.1599 L31.6955 72.3933 "/>
<path d="M31.6955 72.3933 L31.9289 72.6266 "/>
<path d="M31.9289 72.6266 L32.1622 73.0934 "/>
<path d="M32.1622 73.0934 L32.1622 74.0269 "/>
<path d="M32.1622 74.0269 L32.3956 74.4936 "/>
<path d="M32.3956 74.4936 L32.6290 74.7270 "/>
<path d="M32.6290 74.7270 L33.0957 74.9604 "/>
<path d="M33.0957 74.9604 L34.0292 74.9604 "/>
<path d="M34.0292 74.9604 L34.4960 74.7270 "/>
<path d="M34.4960 74.7270 L34.7293 74.4936 "/>
<path d="M34.7293 74.4936 L34.9627 74.0269 "/>
<path d="M34.9627 74.0269 L34.9627 73.0934 "/>
<path d="M34.9627 73.0934 L34.7293 72.6266 "/>
<path d="M34.7293 72.6266 L34.4960 72.3933 "/>
<path d="M34.4960 72.3933 L34.0292 72.1599 "/>
<path d="M34.0292 72.1599 L33.0957 72.1599 "/>
<path d="M33.0957 72.1599 L32.6290 72.3933 "/>
<path d="M32.6290 72.3933 L32.3956 72.6266 "/>
<path d="M32.3956 72.6266 L32.1622 73.0934 "/>
</g></g>
<g style="fill:#848484; fill-opacity:0.0;  stroke:#848484; stroke-width:0.4901; stroke-opacity:1;  stroke-linecap:round; stroke-linejoin:round;">
<path d="M17.1736 90.9872 L48.2939 90.9872 "/>
<path d="M17.1736 90.9872 L17.1736 59.8670 "/>
<path d="M48.2939 90.9872 L48.2939 59.8670 "/>
<path d="M17.1736 59.8670 L48.2939 59.8670 "/>
<circle cx="32.7337" cy="75.4271" r="15.5601"/> 
</g>
<g style="fill:#848484; fill-opacity:0.0;  stroke:#848484; stroke-width:0.7351; stroke-opacity:1;  stroke-linecap:round; stroke-linejoin:round;">
<path d="M264.2685 78.8626 L239.3723 78.8626 "/>
<path d="M264.2685 66.4145 L264.2685 78.8626 "/>
<path d="M239.3723 78.8626 L239.3723 66.4145 "/>
<path d="M239.3723 66.4145 L264.2685 66.4145 "/>
<path d="M264.2685 103.7588 L239.3723 103.7588 "/>
<path d="M264.2685 91.3107 L264.2685 103.7588 "/>
<path d="M239.3723 103.7588 L239.3723 91.3107 "/>
<path d="M239.3723 91.3107 L264.2685 91.3107 "/>
<path d="M264.2685 66.4145 L239.3723 66.4145 "/>
<path d="M264.2685 53.9664 L264.2685 66.4145 "/>
<path d="M239.3723 66.4145 L239.3723 53.9664 "/>
<path d="M239.3723 53.9664 L264.2685 53.9664 "/>
<path d="M264.2685 91.3107 L239.3723 91.3107 "/>
<path d="M264.2685 78.8626 L264.2685 91.3107 "/>
<path d="M239.3723 91.3107 L239.3723 78.8626 "/>
<path d="M239.3723 78.8626 L264.2685 78.8626 "/>
<path d="M199.5383 89.4435 L174.6421 89.4435 "/>
<path d="M199.5383 76.9954 L199.5383 89.4435 "/>
<path d="M174.6421 89.4435 L174.6421 76.9954 "/>
<path d="M174.6421 76.9954 L199.5383 76.9954 "/>
<path d="M12.8168 121.1861 L37.7130 121.1861 "/>
<path d="M12.8168 158.5304 L12.8168 121.1861 "/>
<path d="M37.7130 121.1861 L37.7130 158.5304 "/>
<path d="M37.7130 158.5304 L12.8168 158.5304 "/>
<path d="M37.7130 121.1861 L12.8168 121.1861 "/>
<path d="M37.7130 108.7380 L37.7130 121.1861 "/>
<path d="M12.8168 121.1861 L12.8168 108.7380 "/>
<path d="M12.8168 108.7380 L37.7130 108.7380 "/>
<g>
</g>
<g>
</g>
<g>
</g>
<g>
</g>
<g>
</g>
<g>
</g>
<g>
</g>
<g>
</g>
<g>
</g>
<g>
</g>
<g>
</g>
<g>
</g>
<g>
</g>
<g>
</g>
<g>
</g>
<g>
</g>
<g>
</g>
<g>
</g>
<g>
</g>
<g>
</g>
<g>
</g>
<g>
</g>
<g>
</g>
<g>
</g>
<g>
</g>
<g>
</g>
<g>
</g>
<g>
</g>
<g>
</g>
<g>
</g>
<g>
</g>
<g>
</g>
<g>
</g>
<g>
</g>
<g>
</g>
<g>
</g>
<g>
</g>
<g>
</g>
<g>
</g>
<g>
</g>
<g>
</g>
<g>
</g>
<g>
</g>
<g>
</g>
<g>
</g>
<g>
</g>
<g>
</g>
<g>
</g>
<g>
</g>
<g>
</g>
<g>
</g>
<g>
</g>
<g>
</g>
<g>
</g>
<g>
</g>
<g>
</g>
<g>
</g>
<g>
</g>
<g>
</g>
<g>
</g>
<g>
</g>
<g>
</g>
<g>
</g>
<g>
</g>
<g>
</g>
<g>
</g>
<g>
</g>
</g> 
<svg:g><svg:g><svg:title>SVG Image created as PCRD07-Edge_Cuts.svg date 2023/09/26 14:20:26 </svg:title>
  <svg:desc>Image generated by PCBNEW </svg:desc>
<svg:g style="fill:#C2C200; fill-opacity:1.0000;stroke:#C2C200; stroke-opacity:1.0000; stroke-linecap:round; stroke-linejoin:round;" transform="translate(0 0) scale(1 1)">
</svg:g>
<svg:g style="fill:#C2C200; fill-opacity:0.0;  stroke:#C2C200; stroke-width:0.0000; stroke-opacity:1;  stroke-linecap:round; stroke-linejoin:round;">
</svg:g>
<svg:g style="fill:#C2C200; fill-opacity:0.0;  stroke:#C2C200; stroke-width:0.7351; stroke-opacity:1;  stroke-linecap:round; stroke-linejoin:round;">
<svg:path style="fill:#C2C200; fill-opacity:0.0;  stroke:#C2C200; stroke-width:0.7351; stroke-opacity:1;  stroke-linecap:round; stroke-linejoin:round;fill:none" d="M 0.3687,6.6636 296.6335,6.6636 296.6335,203.3436 0.3687,203.3436 Z"/> 
<svg:g>
</svg:g>
<svg:g>
</svg:g>
<svg:g>
</svg:g>
<svg:g>
</svg:g>
<svg:g>
</svg:g>
<svg:g>
</svg:g>
<svg:g>
</svg:g>
<svg:g>
</svg:g>
<svg:g>
</svg:g>
<svg:g>
</svg:g>
<svg:g>
</svg:g>
<svg:g>
</svg:g>
<svg:g>
</svg:g>
<svg:g>
</svg:g>
<svg:g>
</svg:g>
<svg:g>
</svg:g>
<svg:g>
</svg:g>
<svg:g>
</svg:g>
<svg:g>
</svg:g>
<svg:g>
</svg:g>
<svg:g>
</svg:g>
<svg:g>
</svg:g>
<svg:g>
</svg:g>
<svg:g>
</svg:g>
<svg:g>
</svg:g>
<svg:g>
</svg:g>
<svg:g>
</svg:g>
<svg:g>
</svg:g>
<svg:g>
</svg:g>
<svg:g>
</svg:g>
<svg:g>
</svg:g>
<svg:g>
</svg:g>
<svg:g>
</svg:g>
<svg:g>
</svg:g>
<svg:g>
</svg:g>
<svg:g>
</svg:g>
<svg:g>
</svg:g>
<svg:g>
</svg:g>
<svg:g>
</svg:g>
<svg:g>
</svg:g>
<svg:g>
</svg:g>
<svg:g>
</svg:g>
<svg:g>
</svg:g>
<svg:g>
</svg:g>
<svg:g>
</svg:g>
<svg:g>
</svg:g>
<svg:g>
</svg:g>
<svg:g>
</svg:g>
<svg:g>
</svg:g>
<svg:g>
</svg:g>
<svg:g>
</svg:g>
<svg:g>
</svg:g>
<svg:g>
</svg:g>
<svg:g>
</svg:g>
<svg:g>
</svg:g>
<svg:g>
</svg:g>
<svg:g>
</svg:g>
<svg:g>
</svg:g>
<svg:g>
</svg:g>
<svg:g>
</svg:g>
<svg:g>
</svg:g>
<svg:g>
</svg:g>
<svg:g>
</svg:g>
<svg:g>
</svg:g>
<svg:g>
</svg:g>
<svg:g>
</svg:g>
<svg:g>
</svg:g>
</svg:g> 
</svg:g></svg:g></svg>
