%TF.GenerationSoftware,KiCad,Pcbnew,7.0.7-7.0.7~ubuntu23.04.1*%
%TF.CreationDate,2023-09-11T00:31:17+00:00*%
%TF.ProjectId,PCRD07,50435244-3037-42e6-9b69-6361645f7063,REV*%
%TF.SameCoordinates,Original*%
%TF.FileFunction,Legend,Bot*%
%TF.FilePolarity,Positive*%
%FSLAX46Y46*%
G04 Gerber Fmt 4.6, Leading zero omitted, Abs format (unit mm)*
G04 Created by KiCad (PCBNEW 7.0.7-7.0.7~ubuntu23.04.1) date 2023-09-11 00:31:17*
%MOMM*%
%LPD*%
G01*
G04 APERTURE LIST*
%ADD10C,0.150000*%
%ADD11C,0.304800*%
%ADD12C,0.120000*%
G04 APERTURE END LIST*
D10*
X22414819Y33181904D02*
X23224342Y33181904D01*
X23224342Y33181904D02*
X23319580Y33134285D01*
X23319580Y33134285D02*
X23367200Y33086666D01*
X23367200Y33086666D02*
X23414819Y32991428D01*
X23414819Y32991428D02*
X23414819Y32800952D01*
X23414819Y32800952D02*
X23367200Y32705714D01*
X23367200Y32705714D02*
X23319580Y32658095D01*
X23319580Y32658095D02*
X23224342Y32610476D01*
X23224342Y32610476D02*
X22414819Y32610476D01*
X22510057Y32181904D02*
X22462438Y32134285D01*
X22462438Y32134285D02*
X22414819Y32039047D01*
X22414819Y32039047D02*
X22414819Y31800952D01*
X22414819Y31800952D02*
X22462438Y31705714D01*
X22462438Y31705714D02*
X22510057Y31658095D01*
X22510057Y31658095D02*
X22605295Y31610476D01*
X22605295Y31610476D02*
X22700533Y31610476D01*
X22700533Y31610476D02*
X22843390Y31658095D01*
X22843390Y31658095D02*
X23414819Y32229523D01*
X23414819Y32229523D02*
X23414819Y31610476D01*
D11*
X13943999Y7425961D02*
X14016571Y7353390D01*
X14016571Y7353390D02*
X14234285Y7280818D01*
X14234285Y7280818D02*
X14379428Y7280818D01*
X14379428Y7280818D02*
X14597142Y7353390D01*
X14597142Y7353390D02*
X14742285Y7498532D01*
X14742285Y7498532D02*
X14814856Y7643675D01*
X14814856Y7643675D02*
X14887428Y7933961D01*
X14887428Y7933961D02*
X14887428Y8151675D01*
X14887428Y8151675D02*
X14814856Y8441961D01*
X14814856Y8441961D02*
X14742285Y8587104D01*
X14742285Y8587104D02*
X14597142Y8732247D01*
X14597142Y8732247D02*
X14379428Y8804818D01*
X14379428Y8804818D02*
X14234285Y8804818D01*
X14234285Y8804818D02*
X14016571Y8732247D01*
X14016571Y8732247D02*
X13943999Y8659675D01*
X12492571Y7280818D02*
X13363428Y7280818D01*
X12927999Y7280818D02*
X12927999Y8804818D01*
X12927999Y8804818D02*
X13073142Y8587104D01*
X13073142Y8587104D02*
X13218285Y8441961D01*
X13218285Y8441961D02*
X13363428Y8369390D01*
D10*
X26870819Y15470094D02*
X25870819Y15470094D01*
X25870819Y15470094D02*
X25870819Y15231999D01*
X25870819Y15231999D02*
X25918438Y15089142D01*
X25918438Y15089142D02*
X26013676Y14993904D01*
X26013676Y14993904D02*
X26108914Y14946285D01*
X26108914Y14946285D02*
X26299390Y14898666D01*
X26299390Y14898666D02*
X26442247Y14898666D01*
X26442247Y14898666D02*
X26632723Y14946285D01*
X26632723Y14946285D02*
X26727961Y14993904D01*
X26727961Y14993904D02*
X26823200Y15089142D01*
X26823200Y15089142D02*
X26870819Y15231999D01*
X26870819Y15231999D02*
X26870819Y15470094D01*
X26870819Y13946285D02*
X26870819Y14517713D01*
X26870819Y14231999D02*
X25870819Y14231999D01*
X25870819Y14231999D02*
X26013676Y14327237D01*
X26013676Y14327237D02*
X26108914Y14422475D01*
X26108914Y14422475D02*
X26156533Y14517713D01*
X29436219Y13546104D02*
X28436219Y13546104D01*
X29436219Y12974676D02*
X28864790Y13403247D01*
X28436219Y12974676D02*
X29007647Y13546104D01*
X31812857Y8900419D02*
X31860476Y8852800D01*
X31860476Y8852800D02*
X32003333Y8805180D01*
X32003333Y8805180D02*
X32098571Y8805180D01*
X32098571Y8805180D02*
X32241428Y8852800D01*
X32241428Y8852800D02*
X32336666Y8948038D01*
X32336666Y8948038D02*
X32384285Y9043276D01*
X32384285Y9043276D02*
X32431904Y9233752D01*
X32431904Y9233752D02*
X32431904Y9376609D01*
X32431904Y9376609D02*
X32384285Y9567085D01*
X32384285Y9567085D02*
X32336666Y9662323D01*
X32336666Y9662323D02*
X32241428Y9757561D01*
X32241428Y9757561D02*
X32098571Y9805180D01*
X32098571Y9805180D02*
X32003333Y9805180D01*
X32003333Y9805180D02*
X31860476Y9757561D01*
X31860476Y9757561D02*
X31812857Y9709942D01*
X31431904Y9709942D02*
X31384285Y9757561D01*
X31384285Y9757561D02*
X31289047Y9805180D01*
X31289047Y9805180D02*
X31050952Y9805180D01*
X31050952Y9805180D02*
X30955714Y9757561D01*
X30955714Y9757561D02*
X30908095Y9709942D01*
X30908095Y9709942D02*
X30860476Y9614704D01*
X30860476Y9614704D02*
X30860476Y9519466D01*
X30860476Y9519466D02*
X30908095Y9376609D01*
X30908095Y9376609D02*
X31479523Y8805180D01*
X31479523Y8805180D02*
X30860476Y8805180D01*
X29908095Y8805180D02*
X30479523Y8805180D01*
X30193809Y8805180D02*
X30193809Y9805180D01*
X30193809Y9805180D02*
X30289047Y9662323D01*
X30289047Y9662323D02*
X30384285Y9567085D01*
X30384285Y9567085D02*
X30479523Y9519466D01*
X25929523Y2745180D02*
X25929523Y3745180D01*
X25929523Y3745180D02*
X25596190Y3030895D01*
X25596190Y3030895D02*
X25262857Y3745180D01*
X25262857Y3745180D02*
X25262857Y2745180D01*
X24310476Y3745180D02*
X24786666Y3745180D01*
X24786666Y3745180D02*
X24834285Y3268990D01*
X24834285Y3268990D02*
X24786666Y3316609D01*
X24786666Y3316609D02*
X24691428Y3364228D01*
X24691428Y3364228D02*
X24453333Y3364228D01*
X24453333Y3364228D02*
X24358095Y3316609D01*
X24358095Y3316609D02*
X24310476Y3268990D01*
X24310476Y3268990D02*
X24262857Y3173752D01*
X24262857Y3173752D02*
X24262857Y2935657D01*
X24262857Y2935657D02*
X24310476Y2840419D01*
X24310476Y2840419D02*
X24358095Y2792800D01*
X24358095Y2792800D02*
X24453333Y2745180D01*
X24453333Y2745180D02*
X24691428Y2745180D01*
X24691428Y2745180D02*
X24786666Y2792800D01*
X24786666Y2792800D02*
X24834285Y2840419D01*
X12951904Y18835180D02*
X12951904Y18025657D01*
X12951904Y18025657D02*
X12904285Y17930419D01*
X12904285Y17930419D02*
X12856666Y17882800D01*
X12856666Y17882800D02*
X12761428Y17835180D01*
X12761428Y17835180D02*
X12570952Y17835180D01*
X12570952Y17835180D02*
X12475714Y17882800D01*
X12475714Y17882800D02*
X12428095Y17930419D01*
X12428095Y17930419D02*
X12380476Y18025657D01*
X12380476Y18025657D02*
X12380476Y18835180D01*
X11428095Y18835180D02*
X11904285Y18835180D01*
X11904285Y18835180D02*
X11951904Y18358990D01*
X11951904Y18358990D02*
X11904285Y18406609D01*
X11904285Y18406609D02*
X11809047Y18454228D01*
X11809047Y18454228D02*
X11570952Y18454228D01*
X11570952Y18454228D02*
X11475714Y18406609D01*
X11475714Y18406609D02*
X11428095Y18358990D01*
X11428095Y18358990D02*
X11380476Y18263752D01*
X11380476Y18263752D02*
X11380476Y18025657D01*
X11380476Y18025657D02*
X11428095Y17930419D01*
X11428095Y17930419D02*
X11475714Y17882800D01*
X11475714Y17882800D02*
X11570952Y17835180D01*
X11570952Y17835180D02*
X11809047Y17835180D01*
X11809047Y17835180D02*
X11904285Y17882800D01*
X11904285Y17882800D02*
X11951904Y17930419D01*
X21101904Y31035180D02*
X21101904Y30225657D01*
X21101904Y30225657D02*
X21054285Y30130419D01*
X21054285Y30130419D02*
X21006666Y30082800D01*
X21006666Y30082800D02*
X20911428Y30035180D01*
X20911428Y30035180D02*
X20720952Y30035180D01*
X20720952Y30035180D02*
X20625714Y30082800D01*
X20625714Y30082800D02*
X20578095Y30130419D01*
X20578095Y30130419D02*
X20530476Y30225657D01*
X20530476Y30225657D02*
X20530476Y31035180D01*
X19530476Y30035180D02*
X20101904Y30035180D01*
X19816190Y30035180D02*
X19816190Y31035180D01*
X19816190Y31035180D02*
X19911428Y30892323D01*
X19911428Y30892323D02*
X20006666Y30797085D01*
X20006666Y30797085D02*
X20101904Y30749466D01*
%TO.C,C2*%
X17208500Y21082000D02*
X17208500Y22606000D01*
X17208500Y22606000D02*
X16192500Y22606000D01*
X16192500Y21082000D02*
X17208500Y21082000D01*
X15176500Y22606000D02*
X14160500Y22606000D01*
X14160500Y21082000D02*
X15176500Y21082000D01*
X14160500Y22606000D02*
X14160500Y21082000D01*
X17462500Y21082000D02*
G75*
G03*
X17462500Y21082000I-127000J0D01*
G01*
D12*
%TO.C,U2*%
X23774000Y30938000D02*
X23774000Y32698000D01*
X26844000Y32698000D02*
X26844000Y30268000D01*
D10*
%TO.C,C1*%
X24919940Y10680700D02*
X23721060Y10680700D01*
X24320500Y11181080D02*
X24320500Y10081260D01*
X23637240Y9829800D02*
X23637240Y6431280D01*
X23619460Y9827260D02*
X23619460Y6428740D01*
X16342360Y9829800D02*
X22341840Y9829800D01*
X16319500Y6428740D02*
X22318980Y6428740D01*
%TO.C,C4*%
X29400500Y16002000D02*
X29400500Y14478000D01*
X29400500Y14478000D02*
X30416500Y14478000D01*
X30416500Y16002000D02*
X29400500Y16002000D01*
X31432500Y14478000D02*
X32448500Y14478000D01*
X32448500Y16002000D02*
X31432500Y16002000D01*
X32448500Y14478000D02*
X32448500Y16002000D01*
X29400500Y16002000D02*
G75*
G03*
X29400500Y16002000I-127000J0D01*
G01*
%TO.C,C7*%
X27495500Y31750000D02*
X27495500Y30226000D01*
X27495500Y30226000D02*
X28511500Y30226000D01*
X28511500Y31750000D02*
X27495500Y31750000D01*
X29527500Y30226000D02*
X30543500Y30226000D01*
X30543500Y31750000D02*
X29527500Y31750000D01*
X30543500Y30226000D02*
X30543500Y31750000D01*
X27495500Y31750000D02*
G75*
G03*
X27495500Y31750000I-127000J0D01*
G01*
%TO.C,C8*%
X25844500Y21590000D02*
X25844500Y23114000D01*
X25844500Y23114000D02*
X24828500Y23114000D01*
X24828500Y21590000D02*
X25844500Y21590000D01*
X23812500Y23114000D02*
X22796500Y23114000D01*
X22796500Y21590000D02*
X23812500Y21590000D01*
X22796500Y23114000D02*
X22796500Y21590000D01*
X26098500Y21590000D02*
G75*
G03*
X26098500Y21590000I-127000J0D01*
G01*
%TO.C,C9*%
X18351500Y11430000D02*
X18351500Y12954000D01*
X18351500Y12954000D02*
X17335500Y12954000D01*
X17335500Y11430000D02*
X18351500Y11430000D01*
X16319500Y12954000D02*
X15303500Y12954000D01*
X15303500Y11430000D02*
X16319500Y11430000D01*
X15303500Y12954000D02*
X15303500Y11430000D01*
X18605500Y11430000D02*
G75*
G03*
X18605500Y11430000I-127000J0D01*
G01*
%TO.C,C12*%
X27495500Y34290000D02*
X27495500Y32766000D01*
X27495500Y32766000D02*
X28511500Y32766000D01*
X28511500Y34290000D02*
X27495500Y34290000D01*
X29527500Y32766000D02*
X30543500Y32766000D01*
X30543500Y34290000D02*
X29527500Y34290000D01*
X30543500Y32766000D02*
X30543500Y34290000D01*
X27495500Y34290000D02*
G75*
G03*
X27495500Y34290000I-127000J0D01*
G01*
%TO.C,C13*%
X25844500Y23622000D02*
X25844500Y25146000D01*
X25844500Y25146000D02*
X24828500Y25146000D01*
X24828500Y23622000D02*
X25844500Y23622000D01*
X23812500Y25146000D02*
X22796500Y25146000D01*
X22796500Y23622000D02*
X23812500Y23622000D01*
X22796500Y25146000D02*
X22796500Y23622000D01*
X26098500Y23622000D02*
G75*
G03*
X26098500Y23622000I-127000J0D01*
G01*
%TO.C,C14*%
X18224500Y13970000D02*
X18224500Y15494000D01*
X18224500Y15494000D02*
X17208500Y15494000D01*
X17208500Y13970000D02*
X18224500Y13970000D01*
X16192500Y15494000D02*
X15176500Y15494000D01*
X15176500Y13970000D02*
X16192500Y13970000D01*
X15176500Y15494000D02*
X15176500Y13970000D01*
X18478500Y13970000D02*
G75*
G03*
X18478500Y13970000I-127000J0D01*
G01*
%TO.C,C19*%
X24447500Y28194000D02*
X24447500Y26670000D01*
X24447500Y26670000D02*
X25463500Y26670000D01*
X25463500Y28194000D02*
X24447500Y28194000D01*
X26479500Y26670000D02*
X27495500Y26670000D01*
X27495500Y28194000D02*
X26479500Y28194000D01*
X27495500Y26670000D02*
X27495500Y28194000D01*
X24447500Y28194000D02*
G75*
G03*
X24447500Y28194000I-127000J0D01*
G01*
D12*
%TO.C,D1*%
X28066000Y13560000D02*
X28066000Y8160000D01*
X24766000Y13560000D02*
X28066000Y13560000D01*
X24766000Y13560000D02*
X24766000Y8160000D01*
D10*
%TO.C,R1*%
X31242000Y29400500D02*
X32766000Y29400500D01*
X32766000Y29400500D02*
X32766000Y30416500D01*
X31242000Y30416500D02*
X31242000Y29400500D01*
X32766000Y31432500D02*
X32766000Y32448500D01*
X31242000Y32448500D02*
X31242000Y31432500D01*
X32766000Y32448500D02*
X31242000Y32448500D01*
X31369000Y29273500D02*
G75*
G03*
X31369000Y29273500I-127000J0D01*
G01*
%TO.C,R3*%
X30226000Y29400500D02*
X28702000Y29400500D01*
X28702000Y29400500D02*
X28702000Y28384500D01*
X30226000Y28384500D02*
X30226000Y29400500D01*
X28702000Y27368500D02*
X28702000Y26352500D01*
X30226000Y26352500D02*
X30226000Y27368500D01*
X28702000Y26352500D02*
X30226000Y26352500D01*
X30353000Y29527500D02*
G75*
G03*
X30353000Y29527500I-127000J0D01*
G01*
%TO.C,R4*%
X26670000Y20764500D02*
X25146000Y20764500D01*
X25146000Y20764500D02*
X25146000Y19748500D01*
X26670000Y19748500D02*
X26670000Y20764500D01*
X25146000Y18732500D02*
X25146000Y17716500D01*
X26670000Y17716500D02*
X26670000Y18732500D01*
X25146000Y17716500D02*
X26670000Y17716500D01*
X26797000Y20891500D02*
G75*
G03*
X26797000Y20891500I-127000J0D01*
G01*
%TO.C,R5*%
X19240500Y12954000D02*
X19240500Y11430000D01*
X19240500Y11430000D02*
X20256500Y11430000D01*
X20256500Y12954000D02*
X19240500Y12954000D01*
X21272500Y11430000D02*
X22288500Y11430000D01*
X22288500Y12954000D02*
X21272500Y12954000D01*
X22288500Y11430000D02*
X22288500Y12954000D01*
X19240500Y12954000D02*
G75*
G03*
X19240500Y12954000I-127000J0D01*
G01*
%TO.C,R12*%
X17208500Y23622000D02*
X17208500Y25146000D01*
X17208500Y25146000D02*
X16192500Y25146000D01*
X16192500Y23622000D02*
X17208500Y23622000D01*
X15176500Y25146000D02*
X14160500Y25146000D01*
X14160500Y23622000D02*
X15176500Y23622000D01*
X14160500Y25146000D02*
X14160500Y23622000D01*
X17462500Y23622000D02*
G75*
G03*
X17462500Y23622000I-127000J0D01*
G01*
%TO.C,R13*%
X23431500Y17018000D02*
X23431500Y18542000D01*
X23431500Y18542000D02*
X22415500Y18542000D01*
X22415500Y17018000D02*
X23431500Y17018000D01*
X21399500Y18542000D02*
X20383500Y18542000D01*
X20383500Y17018000D02*
X21399500Y17018000D01*
X20383500Y18542000D02*
X20383500Y17018000D01*
X23685500Y17018000D02*
G75*
G03*
X23685500Y17018000I-127000J0D01*
G01*
%TO.C,C21*%
X29130000Y11938000D02*
X29130000Y10414000D01*
X29130000Y10414000D02*
X29130000Y10541000D01*
X29130000Y10414000D02*
X33194000Y10414000D01*
X33194000Y11938000D02*
X29130000Y11938000D01*
X33194000Y10414000D02*
X33194000Y11938000D01*
D12*
%TO.C,M5*%
X9250000Y32028000D02*
X9250000Y33628000D01*
X9250000Y26028000D02*
X9250000Y27628000D01*
X9250000Y20028000D02*
X9250000Y21628000D01*
X9250000Y14028000D02*
X9250000Y15628000D01*
X9250000Y8028000D02*
X9250000Y9628000D01*
X12600000Y36978000D02*
X14200000Y36978000D01*
X12600000Y4678000D02*
X14200000Y4678000D01*
X18600000Y36978000D02*
X20200000Y36978000D01*
X18600000Y4678000D02*
X20200000Y4678000D01*
X24600000Y36978000D02*
X26200000Y36978000D01*
X24600000Y4678000D02*
X26200000Y4678000D01*
X30600000Y36978000D02*
X32200000Y36978000D01*
X30600000Y4678000D02*
X32200000Y4678000D01*
X36600000Y36978000D02*
X38200000Y36978000D01*
X36600000Y4678000D02*
X38200000Y4678000D01*
X41550000Y32028000D02*
X41550000Y33628000D01*
X41550000Y26028000D02*
X41550000Y27628000D01*
X41550000Y20028000D02*
X41550000Y21628000D01*
X41550000Y14028000D02*
X41550000Y15628000D01*
X41550000Y8028000D02*
X41550000Y9628000D01*
%TO.C,U5*%
X14848000Y19898000D02*
X16648000Y19898000D01*
X16648000Y16678000D02*
X14198000Y16678000D01*
%TO.C,U1*%
X19420000Y29550000D02*
X21220000Y29550000D01*
X21220000Y26330000D02*
X18770000Y26330000D01*
%TD*%
M02*
