%TF.GenerationSoftware,KiCad,Pcbnew,7.0.7-7.0.7~ubuntu23.04.1*%
%TF.CreationDate,2023-09-26T14:19:23+00:00*%
%TF.ProjectId,PCRD07,50435244-3037-42e6-9b69-6361645f7063,REV*%
%TF.SameCoordinates,PX6bb53e0PY7c5bf00*%
%TF.FileFunction,Copper,L2,Bot*%
%TF.FilePolarity,Positive*%
%FSLAX46Y46*%
G04 Gerber Fmt 4.6, Leading zero omitted, Abs format (unit mm)*
G04 Created by KiCad (PCBNEW 7.0.7-7.0.7~ubuntu23.04.1) date 2023-09-26 14:19:23*
%MOMM*%
%LPD*%
G01*
G04 APERTURE LIST*
G04 Aperture macros list*
%AMRoundRect*
0 Rectangle with rounded corners*
0 $1 Rounding radius*
0 $2 $3 $4 $5 $6 $7 $8 $9 X,Y pos of 4 corners*
0 Add a 4 corners polygon primitive as box body*
4,1,4,$2,$3,$4,$5,$6,$7,$8,$9,$2,$3,0*
0 Add four circle primitives for the rounded corners*
1,1,$1+$1,$2,$3*
1,1,$1+$1,$4,$5*
1,1,$1+$1,$6,$7*
1,1,$1+$1,$8,$9*
0 Add four rect primitives between the rounded corners*
20,1,$1+$1,$2,$3,$4,$5,0*
20,1,$1+$1,$4,$5,$6,$7,0*
20,1,$1+$1,$6,$7,$8,$9,0*
20,1,$1+$1,$8,$9,$2,$3,0*%
G04 Aperture macros list end*
%ADD10C,0.300000*%
%TA.AperFunction,NonConductor*%
%ADD11C,0.300000*%
%TD*%
%TA.AperFunction,ComponentPad*%
%ADD12C,6.000000*%
%TD*%
%TA.AperFunction,ComponentPad*%
%ADD13C,2.050000*%
%TD*%
%TA.AperFunction,ComponentPad*%
%ADD14C,2.250000*%
%TD*%
%TA.AperFunction,ComponentPad*%
%ADD15R,1.524000X1.524000*%
%TD*%
%TA.AperFunction,SMDPad,CuDef*%
%ADD16RoundRect,0.250000X0.475000X-0.250000X0.475000X0.250000X-0.475000X0.250000X-0.475000X-0.250000X0*%
%TD*%
%TA.AperFunction,SMDPad,CuDef*%
%ADD17R,0.650000X2.000000*%
%TD*%
%TA.AperFunction,SMDPad,CuDef*%
%ADD18RoundRect,0.250000X0.925000X-0.787500X0.925000X0.787500X-0.925000X0.787500X-0.925000X-0.787500X0*%
%TD*%
%TA.AperFunction,SMDPad,CuDef*%
%ADD19RoundRect,0.250000X-0.250000X-0.475000X0.250000X-0.475000X0.250000X0.475000X-0.250000X0.475000X0*%
%TD*%
%TA.AperFunction,SMDPad,CuDef*%
%ADD20RoundRect,0.250000X-0.425000X0.450000X-0.425000X-0.450000X0.425000X-0.450000X0.425000X0.450000X0*%
%TD*%
%TA.AperFunction,SMDPad,CuDef*%
%ADD21RoundRect,0.250000X0.250000X0.475000X-0.250000X0.475000X-0.250000X-0.475000X0.250000X-0.475000X0*%
%TD*%
%TA.AperFunction,SMDPad,CuDef*%
%ADD22RoundRect,0.250000X-0.475000X0.250000X-0.475000X-0.250000X0.475000X-0.250000X0.475000X0.250000X0*%
%TD*%
%TA.AperFunction,SMDPad,CuDef*%
%ADD23R,1.800000X2.500000*%
%TD*%
%TA.AperFunction,SMDPad,CuDef*%
%ADD24RoundRect,0.250000X-0.450000X0.262500X-0.450000X-0.262500X0.450000X-0.262500X0.450000X0.262500X0*%
%TD*%
%TA.AperFunction,SMDPad,CuDef*%
%ADD25RoundRect,0.250000X0.450000X-0.262500X0.450000X0.262500X-0.450000X0.262500X-0.450000X-0.262500X0*%
%TD*%
%TA.AperFunction,SMDPad,CuDef*%
%ADD26RoundRect,0.250000X-0.262500X-0.450000X0.262500X-0.450000X0.262500X0.450000X-0.262500X0.450000X0*%
%TD*%
%TA.AperFunction,SMDPad,CuDef*%
%ADD27RoundRect,0.250000X0.262500X0.450000X-0.262500X0.450000X-0.262500X-0.450000X0.262500X-0.450000X0*%
%TD*%
%TA.AperFunction,SMDPad,CuDef*%
%ADD28R,1.500000X1.300000*%
%TD*%
%TA.AperFunction,SMDPad,CuDef*%
%ADD29R,3.000000X0.700000*%
%TD*%
%TA.AperFunction,SMDPad,CuDef*%
%ADD30R,1.000000X1.000000*%
%TD*%
%TA.AperFunction,SMDPad,CuDef*%
%ADD31R,1.000000X2.300000*%
%TD*%
%TA.AperFunction,SMDPad,CuDef*%
%ADD32R,1.000000X3.800000*%
%TD*%
%TA.AperFunction,SMDPad,CuDef*%
%ADD33R,2.300000X1.000000*%
%TD*%
%TA.AperFunction,SMDPad,CuDef*%
%ADD34R,3.800000X1.000000*%
%TD*%
%TA.AperFunction,SMDPad,CuDef*%
%ADD35R,0.650000X1.560000*%
%TD*%
%TA.AperFunction,SMDPad,CuDef*%
%ADD36R,1.560000X0.650000*%
%TD*%
%TA.AperFunction,SMDPad,CuDef*%
%ADD37RoundRect,0.250000X0.450000X0.425000X-0.450000X0.425000X-0.450000X-0.425000X0.450000X-0.425000X0*%
%TD*%
%TA.AperFunction,SMDPad,CuDef*%
%ADD38R,1.400000X0.300000*%
%TD*%
%TA.AperFunction,SMDPad,CuDef*%
%ADD39RoundRect,0.150000X-0.150000X0.587500X-0.150000X-0.587500X0.150000X-0.587500X0.150000X0.587500X0*%
%TD*%
%TA.AperFunction,SMDPad,CuDef*%
%ADD40C,0.500000*%
%TD*%
%TA.AperFunction,SMDPad,CuDef*%
%ADD41C,1.000000*%
%TD*%
%TA.AperFunction,SMDPad,CuDef*%
%ADD42RoundRect,0.218750X0.381250X-0.218750X0.381250X0.218750X-0.381250X0.218750X-0.381250X-0.218750X0*%
%TD*%
%TA.AperFunction,SMDPad,CuDef*%
%ADD43R,2.000000X0.650000*%
%TD*%
%TA.AperFunction,ViaPad*%
%ADD44C,0.800000*%
%TD*%
%TA.AperFunction,Conductor*%
%ADD45C,0.700000*%
%TD*%
%TA.AperFunction,Conductor*%
%ADD46C,0.300000*%
%TD*%
%TA.AperFunction,Conductor*%
%ADD47C,0.450000*%
%TD*%
%TA.AperFunction,Conductor*%
%ADD48C,0.400000*%
%TD*%
G04 APERTURE END LIST*
D10*
D11*
X29086428Y6306672D02*
X29086428Y7806672D01*
X29086428Y7806672D02*
X28586428Y6735243D01*
X28586428Y6735243D02*
X28086428Y7806672D01*
X28086428Y7806672D02*
X28086428Y6306672D01*
X26657856Y6306672D02*
X27372142Y6306672D01*
X27372142Y6306672D02*
X27372142Y7806672D01*
X26229284Y6735243D02*
X25514999Y6735243D01*
X26372141Y6306672D02*
X25872141Y7806672D01*
X25872141Y7806672D02*
X25372141Y6306672D01*
X24372142Y7092386D02*
X24157856Y7020958D01*
X24157856Y7020958D02*
X24086427Y6949529D01*
X24086427Y6949529D02*
X24014999Y6806672D01*
X24014999Y6806672D02*
X24014999Y6592386D01*
X24014999Y6592386D02*
X24086427Y6449529D01*
X24086427Y6449529D02*
X24157856Y6378100D01*
X24157856Y6378100D02*
X24300713Y6306672D01*
X24300713Y6306672D02*
X24872142Y6306672D01*
X24872142Y6306672D02*
X24872142Y7806672D01*
X24872142Y7806672D02*
X24372142Y7806672D01*
X24372142Y7806672D02*
X24229285Y7735243D01*
X24229285Y7735243D02*
X24157856Y7663815D01*
X24157856Y7663815D02*
X24086427Y7520958D01*
X24086427Y7520958D02*
X24086427Y7378100D01*
X24086427Y7378100D02*
X24157856Y7235243D01*
X24157856Y7235243D02*
X24229285Y7163815D01*
X24229285Y7163815D02*
X24372142Y7092386D01*
X24372142Y7092386D02*
X24872142Y7092386D01*
X23372142Y6449529D02*
X23300713Y6378100D01*
X23300713Y6378100D02*
X23372142Y6306672D01*
X23372142Y6306672D02*
X23443570Y6378100D01*
X23443570Y6378100D02*
X23372142Y6449529D01*
X23372142Y6449529D02*
X23372142Y6306672D01*
X21800713Y6449529D02*
X21872141Y6378100D01*
X21872141Y6378100D02*
X22086427Y6306672D01*
X22086427Y6306672D02*
X22229284Y6306672D01*
X22229284Y6306672D02*
X22443570Y6378100D01*
X22443570Y6378100D02*
X22586427Y6520958D01*
X22586427Y6520958D02*
X22657856Y6663815D01*
X22657856Y6663815D02*
X22729284Y6949529D01*
X22729284Y6949529D02*
X22729284Y7163815D01*
X22729284Y7163815D02*
X22657856Y7449529D01*
X22657856Y7449529D02*
X22586427Y7592386D01*
X22586427Y7592386D02*
X22443570Y7735243D01*
X22443570Y7735243D02*
X22229284Y7806672D01*
X22229284Y7806672D02*
X22086427Y7806672D01*
X22086427Y7806672D02*
X21872141Y7735243D01*
X21872141Y7735243D02*
X21800713Y7663815D01*
X21300713Y7806672D02*
X20300713Y7806672D01*
X20300713Y7806672D02*
X21300713Y6306672D01*
X21300713Y6306672D02*
X20300713Y6306672D01*
%TA.AperFunction,EtchedComponent*%
%TO.C,JP1*%
G36*
X21074000Y28960000D02*
G01*
X20074000Y28960000D01*
X20074000Y29460000D01*
X21074000Y29460000D01*
X21074000Y28960000D01*
G37*
%TD.AperFunction*%
%TD*%
D12*
%TO.P,M1,1*%
%TO.N,GND*%
X10160000Y40640000D03*
%TD*%
%TO.P,M2,1*%
%TO.N,GND*%
X60960000Y40640000D03*
%TD*%
%TO.P,M3,1*%
%TO.N,GND*%
X10160000Y10160000D03*
%TD*%
%TO.P,M4,1*%
%TO.N,GND*%
X60960000Y10160000D03*
%TD*%
D13*
%TO.P,J8,1,In*%
%TO.N,Net-(J8-In)*%
X11938000Y31435000D03*
D14*
%TO.P,J8,2,Ext*%
%TO.N,GND*%
X9398000Y28895000D03*
X14478000Y28895000D03*
X9398000Y33975000D03*
X14478000Y33975000D03*
%TD*%
D15*
%TO.P,J1,1*%
%TO.N,GND*%
X63500000Y17272000D03*
%TO.P,J1,2*%
X60960000Y17272000D03*
%TO.P,J1,3*%
%TO.N,Net-(D1-K)*%
X63500000Y19812000D03*
%TO.P,J1,4*%
X60960000Y19812000D03*
%TO.P,J1,5*%
%TO.N,GND*%
X63500000Y22352000D03*
%TO.P,J1,6*%
X60960000Y22352000D03*
%TD*%
%TO.P,J2,1*%
%TO.N,GNDA*%
X25146000Y13462000D03*
%TO.P,J2,2*%
X25146000Y16002000D03*
%TD*%
%TO.P,J3,1*%
%TO.N,/#PeakDetect{slash}Trace*%
X22606000Y13462000D03*
%TO.P,J3,2*%
X22606000Y16002000D03*
%TD*%
%TO.P,J5,1*%
%TO.N,GNDA*%
X39370000Y29718000D03*
%TO.P,J5,2*%
X39370000Y32258000D03*
%TD*%
%TO.P,J6,1*%
%TO.N,/A{slash}D*%
X36830000Y29718000D03*
%TO.P,J6,2*%
X36830000Y32258000D03*
%TD*%
%TO.P,J7,1*%
%TO.N,Net-(U3-SDO)*%
X57912000Y32004000D03*
%TO.P,J7,2*%
X55372000Y32004000D03*
%TD*%
%TO.P,J10,1*%
%TO.N,Net-(U3-CONV)*%
X57912000Y26924000D03*
%TO.P,J10,2*%
X55372000Y26924000D03*
%TD*%
%TO.P,J9,1*%
%TO.N,Net-(U3-SDI)*%
X57912000Y34544000D03*
%TO.P,J9,2*%
X55372000Y34544000D03*
%TD*%
%TO.P,J4,1*%
%TO.N,Net-(U3-SCK)*%
X57912000Y29464000D03*
%TO.P,J4,2*%
X55372000Y29464000D03*
%TD*%
%TO.P,J11,1*%
%TO.N,Net-(U3-V_{REF})*%
X44704000Y29845000D03*
%TO.P,J11,2*%
%TO.N,/VCC2*%
X42164000Y29845000D03*
%TD*%
%TO.P,J12,1*%
%TO.N,GND*%
X9144000Y20828000D03*
%TO.P,J12,2*%
X11684000Y20828000D03*
%TO.P,J12,3*%
%TO.N,Net-(C16-Pad1)*%
X9144000Y18288000D03*
%TO.P,J12,4*%
X11684000Y18288000D03*
%TO.P,J12,5*%
%TO.N,GND*%
X9144000Y15748000D03*
%TO.P,J12,6*%
X11684000Y15748000D03*
%TD*%
%TO.P,J13,1*%
%TO.N,Net-(C16-Pad1)*%
X11684000Y23368000D03*
%TO.P,J13,2*%
%TO.N,Net-(J13-Pad2)*%
X9144000Y23368000D03*
%TD*%
D16*
%TO.P,C2,1*%
%TO.N,/#PeakDetect{slash}Trace*%
X22860000Y19878000D03*
%TO.P,C2,2*%
%TO.N,Net-(C2-Pad2)*%
X22860000Y21778000D03*
%TD*%
D17*
%TO.P,U2,1*%
%TO.N,Net-(U1--)*%
X42352000Y18229000D03*
%TO.P,U2,2,V-*%
%TO.N,GNDA*%
X41402000Y18229000D03*
%TO.P,U2,3,+*%
%TO.N,Net-(U2-+)*%
X40452000Y18229000D03*
%TO.P,U2,4,-*%
%TO.N,Net-(U1--)*%
X40452000Y21649000D03*
%TO.P,U2,5,V+*%
%TO.N,/VCC2*%
X42352000Y21649000D03*
%TD*%
D18*
%TO.P,C1,1*%
%TO.N,Net-(D1-K)*%
X62484000Y25477500D03*
%TO.P,C1,2*%
%TO.N,GND*%
X62484000Y30402500D03*
%TD*%
D19*
%TO.P,C4,1*%
%TO.N,Net-(D1-K)*%
X54930000Y17526000D03*
%TO.P,C4,2*%
%TO.N,GND*%
X56830000Y17526000D03*
%TD*%
D20*
%TO.P,C7,1*%
%TO.N,/VCC2*%
X46562000Y21924000D03*
%TO.P,C7,2*%
%TO.N,GNDA*%
X46562000Y19224000D03*
%TD*%
D16*
%TO.P,C8,1*%
%TO.N,Net-(U1-+)*%
X25654000Y30800000D03*
%TO.P,C8,2*%
%TO.N,Net-(U6-+)*%
X25654000Y32700000D03*
%TD*%
D21*
%TO.P,C9,1*%
%TO.N,Net-(U4-Vout)*%
X34224000Y35941000D03*
%TO.P,C9,2*%
%TO.N,GNDA*%
X32324000Y35941000D03*
%TD*%
D22*
%TO.P,C12,1*%
%TO.N,/VCC2*%
X44323000Y22159000D03*
%TO.P,C12,2*%
%TO.N,GNDA*%
X44323000Y20259000D03*
%TD*%
D21*
%TO.P,C13,1*%
%TO.N,/VCC3*%
X29605000Y22286000D03*
%TO.P,C13,2*%
%TO.N,GNDA*%
X27705000Y22286000D03*
%TD*%
D22*
%TO.P,C14,1*%
%TO.N,/VCC4*%
X35052000Y16190000D03*
%TO.P,C14,2*%
%TO.N,GNDA*%
X35052000Y14290000D03*
%TD*%
D19*
%TO.P,C19,1*%
%TO.N,Net-(U2-+)*%
X40452000Y15494000D03*
%TO.P,C19,2*%
%TO.N,GNDA*%
X42352000Y15494000D03*
%TD*%
D23*
%TO.P,D1,1,K*%
%TO.N,Net-(D1-K)*%
X54864000Y14700000D03*
%TO.P,D1,2,A*%
%TO.N,GND*%
X54864000Y10700000D03*
%TD*%
D24*
%TO.P,R1,1*%
%TO.N,/A{slash}D*%
X40386000Y27074500D03*
%TO.P,R1,2*%
%TO.N,Net-(U1--)*%
X40386000Y25249500D03*
%TD*%
D25*
%TO.P,R3,1*%
%TO.N,/VCC2*%
X46482000Y24233500D03*
%TO.P,R3,2*%
%TO.N,VCC*%
X46482000Y26058500D03*
%TD*%
%TO.P,R4,1*%
%TO.N,/VCC3*%
X32512000Y19915500D03*
%TO.P,R4,2*%
%TO.N,VCC*%
X32512000Y21740500D03*
%TD*%
D26*
%TO.P,R5,1*%
%TO.N,/VCC4*%
X39981500Y12700000D03*
%TO.P,R5,2*%
%TO.N,VCC*%
X41806500Y12700000D03*
%TD*%
D25*
%TO.P,R12,1*%
%TO.N,/#PeakDetect{slash}Trace*%
X25146000Y19915500D03*
%TO.P,R12,2*%
%TO.N,Net-(C2-Pad2)*%
X25146000Y21740500D03*
%TD*%
D27*
%TO.P,R13,1*%
%TO.N,Net-(U2-+)*%
X36726500Y18288000D03*
%TO.P,R13,2*%
%TO.N,Net-(U5-NO)*%
X34901500Y18288000D03*
%TD*%
D28*
%TO.P,C21,1,1*%
%TO.N,VCC*%
X54864000Y22178000D03*
D29*
%TO.P,C21,2,2*%
%TO.N,GND*%
X54864000Y20828000D03*
D28*
%TO.P,C21,3,3*%
%TO.N,Net-(D1-K)*%
X54864000Y19478000D03*
%TD*%
D30*
%TO.P,M5,1,Shield*%
%TO.N,GND*%
X19660000Y41300000D03*
D31*
X19660000Y39650000D03*
D32*
X19660000Y34400000D03*
X19660000Y28400000D03*
X19660000Y22400000D03*
X19660000Y16400000D03*
D31*
X19660000Y11150000D03*
D30*
X19660000Y9500000D03*
D33*
X21310000Y41300000D03*
X21310000Y9500000D03*
D34*
X26560000Y41300000D03*
X26560000Y9500000D03*
X32560000Y41300000D03*
X32560000Y9500000D03*
X38560000Y41300000D03*
X38560000Y9500000D03*
X44560000Y41300000D03*
X44560000Y9500000D03*
D33*
X49810000Y41300000D03*
X49810000Y9500000D03*
D30*
X51460000Y41300000D03*
D31*
X51460000Y39650000D03*
D32*
X51460000Y34400000D03*
X51460000Y28400000D03*
X51460000Y22400000D03*
X51460000Y16400000D03*
D31*
X51460000Y11150000D03*
D30*
X51460000Y9500000D03*
%TD*%
D35*
%TO.P,U5,1,COM*%
%TO.N,Net-(U5-COM)*%
X32954000Y13128000D03*
%TO.P,U5,2,NO*%
%TO.N,Net-(U5-NO)*%
X32004000Y13128000D03*
%TO.P,U5,3,GND*%
%TO.N,GNDA*%
X31054000Y13128000D03*
%TO.P,U5,4,IN*%
%TO.N,Net-(U5-IN)*%
X31054000Y15828000D03*
%TO.P,U5,5,VCC*%
%TO.N,/VCC4*%
X32954000Y15828000D03*
%TD*%
D36*
%TO.P,U1,1*%
%TO.N,Net-(C2-Pad2)*%
X25828000Y24577000D03*
%TO.P,U1,2,V-*%
%TO.N,GNDA*%
X25828000Y25527000D03*
%TO.P,U1,3,+*%
%TO.N,Net-(U1-+)*%
X25828000Y26477000D03*
%TO.P,U1,4,-*%
%TO.N,Net-(U1--)*%
X28528000Y26477000D03*
%TO.P,U1,5,V+*%
%TO.N,/VCC3*%
X28528000Y24577000D03*
%TD*%
D22*
%TO.P,C18,1*%
%TO.N,VCC*%
X46736000Y34351000D03*
%TO.P,C18,2*%
%TO.N,GND*%
X46736000Y32451000D03*
%TD*%
D37*
%TO.P,C11,1*%
%TO.N,/VCC5*%
X34243000Y27305000D03*
%TO.P,C11,2*%
%TO.N,GNDA*%
X31543000Y27305000D03*
%TD*%
D21*
%TO.P,C20,1*%
%TO.N,Net-(U3-V_{REF})*%
X43622000Y32512000D03*
%TO.P,C20,2*%
%TO.N,GNDA*%
X41722000Y32512000D03*
%TD*%
D27*
%TO.P,R11,1*%
%TO.N,Net-(L1-Pad1)*%
X12088500Y25400000D03*
%TO.P,R11,2*%
%TO.N,Net-(J13-Pad2)*%
X10263500Y25400000D03*
%TD*%
D20*
%TO.P,C5,1*%
%TO.N,/VCC4*%
X37592000Y15574000D03*
%TO.P,C5,2*%
%TO.N,GNDA*%
X37592000Y12874000D03*
%TD*%
D38*
%TO.P,U3,1,CONV*%
%TO.N,Net-(U3-CONV)*%
X39710000Y34814000D03*
%TO.P,U3,2,CH0*%
%TO.N,/A{slash}D*%
X39710000Y35314000D03*
%TO.P,U3,3,CH1*%
%TO.N,Net-(U1-+)*%
X39710000Y35814000D03*
%TO.P,U3,4,AGND*%
%TO.N,GNDA*%
X39710000Y36314000D03*
%TO.P,U3,5,DGND*%
%TO.N,GND*%
X39710000Y36814000D03*
%TO.P,U3,6,SDI*%
%TO.N,Net-(U3-SDI)*%
X44110000Y36814000D03*
%TO.P,U3,7,SDO*%
%TO.N,Net-(U3-SDO)*%
X44110000Y36314000D03*
%TO.P,U3,8,SCK*%
%TO.N,Net-(U3-SCK)*%
X44110000Y35814000D03*
%TO.P,U3,9,V_{CC}*%
%TO.N,VCC*%
X44110000Y35314000D03*
%TO.P,U3,10,V_{REF}*%
%TO.N,Net-(U3-V_{REF})*%
X44110000Y34814000D03*
%TD*%
D27*
%TO.P,R6,1*%
%TO.N,Net-(U5-IN)*%
X29106500Y17272000D03*
%TO.P,R6,2*%
%TO.N,/#PeakDetect{slash}Trace*%
X27281500Y17272000D03*
%TD*%
D39*
%TO.P,U4,1,Vin*%
%TO.N,VCC*%
X26355000Y38148500D03*
%TO.P,U4,2,Vout*%
%TO.N,Net-(U4-Vout)*%
X28255000Y38148500D03*
%TO.P,U4,3,GND*%
%TO.N,GNDA*%
X27305000Y36273500D03*
%TD*%
D37*
%TO.P,C6,1*%
%TO.N,/VCC3*%
X30052000Y19746000D03*
%TO.P,C6,2*%
%TO.N,GNDA*%
X27352000Y19746000D03*
%TD*%
D16*
%TO.P,C17,1*%
%TO.N,Net-(C16-Pad1)*%
X14732000Y19878000D03*
%TO.P,C17,2*%
%TO.N,GND*%
X14732000Y21778000D03*
%TD*%
D40*
%TO.P,JP1,1,1*%
%TO.N,GNDA*%
X21074000Y29210000D03*
%TO.P,JP1,2,2*%
%TO.N,GND*%
X20074000Y29210000D03*
%TD*%
D21*
%TO.P,C15,1*%
%TO.N,/VCC5*%
X34224000Y29591000D03*
%TO.P,C15,2*%
%TO.N,GNDA*%
X32324000Y29591000D03*
%TD*%
D22*
%TO.P,C22,1*%
%TO.N,VCC*%
X24257000Y38161000D03*
%TO.P,C22,2*%
%TO.N,GNDA*%
X24257000Y36261000D03*
%TD*%
D26*
%TO.P,R9,1*%
%TO.N,/VCC5*%
X36171500Y25908000D03*
%TO.P,R9,2*%
%TO.N,VCC*%
X37996500Y25908000D03*
%TD*%
D27*
%TO.P,R8,1*%
%TO.N,Net-(U6-+)*%
X23518500Y31369000D03*
%TO.P,R8,2*%
%TO.N,Net-(C10-Pad1)*%
X21693500Y31369000D03*
%TD*%
D20*
%TO.P,C3,1*%
%TO.N,VCC*%
X49149000Y34116000D03*
%TO.P,C3,2*%
%TO.N,GND*%
X49149000Y31416000D03*
%TD*%
D41*
%TO.P,FID2,*%
%TO.N,*%
X15875000Y7366000D03*
%TD*%
D26*
%TO.P,R2,1*%
%TO.N,Net-(U1-+)*%
X27281500Y11938000D03*
%TO.P,R2,2*%
%TO.N,Net-(U5-COM)*%
X29106500Y11938000D03*
%TD*%
D25*
%TO.P,R7,1*%
%TO.N,Net-(U1-+)*%
X27940000Y31726500D03*
%TO.P,R7,2*%
%TO.N,Net-(U6-+)*%
X27940000Y33551500D03*
%TD*%
D21*
%TO.P,C10,1*%
%TO.N,Net-(C10-Pad1)*%
X17460000Y31369000D03*
%TO.P,C10,2*%
%TO.N,Net-(J8-In)*%
X15560000Y31369000D03*
%TD*%
D41*
%TO.P,FID1,*%
%TO.N,*%
X55372000Y43500000D03*
%TD*%
D20*
%TO.P,C16,1*%
%TO.N,Net-(C16-Pad1)*%
X14732000Y17860000D03*
%TO.P,C16,2*%
%TO.N,GND*%
X14732000Y15160000D03*
%TD*%
D24*
%TO.P,R10,1*%
%TO.N,Net-(C16-Pad1)*%
X17272000Y17676500D03*
%TO.P,R10,2*%
%TO.N,VCC*%
X17272000Y15851500D03*
%TD*%
D42*
%TO.P,L1,1,1*%
%TO.N,Net-(L1-Pad1)*%
X11938000Y27131500D03*
%TO.P,L1,2,2*%
%TO.N,Net-(J8-In)*%
X11938000Y29256500D03*
%TD*%
D43*
%TO.P,U6,1*%
%TO.N,Net-(U1-+)*%
X30421000Y31689000D03*
%TO.P,U6,2,V-*%
%TO.N,GNDA*%
X30421000Y32639000D03*
%TO.P,U6,3,+*%
%TO.N,Net-(U6-+)*%
X30421000Y33589000D03*
%TO.P,U6,4,-*%
%TO.N,Net-(U4-Vout)*%
X33841000Y33589000D03*
%TO.P,U6,5,V+*%
%TO.N,/VCC5*%
X33841000Y31689000D03*
%TD*%
D44*
%TO.N,VCC*%
X37846000Y24130000D03*
X44450000Y25908000D03*
X22606000Y38100000D03*
X17272000Y14224000D03*
X34214750Y20752750D03*
X49177426Y33070772D03*
X54864000Y23876000D03*
X43180000Y12700000D03*
%TO.N,GNDA*%
X35052000Y12954000D03*
X24297562Y25177763D03*
X22860000Y28956000D03*
X27813000Y28829000D03*
%TO.N,Net-(U3-CONV)*%
X41656000Y35306000D03*
%TD*%
D45*
%TO.N,GND*%
X49149000Y31416000D02*
X51460000Y33727000D01*
X48114000Y32451000D02*
X49149000Y31416000D01*
X46736000Y32451000D02*
X48114000Y32451000D01*
X51460000Y33727000D02*
X51460000Y34400000D01*
D46*
%TO.N,VCC*%
X45908000Y35179000D02*
X45720000Y35179000D01*
D45*
X34214750Y20752750D02*
X33960750Y21006750D01*
X37846000Y25757500D02*
X37996500Y25908000D01*
X46331500Y25908000D02*
X46482000Y26058500D01*
X24269500Y38148500D02*
X24257000Y38161000D01*
X33227000Y21740500D02*
X32512000Y21740500D01*
X37846000Y24130000D02*
X37846000Y25757500D01*
X24257000Y38161000D02*
X22667000Y38161000D01*
X43180000Y12700000D02*
X41806500Y12700000D01*
X17272000Y14224000D02*
X17272000Y15851500D01*
X44450000Y25908000D02*
X46331500Y25908000D01*
D46*
X46736000Y34351000D02*
X45908000Y35179000D01*
D45*
X49177426Y34087574D02*
X49177426Y33070772D01*
X48914000Y34351000D02*
X49149000Y34116000D01*
X46736000Y34351000D02*
X48914000Y34351000D01*
X22667000Y38161000D02*
X22606000Y38100000D01*
X49149000Y34116000D02*
X49177426Y34087574D01*
X33960750Y21006750D02*
X33227000Y21740500D01*
X54864000Y22178000D02*
X54864000Y23876000D01*
X26355000Y38148500D02*
X24269500Y38148500D01*
D47*
%TO.N,/VCC2*%
X46327000Y22159000D02*
X46562000Y21924000D01*
X42164000Y29845000D02*
X42164000Y24318000D01*
X46562000Y21924000D02*
X46562000Y24153500D01*
X46562000Y24153500D02*
X46482000Y24233500D01*
X42862000Y22159000D02*
X42352000Y21649000D01*
X42164000Y24318000D02*
X44323000Y22159000D01*
X44323000Y22159000D02*
X42862000Y22159000D01*
X44323000Y22159000D02*
X46327000Y22159000D01*
%TO.N,/VCC3*%
X32342500Y19746000D02*
X32512000Y19915500D01*
X29605000Y22286000D02*
X29605000Y20193000D01*
X29605000Y23500000D02*
X28528000Y24577000D01*
X29605000Y22286000D02*
X29605000Y23500000D01*
X30052000Y19746000D02*
X32342500Y19746000D01*
X29605000Y20193000D02*
X30052000Y19746000D01*
%TO.N,/VCC4*%
X34690000Y15828000D02*
X35052000Y16190000D01*
X39981500Y13184500D02*
X37592000Y15574000D01*
X35668000Y15574000D02*
X35052000Y16190000D01*
X32954000Y15828000D02*
X34690000Y15828000D01*
X39981500Y12700000D02*
X39981500Y13184500D01*
X37592000Y15574000D02*
X35668000Y15574000D01*
%TO.N,Net-(D1-K)*%
X58166000Y19812000D02*
X55198000Y19812000D01*
X54864000Y17592000D02*
X54930000Y17526000D01*
X58166000Y22332000D02*
X58166000Y19812000D01*
X55198000Y19812000D02*
X54864000Y19478000D01*
X62484000Y25477500D02*
X61311500Y25477500D01*
X63500000Y19812000D02*
X60960000Y19812000D01*
X61311500Y25477500D02*
X58166000Y22332000D01*
X54930000Y17526000D02*
X54930000Y14766000D01*
X54864000Y19478000D02*
X54864000Y17592000D01*
X54930000Y14766000D02*
X54864000Y14700000D01*
X60960000Y19812000D02*
X58166000Y19812000D01*
%TO.N,Net-(C2-Pad2)*%
X22860000Y21778000D02*
X25108500Y21778000D01*
X25108500Y21778000D02*
X25146000Y21740500D01*
X25146000Y23895000D02*
X25828000Y24577000D01*
X25146000Y21740500D02*
X25146000Y23895000D01*
%TO.N,/#PeakDetect{slash}Trace*%
X25146000Y19407500D02*
X25146000Y19915500D01*
X22606000Y16002000D02*
X22606000Y19624000D01*
X27281500Y17272000D02*
X25146000Y19407500D01*
X25146000Y19915500D02*
X22897500Y19915500D01*
X22897500Y19915500D02*
X22860000Y19878000D01*
X22606000Y19624000D02*
X22860000Y19878000D01*
X22606000Y16002000D02*
X22606000Y13462000D01*
D46*
%TO.N,GNDA*%
X30421000Y32639000D02*
X27166528Y32639000D01*
X30421000Y32639000D02*
X31721000Y32639000D01*
D47*
X27352000Y19746000D02*
X27352000Y19609406D01*
D46*
X27198000Y28214000D02*
X27813000Y28829000D01*
X27705000Y22286000D02*
X27198000Y22793000D01*
D47*
X42352000Y15494000D02*
X42352000Y16054000D01*
D46*
X25027472Y31750000D02*
X24381000Y31103528D01*
X28194000Y11176000D02*
X28194000Y13462000D01*
D48*
X24646799Y25527000D02*
X24297562Y25177763D01*
D46*
X26277528Y31750000D02*
X25027472Y31750000D01*
D47*
X41402000Y16779000D02*
X41417000Y16764000D01*
X43062000Y16764000D02*
X44323000Y18025000D01*
D46*
X28144000Y15444000D02*
X27586000Y16002000D01*
X24381000Y30477000D02*
X22860000Y28956000D01*
X28745000Y10625000D02*
X28194000Y11176000D01*
X27198000Y22793000D02*
X27198000Y28214000D01*
D47*
X35052000Y14290000D02*
X35052000Y12954000D01*
D46*
X27166528Y32639000D02*
X26277528Y31750000D01*
D47*
X27620000Y19746000D02*
X27705000Y19831000D01*
D46*
X24381000Y31103528D02*
X24381000Y30477000D01*
D47*
X41417000Y16764000D02*
X43062000Y16764000D01*
D46*
X27940000Y28956000D02*
X29892000Y28956000D01*
D48*
X25828000Y25527000D02*
X24646799Y25527000D01*
D47*
X27352000Y19609406D02*
X28194000Y18767406D01*
D46*
X39370000Y32258000D02*
X41468000Y32258000D01*
D47*
X42352000Y16054000D02*
X43062000Y16764000D01*
X27352000Y19746000D02*
X27620000Y19746000D01*
D46*
X28194000Y18767406D02*
X28144000Y18717406D01*
D47*
X27705000Y19831000D02*
X27705000Y22286000D01*
D46*
X28144000Y18717406D02*
X28144000Y15444000D01*
X41468000Y32258000D02*
X41722000Y32512000D01*
D47*
X32723000Y10625000D02*
X28745000Y10625000D01*
D46*
X31721000Y32639000D02*
X32324000Y33242000D01*
X29892000Y28956000D02*
X31543000Y27305000D01*
D47*
X41402000Y18229000D02*
X41402000Y16779000D01*
X44323000Y18025000D02*
X44323000Y20259000D01*
D46*
X32324000Y33242000D02*
X32324000Y35941000D01*
D47*
X35052000Y12954000D02*
X32723000Y10625000D01*
D46*
X27586000Y16002000D02*
X25146000Y16002000D01*
X27813000Y28829000D02*
X27940000Y28956000D01*
D47*
%TO.N,Net-(U1-+)*%
X25828000Y26477000D02*
X25828000Y30626000D01*
X21883000Y11811000D02*
X21419000Y12275000D01*
X30421000Y31689000D02*
X31871000Y31689000D01*
X27977500Y31689000D02*
X30421000Y31689000D01*
X25828000Y30626000D02*
X25654000Y30800000D01*
X21419000Y12275000D02*
X21419000Y23748770D01*
X27940000Y31726500D02*
X27977500Y31689000D01*
X31871000Y31689000D02*
X32948000Y32766000D01*
X21419000Y23748770D02*
X24147230Y26477000D01*
X25654000Y30800000D02*
X27013500Y30800000D01*
X27281500Y11938000D02*
X27154500Y11811000D01*
X35814000Y33528000D02*
X35814000Y34036000D01*
X27154500Y11811000D02*
X21883000Y11811000D01*
X35052000Y32766000D02*
X35814000Y33528000D01*
X24147230Y26477000D02*
X25828000Y26477000D01*
X27013500Y30800000D02*
X27940000Y31726500D01*
X35814000Y34036000D02*
X37592000Y35814000D01*
X32948000Y32766000D02*
X35052000Y32766000D01*
%TO.N,Net-(U6-+)*%
X25654000Y32700000D02*
X25654000Y33274000D01*
X27662500Y33274000D02*
X27940000Y33551500D01*
X24849500Y32700000D02*
X25654000Y32700000D01*
X27940000Y33551500D02*
X27977500Y33589000D01*
X23518500Y31369000D02*
X24849500Y32700000D01*
X25654000Y33274000D02*
X27662500Y33274000D01*
X27977500Y33589000D02*
X30421000Y33589000D01*
%TO.N,Net-(U4-Vout)*%
X33841000Y35558000D02*
X34224000Y35941000D01*
X34224000Y35941000D02*
X34224000Y36003437D01*
X33841000Y33589000D02*
X33841000Y35558000D01*
X34224000Y36003437D02*
X32078937Y38148500D01*
X32078937Y38148500D02*
X28255000Y38148500D01*
%TO.N,Net-(C10-Pad1)*%
X21693500Y31369000D02*
X17460000Y31369000D01*
%TO.N,Net-(J8-In)*%
X15560000Y31369000D02*
X12004000Y31369000D01*
D46*
X11938000Y29256500D02*
X11938000Y31435000D01*
D47*
X12004000Y31369000D02*
X11938000Y31435000D01*
%TO.N,/VCC5*%
X34224000Y31306000D02*
X33841000Y31689000D01*
X34243000Y27305000D02*
X34243000Y29572000D01*
X34774500Y27305000D02*
X36171500Y25908000D01*
X34243000Y29572000D02*
X34224000Y29591000D01*
X34224000Y29591000D02*
X34224000Y31306000D01*
X34243000Y27305000D02*
X34774500Y27305000D01*
D46*
%TO.N,Net-(C16-Pad1)*%
X17272000Y17676500D02*
X14915500Y17676500D01*
X12996000Y22056000D02*
X11684000Y23368000D01*
X14732000Y19878000D02*
X12996000Y21614000D01*
X14915500Y17676500D02*
X14732000Y17860000D01*
X14304000Y18288000D02*
X11684000Y18288000D01*
X12996000Y21614000D02*
X12996000Y22056000D01*
X14732000Y17860000D02*
X14304000Y18288000D01*
X11684000Y18288000D02*
X9144000Y18288000D01*
X14732000Y17860000D02*
X14732000Y19878000D01*
D47*
%TO.N,Net-(U2-+)*%
X40452000Y18229000D02*
X36785500Y18229000D01*
X40452000Y15494000D02*
X40452000Y18229000D01*
X36785500Y18229000D02*
X36726500Y18288000D01*
%TO.N,Net-(U3-V_{REF})*%
X43622000Y34326000D02*
X43835000Y34539000D01*
X43622000Y30927000D02*
X44704000Y29845000D01*
X43622000Y32512000D02*
X43622000Y30927000D01*
X43835000Y34539000D02*
X44110000Y34539000D01*
X43622000Y32512000D02*
X43622000Y34326000D01*
D46*
%TO.N,Net-(U3-SCK)*%
X52578000Y36576000D02*
X52304000Y36850000D01*
X45365050Y35814000D02*
X45360000Y35814000D01*
X46401050Y36850000D02*
X45365050Y35814000D01*
X55372000Y29464000D02*
X52578000Y32258000D01*
X52578000Y32258000D02*
X52578000Y36576000D01*
X52304000Y36850000D02*
X46401050Y36850000D01*
D47*
%TO.N,/A{slash}D*%
X36830000Y32258000D02*
X36830000Y33782000D01*
X36830000Y29718000D02*
X36830000Y32258000D01*
X36830000Y33782000D02*
X38354000Y35306000D01*
X36830000Y29718000D02*
X39473500Y27074500D01*
X39473500Y27074500D02*
X40386000Y27074500D01*
D46*
%TO.N,Net-(U3-SDO)*%
X55372000Y32004000D02*
X53078000Y34298000D01*
X45157943Y36314000D02*
X44110000Y36314000D01*
X53078000Y36783106D02*
X52511106Y37350000D01*
X52511106Y37350000D02*
X46193943Y37350000D01*
X46193943Y37350000D02*
X45157943Y36314000D01*
X53078000Y34298000D02*
X53078000Y36783106D01*
%TO.N,Net-(U3-SDI)*%
X55372000Y34544000D02*
X55372000Y35606000D01*
X53128000Y37850000D02*
X45146000Y37850000D01*
X55372000Y35606000D02*
X53128000Y37850000D01*
X45146000Y37850000D02*
X44110000Y36814000D01*
D47*
%TO.N,Net-(U3-CONV)*%
X41656000Y35306000D02*
X41089000Y34739000D01*
X41089000Y34739000D02*
X39710000Y34739000D01*
D46*
%TO.N,Net-(J13-Pad2)*%
X9144000Y23368000D02*
X9144000Y24280500D01*
X9144000Y24280500D02*
X10263500Y25400000D01*
%TO.N,Net-(L1-Pad1)*%
X12088500Y25400000D02*
X12088500Y26981000D01*
X12088500Y26981000D02*
X11938000Y27131500D01*
D47*
%TO.N,Net-(U1--)*%
X40452000Y21579000D02*
X40452000Y21649000D01*
X40386000Y21715000D02*
X40452000Y21649000D01*
X29911000Y26477000D02*
X28528000Y26477000D01*
X42352000Y18229000D02*
X42352000Y19679000D01*
X42352000Y19679000D02*
X40452000Y21579000D01*
X38996000Y23105000D02*
X33283000Y23105000D01*
X33283000Y23105000D02*
X29911000Y26477000D01*
X40386000Y25249500D02*
X40386000Y21715000D01*
X40452000Y21649000D02*
X38996000Y23105000D01*
%TO.N,Net-(U5-COM)*%
X32954000Y13128000D02*
X32954000Y11898000D01*
X32954000Y11898000D02*
X32331000Y11275000D01*
X29769500Y11275000D02*
X29106500Y11938000D01*
X32331000Y11275000D02*
X29769500Y11275000D01*
%TO.N,Net-(U5-IN)*%
X29106500Y17272000D02*
X29610000Y17272000D01*
X29610000Y17272000D02*
X31054000Y15828000D01*
%TO.N,Net-(U5-NO)*%
X34901500Y18288000D02*
X33459000Y18288000D01*
X33459000Y18288000D02*
X32004000Y16833000D01*
X32004000Y16833000D02*
X32004000Y13128000D01*
%TD*%
%TA.AperFunction,Conductor*%
%TO.N,GND*%
G36*
X65717621Y45435498D02*
G01*
X65764114Y45381842D01*
X65775500Y45329500D01*
X65775500Y5470500D01*
X65755498Y5402379D01*
X65701842Y5355886D01*
X65649500Y5344500D01*
X5470500Y5344500D01*
X5402379Y5364502D01*
X5355886Y5418158D01*
X5344500Y5470500D01*
X5344500Y7365997D01*
X14869659Y7365997D01*
X14888974Y7169876D01*
X14888974Y7169874D01*
X14946186Y6981272D01*
X15039090Y6807463D01*
X15039090Y6807462D01*
X15164117Y6655117D01*
X15316462Y6530090D01*
X15490273Y6437186D01*
X15678868Y6379976D01*
X15678872Y6379976D01*
X15678874Y6379975D01*
X15874997Y6360659D01*
X15875000Y6360659D01*
X15875003Y6360659D01*
X16071124Y6379975D01*
X16071126Y6379975D01*
X16071127Y6379976D01*
X16071132Y6379976D01*
X16259727Y6437186D01*
X16433538Y6530090D01*
X16585883Y6655117D01*
X16710910Y6807462D01*
X16803814Y6981273D01*
X16861024Y7169868D01*
X16880341Y7366000D01*
X16861025Y7562125D01*
X16861025Y7562127D01*
X16861024Y7562130D01*
X16861024Y7562132D01*
X16803814Y7750727D01*
X16710910Y7924538D01*
X16585883Y8076883D01*
X16433538Y8201910D01*
X16433538Y8201911D01*
X16259728Y8294814D01*
X16071125Y8352026D01*
X15965149Y8362463D01*
X19744922Y8362463D01*
X19744922Y5750881D01*
X29641632Y5750881D01*
X29641632Y8362463D01*
X19744922Y8362463D01*
X15965149Y8362463D01*
X15875003Y8371341D01*
X15874997Y8371341D01*
X15678875Y8352026D01*
X15678873Y8352026D01*
X15490271Y8294814D01*
X15316461Y8201910D01*
X15164117Y8076883D01*
X15039090Y7924539D01*
X14946186Y7750729D01*
X14888974Y7562127D01*
X14888974Y7562125D01*
X14869659Y7366004D01*
X14869659Y7365997D01*
X5344500Y7365997D01*
X5344500Y17494484D01*
X7981500Y17494484D01*
X7996353Y17400698D01*
X8053949Y17287658D01*
X8143657Y17197950D01*
X8164167Y17187500D01*
X8256696Y17140354D01*
X8350481Y17125500D01*
X9937518Y17125501D01*
X10031304Y17140354D01*
X10144342Y17197950D01*
X10234050Y17287658D01*
X10291646Y17400696D01*
X10291647Y17400709D01*
X10294163Y17408447D01*
X10334232Y17467055D01*
X10399627Y17494697D01*
X10469585Y17482595D01*
X10521894Y17434593D01*
X10533831Y17408459D01*
X10536352Y17400699D01*
X10593949Y17287658D01*
X10683657Y17197950D01*
X10704167Y17187500D01*
X10796696Y17140354D01*
X10890481Y17125500D01*
X12477518Y17125501D01*
X12571304Y17140354D01*
X12684342Y17197950D01*
X12774050Y17287658D01*
X12831646Y17400696D01*
X12846500Y17494481D01*
X12846500Y17611500D01*
X12866502Y17679621D01*
X12920158Y17726114D01*
X12972500Y17737500D01*
X13530500Y17737500D01*
X13598621Y17717498D01*
X13645114Y17663842D01*
X13656500Y17611500D01*
X13656500Y17344302D01*
X13659401Y17307433D01*
X13659401Y17307432D01*
X13705257Y17149599D01*
X13788917Y17008137D01*
X13788923Y17008130D01*
X13905129Y16891924D01*
X13905136Y16891918D01*
X14046598Y16808258D01*
X14046599Y16808258D01*
X14046602Y16808256D01*
X14204431Y16762402D01*
X14211805Y16761822D01*
X14241302Y16759500D01*
X14241306Y16759500D01*
X15222698Y16759500D01*
X15247277Y16761435D01*
X15259569Y16762402D01*
X15417398Y16808256D01*
X15558865Y16891919D01*
X15675081Y17008135D01*
X15708201Y17064139D01*
X15760095Y17112592D01*
X15816655Y17126000D01*
X16164711Y17126000D01*
X16232832Y17105998D01*
X16273162Y17064142D01*
X16303919Y17012135D01*
X16303920Y17012134D01*
X16303922Y17012131D01*
X16420129Y16895924D01*
X16420133Y16895921D01*
X16420135Y16895919D01*
X16451025Y16877651D01*
X16459814Y16872453D01*
X16508266Y16820560D01*
X16520971Y16750709D01*
X16493895Y16685078D01*
X16459814Y16655547D01*
X16420133Y16632080D01*
X16420129Y16632077D01*
X16303923Y16515871D01*
X16303917Y16515864D01*
X16220257Y16374402D01*
X16174401Y16216569D01*
X16174401Y16216568D01*
X16171500Y16179698D01*
X16171500Y15523302D01*
X16174401Y15486433D01*
X16174401Y15486432D01*
X16220257Y15328599D01*
X16303917Y15187137D01*
X16303923Y15187130D01*
X16420132Y15070921D01*
X16420136Y15070918D01*
X16440096Y15059115D01*
X16459636Y15047559D01*
X16508090Y14995668D01*
X16521500Y14939104D01*
X16521500Y14524311D01*
X16514430Y14482699D01*
X16486822Y14403796D01*
X16486631Y14403251D01*
X16466435Y14224001D01*
X16466435Y14224000D01*
X16486632Y14044745D01*
X16486633Y14044743D01*
X16546211Y13874478D01*
X16546212Y13874475D01*
X16642182Y13721740D01*
X16642183Y13721738D01*
X16769737Y13594184D01*
X16769739Y13594183D01*
X16922474Y13498213D01*
X16922475Y13498213D01*
X16922478Y13498211D01*
X17092745Y13438632D01*
X17272000Y13418435D01*
X17451255Y13438632D01*
X17621522Y13498211D01*
X17774262Y13594184D01*
X17901816Y13721738D01*
X17997789Y13874478D01*
X18057368Y14044745D01*
X18077565Y14224000D01*
X18057368Y14403255D01*
X18029569Y14482699D01*
X18022500Y14524311D01*
X18022500Y14939104D01*
X18042502Y15007225D01*
X18084362Y15047558D01*
X18123865Y15070919D01*
X18240081Y15187135D01*
X18323744Y15328602D01*
X18369598Y15486431D01*
X18372500Y15523306D01*
X18372500Y16179694D01*
X18371819Y16188342D01*
X18369598Y16216568D01*
X18369598Y16216569D01*
X18351736Y16278050D01*
X18323744Y16374398D01*
X18323742Y16374402D01*
X18240082Y16515864D01*
X18240076Y16515871D01*
X18123869Y16632078D01*
X18123866Y16632080D01*
X18123865Y16632081D01*
X18084183Y16655549D01*
X18035733Y16707439D01*
X18023028Y16777289D01*
X18050103Y16842921D01*
X18084182Y16872451D01*
X18123865Y16895919D01*
X18240081Y17012135D01*
X18323744Y17153602D01*
X18369598Y17311431D01*
X18372500Y17348306D01*
X18372500Y18004694D01*
X18369598Y18041569D01*
X18323744Y18199398D01*
X18314018Y18215844D01*
X18240082Y18340864D01*
X18240076Y18340871D01*
X18123870Y18457077D01*
X18123863Y18457083D01*
X17982401Y18540743D01*
X17824567Y18586599D01*
X17787698Y18589500D01*
X17787694Y18589500D01*
X16756306Y18589500D01*
X16756302Y18589500D01*
X16719432Y18586599D01*
X16719431Y18586599D01*
X16561598Y18540743D01*
X16420136Y18457083D01*
X16420129Y18457077D01*
X16303922Y18340870D01*
X16303919Y18340866D01*
X16303919Y18340865D01*
X16273163Y18288860D01*
X16221272Y18240408D01*
X16164711Y18227000D01*
X15933500Y18227000D01*
X15865379Y18247002D01*
X15818886Y18300658D01*
X15807500Y18353000D01*
X15807500Y18375698D01*
X15804598Y18412568D01*
X15804598Y18412569D01*
X15799150Y18431320D01*
X15758744Y18570398D01*
X15758742Y18570402D01*
X15675082Y18711864D01*
X15675076Y18711871D01*
X15558869Y18828078D01*
X15558866Y18828080D01*
X15558865Y18828081D01*
X15528965Y18845764D01*
X15480515Y18897654D01*
X15467810Y18967505D01*
X15494885Y19033136D01*
X15528965Y19062667D01*
X15608865Y19109919D01*
X15725081Y19226135D01*
X15808744Y19367602D01*
X15854598Y19525431D01*
X15855565Y19537723D01*
X15857500Y19562302D01*
X15857500Y20193698D01*
X15854598Y20230568D01*
X15854598Y20230569D01*
X15854597Y20230569D01*
X15808744Y20388398D01*
X15800762Y20401895D01*
X15725082Y20529864D01*
X15725076Y20529871D01*
X15608870Y20646077D01*
X15608863Y20646083D01*
X15467401Y20729743D01*
X15309567Y20775599D01*
X15272698Y20778500D01*
X15272694Y20778500D01*
X14662215Y20778500D01*
X14594094Y20798502D01*
X14573120Y20815405D01*
X13583405Y21805120D01*
X13549379Y21867432D01*
X13546500Y21894215D01*
X13546500Y22046603D01*
X13548762Y22112826D01*
X13538295Y22155775D01*
X13537090Y22162115D01*
X13534526Y22180772D01*
X13531070Y22205920D01*
X13523988Y22222222D01*
X13517137Y22242597D01*
X13512934Y22259847D01*
X13512933Y22259852D01*
X13491258Y22298402D01*
X13488401Y22304152D01*
X13470780Y22344720D01*
X13459561Y22358509D01*
X13447474Y22376269D01*
X13444686Y22381227D01*
X13438765Y22391759D01*
X13407501Y22423023D01*
X13403186Y22427805D01*
X13375276Y22462110D01*
X13360751Y22472363D01*
X13344319Y22486205D01*
X12883403Y22947121D01*
X12849377Y23009433D01*
X12846499Y23036207D01*
X12846499Y24161518D01*
X12831646Y24255304D01*
X12831646Y24255305D01*
X12831645Y24255307D01*
X12787000Y24342927D01*
X12773895Y24412703D01*
X12800595Y24478488D01*
X12810162Y24489217D01*
X12869081Y24548135D01*
X12952744Y24689602D01*
X12998598Y24847431D01*
X13001500Y24884306D01*
X13001500Y25915694D01*
X12998598Y25952569D01*
X12952744Y26110398D01*
X12951360Y26112739D01*
X12869082Y26251864D01*
X12869076Y26251871D01*
X12790695Y26330252D01*
X12756669Y26392564D01*
X12761734Y26463379D01*
X12790695Y26508442D01*
X12812440Y26530188D01*
X12812443Y26530191D01*
X12892087Y26664861D01*
X12892670Y26666865D01*
X12908293Y26720645D01*
X12935737Y26815108D01*
X12938500Y26850213D01*
X12938499Y27412786D01*
X12935737Y27447892D01*
X12922302Y27494137D01*
X12892088Y27598138D01*
X12812443Y27732809D01*
X12812440Y27732813D01*
X12701812Y27843441D01*
X12701808Y27843444D01*
X12567137Y27923089D01*
X12416893Y27966737D01*
X12416891Y27966738D01*
X12381791Y27969500D01*
X12381787Y27969500D01*
X11791392Y27969500D01*
X11494212Y27969499D01*
X11459109Y27966738D01*
X11308862Y27923089D01*
X11174191Y27843444D01*
X11174187Y27843441D01*
X11063559Y27732813D01*
X11063556Y27732809D01*
X10983911Y27598138D01*
X10940263Y27447894D01*
X10940262Y27447892D01*
X10937500Y27412791D01*
X10937501Y26850212D01*
X10940262Y26815110D01*
X10983912Y26664861D01*
X11034174Y26579873D01*
X11051634Y26511057D01*
X11029117Y26443726D01*
X10973773Y26399256D01*
X10903172Y26391768D01*
X10861582Y26407281D01*
X10786401Y26451743D01*
X10628567Y26497599D01*
X10591698Y26500500D01*
X10591694Y26500500D01*
X9935306Y26500500D01*
X9935302Y26500500D01*
X9898432Y26497599D01*
X9898431Y26497599D01*
X9740598Y26451743D01*
X9599136Y26368083D01*
X9599129Y26368077D01*
X9482923Y26251871D01*
X9482917Y26251864D01*
X9399257Y26110402D01*
X9353401Y25952569D01*
X9353401Y25952568D01*
X9350500Y25915698D01*
X9350500Y25317717D01*
X9330498Y25249596D01*
X9313595Y25228622D01*
X8761382Y24676408D01*
X8712959Y24631183D01*
X8712955Y24631179D01*
X8689985Y24593408D01*
X8686353Y24588071D01*
X8680507Y24580363D01*
X8623407Y24538172D01*
X8580113Y24530500D01*
X8350483Y24530500D01*
X8256697Y24515647D01*
X8143657Y24458051D01*
X8053949Y24368343D01*
X8006112Y24274455D01*
X7996354Y24255304D01*
X7982685Y24169000D01*
X7981500Y24161516D01*
X7981500Y22574484D01*
X7996353Y22480698D01*
X8053949Y22367658D01*
X8143657Y22277950D01*
X8179175Y22259853D01*
X8256696Y22220354D01*
X8350481Y22205500D01*
X9937518Y22205501D01*
X10031304Y22220354D01*
X10144342Y22277950D01*
X10234050Y22367658D01*
X10291646Y22480696D01*
X10291647Y22480709D01*
X10294163Y22488447D01*
X10334232Y22547055D01*
X10399627Y22574697D01*
X10469585Y22562595D01*
X10521894Y22514593D01*
X10533831Y22488459D01*
X10536352Y22480699D01*
X10593949Y22367658D01*
X10683657Y22277950D01*
X10719175Y22259853D01*
X10796696Y22220354D01*
X10890481Y22205500D01*
X12015783Y22205501D01*
X12083904Y22185499D01*
X12104878Y22168597D01*
X12408594Y21864882D01*
X12442619Y21802569D01*
X12445499Y21775786D01*
X12445499Y21623398D01*
X12443238Y21557174D01*
X12453705Y21514219D01*
X12454910Y21507878D01*
X12460928Y21464087D01*
X12460931Y21464076D01*
X12468009Y21447782D01*
X12474858Y21427418D01*
X12479067Y21410148D01*
X12500735Y21371609D01*
X12503605Y21365831D01*
X12521220Y21325280D01*
X12525811Y21319637D01*
X12532432Y21311498D01*
X12544519Y21293740D01*
X12553234Y21278241D01*
X12584500Y21246975D01*
X12588817Y21242192D01*
X12616718Y21207895D01*
X12616723Y21207890D01*
X12631242Y21197642D01*
X12647676Y21183799D01*
X13569595Y20261880D01*
X13603621Y20199568D01*
X13606500Y20172785D01*
X13606500Y19562302D01*
X13609401Y19525433D01*
X13609401Y19525432D01*
X13655257Y19367599D01*
X13738917Y19226137D01*
X13738923Y19226130D01*
X13855129Y19109924D01*
X13855131Y19109923D01*
X13855135Y19109919D01*
X13917642Y19072953D01*
X13966094Y19021061D01*
X13978799Y18951210D01*
X13951724Y18885579D01*
X13893463Y18845005D01*
X13853502Y18838500D01*
X12972499Y18838500D01*
X12904378Y18858502D01*
X12857885Y18912158D01*
X12846499Y18964500D01*
X12846499Y19081517D01*
X12844616Y19093410D01*
X12831646Y19175304D01*
X12790883Y19255306D01*
X12774050Y19288343D01*
X12684342Y19378051D01*
X12608502Y19416693D01*
X12571304Y19435646D01*
X12477519Y19450500D01*
X12477515Y19450500D01*
X10890483Y19450500D01*
X10796697Y19435647D01*
X10683657Y19378051D01*
X10593949Y19288343D01*
X10536352Y19175302D01*
X10533833Y19167546D01*
X10493760Y19108940D01*
X10428363Y19081303D01*
X10358406Y19093410D01*
X10306100Y19141416D01*
X10294167Y19167546D01*
X10291647Y19175302D01*
X10234050Y19288343D01*
X10144342Y19378051D01*
X10068502Y19416693D01*
X10031304Y19435646D01*
X9937519Y19450500D01*
X9937515Y19450500D01*
X8350483Y19450500D01*
X8256697Y19435647D01*
X8143657Y19378051D01*
X8053949Y19288343D01*
X8022251Y19226130D01*
X7996354Y19175304D01*
X7981500Y19081519D01*
X7981500Y19081516D01*
X7981500Y17494484D01*
X5344500Y17494484D01*
X5344500Y31435000D01*
X10507615Y31435000D01*
X10526219Y31210482D01*
X10527125Y31199559D01*
X10585115Y30970559D01*
X10585118Y30970552D01*
X10680013Y30754213D01*
X10809222Y30556442D01*
X10809225Y30556439D01*
X10969227Y30382632D01*
X11155654Y30237530D01*
X11207144Y30209665D01*
X11257534Y30159653D01*
X11272886Y30090336D01*
X11248325Y30023723D01*
X11211316Y29990400D01*
X11174191Y29968444D01*
X11174187Y29968441D01*
X11063559Y29857813D01*
X11063556Y29857809D01*
X10983911Y29723138D01*
X10940263Y29572894D01*
X10940262Y29572892D01*
X10937500Y29537791D01*
X10937501Y28975212D01*
X10940262Y28940110D01*
X10983911Y28789863D01*
X11063556Y28655192D01*
X11063559Y28655188D01*
X11174187Y28544560D01*
X11174191Y28544557D01*
X11308862Y28464912D01*
X11403324Y28437470D01*
X11459108Y28421263D01*
X11494209Y28418500D01*
X11494212Y28418501D01*
X11494213Y28418500D01*
X12086304Y28418501D01*
X12381788Y28418501D01*
X12399338Y28419882D01*
X12416892Y28421263D01*
X12508703Y28447936D01*
X12567137Y28464912D01*
X12567139Y28464913D01*
X12701809Y28544557D01*
X12812443Y28655191D01*
X12892087Y28789861D01*
X12900492Y28818790D01*
X12916682Y28874519D01*
X12935737Y28940108D01*
X12938500Y28975213D01*
X12938499Y29537786D01*
X12935737Y29572892D01*
X12923056Y29616542D01*
X12892088Y29723138D01*
X12812443Y29857809D01*
X12812440Y29857813D01*
X12701811Y29968442D01*
X12664684Y29990399D01*
X12616232Y30042293D01*
X12603528Y30112144D01*
X12630604Y30177774D01*
X12668855Y30209665D01*
X12720346Y30237530D01*
X12906773Y30382632D01*
X13066775Y30556439D01*
X13140865Y30669842D01*
X13151693Y30686415D01*
X13205697Y30732504D01*
X13257176Y30743500D01*
X14581724Y30743500D01*
X14649845Y30723498D01*
X14696338Y30669842D01*
X14702718Y30652662D01*
X14708256Y30633602D01*
X14708257Y30633601D01*
X14708258Y30633597D01*
X14791917Y30492137D01*
X14791923Y30492130D01*
X14908129Y30375924D01*
X14908136Y30375918D01*
X15049598Y30292258D01*
X15049599Y30292258D01*
X15049602Y30292256D01*
X15207431Y30246402D01*
X15214805Y30245822D01*
X15244302Y30243500D01*
X15244306Y30243500D01*
X15875698Y30243500D01*
X15900277Y30245435D01*
X15912569Y30246402D01*
X16070398Y30292256D01*
X16211865Y30375919D01*
X16328081Y30492135D01*
X16366112Y30556442D01*
X16401547Y30616359D01*
X16453439Y30664812D01*
X16523290Y30677517D01*
X16588921Y30650442D01*
X16618453Y30616359D01*
X16691917Y30492137D01*
X16691923Y30492130D01*
X16808129Y30375924D01*
X16808136Y30375918D01*
X16949598Y30292258D01*
X16949599Y30292258D01*
X16949602Y30292256D01*
X17107431Y30246402D01*
X17114805Y30245822D01*
X17144302Y30243500D01*
X17144306Y30243500D01*
X17775698Y30243500D01*
X17800277Y30245435D01*
X17812569Y30246402D01*
X17970398Y30292256D01*
X18111865Y30375919D01*
X18228081Y30492135D01*
X18311744Y30633602D01*
X18317279Y30652657D01*
X18355493Y30712490D01*
X18419990Y30742166D01*
X18438276Y30743500D01*
X20100962Y30743500D01*
X20169083Y30723498D01*
X20215576Y30669842D01*
X20225680Y30599568D01*
X20215576Y30565160D01*
X20210503Y30554050D01*
X20195485Y30521168D01*
X20175802Y30454137D01*
X20175800Y30454130D01*
X20175801Y30454130D01*
X20175800Y30454126D01*
X20155000Y30309456D01*
X20155000Y30025022D01*
X20156205Y30000171D01*
X20156206Y30000161D01*
X20156206Y30000160D01*
X20159728Y29963910D01*
X20159728Y29963911D01*
X20166933Y29914686D01*
X20166934Y29914683D01*
X20215205Y29776735D01*
X20215206Y29776732D01*
X20242531Y29724169D01*
X20245120Y29717963D01*
X20337871Y29588647D01*
X20335668Y29587068D01*
X20361926Y29536574D01*
X20358042Y29473112D01*
X20338408Y29413100D01*
X20338406Y29413093D01*
X20326352Y29344274D01*
X20326352Y29344269D01*
X20322951Y29233198D01*
X20322587Y29228094D01*
X20321881Y29221821D01*
X20321881Y29221820D01*
X20319320Y29138154D01*
X20321374Y29097901D01*
X20321374Y29097902D01*
X20332440Y29014928D01*
X20358397Y28945335D01*
X20363462Y28874519D01*
X20335566Y28818790D01*
X20256204Y28727202D01*
X20256203Y28727201D01*
X20195486Y28594254D01*
X20175802Y28527220D01*
X20175800Y28527213D01*
X20175801Y28527213D01*
X20175800Y28527209D01*
X20158252Y28405153D01*
X20155000Y28382536D01*
X20155000Y26585596D01*
X20134998Y26517475D01*
X20097122Y26479599D01*
X19976218Y26401898D01*
X19976212Y26401894D01*
X19923416Y26356145D01*
X19827704Y26245689D01*
X19827703Y26245688D01*
X19766985Y26112739D01*
X19748145Y26048578D01*
X19747815Y26047627D01*
X19747300Y26045702D01*
X19737375Y25976665D01*
X19726529Y25901226D01*
X19726500Y25901027D01*
X19726500Y24889777D01*
X19727142Y24871799D01*
X19728123Y24853494D01*
X19759189Y24710688D01*
X19759191Y24710681D01*
X19767053Y24689602D01*
X19783605Y24645223D01*
X19783607Y24645218D01*
X19853651Y24516940D01*
X19957000Y24413589D01*
X19957004Y24413586D01*
X20012929Y24371720D01*
X20099116Y24324658D01*
X20149319Y24274455D01*
X20161957Y24240365D01*
X20163006Y24235447D01*
X20206403Y24095880D01*
X20236431Y24032797D01*
X20236432Y24032794D01*
X20236434Y24032791D01*
X20317394Y23911105D01*
X20359231Y23876000D01*
X20429358Y23817156D01*
X20488722Y23780323D01*
X20488727Y23780320D01*
X20622619Y23721722D01*
X20683451Y23713959D01*
X20748491Y23685495D01*
X20787818Y23626385D01*
X20793500Y23588973D01*
X20793500Y20761835D01*
X20773498Y20693714D01*
X20719842Y20647221D01*
X20658512Y20636156D01*
X20516021Y20646347D01*
X20516016Y20646346D01*
X20373206Y20615279D01*
X20311048Y20592095D01*
X20310321Y20591870D01*
X20307731Y20590859D01*
X20179458Y20520815D01*
X20172069Y20515284D01*
X20140608Y20498105D01*
X20132574Y20495108D01*
X20115909Y20488203D01*
X20099171Y20480915D01*
X19976214Y20401895D01*
X19976212Y20401894D01*
X19923416Y20356145D01*
X19827704Y20245689D01*
X19827703Y20245688D01*
X19766985Y20112739D01*
X19748145Y20048578D01*
X19747815Y20047627D01*
X19747300Y20045702D01*
X19744007Y20022797D01*
X19730339Y19927726D01*
X19726500Y19901027D01*
X19726500Y18889777D01*
X19727142Y18871799D01*
X19728123Y18853494D01*
X19759189Y18710688D01*
X19759191Y18710681D01*
X19762170Y18702695D01*
X19783605Y18645223D01*
X19783607Y18645218D01*
X19853651Y18516940D01*
X19957000Y18413589D01*
X19957004Y18413586D01*
X20012929Y18371720D01*
X20012931Y18371719D01*
X20141209Y18301673D01*
X20141228Y18301666D01*
X20145308Y18299802D01*
X20145135Y18299424D01*
X20172078Y18284713D01*
X20179459Y18279187D01*
X20290681Y18215852D01*
X20290697Y18215845D01*
X20290700Y18215844D01*
X20347334Y18192385D01*
X20347337Y18192384D01*
X20347345Y18192381D01*
X20470779Y18158519D01*
X20616936Y18158520D01*
X20649565Y18163212D01*
X20719838Y18153110D01*
X20773495Y18106618D01*
X20793499Y18038498D01*
X20793499Y18038495D01*
X20793500Y14761835D01*
X20773498Y14693714D01*
X20719842Y14647221D01*
X20658512Y14636156D01*
X20516021Y14646347D01*
X20516016Y14646346D01*
X20373206Y14615279D01*
X20311048Y14592095D01*
X20310321Y14591870D01*
X20307732Y14590859D01*
X20179457Y14520814D01*
X20179446Y14520807D01*
X20172075Y14515288D01*
X20140599Y14498101D01*
X20136091Y14496420D01*
X20132592Y14495114D01*
X20115941Y14488215D01*
X20115942Y14488215D01*
X20099169Y14480914D01*
X19976214Y14401895D01*
X19976212Y14401894D01*
X19923416Y14356145D01*
X19827704Y14245689D01*
X19827703Y14245688D01*
X19766985Y14112739D01*
X19748145Y14048578D01*
X19747815Y14047627D01*
X19747300Y14045702D01*
X19726500Y13901027D01*
X19726500Y12889777D01*
X19727142Y12871799D01*
X19728123Y12853494D01*
X19759189Y12710688D01*
X19759191Y12710681D01*
X19774103Y12670699D01*
X19783605Y12645223D01*
X19783607Y12645218D01*
X19853651Y12516940D01*
X19957000Y12413589D01*
X19957004Y12413586D01*
X20012929Y12371720D01*
X20012931Y12371719D01*
X20141209Y12301673D01*
X20141228Y12301666D01*
X20145308Y12299802D01*
X20145135Y12299424D01*
X20172078Y12284713D01*
X20179459Y12279187D01*
X20240949Y12244172D01*
X20290244Y12193085D01*
X20304096Y12123452D01*
X20278102Y12057385D01*
X20273822Y12052171D01*
X20256207Y12031842D01*
X20256203Y12031837D01*
X20195486Y11898890D01*
X20175802Y11831856D01*
X20155000Y11687172D01*
X20155000Y10632493D01*
X20166737Y10523336D01*
X20177941Y10471833D01*
X20212609Y10367675D01*
X20291630Y10244716D01*
X20291631Y10244714D01*
X20337380Y10191918D01*
X20337382Y10191917D01*
X20337384Y10191914D01*
X20447839Y10096203D01*
X20580787Y10035486D01*
X20647826Y10015801D01*
X20647830Y10015800D01*
X20792500Y9995000D01*
X22360511Y9995000D01*
X22428632Y9974998D01*
X22475125Y9921342D01*
X22480567Y9907245D01*
X22480117Y9908658D01*
X22508230Y9831179D01*
X22508231Y9831177D01*
X22508233Y9831173D01*
X22514338Y9821674D01*
X22587253Y9708216D01*
X22587254Y9708214D01*
X22633003Y9655418D01*
X22633005Y9655417D01*
X22633007Y9655414D01*
X22743462Y9559703D01*
X22876410Y9498986D01*
X22943449Y9479301D01*
X22943453Y9479300D01*
X23088123Y9458500D01*
X23088127Y9458500D01*
X24031880Y9458500D01*
X24114003Y9465111D01*
X24114005Y9465112D01*
X24114013Y9465112D01*
X24153170Y9471457D01*
X24153172Y9471458D01*
X24153175Y9471458D01*
X24185099Y9479303D01*
X24233188Y9491120D01*
X24363886Y9556540D01*
X24419456Y9595122D01*
X24420957Y9596087D01*
X24421279Y9596388D01*
X24421282Y9596388D01*
X24528255Y9695981D01*
X24602836Y9821677D01*
X24617263Y9856508D01*
X24629575Y9886227D01*
X24633131Y9900160D01*
X24669358Y9961218D01*
X24732844Y9992998D01*
X24755217Y9995000D01*
X26795104Y9995000D01*
X26795110Y9995000D01*
X26931291Y10013387D01*
X26994705Y10030829D01*
X27121130Y10084671D01*
X27202326Y10150281D01*
X27267883Y10177536D01*
X27337768Y10165023D01*
X27364029Y10147501D01*
X27423229Y10096203D01*
X27556177Y10035486D01*
X27623216Y10015801D01*
X27623220Y10015800D01*
X27767890Y9995000D01*
X28360511Y9995000D01*
X28428632Y9974998D01*
X28475125Y9921342D01*
X28480567Y9907245D01*
X28480117Y9908658D01*
X28508230Y9831179D01*
X28508231Y9831177D01*
X28508233Y9831173D01*
X28514338Y9821674D01*
X28587253Y9708216D01*
X28587254Y9708214D01*
X28633003Y9655418D01*
X28633005Y9655417D01*
X28633007Y9655414D01*
X28743462Y9559703D01*
X28876410Y9498986D01*
X28943449Y9479301D01*
X28943453Y9479300D01*
X29088123Y9458500D01*
X29088127Y9458500D01*
X30031880Y9458500D01*
X30114003Y9465111D01*
X30114005Y9465112D01*
X30114013Y9465112D01*
X30153170Y9471457D01*
X30153172Y9471458D01*
X30153175Y9471458D01*
X30185099Y9479303D01*
X30233188Y9491120D01*
X30363886Y9556540D01*
X30419456Y9595122D01*
X30420957Y9596087D01*
X30421279Y9596388D01*
X30421282Y9596388D01*
X30528255Y9695981D01*
X30602836Y9821677D01*
X30617263Y9856508D01*
X30629575Y9886227D01*
X30629575Y9886228D01*
X30629576Y9886231D01*
X30634280Y9904663D01*
X30670509Y9965720D01*
X30733996Y9997498D01*
X30756366Y9999500D01*
X32640034Y9999500D01*
X32655743Y9997766D01*
X32655773Y9998073D01*
X32663665Y9997327D01*
X32663666Y9997328D01*
X32663667Y9997327D01*
X32732814Y9999500D01*
X32762350Y9999500D01*
X32769179Y10000364D01*
X32775090Y10000830D01*
X32821627Y10002291D01*
X32821627Y10002292D01*
X32829554Y10002540D01*
X32829578Y10001762D01*
X32855408Y10001948D01*
X32879502Y9998484D01*
X32903728Y9995000D01*
X32903730Y9995000D01*
X34360511Y9995000D01*
X34428632Y9974998D01*
X34475125Y9921342D01*
X34480567Y9907245D01*
X34480117Y9908658D01*
X34508230Y9831179D01*
X34508231Y9831177D01*
X34508233Y9831173D01*
X34514338Y9821674D01*
X34587253Y9708216D01*
X34587254Y9708214D01*
X34633003Y9655418D01*
X34633005Y9655417D01*
X34633007Y9655414D01*
X34743462Y9559703D01*
X34876410Y9498986D01*
X34943449Y9479301D01*
X34943453Y9479300D01*
X35088123Y9458500D01*
X35088127Y9458500D01*
X36031880Y9458500D01*
X36114003Y9465111D01*
X36114005Y9465112D01*
X36114013Y9465112D01*
X36153170Y9471457D01*
X36153172Y9471458D01*
X36153175Y9471458D01*
X36185099Y9479303D01*
X36233188Y9491120D01*
X36363886Y9556540D01*
X36419456Y9595122D01*
X36420957Y9596087D01*
X36421279Y9596388D01*
X36421282Y9596388D01*
X36528255Y9695981D01*
X36602836Y9821677D01*
X36617263Y9856508D01*
X36629575Y9886227D01*
X36633131Y9900160D01*
X36669358Y9961218D01*
X36732844Y9992998D01*
X36755217Y9995000D01*
X40360511Y9995000D01*
X40428632Y9974998D01*
X40475125Y9921342D01*
X40480567Y9907245D01*
X40480117Y9908658D01*
X40508230Y9831179D01*
X40508231Y9831177D01*
X40508233Y9831173D01*
X40514338Y9821674D01*
X40587253Y9708216D01*
X40587254Y9708214D01*
X40633003Y9655418D01*
X40633005Y9655417D01*
X40633007Y9655414D01*
X40743462Y9559703D01*
X40876410Y9498986D01*
X40943449Y9479301D01*
X40943453Y9479300D01*
X41088123Y9458500D01*
X41088127Y9458500D01*
X42031880Y9458500D01*
X42114003Y9465111D01*
X42114005Y9465112D01*
X42114013Y9465112D01*
X42153170Y9471457D01*
X42153172Y9471458D01*
X42153175Y9471458D01*
X42185099Y9479303D01*
X42233188Y9491120D01*
X42363886Y9556540D01*
X42419456Y9595122D01*
X42420957Y9596087D01*
X42421279Y9596388D01*
X42421282Y9596388D01*
X42528255Y9695981D01*
X42602836Y9821677D01*
X42617263Y9856508D01*
X42629575Y9886227D01*
X42633131Y9900160D01*
X42669358Y9961218D01*
X42732844Y9992998D01*
X42755217Y9995000D01*
X46360511Y9995000D01*
X46428632Y9974998D01*
X46475125Y9921342D01*
X46480567Y9907245D01*
X46480117Y9908658D01*
X46508230Y9831179D01*
X46508231Y9831177D01*
X46508233Y9831173D01*
X46514338Y9821674D01*
X46587253Y9708216D01*
X46587254Y9708214D01*
X46633003Y9655418D01*
X46633005Y9655417D01*
X46633007Y9655414D01*
X46743462Y9559703D01*
X46876410Y9498986D01*
X46943449Y9479301D01*
X46943453Y9479300D01*
X47088123Y9458500D01*
X47088127Y9458500D01*
X48031880Y9458500D01*
X48114003Y9465111D01*
X48114005Y9465112D01*
X48114013Y9465112D01*
X48153170Y9471457D01*
X48153172Y9471458D01*
X48153175Y9471458D01*
X48185099Y9479303D01*
X48233188Y9491120D01*
X48363886Y9556540D01*
X48419456Y9595122D01*
X48420957Y9596087D01*
X48421279Y9596388D01*
X48421282Y9596388D01*
X48528255Y9695981D01*
X48602836Y9821677D01*
X48617263Y9856508D01*
X48629575Y9886227D01*
X48633131Y9900160D01*
X48669358Y9961218D01*
X48732844Y9992998D01*
X48755217Y9995000D01*
X50327495Y9995000D01*
X50327500Y9995000D01*
X50436657Y10006736D01*
X50488168Y10017942D01*
X50592327Y10052610D01*
X50715282Y10131629D01*
X50715284Y10131632D01*
X50715286Y10131632D01*
X50741684Y10154507D01*
X50768086Y10177384D01*
X50863797Y10287839D01*
X50924514Y10420787D01*
X50944199Y10487826D01*
X50944200Y10487830D01*
X50965000Y10632500D01*
X50965000Y12169000D01*
X50985002Y12237121D01*
X51038658Y12283614D01*
X51091000Y12295000D01*
X51103995Y12295000D01*
X51104000Y12295000D01*
X51213157Y12306736D01*
X51264668Y12317942D01*
X51368827Y12352610D01*
X51491782Y12431629D01*
X51491784Y12431632D01*
X51491786Y12431632D01*
X51526437Y12461658D01*
X51544586Y12477384D01*
X51640297Y12587839D01*
X51701014Y12720787D01*
X51720699Y12787826D01*
X51720700Y12787830D01*
X51741500Y12932500D01*
X51741500Y13418484D01*
X53563500Y13418484D01*
X53578353Y13324698D01*
X53635949Y13211658D01*
X53725657Y13121950D01*
X53764299Y13102262D01*
X53838696Y13064354D01*
X53932481Y13049500D01*
X55795518Y13049501D01*
X55889304Y13064354D01*
X56002342Y13121950D01*
X56092050Y13211658D01*
X56149646Y13324696D01*
X56164500Y13418481D01*
X56164499Y15981518D01*
X56149646Y16075304D01*
X56120848Y16131823D01*
X56092050Y16188343D01*
X56002342Y16278051D01*
X55926502Y16316693D01*
X55889304Y16335646D01*
X55795519Y16350500D01*
X55795516Y16350500D01*
X55703637Y16350500D01*
X55635516Y16370502D01*
X55589023Y16424158D01*
X55578919Y16494432D01*
X55608413Y16559012D01*
X55614542Y16565595D01*
X55698076Y16649130D01*
X55698081Y16649135D01*
X55781744Y16790602D01*
X55827598Y16948431D01*
X55830500Y16985306D01*
X55830500Y18066694D01*
X55827598Y18103569D01*
X55781744Y18261398D01*
X55757980Y18301580D01*
X55740522Y18370395D01*
X55763039Y18437727D01*
X55809232Y18477985D01*
X55852342Y18499950D01*
X55942050Y18589658D01*
X55999646Y18702696D01*
X56014500Y18796481D01*
X56014500Y19060500D01*
X56034502Y19128621D01*
X56088158Y19175114D01*
X56140500Y19186500D01*
X58086981Y19186500D01*
X58094963Y19186500D01*
X58118574Y19184268D01*
X58126407Y19182774D01*
X58126412Y19182773D01*
X58183693Y19186377D01*
X58187627Y19186500D01*
X59671501Y19186500D01*
X59739622Y19166498D01*
X59786115Y19112842D01*
X59797501Y19060500D01*
X59797501Y19018484D01*
X59812353Y18924698D01*
X59869949Y18811658D01*
X59959657Y18721950D01*
X59997442Y18702698D01*
X60072696Y18664354D01*
X60166481Y18649500D01*
X61753518Y18649501D01*
X61847304Y18664354D01*
X61960342Y18721950D01*
X62050050Y18811658D01*
X62107646Y18924696D01*
X62107647Y18924709D01*
X62110163Y18932447D01*
X62150232Y18991055D01*
X62215627Y19018697D01*
X62285585Y19006595D01*
X62337894Y18958593D01*
X62349831Y18932459D01*
X62352352Y18924699D01*
X62409949Y18811658D01*
X62499657Y18721950D01*
X62537442Y18702698D01*
X62612696Y18664354D01*
X62706481Y18649500D01*
X64293518Y18649501D01*
X64387304Y18664354D01*
X64500342Y18721950D01*
X64590050Y18811658D01*
X64647646Y18924696D01*
X64662500Y19018481D01*
X64662499Y20605518D01*
X64647646Y20699304D01*
X64608772Y20775599D01*
X64590050Y20812343D01*
X64500342Y20902051D01*
X64416784Y20944625D01*
X64387304Y20959646D01*
X64293519Y20974500D01*
X64293515Y20974500D01*
X62706483Y20974500D01*
X62612697Y20959647D01*
X62499657Y20902051D01*
X62409949Y20812343D01*
X62352352Y20699302D01*
X62349833Y20691546D01*
X62309760Y20632940D01*
X62244363Y20605303D01*
X62174406Y20617410D01*
X62122100Y20665416D01*
X62110167Y20691546D01*
X62107647Y20699302D01*
X62050050Y20812343D01*
X61960342Y20902051D01*
X61876784Y20944625D01*
X61847304Y20959646D01*
X61753519Y20974500D01*
X61753515Y20974500D01*
X60166483Y20974500D01*
X60072697Y20959647D01*
X59959657Y20902051D01*
X59869949Y20812343D01*
X59812355Y20699306D01*
X59812354Y20699304D01*
X59797500Y20605519D01*
X59797500Y20605516D01*
X59797500Y20563500D01*
X59777498Y20495379D01*
X59723842Y20448886D01*
X59671500Y20437500D01*
X58917500Y20437500D01*
X58849379Y20457502D01*
X58802886Y20511158D01*
X58791500Y20563500D01*
X58791500Y22020721D01*
X58811502Y22088842D01*
X58828400Y22109811D01*
X60934726Y24216138D01*
X60997038Y24250163D01*
X61067853Y24245098D01*
X61112916Y24216137D01*
X61157129Y24171924D01*
X61157136Y24171918D01*
X61298598Y24088258D01*
X61298599Y24088258D01*
X61298602Y24088256D01*
X61456431Y24042402D01*
X61463805Y24041822D01*
X61493302Y24039500D01*
X61493306Y24039500D01*
X63474698Y24039500D01*
X63499277Y24041435D01*
X63511569Y24042402D01*
X63669398Y24088256D01*
X63810865Y24171919D01*
X63927081Y24288135D01*
X64010744Y24429602D01*
X64056598Y24587431D01*
X64059500Y24624306D01*
X64059500Y26330694D01*
X64058774Y26339913D01*
X64056598Y26367568D01*
X64056598Y26367569D01*
X64047392Y26399256D01*
X64010744Y26525398D01*
X64010742Y26525402D01*
X63927082Y26666864D01*
X63927076Y26666871D01*
X63810870Y26783077D01*
X63810863Y26783083D01*
X63669401Y26866743D01*
X63511567Y26912599D01*
X63474698Y26915500D01*
X63474694Y26915500D01*
X61493306Y26915500D01*
X61493302Y26915500D01*
X61456432Y26912599D01*
X61456431Y26912599D01*
X61298598Y26866743D01*
X61157136Y26783083D01*
X61157129Y26783077D01*
X61040923Y26666871D01*
X61040917Y26666864D01*
X60957257Y26525402D01*
X60911401Y26367569D01*
X60911401Y26367568D01*
X60908500Y26330698D01*
X60908500Y26330697D01*
X60908499Y26017013D01*
X60888497Y25948892D01*
X60879584Y25936698D01*
X60850239Y25901226D01*
X60846242Y25896833D01*
X57782365Y22832958D01*
X57770031Y22823075D01*
X57770228Y22822837D01*
X57764124Y22817788D01*
X57741984Y22794212D01*
X57716773Y22767365D01*
X57706325Y22756918D01*
X57695877Y22746469D01*
X57691647Y22741017D01*
X57687800Y22736514D01*
X57655940Y22702586D01*
X57655935Y22702579D01*
X57646357Y22685157D01*
X57635508Y22668642D01*
X57623331Y22652944D01*
X57623327Y22652936D01*
X57604839Y22610216D01*
X57602228Y22604886D01*
X57579802Y22564091D01*
X57574860Y22544842D01*
X57568458Y22526143D01*
X57560561Y22507895D01*
X57553279Y22461921D01*
X57552075Y22456110D01*
X57540500Y22411019D01*
X57540500Y22391145D01*
X57538949Y22371435D01*
X57535840Y22351805D01*
X57535840Y22351804D01*
X57540220Y22305466D01*
X57540500Y22299533D01*
X57540500Y20563500D01*
X57520498Y20495379D01*
X57466842Y20448886D01*
X57414500Y20437500D01*
X55918815Y20437500D01*
X55862452Y20454050D01*
X55861178Y20451548D01*
X55803542Y20480915D01*
X55739304Y20513646D01*
X55645519Y20528500D01*
X55645515Y20528500D01*
X54082483Y20528500D01*
X53988697Y20513647D01*
X53875657Y20456051D01*
X53785949Y20366343D01*
X53733475Y20263354D01*
X53728354Y20253304D01*
X53713500Y20159519D01*
X53713500Y20159516D01*
X53713500Y18796484D01*
X53728353Y18702698D01*
X53785949Y18589658D01*
X53875657Y18499950D01*
X53988698Y18442353D01*
X53998123Y18439291D01*
X53997430Y18437160D01*
X54049505Y18412476D01*
X54087035Y18352210D01*
X54086025Y18281221D01*
X54081285Y18268399D01*
X54078257Y18261402D01*
X54032401Y18103569D01*
X54032401Y18103568D01*
X54029500Y18066698D01*
X54029500Y16985302D01*
X54032401Y16948433D01*
X54032401Y16948432D01*
X54078257Y16790599D01*
X54161917Y16649137D01*
X54161923Y16649130D01*
X54245458Y16565595D01*
X54279484Y16503283D01*
X54274419Y16432468D01*
X54231872Y16375632D01*
X54165352Y16350821D01*
X54156364Y16350500D01*
X53932483Y16350500D01*
X53838697Y16335647D01*
X53725657Y16278051D01*
X53635949Y16188343D01*
X53578355Y16075306D01*
X53578354Y16075304D01*
X53563500Y15981519D01*
X53563500Y15981516D01*
X53563500Y13418484D01*
X51741500Y13418484D01*
X51741500Y13867500D01*
X51729764Y13976657D01*
X51718558Y14028168D01*
X51683890Y14132327D01*
X51604871Y14255282D01*
X51604870Y14255283D01*
X51604869Y14255285D01*
X51604868Y14255287D01*
X51559119Y14308083D01*
X51503653Y14356145D01*
X51448661Y14403797D01*
X51315714Y14464514D01*
X51248680Y14484198D01*
X51248674Y14484199D01*
X51248670Y14484200D01*
X51104000Y14505000D01*
X51103996Y14505000D01*
X51091000Y14505000D01*
X51022879Y14525002D01*
X50976386Y14578658D01*
X50965000Y14631000D01*
X50965000Y18169000D01*
X50985002Y18237121D01*
X51038658Y18283614D01*
X51091000Y18295000D01*
X51103995Y18295000D01*
X51104000Y18295000D01*
X51213157Y18306736D01*
X51264668Y18317942D01*
X51368827Y18352610D01*
X51491782Y18431629D01*
X51491784Y18431632D01*
X51491786Y18431632D01*
X51519221Y18455405D01*
X51544586Y18477384D01*
X51640297Y18587839D01*
X51701014Y18720787D01*
X51720699Y18787826D01*
X51720700Y18787830D01*
X51741500Y18932500D01*
X51741500Y19867500D01*
X51729764Y19976657D01*
X51718558Y20028168D01*
X51683890Y20132327D01*
X51604871Y20255282D01*
X51604870Y20255283D01*
X51604869Y20255285D01*
X51604868Y20255287D01*
X51559119Y20308083D01*
X51503653Y20356145D01*
X51448661Y20403797D01*
X51433638Y20410658D01*
X51315714Y20464514D01*
X51248680Y20484198D01*
X51248674Y20484199D01*
X51248670Y20484200D01*
X51104000Y20505000D01*
X51103996Y20505000D01*
X51091000Y20505000D01*
X51022879Y20525002D01*
X50976386Y20578658D01*
X50965000Y20631000D01*
X50965000Y21496484D01*
X53713500Y21496484D01*
X53728353Y21402698D01*
X53785949Y21289658D01*
X53875657Y21199950D01*
X53883979Y21195710D01*
X53988696Y21142354D01*
X54082481Y21127500D01*
X55645518Y21127501D01*
X55739304Y21142354D01*
X55852342Y21199950D01*
X55942050Y21289658D01*
X55999646Y21402696D01*
X56014500Y21496481D01*
X56014499Y22859518D01*
X55999646Y22953304D01*
X55957400Y23036216D01*
X55942050Y23066343D01*
X55852342Y23156051D01*
X55765312Y23200394D01*
X55739304Y23213646D01*
X55720786Y23216579D01*
X55656635Y23246991D01*
X55619109Y23307260D01*
X55614500Y23341026D01*
X55614500Y23341028D01*
X55614500Y23575696D01*
X55621568Y23617300D01*
X55649368Y23696745D01*
X55669565Y23876000D01*
X55649368Y24055255D01*
X55589789Y24225522D01*
X55589787Y24225525D01*
X55589787Y24225526D01*
X55493817Y24378261D01*
X55493816Y24378263D01*
X55366262Y24505817D01*
X55366260Y24505818D01*
X55213525Y24601788D01*
X55213522Y24601789D01*
X55043255Y24661368D01*
X54864000Y24681565D01*
X54863999Y24681565D01*
X54837926Y24678628D01*
X54684745Y24661368D01*
X54684742Y24661368D01*
X54684742Y24661367D01*
X54514477Y24601789D01*
X54514474Y24601788D01*
X54361739Y24505818D01*
X54361737Y24505817D01*
X54234183Y24378263D01*
X54234182Y24378261D01*
X54138212Y24225526D01*
X54138211Y24225523D01*
X54078633Y24055258D01*
X54078632Y24055255D01*
X54058435Y23876000D01*
X54078632Y23696745D01*
X54078633Y23696743D01*
X54106429Y23617306D01*
X54113500Y23575691D01*
X54113500Y23341028D01*
X54093498Y23272907D01*
X54039842Y23226414D01*
X54007213Y23216580D01*
X53988699Y23213648D01*
X53988698Y23213648D01*
X53875657Y23156051D01*
X53785949Y23066343D01*
X53756953Y23009433D01*
X53728354Y22953304D01*
X53713500Y22859519D01*
X53713500Y22859516D01*
X53713500Y21496484D01*
X50965000Y21496484D01*
X50965000Y24169000D01*
X50985002Y24237121D01*
X51038658Y24283614D01*
X51091000Y24295000D01*
X51103995Y24295000D01*
X51104000Y24295000D01*
X51213157Y24306736D01*
X51264668Y24317942D01*
X51368827Y24352610D01*
X51491782Y24431629D01*
X51491784Y24431632D01*
X51491786Y24431632D01*
X51522273Y24458050D01*
X51544586Y24477384D01*
X51640297Y24587839D01*
X51701014Y24720787D01*
X51720699Y24787826D01*
X51720700Y24787830D01*
X51741500Y24932500D01*
X51741500Y25867500D01*
X51729764Y25976657D01*
X51718558Y26028168D01*
X51683890Y26132327D01*
X51604871Y26255282D01*
X51604870Y26255283D01*
X51604869Y26255285D01*
X51604868Y26255287D01*
X51559119Y26308083D01*
X51545015Y26320304D01*
X51448661Y26403797D01*
X51427450Y26413484D01*
X51315714Y26464514D01*
X51248680Y26484198D01*
X51248674Y26484199D01*
X51248670Y26484200D01*
X51104000Y26505000D01*
X51103996Y26505000D01*
X51091000Y26505000D01*
X51022879Y26525002D01*
X50976386Y26578658D01*
X50965000Y26631000D01*
X50965000Y30169000D01*
X50985002Y30237121D01*
X51038658Y30283614D01*
X51091000Y30295000D01*
X51103995Y30295000D01*
X51104000Y30295000D01*
X51213157Y30306736D01*
X51264668Y30317942D01*
X51368827Y30352610D01*
X51491782Y30431629D01*
X51491784Y30431632D01*
X51491786Y30431632D01*
X51529536Y30464343D01*
X51544586Y30477384D01*
X51640297Y30587839D01*
X51701014Y30720787D01*
X51720699Y30787826D01*
X51720700Y30787830D01*
X51741500Y30932500D01*
X51741500Y31867500D01*
X51729764Y31976657D01*
X51718558Y32028168D01*
X51683890Y32132327D01*
X51604871Y32255282D01*
X51604870Y32255283D01*
X51604869Y32255285D01*
X51604868Y32255287D01*
X51559119Y32308083D01*
X51552799Y32313559D01*
X51448661Y32403797D01*
X51398015Y32426927D01*
X51315714Y32464514D01*
X51248680Y32484198D01*
X51248674Y32484199D01*
X51248670Y32484200D01*
X51104000Y32505000D01*
X50976211Y32505000D01*
X50976206Y32505000D01*
X50956591Y32503949D01*
X50948744Y32503528D01*
X50908711Y32499223D01*
X50876339Y32493978D01*
X50854458Y32490433D01*
X50717510Y32439355D01*
X50656190Y32405871D01*
X50649021Y32400504D01*
X50649018Y32400502D01*
X50539185Y32318282D01*
X50539182Y32318280D01*
X49995989Y31775087D01*
X49995989Y31775088D01*
X49982477Y31760045D01*
X49977622Y31754638D01*
X49977601Y31754615D01*
X49977601Y31754614D01*
X49952347Y31723277D01*
X49920201Y31678698D01*
X49920199Y31678693D01*
X49890651Y31613991D01*
X49859482Y31545741D01*
X49839798Y31478704D01*
X49839798Y31478702D01*
X49825984Y31382620D01*
X49820977Y31347789D01*
X49818999Y31334034D01*
X49818999Y30944826D01*
X49818671Y30938405D01*
X49818160Y30933410D01*
X49812419Y30906611D01*
X49802187Y30875733D01*
X49789824Y30849220D01*
X49775217Y30825538D01*
X49757071Y30802589D01*
X49737411Y30782929D01*
X49714462Y30764783D01*
X49690780Y30750176D01*
X49664265Y30737812D01*
X49633382Y30727579D01*
X49606630Y30721844D01*
X49605490Y30721727D01*
X49601592Y30721329D01*
X49595196Y30721001D01*
X48702830Y30721001D01*
X48696418Y30721328D01*
X48695351Y30721437D01*
X48691422Y30721839D01*
X48664609Y30727581D01*
X48633731Y30737813D01*
X48607218Y30750176D01*
X48583536Y30764783D01*
X48560587Y30782929D01*
X48540926Y30802590D01*
X48522781Y30825538D01*
X48508173Y30849221D01*
X48495812Y30875728D01*
X48485575Y30906620D01*
X48479832Y30933459D01*
X48479325Y30938433D01*
X48479000Y30944828D01*
X48479000Y31347794D01*
X48477528Y31375254D01*
X48477528Y31375256D01*
X48473223Y31415288D01*
X48464431Y31469546D01*
X48413354Y31606488D01*
X48379869Y31667811D01*
X48292280Y31784815D01*
X48148091Y31929005D01*
X48148092Y31929005D01*
X48133048Y31942517D01*
X48127626Y31947387D01*
X48116531Y31956328D01*
X48096278Y31972649D01*
X48096279Y31972648D01*
X48096277Y31972649D01*
X48090708Y31976665D01*
X48059763Y31998980D01*
X48051695Y32004798D01*
X47918750Y32065514D01*
X47851715Y32085198D01*
X47851709Y32085199D01*
X47851705Y32085200D01*
X47707035Y32106000D01*
X47704466Y32106000D01*
X47704463Y32106000D01*
X47564384Y32086524D01*
X47564369Y32086521D01*
X47499279Y32068063D01*
X47369788Y32011086D01*
X47369786Y32011085D01*
X47327777Y31985174D01*
X47301264Y31972811D01*
X47270385Y31962579D01*
X47243618Y31956843D01*
X47238584Y31956328D01*
X47232192Y31956001D01*
X46239830Y31956001D01*
X46233418Y31956328D01*
X46232351Y31956437D01*
X46228422Y31956839D01*
X46201609Y31962581D01*
X46170731Y31972813D01*
X46144218Y31985176D01*
X46120536Y31999783D01*
X46097587Y32017929D01*
X46077927Y32037589D01*
X46059783Y32060535D01*
X46045172Y32084222D01*
X46032810Y32110732D01*
X46022575Y32141616D01*
X46016832Y32168460D01*
X46016557Y32171157D01*
X46016325Y32173437D01*
X46016000Y32179828D01*
X46016000Y32722160D01*
X46016324Y32728543D01*
X46016831Y32733520D01*
X46022579Y32760395D01*
X46032809Y32791267D01*
X46045169Y32817777D01*
X46059784Y32841471D01*
X46077923Y32864410D01*
X46132909Y32919396D01*
X46135101Y32921482D01*
X46136719Y32922950D01*
X46136734Y32922962D01*
X46153808Y32938442D01*
X46244464Y33053086D01*
X46279561Y33113501D01*
X46334245Y33249040D01*
X46342864Y33336816D01*
X46369428Y33402654D01*
X46427370Y33443680D01*
X46468261Y33450500D01*
X47276698Y33450500D01*
X47301277Y33452435D01*
X47313569Y33453402D01*
X47471398Y33499256D01*
X47546478Y33543658D01*
X47612923Y33582953D01*
X47677062Y33600500D01*
X47971029Y33600500D01*
X48039150Y33580498D01*
X48085643Y33526842D01*
X48092026Y33509653D01*
X48122257Y33405599D01*
X48205917Y33264137D01*
X48205923Y33264130D01*
X48322128Y33147925D01*
X48322132Y33147922D01*
X48322135Y33147919D01*
X48322138Y33147918D01*
X48325070Y33145643D01*
X48326785Y33143268D01*
X48327740Y33142313D01*
X48327586Y33142160D01*
X48366637Y33088087D01*
X48373053Y33060190D01*
X48373854Y33053083D01*
X48392058Y32891517D01*
X48422246Y32805246D01*
X48451637Y32721250D01*
X48451638Y32721247D01*
X48547608Y32568512D01*
X48547609Y32568510D01*
X48675163Y32440956D01*
X48675165Y32440955D01*
X48827900Y32344985D01*
X48827901Y32344985D01*
X48827904Y32344983D01*
X48998171Y32285404D01*
X49177426Y32265207D01*
X49356681Y32285404D01*
X49526948Y32344983D01*
X49679688Y32440956D01*
X49807242Y32568510D01*
X49903215Y32721250D01*
X49962794Y32891517D01*
X49982991Y33070772D01*
X49981251Y33086213D01*
X49993498Y33156143D01*
X50017358Y33189413D01*
X50092081Y33264135D01*
X50175744Y33405602D01*
X50221598Y33563431D01*
X50224500Y33600306D01*
X50224500Y34268408D01*
X50244502Y34336529D01*
X50298158Y34383022D01*
X50350498Y34394408D01*
X50382936Y34394408D01*
X50382937Y34394408D01*
X50382937Y34394409D01*
X50452094Y34404352D01*
X50592327Y34445529D01*
X50715282Y34524548D01*
X50715284Y34524551D01*
X50715286Y34524551D01*
X50746308Y34551432D01*
X50768086Y34570303D01*
X50863797Y34680758D01*
X50924514Y34813706D01*
X50944199Y34880745D01*
X50944200Y34880749D01*
X50965000Y35025419D01*
X50965000Y36067500D01*
X50955051Y36160033D01*
X50967656Y36229898D01*
X51016034Y36281861D01*
X51080329Y36299500D01*
X51901500Y36299500D01*
X51969621Y36279498D01*
X52016114Y36225842D01*
X52027500Y36173501D01*
X52027500Y32267398D01*
X52025660Y32213514D01*
X52025238Y32201173D01*
X52035705Y32158219D01*
X52036910Y32151878D01*
X52042928Y32108087D01*
X52042931Y32108076D01*
X52050009Y32091782D01*
X52056858Y32071418D01*
X52061067Y32054148D01*
X52082735Y32015609D01*
X52085605Y32009831D01*
X52103219Y31969282D01*
X52103222Y31969278D01*
X52114432Y31955498D01*
X52126519Y31937740D01*
X52135234Y31922241D01*
X52166500Y31890975D01*
X52170817Y31886192D01*
X52198718Y31851895D01*
X52198723Y31851890D01*
X52213242Y31841642D01*
X52229676Y31827799D01*
X54172595Y29884880D01*
X54206621Y29822568D01*
X54209500Y29795785D01*
X54209500Y28670484D01*
X54224353Y28576698D01*
X54281949Y28463658D01*
X54371657Y28373950D01*
X54429252Y28344604D01*
X54484696Y28316354D01*
X54484700Y28316354D01*
X54492448Y28313836D01*
X54551055Y28273766D01*
X54578696Y28208371D01*
X54566593Y28138413D01*
X54518590Y28086105D01*
X54492460Y28074170D01*
X54484701Y28071649D01*
X54371657Y28014051D01*
X54281949Y27924343D01*
X54224355Y27811306D01*
X54224354Y27811304D01*
X54209500Y27717519D01*
X54209500Y27717516D01*
X54209500Y26130484D01*
X54224353Y26036698D01*
X54281949Y25923658D01*
X54371657Y25833950D01*
X54410299Y25814262D01*
X54484696Y25776354D01*
X54578481Y25761500D01*
X56165518Y25761501D01*
X56259304Y25776354D01*
X56372342Y25833950D01*
X56462050Y25923658D01*
X56519646Y26036696D01*
X56519647Y26036709D01*
X56522163Y26044447D01*
X56562232Y26103055D01*
X56627627Y26130697D01*
X56697585Y26118595D01*
X56749894Y26070593D01*
X56761831Y26044459D01*
X56764352Y26036699D01*
X56821949Y25923658D01*
X56911657Y25833950D01*
X56950299Y25814262D01*
X57024696Y25776354D01*
X57118481Y25761500D01*
X58705518Y25761501D01*
X58799304Y25776354D01*
X58912342Y25833950D01*
X59002050Y25923658D01*
X59059646Y26036696D01*
X59074500Y26130481D01*
X59074499Y27717518D01*
X59059646Y27811304D01*
X59030848Y27867823D01*
X59002050Y27924343D01*
X58912342Y28014051D01*
X58799304Y28071646D01*
X58791547Y28074166D01*
X58732941Y28114239D01*
X58705303Y28179635D01*
X58717408Y28249592D01*
X58765413Y28301899D01*
X58791547Y28313834D01*
X58799297Y28316354D01*
X58799304Y28316354D01*
X58912342Y28373950D01*
X59002050Y28463658D01*
X59059646Y28576696D01*
X59074500Y28670481D01*
X59074499Y30257518D01*
X59059646Y30351304D01*
X59018717Y30431632D01*
X59002050Y30464343D01*
X58912342Y30554051D01*
X58799304Y30611646D01*
X58791547Y30614166D01*
X58732941Y30654239D01*
X58705303Y30719635D01*
X58717408Y30789592D01*
X58765413Y30841899D01*
X58791547Y30853834D01*
X58799297Y30856354D01*
X58799304Y30856354D01*
X58912342Y30913950D01*
X59002050Y31003658D01*
X59059646Y31116696D01*
X59074500Y31210481D01*
X59074499Y32797518D01*
X59059646Y32891304D01*
X59030848Y32947823D01*
X59002050Y33004343D01*
X58912342Y33094051D01*
X58799304Y33151646D01*
X58791547Y33154166D01*
X58732941Y33194239D01*
X58705303Y33259635D01*
X58717408Y33329592D01*
X58765413Y33381899D01*
X58791547Y33393834D01*
X58799297Y33396354D01*
X58799304Y33396354D01*
X58912342Y33453950D01*
X59002050Y33543658D01*
X59059646Y33656696D01*
X59074500Y33750481D01*
X59074499Y35337518D01*
X59059646Y35431304D01*
X59016271Y35516432D01*
X59002050Y35544343D01*
X58912342Y35634051D01*
X58836502Y35672693D01*
X58799304Y35691646D01*
X58705519Y35706500D01*
X58705515Y35706500D01*
X57118483Y35706500D01*
X57024697Y35691647D01*
X56911657Y35634051D01*
X56821949Y35544343D01*
X56764352Y35431302D01*
X56761833Y35423546D01*
X56721760Y35364940D01*
X56656363Y35337303D01*
X56586406Y35349410D01*
X56534100Y35397416D01*
X56522167Y35423546D01*
X56519647Y35431302D01*
X56462050Y35544343D01*
X56372342Y35634051D01*
X56296502Y35672693D01*
X56259304Y35691646D01*
X56165519Y35706500D01*
X56165516Y35706500D01*
X56013101Y35706500D01*
X55944980Y35726502D01*
X55898487Y35780158D01*
X55890682Y35802673D01*
X55888933Y35809850D01*
X55888933Y35809852D01*
X55867258Y35848402D01*
X55864401Y35854152D01*
X55846780Y35894720D01*
X55835561Y35908509D01*
X55823474Y35926269D01*
X55814765Y35941759D01*
X55814762Y35941762D01*
X55814760Y35941765D01*
X55783512Y35973013D01*
X55779187Y35977804D01*
X55751278Y36012108D01*
X55751276Y36012110D01*
X55736751Y36022363D01*
X55720319Y36036205D01*
X53523907Y38232618D01*
X53478683Y38281042D01*
X53478682Y38281043D01*
X53470311Y38286134D01*
X53440899Y38304020D01*
X53435575Y38307644D01*
X53400339Y38334363D01*
X53383806Y38340883D01*
X53364568Y38350438D01*
X53349383Y38359672D01*
X53349380Y38359673D01*
X53328412Y38365548D01*
X53306802Y38371603D01*
X53300695Y38373657D01*
X53259566Y38389876D01*
X53247456Y38391122D01*
X53241873Y38391696D01*
X53220784Y38395704D01*
X53203665Y38400500D01*
X53203662Y38400500D01*
X53159453Y38400500D01*
X53153005Y38400831D01*
X53109029Y38405353D01*
X53091511Y38402332D01*
X53070104Y38400500D01*
X51077055Y38400500D01*
X51008934Y38420502D01*
X50962441Y38474158D01*
X50952337Y38544429D01*
X50965000Y38632500D01*
X50965000Y40167500D01*
X50953264Y40276657D01*
X50942058Y40328168D01*
X50907390Y40432327D01*
X50828371Y40555282D01*
X50828370Y40555283D01*
X50828369Y40555285D01*
X50828368Y40555287D01*
X50782619Y40608083D01*
X50765847Y40622616D01*
X50672161Y40703797D01*
X50539214Y40764514D01*
X50472180Y40784198D01*
X50472174Y40784199D01*
X50472170Y40784200D01*
X50327500Y40805000D01*
X50327496Y40805000D01*
X48781512Y40805000D01*
X48713391Y40825002D01*
X48666898Y40878658D01*
X48656234Y40917531D01*
X48653263Y40945164D01*
X48642058Y40996668D01*
X48625068Y41047713D01*
X48607390Y41100827D01*
X48528371Y41223782D01*
X48528370Y41223783D01*
X48528369Y41223785D01*
X48528368Y41223787D01*
X48482619Y41276583D01*
X48465847Y41291116D01*
X48372161Y41372297D01*
X48372160Y41372297D01*
X48239214Y41433014D01*
X48172180Y41452698D01*
X48172174Y41452699D01*
X48172170Y41452700D01*
X48027500Y41473500D01*
X47092500Y41473500D01*
X47092492Y41473500D01*
X46998603Y41463405D01*
X46983343Y41461764D01*
X46983341Y41461764D01*
X46983335Y41461763D01*
X46931832Y41450559D01*
X46827674Y41415891D01*
X46704715Y41336870D01*
X46704713Y41336869D01*
X46651917Y41291120D01*
X46556204Y41180663D01*
X46556203Y41180662D01*
X46495486Y41047715D01*
X46475800Y40980675D01*
X46475800Y40980672D01*
X46466080Y40913069D01*
X46436587Y40848488D01*
X46376861Y40810105D01*
X46341363Y40805001D01*
X42781512Y40805001D01*
X42713391Y40825003D01*
X42666898Y40878659D01*
X42656234Y40917531D01*
X42653264Y40945157D01*
X42642058Y40996668D01*
X42607390Y41100827D01*
X42528371Y41223782D01*
X42528370Y41223783D01*
X42528369Y41223785D01*
X42528368Y41223787D01*
X42482619Y41276583D01*
X42465847Y41291116D01*
X42372161Y41372297D01*
X42239214Y41433014D01*
X42172180Y41452698D01*
X42172174Y41452699D01*
X42172170Y41452700D01*
X42027500Y41473500D01*
X41092500Y41473500D01*
X41092492Y41473500D01*
X40998604Y41463405D01*
X40983343Y41461764D01*
X40983341Y41461764D01*
X40983335Y41461763D01*
X40931832Y41450559D01*
X40827674Y41415891D01*
X40704715Y41336870D01*
X40704713Y41336869D01*
X40651917Y41291120D01*
X40556204Y41180663D01*
X40556203Y41180662D01*
X40495486Y41047715D01*
X40475800Y40980675D01*
X40475800Y40980672D01*
X40466080Y40913069D01*
X40436587Y40848488D01*
X40376861Y40810105D01*
X40341363Y40805001D01*
X36781512Y40805001D01*
X36713391Y40825003D01*
X36666898Y40878659D01*
X36656234Y40917531D01*
X36653264Y40945157D01*
X36642058Y40996668D01*
X36607390Y41100827D01*
X36528371Y41223782D01*
X36528370Y41223783D01*
X36528369Y41223785D01*
X36528368Y41223787D01*
X36482619Y41276583D01*
X36465847Y41291116D01*
X36372161Y41372297D01*
X36239214Y41433014D01*
X36172180Y41452698D01*
X36172174Y41452699D01*
X36172170Y41452700D01*
X36027500Y41473500D01*
X35092500Y41473500D01*
X35092492Y41473500D01*
X34998603Y41463405D01*
X34983343Y41461764D01*
X34983341Y41461764D01*
X34983335Y41461763D01*
X34931832Y41450559D01*
X34827674Y41415891D01*
X34704715Y41336870D01*
X34704713Y41336869D01*
X34651917Y41291120D01*
X34556204Y41180663D01*
X34556203Y41180662D01*
X34495486Y41047715D01*
X34475800Y40980675D01*
X34475800Y40980672D01*
X34466080Y40913069D01*
X34436587Y40848488D01*
X34376861Y40810105D01*
X34341363Y40805001D01*
X30781512Y40805001D01*
X30713391Y40825003D01*
X30666898Y40878659D01*
X30656234Y40917531D01*
X30653264Y40945157D01*
X30642058Y40996668D01*
X30607390Y41100827D01*
X30528371Y41223782D01*
X30528370Y41223783D01*
X30528369Y41223785D01*
X30528368Y41223787D01*
X30482619Y41276583D01*
X30465847Y41291116D01*
X30372161Y41372297D01*
X30239214Y41433014D01*
X30172180Y41452698D01*
X30172174Y41452699D01*
X30172170Y41452700D01*
X30027500Y41473500D01*
X29092500Y41473500D01*
X29092492Y41473500D01*
X28998604Y41463405D01*
X28983343Y41461764D01*
X28983341Y41461764D01*
X28983335Y41461763D01*
X28931832Y41450559D01*
X28827674Y41415891D01*
X28704715Y41336870D01*
X28704713Y41336869D01*
X28651917Y41291120D01*
X28556204Y41180663D01*
X28556203Y41180662D01*
X28495486Y41047715D01*
X28475800Y40980675D01*
X28475800Y40980672D01*
X28466080Y40913069D01*
X28436587Y40848488D01*
X28376861Y40810105D01*
X28341363Y40805001D01*
X24781512Y40805001D01*
X24713391Y40825003D01*
X24666898Y40878659D01*
X24656234Y40917531D01*
X24653264Y40945157D01*
X24642058Y40996668D01*
X24607390Y41100827D01*
X24528371Y41223782D01*
X24528370Y41223783D01*
X24528369Y41223785D01*
X24528368Y41223787D01*
X24482619Y41276583D01*
X24465847Y41291116D01*
X24372161Y41372297D01*
X24239214Y41433014D01*
X24172180Y41452698D01*
X24172174Y41452699D01*
X24172170Y41452700D01*
X24027500Y41473500D01*
X23092500Y41473500D01*
X23092492Y41473500D01*
X22998603Y41463405D01*
X22983343Y41461764D01*
X22983341Y41461764D01*
X22983335Y41461763D01*
X22931832Y41450559D01*
X22827674Y41415891D01*
X22704715Y41336870D01*
X22704713Y41336869D01*
X22651917Y41291120D01*
X22556204Y41180663D01*
X22556203Y41180662D01*
X22495486Y41047715D01*
X22475800Y40980675D01*
X22475800Y40980672D01*
X22466080Y40913069D01*
X22436587Y40848488D01*
X22376861Y40810105D01*
X22341363Y40805001D01*
X20792504Y40805001D01*
X20792492Y40805000D01*
X20698604Y40794905D01*
X20683343Y40793264D01*
X20683341Y40793264D01*
X20683335Y40793263D01*
X20631832Y40782059D01*
X20527674Y40747391D01*
X20404715Y40668370D01*
X20404713Y40668369D01*
X20351917Y40622620D01*
X20256204Y40512163D01*
X20256203Y40512162D01*
X20195486Y40379215D01*
X20175802Y40312181D01*
X20175800Y40312174D01*
X20175801Y40312174D01*
X20175800Y40312170D01*
X20155002Y40167508D01*
X20155000Y40167497D01*
X20155000Y38585596D01*
X20134998Y38517475D01*
X20097122Y38479599D01*
X19976218Y38401898D01*
X19976212Y38401894D01*
X19923416Y38356145D01*
X19827704Y38245689D01*
X19827703Y38245688D01*
X19766987Y38112743D01*
X19763246Y38100001D01*
X19748145Y38048578D01*
X19747815Y38047627D01*
X19747300Y38045702D01*
X19726500Y37901027D01*
X19726500Y36889777D01*
X19727142Y36871799D01*
X19728123Y36853494D01*
X19759189Y36710688D01*
X19759191Y36710681D01*
X19774103Y36670699D01*
X19783605Y36645223D01*
X19783607Y36645218D01*
X19853651Y36516940D01*
X19957000Y36413589D01*
X19957004Y36413586D01*
X20012930Y36371719D01*
X20012932Y36371718D01*
X20049532Y36351734D01*
X20089384Y36329972D01*
X20139586Y36279771D01*
X20154999Y36219386D01*
X20155000Y36023499D01*
X20155000Y32477640D01*
X20154877Y32473705D01*
X20154050Y32460483D01*
X20153450Y32426927D01*
X20154675Y32381126D01*
X20185740Y32238312D01*
X20210157Y32172844D01*
X20211065Y32170757D01*
X20211130Y32170235D01*
X20211331Y32169697D01*
X20211203Y32169650D01*
X20219894Y32100311D01*
X20189236Y32036275D01*
X20128824Y31998980D01*
X20095522Y31994500D01*
X18438276Y31994500D01*
X18370155Y32014502D01*
X18323662Y32068158D01*
X18317281Y32085339D01*
X18311744Y32104398D01*
X18311741Y32104403D01*
X18311741Y32104404D01*
X18228082Y32245864D01*
X18228076Y32245871D01*
X18111870Y32362077D01*
X18111863Y32362083D01*
X17970401Y32445743D01*
X17812567Y32491599D01*
X17775698Y32494500D01*
X17775694Y32494500D01*
X17144306Y32494500D01*
X17144302Y32494500D01*
X17107432Y32491599D01*
X17107431Y32491599D01*
X16949598Y32445743D01*
X16808136Y32362083D01*
X16808129Y32362077D01*
X16691923Y32245871D01*
X16691920Y32245867D01*
X16618453Y32121641D01*
X16566560Y32073189D01*
X16496710Y32060484D01*
X16431079Y32087560D01*
X16401547Y32121641D01*
X16363548Y32185893D01*
X16328081Y32245865D01*
X16328079Y32245867D01*
X16328076Y32245871D01*
X16211870Y32362077D01*
X16211863Y32362083D01*
X16070401Y32445743D01*
X15912567Y32491599D01*
X15875698Y32494500D01*
X15875694Y32494500D01*
X15244306Y32494500D01*
X15244302Y32494500D01*
X15207432Y32491599D01*
X15207431Y32491599D01*
X15049598Y32445743D01*
X14908136Y32362083D01*
X14908129Y32362077D01*
X14791923Y32245871D01*
X14791917Y32245864D01*
X14708258Y32104404D01*
X14708256Y32104399D01*
X14708256Y32104398D01*
X14702720Y32085344D01*
X14664507Y32025510D01*
X14600010Y31995834D01*
X14581724Y31994500D01*
X13331508Y31994500D01*
X13263387Y32014502D01*
X13216894Y32068158D01*
X13216121Y32069886D01*
X13195986Y32115788D01*
X13066777Y32313559D01*
X13066772Y32313564D01*
X13038235Y32344563D01*
X12906773Y32487368D01*
X12720346Y32632470D01*
X12720345Y32632471D01*
X12512578Y32744909D01*
X12512572Y32744911D01*
X12289143Y32821615D01*
X12289136Y32821617D01*
X12170184Y32841466D01*
X12056120Y32860500D01*
X11819880Y32860500D01*
X11705816Y32841466D01*
X11586863Y32821617D01*
X11586856Y32821615D01*
X11363427Y32744911D01*
X11363421Y32744909D01*
X11155654Y32632471D01*
X11155653Y32632470D01*
X10969227Y32487368D01*
X10809227Y32313564D01*
X10809222Y32313559D01*
X10680013Y32115788D01*
X10585118Y31899449D01*
X10585115Y31899442D01*
X10527125Y31670442D01*
X10527124Y31670436D01*
X10527124Y31670434D01*
X10507615Y31435000D01*
X5344500Y31435000D01*
X5344500Y43499997D01*
X54366659Y43499997D01*
X54385974Y43303876D01*
X54385974Y43303874D01*
X54443186Y43115272D01*
X54536089Y42941463D01*
X54536090Y42941462D01*
X54661117Y42789117D01*
X54813462Y42664090D01*
X54987273Y42571186D01*
X55175868Y42513976D01*
X55175872Y42513976D01*
X55175874Y42513975D01*
X55371997Y42494659D01*
X55372000Y42494659D01*
X55372003Y42494659D01*
X55568124Y42513975D01*
X55568126Y42513975D01*
X55568127Y42513976D01*
X55568132Y42513976D01*
X55756727Y42571186D01*
X55930538Y42664090D01*
X56082883Y42789117D01*
X56207910Y42941462D01*
X56300814Y43115273D01*
X56358024Y43303868D01*
X56377341Y43500000D01*
X56358025Y43696125D01*
X56358025Y43696127D01*
X56358024Y43696130D01*
X56358024Y43696132D01*
X56300814Y43884727D01*
X56207910Y44058538D01*
X56082883Y44210883D01*
X55930538Y44335910D01*
X55756728Y44428814D01*
X55568125Y44486026D01*
X55372003Y44505341D01*
X55371997Y44505341D01*
X55175875Y44486026D01*
X55175873Y44486026D01*
X54987271Y44428814D01*
X54813461Y44335910D01*
X54661117Y44210883D01*
X54536090Y44058539D01*
X54443186Y43884729D01*
X54385974Y43696127D01*
X54385974Y43696125D01*
X54366659Y43500004D01*
X54366659Y43499997D01*
X5344500Y43499997D01*
X5344500Y45329500D01*
X5364502Y45397621D01*
X5418158Y45444114D01*
X5470500Y45455500D01*
X65649500Y45455500D01*
X65717621Y45435498D01*
G37*
%TD.AperFunction*%
%TD*%
%TA.AperFunction,Conductor*%
%TO.N,GNDA*%
G36*
X28237334Y11006138D02*
G01*
X28281681Y10977637D01*
X28370348Y10888970D01*
X28521262Y10795885D01*
X28689574Y10740113D01*
X28793455Y10729500D01*
X29233345Y10729501D01*
X29300384Y10709817D01*
X29313051Y10700490D01*
X29340554Y10677413D01*
X29363691Y10657998D01*
X29363699Y10657994D01*
X29369729Y10654027D01*
X29369681Y10653956D01*
X29375617Y10650175D01*
X29375662Y10650247D01*
X29381806Y10646458D01*
X29381808Y10646456D01*
X29449853Y10614727D01*
X29516921Y10581044D01*
X29516923Y10581044D01*
X29523710Y10578573D01*
X29523680Y10578492D01*
X29530327Y10576182D01*
X29530354Y10576263D01*
X29537208Y10573992D01*
X29537209Y10573992D01*
X29537211Y10573991D01*
X29610722Y10558813D01*
X29683770Y10541499D01*
X29690939Y10540661D01*
X29690929Y10540577D01*
X29697935Y10539862D01*
X29697943Y10539946D01*
X29705132Y10539317D01*
X29705136Y10539318D01*
X29705137Y10539317D01*
X29780148Y10541500D01*
X30182447Y10541500D01*
X30249486Y10521815D01*
X30295241Y10469011D01*
X30305185Y10399853D01*
X30281714Y10343192D01*
X30245378Y10294652D01*
X30209111Y10246205D01*
X30158011Y10109205D01*
X30158011Y10109203D01*
X30155166Y10082743D01*
X30128427Y10018192D01*
X30071034Y9978345D01*
X30031877Y9972000D01*
X29088123Y9972000D01*
X29021084Y9991685D01*
X28975329Y10044489D01*
X28964834Y10082743D01*
X28963653Y10093719D01*
X28961989Y10109201D01*
X28910889Y10246204D01*
X28823261Y10363261D01*
X28706204Y10450889D01*
X28657618Y10469011D01*
X28569203Y10501989D01*
X28508654Y10508500D01*
X28508638Y10508500D01*
X27767890Y10508500D01*
X27700851Y10528185D01*
X27655096Y10580989D01*
X27645152Y10650147D01*
X27674177Y10713703D01*
X27728886Y10750206D01*
X27770070Y10763853D01*
X27866738Y10795885D01*
X28017652Y10888970D01*
X28106318Y10977637D01*
X28167642Y11011122D01*
X28237334Y11006138D01*
G37*
%TD.AperFunction*%
%TA.AperFunction,Conductor*%
G36*
X45437923Y34487131D02*
G01*
X45487330Y34437728D01*
X45502500Y34378297D01*
X45502500Y34050464D01*
X45502501Y34050447D01*
X45513113Y33946573D01*
X45568884Y33778265D01*
X45568886Y33778260D01*
X45579023Y33761825D01*
X45661970Y33627348D01*
X45787348Y33501970D01*
X45787351Y33501968D01*
X45792034Y33498265D01*
X45832410Y33441242D01*
X45835547Y33371443D01*
X45800450Y33311028D01*
X45792034Y33303735D01*
X45787345Y33300028D01*
X45661971Y33174654D01*
X45568886Y33023741D01*
X45568884Y33023736D01*
X45513113Y32855428D01*
X45502500Y32751553D01*
X45502500Y32150463D01*
X45502501Y32150447D01*
X45513113Y32046573D01*
X45568884Y31878265D01*
X45568885Y31878262D01*
X45661970Y31727348D01*
X45787348Y31601970D01*
X45938262Y31508885D01*
X46106574Y31453113D01*
X46210455Y31442500D01*
X47261544Y31442501D01*
X47365426Y31453113D01*
X47459055Y31484138D01*
X47533733Y31508883D01*
X47533734Y31508884D01*
X47533738Y31508885D01*
X47639369Y31574040D01*
X47704466Y31592500D01*
X47707035Y31592500D01*
X47774074Y31572815D01*
X47794716Y31556181D01*
X47929181Y31421716D01*
X47962666Y31360393D01*
X47965500Y31334035D01*
X47965500Y30915463D01*
X47965501Y30915447D01*
X47976113Y30811573D01*
X48031884Y30643265D01*
X48031886Y30643260D01*
X48060875Y30596262D01*
X48124970Y30492348D01*
X48250348Y30366970D01*
X48401262Y30273885D01*
X48569574Y30218113D01*
X48673455Y30207500D01*
X49624544Y30207501D01*
X49728426Y30218113D01*
X49896738Y30273885D01*
X50047652Y30366970D01*
X50173030Y30492348D01*
X50266115Y30643262D01*
X50321887Y30811574D01*
X50332500Y30915455D01*
X50332499Y31334037D01*
X50352183Y31401075D01*
X50368813Y31421712D01*
X50902282Y31955181D01*
X50963606Y31988666D01*
X50989964Y31991500D01*
X51104000Y31991500D01*
X51171039Y31971815D01*
X51216794Y31919011D01*
X51228000Y31867500D01*
X51228000Y30932500D01*
X51208315Y30865461D01*
X51155511Y30819706D01*
X51104000Y30808500D01*
X50911345Y30808500D01*
X50850797Y30801989D01*
X50850795Y30801989D01*
X50713795Y30750889D01*
X50596739Y30663261D01*
X50509111Y30546205D01*
X50458011Y30409205D01*
X50458011Y30409203D01*
X50451500Y30348655D01*
X50451500Y26451346D01*
X50458011Y26390798D01*
X50458011Y26390796D01*
X50499503Y26279556D01*
X50509111Y26253796D01*
X50596739Y26136739D01*
X50713796Y26049111D01*
X50850799Y25998011D01*
X50878050Y25995082D01*
X50911345Y25991501D01*
X50911362Y25991500D01*
X51104000Y25991500D01*
X51171039Y25971815D01*
X51216794Y25919011D01*
X51228000Y25867500D01*
X51228000Y24932500D01*
X51208315Y24865461D01*
X51155511Y24819706D01*
X51104000Y24808500D01*
X50911345Y24808500D01*
X50850797Y24801989D01*
X50850795Y24801989D01*
X50713795Y24750889D01*
X50596739Y24663261D01*
X50509111Y24546205D01*
X50458011Y24409205D01*
X50458011Y24409203D01*
X50451500Y24348655D01*
X50451500Y20451346D01*
X50458011Y20390798D01*
X50458011Y20390796D01*
X50504441Y20266316D01*
X50509111Y20253796D01*
X50596739Y20136739D01*
X50713796Y20049111D01*
X50817489Y20010435D01*
X50844691Y20000289D01*
X50850799Y19998011D01*
X50878050Y19995082D01*
X50911345Y19991501D01*
X50911362Y19991500D01*
X51104000Y19991500D01*
X51171039Y19971815D01*
X51216794Y19919011D01*
X51228000Y19867500D01*
X51228000Y18932500D01*
X51208315Y18865461D01*
X51155511Y18819706D01*
X51104000Y18808500D01*
X50911345Y18808500D01*
X50850797Y18801989D01*
X50850795Y18801989D01*
X50713795Y18750889D01*
X50596739Y18663261D01*
X50509111Y18546205D01*
X50458011Y18409205D01*
X50458011Y18409203D01*
X50451500Y18348655D01*
X50451500Y14451346D01*
X50458011Y14390798D01*
X50458011Y14390796D01*
X50506728Y14260185D01*
X50509111Y14253796D01*
X50596739Y14136739D01*
X50713796Y14049111D01*
X50850799Y13998011D01*
X50878050Y13995082D01*
X50911345Y13991501D01*
X50911362Y13991500D01*
X51104000Y13991500D01*
X51171039Y13971815D01*
X51216794Y13919011D01*
X51228000Y13867500D01*
X51228000Y12932500D01*
X51208315Y12865461D01*
X51155511Y12819706D01*
X51104000Y12808500D01*
X50911345Y12808500D01*
X50850797Y12801989D01*
X50850795Y12801989D01*
X50713795Y12750889D01*
X50596739Y12663261D01*
X50509111Y12546205D01*
X50458011Y12409205D01*
X50458011Y12409203D01*
X50451500Y12348655D01*
X50451500Y10632500D01*
X50431815Y10565461D01*
X50379011Y10519706D01*
X50327500Y10508500D01*
X48611345Y10508500D01*
X48550797Y10501989D01*
X48550795Y10501989D01*
X48413795Y10450889D01*
X48296739Y10363261D01*
X48209111Y10246205D01*
X48158011Y10109205D01*
X48158011Y10109203D01*
X48155166Y10082743D01*
X48128427Y10018192D01*
X48071034Y9978345D01*
X48031877Y9972000D01*
X47088123Y9972000D01*
X47021084Y9991685D01*
X46975329Y10044489D01*
X46964834Y10082743D01*
X46963653Y10093719D01*
X46961989Y10109201D01*
X46910889Y10246204D01*
X46823261Y10363261D01*
X46706204Y10450889D01*
X46657618Y10469011D01*
X46569203Y10501989D01*
X46508654Y10508500D01*
X46508638Y10508500D01*
X42611362Y10508500D01*
X42611345Y10508500D01*
X42550797Y10501989D01*
X42550795Y10501989D01*
X42413795Y10450889D01*
X42296739Y10363261D01*
X42209111Y10246205D01*
X42158011Y10109205D01*
X42158011Y10109203D01*
X42155166Y10082743D01*
X42128427Y10018192D01*
X42071034Y9978345D01*
X42031877Y9972000D01*
X41088123Y9972000D01*
X41021084Y9991685D01*
X40975329Y10044489D01*
X40964834Y10082743D01*
X40963653Y10093719D01*
X40961989Y10109201D01*
X40910889Y10246204D01*
X40823261Y10363261D01*
X40706204Y10450889D01*
X40657618Y10469011D01*
X40569203Y10501989D01*
X40508654Y10508500D01*
X40508638Y10508500D01*
X36611362Y10508500D01*
X36611345Y10508500D01*
X36550797Y10501989D01*
X36550795Y10501989D01*
X36413795Y10450889D01*
X36296739Y10363261D01*
X36209111Y10246205D01*
X36158011Y10109205D01*
X36158011Y10109203D01*
X36155166Y10082743D01*
X36128427Y10018192D01*
X36071034Y9978345D01*
X36031877Y9972000D01*
X35088123Y9972000D01*
X35021084Y9991685D01*
X34975329Y10044489D01*
X34964834Y10082743D01*
X34963653Y10093719D01*
X34961989Y10109201D01*
X34910889Y10246204D01*
X34823261Y10363261D01*
X34706204Y10450889D01*
X34657618Y10469011D01*
X34569203Y10501989D01*
X34508654Y10508500D01*
X34508638Y10508500D01*
X32903730Y10508500D01*
X32836691Y10528185D01*
X32790936Y10580989D01*
X32780992Y10650147D01*
X32810017Y10713703D01*
X32813514Y10717572D01*
X32857178Y10763853D01*
X33428495Y11335171D01*
X33442121Y11346947D01*
X33460785Y11360840D01*
X33493580Y11399926D01*
X33497195Y11403871D01*
X33502869Y11409543D01*
X33522753Y11434691D01*
X33571002Y11492191D01*
X33571005Y11492198D01*
X33574973Y11498229D01*
X33575047Y11498181D01*
X33578824Y11504110D01*
X33578749Y11504156D01*
X33582543Y11510307D01*
X33582542Y11510307D01*
X33582544Y11510308D01*
X33614273Y11578354D01*
X33647956Y11645421D01*
X33647958Y11645434D01*
X33650425Y11652207D01*
X33650508Y11652177D01*
X33652819Y11658826D01*
X33652737Y11658853D01*
X33655009Y11665712D01*
X33656721Y11674001D01*
X33670185Y11739212D01*
X33687500Y11812266D01*
X33687500Y11812268D01*
X33688339Y11819439D01*
X33688422Y11819430D01*
X33689138Y11826434D01*
X33689053Y11826441D01*
X33689682Y11833632D01*
X33687500Y11908628D01*
X33687500Y12003901D01*
X33707185Y12070940D01*
X33712225Y12078202D01*
X33729889Y12101796D01*
X33766315Y12199456D01*
X33780987Y12238793D01*
X33780987Y12238795D01*
X33780989Y12238799D01*
X33784591Y12272308D01*
X33787499Y12299346D01*
X33787500Y12299363D01*
X33787500Y12624000D01*
X36417001Y12624000D01*
X36417001Y12374014D01*
X36427494Y12271303D01*
X36482641Y12104881D01*
X36482643Y12104876D01*
X36574684Y11955655D01*
X36698654Y11831685D01*
X36847875Y11739644D01*
X36847880Y11739642D01*
X37014302Y11684495D01*
X37014309Y11684494D01*
X37117019Y11674001D01*
X37341999Y11674001D01*
X37342000Y11674002D01*
X37342000Y12624000D01*
X36417001Y12624000D01*
X33787500Y12624000D01*
X33787500Y13124000D01*
X36417000Y13124000D01*
X37342000Y13124000D01*
X37342000Y14074000D01*
X37117029Y14074000D01*
X37117012Y14073999D01*
X37014302Y14063506D01*
X36847880Y14008359D01*
X36847875Y14008357D01*
X36698654Y13916316D01*
X36574684Y13792346D01*
X36482643Y13643125D01*
X36482641Y13643120D01*
X36427494Y13476698D01*
X36427493Y13476691D01*
X36417000Y13373987D01*
X36417000Y13124000D01*
X33787500Y13124000D01*
X33787500Y13469477D01*
X33807185Y13536516D01*
X33859989Y13582271D01*
X33929147Y13592215D01*
X33992703Y13563190D01*
X33999181Y13557158D01*
X34108654Y13447685D01*
X34257875Y13355644D01*
X34257880Y13355642D01*
X34424302Y13300495D01*
X34424309Y13300494D01*
X34527019Y13290001D01*
X34801999Y13290001D01*
X34802000Y13290002D01*
X34802000Y14040000D01*
X35302000Y14040000D01*
X35302000Y13290001D01*
X35576972Y13290001D01*
X35576986Y13290002D01*
X35679697Y13300495D01*
X35846119Y13355642D01*
X35846124Y13355644D01*
X35995345Y13447685D01*
X36119315Y13571655D01*
X36211356Y13720876D01*
X36211358Y13720881D01*
X36266505Y13887303D01*
X36266506Y13887310D01*
X36276999Y13990014D01*
X36277000Y13990027D01*
X36277000Y14040000D01*
X35302000Y14040000D01*
X34802000Y14040000D01*
X33858580Y14040000D01*
X33791541Y14059685D01*
X33745786Y14112489D01*
X33742399Y14120664D01*
X33736305Y14137003D01*
X33729889Y14154204D01*
X33642261Y14271261D01*
X33525204Y14358889D01*
X33525202Y14358890D01*
X33525204Y14358890D01*
X33517349Y14361819D01*
X33461415Y14403690D01*
X33436999Y14469155D01*
X33451851Y14537428D01*
X33501257Y14586833D01*
X33517349Y14594181D01*
X33520147Y14595226D01*
X33525204Y14597111D01*
X33628691Y14674581D01*
X33694153Y14698997D01*
X33762426Y14684146D01*
X33811832Y14634741D01*
X33827000Y14575313D01*
X33827000Y14540000D01*
X36276999Y14540000D01*
X36276999Y14589972D01*
X36276998Y14589987D01*
X36266799Y14689824D01*
X36279568Y14758517D01*
X36327449Y14809401D01*
X36395239Y14826322D01*
X36461415Y14803906D01*
X36495694Y14767525D01*
X36567970Y14650348D01*
X36693348Y14524970D01*
X36844262Y14431885D01*
X37012574Y14376113D01*
X37116455Y14365500D01*
X37711811Y14365501D01*
X37778850Y14345817D01*
X37799492Y14329182D01*
X37860656Y14268018D01*
X37894141Y14206695D01*
X37889157Y14137003D01*
X37860656Y14092656D01*
X37842000Y14074001D01*
X37842000Y11674001D01*
X38066972Y11674001D01*
X38066986Y11674002D01*
X38169697Y11684495D01*
X38336119Y11739642D01*
X38336124Y11739644D01*
X38485345Y11831685D01*
X38609315Y11955655D01*
X38701356Y12104876D01*
X38701359Y12104883D01*
X38724623Y12175089D01*
X38764395Y12232534D01*
X38828911Y12259358D01*
X38897687Y12247043D01*
X38948887Y12199501D01*
X38965687Y12148688D01*
X38971113Y12095573D01*
X39026884Y11927265D01*
X39026886Y11927260D01*
X39055503Y11880865D01*
X39119970Y11776348D01*
X39245348Y11650970D01*
X39396262Y11557885D01*
X39564574Y11502113D01*
X39668455Y11491500D01*
X40294544Y11491501D01*
X40398426Y11502113D01*
X40566738Y11557885D01*
X40717652Y11650970D01*
X40806319Y11739637D01*
X40867642Y11773122D01*
X40937334Y11768138D01*
X40981681Y11739637D01*
X41070348Y11650970D01*
X41221262Y11557885D01*
X41389574Y11502113D01*
X41493455Y11491500D01*
X42119544Y11491501D01*
X42223426Y11502113D01*
X42391738Y11557885D01*
X42542652Y11650970D01*
X42668030Y11776348D01*
X42669729Y11779104D01*
X42671885Y11782597D01*
X42723833Y11829322D01*
X42777423Y11841500D01*
X42848234Y11841500D01*
X42891253Y11832358D01*
X42891532Y11833214D01*
X42897709Y11831208D01*
X42897712Y11831206D01*
X43084513Y11791500D01*
X43275487Y11791500D01*
X43462288Y11831206D01*
X43636752Y11908882D01*
X43791253Y12021134D01*
X43919040Y12163056D01*
X44014527Y12328444D01*
X44073542Y12510072D01*
X44093504Y12700000D01*
X44073542Y12889928D01*
X44014527Y13071556D01*
X43919040Y13236944D01*
X43791253Y13378866D01*
X43636752Y13491118D01*
X43462288Y13568794D01*
X43462286Y13568795D01*
X43275487Y13608500D01*
X43084513Y13608500D01*
X42897713Y13568795D01*
X42891532Y13566786D01*
X42891253Y13567643D01*
X42848234Y13558500D01*
X42777423Y13558500D01*
X42710384Y13578185D01*
X42671885Y13617403D01*
X42668032Y13623649D01*
X42668029Y13623653D01*
X42542653Y13749029D01*
X42542652Y13749030D01*
X42391738Y13842115D01*
X42315130Y13867500D01*
X42223427Y13897887D01*
X42119546Y13908500D01*
X41493462Y13908500D01*
X41493446Y13908499D01*
X41389572Y13897887D01*
X41221264Y13842116D01*
X41221259Y13842114D01*
X41070349Y13749031D01*
X40981681Y13660363D01*
X40920357Y13626879D01*
X40850666Y13631863D01*
X40806319Y13660363D01*
X40779922Y13686760D01*
X40717652Y13749030D01*
X40566738Y13842115D01*
X40566736Y13842116D01*
X40566733Y13842117D01*
X40398424Y13897888D01*
X40398425Y13897888D01*
X40338739Y13903986D01*
X40274048Y13930384D01*
X40263663Y13939663D01*
X40154506Y14048820D01*
X40121021Y14110143D01*
X40126005Y14179835D01*
X40167877Y14235768D01*
X40233341Y14260185D01*
X40242163Y14260501D01*
X40752544Y14260501D01*
X40856426Y14271113D01*
X41024738Y14326885D01*
X41175652Y14419970D01*
X41301030Y14545348D01*
X41301449Y14546029D01*
X41301859Y14546398D01*
X41305511Y14551015D01*
X41306299Y14550392D01*
X41353389Y14592756D01*
X41422350Y14603986D01*
X41486436Y14576150D01*
X41504261Y14555580D01*
X41505202Y14556323D01*
X41509683Y14550656D01*
X41633654Y14426685D01*
X41782875Y14334644D01*
X41782880Y14334642D01*
X41949302Y14279495D01*
X41949309Y14279494D01*
X42052019Y14269001D01*
X42101999Y14269002D01*
X42102000Y14269002D01*
X42102000Y15244000D01*
X42602000Y15244000D01*
X42602000Y14269001D01*
X42651972Y14269001D01*
X42651986Y14269002D01*
X42754697Y14279495D01*
X42921119Y14334642D01*
X42921124Y14334644D01*
X43070345Y14426685D01*
X43194315Y14550655D01*
X43286356Y14699876D01*
X43286358Y14699881D01*
X43341505Y14866303D01*
X43341506Y14866310D01*
X43351999Y14969014D01*
X43352000Y14969027D01*
X43352000Y15244000D01*
X42602000Y15244000D01*
X42102000Y15244000D01*
X42102000Y15620000D01*
X42121685Y15687039D01*
X42174489Y15732794D01*
X42226000Y15744000D01*
X43351999Y15744000D01*
X43351999Y16018972D01*
X43351998Y16018987D01*
X43341505Y16121698D01*
X43286358Y16288120D01*
X43286356Y16288125D01*
X43194315Y16437346D01*
X43070345Y16561316D01*
X42985944Y16613375D01*
X42939220Y16665323D01*
X42927997Y16734286D01*
X42955841Y16798368D01*
X42976731Y16818181D01*
X43006078Y16840150D01*
X43040261Y16865739D01*
X43127889Y16982796D01*
X43178989Y17119799D01*
X43182591Y17153308D01*
X43185499Y17180346D01*
X43185500Y17180363D01*
X43185500Y18974000D01*
X45387001Y18974000D01*
X45387001Y18724014D01*
X45397494Y18621303D01*
X45452641Y18454881D01*
X45452643Y18454876D01*
X45544684Y18305655D01*
X45668654Y18181685D01*
X45817875Y18089644D01*
X45817880Y18089642D01*
X45984302Y18034495D01*
X45984309Y18034494D01*
X46087019Y18024001D01*
X46311999Y18024001D01*
X46312000Y18024002D01*
X46312000Y18974000D01*
X46812000Y18974000D01*
X46812000Y18024001D01*
X47036972Y18024001D01*
X47036986Y18024002D01*
X47139697Y18034495D01*
X47306119Y18089642D01*
X47306124Y18089644D01*
X47455345Y18181685D01*
X47579315Y18305655D01*
X47671356Y18454876D01*
X47671358Y18454881D01*
X47726505Y18621303D01*
X47726506Y18621310D01*
X47736999Y18724014D01*
X47737000Y18724027D01*
X47737000Y18974000D01*
X46812000Y18974000D01*
X46312000Y18974000D01*
X45387001Y18974000D01*
X43185500Y18974000D01*
X43185500Y19277638D01*
X43185499Y19277647D01*
X43182710Y19303585D01*
X43195113Y19372345D01*
X43242722Y19423484D01*
X43310421Y19440765D01*
X43373148Y19419891D01*
X43373509Y19420475D01*
X43375990Y19418945D01*
X43376716Y19418703D01*
X43378369Y19417478D01*
X43528875Y19324644D01*
X43528880Y19324642D01*
X43695302Y19269495D01*
X43695309Y19269494D01*
X43798019Y19259001D01*
X44072999Y19259001D01*
X44073000Y19259002D01*
X44073000Y20385000D01*
X44092685Y20452039D01*
X44145489Y20497794D01*
X44197000Y20509000D01*
X44449000Y20509000D01*
X44516039Y20489315D01*
X44561794Y20436511D01*
X44573000Y20385000D01*
X44573000Y19259001D01*
X44847972Y19259001D01*
X44847986Y19259002D01*
X44950697Y19269495D01*
X45117119Y19324642D01*
X45117124Y19324644D01*
X45266347Y19416686D01*
X45287343Y19437681D01*
X45348666Y19471166D01*
X45375024Y19474000D01*
X46312000Y19474000D01*
X46312000Y20424000D01*
X46812000Y20424000D01*
X46812000Y19474000D01*
X47736999Y19474000D01*
X47736999Y19723972D01*
X47736998Y19723987D01*
X47726505Y19826698D01*
X47671358Y19993120D01*
X47671356Y19993125D01*
X47579315Y20142346D01*
X47455345Y20266316D01*
X47306124Y20358357D01*
X47306119Y20358359D01*
X47139697Y20413506D01*
X47139690Y20413507D01*
X47036986Y20424000D01*
X46812000Y20424000D01*
X46312000Y20424000D01*
X46087029Y20424000D01*
X46087012Y20423999D01*
X45984302Y20413506D01*
X45817880Y20358359D01*
X45817875Y20358357D01*
X45737096Y20308531D01*
X45669703Y20290091D01*
X45603040Y20311014D01*
X45558270Y20364656D01*
X45547999Y20414070D01*
X45547999Y20558972D01*
X45547998Y20558987D01*
X45537505Y20661699D01*
X45523513Y20703923D01*
X45521110Y20773751D01*
X45556840Y20833794D01*
X45619360Y20864987D01*
X45688820Y20857428D01*
X45706311Y20848470D01*
X45814262Y20781885D01*
X45982574Y20726113D01*
X46086455Y20715500D01*
X47037544Y20715501D01*
X47141426Y20726113D01*
X47309738Y20781885D01*
X47460652Y20874970D01*
X47586030Y21000348D01*
X47679115Y21151262D01*
X47734887Y21319574D01*
X47745500Y21423455D01*
X47745499Y22424544D01*
X47734887Y22528426D01*
X47679115Y22696738D01*
X47586030Y22847652D01*
X47460652Y22973030D01*
X47460648Y22973033D01*
X47354403Y23038566D01*
X47307678Y23090514D01*
X47295500Y23144104D01*
X47295500Y23234821D01*
X47315185Y23301860D01*
X47354401Y23340359D01*
X47405652Y23371970D01*
X47531030Y23497348D01*
X47624115Y23648262D01*
X47679887Y23816574D01*
X47690500Y23920455D01*
X47690499Y24546544D01*
X47679887Y24650426D01*
X47624115Y24818738D01*
X47531030Y24969652D01*
X47442363Y25058319D01*
X47408878Y25119642D01*
X47413862Y25189334D01*
X47442363Y25233681D01*
X47485998Y25277316D01*
X47531030Y25322348D01*
X47624115Y25473262D01*
X47679887Y25641574D01*
X47690500Y25745455D01*
X47690499Y26371544D01*
X47679887Y26475426D01*
X47624115Y26643738D01*
X47531030Y26794652D01*
X47405652Y26920030D01*
X47254738Y27013115D01*
X47172556Y27040347D01*
X47086427Y27068887D01*
X46982546Y27079500D01*
X45981462Y27079500D01*
X45981446Y27079499D01*
X45877572Y27068887D01*
X45709264Y27013116D01*
X45709259Y27013114D01*
X45558346Y26920029D01*
X45441137Y26802819D01*
X45379814Y26769334D01*
X45353456Y26766500D01*
X44781766Y26766500D01*
X44738746Y26775643D01*
X44738468Y26774786D01*
X44732286Y26776795D01*
X44545487Y26816500D01*
X44354513Y26816500D01*
X44167714Y26776795D01*
X44080480Y26737957D01*
X44052670Y26725574D01*
X43993246Y26699117D01*
X43838745Y26586865D01*
X43710959Y26444943D01*
X43615473Y26279557D01*
X43615470Y26279550D01*
X43556459Y26097932D01*
X43556458Y26097928D01*
X43536496Y25908000D01*
X43556458Y25718072D01*
X43556459Y25718069D01*
X43615470Y25536451D01*
X43615473Y25536444D01*
X43710960Y25371056D01*
X43838747Y25229134D01*
X43993248Y25116882D01*
X44167712Y25039206D01*
X44354513Y24999500D01*
X44545487Y24999500D01*
X44732288Y25039206D01*
X44732293Y25039209D01*
X44738468Y25041214D01*
X44738746Y25040358D01*
X44781766Y25049500D01*
X45260046Y25049500D01*
X45327085Y25029815D01*
X45372840Y24977011D01*
X45382784Y24907853D01*
X45365584Y24860403D01*
X45339889Y24818747D01*
X45339884Y24818736D01*
X45284113Y24650428D01*
X45273500Y24546553D01*
X45273500Y23920463D01*
X45273501Y23920447D01*
X45284113Y23816573D01*
X45328514Y23682577D01*
X45339885Y23648262D01*
X45432970Y23497348D01*
X45558348Y23371970D01*
X45709262Y23278885D01*
X45743503Y23267539D01*
X45800947Y23227768D01*
X45827772Y23163253D01*
X45828500Y23149833D01*
X45828500Y23144104D01*
X45808815Y23077065D01*
X45769597Y23038566D01*
X45663351Y22973033D01*
X45663347Y22973030D01*
X45619137Y22928819D01*
X45557814Y22895334D01*
X45531456Y22892500D01*
X45438544Y22892500D01*
X45371505Y22912185D01*
X45350863Y22928819D01*
X45271653Y23008029D01*
X45271652Y23008030D01*
X45148914Y23083736D01*
X45120740Y23101114D01*
X45120735Y23101116D01*
X44952427Y23156887D01*
X44848552Y23167500D01*
X44848545Y23167500D01*
X44403188Y23167500D01*
X44336149Y23187185D01*
X44315507Y23203819D01*
X42933819Y24585507D01*
X42900334Y24646830D01*
X42897500Y24673188D01*
X42897500Y28454824D01*
X42917185Y28521863D01*
X42969989Y28567618D01*
X43008240Y28578113D01*
X43035201Y28581011D01*
X43172204Y28632111D01*
X43289261Y28719739D01*
X43334734Y28780484D01*
X43390667Y28822354D01*
X43460359Y28827338D01*
X43521682Y28793853D01*
X43533263Y28780488D01*
X43578739Y28719739D01*
X43695796Y28632111D01*
X43801353Y28592740D01*
X43832793Y28581013D01*
X43832799Y28581011D01*
X43859746Y28578114D01*
X43893345Y28574501D01*
X43893362Y28574500D01*
X45514638Y28574500D01*
X45514654Y28574501D01*
X45541692Y28577409D01*
X45575201Y28581011D01*
X45575207Y28581013D01*
X45591100Y28586941D01*
X45712204Y28632111D01*
X45829261Y28719739D01*
X45916889Y28836796D01*
X45967989Y28973799D01*
X45971591Y29007308D01*
X45974499Y29034346D01*
X45974500Y29034363D01*
X45974500Y30655638D01*
X45974499Y30655655D01*
X45969444Y30702667D01*
X45967989Y30716201D01*
X45963375Y30728571D01*
X45933563Y30808500D01*
X45916889Y30853204D01*
X45829261Y30970261D01*
X45712204Y31057889D01*
X45664500Y31075682D01*
X45575203Y31108989D01*
X45514654Y31115500D01*
X45514638Y31115500D01*
X44522188Y31115500D01*
X44455149Y31135185D01*
X44434507Y31151819D01*
X44391819Y31194507D01*
X44358334Y31255830D01*
X44355500Y31282188D01*
X44355500Y31396456D01*
X44375185Y31463495D01*
X44391819Y31484138D01*
X44404919Y31497238D01*
X44471030Y31563348D01*
X44564115Y31714262D01*
X44619887Y31882574D01*
X44630500Y31986455D01*
X44630499Y33037544D01*
X44619887Y33141426D01*
X44564115Y33309738D01*
X44471030Y33460652D01*
X44451617Y33480065D01*
X44391818Y33539866D01*
X44358333Y33601189D01*
X44355500Y33627546D01*
X44355500Y33760956D01*
X44375185Y33827995D01*
X44427989Y33873750D01*
X44437089Y33877478D01*
X44441435Y33879059D01*
X44584694Y33973282D01*
X44702362Y34098003D01*
X44702362Y34098005D01*
X44706673Y34103793D01*
X44708851Y34102172D01*
X44750353Y34141727D01*
X44807150Y34155500D01*
X44858638Y34155500D01*
X44858654Y34155501D01*
X44885692Y34158409D01*
X44919201Y34162011D01*
X44925049Y34164192D01*
X44936960Y34168635D01*
X45056204Y34213111D01*
X45173261Y34300739D01*
X45260889Y34417796D01*
X45262318Y34421630D01*
X45264770Y34424905D01*
X45265137Y34425576D01*
X45265233Y34425524D01*
X45304186Y34477562D01*
X45369650Y34501981D01*
X45437923Y34487131D01*
G37*
%TD.AperFunction*%
%TA.AperFunction,Conductor*%
G36*
X28237334Y16340138D02*
G01*
X28281681Y16311637D01*
X28370348Y16222970D01*
X28521262Y16129885D01*
X28689574Y16074113D01*
X28793455Y16063500D01*
X29419544Y16063501D01*
X29523426Y16074113D01*
X29636451Y16111566D01*
X29706277Y16113967D01*
X29763134Y16081540D01*
X30184181Y15660493D01*
X30217666Y15599170D01*
X30220500Y15572812D01*
X30220500Y14999346D01*
X30227011Y14938798D01*
X30227011Y14938796D01*
X30263675Y14840500D01*
X30278111Y14801796D01*
X30365739Y14684739D01*
X30482796Y14597111D01*
X30500357Y14590561D01*
X30502810Y14589646D01*
X30558743Y14547774D01*
X30583159Y14482309D01*
X30568306Y14414037D01*
X30518900Y14364632D01*
X30502810Y14357284D01*
X30486915Y14351356D01*
X30486906Y14351351D01*
X30371812Y14265191D01*
X30371809Y14265188D01*
X30285649Y14150094D01*
X30285645Y14150087D01*
X30235403Y14015380D01*
X30235401Y14015373D01*
X30229000Y13955845D01*
X30229000Y13378000D01*
X31046500Y13378000D01*
X31113539Y13358315D01*
X31159294Y13305511D01*
X31170500Y13254000D01*
X31170500Y13002000D01*
X31150815Y12934961D01*
X31098011Y12889206D01*
X31046500Y12878000D01*
X30229000Y12878000D01*
X30229000Y12875791D01*
X30209315Y12808752D01*
X30156511Y12762997D01*
X30087353Y12753053D01*
X30023797Y12782078D01*
X29999462Y12810694D01*
X29968032Y12861649D01*
X29968029Y12861653D01*
X29842653Y12987029D01*
X29842652Y12987030D01*
X29705624Y13071550D01*
X29691740Y13080114D01*
X29691735Y13080116D01*
X29523427Y13135887D01*
X29419546Y13146500D01*
X28793462Y13146500D01*
X28793446Y13146499D01*
X28689572Y13135887D01*
X28521264Y13080116D01*
X28521259Y13080114D01*
X28370349Y12987031D01*
X28281681Y12898363D01*
X28220357Y12864879D01*
X28150666Y12869863D01*
X28106319Y12898363D01*
X28069721Y12934961D01*
X28017652Y12987030D01*
X27880624Y13071550D01*
X27866740Y13080114D01*
X27866735Y13080116D01*
X27698427Y13135887D01*
X27594546Y13146500D01*
X26968462Y13146500D01*
X26968446Y13146499D01*
X26864572Y13135887D01*
X26696264Y13080116D01*
X26696259Y13080114D01*
X26597097Y13018949D01*
X26529704Y13000509D01*
X26463041Y13021432D01*
X26418271Y13075074D01*
X26408000Y13124488D01*
X26408000Y13212000D01*
X25700361Y13212000D01*
X25633322Y13231685D01*
X25587567Y13284489D01*
X25577623Y13353647D01*
X25579467Y13363579D01*
X25594264Y13428407D01*
X25594264Y13428410D01*
X25583557Y13571295D01*
X25585296Y13571426D01*
X25588894Y13630145D01*
X25630192Y13686503D01*
X25695403Y13711587D01*
X25705512Y13712000D01*
X26408000Y13712000D01*
X26408000Y14271828D01*
X26407999Y14271845D01*
X26401598Y14331373D01*
X26401596Y14331380D01*
X26351354Y14466087D01*
X26351350Y14466094D01*
X26265191Y14581187D01*
X26196334Y14632733D01*
X26154463Y14688667D01*
X26149479Y14758359D01*
X26182964Y14819682D01*
X26196334Y14831267D01*
X26265191Y14882814D01*
X26351350Y14997907D01*
X26351354Y14997914D01*
X26401596Y15132621D01*
X26401598Y15132628D01*
X26407999Y15192156D01*
X26408000Y15192173D01*
X26408000Y15752000D01*
X25700361Y15752000D01*
X25633322Y15771685D01*
X25587567Y15824489D01*
X25577623Y15893647D01*
X25579467Y15903579D01*
X25594264Y15968407D01*
X25590432Y16019545D01*
X25583557Y16111295D01*
X25585296Y16111426D01*
X25588894Y16170145D01*
X25630192Y16226503D01*
X25695403Y16251587D01*
X25705512Y16252000D01*
X26459362Y16252000D01*
X26459362Y16250279D01*
X26505493Y16246979D01*
X26538403Y16225828D01*
X26539685Y16227448D01*
X26545345Y16222972D01*
X26545347Y16222971D01*
X26545348Y16222970D01*
X26696262Y16129885D01*
X26864574Y16074113D01*
X26968455Y16063500D01*
X27594544Y16063501D01*
X27698426Y16074113D01*
X27866738Y16129885D01*
X28017652Y16222970D01*
X28106318Y16311637D01*
X28167642Y16345122D01*
X28237334Y16340138D01*
G37*
%TD.AperFunction*%
%TA.AperFunction,Conductor*%
G36*
X25322742Y15559212D02*
G01*
X25375857Y15513818D01*
X25395997Y15446914D01*
X25396000Y15446070D01*
X25396000Y14018066D01*
X25376315Y13951027D01*
X25323511Y13905272D01*
X25254353Y13895328D01*
X25235453Y13899574D01*
X25212998Y13906500D01*
X25112688Y13906500D01*
X25112680Y13906500D01*
X25038481Y13895316D01*
X24969256Y13904789D01*
X24916142Y13950184D01*
X24896003Y14017088D01*
X24896000Y14017931D01*
X24896000Y15445935D01*
X24915685Y15512974D01*
X24968489Y15558729D01*
X25037647Y15568673D01*
X25056542Y15564428D01*
X25079002Y15557500D01*
X25079004Y15557500D01*
X25179311Y15557500D01*
X25179312Y15557500D01*
X25253518Y15568685D01*
X25322742Y15559212D01*
G37*
%TD.AperFunction*%
%TA.AperFunction,Conductor*%
G36*
X41492755Y17188453D02*
G01*
X41524030Y17125973D01*
X41524773Y17120803D01*
X41525011Y17119796D01*
X41576111Y16982794D01*
X41576112Y16982793D01*
X41627266Y16914461D01*
X41651684Y16848997D01*
X41652000Y16840150D01*
X41652000Y16718204D01*
X41672499Y16680663D01*
X41667515Y16610971D01*
X41636700Y16568487D01*
X41638763Y16566424D01*
X41509683Y16437345D01*
X41505202Y16431677D01*
X41503021Y16433402D01*
X41460556Y16395225D01*
X41391591Y16384020D01*
X41327516Y16411879D01*
X41305663Y16437106D01*
X41305511Y16436985D01*
X41302816Y16440394D01*
X41301451Y16441969D01*
X41301029Y16442653D01*
X41221818Y16521866D01*
X41188333Y16583189D01*
X41185500Y16609546D01*
X41185500Y16884901D01*
X41205185Y16951940D01*
X41210225Y16959202D01*
X41227889Y16982796D01*
X41263958Y17079500D01*
X41278987Y17119793D01*
X41278988Y17119796D01*
X41278989Y17119799D01*
X41278989Y17119804D01*
X41280771Y17127341D01*
X41282715Y17126882D01*
X41305449Y17181763D01*
X41362841Y17221611D01*
X41432666Y17224105D01*
X41492755Y17188453D01*
G37*
%TD.AperFunction*%
%TA.AperFunction,Conductor*%
G36*
X24109994Y19162315D02*
G01*
X24130636Y19145682D01*
X24222348Y19053970D01*
X24373262Y18960885D01*
X24458924Y18932500D01*
X24541573Y18905113D01*
X24547631Y18904495D01*
X24575078Y18901691D01*
X24639770Y18875297D01*
X24650159Y18866014D01*
X26040493Y17475681D01*
X26073978Y17414358D01*
X26068994Y17344666D01*
X26027122Y17288733D01*
X25961658Y17264316D01*
X25952812Y17264000D01*
X25396000Y17264000D01*
X25396000Y16558066D01*
X25376315Y16491027D01*
X25323511Y16445272D01*
X25254353Y16435328D01*
X25235453Y16439574D01*
X25212998Y16446500D01*
X25112688Y16446500D01*
X25112680Y16446500D01*
X25038481Y16435316D01*
X24969256Y16444789D01*
X24916142Y16490184D01*
X24896003Y16557088D01*
X24896000Y16557931D01*
X24896000Y17264000D01*
X24336155Y17264000D01*
X24276627Y17257599D01*
X24276620Y17257597D01*
X24141913Y17207355D01*
X24141906Y17207351D01*
X24026812Y17121191D01*
X23980574Y17059425D01*
X23924640Y17017555D01*
X23854948Y17012571D01*
X23793625Y17046057D01*
X23782046Y17059420D01*
X23731261Y17127261D01*
X23614204Y17214889D01*
X23596182Y17221611D01*
X23477203Y17265989D01*
X23450242Y17268888D01*
X23385692Y17295627D01*
X23345845Y17353021D01*
X23339500Y17392177D01*
X23339500Y18752820D01*
X23359185Y18819859D01*
X23411989Y18865614D01*
X23450898Y18876178D01*
X23489426Y18880113D01*
X23657738Y18935885D01*
X23808652Y19028970D01*
X23925363Y19145681D01*
X23986686Y19179166D01*
X24013044Y19182000D01*
X24042955Y19182000D01*
X24109994Y19162315D01*
G37*
%TD.AperFunction*%
%TA.AperFunction,Conductor*%
G36*
X28729410Y21368182D02*
G01*
X28751338Y21342890D01*
X28751492Y21343011D01*
X28754178Y21339613D01*
X28755545Y21338037D01*
X28755970Y21337348D01*
X28803625Y21289693D01*
X28835181Y21258138D01*
X28868666Y21196815D01*
X28871500Y21170456D01*
X28871500Y20397908D01*
X28865206Y20358905D01*
X28854113Y20325429D01*
X28843500Y20221553D01*
X28843500Y19270463D01*
X28843501Y19270447D01*
X28854113Y19166573D01*
X28899709Y19028972D01*
X28909885Y18998262D01*
X29002970Y18847348D01*
X29128348Y18721970D01*
X29147693Y18710038D01*
X29194416Y18658091D01*
X29205639Y18589128D01*
X29177795Y18525046D01*
X29119726Y18486190D01*
X29082595Y18480500D01*
X28793463Y18480500D01*
X28793446Y18480499D01*
X28689572Y18469887D01*
X28521264Y18414116D01*
X28521259Y18414114D01*
X28370349Y18321031D01*
X28281681Y18232363D01*
X28220357Y18198879D01*
X28150666Y18203863D01*
X28106319Y18232363D01*
X28017652Y18321030D01*
X27947275Y18364439D01*
X27900553Y18416385D01*
X27889330Y18485348D01*
X27917174Y18549430D01*
X27973370Y18587682D01*
X28121119Y18636642D01*
X28121124Y18636644D01*
X28270345Y18728685D01*
X28394315Y18852655D01*
X28486356Y19001876D01*
X28486358Y19001881D01*
X28541505Y19168303D01*
X28541506Y19168310D01*
X28551999Y19271014D01*
X28552000Y19271027D01*
X28552000Y19496000D01*
X27226000Y19496000D01*
X27158961Y19515685D01*
X27113206Y19568489D01*
X27102000Y19620000D01*
X27102000Y19872000D01*
X27121685Y19939039D01*
X27174489Y19984794D01*
X27226000Y19996000D01*
X28551999Y19996000D01*
X28551999Y20220972D01*
X28551998Y20220987D01*
X28541505Y20323698D01*
X28486358Y20490120D01*
X28486356Y20490125D01*
X28394315Y20639346D01*
X28270345Y20763316D01*
X28114975Y20859149D01*
X28116664Y20861889D01*
X28074973Y20898660D01*
X28055878Y20965869D01*
X28076150Y21032734D01*
X28129354Y21078023D01*
X28140869Y21082487D01*
X28274119Y21126642D01*
X28274124Y21126644D01*
X28423345Y21218685D01*
X28547316Y21342656D01*
X28551798Y21348323D01*
X28553991Y21346589D01*
X28596357Y21384735D01*
X28665314Y21395992D01*
X28729410Y21368182D01*
G37*
%TD.AperFunction*%
%TA.AperFunction,Conductor*%
G36*
X27237428Y24079149D02*
G01*
X27286833Y24029743D01*
X27294181Y24013651D01*
X27297110Y24005797D01*
X27301962Y23999316D01*
X27384739Y23888739D01*
X27469868Y23825012D01*
X27501372Y23801428D01*
X27501796Y23801111D01*
X27635662Y23751181D01*
X27691594Y23709310D01*
X27716011Y23643845D01*
X27701159Y23575573D01*
X27651753Y23526167D01*
X27592328Y23511000D01*
X27405029Y23511000D01*
X27405012Y23510999D01*
X27302302Y23500506D01*
X27135880Y23445359D01*
X27135875Y23445357D01*
X26986654Y23353316D01*
X26862684Y23229346D01*
X26770643Y23080125D01*
X26770641Y23080120D01*
X26715494Y22913698D01*
X26715493Y22913691D01*
X26705000Y22810987D01*
X26705000Y22536000D01*
X27831000Y22536000D01*
X27898039Y22516315D01*
X27943794Y22463511D01*
X27955000Y22412000D01*
X27955000Y22160000D01*
X27935315Y22092961D01*
X27882511Y22047206D01*
X27831000Y22036000D01*
X26705001Y22036000D01*
X26705001Y21761014D01*
X26715494Y21658303D01*
X26770641Y21491881D01*
X26770643Y21491876D01*
X26862684Y21342655D01*
X26986654Y21218685D01*
X27097136Y21150539D01*
X27143860Y21098591D01*
X27155083Y21029628D01*
X27127239Y20965546D01*
X27069171Y20926690D01*
X27032040Y20921000D01*
X26852029Y20921000D01*
X26852012Y20920999D01*
X26749302Y20910506D01*
X26582880Y20855359D01*
X26582875Y20855357D01*
X26433657Y20763318D01*
X26346191Y20675852D01*
X26284867Y20642368D01*
X26215176Y20647352D01*
X26170829Y20675853D01*
X26106363Y20740319D01*
X26072878Y20801642D01*
X26077862Y20871334D01*
X26106363Y20915681D01*
X26139867Y20949185D01*
X26195030Y21004348D01*
X26288115Y21155262D01*
X26343887Y21323574D01*
X26354500Y21427455D01*
X26354499Y22053544D01*
X26343887Y22157426D01*
X26288115Y22325738D01*
X26195030Y22476652D01*
X26069652Y22602030D01*
X25938402Y22682987D01*
X25891678Y22734933D01*
X25879500Y22788524D01*
X25879500Y23539813D01*
X25899185Y23606852D01*
X25915819Y23627494D01*
X25995506Y23707181D01*
X26056829Y23740666D01*
X26083187Y23743500D01*
X26656638Y23743500D01*
X26656654Y23743501D01*
X26683692Y23746409D01*
X26717201Y23750011D01*
X26854204Y23801111D01*
X26971261Y23888739D01*
X27058889Y24005796D01*
X27061818Y24013651D01*
X27103690Y24069585D01*
X27169155Y24094001D01*
X27237428Y24079149D01*
G37*
%TD.AperFunction*%
%TA.AperFunction,Conductor*%
G36*
X24770939Y25723815D02*
G01*
X24778211Y25718766D01*
X24801792Y25701113D01*
X24801793Y25701112D01*
X24938795Y25650012D01*
X24946341Y25648229D01*
X24945881Y25646285D01*
X25000764Y25623550D01*
X25040611Y25566157D01*
X25043104Y25496331D01*
X25007450Y25436243D01*
X24944970Y25404970D01*
X24939809Y25404228D01*
X24938795Y25403989D01*
X24801795Y25352889D01*
X24733460Y25301733D01*
X24667995Y25277316D01*
X24659149Y25277000D01*
X24548000Y25277000D01*
X24548000Y25154156D01*
X24554401Y25094626D01*
X24554567Y25093926D01*
X24554537Y25093368D01*
X24555231Y25086913D01*
X24554184Y25086801D01*
X24550821Y25024157D01*
X24550071Y25022089D01*
X24546012Y25011208D01*
X24546010Y25011198D01*
X24539500Y24950655D01*
X24539500Y24353598D01*
X24521041Y24288505D01*
X24517456Y24282694D01*
X24485726Y24214647D01*
X24452042Y24147577D01*
X24449574Y24140794D01*
X24449496Y24140823D01*
X24447181Y24134166D01*
X24447261Y24134139D01*
X24444990Y24127287D01*
X24439376Y24100101D01*
X24429814Y24053789D01*
X24418440Y24005797D01*
X24412498Y23980727D01*
X24411661Y23973559D01*
X24411577Y23973569D01*
X24410862Y23966565D01*
X24410947Y23966557D01*
X24410317Y23959368D01*
X24412500Y23884373D01*
X24412500Y22788524D01*
X24392815Y22721485D01*
X24353598Y22682987D01*
X24306436Y22653896D01*
X24222346Y22602029D01*
X24168137Y22547819D01*
X24106814Y22514334D01*
X24080456Y22511500D01*
X23975544Y22511500D01*
X23908505Y22531185D01*
X23887863Y22547819D01*
X23808653Y22627029D01*
X23808652Y22627030D01*
X23714898Y22684858D01*
X23657740Y22720114D01*
X23657735Y22720116D01*
X23489427Y22775887D01*
X23385546Y22786500D01*
X22334462Y22786500D01*
X22334446Y22786499D01*
X22289102Y22781866D01*
X22220409Y22794636D01*
X22169525Y22842516D01*
X22152500Y22905224D01*
X22152500Y23393583D01*
X22172185Y23460622D01*
X22188819Y23481264D01*
X24414737Y25707181D01*
X24476060Y25740666D01*
X24502418Y25743500D01*
X24703900Y25743500D01*
X24770939Y25723815D01*
G37*
%TD.AperFunction*%
%TA.AperFunction,Conductor*%
G36*
X32412559Y31076066D02*
G01*
X32442869Y31047319D01*
X32458966Y31025817D01*
X32477739Y31000739D01*
X32524311Y30965875D01*
X32566182Y30909942D01*
X32574000Y30866609D01*
X32574000Y29465000D01*
X32554315Y29397961D01*
X32501511Y29352206D01*
X32450000Y29341000D01*
X31324001Y29341000D01*
X31324001Y29066014D01*
X31334494Y28963303D01*
X31389641Y28796881D01*
X31389643Y28796876D01*
X31468458Y28669097D01*
X31486898Y28601704D01*
X31465975Y28535041D01*
X31412333Y28490271D01*
X31362919Y28480000D01*
X31043029Y28480000D01*
X31043012Y28479999D01*
X30940302Y28469506D01*
X30773880Y28414359D01*
X30773875Y28414357D01*
X30624654Y28322316D01*
X30500684Y28198346D01*
X30408643Y28049125D01*
X30408641Y28049120D01*
X30353494Y27882698D01*
X30353493Y27882691D01*
X30343000Y27779987D01*
X30343000Y27555000D01*
X32742999Y27555000D01*
X32742999Y27779972D01*
X32742998Y27779987D01*
X32732505Y27882698D01*
X32677358Y28049120D01*
X32677356Y28049125D01*
X32594167Y28183995D01*
X32575727Y28251388D01*
X32596649Y28318051D01*
X32650291Y28362821D01*
X32687106Y28372450D01*
X32726696Y28376494D01*
X32893119Y28431642D01*
X32893124Y28431644D01*
X33042345Y28523685D01*
X33166316Y28647656D01*
X33170798Y28653323D01*
X33172991Y28651589D01*
X33215357Y28689735D01*
X33284314Y28700992D01*
X33348410Y28673182D01*
X33370334Y28647894D01*
X33370489Y28648015D01*
X33373183Y28644608D01*
X33374545Y28643037D01*
X33374969Y28642349D01*
X33436647Y28580671D01*
X33470132Y28519348D01*
X33465148Y28449656D01*
X33423276Y28393723D01*
X33414063Y28387452D01*
X33319351Y28329033D01*
X33319347Y28329030D01*
X33193971Y28203654D01*
X33100886Y28052741D01*
X33100884Y28052736D01*
X33045113Y27884428D01*
X33034500Y27780553D01*
X33034500Y26829463D01*
X33034501Y26829447D01*
X33040932Y26766500D01*
X33045113Y26725574D01*
X33100885Y26557262D01*
X33193970Y26406348D01*
X33319348Y26280970D01*
X33470262Y26187885D01*
X33638574Y26132113D01*
X33742455Y26121500D01*
X34743544Y26121501D01*
X34845638Y26131931D01*
X34914329Y26119162D01*
X34945920Y26096254D01*
X35114181Y25927993D01*
X35147666Y25866670D01*
X35150500Y25840312D01*
X35150500Y25407463D01*
X35150501Y25407447D01*
X35161113Y25303573D01*
X35216884Y25135265D01*
X35216886Y25135260D01*
X35241700Y25095030D01*
X35309970Y24984348D01*
X35435348Y24858970D01*
X35586262Y24765885D01*
X35754574Y24710113D01*
X35858455Y24699500D01*
X36484544Y24699501D01*
X36588426Y24710113D01*
X36756738Y24765885D01*
X36784150Y24782793D01*
X36798403Y24791584D01*
X36865795Y24810025D01*
X36932459Y24789103D01*
X36977228Y24735461D01*
X36987500Y24686046D01*
X36987500Y24447416D01*
X36981431Y24409098D01*
X36969194Y24371435D01*
X36952458Y24319928D01*
X36932496Y24130000D01*
X36948738Y23975460D01*
X36936170Y23906732D01*
X36888438Y23855708D01*
X36825418Y23838500D01*
X33638188Y23838500D01*
X33571149Y23858185D01*
X33550507Y23874819D01*
X31329319Y26096007D01*
X31295834Y26157330D01*
X31293000Y26183688D01*
X31293000Y27055000D01*
X31793000Y27055000D01*
X31793000Y26130001D01*
X32042972Y26130001D01*
X32042986Y26130002D01*
X32145697Y26140495D01*
X32312119Y26195642D01*
X32312124Y26195644D01*
X32461345Y26287685D01*
X32585315Y26411655D01*
X32677356Y26560876D01*
X32677358Y26560881D01*
X32732505Y26727303D01*
X32732506Y26727310D01*
X32742999Y26830014D01*
X32743000Y26830027D01*
X32743000Y27055000D01*
X31793000Y27055000D01*
X31293000Y27055000D01*
X30408422Y27055000D01*
X30341383Y27074685D01*
X30328722Y27084006D01*
X30316809Y27094002D01*
X30316808Y27094003D01*
X30310775Y27097970D01*
X30310821Y27098042D01*
X30304881Y27101826D01*
X30304837Y27101753D01*
X30298690Y27105545D01*
X30230647Y27137274D01*
X30163576Y27170958D01*
X30156789Y27173428D01*
X30156817Y27173508D01*
X30150166Y27175820D01*
X30150140Y27175739D01*
X30143287Y27178010D01*
X30116100Y27183624D01*
X30069788Y27193186D01*
X30021913Y27204533D01*
X29996732Y27210501D01*
X29989560Y27211339D01*
X29989569Y27211423D01*
X29982564Y27212139D01*
X29982557Y27212053D01*
X29975367Y27212683D01*
X29900372Y27210500D01*
X29652100Y27210500D01*
X29585061Y27230185D01*
X29577789Y27235234D01*
X29554207Y27252888D01*
X29554206Y27252889D01*
X29417203Y27303989D01*
X29356654Y27310500D01*
X29356638Y27310500D01*
X27699362Y27310500D01*
X27699345Y27310500D01*
X27638797Y27303989D01*
X27638795Y27303989D01*
X27501795Y27252889D01*
X27384739Y27165261D01*
X27298541Y27050114D01*
X27297111Y27048204D01*
X27294179Y27040346D01*
X27252308Y26984415D01*
X27186843Y26960000D01*
X27118570Y26974853D01*
X27069166Y27024260D01*
X27061821Y27040341D01*
X27058889Y27048204D01*
X26971261Y27165261D01*
X26854204Y27252889D01*
X26854204Y27252890D01*
X26717203Y27303989D01*
X26672244Y27308823D01*
X26607693Y27335561D01*
X26567845Y27392954D01*
X26561500Y27432112D01*
X26561500Y29858457D01*
X26581185Y29925496D01*
X26597819Y29946139D01*
X26602646Y29950967D01*
X26602652Y29950970D01*
X26681865Y30030184D01*
X26743187Y30063666D01*
X26769544Y30066500D01*
X26951031Y30066500D01*
X26969000Y30065191D01*
X26974071Y30064449D01*
X26992022Y30061819D01*
X27042832Y30066265D01*
X27048233Y30066500D01*
X27056215Y30066500D01*
X27056218Y30066500D01*
X27082307Y30069551D01*
X27088037Y30070220D01*
X27100502Y30071311D01*
X27162836Y30076763D01*
X27162844Y30076766D01*
X27169911Y30078224D01*
X27169928Y30078140D01*
X27176805Y30079665D01*
X27176785Y30079749D01*
X27183801Y30081413D01*
X27183808Y30081413D01*
X27205784Y30089412D01*
X27254345Y30107087D01*
X27282998Y30116583D01*
X27325601Y30130699D01*
X27325610Y30130705D01*
X27332150Y30133754D01*
X27332187Y30133674D01*
X27338519Y30136739D01*
X27338480Y30136817D01*
X27344932Y30140057D01*
X27407635Y30181298D01*
X27407635Y30181299D01*
X27471540Y30220714D01*
X27471544Y30220719D01*
X27477203Y30225192D01*
X27477256Y30225125D01*
X27482711Y30229569D01*
X27482656Y30229635D01*
X27488192Y30234281D01*
X27488191Y30234281D01*
X27488194Y30234282D01*
X27539678Y30288853D01*
X27920007Y30669182D01*
X27981330Y30702667D01*
X28007688Y30705501D01*
X28440537Y30705501D01*
X28440544Y30705501D01*
X28544426Y30716113D01*
X28712738Y30771885D01*
X28863652Y30864970D01*
X28917863Y30919181D01*
X28979186Y30952666D01*
X29005544Y30955500D01*
X29076900Y30955500D01*
X29143939Y30935815D01*
X29151211Y30930766D01*
X29174792Y30913113D01*
X29174793Y30913112D01*
X29303866Y30864970D01*
X29311799Y30862011D01*
X29339050Y30859082D01*
X29372345Y30855501D01*
X29372362Y30855500D01*
X31469638Y30855500D01*
X31493494Y30858065D01*
X31562253Y30845662D01*
X31613392Y30798053D01*
X31630673Y30730354D01*
X31608610Y30664059D01*
X31594434Y30647095D01*
X31481682Y30534343D01*
X31389643Y30385125D01*
X31389641Y30385120D01*
X31334494Y30218698D01*
X31334493Y30218691D01*
X31324000Y30115987D01*
X31324000Y29841000D01*
X32074000Y29841000D01*
X32074000Y30829558D01*
X32056822Y30861017D01*
X32061806Y30930709D01*
X32103678Y30986642D01*
X32138983Y31005081D01*
X32183101Y31019699D01*
X32183109Y31019705D01*
X32189650Y31022754D01*
X32189687Y31022674D01*
X32196019Y31025739D01*
X32195980Y31025817D01*
X32202432Y31029058D01*
X32202431Y31029058D01*
X32202435Y31029059D01*
X32239240Y31053267D01*
X32265133Y31070296D01*
X32273864Y31075682D01*
X32278505Y31078545D01*
X32345895Y31096986D01*
X32412559Y31076066D01*
G37*
%TD.AperFunction*%
%TA.AperFunction,Conductor*%
G36*
X22649333Y30437139D02*
G01*
X22693676Y30408642D01*
X22782348Y30319970D01*
X22933262Y30226885D01*
X23101574Y30171113D01*
X23205455Y30160500D01*
X23831544Y30160501D01*
X23935426Y30171113D01*
X24103738Y30226885D01*
X24254652Y30319970D01*
X24263856Y30329175D01*
X24325176Y30362660D01*
X24394867Y30357678D01*
X24450803Y30315809D01*
X24469244Y30280500D01*
X24486523Y30228353D01*
X24486885Y30227263D01*
X24486886Y30227260D01*
X24492528Y30218113D01*
X24579970Y30076348D01*
X24705348Y29950970D01*
X24856262Y29857885D01*
X24976545Y29818028D01*
X25009503Y29807107D01*
X25066948Y29767335D01*
X25093772Y29702819D01*
X25094500Y29689401D01*
X25094500Y27432112D01*
X25074815Y27365073D01*
X25022011Y27319318D01*
X24983756Y27308823D01*
X24938797Y27303989D01*
X24938795Y27303989D01*
X24801793Y27252889D01*
X24801792Y27252888D01*
X24778211Y27235234D01*
X24712747Y27210816D01*
X24703900Y27210500D01*
X24209699Y27210500D01*
X24191730Y27211809D01*
X24168705Y27215182D01*
X24127731Y27211597D01*
X24117897Y27210736D01*
X24112497Y27210500D01*
X24104512Y27210500D01*
X24088602Y27208641D01*
X24072692Y27206781D01*
X23997897Y27200238D01*
X23990829Y27198778D01*
X23990812Y27198860D01*
X23983931Y27197335D01*
X23983951Y27197254D01*
X23976927Y27195589D01*
X23906383Y27169913D01*
X23835129Y27146302D01*
X23828581Y27143248D01*
X23828545Y27143324D01*
X23822213Y27140259D01*
X23822251Y27140183D01*
X23815796Y27136942D01*
X23753093Y27095703D01*
X23689196Y27056291D01*
X23683528Y27051809D01*
X23683476Y27051875D01*
X23678014Y27047426D01*
X23678069Y27047361D01*
X23672538Y27042721D01*
X23621051Y26988148D01*
X20944507Y24311605D01*
X20930880Y24299827D01*
X20912211Y24285928D01*
X20887489Y24256464D01*
X20829317Y24217762D01*
X20759457Y24216654D01*
X20700087Y24253491D01*
X20670057Y24316579D01*
X20668500Y24336170D01*
X20668500Y24348638D01*
X20668499Y24348655D01*
X20664271Y24387971D01*
X20661989Y24409201D01*
X20647735Y24447416D01*
X20623144Y24513347D01*
X20610889Y24546204D01*
X20523261Y24663261D01*
X20452921Y24715917D01*
X20406206Y24750888D01*
X20406204Y24750889D01*
X20320663Y24782795D01*
X20264732Y24824665D01*
X20240315Y24890130D01*
X20240000Y24898948D01*
X20240000Y25901029D01*
X20259684Y25968064D01*
X20312488Y26013819D01*
X20320647Y26017200D01*
X20406204Y26049111D01*
X20523261Y26136739D01*
X20610889Y26253796D01*
X20661989Y26390799D01*
X20667810Y26444943D01*
X20668499Y26451346D01*
X20668500Y26451363D01*
X20668500Y28382539D01*
X20688185Y28449578D01*
X20740989Y28495333D01*
X20810147Y28505277D01*
X20833456Y28499580D01*
X20906048Y28474178D01*
X20906058Y28474176D01*
X21073996Y28455254D01*
X21074004Y28455254D01*
X21241943Y28474176D01*
X21400713Y28529733D01*
X21400713Y28529734D01*
X20867691Y29062756D01*
X20834206Y29124079D01*
X20832152Y29164322D01*
X20837299Y29209999D01*
X21427553Y29209999D01*
X21754266Y28883286D01*
X21754267Y28883287D01*
X21809824Y29042057D01*
X21828746Y29209997D01*
X21828746Y29210004D01*
X21809824Y29377944D01*
X21754266Y29536715D01*
X21427553Y29210001D01*
X21427553Y29209999D01*
X20837299Y29209999D01*
X20837299Y29210003D01*
X20832152Y29255681D01*
X20844206Y29324503D01*
X20867691Y29357247D01*
X21074000Y29563553D01*
X21400714Y29890268D01*
X21310740Y29921751D01*
X21253963Y29962473D01*
X21240716Y29995891D01*
X21220075Y29973660D01*
X21152398Y29956291D01*
X21142778Y29956998D01*
X21074005Y29964746D01*
X21073996Y29964746D01*
X20906058Y29945825D01*
X20906050Y29945823D01*
X20833454Y29920420D01*
X20763676Y29916859D01*
X20703048Y29951588D01*
X20670821Y30013581D01*
X20668500Y30037462D01*
X20668500Y30309456D01*
X20688185Y30376495D01*
X20740989Y30422250D01*
X20810147Y30432194D01*
X20873703Y30403169D01*
X20880181Y30397137D01*
X20957348Y30319970D01*
X21108262Y30226885D01*
X21195663Y30197924D01*
X21253108Y30158152D01*
X21267687Y30123087D01*
X21290059Y30146390D01*
X21358015Y30162632D01*
X21364282Y30162153D01*
X21380455Y30160500D01*
X22006544Y30160501D01*
X22110426Y30171113D01*
X22278738Y30226885D01*
X22429652Y30319970D01*
X22518322Y30408641D01*
X22579641Y30442123D01*
X22649333Y30437139D01*
G37*
%TD.AperFunction*%
%TA.AperFunction,Conductor*%
G36*
X27313203Y25879572D02*
G01*
X27331263Y25860174D01*
X27384739Y25788739D01*
X27501796Y25701111D01*
X27578564Y25672478D01*
X27638795Y25650012D01*
X27646341Y25648229D01*
X27645881Y25646285D01*
X27700764Y25623550D01*
X27740611Y25566157D01*
X27743104Y25496331D01*
X27707450Y25436243D01*
X27644970Y25404970D01*
X27639809Y25404228D01*
X27638795Y25403989D01*
X27501795Y25352889D01*
X27384739Y25265261D01*
X27331267Y25193831D01*
X27275333Y25151960D01*
X27205641Y25146976D01*
X27144318Y25180461D01*
X27110834Y25241785D01*
X27108000Y25268142D01*
X27108000Y25277000D01*
X26996851Y25277000D01*
X26929812Y25296685D01*
X26922540Y25301733D01*
X26854204Y25352889D01*
X26717204Y25403989D01*
X26709659Y25405771D01*
X26710118Y25407716D01*
X26655237Y25430449D01*
X26615389Y25487841D01*
X26612895Y25557666D01*
X26648547Y25617755D01*
X26711027Y25649030D01*
X26716197Y25649774D01*
X26717198Y25650011D01*
X26717201Y25650011D01*
X26854204Y25701111D01*
X26922540Y25752268D01*
X26988005Y25776684D01*
X26996851Y25777000D01*
X27108000Y25777000D01*
X27108000Y25785859D01*
X27127685Y25852898D01*
X27180489Y25898653D01*
X27249647Y25908597D01*
X27313203Y25879572D01*
G37*
%TD.AperFunction*%
%TA.AperFunction,Conductor*%
G36*
X40837203Y31626689D02*
G01*
X40861539Y31598073D01*
X40879684Y31568655D01*
X41003654Y31444685D01*
X41152875Y31352644D01*
X41152882Y31352641D01*
X41238543Y31324256D01*
X41295988Y31284484D01*
X41322812Y31219968D01*
X41310497Y31151192D01*
X41262955Y31099992D01*
X41242875Y31090369D01*
X41155795Y31057889D01*
X41038739Y30970261D01*
X40951111Y30853205D01*
X40900011Y30716205D01*
X40900011Y30716203D01*
X40893500Y30655655D01*
X40893500Y29034346D01*
X40900011Y28973798D01*
X40900011Y28973796D01*
X40946698Y28848628D01*
X40951111Y28836796D01*
X41038739Y28719739D01*
X41155796Y28632111D01*
X41245079Y28598810D01*
X41292793Y28581013D01*
X41292799Y28581011D01*
X41319756Y28578113D01*
X41384306Y28551376D01*
X41424154Y28493984D01*
X41430500Y28454824D01*
X41430500Y28083666D01*
X41410815Y28016627D01*
X41358011Y27970872D01*
X41288853Y27960928D01*
X41241404Y27978127D01*
X41158744Y28029112D01*
X41158739Y28029114D01*
X41158738Y28029115D01*
X41098351Y28049125D01*
X40990427Y28084887D01*
X40886546Y28095500D01*
X39885462Y28095500D01*
X39885446Y28095499D01*
X39781569Y28084887D01*
X39643009Y28038974D01*
X39573181Y28036573D01*
X39516326Y28068999D01*
X39156319Y28429007D01*
X39122834Y28490330D01*
X39120000Y28516688D01*
X39120000Y29161935D01*
X39139685Y29228974D01*
X39192489Y29274729D01*
X39261647Y29284673D01*
X39280542Y29280428D01*
X39303002Y29273500D01*
X39303004Y29273500D01*
X39403311Y29273500D01*
X39403312Y29273500D01*
X39477518Y29284685D01*
X39546742Y29275212D01*
X39599857Y29229818D01*
X39619997Y29162914D01*
X39620000Y29162070D01*
X39620000Y28456000D01*
X40179828Y28456000D01*
X40179844Y28456001D01*
X40239372Y28462402D01*
X40239379Y28462404D01*
X40374086Y28512646D01*
X40374093Y28512650D01*
X40489187Y28598810D01*
X40489190Y28598813D01*
X40575350Y28713907D01*
X40575354Y28713914D01*
X40625596Y28848621D01*
X40625598Y28848628D01*
X40631999Y28908156D01*
X40632000Y28908173D01*
X40632000Y29468000D01*
X39924361Y29468000D01*
X39857322Y29487685D01*
X39811567Y29540489D01*
X39801623Y29609647D01*
X39803467Y29619579D01*
X39818264Y29684407D01*
X39818264Y29684410D01*
X39807557Y29827295D01*
X39809296Y29827426D01*
X39812894Y29886145D01*
X39854192Y29942503D01*
X39919403Y29967587D01*
X39929512Y29968000D01*
X40632000Y29968000D01*
X40632000Y30527828D01*
X40631999Y30527845D01*
X40625598Y30587373D01*
X40625596Y30587380D01*
X40575354Y30722087D01*
X40575350Y30722094D01*
X40489191Y30837187D01*
X40420334Y30888733D01*
X40378463Y30944667D01*
X40373479Y31014359D01*
X40406964Y31075682D01*
X40420334Y31087267D01*
X40489191Y31138814D01*
X40575350Y31253907D01*
X40575354Y31253914D01*
X40625596Y31388621D01*
X40625598Y31388628D01*
X40631999Y31448156D01*
X40632000Y31448173D01*
X40632000Y31532976D01*
X40651685Y31600015D01*
X40704489Y31645770D01*
X40773647Y31655714D01*
X40837203Y31626689D01*
G37*
%TD.AperFunction*%
%TA.AperFunction,Conductor*%
G36*
X39546742Y31815212D02*
G01*
X39599857Y31769818D01*
X39619997Y31702914D01*
X39620000Y31702070D01*
X39620000Y30274066D01*
X39600315Y30207027D01*
X39547511Y30161272D01*
X39478353Y30151328D01*
X39459453Y30155574D01*
X39436998Y30162500D01*
X39336688Y30162500D01*
X39336680Y30162500D01*
X39262481Y30151316D01*
X39193256Y30160789D01*
X39140142Y30206184D01*
X39120003Y30273088D01*
X39120000Y30273931D01*
X39120000Y31701935D01*
X39139685Y31768974D01*
X39192489Y31814729D01*
X39261647Y31824673D01*
X39280542Y31820428D01*
X39303002Y31813500D01*
X39303004Y31813500D01*
X39403311Y31813500D01*
X39403312Y31813500D01*
X39477518Y31824685D01*
X39546742Y31815212D01*
G37*
%TD.AperFunction*%
%TA.AperFunction,Conductor*%
G36*
X24094539Y40940315D02*
G01*
X24140294Y40887511D01*
X24151500Y40836000D01*
X24151500Y40751346D01*
X24158011Y40690798D01*
X24158011Y40690796D01*
X24209110Y40553796D01*
X24209111Y40553796D01*
X24296739Y40436739D01*
X24413796Y40349111D01*
X24550799Y40298011D01*
X24578050Y40295082D01*
X24611345Y40291501D01*
X24611362Y40291500D01*
X28508638Y40291500D01*
X28508654Y40291501D01*
X28535692Y40294409D01*
X28569201Y40298011D01*
X28706204Y40349111D01*
X28823261Y40436739D01*
X28910889Y40553796D01*
X28961989Y40690799D01*
X28965591Y40724308D01*
X28968499Y40751346D01*
X28968500Y40751363D01*
X28968500Y40836000D01*
X28988185Y40903039D01*
X29040989Y40948794D01*
X29092500Y40960000D01*
X30027500Y40960000D01*
X30094539Y40940315D01*
X30140294Y40887511D01*
X30151500Y40836000D01*
X30151500Y40751346D01*
X30158011Y40690798D01*
X30158011Y40690796D01*
X30209110Y40553796D01*
X30209111Y40553796D01*
X30296739Y40436739D01*
X30413796Y40349111D01*
X30550799Y40298011D01*
X30578050Y40295082D01*
X30611345Y40291501D01*
X30611362Y40291500D01*
X34508638Y40291500D01*
X34508654Y40291501D01*
X34535692Y40294409D01*
X34569201Y40298011D01*
X34706204Y40349111D01*
X34823261Y40436739D01*
X34910889Y40553796D01*
X34961989Y40690799D01*
X34965591Y40724308D01*
X34968499Y40751346D01*
X34968500Y40751363D01*
X34968500Y40836000D01*
X34988185Y40903039D01*
X35040989Y40948794D01*
X35092500Y40960000D01*
X36027500Y40960000D01*
X36094539Y40940315D01*
X36140294Y40887511D01*
X36151500Y40836000D01*
X36151500Y40751346D01*
X36158011Y40690798D01*
X36158011Y40690796D01*
X36209110Y40553796D01*
X36209111Y40553796D01*
X36296739Y40436739D01*
X36413796Y40349111D01*
X36550799Y40298011D01*
X36578050Y40295082D01*
X36611345Y40291501D01*
X36611362Y40291500D01*
X40508638Y40291500D01*
X40508654Y40291501D01*
X40535692Y40294409D01*
X40569201Y40298011D01*
X40706204Y40349111D01*
X40823261Y40436739D01*
X40910889Y40553796D01*
X40961989Y40690799D01*
X40965591Y40724308D01*
X40968499Y40751346D01*
X40968500Y40751363D01*
X40968500Y40836000D01*
X40988185Y40903039D01*
X41040989Y40948794D01*
X41092500Y40960000D01*
X42027500Y40960000D01*
X42094539Y40940315D01*
X42140294Y40887511D01*
X42151500Y40836000D01*
X42151500Y40751346D01*
X42158011Y40690798D01*
X42158011Y40690796D01*
X42209110Y40553796D01*
X42209111Y40553796D01*
X42296739Y40436739D01*
X42413796Y40349111D01*
X42550799Y40298011D01*
X42578050Y40295082D01*
X42611345Y40291501D01*
X42611362Y40291500D01*
X46508638Y40291500D01*
X46508654Y40291501D01*
X46535692Y40294409D01*
X46569201Y40298011D01*
X46706204Y40349111D01*
X46823261Y40436739D01*
X46910889Y40553796D01*
X46961989Y40690799D01*
X46965591Y40724308D01*
X46968499Y40751346D01*
X46968500Y40751363D01*
X46968500Y40836000D01*
X46988185Y40903039D01*
X47040989Y40948794D01*
X47092500Y40960000D01*
X48027500Y40960000D01*
X48094539Y40940315D01*
X48140294Y40887511D01*
X48151500Y40836000D01*
X48151500Y40751346D01*
X48158011Y40690798D01*
X48158011Y40690796D01*
X48209110Y40553796D01*
X48209111Y40553796D01*
X48296739Y40436739D01*
X48413796Y40349111D01*
X48550799Y40298011D01*
X48578050Y40295082D01*
X48611345Y40291501D01*
X48611362Y40291500D01*
X50327500Y40291500D01*
X50394539Y40271815D01*
X50440294Y40219011D01*
X50451500Y40167500D01*
X50451500Y38632500D01*
X50431815Y38565461D01*
X50379011Y38519706D01*
X50327500Y38508500D01*
X45232391Y38508500D01*
X45216253Y38510282D01*
X45216232Y38510054D01*
X45208465Y38510789D01*
X45135658Y38508500D01*
X45104566Y38508500D01*
X45097172Y38507567D01*
X45091354Y38507109D01*
X45042173Y38505563D01*
X45042163Y38505561D01*
X45021422Y38499536D01*
X45002382Y38495593D01*
X44980946Y38492884D01*
X44980931Y38492881D01*
X44935178Y38474767D01*
X44929654Y38472876D01*
X44882402Y38459146D01*
X44882394Y38459143D01*
X44863803Y38448148D01*
X44846338Y38439592D01*
X44826247Y38431637D01*
X44826242Y38431634D01*
X44786427Y38402708D01*
X44781545Y38399501D01*
X44739190Y38374451D01*
X44723916Y38359177D01*
X44709128Y38346546D01*
X44691643Y38333842D01*
X44691640Y38333838D01*
X44660266Y38295916D01*
X44656334Y38291595D01*
X43873559Y37508819D01*
X43812236Y37475334D01*
X43785878Y37472500D01*
X43361345Y37472500D01*
X43300797Y37465989D01*
X43300795Y37465989D01*
X43163795Y37414889D01*
X43046739Y37327261D01*
X42959111Y37210205D01*
X42908011Y37073205D01*
X42908011Y37073203D01*
X42901500Y37012655D01*
X42901500Y36615356D01*
X42905596Y36577253D01*
X42905596Y36550750D01*
X42901500Y36512647D01*
X42901500Y36115356D01*
X42905596Y36077252D01*
X42905596Y36050748D01*
X42901500Y36012645D01*
X42901500Y35615346D01*
X42908011Y35554798D01*
X42908011Y35554796D01*
X42929967Y35495932D01*
X42959111Y35417796D01*
X42959112Y35417794D01*
X42959113Y35417793D01*
X42981184Y35388309D01*
X43005600Y35322844D01*
X42990747Y35254571D01*
X42981184Y35239691D01*
X42959113Y35210208D01*
X42959111Y35210205D01*
X42959111Y35210204D01*
X42955336Y35200085D01*
X42908011Y35073205D01*
X42908011Y35073203D01*
X42901500Y35012655D01*
X42901500Y34615346D01*
X42908010Y34554805D01*
X42908241Y34553828D01*
X42908260Y34552480D01*
X42908840Y34547087D01*
X42908337Y34547033D01*
X42909003Y34500238D01*
X42905814Y34484789D01*
X42899602Y34458576D01*
X42888498Y34411727D01*
X42887661Y34404559D01*
X42887577Y34404569D01*
X42886862Y34397565D01*
X42886947Y34397557D01*
X42886317Y34390368D01*
X42888500Y34315373D01*
X42888500Y33627546D01*
X42868815Y33560507D01*
X42852182Y33539866D01*
X42772970Y33460653D01*
X42772968Y33460650D01*
X42772541Y33459957D01*
X42772123Y33459582D01*
X42768489Y33454985D01*
X42767703Y33455607D01*
X42720591Y33413236D01*
X42651627Y33402017D01*
X42587547Y33429864D01*
X42569739Y33450422D01*
X42568798Y33449677D01*
X42564316Y33455345D01*
X42440345Y33579316D01*
X42291124Y33671357D01*
X42291119Y33671359D01*
X42124697Y33726506D01*
X42124690Y33726507D01*
X42021986Y33737000D01*
X41972000Y33737000D01*
X41972000Y32386000D01*
X41952315Y32318961D01*
X41899511Y32273206D01*
X41848000Y32262000D01*
X41596000Y32262000D01*
X41528961Y32281685D01*
X41483206Y32334489D01*
X41472000Y32386000D01*
X41472000Y33737000D01*
X41471999Y33737001D01*
X41422029Y33737000D01*
X41422011Y33736999D01*
X41319302Y33726506D01*
X41152880Y33671359D01*
X41152875Y33671357D01*
X41003654Y33579316D01*
X40879684Y33455346D01*
X40787643Y33306125D01*
X40787639Y33306116D01*
X40787074Y33304408D01*
X40786368Y33303390D01*
X40784592Y33299579D01*
X40783940Y33299883D01*
X40747301Y33246964D01*
X40682784Y33220142D01*
X40614009Y33232458D01*
X40570103Y33269103D01*
X40489190Y33377188D01*
X40489187Y33377191D01*
X40374093Y33463351D01*
X40374086Y33463355D01*
X40239379Y33513597D01*
X40239372Y33513599D01*
X40179844Y33520000D01*
X39620000Y33520000D01*
X39620000Y32814066D01*
X39600315Y32747027D01*
X39547511Y32701272D01*
X39478353Y32691328D01*
X39459453Y32695574D01*
X39436998Y32702500D01*
X39336688Y32702500D01*
X39336680Y32702500D01*
X39262481Y32691316D01*
X39193256Y32700789D01*
X39140142Y32746184D01*
X39120003Y32813088D01*
X39120000Y32813931D01*
X39120000Y33520000D01*
X38560155Y33520000D01*
X38500627Y33513599D01*
X38500620Y33513597D01*
X38365913Y33463355D01*
X38365906Y33463351D01*
X38250812Y33377191D01*
X38204574Y33315425D01*
X38148640Y33273555D01*
X38078948Y33268571D01*
X38017625Y33302057D01*
X38006046Y33315420D01*
X37955261Y33383261D01*
X37865545Y33450422D01*
X37838206Y33470888D01*
X37838204Y33470889D01*
X37813597Y33480067D01*
X37757667Y33521937D01*
X37733250Y33587401D01*
X37748102Y33655674D01*
X37769250Y33683925D01*
X38433953Y34348629D01*
X38495274Y34382112D01*
X38564965Y34377128D01*
X38620898Y34335258D01*
X38646739Y34300739D01*
X38763796Y34213111D01*
X38870581Y34173282D01*
X38894951Y34164192D01*
X38900799Y34162011D01*
X38928050Y34159082D01*
X38961345Y34155501D01*
X38961362Y34155500D01*
X39219133Y34155500D01*
X39286172Y34135815D01*
X39298833Y34126494D01*
X39304191Y34121998D01*
X39446629Y34050464D01*
X39457423Y34045043D01*
X39624265Y34005500D01*
X39624266Y34005500D01*
X41026531Y34005500D01*
X41044500Y34004191D01*
X41049571Y34003449D01*
X41067522Y34000819D01*
X41118332Y34005265D01*
X41123733Y34005500D01*
X41131715Y34005500D01*
X41131718Y34005500D01*
X41157807Y34008551D01*
X41163537Y34009220D01*
X41186674Y34011244D01*
X41238336Y34015763D01*
X41238344Y34015766D01*
X41245411Y34017224D01*
X41245428Y34017140D01*
X41252305Y34018665D01*
X41252285Y34018749D01*
X41259301Y34020413D01*
X41259308Y34020413D01*
X41274875Y34026080D01*
X41329845Y34046087D01*
X41358498Y34055583D01*
X41401101Y34069699D01*
X41401110Y34069705D01*
X41407650Y34072754D01*
X41407687Y34072674D01*
X41414019Y34075739D01*
X41413980Y34075817D01*
X41420432Y34079057D01*
X41483135Y34120298D01*
X41493171Y34126488D01*
X41547040Y34159714D01*
X41547044Y34159719D01*
X41552703Y34164192D01*
X41552756Y34164125D01*
X41558211Y34168569D01*
X41558156Y34168635D01*
X41563692Y34173281D01*
X41563691Y34173281D01*
X41563694Y34173282D01*
X41615178Y34227853D01*
X41767855Y34380531D01*
X41829175Y34414013D01*
X41829373Y34414057D01*
X41938288Y34437206D01*
X42112752Y34514882D01*
X42267253Y34627134D01*
X42395040Y34769056D01*
X42490527Y34934444D01*
X42549542Y35116072D01*
X42569504Y35306000D01*
X42549542Y35495928D01*
X42490527Y35677556D01*
X42395040Y35842944D01*
X42267253Y35984866D01*
X42112752Y36097118D01*
X41938288Y36174794D01*
X41938286Y36174795D01*
X41751487Y36214500D01*
X41560513Y36214500D01*
X41373714Y36174795D01*
X41199243Y36097116D01*
X41106885Y36030013D01*
X41041079Y36006533D01*
X40973025Y36022359D01*
X40924330Y36072464D01*
X40910000Y36130331D01*
X40910000Y36164001D01*
X40887711Y36186289D01*
X40858280Y36213689D01*
X40819353Y36265689D01*
X40794936Y36331154D01*
X40809788Y36399426D01*
X40859193Y36448832D01*
X40907045Y36461046D01*
X40910000Y36464000D01*
X40910000Y36511828D01*
X40909999Y36511845D01*
X40903598Y36571373D01*
X40903596Y36571380D01*
X40853354Y36706087D01*
X40853350Y36706094D01*
X40767190Y36821188D01*
X40659048Y36902144D01*
X40617178Y36958078D01*
X40612587Y36977953D01*
X40611689Y36977774D01*
X40598868Y37042230D01*
X40598867Y37042231D01*
X40554552Y37108553D01*
X40488230Y37152868D01*
X40488229Y37152869D01*
X40429752Y37164500D01*
X40429748Y37164500D01*
X38990252Y37164500D01*
X38990247Y37164500D01*
X38931770Y37152869D01*
X38931769Y37152868D01*
X38865447Y37108553D01*
X38821132Y37042231D01*
X38821131Y37042230D01*
X38808311Y36977774D01*
X38805635Y36978307D01*
X38783835Y36924410D01*
X38760951Y36902144D01*
X38652809Y36821188D01*
X38566649Y36706094D01*
X38566645Y36706087D01*
X38516403Y36571380D01*
X38516401Y36571373D01*
X38510000Y36511845D01*
X38510000Y36464000D01*
X38513583Y36460417D01*
X38568419Y36444315D01*
X38614174Y36391511D01*
X38624118Y36322353D01*
X38600647Y36265689D01*
X38561720Y36213689D01*
X38545266Y36201372D01*
X38546319Y36200319D01*
X38508367Y36162368D01*
X38490315Y36100887D01*
X38437511Y36055132D01*
X38382384Y36043979D01*
X38371587Y36044294D01*
X38305150Y36065925D01*
X38266059Y36109390D01*
X38196939Y36237583D01*
X38117132Y36327261D01*
X38082950Y36365671D01*
X38082949Y36365672D01*
X38082947Y36365674D01*
X37942490Y36464023D01*
X37942487Y36464025D01*
X37942486Y36464025D01*
X37942482Y36464027D01*
X37783140Y36527330D01*
X37613472Y36552182D01*
X37442665Y36537238D01*
X37279902Y36483303D01*
X37279897Y36483301D01*
X37133958Y36393285D01*
X35339507Y34598835D01*
X35325880Y34587057D01*
X35307213Y34573159D01*
X35274435Y34534097D01*
X35270787Y34530115D01*
X35265135Y34524463D01*
X35245246Y34499310D01*
X35196997Y34441810D01*
X35193030Y34435776D01*
X35192960Y34435822D01*
X35184329Y34422269D01*
X35183208Y34420850D01*
X35126204Y34380448D01*
X35056407Y34377277D01*
X35042572Y34381536D01*
X34950203Y34415989D01*
X34889654Y34422500D01*
X34889638Y34422500D01*
X34698500Y34422500D01*
X34631461Y34442185D01*
X34585706Y34494989D01*
X34574500Y34546500D01*
X34574500Y34610703D01*
X34594185Y34677742D01*
X34646989Y34723497D01*
X34659492Y34728408D01*
X34796738Y34773885D01*
X34947652Y34866970D01*
X35073030Y34992348D01*
X35166115Y35143262D01*
X35221887Y35311574D01*
X35232500Y35415455D01*
X35232499Y36466544D01*
X35221887Y36570426D01*
X35166115Y36738738D01*
X35073030Y36889652D01*
X34947652Y37015030D01*
X34796738Y37108115D01*
X34795416Y37108553D01*
X34628427Y37163887D01*
X34524552Y37174500D01*
X34524545Y37174500D01*
X34141625Y37174500D01*
X34074586Y37194185D01*
X34053944Y37210819D01*
X32641768Y38622995D01*
X32629987Y38636628D01*
X32616097Y38655285D01*
X32577025Y38688071D01*
X32573041Y38691722D01*
X32567395Y38697368D01*
X32567394Y38697369D01*
X32542246Y38717254D01*
X32484746Y38765502D01*
X32484745Y38765503D01*
X32478712Y38769470D01*
X32478758Y38769542D01*
X32472818Y38773326D01*
X32472774Y38773253D01*
X32466627Y38777045D01*
X32398584Y38808774D01*
X32331513Y38842458D01*
X32324726Y38844928D01*
X32324754Y38845008D01*
X32318103Y38847320D01*
X32318077Y38847239D01*
X32311224Y38849510D01*
X32284037Y38855124D01*
X32237725Y38864686D01*
X32189850Y38876033D01*
X32164669Y38882001D01*
X32157497Y38882839D01*
X32157506Y38882923D01*
X32150501Y38883639D01*
X32150494Y38883553D01*
X32143304Y38884183D01*
X32068309Y38882000D01*
X29141413Y38882000D01*
X29074374Y38901685D01*
X29028619Y38954489D01*
X29022337Y38971405D01*
X29015393Y38995305D01*
X29014145Y38999601D01*
X28929453Y39142807D01*
X28929451Y39142809D01*
X28929448Y39142813D01*
X28811812Y39260449D01*
X28811803Y39260456D01*
X28668601Y39345145D01*
X28668596Y39345147D01*
X28508835Y39391562D01*
X28508829Y39391563D01*
X28471505Y39394500D01*
X28471502Y39394500D01*
X28038498Y39394500D01*
X28038495Y39394500D01*
X28001170Y39391563D01*
X28001164Y39391562D01*
X27841403Y39345147D01*
X27841398Y39345145D01*
X27698196Y39260456D01*
X27698187Y39260449D01*
X27580551Y39142813D01*
X27580544Y39142804D01*
X27495855Y38999602D01*
X27495853Y38999597D01*
X27449438Y38839836D01*
X27449437Y38839830D01*
X27446500Y38802505D01*
X27446500Y38336389D01*
X27426815Y38269350D01*
X27374011Y38223595D01*
X27304853Y38213651D01*
X27241297Y38242676D01*
X27203523Y38301454D01*
X27203020Y38303215D01*
X27168020Y38429272D01*
X27163500Y38462446D01*
X27163500Y38802505D01*
X27160562Y38839830D01*
X27160561Y38839836D01*
X27115393Y38995305D01*
X27114145Y38999601D01*
X27029453Y39142807D01*
X27029451Y39142809D01*
X27029448Y39142813D01*
X26911812Y39260449D01*
X26911803Y39260456D01*
X26768601Y39345145D01*
X26768596Y39345147D01*
X26608835Y39391562D01*
X26608829Y39391563D01*
X26571505Y39394500D01*
X26571502Y39394500D01*
X26138498Y39394500D01*
X26138495Y39394500D01*
X26101170Y39391563D01*
X26101164Y39391562D01*
X25941403Y39345147D01*
X25941398Y39345145D01*
X25798196Y39260456D01*
X25798187Y39260449D01*
X25680551Y39142813D01*
X25680545Y39142805D01*
X25636235Y39067879D01*
X25585166Y39020196D01*
X25529503Y39007000D01*
X25245731Y39007000D01*
X25180634Y39025461D01*
X25054738Y39103115D01*
X25054729Y39103118D01*
X24886427Y39158887D01*
X24782546Y39169500D01*
X23731462Y39169500D01*
X23731446Y39169499D01*
X23627571Y39158887D01*
X23459266Y39103118D01*
X23353631Y39037961D01*
X23288534Y39019500D01*
X22704410Y39019500D01*
X22699376Y39019705D01*
X22643618Y39024246D01*
X22562620Y39013210D01*
X22522660Y39008864D01*
X22515951Y39008500D01*
X22510508Y39008500D01*
X22504354Y39007192D01*
X22498175Y39006202D01*
X22481361Y39004373D01*
X22481175Y39004332D01*
X22458748Y38999076D01*
X22458585Y38999035D01*
X22456728Y38998353D01*
X22439772Y38993465D01*
X22323712Y38968795D01*
X22149244Y38891116D01*
X21994745Y38778865D01*
X21866959Y38636943D01*
X21771473Y38471557D01*
X21771470Y38471550D01*
X21712459Y38289932D01*
X21712458Y38289928D01*
X21692496Y38100000D01*
X21712458Y37910072D01*
X21712459Y37910069D01*
X21771470Y37728451D01*
X21771473Y37728444D01*
X21866960Y37563056D01*
X21994747Y37421134D01*
X22149248Y37308882D01*
X22323712Y37231206D01*
X22510513Y37191500D01*
X22701487Y37191500D01*
X22888288Y37231206D01*
X23024340Y37291781D01*
X23074775Y37302500D01*
X23213477Y37302500D01*
X23280516Y37282815D01*
X23326271Y37230011D01*
X23336215Y37160853D01*
X23307190Y37097297D01*
X23301158Y37090819D01*
X23189684Y36979346D01*
X23097643Y36830125D01*
X23097641Y36830120D01*
X23042494Y36663698D01*
X23042493Y36663691D01*
X23032000Y36560987D01*
X23032000Y36511000D01*
X25481999Y36511000D01*
X25481999Y36560972D01*
X25481998Y36560987D01*
X25471505Y36663698D01*
X25416358Y36830120D01*
X25416356Y36830125D01*
X25324315Y36979346D01*
X25225342Y37078319D01*
X25191857Y37139642D01*
X25196841Y37209334D01*
X25238713Y37265267D01*
X25304177Y37289684D01*
X25313023Y37290000D01*
X25529503Y37290000D01*
X25596542Y37270315D01*
X25636234Y37229122D01*
X25647422Y37210205D01*
X25680545Y37154196D01*
X25680551Y37154188D01*
X25798187Y37036552D01*
X25798191Y37036549D01*
X25798193Y37036547D01*
X25941399Y36951855D01*
X25983530Y36939615D01*
X26101164Y36905439D01*
X26101167Y36905439D01*
X26101169Y36905438D01*
X26110501Y36904704D01*
X26138495Y36902500D01*
X26381000Y36902500D01*
X26448039Y36882815D01*
X26493794Y36830011D01*
X26505000Y36778500D01*
X26505000Y36523500D01*
X27055000Y36523500D01*
X27055000Y37163469D01*
X27072266Y37226588D01*
X27114145Y37297399D01*
X27160562Y37457169D01*
X27163500Y37494498D01*
X27163500Y37834488D01*
X27172307Y37880384D01*
X27187085Y37917473D01*
X27187086Y37917478D01*
X27200134Y37997063D01*
X27230405Y38060035D01*
X27289915Y38096644D01*
X27359772Y38095268D01*
X27417794Y38056343D01*
X27445562Y37992228D01*
X27446500Y37977002D01*
X27446500Y37494495D01*
X27449437Y37457171D01*
X27449438Y37457165D01*
X27495853Y37297404D01*
X27495853Y37297403D01*
X27495854Y37297401D01*
X27495855Y37297399D01*
X27537733Y37226588D01*
X27555000Y37163469D01*
X27555000Y36523500D01*
X28105000Y36523500D01*
X28105000Y36778500D01*
X28124685Y36845539D01*
X28177489Y36891294D01*
X28229000Y36902500D01*
X28471505Y36902500D01*
X28493899Y36904263D01*
X28508831Y36905438D01*
X28508833Y36905439D01*
X28508835Y36905439D01*
X28550962Y36917679D01*
X28668601Y36951855D01*
X28811807Y37036547D01*
X28929453Y37154193D01*
X29014145Y37297399D01*
X29022337Y37325595D01*
X29059943Y37384481D01*
X29123415Y37413687D01*
X29141413Y37415000D01*
X31723749Y37415000D01*
X31790788Y37395315D01*
X31811430Y37378681D01*
X31864252Y37325859D01*
X31897737Y37264536D01*
X31892753Y37194844D01*
X31850881Y37138911D01*
X31815577Y37120473D01*
X31754884Y37100361D01*
X31754875Y37100357D01*
X31605654Y37008316D01*
X31481684Y36884346D01*
X31389643Y36735125D01*
X31389641Y36735120D01*
X31334494Y36568698D01*
X31334493Y36568691D01*
X31324000Y36465987D01*
X31324000Y36191000D01*
X32450000Y36191000D01*
X32517039Y36171315D01*
X32562794Y36118511D01*
X32574000Y36067000D01*
X32574000Y34716001D01*
X32623972Y34716001D01*
X32623986Y34716002D01*
X32726697Y34726495D01*
X32893119Y34781642D01*
X32893124Y34781644D01*
X32918403Y34797236D01*
X32985795Y34815676D01*
X33052459Y34794754D01*
X33097229Y34741112D01*
X33107500Y34691697D01*
X33107500Y34546500D01*
X33087815Y34479461D01*
X33035011Y34433706D01*
X32983500Y34422500D01*
X32792345Y34422500D01*
X32731797Y34415989D01*
X32731795Y34415989D01*
X32594795Y34364889D01*
X32477739Y34277261D01*
X32390111Y34160205D01*
X32339011Y34023205D01*
X32339011Y34023203D01*
X32332500Y33962655D01*
X32332500Y33239190D01*
X32312815Y33172151D01*
X32296181Y33151509D01*
X32127126Y32982454D01*
X32065803Y32948969D01*
X31996111Y32953953D01*
X31940178Y32995825D01*
X31916155Y33056884D01*
X31914597Y33071380D01*
X31914436Y33072061D01*
X31914465Y33072607D01*
X31913768Y33079093D01*
X31914818Y33079206D01*
X31918173Y33141831D01*
X31918931Y33143920D01*
X31922989Y33154799D01*
X31926827Y33190499D01*
X31929499Y33215346D01*
X31929500Y33215363D01*
X31929500Y33962638D01*
X31929499Y33962655D01*
X31925499Y33999853D01*
X31922989Y34023201D01*
X31914842Y34045043D01*
X31886139Y34121999D01*
X31871889Y34160204D01*
X31784261Y34277261D01*
X31667204Y34364889D01*
X31667203Y34364890D01*
X31530203Y34415989D01*
X31469654Y34422500D01*
X31469638Y34422500D01*
X29372362Y34422500D01*
X29372345Y34422500D01*
X29311797Y34415989D01*
X29311795Y34415989D01*
X29174793Y34364889D01*
X29174792Y34364888D01*
X29151211Y34347234D01*
X29085747Y34322816D01*
X29076900Y34322500D01*
X29005544Y34322500D01*
X28938505Y34342185D01*
X28917863Y34358819D01*
X28863653Y34413029D01*
X28863652Y34413030D01*
X28723771Y34499310D01*
X28712740Y34506114D01*
X28712735Y34506116D01*
X28544427Y34561887D01*
X28440546Y34572500D01*
X27439462Y34572500D01*
X27439446Y34572499D01*
X27335572Y34561887D01*
X27167264Y34506116D01*
X27167259Y34506114D01*
X27016346Y34413029D01*
X26890971Y34287654D01*
X26890969Y34287652D01*
X26890970Y34287652D01*
X26812058Y34159715D01*
X26797884Y34136736D01*
X26793001Y34121999D01*
X26786969Y34103793D01*
X26783226Y34092498D01*
X26743454Y34035052D01*
X26678939Y34008228D01*
X26665519Y34007500D01*
X25677142Y34007500D01*
X25673542Y34007605D01*
X25641196Y34009489D01*
X25611063Y34011244D01*
X25611062Y34011244D01*
X25611060Y34011244D01*
X25571059Y34004191D01*
X25549415Y34000375D01*
X25545848Y33999853D01*
X25483691Y33992588D01*
X25473616Y33988921D01*
X25452757Y33983332D01*
X25442200Y33981470D01*
X25442193Y33981468D01*
X25384718Y33956675D01*
X25381367Y33955344D01*
X25322569Y33933944D01*
X25322560Y33933939D01*
X25313610Y33928053D01*
X25294607Y33917806D01*
X25284758Y33913557D01*
X25284747Y33913551D01*
X25234542Y33876174D01*
X25231589Y33874106D01*
X25179303Y33839716D01*
X25179300Y33839714D01*
X25171954Y33831927D01*
X25155818Y33817566D01*
X25147216Y33811162D01*
X25147216Y33811161D01*
X25106967Y33763198D01*
X25104570Y33760504D01*
X25076489Y33730740D01*
X25025299Y33698128D01*
X24856264Y33642116D01*
X24856259Y33642114D01*
X24705349Y33549031D01*
X24579970Y33423653D01*
X24569275Y33406315D01*
X24523684Y33364537D01*
X24524098Y33363908D01*
X24520203Y33361347D01*
X24519405Y33360615D01*
X24518074Y33359947D01*
X24455363Y33318703D01*
X24391466Y33279291D01*
X24385798Y33274809D01*
X24385746Y33274875D01*
X24380284Y33270426D01*
X24380339Y33270361D01*
X24374808Y33265721D01*
X24323321Y33211148D01*
X23725991Y32613819D01*
X23664668Y32580334D01*
X23638310Y32577500D01*
X23205462Y32577500D01*
X23205446Y32577499D01*
X23101572Y32566887D01*
X22933264Y32511116D01*
X22933259Y32511114D01*
X22782346Y32418029D01*
X22693681Y32329363D01*
X22632358Y32295878D01*
X22562666Y32300862D01*
X22518319Y32329363D01*
X22429653Y32418029D01*
X22429652Y32418030D01*
X22278738Y32511115D01*
X22244380Y32522500D01*
X22110427Y32566887D01*
X22006546Y32577500D01*
X21380462Y32577500D01*
X21380446Y32577499D01*
X21276572Y32566887D01*
X21108264Y32511116D01*
X21108259Y32511114D01*
X20957349Y32418031D01*
X20878233Y32338915D01*
X20816909Y32305431D01*
X20747218Y32310415D01*
X20691284Y32352287D01*
X20666868Y32417752D01*
X20667263Y32439856D01*
X20668499Y32451354D01*
X20668500Y32451363D01*
X20668500Y36011000D01*
X23032001Y36011000D01*
X23032001Y35961014D01*
X23042494Y35858303D01*
X23097641Y35691881D01*
X23097643Y35691876D01*
X23189684Y35542655D01*
X23313654Y35418685D01*
X23462875Y35326644D01*
X23462880Y35326642D01*
X23629302Y35271495D01*
X23629309Y35271494D01*
X23732019Y35261001D01*
X24006999Y35261001D01*
X24007000Y35261002D01*
X24007000Y36011000D01*
X24507000Y36011000D01*
X24507000Y35261001D01*
X24781972Y35261001D01*
X24781986Y35261002D01*
X24884697Y35271495D01*
X25051119Y35326642D01*
X25051124Y35326644D01*
X25200345Y35418685D01*
X25324315Y35542655D01*
X25416356Y35691876D01*
X25416358Y35691881D01*
X25471505Y35858303D01*
X25471506Y35858310D01*
X25481999Y35961014D01*
X25482000Y35961027D01*
X25482000Y36011000D01*
X24507000Y36011000D01*
X24007000Y36011000D01*
X23032001Y36011000D01*
X20668500Y36011000D01*
X20668500Y36023500D01*
X26505000Y36023500D01*
X26505000Y35620356D01*
X26507899Y35583511D01*
X26507900Y35583505D01*
X26553716Y35425807D01*
X26553717Y35425804D01*
X26637314Y35284448D01*
X26637321Y35284439D01*
X26753438Y35168322D01*
X26753447Y35168315D01*
X26894801Y35084719D01*
X27052514Y35038900D01*
X27052511Y35038900D01*
X27054998Y35038705D01*
X27055000Y35038705D01*
X27055000Y36023500D01*
X27555000Y36023500D01*
X27555000Y35038706D01*
X27555001Y35038705D01*
X27557486Y35038900D01*
X27715198Y35084719D01*
X27856552Y35168315D01*
X27856561Y35168322D01*
X27972678Y35284439D01*
X27972685Y35284448D01*
X28056282Y35425804D01*
X28056283Y35425807D01*
X28102099Y35583505D01*
X28102100Y35583511D01*
X28105000Y35620356D01*
X28105000Y35691000D01*
X31324001Y35691000D01*
X31324001Y35416014D01*
X31334494Y35313303D01*
X31389641Y35146881D01*
X31389643Y35146876D01*
X31481684Y34997655D01*
X31605654Y34873685D01*
X31754875Y34781644D01*
X31754880Y34781642D01*
X31921302Y34726495D01*
X31921309Y34726494D01*
X32024019Y34716001D01*
X32073999Y34716002D01*
X32074000Y34716002D01*
X32074000Y35691000D01*
X31324001Y35691000D01*
X28105000Y35691000D01*
X28105000Y36023500D01*
X27555000Y36023500D01*
X27055000Y36023500D01*
X26505000Y36023500D01*
X20668500Y36023500D01*
X20668500Y36348638D01*
X20668499Y36348655D01*
X20663700Y36393286D01*
X20661989Y36409201D01*
X20659867Y36414889D01*
X20634350Y36483303D01*
X20610889Y36546204D01*
X20523261Y36663261D01*
X20427269Y36735120D01*
X20406206Y36750888D01*
X20406204Y36750889D01*
X20320663Y36782795D01*
X20264732Y36824665D01*
X20240315Y36890130D01*
X20240000Y36898948D01*
X20240000Y37901029D01*
X20259684Y37968064D01*
X20312488Y38013819D01*
X20320647Y38017200D01*
X20406204Y38049111D01*
X20523261Y38136739D01*
X20610889Y38253796D01*
X20661989Y38390799D01*
X20666379Y38431635D01*
X20668499Y38451346D01*
X20668500Y38451363D01*
X20668500Y40167500D01*
X20688185Y40234539D01*
X20740989Y40280294D01*
X20792500Y40291500D01*
X22508638Y40291500D01*
X22508654Y40291501D01*
X22535692Y40294409D01*
X22569201Y40298011D01*
X22706204Y40349111D01*
X22823261Y40436739D01*
X22910889Y40553796D01*
X22961989Y40690799D01*
X22965591Y40724308D01*
X22968499Y40751346D01*
X22968500Y40751363D01*
X22968500Y40836000D01*
X22988185Y40903039D01*
X23040989Y40948794D01*
X23092500Y40960000D01*
X24027500Y40960000D01*
X24094539Y40940315D01*
G37*
%TD.AperFunction*%
%TD*%
M02*
