%TF.GenerationSoftware,KiCad,Pcbnew,7.0.7-7.0.7~ubuntu23.04.1*%
%TF.CreationDate,2023-09-26T14:19:23+00:00*%
%TF.ProjectId,PCRD07,50435244-3037-42e6-9b69-6361645f7063,REV*%
%TF.SameCoordinates,PX6bb53e0PY7c5bf00*%
%TF.FileFunction,Legend,Bot*%
%TF.FilePolarity,Positive*%
%FSLAX46Y46*%
G04 Gerber Fmt 4.6, Leading zero omitted, Abs format (unit mm)*
G04 Created by KiCad (PCBNEW 7.0.7-7.0.7~ubuntu23.04.1) date 2023-09-26 14:19:23*
%MOMM*%
%LPD*%
G01*
G04 APERTURE LIST*
%ADD10C,0.150000*%
%ADD11C,0.120000*%
G04 APERTURE END LIST*
D10*
X24899580Y20994667D02*
X24947200Y21042286D01*
X24947200Y21042286D02*
X24994819Y21185143D01*
X24994819Y21185143D02*
X24994819Y21280381D01*
X24994819Y21280381D02*
X24947200Y21423238D01*
X24947200Y21423238D02*
X24851961Y21518476D01*
X24851961Y21518476D02*
X24756723Y21566095D01*
X24756723Y21566095D02*
X24566247Y21613714D01*
X24566247Y21613714D02*
X24423390Y21613714D01*
X24423390Y21613714D02*
X24232914Y21566095D01*
X24232914Y21566095D02*
X24137676Y21518476D01*
X24137676Y21518476D02*
X24042438Y21423238D01*
X24042438Y21423238D02*
X23994819Y21280381D01*
X23994819Y21280381D02*
X23994819Y21185143D01*
X23994819Y21185143D02*
X24042438Y21042286D01*
X24042438Y21042286D02*
X24090057Y20994667D01*
X24090057Y20613714D02*
X24042438Y20566095D01*
X24042438Y20566095D02*
X23994819Y20470857D01*
X23994819Y20470857D02*
X23994819Y20232762D01*
X23994819Y20232762D02*
X24042438Y20137524D01*
X24042438Y20137524D02*
X24090057Y20089905D01*
X24090057Y20089905D02*
X24185295Y20042286D01*
X24185295Y20042286D02*
X24280533Y20042286D01*
X24280533Y20042286D02*
X24423390Y20089905D01*
X24423390Y20089905D02*
X24994819Y20661333D01*
X24994819Y20661333D02*
X24994819Y20042286D01*
X38482819Y21302905D02*
X39292342Y21302905D01*
X39292342Y21302905D02*
X39387580Y21255286D01*
X39387580Y21255286D02*
X39435200Y21207667D01*
X39435200Y21207667D02*
X39482819Y21112429D01*
X39482819Y21112429D02*
X39482819Y20921953D01*
X39482819Y20921953D02*
X39435200Y20826715D01*
X39435200Y20826715D02*
X39387580Y20779096D01*
X39387580Y20779096D02*
X39292342Y20731477D01*
X39292342Y20731477D02*
X38482819Y20731477D01*
X38578057Y20302905D02*
X38530438Y20255286D01*
X38530438Y20255286D02*
X38482819Y20160048D01*
X38482819Y20160048D02*
X38482819Y19921953D01*
X38482819Y19921953D02*
X38530438Y19826715D01*
X38530438Y19826715D02*
X38578057Y19779096D01*
X38578057Y19779096D02*
X38673295Y19731477D01*
X38673295Y19731477D02*
X38768533Y19731477D01*
X38768533Y19731477D02*
X38911390Y19779096D01*
X38911390Y19779096D02*
X39482819Y20350524D01*
X39482819Y20350524D02*
X39482819Y19731477D01*
X65393580Y28106667D02*
X65441200Y28154286D01*
X65441200Y28154286D02*
X65488819Y28297143D01*
X65488819Y28297143D02*
X65488819Y28392381D01*
X65488819Y28392381D02*
X65441200Y28535238D01*
X65441200Y28535238D02*
X65345961Y28630476D01*
X65345961Y28630476D02*
X65250723Y28678095D01*
X65250723Y28678095D02*
X65060247Y28725714D01*
X65060247Y28725714D02*
X64917390Y28725714D01*
X64917390Y28725714D02*
X64726914Y28678095D01*
X64726914Y28678095D02*
X64631676Y28630476D01*
X64631676Y28630476D02*
X64536438Y28535238D01*
X64536438Y28535238D02*
X64488819Y28392381D01*
X64488819Y28392381D02*
X64488819Y28297143D01*
X64488819Y28297143D02*
X64536438Y28154286D01*
X64536438Y28154286D02*
X64584057Y28106667D01*
X65488819Y27154286D02*
X65488819Y27725714D01*
X65488819Y27440000D02*
X64488819Y27440000D01*
X64488819Y27440000D02*
X64631676Y27535238D01*
X64631676Y27535238D02*
X64726914Y27630476D01*
X64726914Y27630476D02*
X64774533Y27725714D01*
X56046666Y15486420D02*
X56094285Y15438800D01*
X56094285Y15438800D02*
X56237142Y15391181D01*
X56237142Y15391181D02*
X56332380Y15391181D01*
X56332380Y15391181D02*
X56475237Y15438800D01*
X56475237Y15438800D02*
X56570475Y15534039D01*
X56570475Y15534039D02*
X56618094Y15629277D01*
X56618094Y15629277D02*
X56665713Y15819753D01*
X56665713Y15819753D02*
X56665713Y15962610D01*
X56665713Y15962610D02*
X56618094Y16153086D01*
X56618094Y16153086D02*
X56570475Y16248324D01*
X56570475Y16248324D02*
X56475237Y16343562D01*
X56475237Y16343562D02*
X56332380Y16391181D01*
X56332380Y16391181D02*
X56237142Y16391181D01*
X56237142Y16391181D02*
X56094285Y16343562D01*
X56094285Y16343562D02*
X56046666Y16295943D01*
X55189523Y16057848D02*
X55189523Y15391181D01*
X55427618Y16438800D02*
X55665713Y15724515D01*
X55665713Y15724515D02*
X55046666Y15724515D01*
X45171580Y20740667D02*
X45219200Y20788286D01*
X45219200Y20788286D02*
X45266819Y20931143D01*
X45266819Y20931143D02*
X45266819Y21026381D01*
X45266819Y21026381D02*
X45219200Y21169238D01*
X45219200Y21169238D02*
X45123961Y21264476D01*
X45123961Y21264476D02*
X45028723Y21312095D01*
X45028723Y21312095D02*
X44838247Y21359714D01*
X44838247Y21359714D02*
X44695390Y21359714D01*
X44695390Y21359714D02*
X44504914Y21312095D01*
X44504914Y21312095D02*
X44409676Y21264476D01*
X44409676Y21264476D02*
X44314438Y21169238D01*
X44314438Y21169238D02*
X44266819Y21026381D01*
X44266819Y21026381D02*
X44266819Y20931143D01*
X44266819Y20931143D02*
X44314438Y20788286D01*
X44314438Y20788286D02*
X44362057Y20740667D01*
X44266819Y20407333D02*
X44266819Y19740667D01*
X44266819Y19740667D02*
X45266819Y20169238D01*
X27693580Y31916667D02*
X27741200Y31964286D01*
X27741200Y31964286D02*
X27788819Y32107143D01*
X27788819Y32107143D02*
X27788819Y32202381D01*
X27788819Y32202381D02*
X27741200Y32345238D01*
X27741200Y32345238D02*
X27645961Y32440476D01*
X27645961Y32440476D02*
X27550723Y32488095D01*
X27550723Y32488095D02*
X27360247Y32535714D01*
X27360247Y32535714D02*
X27217390Y32535714D01*
X27217390Y32535714D02*
X27026914Y32488095D01*
X27026914Y32488095D02*
X26931676Y32440476D01*
X26931676Y32440476D02*
X26836438Y32345238D01*
X26836438Y32345238D02*
X26788819Y32202381D01*
X26788819Y32202381D02*
X26788819Y32107143D01*
X26788819Y32107143D02*
X26836438Y31964286D01*
X26836438Y31964286D02*
X26884057Y31916667D01*
X27217390Y31345238D02*
X27169771Y31440476D01*
X27169771Y31440476D02*
X27122152Y31488095D01*
X27122152Y31488095D02*
X27026914Y31535714D01*
X27026914Y31535714D02*
X26979295Y31535714D01*
X26979295Y31535714D02*
X26884057Y31488095D01*
X26884057Y31488095D02*
X26836438Y31440476D01*
X26836438Y31440476D02*
X26788819Y31345238D01*
X26788819Y31345238D02*
X26788819Y31154762D01*
X26788819Y31154762D02*
X26836438Y31059524D01*
X26836438Y31059524D02*
X26884057Y31011905D01*
X26884057Y31011905D02*
X26979295Y30964286D01*
X26979295Y30964286D02*
X27026914Y30964286D01*
X27026914Y30964286D02*
X27122152Y31011905D01*
X27122152Y31011905D02*
X27169771Y31059524D01*
X27169771Y31059524D02*
X27217390Y31154762D01*
X27217390Y31154762D02*
X27217390Y31345238D01*
X27217390Y31345238D02*
X27265009Y31440476D01*
X27265009Y31440476D02*
X27312628Y31488095D01*
X27312628Y31488095D02*
X27407866Y31535714D01*
X27407866Y31535714D02*
X27598342Y31535714D01*
X27598342Y31535714D02*
X27693580Y31488095D01*
X27693580Y31488095D02*
X27741200Y31440476D01*
X27741200Y31440476D02*
X27788819Y31345238D01*
X27788819Y31345238D02*
X27788819Y31154762D01*
X27788819Y31154762D02*
X27741200Y31059524D01*
X27741200Y31059524D02*
X27693580Y31011905D01*
X27693580Y31011905D02*
X27598342Y30964286D01*
X27598342Y30964286D02*
X27407866Y30964286D01*
X27407866Y30964286D02*
X27312628Y31011905D01*
X27312628Y31011905D02*
X27265009Y31059524D01*
X27265009Y31059524D02*
X27217390Y31154762D01*
X33440666Y37261420D02*
X33488285Y37213800D01*
X33488285Y37213800D02*
X33631142Y37166181D01*
X33631142Y37166181D02*
X33726380Y37166181D01*
X33726380Y37166181D02*
X33869237Y37213800D01*
X33869237Y37213800D02*
X33964475Y37309039D01*
X33964475Y37309039D02*
X34012094Y37404277D01*
X34012094Y37404277D02*
X34059713Y37594753D01*
X34059713Y37594753D02*
X34059713Y37737610D01*
X34059713Y37737610D02*
X34012094Y37928086D01*
X34012094Y37928086D02*
X33964475Y38023324D01*
X33964475Y38023324D02*
X33869237Y38118562D01*
X33869237Y38118562D02*
X33726380Y38166181D01*
X33726380Y38166181D02*
X33631142Y38166181D01*
X33631142Y38166181D02*
X33488285Y38118562D01*
X33488285Y38118562D02*
X33440666Y38070943D01*
X32964475Y37166181D02*
X32773999Y37166181D01*
X32773999Y37166181D02*
X32678761Y37213800D01*
X32678761Y37213800D02*
X32631142Y37261420D01*
X32631142Y37261420D02*
X32535904Y37404277D01*
X32535904Y37404277D02*
X32488285Y37594753D01*
X32488285Y37594753D02*
X32488285Y37975705D01*
X32488285Y37975705D02*
X32535904Y38070943D01*
X32535904Y38070943D02*
X32583523Y38118562D01*
X32583523Y38118562D02*
X32678761Y38166181D01*
X32678761Y38166181D02*
X32869237Y38166181D01*
X32869237Y38166181D02*
X32964475Y38118562D01*
X32964475Y38118562D02*
X33012094Y38070943D01*
X33012094Y38070943D02*
X33059713Y37975705D01*
X33059713Y37975705D02*
X33059713Y37737610D01*
X33059713Y37737610D02*
X33012094Y37642372D01*
X33012094Y37642372D02*
X32964475Y37594753D01*
X32964475Y37594753D02*
X32869237Y37547134D01*
X32869237Y37547134D02*
X32678761Y37547134D01*
X32678761Y37547134D02*
X32583523Y37594753D01*
X32583523Y37594753D02*
X32535904Y37642372D01*
X32535904Y37642372D02*
X32488285Y37737610D01*
X43002580Y21851858D02*
X43050200Y21899477D01*
X43050200Y21899477D02*
X43097819Y22042334D01*
X43097819Y22042334D02*
X43097819Y22137572D01*
X43097819Y22137572D02*
X43050200Y22280429D01*
X43050200Y22280429D02*
X42954961Y22375667D01*
X42954961Y22375667D02*
X42859723Y22423286D01*
X42859723Y22423286D02*
X42669247Y22470905D01*
X42669247Y22470905D02*
X42526390Y22470905D01*
X42526390Y22470905D02*
X42335914Y22423286D01*
X42335914Y22423286D02*
X42240676Y22375667D01*
X42240676Y22375667D02*
X42145438Y22280429D01*
X42145438Y22280429D02*
X42097819Y22137572D01*
X42097819Y22137572D02*
X42097819Y22042334D01*
X42097819Y22042334D02*
X42145438Y21899477D01*
X42145438Y21899477D02*
X42193057Y21851858D01*
X43097819Y20899477D02*
X43097819Y21470905D01*
X43097819Y21185191D02*
X42097819Y21185191D01*
X42097819Y21185191D02*
X42240676Y21280429D01*
X42240676Y21280429D02*
X42335914Y21375667D01*
X42335914Y21375667D02*
X42383533Y21470905D01*
X42193057Y20518524D02*
X42145438Y20470905D01*
X42145438Y20470905D02*
X42097819Y20375667D01*
X42097819Y20375667D02*
X42097819Y20137572D01*
X42097819Y20137572D02*
X42145438Y20042334D01*
X42145438Y20042334D02*
X42193057Y19994715D01*
X42193057Y19994715D02*
X42288295Y19947096D01*
X42288295Y19947096D02*
X42383533Y19947096D01*
X42383533Y19947096D02*
X42526390Y19994715D01*
X42526390Y19994715D02*
X43097819Y20566143D01*
X43097819Y20566143D02*
X43097819Y19947096D01*
X29297857Y23606420D02*
X29345476Y23558800D01*
X29345476Y23558800D02*
X29488333Y23511181D01*
X29488333Y23511181D02*
X29583571Y23511181D01*
X29583571Y23511181D02*
X29726428Y23558800D01*
X29726428Y23558800D02*
X29821666Y23654039D01*
X29821666Y23654039D02*
X29869285Y23749277D01*
X29869285Y23749277D02*
X29916904Y23939753D01*
X29916904Y23939753D02*
X29916904Y24082610D01*
X29916904Y24082610D02*
X29869285Y24273086D01*
X29869285Y24273086D02*
X29821666Y24368324D01*
X29821666Y24368324D02*
X29726428Y24463562D01*
X29726428Y24463562D02*
X29583571Y24511181D01*
X29583571Y24511181D02*
X29488333Y24511181D01*
X29488333Y24511181D02*
X29345476Y24463562D01*
X29345476Y24463562D02*
X29297857Y24415943D01*
X28345476Y23511181D02*
X28916904Y23511181D01*
X28631190Y23511181D02*
X28631190Y24511181D01*
X28631190Y24511181D02*
X28726428Y24368324D01*
X28726428Y24368324D02*
X28821666Y24273086D01*
X28821666Y24273086D02*
X28916904Y24225467D01*
X28012142Y24511181D02*
X27393095Y24511181D01*
X27393095Y24511181D02*
X27726428Y24130229D01*
X27726428Y24130229D02*
X27583571Y24130229D01*
X27583571Y24130229D02*
X27488333Y24082610D01*
X27488333Y24082610D02*
X27440714Y24034991D01*
X27440714Y24034991D02*
X27393095Y23939753D01*
X27393095Y23939753D02*
X27393095Y23701658D01*
X27393095Y23701658D02*
X27440714Y23606420D01*
X27440714Y23606420D02*
X27488333Y23558800D01*
X27488333Y23558800D02*
X27583571Y23511181D01*
X27583571Y23511181D02*
X27869285Y23511181D01*
X27869285Y23511181D02*
X27964523Y23558800D01*
X27964523Y23558800D02*
X28012142Y23606420D01*
X33731580Y15882858D02*
X33779200Y15930477D01*
X33779200Y15930477D02*
X33826819Y16073334D01*
X33826819Y16073334D02*
X33826819Y16168572D01*
X33826819Y16168572D02*
X33779200Y16311429D01*
X33779200Y16311429D02*
X33683961Y16406667D01*
X33683961Y16406667D02*
X33588723Y16454286D01*
X33588723Y16454286D02*
X33398247Y16501905D01*
X33398247Y16501905D02*
X33255390Y16501905D01*
X33255390Y16501905D02*
X33064914Y16454286D01*
X33064914Y16454286D02*
X32969676Y16406667D01*
X32969676Y16406667D02*
X32874438Y16311429D01*
X32874438Y16311429D02*
X32826819Y16168572D01*
X32826819Y16168572D02*
X32826819Y16073334D01*
X32826819Y16073334D02*
X32874438Y15930477D01*
X32874438Y15930477D02*
X32922057Y15882858D01*
X33826819Y14930477D02*
X33826819Y15501905D01*
X33826819Y15216191D02*
X32826819Y15216191D01*
X32826819Y15216191D02*
X32969676Y15311429D01*
X32969676Y15311429D02*
X33064914Y15406667D01*
X33064914Y15406667D02*
X33112533Y15501905D01*
X33160152Y14073334D02*
X33826819Y14073334D01*
X32779200Y14311429D02*
X33493485Y14549524D01*
X33493485Y14549524D02*
X33493485Y13930477D01*
X42044857Y13454420D02*
X42092476Y13406800D01*
X42092476Y13406800D02*
X42235333Y13359181D01*
X42235333Y13359181D02*
X42330571Y13359181D01*
X42330571Y13359181D02*
X42473428Y13406800D01*
X42473428Y13406800D02*
X42568666Y13502039D01*
X42568666Y13502039D02*
X42616285Y13597277D01*
X42616285Y13597277D02*
X42663904Y13787753D01*
X42663904Y13787753D02*
X42663904Y13930610D01*
X42663904Y13930610D02*
X42616285Y14121086D01*
X42616285Y14121086D02*
X42568666Y14216324D01*
X42568666Y14216324D02*
X42473428Y14311562D01*
X42473428Y14311562D02*
X42330571Y14359181D01*
X42330571Y14359181D02*
X42235333Y14359181D01*
X42235333Y14359181D02*
X42092476Y14311562D01*
X42092476Y14311562D02*
X42044857Y14263943D01*
X41092476Y13359181D02*
X41663904Y13359181D01*
X41378190Y13359181D02*
X41378190Y14359181D01*
X41378190Y14359181D02*
X41473428Y14216324D01*
X41473428Y14216324D02*
X41568666Y14121086D01*
X41568666Y14121086D02*
X41663904Y14073467D01*
X40616285Y13359181D02*
X40425809Y13359181D01*
X40425809Y13359181D02*
X40330571Y13406800D01*
X40330571Y13406800D02*
X40282952Y13454420D01*
X40282952Y13454420D02*
X40187714Y13597277D01*
X40187714Y13597277D02*
X40140095Y13787753D01*
X40140095Y13787753D02*
X40140095Y14168705D01*
X40140095Y14168705D02*
X40187714Y14263943D01*
X40187714Y14263943D02*
X40235333Y14311562D01*
X40235333Y14311562D02*
X40330571Y14359181D01*
X40330571Y14359181D02*
X40521047Y14359181D01*
X40521047Y14359181D02*
X40616285Y14311562D01*
X40616285Y14311562D02*
X40663904Y14263943D01*
X40663904Y14263943D02*
X40711523Y14168705D01*
X40711523Y14168705D02*
X40711523Y13930610D01*
X40711523Y13930610D02*
X40663904Y13835372D01*
X40663904Y13835372D02*
X40616285Y13787753D01*
X40616285Y13787753D02*
X40521047Y13740134D01*
X40521047Y13740134D02*
X40330571Y13740134D01*
X40330571Y13740134D02*
X40235333Y13787753D01*
X40235333Y13787753D02*
X40187714Y13835372D01*
X40187714Y13835372D02*
X40140095Y13930610D01*
X55318819Y18010095D02*
X54318819Y18010095D01*
X54318819Y18010095D02*
X54318819Y17772000D01*
X54318819Y17772000D02*
X54366438Y17629143D01*
X54366438Y17629143D02*
X54461676Y17533905D01*
X54461676Y17533905D02*
X54556914Y17486286D01*
X54556914Y17486286D02*
X54747390Y17438667D01*
X54747390Y17438667D02*
X54890247Y17438667D01*
X54890247Y17438667D02*
X55080723Y17486286D01*
X55080723Y17486286D02*
X55175961Y17533905D01*
X55175961Y17533905D02*
X55271200Y17629143D01*
X55271200Y17629143D02*
X55318819Y17772000D01*
X55318819Y17772000D02*
X55318819Y18010095D01*
X55318819Y16486286D02*
X55318819Y17057714D01*
X55318819Y16772000D02*
X54318819Y16772000D01*
X54318819Y16772000D02*
X54461676Y16867238D01*
X54461676Y16867238D02*
X54556914Y16962476D01*
X54556914Y16962476D02*
X54604533Y17057714D01*
X57884219Y16086105D02*
X56884219Y16086105D01*
X57884219Y15514677D02*
X57312790Y15943248D01*
X56884219Y15514677D02*
X57455647Y16086105D01*
X39190819Y26328667D02*
X38714628Y26662000D01*
X39190819Y26900095D02*
X38190819Y26900095D01*
X38190819Y26900095D02*
X38190819Y26519143D01*
X38190819Y26519143D02*
X38238438Y26423905D01*
X38238438Y26423905D02*
X38286057Y26376286D01*
X38286057Y26376286D02*
X38381295Y26328667D01*
X38381295Y26328667D02*
X38524152Y26328667D01*
X38524152Y26328667D02*
X38619390Y26376286D01*
X38619390Y26376286D02*
X38667009Y26423905D01*
X38667009Y26423905D02*
X38714628Y26519143D01*
X38714628Y26519143D02*
X38714628Y26900095D01*
X39190819Y25376286D02*
X39190819Y25947714D01*
X39190819Y25662000D02*
X38190819Y25662000D01*
X38190819Y25662000D02*
X38333676Y25757238D01*
X38333676Y25757238D02*
X38428914Y25852476D01*
X38428914Y25852476D02*
X38476533Y25947714D01*
X48586819Y25312667D02*
X48110628Y25646000D01*
X48586819Y25884095D02*
X47586819Y25884095D01*
X47586819Y25884095D02*
X47586819Y25503143D01*
X47586819Y25503143D02*
X47634438Y25407905D01*
X47634438Y25407905D02*
X47682057Y25360286D01*
X47682057Y25360286D02*
X47777295Y25312667D01*
X47777295Y25312667D02*
X47920152Y25312667D01*
X47920152Y25312667D02*
X48015390Y25360286D01*
X48015390Y25360286D02*
X48063009Y25407905D01*
X48063009Y25407905D02*
X48110628Y25503143D01*
X48110628Y25503143D02*
X48110628Y25884095D01*
X47586819Y24979333D02*
X47586819Y24360286D01*
X47586819Y24360286D02*
X47967771Y24693619D01*
X47967771Y24693619D02*
X47967771Y24550762D01*
X47967771Y24550762D02*
X48015390Y24455524D01*
X48015390Y24455524D02*
X48063009Y24407905D01*
X48063009Y24407905D02*
X48158247Y24360286D01*
X48158247Y24360286D02*
X48396342Y24360286D01*
X48396342Y24360286D02*
X48491580Y24407905D01*
X48491580Y24407905D02*
X48539200Y24455524D01*
X48539200Y24455524D02*
X48586819Y24550762D01*
X48586819Y24550762D02*
X48586819Y24836476D01*
X48586819Y24836476D02*
X48539200Y24931714D01*
X48539200Y24931714D02*
X48491580Y24979333D01*
X34616819Y20994667D02*
X34140628Y21328000D01*
X34616819Y21566095D02*
X33616819Y21566095D01*
X33616819Y21566095D02*
X33616819Y21185143D01*
X33616819Y21185143D02*
X33664438Y21089905D01*
X33664438Y21089905D02*
X33712057Y21042286D01*
X33712057Y21042286D02*
X33807295Y20994667D01*
X33807295Y20994667D02*
X33950152Y20994667D01*
X33950152Y20994667D02*
X34045390Y21042286D01*
X34045390Y21042286D02*
X34093009Y21089905D01*
X34093009Y21089905D02*
X34140628Y21185143D01*
X34140628Y21185143D02*
X34140628Y21566095D01*
X33950152Y20137524D02*
X34616819Y20137524D01*
X33569200Y20375619D02*
X34283485Y20613714D01*
X34283485Y20613714D02*
X34283485Y19994667D01*
X41060666Y10595181D02*
X41393999Y11071372D01*
X41632094Y10595181D02*
X41632094Y11595181D01*
X41632094Y11595181D02*
X41251142Y11595181D01*
X41251142Y11595181D02*
X41155904Y11547562D01*
X41155904Y11547562D02*
X41108285Y11499943D01*
X41108285Y11499943D02*
X41060666Y11404705D01*
X41060666Y11404705D02*
X41060666Y11261848D01*
X41060666Y11261848D02*
X41108285Y11166610D01*
X41108285Y11166610D02*
X41155904Y11118991D01*
X41155904Y11118991D02*
X41251142Y11071372D01*
X41251142Y11071372D02*
X41632094Y11071372D01*
X40155904Y11595181D02*
X40632094Y11595181D01*
X40632094Y11595181D02*
X40679713Y11118991D01*
X40679713Y11118991D02*
X40632094Y11166610D01*
X40632094Y11166610D02*
X40536856Y11214229D01*
X40536856Y11214229D02*
X40298761Y11214229D01*
X40298761Y11214229D02*
X40203523Y11166610D01*
X40203523Y11166610D02*
X40155904Y11118991D01*
X40155904Y11118991D02*
X40108285Y11023753D01*
X40108285Y11023753D02*
X40108285Y10785658D01*
X40108285Y10785658D02*
X40155904Y10690420D01*
X40155904Y10690420D02*
X40203523Y10642800D01*
X40203523Y10642800D02*
X40298761Y10595181D01*
X40298761Y10595181D02*
X40536856Y10595181D01*
X40536856Y10595181D02*
X40632094Y10642800D01*
X40632094Y10642800D02*
X40679713Y10690420D01*
X27250819Y21470858D02*
X26774628Y21804191D01*
X27250819Y22042286D02*
X26250819Y22042286D01*
X26250819Y22042286D02*
X26250819Y21661334D01*
X26250819Y21661334D02*
X26298438Y21566096D01*
X26298438Y21566096D02*
X26346057Y21518477D01*
X26346057Y21518477D02*
X26441295Y21470858D01*
X26441295Y21470858D02*
X26584152Y21470858D01*
X26584152Y21470858D02*
X26679390Y21518477D01*
X26679390Y21518477D02*
X26727009Y21566096D01*
X26727009Y21566096D02*
X26774628Y21661334D01*
X26774628Y21661334D02*
X26774628Y22042286D01*
X27250819Y20518477D02*
X27250819Y21089905D01*
X27250819Y20804191D02*
X26250819Y20804191D01*
X26250819Y20804191D02*
X26393676Y20899429D01*
X26393676Y20899429D02*
X26488914Y20994667D01*
X26488914Y20994667D02*
X26536533Y21089905D01*
X26346057Y20137524D02*
X26298438Y20089905D01*
X26298438Y20089905D02*
X26250819Y19994667D01*
X26250819Y19994667D02*
X26250819Y19756572D01*
X26250819Y19756572D02*
X26298438Y19661334D01*
X26298438Y19661334D02*
X26346057Y19613715D01*
X26346057Y19613715D02*
X26441295Y19566096D01*
X26441295Y19566096D02*
X26536533Y19566096D01*
X26536533Y19566096D02*
X26679390Y19613715D01*
X26679390Y19613715D02*
X27250819Y20185143D01*
X27250819Y20185143D02*
X27250819Y19566096D01*
X36456857Y19483181D02*
X36790190Y19959372D01*
X37028285Y19483181D02*
X37028285Y20483181D01*
X37028285Y20483181D02*
X36647333Y20483181D01*
X36647333Y20483181D02*
X36552095Y20435562D01*
X36552095Y20435562D02*
X36504476Y20387943D01*
X36504476Y20387943D02*
X36456857Y20292705D01*
X36456857Y20292705D02*
X36456857Y20149848D01*
X36456857Y20149848D02*
X36504476Y20054610D01*
X36504476Y20054610D02*
X36552095Y20006991D01*
X36552095Y20006991D02*
X36647333Y19959372D01*
X36647333Y19959372D02*
X37028285Y19959372D01*
X35504476Y19483181D02*
X36075904Y19483181D01*
X35790190Y19483181D02*
X35790190Y20483181D01*
X35790190Y20483181D02*
X35885428Y20340324D01*
X35885428Y20340324D02*
X35980666Y20245086D01*
X35980666Y20245086D02*
X36075904Y20197467D01*
X35171142Y20483181D02*
X34552095Y20483181D01*
X34552095Y20483181D02*
X34885428Y20102229D01*
X34885428Y20102229D02*
X34742571Y20102229D01*
X34742571Y20102229D02*
X34647333Y20054610D01*
X34647333Y20054610D02*
X34599714Y20006991D01*
X34599714Y20006991D02*
X34552095Y19911753D01*
X34552095Y19911753D02*
X34552095Y19673658D01*
X34552095Y19673658D02*
X34599714Y19578420D01*
X34599714Y19578420D02*
X34647333Y19530800D01*
X34647333Y19530800D02*
X34742571Y19483181D01*
X34742571Y19483181D02*
X35028285Y19483181D01*
X35028285Y19483181D02*
X35123523Y19530800D01*
X35123523Y19530800D02*
X35171142Y19578420D01*
X53307580Y21462858D02*
X53355200Y21510477D01*
X53355200Y21510477D02*
X53402819Y21653334D01*
X53402819Y21653334D02*
X53402819Y21748572D01*
X53402819Y21748572D02*
X53355200Y21891429D01*
X53355200Y21891429D02*
X53259961Y21986667D01*
X53259961Y21986667D02*
X53164723Y22034286D01*
X53164723Y22034286D02*
X52974247Y22081905D01*
X52974247Y22081905D02*
X52831390Y22081905D01*
X52831390Y22081905D02*
X52640914Y22034286D01*
X52640914Y22034286D02*
X52545676Y21986667D01*
X52545676Y21986667D02*
X52450438Y21891429D01*
X52450438Y21891429D02*
X52402819Y21748572D01*
X52402819Y21748572D02*
X52402819Y21653334D01*
X52402819Y21653334D02*
X52450438Y21510477D01*
X52450438Y21510477D02*
X52498057Y21462858D01*
X52498057Y21081905D02*
X52450438Y21034286D01*
X52450438Y21034286D02*
X52402819Y20939048D01*
X52402819Y20939048D02*
X52402819Y20700953D01*
X52402819Y20700953D02*
X52450438Y20605715D01*
X52450438Y20605715D02*
X52498057Y20558096D01*
X52498057Y20558096D02*
X52593295Y20510477D01*
X52593295Y20510477D02*
X52688533Y20510477D01*
X52688533Y20510477D02*
X52831390Y20558096D01*
X52831390Y20558096D02*
X53402819Y21129524D01*
X53402819Y21129524D02*
X53402819Y20510477D01*
X53402819Y19558096D02*
X53402819Y20129524D01*
X53402819Y19843810D02*
X52402819Y19843810D01*
X52402819Y19843810D02*
X52545676Y19939048D01*
X52545676Y19939048D02*
X52640914Y20034286D01*
X52640914Y20034286D02*
X52688533Y20129524D01*
X36089523Y7317181D02*
X36089523Y8317181D01*
X36089523Y8317181D02*
X35756190Y7602896D01*
X35756190Y7602896D02*
X35422857Y8317181D01*
X35422857Y8317181D02*
X35422857Y7317181D01*
X34470476Y8317181D02*
X34946666Y8317181D01*
X34946666Y8317181D02*
X34994285Y7840991D01*
X34994285Y7840991D02*
X34946666Y7888610D01*
X34946666Y7888610D02*
X34851428Y7936229D01*
X34851428Y7936229D02*
X34613333Y7936229D01*
X34613333Y7936229D02*
X34518095Y7888610D01*
X34518095Y7888610D02*
X34470476Y7840991D01*
X34470476Y7840991D02*
X34422857Y7745753D01*
X34422857Y7745753D02*
X34422857Y7507658D01*
X34422857Y7507658D02*
X34470476Y7412420D01*
X34470476Y7412420D02*
X34518095Y7364800D01*
X34518095Y7364800D02*
X34613333Y7317181D01*
X34613333Y7317181D02*
X34851428Y7317181D01*
X34851428Y7317181D02*
X34946666Y7364800D01*
X34946666Y7364800D02*
X34994285Y7412420D01*
X31456819Y11681905D02*
X32266342Y11681905D01*
X32266342Y11681905D02*
X32361580Y11634286D01*
X32361580Y11634286D02*
X32409200Y11586667D01*
X32409200Y11586667D02*
X32456819Y11491429D01*
X32456819Y11491429D02*
X32456819Y11300953D01*
X32456819Y11300953D02*
X32409200Y11205715D01*
X32409200Y11205715D02*
X32361580Y11158096D01*
X32361580Y11158096D02*
X32266342Y11110477D01*
X32266342Y11110477D02*
X31456819Y11110477D01*
X31456819Y10158096D02*
X31456819Y10634286D01*
X31456819Y10634286D02*
X31933009Y10681905D01*
X31933009Y10681905D02*
X31885390Y10634286D01*
X31885390Y10634286D02*
X31837771Y10539048D01*
X31837771Y10539048D02*
X31837771Y10300953D01*
X31837771Y10300953D02*
X31885390Y10205715D01*
X31885390Y10205715D02*
X31933009Y10158096D01*
X31933009Y10158096D02*
X32028247Y10110477D01*
X32028247Y10110477D02*
X32266342Y10110477D01*
X32266342Y10110477D02*
X32361580Y10158096D01*
X32361580Y10158096D02*
X32409200Y10205715D01*
X32409200Y10205715D02*
X32456819Y10300953D01*
X32456819Y10300953D02*
X32456819Y10539048D01*
X32456819Y10539048D02*
X32409200Y10634286D01*
X32409200Y10634286D02*
X32361580Y10681905D01*
X27959904Y28622181D02*
X27959904Y27812658D01*
X27959904Y27812658D02*
X27912285Y27717420D01*
X27912285Y27717420D02*
X27864666Y27669800D01*
X27864666Y27669800D02*
X27769428Y27622181D01*
X27769428Y27622181D02*
X27578952Y27622181D01*
X27578952Y27622181D02*
X27483714Y27669800D01*
X27483714Y27669800D02*
X27436095Y27717420D01*
X27436095Y27717420D02*
X27388476Y27812658D01*
X27388476Y27812658D02*
X27388476Y28622181D01*
X26388476Y27622181D02*
X26959904Y27622181D01*
X26674190Y27622181D02*
X26674190Y28622181D01*
X26674190Y28622181D02*
X26769428Y28479324D01*
X26769428Y28479324D02*
X26864666Y28384086D01*
X26864666Y28384086D02*
X26959904Y28336467D01*
X45415580Y34043858D02*
X45463200Y34091477D01*
X45463200Y34091477D02*
X45510819Y34234334D01*
X45510819Y34234334D02*
X45510819Y34329572D01*
X45510819Y34329572D02*
X45463200Y34472429D01*
X45463200Y34472429D02*
X45367961Y34567667D01*
X45367961Y34567667D02*
X45272723Y34615286D01*
X45272723Y34615286D02*
X45082247Y34662905D01*
X45082247Y34662905D02*
X44939390Y34662905D01*
X44939390Y34662905D02*
X44748914Y34615286D01*
X44748914Y34615286D02*
X44653676Y34567667D01*
X44653676Y34567667D02*
X44558438Y34472429D01*
X44558438Y34472429D02*
X44510819Y34329572D01*
X44510819Y34329572D02*
X44510819Y34234334D01*
X44510819Y34234334D02*
X44558438Y34091477D01*
X44558438Y34091477D02*
X44606057Y34043858D01*
X45510819Y33091477D02*
X45510819Y33662905D01*
X45510819Y33377191D02*
X44510819Y33377191D01*
X44510819Y33377191D02*
X44653676Y33472429D01*
X44653676Y33472429D02*
X44748914Y33567667D01*
X44748914Y33567667D02*
X44796533Y33662905D01*
X44939390Y32520048D02*
X44891771Y32615286D01*
X44891771Y32615286D02*
X44844152Y32662905D01*
X44844152Y32662905D02*
X44748914Y32710524D01*
X44748914Y32710524D02*
X44701295Y32710524D01*
X44701295Y32710524D02*
X44606057Y32662905D01*
X44606057Y32662905D02*
X44558438Y32615286D01*
X44558438Y32615286D02*
X44510819Y32520048D01*
X44510819Y32520048D02*
X44510819Y32329572D01*
X44510819Y32329572D02*
X44558438Y32234334D01*
X44558438Y32234334D02*
X44606057Y32186715D01*
X44606057Y32186715D02*
X44701295Y32139096D01*
X44701295Y32139096D02*
X44748914Y32139096D01*
X44748914Y32139096D02*
X44844152Y32186715D01*
X44844152Y32186715D02*
X44891771Y32234334D01*
X44891771Y32234334D02*
X44939390Y32329572D01*
X44939390Y32329572D02*
X44939390Y32520048D01*
X44939390Y32520048D02*
X44987009Y32615286D01*
X44987009Y32615286D02*
X45034628Y32662905D01*
X45034628Y32662905D02*
X45129866Y32710524D01*
X45129866Y32710524D02*
X45320342Y32710524D01*
X45320342Y32710524D02*
X45415580Y32662905D01*
X45415580Y32662905D02*
X45463200Y32615286D01*
X45463200Y32615286D02*
X45510819Y32520048D01*
X45510819Y32520048D02*
X45510819Y32329572D01*
X45510819Y32329572D02*
X45463200Y32234334D01*
X45463200Y32234334D02*
X45415580Y32186715D01*
X45415580Y32186715D02*
X45320342Y32139096D01*
X45320342Y32139096D02*
X45129866Y32139096D01*
X45129866Y32139096D02*
X45034628Y32186715D01*
X45034628Y32186715D02*
X44987009Y32234334D01*
X44987009Y32234334D02*
X44939390Y32329572D01*
X33535857Y28695420D02*
X33583476Y28647800D01*
X33583476Y28647800D02*
X33726333Y28600181D01*
X33726333Y28600181D02*
X33821571Y28600181D01*
X33821571Y28600181D02*
X33964428Y28647800D01*
X33964428Y28647800D02*
X34059666Y28743039D01*
X34059666Y28743039D02*
X34107285Y28838277D01*
X34107285Y28838277D02*
X34154904Y29028753D01*
X34154904Y29028753D02*
X34154904Y29171610D01*
X34154904Y29171610D02*
X34107285Y29362086D01*
X34107285Y29362086D02*
X34059666Y29457324D01*
X34059666Y29457324D02*
X33964428Y29552562D01*
X33964428Y29552562D02*
X33821571Y29600181D01*
X33821571Y29600181D02*
X33726333Y29600181D01*
X33726333Y29600181D02*
X33583476Y29552562D01*
X33583476Y29552562D02*
X33535857Y29504943D01*
X32583476Y28600181D02*
X33154904Y28600181D01*
X32869190Y28600181D02*
X32869190Y29600181D01*
X32869190Y29600181D02*
X32964428Y29457324D01*
X32964428Y29457324D02*
X33059666Y29362086D01*
X33059666Y29362086D02*
X33154904Y29314467D01*
X31631095Y28600181D02*
X32202523Y28600181D01*
X31916809Y28600181D02*
X31916809Y29600181D01*
X31916809Y29600181D02*
X32012047Y29457324D01*
X32012047Y29457324D02*
X32107285Y29362086D01*
X32107285Y29362086D02*
X32202523Y29314467D01*
X43314857Y33832420D02*
X43362476Y33784800D01*
X43362476Y33784800D02*
X43505333Y33737181D01*
X43505333Y33737181D02*
X43600571Y33737181D01*
X43600571Y33737181D02*
X43743428Y33784800D01*
X43743428Y33784800D02*
X43838666Y33880039D01*
X43838666Y33880039D02*
X43886285Y33975277D01*
X43886285Y33975277D02*
X43933904Y34165753D01*
X43933904Y34165753D02*
X43933904Y34308610D01*
X43933904Y34308610D02*
X43886285Y34499086D01*
X43886285Y34499086D02*
X43838666Y34594324D01*
X43838666Y34594324D02*
X43743428Y34689562D01*
X43743428Y34689562D02*
X43600571Y34737181D01*
X43600571Y34737181D02*
X43505333Y34737181D01*
X43505333Y34737181D02*
X43362476Y34689562D01*
X43362476Y34689562D02*
X43314857Y34641943D01*
X42933904Y34641943D02*
X42886285Y34689562D01*
X42886285Y34689562D02*
X42791047Y34737181D01*
X42791047Y34737181D02*
X42552952Y34737181D01*
X42552952Y34737181D02*
X42457714Y34689562D01*
X42457714Y34689562D02*
X42410095Y34641943D01*
X42410095Y34641943D02*
X42362476Y34546705D01*
X42362476Y34546705D02*
X42362476Y34451467D01*
X42362476Y34451467D02*
X42410095Y34308610D01*
X42410095Y34308610D02*
X42981523Y33737181D01*
X42981523Y33737181D02*
X42362476Y33737181D01*
X41743428Y34737181D02*
X41648190Y34737181D01*
X41648190Y34737181D02*
X41552952Y34689562D01*
X41552952Y34689562D02*
X41505333Y34641943D01*
X41505333Y34641943D02*
X41457714Y34546705D01*
X41457714Y34546705D02*
X41410095Y34356229D01*
X41410095Y34356229D02*
X41410095Y34118134D01*
X41410095Y34118134D02*
X41457714Y33927658D01*
X41457714Y33927658D02*
X41505333Y33832420D01*
X41505333Y33832420D02*
X41552952Y33784800D01*
X41552952Y33784800D02*
X41648190Y33737181D01*
X41648190Y33737181D02*
X41743428Y33737181D01*
X41743428Y33737181D02*
X41838666Y33784800D01*
X41838666Y33784800D02*
X41886285Y33832420D01*
X41886285Y33832420D02*
X41933904Y33927658D01*
X41933904Y33927658D02*
X41981523Y34118134D01*
X41981523Y34118134D02*
X41981523Y34356229D01*
X41981523Y34356229D02*
X41933904Y34546705D01*
X41933904Y34546705D02*
X41886285Y34641943D01*
X41886285Y34641943D02*
X41838666Y34689562D01*
X41838666Y34689562D02*
X41743428Y34737181D01*
X11818857Y26595181D02*
X12152190Y27071372D01*
X12390285Y26595181D02*
X12390285Y27595181D01*
X12390285Y27595181D02*
X12009333Y27595181D01*
X12009333Y27595181D02*
X11914095Y27547562D01*
X11914095Y27547562D02*
X11866476Y27499943D01*
X11866476Y27499943D02*
X11818857Y27404705D01*
X11818857Y27404705D02*
X11818857Y27261848D01*
X11818857Y27261848D02*
X11866476Y27166610D01*
X11866476Y27166610D02*
X11914095Y27118991D01*
X11914095Y27118991D02*
X12009333Y27071372D01*
X12009333Y27071372D02*
X12390285Y27071372D01*
X10866476Y26595181D02*
X11437904Y26595181D01*
X11152190Y26595181D02*
X11152190Y27595181D01*
X11152190Y27595181D02*
X11247428Y27452324D01*
X11247428Y27452324D02*
X11342666Y27357086D01*
X11342666Y27357086D02*
X11437904Y27309467D01*
X9914095Y26595181D02*
X10485523Y26595181D01*
X10199809Y26595181D02*
X10199809Y27595181D01*
X10199809Y27595181D02*
X10295047Y27452324D01*
X10295047Y27452324D02*
X10390285Y27357086D01*
X10390285Y27357086D02*
X10485523Y27309467D01*
X36201580Y14390667D02*
X36249200Y14438286D01*
X36249200Y14438286D02*
X36296819Y14581143D01*
X36296819Y14581143D02*
X36296819Y14676381D01*
X36296819Y14676381D02*
X36249200Y14819238D01*
X36249200Y14819238D02*
X36153961Y14914476D01*
X36153961Y14914476D02*
X36058723Y14962095D01*
X36058723Y14962095D02*
X35868247Y15009714D01*
X35868247Y15009714D02*
X35725390Y15009714D01*
X35725390Y15009714D02*
X35534914Y14962095D01*
X35534914Y14962095D02*
X35439676Y14914476D01*
X35439676Y14914476D02*
X35344438Y14819238D01*
X35344438Y14819238D02*
X35296819Y14676381D01*
X35296819Y14676381D02*
X35296819Y14581143D01*
X35296819Y14581143D02*
X35344438Y14438286D01*
X35344438Y14438286D02*
X35392057Y14390667D01*
X35296819Y13485905D02*
X35296819Y13962095D01*
X35296819Y13962095D02*
X35773009Y14009714D01*
X35773009Y14009714D02*
X35725390Y13962095D01*
X35725390Y13962095D02*
X35677771Y13866857D01*
X35677771Y13866857D02*
X35677771Y13628762D01*
X35677771Y13628762D02*
X35725390Y13533524D01*
X35725390Y13533524D02*
X35773009Y13485905D01*
X35773009Y13485905D02*
X35868247Y13438286D01*
X35868247Y13438286D02*
X36106342Y13438286D01*
X36106342Y13438286D02*
X36201580Y13485905D01*
X36201580Y13485905D02*
X36249200Y13533524D01*
X36249200Y13533524D02*
X36296819Y13628762D01*
X36296819Y13628762D02*
X36296819Y13866857D01*
X36296819Y13866857D02*
X36249200Y13962095D01*
X36249200Y13962095D02*
X36201580Y14009714D01*
X42671904Y33759181D02*
X42671904Y32949658D01*
X42671904Y32949658D02*
X42624285Y32854420D01*
X42624285Y32854420D02*
X42576666Y32806800D01*
X42576666Y32806800D02*
X42481428Y32759181D01*
X42481428Y32759181D02*
X42290952Y32759181D01*
X42290952Y32759181D02*
X42195714Y32806800D01*
X42195714Y32806800D02*
X42148095Y32854420D01*
X42148095Y32854420D02*
X42100476Y32949658D01*
X42100476Y32949658D02*
X42100476Y33759181D01*
X41719523Y33759181D02*
X41100476Y33759181D01*
X41100476Y33759181D02*
X41433809Y33378229D01*
X41433809Y33378229D02*
X41290952Y33378229D01*
X41290952Y33378229D02*
X41195714Y33330610D01*
X41195714Y33330610D02*
X41148095Y33282991D01*
X41148095Y33282991D02*
X41100476Y33187753D01*
X41100476Y33187753D02*
X41100476Y32949658D01*
X41100476Y32949658D02*
X41148095Y32854420D01*
X41148095Y32854420D02*
X41195714Y32806800D01*
X41195714Y32806800D02*
X41290952Y32759181D01*
X41290952Y32759181D02*
X41576666Y32759181D01*
X41576666Y32759181D02*
X41671904Y32806800D01*
X41671904Y32806800D02*
X41719523Y32854420D01*
X28360666Y18467181D02*
X28693999Y18943372D01*
X28932094Y18467181D02*
X28932094Y19467181D01*
X28932094Y19467181D02*
X28551142Y19467181D01*
X28551142Y19467181D02*
X28455904Y19419562D01*
X28455904Y19419562D02*
X28408285Y19371943D01*
X28408285Y19371943D02*
X28360666Y19276705D01*
X28360666Y19276705D02*
X28360666Y19133848D01*
X28360666Y19133848D02*
X28408285Y19038610D01*
X28408285Y19038610D02*
X28455904Y18990991D01*
X28455904Y18990991D02*
X28551142Y18943372D01*
X28551142Y18943372D02*
X28932094Y18943372D01*
X27503523Y19467181D02*
X27693999Y19467181D01*
X27693999Y19467181D02*
X27789237Y19419562D01*
X27789237Y19419562D02*
X27836856Y19371943D01*
X27836856Y19371943D02*
X27932094Y19229086D01*
X27932094Y19229086D02*
X27979713Y19038610D01*
X27979713Y19038610D02*
X27979713Y18657658D01*
X27979713Y18657658D02*
X27932094Y18562420D01*
X27932094Y18562420D02*
X27884475Y18514800D01*
X27884475Y18514800D02*
X27789237Y18467181D01*
X27789237Y18467181D02*
X27598761Y18467181D01*
X27598761Y18467181D02*
X27503523Y18514800D01*
X27503523Y18514800D02*
X27455904Y18562420D01*
X27455904Y18562420D02*
X27408285Y18657658D01*
X27408285Y18657658D02*
X27408285Y18895753D01*
X27408285Y18895753D02*
X27455904Y18990991D01*
X27455904Y18990991D02*
X27503523Y19038610D01*
X27503523Y19038610D02*
X27598761Y19086229D01*
X27598761Y19086229D02*
X27789237Y19086229D01*
X27789237Y19086229D02*
X27884475Y19038610D01*
X27884475Y19038610D02*
X27932094Y18990991D01*
X27932094Y18990991D02*
X27979713Y18895753D01*
X24359819Y37972905D02*
X25169342Y37972905D01*
X25169342Y37972905D02*
X25264580Y37925286D01*
X25264580Y37925286D02*
X25312200Y37877667D01*
X25312200Y37877667D02*
X25359819Y37782429D01*
X25359819Y37782429D02*
X25359819Y37591953D01*
X25359819Y37591953D02*
X25312200Y37496715D01*
X25312200Y37496715D02*
X25264580Y37449096D01*
X25264580Y37449096D02*
X25169342Y37401477D01*
X25169342Y37401477D02*
X24359819Y37401477D01*
X24693152Y36496715D02*
X25359819Y36496715D01*
X24312200Y36734810D02*
X25026485Y36972905D01*
X25026485Y36972905D02*
X25026485Y36353858D01*
X28868666Y21136420D02*
X28916285Y21088800D01*
X28916285Y21088800D02*
X29059142Y21041181D01*
X29059142Y21041181D02*
X29154380Y21041181D01*
X29154380Y21041181D02*
X29297237Y21088800D01*
X29297237Y21088800D02*
X29392475Y21184039D01*
X29392475Y21184039D02*
X29440094Y21279277D01*
X29440094Y21279277D02*
X29487713Y21469753D01*
X29487713Y21469753D02*
X29487713Y21612610D01*
X29487713Y21612610D02*
X29440094Y21803086D01*
X29440094Y21803086D02*
X29392475Y21898324D01*
X29392475Y21898324D02*
X29297237Y21993562D01*
X29297237Y21993562D02*
X29154380Y22041181D01*
X29154380Y22041181D02*
X29059142Y22041181D01*
X29059142Y22041181D02*
X28916285Y21993562D01*
X28916285Y21993562D02*
X28868666Y21945943D01*
X28011523Y22041181D02*
X28201999Y22041181D01*
X28201999Y22041181D02*
X28297237Y21993562D01*
X28297237Y21993562D02*
X28344856Y21945943D01*
X28344856Y21945943D02*
X28440094Y21803086D01*
X28440094Y21803086D02*
X28487713Y21612610D01*
X28487713Y21612610D02*
X28487713Y21231658D01*
X28487713Y21231658D02*
X28440094Y21136420D01*
X28440094Y21136420D02*
X28392475Y21088800D01*
X28392475Y21088800D02*
X28297237Y21041181D01*
X28297237Y21041181D02*
X28106761Y21041181D01*
X28106761Y21041181D02*
X28011523Y21088800D01*
X28011523Y21088800D02*
X27963904Y21136420D01*
X27963904Y21136420D02*
X27916285Y21231658D01*
X27916285Y21231658D02*
X27916285Y21469753D01*
X27916285Y21469753D02*
X27963904Y21564991D01*
X27963904Y21564991D02*
X28011523Y21612610D01*
X28011523Y21612610D02*
X28106761Y21660229D01*
X28106761Y21660229D02*
X28297237Y21660229D01*
X28297237Y21660229D02*
X28392475Y21612610D01*
X28392475Y21612610D02*
X28440094Y21564991D01*
X28440094Y21564991D02*
X28487713Y21469753D01*
X16771580Y21470858D02*
X16819200Y21518477D01*
X16819200Y21518477D02*
X16866819Y21661334D01*
X16866819Y21661334D02*
X16866819Y21756572D01*
X16866819Y21756572D02*
X16819200Y21899429D01*
X16819200Y21899429D02*
X16723961Y21994667D01*
X16723961Y21994667D02*
X16628723Y22042286D01*
X16628723Y22042286D02*
X16438247Y22089905D01*
X16438247Y22089905D02*
X16295390Y22089905D01*
X16295390Y22089905D02*
X16104914Y22042286D01*
X16104914Y22042286D02*
X16009676Y21994667D01*
X16009676Y21994667D02*
X15914438Y21899429D01*
X15914438Y21899429D02*
X15866819Y21756572D01*
X15866819Y21756572D02*
X15866819Y21661334D01*
X15866819Y21661334D02*
X15914438Y21518477D01*
X15914438Y21518477D02*
X15962057Y21470858D01*
X16866819Y20518477D02*
X16866819Y21089905D01*
X16866819Y20804191D02*
X15866819Y20804191D01*
X15866819Y20804191D02*
X16009676Y20899429D01*
X16009676Y20899429D02*
X16104914Y20994667D01*
X16104914Y20994667D02*
X16152533Y21089905D01*
X15866819Y20185143D02*
X15866819Y19518477D01*
X15866819Y19518477D02*
X16866819Y19947048D01*
X33916857Y30911420D02*
X33964476Y30863800D01*
X33964476Y30863800D02*
X34107333Y30816181D01*
X34107333Y30816181D02*
X34202571Y30816181D01*
X34202571Y30816181D02*
X34345428Y30863800D01*
X34345428Y30863800D02*
X34440666Y30959039D01*
X34440666Y30959039D02*
X34488285Y31054277D01*
X34488285Y31054277D02*
X34535904Y31244753D01*
X34535904Y31244753D02*
X34535904Y31387610D01*
X34535904Y31387610D02*
X34488285Y31578086D01*
X34488285Y31578086D02*
X34440666Y31673324D01*
X34440666Y31673324D02*
X34345428Y31768562D01*
X34345428Y31768562D02*
X34202571Y31816181D01*
X34202571Y31816181D02*
X34107333Y31816181D01*
X34107333Y31816181D02*
X33964476Y31768562D01*
X33964476Y31768562D02*
X33916857Y31720943D01*
X32964476Y30816181D02*
X33535904Y30816181D01*
X33250190Y30816181D02*
X33250190Y31816181D01*
X33250190Y31816181D02*
X33345428Y31673324D01*
X33345428Y31673324D02*
X33440666Y31578086D01*
X33440666Y31578086D02*
X33535904Y31530467D01*
X32059714Y31816181D02*
X32535904Y31816181D01*
X32535904Y31816181D02*
X32583523Y31339991D01*
X32583523Y31339991D02*
X32535904Y31387610D01*
X32535904Y31387610D02*
X32440666Y31435229D01*
X32440666Y31435229D02*
X32202571Y31435229D01*
X32202571Y31435229D02*
X32107333Y31387610D01*
X32107333Y31387610D02*
X32059714Y31339991D01*
X32059714Y31339991D02*
X32012095Y31244753D01*
X32012095Y31244753D02*
X32012095Y31006658D01*
X32012095Y31006658D02*
X32059714Y30911420D01*
X32059714Y30911420D02*
X32107333Y30863800D01*
X32107333Y30863800D02*
X32202571Y30816181D01*
X32202571Y30816181D02*
X32440666Y30816181D01*
X32440666Y30816181D02*
X32535904Y30863800D01*
X32535904Y30863800D02*
X32583523Y30911420D01*
X22936580Y37853858D02*
X22984200Y37901477D01*
X22984200Y37901477D02*
X23031819Y38044334D01*
X23031819Y38044334D02*
X23031819Y38139572D01*
X23031819Y38139572D02*
X22984200Y38282429D01*
X22984200Y38282429D02*
X22888961Y38377667D01*
X22888961Y38377667D02*
X22793723Y38425286D01*
X22793723Y38425286D02*
X22603247Y38472905D01*
X22603247Y38472905D02*
X22460390Y38472905D01*
X22460390Y38472905D02*
X22269914Y38425286D01*
X22269914Y38425286D02*
X22174676Y38377667D01*
X22174676Y38377667D02*
X22079438Y38282429D01*
X22079438Y38282429D02*
X22031819Y38139572D01*
X22031819Y38139572D02*
X22031819Y38044334D01*
X22031819Y38044334D02*
X22079438Y37901477D01*
X22079438Y37901477D02*
X22127057Y37853858D01*
X22127057Y37472905D02*
X22079438Y37425286D01*
X22079438Y37425286D02*
X22031819Y37330048D01*
X22031819Y37330048D02*
X22031819Y37091953D01*
X22031819Y37091953D02*
X22079438Y36996715D01*
X22079438Y36996715D02*
X22127057Y36949096D01*
X22127057Y36949096D02*
X22222295Y36901477D01*
X22222295Y36901477D02*
X22317533Y36901477D01*
X22317533Y36901477D02*
X22460390Y36949096D01*
X22460390Y36949096D02*
X23031819Y37520524D01*
X23031819Y37520524D02*
X23031819Y36901477D01*
X22127057Y36520524D02*
X22079438Y36472905D01*
X22079438Y36472905D02*
X22031819Y36377667D01*
X22031819Y36377667D02*
X22031819Y36139572D01*
X22031819Y36139572D02*
X22079438Y36044334D01*
X22079438Y36044334D02*
X22127057Y35996715D01*
X22127057Y35996715D02*
X22222295Y35949096D01*
X22222295Y35949096D02*
X22317533Y35949096D01*
X22317533Y35949096D02*
X22460390Y35996715D01*
X22460390Y35996715D02*
X23031819Y36568143D01*
X23031819Y36568143D02*
X23031819Y35949096D01*
X37250666Y23803181D02*
X37583999Y24279372D01*
X37822094Y23803181D02*
X37822094Y24803181D01*
X37822094Y24803181D02*
X37441142Y24803181D01*
X37441142Y24803181D02*
X37345904Y24755562D01*
X37345904Y24755562D02*
X37298285Y24707943D01*
X37298285Y24707943D02*
X37250666Y24612705D01*
X37250666Y24612705D02*
X37250666Y24469848D01*
X37250666Y24469848D02*
X37298285Y24374610D01*
X37298285Y24374610D02*
X37345904Y24326991D01*
X37345904Y24326991D02*
X37441142Y24279372D01*
X37441142Y24279372D02*
X37822094Y24279372D01*
X36774475Y23803181D02*
X36583999Y23803181D01*
X36583999Y23803181D02*
X36488761Y23850800D01*
X36488761Y23850800D02*
X36441142Y23898420D01*
X36441142Y23898420D02*
X36345904Y24041277D01*
X36345904Y24041277D02*
X36298285Y24231753D01*
X36298285Y24231753D02*
X36298285Y24612705D01*
X36298285Y24612705D02*
X36345904Y24707943D01*
X36345904Y24707943D02*
X36393523Y24755562D01*
X36393523Y24755562D02*
X36488761Y24803181D01*
X36488761Y24803181D02*
X36679237Y24803181D01*
X36679237Y24803181D02*
X36774475Y24755562D01*
X36774475Y24755562D02*
X36822094Y24707943D01*
X36822094Y24707943D02*
X36869713Y24612705D01*
X36869713Y24612705D02*
X36869713Y24374610D01*
X36869713Y24374610D02*
X36822094Y24279372D01*
X36822094Y24279372D02*
X36774475Y24231753D01*
X36774475Y24231753D02*
X36679237Y24184134D01*
X36679237Y24184134D02*
X36488761Y24184134D01*
X36488761Y24184134D02*
X36393523Y24231753D01*
X36393523Y24231753D02*
X36345904Y24279372D01*
X36345904Y24279372D02*
X36298285Y24374610D01*
X22772666Y32564181D02*
X23105999Y33040372D01*
X23344094Y32564181D02*
X23344094Y33564181D01*
X23344094Y33564181D02*
X22963142Y33564181D01*
X22963142Y33564181D02*
X22867904Y33516562D01*
X22867904Y33516562D02*
X22820285Y33468943D01*
X22820285Y33468943D02*
X22772666Y33373705D01*
X22772666Y33373705D02*
X22772666Y33230848D01*
X22772666Y33230848D02*
X22820285Y33135610D01*
X22820285Y33135610D02*
X22867904Y33087991D01*
X22867904Y33087991D02*
X22963142Y33040372D01*
X22963142Y33040372D02*
X23344094Y33040372D01*
X22201237Y33135610D02*
X22296475Y33183229D01*
X22296475Y33183229D02*
X22344094Y33230848D01*
X22344094Y33230848D02*
X22391713Y33326086D01*
X22391713Y33326086D02*
X22391713Y33373705D01*
X22391713Y33373705D02*
X22344094Y33468943D01*
X22344094Y33468943D02*
X22296475Y33516562D01*
X22296475Y33516562D02*
X22201237Y33564181D01*
X22201237Y33564181D02*
X22010761Y33564181D01*
X22010761Y33564181D02*
X21915523Y33516562D01*
X21915523Y33516562D02*
X21867904Y33468943D01*
X21867904Y33468943D02*
X21820285Y33373705D01*
X21820285Y33373705D02*
X21820285Y33326086D01*
X21820285Y33326086D02*
X21867904Y33230848D01*
X21867904Y33230848D02*
X21915523Y33183229D01*
X21915523Y33183229D02*
X22010761Y33135610D01*
X22010761Y33135610D02*
X22201237Y33135610D01*
X22201237Y33135610D02*
X22296475Y33087991D01*
X22296475Y33087991D02*
X22344094Y33040372D01*
X22344094Y33040372D02*
X22391713Y32945134D01*
X22391713Y32945134D02*
X22391713Y32754658D01*
X22391713Y32754658D02*
X22344094Y32659420D01*
X22344094Y32659420D02*
X22296475Y32611800D01*
X22296475Y32611800D02*
X22201237Y32564181D01*
X22201237Y32564181D02*
X22010761Y32564181D01*
X22010761Y32564181D02*
X21915523Y32611800D01*
X21915523Y32611800D02*
X21867904Y32659420D01*
X21867904Y32659420D02*
X21820285Y32754658D01*
X21820285Y32754658D02*
X21820285Y32945134D01*
X21820285Y32945134D02*
X21867904Y33040372D01*
X21867904Y33040372D02*
X21915523Y33087991D01*
X21915523Y33087991D02*
X22010761Y33135610D01*
X47758580Y32932667D02*
X47806200Y32980286D01*
X47806200Y32980286D02*
X47853819Y33123143D01*
X47853819Y33123143D02*
X47853819Y33218381D01*
X47853819Y33218381D02*
X47806200Y33361238D01*
X47806200Y33361238D02*
X47710961Y33456476D01*
X47710961Y33456476D02*
X47615723Y33504095D01*
X47615723Y33504095D02*
X47425247Y33551714D01*
X47425247Y33551714D02*
X47282390Y33551714D01*
X47282390Y33551714D02*
X47091914Y33504095D01*
X47091914Y33504095D02*
X46996676Y33456476D01*
X46996676Y33456476D02*
X46901438Y33361238D01*
X46901438Y33361238D02*
X46853819Y33218381D01*
X46853819Y33218381D02*
X46853819Y33123143D01*
X46853819Y33123143D02*
X46901438Y32980286D01*
X46901438Y32980286D02*
X46949057Y32932667D01*
X46853819Y32599333D02*
X46853819Y31980286D01*
X46853819Y31980286D02*
X47234771Y32313619D01*
X47234771Y32313619D02*
X47234771Y32170762D01*
X47234771Y32170762D02*
X47282390Y32075524D01*
X47282390Y32075524D02*
X47330009Y32027905D01*
X47330009Y32027905D02*
X47425247Y31980286D01*
X47425247Y31980286D02*
X47663342Y31980286D01*
X47663342Y31980286D02*
X47758580Y32027905D01*
X47758580Y32027905D02*
X47806200Y32075524D01*
X47806200Y32075524D02*
X47853819Y32170762D01*
X47853819Y32170762D02*
X47853819Y32456476D01*
X47853819Y32456476D02*
X47806200Y32551714D01*
X47806200Y32551714D02*
X47758580Y32599333D01*
X16946428Y9434991D02*
X17279761Y9434991D01*
X17279761Y8911181D02*
X17279761Y9911181D01*
X17279761Y9911181D02*
X16803571Y9911181D01*
X16422618Y8911181D02*
X16422618Y9911181D01*
X15946428Y8911181D02*
X15946428Y9911181D01*
X15946428Y9911181D02*
X15708333Y9911181D01*
X15708333Y9911181D02*
X15565476Y9863562D01*
X15565476Y9863562D02*
X15470238Y9768324D01*
X15470238Y9768324D02*
X15422619Y9673086D01*
X15422619Y9673086D02*
X15375000Y9482610D01*
X15375000Y9482610D02*
X15375000Y9339753D01*
X15375000Y9339753D02*
X15422619Y9149277D01*
X15422619Y9149277D02*
X15470238Y9054039D01*
X15470238Y9054039D02*
X15565476Y8958800D01*
X15565476Y8958800D02*
X15708333Y8911181D01*
X15708333Y8911181D02*
X15946428Y8911181D01*
X14994047Y9815943D02*
X14946428Y9863562D01*
X14946428Y9863562D02*
X14851190Y9911181D01*
X14851190Y9911181D02*
X14613095Y9911181D01*
X14613095Y9911181D02*
X14517857Y9863562D01*
X14517857Y9863562D02*
X14470238Y9815943D01*
X14470238Y9815943D02*
X14422619Y9720705D01*
X14422619Y9720705D02*
X14422619Y9625467D01*
X14422619Y9625467D02*
X14470238Y9482610D01*
X14470238Y9482610D02*
X15041666Y8911181D01*
X15041666Y8911181D02*
X14422619Y8911181D01*
X28360666Y9833181D02*
X28693999Y10309372D01*
X28932094Y9833181D02*
X28932094Y10833181D01*
X28932094Y10833181D02*
X28551142Y10833181D01*
X28551142Y10833181D02*
X28455904Y10785562D01*
X28455904Y10785562D02*
X28408285Y10737943D01*
X28408285Y10737943D02*
X28360666Y10642705D01*
X28360666Y10642705D02*
X28360666Y10499848D01*
X28360666Y10499848D02*
X28408285Y10404610D01*
X28408285Y10404610D02*
X28455904Y10356991D01*
X28455904Y10356991D02*
X28551142Y10309372D01*
X28551142Y10309372D02*
X28932094Y10309372D01*
X27979713Y10737943D02*
X27932094Y10785562D01*
X27932094Y10785562D02*
X27836856Y10833181D01*
X27836856Y10833181D02*
X27598761Y10833181D01*
X27598761Y10833181D02*
X27503523Y10785562D01*
X27503523Y10785562D02*
X27455904Y10737943D01*
X27455904Y10737943D02*
X27408285Y10642705D01*
X27408285Y10642705D02*
X27408285Y10547467D01*
X27408285Y10547467D02*
X27455904Y10404610D01*
X27455904Y10404610D02*
X28027332Y9833181D01*
X28027332Y9833181D02*
X27408285Y9833181D01*
X30044819Y32805667D02*
X29568628Y33139000D01*
X30044819Y33377095D02*
X29044819Y33377095D01*
X29044819Y33377095D02*
X29044819Y32996143D01*
X29044819Y32996143D02*
X29092438Y32900905D01*
X29092438Y32900905D02*
X29140057Y32853286D01*
X29140057Y32853286D02*
X29235295Y32805667D01*
X29235295Y32805667D02*
X29378152Y32805667D01*
X29378152Y32805667D02*
X29473390Y32853286D01*
X29473390Y32853286D02*
X29521009Y32900905D01*
X29521009Y32900905D02*
X29568628Y32996143D01*
X29568628Y32996143D02*
X29568628Y33377095D01*
X29044819Y32472333D02*
X29044819Y31805667D01*
X29044819Y31805667D02*
X30044819Y32234238D01*
X17152857Y32689420D02*
X17200476Y32641800D01*
X17200476Y32641800D02*
X17343333Y32594181D01*
X17343333Y32594181D02*
X17438571Y32594181D01*
X17438571Y32594181D02*
X17581428Y32641800D01*
X17581428Y32641800D02*
X17676666Y32737039D01*
X17676666Y32737039D02*
X17724285Y32832277D01*
X17724285Y32832277D02*
X17771904Y33022753D01*
X17771904Y33022753D02*
X17771904Y33165610D01*
X17771904Y33165610D02*
X17724285Y33356086D01*
X17724285Y33356086D02*
X17676666Y33451324D01*
X17676666Y33451324D02*
X17581428Y33546562D01*
X17581428Y33546562D02*
X17438571Y33594181D01*
X17438571Y33594181D02*
X17343333Y33594181D01*
X17343333Y33594181D02*
X17200476Y33546562D01*
X17200476Y33546562D02*
X17152857Y33498943D01*
X16200476Y32594181D02*
X16771904Y32594181D01*
X16486190Y32594181D02*
X16486190Y33594181D01*
X16486190Y33594181D02*
X16581428Y33451324D01*
X16581428Y33451324D02*
X16676666Y33356086D01*
X16676666Y33356086D02*
X16771904Y33308467D01*
X15581428Y33594181D02*
X15486190Y33594181D01*
X15486190Y33594181D02*
X15390952Y33546562D01*
X15390952Y33546562D02*
X15343333Y33498943D01*
X15343333Y33498943D02*
X15295714Y33403705D01*
X15295714Y33403705D02*
X15248095Y33213229D01*
X15248095Y33213229D02*
X15248095Y32975134D01*
X15248095Y32975134D02*
X15295714Y32784658D01*
X15295714Y32784658D02*
X15343333Y32689420D01*
X15343333Y32689420D02*
X15390952Y32641800D01*
X15390952Y32641800D02*
X15486190Y32594181D01*
X15486190Y32594181D02*
X15581428Y32594181D01*
X15581428Y32594181D02*
X15676666Y32641800D01*
X15676666Y32641800D02*
X15724285Y32689420D01*
X15724285Y32689420D02*
X15771904Y32784658D01*
X15771904Y32784658D02*
X15819523Y32975134D01*
X15819523Y32975134D02*
X15819523Y33213229D01*
X15819523Y33213229D02*
X15771904Y33403705D01*
X15771904Y33403705D02*
X15724285Y33498943D01*
X15724285Y33498943D02*
X15676666Y33546562D01*
X15676666Y33546562D02*
X15581428Y33594181D01*
X56443428Y45568991D02*
X56776761Y45568991D01*
X56776761Y45045181D02*
X56776761Y46045181D01*
X56776761Y46045181D02*
X56300571Y46045181D01*
X55919618Y45045181D02*
X55919618Y46045181D01*
X55443428Y45045181D02*
X55443428Y46045181D01*
X55443428Y46045181D02*
X55205333Y46045181D01*
X55205333Y46045181D02*
X55062476Y45997562D01*
X55062476Y45997562D02*
X54967238Y45902324D01*
X54967238Y45902324D02*
X54919619Y45807086D01*
X54919619Y45807086D02*
X54872000Y45616610D01*
X54872000Y45616610D02*
X54872000Y45473753D01*
X54872000Y45473753D02*
X54919619Y45283277D01*
X54919619Y45283277D02*
X54967238Y45188039D01*
X54967238Y45188039D02*
X55062476Y45092800D01*
X55062476Y45092800D02*
X55205333Y45045181D01*
X55205333Y45045181D02*
X55443428Y45045181D01*
X53919619Y45045181D02*
X54491047Y45045181D01*
X54205333Y45045181D02*
X54205333Y46045181D01*
X54205333Y46045181D02*
X54300571Y45902324D01*
X54300571Y45902324D02*
X54395809Y45807086D01*
X54395809Y45807086D02*
X54491047Y45759467D01*
X13341580Y17152858D02*
X13389200Y17200477D01*
X13389200Y17200477D02*
X13436819Y17343334D01*
X13436819Y17343334D02*
X13436819Y17438572D01*
X13436819Y17438572D02*
X13389200Y17581429D01*
X13389200Y17581429D02*
X13293961Y17676667D01*
X13293961Y17676667D02*
X13198723Y17724286D01*
X13198723Y17724286D02*
X13008247Y17771905D01*
X13008247Y17771905D02*
X12865390Y17771905D01*
X12865390Y17771905D02*
X12674914Y17724286D01*
X12674914Y17724286D02*
X12579676Y17676667D01*
X12579676Y17676667D02*
X12484438Y17581429D01*
X12484438Y17581429D02*
X12436819Y17438572D01*
X12436819Y17438572D02*
X12436819Y17343334D01*
X12436819Y17343334D02*
X12484438Y17200477D01*
X12484438Y17200477D02*
X12532057Y17152858D01*
X13436819Y16200477D02*
X13436819Y16771905D01*
X13436819Y16486191D02*
X12436819Y16486191D01*
X12436819Y16486191D02*
X12579676Y16581429D01*
X12579676Y16581429D02*
X12674914Y16676667D01*
X12674914Y16676667D02*
X12722533Y16771905D01*
X12436819Y15343334D02*
X12436819Y15533810D01*
X12436819Y15533810D02*
X12484438Y15629048D01*
X12484438Y15629048D02*
X12532057Y15676667D01*
X12532057Y15676667D02*
X12674914Y15771905D01*
X12674914Y15771905D02*
X12865390Y15819524D01*
X12865390Y15819524D02*
X13246342Y15819524D01*
X13246342Y15819524D02*
X13341580Y15771905D01*
X13341580Y15771905D02*
X13389200Y15724286D01*
X13389200Y15724286D02*
X13436819Y15629048D01*
X13436819Y15629048D02*
X13436819Y15438572D01*
X13436819Y15438572D02*
X13389200Y15343334D01*
X13389200Y15343334D02*
X13341580Y15295715D01*
X13341580Y15295715D02*
X13246342Y15248096D01*
X13246342Y15248096D02*
X13008247Y15248096D01*
X13008247Y15248096D02*
X12913009Y15295715D01*
X12913009Y15295715D02*
X12865390Y15343334D01*
X12865390Y15343334D02*
X12817771Y15438572D01*
X12817771Y15438572D02*
X12817771Y15629048D01*
X12817771Y15629048D02*
X12865390Y15724286D01*
X12865390Y15724286D02*
X12913009Y15771905D01*
X12913009Y15771905D02*
X13008247Y15819524D01*
X16076819Y17406858D02*
X15600628Y17740191D01*
X16076819Y17978286D02*
X15076819Y17978286D01*
X15076819Y17978286D02*
X15076819Y17597334D01*
X15076819Y17597334D02*
X15124438Y17502096D01*
X15124438Y17502096D02*
X15172057Y17454477D01*
X15172057Y17454477D02*
X15267295Y17406858D01*
X15267295Y17406858D02*
X15410152Y17406858D01*
X15410152Y17406858D02*
X15505390Y17454477D01*
X15505390Y17454477D02*
X15553009Y17502096D01*
X15553009Y17502096D02*
X15600628Y17597334D01*
X15600628Y17597334D02*
X15600628Y17978286D01*
X16076819Y16454477D02*
X16076819Y17025905D01*
X16076819Y16740191D02*
X15076819Y16740191D01*
X15076819Y16740191D02*
X15219676Y16835429D01*
X15219676Y16835429D02*
X15314914Y16930667D01*
X15314914Y16930667D02*
X15362533Y17025905D01*
X15076819Y15835429D02*
X15076819Y15740191D01*
X15076819Y15740191D02*
X15124438Y15644953D01*
X15124438Y15644953D02*
X15172057Y15597334D01*
X15172057Y15597334D02*
X15267295Y15549715D01*
X15267295Y15549715D02*
X15457771Y15502096D01*
X15457771Y15502096D02*
X15695866Y15502096D01*
X15695866Y15502096D02*
X15886342Y15549715D01*
X15886342Y15549715D02*
X15981580Y15597334D01*
X15981580Y15597334D02*
X16029200Y15644953D01*
X16029200Y15644953D02*
X16076819Y15740191D01*
X16076819Y15740191D02*
X16076819Y15835429D01*
X16076819Y15835429D02*
X16029200Y15930667D01*
X16029200Y15930667D02*
X15981580Y15978286D01*
X15981580Y15978286D02*
X15886342Y16025905D01*
X15886342Y16025905D02*
X15695866Y16073524D01*
X15695866Y16073524D02*
X15457771Y16073524D01*
X15457771Y16073524D02*
X15267295Y16025905D01*
X15267295Y16025905D02*
X15172057Y15978286D01*
X15172057Y15978286D02*
X15124438Y15930667D01*
X15124438Y15930667D02*
X15076819Y15835429D01*
X13942819Y28360667D02*
X13942819Y28836857D01*
X13942819Y28836857D02*
X12942819Y28836857D01*
X13942819Y27503524D02*
X13942819Y28074952D01*
X13942819Y27789238D02*
X12942819Y27789238D01*
X12942819Y27789238D02*
X13085676Y27884476D01*
X13085676Y27884476D02*
X13180914Y27979714D01*
X13180914Y27979714D02*
X13228533Y28074952D01*
X32892904Y30734181D02*
X32892904Y29924658D01*
X32892904Y29924658D02*
X32845285Y29829420D01*
X32845285Y29829420D02*
X32797666Y29781800D01*
X32797666Y29781800D02*
X32702428Y29734181D01*
X32702428Y29734181D02*
X32511952Y29734181D01*
X32511952Y29734181D02*
X32416714Y29781800D01*
X32416714Y29781800D02*
X32369095Y29829420D01*
X32369095Y29829420D02*
X32321476Y29924658D01*
X32321476Y29924658D02*
X32321476Y30734181D01*
X31416714Y30734181D02*
X31607190Y30734181D01*
X31607190Y30734181D02*
X31702428Y30686562D01*
X31702428Y30686562D02*
X31750047Y30638943D01*
X31750047Y30638943D02*
X31845285Y30496086D01*
X31845285Y30496086D02*
X31892904Y30305610D01*
X31892904Y30305610D02*
X31892904Y29924658D01*
X31892904Y29924658D02*
X31845285Y29829420D01*
X31845285Y29829420D02*
X31797666Y29781800D01*
X31797666Y29781800D02*
X31702428Y29734181D01*
X31702428Y29734181D02*
X31511952Y29734181D01*
X31511952Y29734181D02*
X31416714Y29781800D01*
X31416714Y29781800D02*
X31369095Y29829420D01*
X31369095Y29829420D02*
X31321476Y29924658D01*
X31321476Y29924658D02*
X31321476Y30162753D01*
X31321476Y30162753D02*
X31369095Y30257991D01*
X31369095Y30257991D02*
X31416714Y30305610D01*
X31416714Y30305610D02*
X31511952Y30353229D01*
X31511952Y30353229D02*
X31702428Y30353229D01*
X31702428Y30353229D02*
X31797666Y30305610D01*
X31797666Y30305610D02*
X31845285Y30257991D01*
X31845285Y30257991D02*
X31892904Y30162753D01*
D11*
%TO.C,C2*%
X22125000Y20566748D02*
X22125000Y21089252D01*
X23595000Y20566748D02*
X23595000Y21089252D01*
%TO.C,U2*%
X39842000Y19059000D02*
X39842000Y20819000D01*
X42912000Y20819000D02*
X42912000Y18389000D01*
%TO.C,C1*%
X60774000Y24180000D02*
X60774000Y30940000D01*
X64194000Y24180000D02*
X60774000Y24180000D01*
X64194000Y30940000D02*
X64194000Y24180000D01*
%TO.C,C4*%
X55618748Y18261000D02*
X56141252Y18261000D01*
X55618748Y16791000D02*
X56141252Y16791000D01*
%TO.C,C7*%
X47497000Y22884000D02*
X47497000Y18974000D01*
X45627000Y22884000D02*
X47497000Y22884000D01*
X45627000Y18974000D02*
X45627000Y22884000D01*
%TO.C,C8*%
X24919000Y31488748D02*
X24919000Y32011252D01*
X26389000Y31488748D02*
X26389000Y32011252D01*
%TO.C,C9*%
X33535252Y35206000D02*
X33012748Y35206000D01*
X33535252Y36676000D02*
X33012748Y36676000D01*
%TO.C,C12*%
X45058000Y21470252D02*
X45058000Y20947748D01*
X43588000Y21470252D02*
X43588000Y20947748D01*
%TO.C,C13*%
X28916252Y21551000D02*
X28393748Y21551000D01*
X28916252Y23021000D02*
X28393748Y23021000D01*
%TO.C,C14*%
X35787000Y15501252D02*
X35787000Y14978748D01*
X34317000Y15501252D02*
X34317000Y14978748D01*
%TO.C,C19*%
X41140748Y16229000D02*
X41663252Y16229000D01*
X41140748Y14759000D02*
X41663252Y14759000D01*
%TO.C,D1*%
X56514000Y16100000D02*
X56514000Y10700000D01*
X53214000Y16100000D02*
X56514000Y16100000D01*
X53214000Y16100000D02*
X53214000Y10700000D01*
%TO.C,R1*%
X41121000Y26389064D02*
X41121000Y25934936D01*
X39651000Y26389064D02*
X39651000Y25934936D01*
%TO.C,R3*%
X45747000Y24918936D02*
X45747000Y25373064D01*
X47217000Y24918936D02*
X47217000Y25373064D01*
%TO.C,R4*%
X31777000Y20600936D02*
X31777000Y21055064D01*
X33247000Y20600936D02*
X33247000Y21055064D01*
%TO.C,R5*%
X40666936Y13435000D02*
X41121064Y13435000D01*
X40666936Y11965000D02*
X41121064Y11965000D01*
%TO.C,R12*%
X24411000Y20600936D02*
X24411000Y21055064D01*
X25881000Y20600936D02*
X25881000Y21055064D01*
%TO.C,R13*%
X36041064Y17553000D02*
X35586936Y17553000D01*
X36041064Y19023000D02*
X35586936Y19023000D01*
D10*
%TO.C,C21*%
X55626000Y22860000D02*
X54102000Y22860000D01*
X54102000Y22860000D02*
X54229000Y22860000D01*
X54102000Y22860000D02*
X54102000Y18796000D01*
X55626000Y18796000D02*
X55626000Y22860000D01*
X54102000Y18796000D02*
X55626000Y18796000D01*
D11*
%TO.C,M5*%
X19410000Y36600000D02*
X19410000Y38200000D01*
X19410000Y30600000D02*
X19410000Y32200000D01*
X19410000Y24600000D02*
X19410000Y26200000D01*
X19410000Y18600000D02*
X19410000Y20200000D01*
X19410000Y12600000D02*
X19410000Y14200000D01*
X22760000Y41550000D02*
X24360000Y41550000D01*
X22760000Y9250000D02*
X24360000Y9250000D01*
X28760000Y41550000D02*
X30360000Y41550000D01*
X28760000Y9250000D02*
X30360000Y9250000D01*
X34760000Y41550000D02*
X36360000Y41550000D01*
X34760000Y9250000D02*
X36360000Y9250000D01*
X40760000Y41550000D02*
X42360000Y41550000D01*
X40760000Y9250000D02*
X42360000Y9250000D01*
X46760000Y41550000D02*
X48360000Y41550000D01*
X46760000Y9250000D02*
X48360000Y9250000D01*
X51710000Y36600000D02*
X51710000Y38200000D01*
X51710000Y30600000D02*
X51710000Y32200000D01*
X51710000Y24600000D02*
X51710000Y26200000D01*
X51710000Y18600000D02*
X51710000Y20200000D01*
X51710000Y12600000D02*
X51710000Y14200000D01*
%TO.C,U5*%
X30394000Y13578000D02*
X30394000Y15378000D01*
X33614000Y15378000D02*
X33614000Y12928000D01*
%TO.C,U1*%
X26278000Y27137000D02*
X28078000Y27137000D01*
X28078000Y23917000D02*
X25628000Y23917000D01*
%TO.C,C18*%
X47471000Y33662252D02*
X47471000Y33139748D01*
X46001000Y33662252D02*
X46001000Y33139748D01*
%TO.C,C11*%
X35203000Y26370000D02*
X31293000Y26370000D01*
X35203000Y28240000D02*
X35203000Y26370000D01*
X31293000Y28240000D02*
X35203000Y28240000D01*
%TO.C,C20*%
X42933252Y31777000D02*
X42410748Y31777000D01*
X42933252Y33247000D02*
X42410748Y33247000D01*
%TO.C,R11*%
X11403064Y24665000D02*
X10948936Y24665000D01*
X11403064Y26135000D02*
X10948936Y26135000D01*
%TO.C,C5*%
X38527000Y16534000D02*
X38527000Y12624000D01*
X36657000Y16534000D02*
X38527000Y16534000D01*
X36657000Y12624000D02*
X36657000Y16534000D01*
D10*
%TO.C,U3*%
X40235000Y37489000D02*
X40235000Y37189000D01*
X40235000Y37489000D02*
X43585000Y37489000D01*
X40235000Y34364000D02*
X39010000Y34364000D01*
X40235000Y34139000D02*
X40235000Y34364000D01*
X40235000Y34139000D02*
X43585000Y34139000D01*
X43585000Y37489000D02*
X43585000Y37189000D01*
X43585000Y34139000D02*
X43585000Y34439000D01*
D11*
%TO.C,R6*%
X28421064Y16537000D02*
X27966936Y16537000D01*
X28421064Y18007000D02*
X27966936Y18007000D01*
%TO.C,U4*%
X28865000Y37211000D02*
X28865000Y37861000D01*
X28865000Y37211000D02*
X28865000Y36561000D01*
X25745000Y37211000D02*
X25745000Y38886000D01*
X25745000Y37211000D02*
X25745000Y36561000D01*
%TO.C,C6*%
X31012000Y18811000D02*
X27102000Y18811000D01*
X31012000Y20681000D02*
X31012000Y18811000D01*
X27102000Y20681000D02*
X31012000Y20681000D01*
%TO.C,C17*%
X13997000Y20566748D02*
X13997000Y21089252D01*
X15467000Y20566748D02*
X15467000Y21089252D01*
%TO.C,C15*%
X33535252Y28856000D02*
X33012748Y28856000D01*
X33535252Y30326000D02*
X33012748Y30326000D01*
%TO.C,C22*%
X24992000Y37472252D02*
X24992000Y36949748D01*
X23522000Y37472252D02*
X23522000Y36949748D01*
%TO.C,R9*%
X36856936Y26643000D02*
X37311064Y26643000D01*
X36856936Y25173000D02*
X37311064Y25173000D01*
%TO.C,R8*%
X22833064Y30634000D02*
X22378936Y30634000D01*
X22833064Y32104000D02*
X22378936Y32104000D01*
%TO.C,C3*%
X50084000Y35076000D02*
X50084000Y31166000D01*
X48214000Y35076000D02*
X50084000Y35076000D01*
X48214000Y31166000D02*
X48214000Y35076000D01*
%TO.C,R2*%
X27966936Y12673000D02*
X28421064Y12673000D01*
X27966936Y11203000D02*
X28421064Y11203000D01*
%TO.C,R7*%
X27205000Y32411936D02*
X27205000Y32866064D01*
X28675000Y32411936D02*
X28675000Y32866064D01*
%TO.C,C10*%
X16771252Y30634000D02*
X16248748Y30634000D01*
X16771252Y32104000D02*
X16248748Y32104000D01*
%TO.C,C16*%
X15667000Y18820000D02*
X15667000Y14910000D01*
X13797000Y18820000D02*
X15667000Y18820000D01*
X13797000Y14910000D02*
X13797000Y18820000D01*
%TO.C,R10*%
X18007000Y16991064D02*
X18007000Y16536936D01*
X16537000Y16991064D02*
X16537000Y16536936D01*
%TO.C,L1*%
X11378000Y27794378D02*
X11378000Y28593622D01*
X12498000Y27794378D02*
X12498000Y28593622D01*
%TO.C,U6*%
X31251000Y34199000D02*
X33011000Y34199000D01*
X33011000Y31129000D02*
X30581000Y31129000D01*
%TD*%
M02*
