%TF.GenerationSoftware,KiCad,Pcbnew,7.0.7-7.0.7~ubuntu23.04.1*%
%TF.CreationDate,2023-09-26T14:19:23+00:00*%
%TF.ProjectId,PCRD07,50435244-3037-42e6-9b69-6361645f7063,REV*%
%TF.SameCoordinates,PX6bb53e0PY7c5bf00*%
%TF.FileFunction,Copper,L1,Top*%
%TF.FilePolarity,Positive*%
%FSLAX46Y46*%
G04 Gerber Fmt 4.6, Leading zero omitted, Abs format (unit mm)*
G04 Created by KiCad (PCBNEW 7.0.7-7.0.7~ubuntu23.04.1) date 2023-09-26 14:19:23*
%MOMM*%
%LPD*%
G01*
G04 APERTURE LIST*
%TA.AperFunction,ComponentPad*%
%ADD10C,6.000000*%
%TD*%
%TA.AperFunction,ComponentPad*%
%ADD11C,2.050000*%
%TD*%
%TA.AperFunction,ComponentPad*%
%ADD12C,2.250000*%
%TD*%
%TA.AperFunction,ComponentPad*%
%ADD13R,1.524000X1.524000*%
%TD*%
%TA.AperFunction,ViaPad*%
%ADD14C,0.800000*%
%TD*%
%TA.AperFunction,Conductor*%
%ADD15C,0.700000*%
%TD*%
%TA.AperFunction,Conductor*%
%ADD16C,0.400000*%
%TD*%
%TA.AperFunction,Conductor*%
%ADD17C,0.450000*%
%TD*%
G04 APERTURE END LIST*
D10*
%TO.P,M1,1*%
%TO.N,GND*%
X10160000Y40640000D03*
%TD*%
%TO.P,M2,1*%
%TO.N,GND*%
X60960000Y40640000D03*
%TD*%
%TO.P,M3,1*%
%TO.N,GND*%
X10160000Y10160000D03*
%TD*%
%TO.P,M4,1*%
%TO.N,GND*%
X60960000Y10160000D03*
%TD*%
D11*
%TO.P,J8,1,In*%
%TO.N,Net-(J8-In)*%
X11938000Y31435000D03*
D12*
%TO.P,J8,2,Ext*%
%TO.N,GND*%
X9398000Y28895000D03*
X14478000Y28895000D03*
X9398000Y33975000D03*
X14478000Y33975000D03*
%TD*%
D13*
%TO.P,J1,1*%
%TO.N,GND*%
X63500000Y17272000D03*
%TO.P,J1,2*%
X60960000Y17272000D03*
%TO.P,J1,3*%
%TO.N,Net-(D1-K)*%
X63500000Y19812000D03*
%TO.P,J1,4*%
X60960000Y19812000D03*
%TO.P,J1,5*%
%TO.N,GND*%
X63500000Y22352000D03*
%TO.P,J1,6*%
X60960000Y22352000D03*
%TD*%
%TO.P,J2,1*%
%TO.N,GNDA*%
X25146000Y13462000D03*
%TO.P,J2,2*%
X25146000Y16002000D03*
%TD*%
%TO.P,J3,1*%
%TO.N,/#PeakDetect{slash}Trace*%
X22606000Y13462000D03*
%TO.P,J3,2*%
X22606000Y16002000D03*
%TD*%
%TO.P,J5,1*%
%TO.N,GNDA*%
X39370000Y29718000D03*
%TO.P,J5,2*%
X39370000Y32258000D03*
%TD*%
%TO.P,J6,1*%
%TO.N,/A{slash}D*%
X36830000Y29718000D03*
%TO.P,J6,2*%
X36830000Y32258000D03*
%TD*%
%TO.P,J7,1*%
%TO.N,Net-(U3-SDO)*%
X57912000Y32004000D03*
%TO.P,J7,2*%
X55372000Y32004000D03*
%TD*%
%TO.P,J10,1*%
%TO.N,Net-(U3-CONV)*%
X57912000Y26924000D03*
%TO.P,J10,2*%
X55372000Y26924000D03*
%TD*%
%TO.P,J9,1*%
%TO.N,Net-(U3-SDI)*%
X57912000Y34544000D03*
%TO.P,J9,2*%
X55372000Y34544000D03*
%TD*%
%TO.P,J4,1*%
%TO.N,Net-(U3-SCK)*%
X57912000Y29464000D03*
%TO.P,J4,2*%
X55372000Y29464000D03*
%TD*%
%TO.P,J11,1*%
%TO.N,Net-(U3-V_{REF})*%
X44704000Y29845000D03*
%TO.P,J11,2*%
%TO.N,/VCC2*%
X42164000Y29845000D03*
%TD*%
%TO.P,J12,1*%
%TO.N,GND*%
X9144000Y20828000D03*
%TO.P,J12,2*%
X11684000Y20828000D03*
%TO.P,J12,3*%
%TO.N,Net-(C16-Pad1)*%
X9144000Y18288000D03*
%TO.P,J12,4*%
X11684000Y18288000D03*
%TO.P,J12,5*%
%TO.N,GND*%
X9144000Y15748000D03*
%TO.P,J12,6*%
X11684000Y15748000D03*
%TD*%
%TO.P,J13,1*%
%TO.N,Net-(C16-Pad1)*%
X11684000Y23368000D03*
%TO.P,J13,2*%
%TO.N,Net-(J13-Pad2)*%
X9144000Y23368000D03*
%TD*%
D14*
%TO.N,VCC*%
X37846000Y24130000D03*
X44450000Y25908000D03*
X22606000Y38100000D03*
X17272000Y14224000D03*
X34214750Y20752750D03*
X49177426Y33070772D03*
X54864000Y23876000D03*
X43180000Y12700000D03*
%TO.N,GNDA*%
X35052000Y12954000D03*
X24297562Y25177763D03*
X22860000Y28956000D03*
X27813000Y28829000D03*
%TO.N,Net-(U3-CONV)*%
X41656000Y35306000D03*
%TD*%
D15*
%TO.N,VCC*%
X23876000Y38100000D02*
X37846000Y24130000D01*
X24054750Y20752750D02*
X17526000Y14224000D01*
X49177426Y30635426D02*
X49177426Y33070772D01*
X41656000Y12700000D02*
X43180000Y12700000D01*
X34214750Y20141250D02*
X41656000Y12700000D01*
X37846000Y24130000D02*
X37592000Y24130000D01*
X54864000Y23876000D02*
X46482000Y23876000D01*
X34214750Y20752750D02*
X24054750Y20752750D01*
X37846000Y24130000D02*
X42672000Y24130000D01*
X44450000Y25908000D02*
X49177426Y30635426D01*
X37592000Y24130000D02*
X34214750Y20752750D01*
X17526000Y14224000D02*
X17272000Y14224000D01*
X34214750Y20752750D02*
X34214750Y20141250D01*
X46482000Y23876000D02*
X44450000Y25908000D01*
X42672000Y24130000D02*
X44450000Y25908000D01*
X22606000Y38100000D02*
X23876000Y38100000D01*
D16*
%TO.N,GNDA*%
X22860000Y28956000D02*
X27686000Y28956000D01*
D17*
X34544000Y13462000D02*
X25146000Y13462000D01*
D16*
X27686000Y28956000D02*
X27813000Y28829000D01*
X24297562Y25177763D02*
X24297562Y27518438D01*
X24297562Y27518438D02*
X22860000Y28956000D01*
D17*
X35052000Y12954000D02*
X34544000Y13462000D01*
%TO.N,Net-(U3-CONV)*%
X55372000Y26924000D02*
X50242981Y32053019D01*
X50242981Y32053019D02*
X50242981Y33454786D01*
X48391767Y35306000D02*
X41656000Y35306000D01*
X50242981Y33454786D02*
X48391767Y35306000D01*
%TD*%
%TA.AperFunction,Conductor*%
%TO.N,GND*%
G36*
X65717621Y45435498D02*
G01*
X65764114Y45381842D01*
X65775500Y45329500D01*
X65775500Y5470500D01*
X65755498Y5402379D01*
X65701842Y5355886D01*
X65649500Y5344500D01*
X5470500Y5344500D01*
X5402379Y5364502D01*
X5355886Y5418158D01*
X5344500Y5470500D01*
X5344500Y14224000D01*
X16466435Y14224000D01*
X16486632Y14044745D01*
X16526041Y13932120D01*
X16546211Y13874478D01*
X16546212Y13874475D01*
X16642182Y13721740D01*
X16642183Y13721738D01*
X16769737Y13594184D01*
X16769739Y13594183D01*
X16922474Y13498213D01*
X16922475Y13498213D01*
X16922478Y13498211D01*
X17092745Y13438632D01*
X17272000Y13418435D01*
X17451255Y13438632D01*
X17530693Y13466429D01*
X17566105Y13472447D01*
X17566072Y13473017D01*
X17566066Y13473074D01*
X17566069Y13473075D01*
X17566057Y13473287D01*
X17569702Y13473500D01*
X17569709Y13473500D01*
X17602275Y13477307D01*
X17678797Y13484001D01*
X17678800Y13484003D01*
X17685983Y13485485D01*
X17685999Y13485408D01*
X17693131Y13486989D01*
X17693113Y13487066D01*
X17700251Y13488759D01*
X17700255Y13488759D01*
X17772423Y13515026D01*
X17845334Y13539186D01*
X17845341Y13539191D01*
X17851984Y13542287D01*
X17852017Y13542216D01*
X17858590Y13545398D01*
X17858556Y13545467D01*
X17865110Y13548759D01*
X17865114Y13548763D01*
X17865117Y13548763D01*
X17889275Y13564653D01*
X17929283Y13590965D01*
X17961969Y13611128D01*
X17994656Y13631288D01*
X17994660Y13631293D01*
X18000420Y13635845D01*
X18000469Y13635783D01*
X18006120Y13640386D01*
X18006068Y13640448D01*
X18011687Y13645165D01*
X18011696Y13645170D01*
X18064385Y13701018D01*
X21228406Y16865039D01*
X21290717Y16899064D01*
X21361532Y16893999D01*
X21418368Y16851452D01*
X21443179Y16784932D01*
X21443500Y16775943D01*
X21443500Y15208484D01*
X21458353Y15114698D01*
X21515949Y15001658D01*
X21605657Y14911950D01*
X21663253Y14882604D01*
X21718696Y14854354D01*
X21718700Y14854354D01*
X21726448Y14851836D01*
X21785055Y14811766D01*
X21812696Y14746371D01*
X21800593Y14676413D01*
X21752590Y14624105D01*
X21726460Y14612170D01*
X21718701Y14609649D01*
X21605657Y14552051D01*
X21515949Y14462343D01*
X21458355Y14349306D01*
X21458354Y14349304D01*
X21443500Y14255519D01*
X21443500Y14255516D01*
X21443500Y12668484D01*
X21458353Y12574698D01*
X21515949Y12461658D01*
X21605657Y12371950D01*
X21644299Y12352262D01*
X21718696Y12314354D01*
X21812481Y12299500D01*
X23399518Y12299501D01*
X23493304Y12314354D01*
X23606342Y12371950D01*
X23696050Y12461658D01*
X23753646Y12574696D01*
X23753647Y12574709D01*
X23756163Y12582447D01*
X23796232Y12641055D01*
X23861627Y12668697D01*
X23931585Y12656595D01*
X23983894Y12608593D01*
X23995831Y12582459D01*
X23998352Y12574699D01*
X24055949Y12461658D01*
X24145657Y12371950D01*
X24184299Y12352262D01*
X24258696Y12314354D01*
X24352481Y12299500D01*
X25939518Y12299501D01*
X26033304Y12314354D01*
X26146342Y12371950D01*
X26236050Y12461658D01*
X26293646Y12574696D01*
X26308500Y12668481D01*
X26308500Y12710500D01*
X26328502Y12778621D01*
X26382158Y12825114D01*
X26434500Y12836500D01*
X34155622Y12836500D01*
X34223743Y12816498D01*
X34270236Y12762842D01*
X34274547Y12752124D01*
X34313412Y12641055D01*
X34326211Y12604478D01*
X34326212Y12604475D01*
X34422182Y12451740D01*
X34422183Y12451738D01*
X34549737Y12324184D01*
X34549739Y12324183D01*
X34702474Y12228213D01*
X34702475Y12228213D01*
X34702478Y12228211D01*
X34872745Y12168632D01*
X35052000Y12148435D01*
X35231255Y12168632D01*
X35401522Y12228211D01*
X35554262Y12324184D01*
X35681816Y12451738D01*
X35777789Y12604478D01*
X35837368Y12774745D01*
X35857565Y12954000D01*
X35837368Y13133255D01*
X35777789Y13303522D01*
X35777787Y13303525D01*
X35777787Y13303526D01*
X35681817Y13456261D01*
X35681816Y13456263D01*
X35554262Y13583817D01*
X35554260Y13583818D01*
X35401525Y13679788D01*
X35401522Y13679789D01*
X35231260Y13739367D01*
X35231247Y13739370D01*
X35184867Y13744596D01*
X35119415Y13772101D01*
X35109883Y13780708D01*
X35044960Y13845631D01*
X35035076Y13857969D01*
X35034837Y13857771D01*
X35029783Y13863881D01*
X34979364Y13911227D01*
X34958477Y13932115D01*
X34958469Y13932122D01*
X34953023Y13936348D01*
X34948514Y13940199D01*
X34914583Y13972062D01*
X34914581Y13972063D01*
X34897157Y13981642D01*
X34880633Y13992497D01*
X34864937Y14004672D01*
X34864936Y14004673D01*
X34842592Y14014343D01*
X34822206Y14023165D01*
X34816875Y14025777D01*
X34776094Y14048196D01*
X34776090Y14048198D01*
X34756846Y14053139D01*
X34738143Y14059542D01*
X34719896Y14067438D01*
X34719893Y14067439D01*
X34673923Y14074720D01*
X34668111Y14075924D01*
X34623020Y14087500D01*
X34623019Y14087500D01*
X34603144Y14087500D01*
X34583434Y14089051D01*
X34563804Y14092160D01*
X34563803Y14092160D01*
X34517465Y14087780D01*
X34511532Y14087500D01*
X26434499Y14087500D01*
X26366378Y14107502D01*
X26319885Y14161158D01*
X26308499Y14213500D01*
X26308499Y14255517D01*
X26306616Y14267410D01*
X26293646Y14349304D01*
X26264848Y14405823D01*
X26236050Y14462343D01*
X26146342Y14552051D01*
X26033304Y14609646D01*
X26025547Y14612166D01*
X25966941Y14652239D01*
X25939303Y14717635D01*
X25951408Y14787592D01*
X25999413Y14839899D01*
X26025547Y14851834D01*
X26033297Y14854354D01*
X26033304Y14854354D01*
X26146342Y14911950D01*
X26236050Y15001658D01*
X26293646Y15114696D01*
X26308500Y15208481D01*
X26308499Y16795518D01*
X26293646Y16889304D01*
X26264848Y16945823D01*
X26236050Y17002343D01*
X26146342Y17092051D01*
X26051540Y17140354D01*
X26033304Y17149646D01*
X25939519Y17164500D01*
X25939515Y17164500D01*
X24352483Y17164500D01*
X24258697Y17149647D01*
X24145657Y17092051D01*
X24055949Y17002343D01*
X23998352Y16889302D01*
X23995833Y16881546D01*
X23955760Y16822940D01*
X23890363Y16795303D01*
X23820406Y16807410D01*
X23768100Y16855416D01*
X23756167Y16881546D01*
X23753647Y16889302D01*
X23696050Y17002343D01*
X23606342Y17092051D01*
X23511540Y17140354D01*
X23493304Y17149646D01*
X23399519Y17164500D01*
X23399516Y17164500D01*
X21832057Y17164500D01*
X21763936Y17184502D01*
X21717443Y17238158D01*
X21707339Y17308432D01*
X21736833Y17373012D01*
X21742954Y17379587D01*
X24328712Y19965345D01*
X24391025Y19999371D01*
X24417808Y20002250D01*
X33378450Y20002250D01*
X33446571Y19982248D01*
X33493064Y19928592D01*
X33496851Y19919346D01*
X33505775Y19894828D01*
X33529932Y19821924D01*
X33533035Y19815271D01*
X33532964Y19815239D01*
X33536153Y19808653D01*
X33536221Y19808687D01*
X33539511Y19802135D01*
X33581715Y19737967D01*
X33622036Y19672596D01*
X33626591Y19666836D01*
X33626529Y19666788D01*
X33631145Y19661123D01*
X33631205Y19661173D01*
X33635916Y19655559D01*
X33635917Y19655558D01*
X33635920Y19655554D01*
X33691768Y19602864D01*
X41080161Y12214472D01*
X41092133Y12200620D01*
X41106390Y12181470D01*
X41146392Y12147905D01*
X41150411Y12144222D01*
X41156224Y12138409D01*
X41156227Y12138407D01*
X41181947Y12118070D01*
X41240787Y12068697D01*
X41246914Y12064667D01*
X41246870Y12064602D01*
X41253034Y12060676D01*
X41253076Y12060742D01*
X41259321Y12056891D01*
X41259323Y12056889D01*
X41328936Y12024428D01*
X41397567Y11989960D01*
X41397568Y11989960D01*
X41397572Y11989958D01*
X41404468Y11987448D01*
X41404440Y11987373D01*
X41411337Y11984976D01*
X41411362Y11985051D01*
X41418327Y11982743D01*
X41493558Y11967210D01*
X41568278Y11949500D01*
X41575567Y11948648D01*
X41575557Y11948570D01*
X41582824Y11947828D01*
X41582831Y11947906D01*
X41590138Y11947268D01*
X41590145Y11947266D01*
X41666918Y11949500D01*
X42879691Y11949500D01*
X42921305Y11942430D01*
X43000745Y11914632D01*
X43180000Y11894435D01*
X43359255Y11914632D01*
X43529522Y11974211D01*
X43682262Y12070184D01*
X43809816Y12197738D01*
X43905789Y12350478D01*
X43965368Y12520745D01*
X43985565Y12700000D01*
X43965368Y12879255D01*
X43905789Y13049522D01*
X43905787Y13049525D01*
X43905787Y13049526D01*
X43809817Y13202261D01*
X43809816Y13202263D01*
X43682262Y13329817D01*
X43682260Y13329818D01*
X43529525Y13425788D01*
X43529522Y13425789D01*
X43438694Y13457571D01*
X43359255Y13485368D01*
X43180000Y13505565D01*
X43000745Y13485368D01*
X42946621Y13466429D01*
X42921306Y13457571D01*
X42879691Y13450500D01*
X42019057Y13450500D01*
X41950936Y13470502D01*
X41929962Y13487405D01*
X36398883Y19018484D01*
X59797500Y19018484D01*
X59812353Y18924698D01*
X59869949Y18811658D01*
X59959657Y18721950D01*
X59998299Y18702262D01*
X60072696Y18664354D01*
X60166481Y18649500D01*
X61753518Y18649501D01*
X61847304Y18664354D01*
X61960342Y18721950D01*
X62050050Y18811658D01*
X62107646Y18924696D01*
X62107647Y18924709D01*
X62110163Y18932447D01*
X62150232Y18991055D01*
X62215627Y19018697D01*
X62285585Y19006595D01*
X62337894Y18958593D01*
X62349831Y18932459D01*
X62352352Y18924699D01*
X62409949Y18811658D01*
X62499657Y18721950D01*
X62538299Y18702262D01*
X62612696Y18664354D01*
X62706481Y18649500D01*
X64293518Y18649501D01*
X64387304Y18664354D01*
X64500342Y18721950D01*
X64590050Y18811658D01*
X64647646Y18924696D01*
X64662500Y19018481D01*
X64662499Y20605518D01*
X64647646Y20699304D01*
X64618848Y20755823D01*
X64590050Y20812343D01*
X64500342Y20902051D01*
X64424502Y20940693D01*
X64387304Y20959646D01*
X64293519Y20974500D01*
X64293515Y20974500D01*
X62706483Y20974500D01*
X62612697Y20959647D01*
X62499657Y20902051D01*
X62409949Y20812343D01*
X62352352Y20699302D01*
X62349833Y20691546D01*
X62309760Y20632940D01*
X62244363Y20605303D01*
X62174406Y20617410D01*
X62122100Y20665416D01*
X62110167Y20691546D01*
X62107647Y20699302D01*
X62050050Y20812343D01*
X61960342Y20902051D01*
X61884502Y20940693D01*
X61847304Y20959646D01*
X61753519Y20974500D01*
X61753515Y20974500D01*
X60166483Y20974500D01*
X60072697Y20959647D01*
X59959657Y20902051D01*
X59869949Y20812343D01*
X59812355Y20699306D01*
X59812354Y20699304D01*
X59797500Y20605519D01*
X59797500Y20605516D01*
X59797500Y19018484D01*
X36398883Y19018484D01*
X35059462Y20357905D01*
X35025436Y20420217D01*
X35030501Y20491032D01*
X35059462Y20536095D01*
X36063522Y21540155D01*
X37816856Y23293490D01*
X37879166Y23327514D01*
X37891830Y23329599D01*
X38025255Y23344632D01*
X38104694Y23372430D01*
X38146309Y23379500D01*
X42608148Y23379500D01*
X42626407Y23378170D01*
X42631909Y23377365D01*
X42650023Y23374711D01*
X42684467Y23377725D01*
X42702027Y23379260D01*
X42707520Y23379500D01*
X42715710Y23379500D01*
X42748275Y23383307D01*
X42824797Y23390001D01*
X42824800Y23390003D01*
X42831983Y23391485D01*
X42831999Y23391408D01*
X42839131Y23392989D01*
X42839113Y23393066D01*
X42846251Y23394759D01*
X42846255Y23394759D01*
X42918423Y23421026D01*
X42991334Y23445186D01*
X42991341Y23445191D01*
X42997984Y23448287D01*
X42998017Y23448216D01*
X43004590Y23451398D01*
X43004556Y23451467D01*
X43011110Y23454759D01*
X43011114Y23454763D01*
X43011117Y23454763D01*
X43035275Y23470653D01*
X43075283Y23496965D01*
X43107969Y23517127D01*
X43140656Y23537288D01*
X43140660Y23537293D01*
X43146420Y23541845D01*
X43146469Y23541783D01*
X43152120Y23546386D01*
X43152068Y23546448D01*
X43157687Y23551165D01*
X43157696Y23551170D01*
X43210385Y23607018D01*
X43776777Y24173410D01*
X44360905Y24757537D01*
X44423217Y24791563D01*
X44494032Y24786498D01*
X44539095Y24757537D01*
X45906164Y23390468D01*
X45918136Y23376616D01*
X45932390Y23357470D01*
X45972375Y23323918D01*
X45976421Y23320211D01*
X45982223Y23314409D01*
X46007959Y23294060D01*
X46066786Y23244698D01*
X46066788Y23244697D01*
X46072920Y23240664D01*
X46072876Y23240598D01*
X46079034Y23236676D01*
X46079076Y23236742D01*
X46085323Y23232889D01*
X46154942Y23200425D01*
X46223564Y23165961D01*
X46230461Y23163451D01*
X46230433Y23163376D01*
X46237336Y23160977D01*
X46237361Y23161051D01*
X46244325Y23158743D01*
X46319564Y23143208D01*
X46319565Y23143208D01*
X46394279Y23125500D01*
X46394285Y23125500D01*
X46401568Y23124648D01*
X46401558Y23124570D01*
X46408823Y23123828D01*
X46408830Y23123906D01*
X46416137Y23123268D01*
X46416144Y23123266D01*
X46492917Y23125500D01*
X54563691Y23125500D01*
X54605305Y23118430D01*
X54684745Y23090632D01*
X54864000Y23070435D01*
X55043255Y23090632D01*
X55213522Y23150211D01*
X55366262Y23246184D01*
X55493816Y23373738D01*
X55589789Y23526478D01*
X55649368Y23696745D01*
X55669565Y23876000D01*
X55649368Y24055255D01*
X55589789Y24225522D01*
X55589787Y24225525D01*
X55589787Y24225526D01*
X55493817Y24378261D01*
X55493816Y24378263D01*
X55366262Y24505817D01*
X55366260Y24505818D01*
X55213525Y24601788D01*
X55213522Y24601789D01*
X55122694Y24633571D01*
X55043255Y24661368D01*
X54864000Y24681565D01*
X54863999Y24681565D01*
X54837926Y24678628D01*
X54684745Y24661368D01*
X54684742Y24661368D01*
X54684742Y24661367D01*
X54605306Y24633571D01*
X54563691Y24626500D01*
X46845057Y24626500D01*
X46776936Y24646502D01*
X46755962Y24663405D01*
X45600462Y25818905D01*
X45566436Y25881217D01*
X45571501Y25952032D01*
X45600462Y25997095D01*
X47626803Y28023436D01*
X49662965Y30059599D01*
X49676804Y30071559D01*
X49695956Y30085816D01*
X49729514Y30125811D01*
X49733213Y30129847D01*
X49739017Y30135649D01*
X49759366Y30161386D01*
X49808728Y30220212D01*
X49808729Y30220215D01*
X49812761Y30226343D01*
X49812827Y30226299D01*
X49816750Y30232456D01*
X49816682Y30232498D01*
X49820533Y30238742D01*
X49820535Y30238747D01*
X49820537Y30238749D01*
X49853001Y30308369D01*
X49887466Y30376993D01*
X49887466Y30376994D01*
X49887467Y30376995D01*
X49889977Y30383891D01*
X49890053Y30383864D01*
X49892450Y30390762D01*
X49892374Y30390787D01*
X49894679Y30397746D01*
X49894683Y30397753D01*
X49910218Y30472992D01*
X49927926Y30547705D01*
X49927926Y30547712D01*
X49928778Y30554993D01*
X49928856Y30554984D01*
X49929598Y30562250D01*
X49929520Y30562256D01*
X49930158Y30569563D01*
X49930160Y30569570D01*
X49927926Y30646343D01*
X49927926Y31179295D01*
X49947928Y31247415D01*
X50001584Y31293908D01*
X50071858Y31304012D01*
X50136438Y31274518D01*
X50143020Y31268390D01*
X52204248Y29207161D01*
X54172595Y27238814D01*
X54206621Y27176502D01*
X54209500Y27149719D01*
X54209500Y26130484D01*
X54224353Y26036698D01*
X54281949Y25923658D01*
X54371657Y25833950D01*
X54401185Y25818905D01*
X54484696Y25776354D01*
X54578481Y25761500D01*
X56165518Y25761501D01*
X56259304Y25776354D01*
X56372342Y25833950D01*
X56462050Y25923658D01*
X56519646Y26036696D01*
X56519647Y26036709D01*
X56522163Y26044447D01*
X56562232Y26103055D01*
X56627627Y26130697D01*
X56697585Y26118595D01*
X56749894Y26070593D01*
X56761831Y26044459D01*
X56764352Y26036699D01*
X56821949Y25923658D01*
X56911657Y25833950D01*
X56941185Y25818905D01*
X57024696Y25776354D01*
X57118481Y25761500D01*
X58705518Y25761501D01*
X58799304Y25776354D01*
X58912342Y25833950D01*
X59002050Y25923658D01*
X59059646Y26036696D01*
X59074500Y26130481D01*
X59074499Y27717518D01*
X59059646Y27811304D01*
X59030848Y27867823D01*
X59002050Y27924343D01*
X58912342Y28014051D01*
X58799304Y28071646D01*
X58791547Y28074166D01*
X58732941Y28114239D01*
X58705303Y28179635D01*
X58717408Y28249592D01*
X58765413Y28301899D01*
X58791547Y28313834D01*
X58799297Y28316354D01*
X58799304Y28316354D01*
X58912342Y28373950D01*
X59002050Y28463658D01*
X59059646Y28576696D01*
X59074500Y28670481D01*
X59074499Y30257518D01*
X59059646Y30351304D01*
X59030848Y30407823D01*
X59002050Y30464343D01*
X58912342Y30554051D01*
X58799304Y30611646D01*
X58791547Y30614166D01*
X58732941Y30654239D01*
X58705303Y30719635D01*
X58717408Y30789592D01*
X58765413Y30841899D01*
X58791547Y30853834D01*
X58799297Y30856354D01*
X58799304Y30856354D01*
X58912342Y30913950D01*
X59002050Y31003658D01*
X59059646Y31116696D01*
X59074500Y31210481D01*
X59074499Y32797518D01*
X59059646Y32891304D01*
X59030848Y32947823D01*
X59002050Y33004343D01*
X58912342Y33094051D01*
X58799304Y33151646D01*
X58791547Y33154166D01*
X58732941Y33194239D01*
X58705303Y33259635D01*
X58717408Y33329592D01*
X58765413Y33381899D01*
X58791547Y33393834D01*
X58799297Y33396354D01*
X58799304Y33396354D01*
X58912342Y33453950D01*
X59002050Y33543658D01*
X59059646Y33656696D01*
X59074500Y33750481D01*
X59074499Y35337518D01*
X59059646Y35431304D01*
X59030848Y35487823D01*
X59002050Y35544343D01*
X58912342Y35634051D01*
X58836502Y35672693D01*
X58799304Y35691646D01*
X58705519Y35706500D01*
X58705515Y35706500D01*
X57118483Y35706500D01*
X57024697Y35691647D01*
X56911657Y35634051D01*
X56821949Y35544343D01*
X56764352Y35431302D01*
X56761833Y35423546D01*
X56721760Y35364940D01*
X56656363Y35337303D01*
X56586406Y35349410D01*
X56534100Y35397416D01*
X56522167Y35423546D01*
X56519647Y35431302D01*
X56462050Y35544343D01*
X56372342Y35634051D01*
X56296502Y35672693D01*
X56259304Y35691646D01*
X56165519Y35706500D01*
X56165515Y35706500D01*
X54578483Y35706500D01*
X54484697Y35691647D01*
X54371657Y35634051D01*
X54281949Y35544343D01*
X54224355Y35431306D01*
X54224354Y35431304D01*
X54209500Y35337519D01*
X54209500Y35337516D01*
X54209500Y33750484D01*
X54224353Y33656698D01*
X54281949Y33543658D01*
X54371657Y33453950D01*
X54429252Y33424604D01*
X54484696Y33396354D01*
X54484700Y33396354D01*
X54492448Y33393836D01*
X54551055Y33353766D01*
X54578696Y33288371D01*
X54566593Y33218413D01*
X54518590Y33166105D01*
X54492460Y33154170D01*
X54484701Y33151649D01*
X54371657Y33094051D01*
X54281949Y33004343D01*
X54224355Y32891306D01*
X54224354Y32891304D01*
X54209500Y32797519D01*
X54209500Y32797516D01*
X54209500Y31210484D01*
X54224353Y31116698D01*
X54281949Y31003658D01*
X54371657Y30913950D01*
X54380607Y30909390D01*
X54484696Y30856354D01*
X54484700Y30856354D01*
X54492448Y30853836D01*
X54551055Y30813766D01*
X54578696Y30748371D01*
X54566593Y30678413D01*
X54518590Y30626105D01*
X54492460Y30614170D01*
X54484701Y30611649D01*
X54371657Y30554051D01*
X54281949Y30464343D01*
X54242918Y30387738D01*
X54224354Y30351304D01*
X54209500Y30257519D01*
X54209500Y30257516D01*
X54209500Y29275282D01*
X54189498Y29207161D01*
X54135842Y29160668D01*
X54065568Y29150564D01*
X54000988Y29180058D01*
X53994405Y29186187D01*
X50905386Y32275205D01*
X50871360Y32337517D01*
X50868481Y32364300D01*
X50868481Y33371820D01*
X50870215Y33387530D01*
X50869908Y33387559D01*
X50870654Y33395452D01*
X50868481Y33464601D01*
X50868481Y33494129D01*
X50868481Y33494136D01*
X50867618Y33500966D01*
X50867152Y33506876D01*
X50865690Y33553413D01*
X50860144Y33572498D01*
X50856135Y33591864D01*
X50853646Y33611573D01*
X50853645Y33611575D01*
X50853645Y33611578D01*
X50836507Y33654864D01*
X50834584Y33660482D01*
X50821600Y33705174D01*
X50821599Y33705177D01*
X50811480Y33722288D01*
X50802784Y33740038D01*
X50798648Y33750484D01*
X50795467Y33758518D01*
X50768102Y33796183D01*
X50764846Y33801139D01*
X50741151Y33841206D01*
X50741149Y33841208D01*
X50741148Y33841210D01*
X50727100Y33855258D01*
X50714259Y33870292D01*
X50702576Y33886372D01*
X50702575Y33886373D01*
X50666703Y33916049D01*
X50662321Y33920036D01*
X48892727Y35689631D01*
X48882843Y35701969D01*
X48882604Y35701771D01*
X48877550Y35707881D01*
X48827131Y35755227D01*
X48806244Y35776115D01*
X48806236Y35776122D01*
X48800790Y35780348D01*
X48796281Y35784199D01*
X48762350Y35816062D01*
X48762348Y35816063D01*
X48744924Y35825642D01*
X48728400Y35836497D01*
X48712704Y35848672D01*
X48712703Y35848673D01*
X48690359Y35858343D01*
X48669973Y35867165D01*
X48664642Y35869777D01*
X48623861Y35892196D01*
X48623857Y35892198D01*
X48604613Y35897139D01*
X48585910Y35903542D01*
X48567663Y35911438D01*
X48567660Y35911439D01*
X48521690Y35918720D01*
X48515878Y35919924D01*
X48470787Y35931500D01*
X48470786Y35931500D01*
X48450911Y35931500D01*
X48431201Y35933051D01*
X48411571Y35936160D01*
X48411570Y35936160D01*
X48365232Y35931780D01*
X48359299Y35931500D01*
X42201432Y35931500D01*
X42134396Y35950813D01*
X42005525Y36031788D01*
X42005522Y36031789D01*
X41835255Y36091368D01*
X41656000Y36111565D01*
X41655999Y36111565D01*
X41629926Y36108628D01*
X41476745Y36091368D01*
X41476742Y36091368D01*
X41476742Y36091367D01*
X41306477Y36031789D01*
X41306474Y36031788D01*
X41153739Y35935818D01*
X41153737Y35935817D01*
X41026183Y35808263D01*
X41026182Y35808261D01*
X40930212Y35655526D01*
X40930211Y35655523D01*
X40891308Y35544343D01*
X40870632Y35485255D01*
X40850435Y35306000D01*
X40870632Y35126745D01*
X40870633Y35126743D01*
X40930211Y34956478D01*
X40930212Y34956475D01*
X41026182Y34803740D01*
X41026183Y34803738D01*
X41153737Y34676184D01*
X41153739Y34676183D01*
X41306474Y34580213D01*
X41306475Y34580213D01*
X41306478Y34580211D01*
X41476745Y34520632D01*
X41656000Y34500435D01*
X41835255Y34520632D01*
X42005522Y34580211D01*
X42019018Y34588692D01*
X42134396Y34661187D01*
X42201432Y34680500D01*
X48080487Y34680500D01*
X48148608Y34660498D01*
X48169582Y34643595D01*
X48832073Y33981104D01*
X48866099Y33918792D01*
X48861034Y33847977D01*
X48818487Y33791141D01*
X48810015Y33785322D01*
X48675162Y33700588D01*
X48547609Y33573035D01*
X48547608Y33573033D01*
X48451638Y33420298D01*
X48451637Y33420295D01*
X48392059Y33250030D01*
X48392058Y33250027D01*
X48371861Y33070772D01*
X48392058Y32891517D01*
X48416518Y32821615D01*
X48419855Y32812078D01*
X48426926Y32770463D01*
X48426926Y30998485D01*
X48406924Y30930364D01*
X48390021Y30909390D01*
X44142260Y26661630D01*
X44105922Y26638789D01*
X44106852Y26636859D01*
X44100477Y26633790D01*
X43947739Y26537818D01*
X43947737Y26537817D01*
X43820184Y26410264D01*
X43724210Y26257520D01*
X43721139Y26251143D01*
X43719219Y26252068D01*
X43696369Y26215738D01*
X42398037Y24917405D01*
X42335725Y24883380D01*
X42308942Y24880500D01*
X38209057Y24880500D01*
X38140936Y24900502D01*
X38119962Y24917405D01*
X34112883Y28924484D01*
X35667500Y28924484D01*
X35682353Y28830698D01*
X35739949Y28717658D01*
X35829657Y28627950D01*
X35863723Y28610593D01*
X35942696Y28570354D01*
X36036481Y28555500D01*
X37623518Y28555501D01*
X37717304Y28570354D01*
X37830342Y28627950D01*
X37920050Y28717658D01*
X37977646Y28830696D01*
X37977647Y28830709D01*
X37980163Y28838447D01*
X38020232Y28897055D01*
X38085627Y28924697D01*
X38155585Y28912595D01*
X38207894Y28864593D01*
X38219831Y28838459D01*
X38222352Y28830699D01*
X38279949Y28717658D01*
X38369657Y28627950D01*
X38403723Y28610593D01*
X38482696Y28570354D01*
X38576481Y28555500D01*
X40163518Y28555501D01*
X40257304Y28570354D01*
X40370342Y28627950D01*
X40460050Y28717658D01*
X40517646Y28830696D01*
X40532500Y28924481D01*
X40532500Y29051484D01*
X41001500Y29051484D01*
X41016353Y28957698D01*
X41073949Y28844658D01*
X41163657Y28754950D01*
X41202299Y28735262D01*
X41276696Y28697354D01*
X41370481Y28682500D01*
X42957518Y28682501D01*
X43051304Y28697354D01*
X43164342Y28754950D01*
X43254050Y28844658D01*
X43311646Y28957696D01*
X43311647Y28957709D01*
X43314163Y28965447D01*
X43354232Y29024055D01*
X43419627Y29051697D01*
X43489585Y29039595D01*
X43541894Y28991593D01*
X43553831Y28965459D01*
X43556352Y28957699D01*
X43613949Y28844658D01*
X43703657Y28754950D01*
X43742299Y28735262D01*
X43816696Y28697354D01*
X43910481Y28682500D01*
X45497518Y28682501D01*
X45591304Y28697354D01*
X45704342Y28754950D01*
X45794050Y28844658D01*
X45851646Y28957696D01*
X45866500Y29051481D01*
X45866499Y30638518D01*
X45851646Y30732304D01*
X45796008Y30841500D01*
X45794050Y30845343D01*
X45704342Y30935051D01*
X45628502Y30973693D01*
X45591304Y30992646D01*
X45497519Y31007500D01*
X45497515Y31007500D01*
X43910483Y31007500D01*
X43816697Y30992647D01*
X43703657Y30935051D01*
X43613949Y30845343D01*
X43556352Y30732302D01*
X43553833Y30724546D01*
X43513760Y30665940D01*
X43448363Y30638303D01*
X43378406Y30650410D01*
X43326100Y30698416D01*
X43314167Y30724546D01*
X43311647Y30732302D01*
X43254050Y30845343D01*
X43164342Y30935051D01*
X43088502Y30973693D01*
X43051304Y30992646D01*
X42957519Y31007500D01*
X42957515Y31007500D01*
X41370483Y31007500D01*
X41276697Y30992647D01*
X41163657Y30935051D01*
X41073949Y30845343D01*
X41016355Y30732306D01*
X41016354Y30732304D01*
X41001500Y30638519D01*
X41001500Y30638516D01*
X41001500Y29051484D01*
X40532500Y29051484D01*
X40532499Y30511518D01*
X40517646Y30605304D01*
X40470203Y30698416D01*
X40460050Y30718343D01*
X40370342Y30808051D01*
X40257304Y30865646D01*
X40249547Y30868166D01*
X40190941Y30908239D01*
X40163303Y30973635D01*
X40175408Y31043592D01*
X40223413Y31095899D01*
X40249547Y31107834D01*
X40257297Y31110354D01*
X40257304Y31110354D01*
X40370342Y31167950D01*
X40460050Y31257658D01*
X40517646Y31370696D01*
X40532500Y31464481D01*
X40532499Y33051518D01*
X40517646Y33145304D01*
X40464287Y33250027D01*
X40460050Y33258343D01*
X40370342Y33348051D01*
X40280482Y33393836D01*
X40257304Y33405646D01*
X40163519Y33420500D01*
X40163515Y33420500D01*
X38576483Y33420500D01*
X38482697Y33405647D01*
X38369657Y33348051D01*
X38279949Y33258343D01*
X38222352Y33145302D01*
X38219833Y33137546D01*
X38179760Y33078940D01*
X38114363Y33051303D01*
X38044406Y33063410D01*
X37992100Y33111416D01*
X37980167Y33137546D01*
X37977647Y33145302D01*
X37920050Y33258343D01*
X37830342Y33348051D01*
X37740482Y33393836D01*
X37717304Y33405646D01*
X37623519Y33420500D01*
X37623515Y33420500D01*
X36036483Y33420500D01*
X35942697Y33405647D01*
X35829657Y33348051D01*
X35739949Y33258343D01*
X35686871Y33154170D01*
X35682354Y33145304D01*
X35667500Y33051519D01*
X35667500Y33051516D01*
X35667500Y31464484D01*
X35682353Y31370698D01*
X35739949Y31257658D01*
X35829657Y31167950D01*
X35887252Y31138604D01*
X35942696Y31110354D01*
X35942700Y31110354D01*
X35950448Y31107836D01*
X36009055Y31067766D01*
X36036696Y31002371D01*
X36024593Y30932413D01*
X35976590Y30880105D01*
X35950460Y30868170D01*
X35942701Y30865649D01*
X35829657Y30808051D01*
X35739949Y30718343D01*
X35686871Y30614170D01*
X35682354Y30605304D01*
X35667500Y30511519D01*
X35667500Y30511516D01*
X35667500Y28924484D01*
X34112883Y28924484D01*
X24451834Y38585534D01*
X24439863Y38599385D01*
X24425610Y38618530D01*
X24385614Y38652091D01*
X24381593Y38655775D01*
X24375777Y38661591D01*
X24350040Y38681941D01*
X24291216Y38731301D01*
X24285084Y38735334D01*
X24285127Y38735400D01*
X24278961Y38739328D01*
X24278920Y38739261D01*
X24272682Y38743109D01*
X24203057Y38775576D01*
X24134435Y38810039D01*
X24134434Y38810040D01*
X24134433Y38810040D01*
X24134430Y38810041D01*
X24127541Y38812548D01*
X24127567Y38812622D01*
X24120656Y38815025D01*
X24120632Y38814950D01*
X24113675Y38817256D01*
X24113673Y38817257D01*
X24113670Y38817258D01*
X24113666Y38817259D01*
X24038434Y38832793D01*
X23963719Y38850501D01*
X23956431Y38851352D01*
X23956440Y38851431D01*
X23949176Y38852173D01*
X23949170Y38852094D01*
X23941857Y38852734D01*
X23941856Y38852734D01*
X23865083Y38850500D01*
X22906309Y38850500D01*
X22864694Y38857571D01*
X22785255Y38885368D01*
X22606000Y38905565D01*
X22605999Y38905565D01*
X22579926Y38902628D01*
X22426745Y38885368D01*
X22426742Y38885368D01*
X22426742Y38885367D01*
X22256477Y38825789D01*
X22256474Y38825788D01*
X22103739Y38729818D01*
X22103737Y38729817D01*
X21976183Y38602263D01*
X21976182Y38602261D01*
X21880212Y38449526D01*
X21880211Y38449523D01*
X21880211Y38449522D01*
X21820632Y38279255D01*
X21800435Y38100000D01*
X21820632Y37920745D01*
X21820633Y37920743D01*
X21880211Y37750478D01*
X21880212Y37750475D01*
X21976182Y37597740D01*
X21976183Y37597738D01*
X22103737Y37470184D01*
X22103739Y37470183D01*
X22256474Y37374213D01*
X22256475Y37374213D01*
X22256478Y37374211D01*
X22426745Y37314632D01*
X22606000Y37294435D01*
X22785255Y37314632D01*
X22864694Y37342430D01*
X22906309Y37349500D01*
X23512942Y37349500D01*
X23581063Y37329498D01*
X23602037Y37312595D01*
X30106582Y30808050D01*
X36568537Y24346096D01*
X36602563Y24283784D01*
X36597498Y24212969D01*
X36568537Y24167906D01*
X33940787Y21540155D01*
X33878475Y21506129D01*
X33851692Y21503250D01*
X24118602Y21503250D01*
X24100343Y21504580D01*
X24076727Y21508039D01*
X24024723Y21503490D01*
X24019230Y21503250D01*
X24011037Y21503250D01*
X23978474Y21499444D01*
X23901959Y21492750D01*
X23901955Y21492750D01*
X23901953Y21492749D01*
X23901951Y21492749D01*
X23894766Y21491265D01*
X23894750Y21491341D01*
X23887608Y21489757D01*
X23887626Y21489681D01*
X23880493Y21487991D01*
X23832382Y21470481D01*
X23808326Y21461725D01*
X23735416Y21437564D01*
X23735410Y21437562D01*
X23728767Y21434464D01*
X23728734Y21434534D01*
X23722152Y21431347D01*
X23722187Y21431279D01*
X23715634Y21427989D01*
X23651458Y21385779D01*
X23586096Y21345464D01*
X23580343Y21340914D01*
X23580294Y21340975D01*
X23574627Y21336359D01*
X23574677Y21336299D01*
X23569056Y21331583D01*
X23516347Y21275715D01*
X17301144Y15060514D01*
X17238832Y15026488D01*
X17226158Y15024401D01*
X17170741Y15018157D01*
X17092745Y15009368D01*
X17092742Y15009368D01*
X17092741Y15009367D01*
X16922477Y14949789D01*
X16922474Y14949788D01*
X16769739Y14853818D01*
X16769737Y14853817D01*
X16642183Y14726263D01*
X16642182Y14726261D01*
X16546212Y14573526D01*
X16546211Y14573523D01*
X16507308Y14462343D01*
X16486632Y14403255D01*
X16466435Y14224000D01*
X5344500Y14224000D01*
X5344500Y17494484D01*
X7981500Y17494484D01*
X7996353Y17400698D01*
X8053949Y17287658D01*
X8143657Y17197950D01*
X8170051Y17184502D01*
X8256696Y17140354D01*
X8350481Y17125500D01*
X9937518Y17125501D01*
X10031304Y17140354D01*
X10144342Y17197950D01*
X10234050Y17287658D01*
X10291646Y17400696D01*
X10291647Y17400709D01*
X10294163Y17408447D01*
X10334232Y17467055D01*
X10399627Y17494697D01*
X10469585Y17482595D01*
X10521894Y17434593D01*
X10533831Y17408459D01*
X10536352Y17400699D01*
X10593949Y17287658D01*
X10683657Y17197950D01*
X10710051Y17184502D01*
X10796696Y17140354D01*
X10890481Y17125500D01*
X12477518Y17125501D01*
X12571304Y17140354D01*
X12684342Y17197950D01*
X12774050Y17287658D01*
X12831646Y17400696D01*
X12846500Y17494481D01*
X12846499Y19081518D01*
X12831646Y19175304D01*
X12802848Y19231823D01*
X12774050Y19288343D01*
X12684342Y19378051D01*
X12608502Y19416693D01*
X12571304Y19435646D01*
X12477519Y19450500D01*
X12477515Y19450500D01*
X10890483Y19450500D01*
X10796697Y19435647D01*
X10683657Y19378051D01*
X10593949Y19288343D01*
X10536352Y19175302D01*
X10533833Y19167546D01*
X10493760Y19108940D01*
X10428363Y19081303D01*
X10358406Y19093410D01*
X10306100Y19141416D01*
X10294167Y19167546D01*
X10291647Y19175302D01*
X10234050Y19288343D01*
X10144342Y19378051D01*
X10068502Y19416693D01*
X10031304Y19435646D01*
X9937519Y19450500D01*
X9937515Y19450500D01*
X8350483Y19450500D01*
X8256697Y19435647D01*
X8143657Y19378051D01*
X8053949Y19288343D01*
X7996355Y19175306D01*
X7996354Y19175304D01*
X7981500Y19081519D01*
X7981500Y19081516D01*
X7981500Y17494484D01*
X5344500Y17494484D01*
X5344500Y22574484D01*
X7981500Y22574484D01*
X7996353Y22480698D01*
X8053949Y22367658D01*
X8143657Y22277950D01*
X8182299Y22258262D01*
X8256696Y22220354D01*
X8350481Y22205500D01*
X9937518Y22205501D01*
X10031304Y22220354D01*
X10144342Y22277950D01*
X10234050Y22367658D01*
X10291646Y22480696D01*
X10291647Y22480709D01*
X10294163Y22488447D01*
X10334232Y22547055D01*
X10399627Y22574697D01*
X10469585Y22562595D01*
X10521894Y22514593D01*
X10533831Y22488459D01*
X10536352Y22480699D01*
X10593949Y22367658D01*
X10683657Y22277950D01*
X10722299Y22258262D01*
X10796696Y22220354D01*
X10890481Y22205500D01*
X12477518Y22205501D01*
X12571304Y22220354D01*
X12684342Y22277950D01*
X12774050Y22367658D01*
X12831646Y22480696D01*
X12846500Y22574481D01*
X12846499Y24161518D01*
X12831646Y24255304D01*
X12785385Y24346096D01*
X12774050Y24368343D01*
X12684342Y24458051D01*
X12590592Y24505818D01*
X12571304Y24515646D01*
X12477519Y24530500D01*
X12477515Y24530500D01*
X10890483Y24530500D01*
X10796697Y24515647D01*
X10683657Y24458051D01*
X10593949Y24368343D01*
X10536352Y24255302D01*
X10533833Y24247546D01*
X10493760Y24188940D01*
X10428363Y24161303D01*
X10358406Y24173410D01*
X10306100Y24221416D01*
X10294167Y24247546D01*
X10291647Y24255302D01*
X10234050Y24368343D01*
X10144342Y24458051D01*
X10050592Y24505818D01*
X10031304Y24515646D01*
X9937519Y24530500D01*
X9937515Y24530500D01*
X8350483Y24530500D01*
X8256697Y24515647D01*
X8143657Y24458051D01*
X8053949Y24368343D01*
X8010865Y24283784D01*
X7996354Y24255304D01*
X7982512Y24167906D01*
X7981500Y24161516D01*
X7981500Y22574484D01*
X5344500Y22574484D01*
X5344500Y28956000D01*
X22054435Y28956000D01*
X22074632Y28776745D01*
X22119071Y28649745D01*
X22134211Y28606478D01*
X22134212Y28606475D01*
X22230182Y28453740D01*
X22230183Y28453738D01*
X22357737Y28326184D01*
X22357739Y28326183D01*
X22510474Y28230213D01*
X22510475Y28230213D01*
X22510478Y28230211D01*
X22680745Y28170632D01*
X22680750Y28170632D01*
X22680752Y28170631D01*
X22705315Y28167864D01*
X22766970Y28160918D01*
X22832423Y28133416D01*
X22841959Y28124806D01*
X23660157Y27306609D01*
X23694182Y27244296D01*
X23697062Y27217513D01*
X23697062Y25760876D01*
X23677060Y25692755D01*
X23669571Y25682313D01*
X23667740Y25680018D01*
X23571774Y25527289D01*
X23571773Y25527286D01*
X23571773Y25527285D01*
X23512194Y25357018D01*
X23491997Y25177763D01*
X23512194Y24998508D01*
X23512195Y24998506D01*
X23571773Y24828241D01*
X23571774Y24828238D01*
X23667744Y24675503D01*
X23667745Y24675501D01*
X23795299Y24547947D01*
X23795301Y24547946D01*
X23948036Y24451976D01*
X23948037Y24451976D01*
X23948040Y24451974D01*
X24118307Y24392395D01*
X24297562Y24372198D01*
X24476817Y24392395D01*
X24647084Y24451974D01*
X24799824Y24547947D01*
X24927378Y24675501D01*
X25023351Y24828241D01*
X25082930Y24998508D01*
X25103127Y25177763D01*
X25082930Y25357018D01*
X25023351Y25527285D01*
X25023349Y25527288D01*
X25023349Y25527289D01*
X24927383Y25680018D01*
X24927380Y25680022D01*
X24927378Y25680025D01*
X24927375Y25680028D01*
X24925553Y25682313D01*
X24924832Y25684078D01*
X24923614Y25686017D01*
X24923953Y25686231D01*
X24898717Y25748043D01*
X24898062Y25760876D01*
X24898062Y27474944D01*
X24898602Y27483176D01*
X24903244Y27518438D01*
X24903244Y27518439D01*
X24882606Y27675199D01*
X24865078Y27717517D01*
X24822098Y27821279D01*
X24750012Y27915223D01*
X24725844Y27946720D01*
X24725843Y27946721D01*
X24697617Y27968380D01*
X24691423Y27973812D01*
X24524830Y28140405D01*
X24490804Y28202717D01*
X24495869Y28273532D01*
X24538416Y28330368D01*
X24604936Y28355179D01*
X24613925Y28355500D01*
X27102231Y28355500D01*
X27170352Y28335498D01*
X27191326Y28318595D01*
X27310737Y28199184D01*
X27310739Y28199183D01*
X27463474Y28103213D01*
X27463475Y28103213D01*
X27463478Y28103211D01*
X27633745Y28043632D01*
X27813000Y28023435D01*
X27992255Y28043632D01*
X28162522Y28103211D01*
X28315262Y28199184D01*
X28442816Y28326738D01*
X28538789Y28479478D01*
X28598368Y28649745D01*
X28618565Y28829000D01*
X28598368Y29008255D01*
X28538789Y29178522D01*
X28538787Y29178525D01*
X28538787Y29178526D01*
X28442817Y29331261D01*
X28442816Y29331263D01*
X28315262Y29458817D01*
X28315260Y29458818D01*
X28162525Y29554788D01*
X28162522Y29554789D01*
X28137424Y29563571D01*
X27992255Y29614368D01*
X27813000Y29634565D01*
X27633745Y29614368D01*
X27525531Y29576502D01*
X27488576Y29563571D01*
X27446961Y29556500D01*
X23443113Y29556500D01*
X23374992Y29576502D01*
X23364550Y29583991D01*
X23362254Y29585822D01*
X23209525Y29681788D01*
X23209522Y29681789D01*
X23209521Y29681789D01*
X23039255Y29741368D01*
X22860000Y29761565D01*
X22680745Y29741368D01*
X22680742Y29741368D01*
X22680742Y29741367D01*
X22510477Y29681789D01*
X22510474Y29681788D01*
X22357739Y29585818D01*
X22357737Y29585817D01*
X22230183Y29458263D01*
X22230182Y29458261D01*
X22134212Y29305526D01*
X22134211Y29305523D01*
X22099793Y29207161D01*
X22074632Y29135255D01*
X22054435Y28956000D01*
X5344500Y28956000D01*
X5344500Y31435000D01*
X10507615Y31435000D01*
X10526219Y31210482D01*
X10527125Y31199559D01*
X10585115Y30970559D01*
X10585118Y30970552D01*
X10680013Y30754213D01*
X10809222Y30556442D01*
X10809225Y30556439D01*
X10969227Y30382632D01*
X11155654Y30237530D01*
X11363421Y30125092D01*
X11586861Y30048384D01*
X11819880Y30009500D01*
X11819884Y30009500D01*
X12056116Y30009500D01*
X12056120Y30009500D01*
X12289139Y30048384D01*
X12512579Y30125092D01*
X12720346Y30237530D01*
X12906773Y30382632D01*
X13066775Y30556439D01*
X13068286Y30558751D01*
X13120399Y30638517D01*
X13195986Y30754212D01*
X13290883Y30970555D01*
X13348876Y31199566D01*
X13368385Y31435000D01*
X13348876Y31670434D01*
X13290883Y31899445D01*
X13195986Y32115788D01*
X13195985Y32115789D01*
X13066777Y32313559D01*
X13066772Y32313564D01*
X12906773Y32487368D01*
X12720346Y32632470D01*
X12720345Y32632471D01*
X12512578Y32744909D01*
X12512572Y32744911D01*
X12289143Y32821615D01*
X12289136Y32821617D01*
X12189409Y32838258D01*
X12056120Y32860500D01*
X11819880Y32860500D01*
X11703266Y32841041D01*
X11586863Y32821617D01*
X11586856Y32821615D01*
X11363427Y32744911D01*
X11363421Y32744909D01*
X11155654Y32632471D01*
X11155653Y32632470D01*
X10969227Y32487368D01*
X10809227Y32313564D01*
X10809222Y32313559D01*
X10680013Y32115788D01*
X10585118Y31899449D01*
X10585115Y31899442D01*
X10527125Y31670442D01*
X10527124Y31670436D01*
X10527124Y31670434D01*
X10507615Y31435000D01*
X5344500Y31435000D01*
X5344500Y45329500D01*
X5364502Y45397621D01*
X5418158Y45444114D01*
X5470500Y45455500D01*
X65649500Y45455500D01*
X65717621Y45435498D01*
G37*
%TD.AperFunction*%
%TD*%
M02*
