M48
; DRILL file {KiCad 7.0.7-7.0.7~ubuntu23.04.1} date Sun Sep 24 20:35:18 2023
; FORMAT={3:3/ absolute / metric / suppress leading zeros}
; #@! TF.CreationDate,2023-09-24T20:35:18+00:00
; #@! TF.GenerationSoftware,Kicad,Pcbnew,7.0.7-7.0.7~ubuntu23.04.1
; #@! TF.FileFunction,Plated,1,2,PTH
FMAT,2
METRIC,TZ
; #@! TA.AperFunction,Plated,PTH,ViaDrill
T1C0.400
; #@! TA.AperFunction,Plated,PTH,ComponentDrill
T2C0.889
; #@! TA.AperFunction,Plated,PTH,ComponentDrill
T3C1.500
; #@! TA.AperFunction,Plated,PTH,ComponentDrill
T4C1.700
; #@! TA.AperFunction,Plated,PTH,ComponentDrill
T5C3.000
%
G90
G05
T1
X27432Y28956
T2
X2286Y18288
X2286Y15748
X2286Y13208
X2286Y10668
X4826Y18288
X4826Y15748
X4826Y13208
X4826Y10668
X32004Y-5334
X32004Y-7874
X34544Y-5334
X34544Y-7874
X35306Y33782
X35306Y31242
X36322Y17780
X37846Y33782
X37846Y31242
X38862Y17780
X44958Y28448
X44958Y25908
X44958Y23368
X44958Y20828
X46228Y16764
X46228Y14224
X46228Y11684
X47498Y28448
X47498Y25908
X47498Y23368
X47498Y20828
X48768Y16764
X48768Y14224
X48768Y11684
T3
X4318Y26797
T4
X1778Y29337
X1778Y24257
X6858Y29337
X6858Y24257
T5
X5080Y35560
X5080Y5080
X45720Y35560
X45720Y5080
T0
M30
