M48
; DRILL file {KiCad 7.0.7-7.0.7~ubuntu23.04.1} date Tue Sep 26 14:19:23 2023
; FORMAT={3:3/ absolute / metric / suppress leading zeros}
; #@! TF.CreationDate,2023-09-26T14:19:23+00:00
; #@! TF.GenerationSoftware,Kicad,Pcbnew,7.0.7-7.0.7~ubuntu23.04.1
; #@! TF.FileFunction,Plated,1,2,PTH
FMAT,2
METRIC,TZ
; #@! TA.AperFunction,Plated,PTH,ViaDrill
T1C0.400
; #@! TA.AperFunction,Plated,PTH,ComponentDrill
T2C0.889
; #@! TA.AperFunction,Plated,PTH,ComponentDrill
T3C1.500
; #@! TA.AperFunction,Plated,PTH,ComponentDrill
T4C1.700
; #@! TA.AperFunction,Plated,PTH,ComponentDrill
T5C3.000
%
G90
G05
T1
X17272Y14224
X22606Y38100
X22860Y28956
X24298Y25178
X27813Y28829
X34215Y20753
X35052Y12954
X37846Y24130
X41656Y35306
X43180Y12700
X44450Y25908
X49177Y33071
X54864Y23876
T2
X9144Y23368
X9144Y20828
X9144Y18288
X9144Y15748
X11684Y23368
X11684Y20828
X11684Y18288
X11684Y15748
X22606Y16002
X22606Y13462
X25146Y16002
X25146Y13462
X36830Y32258
X36830Y29718
X39370Y32258
X39370Y29718
X42164Y29845
X44704Y29845
X55372Y34544
X55372Y32004
X55372Y29464
X55372Y26924
X57912Y34544
X57912Y32004
X57912Y29464
X57912Y26924
X60960Y22352
X60960Y19812
X60960Y17272
X63500Y22352
X63500Y19812
X63500Y17272
T3
X11938Y31435
T4
X9398Y33975
X9398Y28895
X14478Y33975
X14478Y28895
T5
X10160Y40640
X10160Y10160
X60960Y40640
X60960Y10160
T0
M30
