%TF.GenerationSoftware,KiCad,Pcbnew,7.0.7-7.0.7~ubuntu23.04.1*%
%TF.CreationDate,2023-09-20T22:23:43+00:00*%
%TF.ProjectId,PCRD07,50435244-3037-42e6-9b69-6361645f7063,REV*%
%TF.SameCoordinates,Original*%
%TF.FileFunction,Soldermask,Top*%
%TF.FilePolarity,Negative*%
%FSLAX46Y46*%
G04 Gerber Fmt 4.6, Leading zero omitted, Abs format (unit mm)*
G04 Created by KiCad (PCBNEW 7.0.7-7.0.7~ubuntu23.04.1) date 2023-09-20 22:23:43*
%MOMM*%
%LPD*%
G01*
G04 APERTURE LIST*
%ADD10C,6.000000*%
%ADD11C,2.050000*%
%ADD12C,2.250000*%
%ADD13R,1.524000X1.524000*%
G04 APERTURE END LIST*
D10*
%TO.C,M1*%
X5080000Y35560000D03*
%TD*%
%TO.C,M2*%
X45720000Y5080000D03*
%TD*%
%TO.C,M3*%
X45720000Y35560000D03*
%TD*%
%TO.C,M4*%
X5080000Y5080000D03*
%TD*%
D11*
%TO.C,J8*%
X4318000Y26797000D03*
D12*
X1778000Y24257000D03*
X6858000Y24257000D03*
X1778000Y29337000D03*
X6858000Y29337000D03*
%TD*%
D13*
%TO.C,J1*%
X48768000Y11684000D03*
X46228000Y11684000D03*
X48768000Y14224000D03*
X46228000Y14224000D03*
X48768000Y16764000D03*
X46228000Y16764000D03*
%TD*%
%TO.C,J2*%
X34544000Y-7874000D03*
X34544000Y-5334000D03*
%TD*%
%TO.C,J3*%
X32004000Y-7874000D03*
X32004000Y-5334000D03*
%TD*%
%TO.C,J5*%
X35306000Y31242000D03*
X37846000Y31242000D03*
%TD*%
%TO.C,J6*%
X35306000Y33782000D03*
X37846000Y33782000D03*
%TD*%
%TO.C,J7*%
X47498000Y25908000D03*
X44958000Y25908000D03*
%TD*%
%TO.C,J10*%
X44958000Y20828000D03*
X47498000Y20828000D03*
%TD*%
%TO.C,J9*%
X44958000Y23368000D03*
X47498000Y23368000D03*
%TD*%
%TO.C,J4*%
X47498000Y28448000D03*
X44958000Y28448000D03*
%TD*%
%TO.C,J11*%
X38862000Y17780000D03*
X36322000Y17780000D03*
%TD*%
%TO.C,J12*%
X2286000Y15748000D03*
X4826000Y15748000D03*
X2286000Y13208000D03*
X4826000Y13208000D03*
X2286000Y10668000D03*
X4826000Y10668000D03*
%TD*%
%TO.C,J13*%
X2286000Y18288000D03*
X4826000Y18288000D03*
%TD*%
M02*
