M48
; DRILL file {KiCad 7.0.7-7.0.7~ubuntu23.04.1} date Mon Oct  2 12:35:49 2023
; FORMAT={3:3/ absolute / metric / suppress leading zeros}
; #@! TF.CreationDate,2023-10-02T12:35:49+00:00
; #@! TF.GenerationSoftware,Kicad,Pcbnew,7.0.7-7.0.7~ubuntu23.04.1
; #@! TF.FileFunction,Plated,1,2,PTH
FMAT,2
METRIC,TZ
; #@! TA.AperFunction,Plated,PTH,ViaDrill
T1C0.400
; #@! TA.AperFunction,Plated,PTH,ComponentDrill
T2C0.889
; #@! TA.AperFunction,Plated,PTH,ComponentDrill
T3C1.500
; #@! TA.AperFunction,Plated,PTH,ComponentDrill
T4C1.700
; #@! TA.AperFunction,Plated,PTH,ComponentDrill
T5C3.000
%
G90
G05
T1
X16891Y14605
X22606Y38100
X22860Y28956
X24298Y25178
X27686Y28956
X30099Y13462
X34215Y20753
X35052Y12954
X37465Y27305
X38862Y24257
X39710Y37846
X41656Y35306
X43180Y12700
X45085Y25908
X46736Y31369
X48006Y30226
X49149Y25908
X49177Y33071
X54864Y23876
T2
X9144Y20828
X9144Y18288
X9144Y15748
X11684Y20828
X11684Y18288
X11684Y15748
X17018Y24384
X17018Y21844
X22606Y16002
X22606Y13462
X25146Y16002
X25146Y13462
X36830Y32258
X36830Y29718
X39370Y32258
X39370Y29718
X43561Y28829
X46101Y28829
X55372Y34544
X55372Y32004
X55372Y29464
X55372Y26924
X57912Y34544
X57912Y32004
X57912Y29464
X57912Y26924
X60325Y22352
X60325Y19812
X60325Y17272
X62865Y22352
X62865Y19812
X62865Y17272
T3
X11938Y31369
T4
X9398Y33909
X9398Y28829
X14478Y33909
X14478Y28829
T5
X10160Y40640
X10160Y10160
X60960Y40640
X60960Y10160
T0
M30
