%TF.GenerationSoftware,KiCad,Pcbnew,7.0.7-7.0.7~ubuntu23.04.1*%
%TF.CreationDate,2023-10-02T12:35:49+00:00*%
%TF.ProjectId,PCRD07,50435244-3037-42e6-9b69-6361645f7063,REV*%
%TF.SameCoordinates,PX6bb53e0PY7c5bf00*%
%TF.FileFunction,Soldermask,Top*%
%TF.FilePolarity,Negative*%
%FSLAX46Y46*%
G04 Gerber Fmt 4.6, Leading zero omitted, Abs format (unit mm)*
G04 Created by KiCad (PCBNEW 7.0.7-7.0.7~ubuntu23.04.1) date 2023-10-02 12:35:49*
%MOMM*%
%LPD*%
G01*
G04 APERTURE LIST*
G04 Aperture macros list*
%AMRoundRect*
0 Rectangle with rounded corners*
0 $1 Rounding radius*
0 $2 $3 $4 $5 $6 $7 $8 $9 X,Y pos of 4 corners*
0 Add a 4 corners polygon primitive as box body*
4,1,4,$2,$3,$4,$5,$6,$7,$8,$9,$2,$3,0*
0 Add four circle primitives for the rounded corners*
1,1,$1+$1,$2,$3*
1,1,$1+$1,$4,$5*
1,1,$1+$1,$6,$7*
1,1,$1+$1,$8,$9*
0 Add four rect primitives between the rounded corners*
20,1,$1+$1,$2,$3,$4,$5,0*
20,1,$1+$1,$4,$5,$6,$7,0*
20,1,$1+$1,$6,$7,$8,$9,0*
20,1,$1+$1,$8,$9,$2,$3,0*%
G04 Aperture macros list end*
%ADD10C,6.400000*%
%ADD11C,2.450000*%
%ADD12C,2.650000*%
%ADD13RoundRect,0.200000X0.762000X0.762000X-0.762000X0.762000X-0.762000X-0.762000X0.762000X-0.762000X0*%
%ADD14RoundRect,0.200000X0.762000X-0.762000X0.762000X0.762000X-0.762000X0.762000X-0.762000X-0.762000X0*%
%ADD15RoundRect,0.200000X-0.762000X-0.762000X0.762000X-0.762000X0.762000X0.762000X-0.762000X0.762000X0*%
G04 APERTURE END LIST*
D10*
%TO.C,M1*%
X10160000Y40640000D03*
%TD*%
%TO.C,M2*%
X60960000Y40640000D03*
%TD*%
%TO.C,M3*%
X10160000Y10160000D03*
%TD*%
%TO.C,M4*%
X60960000Y10160000D03*
%TD*%
D11*
%TO.C,J8*%
X11938000Y31369000D03*
D12*
X9398000Y28829000D03*
X14478000Y28829000D03*
X9398000Y33909000D03*
X14478000Y33909000D03*
%TD*%
D13*
%TO.C,J1*%
X62865000Y17272000D03*
X60325000Y17272000D03*
X62865000Y19812000D03*
X60325000Y19812000D03*
X62865000Y22352000D03*
X60325000Y22352000D03*
%TD*%
D14*
%TO.C,J2*%
X25146000Y13462000D03*
X25146000Y16002000D03*
%TD*%
%TO.C,J3*%
X22606000Y13462000D03*
X22606000Y16002000D03*
%TD*%
%TO.C,J5*%
X39370000Y29718000D03*
X39370000Y32258000D03*
%TD*%
%TO.C,J6*%
X36830000Y29718000D03*
X36830000Y32258000D03*
%TD*%
D13*
%TO.C,J7*%
X57912000Y32004000D03*
X55372000Y32004000D03*
%TD*%
%TO.C,J10*%
X57912000Y26924000D03*
X55372000Y26924000D03*
%TD*%
%TO.C,J9*%
X57912000Y34544000D03*
X55372000Y34544000D03*
%TD*%
%TO.C,J4*%
X57912000Y29464000D03*
X55372000Y29464000D03*
%TD*%
%TO.C,J11*%
X46101000Y28829000D03*
X43561000Y28829000D03*
%TD*%
D15*
%TO.C,J12*%
X9144000Y20828000D03*
X11684000Y20828000D03*
X9144000Y18288000D03*
X11684000Y18288000D03*
X9144000Y15748000D03*
X11684000Y15748000D03*
%TD*%
D14*
%TO.C,J13*%
X17018000Y21844000D03*
X17018000Y24384000D03*
%TD*%
M02*
