%TF.GenerationSoftware,KiCad,Pcbnew,7.0.7-7.0.7~ubuntu23.04.1*%
%TF.CreationDate,2023-09-10T08:55:48+00:00*%
%TF.ProjectId,PCRD07,50435244-3037-42e6-9b69-6361645f7063,REV*%
%TF.SameCoordinates,Original*%
%TF.FileFunction,Legend,Top*%
%TF.FilePolarity,Positive*%
%FSLAX46Y46*%
G04 Gerber Fmt 4.6, Leading zero omitted, Abs format (unit mm)*
G04 Created by KiCad (PCBNEW 7.0.7-7.0.7~ubuntu23.04.1) date 2023-09-10 08:55:48*
%MOMM*%
%LPD*%
G01*
G04 APERTURE LIST*
%ADD10C,0.300000*%
%ADD11C,0.050000*%
%ADD12C,0.150000*%
%ADD13R,1.524000X1.524000*%
G04 APERTURE END LIST*
D10*
X18081804Y14365489D02*
X18081804Y15108346D01*
X19381804Y14736918D02*
X18081804Y14736918D01*
X19381804Y16284536D02*
X18762757Y15851203D01*
X19381804Y15541679D02*
X18081804Y15541679D01*
X18081804Y15541679D02*
X18081804Y16036917D01*
X18081804Y16036917D02*
X18143709Y16160727D01*
X18143709Y16160727D02*
X18205614Y16222632D01*
X18205614Y16222632D02*
X18329423Y16284536D01*
X18329423Y16284536D02*
X18515138Y16284536D01*
X18515138Y16284536D02*
X18638947Y16222632D01*
X18638947Y16222632D02*
X18700852Y16160727D01*
X18700852Y16160727D02*
X18762757Y16036917D01*
X18762757Y16036917D02*
X18762757Y15541679D01*
X19010376Y16779775D02*
X19010376Y17398822D01*
X19381804Y16655965D02*
X18081804Y17089298D01*
X18081804Y17089298D02*
X19381804Y17522632D01*
X19257995Y18698822D02*
X19319900Y18636918D01*
X19319900Y18636918D02*
X19381804Y18451203D01*
X19381804Y18451203D02*
X19381804Y18327394D01*
X19381804Y18327394D02*
X19319900Y18141680D01*
X19319900Y18141680D02*
X19196090Y18017870D01*
X19196090Y18017870D02*
X19072280Y17955965D01*
X19072280Y17955965D02*
X18824661Y17894061D01*
X18824661Y17894061D02*
X18638947Y17894061D01*
X18638947Y17894061D02*
X18391328Y17955965D01*
X18391328Y17955965D02*
X18267519Y18017870D01*
X18267519Y18017870D02*
X18143709Y18141680D01*
X18143709Y18141680D02*
X18081804Y18327394D01*
X18081804Y18327394D02*
X18081804Y18451203D01*
X18081804Y18451203D02*
X18143709Y18636918D01*
X18143709Y18636918D02*
X18205614Y18698822D01*
X18700852Y19255965D02*
X18700852Y19689299D01*
X19381804Y19875013D02*
X19381804Y19255965D01*
X19381804Y19255965D02*
X18081804Y19255965D01*
X18081804Y19255965D02*
X18081804Y19875013D01*
X30867203Y27576290D02*
X30743393Y27638195D01*
X30743393Y27638195D02*
X30557679Y27638195D01*
X30557679Y27638195D02*
X30371965Y27576290D01*
X30371965Y27576290D02*
X30248155Y27452480D01*
X30248155Y27452480D02*
X30186250Y27328671D01*
X30186250Y27328671D02*
X30124346Y27081052D01*
X30124346Y27081052D02*
X30124346Y26895338D01*
X30124346Y26895338D02*
X30186250Y26647719D01*
X30186250Y26647719D02*
X30248155Y26523909D01*
X30248155Y26523909D02*
X30371965Y26400100D01*
X30371965Y26400100D02*
X30557679Y26338195D01*
X30557679Y26338195D02*
X30681488Y26338195D01*
X30681488Y26338195D02*
X30867203Y26400100D01*
X30867203Y26400100D02*
X30929107Y26462004D01*
X30929107Y26462004D02*
X30929107Y26895338D01*
X30929107Y26895338D02*
X30681488Y26895338D01*
X31486250Y26338195D02*
X31486250Y27638195D01*
X31486250Y27638195D02*
X32229107Y26338195D01*
X32229107Y26338195D02*
X32229107Y27638195D01*
X32848155Y26338195D02*
X32848155Y27638195D01*
X32848155Y27638195D02*
X33157679Y27638195D01*
X33157679Y27638195D02*
X33343393Y27576290D01*
X33343393Y27576290D02*
X33467203Y27452480D01*
X33467203Y27452480D02*
X33529108Y27328671D01*
X33529108Y27328671D02*
X33591012Y27081052D01*
X33591012Y27081052D02*
X33591012Y26895338D01*
X33591012Y26895338D02*
X33529108Y26647719D01*
X33529108Y26647719D02*
X33467203Y26523909D01*
X33467203Y26523909D02*
X33343393Y26400100D01*
X33343393Y26400100D02*
X33157679Y26338195D01*
X33157679Y26338195D02*
X32848155Y26338195D01*
X12047709Y26803203D02*
X11985804Y26679393D01*
X11985804Y26679393D02*
X11985804Y26493679D01*
X11985804Y26493679D02*
X12047709Y26307965D01*
X12047709Y26307965D02*
X12171519Y26184155D01*
X12171519Y26184155D02*
X12295328Y26122250D01*
X12295328Y26122250D02*
X12542947Y26060346D01*
X12542947Y26060346D02*
X12728661Y26060346D01*
X12728661Y26060346D02*
X12976280Y26122250D01*
X12976280Y26122250D02*
X13100090Y26184155D01*
X13100090Y26184155D02*
X13223900Y26307965D01*
X13223900Y26307965D02*
X13285804Y26493679D01*
X13285804Y26493679D02*
X13285804Y26617488D01*
X13285804Y26617488D02*
X13223900Y26803203D01*
X13223900Y26803203D02*
X13161995Y26865107D01*
X13161995Y26865107D02*
X12728661Y26865107D01*
X12728661Y26865107D02*
X12728661Y26617488D01*
X13285804Y27422250D02*
X11985804Y27422250D01*
X11985804Y27422250D02*
X13285804Y28165107D01*
X13285804Y28165107D02*
X11985804Y28165107D01*
X13285804Y28784155D02*
X11985804Y28784155D01*
X11985804Y28784155D02*
X11985804Y29093679D01*
X11985804Y29093679D02*
X12047709Y29279393D01*
X12047709Y29279393D02*
X12171519Y29403203D01*
X12171519Y29403203D02*
X12295328Y29465108D01*
X12295328Y29465108D02*
X12542947Y29527012D01*
X12542947Y29527012D02*
X12728661Y29527012D01*
X12728661Y29527012D02*
X12976280Y29465108D01*
X12976280Y29465108D02*
X13100090Y29403203D01*
X13100090Y29403203D02*
X13223900Y29279393D01*
X13223900Y29279393D02*
X13285804Y29093679D01*
X13285804Y29093679D02*
X13285804Y28784155D01*
X20683709Y17151203D02*
X20621804Y17027393D01*
X20621804Y17027393D02*
X20621804Y16841679D01*
X20621804Y16841679D02*
X20683709Y16655965D01*
X20683709Y16655965D02*
X20807519Y16532155D01*
X20807519Y16532155D02*
X20931328Y16470250D01*
X20931328Y16470250D02*
X21178947Y16408346D01*
X21178947Y16408346D02*
X21364661Y16408346D01*
X21364661Y16408346D02*
X21612280Y16470250D01*
X21612280Y16470250D02*
X21736090Y16532155D01*
X21736090Y16532155D02*
X21859900Y16655965D01*
X21859900Y16655965D02*
X21921804Y16841679D01*
X21921804Y16841679D02*
X21921804Y16965488D01*
X21921804Y16965488D02*
X21859900Y17151203D01*
X21859900Y17151203D02*
X21797995Y17213107D01*
X21797995Y17213107D02*
X21364661Y17213107D01*
X21364661Y17213107D02*
X21364661Y16965488D01*
X21921804Y17770250D02*
X20621804Y17770250D01*
X20621804Y17770250D02*
X21921804Y18513107D01*
X21921804Y18513107D02*
X20621804Y18513107D01*
X21921804Y19132155D02*
X20621804Y19132155D01*
X20621804Y19132155D02*
X20621804Y19441679D01*
X20621804Y19441679D02*
X20683709Y19627393D01*
X20683709Y19627393D02*
X20807519Y19751203D01*
X20807519Y19751203D02*
X20931328Y19813108D01*
X20931328Y19813108D02*
X21178947Y19875012D01*
X21178947Y19875012D02*
X21364661Y19875012D01*
X21364661Y19875012D02*
X21612280Y19813108D01*
X21612280Y19813108D02*
X21736090Y19751203D01*
X21736090Y19751203D02*
X21859900Y19627393D01*
X21859900Y19627393D02*
X21921804Y19441679D01*
X21921804Y19441679D02*
X21921804Y19132155D01*
X30310060Y29249623D02*
X30929107Y29249623D01*
X30186250Y28878195D02*
X30619583Y30178195D01*
X30619583Y30178195D02*
X31052917Y28878195D01*
X32414822Y30240100D02*
X31300536Y28568671D01*
X32848155Y28878195D02*
X32848155Y30178195D01*
X32848155Y30178195D02*
X33157679Y30178195D01*
X33157679Y30178195D02*
X33343393Y30116290D01*
X33343393Y30116290D02*
X33467203Y29992480D01*
X33467203Y29992480D02*
X33529108Y29868671D01*
X33529108Y29868671D02*
X33591012Y29621052D01*
X33591012Y29621052D02*
X33591012Y29435338D01*
X33591012Y29435338D02*
X33529108Y29187719D01*
X33529108Y29187719D02*
X33467203Y29063909D01*
X33467203Y29063909D02*
X33343393Y28940100D01*
X33343393Y28940100D02*
X33157679Y28878195D01*
X33157679Y28878195D02*
X32848155Y28878195D01*
X15825804Y28103202D02*
X14525804Y28103202D01*
X15825804Y28722250D02*
X14525804Y28722250D01*
X14525804Y28722250D02*
X15825804Y29465107D01*
X15825804Y29465107D02*
X14525804Y29465107D01*
X17127709Y26803203D02*
X17065804Y26679393D01*
X17065804Y26679393D02*
X17065804Y26493679D01*
X17065804Y26493679D02*
X17127709Y26307965D01*
X17127709Y26307965D02*
X17251519Y26184155D01*
X17251519Y26184155D02*
X17375328Y26122250D01*
X17375328Y26122250D02*
X17622947Y26060346D01*
X17622947Y26060346D02*
X17808661Y26060346D01*
X17808661Y26060346D02*
X18056280Y26122250D01*
X18056280Y26122250D02*
X18180090Y26184155D01*
X18180090Y26184155D02*
X18303900Y26307965D01*
X18303900Y26307965D02*
X18365804Y26493679D01*
X18365804Y26493679D02*
X18365804Y26617488D01*
X18365804Y26617488D02*
X18303900Y26803203D01*
X18303900Y26803203D02*
X18241995Y26865107D01*
X18241995Y26865107D02*
X17808661Y26865107D01*
X17808661Y26865107D02*
X17808661Y26617488D01*
X18365804Y27422250D02*
X17065804Y27422250D01*
X17065804Y27422250D02*
X18365804Y28165107D01*
X18365804Y28165107D02*
X17065804Y28165107D01*
X18365804Y28784155D02*
X17065804Y28784155D01*
X17065804Y28784155D02*
X17065804Y29093679D01*
X17065804Y29093679D02*
X17127709Y29279393D01*
X17127709Y29279393D02*
X17251519Y29403203D01*
X17251519Y29403203D02*
X17375328Y29465108D01*
X17375328Y29465108D02*
X17622947Y29527012D01*
X17622947Y29527012D02*
X17808661Y29527012D01*
X17808661Y29527012D02*
X18056280Y29465108D01*
X18056280Y29465108D02*
X18180090Y29403203D01*
X18180090Y29403203D02*
X18303900Y29279393D01*
X18303900Y29279393D02*
X18365804Y29093679D01*
X18365804Y29093679D02*
X18365804Y28784155D01*
X30867203Y32656290D02*
X30743393Y32718195D01*
X30743393Y32718195D02*
X30557679Y32718195D01*
X30557679Y32718195D02*
X30371965Y32656290D01*
X30371965Y32656290D02*
X30248155Y32532480D01*
X30248155Y32532480D02*
X30186250Y32408671D01*
X30186250Y32408671D02*
X30124346Y32161052D01*
X30124346Y32161052D02*
X30124346Y31975338D01*
X30124346Y31975338D02*
X30186250Y31727719D01*
X30186250Y31727719D02*
X30248155Y31603909D01*
X30248155Y31603909D02*
X30371965Y31480100D01*
X30371965Y31480100D02*
X30557679Y31418195D01*
X30557679Y31418195D02*
X30681488Y31418195D01*
X30681488Y31418195D02*
X30867203Y31480100D01*
X30867203Y31480100D02*
X30929107Y31542004D01*
X30929107Y31542004D02*
X30929107Y31975338D01*
X30929107Y31975338D02*
X30681488Y31975338D01*
X31486250Y31418195D02*
X31486250Y32718195D01*
X31486250Y32718195D02*
X32229107Y31418195D01*
X32229107Y31418195D02*
X32229107Y32718195D01*
X32848155Y31418195D02*
X32848155Y32718195D01*
X32848155Y32718195D02*
X33157679Y32718195D01*
X33157679Y32718195D02*
X33343393Y32656290D01*
X33343393Y32656290D02*
X33467203Y32532480D01*
X33467203Y32532480D02*
X33529108Y32408671D01*
X33529108Y32408671D02*
X33591012Y32161052D01*
X33591012Y32161052D02*
X33591012Y31975338D01*
X33591012Y31975338D02*
X33529108Y31727719D01*
X33529108Y31727719D02*
X33467203Y31603909D01*
X33467203Y31603909D02*
X33343393Y31480100D01*
X33343393Y31480100D02*
X33157679Y31418195D01*
X33157679Y31418195D02*
X32848155Y31418195D01*
X41954000Y23173671D02*
X41954000Y22102242D01*
X41954000Y22102242D02*
X41882571Y21887957D01*
X41882571Y21887957D02*
X41739714Y21745100D01*
X41739714Y21745100D02*
X41525428Y21673671D01*
X41525428Y21673671D02*
X41382571Y21673671D01*
X42596857Y22102242D02*
X43311143Y22102242D01*
X42454000Y21673671D02*
X42954000Y23173671D01*
X42954000Y23173671D02*
X43454000Y21673671D01*
X44811142Y21816528D02*
X44739714Y21745100D01*
X44739714Y21745100D02*
X44525428Y21673671D01*
X44525428Y21673671D02*
X44382571Y21673671D01*
X44382571Y21673671D02*
X44168285Y21745100D01*
X44168285Y21745100D02*
X44025428Y21887957D01*
X44025428Y21887957D02*
X43953999Y22030814D01*
X43953999Y22030814D02*
X43882571Y22316528D01*
X43882571Y22316528D02*
X43882571Y22530814D01*
X43882571Y22530814D02*
X43953999Y22816528D01*
X43953999Y22816528D02*
X44025428Y22959385D01*
X44025428Y22959385D02*
X44168285Y23102242D01*
X44168285Y23102242D02*
X44382571Y23173671D01*
X44382571Y23173671D02*
X44525428Y23173671D01*
X44525428Y23173671D02*
X44739714Y23102242D01*
X44739714Y23102242D02*
X44811142Y23030814D01*
X45453999Y21673671D02*
X45453999Y23173671D01*
X45453999Y22459385D02*
X46311142Y22459385D01*
X46311142Y21673671D02*
X46311142Y23173671D01*
X47311143Y23173671D02*
X47596857Y23173671D01*
X47596857Y23173671D02*
X47739714Y23102242D01*
X47739714Y23102242D02*
X47882571Y22959385D01*
X47882571Y22959385D02*
X47954000Y22673671D01*
X47954000Y22673671D02*
X47954000Y22173671D01*
X47954000Y22173671D02*
X47882571Y21887957D01*
X47882571Y21887957D02*
X47739714Y21745100D01*
X47739714Y21745100D02*
X47596857Y21673671D01*
X47596857Y21673671D02*
X47311143Y21673671D01*
X47311143Y21673671D02*
X47168286Y21745100D01*
X47168286Y21745100D02*
X47025428Y21887957D01*
X47025428Y21887957D02*
X46954000Y22173671D01*
X46954000Y22173671D02*
X46954000Y22673671D01*
X46954000Y22673671D02*
X47025428Y22959385D01*
X47025428Y22959385D02*
X47168286Y23102242D01*
X47168286Y23102242D02*
X47311143Y23173671D01*
X3218328Y14081714D02*
X1718328Y14081714D01*
X1718328Y14081714D02*
X1718328Y14653143D01*
X1718328Y14653143D02*
X1789757Y14796000D01*
X1789757Y14796000D02*
X1861185Y14867429D01*
X1861185Y14867429D02*
X2004042Y14938857D01*
X2004042Y14938857D02*
X2218328Y14938857D01*
X2218328Y14938857D02*
X2361185Y14867429D01*
X2361185Y14867429D02*
X2432614Y14796000D01*
X2432614Y14796000D02*
X2504042Y14653143D01*
X2504042Y14653143D02*
X2504042Y14081714D01*
X3075471Y16438857D02*
X3146900Y16367429D01*
X3146900Y16367429D02*
X3218328Y16153143D01*
X3218328Y16153143D02*
X3218328Y16010286D01*
X3218328Y16010286D02*
X3146900Y15796000D01*
X3146900Y15796000D02*
X3004042Y15653143D01*
X3004042Y15653143D02*
X2861185Y15581714D01*
X2861185Y15581714D02*
X2575471Y15510286D01*
X2575471Y15510286D02*
X2361185Y15510286D01*
X2361185Y15510286D02*
X2075471Y15581714D01*
X2075471Y15581714D02*
X1932614Y15653143D01*
X1932614Y15653143D02*
X1789757Y15796000D01*
X1789757Y15796000D02*
X1718328Y16010286D01*
X1718328Y16010286D02*
X1718328Y16153143D01*
X1718328Y16153143D02*
X1789757Y16367429D01*
X1789757Y16367429D02*
X1861185Y16438857D01*
X3218328Y17938857D02*
X2504042Y17438857D01*
X3218328Y17081714D02*
X1718328Y17081714D01*
X1718328Y17081714D02*
X1718328Y17653143D01*
X1718328Y17653143D02*
X1789757Y17796000D01*
X1789757Y17796000D02*
X1861185Y17867429D01*
X1861185Y17867429D02*
X2004042Y17938857D01*
X2004042Y17938857D02*
X2218328Y17938857D01*
X2218328Y17938857D02*
X2361185Y17867429D01*
X2361185Y17867429D02*
X2432614Y17796000D01*
X2432614Y17796000D02*
X2504042Y17653143D01*
X2504042Y17653143D02*
X2504042Y17081714D01*
X3218328Y18581714D02*
X1718328Y18581714D01*
X1718328Y18581714D02*
X1718328Y18938857D01*
X1718328Y18938857D02*
X1789757Y19153143D01*
X1789757Y19153143D02*
X1932614Y19296000D01*
X1932614Y19296000D02*
X2075471Y19367429D01*
X2075471Y19367429D02*
X2361185Y19438857D01*
X2361185Y19438857D02*
X2575471Y19438857D01*
X2575471Y19438857D02*
X2861185Y19367429D01*
X2861185Y19367429D02*
X3004042Y19296000D01*
X3004042Y19296000D02*
X3146900Y19153143D01*
X3146900Y19153143D02*
X3218328Y18938857D01*
X3218328Y18938857D02*
X3218328Y18581714D01*
X1718328Y20367429D02*
X1718328Y20510286D01*
X1718328Y20510286D02*
X1789757Y20653143D01*
X1789757Y20653143D02*
X1861185Y20724572D01*
X1861185Y20724572D02*
X2004042Y20796000D01*
X2004042Y20796000D02*
X2289757Y20867429D01*
X2289757Y20867429D02*
X2646900Y20867429D01*
X2646900Y20867429D02*
X2932614Y20796000D01*
X2932614Y20796000D02*
X3075471Y20724572D01*
X3075471Y20724572D02*
X3146900Y20653143D01*
X3146900Y20653143D02*
X3218328Y20510286D01*
X3218328Y20510286D02*
X3218328Y20367429D01*
X3218328Y20367429D02*
X3146900Y20224572D01*
X3146900Y20224572D02*
X3075471Y20153143D01*
X3075471Y20153143D02*
X2932614Y20081714D01*
X2932614Y20081714D02*
X2646900Y20010286D01*
X2646900Y20010286D02*
X2289757Y20010286D01*
X2289757Y20010286D02*
X2004042Y20081714D01*
X2004042Y20081714D02*
X1861185Y20153143D01*
X1861185Y20153143D02*
X1789757Y20224572D01*
X1789757Y20224572D02*
X1718328Y20367429D01*
X1718328Y22153143D02*
X1718328Y21867428D01*
X1718328Y21867428D02*
X1789757Y21724571D01*
X1789757Y21724571D02*
X1861185Y21653143D01*
X1861185Y21653143D02*
X2075471Y21510285D01*
X2075471Y21510285D02*
X2361185Y21438857D01*
X2361185Y21438857D02*
X2932614Y21438857D01*
X2932614Y21438857D02*
X3075471Y21510285D01*
X3075471Y21510285D02*
X3146900Y21581714D01*
X3146900Y21581714D02*
X3218328Y21724571D01*
X3218328Y21724571D02*
X3218328Y22010285D01*
X3218328Y22010285D02*
X3146900Y22153143D01*
X3146900Y22153143D02*
X3075471Y22224571D01*
X3075471Y22224571D02*
X2932614Y22296000D01*
X2932614Y22296000D02*
X2575471Y22296000D01*
X2575471Y22296000D02*
X2432614Y22224571D01*
X2432614Y22224571D02*
X2361185Y22153143D01*
X2361185Y22153143D02*
X2289757Y22010285D01*
X2289757Y22010285D02*
X2289757Y21724571D01*
X2289757Y21724571D02*
X2361185Y21581714D01*
X2361185Y21581714D02*
X2432614Y21510285D01*
X2432614Y21510285D02*
X2575471Y21438857D01*
X2789757Y22867428D02*
X2789757Y23581714D01*
X3218328Y22724571D02*
X1718328Y23224571D01*
X1718328Y23224571D02*
X3218328Y23724571D01*
X5758328Y14474571D02*
X4258328Y14474571D01*
X4258328Y14474571D02*
X5329757Y14974571D01*
X5329757Y14974571D02*
X4258328Y15474571D01*
X4258328Y15474571D02*
X5758328Y15474571D01*
X5758328Y16903143D02*
X5758328Y16188857D01*
X5758328Y16188857D02*
X4258328Y16188857D01*
X5329757Y17331715D02*
X5329757Y18046001D01*
X5758328Y17188858D02*
X4258328Y17688858D01*
X4258328Y17688858D02*
X5758328Y18188858D01*
X4972614Y19188857D02*
X5044042Y19403143D01*
X5044042Y19403143D02*
X5115471Y19474572D01*
X5115471Y19474572D02*
X5258328Y19546000D01*
X5258328Y19546000D02*
X5472614Y19546000D01*
X5472614Y19546000D02*
X5615471Y19474572D01*
X5615471Y19474572D02*
X5686900Y19403143D01*
X5686900Y19403143D02*
X5758328Y19260286D01*
X5758328Y19260286D02*
X5758328Y18688857D01*
X5758328Y18688857D02*
X4258328Y18688857D01*
X4258328Y18688857D02*
X4258328Y19188857D01*
X4258328Y19188857D02*
X4329757Y19331715D01*
X4329757Y19331715D02*
X4401185Y19403143D01*
X4401185Y19403143D02*
X4544042Y19474572D01*
X4544042Y19474572D02*
X4686900Y19474572D01*
X4686900Y19474572D02*
X4829757Y19403143D01*
X4829757Y19403143D02*
X4901185Y19331715D01*
X4901185Y19331715D02*
X4972614Y19188857D01*
X4972614Y19188857D02*
X4972614Y18688857D01*
X5615471Y20188857D02*
X5686900Y20260286D01*
X5686900Y20260286D02*
X5758328Y20188857D01*
X5758328Y20188857D02*
X5686900Y20117429D01*
X5686900Y20117429D02*
X5615471Y20188857D01*
X5615471Y20188857D02*
X5758328Y20188857D01*
X5615471Y21760286D02*
X5686900Y21688858D01*
X5686900Y21688858D02*
X5758328Y21474572D01*
X5758328Y21474572D02*
X5758328Y21331715D01*
X5758328Y21331715D02*
X5686900Y21117429D01*
X5686900Y21117429D02*
X5544042Y20974572D01*
X5544042Y20974572D02*
X5401185Y20903143D01*
X5401185Y20903143D02*
X5115471Y20831715D01*
X5115471Y20831715D02*
X4901185Y20831715D01*
X4901185Y20831715D02*
X4615471Y20903143D01*
X4615471Y20903143D02*
X4472614Y20974572D01*
X4472614Y20974572D02*
X4329757Y21117429D01*
X4329757Y21117429D02*
X4258328Y21331715D01*
X4258328Y21331715D02*
X4258328Y21474572D01*
X4258328Y21474572D02*
X4329757Y21688858D01*
X4329757Y21688858D02*
X4401185Y21760286D01*
X4258328Y22260286D02*
X4258328Y23260286D01*
X4258328Y23260286D02*
X5758328Y22260286D01*
X5758328Y22260286D02*
X5758328Y23260286D01*
X30966828Y7711713D02*
X29466828Y7711713D01*
X29466828Y7711713D02*
X29466828Y8283142D01*
X29466828Y8283142D02*
X29538257Y8425999D01*
X29538257Y8425999D02*
X29609685Y8497428D01*
X29609685Y8497428D02*
X29752542Y8568856D01*
X29752542Y8568856D02*
X29966828Y8568856D01*
X29966828Y8568856D02*
X30109685Y8497428D01*
X30109685Y8497428D02*
X30181114Y8425999D01*
X30181114Y8425999D02*
X30252542Y8283142D01*
X30252542Y8283142D02*
X30252542Y7711713D01*
X29466828Y9497428D02*
X29466828Y9783142D01*
X29466828Y9783142D02*
X29538257Y9925999D01*
X29538257Y9925999D02*
X29681114Y10068856D01*
X29681114Y10068856D02*
X29966828Y10140285D01*
X29966828Y10140285D02*
X30466828Y10140285D01*
X30466828Y10140285D02*
X30752542Y10068856D01*
X30752542Y10068856D02*
X30895400Y9925999D01*
X30895400Y9925999D02*
X30966828Y9783142D01*
X30966828Y9783142D02*
X30966828Y9497428D01*
X30966828Y9497428D02*
X30895400Y9354571D01*
X30895400Y9354571D02*
X30752542Y9211713D01*
X30752542Y9211713D02*
X30466828Y9140285D01*
X30466828Y9140285D02*
X29966828Y9140285D01*
X29966828Y9140285D02*
X29681114Y9211713D01*
X29681114Y9211713D02*
X29538257Y9354571D01*
X29538257Y9354571D02*
X29466828Y9497428D01*
X29466828Y10640285D02*
X30966828Y10997428D01*
X30966828Y10997428D02*
X29895400Y11283142D01*
X29895400Y11283142D02*
X30966828Y11568857D01*
X30966828Y11568857D02*
X29466828Y11926000D01*
X30181114Y12497428D02*
X30181114Y12997428D01*
X30966828Y13211714D02*
X30966828Y12497428D01*
X30966828Y12497428D02*
X29466828Y12497428D01*
X29466828Y12497428D02*
X29466828Y13211714D01*
X30966828Y14711714D02*
X30252542Y14211714D01*
X30966828Y13854571D02*
X29466828Y13854571D01*
X29466828Y13854571D02*
X29466828Y14426000D01*
X29466828Y14426000D02*
X29538257Y14568857D01*
X29538257Y14568857D02*
X29609685Y14640286D01*
X29609685Y14640286D02*
X29752542Y14711714D01*
X29752542Y14711714D02*
X29966828Y14711714D01*
X29966828Y14711714D02*
X30109685Y14640286D01*
X30109685Y14640286D02*
X30181114Y14568857D01*
X30181114Y14568857D02*
X30252542Y14426000D01*
X30252542Y14426000D02*
X30252542Y13854571D01*
X33381828Y6318857D02*
X31881828Y6318857D01*
X31881828Y6318857D02*
X32953257Y6818857D01*
X32953257Y6818857D02*
X31881828Y7318857D01*
X31881828Y7318857D02*
X33381828Y7318857D01*
X32953257Y7961715D02*
X32953257Y8676001D01*
X33381828Y7818858D02*
X31881828Y8318858D01*
X31881828Y8318858D02*
X33381828Y8818858D01*
X31881828Y9176000D02*
X33381828Y10176000D01*
X31881828Y10176000D02*
X33381828Y9176000D01*
X31881828Y11747428D02*
X31881828Y12676000D01*
X31881828Y12676000D02*
X32453257Y12176000D01*
X32453257Y12176000D02*
X32453257Y12390285D01*
X32453257Y12390285D02*
X32524685Y12533143D01*
X32524685Y12533143D02*
X32596114Y12604571D01*
X32596114Y12604571D02*
X32738971Y12676000D01*
X32738971Y12676000D02*
X33096114Y12676000D01*
X33096114Y12676000D02*
X33238971Y12604571D01*
X33238971Y12604571D02*
X33310400Y12533143D01*
X33310400Y12533143D02*
X33381828Y12390285D01*
X33381828Y12390285D02*
X33381828Y11961714D01*
X33381828Y11961714D02*
X33310400Y11818857D01*
X33310400Y11818857D02*
X33238971Y11747428D01*
X33310400Y13390285D02*
X33381828Y13390285D01*
X33381828Y13390285D02*
X33524685Y13318856D01*
X33524685Y13318856D02*
X33596114Y13247428D01*
X31881828Y13890285D02*
X31881828Y14818857D01*
X31881828Y14818857D02*
X32453257Y14318857D01*
X32453257Y14318857D02*
X32453257Y14533142D01*
X32453257Y14533142D02*
X32524685Y14676000D01*
X32524685Y14676000D02*
X32596114Y14747428D01*
X32596114Y14747428D02*
X32738971Y14818857D01*
X32738971Y14818857D02*
X33096114Y14818857D01*
X33096114Y14818857D02*
X33238971Y14747428D01*
X33238971Y14747428D02*
X33310400Y14676000D01*
X33310400Y14676000D02*
X33381828Y14533142D01*
X33381828Y14533142D02*
X33381828Y14104571D01*
X33381828Y14104571D02*
X33310400Y13961714D01*
X33310400Y13961714D02*
X33238971Y13890285D01*
X31881828Y15247428D02*
X33381828Y15747428D01*
X33381828Y15747428D02*
X31881828Y16247428D01*
X42132572Y19982814D02*
X42204000Y20054242D01*
X42204000Y20054242D02*
X42346858Y20125671D01*
X42346858Y20125671D02*
X42704000Y20125671D01*
X42704000Y20125671D02*
X42846858Y20054242D01*
X42846858Y20054242D02*
X42918286Y19982814D01*
X42918286Y19982814D02*
X42989715Y19839957D01*
X42989715Y19839957D02*
X42989715Y19697100D01*
X42989715Y19697100D02*
X42918286Y19482814D01*
X42918286Y19482814D02*
X42061143Y18625671D01*
X42061143Y18625671D02*
X42989715Y18625671D01*
X43918286Y20125671D02*
X44061143Y20125671D01*
X44061143Y20125671D02*
X44204000Y20054242D01*
X44204000Y20054242D02*
X44275429Y19982814D01*
X44275429Y19982814D02*
X44346857Y19839957D01*
X44346857Y19839957D02*
X44418286Y19554242D01*
X44418286Y19554242D02*
X44418286Y19197100D01*
X44418286Y19197100D02*
X44346857Y18911385D01*
X44346857Y18911385D02*
X44275429Y18768528D01*
X44275429Y18768528D02*
X44204000Y18697100D01*
X44204000Y18697100D02*
X44061143Y18625671D01*
X44061143Y18625671D02*
X43918286Y18625671D01*
X43918286Y18625671D02*
X43775429Y18697100D01*
X43775429Y18697100D02*
X43704000Y18768528D01*
X43704000Y18768528D02*
X43632571Y18911385D01*
X43632571Y18911385D02*
X43561143Y19197100D01*
X43561143Y19197100D02*
X43561143Y19554242D01*
X43561143Y19554242D02*
X43632571Y19839957D01*
X43632571Y19839957D02*
X43704000Y19982814D01*
X43704000Y19982814D02*
X43775429Y20054242D01*
X43775429Y20054242D02*
X43918286Y20125671D01*
X45846857Y18625671D02*
X44989714Y18625671D01*
X45418285Y18625671D02*
X45418285Y20125671D01*
X45418285Y20125671D02*
X45275428Y19911385D01*
X45275428Y19911385D02*
X45132571Y19768528D01*
X45132571Y19768528D02*
X44989714Y19697100D01*
X46561142Y18625671D02*
X46846856Y18625671D01*
X46846856Y18625671D02*
X46989713Y18697100D01*
X46989713Y18697100D02*
X47061142Y18768528D01*
X47061142Y18768528D02*
X47203999Y18982814D01*
X47203999Y18982814D02*
X47275428Y19268528D01*
X47275428Y19268528D02*
X47275428Y19839957D01*
X47275428Y19839957D02*
X47203999Y19982814D01*
X47203999Y19982814D02*
X47132571Y20054242D01*
X47132571Y20054242D02*
X46989713Y20125671D01*
X46989713Y20125671D02*
X46703999Y20125671D01*
X46703999Y20125671D02*
X46561142Y20054242D01*
X46561142Y20054242D02*
X46489713Y19982814D01*
X46489713Y19982814D02*
X46418285Y19839957D01*
X46418285Y19839957D02*
X46418285Y19482814D01*
X46418285Y19482814D02*
X46489713Y19339957D01*
X46489713Y19339957D02*
X46561142Y19268528D01*
X46561142Y19268528D02*
X46703999Y19197100D01*
X46703999Y19197100D02*
X46989713Y19197100D01*
X46989713Y19197100D02*
X47132571Y19268528D01*
X47132571Y19268528D02*
X47203999Y19339957D01*
X47203999Y19339957D02*
X47275428Y19482814D01*
D11*
X12928709Y29733857D02*
X12928709Y29448143D01*
X12928709Y29591000D02*
X12428709Y29591000D01*
X12428709Y29591000D02*
X12500138Y29543381D01*
X12500138Y29543381D02*
X12547757Y29495762D01*
X12547757Y29495762D02*
X12571566Y29448143D01*
X39639857Y8407290D02*
X39354143Y8407290D01*
X39497000Y8407290D02*
X39497000Y8907290D01*
X39497000Y8907290D02*
X39449381Y8835861D01*
X39449381Y8835861D02*
X39401762Y8788242D01*
X39401762Y8788242D02*
X39354143Y8764433D01*
D12*
%TO.C,J8*%
X11430000Y29972000D02*
X11430000Y35052000D01*
X19050000Y29972000D02*
X11430000Y29972000D01*
X11430000Y35052000D02*
X19050000Y35052000D01*
X19050000Y35052000D02*
X19050000Y29972000D01*
%TO.C,J1*%
X39116000Y7366000D02*
X34036000Y7366000D01*
X39116000Y14986000D02*
X39116000Y7366000D01*
X34036000Y7366000D02*
X34036000Y14986000D01*
X34036000Y14986000D02*
X39116000Y14986000D01*
%TO.C,J2*%
X34036000Y33274000D02*
X39116000Y33274000D01*
X34036000Y30734000D02*
X34036000Y33274000D01*
X39116000Y33274000D02*
X39116000Y30734000D01*
X39116000Y30734000D02*
X34036000Y30734000D01*
%TO.C,J3*%
X17526000Y20320000D02*
X17526000Y25400000D01*
X20066000Y20320000D02*
X17526000Y20320000D01*
X17526000Y25400000D02*
X20066000Y25400000D01*
X20066000Y25400000D02*
X20066000Y20320000D01*
%TO.C,J5*%
X34036000Y28194000D02*
X39116000Y28194000D01*
X34036000Y25654000D02*
X34036000Y28194000D01*
X39116000Y28194000D02*
X39116000Y25654000D01*
X39116000Y25654000D02*
X34036000Y25654000D01*
%TO.C,J6*%
X34036000Y30734000D02*
X39116000Y30734000D01*
X34036000Y28194000D02*
X34036000Y30734000D01*
X39116000Y30734000D02*
X39116000Y28194000D01*
X39116000Y28194000D02*
X34036000Y28194000D01*
%TO.C,J7*%
X20066000Y20320000D02*
X20066000Y25400000D01*
X22606000Y20320000D02*
X20066000Y20320000D01*
X20066000Y25400000D02*
X22606000Y25400000D01*
X22606000Y25400000D02*
X22606000Y20320000D01*
%TD*%
D13*
%TO.C,J8*%
X12700000Y31242000D03*
X12700000Y33782000D03*
X15240000Y31242000D03*
X15240000Y33782000D03*
X17780000Y31242000D03*
X17780000Y33782000D03*
%TD*%
%TO.C,J1*%
X37846000Y8636000D03*
X35306000Y8636000D03*
X37846000Y11176000D03*
X35306000Y11176000D03*
X37846000Y13716000D03*
X35306000Y13716000D03*
%TD*%
%TO.C,J2*%
X35306000Y32004000D03*
X37846000Y32004000D03*
%TD*%
%TO.C,J3*%
X18796000Y21590000D03*
X18796000Y24130000D03*
%TD*%
%TO.C,J5*%
X35306000Y26924000D03*
X37846000Y26924000D03*
%TD*%
%TO.C,J6*%
X35306000Y29464000D03*
X37846000Y29464000D03*
%TD*%
%TO.C,J7*%
X21336000Y21590000D03*
X21336000Y24130000D03*
%TD*%
M02*
