%TF.GenerationSoftware,KiCad,Pcbnew,7.0.7-7.0.7~ubuntu23.04.1*%
%TF.CreationDate,2023-09-10T17:25:27+00:00*%
%TF.ProjectId,PCRD07,50435244-3037-42e6-9b69-6361645f7063,REV*%
%TF.SameCoordinates,Original*%
%TF.FileFunction,Copper,L2,Bot*%
%TF.FilePolarity,Positive*%
%FSLAX46Y46*%
G04 Gerber Fmt 4.6, Leading zero omitted, Abs format (unit mm)*
G04 Created by KiCad (PCBNEW 7.0.7-7.0.7~ubuntu23.04.1) date 2023-09-10 17:25:27*
%MOMM*%
%LPD*%
G01*
G04 APERTURE LIST*
%ADD10C,0.300000*%
%TA.AperFunction,NonConductor*%
%ADD11C,0.300000*%
%TD*%
%TA.AperFunction,ComponentPad*%
%ADD12C,6.000000*%
%TD*%
%TA.AperFunction,ComponentPad*%
%ADD13R,1.524000X1.524000*%
%TD*%
%TA.AperFunction,SMDPad,CuDef*%
%ADD14R,0.889000X1.397000*%
%TD*%
%TA.AperFunction,SMDPad,CuDef*%
%ADD15R,0.650000X2.000000*%
%TD*%
%TA.AperFunction,SMDPad,CuDef*%
%ADD16R,2.550160X2.499360*%
%TD*%
%TA.AperFunction,SMDPad,CuDef*%
%ADD17R,1.800000X2.500000*%
%TD*%
%TA.AperFunction,SMDPad,CuDef*%
%ADD18R,1.397000X0.889000*%
%TD*%
%TA.AperFunction,SMDPad,CuDef*%
%ADD19R,1.300000X1.500000*%
%TD*%
%TA.AperFunction,SMDPad,CuDef*%
%ADD20R,0.700000X3.000000*%
%TD*%
%TA.AperFunction,SMDPad,CuDef*%
%ADD21R,1.000000X1.000000*%
%TD*%
%TA.AperFunction,SMDPad,CuDef*%
%ADD22R,1.000000X2.300000*%
%TD*%
%TA.AperFunction,SMDPad,CuDef*%
%ADD23R,1.000000X3.800000*%
%TD*%
%TA.AperFunction,SMDPad,CuDef*%
%ADD24R,2.300000X1.000000*%
%TD*%
%TA.AperFunction,SMDPad,CuDef*%
%ADD25R,3.800000X1.000000*%
%TD*%
%TA.AperFunction,SMDPad,CuDef*%
%ADD26R,1.560000X0.650000*%
%TD*%
%TA.AperFunction,ViaPad*%
%ADD27C,0.800000*%
%TD*%
%TA.AperFunction,Conductor*%
%ADD28C,0.400000*%
%TD*%
%TA.AperFunction,Conductor*%
%ADD29C,0.250000*%
%TD*%
%TA.AperFunction,Conductor*%
%ADD30C,0.800000*%
%TD*%
G04 APERTURE END LIST*
D10*
D11*
X4742328Y19561428D02*
X3242328Y19561428D01*
X3242328Y19561428D02*
X4313757Y19061428D01*
X4313757Y19061428D02*
X3242328Y18561428D01*
X3242328Y18561428D02*
X4742328Y18561428D01*
X4742328Y17132856D02*
X4742328Y17847142D01*
X4742328Y17847142D02*
X3242328Y17847142D01*
X4313757Y16704284D02*
X4313757Y15989999D01*
X4742328Y16847141D02*
X3242328Y16347141D01*
X3242328Y16347141D02*
X4742328Y15847141D01*
X3956614Y14847142D02*
X4028042Y14632856D01*
X4028042Y14632856D02*
X4099471Y14561427D01*
X4099471Y14561427D02*
X4242328Y14489999D01*
X4242328Y14489999D02*
X4456614Y14489999D01*
X4456614Y14489999D02*
X4599471Y14561427D01*
X4599471Y14561427D02*
X4670900Y14632856D01*
X4670900Y14632856D02*
X4742328Y14775713D01*
X4742328Y14775713D02*
X4742328Y15347142D01*
X4742328Y15347142D02*
X3242328Y15347142D01*
X3242328Y15347142D02*
X3242328Y14847142D01*
X3242328Y14847142D02*
X3313757Y14704285D01*
X3313757Y14704285D02*
X3385185Y14632856D01*
X3385185Y14632856D02*
X3528042Y14561427D01*
X3528042Y14561427D02*
X3670900Y14561427D01*
X3670900Y14561427D02*
X3813757Y14632856D01*
X3813757Y14632856D02*
X3885185Y14704285D01*
X3885185Y14704285D02*
X3956614Y14847142D01*
X3956614Y14847142D02*
X3956614Y15347142D01*
X4599471Y13847142D02*
X4670900Y13775713D01*
X4670900Y13775713D02*
X4742328Y13847142D01*
X4742328Y13847142D02*
X4670900Y13918570D01*
X4670900Y13918570D02*
X4599471Y13847142D01*
X4599471Y13847142D02*
X4742328Y13847142D01*
X4599471Y12275713D02*
X4670900Y12347141D01*
X4670900Y12347141D02*
X4742328Y12561427D01*
X4742328Y12561427D02*
X4742328Y12704284D01*
X4742328Y12704284D02*
X4670900Y12918570D01*
X4670900Y12918570D02*
X4528042Y13061427D01*
X4528042Y13061427D02*
X4385185Y13132856D01*
X4385185Y13132856D02*
X4099471Y13204284D01*
X4099471Y13204284D02*
X3885185Y13204284D01*
X3885185Y13204284D02*
X3599471Y13132856D01*
X3599471Y13132856D02*
X3456614Y13061427D01*
X3456614Y13061427D02*
X3313757Y12918570D01*
X3313757Y12918570D02*
X3242328Y12704284D01*
X3242328Y12704284D02*
X3242328Y12561427D01*
X3242328Y12561427D02*
X3313757Y12347141D01*
X3313757Y12347141D02*
X3385185Y12275713D01*
X3242328Y11775713D02*
X3242328Y10775713D01*
X3242328Y10775713D02*
X4742328Y11775713D01*
X4742328Y11775713D02*
X4742328Y10775713D01*
D12*
%TO.P,M1,1*%
%TO.N,GND*%
X5080000Y35560000D03*
%TD*%
%TO.P,M2,1*%
%TO.N,GND*%
X45720000Y5080000D03*
%TD*%
%TO.P,M3,1*%
%TO.N,GND*%
X45720000Y35560000D03*
%TD*%
%TO.P,M4,1*%
%TO.N,GND*%
X5080000Y5080000D03*
%TD*%
D13*
%TO.P,J8,1*%
%TO.N,GND*%
X12700000Y31242000D03*
%TO.P,J8,2*%
X12700000Y33782000D03*
%TO.P,J8,3*%
%TO.N,/IN*%
X15240000Y31242000D03*
%TO.P,J8,4*%
X15240000Y33782000D03*
%TO.P,J8,5*%
%TO.N,GND*%
X17780000Y31242000D03*
%TO.P,J8,6*%
X17780000Y33782000D03*
%TD*%
%TO.P,J1,1*%
%TO.N,GND*%
X37846000Y8636000D03*
%TO.P,J1,2*%
X35306000Y8636000D03*
%TO.P,J1,3*%
%TO.N,Net-(C21-Pad3)*%
X37846000Y11176000D03*
%TO.P,J1,4*%
X35306000Y11176000D03*
%TO.P,J1,5*%
%TO.N,GND*%
X37846000Y13716000D03*
%TO.P,J1,6*%
X35306000Y13716000D03*
%TD*%
%TO.P,J2,1*%
%TO.N,GND*%
X35306000Y32004000D03*
%TO.P,J2,2*%
X37846000Y32004000D03*
%TD*%
%TO.P,J3,1*%
%TO.N,/#PeakDetect/Trace*%
X18796000Y21590000D03*
%TO.P,J3,2*%
X18796000Y24130000D03*
%TD*%
%TO.P,J5,1*%
%TO.N,GND*%
X35306000Y26924000D03*
%TO.P,J5,2*%
X37846000Y26924000D03*
%TD*%
%TO.P,J6,1*%
%TO.N,/A/D*%
X35306000Y29464000D03*
%TO.P,J6,2*%
X37846000Y29464000D03*
%TD*%
%TO.P,J7,1*%
%TO.N,GND*%
X21336000Y21590000D03*
%TO.P,J7,2*%
X21336000Y24130000D03*
%TD*%
D14*
%TO.P,C2,1*%
%TO.N,/#PeakDetect/Trace*%
X16637000Y21844000D03*
%TO.P,C2,2*%
%TO.N,Net-(C2-Pad2)*%
X14732000Y21844000D03*
%TD*%
D15*
%TO.P,U2,1*%
%TO.N,Net-(R1-Pad2)*%
X26284000Y30108000D03*
%TO.P,U2,2*%
%TO.N,GND*%
X25334000Y30108000D03*
%TO.P,U2,3*%
%TO.N,Net-(C19-Pad1)*%
X24384000Y30108000D03*
%TO.P,U2,4*%
%TO.N,Net-(R1-Pad2)*%
X24384000Y33528000D03*
%TO.P,U2,5*%
%TO.N,/VCC2*%
X26284000Y33528000D03*
%TD*%
D16*
%TO.P,C1,1*%
%TO.N,VCC*%
X21844000Y8128000D03*
%TO.P,C1,2*%
%TO.N,GND*%
X16794480Y8128000D03*
%TD*%
D14*
%TO.P,C4,1*%
%TO.N,VCC*%
X29972000Y15240000D03*
%TO.P,C4,2*%
%TO.N,GND*%
X31877000Y15240000D03*
%TD*%
%TO.P,C7,1*%
%TO.N,/VCC2*%
X28067000Y30988000D03*
%TO.P,C7,2*%
%TO.N,GND*%
X29972000Y30988000D03*
%TD*%
%TO.P,C8,1*%
%TO.N,/VCC3*%
X25273000Y22352000D03*
%TO.P,C8,2*%
%TO.N,GND*%
X23368000Y22352000D03*
%TD*%
%TO.P,C9,1*%
%TO.N,/VCC4*%
X17780000Y12192000D03*
%TO.P,C9,2*%
%TO.N,GND*%
X15875000Y12192000D03*
%TD*%
%TO.P,C12,1*%
%TO.N,/VCC2*%
X28067000Y33528000D03*
%TO.P,C12,2*%
%TO.N,GND*%
X29972000Y33528000D03*
%TD*%
%TO.P,C13,1*%
%TO.N,/VCC3*%
X25273000Y24384000D03*
%TO.P,C13,2*%
%TO.N,GND*%
X23368000Y24384000D03*
%TD*%
%TO.P,C14,1*%
%TO.N,/VCC4*%
X17653000Y14732000D03*
%TO.P,C14,2*%
%TO.N,GND*%
X15748000Y14732000D03*
%TD*%
%TO.P,C19,1*%
%TO.N,Net-(C19-Pad1)*%
X25019000Y27432000D03*
%TO.P,C19,2*%
%TO.N,GND*%
X26924000Y27432000D03*
%TD*%
D17*
%TO.P,D1,1*%
%TO.N,VCC*%
X26416000Y12160000D03*
%TO.P,D1,2*%
%TO.N,GND*%
X26416000Y8160000D03*
%TD*%
D18*
%TO.P,R1,1*%
%TO.N,/A/D*%
X32004000Y29972000D03*
%TO.P,R1,2*%
%TO.N,Net-(R1-Pad2)*%
X32004000Y31877000D03*
%TD*%
%TO.P,R3,1*%
%TO.N,/VCC2*%
X29464000Y28829000D03*
%TO.P,R3,2*%
%TO.N,VCC*%
X29464000Y26924000D03*
%TD*%
%TO.P,R4,1*%
%TO.N,/VCC3*%
X25908000Y20193000D03*
%TO.P,R4,2*%
%TO.N,VCC*%
X25908000Y18288000D03*
%TD*%
D14*
%TO.P,R5,1*%
%TO.N,/VCC4*%
X19812000Y12192000D03*
%TO.P,R5,2*%
%TO.N,VCC*%
X21717000Y12192000D03*
%TD*%
%TO.P,R12,1*%
%TO.N,/#PeakDetect/Trace*%
X16637000Y24384000D03*
%TO.P,R12,2*%
%TO.N,Net-(C2-Pad2)*%
X14732000Y24384000D03*
%TD*%
%TO.P,R13,1*%
%TO.N,Net-(C19-Pad1)*%
X22860000Y17780000D03*
%TO.P,R13,2*%
%TO.N,Net-(R13-Pad2)*%
X20955000Y17780000D03*
%TD*%
D19*
%TO.P,C21,1*%
%TO.N,VCC*%
X29812000Y11176000D03*
D20*
%TO.P,C21,2*%
%TO.N,GND*%
X31162000Y11176000D03*
D19*
%TO.P,C21,3*%
%TO.N,Net-(C21-Pad3)*%
X32512000Y11176000D03*
%TD*%
D21*
%TO.P,M5,1*%
%TO.N,GND*%
X9500000Y36728000D03*
D22*
X9500000Y35078000D03*
D23*
X9500000Y29828000D03*
X9500000Y23828000D03*
X9500000Y17828000D03*
X9500000Y11828000D03*
D22*
X9500000Y6578000D03*
D21*
X9500000Y4928000D03*
D24*
X11150000Y36728000D03*
X11150000Y4928000D03*
D25*
X16400000Y36728000D03*
X16400000Y4928000D03*
X22400000Y36728000D03*
X22400000Y4928000D03*
X28400000Y36728000D03*
X28400000Y4928000D03*
X34400000Y36728000D03*
X34400000Y4928000D03*
D24*
X39650000Y36728000D03*
X39650000Y4928000D03*
D21*
X41300000Y36728000D03*
D22*
X41300000Y35078000D03*
D23*
X41300000Y29828000D03*
X41300000Y23828000D03*
X41300000Y17828000D03*
X41300000Y11828000D03*
D22*
X41300000Y6578000D03*
D21*
X41300000Y4928000D03*
%TD*%
D26*
%TO.P,U5,1*%
%TO.N,/IN*%
X14398000Y17338000D03*
%TO.P,U5,2*%
%TO.N,Net-(R13-Pad2)*%
X14398000Y18288000D03*
%TO.P,U5,3*%
%TO.N,GND*%
X14398000Y19238000D03*
%TO.P,U5,4*%
%TO.N,/#PeakDetect/Trace*%
X17098000Y19238000D03*
%TO.P,U5,5*%
%TO.N,/VCC4*%
X17098000Y17338000D03*
%TD*%
%TO.P,U1,1*%
%TO.N,Net-(C2-Pad2)*%
X18970000Y26990000D03*
%TO.P,U1,2*%
%TO.N,GND*%
X18970000Y27940000D03*
%TO.P,U1,3*%
%TO.N,/IN*%
X18970000Y28890000D03*
%TO.P,U1,4*%
%TO.N,Net-(R1-Pad2)*%
X21670000Y28890000D03*
%TO.P,U1,5*%
%TO.N,/VCC3*%
X21670000Y26990000D03*
%TD*%
D27*
%TO.N,GND*%
X20828000Y19304000D03*
X21844000Y19304000D03*
X22860000Y19304000D03*
X16256000Y25908000D03*
X27940000Y25908000D03*
X30988000Y34036000D03*
X31496000Y24892000D03*
X36576000Y16764000D03*
X30988000Y33020000D03*
X12192000Y14224000D03*
X35560000Y16764000D03*
X13208000Y20828000D03*
X19812000Y19304000D03*
X26416000Y16764000D03*
X28448000Y8636000D03*
X23368000Y28448000D03*
X21336000Y14732000D03*
X15240000Y10668000D03*
X13208000Y23368000D03*
X28448000Y15240000D03*
X19304000Y14732000D03*
X11176000Y26924000D03*
X13208000Y28956000D03*
X28448000Y10160000D03*
X31496000Y21844000D03*
X22352000Y34036000D03*
X11176000Y15748000D03*
X27432000Y15240000D03*
X20828000Y16256000D03*
X13208000Y24384000D03*
X23876000Y16256000D03*
X28448000Y7112000D03*
X27940000Y16764000D03*
X13716000Y15240000D03*
X12192000Y15240000D03*
X13716000Y10668000D03*
X27432000Y28956000D03*
X13716000Y13208000D03*
X28448000Y24892000D03*
X13208000Y21844000D03*
X31496000Y20828000D03*
X38100000Y16764000D03*
X26416000Y24384000D03*
X24892000Y16256000D03*
X26416000Y21844000D03*
X32004000Y17272000D03*
X31496000Y19812000D03*
X31496000Y18796000D03*
X22860000Y14732000D03*
X20828000Y30988000D03*
X19304000Y16256000D03*
X28448000Y21844000D03*
X15748000Y27940000D03*
X23368000Y27432000D03*
X13716000Y12192000D03*
X17272000Y27940000D03*
X20828000Y34036000D03*
X28448000Y20320000D03*
X28448000Y23368000D03*
X34544000Y16764000D03*
X22352000Y16256000D03*
X12192000Y27940000D03*
X13716000Y25908000D03*
X26416000Y22860000D03*
X20828000Y32512000D03*
X18796000Y19304000D03*
X14732000Y26924000D03*
X23368000Y29972000D03*
X22860000Y30988000D03*
X31496000Y22860000D03*
X31496000Y23876000D03*
X13716000Y14224000D03*
%TD*%
D28*
%TO.N,GND*%
X25334000Y30108000D02*
X25334000Y29022000D01*
D29*
X23368000Y27432000D02*
X24391501Y26408499D01*
X24957186Y26408499D02*
X26416000Y24949685D01*
D28*
X25334000Y29022000D02*
X26924000Y27432000D01*
D29*
X26416000Y24949685D02*
X26416000Y24384000D01*
X24391501Y26408499D02*
X24957186Y26408499D01*
D30*
%TO.N,VCC*%
X21844000Y8128000D02*
X22384000Y8128000D01*
X29972000Y15240000D02*
X29972000Y11336000D01*
X21717000Y12192000D02*
X21717000Y8255000D01*
X29972000Y26416000D02*
X29464000Y26924000D01*
X25908000Y18288000D02*
X29972000Y18288000D01*
X29972000Y15240000D02*
X29972000Y18288000D01*
X29972000Y18288000D02*
X29972000Y26416000D01*
X29972000Y11336000D02*
X29812000Y11176000D01*
X29812000Y11176000D02*
X27400000Y11176000D01*
X21717000Y8255000D02*
X21844000Y8128000D01*
X27400000Y11176000D02*
X26416000Y12160000D01*
X22384000Y8128000D02*
X26416000Y12160000D01*
D28*
%TO.N,/VCC2*%
X26284000Y33528000D02*
X28067000Y33528000D01*
X28067000Y30988000D02*
X28067000Y30226000D01*
X28067000Y33528000D02*
X28067000Y30988000D01*
X28067000Y30226000D02*
X29464000Y28829000D01*
%TO.N,/VCC3*%
X25273000Y24384000D02*
X25273000Y24638000D01*
X21670000Y26990000D02*
X22125000Y26990000D01*
D30*
X25273000Y24384000D02*
X25273000Y22352000D01*
X25273000Y22352000D02*
X25273000Y20828000D01*
D28*
X25273000Y24638000D02*
X24428499Y25482501D01*
X22125000Y26990000D02*
X23632499Y25482501D01*
X24428499Y25482501D02*
X23632499Y25482501D01*
D30*
X25273000Y20828000D02*
X25908000Y20193000D01*
D28*
%TO.N,/VCC4*%
X17653000Y12319000D02*
X17780000Y12192000D01*
X17653000Y14732000D02*
X17653000Y12319000D01*
X17098000Y15287000D02*
X17653000Y14732000D01*
X19812000Y12192000D02*
X17780000Y12192000D01*
X17098000Y17338000D02*
X17098000Y15287000D01*
%TO.N,Net-(C19-Pad1)*%
X24384000Y28067000D02*
X25019000Y27432000D01*
X27432000Y19853998D02*
X26926501Y19348499D01*
X22860000Y18034000D02*
X22860000Y17780000D01*
X25019000Y27432000D02*
X25019000Y27178000D01*
X25019000Y27178000D02*
X27432000Y24765000D01*
X24384000Y30108000D02*
X24384000Y28067000D01*
X26926501Y19348499D02*
X24174499Y19348499D01*
X24174499Y19348499D02*
X22860000Y18034000D01*
X27432000Y24765000D02*
X27432000Y19853998D01*
%TO.N,/#PeakDetect/Trace*%
X18542000Y21844000D02*
X18796000Y21590000D01*
X17098000Y21383000D02*
X16637000Y21844000D01*
X16637000Y24384000D02*
X18542000Y24384000D01*
X17098000Y19238000D02*
X17098000Y21383000D01*
X16637000Y24384000D02*
X16637000Y21844000D01*
X16637000Y21844000D02*
X18542000Y21844000D01*
X18542000Y24384000D02*
X18796000Y24130000D01*
%TO.N,/A/D*%
X32512000Y29464000D02*
X32004000Y29972000D01*
X37846000Y29464000D02*
X35306000Y29464000D01*
X35306000Y29464000D02*
X32512000Y29464000D01*
%TO.N,Net-(R13-Pad2)*%
X14398000Y18288000D02*
X17780000Y18288000D01*
X20447000Y18288000D02*
X20955000Y17780000D01*
X17780000Y18288000D02*
X20447000Y18288000D01*
X18459500Y18288000D02*
X17780000Y18288000D01*
D30*
%TO.N,Net-(C21-Pad3)*%
X35306000Y11176000D02*
X32512000Y11176000D01*
X37846000Y11176000D02*
X35306000Y11176000D01*
D28*
%TO.N,Net-(R1-Pad2)*%
X24384000Y35052000D02*
X25159999Y35827999D01*
X25109000Y32128000D02*
X24554500Y32682500D01*
X24384000Y33528000D02*
X24384000Y35052000D01*
X22813500Y32682500D02*
X24554500Y32682500D01*
X21670000Y28890000D02*
X21670000Y31539000D01*
X25784000Y32128000D02*
X25109000Y32128000D01*
X25159999Y35827999D02*
X30720001Y35827999D01*
X32004000Y34544000D02*
X32004000Y31877000D01*
X21670000Y31539000D02*
X22813500Y32682500D01*
X26284000Y31628000D02*
X25784000Y32128000D01*
X24554500Y32682500D02*
X24384000Y32853000D01*
X26284000Y30108000D02*
X26284000Y31628000D01*
X30720001Y35827999D02*
X32004000Y34544000D01*
X24384000Y32853000D02*
X24384000Y33528000D01*
%TO.N,Net-(C2-Pad2)*%
X18970000Y26990000D02*
X17206000Y26990000D01*
X14732000Y24384000D02*
X14732000Y21844000D01*
X14732000Y24384000D02*
X14732000Y25739998D01*
X15982002Y26990000D02*
X17206000Y26990000D01*
X14732000Y25739998D02*
X15070001Y26077999D01*
D29*
X14732000Y25850998D02*
X14732000Y24384000D01*
D28*
X14871501Y25879499D02*
X15070001Y26077999D01*
D29*
X14760501Y25879499D02*
X14732000Y25850998D01*
D28*
X15070001Y26077999D02*
X15982002Y26990000D01*
%TO.N,/IN*%
X12192000Y25908000D02*
X15240000Y28956000D01*
X13218000Y17338000D02*
X12192000Y18364000D01*
X14398000Y17338000D02*
X13218000Y17338000D01*
X15306000Y28890000D02*
X15240000Y28956000D01*
X18970000Y28890000D02*
X15306000Y28890000D01*
X15240000Y28956000D02*
X15240000Y31242000D01*
X15240000Y33782000D02*
X15240000Y31242000D01*
X12192000Y18364000D02*
X12192000Y25908000D01*
%TD*%
%TA.AperFunction,Conductor*%
%TO.N,GND*%
G36*
X26221424Y25253341D02*
G01*
X26239541Y25238331D01*
X26886596Y24591275D01*
X26920620Y24528965D01*
X26923500Y24502182D01*
X26923500Y21028136D01*
X26903498Y20960015D01*
X26849842Y20913522D01*
X26779568Y20903418D01*
X26746608Y20912871D01*
X26678355Y20943008D01*
X26652566Y20945999D01*
X26652565Y20946000D01*
X26652564Y20946000D01*
X26209160Y20946000D01*
X26141039Y20966002D01*
X26120065Y20982905D01*
X26018405Y21084565D01*
X25984379Y21146877D01*
X25981500Y21173660D01*
X25981500Y21461058D01*
X25992236Y21511951D01*
X26023006Y21581640D01*
X26023006Y21581641D01*
X26023008Y21581645D01*
X26026000Y21607436D01*
X26026000Y23096564D01*
X26023008Y23122355D01*
X25992236Y23192048D01*
X25981500Y23242941D01*
X25981500Y23493058D01*
X25992236Y23543951D01*
X26023006Y23613640D01*
X26023006Y23613641D01*
X26023008Y23613645D01*
X26026000Y23639436D01*
X26026000Y25128564D01*
X26025287Y25134705D01*
X26037298Y25204675D01*
X26085233Y25257046D01*
X26153873Y25275188D01*
X26221424Y25253341D01*
G37*
%TD.AperFunction*%
%TA.AperFunction,Conductor*%
G36*
X50477621Y40355498D02*
G01*
X50524114Y40301842D01*
X50535500Y40249500D01*
X50535500Y390500D01*
X50515498Y322379D01*
X50461842Y275886D01*
X50409500Y264500D01*
X390500Y264500D01*
X322379Y284502D01*
X275886Y338158D01*
X264500Y390500D01*
X264500Y6832249D01*
X20260420Y6832249D01*
X20263411Y6806468D01*
X20263412Y6806463D01*
X20309999Y6700954D01*
X20310000Y6700952D01*
X20391552Y6619400D01*
X20391554Y6619399D01*
X20497063Y6572812D01*
X20497068Y6572811D01*
X20522849Y6569820D01*
X20522856Y6569820D01*
X23165150Y6569820D01*
X23190931Y6572811D01*
X23190936Y6572812D01*
X23296445Y6619399D01*
X23296447Y6619400D01*
X23377999Y6700952D01*
X23378000Y6700954D01*
X23378001Y6700955D01*
X23424588Y6806465D01*
X23427580Y6832256D01*
X23427580Y8117420D01*
X23447582Y8185541D01*
X23464485Y8206515D01*
X25822565Y10564595D01*
X25884877Y10598621D01*
X25911660Y10601500D01*
X26940992Y10601500D01*
X27009113Y10581498D01*
X27018698Y10574685D01*
X27030770Y10565227D01*
X27030773Y10565225D01*
X27030774Y10565225D01*
X27040073Y10561039D01*
X27059931Y10549840D01*
X27068326Y10544045D01*
X27126970Y10521804D01*
X27130485Y10520348D01*
X27187665Y10494614D01*
X27187677Y10494610D01*
X27197706Y10492772D01*
X27219653Y10486654D01*
X27229195Y10483036D01*
X27229197Y10483035D01*
X27229199Y10483035D01*
X27265462Y10478631D01*
X27291458Y10475474D01*
X27295216Y10474902D01*
X27356905Y10463599D01*
X27356906Y10463599D01*
X27356907Y10463599D01*
X27419502Y10467385D01*
X27423302Y10467500D01*
X28731114Y10467500D01*
X28799235Y10447498D01*
X28845728Y10393842D01*
X28856274Y10356024D01*
X28856491Y10354147D01*
X28856492Y10354143D01*
X28903079Y10248634D01*
X28903080Y10248632D01*
X28984632Y10167080D01*
X28984634Y10167079D01*
X29090143Y10120492D01*
X29090148Y10120491D01*
X29115929Y10117500D01*
X29115936Y10117500D01*
X30508070Y10117500D01*
X30533851Y10120491D01*
X30533856Y10120492D01*
X30639365Y10167079D01*
X30639367Y10167080D01*
X30720919Y10248632D01*
X30720920Y10248634D01*
X30720921Y10248635D01*
X30767508Y10354145D01*
X30770499Y10379929D01*
X31553500Y10379929D01*
X31556491Y10354148D01*
X31556492Y10354143D01*
X31603079Y10248634D01*
X31603080Y10248632D01*
X31684632Y10167080D01*
X31684634Y10167079D01*
X31790143Y10120492D01*
X31790148Y10120491D01*
X31815929Y10117500D01*
X31815936Y10117500D01*
X33208070Y10117500D01*
X33233851Y10120491D01*
X33233856Y10120492D01*
X33339365Y10167079D01*
X33339367Y10167080D01*
X33420919Y10248632D01*
X33420920Y10248634D01*
X33420921Y10248635D01*
X33467508Y10354145D01*
X33467726Y10356024D01*
X33468542Y10357949D01*
X33469995Y10363288D01*
X33470722Y10363089D01*
X33495447Y10421385D01*
X33554104Y10461383D01*
X33592886Y10467500D01*
X34111722Y10467500D01*
X34179843Y10447498D01*
X34226336Y10393842D01*
X34236882Y10356021D01*
X34238491Y10342148D01*
X34238492Y10342143D01*
X34285079Y10236634D01*
X34285080Y10236632D01*
X34366632Y10155080D01*
X34366634Y10155079D01*
X34472143Y10108492D01*
X34472148Y10108491D01*
X34497929Y10105500D01*
X34497936Y10105500D01*
X36114070Y10105500D01*
X36139851Y10108491D01*
X36139856Y10108492D01*
X36245365Y10155079D01*
X36245367Y10155080D01*
X36326919Y10236632D01*
X36326920Y10236634D01*
X36326921Y10236635D01*
X36373508Y10342145D01*
X36374900Y10354145D01*
X36375118Y10356021D01*
X36402837Y10421383D01*
X36461493Y10461382D01*
X36500278Y10467500D01*
X36651722Y10467500D01*
X36719843Y10447498D01*
X36766336Y10393842D01*
X36776882Y10356021D01*
X36778491Y10342148D01*
X36778492Y10342143D01*
X36825079Y10236634D01*
X36825080Y10236632D01*
X36906632Y10155080D01*
X36906634Y10155079D01*
X37012143Y10108492D01*
X37012148Y10108491D01*
X37037929Y10105500D01*
X37037936Y10105500D01*
X38654070Y10105500D01*
X38679851Y10108491D01*
X38679856Y10108492D01*
X38785365Y10155079D01*
X38785367Y10155080D01*
X38866919Y10236632D01*
X38866920Y10236634D01*
X38866921Y10236635D01*
X38913508Y10342145D01*
X38916500Y10367936D01*
X38916500Y11984064D01*
X38913508Y12009855D01*
X38866921Y12115365D01*
X38785365Y12196921D01*
X38679855Y12243508D01*
X38654066Y12246499D01*
X38654065Y12246500D01*
X38654064Y12246500D01*
X37037936Y12246500D01*
X37037935Y12246500D01*
X37037932Y12246499D01*
X37012145Y12243508D01*
X36906635Y12196921D01*
X36906634Y12196920D01*
X36906632Y12196919D01*
X36825080Y12115367D01*
X36825079Y12115365D01*
X36778492Y12009856D01*
X36778491Y12009851D01*
X36776882Y11995979D01*
X36749163Y11930617D01*
X36690507Y11890618D01*
X36651722Y11884500D01*
X36500278Y11884500D01*
X36432157Y11904502D01*
X36385664Y11958158D01*
X36375118Y11995979D01*
X36373508Y12009851D01*
X36373508Y12009855D01*
X36326921Y12115365D01*
X36245365Y12196921D01*
X36139855Y12243508D01*
X36114066Y12246499D01*
X36114065Y12246500D01*
X36114064Y12246500D01*
X34497936Y12246500D01*
X34497935Y12246500D01*
X34497932Y12246499D01*
X34472145Y12243508D01*
X34366635Y12196921D01*
X34366634Y12196920D01*
X34366632Y12196919D01*
X34285080Y12115367D01*
X34285079Y12115365D01*
X34238492Y12009856D01*
X34238491Y12009851D01*
X34236882Y11995979D01*
X34209163Y11930617D01*
X34150507Y11890618D01*
X34111722Y11884500D01*
X33592886Y11884500D01*
X33524765Y11904502D01*
X33478272Y11958158D01*
X33467726Y11995976D01*
X33467508Y11997852D01*
X33467508Y11997855D01*
X33420921Y12103365D01*
X33339365Y12184921D01*
X33233855Y12231508D01*
X33208066Y12234499D01*
X33208065Y12234500D01*
X33208064Y12234500D01*
X31815936Y12234500D01*
X31815935Y12234500D01*
X31815932Y12234499D01*
X31790145Y12231508D01*
X31684635Y12184921D01*
X31684633Y12184920D01*
X31684634Y12184920D01*
X31684632Y12184919D01*
X31603080Y12103367D01*
X31603079Y12103365D01*
X31556492Y11997856D01*
X31556491Y11997851D01*
X31553500Y11972070D01*
X31553500Y10379929D01*
X30770499Y10379929D01*
X30770500Y10379936D01*
X30770500Y11972064D01*
X30767508Y11997855D01*
X30720921Y12103365D01*
X30717408Y12106877D01*
X30683381Y12169182D01*
X30680499Y12195966D01*
X30680499Y14349058D01*
X30691235Y14399951D01*
X30722007Y14469643D01*
X30722008Y14469645D01*
X30725000Y14495436D01*
X30725000Y15984564D01*
X30722008Y16010355D01*
X30691235Y16080047D01*
X30680500Y16130941D01*
X30680500Y26392696D01*
X30680615Y26396500D01*
X30681053Y26403746D01*
X30684401Y26459093D01*
X30673094Y26520787D01*
X30672525Y26524529D01*
X30668688Y26556134D01*
X30664965Y26586801D01*
X30661350Y26596330D01*
X30655224Y26618309D01*
X30655109Y26618936D01*
X30653388Y26628330D01*
X30627640Y26685536D01*
X30626208Y26688994D01*
X30603954Y26747675D01*
X30598159Y26756069D01*
X30586958Y26775928D01*
X30582774Y26785226D01*
X30544094Y26834596D01*
X30541839Y26837662D01*
X30506215Y26889273D01*
X30506210Y26889276D01*
X30502687Y26893255D01*
X30472487Y26957508D01*
X30471000Y26976808D01*
X30471000Y27414565D01*
X30470999Y27414570D01*
X30468008Y27440351D01*
X30468008Y27440355D01*
X30421421Y27545865D01*
X30339865Y27627421D01*
X30234355Y27674008D01*
X30208566Y27676999D01*
X30208565Y27677000D01*
X30208564Y27677000D01*
X28719436Y27677000D01*
X28719435Y27677000D01*
X28719432Y27676999D01*
X28693645Y27674008D01*
X28588135Y27627421D01*
X28588133Y27627420D01*
X28588134Y27627420D01*
X28588132Y27627419D01*
X28506580Y27545867D01*
X28506579Y27545865D01*
X28459992Y27440356D01*
X28459991Y27440351D01*
X28457000Y27414570D01*
X28457000Y26433429D01*
X28459991Y26407648D01*
X28459992Y26407643D01*
X28506579Y26302134D01*
X28506580Y26302132D01*
X28588132Y26220580D01*
X28588134Y26220579D01*
X28693643Y26173992D01*
X28693648Y26173991D01*
X28719429Y26171000D01*
X28719436Y26171000D01*
X29137500Y26171000D01*
X29205621Y26150998D01*
X29252114Y26097342D01*
X29263500Y26045000D01*
X29263500Y19122500D01*
X29243498Y19054379D01*
X29189842Y19007886D01*
X29137500Y18996500D01*
X27597821Y18996500D01*
X27529700Y19016502D01*
X27483207Y19070158D01*
X27473103Y19140432D01*
X27502597Y19205012D01*
X27508725Y19211595D01*
X27743326Y19446197D01*
X27764300Y19463099D01*
X27768419Y19465746D01*
X27768420Y19465747D01*
X27802939Y19505583D01*
X27805990Y19508861D01*
X27817280Y19520151D01*
X27826838Y19532919D01*
X27829662Y19536424D01*
X27864175Y19576254D01*
X27864176Y19576255D01*
X27866209Y19580708D01*
X27879952Y19603871D01*
X27882890Y19607796D01*
X27901306Y19657171D01*
X27903028Y19661327D01*
X27924916Y19709257D01*
X27924916Y19709258D01*
X27924919Y19709264D01*
X27925615Y19714106D01*
X27932277Y19740209D01*
X27933989Y19744798D01*
X27937103Y19788335D01*
X27937749Y19797370D01*
X27938230Y19801845D01*
X27940500Y19817630D01*
X27940499Y19833583D01*
X27940660Y19838080D01*
X27943050Y19871500D01*
X27944420Y19890647D01*
X27943379Y19895434D01*
X27940500Y19922214D01*
X27940500Y24696784D01*
X27943378Y24723563D01*
X27944420Y24728352D01*
X27940661Y24780912D01*
X27940500Y24785408D01*
X27940500Y24801366D01*
X27940500Y24801368D01*
X27938227Y24817172D01*
X27937748Y24821634D01*
X27933988Y24874198D01*
X27933988Y24874201D01*
X27932280Y24878779D01*
X27925615Y24904890D01*
X27924919Y24909734D01*
X27903011Y24957702D01*
X27901305Y24961825D01*
X27882889Y25011204D01*
X27879955Y25015121D01*
X27866208Y25038292D01*
X27864176Y25042743D01*
X27829650Y25082585D01*
X27826855Y25086055D01*
X27817280Y25098848D01*
X27805985Y25110141D01*
X27802934Y25113418D01*
X27768421Y25153250D01*
X27764305Y25155894D01*
X27743331Y25172795D01*
X25808905Y27107222D01*
X25774879Y27169534D01*
X25772000Y27196317D01*
X25772000Y28176565D01*
X25771999Y28176570D01*
X25769008Y28202351D01*
X25769008Y28202355D01*
X25722421Y28307865D01*
X25640865Y28389421D01*
X25535355Y28436008D01*
X25509566Y28438999D01*
X25509565Y28439000D01*
X25509564Y28439000D01*
X25018500Y28439000D01*
X24950379Y28459002D01*
X24903886Y28512658D01*
X24892500Y28565000D01*
X24892500Y28803023D01*
X24912502Y28871144D01*
X24929405Y28892118D01*
X24967919Y28930632D01*
X24967920Y28930634D01*
X24967921Y28930635D01*
X25014508Y29036145D01*
X25017500Y29061936D01*
X25017500Y31154064D01*
X25014508Y31179855D01*
X24967921Y31285365D01*
X24886365Y31366921D01*
X24780855Y31413508D01*
X24755066Y31416499D01*
X24755065Y31416500D01*
X24755064Y31416500D01*
X24012936Y31416500D01*
X24012935Y31416500D01*
X24012932Y31416499D01*
X23987145Y31413508D01*
X23881635Y31366921D01*
X23881633Y31366920D01*
X23881634Y31366920D01*
X23881632Y31366919D01*
X23800080Y31285367D01*
X23800079Y31285365D01*
X23753492Y31179856D01*
X23753491Y31179851D01*
X23750500Y31154070D01*
X23750500Y29061929D01*
X23753491Y29036148D01*
X23753492Y29036143D01*
X23800079Y28930634D01*
X23800080Y28930632D01*
X23838595Y28892118D01*
X23872621Y28829806D01*
X23875500Y28803023D01*
X23875500Y28135215D01*
X23872620Y28108429D01*
X23871580Y28103650D01*
X23875339Y28051083D01*
X23875500Y28046587D01*
X23875500Y28030629D01*
X23877769Y28014840D01*
X23878249Y28010373D01*
X23882011Y27957798D01*
X23882012Y27957793D01*
X23883726Y27953197D01*
X23890381Y27927123D01*
X23891079Y27922271D01*
X23891080Y27922266D01*
X23912970Y27874330D01*
X23914690Y27870178D01*
X23933109Y27820799D01*
X23933114Y27820791D01*
X23936053Y27816864D01*
X23949783Y27793722D01*
X23951820Y27789261D01*
X23951822Y27789258D01*
X23986337Y27749425D01*
X23989158Y27745925D01*
X23998716Y27733157D01*
X23998722Y27733149D01*
X24010013Y27721857D01*
X24013072Y27718571D01*
X24047576Y27678752D01*
X24047581Y27678747D01*
X24051707Y27676096D01*
X24072667Y27659203D01*
X24229095Y27502776D01*
X24263120Y27440464D01*
X24266000Y27413680D01*
X24266000Y26687429D01*
X24268991Y26661648D01*
X24268992Y26661643D01*
X24315579Y26556134D01*
X24315580Y26556132D01*
X24397132Y26474580D01*
X24397134Y26474579D01*
X24502643Y26427992D01*
X24502648Y26427991D01*
X24528429Y26425000D01*
X24528436Y26425000D01*
X25000682Y26425000D01*
X25068803Y26404998D01*
X25089772Y26388099D01*
X25482951Y25994921D01*
X25873331Y25604541D01*
X25907356Y25542229D01*
X25902291Y25471413D01*
X25859744Y25414578D01*
X25793224Y25389767D01*
X25769711Y25390286D01*
X25763564Y25391000D01*
X25763562Y25391000D01*
X25291319Y25391000D01*
X25223198Y25411002D01*
X25202224Y25427904D01*
X25152948Y25477180D01*
X24836292Y25793834D01*
X24819391Y25814809D01*
X24816749Y25818922D01*
X24776917Y25853435D01*
X24773639Y25856488D01*
X24762347Y25867781D01*
X24749554Y25877356D01*
X24746084Y25880151D01*
X24706242Y25914677D01*
X24701798Y25916705D01*
X24678615Y25930461D01*
X24674703Y25933390D01*
X24625299Y25951816D01*
X24621182Y25953521D01*
X24573233Y25975420D01*
X24568392Y25976115D01*
X24542293Y25982776D01*
X24537700Y25984490D01*
X24485114Y25988250D01*
X24480691Y25988725D01*
X24464867Y25991001D01*
X24464865Y25991001D01*
X24448912Y25991001D01*
X24444416Y25991162D01*
X24391851Y25994921D01*
X24391850Y25994920D01*
X24391850Y25994921D01*
X24387065Y25993880D01*
X24360283Y25991001D01*
X23895316Y25991001D01*
X23827195Y26011003D01*
X23806221Y26027906D01*
X22795405Y27038722D01*
X22761379Y27101034D01*
X22758500Y27127817D01*
X22758500Y27361065D01*
X22758499Y27361070D01*
X22758160Y27363992D01*
X22755508Y27386855D01*
X22708921Y27492365D01*
X22627365Y27573921D01*
X22521855Y27620508D01*
X22496066Y27623499D01*
X22496065Y27623500D01*
X22496064Y27623500D01*
X20843936Y27623500D01*
X20843935Y27623500D01*
X20843932Y27623499D01*
X20818145Y27620508D01*
X20712635Y27573921D01*
X20712633Y27573920D01*
X20712634Y27573920D01*
X20712632Y27573919D01*
X20631080Y27492367D01*
X20631079Y27492365D01*
X20584492Y27386856D01*
X20584491Y27386851D01*
X20581500Y27361070D01*
X20581500Y26618929D01*
X20584491Y26593148D01*
X20584492Y26593143D01*
X20631079Y26487634D01*
X20631080Y26487632D01*
X20712632Y26406080D01*
X20712634Y26406079D01*
X20818143Y26359492D01*
X20818148Y26359491D01*
X20843929Y26356500D01*
X20843936Y26356500D01*
X21987182Y26356500D01*
X22055303Y26336498D01*
X22076277Y26319595D01*
X23224698Y25171173D01*
X23241594Y25150209D01*
X23244245Y25146084D01*
X23244250Y25146078D01*
X23284076Y25111568D01*
X23287367Y25108505D01*
X23298651Y25097220D01*
X23311431Y25087652D01*
X23314927Y25084835D01*
X23354757Y25050324D01*
X23354756Y25050324D01*
X23359219Y25048286D01*
X23382369Y25034550D01*
X23386293Y25031612D01*
X23435671Y25013194D01*
X23439823Y25011474D01*
X23484976Y24990855D01*
X23487765Y24989582D01*
X23487766Y24989581D01*
X23487774Y24989579D01*
X23492623Y24988882D01*
X23518693Y24982228D01*
X23523290Y24980513D01*
X23523298Y24980512D01*
X23575873Y24976750D01*
X23580340Y24976270D01*
X23596129Y24974001D01*
X23596131Y24974001D01*
X23612086Y24974001D01*
X23616582Y24973840D01*
X23669145Y24970081D01*
X23669148Y24970081D01*
X23669150Y24970081D01*
X23673935Y24971122D01*
X23700715Y24974001D01*
X24165680Y24974001D01*
X24233801Y24953999D01*
X24254776Y24937096D01*
X24483096Y24708775D01*
X24517121Y24646463D01*
X24520000Y24619680D01*
X24520000Y23639429D01*
X24522991Y23613648D01*
X24522993Y23613642D01*
X24553764Y23543950D01*
X24564499Y23493058D01*
X24564499Y23242941D01*
X24553764Y23192048D01*
X24522993Y23122356D01*
X24522992Y23122354D01*
X24522991Y23122351D01*
X24520000Y23096570D01*
X24520000Y21607429D01*
X24522991Y21581648D01*
X24522993Y21581640D01*
X24553764Y21511951D01*
X24564500Y21461058D01*
X24564500Y20851313D01*
X24564385Y20847508D01*
X24560598Y20784908D01*
X24560597Y20784908D01*
X24571904Y20723201D01*
X24572476Y20719441D01*
X24580034Y20657199D01*
X24583651Y20647661D01*
X24589770Y20625711D01*
X24591609Y20615678D01*
X24591613Y20615665D01*
X24617351Y20558476D01*
X24618807Y20554961D01*
X24641045Y20496326D01*
X24646846Y20487921D01*
X24658035Y20468080D01*
X24662222Y20458779D01*
X24662227Y20458769D01*
X24700904Y20409401D01*
X24703157Y20406339D01*
X24738784Y20354726D01*
X24785731Y20313134D01*
X24788502Y20310526D01*
X24864095Y20234934D01*
X24898120Y20172622D01*
X24901000Y20145838D01*
X24901000Y19982999D01*
X24880998Y19914878D01*
X24827342Y19868385D01*
X24775000Y19856999D01*
X24242714Y19856999D01*
X24215934Y19859878D01*
X24214119Y19860272D01*
X24211147Y19860919D01*
X24175967Y19858402D01*
X24158587Y19857160D01*
X24154091Y19856999D01*
X24138131Y19856999D01*
X24122326Y19854726D01*
X24117865Y19854247D01*
X24091449Y19852357D01*
X24065298Y19850487D01*
X24060715Y19848777D01*
X24034606Y19842113D01*
X24029765Y19841418D01*
X23981810Y19819517D01*
X23977671Y19817803D01*
X23928295Y19799388D01*
X23928292Y19799386D01*
X23928291Y19799386D01*
X23924376Y19796455D01*
X23901207Y19782708D01*
X23899101Y19781745D01*
X23896756Y19780675D01*
X23896755Y19780674D01*
X23856934Y19746170D01*
X23853431Y19743346D01*
X23849452Y19740367D01*
X23840651Y19733779D01*
X23829349Y19722477D01*
X23826069Y19719424D01*
X23786249Y19684921D01*
X23786247Y19684918D01*
X23783600Y19680799D01*
X23766698Y19659826D01*
X22930777Y18823905D01*
X22868465Y18789879D01*
X22841682Y18787000D01*
X22369435Y18787000D01*
X22369432Y18786999D01*
X22343645Y18784008D01*
X22238135Y18737421D01*
X22238133Y18737420D01*
X22238134Y18737420D01*
X22238132Y18737419D01*
X22156580Y18655867D01*
X22156579Y18655865D01*
X22109992Y18550356D01*
X22109991Y18550351D01*
X22107000Y18524570D01*
X22107000Y17035429D01*
X22109991Y17009648D01*
X22109992Y17009643D01*
X22156579Y16904134D01*
X22156580Y16904132D01*
X22238132Y16822580D01*
X22238134Y16822579D01*
X22343643Y16775992D01*
X22343648Y16775991D01*
X22369429Y16773000D01*
X22369436Y16773000D01*
X23350570Y16773000D01*
X23376351Y16775991D01*
X23376356Y16775992D01*
X23481865Y16822579D01*
X23481867Y16822580D01*
X23563419Y16904132D01*
X23563420Y16904134D01*
X23563421Y16904135D01*
X23610008Y17009645D01*
X23613000Y17035436D01*
X23613000Y18015682D01*
X23633002Y18083803D01*
X23649905Y18104777D01*
X24348222Y18803094D01*
X24410534Y18837120D01*
X24437317Y18839999D01*
X24775000Y18839999D01*
X24843121Y18819997D01*
X24889614Y18766341D01*
X24901000Y18713999D01*
X24901000Y17797429D01*
X24903991Y17771648D01*
X24903992Y17771643D01*
X24950579Y17666134D01*
X24950580Y17666132D01*
X25032132Y17584580D01*
X25032134Y17584579D01*
X25137643Y17537992D01*
X25137648Y17537991D01*
X25163429Y17535000D01*
X25163436Y17535000D01*
X26652570Y17535000D01*
X26678351Y17537991D01*
X26678356Y17537992D01*
X26748047Y17568764D01*
X26798941Y17579500D01*
X29137500Y17579500D01*
X29205621Y17559498D01*
X29252114Y17505842D01*
X29263500Y17453500D01*
X29263500Y16130941D01*
X29252764Y16080047D01*
X29221992Y16010356D01*
X29221991Y16010351D01*
X29219000Y15984570D01*
X29219000Y14495429D01*
X29221991Y14469648D01*
X29221993Y14469640D01*
X29252764Y14399951D01*
X29263500Y14349058D01*
X29263500Y12360500D01*
X29243498Y12292379D01*
X29189842Y12245886D01*
X29137500Y12234500D01*
X29115935Y12234500D01*
X29115932Y12234499D01*
X29090145Y12231508D01*
X28984635Y12184921D01*
X28984633Y12184920D01*
X28984634Y12184920D01*
X28984632Y12184919D01*
X28903080Y12103367D01*
X28903079Y12103365D01*
X28856492Y11997856D01*
X28856491Y11997852D01*
X28856274Y11995976D01*
X28855457Y11994050D01*
X28854005Y11988712D01*
X28853277Y11988910D01*
X28828553Y11930615D01*
X28769896Y11890617D01*
X28731114Y11884500D01*
X27750500Y11884500D01*
X27682379Y11904502D01*
X27635886Y11958158D01*
X27624500Y12010500D01*
X27624500Y13456065D01*
X27624499Y13456070D01*
X27621508Y13481851D01*
X27621508Y13481855D01*
X27574921Y13587365D01*
X27493365Y13668921D01*
X27387855Y13715508D01*
X27362066Y13718499D01*
X27362065Y13718500D01*
X27362064Y13718500D01*
X25469936Y13718500D01*
X25469935Y13718500D01*
X25469932Y13718499D01*
X25444145Y13715508D01*
X25338635Y13668921D01*
X25338633Y13668920D01*
X25338634Y13668920D01*
X25338632Y13668919D01*
X25257080Y13587367D01*
X25257079Y13587365D01*
X25210492Y13481856D01*
X25210491Y13481851D01*
X25207500Y13456070D01*
X25207500Y12005659D01*
X25187498Y11937538D01*
X25170599Y11916569D01*
X23855530Y10601500D01*
X22977115Y9723085D01*
X22914803Y9689059D01*
X22888020Y9686180D01*
X22551500Y9686180D01*
X22483379Y9706182D01*
X22436886Y9759838D01*
X22425500Y9812180D01*
X22425500Y11301058D01*
X22436236Y11351951D01*
X22467006Y11421640D01*
X22467007Y11421643D01*
X22467008Y11421645D01*
X22470000Y11447436D01*
X22470000Y12936564D01*
X22467008Y12962355D01*
X22420421Y13067865D01*
X22338865Y13149421D01*
X22233355Y13196008D01*
X22207566Y13198999D01*
X22207565Y13199000D01*
X22207564Y13199000D01*
X21226436Y13199000D01*
X21226435Y13199000D01*
X21226432Y13198999D01*
X21200645Y13196008D01*
X21095135Y13149421D01*
X21095134Y13149420D01*
X21095132Y13149419D01*
X21013580Y13067867D01*
X21013579Y13067865D01*
X20966992Y12962356D01*
X20966991Y12962351D01*
X20964000Y12936570D01*
X20964000Y11447429D01*
X20966991Y11421648D01*
X20966993Y11421640D01*
X20997764Y11351951D01*
X21008500Y11301058D01*
X21008500Y9812180D01*
X20988498Y9744059D01*
X20934842Y9697566D01*
X20882500Y9686180D01*
X20522855Y9686180D01*
X20522852Y9686179D01*
X20497065Y9683188D01*
X20391555Y9636601D01*
X20391553Y9636600D01*
X20391554Y9636600D01*
X20391552Y9636599D01*
X20310000Y9555047D01*
X20309999Y9555045D01*
X20263412Y9449536D01*
X20263411Y9449531D01*
X20260420Y9423750D01*
X20260420Y6832249D01*
X264500Y6832249D01*
X264500Y20024632D01*
X2778537Y20024632D01*
X2778537Y10311922D01*
X5206119Y10311922D01*
X5206119Y18400650D01*
X11679579Y18400650D01*
X11683339Y18348083D01*
X11683500Y18343587D01*
X11683500Y18327629D01*
X11685769Y18311840D01*
X11686249Y18307373D01*
X11690011Y18254798D01*
X11690012Y18254793D01*
X11691726Y18250197D01*
X11698381Y18224123D01*
X11699079Y18219271D01*
X11699080Y18219266D01*
X11720970Y18171330D01*
X11722690Y18167178D01*
X11741109Y18117799D01*
X11741114Y18117791D01*
X11744053Y18113864D01*
X11757783Y18090722D01*
X11759820Y18086261D01*
X11759822Y18086258D01*
X11794337Y18046425D01*
X11797158Y18042925D01*
X11806716Y18030157D01*
X11806722Y18030149D01*
X11818013Y18018857D01*
X11821072Y18015571D01*
X11855577Y17975751D01*
X11855581Y17975747D01*
X11859704Y17973098D01*
X11880669Y17956201D01*
X12810201Y17026669D01*
X12827098Y17005704D01*
X12829747Y17001581D01*
X12829751Y17001577D01*
X12869571Y16967072D01*
X12872857Y16964013D01*
X12884149Y16952722D01*
X12884157Y16952716D01*
X12896925Y16943158D01*
X12900425Y16940337D01*
X12940256Y16905824D01*
X12944715Y16903788D01*
X12967871Y16890049D01*
X12971797Y16887109D01*
X13021175Y16868692D01*
X13025330Y16866972D01*
X13073268Y16845080D01*
X13078116Y16844383D01*
X13104210Y16837723D01*
X13108796Y16836012D01*
X13108799Y16836011D01*
X13161358Y16832250D01*
X13165819Y16831771D01*
X13181623Y16829501D01*
X13181626Y16829500D01*
X13181632Y16829500D01*
X13197591Y16829500D01*
X13202088Y16829339D01*
X13254646Y16825580D01*
X13254649Y16825580D01*
X13254651Y16825580D01*
X13259436Y16826621D01*
X13286216Y16829500D01*
X13313024Y16829500D01*
X13381145Y16809498D01*
X13402114Y16792599D01*
X13418722Y16775992D01*
X13440635Y16754078D01*
X13546143Y16707492D01*
X13546148Y16707491D01*
X13571929Y16704500D01*
X13571936Y16704500D01*
X15224070Y16704500D01*
X15249851Y16707491D01*
X15249856Y16707492D01*
X15355365Y16754079D01*
X15355367Y16754080D01*
X15436919Y16835632D01*
X15436920Y16835634D01*
X15436921Y16835635D01*
X15483508Y16941145D01*
X15486500Y16966936D01*
X15486500Y17653500D01*
X15506502Y17721621D01*
X15560158Y17768114D01*
X15612500Y17779500D01*
X15883500Y17779500D01*
X15951621Y17759498D01*
X15998114Y17705842D01*
X16009500Y17653500D01*
X16009500Y16966929D01*
X16012491Y16941148D01*
X16012492Y16941143D01*
X16059079Y16835634D01*
X16059080Y16835632D01*
X16140632Y16754080D01*
X16140634Y16754079D01*
X16246143Y16707492D01*
X16246148Y16707491D01*
X16271929Y16704500D01*
X16271936Y16704500D01*
X16463500Y16704500D01*
X16531621Y16684498D01*
X16578114Y16630842D01*
X16589499Y16578500D01*
X16589499Y15865000D01*
X16589499Y15355213D01*
X16586620Y15328433D01*
X16585579Y15323650D01*
X16589339Y15271083D01*
X16589500Y15266587D01*
X16589500Y15250629D01*
X16591769Y15234840D01*
X16592249Y15230373D01*
X16596011Y15177798D01*
X16596012Y15177793D01*
X16597726Y15173197D01*
X16604381Y15147123D01*
X16605079Y15142271D01*
X16605080Y15142266D01*
X16626970Y15094330D01*
X16628690Y15090178D01*
X16647109Y15040799D01*
X16647114Y15040791D01*
X16650053Y15036864D01*
X16663783Y15013722D01*
X16665820Y15009261D01*
X16665822Y15009258D01*
X16700337Y14969425D01*
X16703158Y14965925D01*
X16712716Y14953157D01*
X16712722Y14953149D01*
X16724013Y14941857D01*
X16727072Y14938571D01*
X16761576Y14898752D01*
X16761581Y14898747D01*
X16765707Y14896096D01*
X16786667Y14879203D01*
X16863095Y14802776D01*
X16897120Y14740464D01*
X16900000Y14713680D01*
X16900000Y13987429D01*
X16902991Y13961648D01*
X16902992Y13961643D01*
X16949579Y13856134D01*
X16949580Y13856132D01*
X17031132Y13774580D01*
X17031136Y13774578D01*
X17069396Y13757684D01*
X17123632Y13711870D01*
X17144490Y13644007D01*
X17144500Y13642421D01*
X17144500Y13187976D01*
X17124498Y13119855D01*
X17107596Y13098881D01*
X17076581Y13067867D01*
X17076578Y13067864D01*
X17029992Y12962356D01*
X17029991Y12962351D01*
X17027000Y12936570D01*
X17027000Y11447429D01*
X17029991Y11421648D01*
X17029992Y11421643D01*
X17076579Y11316134D01*
X17076580Y11316132D01*
X17158132Y11234580D01*
X17158134Y11234579D01*
X17263643Y11187992D01*
X17263648Y11187991D01*
X17289429Y11185000D01*
X17289436Y11185000D01*
X18270570Y11185000D01*
X18296351Y11187991D01*
X18296356Y11187992D01*
X18401865Y11234579D01*
X18401867Y11234580D01*
X18483419Y11316132D01*
X18483420Y11316134D01*
X18483421Y11316135D01*
X18530008Y11421645D01*
X18533000Y11447436D01*
X18533000Y11557500D01*
X18553002Y11625621D01*
X18606658Y11672114D01*
X18659000Y11683500D01*
X18933000Y11683500D01*
X19001121Y11663498D01*
X19047614Y11609842D01*
X19059000Y11557500D01*
X19059000Y11447429D01*
X19061991Y11421648D01*
X19061992Y11421643D01*
X19108579Y11316134D01*
X19108580Y11316132D01*
X19190132Y11234580D01*
X19190134Y11234579D01*
X19295643Y11187992D01*
X19295648Y11187991D01*
X19321429Y11185000D01*
X19321436Y11185000D01*
X20302570Y11185000D01*
X20328351Y11187991D01*
X20328356Y11187992D01*
X20433865Y11234579D01*
X20433867Y11234580D01*
X20515419Y11316132D01*
X20515420Y11316134D01*
X20515421Y11316135D01*
X20562008Y11421645D01*
X20565000Y11447436D01*
X20565000Y12936564D01*
X20562008Y12962355D01*
X20515421Y13067865D01*
X20433865Y13149421D01*
X20328355Y13196008D01*
X20302566Y13198999D01*
X20302565Y13199000D01*
X20302564Y13199000D01*
X19321436Y13199000D01*
X19321435Y13199000D01*
X19321432Y13198999D01*
X19295645Y13196008D01*
X19190135Y13149421D01*
X19190134Y13149420D01*
X19190132Y13149419D01*
X19108580Y13067867D01*
X19108579Y13067865D01*
X19061992Y12962356D01*
X19061991Y12962351D01*
X19059000Y12936570D01*
X19059000Y12826500D01*
X19038998Y12758379D01*
X18985342Y12711886D01*
X18933000Y12700500D01*
X18659000Y12700500D01*
X18590879Y12720502D01*
X18544386Y12774158D01*
X18533000Y12826500D01*
X18533000Y12936565D01*
X18532999Y12936570D01*
X18530008Y12962351D01*
X18530008Y12962355D01*
X18483421Y13067865D01*
X18401865Y13149421D01*
X18296355Y13196008D01*
X18272977Y13198719D01*
X18207618Y13226439D01*
X18167618Y13285095D01*
X18161500Y13323880D01*
X18161500Y13642421D01*
X18181502Y13710542D01*
X18235158Y13757035D01*
X18236604Y13757684D01*
X18274863Y13774578D01*
X18274867Y13774580D01*
X18356419Y13856132D01*
X18356420Y13856134D01*
X18356421Y13856135D01*
X18403008Y13961645D01*
X18406000Y13987436D01*
X18406000Y15476564D01*
X18403008Y15502355D01*
X18356421Y15607865D01*
X18274865Y15689421D01*
X18169355Y15736008D01*
X18143566Y15738999D01*
X18143565Y15739000D01*
X18143564Y15739000D01*
X17732500Y15739000D01*
X17664379Y15759002D01*
X17617886Y15812658D01*
X17606500Y15865000D01*
X17606500Y16578500D01*
X17626502Y16646621D01*
X17680158Y16693114D01*
X17732500Y16704500D01*
X17924070Y16704500D01*
X17949851Y16707491D01*
X17949856Y16707492D01*
X18055365Y16754079D01*
X18055367Y16754080D01*
X18136919Y16835632D01*
X18136920Y16835634D01*
X18136921Y16835635D01*
X18183508Y16941145D01*
X18186500Y16966936D01*
X18186500Y17653500D01*
X18206502Y17721621D01*
X18260158Y17768114D01*
X18312500Y17779500D01*
X20076000Y17779500D01*
X20144121Y17759498D01*
X20190614Y17705842D01*
X20202000Y17653500D01*
X20202000Y17035429D01*
X20204991Y17009648D01*
X20204992Y17009643D01*
X20251579Y16904134D01*
X20251580Y16904132D01*
X20333132Y16822580D01*
X20333134Y16822579D01*
X20438643Y16775992D01*
X20438648Y16775991D01*
X20464429Y16773000D01*
X20464436Y16773000D01*
X21445570Y16773000D01*
X21471351Y16775991D01*
X21471356Y16775992D01*
X21576865Y16822579D01*
X21576867Y16822580D01*
X21658419Y16904132D01*
X21658420Y16904134D01*
X21658421Y16904135D01*
X21705008Y17009645D01*
X21708000Y17035436D01*
X21708000Y18524564D01*
X21705008Y18550355D01*
X21658421Y18655865D01*
X21576865Y18737421D01*
X21471355Y18784008D01*
X21445566Y18786999D01*
X21445565Y18787000D01*
X21445564Y18787000D01*
X20583486Y18787000D01*
X20556703Y18789879D01*
X20556207Y18789986D01*
X20556201Y18789989D01*
X20503615Y18793749D01*
X20499192Y18794224D01*
X20483368Y18796500D01*
X20483366Y18796500D01*
X20467413Y18796500D01*
X20462917Y18796661D01*
X20410352Y18800420D01*
X20410351Y18800419D01*
X20410351Y18800420D01*
X20405566Y18799379D01*
X20378784Y18796500D01*
X18312500Y18796500D01*
X18244379Y18816502D01*
X18197886Y18870158D01*
X18186500Y18922500D01*
X18186500Y19609064D01*
X18186499Y19609070D01*
X18183508Y19634851D01*
X18183508Y19634855D01*
X18136921Y19740365D01*
X18055365Y19821921D01*
X17949855Y19868508D01*
X17924066Y19871499D01*
X17924065Y19871500D01*
X17924064Y19871500D01*
X17732500Y19871500D01*
X17664379Y19891502D01*
X17617886Y19945158D01*
X17606500Y19997500D01*
X17606500Y20515023D01*
X17626502Y20583144D01*
X17680158Y20629637D01*
X17750432Y20639741D01*
X17815012Y20610247D01*
X17821595Y20604118D01*
X17856632Y20569080D01*
X17856634Y20569079D01*
X17962143Y20522492D01*
X17962148Y20522491D01*
X17987929Y20519500D01*
X17987936Y20519500D01*
X19604070Y20519500D01*
X19629851Y20522491D01*
X19629856Y20522492D01*
X19735365Y20569079D01*
X19735367Y20569080D01*
X19816919Y20650632D01*
X19816920Y20650634D01*
X19816921Y20650635D01*
X19863508Y20756145D01*
X19866500Y20781936D01*
X19866500Y22398064D01*
X19863508Y22423855D01*
X19816921Y22529365D01*
X19735365Y22610921D01*
X19629855Y22657508D01*
X19604066Y22660499D01*
X19604065Y22660500D01*
X19604064Y22660500D01*
X17987936Y22660500D01*
X17987935Y22660500D01*
X17987932Y22660499D01*
X17962145Y22657508D01*
X17856635Y22610921D01*
X17856633Y22610920D01*
X17856634Y22610920D01*
X17856632Y22610919D01*
X17775078Y22529365D01*
X17730148Y22427606D01*
X17684335Y22373369D01*
X17616472Y22352510D01*
X17614884Y22352500D01*
X17516000Y22352500D01*
X17447879Y22372502D01*
X17401386Y22426158D01*
X17390000Y22478500D01*
X17390000Y22588565D01*
X17389999Y22588570D01*
X17387008Y22614355D01*
X17340421Y22719865D01*
X17258865Y22801421D01*
X17220606Y22818314D01*
X17166369Y22864127D01*
X17145510Y22931990D01*
X17145500Y22933578D01*
X17145500Y23294421D01*
X17165502Y23362542D01*
X17219158Y23409035D01*
X17220604Y23409684D01*
X17258863Y23426578D01*
X17258867Y23426580D01*
X17340419Y23508132D01*
X17340420Y23508134D01*
X17340421Y23508135D01*
X17387008Y23613645D01*
X17390000Y23639436D01*
X17390000Y23749500D01*
X17410002Y23817621D01*
X17463658Y23864114D01*
X17516000Y23875500D01*
X17599500Y23875500D01*
X17667621Y23855498D01*
X17714114Y23801842D01*
X17725500Y23749500D01*
X17725500Y23321929D01*
X17728491Y23296148D01*
X17728492Y23296143D01*
X17775079Y23190634D01*
X17775080Y23190632D01*
X17856632Y23109080D01*
X17856634Y23109079D01*
X17962143Y23062492D01*
X17962148Y23062491D01*
X17987929Y23059500D01*
X17987936Y23059500D01*
X19604070Y23059500D01*
X19629851Y23062491D01*
X19629856Y23062492D01*
X19735365Y23109079D01*
X19735367Y23109080D01*
X19816919Y23190632D01*
X19816920Y23190634D01*
X19816921Y23190635D01*
X19863508Y23296145D01*
X19866500Y23321936D01*
X19866500Y24938064D01*
X19863508Y24963855D01*
X19816921Y25069365D01*
X19735365Y25150921D01*
X19629855Y25197508D01*
X19604066Y25200499D01*
X19604065Y25200500D01*
X19604064Y25200500D01*
X17987936Y25200500D01*
X17987935Y25200500D01*
X17987932Y25200499D01*
X17962145Y25197508D01*
X17856635Y25150921D01*
X17856633Y25150920D01*
X17856634Y25150920D01*
X17856632Y25150919D01*
X17775078Y25069365D01*
X17730148Y24967606D01*
X17684335Y24913369D01*
X17616472Y24892510D01*
X17614884Y24892500D01*
X17516000Y24892500D01*
X17447879Y24912502D01*
X17401386Y24966158D01*
X17390000Y25018500D01*
X17390000Y25128565D01*
X17389999Y25128570D01*
X17387968Y25146080D01*
X17387008Y25154355D01*
X17340421Y25259865D01*
X17258865Y25341421D01*
X17153355Y25388008D01*
X17127566Y25390999D01*
X17127565Y25391000D01*
X17127564Y25391000D01*
X16146436Y25391000D01*
X16146435Y25391000D01*
X16146432Y25390999D01*
X16120645Y25388008D01*
X16015135Y25341421D01*
X16015133Y25341420D01*
X16015134Y25341420D01*
X16015132Y25341419D01*
X15933580Y25259867D01*
X15933579Y25259865D01*
X15886992Y25154356D01*
X15886991Y25154351D01*
X15884000Y25128570D01*
X15884000Y23639429D01*
X15886991Y23613648D01*
X15886992Y23613643D01*
X15933579Y23508134D01*
X15933580Y23508132D01*
X16015132Y23426580D01*
X16015136Y23426578D01*
X16053396Y23409684D01*
X16107632Y23363870D01*
X16128490Y23296007D01*
X16128500Y23294421D01*
X16128500Y22933578D01*
X16108498Y22865457D01*
X16054842Y22818964D01*
X16053394Y22818314D01*
X16015135Y22801421D01*
X16015134Y22801420D01*
X16015132Y22801419D01*
X15933580Y22719867D01*
X15933579Y22719865D01*
X15886992Y22614356D01*
X15886991Y22614351D01*
X15884000Y22588570D01*
X15884000Y21099429D01*
X15886991Y21073648D01*
X15886992Y21073643D01*
X15933579Y20968134D01*
X15933580Y20968132D01*
X16015132Y20886580D01*
X16015134Y20886579D01*
X16120643Y20839992D01*
X16120648Y20839991D01*
X16146429Y20837000D01*
X16146436Y20837000D01*
X16463500Y20837000D01*
X16531621Y20816998D01*
X16578114Y20763342D01*
X16589500Y20711000D01*
X16589500Y19997500D01*
X16569498Y19929379D01*
X16515842Y19882886D01*
X16463500Y19871500D01*
X16271935Y19871500D01*
X16271932Y19871499D01*
X16246145Y19868508D01*
X16140635Y19821921D01*
X16140633Y19821920D01*
X16140634Y19821920D01*
X16140632Y19821919D01*
X16059080Y19740367D01*
X16059079Y19740365D01*
X16012492Y19634856D01*
X16012491Y19634851D01*
X16009500Y19609070D01*
X16009500Y18922500D01*
X15989498Y18854379D01*
X15935842Y18807886D01*
X15883500Y18796500D01*
X15482976Y18796500D01*
X15414855Y18816502D01*
X15393885Y18833400D01*
X15355365Y18871921D01*
X15249855Y18918508D01*
X15224066Y18921499D01*
X15224065Y18921500D01*
X15224064Y18921500D01*
X13571936Y18921500D01*
X13571935Y18921500D01*
X13571932Y18921499D01*
X13546145Y18918508D01*
X13440635Y18871921D01*
X13440633Y18871920D01*
X13440634Y18871920D01*
X13440632Y18871919D01*
X13359080Y18790367D01*
X13359079Y18790365D01*
X13312492Y18684856D01*
X13312491Y18684851D01*
X13309500Y18659070D01*
X13309500Y18269818D01*
X13289498Y18201697D01*
X13235842Y18155204D01*
X13165568Y18145100D01*
X13100988Y18174594D01*
X13094405Y18180723D01*
X12737405Y18537723D01*
X12703379Y18600035D01*
X12700500Y18626818D01*
X12700500Y21099429D01*
X13979000Y21099429D01*
X13981991Y21073648D01*
X13981992Y21073643D01*
X14028579Y20968134D01*
X14028580Y20968132D01*
X14110132Y20886580D01*
X14110134Y20886579D01*
X14215643Y20839992D01*
X14215648Y20839991D01*
X14241429Y20837000D01*
X14241436Y20837000D01*
X15222570Y20837000D01*
X15248351Y20839991D01*
X15248356Y20839992D01*
X15353865Y20886579D01*
X15353867Y20886580D01*
X15435419Y20968132D01*
X15435420Y20968134D01*
X15435421Y20968135D01*
X15482008Y21073645D01*
X15485000Y21099436D01*
X15485000Y22588564D01*
X15482008Y22614355D01*
X15435421Y22719865D01*
X15353865Y22801421D01*
X15315606Y22818314D01*
X15261369Y22864127D01*
X15240510Y22931990D01*
X15240500Y22933578D01*
X15240500Y23294421D01*
X15260502Y23362542D01*
X15314158Y23409035D01*
X15315604Y23409684D01*
X15353863Y23426578D01*
X15353867Y23426580D01*
X15435419Y23508132D01*
X15435420Y23508134D01*
X15435421Y23508135D01*
X15482008Y23613645D01*
X15485000Y23639436D01*
X15485000Y25128564D01*
X15482008Y25154355D01*
X15435421Y25259865D01*
X15353865Y25341421D01*
X15315606Y25358314D01*
X15261369Y25404127D01*
X15240510Y25471990D01*
X15240500Y25473578D01*
X15240500Y25477180D01*
X15260502Y25545301D01*
X15277405Y25566275D01*
X16155725Y26444595D01*
X16218037Y26478621D01*
X16244820Y26481500D01*
X17169632Y26481500D01*
X17885024Y26481500D01*
X17953145Y26461498D01*
X17974114Y26444599D01*
X17985278Y26433436D01*
X18012635Y26406078D01*
X18118143Y26359492D01*
X18118148Y26359491D01*
X18143929Y26356500D01*
X18143936Y26356500D01*
X19796070Y26356500D01*
X19821851Y26359491D01*
X19821856Y26359492D01*
X19927365Y26406079D01*
X19927367Y26406080D01*
X20008919Y26487632D01*
X20008920Y26487634D01*
X20008921Y26487635D01*
X20055508Y26593145D01*
X20058500Y26618936D01*
X20058500Y27361064D01*
X20055508Y27386855D01*
X20008921Y27492365D01*
X19927365Y27573921D01*
X19821855Y27620508D01*
X19796066Y27623499D01*
X19796065Y27623500D01*
X19796064Y27623500D01*
X18143936Y27623500D01*
X18143935Y27623500D01*
X18143932Y27623499D01*
X18118145Y27620508D01*
X18012635Y27573921D01*
X17974117Y27535403D01*
X17911809Y27501380D01*
X17885024Y27498500D01*
X16050218Y27498500D01*
X16023438Y27501379D01*
X16021623Y27501773D01*
X16018651Y27502420D01*
X15984581Y27499983D01*
X15966090Y27498661D01*
X15961593Y27498500D01*
X15945633Y27498500D01*
X15945632Y27498499D01*
X15935554Y27497050D01*
X15929830Y27496228D01*
X15925385Y27495749D01*
X15872801Y27491988D01*
X15868218Y27490278D01*
X15842109Y27483614D01*
X15837268Y27482919D01*
X15789313Y27461018D01*
X15785174Y27459304D01*
X15735798Y27440889D01*
X15735795Y27440887D01*
X15735794Y27440887D01*
X15731879Y27437956D01*
X15708710Y27424209D01*
X15706604Y27423246D01*
X15704259Y27422176D01*
X15704258Y27422175D01*
X15664437Y27387671D01*
X15660934Y27384847D01*
X15655178Y27380538D01*
X15648154Y27375280D01*
X15636852Y27363978D01*
X15633572Y27360925D01*
X15593752Y27326422D01*
X15593750Y27326419D01*
X15591105Y27322303D01*
X15574203Y27301329D01*
X14676624Y26403751D01*
X14676620Y26403746D01*
X14524066Y26251192D01*
X14507136Y26238697D01*
X14507770Y26237839D01*
X14500173Y26232232D01*
X14445192Y26177252D01*
X14439922Y26172542D01*
X14416925Y26154202D01*
X14410631Y26149183D01*
X14401286Y26135478D01*
X14396844Y26129708D01*
X14361067Y26088419D01*
X14358013Y26085139D01*
X14346720Y26073846D01*
X14346717Y26073843D01*
X14337152Y26061065D01*
X14334329Y26057562D01*
X14299824Y26017741D01*
X14299822Y26017738D01*
X14297788Y26013284D01*
X14284048Y25990126D01*
X14281112Y25986204D01*
X14281110Y25986200D01*
X14262690Y25936817D01*
X14260969Y25932663D01*
X14239082Y25884736D01*
X14239078Y25884722D01*
X14238381Y25879874D01*
X14231726Y25853799D01*
X14230011Y25849202D01*
X14230010Y25849197D01*
X14226249Y25796625D01*
X14225769Y25792158D01*
X14223500Y25776368D01*
X14223500Y25760410D01*
X14223339Y25755914D01*
X14219580Y25703351D01*
X14219580Y25703350D01*
X14220622Y25698560D01*
X14223500Y25671781D01*
X14223500Y25473578D01*
X14203498Y25405457D01*
X14149842Y25358964D01*
X14148394Y25358314D01*
X14110135Y25341421D01*
X14110134Y25341420D01*
X14110132Y25341419D01*
X14028580Y25259867D01*
X14028579Y25259865D01*
X13981992Y25154356D01*
X13981991Y25154351D01*
X13979000Y25128570D01*
X13979000Y23639429D01*
X13981991Y23613648D01*
X13981992Y23613643D01*
X14028579Y23508134D01*
X14028580Y23508132D01*
X14110132Y23426580D01*
X14110136Y23426578D01*
X14148396Y23409684D01*
X14202632Y23363870D01*
X14223490Y23296007D01*
X14223500Y23294421D01*
X14223500Y22933578D01*
X14203498Y22865457D01*
X14149842Y22818964D01*
X14148394Y22818314D01*
X14110135Y22801421D01*
X14110134Y22801420D01*
X14110132Y22801419D01*
X14028580Y22719867D01*
X14028579Y22719865D01*
X13981992Y22614356D01*
X13981991Y22614351D01*
X13979000Y22588570D01*
X13979000Y21099429D01*
X12700500Y21099429D01*
X12700500Y25645182D01*
X12720502Y25713303D01*
X12737405Y25734277D01*
X15347723Y28344595D01*
X15410035Y28378621D01*
X15436818Y28381500D01*
X17885024Y28381500D01*
X17953145Y28361498D01*
X17974114Y28344599D01*
X17993377Y28325336D01*
X18012635Y28306078D01*
X18118143Y28259492D01*
X18118148Y28259491D01*
X18143929Y28256500D01*
X18143936Y28256500D01*
X19796070Y28256500D01*
X19821851Y28259491D01*
X19821856Y28259492D01*
X19927365Y28306079D01*
X19927367Y28306080D01*
X20008919Y28387632D01*
X20008920Y28387634D01*
X20008921Y28387635D01*
X20055508Y28493145D01*
X20058499Y28518929D01*
X20581500Y28518929D01*
X20584491Y28493148D01*
X20584492Y28493143D01*
X20631079Y28387634D01*
X20631080Y28387632D01*
X20712632Y28306080D01*
X20712634Y28306079D01*
X20818143Y28259492D01*
X20818148Y28259491D01*
X20843929Y28256500D01*
X20843936Y28256500D01*
X22496070Y28256500D01*
X22521851Y28259491D01*
X22521856Y28259492D01*
X22627365Y28306079D01*
X22627367Y28306080D01*
X22708919Y28387632D01*
X22708920Y28387634D01*
X22708921Y28387635D01*
X22755508Y28493145D01*
X22758500Y28518936D01*
X22758500Y29261064D01*
X22755508Y29286855D01*
X22708921Y29392365D01*
X22627365Y29473921D01*
X22521855Y29520508D01*
X22496066Y29523499D01*
X22496065Y29523500D01*
X22496064Y29523500D01*
X22304500Y29523500D01*
X22236379Y29543502D01*
X22189886Y29597158D01*
X22178500Y29649500D01*
X22178500Y31276182D01*
X22198502Y31344303D01*
X22215405Y31365277D01*
X22987223Y32137095D01*
X23049535Y32171121D01*
X23076318Y32174000D01*
X24291681Y32174000D01*
X24359802Y32153998D01*
X24380777Y32137095D01*
X24701204Y31816666D01*
X24718100Y31795701D01*
X24720748Y31791581D01*
X24720751Y31791577D01*
X24760570Y31757073D01*
X24763861Y31754010D01*
X24775152Y31742718D01*
X24787936Y31733146D01*
X24791430Y31730331D01*
X24831256Y31695824D01*
X24835725Y31693783D01*
X24858867Y31680052D01*
X24862792Y31677113D01*
X24862797Y31677111D01*
X24912167Y31658696D01*
X24916321Y31656976D01*
X24964268Y31635080D01*
X24969116Y31634383D01*
X24995210Y31627723D01*
X24999797Y31626012D01*
X25052359Y31622251D01*
X25056825Y31621771D01*
X25072629Y31619500D01*
X25072632Y31619500D01*
X25088600Y31619500D01*
X25093096Y31619339D01*
X25145645Y31615581D01*
X25145648Y31615581D01*
X25150429Y31616621D01*
X25177210Y31619500D01*
X25521181Y31619500D01*
X25589302Y31599498D01*
X25610277Y31582595D01*
X25714697Y31478173D01*
X25748722Y31415860D01*
X25743656Y31345044D01*
X25714696Y31299983D01*
X25700080Y31285367D01*
X25700079Y31285365D01*
X25653492Y31179856D01*
X25653491Y31179851D01*
X25650500Y31154070D01*
X25650500Y29061929D01*
X25653491Y29036148D01*
X25653492Y29036143D01*
X25700079Y28930634D01*
X25700080Y28930632D01*
X25781632Y28849080D01*
X25781634Y28849079D01*
X25887143Y28802492D01*
X25887148Y28802491D01*
X25912929Y28799500D01*
X25912936Y28799500D01*
X26655070Y28799500D01*
X26680851Y28802491D01*
X26680856Y28802492D01*
X26786365Y28849079D01*
X26786367Y28849080D01*
X26867919Y28930632D01*
X26867920Y28930634D01*
X26867921Y28930635D01*
X26914508Y29036145D01*
X26917500Y29061936D01*
X26917500Y31154064D01*
X26914508Y31179855D01*
X26867921Y31285365D01*
X26829403Y31323882D01*
X26795380Y31386191D01*
X26792500Y31412976D01*
X26792500Y31559783D01*
X26795378Y31586562D01*
X26796420Y31591351D01*
X26793480Y31632456D01*
X26792661Y31643916D01*
X26792500Y31648412D01*
X26792500Y31664367D01*
X26792340Y31665482D01*
X26790229Y31680159D01*
X26789749Y31684629D01*
X26786375Y31731806D01*
X26785989Y31737200D01*
X26784275Y31741793D01*
X26777614Y31767896D01*
X26776919Y31772734D01*
X26755019Y31820685D01*
X26753314Y31824802D01*
X26734889Y31874204D01*
X26731955Y31878121D01*
X26718208Y31901292D01*
X26716176Y31905743D01*
X26681650Y31945585D01*
X26678855Y31949055D01*
X26669280Y31961848D01*
X26657985Y31973141D01*
X26654933Y31976419D01*
X26620421Y32016250D01*
X26620417Y32016252D01*
X26618586Y32018366D01*
X26589093Y32082947D01*
X26599198Y32153221D01*
X26645691Y32206876D01*
X26672187Y32218659D01*
X26672185Y32218664D01*
X26673995Y32219463D01*
X26680727Y32222457D01*
X26680853Y32222491D01*
X26786365Y32269079D01*
X26786367Y32269080D01*
X26867919Y32350632D01*
X26867920Y32350634D01*
X26867921Y32350635D01*
X26914508Y32456145D01*
X26917500Y32481936D01*
X26917500Y32893500D01*
X26937502Y32961621D01*
X26991158Y33008114D01*
X27043500Y33019500D01*
X27188000Y33019500D01*
X27256121Y32999498D01*
X27302614Y32945842D01*
X27314000Y32893500D01*
X27314000Y32783429D01*
X27316991Y32757648D01*
X27316992Y32757643D01*
X27363579Y32652134D01*
X27363580Y32652132D01*
X27445132Y32570580D01*
X27445136Y32570578D01*
X27483396Y32553684D01*
X27537632Y32507870D01*
X27558490Y32440007D01*
X27558500Y32438421D01*
X27558500Y32077578D01*
X27538498Y32009457D01*
X27484842Y31962964D01*
X27483394Y31962314D01*
X27445135Y31945421D01*
X27445134Y31945420D01*
X27445132Y31945419D01*
X27363580Y31863867D01*
X27363579Y31863865D01*
X27316992Y31758356D01*
X27316991Y31758351D01*
X27314000Y31732570D01*
X27314000Y30243429D01*
X27316991Y30217648D01*
X27316992Y30217643D01*
X27363579Y30112134D01*
X27363580Y30112132D01*
X27445132Y30030580D01*
X27445134Y30030579D01*
X27550643Y29983992D01*
X27550646Y29983991D01*
X27561174Y29982770D01*
X27626534Y29955046D01*
X27641870Y29940123D01*
X27669335Y29908427D01*
X27672157Y29904925D01*
X27681714Y29892159D01*
X27681722Y29892149D01*
X27693013Y29880857D01*
X27696072Y29877571D01*
X27730577Y29837751D01*
X27730581Y29837747D01*
X27734704Y29835098D01*
X27755669Y29818201D01*
X28420094Y29153776D01*
X28454120Y29091464D01*
X28456999Y29064681D01*
X28456999Y28338435D01*
X28457000Y28338429D01*
X28459991Y28312648D01*
X28459992Y28312643D01*
X28506579Y28207134D01*
X28506580Y28207132D01*
X28588132Y28125580D01*
X28588134Y28125579D01*
X28693643Y28078992D01*
X28693648Y28078991D01*
X28719429Y28076000D01*
X28719436Y28076000D01*
X30208570Y28076000D01*
X30234351Y28078991D01*
X30234356Y28078992D01*
X30339865Y28125579D01*
X30339867Y28125580D01*
X30421419Y28207132D01*
X30421420Y28207134D01*
X30421421Y28207135D01*
X30468008Y28312645D01*
X30471000Y28338436D01*
X30471000Y29319564D01*
X30468008Y29345355D01*
X30421421Y29450865D01*
X30390857Y29481429D01*
X30997000Y29481429D01*
X30999991Y29455648D01*
X30999992Y29455643D01*
X31046579Y29350134D01*
X31046580Y29350132D01*
X31128132Y29268580D01*
X31128134Y29268579D01*
X31233643Y29221992D01*
X31233648Y29221991D01*
X31259429Y29219000D01*
X31259436Y29219000D01*
X31985681Y29219000D01*
X32053802Y29198998D01*
X32074779Y29182092D01*
X32104206Y29152663D01*
X32121100Y29131701D01*
X32123748Y29127581D01*
X32123751Y29127577D01*
X32163570Y29093073D01*
X32166861Y29090010D01*
X32178152Y29078718D01*
X32190936Y29069146D01*
X32194430Y29066331D01*
X32234256Y29031824D01*
X32238725Y29029783D01*
X32261867Y29016052D01*
X32265792Y29013113D01*
X32265797Y29013111D01*
X32315167Y28994696D01*
X32319321Y28992976D01*
X32367268Y28971080D01*
X32372116Y28970383D01*
X32398210Y28963723D01*
X32402797Y28962012D01*
X32455359Y28958251D01*
X32459825Y28957771D01*
X32475629Y28955500D01*
X32475632Y28955500D01*
X32491600Y28955500D01*
X32496096Y28955339D01*
X32548645Y28951581D01*
X32548648Y28951581D01*
X32553429Y28952621D01*
X32580210Y28955500D01*
X34109500Y28955500D01*
X34177621Y28935498D01*
X34224114Y28881842D01*
X34235500Y28829500D01*
X34235500Y28655929D01*
X34238491Y28630148D01*
X34238492Y28630143D01*
X34285079Y28524634D01*
X34285080Y28524632D01*
X34366632Y28443080D01*
X34366634Y28443079D01*
X34472143Y28396492D01*
X34472148Y28396491D01*
X34497929Y28393500D01*
X34497936Y28393500D01*
X36114070Y28393500D01*
X36139851Y28396491D01*
X36139856Y28396492D01*
X36245365Y28443079D01*
X36245367Y28443080D01*
X36326919Y28524632D01*
X36326920Y28524634D01*
X36326921Y28524635D01*
X36373508Y28630145D01*
X36376500Y28655936D01*
X36376500Y28829500D01*
X36396502Y28897621D01*
X36450158Y28944114D01*
X36502500Y28955500D01*
X36649500Y28955500D01*
X36717621Y28935498D01*
X36764114Y28881842D01*
X36775500Y28829500D01*
X36775500Y28655929D01*
X36778491Y28630148D01*
X36778492Y28630143D01*
X36825079Y28524634D01*
X36825080Y28524632D01*
X36906632Y28443080D01*
X36906634Y28443079D01*
X37012143Y28396492D01*
X37012148Y28396491D01*
X37037929Y28393500D01*
X37037936Y28393500D01*
X38654070Y28393500D01*
X38679851Y28396491D01*
X38679856Y28396492D01*
X38785365Y28443079D01*
X38785367Y28443080D01*
X38866919Y28524632D01*
X38866920Y28524634D01*
X38866921Y28524635D01*
X38913508Y28630145D01*
X38916500Y28655936D01*
X38916500Y30272064D01*
X38913508Y30297855D01*
X38866921Y30403365D01*
X38785365Y30484921D01*
X38679855Y30531508D01*
X38654066Y30534499D01*
X38654065Y30534500D01*
X38654064Y30534500D01*
X37037936Y30534500D01*
X37037935Y30534500D01*
X37037932Y30534499D01*
X37012145Y30531508D01*
X36906635Y30484921D01*
X36906634Y30484920D01*
X36906632Y30484919D01*
X36825080Y30403367D01*
X36825079Y30403365D01*
X36778492Y30297856D01*
X36778491Y30297851D01*
X36775500Y30272070D01*
X36775500Y30098500D01*
X36755498Y30030379D01*
X36701842Y29983886D01*
X36649500Y29972500D01*
X36502500Y29972500D01*
X36434379Y29992502D01*
X36387886Y30046158D01*
X36376500Y30098500D01*
X36376500Y30272064D01*
X36376499Y30272070D01*
X36373508Y30297851D01*
X36373508Y30297855D01*
X36326921Y30403365D01*
X36245365Y30484921D01*
X36139855Y30531508D01*
X36114066Y30534499D01*
X36114065Y30534500D01*
X36114064Y30534500D01*
X34497936Y30534500D01*
X34497935Y30534500D01*
X34497932Y30534499D01*
X34472145Y30531508D01*
X34366635Y30484921D01*
X34366634Y30484920D01*
X34366632Y30484919D01*
X34285080Y30403367D01*
X34285079Y30403365D01*
X34238492Y30297856D01*
X34238491Y30297851D01*
X34235500Y30272070D01*
X34235500Y30098500D01*
X34215498Y30030379D01*
X34161842Y29983886D01*
X34109500Y29972500D01*
X33137000Y29972500D01*
X33068879Y29992502D01*
X33022386Y30046158D01*
X33011000Y30098500D01*
X33011000Y30462565D01*
X33010999Y30462570D01*
X33008008Y30488355D01*
X32961421Y30593865D01*
X32879865Y30675421D01*
X32774355Y30722008D01*
X32748566Y30724999D01*
X32748565Y30725000D01*
X32748564Y30725000D01*
X31259436Y30725000D01*
X31259435Y30725000D01*
X31259432Y30724999D01*
X31233645Y30722008D01*
X31128135Y30675421D01*
X31128133Y30675420D01*
X31128134Y30675420D01*
X31128132Y30675419D01*
X31046580Y30593867D01*
X31046579Y30593865D01*
X30999992Y30488356D01*
X30999991Y30488351D01*
X30997000Y30462570D01*
X30997000Y29481429D01*
X30390857Y29481429D01*
X30339865Y29532421D01*
X30234355Y29579008D01*
X30208566Y29581999D01*
X30208565Y29582000D01*
X30208564Y29582000D01*
X29482319Y29582000D01*
X29414198Y29602002D01*
X29393224Y29618904D01*
X28856905Y30155222D01*
X28822880Y30217535D01*
X28820000Y30244318D01*
X28820000Y31732565D01*
X28819999Y31732570D01*
X28819932Y31733146D01*
X28817008Y31758355D01*
X28770421Y31863865D01*
X28688865Y31945421D01*
X28650606Y31962314D01*
X28596369Y32008127D01*
X28575510Y32075990D01*
X28575500Y32077578D01*
X28575500Y32438421D01*
X28595502Y32506542D01*
X28649158Y32553035D01*
X28650604Y32553684D01*
X28688863Y32570578D01*
X28688867Y32570580D01*
X28770419Y32652132D01*
X28770420Y32652134D01*
X28770421Y32652135D01*
X28817008Y32757645D01*
X28820000Y32783436D01*
X28820000Y34272564D01*
X28817008Y34298355D01*
X28770421Y34403865D01*
X28688865Y34485421D01*
X28583355Y34532008D01*
X28557566Y34534999D01*
X28557565Y34535000D01*
X28557564Y34535000D01*
X27576436Y34535000D01*
X27576435Y34535000D01*
X27576432Y34534999D01*
X27550645Y34532008D01*
X27445135Y34485421D01*
X27445133Y34485420D01*
X27445134Y34485420D01*
X27445132Y34485419D01*
X27363580Y34403867D01*
X27363579Y34403865D01*
X27316992Y34298356D01*
X27316991Y34298351D01*
X27314000Y34272570D01*
X27314000Y34162500D01*
X27293998Y34094379D01*
X27240342Y34047886D01*
X27188000Y34036500D01*
X27043500Y34036500D01*
X26975379Y34056502D01*
X26928886Y34110158D01*
X26917500Y34162500D01*
X26917500Y34574065D01*
X26917499Y34574070D01*
X26914508Y34599855D01*
X26867921Y34705365D01*
X26786365Y34786921D01*
X26680855Y34833508D01*
X26655066Y34836499D01*
X26655065Y34836500D01*
X26655064Y34836500D01*
X25912936Y34836500D01*
X25912935Y34836500D01*
X25912932Y34836499D01*
X25887145Y34833508D01*
X25781635Y34786921D01*
X25781633Y34786920D01*
X25781634Y34786920D01*
X25781632Y34786919D01*
X25700080Y34705367D01*
X25700079Y34705365D01*
X25653492Y34599856D01*
X25653491Y34599851D01*
X25650500Y34574070D01*
X25650500Y32762500D01*
X25630498Y32694379D01*
X25576842Y32647886D01*
X25524500Y32636500D01*
X25371819Y32636500D01*
X25303698Y32656502D01*
X25282724Y32673404D01*
X25054405Y32901722D01*
X25020380Y32964035D01*
X25017500Y32990818D01*
X25017500Y34574065D01*
X25017499Y34574070D01*
X25014508Y34599855D01*
X24967921Y34705365D01*
X24951301Y34721984D01*
X24917277Y34784293D01*
X24922340Y34855109D01*
X24951302Y34900174D01*
X25333722Y35282594D01*
X25396034Y35316620D01*
X25422817Y35319499D01*
X30457183Y35319499D01*
X30525304Y35299497D01*
X30546273Y35282598D01*
X31458597Y34370273D01*
X31492621Y34307964D01*
X31495500Y34281181D01*
X31495500Y32756000D01*
X31475498Y32687879D01*
X31421842Y32641386D01*
X31369500Y32630000D01*
X31259435Y32630000D01*
X31259432Y32629999D01*
X31233645Y32627008D01*
X31128135Y32580421D01*
X31128133Y32580420D01*
X31128134Y32580420D01*
X31128132Y32580419D01*
X31046580Y32498867D01*
X31046579Y32498865D01*
X30999992Y32393356D01*
X30999991Y32393351D01*
X30997000Y32367570D01*
X30997000Y31386429D01*
X30999991Y31360648D01*
X30999992Y31360643D01*
X31046579Y31255134D01*
X31046580Y31255132D01*
X31128132Y31173580D01*
X31128134Y31173579D01*
X31233643Y31126992D01*
X31233648Y31126991D01*
X31259429Y31124000D01*
X31259436Y31124000D01*
X32748570Y31124000D01*
X32774351Y31126991D01*
X32774356Y31126992D01*
X32879865Y31173579D01*
X32879867Y31173580D01*
X32961419Y31255132D01*
X32961420Y31255134D01*
X32961421Y31255135D01*
X33008008Y31360645D01*
X33011000Y31386436D01*
X33011000Y32367564D01*
X33008008Y32393355D01*
X32961421Y32498865D01*
X32879865Y32580421D01*
X32774355Y32627008D01*
X32748566Y32629999D01*
X32748565Y32630000D01*
X32748564Y32630000D01*
X32638500Y32630000D01*
X32570379Y32650002D01*
X32523886Y32703658D01*
X32512500Y32756000D01*
X32512499Y34475782D01*
X32515379Y34502568D01*
X32516420Y34507351D01*
X32512661Y34559916D01*
X32512500Y34564412D01*
X32512500Y34580367D01*
X32510230Y34596153D01*
X32509749Y34600629D01*
X32505989Y34653196D01*
X32505989Y34653200D01*
X32504275Y34657793D01*
X32497614Y34683896D01*
X32496919Y34688734D01*
X32475019Y34736685D01*
X32473314Y34740802D01*
X32454889Y34790204D01*
X32451955Y34794121D01*
X32438208Y34817292D01*
X32436176Y34821743D01*
X32401650Y34861585D01*
X32398855Y34865055D01*
X32389280Y34877848D01*
X32377985Y34889141D01*
X32374934Y34892418D01*
X32340421Y34932250D01*
X32336305Y34934894D01*
X32315331Y34951795D01*
X31127796Y36139330D01*
X31110895Y36160304D01*
X31108251Y36164420D01*
X31068419Y36198933D01*
X31065141Y36201986D01*
X31065136Y36201991D01*
X31053849Y36213279D01*
X31041056Y36222854D01*
X31037586Y36225649D01*
X30997744Y36260175D01*
X30993300Y36262203D01*
X30970117Y36275959D01*
X30966205Y36278888D01*
X30916801Y36297314D01*
X30912684Y36299019D01*
X30864735Y36320918D01*
X30859894Y36321613D01*
X30833795Y36328274D01*
X30829202Y36329988D01*
X30776616Y36333748D01*
X30772193Y36334223D01*
X30756369Y36336499D01*
X30756367Y36336499D01*
X30740414Y36336499D01*
X30735918Y36336660D01*
X30683353Y36340419D01*
X30683352Y36340418D01*
X30683352Y36340419D01*
X30678567Y36339378D01*
X30651785Y36336499D01*
X25228214Y36336499D01*
X25201434Y36339378D01*
X25199619Y36339772D01*
X25196647Y36340419D01*
X25161467Y36337902D01*
X25144087Y36336660D01*
X25139591Y36336499D01*
X25123631Y36336499D01*
X25107826Y36334226D01*
X25103365Y36333747D01*
X25076949Y36331857D01*
X25050798Y36329987D01*
X25046215Y36328277D01*
X25020106Y36321613D01*
X25015265Y36320918D01*
X24967310Y36299017D01*
X24963171Y36297303D01*
X24913795Y36278888D01*
X24913792Y36278886D01*
X24913791Y36278886D01*
X24909876Y36275955D01*
X24886707Y36262208D01*
X24884601Y36261245D01*
X24882256Y36260175D01*
X24882255Y36260174D01*
X24842434Y36225670D01*
X24838931Y36222846D01*
X24833175Y36218537D01*
X24826151Y36213279D01*
X24814849Y36201977D01*
X24811569Y36198924D01*
X24771749Y36164421D01*
X24771747Y36164418D01*
X24769100Y36160299D01*
X24752198Y36139326D01*
X24072671Y35459799D01*
X24051691Y35442893D01*
X24047580Y35440251D01*
X24013067Y35400421D01*
X24010012Y35397140D01*
X23998720Y35385848D01*
X23998717Y35385845D01*
X23989152Y35373067D01*
X23986329Y35369564D01*
X23951824Y35329743D01*
X23951822Y35329740D01*
X23949788Y35325286D01*
X23936048Y35302128D01*
X23933112Y35298206D01*
X23933110Y35298202D01*
X23914690Y35248819D01*
X23912969Y35244665D01*
X23891082Y35196738D01*
X23891078Y35196724D01*
X23890381Y35191876D01*
X23883726Y35165801D01*
X23882011Y35161204D01*
X23882010Y35161199D01*
X23878249Y35108627D01*
X23877769Y35104160D01*
X23875500Y35088370D01*
X23875500Y35072412D01*
X23875339Y35067916D01*
X23871580Y35015353D01*
X23871580Y35015352D01*
X23872622Y35010562D01*
X23875500Y34983783D01*
X23875500Y34832976D01*
X23855498Y34764855D01*
X23838599Y34743885D01*
X23816696Y34721982D01*
X23800078Y34705364D01*
X23753492Y34599856D01*
X23753491Y34599851D01*
X23750500Y34574070D01*
X23750500Y33317000D01*
X23730498Y33248879D01*
X23676842Y33202386D01*
X23624500Y33191000D01*
X22881715Y33191000D01*
X22854935Y33193879D01*
X22853120Y33194273D01*
X22850148Y33194920D01*
X22814968Y33192403D01*
X22797588Y33191161D01*
X22793092Y33191000D01*
X22777132Y33191000D01*
X22761327Y33188727D01*
X22756866Y33188248D01*
X22730450Y33186358D01*
X22704299Y33184488D01*
X22699716Y33182778D01*
X22673607Y33176114D01*
X22668766Y33175419D01*
X22620811Y33153518D01*
X22616672Y33151804D01*
X22567296Y33133389D01*
X22567293Y33133387D01*
X22567292Y33133387D01*
X22563377Y33130456D01*
X22540208Y33116709D01*
X22538102Y33115746D01*
X22535757Y33114676D01*
X22535756Y33114675D01*
X22495935Y33080171D01*
X22492432Y33077347D01*
X22486676Y33073038D01*
X22479652Y33067780D01*
X22468350Y33056478D01*
X22465070Y33053425D01*
X22425250Y33018922D01*
X22425248Y33018919D01*
X22422601Y33014800D01*
X22405699Y32993827D01*
X21358671Y31946799D01*
X21337691Y31929893D01*
X21333580Y31927251D01*
X21333579Y31927250D01*
X21311092Y31901298D01*
X21299067Y31887421D01*
X21296012Y31884140D01*
X21289992Y31878120D01*
X21284717Y31872845D01*
X21275152Y31860067D01*
X21272329Y31856564D01*
X21237824Y31816743D01*
X21237822Y31816740D01*
X21235788Y31812286D01*
X21222048Y31789128D01*
X21219112Y31785206D01*
X21219110Y31785202D01*
X21200690Y31735819D01*
X21198969Y31731665D01*
X21177082Y31683738D01*
X21177078Y31683724D01*
X21176381Y31678876D01*
X21169726Y31652801D01*
X21168011Y31648204D01*
X21168010Y31648199D01*
X21164249Y31595627D01*
X21163769Y31591160D01*
X21161500Y31575370D01*
X21161500Y31559412D01*
X21161339Y31554916D01*
X21157580Y31502353D01*
X21157580Y31502352D01*
X21158622Y31497562D01*
X21161500Y31470783D01*
X21161500Y29649500D01*
X21141498Y29581379D01*
X21087842Y29534886D01*
X21035500Y29523500D01*
X20843935Y29523500D01*
X20843932Y29523499D01*
X20818145Y29520508D01*
X20712635Y29473921D01*
X20712633Y29473920D01*
X20712634Y29473920D01*
X20712632Y29473919D01*
X20631080Y29392367D01*
X20631079Y29392365D01*
X20584492Y29286856D01*
X20584491Y29286851D01*
X20581500Y29261070D01*
X20581500Y28518929D01*
X20058499Y28518929D01*
X20058500Y28518936D01*
X20058500Y29261064D01*
X20055508Y29286855D01*
X20008921Y29392365D01*
X19927365Y29473921D01*
X19821855Y29520508D01*
X19796066Y29523499D01*
X19796065Y29523500D01*
X19796064Y29523500D01*
X18143936Y29523500D01*
X18143935Y29523500D01*
X18143932Y29523499D01*
X18118145Y29520508D01*
X18012635Y29473921D01*
X17974117Y29435403D01*
X17911809Y29401380D01*
X17885024Y29398500D01*
X15874500Y29398500D01*
X15806379Y29418502D01*
X15759886Y29472158D01*
X15748500Y29524500D01*
X15748500Y30045500D01*
X15768502Y30113621D01*
X15822158Y30160114D01*
X15874500Y30171500D01*
X16048070Y30171500D01*
X16073851Y30174491D01*
X16073856Y30174492D01*
X16179365Y30221079D01*
X16179367Y30221080D01*
X16260919Y30302632D01*
X16260920Y30302634D01*
X16260921Y30302635D01*
X16307508Y30408145D01*
X16310500Y30433936D01*
X16310500Y32050064D01*
X16307508Y32075855D01*
X16260921Y32181365D01*
X16179365Y32262921D01*
X16073855Y32309508D01*
X16048066Y32312499D01*
X16048065Y32312500D01*
X16048064Y32312500D01*
X15874500Y32312500D01*
X15806379Y32332502D01*
X15759886Y32386158D01*
X15748500Y32438500D01*
X15748500Y32585500D01*
X15768502Y32653621D01*
X15822158Y32700114D01*
X15874500Y32711500D01*
X16048070Y32711500D01*
X16073851Y32714491D01*
X16073856Y32714492D01*
X16179365Y32761079D01*
X16179367Y32761080D01*
X16260919Y32842632D01*
X16260920Y32842634D01*
X16260921Y32842635D01*
X16307508Y32948145D01*
X16310500Y32973936D01*
X16310500Y34590064D01*
X16307508Y34615855D01*
X16260921Y34721365D01*
X16179365Y34802921D01*
X16073855Y34849508D01*
X16048066Y34852499D01*
X16048065Y34852500D01*
X16048064Y34852500D01*
X14431936Y34852500D01*
X14431935Y34852500D01*
X14431932Y34852499D01*
X14406145Y34849508D01*
X14300635Y34802921D01*
X14300633Y34802920D01*
X14300634Y34802920D01*
X14300632Y34802919D01*
X14219080Y34721367D01*
X14219079Y34721365D01*
X14172492Y34615856D01*
X14172491Y34615851D01*
X14169500Y34590070D01*
X14169500Y32973929D01*
X14172491Y32948148D01*
X14172492Y32948143D01*
X14219079Y32842634D01*
X14219080Y32842632D01*
X14300632Y32761080D01*
X14300634Y32761079D01*
X14406143Y32714492D01*
X14406148Y32714491D01*
X14431929Y32711500D01*
X14431936Y32711500D01*
X14605500Y32711500D01*
X14673621Y32691498D01*
X14720114Y32637842D01*
X14731500Y32585500D01*
X14731500Y32438500D01*
X14711498Y32370379D01*
X14657842Y32323886D01*
X14605500Y32312500D01*
X14431935Y32312500D01*
X14431932Y32312499D01*
X14406145Y32309508D01*
X14300635Y32262921D01*
X14300633Y32262920D01*
X14300634Y32262920D01*
X14300632Y32262919D01*
X14219080Y32181367D01*
X14219079Y32181365D01*
X14172492Y32075856D01*
X14172491Y32075851D01*
X14169500Y32050070D01*
X14169500Y30433929D01*
X14172491Y30408148D01*
X14172492Y30408143D01*
X14219079Y30302634D01*
X14219080Y30302632D01*
X14300632Y30221080D01*
X14300634Y30221079D01*
X14406143Y30174492D01*
X14406148Y30174491D01*
X14431929Y30171500D01*
X14431936Y30171500D01*
X14605500Y30171500D01*
X14673621Y30151498D01*
X14720114Y30097842D01*
X14731500Y30045500D01*
X14731500Y29218817D01*
X14711498Y29150696D01*
X14694595Y29129722D01*
X13286729Y27721857D01*
X11880672Y26315800D01*
X11859695Y26298895D01*
X11855579Y26296250D01*
X11821067Y26256421D01*
X11818012Y26253140D01*
X11806720Y26241848D01*
X11806717Y26241845D01*
X11797152Y26229067D01*
X11794329Y26225564D01*
X11759824Y26185743D01*
X11759822Y26185740D01*
X11757788Y26181286D01*
X11744048Y26158128D01*
X11741112Y26154206D01*
X11741110Y26154202D01*
X11722690Y26104819D01*
X11720969Y26100665D01*
X11699082Y26052738D01*
X11699078Y26052724D01*
X11698381Y26047876D01*
X11691726Y26021801D01*
X11690011Y26017204D01*
X11690010Y26017199D01*
X11686249Y25964627D01*
X11685769Y25960160D01*
X11683500Y25944370D01*
X11683500Y25928412D01*
X11683339Y25923916D01*
X11679579Y25871351D01*
X11680621Y25866564D01*
X11683499Y25839787D01*
X11683499Y18432213D01*
X11680620Y18405433D01*
X11679579Y18400650D01*
X5206119Y18400650D01*
X5206119Y20024632D01*
X2778537Y20024632D01*
X264500Y20024632D01*
X264500Y40249500D01*
X284502Y40317621D01*
X338158Y40364114D01*
X390500Y40375500D01*
X50409500Y40375500D01*
X50477621Y40355498D01*
G37*
%TD.AperFunction*%
%TD*%
M02*
