%TF.GenerationSoftware,KiCad,Pcbnew,7.0.7-7.0.7~ubuntu23.04.1*%
%TF.CreationDate,2023-09-24T20:35:18+00:00*%
%TF.ProjectId,PCRD07,50435244-3037-42e6-9b69-6361645f7063,REV*%
%TF.SameCoordinates,Original*%
%TF.FileFunction,Paste,Bot*%
%TF.FilePolarity,Positive*%
%FSLAX46Y46*%
G04 Gerber Fmt 4.6, Leading zero omitted, Abs format (unit mm)*
G04 Created by KiCad (PCBNEW 7.0.7-7.0.7~ubuntu23.04.1) date 2023-09-24 20:35:18*
%MOMM*%
%LPD*%
G01*
G04 APERTURE LIST*
G04 Aperture macros list*
%AMRoundRect*
0 Rectangle with rounded corners*
0 $1 Rounding radius*
0 $2 $3 $4 $5 $6 $7 $8 $9 X,Y pos of 4 corners*
0 Add a 4 corners polygon primitive as box body*
4,1,4,$2,$3,$4,$5,$6,$7,$8,$9,$2,$3,0*
0 Add four circle primitives for the rounded corners*
1,1,$1+$1,$2,$3*
1,1,$1+$1,$4,$5*
1,1,$1+$1,$6,$7*
1,1,$1+$1,$8,$9*
0 Add four rect primitives between the rounded corners*
20,1,$1+$1,$2,$3,$4,$5,0*
20,1,$1+$1,$4,$5,$6,$7,0*
20,1,$1+$1,$6,$7,$8,$9,0*
20,1,$1+$1,$8,$9,$2,$3,0*%
G04 Aperture macros list end*
%ADD10RoundRect,0.250000X0.250000X0.475000X-0.250000X0.475000X-0.250000X-0.475000X0.250000X-0.475000X0*%
%ADD11R,0.650000X2.000000*%
%ADD12RoundRect,0.250000X-0.787500X-0.925000X0.787500X-0.925000X0.787500X0.925000X-0.787500X0.925000X0*%
%ADD13RoundRect,0.250000X-0.250000X-0.475000X0.250000X-0.475000X0.250000X0.475000X-0.250000X0.475000X0*%
%ADD14RoundRect,0.250000X-0.450000X-0.425000X0.450000X-0.425000X0.450000X0.425000X-0.450000X0.425000X0*%
%ADD15RoundRect,0.250000X0.475000X-0.250000X0.475000X0.250000X-0.475000X0.250000X-0.475000X-0.250000X0*%
%ADD16R,1.800000X2.500000*%
%ADD17RoundRect,0.250000X0.450000X-0.262500X0.450000X0.262500X-0.450000X0.262500X-0.450000X-0.262500X0*%
%ADD18RoundRect,0.250000X-0.450000X0.262500X-0.450000X-0.262500X0.450000X-0.262500X0.450000X0.262500X0*%
%ADD19RoundRect,0.250000X0.262500X0.450000X-0.262500X0.450000X-0.262500X-0.450000X0.262500X-0.450000X0*%
%ADD20R,1.300000X1.500000*%
%ADD21R,0.700000X3.000000*%
%ADD22R,1.000000X1.000000*%
%ADD23R,1.000000X2.300000*%
%ADD24R,1.000000X3.800000*%
%ADD25R,2.300000X1.000000*%
%ADD26R,3.800000X1.000000*%
%ADD27R,1.560000X0.650000*%
%ADD28RoundRect,0.250000X0.450000X0.425000X-0.450000X0.425000X-0.450000X-0.425000X0.450000X-0.425000X0*%
%ADD29RoundRect,0.250000X-0.262500X-0.450000X0.262500X-0.450000X0.262500X0.450000X-0.262500X0.450000X0*%
%ADD30R,1.400000X0.300000*%
%ADD31RoundRect,0.150000X-0.150000X0.587500X-0.150000X-0.587500X0.150000X-0.587500X0.150000X0.587500X0*%
%ADD32RoundRect,0.250000X-0.425000X0.450000X-0.425000X-0.450000X0.425000X-0.450000X0.425000X0.450000X0*%
%ADD33RoundRect,0.218750X0.381250X-0.218750X0.381250X0.218750X-0.381250X0.218750X-0.381250X-0.218750X0*%
%ADD34R,2.000000X0.650000*%
G04 APERTURE END LIST*
D10*
%TO.C,C2*%
X23452500Y13462000D03*
X21552500Y13462000D03*
%TD*%
D11*
%TO.C,U2*%
X30668000Y12260000D03*
X29718000Y12260000D03*
X28768000Y12260000D03*
X28768000Y15680000D03*
X30668000Y15680000D03*
%TD*%
D12*
%TO.C,C1*%
X34113500Y8382000D03*
X39038500Y8382000D03*
%TD*%
D13*
%TO.C,C4*%
X36896000Y11430000D03*
X38796000Y11430000D03*
%TD*%
D14*
%TO.C,C7*%
X27669500Y30988000D03*
X30369500Y30988000D03*
%TD*%
D15*
%TO.C,C8*%
X11430000Y21148000D03*
X11430000Y23048000D03*
%TD*%
D10*
%TO.C,C9*%
X19746000Y24892000D03*
X17846000Y24892000D03*
%TD*%
D13*
%TO.C,C12*%
X28069500Y33528000D03*
X29969500Y33528000D03*
%TD*%
D10*
%TO.C,C13*%
X16190000Y29464000D03*
X14290000Y29464000D03*
%TD*%
%TO.C,C14*%
X26858000Y9398000D03*
X24958000Y9398000D03*
%TD*%
D13*
%TO.C,C19*%
X25021500Y27432000D03*
X26921500Y27432000D03*
%TD*%
D16*
%TO.C,D1*%
X60706000Y12414000D03*
X60706000Y8414000D03*
%TD*%
D17*
%TO.C,R1*%
X32004000Y30012000D03*
X32004000Y31837000D03*
%TD*%
D18*
%TO.C,R3*%
X29464000Y28789000D03*
X29464000Y26964000D03*
%TD*%
%TO.C,R4*%
X25908000Y20153000D03*
X25908000Y18328000D03*
%TD*%
D19*
%TO.C,R5*%
X26058500Y11430000D03*
X24233500Y11430000D03*
%TD*%
%TO.C,R12*%
X23415000Y15494000D03*
X21590000Y15494000D03*
%TD*%
%TO.C,R13*%
X27138000Y16002000D03*
X25313000Y16002000D03*
%TD*%
D20*
%TO.C,C21*%
X37004000Y14478000D03*
D21*
X38354000Y14478000D03*
D20*
X39704000Y14478000D03*
%TD*%
D22*
%TO.C,M5*%
X9500000Y36728000D03*
D23*
X9500000Y35078000D03*
D24*
X9500000Y29828000D03*
X9500000Y23828000D03*
X9500000Y17828000D03*
X9500000Y11828000D03*
D23*
X9500000Y6578000D03*
D22*
X9500000Y4928000D03*
D25*
X11150000Y36728000D03*
X11150000Y4928000D03*
D26*
X16400000Y36728000D03*
X16400000Y4928000D03*
X22400000Y36728000D03*
X22400000Y4928000D03*
X28400000Y36728000D03*
X28400000Y4928000D03*
X34400000Y36728000D03*
X34400000Y4928000D03*
D25*
X39650000Y36728000D03*
X39650000Y4928000D03*
D22*
X41300000Y36728000D03*
D23*
X41300000Y35078000D03*
D24*
X41300000Y29828000D03*
X41300000Y23828000D03*
X41300000Y17828000D03*
X41300000Y11828000D03*
D23*
X41300000Y6578000D03*
D22*
X41300000Y4928000D03*
%TD*%
D27*
%TO.C,U5*%
X18208000Y-8062000D03*
X18208000Y-7112000D03*
X18208000Y-6162000D03*
X20908000Y-6162000D03*
X20908000Y-8062000D03*
%TD*%
%TO.C,U1*%
X14652000Y12766000D03*
X14652000Y13716000D03*
X14652000Y14666000D03*
X17352000Y14666000D03*
X17352000Y12766000D03*
%TD*%
D13*
%TO.C,C18*%
X33340000Y21336000D03*
X35240000Y21336000D03*
%TD*%
D28*
%TO.C,C11*%
X19384000Y17018000D03*
X16684000Y17018000D03*
%TD*%
D15*
%TO.C,C20*%
X39370000Y19878000D03*
X39370000Y21778000D03*
%TD*%
D29*
%TO.C,R11*%
X4421500Y21082000D03*
X6246500Y21082000D03*
%TD*%
D28*
%TO.C,C5*%
X27258000Y7366000D03*
X24558000Y7366000D03*
%TD*%
D30*
%TO.C,U3*%
X33360000Y23384000D03*
X33360000Y23884000D03*
X33360000Y24384000D03*
X33360000Y24884000D03*
X33360000Y25384000D03*
X37760000Y25384000D03*
X37760000Y24884000D03*
X37760000Y24384000D03*
X37760000Y23884000D03*
X37760000Y23384000D03*
%TD*%
D19*
%TO.C,R6*%
X25042500Y-5588000D03*
X23217500Y-5588000D03*
%TD*%
D31*
%TO.C,U4*%
X12512000Y9319500D03*
X14412000Y9319500D03*
X13462000Y7444500D03*
%TD*%
D28*
%TO.C,C6*%
X16336000Y31496000D03*
X13636000Y31496000D03*
%TD*%
D15*
%TO.C,C17*%
X7366000Y14798000D03*
X7366000Y16698000D03*
%TD*%
D10*
%TO.C,C15*%
X19238000Y19304000D03*
X17338000Y19304000D03*
%TD*%
D18*
%TO.C,R9*%
X19812000Y14882500D03*
X19812000Y13057500D03*
%TD*%
D17*
%TO.C,R8*%
X11430000Y24741500D03*
X11430000Y26566500D03*
%TD*%
D28*
%TO.C,C3*%
X33862000Y19050000D03*
X31162000Y19050000D03*
%TD*%
D29*
%TO.C,R2*%
X21439500Y22098000D03*
X23264500Y22098000D03*
%TD*%
D17*
%TO.C,R7*%
X13462000Y21185500D03*
X13462000Y23010500D03*
%TD*%
D10*
%TO.C,C10*%
X7808000Y26670000D03*
X5908000Y26670000D03*
%TD*%
D32*
%TO.C,C16*%
X7366000Y12526000D03*
X7366000Y9826000D03*
%TD*%
D18*
%TO.C,R10*%
X11430000Y14120500D03*
X11430000Y12295500D03*
%TD*%
D33*
%TO.C,L1*%
X4572000Y22813500D03*
X4572000Y24938500D03*
%TD*%
D34*
%TO.C,U6*%
X15816000Y21148000D03*
X15816000Y22098000D03*
X15816000Y23048000D03*
X19236000Y23048000D03*
X19236000Y21148000D03*
%TD*%
M02*
